<svg xmlns="http://www.w3.org/2000/svg" viewBox="0 0 180 504.19"><defs><style>.cls-1{fill:#fff;stroke-width:1.07px;}.cls-1,.cls-2{stroke:#221f1f;stroke-miterlimit:10;}.cls-2{fill:none;stroke-width:1.07px;}.cls-3,.cls-4,.cls-7{fill:#221f1f;}.cls-4{font-size:8.53px;}.cls-4,.cls-7{font-family:ArialMT, Arial;}.cls-5{letter-spacing:-0.06em;}.cls-6{letter-spacing:-0.02em;}.cls-7{font-size:8.53px;}</style></defs><title>Artboard_Filename_Source</title><g id="Import"><rect class="cls-1" x="13.35" y="9.82" width="153.29" height="35.25"/><line class="cls-2" x1="90" y1="393.83" x2="90" y2="403.15"/><polygon class="cls-3" points="86.28 402.06 90 408.5 93.72 402.06 86.28 402.06"/><line class="cls-2" x1="90" y1="145.16" x2="90" y2="154.48"/><polygon class="cls-3" points="86.28 153.39 90 159.83 93.72 153.39 86.28 153.39"/><line class="cls-2" x1="90" y1="45.07" x2="90" y2="54.39"/><polygon class="cls-3" points="86.28 53.3 90 59.74 93.72 53.3 86.28 53.3"/><line class="cls-2" x1="90" y1="444.45" x2="90" y2="453.77"/><polygon class="cls-3" points="86.28 452.68 90 459.12 93.72 452.68 86.28 452.68"/><line class="cls-2" x1="90" y1="344.6" x2="90" y2="353.92"/><polygon class="cls-3" points="86.28 352.83 90 359.28 93.72 352.83 86.28 352.83"/><line class="cls-2" x1="90" y1="296.28" x2="90" y2="305.6"/><polygon class="cls-3" points="86.28 304.51 90 310.95 93.72 304.51 86.28 304.51"/><line class="cls-2" x1="90" y1="246.36" x2="90" y2="255.67"/><polygon class="cls-3" points="86.28 254.59 90 261.03 93.72 254.59 86.28 254.59"/><line class="cls-2" x1="90" y1="193.53" x2="90" y2="202.84"/><polygon class="cls-3" points="86.28 201.75 90 208.2 93.72 201.75 86.28 201.75"/><line class="cls-2" x1="90" y1="94.99" x2="90" y2="104.31"/><polygon class="cls-3" points="86.28 103.22 90 109.67 93.72 103.22 86.28 103.22"/><text class="cls-4" transform="translate(46.6 24.6)"><tspan class="cls-5">V</tspan><tspan x="5.22" y="0">erify the configuration</tspan><tspan x="18.97" y="10.24" xml:space="preserve"> is supported</tspan></text><rect class="cls-1" x="13.76" y="59.74" width="152.47" height="35.25"/><rect class="cls-1" x="13.76" y="109.67" width="152.47" height="35.25"/><rect class="cls-1" x="13.76" y="159.59" width="152.47" height="35.25"/><rect class="cls-1" x="13.76" y="209.51" width="152.47" height="35.25"/><rect class="cls-1" x="13.76" y="259.43" width="152.47" height="35.25"/><rect class="cls-1" x="13.76" y="309.35" width="152.47" height="35.25"/><rect class="cls-1" x="13.76" y="359.28" width="152.47" height="35.25"/><rect class="cls-1" x="13.76" y="409.2" width="152.47" height="35.25"/><rect class="cls-1" x="13.76" y="459.12" width="152.47" height="35.25"/><text class="cls-4" transform="translate(71.5 74.52)">Configure<tspan x="-40.95" y="10.24">management port I</tspan><tspan class="cls-6" x="30.67" y="10.24">P</tspan><tspan x="36.21" y="10.24" xml:space="preserve"> addresses</tspan></text><text class="cls-4" transform="translate(40.91 429.1)">Configure storage on host</text><text class="cls-4" transform="translate(34.27 479.02)"><tspan class="cls-5">V</tspan><tspan x="5.22" y="0">erify storage access on host</tspan></text><text class="cls-7" transform="translate(25.99 174.37)">Install and configure host utilities, <tspan x="41.49" y="10.24">if applicable</tspan></text><text class="cls-4" transform="translate(24.55 379.18)">Discover assigned storage on host</text><text class="cls-4" transform="translate(31.68 329.26)">Perform protocol-specific tasks</text><text class="cls-4" transform="translate(47.08 274.21)">Follow Setup wizard to<tspan x="-2.14" y="10.24" xml:space="preserve"> configure storage array</tspan></text><text class="cls-4" transform="translate(22.91 229.41)">Access SANtricity System Manager</text><text class="cls-7" transform="translate(34.53 124.45)">Configure multipath software,<tspan x="31.76" y="10.24" xml:space="preserve"> if applicable</tspan></text></g></svg>