<svg xmlns="http://www.w3.org/2000/svg" viewBox="0 0 324 306"><defs><style>.cls-1,.cls-26,.cls-27,.cls-31,.cls-33,.cls-34,.cls-35,.cls-36,.cls-37,.cls-38,.cls-40,.cls-41{fill:none;}.cls-1,.cls-31{stroke:#a2aaad;stroke-linecap:round;}.cls-1,.cls-31,.cls-33,.cls-34,.cls-40,.cls-41{stroke-linejoin:round;}.cls-1{stroke-width:1.2px;}.cls-2,.cls-25,.cls-3{fill:#d0d3d4;}.cls-19,.cls-3,.cls-33,.cls-35,.cls-37,.cls-40{stroke:#fff;}.cls-19,.cls-21,.cls-26,.cls-27,.cls-3,.cls-35,.cls-36,.cls-37,.cls-38{stroke-miterlimit:10;}.cls-19,.cls-3{stroke-width:0.5px;}.cls-4,.cls-8{fill:#a2aaad;}.cls-17,.cls-5{fill:#101820;}.cls-6{fill:#333f48;}.cls-16,.cls-7{fill:#fff;}.cls-11,.cls-12,.cls-13,.cls-16,.cls-17,.cls-18,.cls-19,.cls-25,.cls-27,.cls-28,.cls-30,.cls-8{fill-rule:evenodd;}.cls-21,.cls-9{fill:#f1f1f2;}.cls-10,.cls-13{fill:#595959;}.cls-11,.cls-14{fill:#666;}.cls-12{fill:#f4855c;}.cls-15{fill:#ccc;}.cls-18{fill:#292929;}.cls-19,.cls-22{fill:#ededed;}.cls-20{fill:#e8e7de;}.cls-21{stroke:#d0d3d4;stroke-width:0.25px;}.cls-23{fill:#999;}.cls-24{fill:#eee;}.cls-26,.cls-27{stroke:#ededed;stroke-width:0.46px;}.cls-28{fill:#4d4d4d;}.cls-29{fill:#555;}.cls-30{fill:#6a6a6a;}.cls-31{stroke-width:1.2px;}.cls-32{fill:#005cb9;}.cls-33,.cls-35{stroke-width:3.5px;}.cls-34,.cls-36{stroke:#005cb9;}.cls-34,.cls-36,.cls-38,.cls-41{stroke-width:1.58px;}.cls-37,.cls-40{stroke-width:3px;}.cls-38,.cls-41{stroke:#b2292e;}.cls-39{fill:#b2292e;}</style></defs><g id="Rulers"><rect class="cls-1" x="15.02" y="14.79" width="293.97" height="63.1"/><rect class="cls-2" x="17.72" y="17.93" width="288.57" height="56.83"/><rect class="cls-3" x="19.78" y="47.95" width="136.72" height="23.06" rx="0.76"/><path class="cls-4" d="M139.13,50.26V68.07a1,1,0,0,0,1,1h12.91a1,1,0,0,0,1-1V50.26a1,1,0,0,0-1-1H140.17a1,1,0,0,0-1,1Z"/><path class="cls-4" d="M126.76,66.18H135a.58.58,0,0,0,.58-.58h0V53.38a.58.58,0,0,0-.58-.58h-8.26a.58.58,0,0,0-.58.58V65.6A.58.58,0,0,0,126.76,66.18Z"/><path class="cls-5" d="M134.36,56.43V54.61a.33.33,0,0,0-.33-.33h-6.28a.33.33,0,0,0-.33.33v1.82Z"/><path class="cls-6" d="M134.36,56.43h-6.94V64.2a.33.33,0,0,0,.33.33H134a.33.33,0,0,0,.33-.33h0Z"/><path class="cls-5" d="M140.63,55.47v8a1.69,1.69,0,0,0,.51,1.2l3.24,3.1a1.67,1.67,0,0,0,1.14.45H151a1.65,1.65,0,0,0,1.65-1.65V52.37A1.65,1.65,0,0,0,151,50.72h-5.44a1.68,1.68,0,0,0-1.14.46l-3.24,3.1A1.67,1.67,0,0,0,140.63,55.47Z"/><rect class="cls-7" x="146.73" y="63.73" width="3.3" height="0.99"/><rect class="cls-7" x="143.21" y="59.01" width="3.3" height="0.99"/><rect class="cls-7" x="146.73" y="54.29" width="3.3" height="0.99"/><path class="cls-8" d="M62.9,69.74H84.1a.57.57,0,0,0,.57-.57h0V49.8a.58.58,0,0,0-.57-.57H62.9a.57.57,0,0,0-.57.57V69.17A.56.56,0,0,0,62.9,69.74Z"/><circle class="cls-5" cx="70.68" cy="54.36" r="1.01"/><circle class="cls-5" cx="76.75" cy="54.36" r="1.01"/><g id="Latch_PSU" data-name="Latch/PSU"><rect class="cls-9" x="151.77" y="70.94" width="6.8" height="1.17"/><rect class="cls-10" x="71.04" y="67.77" width="3.32" height="5"/><rect class="cls-10" x="107.43" y="69.44" width="44.34" height="3.34"/><rect class="cls-10" x="106.27" y="69.44" width="1.16" height="3.34"/><rect class="cls-10" x="20.36" y="69.44" width="33.03" height="3.34"/><rect class="cls-10" x="53.39" y="69.44" width="1.16" height="3.34"/><path class="cls-11" d="M87.89,69.44a7.89,7.89,0,0,1-2-.25L81.21,68a8.43,8.43,0,0,0-2-.25h-5a.34.34,0,0,0-.33.34v4.33a.34.34,0,0,0,.33.34h32.08V69.44Z"/><path class="cls-12" d="M76.51,72.27h27.94V69.94H87.89a8.92,8.92,0,0,1-2.12-.26l-4.68-1.17a7.46,7.46,0,0,0-1.88-.24h-2.7Z"/><polygon class="cls-13" points="80.39 70.24 78.95 69.58 78.95 70.96 80.39 70.24"/><path class="cls-11" d="M66.2,69.44H54.55v3.34H71.21a.34.34,0,0,0,.33-.34h0V68.11a.34.34,0,0,0-.33-.34H68.92a.77.77,0,0,0-.5.18l-1.71,1.32A.87.87,0,0,1,66.2,69.44Z"/><rect class="cls-14" x="17.91" y="70.52" width="4.97" height="2.25"/><rect class="cls-15" x="151.77" y="72.11" width="6.22" height="0.67"/></g><path class="cls-16" d="M130.87,59.67a.18.18,0,0,0,.19-.16V58.14a.17.17,0,0,0-.19-.16.15.15,0,0,0-.16.16v1.37a.16.16,0,0,0,.16.16m.64,2.35a.61.61,0,0,0-.64-.6.6.6,0,0,0-.6.6.6.6,0,0,0,.6.61A.62.62,0,0,0,131.51,62Zm.35,0a1,1,0,0,0-1-1,1,1,0,0,0,0,1.91A1,1,0,0,0,131.86,62Z"/><path class="cls-17" d="M76.92,52.17a.18.18,0,0,0-.35,0,.18.18,0,1,0,.35,0Z"/><path class="cls-17" d="M76.92,50.66a.18.18,0,0,0-.35,0l.09,1.21s0,0,.09,0a.14.14,0,0,0,.08,0Z"/><path class="cls-17" d="M70.68,50.16a1.26,1.26,0,1,0,1.25,1.26A1.24,1.24,0,0,0,70.68,50.16Zm-.13.23a1,1,0,0,1,1.06.58l-.7.71-.29-1.09-1,1A1,1,0,0,1,70.55,50.39Zm.26,2a1,1,0,0,1-1-.57l.7-.72.3,1.1.94-1A1,1,0,0,1,70.81,52.44Z"/><rect class="cls-3" x="167.69" y="47.95" width="136.72" height="23.06" rx="0.76"/><path class="cls-4" d="M287,50.26V68.07a1,1,0,0,0,1,1H301a1,1,0,0,0,1-1V50.26a1,1,0,0,0-1-1H288.08a1,1,0,0,0-1,1Z"/><path class="cls-4" d="M274.67,66.18h8.26a.58.58,0,0,0,.58-.58h0V53.38a.58.58,0,0,0-.58-.58h-8.26a.58.58,0,0,0-.58.58V65.6A.58.58,0,0,0,274.67,66.18Z"/><path class="cls-5" d="M282.27,56.43V54.61a.33.33,0,0,0-.33-.33h-6.28a.33.33,0,0,0-.33.33v1.82Z"/><path class="cls-6" d="M282.27,56.43h-6.94V64.2a.33.33,0,0,0,.33.33h6.28a.33.33,0,0,0,.33-.33h0Z"/><path class="cls-5" d="M288.54,55.47v8a1.65,1.65,0,0,0,.51,1.2l3.24,3.1a1.67,1.67,0,0,0,1.14.45h5.44a1.65,1.65,0,0,0,1.65-1.65V52.37a1.65,1.65,0,0,0-1.65-1.65h-5.44a1.68,1.68,0,0,0-1.14.46l-3.24,3.1A1.63,1.63,0,0,0,288.54,55.47Z"/><rect class="cls-7" x="294.64" y="63.73" width="3.3" height="0.99"/><rect class="cls-7" x="291.12" y="59.01" width="3.3" height="0.99"/><rect class="cls-7" x="294.64" y="54.29" width="3.3" height="0.99"/><path class="cls-8" d="M210.81,69.74H232a.57.57,0,0,0,.57-.57h0V49.8a.58.58,0,0,0-.57-.57h-21.2a.57.57,0,0,0-.57.57V69.17A.56.56,0,0,0,210.81,69.74Z"/><circle class="cls-5" cx="218.59" cy="54.36" r="1.01"/><circle class="cls-5" cx="224.66" cy="54.36" r="1.01"/><g id="Latch_PSU-2" data-name="Latch/PSU"><rect class="cls-9" x="299.68" y="70.94" width="6.8" height="1.17"/><rect class="cls-10" x="218.95" y="67.77" width="3.32" height="5"/><rect class="cls-10" x="255.34" y="69.44" width="44.34" height="3.34"/><rect class="cls-10" x="254.18" y="69.44" width="1.16" height="3.34"/><rect class="cls-10" x="168.27" y="69.44" width="33.03" height="3.34"/><rect class="cls-10" x="201.3" y="69.44" width="1.16" height="3.34"/><path class="cls-11" d="M235.8,69.44a8,8,0,0,1-2-.25L229.12,68a8.43,8.43,0,0,0-2-.25h-5a.34.34,0,0,0-.33.34v4.33a.34.34,0,0,0,.33.34h32.08V69.44Z"/><path class="cls-12" d="M224.42,72.27h27.93V69.94H235.8a9,9,0,0,1-2.13-.26L229,68.51a7.51,7.51,0,0,0-1.88-.24h-2.7Z"/><polygon class="cls-13" points="228.3 70.24 226.86 69.58 226.86 70.96 228.3 70.24"/><path class="cls-11" d="M214.11,69.44H202.46v3.34h16.66a.34.34,0,0,0,.33-.34h0V68.11a.34.34,0,0,0-.33-.34h-2.29a.81.81,0,0,0-.51.18l-1.7,1.32A.87.87,0,0,1,214.11,69.44Z"/><rect class="cls-14" x="165.82" y="70.52" width="4.97" height="2.25"/><rect class="cls-15" x="299.68" y="72.11" width="6.22" height="0.67"/></g><path class="cls-16" d="M278.78,59.67a.18.18,0,0,0,.19-.16V58.14a.17.17,0,0,0-.19-.16.15.15,0,0,0-.16.16v1.37a.16.16,0,0,0,.16.16m.64,2.35a.61.61,0,0,0-.64-.6.6.6,0,0,0-.6.6.6.6,0,0,0,.6.61A.62.62,0,0,0,279.42,62Zm.35,0a1,1,0,0,0-1-1,1,1,0,0,0,0,1.91A1,1,0,0,0,279.77,62Z"/><path class="cls-17" d="M224.83,52.17a.18.18,0,0,0-.35,0,.18.18,0,1,0,.35,0Z"/><path class="cls-17" d="M224.83,50.66a.18.18,0,0,0-.35,0l.09,1.21s0,0,.09,0a.14.14,0,0,0,.08,0Z"/><path class="cls-17" d="M218.59,50.16a1.26,1.26,0,1,0,1.25,1.26A1.24,1.24,0,0,0,218.59,50.16Zm-.13.23a1,1,0,0,1,1.06.58l-.7.71-.29-1.09-1,1A1,1,0,0,1,218.46,50.39Zm.26,2a1,1,0,0,1-1.05-.57l.7-.72.3,1.1.94-1A1,1,0,0,1,218.72,52.44Z"/><polygon class="cls-18" points="161.07 27.82 164.55 27.82 164.55 23.6 161.07 23.6 159.45 25.71 161.07 27.82"/><polygon class="cls-18" points="162.9 40.98 164.55 38.87 162.9 36.79 159.45 36.79 159.45 40.98 162.9 40.98"/><polygon class="cls-18" points="161.07 58.23 164.55 58.23 164.55 54.04 161.07 54.04 159.45 56.13 161.07 58.23"/><polygon class="cls-18" points="162.9 71.42 164.55 69.31 162.9 67.2 159.45 67.2 159.45 71.42 162.9 71.42"/><path class="cls-16" d="M161.68,55a1.17,1.17,0,0,0-1.14,1.15A1.15,1.15,0,1,0,161.68,55Zm.13.23a.93.93,0,0,1,.81.76l-.79.46v-1l-1.06.61A.91.91,0,0,1,161.81,55.21Zm-.25,1.86a.91.91,0,0,1-.79-.77l.79-.45v1l1.06-.61A.94.94,0,0,1,161.56,57.07Z"/><path class="cls-7" d="M162.48,24.7h.44l.91,2.16h-.49l-.19-.48h-.91l-.19.48h-.48ZM163,26l-.29-.69-.28.69Z"/><path class="cls-7" d="M160.51,37.88h1a.77.77,0,0,1,.56.19.49.49,0,0,1,.15.36h0a.49.49,0,0,1-.28.46.53.53,0,0,1,.4.53h0c0,.39-.32.59-.8.59h-1Zm1.23.63c0-.14-.11-.22-.31-.22H161v.46h.43c.21,0,.34-.07.34-.23Zm-.23.63H161v.47h.56c.21,0,.33-.08.33-.24h0C161.86,39.23,161.75,39.14,161.51,39.14Z"/><path class="cls-7" d="M163,57.09v-.31h.46V55.7l-.41.15-.09-.32.61-.23h.26v1.48h.41v.31Z"/><path class="cls-7" d="M162.23,70.25V70l.57-.5c.21-.19.29-.28.29-.43a.22.22,0,0,0-.24-.22c-.14,0-.24.07-.36.24l-.26-.23a.73.73,0,0,1,.65-.36.54.54,0,0,1,.6.54h0a.71.71,0,0,1-.31.57l-.42.36h.75v.33Z"/><path class="cls-16" d="M160.87,68.17a1.15,1.15,0,0,0,0,2.29,1.15,1.15,0,0,0,0-2.29Zm.13.2a.93.93,0,0,1,.78.77l-.78.45v-1l-1.07.64A.94.94,0,0,1,161,68.37Zm-.28,1.88a1,1,0,0,1-.79-.76l.79-.46v1l1.06-.61A1,1,0,0,1,160.72,70.25Z"/><path class="cls-19" d="M155.74,21H20.55a.77.77,0,0,0-.77.75V42.93a.76.76,0,0,0,.77.75H155.74a.76.76,0,0,0,.77-.75V21.77A.77.77,0,0,0,155.74,21Z"/><path class="cls-8" d="M22.7,42.7H153.59a.41.41,0,0,0,.41-.4h0V22.81a.39.39,0,0,0-.4-.4H22.7a.4.4,0,0,0-.41.4V42.3A.4.4,0,0,0,22.7,42.7Z"/><rect class="cls-20" x="60.38" y="36.69" width="4.62" height="5.28"/><path class="cls-11" d="M63.37,38.15h0l.3-.25s0,0,0,0h0l-.11-.13H62.35l-.15.13s0,0,0,0h0l.21.25h1Z"/><path class="cls-11" d="M63.46,39.27l.23-.19,0,0,.17-1s0,0,0,0l-.1-.13a0,0,0,0,0-.05,0l-.3.25,0,0-.15.87a0,0,0,0,0,0,0l.15.18S63.45,39.29,63.46,39.27Z"/><path class="cls-11" d="M63.4,39.38l-.23.19s0,0,0,0l-.16.87a0,0,0,0,0,0,0l.21.25s0,0,.05,0l.15-.12v0l.18-1a0,0,0,0,0,0,0l-.15-.18A0,0,0,0,0,63.4,39.38Z"/><path class="cls-11" d="M63.12,39.55h0l.24-.19a0,0,0,0,0,0-.05h0l-.15-.19h-1L62,39.3s0,0,0,.05h0l.15.19h1Z"/><path class="cls-11" d="M62,39.27l.23-.19v0l.15-.87a0,0,0,0,0,0,0l-.21-.25a0,0,0,0,0,0,0L62,38v0l-.17,1s0,0,0,0l.16.18A0,0,0,0,0,62,39.27Z"/><path class="cls-11" d="M63,41h0l.15-.13a0,0,0,0,0,0-.05h0L63,40.51H62l-.31.25a0,0,0,0,0,0,.05h0l.1.13H63Z"/><path class="cls-11" d="M62,40.46l.16-.87s0,0,0,0L62,39.38s0,0,0,0l-.24.19s0,0,0,0l-.17,1s0,0,0,0l.1.13a0,0,0,0,0,.05,0l.3-.25Z"/><path class="cls-11" d="M64.43,40.69a.25.25,0,0,0-.25-.25.26.26,0,0,0-.26.25.26.26,0,0,0,.26.26A.26.26,0,0,0,64.43,40.69Z"/><rect class="cls-21" x="60.38" y="36.69" width="4.62" height="5.28"/><path class="cls-8" d="M63.37,38.15h0l.3-.25s0,0,0,0h0l-.11-.13H62.35l-.15.13s0,0,0,0h0l.21.25h1Z"/><path class="cls-8" d="M63.46,39.27l.23-.19,0,0,.17-1s0,0,0,0l-.1-.13a0,0,0,0,0-.05,0l-.3.25,0,0-.15.87a0,0,0,0,0,0,0l.15.18S63.45,39.29,63.46,39.27Z"/><path class="cls-8" d="M63.4,39.38l-.23.19s0,0,0,0l-.16.87a0,0,0,0,0,0,0l.21.25s0,0,.05,0l.15-.12v0l.18-1a0,0,0,0,0,0,0l-.15-.18A0,0,0,0,0,63.4,39.38Z"/><path class="cls-8" d="M63.12,39.55h0l.24-.19a0,0,0,0,0,0-.05h0l-.15-.19h-1L62,39.3s0,0,0,.05h0l.15.19h1Z"/><path class="cls-8" d="M62,39.27l.23-.19v0l.15-.87a0,0,0,0,0,0,0l-.21-.25a0,0,0,0,0,0,0L62,38v0l-.17,1s0,0,0,0l.16.18A0,0,0,0,0,62,39.27Z"/><path class="cls-8" d="M63,41h0l.15-.13a0,0,0,0,0,0-.05h0L63,40.51H62l-.31.25a0,0,0,0,0,0,.05h0l.1.13H63Z"/><path class="cls-8" d="M62,40.46l.16-.87s0,0,0,0L62,39.38s0,0,0,0l-.24.19s0,0,0,0l-.17,1s0,0,0,0l.1.13a0,0,0,0,0,.05,0l.3-.25Z"/><path class="cls-8" d="M64.43,40.69a.25.25,0,0,0-.25-.25.26.26,0,0,0-.26.25.26.26,0,0,0,.26.26A.26.26,0,0,0,64.43,40.69Z"/><rect class="cls-21" x="66.55" y="36.69" width="4.62" height="5.28"/><path class="cls-8" d="M68.18,40.5h0l-.3.26s0,0,0,0h0l.1.12h1.22s0,0,0,0l.15-.12a0,0,0,0,0,0,0h0l-.21-.25,0,0Z"/><path class="cls-8" d="M68.09,39.38l-.23.19a0,0,0,0,0,0,0l-.18,1a0,0,0,0,0,0,0l.1.12s0,0,0,0l.31-.25v0l.15-.87s0,0,0,0l-.15-.19A0,0,0,0,0,68.09,39.38Z"/><path class="cls-8" d="M68.15,39.27l.24-.19v0l.15-.87a0,0,0,0,0,0,0l-.21-.25a0,0,0,0,0,0,0l-.15.12v0l-.18,1a0,0,0,0,0,0,0l.15.18S68.14,39.29,68.15,39.27Z"/><path class="cls-8" d="M68.44,39.1h0l-.23.19s0,0,0,.05h0l.15.19h1l.23-.19s0,0,0-.05h0l-.15-.19h-1Z"/><path class="cls-8" d="M69.57,39.38l-.23.19s0,0,0,0h0l-.16.87a0,0,0,0,0,0,0l.21.25s0,0,0,0l.15-.12v0l.18-1a0,0,0,0,0,0,0l-.15-.18S69.58,39.36,69.57,39.38Z"/><path class="cls-8" d="M68.54,37.7h0l-.15.13s0,0,0,0h0l.21.25h1l.3-.25s0,0,0,0h0l-.1-.13H68.54Z"/><path class="cls-8" d="M67.12,38a.26.26,0,0,0,.26.25.25.25,0,0,0,.25-.25.26.26,0,0,0-.25-.26A.26.26,0,0,0,67.12,38Z"/><path class="cls-4" d="M69.57,38.2l-.15.86s0,0,0,0l.16.18s0,0,0,0l.23-.2v0l.18-1a0,0,0,0,1,0,0l-.11-.12s0,0-.05,0l-.3.26S69.57,38.19,69.57,38.2Z"/><rect class="cls-22" x="63.94" y="21.66" width="21.94" height="14.07"/><rect class="cls-21" x="67.31" y="27.66" width="15.12" height="7.38" rx="0.41"/><path class="cls-5" d="M66.38,29.12a.82.82,0,0,0-1.64,0,.82.82,0,1,0,1.64,0Z"/><path class="cls-5" d="M85,29.12a.82.82,0,1,0-.82.83A.82.82,0,0,0,85,29.12Z"/><path class="cls-5" d="M66.38,32.63a.82.82,0,0,0-1.64,0,.82.82,0,0,0,1.64,0Z"/><path class="cls-5" d="M85,32.63a.82.82,0,1,0-.82.82A.82.82,0,0,0,85,32.63Z"/><rect class="cls-23" x="74.78" y="27.66" width="0.18" height="7.38"/><rect class="cls-5" x="67.95" y="28.3" width="6.08" height="6.1"/><rect class="cls-5" x="75.71" y="28.3" width="6.08" height="6.1"/><path class="cls-17" d="M76.85,24.43h.2l0,.16h.16l-.2-.75h-.19l-.2.75h.16ZM77,24h0l.07.34h-.15Z"/><path class="cls-17" d="M74.47,24.64a.09.09,0,0,0,.08-.09.09.09,0,0,0-.08-.08.08.08,0,0,0-.08.08A.08.08,0,0,0,74.47,24.64Z"/><path class="cls-17" d="M74.74,24.76a.09.09,0,0,0,.08-.08.08.08,0,0,0-.08-.08.07.07,0,0,0-.08.08A.08.08,0,0,0,74.74,24.76Z"/><path class="cls-17" d="M75,24.88a.07.07,0,0,0,.07-.08.08.08,0,0,0-.07-.08.09.09,0,0,0-.09.08A.08.08,0,0,0,75,24.88Z"/><path class="cls-17" d="M75.27,24.85a.08.08,0,0,0-.08.08.09.09,0,0,0,.08.08.08.08,0,0,0,.08-.08A.07.07,0,0,0,75.27,24.85Z"/><path class="cls-17" d="M75.54,25a.08.08,0,0,0-.08.08.08.08,0,1,0,.16,0A.08.08,0,0,0,75.54,25Z"/><path class="cls-17" d="M75.81,25.1a.07.07,0,0,0-.08.08.08.08,0,0,0,.08.08.09.09,0,0,0,.08-.08A.08.08,0,0,0,75.81,25.1Z"/><path class="cls-17" d="M74.58,24.21a.09.09,0,0,0-.08-.08.08.08,0,0,0-.08.08.07.07,0,0,0,.08.08A.08.08,0,0,0,74.58,24.21Z"/><path class="cls-17" d="M74.87,24.21a.08.08,0,0,0-.08-.08.09.09,0,0,0-.08.08.08.08,0,0,0,.08.08A.07.07,0,0,0,74.87,24.21Z"/><path class="cls-17" d="M75.17,24.21a.09.09,0,0,0-.08-.08.08.08,0,0,0-.08.08.07.07,0,0,0,.08.08A.08.08,0,0,0,75.17,24.21Z"/><path class="cls-17" d="M75.38,24.13a.09.09,0,0,0-.08.08.08.08,0,0,0,.08.08.07.07,0,0,0,.08-.08A.08.08,0,0,0,75.38,24.13Z"/><path class="cls-17" d="M75.76,24.21a.09.09,0,0,0-.08-.08.08.08,0,0,0-.08.08.07.07,0,0,0,.08.08A.08.08,0,0,0,75.76,24.21Z"/><path class="cls-17" d="M76,24.13a.09.09,0,0,0-.08.08.08.08,0,0,0,.08.08.08.08,0,0,0,.09-.08A.09.09,0,0,0,76,24.13Z"/><path class="cls-17" d="M76.27,24.13a.09.09,0,0,0-.08.08.08.08,0,0,0,.08.08.07.07,0,0,0,.08-.08A.08.08,0,0,0,76.27,24.13Z"/><path class="cls-17" d="M74.47,24a.08.08,0,0,0,.08-.08.09.09,0,0,0-.08-.08.08.08,0,0,0-.08.08A.07.07,0,0,0,74.47,24Z"/><path class="cls-17" d="M74.74,23.83a.09.09,0,0,0,.08-.08.08.08,0,0,0-.08-.08.07.07,0,0,0-.08.08A.08.08,0,0,0,74.74,23.83Z"/><path class="cls-17" d="M75,23.71a.08.08,0,0,0,.07-.09.08.08,0,0,0-.07-.08.09.09,0,0,0-.09.08A.09.09,0,0,0,75,23.71Z"/><path class="cls-17" d="M75.27,23.42a.08.08,0,1,0,0,.16.08.08,0,1,0,0-.16Z"/><path class="cls-17" d="M75.54,23.46a.08.08,0,0,0,.08-.08.08.08,0,0,0-.16,0A.08.08,0,0,0,75.54,23.46Z"/><path class="cls-17" d="M75.81,23.17a.08.08,0,0,0-.08.08.07.07,0,0,0,.08.08.08.08,0,0,0,.08-.08A.09.09,0,0,0,75.81,23.17Z"/><path class="cls-17" d="M76.92,23.61c.16,0,.26-.07.26-.23a.2.2,0,0,0-.14-.2l-.12-.05c-.07,0-.08-.06-.08-.1a.08.08,0,0,1,.09-.09s.08,0,.08.11h.15v0c0-.15-.1-.2-.24-.2a.21.21,0,0,0-.24.22c0,.12.07.18.2.23s.14.06.14.13a.08.08,0,0,1-.09.09c-.08,0-.1-.05-.1-.12v0h-.15v0C76.68,23.53,76.74,23.61,76.92,23.61Z"/><path class="cls-17" d="M77,25.17l-.12-.05c-.07,0-.08-.06-.08-.1a.08.08,0,0,1,.09-.09S77,25,77,25h.15v0c0-.14-.1-.2-.24-.2a.21.21,0,0,0-.24.22c0,.13.07.18.2.23s.14.06.14.13a.08.08,0,0,1-.09.09c-.08,0-.1,0-.1-.12v0h-.15v0c0,.14.06.22.24.22s.26-.07.26-.23A.2.2,0,0,0,77,25.17Z"/><path class="cls-17" d="M74.91,25.18l-.69-.48v-.19a.08.08,0,0,0,.06-.1.09.09,0,0,0-.06-.06v-.06a.08.08,0,0,0,.06-.09s0-.06-.06-.06v-.06a.08.08,0,0,0,.06-.1s0-.06-.06-.06v-.2l.69-.48,0,.09.4-.47-.59.2.08.06-.6.42v-.27H73V24h-.5v.42H73v.73h1.23v-.27l.61.42-.08.06.58.21-.39-.48Zm-.8-.13h-1v-.63h.5V24h-.5v-.62h1Z"/><rect class="cls-22" x="50.77" y="23.95" width="11.54" height="8.94"/><polygon class="cls-17" points="52.42 30.01 52.42 31.9 60.67 31.9 60.67 30.01 60.43 29.94 60.43 28.67 60.67 28.59 60.67 26.23 58.84 26.23 58.84 25.28 58.12 25.28 58.12 24.94 54.97 24.94 54.97 25.28 54.25 25.28 54.25 26.23 52.42 26.23 52.42 28.59 52.66 28.67 52.66 29.94 52.42 30.01"/><rect class="cls-22" x="97.6" y="23.95" width="11.54" height="8.94"/><polygon class="cls-17" points="99.25 30.01 99.25 31.9 107.5 31.9 107.5 30.01 107.26 29.94 107.26 28.67 107.5 28.59 107.5 26.23 105.67 26.23 105.67 25.28 104.95 25.28 104.95 24.94 101.8 24.94 101.8 25.28 101.08 25.28 101.08 26.23 99.25 26.23 99.25 28.59 99.5 28.67 99.5 29.94 99.25 30.01"/><rect class="cls-22" x="112.24" y="23.95" width="11.54" height="8.94"/><polygon class="cls-17" points="113.88 30.01 113.88 31.9 122.14 31.9 122.14 30.01 121.89 29.94 121.89 28.67 122.14 28.59 122.14 26.23 120.31 26.23 120.31 25.28 119.59 25.28 119.59 24.94 116.44 24.94 116.44 25.28 115.72 25.28 115.72 26.23 113.88 26.23 113.88 28.59 114.13 28.67 114.13 29.94 113.88 30.01"/><rect class="cls-24" x="28.41" y="26.28" width="19.87" height="7.36"/><rect class="cls-4" x="29.25" y="27.2" width="18.19" height="5.53"/><rect class="cls-5" x="29.36" y="27.31" width="8.93" height="5.32"/><polygon class="cls-25" points="35.72 27.2 35.35 27.2 32.29 27.2 31.93 27.2 31.93 27.3 32.29 27.3 32.29 27.5 35.35 27.5 35.35 27.3 35.72 27.3 35.72 27.2"/><rect class="cls-5" x="38.4" y="27.31" width="8.93" height="5.32"/><polygon class="cls-25" points="44.76 27.21 44.4 27.21 41.33 27.21 40.97 27.21 40.97 27.31 41.33 27.31 41.33 27.51 44.4 27.51 44.4 27.31 44.76 27.31 44.76 27.21"/><line class="cls-26" x1="38.34" y1="27.2" x2="38.34" y2="32.73"/><path class="cls-5" d="M57.51,38.51a.82.82,0,1,0-.82.82A.82.82,0,0,0,57.51,38.51Z"/><path class="cls-5" d="M53.65,38.51a.82.82,0,1,0-1.64,0,.82.82,0,1,0,1.64,0Z"/><path class="cls-5" d="M49.8,38.51a.82.82,0,1,0-.82.82A.82.82,0,0,0,49.8,38.51Z"/><path class="cls-5" d="M43.69,38.51a.82.82,0,0,0-1.64,0,.82.82,0,0,0,1.64,0Z"/><path class="cls-27" d="M92.55,21.81H91.1a.7.7,0,0,0-.7.7v7.86a.7.7,0,0,1-.69.7h-3a.69.69,0,0,0-.7.69V44"/><g id="Latch_Controller_IOM" data-name="Latch/Controller/IOM"><rect class="cls-9" x="146.08" y="43.27" width="12.49" height="0.81"/><path class="cls-28" d="M65.79,41.49v3.25h83.4a.17.17,0,0,0,.16-.17h0V42.79a.17.17,0,0,0-.16-.17H93.74a.16.16,0,0,1-.16-.16v-.81a.16.16,0,0,0-.16-.16H65.79Z"/><path class="cls-29" d="M70.92,41.49H63.35v3.25h22.8V41.49H85.06a6.05,6.05,0,0,1-1.69-.24l-4-1.14a5.6,5.6,0,0,0-1.51-.24H72.69a.45.45,0,0,0-.33.17l-1.11,1.29A.43.43,0,0,1,70.92,41.49Z"/><path class="cls-29" d="M65.42,41.49H54v3.25H70.34a.33.33,0,0,0,.33-.33h0V40.19a.33.33,0,0,0-.33-.33H68.09a.79.79,0,0,0-.49.17l-1.68,1.29A.82.82,0,0,1,65.42,41.49Z"/><path class="cls-30" d="M65.79,41.49H17.88a.16.16,0,0,0-.16.16v2.92a.17.17,0,0,0,.16.17H65.79Z"/><path class="cls-12" d="M85.21,42.07H83.33a6.11,6.11,0,0,1-1.64-.22l-3.62-1a5.57,5.57,0,0,0-1.46-.19H74.53V44H85.21Z"/><polygon class="cls-13" points="77.26 42.31 75.98 41.68 75.98 43.01 77.26 42.31"/></g><path class="cls-25" d="M95.29,29.12a1.74,1.74,0,1,0-1.74,1.75A1.74,1.74,0,0,0,95.29,29.12Z"/><path class="cls-22" d="M92.85,28.7l.12.13a.41.41,0,0,1,0,.59h0l-.12.12a.15.15,0,0,0,0,.2h0l.08.08a.13.13,0,0,0,.2,0l.12-.12a.42.42,0,0,1,.59,0l.13.13a.15.15,0,0,0,.2,0l.08-.09a.14.14,0,0,0,0-.19h0l-.13-.13a.42.42,0,0,1,0-.59h0l.12-.12a.13.13,0,0,0,0-.2h0l-.08-.08a.12.12,0,0,0-.19,0l-.13.12a.42.42,0,0,1-.59,0l-.12-.13a.15.15,0,0,0-.2,0l-.08.09a.12.12,0,0,0,0,.19Z"/><path class="cls-25" d="M129.83,29.12a1.75,1.75,0,1,0-1.74,1.75A1.74,1.74,0,0,0,129.83,29.12Z"/><path class="cls-22" d="M127.39,28.7l.12.13a.42.42,0,0,1,0,.59h0l-.12.12a.13.13,0,0,0,0,.2h0l.08.08a.13.13,0,0,0,.2,0l.12-.12a.42.42,0,0,1,.59,0l.13.13a.14.14,0,0,0,.19,0l.09-.09a.14.14,0,0,0,0-.19h0l-.13-.13a.42.42,0,0,1,0-.59h0l.12-.12a.13.13,0,0,0,0-.2h0l-.08-.08a.13.13,0,0,0-.2,0l-.12.12a.42.42,0,0,1-.59,0l-.13-.13a.14.14,0,0,0-.19,0l-.08.09a.12.12,0,0,0,0,.19Z"/><rect class="cls-22" x="131.44" y="25.68" width="7.91" height="4.63" rx="0.57"/><rect class="cls-22" x="139.95" y="26.75" width="11.89" height="6.09" rx="0.57"/><path class="cls-17" d="M138,27.63a.42.42,0,0,1,.11.29v.89a.36.36,0,0,1-.36.36H133a.36.36,0,0,1-.36-.36v-.89a.42.42,0,0,1,.11-.29h0l.76-.72a.33.33,0,0,1,.25-.11H137a.42.42,0,0,1,.26.11Z"/><path class="cls-5" d="M142,31.48h7.8a.21.21,0,0,0,.23-.19v-3a.24.24,0,0,0-.23-.19H142a.21.21,0,0,0-.2.19v3A.18.18,0,0,0,142,31.48Z"/><path class="cls-19" d="M303.75,21H168.55a.76.76,0,0,0-.76.75V42.93a.75.75,0,0,0,.76.75h135.2a.75.75,0,0,0,.76-.75V21.77A.76.76,0,0,0,303.75,21Z"/><path class="cls-8" d="M170.7,42.7H301.6a.4.4,0,0,0,.4-.4h0V22.81a.4.4,0,0,0-.4-.4H170.7a.4.4,0,0,0-.4.4V42.3A.4.4,0,0,0,170.7,42.7Z"/><rect class="cls-20" x="208.38" y="36.69" width="4.62" height="5.28"/><path class="cls-11" d="M211.37,38.15h0l.31-.25a0,0,0,0,0,0,0h0l-.1-.13h-1.25l-.15.13a0,0,0,0,0,0,0h0l.21.25h1Z"/><path class="cls-11" d="M211.47,39.27l.23-.19v0l.17-1a0,0,0,0,0,0,0l-.11-.13a0,0,0,0,0-.05,0l-.3.25v0l-.15.87s0,0,0,0l.16.18A0,0,0,0,0,211.47,39.27Z"/><path class="cls-11" d="M211.41,39.38l-.24.19s0,0,0,0l-.15.87a0,0,0,0,0,0,0l.21.25a0,0,0,0,0,.05,0l.15-.12v0l.18-1a0,0,0,0,0,0,0l-.15-.18S211.42,39.36,211.41,39.38Z"/><path class="cls-11" d="M211.12,39.55h0l.23-.19s0,0,0-.05h0l-.15-.19h-1l-.23.19s0,0,0,.05h0l.15.19h1Z"/><path class="cls-11" d="M210,39.27l.23-.19v0l.16-.87a0,0,0,0,0,0,0l-.21-.25s0,0,0,0L210,38v0l-.18,1a0,0,0,0,0,0,0l.15.18S210,39.29,210,39.27Z"/><path class="cls-11" d="M211,41h0l.15-.13s0,0,0-.05h0l-.21-.25h-1l-.3.25s0,0,0,.05h0l.1.13H211Z"/><path class="cls-11" d="M210,40.46l.15-.87a0,0,0,0,0,0,0l-.15-.18a0,0,0,0,0,0,0l-.23.19s0,0,0,0l-.18,1s0,0,0,0l.1.13a0,0,0,0,0,0,0l.31-.25Z"/><path class="cls-11" d="M212.44,40.69a.26.26,0,0,0-.26-.25.25.25,0,0,0-.25.25.26.26,0,0,0,.25.26A.26.26,0,0,0,212.44,40.69Z"/><rect class="cls-21" x="208.38" y="36.69" width="4.62" height="5.28"/><path class="cls-8" d="M211.37,38.15h0l.31-.25a0,0,0,0,0,0,0h0l-.1-.13h-1.25l-.15.13a0,0,0,0,0,0,0h0l.21.25h1Z"/><path class="cls-8" d="M211.47,39.27l.23-.19v0l.17-1a0,0,0,0,0,0,0l-.11-.13a0,0,0,0,0-.05,0l-.3.25v0l-.15.87s0,0,0,0l.16.18A0,0,0,0,0,211.47,39.27Z"/><path class="cls-8" d="M211.41,39.38l-.24.19s0,0,0,0l-.15.87a0,0,0,0,0,0,0l.21.25a0,0,0,0,0,.05,0l.15-.12v0l.18-1a0,0,0,0,0,0,0l-.15-.18S211.42,39.36,211.41,39.38Z"/><path class="cls-8" d="M211.12,39.55h0l.23-.19s0,0,0-.05h0l-.15-.19h-1l-.23.19s0,0,0,.05h0l.15.19h1Z"/><path class="cls-8" d="M210,39.27l.23-.19v0l.16-.87a0,0,0,0,0,0,0l-.21-.25s0,0,0,0L210,38v0l-.18,1a0,0,0,0,0,0,0l.15.18S210,39.29,210,39.27Z"/><path class="cls-8" d="M211,41h0l.15-.13s0,0,0-.05h0l-.21-.25h-1l-.3.25s0,0,0,.05h0l.1.13H211Z"/><path class="cls-8" d="M210,40.46l.15-.87a0,0,0,0,0,0,0l-.15-.18a0,0,0,0,0,0,0l-.23.19s0,0,0,0l-.18,1s0,0,0,0l.1.13a0,0,0,0,0,0,0l.31-.25Z"/><path class="cls-8" d="M212.44,40.69a.26.26,0,0,0-.26-.25.25.25,0,0,0-.25.25.26.26,0,0,0,.25.26A.26.26,0,0,0,212.44,40.69Z"/><rect class="cls-21" x="214.55" y="36.69" width="4.62" height="5.28"/><path class="cls-8" d="M216.19,40.5h0l-.31.26a0,0,0,0,0,0,0h0l.1.12h1.25l.15-.12a0,0,0,0,0,0,0h0l-.21-.25,0,0Z"/><path class="cls-8" d="M216.1,39.38l-.24.19v0l-.17,1a0,0,0,0,0,0,0l.1.12s0,0,.05,0l.3-.25s0,0,0,0l.16-.87a0,0,0,0,0,0,0l-.15-.19A0,0,0,0,0,216.1,39.38Z"/><path class="cls-8" d="M216.16,39.27l.23-.19v0l.16-.87a0,0,0,0,0,0,0l-.21-.25s0,0-.05,0l-.15.12v0l-.18,1a0,0,0,0,0,0,0l.15.18A0,0,0,0,0,216.16,39.27Z"/><path class="cls-8" d="M216.44,39.1h0l-.24.19a0,0,0,0,0,0,.05h0l.15.19h1l.23-.19s0,0,0-.05h0l-.15-.19h-1Z"/><path class="cls-8" d="M217.57,39.38l-.23.19s0,0,0,0h0l-.15.87a0,0,0,0,0,0,0l.21.25a0,0,0,0,0,0,0l.15-.12v0l.17-1s0,0,0,0l-.16-.18A0,0,0,0,0,217.57,39.38Z"/><path class="cls-8" d="M216.54,37.7h0l-.15.13a0,0,0,0,0,0,0h0l.21.25h1l.31-.25a0,0,0,0,0,0,0h0l-.1-.13h-1.23Z"/><path class="cls-8" d="M215.13,38a.25.25,0,0,0,.25.25.26.26,0,0,0,.26-.25.26.26,0,0,0-.26-.26A.26.26,0,0,0,215.13,38Z"/><path class="cls-4" d="M217.57,38.2l-.15.86a0,0,0,0,0,0,0l.15.18a0,0,0,0,0,0,0l.23-.2,0,0,.17-1v0l-.1-.12a0,0,0,0,0-.05,0l-.3.26Z"/><rect class="cls-22" x="211.95" y="21.66" width="21.94" height="14.07"/><rect class="cls-21" x="215.31" y="27.66" width="15.12" height="7.38" rx="0.41"/><path class="cls-5" d="M214.39,29.12a.82.82,0,1,0-.82.83A.82.82,0,0,0,214.39,29.12Z"/><path class="cls-5" d="M233,29.12a.82.82,0,1,0-.82.83A.82.82,0,0,0,233,29.12Z"/><path class="cls-5" d="M214.39,32.63a.82.82,0,1,0-.82.82A.82.82,0,0,0,214.39,32.63Z"/><path class="cls-5" d="M233,32.63a.82.82,0,1,0-.82.82A.82.82,0,0,0,233,32.63Z"/><rect class="cls-23" x="222.79" y="27.66" width="0.18" height="7.38"/><rect class="cls-5" x="215.95" y="28.3" width="6.08" height="6.1"/><rect class="cls-5" x="223.71" y="28.3" width="6.08" height="6.1"/><path class="cls-17" d="M224.85,24.43h.2l0,.16h.16l-.2-.75h-.19l-.2.75h.16ZM225,24h0l.08.34h-.15Z"/><path class="cls-17" d="M222.47,24.64a.08.08,0,0,0,.08-.09.08.08,0,0,0-.08-.08.09.09,0,0,0-.08.08A.09.09,0,0,0,222.47,24.64Z"/><path class="cls-17" d="M222.74,24.76a.08.08,0,0,0,.08-.08.07.07,0,0,0-.08-.08.08.08,0,0,0-.08.08A.09.09,0,0,0,222.74,24.76Z"/><path class="cls-17" d="M223,24.88a.08.08,0,0,0,.08-.08.09.09,0,0,0-.08-.08.08.08,0,0,0-.08.08A.07.07,0,0,0,223,24.88Z"/><path class="cls-17" d="M223.28,24.85a.07.07,0,0,0-.08.08.08.08,0,0,0,.08.08.09.09,0,0,0,.08-.08A.08.08,0,0,0,223.28,24.85Z"/><path class="cls-17" d="M223.55,25a.09.09,0,0,0-.09.08.08.08,0,0,0,.09.08.08.08,0,0,0,.08-.08A.09.09,0,0,0,223.55,25Z"/><path class="cls-17" d="M223.81,25.1a.08.08,0,0,0-.08.08.09.09,0,0,0,.08.08.08.08,0,0,0,.08-.08A.07.07,0,0,0,223.81,25.1Z"/><path class="cls-17" d="M222.58,24.21a.08.08,0,0,0-.08-.08.09.09,0,0,0-.08.08.08.08,0,0,0,.08.08A.07.07,0,0,0,222.58,24.21Z"/><path class="cls-17" d="M222.88,24.21a.09.09,0,0,0-.08-.08.08.08,0,0,0-.08.08.07.07,0,0,0,.08.08A.08.08,0,0,0,222.88,24.21Z"/><path class="cls-17" d="M223.17,24.21a.08.08,0,0,0-.08-.08.09.09,0,0,0-.08.08.08.08,0,0,0,.08.08A.07.07,0,0,0,223.17,24.21Z"/><path class="cls-17" d="M223.39,24.13a.08.08,0,0,0-.08.08.07.07,0,0,0,.08.08.08.08,0,0,0,.08-.08A.09.09,0,0,0,223.39,24.13Z"/><path class="cls-17" d="M223.77,24.21a.09.09,0,0,0-.09-.08.09.09,0,0,0-.08.08.08.08,0,0,0,.08.08A.08.08,0,0,0,223.77,24.21Z"/><path class="cls-17" d="M224,24.13a.08.08,0,0,0-.08.08.08.08,0,0,0,.16,0A.08.08,0,0,0,224,24.13Z"/><path class="cls-17" d="M224.27,24.13a.08.08,0,0,0-.07.08.07.07,0,0,0,.07.08.08.08,0,0,0,.09-.08A.09.09,0,0,0,224.27,24.13Z"/><path class="cls-17" d="M222.47,24a.07.07,0,0,0,.08-.08.08.08,0,0,0-.08-.08.09.09,0,0,0-.08.08A.08.08,0,0,0,222.47,24Z"/><path class="cls-17" d="M222.74,23.83a.08.08,0,0,0,.08-.08.07.07,0,0,0-.08-.08.08.08,0,0,0-.08.08A.09.09,0,0,0,222.74,23.83Z"/><path class="cls-17" d="M223,23.71a.09.09,0,0,0,.08-.09.09.09,0,0,0-.08-.08.08.08,0,0,0-.08.08A.08.08,0,0,0,223,23.71Z"/><path class="cls-17" d="M223.28,23.42a.08.08,0,0,0,0,.16.08.08,0,1,0,0-.16Z"/><path class="cls-17" d="M223.55,23.46a.09.09,0,0,0,.08-.08.08.08,0,0,0-.08-.08.08.08,0,0,0-.09.08A.09.09,0,0,0,223.55,23.46Z"/><path class="cls-17" d="M223.81,23.17a.09.09,0,0,0-.08.08.08.08,0,0,0,.08.08.07.07,0,0,0,.08-.08A.08.08,0,0,0,223.81,23.17Z"/><path class="cls-17" d="M224.92,23.61c.17,0,.27-.07.27-.23s0-.15-.15-.2l-.12-.05c-.06,0-.08-.06-.08-.1a.08.08,0,0,1,.09-.09c.06,0,.08,0,.08.11h.15v0c0-.15-.1-.2-.23-.2s-.24.07-.24.22.06.18.2.23.14.06.14.13a.09.09,0,0,1-.1.09c-.08,0-.1-.05-.1-.12v0h-.15v0C224.68,23.53,224.75,23.61,224.92,23.61Z"/><path class="cls-17" d="M225,25.17l-.12-.05c-.06,0-.08-.06-.08-.1a.08.08,0,0,1,.09-.09c.06,0,.08,0,.08.11h.15v0c0-.14-.1-.2-.23-.2s-.24.07-.24.22.06.18.2.23.14.06.14.13a.09.09,0,0,1-.1.09c-.08,0-.1,0-.1-.12v0h-.15v0c0,.14.07.22.24.22s.27-.07.27-.23S225.16,25.22,225,25.17Z"/><path class="cls-17" d="M222.92,25.18l-.7-.48v-.19a.08.08,0,0,0,.06-.1s0-.05-.06-.06v-.06a.1.1,0,0,0,.07-.09.09.09,0,0,0-.07-.06v-.06a.08.08,0,0,0,.06-.1.06.06,0,0,0-.06-.06v-.2l.69-.48,0,.09.41-.47-.59.2.07.06-.6.42v-.27H221V24h-.5v.42h.5v.73h1.22v-.27l.62.42-.08.06.58.21-.4-.48Zm-.81-.13h-1v-.63h.5V24h-.5v-.62h1Z"/><rect class="cls-22" x="198.78" y="23.95" width="11.54" height="8.94"/><polygon class="cls-17" points="200.42 30.01 200.42 31.9 208.68 31.9 208.68 30.01 208.43 29.94 208.43 28.67 208.68 28.59 208.68 26.23 206.85 26.23 206.85 25.28 206.13 25.28 206.13 24.94 202.97 24.94 202.97 25.28 202.25 25.28 202.25 26.23 200.42 26.23 200.42 28.59 200.67 28.67 200.67 29.94 200.42 30.01"/><rect class="cls-22" x="245.61" y="23.95" width="11.54" height="8.94"/><polygon class="cls-17" points="247.25 30.01 247.25 31.9 255.51 31.9 255.51 30.01 255.26 29.94 255.26 28.67 255.51 28.59 255.51 26.23 253.68 26.23 253.68 25.28 252.96 25.28 252.96 24.94 249.8 24.94 249.8 25.28 249.09 25.28 249.09 26.23 247.25 26.23 247.25 28.59 247.5 28.67 247.5 29.94 247.25 30.01"/><rect class="cls-22" x="260.25" y="23.95" width="11.54" height="8.94"/><polygon class="cls-17" points="261.89 30.01 261.89 31.9 270.15 31.9 270.15 30.01 269.9 29.94 269.9 28.67 270.15 28.59 270.15 26.23 268.32 26.23 268.32 25.28 267.6 25.28 267.6 24.94 264.44 24.94 264.44 25.28 263.72 25.28 263.72 26.23 261.89 26.23 261.89 28.59 262.14 28.67 262.14 29.94 261.89 30.01"/><rect class="cls-24" x="176.41" y="26.28" width="19.87" height="7.36"/><rect class="cls-4" x="177.25" y="27.2" width="18.19" height="5.53"/><rect class="cls-5" x="177.36" y="27.31" width="8.93" height="5.32"/><polygon class="cls-25" points="183.72 27.2 183.36 27.2 180.29 27.2 179.93 27.2 179.93 27.3 180.29 27.3 180.29 27.5 183.36 27.5 183.36 27.3 183.72 27.3 183.72 27.2"/><rect class="cls-5" x="186.4" y="27.31" width="8.93" height="5.32"/><polygon class="cls-25" points="192.76 27.21 192.4 27.21 189.33 27.21 188.97 27.21 188.97 27.31 189.33 27.31 189.33 27.51 192.4 27.51 192.4 27.31 192.76 27.31 192.76 27.21"/><line class="cls-26" x1="186.35" y1="27.2" x2="186.35" y2="32.73"/><path class="cls-5" d="M205.51,38.51a.82.82,0,1,0-1.64,0,.82.82,0,0,0,1.64,0Z"/><path class="cls-5" d="M201.66,38.51a.82.82,0,1,0-.82.82A.82.82,0,0,0,201.66,38.51Z"/><path class="cls-5" d="M197.8,38.51a.82.82,0,0,0-1.64,0,.82.82,0,0,0,1.64,0Z"/><path class="cls-5" d="M191.7,38.51a.82.82,0,1,0-.82.82A.82.82,0,0,0,191.7,38.51Z"/><path class="cls-27" d="M240.56,21.81H239.1a.69.69,0,0,0-.69.7v7.86a.7.7,0,0,1-.7.7h-3.05a.69.69,0,0,0-.69.69V44"/><g id="Latch_Controller_IOM-2" data-name="Latch/Controller/IOM"><rect class="cls-9" x="294.08" y="43.27" width="12.49" height="0.81"/><path class="cls-28" d="M213.79,41.49v3.25h83.4a.18.18,0,0,0,.17-.17h0V42.79a.18.18,0,0,0-.17-.17H241.75a.16.16,0,0,1-.16-.16v-.81a.17.17,0,0,0-.17-.16H213.79Z"/><path class="cls-29" d="M218.93,41.49h-7.58v3.25h22.8V41.49h-1.08a6.18,6.18,0,0,1-1.7-.24l-4-1.14a5.54,5.54,0,0,0-1.51-.24h-5.2a.43.43,0,0,0-.33.17l-1.11,1.29A.45.45,0,0,1,218.93,41.49Z"/><path class="cls-29" d="M213.43,41.49H202v3.25h16.37a.32.32,0,0,0,.32-.33h0V40.19a.32.32,0,0,0-.32-.33H216.1a.84.84,0,0,0-.5.17l-1.68,1.29A.79.79,0,0,1,213.43,41.49Z"/><path class="cls-30" d="M213.79,41.49h-47.9a.16.16,0,0,0-.16.16v2.92a.17.17,0,0,0,.16.17h47.9Z"/><path class="cls-12" d="M233.22,42.07h-1.88a6.13,6.13,0,0,1-1.65-.22l-3.61-1a5.57,5.57,0,0,0-1.46-.19h-2.09V44h10.69Z"/><polygon class="cls-13" points="225.27 42.31 223.99 41.68 223.98 43.01 225.27 42.31"/></g><path class="cls-25" d="M243.29,29.12a1.74,1.74,0,1,0-1.74,1.75A1.74,1.74,0,0,0,243.29,29.12Z"/><path class="cls-22" d="M240.85,28.7l.13.13a.42.42,0,0,1,0,.59h0l-.12.12a.13.13,0,0,0,0,.2h0l.08.08a.13.13,0,0,0,.2,0l.12-.12a.42.42,0,0,1,.59,0l.12.13a.15.15,0,0,0,.2,0l.08-.09a.12.12,0,0,0,0-.19h0l-.12-.13a.41.41,0,0,1,0-.59h0l.12-.12a.15.15,0,0,0,0-.2h0l-.08-.08a.13.13,0,0,0-.2,0l-.12.12a.42.42,0,0,1-.59,0l-.13-.13a.15.15,0,0,0-.2,0l-.08.09a.14.14,0,0,0,0,.19Z"/><path class="cls-25" d="M277.83,29.12a1.74,1.74,0,1,0-1.74,1.75A1.74,1.74,0,0,0,277.83,29.12Z"/><path class="cls-22" d="M275.39,28.7l.13.13a.42.42,0,0,1,0,.59h0l-.13.12a.15.15,0,0,0,0,.2h0l.09.08a.12.12,0,0,0,.19,0l.12-.12a.43.43,0,0,1,.6,0l.12.13a.15.15,0,0,0,.2,0l.08-.09a.12.12,0,0,0,0-.19h0l-.13-.13a.42.42,0,0,1,0-.59h0l.13-.12a.15.15,0,0,0,0-.2h0l-.08-.08a.13.13,0,0,0-.2,0l-.12.12a.44.44,0,0,1-.6,0l-.12-.13a.15.15,0,0,0-.2,0l-.08.09a.14.14,0,0,0,0,.19Z"/><rect class="cls-22" x="279.44" y="25.68" width="7.91" height="4.63" rx="0.57"/><rect class="cls-22" x="287.96" y="26.75" width="11.89" height="6.09" rx="0.57"/><path class="cls-17" d="M286,27.63a.41.41,0,0,1,.1.29v.89a.36.36,0,0,1-.36.36H281a.36.36,0,0,1-.36-.36v-.89a.38.38,0,0,1,.11-.29h0l.75-.72a.33.33,0,0,1,.25-.11H285a.4.4,0,0,1,.25.11Z"/><path class="cls-5" d="M290,31.48h7.81a.21.21,0,0,0,.23-.19v-3a.25.25,0,0,0-.23-.19H290a.2.2,0,0,0-.19.19v3A.18.18,0,0,0,290,31.48Z"/><rect class="cls-31" x="15.02" y="85.9" width="293.97" height="63.1"/><rect class="cls-2" x="17.72" y="89.03" width="288.57" height="56.83"/><path class="cls-19" d="M155.74,92.13H20.55a.76.76,0,0,0-.77.75V114a.76.76,0,0,0,.77.74H155.74a.76.76,0,0,0,.77-.74V92.88A.76.76,0,0,0,155.74,92.13Z"/><path class="cls-8" d="M22.7,113.8H153.59a.41.41,0,0,0,.41-.4h0V93.92a.4.4,0,0,0-.4-.41H22.7a.41.41,0,0,0-.41.41V113.4A.4.4,0,0,0,22.7,113.8Z"/><rect class="cls-22" x="68.03" y="92.82" width="65.65" height="14.92"/><g id="Latch_Controller_IOM-3" data-name="Latch/Controller/IOM"><rect class="cls-9" x="146.08" y="114.38" width="12.49" height="0.81"/><path class="cls-28" d="M65.79,112.59v3.25h83.4a.16.16,0,0,0,.16-.16h0v-1.79a.16.16,0,0,0-.16-.16H93.74a.16.16,0,0,1-.16-.16v-.82a.16.16,0,0,0-.16-.16H65.79Z"/><path class="cls-29" d="M70.92,112.59H63.35v3.25h22.8v-3.25H85.06a6.05,6.05,0,0,1-1.69-.24l-4-1.14A6.51,6.51,0,0,0,77.9,111H72.69a.45.45,0,0,0-.33.17l-1.11,1.28A.43.43,0,0,1,70.92,112.59Z"/><path class="cls-29" d="M65.42,112.59H54v3.25H70.34a.33.33,0,0,0,.33-.33h0v-4.22a.32.32,0,0,0-.33-.32H68.09a.79.79,0,0,0-.49.17l-1.68,1.28A.82.82,0,0,1,65.42,112.59Z"/><path class="cls-30" d="M65.79,112.59H17.88a.16.16,0,0,0-.16.16v2.93a.16.16,0,0,0,.16.16H65.79Z"/><path class="cls-12" d="M85.21,113.17H83.33a6.53,6.53,0,0,1-1.64-.21l-3.62-1a6,6,0,0,0-1.46-.19H74.53v3.29H85.21Z"/><polygon class="cls-13" points="77.26 113.42 75.98 112.78 75.98 114.11 77.26 113.42"/></g><path class="cls-5" d="M73.85,100.28a.76.76,0,1,0-.75.76A.76.76,0,0,0,73.85,100.28Z"/><path class="cls-5" d="M96.48,100.28a.76.76,0,1,0-.75.76A.76.76,0,0,0,96.48,100.28Z"/><path class="cls-5" d="M73.85,103.51a.76.76,0,1,0-.75.75A.76.76,0,0,0,73.85,103.51Z"/><path class="cls-5" d="M96.53,103.51a.76.76,0,1,0-.76.75A.76.76,0,0,0,96.53,103.51Z"/><path class="cls-5" d="M105.23,100.28a.76.76,0,1,0-.76.76A.76.76,0,0,0,105.23,100.28Z"/><path class="cls-5" d="M127.91,100.28a.76.76,0,0,0-.76-.75.76.76,0,0,0,0,1.51A.76.76,0,0,0,127.91,100.28Z"/><path class="cls-5" d="M105.23,103.51a.76.76,0,1,0-.76.75A.76.76,0,0,0,105.23,103.51Z"/><path class="cls-5" d="M127.91,103.51a.76.76,0,0,0-.76-.76.76.76,0,1,0,.76.76Z"/><rect class="cls-9" x="77.48" y="99.35" width="13.92" height="6.79" rx="0.41"/><path class="cls-5" d="M139.23,100.28a.75.75,0,0,0-.75-.75.76.76,0,1,0,.75.75Z"/><path class="cls-5" d="M139.23,103.51a.75.75,0,0,0-.75-.76.76.76,0,1,0,0,1.51A.75.75,0,0,0,139.23,103.51Z"/><rect class="cls-23" x="84.35" y="92.82" width="0.16" height="13.33"/><rect class="cls-9" x="108.86" y="99.35" width="13.92" height="6.79" rx="0.41"/><rect class="cls-23" x="115.73" y="92.82" width="0.16" height="13.33"/><path class="cls-17" d="M102,95.54h.2l0,.16h.16l-.2-.76H102l-.2.76h.16Zm.1-.47h0l.07.34H102Z"/><path class="cls-17" d="M99.6,95.74a.09.09,0,0,0,.08-.08.08.08,0,0,0-.08-.08.07.07,0,0,0-.08.08A.08.08,0,0,0,99.6,95.74Z"/><path class="cls-17" d="M99.87,95.86a.08.08,0,0,0,.08-.08.09.09,0,0,0-.08-.08.08.08,0,0,0-.08.08A.07.07,0,0,0,99.87,95.86Z"/><path class="cls-17" d="M100.14,96a.08.08,0,0,0,.07-.08.07.07,0,0,0-.07-.08.08.08,0,0,0-.09.08A.09.09,0,0,0,100.14,96Z"/><path class="cls-17" d="M100.4,96a.09.09,0,0,0-.08.08.08.08,0,0,0,.08.08.07.07,0,0,0,.08-.08A.08.08,0,0,0,100.4,96Z"/><path class="cls-17" d="M100.67,96.08a.07.07,0,0,0-.08.08.08.08,0,0,0,.16,0A.07.07,0,0,0,100.67,96.08Z"/><path class="cls-17" d="M100.94,96.2a.08.08,0,0,0,0,.16.08.08,0,0,0,0-.16Z"/><path class="cls-17" d="M99.71,95.32a.08.08,0,0,0-.08-.08.07.07,0,0,0-.08.08.08.08,0,0,0,.08.08A.09.09,0,0,0,99.71,95.32Z"/><path class="cls-17" d="M100,95.32a.07.07,0,0,0-.08-.08.08.08,0,0,0-.08.08.09.09,0,0,0,.08.08A.08.08,0,0,0,100,95.32Z"/><path class="cls-17" d="M100.3,95.32a.08.08,0,0,0-.08-.08.07.07,0,0,0-.08.08.08.08,0,0,0,.08.08A.09.09,0,0,0,100.3,95.32Z"/><path class="cls-17" d="M100.51,95.24a.08.08,0,0,0-.08.08.09.09,0,0,0,.08.08.08.08,0,0,0,.08-.08A.07.07,0,0,0,100.51,95.24Z"/><path class="cls-17" d="M100.89,95.32a.08.08,0,0,0-.08-.08.07.07,0,0,0-.08.08.08.08,0,0,0,.08.08A.09.09,0,0,0,100.89,95.32Z"/><path class="cls-17" d="M101.1,95.24a.08.08,0,0,0-.08.08.09.09,0,0,0,.08.08.09.09,0,0,0,.09-.08A.08.08,0,0,0,101.1,95.24Z"/><path class="cls-17" d="M101.4,95.24a.08.08,0,0,0-.08.08.09.09,0,0,0,.08.08.08.08,0,0,0,.08-.08A.07.07,0,0,0,101.4,95.24Z"/><path class="cls-17" d="M99.6,95.06a.09.09,0,0,0,.08-.08.08.08,0,0,0-.08-.08.07.07,0,0,0-.08.08A.08.08,0,0,0,99.6,95.06Z"/><path class="cls-17" d="M99.87,94.93a.08.08,0,0,0,.08-.08.09.09,0,0,0-.08-.08.08.08,0,0,0-.08.08A.07.07,0,0,0,99.87,94.93Z"/><path class="cls-17" d="M100.14,94.81a.08.08,0,0,0,.07-.08.07.07,0,0,0-.07-.08.08.08,0,0,0-.09.08A.09.09,0,0,0,100.14,94.81Z"/><path class="cls-17" d="M100.4,94.52a.09.09,0,0,0-.08.08.09.09,0,0,0,.08.09.08.08,0,0,0,.08-.09A.08.08,0,0,0,100.4,94.52Z"/><path class="cls-17" d="M100.67,94.56a.08.08,0,1,0-.08-.08A.08.08,0,0,0,100.67,94.56Z"/><path class="cls-17" d="M100.94,94.28a.07.07,0,0,0-.08.08.08.08,0,0,0,.08.08.09.09,0,0,0,.08-.08A.08.08,0,0,0,100.94,94.28Z"/><path class="cls-17" d="M102.05,94.71c.16,0,.26-.07.26-.23a.2.2,0,0,0-.14-.2l-.12,0c-.07,0-.08,0-.08-.1a.08.08,0,0,1,.09-.09s.08,0,.08.11h.15v0c0-.14-.1-.2-.24-.2a.21.21,0,0,0-.24.22c0,.13.07.18.2.23s.14.06.14.13a.08.08,0,0,1-.09.09c-.08,0-.1,0-.1-.11v0h-.15v0C101.81,94.63,101.87,94.71,102.05,94.71Z"/><path class="cls-17" d="M102.17,96.28l-.12-.06c-.07,0-.08,0-.08-.1a.08.08,0,0,1,.09-.09s.08,0,.08.12h.15v0c0-.14-.1-.2-.24-.2a.22.22,0,0,0-.24.22c0,.13.07.19.2.23s.14.06.14.13a.08.08,0,0,1-.09.09c-.08,0-.1,0-.1-.11v0h-.15v0c0,.14.06.22.24.22s.26-.08.26-.23A.19.19,0,0,0,102.17,96.28Z"/><path class="cls-17" d="M100,96.28l-.69-.48v-.19a.08.08,0,0,0,.06-.09s0-.06-.06-.06V95.4a.08.08,0,0,0,.06-.1.09.09,0,0,0-.06-.06v-.06a.08.08,0,0,0,.06-.09.09.09,0,0,0-.06-.07v-.2l.69-.48,0,.09.4-.47-.59.21.08,0-.6.42v-.26H98.12v.73h-.5v.42h.5v.73h1.23V96l.61.43-.08,0,.58.22-.39-.48Zm-.8-.13h-1v-.62h.5v-.42h-.5v-.62h1Z"/><rect class="cls-3" x="19.78" y="119.06" width="136.72" height="23.06" rx="0.76"/><path class="cls-4" d="M139.13,121.36v17.81a1,1,0,0,0,1,1h12.91a1,1,0,0,0,1-1V121.36a1,1,0,0,0-1-1H140.17a1,1,0,0,0-1,1Z"/><path class="cls-4" d="M126.76,137.28H135a.58.58,0,0,0,.58-.58h0V124.48a.58.58,0,0,0-.58-.58h-8.26a.58.58,0,0,0-.58.58V136.7A.58.58,0,0,0,126.76,137.28Z"/><path class="cls-5" d="M134.36,127.54v-1.82a.33.33,0,0,0-.33-.33h-6.28a.33.33,0,0,0-.33.33v1.82Z"/><path class="cls-6" d="M134.36,127.54h-6.94v7.76a.33.33,0,0,0,.33.33H134a.33.33,0,0,0,.33-.33h0Z"/><path class="cls-5" d="M140.63,126.58v8a1.67,1.67,0,0,0,.51,1.19l3.24,3.1a1.68,1.68,0,0,0,1.14.46H151a1.65,1.65,0,0,0,1.65-1.65V123.48a1.65,1.65,0,0,0-1.65-1.65h-5.44a1.67,1.67,0,0,0-1.14.45l-3.24,3.1A1.71,1.71,0,0,0,140.63,126.58Z"/><rect class="cls-7" x="146.73" y="134.83" width="3.3" height="0.99"/><rect class="cls-7" x="143.21" y="130.11" width="3.3" height="0.99"/><rect class="cls-7" x="146.73" y="125.39" width="3.3" height="0.99"/><path class="cls-8" d="M62.9,140.85H84.1a.58.58,0,0,0,.57-.57h0V120.91a.57.57,0,0,0-.57-.57H62.9a.56.56,0,0,0-.57.57v19.37A.57.57,0,0,0,62.9,140.85Z"/><circle class="cls-5" cx="70.68" cy="125.46" r="1.01"/><circle class="cls-5" cx="76.75" cy="125.46" r="1.01"/><g id="Latch_PSU-3" data-name="Latch/PSU"><rect class="cls-9" x="151.77" y="142.04" width="6.8" height="1.17"/><rect class="cls-10" x="71.04" y="138.88" width="3.32" height="5"/><rect class="cls-10" x="107.43" y="140.54" width="44.34" height="3.34"/><rect class="cls-10" x="106.27" y="140.54" width="1.16" height="3.34"/><rect class="cls-10" x="20.36" y="140.54" width="33.03" height="3.34"/><rect class="cls-10" x="53.39" y="140.54" width="1.16" height="3.34"/><path class="cls-11" d="M87.89,140.54a8.36,8.36,0,0,1-2-.24l-4.68-1.18a8.42,8.42,0,0,0-2-.24h-5a.33.33,0,0,0-.33.33v4.34a.33.33,0,0,0,.33.33h32.08v-3.34Z"/><path class="cls-12" d="M76.51,143.38h27.94V141H87.89a8.43,8.43,0,0,1-2.12-.26l-4.68-1.17a7.45,7.45,0,0,0-1.88-.23h-2.7Z"/><polygon class="cls-13" points="80.39 141.34 78.95 140.69 78.95 142.07 80.39 141.34"/><path class="cls-11" d="M66.2,140.54H54.55v3.34H71.21a.33.33,0,0,0,.33-.33h0v-4.34a.33.33,0,0,0-.33-.33H68.92a.82.82,0,0,0-.5.17l-1.71,1.32A.87.87,0,0,1,66.2,140.54Z"/><rect class="cls-14" x="17.91" y="141.63" width="4.97" height="2.25"/><rect class="cls-15" x="151.77" y="143.21" width="6.22" height="0.67"/></g><path class="cls-16" d="M130.87,130.77a.17.17,0,0,0,.19-.16v-1.37a.18.18,0,0,0-.19-.16.16.16,0,0,0-.16.16v1.37a.15.15,0,0,0,.16.16m.64,2.36a.62.62,0,0,0-.64-.61.6.6,0,0,0-.6.61.6.6,0,0,0,.6.6A.61.61,0,0,0,131.51,133.13Zm.35,0a1,1,0,0,0-1-1,1,1,0,1,0,1,1Z"/><path class="cls-17" d="M76.92,123.28a.18.18,0,1,0-.17.17A.18.18,0,0,0,76.92,123.28Z"/><path class="cls-17" d="M76.92,121.76a.18.18,0,0,0-.35,0l.09,1.22s0,0,.09,0a.14.14,0,0,0,.08,0Z"/><path class="cls-17" d="M70.68,121.27a1.25,1.25,0,1,0,1.25,1.25A1.24,1.24,0,0,0,70.68,121.27Zm-.13.22a1,1,0,0,1,1.06.59l-.7.7-.29-1.09-1,1A1,1,0,0,1,70.55,121.49Zm.26,2.06a1,1,0,0,1-1-.58l.7-.71.3,1.09.94-.95A1,1,0,0,1,70.81,123.55Z"/><path class="cls-19" d="M303.65,92.13H168.45a.75.75,0,0,0-.76.75V114a.75.75,0,0,0,.76.74h135.2a.75.75,0,0,0,.76-.74V92.88A.75.75,0,0,0,303.65,92.13Z"/><path class="cls-8" d="M170.61,113.8H301.5a.41.41,0,0,0,.41-.4h0V93.92a.4.4,0,0,0-.4-.41H170.61a.41.41,0,0,0-.41.41V113.4A.4.4,0,0,0,170.61,113.8Z"/><rect class="cls-22" x="215.94" y="92.82" width="65.65" height="14.92"/><g id="Latch_Controller_IOM-4" data-name="Latch/Controller/IOM"><rect class="cls-9" x="293.99" y="114.38" width="12.49" height="0.81"/><path class="cls-28" d="M213.69,112.59v3.25H297.1a.16.16,0,0,0,.16-.16h0v-1.79a.16.16,0,0,0-.16-.16H241.65a.16.16,0,0,1-.16-.16v-.82a.16.16,0,0,0-.16-.16H213.69Z"/><path class="cls-29" d="M218.83,112.59h-7.57v3.25h22.8v-3.25H233a6.05,6.05,0,0,1-1.69-.24l-4-1.14a6.51,6.51,0,0,0-1.51-.24H220.6a.45.45,0,0,0-.33.17l-1.11,1.28A.43.43,0,0,1,218.83,112.59Z"/><path class="cls-29" d="M213.33,112.59H201.88v3.25h16.37a.33.33,0,0,0,.33-.33h0v-4.22a.32.32,0,0,0-.33-.32H216a.79.79,0,0,0-.49.17l-1.68,1.28A.82.82,0,0,1,213.33,112.59Z"/><path class="cls-30" d="M213.69,112.59h-47.9a.16.16,0,0,0-.16.16v2.93a.16.16,0,0,0,.16.16h47.9Z"/><path class="cls-12" d="M233.12,113.17h-1.88a6.47,6.47,0,0,1-1.64-.21L226,112a6,6,0,0,0-1.46-.19h-2.08v3.29h10.68Z"/><polygon class="cls-13" points="225.17 113.42 223.89 112.78 223.89 114.11 225.17 113.42"/></g><path class="cls-5" d="M221.76,100.28a.76.76,0,1,0-.76.76A.76.76,0,0,0,221.76,100.28Z"/><path class="cls-5" d="M244.39,100.28a.76.76,0,1,0-.75.76A.76.76,0,0,0,244.39,100.28Z"/><path class="cls-5" d="M221.76,103.51a.76.76,0,1,0-.76.75A.76.76,0,0,0,221.76,103.51Z"/><path class="cls-5" d="M244.44,103.51a.76.76,0,0,0-.76-.76.76.76,0,1,0,.76.76Z"/><path class="cls-5" d="M253.14,100.28a.76.76,0,1,0-.76.76A.76.76,0,0,0,253.14,100.28Z"/><path class="cls-5" d="M275.82,100.28a.76.76,0,0,0-.76-.75.76.76,0,0,0,0,1.51A.76.76,0,0,0,275.82,100.28Z"/><path class="cls-5" d="M253.14,103.51a.76.76,0,1,0-.76.75A.76.76,0,0,0,253.14,103.51Z"/><path class="cls-5" d="M275.82,103.51a.76.76,0,0,0-.76-.76.76.76,0,1,0,.76.76Z"/><rect class="cls-9" x="225.39" y="99.35" width="13.92" height="6.79" rx="0.41"/><path class="cls-5" d="M287.14,100.28a.76.76,0,1,0-.75.76A.76.76,0,0,0,287.14,100.28Z"/><path class="cls-5" d="M287.14,103.51a.76.76,0,1,0-.75.75A.76.76,0,0,0,287.14,103.51Z"/><rect class="cls-23" x="232.26" y="92.82" width="0.16" height="13.33"/><rect class="cls-9" x="256.76" y="99.35" width="13.92" height="6.79" rx="0.41"/><rect class="cls-23" x="263.64" y="92.82" width="0.16" height="13.33"/><path class="cls-17" d="M249.88,95.54h.21l0,.16h.16l-.2-.76h-.19l-.2.76h.16Zm.11-.47h0l.07.34h-.15Z"/><path class="cls-17" d="M247.51,95.74a.09.09,0,0,0,.08-.08.08.08,0,0,0-.08-.08.07.07,0,0,0-.08.08A.08.08,0,0,0,247.51,95.74Z"/><path class="cls-17" d="M247.78,95.86a.08.08,0,0,0,.08-.08.09.09,0,0,0-.08-.08.09.09,0,0,0-.09.08A.08.08,0,0,0,247.78,95.86Z"/><path class="cls-17" d="M248,96a.08.08,0,0,0,.08-.08.07.07,0,0,0-.08-.08.08.08,0,0,0-.08.08A.09.09,0,0,0,248,96Z"/><path class="cls-17" d="M248.31,96a.09.09,0,0,0-.08.08.08.08,0,0,0,.08.08.07.07,0,0,0,.08-.08A.08.08,0,0,0,248.31,96Z"/><path class="cls-17" d="M248.58,96.08a.07.07,0,0,0-.08.08.08.08,0,1,0,.16,0A.07.07,0,0,0,248.58,96.08Z"/><path class="cls-17" d="M248.85,96.2a.08.08,0,1,0,0,.16.08.08,0,1,0,0-.16Z"/><path class="cls-17" d="M247.62,95.32a.08.08,0,0,0-.08-.08.08.08,0,0,0-.09.08.09.09,0,0,0,.09.08A.09.09,0,0,0,247.62,95.32Z"/><path class="cls-17" d="M247.91,95.32a.07.07,0,0,0-.08-.08.08.08,0,0,0-.08.08.09.09,0,0,0,.08.08A.08.08,0,0,0,247.91,95.32Z"/><path class="cls-17" d="M248.21,95.32a.08.08,0,0,0-.08-.08.07.07,0,0,0-.08.08.08.08,0,0,0,.08.08A.09.09,0,0,0,248.21,95.32Z"/><path class="cls-17" d="M248.42,95.24a.08.08,0,0,0-.08.08.09.09,0,0,0,.08.08.08.08,0,0,0,.08-.08A.07.07,0,0,0,248.42,95.24Z"/><path class="cls-17" d="M248.8,95.32a.08.08,0,0,0-.08-.08.07.07,0,0,0-.08.08.08.08,0,0,0,.08.08A.09.09,0,0,0,248.8,95.32Z"/><path class="cls-17" d="M249,95.24a.08.08,0,0,0-.08.08.09.09,0,0,0,.08.08.09.09,0,0,0,.09-.08A.08.08,0,0,0,249,95.24Z"/><path class="cls-17" d="M249.31,95.24a.08.08,0,0,0-.08.08.08.08,0,1,0,.16,0A.08.08,0,0,0,249.31,95.24Z"/><path class="cls-17" d="M247.51,95.06a.09.09,0,0,0,.08-.08.08.08,0,0,0-.08-.08.07.07,0,0,0-.08.08A.08.08,0,0,0,247.51,95.06Z"/><path class="cls-17" d="M247.78,94.93a.08.08,0,0,0,.08-.08.09.09,0,0,0-.08-.08.09.09,0,0,0-.09.08A.08.08,0,0,0,247.78,94.93Z"/><path class="cls-17" d="M248,94.81a.08.08,0,0,0,.08-.08.07.07,0,0,0-.08-.08.08.08,0,0,0-.08.08A.09.09,0,0,0,248,94.81Z"/><path class="cls-17" d="M248.31,94.52a.09.09,0,0,0-.08.08.09.09,0,0,0,.08.09.08.08,0,0,0,.08-.09A.08.08,0,0,0,248.31,94.52Z"/><path class="cls-17" d="M248.58,94.56a.08.08,0,1,0-.08-.08A.08.08,0,0,0,248.58,94.56Z"/><path class="cls-17" d="M248.85,94.28a.07.07,0,0,0-.08.08.08.08,0,0,0,.08.08.09.09,0,0,0,.08-.08A.08.08,0,0,0,248.85,94.28Z"/><path class="cls-17" d="M250,94.71c.16,0,.26-.07.26-.23s0-.15-.15-.2l-.11,0c-.07,0-.08,0-.08-.1A.08.08,0,0,1,250,94c.05,0,.08,0,.08.11h.14v0c0-.14-.09-.2-.23-.2a.21.21,0,0,0-.24.22c0,.13.07.18.2.23s.14.06.14.13a.09.09,0,0,1-.09.09c-.08,0-.1,0-.1-.11v0h-.16v0C249.71,94.63,249.78,94.71,250,94.71Z"/><path class="cls-17" d="M250.07,96.28l-.11-.06c-.07,0-.08,0-.08-.1A.08.08,0,0,1,250,96c.05,0,.08,0,.08.12h.14v0c0-.14-.09-.2-.23-.2a.22.22,0,0,0-.24.22c0,.13.07.19.2.23s.14.06.14.13a.09.09,0,0,1-.09.09c-.08,0-.1,0-.1-.11v0h-.16v0c0,.14.07.22.25.22s.26-.08.26-.23S250.19,96.33,250.07,96.28Z"/><path class="cls-17" d="M248,96.28l-.69-.48v-.19a.08.08,0,0,0,.06-.09s0-.06-.06-.06V95.4a.08.08,0,0,0,.06-.1.09.09,0,0,0-.06-.06v-.06a.08.08,0,0,0,.06-.09.09.09,0,0,0-.06-.07v-.2l.69-.48,0,.09.4-.47-.59.21.08,0-.6.42v-.26H246v.73h-.5v.42h.5v.73h1.23V96l.61.43-.08,0,.58.22L248,96.2Zm-.81-.13h-1v-.62h.5v-.42h-.5v-.62h1Z"/><rect class="cls-3" x="167.69" y="119.06" width="136.72" height="23.06" rx="0.76"/><path class="cls-4" d="M287,121.36v17.81a1,1,0,0,0,1,1H301a1,1,0,0,0,1-1V121.36a1,1,0,0,0-1-1H288.08a1,1,0,0,0-1,1Z"/><path class="cls-4" d="M274.67,137.28h8.26a.58.58,0,0,0,.58-.58h0V124.48a.58.58,0,0,0-.58-.58h-8.26a.58.58,0,0,0-.58.58V136.7A.58.58,0,0,0,274.67,137.28Z"/><path class="cls-5" d="M282.27,127.54v-1.82a.33.33,0,0,0-.33-.33h-6.28a.33.33,0,0,0-.33.33v1.82Z"/><path class="cls-6" d="M282.27,127.54h-6.94v7.76a.33.33,0,0,0,.33.33h6.28a.33.33,0,0,0,.33-.33h0Z"/><path class="cls-5" d="M288.54,126.58v8a1.63,1.63,0,0,0,.51,1.19l3.24,3.1a1.68,1.68,0,0,0,1.14.46h5.44a1.65,1.65,0,0,0,1.65-1.65V123.48a1.65,1.65,0,0,0-1.65-1.65h-5.44a1.67,1.67,0,0,0-1.14.45l-3.24,3.1A1.66,1.66,0,0,0,288.54,126.58Z"/><rect class="cls-7" x="294.64" y="134.83" width="3.3" height="0.99"/><rect class="cls-7" x="291.12" y="130.11" width="3.3" height="0.99"/><rect class="cls-7" x="294.64" y="125.39" width="3.3" height="0.99"/><path class="cls-8" d="M210.81,140.85H232a.58.58,0,0,0,.57-.57h0V120.91a.57.57,0,0,0-.57-.57h-21.2a.56.56,0,0,0-.57.57v19.37A.57.57,0,0,0,210.81,140.85Z"/><circle class="cls-5" cx="218.59" cy="125.46" r="1.01"/><circle class="cls-5" cx="224.66" cy="125.46" r="1.01"/><g id="Latch_PSU-4" data-name="Latch/PSU"><rect class="cls-9" x="299.68" y="142.04" width="6.8" height="1.17"/><rect class="cls-10" x="218.95" y="138.88" width="3.32" height="5"/><rect class="cls-10" x="255.34" y="140.54" width="44.34" height="3.34"/><rect class="cls-10" x="254.18" y="140.54" width="1.16" height="3.34"/><rect class="cls-10" x="168.27" y="140.54" width="33.03" height="3.34"/><rect class="cls-10" x="201.3" y="140.54" width="1.16" height="3.34"/><path class="cls-11" d="M235.8,140.54a8.5,8.5,0,0,1-2-.24l-4.67-1.18a8.42,8.42,0,0,0-2-.24h-5a.33.33,0,0,0-.33.33v4.34a.33.33,0,0,0,.33.33h32.08v-3.34Z"/><path class="cls-12" d="M224.42,143.38h27.93V141H235.8a8.51,8.51,0,0,1-2.13-.26L229,139.61a7.5,7.5,0,0,0-1.88-.23h-2.7Z"/><polygon class="cls-13" points="228.3 141.34 226.86 140.69 226.86 142.07 228.3 141.34"/><path class="cls-11" d="M214.11,140.54H202.46v3.34h16.66a.33.33,0,0,0,.33-.33h0v-4.34a.33.33,0,0,0-.33-.33h-2.29a.87.87,0,0,0-.51.17l-1.7,1.32A.87.87,0,0,1,214.11,140.54Z"/><rect class="cls-14" x="165.82" y="141.63" width="4.97" height="2.25"/><rect class="cls-15" x="299.68" y="143.21" width="6.22" height="0.67"/></g><path class="cls-16" d="M278.78,130.77a.17.17,0,0,0,.19-.16v-1.37a.18.18,0,0,0-.19-.16.16.16,0,0,0-.16.16v1.37a.15.15,0,0,0,.16.16m.64,2.36a.62.62,0,0,0-.64-.61.6.6,0,0,0-.6.61.6.6,0,0,0,.6.6A.61.61,0,0,0,279.42,133.13Zm.35,0a1,1,0,0,0-1-1,1,1,0,1,0,1,1Z"/><path class="cls-17" d="M224.83,123.28a.18.18,0,1,0-.17.17A.18.18,0,0,0,224.83,123.28Z"/><path class="cls-17" d="M224.83,121.76a.18.18,0,0,0-.35,0l.09,1.22s0,0,.09,0a.14.14,0,0,0,.08,0Z"/><path class="cls-17" d="M218.59,121.27a1.25,1.25,0,1,0,1.25,1.25A1.24,1.24,0,0,0,218.59,121.27Zm-.13.22a1,1,0,0,1,1.06.59l-.7.7-.29-1.09-1,1A1,1,0,0,1,218.46,121.49Zm.26,2.06a1,1,0,0,1-1.05-.58l.7-.71.3,1.09.94-.95A1,1,0,0,1,218.72,123.55Z"/><polygon class="cls-18" points="161.07 98.92 164.55 98.92 164.55 94.71 161.07 94.71 159.45 96.82 161.07 98.92"/><polygon class="cls-18" points="162.9 112.09 164.55 109.98 162.9 107.89 159.45 107.89 159.45 112.09 162.9 112.09"/><polygon class="cls-18" points="161.07 129.34 164.55 129.34 164.55 125.15 161.07 125.15 159.45 127.23 161.07 129.34"/><polygon class="cls-18" points="162.9 142.53 164.55 140.42 162.9 138.31 159.45 138.31 159.45 142.53 162.9 142.53"/><path class="cls-16" d="M161.68,126.09a1.17,1.17,0,0,0-1.14,1.14,1.15,1.15,0,1,0,1.14-1.14Zm.13.23a.92.92,0,0,1,.81.76l-.79.46v-1.05l-1.06.61A.9.9,0,0,1,161.81,126.32Zm-.25,1.85a.91.91,0,0,1-.79-.76l.79-.46v1l1.06-.61A.93.93,0,0,1,161.56,128.17Z"/><path class="cls-7" d="M162.48,95.81h.44l.91,2.15h-.49l-.19-.48h-.91l-.19.48h-.48Zm.5,1.26-.29-.7-.28.7Z"/><path class="cls-7" d="M160.51,109h1a.73.73,0,0,1,.56.19.46.46,0,0,1,.15.36h0a.54.54,0,0,0,.12,1h0c0,.39-.32.58-.8.58h-1Zm1.23.63c0-.14-.11-.22-.31-.22H161v.45h.43c.21,0,.34-.07.34-.23Zm-.23.62H161v.47h.56c.21,0,.33-.07.33-.23h0C161.86,110.33,161.75,110.24,161.51,110.24Z"/><path class="cls-7" d="M163,128.2v-.32h.46V126.8L163,127l-.09-.31.61-.23h.26v1.47h.41v.32Z"/><path class="cls-7" d="M162.23,141.36v-.31l.57-.5c.21-.18.29-.28.29-.42a.22.22,0,0,0-.24-.23c-.14,0-.24.08-.36.24l-.26-.23a.73.73,0,0,1,.65-.35.53.53,0,0,1,.6.53h0a.69.69,0,0,1-.31.56l-.42.36h.75v.34Z"/><path class="cls-16" d="M160.87,139.27a1.15,1.15,0,0,0,0,2.29,1.15,1.15,0,0,0,0-2.29Zm.13.21a.92.92,0,0,1,.78.76l-.78.46v-1l-1.07.63A.93.93,0,0,1,161,139.48Zm-.28,1.88a1,1,0,0,1-.79-.76l.79-.46v1l1.06-.61A1,1,0,0,1,160.72,141.36Z"/><rect class="cls-31" x="15.02" y="157" width="293.97" height="63.1"/><rect class="cls-2" x="17.72" y="160.14" width="288.57" height="56.83"/><path class="cls-19" d="M155.74,163.23H20.55a.77.77,0,0,0-.77.75v21.16a.77.77,0,0,0,.77.75H155.74a.77.77,0,0,0,.77-.75V164A.77.77,0,0,0,155.74,163.23Z"/><path class="cls-8" d="M22.7,184.91H153.59a.41.41,0,0,0,.41-.4h0V165a.39.39,0,0,0-.4-.4H22.7a.4.4,0,0,0-.41.4v19.49A.4.4,0,0,0,22.7,184.91Z"/><rect class="cls-22" x="68.03" y="163.93" width="65.65" height="14.92"/><g id="Latch_Controller_IOM-5" data-name="Latch/Controller/IOM"><rect class="cls-9" x="146.08" y="185.48" width="12.49" height="0.81"/><path class="cls-28" d="M65.79,183.7v3.24h83.4a.16.16,0,0,0,.16-.16h0V185a.17.17,0,0,0-.16-.17H93.74a.16.16,0,0,1-.16-.16v-.81a.16.16,0,0,0-.16-.16H65.79Z"/><path class="cls-29" d="M70.92,183.7H63.35v3.24h22.8V183.7H85.06a6.05,6.05,0,0,1-1.69-.24l-4-1.15a6,6,0,0,0-1.51-.23H72.69a.45.45,0,0,0-.33.17l-1.11,1.29A.43.43,0,0,1,70.92,183.7Z"/><path class="cls-29" d="M65.42,183.7H54v3.24H70.34a.32.32,0,0,0,.33-.32h0V182.4a.33.33,0,0,0-.33-.33H68.09a.79.79,0,0,0-.49.17l-1.68,1.29A.82.82,0,0,1,65.42,183.7Z"/><path class="cls-30" d="M65.79,183.7H17.88a.16.16,0,0,0-.16.16v2.92a.16.16,0,0,0,.16.16H65.79Z"/><path class="cls-12" d="M85.21,184.28H83.33a6.54,6.54,0,0,1-1.64-.22l-3.62-1a5.57,5.57,0,0,0-1.46-.19H74.53v3.29H85.21Z"/><polygon class="cls-13" points="77.26 184.52 75.98 183.89 75.98 185.22 77.26 184.52"/></g><path class="cls-5" d="M73.85,171.39a.76.76,0,1,0-.75.75A.76.76,0,0,0,73.85,171.39Z"/><path class="cls-5" d="M96.48,171.39a.76.76,0,1,0-.75.75A.76.76,0,0,0,96.48,171.39Z"/><path class="cls-5" d="M73.85,174.61a.76.76,0,0,0-1.51,0,.76.76,0,1,0,1.51,0Z"/><path class="cls-5" d="M96.53,174.61a.76.76,0,1,0-.76.76A.76.76,0,0,0,96.53,174.61Z"/><path class="cls-5" d="M105.23,171.39a.76.76,0,1,0-.76.75A.76.76,0,0,0,105.23,171.39Z"/><path class="cls-5" d="M127.91,171.39a.76.76,0,0,0-.76-.76.76.76,0,1,0,.76.76Z"/><path class="cls-5" d="M105.23,174.61a.76.76,0,1,0-.76.76A.76.76,0,0,0,105.23,174.61Z"/><path class="cls-5" d="M127.91,174.61a.75.75,0,0,0-.76-.75.74.74,0,0,0-.75.75.75.75,0,0,0,.75.76A.76.76,0,0,0,127.91,174.61Z"/><rect class="cls-9" x="77.48" y="170.46" width="13.92" height="6.79" rx="0.41"/><path class="cls-5" d="M139.23,171.39a.75.75,0,0,0-.75-.76.76.76,0,1,0,0,1.51A.75.75,0,0,0,139.23,171.39Z"/><path class="cls-5" d="M139.23,174.61a.74.74,0,0,0-.75-.75.75.75,0,0,0-.76.75.76.76,0,0,0,.76.76A.75.75,0,0,0,139.23,174.61Z"/><rect class="cls-23" x="84.35" y="163.93" width="0.16" height="13.33"/><rect class="cls-9" x="108.86" y="170.46" width="13.92" height="6.79" rx="0.41"/><rect class="cls-23" x="115.73" y="163.93" width="0.16" height="13.33"/><path class="cls-17" d="M102,166.64h.2l0,.16h.16l-.2-.76H102l-.2.76h.16Zm.1-.46h0l.07.34H102Z"/><path class="cls-17" d="M99.6,166.84a.08.08,0,0,0,.08-.08.09.09,0,0,0-.08-.08.08.08,0,0,0-.08.08A.07.07,0,0,0,99.6,166.84Z"/><path class="cls-17" d="M99.87,167a.09.09,0,0,0,.08-.08.08.08,0,0,0-.08-.08.07.07,0,0,0-.08.08A.08.08,0,0,0,99.87,167Z"/><path class="cls-17" d="M100.14,167.09a.07.07,0,0,0,.07-.08.08.08,0,0,0-.07-.08.09.09,0,0,0-.09.08A.08.08,0,0,0,100.14,167.09Z"/><path class="cls-17" d="M100.4,167.06a.08.08,0,0,0-.08.08.09.09,0,0,0,.08.08.08.08,0,0,0,.08-.08A.07.07,0,0,0,100.4,167.06Z"/><path class="cls-17" d="M100.67,167.18a.08.08,0,1,0,.08.08A.08.08,0,0,0,100.67,167.18Z"/><path class="cls-17" d="M100.94,167.3a.08.08,0,0,0-.08.08.07.07,0,0,0,.08.08.08.08,0,0,0,.08-.08A.09.09,0,0,0,100.94,167.3Z"/><path class="cls-17" d="M99.71,166.42a.09.09,0,0,0-.08-.08.08.08,0,0,0-.08.08.07.07,0,0,0,.08.08A.08.08,0,0,0,99.71,166.42Z"/><path class="cls-17" d="M100,166.42a.08.08,0,0,0-.08-.08.09.09,0,0,0-.08.08.08.08,0,0,0,.08.08A.07.07,0,0,0,100,166.42Z"/><path class="cls-17" d="M100.3,166.42a.09.09,0,0,0-.08-.08.08.08,0,0,0-.08.08.07.07,0,0,0,.08.08A.08.08,0,0,0,100.3,166.42Z"/><path class="cls-17" d="M100.51,166.34a.09.09,0,0,0-.08.08.08.08,0,0,0,.08.08.07.07,0,0,0,.08-.08A.08.08,0,0,0,100.51,166.34Z"/><path class="cls-17" d="M100.89,166.42a.09.09,0,0,0-.08-.08.08.08,0,0,0-.08.08.07.07,0,0,0,.08.08A.08.08,0,0,0,100.89,166.42Z"/><path class="cls-17" d="M101.1,166.34a.09.09,0,0,0-.08.08.08.08,0,0,0,.08.08.08.08,0,0,0,.09-.08A.09.09,0,0,0,101.1,166.34Z"/><path class="cls-17" d="M101.4,166.34a.09.09,0,0,0-.08.08.08.08,0,0,0,.08.08.07.07,0,0,0,.08-.08A.08.08,0,0,0,101.4,166.34Z"/><path class="cls-17" d="M99.6,166.16a.08.08,0,0,0,.08-.08.09.09,0,0,0-.08-.08.08.08,0,0,0-.08.08A.07.07,0,0,0,99.6,166.16Z"/><path class="cls-17" d="M99.87,166A.09.09,0,0,0,100,166a.08.08,0,0,0-.08-.08.07.07,0,0,0-.08.08A.08.08,0,0,0,99.87,166Z"/><path class="cls-17" d="M100.14,165.91a.07.07,0,0,0,.07-.08.08.08,0,0,0-.07-.08.09.09,0,0,0-.09.08A.08.08,0,0,0,100.14,165.91Z"/><path class="cls-17" d="M100.4,165.63a.08.08,0,0,0-.08.08.09.09,0,0,0,.08.08.08.08,0,0,0,.08-.08A.07.07,0,0,0,100.4,165.63Z"/><path class="cls-17" d="M100.67,165.66a.07.07,0,0,0,.08-.08.08.08,0,0,0-.16,0A.07.07,0,0,0,100.67,165.66Z"/><path class="cls-17" d="M100.94,165.38a.08.08,0,0,0,0,.16.08.08,0,0,0,0-.16Z"/><path class="cls-17" d="M102.05,165.82c.16,0,.26-.07.26-.23a.2.2,0,0,0-.14-.2l-.12,0c-.07,0-.08-.06-.08-.11s0-.08.09-.08.08,0,.08.11h.15v0c0-.15-.1-.21-.24-.21a.22.22,0,0,0-.24.23c0,.12.07.18.2.22s.14.06.14.13a.09.09,0,0,1-.09.1c-.08,0-.1-.05-.1-.12v0h-.15v0C101.81,165.74,101.87,165.82,102.05,165.82Z"/><path class="cls-17" d="M102.17,167.38l-.12,0c-.07,0-.08-.06-.08-.1a.08.08,0,0,1,.09-.09s.08,0,.08.11h.15v0c0-.15-.1-.2-.24-.2a.21.21,0,0,0-.24.22c0,.12.07.18.2.23s.14.06.14.13a.08.08,0,0,1-.09.09c-.08,0-.1,0-.1-.12v0h-.15v0c0,.14.06.22.24.22s.26-.07.26-.23A.2.2,0,0,0,102.17,167.38Z"/><path class="cls-17" d="M100,167.39l-.69-.49v-.18a.08.08,0,0,0,.06-.1.09.09,0,0,0-.06-.06v-.06a.08.08,0,0,0,.06-.09.09.09,0,0,0-.06-.07v-.06a.07.07,0,0,0,.06-.09s0-.06-.06-.06v-.21l.69-.48,0,.09.4-.47-.59.21.08,0-.6.42v-.26H98.12v.73h-.5v.42h.5v.73h1.23v-.28l.61.43-.08.05.58.22-.39-.48Zm-.8-.14h-1v-.62h.5v-.42h-.5v-.62h1Z"/><rect class="cls-3" x="19.78" y="190.16" width="136.72" height="23.06" rx="0.76"/><path class="cls-4" d="M139.13,192.46v17.81a1,1,0,0,0,1,1h12.91a1,1,0,0,0,1-1V192.46a1,1,0,0,0-1-1H140.17a1,1,0,0,0-1,1Z"/><path class="cls-4" d="M126.76,208.39H135a.58.58,0,0,0,.58-.58h0V195.58A.57.57,0,0,0,135,195h-8.26a.57.57,0,0,0-.58.57v12.23A.58.58,0,0,0,126.76,208.39Z"/><path class="cls-5" d="M134.36,198.64v-1.82a.33.33,0,0,0-.33-.33h-6.28a.33.33,0,0,0-.33.33v1.82Z"/><path class="cls-6" d="M134.36,198.64h-6.94v7.76a.34.34,0,0,0,.33.34H134a.34.34,0,0,0,.33-.34h0Z"/><path class="cls-5" d="M140.63,197.68v8a1.67,1.67,0,0,0,.51,1.19l3.24,3.1a1.64,1.64,0,0,0,1.14.46H151a1.65,1.65,0,0,0,1.65-1.65V194.58a1.65,1.65,0,0,0-1.65-1.65h-5.44a1.64,1.64,0,0,0-1.14.46l-3.24,3.1A1.67,1.67,0,0,0,140.63,197.68Z"/><rect class="cls-7" x="146.73" y="205.93" width="3.3" height="0.99"/><rect class="cls-7" x="143.21" y="201.21" width="3.3" height="0.99"/><rect class="cls-7" x="146.73" y="196.49" width="3.3" height="0.99"/><path class="cls-8" d="M62.9,212H84.1a.57.57,0,0,0,.57-.57h0V192a.58.58,0,0,0-.57-.57H62.9a.57.57,0,0,0-.57.57v19.37A.56.56,0,0,0,62.9,212Z"/><circle class="cls-5" cx="70.68" cy="196.57" r="1.01"/><circle class="cls-5" cx="76.75" cy="196.57" r="1.01"/><g id="Latch_PSU-5" data-name="Latch/PSU"><rect class="cls-9" x="151.77" y="213.15" width="6.8" height="1.17"/><rect class="cls-10" x="71.04" y="209.98" width="3.32" height="5"/><rect class="cls-10" x="107.43" y="211.65" width="44.34" height="3.34"/><rect class="cls-10" x="106.27" y="211.65" width="1.16" height="3.34"/><rect class="cls-10" x="20.36" y="211.65" width="33.03" height="3.34"/><rect class="cls-10" x="53.39" y="211.65" width="1.16" height="3.34"/><path class="cls-11" d="M87.89,211.65a8.36,8.36,0,0,1-2-.25l-4.68-1.17a7.94,7.94,0,0,0-2-.25h-5a.33.33,0,0,0-.33.33v4.34a.33.33,0,0,0,.33.33h32.08v-3.33Z"/><path class="cls-12" d="M76.51,214.48h27.94v-2.33H87.89a8.92,8.92,0,0,1-2.12-.26l-4.68-1.18a7.93,7.93,0,0,0-1.88-.23h-2.7Z"/><polygon class="cls-13" points="80.39 212.45 78.95 211.79 78.95 213.17 80.39 212.45"/><path class="cls-11" d="M66.2,211.65H54.55V215H71.21a.33.33,0,0,0,.33-.33h0v-4.34a.33.33,0,0,0-.33-.33H68.92a.82.82,0,0,0-.5.17l-1.71,1.33A.87.87,0,0,1,66.2,211.65Z"/><rect class="cls-14" x="17.91" y="212.73" width="4.97" height="2.25"/><rect class="cls-15" x="151.77" y="214.32" width="6.22" height="0.67"/></g><path class="cls-16" d="M130.87,201.88a.18.18,0,0,0,.19-.16v-1.37a.17.17,0,0,0-.19-.16.15.15,0,0,0-.16.16v1.37a.16.16,0,0,0,.16.16m.64,2.35a.61.61,0,0,0-.64-.6.6.6,0,0,0-.6.6.6.6,0,0,0,.6.61A.62.62,0,0,0,131.51,204.23Zm.35,0a1,1,0,0,0-1-.95,1,1,0,0,0,0,1.91A1,1,0,0,0,131.86,204.23Z"/><path class="cls-17" d="M76.92,194.38a.18.18,0,0,0-.35,0,.18.18,0,1,0,.35,0Z"/><path class="cls-17" d="M76.92,192.87a.18.18,0,1,0-.35,0l.09,1.21s0,0,.09,0a.14.14,0,0,0,.08,0Z"/><path class="cls-17" d="M70.68,192.37a1.26,1.26,0,1,0,1.25,1.25A1.24,1.24,0,0,0,70.68,192.37Zm-.13.23a1,1,0,0,1,1.06.58l-.7.71-.29-1.1-1,1A1,1,0,0,1,70.55,192.6Zm.26,2.05a1,1,0,0,1-1-.58l.7-.71.3,1.09.94-.95A1,1,0,0,1,70.81,194.65Z"/><path class="cls-19" d="M303.65,163.23H168.45a.76.76,0,0,0-.76.75v21.16a.76.76,0,0,0,.76.75h135.2a.76.76,0,0,0,.76-.75V164A.76.76,0,0,0,303.65,163.23Z"/><path class="cls-8" d="M170.61,184.91H301.5a.41.41,0,0,0,.41-.4h0V165a.39.39,0,0,0-.4-.4H170.61a.4.4,0,0,0-.41.4v19.49A.4.4,0,0,0,170.61,184.91Z"/><rect class="cls-22" x="215.94" y="163.93" width="65.65" height="14.92"/><g id="Latch_Controller_IOM-6" data-name="Latch/Controller/IOM"><rect class="cls-9" x="293.99" y="185.48" width="12.49" height="0.81"/><path class="cls-28" d="M213.69,183.7v3.24H297.1a.16.16,0,0,0,.16-.16h0V185a.17.17,0,0,0-.16-.17H241.65a.16.16,0,0,1-.16-.16v-.81a.16.16,0,0,0-.16-.16H213.69Z"/><path class="cls-29" d="M218.83,183.7h-7.57v3.24h22.8V183.7H233a6.05,6.05,0,0,1-1.69-.24l-4-1.15a6,6,0,0,0-1.51-.23H220.6a.45.45,0,0,0-.33.17l-1.11,1.29A.43.43,0,0,1,218.83,183.7Z"/><path class="cls-29" d="M213.33,183.7H201.88v3.24h16.37a.32.32,0,0,0,.33-.32h0V182.4a.33.33,0,0,0-.33-.33H216a.79.79,0,0,0-.49.17l-1.68,1.29A.82.82,0,0,1,213.33,183.7Z"/><path class="cls-30" d="M213.69,183.7h-47.9a.16.16,0,0,0-.16.16v2.92a.16.16,0,0,0,.16.16h47.9Z"/><path class="cls-12" d="M233.12,184.28h-1.88a6.48,6.48,0,0,1-1.64-.22l-3.62-1a5.57,5.57,0,0,0-1.46-.19h-2.08v3.29h10.68Z"/><polygon class="cls-13" points="225.17 184.52 223.89 183.89 223.89 185.22 225.17 184.52"/></g><path class="cls-5" d="M221.76,171.39a.76.76,0,1,0-.76.75A.76.76,0,0,0,221.76,171.39Z"/><path class="cls-5" d="M244.39,171.39a.76.76,0,1,0-.75.75A.76.76,0,0,0,244.39,171.39Z"/><path class="cls-5" d="M221.76,174.61a.76.76,0,1,0-.76.76A.76.76,0,0,0,221.76,174.61Z"/><path class="cls-5" d="M244.44,174.61a.75.75,0,0,0-.76-.75.74.74,0,0,0-.75.75.75.75,0,0,0,.75.76A.76.76,0,0,0,244.44,174.61Z"/><path class="cls-5" d="M253.14,171.39a.76.76,0,1,0-.76.75A.76.76,0,0,0,253.14,171.39Z"/><path class="cls-5" d="M275.82,171.39a.76.76,0,0,0-.76-.76.76.76,0,1,0,.76.76Z"/><path class="cls-5" d="M253.14,174.61a.76.76,0,1,0-.76.76A.76.76,0,0,0,253.14,174.61Z"/><path class="cls-5" d="M275.82,174.61a.75.75,0,0,0-.76-.75.74.74,0,0,0-.75.75.75.75,0,0,0,.75.76A.76.76,0,0,0,275.82,174.61Z"/><rect class="cls-9" x="225.39" y="170.46" width="13.92" height="6.79" rx="0.41"/><path class="cls-5" d="M287.14,171.39a.76.76,0,1,0-.75.75A.76.76,0,0,0,287.14,171.39Z"/><path class="cls-5" d="M287.14,174.61a.76.76,0,0,0-1.51,0,.76.76,0,1,0,1.51,0Z"/><rect class="cls-23" x="232.26" y="163.93" width="0.16" height="13.33"/><rect class="cls-9" x="256.76" y="170.46" width="13.92" height="6.79" rx="0.41"/><rect class="cls-23" x="263.64" y="163.93" width="0.16" height="13.33"/><path class="cls-17" d="M249.88,166.64h.21l0,.16h.16l-.2-.76h-.19l-.2.76h.16Zm.11-.46h0l.07.34h-.15Z"/><path class="cls-17" d="M247.51,166.84a.08.08,0,0,0,.08-.08.09.09,0,0,0-.08-.08.08.08,0,0,0-.08.08A.07.07,0,0,0,247.51,166.84Z"/><path class="cls-17" d="M247.78,167a.09.09,0,0,0,.08-.08.08.08,0,0,0-.08-.08.08.08,0,0,0-.09.08A.09.09,0,0,0,247.78,167Z"/><path class="cls-17" d="M248,167.09a.07.07,0,0,0,.08-.08.08.08,0,0,0-.08-.08.09.09,0,0,0-.08.08A.08.08,0,0,0,248,167.09Z"/><path class="cls-17" d="M248.31,167.06a.08.08,0,0,0-.08.08.09.09,0,0,0,.08.08.08.08,0,0,0,.08-.08A.07.07,0,0,0,248.31,167.06Z"/><path class="cls-17" d="M248.58,167.18a.08.08,0,1,0,.08.08A.08.08,0,0,0,248.58,167.18Z"/><path class="cls-17" d="M248.85,167.3a.08.08,0,0,0-.08.08.07.07,0,0,0,.08.08.08.08,0,0,0,.08-.08A.09.09,0,0,0,248.85,167.3Z"/><path class="cls-17" d="M247.62,166.42a.09.09,0,0,0-.08-.08.09.09,0,0,0-.09.08.08.08,0,0,0,.09.08A.08.08,0,0,0,247.62,166.42Z"/><path class="cls-17" d="M247.91,166.42a.08.08,0,0,0-.08-.08.09.09,0,0,0-.08.08.08.08,0,0,0,.08.08A.07.07,0,0,0,247.91,166.42Z"/><path class="cls-17" d="M248.21,166.42a.09.09,0,0,0-.08-.08.08.08,0,0,0-.08.08.07.07,0,0,0,.08.08A.08.08,0,0,0,248.21,166.42Z"/><path class="cls-17" d="M248.42,166.34a.09.09,0,0,0-.08.08.08.08,0,0,0,.08.08.07.07,0,0,0,.08-.08A.08.08,0,0,0,248.42,166.34Z"/><path class="cls-17" d="M248.8,166.42a.09.09,0,0,0-.08-.08.08.08,0,0,0-.08.08.07.07,0,0,0,.08.08A.08.08,0,0,0,248.8,166.42Z"/><path class="cls-17" d="M249,166.34a.09.09,0,0,0-.08.08.08.08,0,0,0,.08.08.08.08,0,0,0,.09-.08A.09.09,0,0,0,249,166.34Z"/><path class="cls-17" d="M249.31,166.34a.09.09,0,0,0-.08.08.08.08,0,0,0,.16,0A.09.09,0,0,0,249.31,166.34Z"/><path class="cls-17" d="M247.51,166.16a.08.08,0,0,0,.08-.08.09.09,0,0,0-.08-.08.08.08,0,0,0-.08.08A.07.07,0,0,0,247.51,166.16Z"/><path class="cls-17" d="M247.78,166a.09.09,0,0,0,.08-.08.08.08,0,0,0-.08-.08.08.08,0,0,0-.09.08A.09.09,0,0,0,247.78,166Z"/><path class="cls-17" d="M248,165.91a.07.07,0,0,0,.08-.08.08.08,0,0,0-.08-.08.09.09,0,0,0-.08.08A.08.08,0,0,0,248,165.91Z"/><path class="cls-17" d="M248.31,165.63a.08.08,0,0,0-.08.08.09.09,0,0,0,.08.08.08.08,0,0,0,.08-.08A.07.07,0,0,0,248.31,165.63Z"/><path class="cls-17" d="M248.58,165.66a.07.07,0,0,0,.08-.08.08.08,0,1,0-.16,0A.07.07,0,0,0,248.58,165.66Z"/><path class="cls-17" d="M248.85,165.38a.08.08,0,0,0,0,.16.08.08,0,0,0,0-.16Z"/><path class="cls-17" d="M250,165.82c.16,0,.26-.07.26-.23s0-.15-.15-.2l-.11,0c-.07,0-.08-.06-.08-.11s0-.08.09-.08.08,0,.08.11h.14v0c0-.15-.09-.21-.23-.21a.22.22,0,0,0-.24.23c0,.12.07.18.2.22s.14.06.14.13a.09.09,0,0,1-.09.1c-.08,0-.1-.05-.1-.12v0h-.16v0C249.71,165.74,249.78,165.82,250,165.82Z"/><path class="cls-17" d="M250.07,167.38l-.11,0c-.07,0-.08-.06-.08-.1a.08.08,0,0,1,.09-.09c.05,0,.08,0,.08.11h.14v0c0-.15-.09-.2-.23-.2a.21.21,0,0,0-.24.22c0,.12.07.18.2.23s.14.06.14.13a.09.09,0,0,1-.09.09c-.08,0-.1,0-.1-.12v0h-.16v0c0,.14.07.22.25.22s.26-.07.26-.23S250.19,167.43,250.07,167.38Z"/><path class="cls-17" d="M248,167.39l-.69-.49v-.18a.08.08,0,0,0,.06-.1.09.09,0,0,0-.06-.06v-.06a.08.08,0,0,0,.06-.09.09.09,0,0,0-.06-.07v-.06a.07.07,0,0,0,.06-.09s0-.06-.06-.06v-.21l.69-.48,0,.09.4-.47-.59.21.08,0-.6.42v-.26H246v.73h-.5v.42h.5v.73h1.23v-.28l.61.43-.08.05.58.22-.39-.48Zm-.81-.14h-1v-.62h.5v-.42h-.5v-.62h1Z"/><rect class="cls-3" x="167.69" y="190.16" width="136.72" height="23.06" rx="0.76"/><path class="cls-4" d="M287,192.46v17.81a1,1,0,0,0,1,1H301a1,1,0,0,0,1-1V192.46a1,1,0,0,0-1-1H288.08a1,1,0,0,0-1,1Z"/><path class="cls-4" d="M274.67,208.39h8.26a.58.58,0,0,0,.58-.58h0V195.58a.57.57,0,0,0-.58-.57h-8.26a.57.57,0,0,0-.58.57v12.23A.58.58,0,0,0,274.67,208.39Z"/><path class="cls-5" d="M282.27,198.64v-1.82a.33.33,0,0,0-.33-.33h-6.28a.33.33,0,0,0-.33.33v1.82Z"/><path class="cls-6" d="M282.27,198.64h-6.94v7.76a.33.33,0,0,0,.33.34h6.28a.34.34,0,0,0,.33-.34h0Z"/><path class="cls-5" d="M288.54,197.68v8a1.63,1.63,0,0,0,.51,1.19l3.24,3.1a1.64,1.64,0,0,0,1.14.46h5.44a1.65,1.65,0,0,0,1.65-1.65V194.58a1.65,1.65,0,0,0-1.65-1.65h-5.44a1.64,1.64,0,0,0-1.14.46l-3.24,3.1A1.63,1.63,0,0,0,288.54,197.68Z"/><rect class="cls-7" x="294.64" y="205.93" width="3.3" height="0.99"/><rect class="cls-7" x="291.12" y="201.21" width="3.3" height="0.99"/><rect class="cls-7" x="294.64" y="196.49" width="3.3" height="0.99"/><path class="cls-8" d="M210.81,212H232a.57.57,0,0,0,.57-.57h0V192a.58.58,0,0,0-.57-.57h-21.2a.57.57,0,0,0-.57.57v19.37A.56.56,0,0,0,210.81,212Z"/><circle class="cls-5" cx="218.59" cy="196.57" r="1.01"/><circle class="cls-5" cx="224.66" cy="196.57" r="1.01"/><g id="Latch_PSU-6" data-name="Latch/PSU"><rect class="cls-9" x="299.68" y="213.15" width="6.8" height="1.17"/><rect class="cls-10" x="218.95" y="209.98" width="3.32" height="5"/><rect class="cls-10" x="255.34" y="211.65" width="44.34" height="3.34"/><rect class="cls-10" x="254.18" y="211.65" width="1.16" height="3.34"/><rect class="cls-10" x="168.27" y="211.65" width="33.03" height="3.34"/><rect class="cls-10" x="201.3" y="211.65" width="1.16" height="3.34"/><path class="cls-11" d="M235.8,211.65a8.51,8.51,0,0,1-2-.25l-4.67-1.17a7.94,7.94,0,0,0-2-.25h-5a.33.33,0,0,0-.33.33v4.34a.33.33,0,0,0,.33.33h32.08v-3.33Z"/><path class="cls-12" d="M224.42,214.48h27.93v-2.33H235.8a9,9,0,0,1-2.13-.26L229,210.71a8,8,0,0,0-1.88-.23h-2.7Z"/><polygon class="cls-13" points="228.3 212.45 226.86 211.79 226.86 213.17 228.3 212.45"/><path class="cls-11" d="M214.11,211.65H202.46V215h16.66a.33.33,0,0,0,.33-.33h0v-4.34a.33.33,0,0,0-.33-.33h-2.29a.87.87,0,0,0-.51.17l-1.7,1.33A.87.87,0,0,1,214.11,211.65Z"/><rect class="cls-14" x="165.82" y="212.73" width="4.97" height="2.25"/><rect class="cls-15" x="299.68" y="214.32" width="6.22" height="0.67"/></g><path class="cls-16" d="M278.78,201.88a.18.18,0,0,0,.19-.16v-1.37a.17.17,0,0,0-.19-.16.15.15,0,0,0-.16.16v1.37a.16.16,0,0,0,.16.16m.64,2.35a.61.61,0,0,0-.64-.6.6.6,0,0,0-.6.6.6.6,0,0,0,.6.61A.62.62,0,0,0,279.42,204.23Zm.35,0a1,1,0,0,0-1-.95,1,1,0,0,0,0,1.91A1,1,0,0,0,279.77,204.23Z"/><path class="cls-17" d="M224.83,194.38a.18.18,0,0,0-.35,0,.18.18,0,1,0,.35,0Z"/><path class="cls-17" d="M224.83,192.87a.18.18,0,1,0-.35,0l.09,1.21s0,0,.09,0a.14.14,0,0,0,.08,0Z"/><path class="cls-17" d="M218.59,192.37a1.26,1.26,0,1,0,1.25,1.25A1.24,1.24,0,0,0,218.59,192.37Zm-.13.23a1,1,0,0,1,1.06.58l-.7.71-.29-1.1-1,1A1,1,0,0,1,218.46,192.6Zm.26,2.05a1,1,0,0,1-1.05-.58l.7-.71.3,1.09.94-.95A1,1,0,0,1,218.72,194.65Z"/><polygon class="cls-18" points="161.07 170.03 164.55 170.03 164.55 165.81 161.07 165.81 159.45 167.92 161.07 170.03"/><polygon class="cls-18" points="162.9 183.19 164.55 181.08 162.9 179 159.45 179 159.45 183.19 162.9 183.19"/><polygon class="cls-18" points="161.07 200.44 164.55 200.44 164.55 196.25 161.07 196.25 159.45 198.33 161.07 200.44"/><polygon class="cls-18" points="162.9 213.63 164.55 211.52 162.9 209.41 159.45 209.41 159.45 213.63 162.9 213.63"/><path class="cls-16" d="M161.68,197.19a1.15,1.15,0,0,0,0,2.29,1.15,1.15,0,1,0,0-2.29Zm.13.23a.93.93,0,0,1,.81.76l-.79.46v-1l-1.06.61A.9.9,0,0,1,161.81,197.42Zm-.25,1.85a.9.9,0,0,1-.79-.76l.79-.46v1l1.06-.61A.93.93,0,0,1,161.56,199.27Z"/><path class="cls-7" d="M162.48,166.91h.44l.91,2.15h-.49l-.19-.48h-.91l-.19.48h-.48Zm.5,1.26-.29-.69-.28.69Z"/><path class="cls-7" d="M160.51,180.09h1a.77.77,0,0,1,.56.19.49.49,0,0,1,.15.36h0a.51.51,0,0,1-.28.46.52.52,0,0,1,.4.53h0c0,.39-.32.59-.8.59h-1Zm1.23.63c0-.14-.11-.22-.31-.22H161V181h.43c.21,0,.34-.06.34-.22Zm-.23.62H161v.48h.56c.21,0,.33-.08.33-.24h0C161.86,181.43,161.75,181.34,161.51,181.34Z"/><path class="cls-7" d="M163,199.3V199h.46v-1.08l-.41.15-.09-.32.61-.23h.26V199h.41v.31Z"/><path class="cls-7" d="M162.23,212.46v-.3l.57-.51c.21-.18.29-.28.29-.42a.22.22,0,0,0-.24-.22c-.14,0-.24.07-.36.23l-.26-.22a.71.71,0,0,1,.65-.36.53.53,0,0,1,.6.54h0a.71.71,0,0,1-.31.57l-.42.36h.75v.33Z"/><path class="cls-16" d="M160.87,210.38a1.15,1.15,0,0,0,0,2.29,1.15,1.15,0,0,0,0-2.29Zm.13.2a.93.93,0,0,1,.78.76l-.78.46v-1l-1.07.63A.94.94,0,0,1,161,210.58Zm-.28,1.88a1,1,0,0,1-.79-.76l.79-.46v1l1.06-.61A1,1,0,0,1,160.72,212.46Z"/><rect class="cls-31" x="15.02" y="228.1" width="293.97" height="63.1"/><rect class="cls-2" x="17.72" y="231.24" width="288.57" height="56.83"/><path class="cls-19" d="M155.74,234.34H20.55a.76.76,0,0,0-.77.74v21.16a.76.76,0,0,0,.77.75H155.74a.76.76,0,0,0,.77-.75V235.08A.76.76,0,0,0,155.74,234.34Z"/><path class="cls-8" d="M22.7,256H153.59a.41.41,0,0,0,.41-.4h0V236.12a.39.39,0,0,0-.4-.4H22.7a.4.4,0,0,0-.41.4v19.49A.4.4,0,0,0,22.7,256Z"/><rect class="cls-22" x="68.03" y="235.03" width="65.65" height="14.92"/><g id="Latch_Controller_IOM-7" data-name="Latch/Controller/IOM"><rect class="cls-9" x="146.08" y="256.59" width="12.49" height="0.81"/><path class="cls-28" d="M65.79,254.8v3.25h83.4a.17.17,0,0,0,.16-.17h0V256.1a.16.16,0,0,0-.16-.16H93.74a.17.17,0,0,1-.16-.17V255a.16.16,0,0,0-.16-.16H65.79Z"/><path class="cls-29" d="M70.92,254.8H63.35v3.25h22.8V254.8H85.06a6.05,6.05,0,0,1-1.69-.24l-4-1.14a6.51,6.51,0,0,0-1.51-.24H72.69a.45.45,0,0,0-.33.17l-1.11,1.28A.43.43,0,0,1,70.92,254.8Z"/><path class="cls-29" d="M65.42,254.8H54v3.25H70.34a.33.33,0,0,0,.33-.33h0V253.5a.32.32,0,0,0-.33-.32H68.09a.79.79,0,0,0-.49.17l-1.68,1.28A.82.82,0,0,1,65.42,254.8Z"/><path class="cls-30" d="M65.79,254.8H17.88a.16.16,0,0,0-.16.16v2.92a.17.17,0,0,0,.16.17H65.79Z"/><path class="cls-12" d="M85.21,255.38H83.33a6.11,6.11,0,0,1-1.64-.22l-3.62-1a5.57,5.57,0,0,0-1.46-.19H74.53v3.29H85.21Z"/><polygon class="cls-13" points="77.26 255.62 75.98 254.99 75.98 256.32 77.26 255.62"/></g><path class="cls-5" d="M73.85,242.49a.76.76,0,0,0-1.51,0,.76.76,0,1,0,1.51,0Z"/><path class="cls-5" d="M96.48,242.49a.76.76,0,0,0-1.51,0,.76.76,0,1,0,1.51,0Z"/><path class="cls-5" d="M73.85,245.71a.76.76,0,1,0-.75.76A.76.76,0,0,0,73.85,245.71Z"/><path class="cls-5" d="M96.53,245.71a.76.76,0,1,0-.76.76A.76.76,0,0,0,96.53,245.71Z"/><path class="cls-5" d="M105.23,242.49a.76.76,0,1,0-.76.76A.76.76,0,0,0,105.23,242.49Z"/><path class="cls-5" d="M127.91,242.49a.75.75,0,0,0-.76-.75.74.74,0,0,0-.75.75.75.75,0,0,0,.75.76A.76.76,0,0,0,127.91,242.49Z"/><path class="cls-5" d="M105.23,245.71a.76.76,0,1,0-.76.76A.76.76,0,0,0,105.23,245.71Z"/><path class="cls-5" d="M127.91,245.71a.76.76,0,0,0-.76-.75.76.76,0,0,0,0,1.51A.76.76,0,0,0,127.91,245.71Z"/><rect class="cls-9" x="77.48" y="241.56" width="13.92" height="6.79" rx="0.41"/><path class="cls-5" d="M139.23,242.49a.74.74,0,0,0-.75-.75.75.75,0,0,0-.76.75.76.76,0,0,0,.76.76A.75.75,0,0,0,139.23,242.49Z"/><path class="cls-5" d="M139.23,245.71a.75.75,0,0,0-.75-.75.76.76,0,1,0,.75.75Z"/><rect class="cls-23" x="84.35" y="235.03" width="0.16" height="13.33"/><rect class="cls-9" x="108.86" y="241.56" width="13.92" height="6.79" rx="0.41"/><rect class="cls-23" x="115.73" y="235.03" width="0.16" height="13.33"/><path class="cls-17" d="M102,237.74h.2l0,.16h.16l-.2-.75H102l-.2.75h.16Zm.1-.46h0l.07.34H102Z"/><path class="cls-17" d="M99.6,238a.09.09,0,0,0,.08-.08.08.08,0,0,0-.08-.08.07.07,0,0,0-.08.08A.08.08,0,0,0,99.6,238Z"/><path class="cls-17" d="M99.87,238.07A.08.08,0,0,0,100,238a.09.09,0,0,0-.08-.08.08.08,0,0,0-.08.08A.07.07,0,0,0,99.87,238.07Z"/><path class="cls-17" d="M100.14,238.2a.08.08,0,0,0,.07-.08.07.07,0,0,0-.07-.08.08.08,0,0,0-.09.08A.09.09,0,0,0,100.14,238.2Z"/><path class="cls-17" d="M100.4,238.16a.08.08,0,0,0,0,.16.08.08,0,0,0,0-.16Z"/><path class="cls-17" d="M100.67,238.28a.08.08,0,0,0-.08.08.08.08,0,0,0,.16,0A.08.08,0,0,0,100.67,238.28Z"/><path class="cls-17" d="M100.94,238.41a.07.07,0,0,0-.08.08.08.08,0,0,0,.08.08.09.09,0,0,0,.08-.08A.08.08,0,0,0,100.94,238.41Z"/><path class="cls-17" d="M99.71,237.53a.08.08,0,0,0-.08-.08.07.07,0,0,0-.08.08.08.08,0,0,0,.08.08A.09.09,0,0,0,99.71,237.53Z"/><path class="cls-17" d="M100,237.53a.07.07,0,0,0-.08-.08.08.08,0,0,0-.08.08.09.09,0,0,0,.08.08A.08.08,0,0,0,100,237.53Z"/><path class="cls-17" d="M100.3,237.53a.08.08,0,0,0-.08-.08.07.07,0,0,0-.08.08.08.08,0,0,0,.08.08A.09.09,0,0,0,100.3,237.53Z"/><path class="cls-17" d="M100.51,237.45a.08.08,0,0,0-.08.08.09.09,0,0,0,.08.08.08.08,0,0,0,.08-.08A.07.07,0,0,0,100.51,237.45Z"/><path class="cls-17" d="M100.89,237.53a.08.08,0,0,0-.08-.08.07.07,0,0,0-.08.08.08.08,0,0,0,.08.08A.09.09,0,0,0,100.89,237.53Z"/><path class="cls-17" d="M101.1,237.45a.08.08,0,0,0-.08.08.09.09,0,0,0,.08.08.09.09,0,0,0,.09-.08A.08.08,0,0,0,101.1,237.45Z"/><path class="cls-17" d="M101.4,237.45a.08.08,0,0,0-.08.08.09.09,0,0,0,.08.08.08.08,0,0,0,.08-.08A.07.07,0,0,0,101.4,237.45Z"/><path class="cls-17" d="M99.6,237.27a.09.09,0,0,0,.08-.08.09.09,0,0,0-.08-.09.08.08,0,0,0-.08.09A.08.08,0,0,0,99.6,237.27Z"/><path class="cls-17" d="M99.87,237.14a.08.08,0,0,0,.08-.08.09.09,0,0,0-.08-.08.08.08,0,0,0-.08.08A.07.07,0,0,0,99.87,237.14Z"/><path class="cls-17" d="M100.14,237a.08.08,0,0,0,.07-.08.07.07,0,0,0-.07-.08.08.08,0,0,0-.09.08A.09.09,0,0,0,100.14,237Z"/><path class="cls-17" d="M100.4,236.73a.09.09,0,0,0-.08.08.08.08,0,0,0,.08.08.07.07,0,0,0,.08-.08A.08.08,0,0,0,100.4,236.73Z"/><path class="cls-17" d="M100.67,236.77a.08.08,0,0,0,.08-.08.08.08,0,0,0-.16,0A.08.08,0,0,0,100.67,236.77Z"/><path class="cls-17" d="M100.94,236.48a.08.08,0,0,0-.08.08.07.07,0,0,0,.08.08.08.08,0,0,0,.08-.08A.09.09,0,0,0,100.94,236.48Z"/><path class="cls-17" d="M102.05,236.92c.16,0,.26-.07.26-.23a.2.2,0,0,0-.14-.2l-.12-.05c-.07,0-.08-.06-.08-.1a.08.08,0,0,1,.09-.09s.08,0,.08.11h.15v0c0-.14-.1-.2-.24-.2a.21.21,0,0,0-.24.22c0,.13.07.18.2.23s.14.06.14.13a.08.08,0,0,1-.09.09c-.08,0-.1,0-.1-.12v0h-.15v0C101.81,236.84,101.87,236.92,102.05,236.92Z"/><path class="cls-17" d="M102.17,238.48l-.12,0c-.07,0-.08-.05-.08-.1a.08.08,0,0,1,.09-.09s.08,0,.08.11h.15v0c0-.14-.1-.2-.24-.2a.21.21,0,0,0-.24.22c0,.13.07.18.2.23s.14.06.14.13a.08.08,0,0,1-.09.09c-.08,0-.1,0-.1-.11v0h-.15v0c0,.14.06.22.24.22s.26-.07.26-.23A.2.2,0,0,0,102.17,238.48Z"/><path class="cls-17" d="M100,238.49l-.69-.48v-.19a.08.08,0,0,0,.06-.09.11.11,0,0,0-.06-.07v0a.09.09,0,0,0,.06-.1s0-.06-.06-.06v-.06a.08.08,0,0,0,.06-.1.09.09,0,0,0-.06-.06V237l.69-.48,0,.09.4-.47-.59.2.08.06-.6.42v-.26H98.12v.73h-.5v.42h.5v.73h1.23v-.28l.61.43-.08,0,.58.21-.39-.48Zm-.8-.13h-1v-.62h.5v-.42h-.5v-.62h1Z"/><rect class="cls-3" x="19.78" y="261.26" width="136.72" height="23.06" rx="0.76"/><path class="cls-4" d="M139.13,263.57v17.81a1,1,0,0,0,1,1h12.91a1,1,0,0,0,1-1V263.57a1,1,0,0,0-1-1H140.17a1,1,0,0,0-1,1Z"/><path class="cls-4" d="M126.76,279.49H135a.58.58,0,0,0,.58-.58h0V266.69a.58.58,0,0,0-.58-.58h-8.26a.58.58,0,0,0-.58.58v12.22A.58.58,0,0,0,126.76,279.49Z"/><path class="cls-5" d="M134.36,269.74v-1.81a.33.33,0,0,0-.33-.33h-6.28a.33.33,0,0,0-.33.33v1.81Z"/><path class="cls-6" d="M134.36,269.74h-6.94v7.77a.33.33,0,0,0,.33.33H134a.33.33,0,0,0,.33-.33h0Z"/><path class="cls-5" d="M140.63,268.79v8a1.67,1.67,0,0,0,.51,1.19l3.24,3.1a1.68,1.68,0,0,0,1.14.46H151a1.65,1.65,0,0,0,1.65-1.65V265.69A1.65,1.65,0,0,0,151,264h-5.44a1.68,1.68,0,0,0-1.14.46l-3.24,3.1A1.67,1.67,0,0,0,140.63,268.79Z"/><rect class="cls-7" x="146.73" y="277.04" width="3.3" height="0.99"/><rect class="cls-7" x="143.21" y="272.32" width="3.3" height="0.99"/><rect class="cls-7" x="146.73" y="267.6" width="3.3" height="0.99"/><path class="cls-8" d="M62.9,283.06H84.1a.58.58,0,0,0,.57-.58h0V263.12a.57.57,0,0,0-.57-.57H62.9a.56.56,0,0,0-.57.57v19.36A.57.57,0,0,0,62.9,283.06Z"/><circle class="cls-5" cx="70.68" cy="267.67" r="1.01"/><circle class="cls-5" cx="76.75" cy="267.67" r="1.01"/><g id="Latch_PSU-7" data-name="Latch/PSU"><rect class="cls-9" x="151.77" y="284.25" width="6.8" height="1.17"/><rect class="cls-10" x="71.04" y="281.08" width="3.32" height="5"/><rect class="cls-10" x="107.43" y="282.75" width="44.34" height="3.34"/><rect class="cls-10" x="106.27" y="282.75" width="1.16" height="3.34"/><rect class="cls-10" x="20.36" y="282.75" width="33.03" height="3.34"/><rect class="cls-10" x="53.39" y="282.75" width="1.16" height="3.34"/><path class="cls-11" d="M87.89,282.75a7.89,7.89,0,0,1-2-.25l-4.68-1.17a8.43,8.43,0,0,0-2-.25h-5a.34.34,0,0,0-.33.34v4.33a.34.34,0,0,0,.33.34h32.08v-3.34Z"/><path class="cls-12" d="M76.51,285.59h27.94v-2.34H87.89a8.92,8.92,0,0,1-2.12-.26l-4.68-1.17a7.46,7.46,0,0,0-1.88-.24h-2.7Z"/><polygon class="cls-13" points="80.39 283.55 78.95 282.9 78.95 284.27 80.39 283.55"/><path class="cls-11" d="M66.2,282.75H54.55v3.34H71.21a.34.34,0,0,0,.33-.34h0v-4.33a.34.34,0,0,0-.33-.34H68.92a.83.83,0,0,0-.5.18l-1.71,1.32A.87.87,0,0,1,66.2,282.75Z"/><rect class="cls-14" x="17.91" y="283.84" width="4.97" height="2.25"/><rect class="cls-15" x="151.77" y="285.42" width="6.22" height="0.67"/></g><path class="cls-16" d="M130.87,273a.17.17,0,0,0,.19-.16v-1.37a.18.18,0,0,0-.19-.16.16.16,0,0,0-.16.16v1.37a.15.15,0,0,0,.16.16m.64,2.36a.62.62,0,0,0-.64-.61.6.6,0,0,0-.6.61.6.6,0,0,0,.6.6A.61.61,0,0,0,131.51,275.34Zm.35,0a1,1,0,0,0-1-1,1,1,0,0,0,0,1.91A1,1,0,0,0,131.86,275.34Z"/><path class="cls-17" d="M76.92,265.49a.18.18,0,1,0-.17.17A.19.19,0,0,0,76.92,265.49Z"/><path class="cls-17" d="M76.92,264a.18.18,0,0,0-.35,0l.09,1.21s0,.05.09.05.08-.05.08-.05Z"/><path class="cls-17" d="M70.68,263.47a1.26,1.26,0,1,0,1.25,1.26A1.25,1.25,0,0,0,70.68,263.47Zm-.13.23a1,1,0,0,1,1.06.58l-.7.71-.29-1.09-1,1A1,1,0,0,1,70.55,263.7Zm.26,2.06a1,1,0,0,1-1-.58l.7-.71.3,1.09.94-1A1,1,0,0,1,70.81,265.76Z"/><path class="cls-19" d="M303.65,234.34H168.45a.75.75,0,0,0-.76.74v21.16a.75.75,0,0,0,.76.75h135.2a.75.75,0,0,0,.76-.75V235.08A.75.75,0,0,0,303.65,234.34Z"/><path class="cls-8" d="M170.61,256H301.5a.41.41,0,0,0,.41-.4h0V236.12a.39.39,0,0,0-.4-.4H170.61a.4.4,0,0,0-.41.4v19.49A.4.4,0,0,0,170.61,256Z"/><rect class="cls-22" x="215.94" y="235.03" width="65.65" height="14.92"/><g id="Latch_Controller_IOM-8" data-name="Latch/Controller/IOM"><rect class="cls-9" x="293.99" y="256.59" width="12.49" height="0.81"/><path class="cls-28" d="M213.69,254.8v3.25H297.1a.17.17,0,0,0,.16-.17h0V256.1a.16.16,0,0,0-.16-.16H241.65a.17.17,0,0,1-.16-.17V255a.16.16,0,0,0-.16-.16H213.69Z"/><path class="cls-29" d="M218.83,254.8h-7.57v3.25h22.8V254.8H233a6.05,6.05,0,0,1-1.69-.24l-4-1.14a6.51,6.51,0,0,0-1.51-.24H220.6a.45.45,0,0,0-.33.17l-1.11,1.28A.43.43,0,0,1,218.83,254.8Z"/><path class="cls-29" d="M213.33,254.8H201.88v3.25h16.37a.33.33,0,0,0,.33-.33h0V253.5a.32.32,0,0,0-.33-.32H216a.79.79,0,0,0-.49.17l-1.68,1.28A.82.82,0,0,1,213.33,254.8Z"/><path class="cls-30" d="M213.69,254.8h-47.9a.16.16,0,0,0-.16.16v2.92a.17.17,0,0,0,.16.17h47.9Z"/><path class="cls-12" d="M233.12,255.38h-1.88a6.06,6.06,0,0,1-1.64-.22l-3.62-1a5.57,5.57,0,0,0-1.46-.19h-2.08v3.29h10.68Z"/><polygon class="cls-13" points="225.17 255.62 223.89 254.99 223.89 256.32 225.17 255.62"/></g><path class="cls-5" d="M221.76,242.49a.76.76,0,1,0-.76.76A.76.76,0,0,0,221.76,242.49Z"/><path class="cls-5" d="M244.39,242.49a.76.76,0,0,0-1.51,0,.76.76,0,1,0,1.51,0Z"/><path class="cls-5" d="M221.76,245.71a.76.76,0,1,0-.76.76A.76.76,0,0,0,221.76,245.71Z"/><path class="cls-5" d="M244.44,245.71a.76.76,0,0,0-.76-.75.76.76,0,0,0,0,1.51A.76.76,0,0,0,244.44,245.71Z"/><path class="cls-5" d="M253.14,242.49a.76.76,0,1,0-.76.76A.76.76,0,0,0,253.14,242.49Z"/><path class="cls-5" d="M275.82,242.49a.75.75,0,0,0-.76-.75.74.74,0,0,0-.75.75.75.75,0,0,0,.75.76A.76.76,0,0,0,275.82,242.49Z"/><path class="cls-5" d="M253.14,245.71a.76.76,0,1,0-.76.76A.76.76,0,0,0,253.14,245.71Z"/><path class="cls-5" d="M275.82,245.71a.76.76,0,0,0-.76-.75.76.76,0,0,0,0,1.51A.76.76,0,0,0,275.82,245.71Z"/><rect class="cls-9" x="225.39" y="241.56" width="13.92" height="6.79" rx="0.41"/><path class="cls-5" d="M287.14,242.49a.76.76,0,0,0-1.51,0,.76.76,0,1,0,1.51,0Z"/><path class="cls-5" d="M287.14,245.71a.76.76,0,1,0-.75.76A.76.76,0,0,0,287.14,245.71Z"/><rect class="cls-23" x="232.26" y="235.03" width="0.16" height="13.33"/><rect class="cls-9" x="256.76" y="241.56" width="13.92" height="6.79" rx="0.41"/><rect class="cls-23" x="263.64" y="235.03" width="0.16" height="13.33"/><path class="cls-17" d="M249.88,237.74h.21l0,.16h.16l-.2-.75h-.19l-.2.75h.16Zm.11-.46h0l.07.34h-.15Z"/><path class="cls-17" d="M247.51,238a.09.09,0,0,0,.08-.08.08.08,0,0,0-.08-.08.07.07,0,0,0-.08.08A.08.08,0,0,0,247.51,238Z"/><path class="cls-17" d="M247.78,238.07a.08.08,0,0,0,.08-.08.09.09,0,0,0-.08-.08.09.09,0,0,0-.09.08A.08.08,0,0,0,247.78,238.07Z"/><path class="cls-17" d="M248,238.2a.08.08,0,0,0,.08-.08A.07.07,0,0,0,248,238a.08.08,0,0,0-.08.08A.09.09,0,0,0,248,238.2Z"/><path class="cls-17" d="M248.31,238.16a.08.08,0,0,0,0,.16.08.08,0,0,0,0-.16Z"/><path class="cls-17" d="M248.58,238.28a.08.08,0,0,0-.08.08.08.08,0,1,0,.16,0A.08.08,0,0,0,248.58,238.28Z"/><path class="cls-17" d="M248.85,238.41a.07.07,0,0,0-.08.08.08.08,0,0,0,.08.08.09.09,0,0,0,.08-.08A.08.08,0,0,0,248.85,238.41Z"/><path class="cls-17" d="M247.62,237.53a.08.08,0,0,0-.08-.08.08.08,0,0,0-.09.08.09.09,0,0,0,.09.08A.09.09,0,0,0,247.62,237.53Z"/><path class="cls-17" d="M247.91,237.53a.07.07,0,0,0-.08-.08.08.08,0,0,0-.08.08.09.09,0,0,0,.08.08A.08.08,0,0,0,247.91,237.53Z"/><path class="cls-17" d="M248.21,237.53a.08.08,0,0,0-.08-.08.07.07,0,0,0-.08.08.08.08,0,0,0,.08.08A.09.09,0,0,0,248.21,237.53Z"/><path class="cls-17" d="M248.42,237.45a.08.08,0,0,0-.08.08.09.09,0,0,0,.08.08.08.08,0,0,0,.08-.08A.07.07,0,0,0,248.42,237.45Z"/><path class="cls-17" d="M248.8,237.53a.08.08,0,0,0-.08-.08.07.07,0,0,0-.08.08.08.08,0,0,0,.08.08A.09.09,0,0,0,248.8,237.53Z"/><path class="cls-17" d="M249,237.45a.08.08,0,0,0-.08.08.09.09,0,0,0,.08.08.09.09,0,0,0,.09-.08A.08.08,0,0,0,249,237.45Z"/><path class="cls-17" d="M249.31,237.45a.08.08,0,0,0-.08.08.08.08,0,0,0,.16,0A.08.08,0,0,0,249.31,237.45Z"/><path class="cls-17" d="M247.51,237.27a.09.09,0,0,0,.08-.08.09.09,0,0,0-.08-.09.08.08,0,0,0-.08.09A.08.08,0,0,0,247.51,237.27Z"/><path class="cls-17" d="M247.78,237.14a.08.08,0,0,0,.08-.08.09.09,0,0,0-.08-.08.09.09,0,0,0-.09.08A.08.08,0,0,0,247.78,237.14Z"/><path class="cls-17" d="M248,237a.08.08,0,0,0,.08-.08.07.07,0,0,0-.08-.08.08.08,0,0,0-.08.08A.09.09,0,0,0,248,237Z"/><path class="cls-17" d="M248.31,236.73a.09.09,0,0,0-.08.08.08.08,0,0,0,.08.08.07.07,0,0,0,.08-.08A.08.08,0,0,0,248.31,236.73Z"/><path class="cls-17" d="M248.58,236.77a.08.08,0,0,0,.08-.08.08.08,0,0,0-.16,0A.08.08,0,0,0,248.58,236.77Z"/><path class="cls-17" d="M248.85,236.48a.08.08,0,0,0-.08.08.07.07,0,0,0,.08.08.08.08,0,0,0,.08-.08A.09.09,0,0,0,248.85,236.48Z"/><path class="cls-17" d="M250,236.92c.16,0,.26-.07.26-.23s0-.15-.15-.2l-.11-.05c-.07,0-.08-.06-.08-.1a.08.08,0,0,1,.09-.09c.05,0,.08,0,.08.11h.14v0c0-.14-.09-.2-.23-.2a.21.21,0,0,0-.24.22c0,.13.07.18.2.23s.14.06.14.13a.09.09,0,0,1-.09.09c-.08,0-.1,0-.1-.12v0h-.16v0C249.71,236.84,249.78,236.92,250,236.92Z"/><path class="cls-17" d="M250.07,238.48l-.11,0c-.07,0-.08-.05-.08-.1a.08.08,0,0,1,.09-.09c.05,0,.08,0,.08.11h.14v0c0-.14-.09-.2-.23-.2a.21.21,0,0,0-.24.22c0,.13.07.18.2.23s.14.06.14.13a.09.09,0,0,1-.09.09c-.08,0-.1,0-.1-.11v0h-.16v0c0,.14.07.22.25.22s.26-.07.26-.23S250.19,238.53,250.07,238.48Z"/><path class="cls-17" d="M248,238.49l-.69-.48v-.19a.08.08,0,0,0,.06-.09.11.11,0,0,0-.06-.07v0a.09.09,0,0,0,.06-.1s0-.06-.06-.06v-.06a.08.08,0,0,0,.06-.1.09.09,0,0,0-.06-.06V237l.69-.48,0,.09.4-.47-.59.2.08.06-.6.42v-.26H246v.73h-.5v.42h.5v.73h1.23v-.28l.61.43-.08,0,.58.21-.39-.48Zm-.81-.13h-1v-.62h.5v-.42h-.5v-.62h1Z"/><rect class="cls-3" x="167.69" y="261.26" width="136.72" height="23.06" rx="0.76"/><path class="cls-4" d="M287,263.57v17.81a1,1,0,0,0,1,1H301a1,1,0,0,0,1-1V263.57a1,1,0,0,0-1-1H288.08a1,1,0,0,0-1,1Z"/><path class="cls-4" d="M274.67,279.49h8.26a.58.58,0,0,0,.58-.58h0V266.69a.58.58,0,0,0-.58-.58h-8.26a.58.58,0,0,0-.58.58v12.22A.58.58,0,0,0,274.67,279.49Z"/><path class="cls-5" d="M282.27,269.74v-1.81a.33.33,0,0,0-.33-.33h-6.28a.32.32,0,0,0-.33.33v1.81Z"/><path class="cls-6" d="M282.27,269.74h-6.94v7.77a.33.33,0,0,0,.33.33h6.28a.33.33,0,0,0,.33-.33h0Z"/><path class="cls-5" d="M288.54,268.79v8a1.63,1.63,0,0,0,.51,1.19l3.24,3.1a1.68,1.68,0,0,0,1.14.46h5.44a1.65,1.65,0,0,0,1.65-1.65V265.69a1.65,1.65,0,0,0-1.65-1.66h-5.44a1.68,1.68,0,0,0-1.14.46l-3.24,3.1A1.63,1.63,0,0,0,288.54,268.79Z"/><rect class="cls-7" x="294.64" y="277.04" width="3.3" height="0.99"/><rect class="cls-7" x="291.12" y="272.32" width="3.3" height="0.99"/><rect class="cls-7" x="294.64" y="267.6" width="3.3" height="0.99"/><path class="cls-8" d="M210.81,283.06H232a.58.58,0,0,0,.57-.58h0V263.12a.57.57,0,0,0-.57-.57h-21.2a.56.56,0,0,0-.57.57v19.36A.57.57,0,0,0,210.81,283.06Z"/><circle class="cls-5" cx="218.59" cy="267.67" r="1.01"/><circle class="cls-5" cx="224.66" cy="267.67" r="1.01"/><g id="Latch_PSU-8" data-name="Latch/PSU"><rect class="cls-9" x="299.68" y="284.25" width="6.8" height="1.17"/><rect class="cls-10" x="218.95" y="281.08" width="3.32" height="5"/><rect class="cls-10" x="255.34" y="282.75" width="44.34" height="3.34"/><rect class="cls-10" x="254.18" y="282.75" width="1.16" height="3.34"/><rect class="cls-10" x="168.27" y="282.75" width="33.03" height="3.34"/><rect class="cls-10" x="201.3" y="282.75" width="1.16" height="3.34"/><path class="cls-11" d="M235.8,282.75a8,8,0,0,1-2-.25l-4.67-1.17a8.43,8.43,0,0,0-2-.25h-5a.34.34,0,0,0-.33.34v4.33a.34.34,0,0,0,.33.34h32.08v-3.34Z"/><path class="cls-12" d="M224.42,285.59h27.93v-2.34H235.8a9,9,0,0,1-2.13-.26L229,281.82a7.51,7.51,0,0,0-1.88-.24h-2.7Z"/><polygon class="cls-13" points="228.3 283.55 226.86 282.9 226.86 284.27 228.3 283.55"/><path class="cls-11" d="M214.11,282.75H202.46v3.34h16.66a.34.34,0,0,0,.33-.34h0v-4.33a.34.34,0,0,0-.33-.34h-2.29a.88.88,0,0,0-.51.18l-1.7,1.32A.87.87,0,0,1,214.11,282.75Z"/><rect class="cls-14" x="165.82" y="283.84" width="4.97" height="2.25"/><rect class="cls-15" x="299.68" y="285.42" width="6.22" height="0.67"/></g><path class="cls-16" d="M278.78,273a.17.17,0,0,0,.19-.16v-1.37a.18.18,0,0,0-.19-.16.16.16,0,0,0-.16.16v1.37a.15.15,0,0,0,.16.16m.64,2.36a.62.62,0,0,0-.64-.61.6.6,0,0,0-.6.61.6.6,0,0,0,.6.6A.61.61,0,0,0,279.42,275.34Zm.35,0a1,1,0,0,0-1-1,1,1,0,0,0,0,1.91A1,1,0,0,0,279.77,275.34Z"/><path class="cls-17" d="M224.83,265.49a.18.18,0,1,0-.17.17A.19.19,0,0,0,224.83,265.49Z"/><path class="cls-17" d="M224.83,264a.18.18,0,0,0-.35,0l.09,1.21s0,.05.09.05.08-.05.08-.05Z"/><path class="cls-17" d="M218.59,263.47a1.26,1.26,0,1,0,1.25,1.26A1.25,1.25,0,0,0,218.59,263.47Zm-.13.23a1,1,0,0,1,1.06.58l-.7.71-.29-1.09-1,1A1,1,0,0,1,218.46,263.7Zm.26,2.06a1,1,0,0,1-1.05-.58l.7-.71.3,1.09.94-1A1,1,0,0,1,218.72,265.76Z"/><polygon class="cls-18" points="161.07 241.13 164.55 241.13 164.55 236.91 161.07 236.91 159.45 239.02 161.07 241.13"/><polygon class="cls-18" points="162.9 254.29 164.55 252.19 162.9 250.1 159.45 250.1 159.45 254.29 162.9 254.29"/><polygon class="cls-18" points="161.07 271.55 164.55 271.55 164.55 267.36 161.07 267.36 159.45 269.44 161.07 271.55"/><polygon class="cls-18" points="162.9 284.74 164.55 282.63 162.9 280.52 159.45 280.52 159.45 284.74 162.9 284.74"/><path class="cls-16" d="M161.68,268.3a1.17,1.17,0,0,0-1.14,1.14,1.15,1.15,0,1,0,1.14-1.14Zm.13.22a.93.93,0,0,1,.81.77l-.79.45v-1l-1.06.61A.91.91,0,0,1,161.81,268.52Zm-.25,1.86a.91.91,0,0,1-.79-.76l.79-.46v1l1.06-.61A.94.94,0,0,1,161.56,270.38Z"/><path class="cls-7" d="M162.48,238h.44l.91,2.15h-.49l-.19-.48h-.91l-.19.48h-.48Zm.5,1.25-.29-.69-.28.69Z"/><path class="cls-7" d="M160.51,251.19h1a.77.77,0,0,1,.56.19.5.5,0,0,1,.15.37h0a.49.49,0,0,1-.28.46.53.53,0,0,1,.4.53h0c0,.39-.32.58-.8.58h-1Zm1.23.64c0-.14-.11-.22-.31-.22H161v.45h.43c.21,0,.34-.07.34-.23Zm-.23.62H161v.47h.56c.21,0,.33-.07.33-.23h0C161.86,252.54,161.75,252.45,161.51,252.45Z"/><path class="cls-7" d="M163,270.4v-.31h.46V269l-.41.15-.09-.32.61-.22h.26v1.47h.41v.31Z"/><path class="cls-7" d="M162.23,283.57v-.31l.57-.5c.21-.19.29-.28.29-.42a.22.22,0,0,0-.24-.23c-.14,0-.24.08-.36.24l-.26-.23a.73.73,0,0,1,.65-.36.54.54,0,0,1,.6.54h0a.69.69,0,0,1-.31.56l-.42.36h.75v.34Z"/><path class="cls-16" d="M160.87,281.48a1.15,1.15,0,0,0,0,2.29,1.15,1.15,0,0,0,0-2.29Zm.13.21a.92.92,0,0,1,.78.76l-.78.46v-1.05l-1.07.64A.93.93,0,0,1,161,281.69Zm-.28,1.88a1,1,0,0,1-.79-.77l.79-.45v1l1.06-.61A1,1,0,0,1,160.72,283.57Z"/><rect class="cls-32" x="109.45" y="99.95" width="5.6" height="5.61"/><rect class="cls-32" x="116.58" y="99.95" width="5.6" height="5.61"/><rect class="cls-32" x="225.98" y="99.95" width="5.6" height="5.61"/><rect class="cls-32" x="233.11" y="99.95" width="5.6" height="5.61"/><rect class="cls-32" x="78.07" y="171.05" width="5.6" height="5.61"/><rect class="cls-32" x="85.2" y="171.05" width="5.6" height="5.61"/><rect class="cls-32" x="109.45" y="171.05" width="5.6" height="5.61"/><rect class="cls-32" x="116.58" y="171.05" width="5.6" height="5.61"/><rect class="cls-32" x="78.07" y="242.15" width="5.6" height="5.61"/><rect class="cls-32" x="85.2" y="242.15" width="5.6" height="5.61"/><rect class="cls-32" x="109.45" y="242.15" width="5.6" height="5.61"/><rect class="cls-32" x="116.58" y="242.15" width="5.6" height="5.61"/><line class="cls-33" x1="78.75" y1="29.43" x2="88" y2="102.75"/><line class="cls-34" x1="78.75" y1="29.43" x2="88" y2="102.75"/><line class="cls-33" x1="70.99" y1="29.43" x2="80.87" y2="102.75"/><line class="cls-34" x1="70.99" y1="29.43" x2="80.87" y2="102.75"/><line class="cls-35" x1="80.87" y1="173.86" x2="112.25" y2="102.75"/><line class="cls-36" x1="80.87" y1="173.86" x2="112.25" y2="102.75"/><line class="cls-35" x1="88.14" y1="173.86" x2="119.38" y2="102.75"/><line class="cls-36" x1="88.14" y1="173.86" x2="119.38" y2="102.75"/><line class="cls-35" x1="80.87" y1="244.96" x2="112.25" y2="173.86"/><line class="cls-36" x1="80.87" y1="244.96" x2="112.25" y2="173.86"/><line class="cls-35" x1="88.14" y1="244.96" x2="119.38" y2="173.86"/><line class="cls-36" x1="88.14" y1="244.96" x2="119.38" y2="173.86"/><line class="cls-37" x1="267.43" y1="244.96" x2="236.05" y2="173.86"/><line class="cls-38" x1="267.43" y1="244.96" x2="236.05" y2="173.86"/><line class="cls-37" x1="260.3" y1="244.96" x2="228.77" y2="173.86"/><line class="cls-38" x1="260.3" y1="244.96" x2="228.77" y2="173.86"/><line class="cls-37" x1="267.43" y1="173.86" x2="236.05" y2="102.75"/><line class="cls-38" x1="267.43" y1="173.86" x2="236.05" y2="102.75"/><line class="cls-37" x1="260.3" y1="173.86" x2="228.77" y2="102.75"/><line class="cls-38" x1="260.3" y1="173.86" x2="228.77" y2="102.75"/><rect class="cls-32" x="109.45" y="99.95" width="5.6" height="5.61"/><rect class="cls-32" x="116.58" y="99.95" width="5.6" height="5.61"/><rect class="cls-32" x="225.98" y="99.95" width="5.6" height="5.61"/><rect class="cls-32" x="233.11" y="99.95" width="5.6" height="5.61"/><rect class="cls-32" x="109.45" y="171.05" width="5.6" height="5.61"/><rect class="cls-32" x="116.58" y="171.05" width="5.6" height="5.61"/><rect class="cls-32" x="78.07" y="171.05" width="5.6" height="5.61"/><rect class="cls-32" x="85.2" y="171.05" width="5.6" height="5.61"/><rect class="cls-32" x="109.45" y="242.15" width="5.6" height="5.61"/><rect class="cls-32" x="116.58" y="242.15" width="5.6" height="5.61"/><rect class="cls-32" x="78.07" y="242.15" width="5.6" height="5.61"/><rect class="cls-32" x="85.2" y="242.15" width="5.6" height="5.61"/><rect class="cls-32" x="109.45" y="99.95" width="5.6" height="5.61"/><rect class="cls-32" x="116.58" y="99.95" width="5.6" height="5.61"/><rect class="cls-32" x="225.98" y="99.95" width="5.6" height="5.61"/><rect class="cls-32" x="233.11" y="99.95" width="5.6" height="5.61"/><rect class="cls-32" x="109.45" y="171.05" width="5.6" height="5.61"/><rect class="cls-32" x="116.58" y="171.05" width="5.6" height="5.61"/><rect class="cls-32" x="78.07" y="171.05" width="5.6" height="5.61"/><rect class="cls-32" x="85.2" y="171.05" width="5.6" height="5.61"/><rect class="cls-32" x="109.45" y="242.15" width="5.6" height="5.61"/><rect class="cls-32" x="116.58" y="242.15" width="5.6" height="5.61"/><rect class="cls-32" x="78.07" y="242.15" width="5.6" height="5.61"/><rect class="cls-32" x="85.2" y="242.15" width="5.6" height="5.61"/><rect class="cls-32" x="109.45" y="99.95" width="5.6" height="5.61"/><rect class="cls-32" x="116.58" y="99.95" width="5.6" height="5.61"/><rect class="cls-32" x="78.07" y="171.05" width="5.6" height="5.61"/><rect class="cls-32" x="85.2" y="171.05" width="5.6" height="5.61"/><rect class="cls-32" x="109.45" y="171.05" width="5.6" height="5.61"/><rect class="cls-32" x="116.58" y="171.05" width="5.6" height="5.61"/><rect class="cls-32" x="78.07" y="242.15" width="5.6" height="5.61"/><rect class="cls-32" x="85.2" y="242.15" width="5.6" height="5.61"/><rect class="cls-5" x="109.45" y="242.15" width="5.6" height="5.61"/><rect class="cls-5" x="116.58" y="242.15" width="5.6" height="5.61"/><rect class="cls-39" x="257.36" y="99.95" width="5.6" height="5.61"/><rect class="cls-39" x="264.49" y="99.95" width="5.6" height="5.61"/><rect class="cls-39" x="225.98" y="171.05" width="5.6" height="5.61"/><rect class="cls-39" x="233.11" y="171.05" width="5.6" height="5.61"/><rect class="cls-39" x="257.36" y="171.05" width="5.6" height="5.61"/><rect class="cls-39" x="264.49" y="171.05" width="5.6" height="5.61"/><rect class="cls-39" x="225.98" y="242.15" width="5.6" height="5.61"/><rect class="cls-39" x="233.11" y="242.15" width="5.6" height="5.61"/><rect class="cls-39" x="257.36" y="242.15" width="5.6" height="5.61"/><rect class="cls-39" x="264.49" y="242.15" width="5.6" height="5.61"/><rect class="cls-5" x="257.36" y="99.95" width="5.6" height="5.61"/><rect class="cls-5" x="264.49" y="99.95" width="5.6" height="5.61"/><rect class="cls-39" x="225.98" y="171.05" width="5.6" height="5.61"/><rect class="cls-39" x="233.11" y="171.05" width="5.6" height="5.61"/><rect class="cls-39" x="257.36" y="171.05" width="5.6" height="5.61"/><rect class="cls-39" x="264.49" y="171.05" width="5.6" height="5.61"/><rect class="cls-39" x="225.98" y="242.15" width="5.6" height="5.61"/><rect class="cls-39" x="233.11" y="242.15" width="5.6" height="5.61"/><rect class="cls-39" x="225.98" y="99.95" width="5.6" height="5.61"/><polyline class="cls-40" points="226.75 29.43 226.75 50.1 295.88 50.1 295.88 265.19 235.91 265.19 235.91 244.96"/><polyline class="cls-41" points="226.75 29.43 226.75 50.1 295.88 50.1 295.88 265.19 235.91 265.19 235.91 244.96"/><polyline class="cls-40" points="219 29.43 219 57.53 288.74 57.53 288.74 272.52 228.78 272.52 228.78 244.96"/><polyline class="cls-41" points="219 29.43 219 57.53 288.74 57.53 288.74 272.52 228.78 272.52 228.78 244.96"/><rect class="cls-39" x="233.11" y="99.95" width="5.6" height="5.61"/><rect class="cls-32" x="78.07" y="99.95" width="5.6" height="5.61"/><rect class="cls-32" x="85.2" y="99.95" width="5.6" height="5.61"/><rect class="cls-39" x="257.36" y="242.15" width="5.6" height="5.61"/><rect class="cls-39" x="264.49" y="242.15" width="5.6" height="5.61"/><rect class="cls-32" x="67.95" y="28.3" width="6.08" height="6.1"/><rect class="cls-32" x="75.71" y="28.3" width="6.08" height="6.1"/><rect class="cls-39" x="215.95" y="28.3" width="6.08" height="6.1"/><rect class="cls-39" x="223.71" y="28.3" width="6.08" height="6.1"/><rect class="cls-39" x="225.98" y="242.15" width="5.6" height="5.61"/><rect class="cls-39" x="233.11" y="242.15" width="5.6" height="5.61"/></g></svg>