<?xml version="1.0" encoding="UTF-8"?><svg id="a" xmlns="http://www.w3.org/2000/svg" width="4.125in" height="2.525in" viewBox="0 0 297 181.827"><rect x="4.424" y="5.422" width="288" height="57.6" fill="none" stroke="#a2aaad" stroke-linecap="round" stroke-linejoin="round" stroke-width="1.016"/><path d="M119.748,168.006h4.522v.95h-3.422v1.646h3.168v.897h-3.168v1.84h3.484v.95h-4.585v-6.283Z" fill="#221f1f"/><path d="M125.053,171.42h2.562v.951h-2.562v-.951Z" fill="#221f1f"/><path d="M129.436,172.194c0,.241.041.446.123.616s.196.31.344.418c.146.108.314.188.506.237.189.051.396.075.62.075.24,0,.446-.027.616-.084.17-.056.308-.127.413-.215s.182-.189.229-.304c.047-.114.07-.23.07-.348,0-.24-.055-.418-.163-.532s-.228-.195-.356-.242c-.223-.082-.482-.16-.779-.233-.296-.073-.661-.169-1.096-.286-.27-.07-.494-.163-.673-.277s-.321-.241-.427-.383c-.105-.141-.18-.29-.225-.448-.044-.158-.066-.32-.066-.484,0-.316.066-.591.199-.822.131-.232.307-.424.523-.577.217-.152.463-.265.738-.339.276-.073.555-.109.836-.109.329,0,.639.042.93.127.289.086.545.213.766.383.219.171.394.38.523.63.129.249.193.538.193.866h-1.1c-.03-.404-.168-.69-.414-.857s-.561-.251-.941-.251c-.129,0-.262.013-.396.04-.135.026-.258.07-.369.132s-.204.145-.277.25c-.074.106-.11.238-.11.396,0,.223.069.397.207.523s.317.222.541.286c.023.006.116.031.277.075s.342.092.541.145.395.104.585.154c.191.05.327.087.41.11.205.064.383.152.536.264.152.111.28.239.383.383s.179.298.229.462c.049.164.074.329.074.493,0,.352-.072.652-.216.901-.144.25-.333.453-.567.612-.234.158-.502.274-.801.348s-.604.109-.916.109c-.357,0-.694-.044-1.012-.132-.316-.088-.592-.223-.826-.404-.235-.183-.423-.415-.564-.7-.141-.284-.213-.62-.219-1.008h1.1Z" fill="#221f1f"/><path d="M135.059,172.273c0,.177.025.347.075.511s.124.308.224.432c.1.123.227.221.379.295.152.073.334.109.545.109.294,0,.53-.062.709-.189.18-.126.312-.314.4-.567h.951c-.053.246-.145.467-.273.66s-.285.356-.467.488-.385.232-.611.3c-.226.067-.462.101-.709.101-.357,0-.674-.059-.949-.176-.276-.117-.51-.281-.7-.493-.19-.211-.335-.463-.431-.757-.098-.293-.146-.615-.146-.968,0-.322.052-.629.153-.92.104-.29.25-.545.44-.766.19-.22.421-.394.69-.523.271-.129.575-.193.916-.193.357,0,.679.075.963.225.285.149.521.348.709.594s.324.529.409.85c.085.319.106.649.065.989h-3.344ZM137.4,171.614c-.012-.159-.046-.312-.101-.458-.057-.146-.133-.274-.229-.383s-.214-.196-.352-.264-.292-.102-.462-.102c-.176,0-.336.031-.48.093-.143.062-.267.146-.369.255s-.185.236-.246.383c-.062.146-.096.305-.102.476h2.341Z" fill="#221f1f"/><path d="M139.169,169.739h.941v.88h.018c.029-.123.087-.243.172-.36s.188-.225.309-.321c.119-.097.254-.175.4-.233s.296-.088.448-.088c.117,0,.198.003.242.009s.089.012.136.018v.968c-.07-.012-.142-.021-.215-.03-.074-.009-.146-.014-.216-.014-.171,0-.33.034-.479.102-.15.067-.28.167-.392.299-.112.132-.2.295-.265.488-.064.194-.096.417-.096.669v2.165h-1.004v-4.55Z" fill="#221f1f"/><path d="M142.293,168.006h1.003v.95h-1.003v-.95ZM142.293,169.739h1.003v4.55h-1.003v-4.55Z" fill="#221f1f"/><path d="M145.171,172.273c0,.177.024.347.074.511s.125.308.225.432c.1.123.226.221.379.295.152.073.334.109.545.109.293,0,.529-.062.709-.189.179-.126.312-.314.4-.567h.95c-.053.246-.144.467-.272.66s-.285.356-.467.488-.386.232-.611.3c-.227.067-.463.101-.709.101-.357,0-.674-.059-.95-.176s-.509-.281-.7-.493c-.189-.211-.334-.463-.431-.757-.097-.293-.146-.615-.146-.968,0-.322.052-.629.154-.92.103-.29.25-.545.439-.766.191-.22.422-.394.691-.523.27-.129.574-.193.915-.193.358,0,.679.075.964.225.284.149.521.348.709.594.188.246.323.529.408.85.086.319.107.649.066.989h-3.344ZM147.51,171.614c-.012-.159-.045-.312-.101-.458s-.132-.274-.229-.383c-.096-.108-.213-.196-.352-.264-.138-.067-.291-.102-.462-.102-.176,0-.336.031-.479.093s-.268.146-.369.255c-.104.108-.186.236-.246.383-.062.146-.096.305-.102.476h2.34Z" fill="#221f1f"/><path d="M150.037,172.828c.029.294.142.499.335.616s.425.176.695.176c.094,0,.2-.007.32-.021.121-.015.233-.043.34-.084.105-.041.191-.102.259-.181s.099-.183.093-.312c-.006-.129-.053-.234-.141-.316s-.201-.148-.34-.198c-.137-.05-.295-.092-.471-.127s-.354-.073-.536-.115c-.188-.041-.368-.091-.542-.149-.172-.059-.328-.138-.466-.237s-.248-.228-.33-.383-.123-.348-.123-.576c0-.247.06-.453.181-.621.12-.167.272-.302.457-.404.186-.103.391-.175.616-.216s.441-.062.647-.062c.234,0,.459.025.673.075s.407.13.581.241c.172.112.316.257.431.437.114.179.187.395.216.646h-1.047c-.047-.24-.158-.402-.33-.484-.174-.082-.371-.123-.594-.123-.071,0-.154.006-.252.018-.096.012-.188.034-.272.066s-.157.079-.216.141-.088.143-.088.242c0,.123.043.223.128.299s.196.14.335.189c.137.05.294.092.471.127.176.035.357.074.545.115.182.041.361.091.537.149s.332.138.471.237c.138.1.249.226.334.379.086.152.128.34.128.562,0,.271-.062.499-.185.687s-.283.341-.48.458c-.195.117-.414.202-.654.255-.241.053-.479.079-.713.079-.288,0-.554-.032-.797-.097-.244-.064-.455-.163-.634-.295s-.319-.296-.423-.492c-.102-.197-.156-.43-.162-.7h1.003Z" fill="#221f1f"/><path d="M158.116,168.006h1.17l2.42,6.283h-1.18l-.589-1.663h-2.509l-.589,1.663h-1.136l2.412-6.283ZM157.728,171.79h1.919l-.942-2.702h-.026l-.95,2.702Z" fill="#221f1f"/><path d="M162.163,169.739h.941v.88h.018c.029-.123.087-.243.172-.36s.188-.225.309-.321c.119-.097.254-.175.4-.233s.296-.088.448-.088c.117,0,.198.003.242.009s.089.012.136.018v.968c-.07-.012-.142-.021-.215-.03-.074-.009-.146-.014-.216-.014-.171,0-.33.034-.479.102-.15.067-.28.167-.392.299-.112.132-.2.295-.265.488-.064.194-.096.417-.096.669v2.165h-1.004v-4.55Z" fill="#221f1f"/><path d="M165.26,169.739h.941v.88h.018c.029-.123.087-.243.172-.36s.188-.225.309-.321c.119-.097.254-.175.4-.233s.296-.088.448-.088c.117,0,.198.003.242.009s.089.012.136.018v.968c-.07-.012-.142-.021-.215-.03-.074-.009-.146-.014-.216-.014-.171,0-.33.034-.479.102-.15.067-.28.167-.392.299-.112.132-.2.295-.265.488-.064.194-.096.417-.096.669v2.165h-1.004v-4.55Z" fill="#221f1f"/><path d="M172.169,173.277c0,.123.016.211.049.264.031.053.095.079.189.079h.105c.041,0,.088-.006.141-.018v.695c-.035.012-.081.024-.137.04-.056.014-.113.027-.172.039s-.117.021-.176.026-.108.009-.149.009c-.206,0-.376-.041-.511-.123s-.223-.226-.264-.432c-.199.194-.444.335-.734.423-.291.088-.571.132-.841.132-.206,0-.401-.027-.59-.083-.188-.056-.354-.139-.497-.247-.145-.108-.258-.246-.344-.413-.084-.168-.127-.362-.127-.586,0-.281.051-.51.154-.686.102-.177.237-.314.404-.414.168-.1.355-.172.563-.216s.418-.077.629-.101c.182-.035.354-.061.519-.075.165-.015.311-.039.437-.075.126-.035.226-.089.299-.162s.11-.184.11-.33c0-.129-.031-.234-.093-.317-.062-.082-.138-.145-.229-.188s-.192-.073-.304-.088-.217-.022-.316-.022c-.281,0-.514.059-.695.176-.182.118-.285.3-.309.546h-1.003c.018-.293.088-.537.212-.73.123-.193.279-.349.471-.467.189-.117.406-.199.646-.246s.486-.07.738-.07c.224,0,.443.023.66.07s.412.123.586.229c.173.106.312.242.418.409.105.168.158.371.158.612v2.341ZM171.165,172.01c-.152.1-.34.16-.562.181s-.445.051-.669.092c-.105.018-.208.043-.308.075s-.188.076-.264.132-.137.129-.182.22c-.043.092-.065.201-.065.33,0,.112.032.206.097.282s.143.136.233.18c.091.045.19.075.3.093.107.018.206.026.295.026.111,0,.23-.015.36-.044.129-.029.251-.079.364-.149.115-.07.211-.16.287-.269s.113-.242.113-.4v-.748Z" fill="#221f1f"/><path d="M172.749,169.739h1.101l1.188,3.397h.018l1.152-3.397h1.047l-1.769,4.796c-.082.206-.163.402-.242.59s-.176.354-.29.497c-.115.144-.257.258-.427.344-.171.085-.388.127-.651.127-.234,0-.467-.018-.695-.053v-.845c.082.012.161.025.238.04.076.015.154.021.236.021.118,0,.215-.015.291-.044s.139-.071.189-.127c.05-.057.092-.122.127-.198s.068-.164.098-.265l.113-.352-1.725-4.532Z" fill="#221f1f"/><path d="M145.235,34.442h-62.376c-.42,0-.761.335-.761.747v21.161c0,.413.341.747.761.747h62.376c.42,0,.761-.335.761-.747v-21.161c0-.413-.341-.747-.761-.747Z" fill="#caced0" fill-rule="evenodd" stroke="#a2aaad" stroke-miterlimit="10" stroke-width="1.2"/><path d="M213.229,34.442h-62.376c-.42,0-.761.335-.761.747v21.161c0,.413.341.747.761.747h62.376c.42,0,.761-.335.761-.747v-21.161c0-.413-.341-.747-.761-.747Z" fill="#caced0" fill-rule="evenodd" stroke="#a2aaad" stroke-miterlimit="10" stroke-width="1.2"/><path d="M104.513,22.162h1.1v2.499h2.86v-2.499h1.1v6.283h-1.1v-2.834h-2.86v2.834h-1.1v-6.283Z" fill="#221f1f"/><path d="M110.893,22.162h3.053c.564,0,1.016.129,1.355.387.341.259.511.648.511,1.171,0,.316-.077.588-.233.814-.155.226-.377.4-.664.523v.018c.387.082.681.266.88.55s.3.641.3,1.069c0,.246-.045.477-.133.69-.088.215-.226.399-.413.555-.188.155-.429.278-.722.369-.293.092-.643.137-1.047.137h-2.887v-6.283ZM111.993,24.793h1.795c.265,0,.484-.074.66-.224.176-.15.264-.365.264-.647,0-.316-.078-.539-.236-.669-.159-.129-.388-.193-.688-.193h-1.795v1.733ZM111.993,27.548h1.945c.334,0,.594-.087.778-.26s.277-.418.277-.734c0-.312-.093-.551-.277-.718s-.444-.251-.778-.251h-1.945v1.963Z" fill="#221f1f"/><path d="M118.769,22.162h1.171l2.42,6.283h-1.18l-.59-1.663h-2.508l-.59,1.663h-1.135l2.411-6.283ZM118.381,25.946h1.919l-.942-2.702h-.025l-.951,2.702Z" fill="#221f1f"/><path d="M126.301,22.162c.439,0,.799.102,1.078.304.278.202.496.461.651.774s.261.658.316,1.034c.056.375.084.739.084,1.091s-.028.716-.084,1.091c-.056.376-.161.721-.316,1.034-.155.314-.373.572-.651.774-.279.203-.639.304-1.078.304s-.799-.101-1.078-.304c-.278-.202-.496-.46-.65-.774-.156-.313-.262-.658-.317-1.034-.056-.375-.083-.738-.083-1.091s.027-.716.083-1.091c.056-.376.161-.721.317-1.034.154-.313.372-.572.65-.774.279-.202.639-.304,1.078-.304ZM126.301,27.732c.217,0,.398-.062.546-.189.146-.126.263-.296.348-.51.085-.215.146-.465.181-.753.035-.287.053-.592.053-.915s-.018-.626-.053-.911c-.035-.284-.096-.535-.181-.752s-.201-.389-.348-.515c-.147-.126-.329-.189-.546-.189-.223,0-.406.063-.55.189s-.259.298-.343.515c-.086.217-.146.468-.182.752-.035.285-.053.589-.053.911s.018.628.053.915c.036.288.096.538.182.753.084.214.199.384.343.51.144.127.327.189.55.189Z" fill="#221f1f"/><path d="M170.103,22.162h1.1v2.499h2.86v-2.499h1.1v6.283h-1.1v-2.834h-2.86v2.834h-1.1v-6.283Z" fill="#221f1f"/><path d="M176.483,22.162h3.053c.564,0,1.016.129,1.355.387.341.259.511.648.511,1.171,0,.316-.077.588-.233.814-.155.226-.377.4-.664.523v.018c.387.082.681.266.88.55s.3.641.3,1.069c0,.246-.045.477-.133.69-.088.215-.226.399-.413.555-.188.155-.429.278-.722.369-.293.092-.643.137-1.047.137h-2.887v-6.283ZM177.583,24.793h1.795c.265,0,.484-.074.66-.224.176-.15.264-.365.264-.647,0-.316-.078-.539-.236-.669-.159-.129-.388-.193-.688-.193h-1.795v1.733ZM177.583,27.548h1.945c.334,0,.594-.087.778-.26s.277-.418.277-.734c0-.312-.093-.551-.277-.718s-.444-.251-.778-.251h-1.945v1.963Z" fill="#221f1f"/><path d="M184.359,22.162h1.171l2.42,6.283h-1.18l-.59-1.663h-2.508l-.59,1.663h-1.135l2.411-6.283ZM183.971,25.946h1.919l-.942-2.702h-.025l-.951,2.702Z" fill="#221f1f"/><path d="M189.911,23.305c.212,0,.417-.018.617-.053.199-.035.379-.094.541-.176.16-.082.299-.188.413-.316s.189-.288.225-.476h.818v6.16h-1.101v-4.348h-1.514v-.792Z" fill="#221f1f"/><rect x="94.712" y="40.565" width="20.207" height="9.865" rx=".406" ry=".406" fill="#f1f1f2" stroke="#d0d3d4" stroke-miterlimit="10" stroke-width=".336"/><rect x="95.57" y="41.425" width="18.491" height="8.146" fill="#005cb9"/><rect x="115.392" y="40.565" width="20.207" height="9.865" rx=".406" ry=".406" fill="#f1f1f2" stroke="#d0d3d4" stroke-miterlimit="10" stroke-width=".336"/><rect x="116.25" y="41.425" width="18.491" height="8.146" fill="#b2292e"/><path d="M99.269,43.459c.25,0,.463.036.639.109s.318.169.429.289c.11.119.19.256.241.409.051.152.076.312.076.476,0,.161-.025.319-.076.474-.051.155-.131.293-.241.412-.11.12-.253.216-.429.289-.176.072-.389.109-.639.109h-.925v1.435h-.88v-4.002h1.805ZM99.028,45.342c.101,0,.198-.007.292-.022.093-.015.175-.043.246-.087.071-.042.128-.104.171-.182s.064-.182.064-.309-.021-.229-.064-.308c-.043-.079-.1-.14-.171-.183s-.153-.071-.246-.087c-.094-.015-.191-.022-.292-.022h-.684v1.199h.684Z" fill="#fff"/><path d="M101.135,45.384c.071-.188.172-.349.303-.481s.288-.235.471-.309c.184-.072.389-.109.616-.109s.435.037.62.109c.185.073.343.176.474.309.13.133.231.293.302.481.071.189.106.399.106.631s-.035.441-.106.628c-.07.187-.172.347-.302.479-.131.132-.289.234-.474.305-.186.071-.392.106-.62.106s-.433-.035-.616-.106c-.183-.07-.34-.173-.471-.305-.131-.133-.231-.293-.303-.479s-.106-.396-.106-.628.035-.441.106-.631ZM101.858,46.353c.022.11.062.21.115.297.055.088.126.158.216.211.09.052.202.078.336.078.135,0,.248-.026.34-.078.091-.053.164-.123.218-.211.055-.087.093-.187.115-.297s.034-.223.034-.339c0-.115-.012-.229-.034-.342s-.061-.211-.115-.297c-.054-.086-.127-.156-.218-.21-.092-.055-.205-.082-.34-.082-.134,0-.246.027-.336.082-.09.054-.161.124-.216.21-.054.086-.093.185-.115.297-.021.112-.033.227-.033.342,0,.116.012.229.033.339Z" fill="#fff"/><path d="M105.299,44.563v.538h.011c.037-.09.088-.173.151-.25.063-.076.137-.142.219-.196.082-.054.17-.096.264-.126.093-.029.19-.045.291-.045.053,0,.11.01.174.028v.74c-.037-.008-.082-.015-.135-.021-.052-.005-.103-.008-.151-.008-.146,0-.269.024-.369.072-.102.049-.183.115-.244.199s-.105.183-.132.295c-.026.111-.039.233-.039.364v1.306h-.796v-2.897h.757Z" fill="#fff"/><path d="M108.315,44.563v.532h-.583v1.435c0,.135.022.225.067.27.045.044.135.066.269.066.045,0,.088,0,.129-.005s.081-.01.118-.018v.617c-.067.011-.143.019-.225.022-.082.003-.162.005-.241.005-.123,0-.239-.008-.35-.024-.11-.018-.208-.05-.292-.099-.084-.048-.15-.117-.198-.207-.049-.09-.073-.208-.073-.354v-1.709h-.482v-.532h.482v-.869h.796v.869h.583Z" fill="#fff"/><path d="M109.623,44.521c.077-.26.181-.469.312-.625.131-.157.283-.27.456-.337.174-.066.358-.101.553-.101.197,0,.384.034.558.101.174.067.326.18.459.337.133.156.237.365.314.625.076.26.114.58.114.961,0,.393-.038.72-.114.983-.077.264-.182.474-.314.631-.133.156-.285.269-.459.336s-.36.101-.558.101c-.194,0-.379-.033-.553-.101-.173-.067-.325-.18-.456-.336-.131-.157-.234-.367-.312-.631-.076-.264-.114-.591-.114-.983,0-.381.038-.701.114-.961ZM110.315,45.888c.008.159.031.312.07.46.039.147.102.273.188.378s.209.157.37.157c.164,0,.29-.053.378-.157s.151-.23.19-.378c.039-.148.062-.301.07-.46s.011-.294.011-.406c0-.067,0-.148-.002-.244-.002-.095-.01-.193-.022-.294-.014-.101-.032-.201-.057-.3s-.061-.188-.109-.267c-.048-.078-.11-.142-.185-.19-.075-.049-.166-.072-.274-.072s-.199.023-.272.072c-.072.049-.132.112-.179.19-.047.079-.083.168-.109.267s-.045.199-.057.3c-.011.101-.018.199-.02.294-.002.096-.003.177-.003.244,0,.112.004.247.012.406Z" fill="#fff"/><path d="M120.004,43.459c.25,0,.463.036.639.109s.318.169.429.289c.11.119.19.256.241.409.051.152.076.312.076.476,0,.161-.025.319-.076.474-.051.155-.131.293-.241.412-.11.12-.253.216-.429.289-.176.072-.389.109-.639.109h-.925v1.435h-.88v-4.002h1.805ZM119.762,45.342c.101,0,.198-.007.292-.022.093-.015.175-.043.246-.087.071-.042.128-.104.171-.182s.064-.182.064-.309-.021-.229-.064-.308c-.043-.079-.1-.14-.171-.183s-.153-.071-.246-.087c-.094-.015-.191-.022-.292-.022h-.684v1.199h.684Z" fill="#fff"/><path d="M121.87,45.384c.071-.188.172-.349.303-.481s.288-.235.471-.309c.184-.072.389-.109.616-.109s.435.037.62.109c.185.073.343.176.474.309.13.133.231.293.302.481.071.189.106.399.106.631s-.035.441-.106.628c-.07.187-.172.347-.302.479-.131.132-.289.234-.474.305-.186.071-.392.106-.62.106s-.433-.035-.616-.106c-.183-.07-.34-.173-.471-.305-.131-.133-.231-.293-.303-.479s-.106-.396-.106-.628.035-.441.106-.631ZM122.592,46.353c.022.11.062.21.115.297.055.088.126.158.216.211.09.052.202.078.336.078.135,0,.248-.026.34-.078.091-.053.164-.123.218-.211.055-.087.093-.187.115-.297s.034-.223.034-.339c0-.115-.012-.229-.034-.342s-.061-.211-.115-.297c-.054-.086-.127-.156-.218-.21-.092-.055-.205-.082-.34-.082-.134,0-.246.027-.336.082-.09.054-.161.124-.216.21-.054.086-.093.185-.115.297-.021.112-.033.227-.033.342,0,.116.012.229.033.339Z" fill="#fff"/><path d="M126.034,44.563v.538h.011c.037-.09.088-.173.151-.25.063-.076.137-.142.219-.196.082-.054.17-.096.264-.126.093-.029.19-.045.291-.045.053,0,.11.01.174.028v.74c-.037-.008-.082-.015-.135-.021-.052-.005-.103-.008-.151-.008-.146,0-.269.024-.369.072-.102.049-.183.115-.244.199s-.105.183-.132.295c-.026.111-.039.233-.039.364v1.306h-.796v-2.897h.757Z" fill="#fff"/><path d="M129.049,44.563v.532h-.583v1.435c0,.135.022.225.067.27.045.044.135.066.269.066.045,0,.088,0,.129-.005s.081-.01.118-.018v.617c-.067.011-.143.019-.225.022-.082.003-.162.005-.241.005-.123,0-.239-.008-.35-.024-.11-.018-.208-.05-.292-.099-.084-.048-.15-.117-.198-.207-.049-.09-.073-.208-.073-.354v-1.709h-.482v-.532h.482v-.869h.796v.869h.583Z" fill="#fff"/><path d="M131.526,47.461v-2.545h-.986v-.6c.138.004.271-.006.4-.03s.245-.067.348-.129c.103-.062.189-.144.261-.244.07-.101.117-.226.14-.376h.634v3.924h-.796Z" fill="#fff"/><rect x="161.581" y="40.565" width="20.207" height="9.865" rx=".406" ry=".406" fill="#f1f1f2" stroke="#d0d3d4" stroke-miterlimit="10" stroke-width=".336"/><rect x="162.439" y="41.425" width="18.491" height="8.146" fill="#005cb9"/><rect x="182.261" y="40.565" width="20.207" height="9.865" rx=".406" ry=".406" fill="#f1f1f2" stroke="#d0d3d4" stroke-miterlimit="10" stroke-width=".336"/><rect x="183.119" y="41.425" width="18.491" height="8.146" fill="#b2292e"/><path d="M166.138,43.459c.25,0,.463.036.639.109s.318.169.429.289c.11.119.19.256.241.409.051.152.076.312.076.476,0,.161-.025.319-.076.474-.051.155-.131.293-.241.412-.11.12-.253.216-.429.289-.176.072-.389.109-.639.109h-.925v1.435h-.88v-4.002h1.805ZM165.897,45.342c.101,0,.198-.007.292-.022.093-.015.175-.043.246-.087.071-.042.128-.104.171-.182s.064-.182.064-.309-.021-.229-.064-.308c-.043-.079-.1-.14-.171-.183s-.153-.071-.246-.087c-.094-.015-.191-.022-.292-.022h-.684v1.199h.684Z" fill="#fff"/><path d="M168.005,45.384c.071-.188.172-.349.303-.481s.288-.235.471-.309c.184-.072.389-.109.616-.109s.435.037.62.109c.185.073.343.176.474.309.13.133.231.293.302.481.071.189.106.399.106.631s-.035.441-.106.628c-.07.187-.172.347-.302.479-.131.132-.289.234-.474.305-.186.071-.392.106-.62.106s-.433-.035-.616-.106c-.183-.07-.34-.173-.471-.305-.131-.133-.231-.293-.303-.479s-.106-.396-.106-.628.035-.441.106-.631ZM168.727,46.353c.022.11.062.21.115.297.055.088.126.158.216.211.09.052.202.078.336.078.135,0,.248-.026.34-.078.091-.053.164-.123.218-.211.055-.087.093-.187.115-.297s.034-.223.034-.339c0-.115-.012-.229-.034-.342s-.061-.211-.115-.297c-.054-.086-.127-.156-.218-.21-.092-.055-.205-.082-.34-.082-.134,0-.246.027-.336.082-.09.054-.161.124-.216.21-.054.086-.093.185-.115.297-.021.112-.033.227-.033.342,0,.116.012.229.033.339Z" fill="#fff"/><path d="M172.169,44.563v.538h.011c.037-.09.088-.173.151-.25.063-.076.137-.142.219-.196.082-.054.17-.096.264-.126.093-.029.19-.045.291-.045.053,0,.11.01.174.028v.74c-.037-.008-.082-.015-.135-.021-.052-.005-.103-.008-.151-.008-.146,0-.269.024-.369.072-.102.049-.183.115-.244.199s-.105.183-.132.295c-.026.111-.039.233-.039.364v1.306h-.796v-2.897h.757Z" fill="#fff"/><path d="M175.184,44.563v.532h-.583v1.435c0,.135.022.225.067.27.045.044.135.066.269.066.045,0,.088,0,.129-.005s.081-.01.118-.018v.617c-.067.011-.143.019-.225.022-.082.003-.162.005-.241.005-.123,0-.239-.008-.35-.024-.11-.018-.208-.05-.292-.099-.084-.048-.15-.117-.198-.207-.049-.09-.073-.208-.073-.354v-1.709h-.482v-.532h.482v-.869h.796v.869h.583Z" fill="#fff"/><path d="M176.492,44.521c.077-.26.181-.469.312-.625.131-.157.283-.27.456-.337.174-.066.358-.101.553-.101.197,0,.384.034.558.101.174.067.326.18.459.337.133.156.237.365.314.625.076.26.114.58.114.961,0,.393-.038.72-.114.983-.077.264-.182.474-.314.631-.133.156-.285.269-.459.336s-.36.101-.558.101c-.194,0-.379-.033-.553-.101-.173-.067-.325-.18-.456-.336-.131-.157-.234-.367-.312-.631-.076-.264-.114-.591-.114-.983,0-.381.038-.701.114-.961ZM177.184,45.888c.008.159.031.312.07.46.039.147.102.273.188.378s.209.157.37.157c.164,0,.29-.053.378-.157s.151-.23.19-.378c.039-.148.062-.301.07-.46s.011-.294.011-.406c0-.067,0-.148-.002-.244-.002-.095-.01-.193-.022-.294-.014-.101-.032-.201-.057-.3s-.061-.188-.109-.267c-.048-.078-.11-.142-.185-.19-.075-.049-.166-.072-.274-.072s-.199.023-.272.072c-.072.049-.132.112-.179.19-.047.079-.083.168-.109.267s-.045.199-.057.3c-.011.101-.018.199-.02.294-.002.096-.003.177-.003.244,0,.112.004.247.012.406Z" fill="#fff"/><path d="M186.874,43.459c.25,0,.463.036.639.109s.318.169.429.289c.11.119.19.256.241.409.051.152.076.312.076.476,0,.161-.025.319-.076.474-.051.155-.131.293-.241.412-.11.12-.253.216-.429.289-.176.072-.389.109-.639.109h-.925v1.435h-.88v-4.002h1.805ZM186.632,45.342c.101,0,.198-.007.292-.022.093-.015.175-.043.246-.087.071-.042.128-.104.171-.182s.064-.182.064-.309-.021-.229-.064-.308c-.043-.079-.1-.14-.171-.183s-.153-.071-.246-.087c-.094-.015-.191-.022-.292-.022h-.684v1.199h.684Z" fill="#fff"/><path d="M188.74,45.384c.071-.188.172-.349.303-.481s.288-.235.471-.309c.184-.072.389-.109.616-.109s.435.037.62.109c.185.073.343.176.474.309.13.133.231.293.302.481.071.189.106.399.106.631s-.035.441-.106.628c-.07.187-.172.347-.302.479-.131.132-.289.234-.474.305-.186.071-.392.106-.62.106s-.433-.035-.616-.106c-.183-.07-.34-.173-.471-.305-.131-.133-.231-.293-.303-.479s-.106-.396-.106-.628.035-.441.106-.631ZM189.463,46.353c.022.11.062.21.115.297.055.088.126.158.216.211.09.052.202.078.336.078.135,0,.248-.026.34-.078.091-.053.164-.123.218-.211.055-.087.093-.187.115-.297s.034-.223.034-.339c0-.115-.012-.229-.034-.342s-.061-.211-.115-.297c-.054-.086-.127-.156-.218-.21-.092-.055-.205-.082-.34-.082-.134,0-.246.027-.336.082-.09.054-.161.124-.216.21-.054.086-.093.185-.115.297-.021.112-.033.227-.033.342,0,.116.012.229.033.339Z" fill="#fff"/><path d="M192.904,44.563v.538h.011c.037-.09.088-.173.151-.25.063-.076.137-.142.219-.196.082-.054.17-.096.264-.126.093-.029.19-.045.291-.045.053,0,.11.01.174.028v.74c-.037-.008-.082-.015-.135-.021-.052-.005-.103-.008-.151-.008-.146,0-.269.024-.369.072-.102.049-.183.115-.244.199s-.105.183-.132.295c-.026.111-.039.233-.039.364v1.306h-.796v-2.897h.757Z" fill="#fff"/><path d="M195.92,44.563v.532h-.583v1.435c0,.135.022.225.067.27.045.044.135.066.269.066.045,0,.088,0,.129-.005s.081-.01.118-.018v.617c-.067.011-.143.019-.225.022-.082.003-.162.005-.241.005-.123,0-.239-.008-.35-.024-.11-.018-.208-.05-.292-.099-.084-.048-.15-.117-.198-.207-.049-.09-.073-.208-.073-.354v-1.709h-.482v-.532h.482v-.869h.796v.869h.583Z" fill="#fff"/><path d="M198.396,47.461v-2.545h-.986v-.6c.138.004.271-.006.4-.03s.245-.067.348-.129c.103-.062.189-.144.261-.244.07-.101.117-.226.14-.376h.634v3.924h-.796Z" fill="#fff"/><path d="M135.88,10.429h1.1v2.499h2.86v-2.499h1.1v6.283h-1.1v-2.834h-2.86v2.834h-1.1v-6.283Z" fill="#221f1f"/><path d="M144.206,16.836c-.364,0-.688-.061-.973-.181-.285-.12-.525-.285-.723-.497-.195-.211-.346-.463-.448-.757-.103-.293-.153-.615-.153-.968,0-.346.051-.666.153-.959s.253-.546.448-.757c.197-.211.438-.377.723-.497.284-.12.608-.181.973-.181s.688.061.972.181.524.286.722.497c.196.211.346.464.449.757.102.293.153.613.153.959,0,.353-.052.675-.153.968-.104.294-.253.546-.449.757-.197.212-.438.377-.722.497s-.608.181-.972.181ZM144.206,16.044c.223,0,.416-.047.58-.141s.299-.217.404-.37c.105-.152.184-.323.234-.515.049-.19.074-.386.074-.585,0-.193-.025-.387-.074-.581-.051-.193-.129-.365-.234-.515s-.24-.271-.404-.365-.357-.141-.58-.141-.418.047-.582.141-.299.216-.404.365-.184.321-.232.515c-.051.194-.076.388-.076.581,0,.199.025.395.076.585.049.191.127.362.232.515.105.153.24.276.404.37s.358.141.582.141Z" fill="#221f1f"/><path d="M148.094,15.252c.029.294.141.499.334.616.194.117.426.176.695.176.094,0,.201-.007.322-.021.119-.015.232-.043.338-.084s.192-.102.26-.181.098-.183.092-.312c-.006-.129-.053-.234-.141-.316s-.201-.148-.338-.198c-.139-.05-.295-.092-.471-.127s-.355-.073-.537-.115c-.188-.041-.368-.091-.541-.149-.174-.059-.329-.138-.467-.237s-.248-.228-.33-.383-.123-.348-.123-.576c0-.247.061-.453.18-.621.121-.167.273-.302.459-.404.184-.103.389-.175.615-.216s.441-.062.646-.062c.234,0,.459.025.674.075.214.05.407.13.58.241.174.112.317.257.432.437.114.179.186.395.216.646h-1.048c-.047-.24-.156-.402-.33-.484-.172-.082-.371-.123-.594-.123-.07,0-.154.006-.25.018-.098.012-.188.034-.273.066s-.156.079-.215.141c-.06.062-.088.143-.088.242,0,.123.042.223.127.299s.196.14.334.189c.139.05.295.092.471.127s.358.074.546.115c.183.041.36.091.537.149.176.059.333.138.471.237s.249.226.335.379c.084.152.127.34.127.562,0,.271-.062.499-.185.687-.124.188-.283.341-.479.458-.197.117-.416.202-.656.255s-.479.079-.713.079c-.287,0-.553-.032-.796-.097s-.454-.163-.634-.295c-.179-.132-.32-.296-.422-.492-.104-.197-.157-.43-.163-.7h1.003Z" fill="#221f1f"/><path d="M151.447,12.163h.757v-1.364h1.004v1.364h.906v.748h-.906v2.429c0,.105.004.197.013.273s.029.141.062.193.08.092.145.118c.064.027.153.04.265.04.07,0,.141,0,.211-.004.071-.003.142-.014.212-.031v.774c-.111.012-.221.023-.326.035s-.215.018-.326.018c-.264,0-.477-.025-.637-.075-.162-.05-.288-.123-.379-.22-.092-.097-.152-.219-.186-.365-.031-.146-.051-.313-.057-.501v-2.685h-.757v-.748Z" fill="#221f1f"/><path d="M157.219,11.573c.212,0,.417-.018.617-.053.199-.035.379-.094.541-.176.16-.082.299-.188.413-.316s.189-.288.225-.476h.818v6.16h-1.101v-4.348h-1.514v-.792Z" fill="#221f1f"/><rect x="4.175" y="103.218" width="288" height="57.6" fill="none" stroke="#a2aaad" stroke-linecap="round" stroke-linejoin="round" stroke-width="1.016"/><rect x="7.055" y="105.909" width="282.24" height="52.217" fill="#d0d3d4"/><rect x="11.869" y="109.606" width="132.48" height="23.04" fill="#ededed"/><rect x="19.763" y="116.535" width="20.207" height="9.865" rx=".406" ry=".406" fill="#f1f1f2" stroke="#d0d3d4" stroke-miterlimit="10" stroke-width=".336"/><rect x="20.621" y="117.395" width="18.491" height="8.146" fill="#101820"/><rect x="20.621" y="117.395" width="18.491" height="8.146" fill="#101820"/><rect x="20.621" y="117.395" width="18.491" height="8.146" fill="#005cb9"/><rect x="40.443" y="116.535" width="20.207" height="9.865" rx=".406" ry=".406" fill="#f1f1f2" stroke="#d0d3d4" stroke-miterlimit="10" stroke-width=".336"/><rect x="41.301" y="117.395" width="18.491" height="8.146" fill="#101820"/><rect x="41.301" y="117.395" width="18.491" height="8.146" fill="#101820"/><rect x="41.301" y="117.395" width="18.491" height="8.146" fill="#231f20"/><rect x="61.123" y="116.535" width="20.207" height="9.865" rx=".406" ry=".406" fill="#f1f1f2" stroke="#d0d3d4" stroke-miterlimit="10" stroke-width=".336"/><rect x="61.981" y="117.395" width="18.491" height="8.146" fill="#101820"/><rect x="61.981" y="117.395" width="18.491" height="8.146" fill="#101820"/><rect x="61.981" y="117.395" width="18.491" height="8.146" fill="#005cb9"/><rect x="81.803" y="116.535" width="20.207" height="9.865" rx=".406" ry=".406" fill="#f1f1f2" stroke="#d0d3d4" stroke-miterlimit="10" stroke-width=".336"/><rect x="82.661" y="117.395" width="18.491" height="8.146" fill="#101820"/><rect x="82.661" y="117.395" width="18.491" height="8.146" fill="#101820"/><rect x="82.661" y="117.395" width="18.491" height="8.146" fill="#231f20"/><path d="M24.32,119.429c.25,0,.463.036.639.109s.318.169.429.289c.11.119.19.256.241.409.051.152.076.312.076.476,0,.161-.025.319-.076.474-.051.155-.131.293-.241.412-.11.12-.253.216-.429.289-.176.072-.389.109-.639.109h-.925v1.435h-.88v-4.002h1.805ZM24.079,121.312c.101,0,.198-.007.292-.022.093-.015.175-.043.246-.087.071-.042.128-.104.171-.182s.064-.182.064-.309-.021-.229-.064-.308c-.043-.079-.1-.14-.171-.183s-.153-.071-.246-.087c-.094-.015-.191-.022-.292-.022h-.684v1.199h.684Z" fill="#fff"/><path d="M26.186,121.354c.071-.188.172-.349.303-.481s.288-.235.471-.309c.184-.072.389-.109.616-.109s.435.037.62.109c.185.073.343.176.474.309.13.133.231.293.302.481.071.189.106.399.106.631s-.035.441-.106.628c-.07.187-.172.347-.302.479-.131.132-.289.234-.474.305-.186.071-.392.106-.62.106s-.433-.035-.616-.106c-.183-.07-.34-.173-.471-.305-.131-.133-.231-.293-.303-.479s-.106-.396-.106-.628.035-.441.106-.631ZM26.909,122.324c.022.11.062.21.115.297.055.088.126.158.216.211.09.052.202.078.336.078.135,0,.248-.026.34-.078.091-.053.164-.123.218-.211.055-.087.093-.187.115-.297s.034-.223.034-.339c0-.115-.012-.229-.034-.342s-.061-.211-.115-.297c-.054-.086-.127-.156-.218-.21-.092-.055-.205-.082-.34-.082-.134,0-.246.027-.336.082-.09.054-.161.124-.216.21-.054.086-.093.185-.115.297-.021.112-.033.227-.033.342,0,.116.012.229.033.339Z" fill="#fff"/><path d="M30.35,120.534v.538h.011c.037-.09.088-.173.151-.25.063-.076.137-.142.219-.196.082-.054.17-.096.264-.126.093-.029.19-.045.291-.045.053,0,.11.01.174.028v.74c-.037-.008-.082-.015-.135-.021-.052-.005-.103-.008-.151-.008-.146,0-.269.024-.369.072-.102.049-.183.115-.244.199s-.105.183-.132.295c-.026.111-.039.233-.039.364v1.306h-.796v-2.897h.757Z" fill="#fff"/><path d="M33.366,120.534v.532h-.583v1.435c0,.135.022.225.067.27.045.044.135.066.269.066.045,0,.088,0,.129-.005s.081-.01.118-.018v.617c-.067.011-.143.019-.225.022-.082.003-.162.005-.241.005-.123,0-.239-.008-.35-.024-.11-.018-.208-.05-.292-.099-.084-.048-.15-.117-.198-.207-.049-.09-.073-.208-.073-.354v-1.709h-.482v-.532h.482v-.869h.796v.869h.583Z" fill="#fff"/><path d="M34.673,120.492c.077-.26.181-.469.312-.625.131-.157.283-.27.456-.337.174-.066.358-.101.553-.101.197,0,.384.034.558.101.174.067.326.18.459.337.133.156.237.365.314.625.076.26.114.58.114.961,0,.393-.038.72-.114.983-.077.264-.182.474-.314.631-.133.156-.285.269-.459.336s-.36.101-.558.101c-.194,0-.379-.033-.553-.101-.173-.067-.325-.18-.456-.336-.131-.157-.234-.367-.312-.631-.076-.264-.114-.591-.114-.983,0-.381.038-.701.114-.961ZM35.366,121.859c.008.159.031.312.07.46.039.147.102.273.188.378s.209.157.37.157c.164,0,.29-.053.378-.157s.151-.23.19-.378c.039-.148.062-.301.07-.46s.011-.294.011-.406c0-.067,0-.148-.002-.244-.002-.095-.01-.193-.022-.294-.014-.101-.032-.201-.057-.3s-.061-.188-.109-.267c-.048-.078-.11-.142-.185-.19-.075-.049-.166-.072-.274-.072s-.199.023-.272.072c-.072.049-.132.112-.179.19-.047.079-.083.168-.109.267s-.045.199-.057.3c-.011.101-.018.199-.02.294-.002.096-.003.177-.003.244,0,.112.004.247.012.406Z" fill="#fff"/><path d="M45.055,119.429c.25,0,.463.036.639.109s.318.169.429.289c.11.119.19.256.241.409.051.152.076.312.076.476,0,.161-.025.319-.076.474-.051.155-.131.293-.241.412-.11.12-.253.216-.429.289-.176.072-.389.109-.639.109h-.925v1.435h-.88v-4.002h1.805ZM44.814,121.312c.101,0,.198-.007.292-.022.093-.015.175-.043.246-.087.071-.042.128-.104.171-.182s.064-.182.064-.309-.021-.229-.064-.308c-.043-.079-.1-.14-.171-.183s-.153-.071-.246-.087c-.094-.015-.191-.022-.292-.022h-.684v1.199h.684Z" fill="#fff"/><path d="M46.921,121.354c.071-.188.172-.349.303-.481s.288-.235.471-.309c.184-.072.389-.109.616-.109s.435.037.62.109c.185.073.343.176.474.309.13.133.231.293.302.481.071.189.106.399.106.631s-.035.441-.106.628c-.07.187-.172.347-.302.479-.131.132-.289.234-.474.305-.186.071-.392.106-.62.106s-.433-.035-.616-.106c-.183-.07-.34-.173-.471-.305-.131-.133-.231-.293-.303-.479s-.106-.396-.106-.628.035-.441.106-.631ZM47.644,122.324c.022.11.062.21.115.297.055.088.126.158.216.211.09.052.202.078.336.078.135,0,.248-.026.34-.078.091-.053.164-.123.218-.211.055-.087.093-.187.115-.297s.034-.223.034-.339c0-.115-.012-.229-.034-.342s-.061-.211-.115-.297c-.054-.086-.127-.156-.218-.21-.092-.055-.205-.082-.34-.082-.134,0-.246.027-.336.082-.09.054-.161.124-.216.21-.054.086-.093.185-.115.297-.021.112-.033.227-.033.342,0,.116.012.229.033.339Z" fill="#fff"/><path d="M51.086,120.534v.538h.011c.037-.09.088-.173.151-.25.063-.076.137-.142.219-.196.082-.054.17-.096.264-.126.093-.029.19-.045.291-.045.053,0,.11.01.174.028v.74c-.037-.008-.082-.015-.135-.021-.052-.005-.103-.008-.151-.008-.146,0-.269.024-.369.072-.102.049-.183.115-.244.199s-.105.183-.132.295c-.026.111-.039.233-.039.364v1.306h-.796v-2.897h.757Z" fill="#fff"/><path d="M54.101,120.534v.532h-.583v1.435c0,.135.022.225.067.27.045.044.135.066.269.066.045,0,.088,0,.129-.005s.081-.01.118-.018v.617c-.067.011-.143.019-.225.022-.082.003-.162.005-.241.005-.123,0-.239-.008-.35-.024-.11-.018-.208-.05-.292-.099-.084-.048-.15-.117-.198-.207-.049-.09-.073-.208-.073-.354v-1.709h-.482v-.532h.482v-.869h.796v.869h.583Z" fill="#fff"/><path d="M56.578,123.431v-2.545h-.986v-.6c.138.004.271-.006.4-.03s.245-.067.348-.129c.103-.062.189-.144.261-.244.07-.101.117-.226.14-.376h.634v3.924h-.796Z" fill="#fff"/><path d="M65.791,119.429c.25,0,.463.036.639.109s.318.169.429.289c.11.119.19.256.241.409.051.152.076.312.076.476,0,.161-.025.319-.076.474-.051.155-.131.293-.241.412-.11.12-.253.216-.429.289-.176.072-.389.109-.639.109h-.925v1.435h-.88v-4.002h1.805ZM65.549,121.312c.101,0,.198-.007.292-.022.093-.015.175-.043.246-.087.071-.042.128-.104.171-.182s.064-.182.064-.309-.021-.229-.064-.308c-.043-.079-.1-.14-.171-.183s-.153-.071-.246-.087c-.094-.015-.191-.022-.292-.022h-.684v1.199h.684Z" fill="#fff"/><path d="M67.657,121.354c.071-.188.172-.349.303-.481s.288-.235.471-.309c.184-.072.389-.109.616-.109s.435.037.62.109c.185.073.343.176.474.309.13.133.231.293.302.481.071.189.106.399.106.631s-.035.441-.106.628c-.07.187-.172.347-.302.479-.131.132-.289.234-.474.305-.186.071-.392.106-.62.106s-.433-.035-.616-.106c-.183-.07-.34-.173-.471-.305-.131-.133-.231-.293-.303-.479s-.106-.396-.106-.628.035-.441.106-.631ZM68.38,122.324c.022.11.062.21.115.297.055.088.126.158.216.211.09.052.202.078.336.078.135,0,.248-.026.34-.078.091-.053.164-.123.218-.211.055-.087.093-.187.115-.297s.034-.223.034-.339c0-.115-.012-.229-.034-.342s-.061-.211-.115-.297c-.054-.086-.127-.156-.218-.21-.092-.055-.205-.082-.34-.082-.134,0-.246.027-.336.082-.09.054-.161.124-.216.21-.054.086-.093.185-.115.297-.021.112-.033.227-.033.342,0,.116.012.229.033.339Z" fill="#fff"/><path d="M71.821,120.534v.538h.011c.037-.09.088-.173.151-.25.063-.076.137-.142.219-.196.082-.054.17-.096.264-.126.093-.029.19-.045.291-.045.053,0,.11.01.174.028v.74c-.037-.008-.082-.015-.135-.021-.052-.005-.103-.008-.151-.008-.146,0-.269.024-.369.072-.102.049-.183.115-.244.199s-.105.183-.132.295c-.026.111-.039.233-.039.364v1.306h-.796v-2.897h.757Z" fill="#fff"/><path d="M74.837,120.534v.532h-.583v1.435c0,.135.022.225.067.27.045.044.135.066.269.066.045,0,.088,0,.129-.005s.081-.01.118-.018v.617c-.067.011-.143.019-.225.022-.082.003-.162.005-.241.005-.123,0-.239-.008-.35-.024-.11-.018-.208-.05-.292-.099-.084-.048-.15-.117-.198-.207-.049-.09-.073-.208-.073-.354v-1.709h-.482v-.532h.482v-.869h.796v.869h.583Z" fill="#fff"/><path d="M76.198,120.39c.06-.192.149-.36.269-.504.12-.144.271-.256.451-.337.182-.08.39-.12.625-.12.18,0,.351.028.513.084.163.057.306.137.429.241s.222.233.295.387c.072.153.108.325.108.516,0,.198-.031.368-.095.51-.063.143-.147.269-.252.379-.105.109-.224.21-.356.3-.133.089-.266.178-.4.266s-.266.183-.393.283-.239.219-.336.354h1.854v.684h-2.88c0-.229.032-.426.098-.595.065-.168.154-.318.267-.451.111-.132.243-.255.395-.366.151-.112.312-.227.479-.343.086-.06.178-.12.274-.182.098-.062.186-.13.267-.205.08-.074.147-.158.201-.252.055-.093.081-.199.081-.319,0-.19-.055-.339-.165-.445s-.251-.16-.423-.16c-.116,0-.214.027-.294.081-.081.055-.146.126-.193.214-.049.087-.084.185-.104.291s-.03.212-.03.316h-.763c-.007-.224.019-.433.079-.625Z" fill="#fff"/><path d="M86.422,119.429c.25,0,.463.036.639.109s.318.169.429.289c.11.119.19.256.241.409.051.152.076.312.076.476,0,.161-.025.319-.076.474-.051.155-.131.293-.241.412-.11.12-.253.216-.429.289-.176.072-.389.109-.639.109h-.925v1.435h-.88v-4.002h1.805ZM86.181,121.312c.101,0,.198-.007.292-.022.093-.015.175-.043.246-.087.071-.042.128-.104.171-.182s.064-.182.064-.309-.021-.229-.064-.308c-.043-.079-.1-.14-.171-.183s-.153-.071-.246-.087c-.094-.015-.191-.022-.292-.022h-.684v1.199h.684Z" fill="#fff"/><path d="M88.289,121.354c.071-.188.172-.349.303-.481s.288-.235.471-.309c.184-.072.389-.109.616-.109s.435.037.62.109c.185.073.343.176.474.309.13.133.231.293.302.481.071.189.106.399.106.631s-.035.441-.106.628c-.07.187-.172.347-.302.479-.131.132-.289.234-.474.305-.186.071-.392.106-.62.106s-.433-.035-.616-.106c-.183-.07-.34-.173-.471-.305-.131-.133-.231-.293-.303-.479s-.106-.396-.106-.628.035-.441.106-.631ZM89.011,122.324c.022.11.062.21.115.297.055.088.126.158.216.211.09.052.202.078.336.078.135,0,.248-.026.34-.078.091-.053.164-.123.218-.211.055-.087.093-.187.115-.297s.034-.223.034-.339c0-.115-.012-.229-.034-.342s-.061-.211-.115-.297c-.054-.086-.127-.156-.218-.21-.092-.055-.205-.082-.34-.082-.134,0-.246.027-.336.082-.09.054-.161.124-.216.21-.054.086-.093.185-.115.297-.021.112-.033.227-.033.342,0,.116.012.229.033.339Z" fill="#fff"/><path d="M92.453,120.534v.538h.011c.037-.09.088-.173.151-.25.063-.076.137-.142.219-.196.082-.054.17-.096.264-.126.093-.029.19-.045.291-.045.053,0,.11.01.174.028v.74c-.037-.008-.082-.015-.135-.021-.052-.005-.103-.008-.151-.008-.146,0-.269.024-.369.072-.102.049-.183.115-.244.199s-.105.183-.132.295c-.026.111-.039.233-.039.364v1.306h-.796v-2.897h.757Z" fill="#fff"/><path d="M95.468,120.534v.532h-.583v1.435c0,.135.022.225.067.27.045.044.135.066.269.066.045,0,.088,0,.129-.005s.081-.01.118-.018v.617c-.067.011-.143.019-.225.022-.082.003-.162.005-.241.005-.123,0-.239-.008-.35-.024-.11-.018-.208-.05-.292-.099-.084-.048-.15-.117-.198-.207-.049-.09-.073-.208-.073-.354v-1.709h-.482v-.532h.482v-.869h.796v.869h.583Z" fill="#fff"/><path d="M98.096,121.095c.097-.008.188-.029.271-.064.084-.036.153-.087.207-.154.055-.067.082-.157.082-.27,0-.168-.057-.297-.169-.387-.111-.09-.24-.134-.387-.134-.201,0-.354.066-.456.198-.104.133-.152.3-.148.502h-.757c.007-.202.044-.386.109-.552.065-.167.156-.31.274-.429.118-.12.259-.212.423-.277.165-.065.348-.099.55-.099.156,0,.313.023.471.07.156.047.298.116.423.21s.228.207.306.342.117.29.117.465c0,.191-.046.359-.137.505-.092.146-.229.245-.412.297v.012c.217.048.387.153.51.313.123.161.186.354.186.577,0,.206-.041.389-.121.55-.08.16-.188.295-.322.403s-.289.19-.465.246c-.176.057-.358.084-.55.084-.22,0-.421-.031-.602-.095-.182-.063-.336-.156-.463-.277-.127-.122-.226-.271-.294-.446-.069-.175-.103-.377-.099-.604h.757c.004.104.021.204.051.3.029.095.072.177.129.246.056.069.126.124.21.166.084.041.184.062.3.062.18,0,.331-.056.454-.166.123-.109.185-.261.185-.451,0-.149-.028-.263-.087-.342-.058-.078-.132-.135-.221-.171-.09-.035-.188-.056-.295-.062s-.208-.009-.306-.009v-.56c.086.007.178.007.275,0Z" fill="#fff"/><rect x="151.436" y="109.606" width="132.48" height="23.04" fill="#ededed"/><rect x="159.33" y="116.535" width="20.207" height="9.865" rx=".406" ry=".406" fill="#f1f1f2" stroke="#d0d3d4" stroke-miterlimit="10" stroke-width=".336"/><rect x="160.188" y="117.395" width="18.491" height="8.146" fill="#101820"/><rect x="160.188" y="117.395" width="18.491" height="8.146" fill="#101820"/><rect x="160.188" y="117.395" width="18.491" height="8.146" fill="#231f20"/><rect x="180.01" y="116.535" width="20.207" height="9.865" rx=".406" ry=".406" fill="#f1f1f2" stroke="#d0d3d4" stroke-miterlimit="10" stroke-width=".336"/><rect x="180.868" y="117.395" width="18.491" height="8.146" fill="#101820"/><rect x="180.868" y="117.395" width="18.491" height="8.146" fill="#101820"/><rect x="180.868" y="117.395" width="18.491" height="8.146" fill="#b2292e"/><rect x="200.69" y="116.535" width="20.207" height="9.865" rx=".406" ry=".406" fill="#f1f1f2" stroke="#d0d3d4" stroke-miterlimit="10" stroke-width=".336"/><rect x="201.548" y="117.395" width="18.491" height="8.146" fill="#101820"/><rect x="201.548" y="117.395" width="18.491" height="8.146" fill="#101820"/><rect x="201.548" y="117.395" width="18.491" height="8.146" fill="#231f20"/><rect x="221.37" y="116.535" width="20.207" height="9.865" rx=".406" ry=".406" fill="#f1f1f2" stroke="#d0d3d4" stroke-miterlimit="10" stroke-width=".336"/><rect x="222.228" y="117.395" width="18.491" height="8.146" fill="#101820"/><rect x="222.228" y="117.395" width="18.491" height="8.146" fill="#101820"/><rect x="222.228" y="117.395" width="18.491" height="8.146" fill="#b2292e"/><path d="M163.887,119.429c.25,0,.463.036.639.109s.318.169.428.289c.111.119.191.256.242.409.051.152.076.312.076.476,0,.161-.025.319-.076.474-.051.155-.131.293-.242.412-.109.12-.252.216-.428.289-.176.072-.389.109-.639.109h-.926v1.435h-.879v-4.002h1.805ZM163.645,121.312c.102,0,.199-.007.293-.022.092-.015.174-.043.246-.087.07-.042.127-.104.17-.182s.064-.182.064-.309-.021-.229-.064-.308c-.043-.079-.1-.14-.17-.183-.072-.043-.154-.071-.246-.087-.094-.015-.191-.022-.293-.022h-.684v1.199h.684Z" fill="#fff"/><path d="M165.753,121.354c.072-.188.172-.349.303-.481s.289-.235.471-.309c.184-.072.389-.109.617-.109s.434.037.619.109c.186.073.344.176.475.309.129.133.23.293.301.481.072.189.107.399.107.631s-.035.441-.107.628c-.07.187-.172.347-.301.479-.131.132-.289.234-.475.305-.186.071-.391.106-.619.106s-.434-.035-.617-.106c-.182-.07-.34-.173-.471-.305-.131-.133-.23-.293-.303-.479-.07-.187-.105-.396-.105-.628s.035-.441.105-.631ZM166.475,122.324c.023.11.062.21.115.297.055.088.127.158.217.211.09.052.201.078.336.078s.248-.026.34-.078c.09-.053.164-.123.217-.211.055-.087.094-.187.115-.297.023-.11.035-.223.035-.339,0-.115-.012-.229-.035-.342-.021-.112-.061-.211-.115-.297-.053-.086-.127-.156-.217-.21-.092-.055-.205-.082-.34-.082s-.246.027-.336.082c-.09.054-.162.124-.217.21-.053.086-.092.185-.115.297-.021.112-.033.227-.033.342,0,.116.012.229.033.339Z" fill="#fff"/><path d="M169.917,120.534v.538h.012c.037-.09.088-.173.15-.25.064-.076.137-.142.219-.196.082-.054.17-.096.264-.126.094-.029.191-.045.291-.045.053,0,.111.01.174.028v.74c-.037-.008-.082-.015-.135-.021-.051-.005-.102-.008-.15-.008-.146,0-.27.024-.369.072-.102.049-.184.115-.244.199-.062.084-.105.183-.133.295-.025.111-.039.233-.039.364v1.306h-.795v-2.897h.756Z" fill="#fff"/><path d="M172.932,120.534v.532h-.582v1.435c0,.135.021.225.066.27.045.044.135.066.27.066.045,0,.088,0,.129-.005s.08-.01.117-.018v.617c-.066.011-.143.019-.225.022-.082.003-.162.005-.24.005-.123,0-.24-.008-.35-.024-.111-.018-.209-.05-.293-.099-.084-.048-.15-.117-.197-.207-.049-.09-.074-.208-.074-.354v-1.709h-.482v-.532h.482v-.869h.797v.869h.582Z" fill="#fff"/><path d="M174.241,120.492c.076-.26.18-.469.311-.625.131-.157.283-.27.457-.337.174-.066.357-.101.553-.101.197,0,.383.034.557.101.174.067.326.18.459.337.133.156.238.365.314.625s.115.58.115.961c0,.393-.039.72-.115.983s-.182.474-.314.631c-.133.156-.285.269-.459.336s-.359.101-.557.101c-.195,0-.379-.033-.553-.101s-.326-.18-.457-.336c-.131-.157-.234-.367-.311-.631s-.115-.591-.115-.983c0-.381.039-.701.115-.961ZM174.932,121.859c.008.159.031.312.07.46.039.147.102.273.188.378s.209.157.371.157c.164,0,.289-.053.377-.157s.152-.23.191-.378c.039-.148.062-.301.07-.46s.01-.294.01-.406c0-.067,0-.148-.002-.244-.002-.095-.01-.193-.021-.294-.014-.101-.033-.201-.057-.3-.025-.099-.061-.188-.109-.267-.049-.078-.111-.142-.186-.19s-.166-.072-.273-.072c-.109,0-.199.023-.273.072-.072.049-.131.112-.178.19-.047.079-.084.168-.109.267-.027.099-.045.199-.057.3s-.018.199-.02.294c-.002.096-.004.177-.004.244,0,.112.004.247.012.406Z" fill="#fff"/><path d="M184.623,119.429c.25,0,.463.036.639.109s.318.169.429.289c.11.119.19.256.241.409.051.152.076.312.076.476,0,.161-.025.319-.076.474-.051.155-.131.293-.241.412-.11.12-.253.216-.429.289-.176.072-.389.109-.639.109h-.925v1.435h-.88v-4.002h1.805ZM184.381,121.312c.101,0,.198-.007.292-.022.093-.015.175-.043.246-.087.071-.042.128-.104.171-.182s.064-.182.064-.309-.021-.229-.064-.308c-.043-.079-.1-.14-.171-.183s-.153-.071-.246-.087c-.094-.015-.191-.022-.292-.022h-.684v1.199h.684Z" fill="#fff"/><path d="M186.489,121.354c.071-.188.172-.349.303-.481s.288-.235.471-.309c.184-.072.389-.109.616-.109s.435.037.62.109c.185.073.343.176.474.309.13.133.231.293.302.481.071.189.106.399.106.631s-.035.441-.106.628c-.07.187-.172.347-.302.479-.131.132-.289.234-.474.305-.186.071-.392.106-.62.106s-.433-.035-.616-.106c-.183-.07-.34-.173-.471-.305-.131-.133-.231-.293-.303-.479s-.106-.396-.106-.628.035-.441.106-.631ZM187.212,122.324c.022.11.062.21.115.297.055.088.126.158.216.211.09.052.202.078.336.078.135,0,.248-.026.34-.078.091-.053.164-.123.218-.211.055-.087.093-.187.115-.297s.034-.223.034-.339c0-.115-.012-.229-.034-.342s-.061-.211-.115-.297c-.054-.086-.127-.156-.218-.21-.092-.055-.205-.082-.34-.082-.134,0-.246.027-.336.082-.09.054-.161.124-.216.21-.054.086-.093.185-.115.297-.021.112-.033.227-.033.342,0,.116.012.229.033.339Z" fill="#fff"/><path d="M190.653,120.534v.538h.011c.037-.09.088-.173.151-.25.063-.076.137-.142.219-.196.082-.054.17-.096.264-.126.093-.029.19-.045.291-.045.053,0,.11.01.174.028v.74c-.037-.008-.082-.015-.135-.021-.052-.005-.103-.008-.151-.008-.146,0-.269.024-.369.072-.102.049-.183.115-.244.199s-.105.183-.132.295c-.026.111-.039.233-.039.364v1.306h-.796v-2.897h.757Z" fill="#fff"/><path d="M193.669,120.534v.532h-.583v1.435c0,.135.022.225.067.27.045.044.135.066.269.066.045,0,.088,0,.129-.005s.081-.01.118-.018v.617c-.067.011-.143.019-.225.022-.082.003-.162.005-.241.005-.123,0-.239-.008-.35-.024-.11-.018-.208-.05-.292-.099-.084-.048-.15-.117-.198-.207-.049-.09-.073-.208-.073-.354v-1.709h-.482v-.532h.482v-.869h.796v.869h.583Z" fill="#fff"/><path d="M196.145,123.431v-2.545h-.986v-.6c.138.004.271-.006.4-.03s.245-.067.348-.129c.103-.062.189-.144.261-.244.07-.101.117-.226.14-.376h.634v3.924h-.796Z" fill="#fff"/><path d="M205.357,119.429c.25,0,.463.036.639.109s.318.169.429.289c.11.119.19.256.241.409.051.152.076.312.076.476,0,.161-.025.319-.076.474-.051.155-.131.293-.241.412-.11.12-.253.216-.429.289-.176.072-.389.109-.639.109h-.925v1.435h-.88v-4.002h1.805ZM205.116,121.312c.101,0,.198-.007.292-.022.093-.015.175-.043.246-.087.071-.042.128-.104.171-.182s.064-.182.064-.309-.021-.229-.064-.308c-.043-.079-.1-.14-.171-.183s-.153-.071-.246-.087c-.094-.015-.191-.022-.292-.022h-.684v1.199h.684Z" fill="#fff"/><path d="M207.223,121.354c.071-.188.172-.349.303-.481s.288-.235.471-.309c.184-.072.389-.109.616-.109s.435.037.62.109c.185.073.343.176.474.309.13.133.231.293.302.481.071.189.106.399.106.631s-.035.441-.106.628c-.07.187-.172.347-.302.479-.131.132-.289.234-.474.305-.186.071-.392.106-.62.106s-.433-.035-.616-.106c-.183-.07-.34-.173-.471-.305-.131-.133-.231-.293-.303-.479s-.106-.396-.106-.628.035-.441.106-.631ZM207.946,122.324c.022.11.062.21.115.297.055.088.126.158.216.211.09.052.202.078.336.078.135,0,.248-.026.34-.078.091-.053.164-.123.218-.211.055-.087.093-.187.115-.297s.034-.223.034-.339c0-.115-.012-.229-.034-.342s-.061-.211-.115-.297c-.054-.086-.127-.156-.218-.21-.092-.055-.205-.082-.34-.082-.134,0-.246.027-.336.082-.09.054-.161.124-.216.21-.054.086-.093.185-.115.297-.021.112-.033.227-.033.342,0,.116.012.229.033.339Z" fill="#fff"/><path d="M211.387,120.534v.538h.011c.037-.09.088-.173.151-.25.063-.076.137-.142.219-.196.082-.054.17-.096.264-.126.093-.029.19-.045.291-.045.053,0,.11.01.174.028v.74c-.037-.008-.082-.015-.135-.021-.052-.005-.103-.008-.151-.008-.146,0-.269.024-.369.072-.102.049-.183.115-.244.199s-.105.183-.132.295c-.026.111-.039.233-.039.364v1.306h-.796v-2.897h.757Z" fill="#fff"/><path d="M214.403,120.534v.532h-.583v1.435c0,.135.022.225.067.27.045.044.135.066.269.066.045,0,.088,0,.129-.005s.081-.01.118-.018v.617c-.067.011-.143.019-.225.022-.082.003-.162.005-.241.005-.123,0-.239-.008-.35-.024-.11-.018-.208-.05-.292-.099-.084-.048-.15-.117-.198-.207-.049-.09-.073-.208-.073-.354v-1.709h-.482v-.532h.482v-.869h.796v.869h.583Z" fill="#fff"/><path d="M215.764,120.39c.06-.192.149-.36.269-.504.12-.144.271-.256.451-.337.182-.08.39-.12.625-.12.18,0,.351.028.513.084.163.057.306.137.429.241s.222.233.295.387c.072.153.108.325.108.516,0,.198-.031.368-.095.51-.063.143-.147.269-.252.379-.105.109-.224.21-.356.3-.133.089-.266.178-.4.266s-.266.183-.393.283-.239.219-.336.354h1.854v.684h-2.88c0-.229.032-.426.098-.595.065-.168.154-.318.267-.451.111-.132.243-.255.395-.366.151-.112.312-.227.479-.343.086-.06.178-.12.274-.182.098-.062.186-.13.267-.205.08-.074.147-.158.201-.252.055-.093.081-.199.081-.319,0-.19-.055-.339-.165-.445s-.251-.16-.423-.16c-.116,0-.214.027-.294.081-.081.055-.146.126-.193.214-.049.087-.084.185-.104.291s-.03.212-.03.316h-.763c-.007-.224.019-.433.079-.625Z" fill="#fff"/><path d="M225.99,119.429c.25,0,.463.036.639.109s.318.169.429.289c.11.119.19.256.241.409.051.152.076.312.076.476,0,.161-.025.319-.076.474-.051.155-.131.293-.241.412-.11.12-.253.216-.429.289-.176.072-.389.109-.639.109h-.925v1.435h-.88v-4.002h1.805ZM225.749,121.312c.101,0,.198-.007.292-.022.093-.015.175-.043.246-.087.071-.042.128-.104.171-.182s.064-.182.064-.309-.021-.229-.064-.308c-.043-.079-.1-.14-.171-.183s-.153-.071-.246-.087c-.094-.015-.191-.022-.292-.022h-.684v1.199h.684Z" fill="#fff"/><path d="M227.856,121.354c.071-.188.172-.349.303-.481s.288-.235.471-.309c.184-.072.389-.109.616-.109s.435.037.62.109c.185.073.343.176.474.309.13.133.231.293.302.481.071.189.106.399.106.631s-.035.441-.106.628c-.07.187-.172.347-.302.479-.131.132-.289.234-.474.305-.186.071-.392.106-.62.106s-.433-.035-.616-.106c-.183-.07-.34-.173-.471-.305-.131-.133-.231-.293-.303-.479s-.106-.396-.106-.628.035-.441.106-.631ZM228.579,122.324c.022.11.062.21.115.297.055.088.126.158.216.211.09.052.202.078.336.078.135,0,.248-.026.34-.078.091-.053.164-.123.218-.211.055-.087.093-.187.115-.297s.034-.223.034-.339c0-.115-.012-.229-.034-.342s-.061-.211-.115-.297c-.054-.086-.127-.156-.218-.21-.092-.055-.205-.082-.34-.082-.134,0-.246.027-.336.082-.09.054-.161.124-.216.21-.054.086-.093.185-.115.297-.021.112-.033.227-.033.342,0,.116.012.229.033.339Z" fill="#fff"/><path d="M232.02,120.534v.538h.011c.037-.09.088-.173.151-.25.063-.076.137-.142.219-.196.082-.054.17-.096.264-.126.093-.029.19-.045.291-.045.053,0,.11.01.174.028v.74c-.037-.008-.082-.015-.135-.021-.052-.005-.103-.008-.151-.008-.146,0-.269.024-.369.072-.102.049-.183.115-.244.199s-.105.183-.132.295c-.026.111-.039.233-.039.364v1.306h-.796v-2.897h.757Z" fill="#fff"/><path d="M235.036,120.534v.532h-.583v1.435c0,.135.022.225.067.27.045.044.135.066.269.066.045,0,.088,0,.129-.005s.081-.01.118-.018v.617c-.067.011-.143.019-.225.022-.082.003-.162.005-.241.005-.123,0-.239-.008-.35-.024-.11-.018-.208-.05-.292-.099-.084-.048-.15-.117-.198-.207-.049-.09-.073-.208-.073-.354v-1.709h-.482v-.532h.482v-.869h.796v.869h.583Z" fill="#fff"/><path d="M237.664,121.095c.097-.008.188-.029.271-.064.084-.036.153-.087.207-.154.055-.067.082-.157.082-.27,0-.168-.057-.297-.169-.387-.111-.09-.24-.134-.387-.134-.201,0-.354.066-.456.198-.104.133-.152.3-.148.502h-.757c.007-.202.044-.386.109-.552.065-.167.156-.31.274-.429.118-.12.259-.212.423-.277.165-.065.348-.099.55-.099.156,0,.313.023.471.07.156.047.298.116.423.21s.228.207.306.342.117.29.117.465c0,.191-.046.359-.137.505-.092.146-.229.245-.412.297v.012c.217.048.387.153.51.313.123.161.186.354.186.577,0,.206-.041.389-.121.55-.08.16-.188.295-.322.403s-.289.19-.465.246c-.176.057-.358.084-.55.084-.22,0-.421-.031-.602-.095-.182-.063-.336-.156-.463-.277-.127-.122-.226-.271-.294-.446-.069-.175-.103-.377-.099-.604h.757c.004.104.021.204.051.3.029.095.072.177.129.246.056.069.126.124.21.166.084.041.184.062.3.062.18,0,.331-.056.454-.166.123-.109.185-.261.185-.451,0-.149-.028-.263-.087-.342-.058-.078-.132-.135-.221-.171-.09-.035-.188-.056-.295-.062s-.208-.009-.306-.009v-.56c.086.007.178.007.275,0Z" fill="#fff"/><polyline points="30.094 117.356 30.094 74.384 105.142 74.384 105.142 49.583" fill="none" stroke="#fff" stroke-linejoin="round" stroke-width="3.5"/><polyline points="30.094 117.356 30.094 74.384 105.142 74.384 105.142 49.583" fill="none" stroke="#005cb9" stroke-linejoin="round" stroke-width="1.575"/><polyline points="190.531 117.415 190.531 90.458 125.579 90.458 125.579 49.563" fill="none" stroke="#fff" stroke-linejoin="round" stroke-width="3.5"/><polyline points="190.531 117.415 190.531 90.458 125.579 90.458 125.579 49.563" fill="none" stroke="#b2292e" stroke-linejoin="round" stroke-width="1.575"/><polyline points="172.073 49.561 172.073 81.903 71.349 81.903 71.349 117.368" fill="none" stroke="#fff" stroke-linejoin="round" stroke-width="3.5"/><polyline points="172.073 49.561 172.073 81.903 71.349 81.903 71.349 117.368" fill="none" stroke="#005cb9" stroke-linejoin="round" stroke-width="1.575"/><polyline points="231.239 117.366 231.239 81.903 192.54 81.903 192.54 49.558" fill="none" stroke="#fff" stroke-linejoin="round" stroke-width="3.5"/><polyline points="231.239 117.366 231.239 81.903 192.54 81.903 192.54 49.558" fill="none" stroke="#b2292e" stroke-linejoin="round" stroke-width="1.575"/><path d="M58.307,140.701c-.047-.183-.111-.35-.193-.502s-.188-.284-.317-.396c-.129-.111-.28-.197-.453-.259-.173-.062-.374-.093-.603-.093-.334,0-.623.067-.867.202-.243.135-.441.315-.594.541-.152.227-.266.483-.339.771s-.11.581-.11.88.037.593.11.88c.073.288.187.544.339.771.152.226.351.406.594.541.244.135.533.202.867.202.246,0,.463-.042.65-.128.188-.085.35-.202.484-.352s.24-.324.316-.523.127-.414.15-.643h1.073c-.023.375-.104.719-.241,1.029-.139.312-.324.58-.56.806-.234.226-.511.4-.827.523s-.666.185-1.047.185c-.47,0-.891-.087-1.264-.26-.372-.173-.688-.409-.945-.708s-.456-.648-.594-1.047c-.139-.399-.207-.824-.207-1.276,0-.445.068-.868.207-1.268.138-.398.336-.748.594-1.047s.573-.537.945-.713c.373-.176.794-.264,1.264-.264.352,0,.684.048.994.145.311.098.586.238.822.423.238.185.43.409.577.673.146.265.237.566.272.907h-1.1Z" fill="#221f1f"/><path d="M62.364,145.109c-.363,0-.688-.061-.973-.181s-.525-.285-.722-.497c-.196-.211-.347-.463-.448-.757-.104-.293-.154-.615-.154-.968,0-.346.051-.666.154-.959.102-.293.252-.546.448-.757s.437-.377.722-.497.609-.181.973-.181.688.061.973.181c.284.12.524.286.721.497.197.211.347.464.449.757s.154.613.154.959c0,.353-.052.675-.154.968-.103.294-.252.546-.449.757-.196.212-.437.377-.721.497-.285.12-.609.181-.973.181ZM62.364,144.317c.223,0,.416-.047.58-.141s.3-.217.405-.37c.105-.152.184-.323.233-.515.05-.19.074-.386.074-.585,0-.193-.024-.387-.074-.581-.05-.193-.128-.365-.233-.515s-.241-.271-.405-.365-.357-.141-.58-.141-.417.047-.581.141-.3.216-.405.365-.184.321-.232.515c-.051.194-.075.388-.075.581,0,.199.024.395.075.585.049.191.127.362.232.515.105.153.241.276.405.37s.358.141.581.141Z" fill="#221f1f"/><path d="M65.497,140.436h.95v.669l.018.018c.152-.252.353-.45.599-.594s.52-.216.818-.216c.498,0,.892.129,1.179.388.288.258.432.645.432,1.161v3.124h-1.003v-2.86c-.012-.357-.088-.617-.229-.778-.141-.161-.36-.242-.659-.242-.171,0-.323.031-.458.093-.136.062-.249.146-.343.255-.095.108-.168.236-.221.383s-.079.302-.079.467v2.684h-1.003v-4.55Z" fill="#221f1f"/><path d="M70.09,140.436h.756v-1.364h1.004v1.364h.906v.748h-.906v2.429c0,.105.004.197.014.273.008.076.029.141.061.193.033.053.081.092.146.118.064.027.153.04.265.04.07,0,.141,0,.211-.004s.141-.014.211-.031v.774c-.111.012-.221.023-.326.035s-.214.018-.325.018c-.264,0-.477-.025-.638-.075-.162-.05-.287-.123-.379-.22-.091-.097-.152-.219-.185-.365s-.052-.313-.058-.501v-2.685h-.756v-.748Z" fill="#221f1f"/><path d="M73.477,140.436h.942v.88h.018c.029-.123.087-.243.171-.36.086-.117.188-.225.309-.321s.254-.175.4-.233.297-.088.449-.088c.117,0,.197.003.242.009.043.006.089.012.136.018v.968c-.07-.012-.142-.021-.216-.03-.073-.009-.145-.014-.215-.014-.171,0-.33.034-.48.102-.149.067-.279.167-.391.299-.112.132-.2.295-.265.488-.064.194-.097.417-.097.669v2.165h-1.004v-4.55Z" fill="#221f1f"/><path d="M78.503,145.109c-.363,0-.688-.061-.973-.181s-.525-.285-.722-.497c-.196-.211-.347-.463-.448-.757-.104-.293-.154-.615-.154-.968,0-.346.051-.666.154-.959.102-.293.252-.546.448-.757s.437-.377.722-.497.609-.181.973-.181.688.061.973.181c.284.12.524.286.721.497.197.211.347.464.449.757s.154.613.154.959c0,.353-.052.675-.154.968-.103.294-.252.546-.449.757-.196.212-.437.377-.721.497-.285.12-.609.181-.973.181ZM78.503,144.317c.223,0,.416-.047.58-.141s.3-.217.405-.37c.105-.152.184-.323.233-.515.05-.19.074-.386.074-.585,0-.193-.024-.387-.074-.581-.05-.193-.128-.365-.233-.515s-.241-.271-.405-.365-.357-.141-.58-.141-.417.047-.581.141-.3.216-.405.365-.184.321-.232.515c-.051.194-.075.388-.075.581,0,.199.024.395.075.585.049.191.127.362.232.515.105.153.241.276.405.37s.358.141.581.141Z" fill="#221f1f"/><path d="M81.661,138.703h1.004v6.283h-1.004v-6.283Z" fill="#221f1f"/><path d="M83.782,138.703h1.004v6.283h-1.004v-6.283Z" fill="#221f1f"/><path d="M86.66,142.97c0,.177.024.347.075.511.049.164.125.308.225.432.1.123.225.221.378.295.152.073.335.109.546.109.293,0,.529-.062.708-.189.179-.126.312-.314.4-.567h.95c-.053.246-.144.467-.272.66s-.284.356-.466.488c-.183.132-.387.232-.612.3s-.462.101-.708.101c-.358,0-.675-.059-.951-.176-.275-.117-.508-.281-.699-.493-.19-.211-.334-.463-.432-.757-.096-.293-.145-.615-.145-.968,0-.322.051-.629.154-.92.102-.29.249-.545.439-.766.191-.22.421-.394.691-.523.27-.129.574-.193.914-.193.358,0,.68.075.965.225.283.149.52.348.708.594.188.246.323.529.409.85.085.319.107.649.066.989h-3.345ZM89.001,142.311c-.012-.159-.045-.312-.102-.458-.055-.146-.131-.274-.229-.383-.097-.108-.214-.196-.352-.264-.139-.067-.292-.102-.463-.102-.176,0-.336.031-.479.093-.145.062-.268.146-.37.255s-.185.236-.246.383-.096.305-.102.476h2.341Z" fill="#221f1f"/><path d="M90.77,140.436h.941v.88h.018c.029-.123.086-.243.172-.36.084-.117.188-.225.308-.321s.254-.175.4-.233.296-.088.448-.088c.117,0,.199.003.242.009.045.006.09.012.137.018v.968c-.07-.012-.143-.021-.215-.03-.074-.009-.146-.014-.217-.014-.17,0-.33.034-.479.102-.15.067-.281.167-.393.299s-.199.295-.264.488c-.064.194-.097.417-.097.669v2.165h-1.003v-4.55Z" fill="#221f1f"/><path d="M98.135,138.703h1.17l2.42,6.283h-1.18l-.589-1.663h-2.509l-.589,1.663h-1.136l2.412-6.283ZM97.748,142.487h1.919l-.942-2.702h-.026l-.95,2.702Z" fill="#221f1f"/><path d="M197.921,140.701c-.047-.183-.111-.35-.193-.502s-.188-.284-.317-.396c-.129-.111-.279-.197-.453-.259-.172-.062-.373-.093-.602-.093-.335,0-.624.067-.867.202-.244.135-.441.315-.594.541-.153.227-.266.483-.34.771-.072.287-.109.581-.109.88s.037.593.109.88c.074.288.187.544.34.771.152.226.35.406.594.541.243.135.532.202.867.202.246,0,.463-.042.65-.128.188-.085.35-.202.484-.352s.24-.324.316-.523.126-.414.15-.643h1.072c-.023.375-.104.719-.241,1.029-.138.312-.324.58-.56.806-.234.226-.51.4-.826.523-.317.123-.666.185-1.047.185-.471,0-.891-.087-1.264-.26s-.688-.409-.945-.708c-.259-.299-.457-.648-.595-1.047-.138-.399-.206-.824-.206-1.276,0-.445.068-.868.206-1.268.138-.398.336-.748.595-1.047.258-.299.572-.537.945-.713s.793-.264,1.264-.264c.352,0,.683.048.994.145.311.098.585.238.822.423.238.185.43.409.576.673.146.265.238.566.273.907h-1.101Z" fill="#221f1f"/><path d="M201.979,145.109c-.364,0-.688-.061-.973-.181-.285-.12-.525-.285-.723-.497-.195-.211-.346-.463-.448-.757-.103-.293-.153-.615-.153-.968,0-.346.051-.666.153-.959s.253-.546.448-.757c.197-.211.438-.377.723-.497.284-.12.608-.181.973-.181s.688.061.972.181.524.286.722.497c.196.211.346.464.449.757.102.293.153.613.153.959,0,.353-.052.675-.153.968-.104.294-.253.546-.449.757-.197.212-.438.377-.722.497s-.608.181-.972.181ZM201.979,144.317c.223,0,.416-.047.58-.141s.299-.217.404-.37c.105-.152.184-.323.234-.515.049-.19.074-.386.074-.585,0-.193-.025-.387-.074-.581-.051-.193-.129-.365-.234-.515s-.24-.271-.404-.365-.357-.141-.58-.141-.418.047-.582.141-.299.216-.404.365-.184.321-.232.515c-.051.194-.076.388-.076.581,0,.199.025.395.076.585.049.191.127.362.232.515.105.153.24.276.404.37s.358.141.582.141Z" fill="#221f1f"/><path d="M205.111,140.436h.95v.669l.018.018c.152-.252.353-.45.599-.594.247-.144.52-.216.818-.216.499,0,.892.129,1.179.388.288.258.432.645.432,1.161v3.124h-1.003v-2.86c-.012-.357-.088-.617-.229-.778-.141-.161-.36-.242-.659-.242-.171,0-.323.031-.458.093s-.249.146-.343.255c-.095.108-.167.236-.22.383s-.08.302-.08.467v2.684h-1.003v-4.55Z" fill="#221f1f"/><path d="M209.705,140.436h.757v-1.364h1.004v1.364h.906v.748h-.906v2.429c0,.105.004.197.013.273s.029.141.062.193.08.092.145.118c.064.027.153.04.265.04.07,0,.141,0,.211-.004.071-.003.142-.014.212-.031v.774c-.111.012-.221.023-.326.035s-.215.018-.326.018c-.264,0-.477-.025-.637-.075-.162-.05-.288-.123-.379-.22-.092-.097-.152-.219-.186-.365-.031-.146-.051-.313-.057-.501v-2.685h-.757v-.748Z" fill="#221f1f"/><path d="M213.092,140.436h.941v.88h.018c.029-.123.087-.243.172-.36s.188-.225.309-.321c.119-.097.254-.175.4-.233s.296-.088.448-.088c.117,0,.198.003.242.009s.089.012.136.018v.968c-.07-.012-.142-.021-.215-.03-.074-.009-.146-.014-.216-.014-.171,0-.33.034-.479.102-.15.067-.28.167-.392.299-.112.132-.2.295-.265.488-.064.194-.096.417-.096.669v2.165h-1.004v-4.55Z" fill="#221f1f"/><path d="M218.118,145.109c-.364,0-.688-.061-.973-.181-.285-.12-.525-.285-.723-.497-.195-.211-.346-.463-.448-.757-.103-.293-.153-.615-.153-.968,0-.346.051-.666.153-.959s.253-.546.448-.757c.197-.211.438-.377.723-.497.284-.12.608-.181.973-.181s.688.061.972.181.524.286.722.497c.196.211.346.464.449.757.102.293.153.613.153.959,0,.353-.052.675-.153.968-.104.294-.253.546-.449.757-.197.212-.438.377-.722.497s-.608.181-.972.181ZM218.118,144.317c.223,0,.416-.047.58-.141s.299-.217.404-.37c.105-.152.184-.323.234-.515.049-.19.074-.386.074-.585,0-.193-.025-.387-.074-.581-.051-.193-.129-.365-.234-.515s-.24-.271-.404-.365-.357-.141-.58-.141-.418.047-.582.141-.299.216-.404.365-.184.321-.232.515c-.051.194-.076.388-.076.581,0,.199.025.395.076.585.049.191.127.362.232.515.105.153.24.276.404.37s.358.141.582.141Z" fill="#221f1f"/><path d="M221.276,138.703h1.004v6.283h-1.004v-6.283Z" fill="#221f1f"/><path d="M223.397,138.703h1.004v6.283h-1.004v-6.283Z" fill="#221f1f"/><path d="M226.274,142.97c0,.177.025.347.076.511.049.164.124.308.224.432.1.123.226.221.378.295.152.073.335.109.546.109.294,0,.53-.062.708-.189.18-.126.312-.314.4-.567h.951c-.053.246-.145.467-.273.66s-.284.356-.466.488c-.183.132-.386.232-.612.3-.225.067-.461.101-.708.101-.358,0-.675-.059-.95-.176s-.509-.281-.699-.493c-.191-.211-.335-.463-.432-.757-.097-.293-.145-.615-.145-.968,0-.322.051-.629.153-.92.103-.29.249-.545.44-.766.19-.22.42-.394.69-.523.271-.129.575-.193.915-.193.357,0,.68.075.964.225s.521.348.708.594.324.529.41.85c.084.319.106.649.065.989h-3.345ZM228.616,142.311c-.012-.159-.046-.312-.102-.458s-.132-.274-.229-.383c-.098-.108-.215-.196-.352-.264-.139-.067-.293-.102-.463-.102-.176,0-.336.031-.479.093s-.267.146-.37.255c-.102.108-.184.236-.246.383-.062.146-.096.305-.102.476h2.342Z" fill="#221f1f"/><path d="M230.383,140.436h.942v.88h.018c.029-.123.087-.243.171-.36.086-.117.188-.225.309-.321s.254-.175.4-.233.297-.088.449-.088c.117,0,.197.003.242.009.043.006.089.012.136.018v.968c-.07-.012-.142-.021-.216-.03-.073-.009-.145-.014-.215-.014-.171,0-.33.034-.48.102-.149.067-.279.167-.391.299-.112.132-.2.295-.265.488-.064.194-.097.417-.097.669v2.165h-1.004v-4.55Z" fill="#221f1f"/><path d="M236.069,138.703h3.053c.564,0,1.016.129,1.355.387.341.259.511.648.511,1.171,0,.316-.077.588-.233.814-.155.226-.377.4-.664.523v.018c.387.082.681.266.88.55s.3.641.3,1.069c0,.246-.045.477-.133.69-.088.215-.226.399-.413.555-.188.155-.429.278-.722.369-.293.092-.643.137-1.047.137h-2.887v-6.283ZM237.169,141.334h1.795c.265,0,.484-.074.66-.224.176-.15.264-.365.264-.647,0-.316-.078-.539-.236-.669-.159-.129-.388-.193-.688-.193h-1.795v1.733ZM237.169,144.089h1.945c.334,0,.594-.087.778-.26s.277-.418.277-.734c0-.312-.093-.551-.277-.718s-.444-.251-.778-.251h-1.945v1.963Z" fill="#221f1f"/><rect x="165.88" y="98.79" width="13.854" height="1.787" fill="#fff"/></svg>