<svg id="Layer_1" data-name="Layer 1" xmlns="http://www.w3.org/2000/svg" viewBox="0 0 70.67 120.99"><defs><style>.cls-1{fill:#d1d3d4;}.cls-2{fill:#414042;}.cls-3{fill:#58595b;}.cls-4{fill:#939598;}.cls-5,.cls-6,.cls-7{fill:none;stroke:#f3a71d;stroke-miterlimit:10;}.cls-6{stroke-dasharray:1.97 1.97;}.cls-7{stroke-dasharray:2.4 2.4;}.cls-8,.cls-9{fill:#f3a71d;}.cls-8{opacity:0.15;}.cls-9{font-size:10.84px;font-family:Gotham-Bold, Gotham;font-weight:700;}</style></defs><title>2U_Rackspace_Source</title><rect class="cls-1" x="59.84" y="111.3" width="0.28" height="2.99"/><rect class="cls-1" x="54.06" y="111.3" width="0.28" height="2.99"/><rect class="cls-2" x="54.34" y="108.74" width="5.5" height="8.14" rx="0.39"/><circle class="cls-2" cx="54.4" cy="112.81" r="4.07"/><path class="cls-3" d="M54.4,116.35a3.54,3.54,0,1,1,3.54-3.54A3.54,3.54,0,0,1,54.4,116.35Z"/><circle class="cls-1" cx="54.4" cy="112.8" r="1.5"/><circle class="cls-2" cx="10.49" cy="112.81" r="4.07"/><path class="cls-3" d="M10.49,116.35A3.54,3.54,0,1,1,14,112.81,3.55,3.55,0,0,1,10.49,116.35Z"/><circle class="cls-1" cx="10.49" cy="112.8" r="1.5"/><rect class="cls-1" x="15.92" y="111.3" width="0.28" height="2.99"/><rect class="cls-1" x="10.15" y="111.3" width="0.28" height="2.99"/><rect class="cls-2" x="10.43" y="108.74" width="5.5" height="8.14" rx="0.39"/><path class="cls-3" d="M3,2.68V111.19H66.64V2.68ZM60.5,103.2H9.17V10.67H60.5Z"/><rect class="cls-3" x="63.88" y="111.19" width="2.09" height="5.69"/><rect class="cls-3" x="63.21" y="115.34" width="3.43" height="1.55"/><rect class="cls-3" x="3.7" y="111.19" width="2.09" height="5.69"/><rect class="cls-3" x="3.03" y="115.34" width="3.43" height="1.55"/><rect class="cls-4" x="58.47" y="10.67" width="2.02" height="92.53"/><rect class="cls-4" x="9.17" y="10.67" width="2.02" height="92.53"/><polyline class="cls-5" points="60.5 60.54 60.5 61.54 59.5 61.54"/><line class="cls-6" x1="57.53" y1="61.54" x2="11.15" y2="61.54"/><polyline class="cls-5" points="10.17 61.54 9.17 61.54 9.17 60.54"/><line class="cls-7" x1="9.17" y1="58.14" x2="9.17" y2="54.54"/><polyline class="cls-5" points="9.17 53.34 9.17 52.34 10.17 52.34"/><line class="cls-6" x1="12.14" y1="52.34" x2="58.51" y2="52.34"/><polyline class="cls-5" points="59.5 52.34 60.5 52.34 60.5 53.34"/><line class="cls-7" x1="60.5" y1="55.74" x2="60.5" y2="59.34"/><rect class="cls-8" x="9.17" y="52.34" width="51.33" height="9.2"/><text class="cls-9" transform="translate(27.36 49.12)">2U</text></svg>