<svg xmlns="http://www.w3.org/2000/svg" viewBox="0 0 168.26 137.29"><defs><style>.cls-1{fill:#fff;}.cls-2{fill:#d0d2d3;}.cls-3{fill:#404041;}.cls-4{fill:#58595b;}.cls-5{fill:#929497;}.cls-6,.cls-7,.cls-8{fill:none;stroke:#f2a61e;stroke-miterlimit:10;}.cls-7{stroke-dasharray:1.97 1.97;}.cls-8{stroke-dasharray:1.82 1.82;}.cls-10,.cls-9{fill:#f2a61e;}.cls-9{opacity:0.15;}.cls-10{font-size:10.84px;font-family:Gotham-Bold, Gotham;font-weight:700;}</style></defs><g id="Rulers"><rect class="cls-1" width="168.26" height="137.29"/><rect class="cls-2" x="109.14" y="120.16" width="0.28" height="2.99"/><rect class="cls-2" x="103.36" y="120.16" width="0.28" height="2.99"/><rect class="cls-3" x="103.64" y="117.6" width="5.5" height="8.14" rx="0.39"/><circle class="cls-3" cx="103.7" cy="121.67" r="4.07"/><path class="cls-4" d="M103.7,125.21a3.54,3.54,0,1,1,3.54-3.54A3.54,3.54,0,0,1,103.7,125.21Z"/><circle class="cls-2" cx="103.7" cy="121.66" r="1.5"/><circle class="cls-3" cx="59.79" cy="121.67" r="4.07"/><path class="cls-4" d="M59.79,125.21a3.54,3.54,0,1,1,3.53-3.54A3.55,3.55,0,0,1,59.79,125.21Z"/><circle class="cls-2" cx="59.79" cy="121.66" r="1.5"/><rect class="cls-2" x="65.22" y="120.16" width="0.28" height="2.99"/><rect class="cls-2" x="59.45" y="120.16" width="0.28" height="2.99"/><rect class="cls-3" x="59.73" y="117.6" width="5.5" height="8.14" rx="0.39"/><path class="cls-4" d="M52.33,11.54V120.05h63.61V11.54ZM109.8,112.06H58.46V19.54H109.8Z"/><rect class="cls-4" x="113.18" y="120.05" width="2.09" height="5.69"/><rect class="cls-4" x="112.51" y="124.2" width="3.43" height="1.55"/><rect class="cls-4" x="52.99" y="120.05" width="2.09" height="5.69"/><rect class="cls-4" x="52.33" y="124.2" width="3.43" height="1.55"/><rect class="cls-5" x="107.77" y="19.54" width="2.02" height="92.53"/><rect class="cls-5" x="58.46" y="19.54" width="2.02" height="92.53"/><polyline class="cls-6" points="109.8 74 109.8 75 108.8 75"/><line class="cls-7" x1="106.82" y1="75" x2="60.45" y2="75"/><polyline class="cls-6" points="59.46 75 58.46 75 58.46 74"/><line class="cls-8" x1="58.46" y1="72.17" x2="58.46" y2="58.51"/><polyline class="cls-6" points="58.46 57.6 58.46 56.6 59.46 56.6"/><line class="cls-7" x1="61.44" y1="56.6" x2="107.81" y2="56.6"/><polyline class="cls-6" points="108.8 56.6 109.8 56.6 109.8 57.6"/><line class="cls-8" x1="109.8" y1="59.42" x2="109.8" y2="73.08"/><rect class="cls-9" x="58.46" y="56.6" width="51.33" height="18.39"/><text class="cls-10" transform="translate(76.3 53.36)">4U</text></g></svg>