<?xml version="1.0" encoding="UTF-8"?>
<!DOCTYPE svg PUBLIC "-//W3C//DTD SVG 1.1//EN" "http://www.w3.org/Graphics/SVG/1.1/DTD/svg11.dtd">
<!-- Creator: CorelDRAW X6 -->
<svg xmlns="http://www.w3.org/2000/svg" xml:space="preserve" width="6in" height="6.1in" version="1.1" style="shape-rendering:geometricPrecision; text-rendering:geometricPrecision; image-rendering:optimizeQuality; fill-rule:evenodd; clip-rule:evenodd"
viewBox="0 0 6000 6100"
 xmlns:xlink="http://www.w3.org/1999/xlink">
 <defs>
  <style type="text/css">
   <![CDATA[
    .str1 {stroke:#373435;stroke-width:6.94488}
    .str0 {stroke:black;stroke-width:6.94488;stroke-linejoin:bevel}
    .str3 {stroke:#373435;stroke-width:13.8858}
    .str2 {stroke:#373435;stroke-width:13.8898}
    .fil2 {fill:none}
    .fil0 {fill:none;fill-rule:nonzero}
    .fil3 {fill:#FEFEFE}
    .fil1 {fill:#373435;fill-rule:nonzero}
   ]]>
  </style>
 </defs>
 <g id="Layer_x0020_1">
  <metadata id="CorelCorpID_0Corel-Layer"/>
  <polyline class="fil0 str0" points="619,2264 619,2264 619,2265 619,2265 620,2265 621,2265 "/>
  <line class="fil0 str0" x1="824" y1="2929" x2="824" y2= "2867" />
  <line class="fil0 str0" x1="660" y1="2290" x2="660" y2= "2287" />
  <line class="fil0 str0" x1="655" y1="2287" x2="655" y2= "2284" />
  <line class="fil0 str0" x1="622" y1="2746" x2="622" y2= "2283" />
  <line class="fil0 str0" x1="611" y1="1288" x2="611" y2= "2254" />
  <line class="fil0 str0" x1="609" y1="2731" x2="609" y2= "2264" />
  <polyline class="fil0 str0" points="824,2867 824,2871 825,2877 827,2884 830,2890 834,2897 840,2903 846,2908 853,2913 860,2918 "/>
  <polyline class="fil0 str0" points="824,2929 824,2932 825,2939 827,2945 830,2952 834,2958 840,2964 846,2969 853,2975 860,2980 "/>
  <line class="fil0 str0" x1="1144" y1="1552" x2="1144" y2= "1550" />
  <line class="fil0 str0" x1="1173" y1="2250" x2="1173" y2= "2252" />
  <line class="fil0 str0" x1="1144" y1="1654" x2="1144" y2= "1652" />
  <line class="fil0 str0" x1="1173" y1="2352" x2="1173" y2= "2354" />
  <line class="fil0 str0" x1="1144" y1="1756" x2="1144" y2= "1754" />
  <line class="fil0 str0" x1="1144" y1="1838" x2="1144" y2= "1835" />
  <line class="fil0 str0" x1="1144" y1="1940" x2="1144" y2= "1938" />
  <line class="fil0 str0" x1="1144" y1="2042" x2="1144" y2= "2040" />
  <line class="fil0 str0" x1="1144" y1="2124" x2="1144" y2= "2121" />
  <line class="fil0 str0" x1="1144" y1="2226" x2="1144" y2= "2223" />
  <line class="fil0 str0" x1="1144" y1="2328" x2="1144" y2= "2325" />
  <polyline class="fil0 str0" points="609,2264 609,2265 610,2267 612,2269 615,2270 618,2270 621,2270 625,2270 "/>
  <polyline class="fil0 str0" points="609,2731 609,2732 610,2734 612,2735 615,2737 618,2737 621,2737 622,2737 "/>
  <line class="fil0 str0" x1="1145" y1="1761" x2="1144" y2= "1756" />
  <line class="fil0 str0" x1="1145" y1="1843" x2="1144" y2= "1838" />
  <line class="fil0 str0" x1="1145" y1="1945" x2="1144" y2= "1940" />
  <line class="fil0 str0" x1="1145" y1="2047" x2="1144" y2= "2042" />
  <line class="fil0 str0" x1="1145" y1="2128" x2="1144" y2= "2124" />
  <line class="fil0 str0" x1="1145" y1="2230" x2="1144" y2= "2226" />
  <line class="fil0 str0" x1="1145" y1="2333" x2="1144" y2= "2328" />
  <polyline class="fil0 str0" points="1912,3251 1911,3246 1910,3242 "/>
  <line class="fil0 str0" x1="1170" y1="1278" x2="1173" y2= "1291" />
  <line class="fil0 str0" x1="1170" y1="1564" x2="1173" y2= "1576" />
  <line class="fil0 str0" x1="1170" y1="1850" x2="1173" y2= "1862" />
  <line class="fil0 str0" x1="1170" y1="2136" x2="1173" y2= "2148" />
  <line class="fil0 str0" x1="2758" y1="3731" x2="2757" y2= "3727" />
  <line class="fil0 str0" x1="2757" y1="3727" x2="2755" y2= "3723" />
  <line class="fil0 str0" x1="3801" y1="3263" x2="3800" y2= "3261" />
  <line class="fil0 str0" x1="3800" y1="2514" x2="3798" y2= "2512" />
  <line class="fil0 str0" x1="3800" y1="3261" x2="3798" y2= "3258" />
  <polyline class="fil0 str0" points="3798,2512 3797,2510 3795,2508 3794,2506 3792,2504 3790,2502 3788,2500 3787,2499 "/>
  <polyline class="fil0 str0" points="3798,3258 3797,3256 3795,3254 3794,3252 3792,3250 3790,3248 3788,3246 3787,3246 "/>
  <polyline class="fil0 str0" points="622,2746 622,2748 622,2750 623,2751 624,2752 "/>
  <polyline class="fil0 str0" points="611,2254 612,2257 613,2259 "/>
  <line class="fil0 str0" x1="1706" y1="3372" x2="1707" y2= "3377" />
  <line class="fil0 str0" x1="1910" y1="3241" x2="1908" y2= "3237" />
  <line class="fil0 str0" x1="1908" y1="3237" x2="1906" y2= "3233" />
  <line class="fil0 str0" x1="2755" y1="3722" x2="2753" y2= "3718" />
  <line class="fil0 str0" x1="1907" y1="3233" x2="1905" y2= "3228" />
  <polyline class="fil0 str0" points="2744,3723 2742,3719 2739,3715 2737,3711 2734,3707 2731,3703 2729,3699 2725,3696 2722,3692 "/>
  <line class="fil0 str0" x1="2753" y1="3718" x2="2751" y2= "3714" />
  <line class="fil0 str0" x1="2751" y1="3714" x2="2749" y2= "3710" />
  <polyline class="fil0 str0" points="2743,3718 2741,3714 2738,3710 2735,3706 2733,3702 2730,3698 2726,3695 2723,3691 2720,3688 2717,3685 2713,3682 2710,3680 2706,3678 2703,3676 2699,3674 2696,3673 2693,3672 2689,3672 2686,3671 2683,3671 2680,3672 2677,3672 2674,3673 2672,3674 "/>
  <line class="fil0 str0" x1="1201" y1="1243" x2="1204" y2= "1243" />
  <line class="fil0 str0" x1="1191" y1="1256" x2="1194" y2= "1256" />
  <polyline class="fil0 str0" points="1895,3233 1893,3229 1891,3225 1888,3221 1886,3217 1883,3213 1880,3209 1877,3206 1874,3202 "/>
  <line class="fil0 str0" x1="1904" y1="3228" x2="1902" y2= "3224" />
  <line class="fil0 str0" x1="1902" y1="3224" x2="1900" y2= "3220" />
  <polyline class="fil0 str0" points="1895,3229 1892,3224 1890,3220 1887,3216 1884,3212 1881,3208 1878,3205 1875,3201 1871,3198 1868,3195 1865,3192 1861,3190 1858,3188 1854,3186 1851,3185 1847,3183 1844,3182 1841,3182 1838,3181 1834,3181 1831,3182 1829,3182 1826,3183 1823,3185 "/>
  <line class="fil0 str0" x1="1164" y1="1269" x2="1170" y2= "1278" />
  <line class="fil0 str0" x1="1164" y1="1555" x2="1170" y2= "1564" />
  <line class="fil0 str0" x1="1164" y1="1840" x2="1170" y2= "1850" />
  <line class="fil0 str0" x1="1164" y1="2126" x2="1170" y2= "2136" />
  <line class="fil0 str0" x1="2748" y1="3710" x2="2746" y2= "3705" />
  <line class="fil0 str0" x1="1900" y1="3220" x2="1897" y2= "3216" />
  <line class="fil0 str0" x1="2746" y1="3705" x2="2743" y2= "3701" />
  <polyline class="fil0 str0" points="2747,3703 2740,3694 2733,3685 2726,3678 "/>
  <polyline class="fil0 str0" points="1142,1213 1140,1210 1139,1208 1138,1206 1137,1203 1136,1201 1135,1198 1134,1196 1134,1193 1133,1191 1133,1188 "/>
  <polyline class="fil0 str0" points="1153,1288 1151,1286 1150,1283 1148,1281 1147,1279 1146,1276 1145,1274 1145,1271 "/>
  <polyline class="fil0 str0" points="1142,1294 1140,1292 1139,1290 1138,1287 1137,1285 1136,1282 1135,1280 1134,1277 1134,1275 1133,1272 1133,1270 "/>
  <polyline class="fil0 str0" points="1164,1371 1166,1373 1167,1375 1168,1378 1170,1380 1171,1383 1171,1385 1172,1388 1173,1390 1173,1393 "/>
  <polyline class="fil0 str0" points="1153,1390 1151,1388 1150,1386 1148,1383 1147,1381 1146,1378 1145,1376 1145,1373 "/>
  <polyline class="fil0 str0" points="1142,1396 1140,1394 1139,1392 1138,1389 1137,1387 1136,1384 1135,1382 1134,1379 1134,1377 1133,1374 1133,1372 "/>
  <polyline class="fil0 str0" points="1164,1473 1166,1475 1167,1478 1168,1480 1170,1482 1171,1485 1171,1487 1172,1490 1173,1492 1173,1495 "/>
  <polyline class="fil0 str0" points="1153,1492 1151,1490 1150,1488 1148,1485 1147,1483 1146,1480 1145,1478 1145,1475 "/>
  <polyline class="fil0 str0" points="1142,1498 1140,1496 1139,1494 1138,1491 1137,1489 1136,1486 1135,1484 1134,1481 1134,1479 1133,1476 1133,1474 "/>
  <polyline class="fil0 str0" points="1153,1574 1151,1572 1150,1569 1148,1567 1147,1564 1146,1562 1145,1559 1145,1557 "/>
  <polyline class="fil0 str0" points="1142,1580 1140,1578 1139,1575 1138,1573 1137,1570 1136,1568 1135,1565 1134,1563 1134,1560 1133,1558 1133,1556 "/>
  <polyline class="fil0 str0" points="1164,1657 1166,1659 1167,1661 1168,1664 1170,1666 1171,1669 1171,1671 1172,1674 1173,1676 1173,1678 "/>
  <polyline class="fil0 str0" points="1153,1676 1151,1674 1150,1671 1148,1669 1147,1666 1146,1664 1145,1661 1145,1659 "/>
  <polyline class="fil0 str0" points="1142,1682 1140,1680 1139,1677 1138,1675 1137,1673 1136,1670 1135,1668 1134,1665 1134,1663 1133,1660 1133,1658 "/>
  <line class="fil0 str0" x1="2743" y1="3701" x2="2740" y2= "3697" />
  <line class="fil0 str0" x1="1162" y1="1267" x2="1164" y2= "1269" />
  <line class="fil0 str0" x1="1156" y1="1292" x2="1153" y2= "1288" />
  <line class="fil0 str0" x1="1156" y1="1211" x2="1154" y2= "1209" />
  <line class="fil0 str0" x1="3787" y1="2499" x2="3782" y2= "2496" />
  <line class="fil0 str0" x1="3751" y1="2525" x2="3754" y2= "2527" />
  <line class="fil0 str0" x1="3754" y1="2535" x2="3751" y2= "2533" />
  <line class="fil0 str0" x1="3782" y1="2496" x2="3781" y2= "2495" />
  <polyline class="fil0 str0" points="1169,1219 1168,1218 1166,1218 1164,1217 1162,1215 1160,1214 1158,1212 "/>
  <polyline class="fil0 str0" points="1145,1256 1147,1256 1149,1257 1151,1258 1153,1259 1155,1260 1157,1261 1159,1263 "/>
  <polyline class="fil0 str0" points="1145,1358 1147,1358 1149,1359 1151,1360 1153,1361 1155,1362 1157,1363 1159,1365 "/>
  <polyline class="fil0 str0" points="1145,1460 1147,1460 1149,1461 1151,1462 1153,1463 1155,1464 1157,1465 1159,1467 "/>
  <line class="fil0 str0" x1="1790" y1="1515" x2="1795" y2= "1515" />
  <line class="fil0 str0" x1="1201" y1="1528" x2="1204" y2= "1528" />
  <line class="fil0 str0" x1="1191" y1="1542" x2="1194" y2= "1542" />
  <line class="fil0 str0" x1="1201" y1="1814" x2="1204" y2= "1814" />
  <line class="fil0 str0" x1="1191" y1="1828" x2="1194" y2= "1828" />
  <line class="fil0 str0" x1="956" y1="2437" x2="964" y2= "2436" />
  <line class="fil0 str0" x1="1898" y1="3215" x2="1895" y2= "3211" />
  <polyline class="fil0 str0" points="1898,3213 1892,3204 1885,3196 1877,3188 "/>
  <polyline class="fil0 str0" points="1164,1759 1166,1761 1167,1763 1168,1766 1170,1768 1171,1771 1171,1773 1172,1776 1173,1778 1173,1781 "/>
  <polyline class="fil0 str0" points="1153,1778 1151,1776 1150,1773 1148,1771 1147,1768 1146,1766 1145,1763 1145,1761 "/>
  <polyline class="fil0 str0" points="1142,1784 1140,1782 1139,1780 1138,1777 1137,1775 1136,1772 1135,1770 1134,1767 1134,1765 1133,1762 1133,1760 "/>
  <polyline class="fil0 str0" points="1153,1860 1151,1857 1150,1855 1148,1853 1147,1850 1146,1848 1145,1845 1145,1843 "/>
  <polyline class="fil0 str0" points="1142,1866 1140,1864 1139,1861 1138,1859 1137,1856 1136,1854 1135,1851 1134,1849 1134,1846 1133,1844 1133,1842 "/>
  <polyline class="fil0 str0" points="1164,1942 1166,1945 1167,1947 1168,1949 1170,1952 1171,1954 1171,1957 1172,1959 1173,1962 1173,1964 "/>
  <polyline class="fil0 str0" points="1153,1962 1151,1959 1150,1957 1148,1955 1147,1952 1146,1950 1145,1947 1145,1945 "/>
  <polyline class="fil0 str0" points="1142,1968 1140,1966 1139,1963 1138,1961 1137,1958 1136,1956 1135,1953 1134,1951 1134,1948 1133,1946 1133,1944 "/>
  <polyline class="fil0 str0" points="1164,2044 1166,2047 1167,2049 1168,2051 1170,2054 1171,2056 1171,2059 1172,2061 1173,2064 1173,2066 "/>
  <polyline class="fil0 str0" points="1153,2064 1151,2062 1150,2059 1148,2057 1147,2054 1146,2052 1145,2049 1145,2047 "/>
  <polyline class="fil0 str0" points="1142,2070 1140,2068 1139,2065 1138,2063 1137,2060 1136,2058 1135,2055 1134,2053 1134,2050 1133,2048 1133,2046 "/>
  <polyline class="fil0 str0" points="1153,2145 1151,2143 1150,2141 1148,2138 1147,2136 1146,2133 1145,2131 1145,2128 "/>
  <polyline class="fil0 str0" points="1142,2152 1140,2149 1139,2147 1138,2145 1137,2142 1136,2140 1135,2137 1134,2135 1134,2132 1133,2130 1133,2127 "/>
  <polyline class="fil0 str0" points="1164,2228 1166,2230 1167,2233 1168,2235 1170,2238 1171,2240 1171,2243 1172,2245 1173,2248 1173,2250 "/>
  <polyline class="fil0 str0" points="1153,2247 1151,2245 1150,2243 1148,2240 1147,2238 1146,2235 1145,2233 1145,2230 "/>
  <polyline class="fil0 str0" points="1142,2254 1140,2251 1139,2249 1138,2247 1137,2244 1136,2242 1135,2239 1134,2237 1134,2234 1133,2232 1133,2229 "/>
  <polyline class="fil0 str0" points="1164,2330 1166,2332 1167,2335 1168,2337 1170,2340 1171,2342 1171,2345 1172,2347 1173,2350 1173,2352 "/>
  <polyline class="fil0 str0" points="1153,2350 1151,2347 1150,2345 1148,2343 1147,2340 1146,2338 1145,2335 1145,2333 "/>
  <polyline class="fil0 str0" points="1142,2356 1140,2353 1139,2351 1138,2349 1137,2346 1136,2344 1135,2341 1134,2339 1134,2336 1133,2334 1133,2331 "/>
  <line class="fil0 str0" x1="1895" y1="3211" x2="1892" y2= "3208" />
  <line class="fil0 str0" x1="1154" y1="1494" x2="1153" y2= "1492" />
  <line class="fil0 str0" x1="1162" y1="1552" x2="1164" y2= "1555" />
  <line class="fil0 str0" x1="1154" y1="1780" x2="1153" y2= "1778" />
  <line class="fil0 str0" x1="1162" y1="1838" x2="1164" y2= "1840" />
  <line class="fil0 str0" x1="1154" y1="2066" x2="1153" y2= "2064" />
  <line class="fil0 str0" x1="1162" y1="2124" x2="1164" y2= "2126" />
  <line class="fil0 str0" x1="2741" y1="3697" x2="2738" y2= "3694" />
  <line class="fil0 str0" x1="1892" y1="3208" x2="1889" y2= "3204" />
  <line class="fil0 str0" x1="2678" y1="3758" x2="2661" y2= "3737" />
  <line class="fil0 str0" x1="2667" y1="3749" x2="2678" y2= "3763" />
  <line class="fil0 str0" x1="2644" y1="3761" x2="2661" y2= "3783" />
  <line class="fil0 str0" x1="1830" y1="3268" x2="1813" y2= "3247" />
  <line class="fil0 str0" x1="1818" y1="3259" x2="1830" y2= "3274" />
  <line class="fil0 str0" x1="1796" y1="3272" x2="1813" y2= "3293" />
  <line class="fil0 str0" x1="1161" y1="1367" x2="1164" y2= "1371" />
  <line class="fil0 str0" x1="1156" y1="1394" x2="1153" y2= "1390" />
  <line class="fil0 str0" x1="1161" y1="1469" x2="1164" y2= "1473" />
  <line class="fil0 str0" x1="1156" y1="1578" x2="1153" y2= "1574" />
  <line class="fil0 str0" x1="1161" y1="1653" x2="1164" y2= "1657" />
  <line class="fil0 str0" x1="1156" y1="1680" x2="1153" y2= "1676" />
  <line class="fil0 str0" x1="1161" y1="1755" x2="1164" y2= "1759" />
  <line class="fil0 str0" x1="1156" y1="1864" x2="1153" y2= "1860" />
  <line class="fil0 str0" x1="1161" y1="1938" x2="1164" y2= "1942" />
  <line class="fil0 str0" x1="1156" y1="1966" x2="1153" y2= "1962" />
  <line class="fil0 str0" x1="1161" y1="2040" x2="1164" y2= "2044" />
  <line class="fil0 str0" x1="1156" y1="2150" x2="1153" y2= "2145" />
  <line class="fil0 str0" x1="1161" y1="2224" x2="1164" y2= "2228" />
  <line class="fil0 str0" x1="1156" y1="2252" x2="1153" y2= "2247" />
  <line class="fil0 str0" x1="1161" y1="2326" x2="1164" y2= "2330" />
  <line class="fil0 str0" x1="1156" y1="2354" x2="1153" y2= "2350" />
  <line class="fil0 str0" x1="2737" y1="3694" x2="2734" y2= "3690" />
  <line class="fil0 str0" x1="2866" y1="4045" x2="2868" y2= "4048" />
  <line class="fil0 str0" x1="1161" y1="1265" x2="1162" y2= "1267" />
  <line class="fil0 str0" x1="1156" y1="1496" x2="1154" y2= "1494" />
  <line class="fil0 str0" x1="1161" y1="1550" x2="1162" y2= "1552" />
  <line class="fil0 str0" x1="1156" y1="1782" x2="1154" y2= "1780" />
  <line class="fil0 str0" x1="1161" y1="1836" x2="1162" y2= "1838" />
  <line class="fil0 str0" x1="1156" y1="2068" x2="1154" y2= "2066" />
  <line class="fil0 str0" x1="1161" y1="2122" x2="1162" y2= "2124" />
  <line class="fil0 str0" x1="1147" y1="1218" x2="1142" y2= "1213" />
  <line class="fil0 str0" x1="1147" y1="1300" x2="1142" y2= "1294" />
  <line class="fil0 str0" x1="1147" y1="1402" x2="1142" y2= "1396" />
  <line class="fil0 str0" x1="1147" y1="1504" x2="1142" y2= "1498" />
  <line class="fil0 str0" x1="1147" y1="1586" x2="1142" y2= "1580" />
  <line class="fil0 str0" x1="1147" y1="1688" x2="1142" y2= "1682" />
  <line class="fil0 str0" x1="1147" y1="1790" x2="1142" y2= "1784" />
  <line class="fil0 str0" x1="1147" y1="1872" x2="1142" y2= "1866" />
  <line class="fil0 str0" x1="1147" y1="1974" x2="1142" y2= "1968" />
  <line class="fil0 str0" x1="1147" y1="2076" x2="1142" y2= "2070" />
  <line class="fil0 str0" x1="1147" y1="2157" x2="1142" y2= "2152" />
  <line class="fil0 str0" x1="1147" y1="2260" x2="1142" y2= "2254" />
  <line class="fil0 str0" x1="2735" y1="3690" x2="2732" y2= "3687" />
  <line class="fil0 str0" x1="1158" y1="1212" x2="1156" y2= "1211" />
  <line class="fil0 str0" x1="1159" y1="1263" x2="1161" y2= "1265" />
  <line class="fil0 str0" x1="1159" y1="1365" x2="1161" y2= "1367" />
  <line class="fil0 str0" x1="1159" y1="1467" x2="1161" y2= "1469" />
  <line class="fil0 str0" x1="1158" y1="1498" x2="1156" y2= "1496" />
  <line class="fil0 str0" x1="1159" y1="1549" x2="1161" y2= "1550" />
  <line class="fil0 str0" x1="1159" y1="1651" x2="1161" y2= "1653" />
  <line class="fil0 str0" x1="1159" y1="1753" x2="1161" y2= "1755" />
  <line class="fil0 str0" x1="1158" y1="1784" x2="1156" y2= "1782" />
  <line class="fil0 str0" x1="1159" y1="1834" x2="1161" y2= "1836" />
  <line class="fil0 str0" x1="1159" y1="1936" x2="1161" y2= "1938" />
  <line class="fil0 str0" x1="1159" y1="2039" x2="1161" y2= "2040" />
  <line class="fil0 str0" x1="3787" y1="3245" x2="3782" y2= "3242" />
  <line class="fil0 str0" x1="1153" y1="1223" x2="1147" y2= "1218" />
  <line class="fil0 str0" x1="1153" y1="1509" x2="1147" y2= "1504" />
  <polyline class="fil0 str0" points="1797,1516 1798,1517 1799,1518 1800,1519 1801,1521 1802,1522 1802,1524 1802,1526 "/>
  <polyline class="fil0 str0" points="1769,1564 1767,1564 1766,1562 1765,1561 1764,1560 "/>
  <polyline class="fil0 str0" points="1797,1802 1798,1802 1799,1804 1800,1805 1801,1807 1802,1808 1802,1810 1802,1812 "/>
  <polyline class="fil0 str0" points="1769,1850 1767,1849 1766,1848 1765,1847 1764,1845 "/>
  <line class="fil0 str0" x1="3751" y1="3272" x2="3754" y2= "3273" />
  <line class="fil0 str0" x1="3754" y1="3281" x2="3751" y2= "3279" />
  <polyline class="fil0 str0" points="3767,2558 3765,2556 3763,2554 3760,2553 3758,2550 3756,2548 3755,2546 3753,2544 3751,2541 3750,2539 3749,2536 3748,2533 3747,2531 3747,2528 3746,2525 3746,2523 3746,2520 3746,2518 3746,2515 3747,2513 3747,2511 3748,2508 3749,2506 3750,2504 3751,2503 3752,2501 3754,2499 3755,2498 3757,2496 3759,2495 3761,2494 "/>
  <polyline class="fil0 str0" points="3767,3304 3765,3302 3763,3301 3760,3299 3758,3297 3756,3295 3755,3292 3753,3290 3751,3287 3750,3285 3749,3282 3748,3280 3747,3277 3747,3274 3746,3272 3746,3269 3746,3266 3746,3264 3746,3261 3747,3259 3747,3257 3748,3255 3749,3253 3750,3251 3751,3249 3752,3247 3754,3245 3755,3244 3757,3242 3759,3241 3761,3240 "/>
  <line class="fil0 str0" x1="3782" y1="3242" x2="3781" y2= "3241" />
  <line class="fil0 str0" x1="3759" y1="2521" x2="3762" y2= "2523" />
  <line class="fil0 str0" x1="3762" y1="2549" x2="3759" y2= "2547" />
  <line class="fil0 str0" x1="3759" y1="3267" x2="3762" y2= "3269" />
  <line class="fil0 str0" x1="3761" y1="2529" x2="3765" y2= "2531" />
  <line class="fil0 str0" x1="3759" y1="2530" x2="3754" y2= "2527" />
  <line class="fil0 str0" x1="3770" y1="2537" x2="3765" y2= "2534" />
  <line class="fil0 str0" x1="3765" y1="2542" x2="3770" y2= "2545" />
  <line class="fil0 str0" x1="3754" y1="2535" x2="3759" y2= "2538" />
  <line class="fil0 str0" x1="1204" y1="1243" x2="1202" y2= "1241" />
  <line class="fil0 str0" x1="1191" y1="1256" x2="1164" y2= "1241" />
  <line class="fil0 str0" x1="1169" y1="1251" x2="1194" y2= "1265" />
  <line class="fil0 str0" x1="1191" y1="1269" x2="1164" y2= "1253" />
  <line class="fil0 str0" x1="1470" y1="1558" x2="1439" y2= "1540" />
  <line class="fil0 str0" x1="1458" y1="1580" x2="1427" y2= "1562" />
  <line class="fil0 str0" x1="1204" y1="1528" x2="1202" y2= "1527" />
  <line class="fil0 str0" x1="1191" y1="1542" x2="1164" y2= "1527" />
  <line class="fil0 str0" x1="1169" y1="1537" x2="1194" y2= "1551" />
  <line class="fil0 str0" x1="1191" y1="1554" x2="1164" y2= "1539" />
  <line class="fil0 str0" x1="3651" y1="2994" x2="2633" y2= "2407" />
  <line class="fil0 str0" x1="1733" y1="1899" x2="1526" y2= "1779" />
  <line class="fil0 str0" x1="1470" y1="1762" x2="1439" y2= "1744" />
  <line class="fil0 str0" x1="1458" y1="1784" x2="1427" y2= "1766" />
  <line class="fil0 str0" x1="1738" y1="2006" x2="1724" y2= "1998" />
  <line class="fil0 str0" x1="3762" y1="2523" x2="3766" y2= "2525" />
  <line class="fil0 str0" x1="3766" y1="2551" x2="3762" y2= "2549" />
  <line class="fil0 str0" x1="3770" y1="2537" x2="3772" y2= "2538" />
  <line class="fil0 str0" x1="3773" y1="2546" x2="3770" y2= "2545" />
  <line class="fil0 str0" x1="1795" y1="1515" x2="1797" y2= "1516" />
  <line class="fil0 str0" x1="1795" y1="1801" x2="1797" y2= "1802" />
  <line class="fil0 str0" x1="3772" y1="2538" x2="3773" y2= "2538" />
  <line class="fil0 str0" x1="1159" y1="1225" x2="1153" y2= "1223" />
  <line class="fil0 str0" x1="1159" y1="1511" x2="1153" y2= "1509" />
  <line class="fil0 str0" x1="1159" y1="1797" x2="1153" y2= "1794" />
  <polyline class="fil0 str0" points="1169,1301 1168,1300 1166,1299 1164,1298 1162,1297 1160,1296 1158,1294 1156,1292 "/>
  <polyline class="fil0 str0" points="1169,1403 1168,1402 1166,1401 1164,1400 1162,1399 1160,1398 1158,1396 1156,1394 "/>
  <polyline class="fil0 str0" points="1169,1505 1168,1504 1166,1503 1164,1502 1162,1501 1160,1500 1158,1498 "/>
  <polyline class="fil0 str0" points="1169,1586 1168,1586 1166,1585 1164,1584 1162,1583 1160,1581 1158,1580 1156,1578 "/>
  <polyline class="fil0 str0" points="1169,1688 1168,1688 1166,1687 1164,1686 1162,1685 1160,1683 1158,1682 1156,1680 "/>
  <polyline class="fil0 str0" points="1169,1791 1168,1790 1166,1789 1164,1788 1162,1787 1160,1786 1158,1784 "/>
  <polyline class="fil0 str0" points="1169,1872 1168,1872 1166,1871 1164,1870 1162,1869 1160,1867 1158,1866 1156,1864 "/>
  <polyline class="fil0 str0" points="1145,1542 1147,1542 1149,1543 1151,1543 1153,1544 1155,1546 1157,1547 1159,1549 "/>
  <polyline class="fil0 str0" points="1145,1644 1147,1644 1149,1645 1151,1645 1153,1646 1155,1648 1157,1649 1159,1651 "/>
  <polyline class="fil0 str0" points="1145,1746 1147,1746 1149,1747 1151,1747 1153,1748 1155,1750 1157,1751 1159,1753 "/>
  <polyline class="fil0 str0" points="1145,1827 1147,1828 1149,1828 1151,1829 1153,1830 1155,1831 1157,1833 1159,1834 "/>
  <polyline class="fil0 str0" points="1145,1930 1147,1930 1149,1930 1151,1931 1153,1932 1155,1933 1157,1935 1159,1936 "/>
  <polyline class="fil0 str0" points="1145,2032 1147,2032 1149,2032 1151,2033 1153,2034 1155,2035 1157,2037 1159,2039 "/>
  <polyline class="fil0 str0" points="1145,2113 1147,2114 1149,2114 1151,2115 1153,2116 1155,2117 1157,2119 1159,2120 "/>
  <polyline class="fil0 str0" points="1145,2215 1147,2216 1149,2216 1151,2217 1153,2218 1155,2219 1157,2221 1159,2222 "/>
  <line class="fil0 str0" x1="1790" y1="1800" x2="1795" y2= "1801" />
  <line class="fil0 str0" x1="952" y1="2437" x2="954" y2= "2437" />
  <line class="fil0 str0" x1="954" y1="2437" x2="956" y2= "2437" />
  <line class="fil0 str0" x1="1201" y1="2100" x2="1204" y2= "2100" />
  <line class="fil0 str0" x1="1191" y1="2114" x2="1194" y2= "2114" />
  <polyline class="fil0 str0" points="2760,2480 2761,2480 2763,2480 2765,2479 2768,2478 "/>
  <line class="fil0 str0" x1="1869" y1="3181" x2="1865" y2= "3182" />
  <line class="fil0 str0" x1="1889" y1="3204" x2="1886" y2= "3200" />
  <line class="fil0 str0" x1="1147" y1="2362" x2="1142" y2= "2356" />
  <line class="fil0 str0" x1="1886" y1="3200" x2="1883" y2= "3197" />
  <line class="fil0 str0" x1="1158" y1="2070" x2="1156" y2= "2068" />
  <line class="fil0 str0" x1="1159" y1="2120" x2="1161" y2= "2122" />
  <line class="fil0 str0" x1="1159" y1="2222" x2="1161" y2= "2224" />
  <line class="fil0 str0" x1="1159" y1="2324" x2="1161" y2= "2326" />
  <polyline class="fil0 str0" points="2722,3692 2719,3689 2716,3686 2712,3684 2709,3681 2706,3679 "/>
  <polyline class="fil0 str0" points="1874,3202 1871,3199 1867,3196 1864,3194 1860,3191 1857,3189 "/>
  <line class="fil0 str0" x1="2731" y1="3687" x2="2728" y2= "3684" />
  <line class="fil0 str0" x1="1883" y1="3197" x2="1879" y2= "3194" />
  <line class="fil0 str0" x1="2728" y1="3684" x2="2724" y2= "3681" />
  <line class="fil0 str0" x1="1880" y1="3194" x2="1876" y2= "3191" />
  <line class="fil0 str0" x1="2726" y1="3678" x2="2718" y2= "3671" />
  <line class="fil0 str0" x1="2701" y1="3791" x2="2702" y2= "3791" />
  <line class="fil0 str0" x1="1877" y1="3188" x2="1869" y2= "3181" />
  <line class="fil0 str0" x1="1853" y1="3301" x2="1853" y2= "3301" />
  <line class="fil0 str0" x1="2716" y1="3705" x2="2707" y2= "3698" />
  <line class="fil0 str0" x1="1867" y1="3215" x2="1858" y2= "3208" />
  <line class="fil0 str0" x1="2725" y1="3681" x2="2721" y2= "3678" />
  <line class="fil0 str0" x1="1876" y1="3191" x2="1872" y2= "3188" />
  <line class="fil0 str0" x1="613" y1="2259" x2="616" y2= "2261" />
  <line class="fil0 str0" x1="1153" y1="1794" x2="1147" y2= "1790" />
  <line class="fil0 str0" x1="1153" y1="2080" x2="1147" y2= "2076" />
  <line class="fil0 str0" x1="2722" y1="3678" x2="2718" y2= "3675" />
  <polyline class="fil0 str0" points="2847,3306 2852,3309 2856,3312 2861,3316 2865,3321 2869,3326 2872,3332 2875,3338 2878,3344 2880,3350 2881,3356 2882,3361 2883,3367 "/>
  <polyline class="fil0 str0" points="2051,2846 2055,2848 2058,2851 2062,2855 2065,2858 2068,2863 2071,2867 2073,2872 2075,2876 2077,2881 2078,2886 2079,2890 2079,2895 "/>
  <line class="fil0 str0" x1="3762" y1="3295" x2="3759" y2= "3293" />
  <line class="fil0 str0" x1="3761" y1="3275" x2="3765" y2= "3277" />
  <line class="fil0 str0" x1="3759" y1="3276" x2="3754" y2= "3273" />
  <line class="fil0 str0" x1="3770" y1="3283" x2="3765" y2= "3280" />
  <line class="fil0 str0" x1="3765" y1="3288" x2="3770" y2= "3291" />
  <line class="fil0 str0" x1="3754" y1="3281" x2="3759" y2= "3284" />
  <line class="fil0 str0" x1="1204" y1="1814" x2="1202" y2= "1813" />
  <line class="fil0 str0" x1="1191" y1="1828" x2="1164" y2= "1813" />
  <line class="fil0 str0" x1="1169" y1="1822" x2="1194" y2= "1837" />
  <line class="fil0 str0" x1="1191" y1="1840" x2="1164" y2= "1825" />
  <line class="fil0 str0" x1="1204" y1="2100" x2="1202" y2= "2099" />
  <line class="fil0 str0" x1="1191" y1="2114" x2="1164" y2= "2098" />
  <line class="fil0 str0" x1="1169" y1="2108" x2="1194" y2= "2123" />
  <line class="fil0 str0" x1="1191" y1="2126" x2="1164" y2= "2111" />
  <line class="fil0 str0" x1="2051" y1="2846" x2="1787" y2= "2693" />
  <line class="fil0 str0" x1="2847" y1="3306" x2="2583" y2= "3153" />
  <line class="fil0 str0" x1="2025" y1="2861" x2="1760" y2= "2708" />
  <line class="fil0 str0" x1="2821" y1="3321" x2="2556" y2= "3168" />
  <line class="fil0 str0" x1="1201" y1="2406" x2="1210" y2= "2411" />
  <line class="fil0 str0" x1="1196" y1="2420" x2="1093" y2= "2360" />
  <line class="fil0 str0" x1="3762" y1="3269" x2="3766" y2= "3271" />
  <line class="fil0 str0" x1="3766" y1="3297" x2="3762" y2= "3295" />
  <line class="fil0 str0" x1="3770" y1="3283" x2="3772" y2= "3284" />
  <polyline class="fil0 str0" points="1760,2708 1756,2706 1751,2705 1747,2704 1742,2704 1739,2704 1735,2706 "/>
  <polyline class="fil0 str0" points="2556,3168 2553,3166 2549,3165 2546,3164 2542,3164 2539,3165 2536,3166 "/>
  <line class="fil0 str0" x1="3773" y1="3292" x2="3770" y2= "3291" />
  <line class="fil0 str0" x1="3772" y1="3284" x2="3773" y2= "3285" />
  <line class="fil0 str0" x1="1159" y1="2082" x2="1153" y2= "2080" />
  <polyline class="fil0 str0" points="918,2436 921,2437 924,2437 927,2437 930,2437 933,2436 935,2434 936,2432 936,2431 "/>
  <polyline class="fil0 str0" points="1169,1974 1168,1974 1166,1973 1164,1972 1162,1971 1160,1969 1158,1968 1156,1966 "/>
  <polyline class="fil0 str0" points="1169,2076 1168,2076 1166,2075 1164,2074 1162,2073 1160,2071 1158,2070 "/>
  <polyline class="fil0 str0" points="1169,2158 1168,2157 1166,2157 1164,2156 1162,2154 1160,2153 1158,2151 1156,2150 "/>
  <polyline class="fil0 str0" points="1169,2260 1168,2259 1166,2259 1164,2258 1162,2256 1160,2255 1158,2253 1156,2252 "/>
  <polyline class="fil0 str0" points="1169,2362 1168,2362 1166,2361 1164,2360 1162,2359 1160,2357 1158,2355 1156,2354 "/>
  <line class="fil0 str0" x1="944" y1="2435" x2="949" y2= "2436" />
  <line class="fil0 str0" x1="949" y1="2436" x2="952" y2= "2437" />
  <polyline class="fil0 str0" points="1145,2317 1147,2318 1149,2318 1151,2319 1153,2320 1155,2321 1157,2323 1159,2324 "/>
  <polyline class="fil0 str0" points="949,2939 943,2939 931,2939 920,2938 909,2936 898,2933 888,2930 878,2927 869,2923 860,2918 "/>
  <polyline class="fil0 str0" points="1878,3307 1881,3307 1884,3307 1887,3306 1890,3305 1892,3304 "/>
  <polyline class="fil0 str0" points="1877,3306 1880,3306 1883,3306 1886,3305 1888,3304 1891,3303 1893,3302 1895,3300 1897,3298 1899,3295 1901,3293 1902,3290 1903,3287 1904,3283 1904,3280 1905,3276 1905,3272 "/>
  <polyline class="fil0 str0" points="1890,3311 1897,3311 1903,3309 "/>
  <line class="fil0 str0" x1="1813" y1="3247" x2="1796" y2= "3249" />
  <line class="fil0 str0" x1="1813" y1="3293" x2="1830" y2= "3291" />
  <line class="fil0 str0" x1="2718" y1="3671" x2="2714" y2= "3672" />
  <line class="fil0 str0" x1="1707" y1="3377" x2="1708" y2= "3378" />
  <line class="fil0 str0" x1="1873" y1="3188" x2="1869" y2= "3186" />
  <polyline class="fil0 str0" points="2718,3671 2710,3666 2702,3662 2694,3659 2686,3658 2679,3659 2673,3661 "/>
  <polyline class="fil0 str0" points="1869,3181 1861,3176 1853,3172 1845,3170 1838,3168 1831,3169 1824,3171 "/>
  <polyline class="fil0 str0" points="2702,3791 2710,3797 2718,3801 2726,3803 2733,3804 2740,3804 2747,3802 2750,3801 "/>
  <polyline class="fil0 str0" points="1853,3301 1861,3307 1869,3311 1877,3313 1885,3314 1892,3314 1898,3312 1901,3311 "/>
  <line class="fil0 str0" x1="2718" y1="3676" x2="2714" y2= "3673" />
  <line class="fil0 str0" x1="1870" y1="3186" x2="1866" y2= "3183" />
  <line class="fil0 str0" x1="2704" y1="3789" x2="2706" y2= "3790" />
  <line class="fil0 str0" x1="1856" y1="3299" x2="1857" y2= "3300" />
  <polyline class="fil0 str0" points="2707,3698 2704,3697 2702,3695 2699,3694 2697,3693 2694,3693 2692,3692 2689,3692 2687,3693 2685,3693 2683,3694 2681,3695 "/>
  <polyline class="fil0 str0" points="1858,3208 1856,3207 1853,3205 1851,3204 1848,3203 1845,3203 1843,3203 1841,3203 1838,3203 1836,3203 1834,3204 1832,3205 "/>
  <line class="fil0 str0" x1="941" y1="2434" x2="938" y2= "2432" />
  <line class="fil0 str0" x1="1725" y1="2904" x2="631" y2= "2273" />
  <line class="fil0 str0" x1="2528" y1="3368" x2="2079" y2= "3109" />
  <line class="fil0 str0" x1="1706" y1="3369" x2="2865" y2= "4038" />
  <line class="fil0 str0" x1="624" y1="2752" x2="1706" y2= "3377" />
  <polyline class="fil0 str0" points="1866,3183 1862,3182 1859,3180 1855,3179 1852,3178 1849,3177 1845,3177 1842,3177 1839,3177 1836,3178 1834,3179 1831,3180 "/>
  <polyline class="fil0 str0" points="2714,3673 2711,3671 2707,3670 2704,3669 2700,3668 2697,3667 2694,3667 2691,3667 2688,3667 2685,3668 2682,3669 2680,3670 "/>
  <polyline class="fil0 str0" points="1857,3189 1854,3187 1850,3186 1847,3185 1844,3184 1840,3183 1837,3183 1834,3183 1831,3183 1828,3184 1826,3185 1823,3186 1821,3187 1819,3189 1817,3191 1815,3194 1813,3196 "/>
  <polyline class="fil0 str0" points="2706,3679 2702,3677 2699,3676 2695,3674 2692,3673 2689,3673 2686,3673 2683,3673 2680,3673 2677,3673 2674,3674 2672,3676 2669,3677 2667,3679 2665,3681 2663,3684 2662,3686 "/>
  <line class="fil0 str0" x1="1857" y1="3300" x2="1858" y2= "3300" />
  <line class="fil0 str0" x1="2706" y1="3790" x2="2706" y2= "3790" />
  <polyline class="fil0 str0" points="1869,3305 1874,3308 1882,3310 1890,3311 "/>
  <polyline class="fil0 str0" points="2718,3795 2723,3798 2731,3800 2738,3801 "/>
  <line class="fil0 str0" x1="941" y1="2434" x2="944" y2= "2435" />
  <line class="fil0 str0" x1="1858" y1="3300" x2="1869" y2= "3305" />
  <line class="fil0 str0" x1="2706" y1="3790" x2="2718" y2= "3795" />
  <polyline class="fil0 str0" points="1708,3378 1710,3379 1711,3379 1713,3378 1715,3377 "/>
  <line class="fil0 str0" x1="1868" y1="3305" x2="1871" y2= "3306" />
  <line class="fil0 str0" x1="2717" y1="3795" x2="2720" y2= "3796" />
  <line class="fil0 str0" x1="1871" y1="3305" x2="1875" y2= "3307" />
  <line class="fil0 str0" x1="2719" y1="3795" x2="2723" y2= "3796" />
  <line class="fil0 str0" x1="1874" y1="3306" x2="1878" y2= "3307" />
  <line class="fil0 str0" x1="2722" y1="3796" x2="2726" y2= "3797" />
  <polyline class="fil0 str0" points="2726,3797 2730,3797 2733,3796 2735,3796 2738,3795 2741,3794 "/>
  <polyline class="fil0 str0" points="2725,3796 2729,3796 2731,3796 2734,3795 2737,3794 2739,3793 2742,3792 2744,3790 2746,3788 2748,3785 2749,3783 2750,3780 2752,3777 2752,3773 2753,3770 2753,3766 2754,3762 "/>
  <polyline class="fil0 str0" points="2738,3801 2745,3801 2752,3799 "/>
  <line class="fil0 str0" x1="2661" y1="3737" x2="2644" y2= "3739" />
  <line class="fil0 str0" x1="2661" y1="3783" x2="2678" y2= "3781" />
  <polyline class="fil0 str0" points="1306,3706 1301,3703 1298,3700 1295,3696 1293,3693 1292,3689 1291,3685 "/>
  <line class="fil0 str0" x1="2366" y1="4287" x2="1306" y2= "3675" />
  <line class="fil0 str0" x1="2366" y1="4318" x2="1306" y2= "3706" />
  <line class="fil0 str0" x1="1654" y1="3623" x2="1658" y2= "3626" />
  <line class="fil0 str0" x1="2502" y1="4113" x2="2507" y2= "4115" />
  <polyline class="fil0 str0" points="2366,4287 2371,4290 2377,4292 2383,4294 2389,4295 2395,4296 2402,4296 2408,4296 2415,4295 2421,4294 2427,4292 2432,4290 2437,4287 "/>
  <line class="fil0 str0" x1="3956" y1="4633" x2="3954" y2= "4633" />
  <polyline class="fil0 str0" points="3944,4678 3932,4677 3921,4675 3910,4672 3900,4670 3890,4666 3881,4662 3873,4658 "/>
  <line class="fil0 str0" x1="3955" y1="4679" x2="3944" y2= "4678" />
  <polyline class="fil0 str0" points="4011,4672 4001,4675 3990,4677 3978,4678 3967,4679 3955,4679 "/>
  <line class="fil0 str0" x1="3762" y1="3239" x2="3761" y2= "3240" />
  <line class="fil0 str0" x1="3762" y1="2493" x2="3761" y2= "2494" />
  <polyline class="fil0 str0" points="2681,3695 2681,3695 2683,3694 2685,3693 2687,3693 2689,3693 2692,3693 2694,3693 2696,3694 2699,3695 2702,3696 2704,3697 2707,3699 2709,3701 2712,3703 2714,3705 "/>
  <line class="fil0 str0" x1="2653" y1="3699" x2="2658" y2= "3696" />
  <polyline class="fil0 str0" points="2686,3800 2688,3799 2689,3797 2691,3796 2692,3794 2693,3793 2694,3791 2694,3789 2695,3788 2695,3786 2696,3784 2696,3783 2696,3781 2696,3780 2696,3778 "/>
  <line class="fil0 str0" x1="3798" y1="3304" x2="3799" y2= "3304" />
  <line class="fil0 str0" x1="2729" y1="3775" x2="2727" y2= "3776" />
  <polyline class="fil0 str0" points="1832,3205 1832,3205 1834,3204 1836,3203 1839,3203 1841,3203 1843,3203 1845,3203 1848,3204 1850,3205 1853,3206 1856,3207 1858,3209 1861,3211 1863,3213 1866,3215 "/>
  <line class="fil0 str0" x1="1706" y1="3372" x2="1708" y2= "3370" />
  <line class="fil0 str0" x1="1805" y1="3209" x2="1810" y2= "3206" />
  <line class="fil0 str0" x1="2637" y1="2407" x2="3651" y2= "1822" />
  <polyline class="fil0 str0" points="1838,3310 1839,3309 1841,3307 1842,3306 1843,3304 1844,3303 1845,3301 1846,3299 1846,3298 1847,3296 1847,3294 1847,3293 1847,3291 1848,3290 1848,3288 "/>
  <line class="fil0 str0" x1="3798" y1="2558" x2="3799" y2= "2557" />
  <line class="fil0 str0" x1="1880" y1="3285" x2="1879" y2= "3286" />
  <line class="fil0 str0" x1="3799" y1="3304" x2="3802" y2= "3301" />
  <line class="fil0 str0" x1="3799" y1="2557" x2="3802" y2= "2555" />
  <line class="fil0 str0" x1="1133" y1="2331" x2="1144" y2= "2325" />
  <line class="fil0 str0" x1="1133" y1="2229" x2="1144" y2= "2223" />
  <line class="fil0 str0" x1="1133" y1="2127" x2="1144" y2= "2121" />
  <line class="fil0 str0" x1="1133" y1="2046" x2="1144" y2= "2040" />
  <line class="fil0 str0" x1="1201" y1="1979" x2="1528" y2= "1790" />
  <line class="fil0 str0" x1="1828" y1="1579" x2="1964" y2= "1500" />
  <line class="fil0 str0" x1="1133" y1="1944" x2="1144" y2= "1938" />
  <line class="fil0 str0" x1="1133" y1="1842" x2="1144" y2= "1835" />
  <line class="fil0 str0" x1="1133" y1="1760" x2="1144" y2= "1754" />
  <line class="fil0 str0" x1="1133" y1="1658" x2="1144" y2= "1652" />
  <line class="fil0 str0" x1="1133" y1="1556" x2="1144" y2= "1550" />
  <line class="fil0 str0" x1="2733" y1="3771" x2="2729" y2= "3775" />
  <polyline class="fil0 str0" points="3802,3301 3803,3300 3803,3299 3804,3297 3805,3295 3805,3293 3806,3292 3806,3289 3806,3287 3806,3285 "/>
  <line class="fil0 str0" x1="1133" y1="1474" x2="1144" y2= "1468" />
  <line class="fil0 str0" x1="1133" y1="1372" x2="1144" y2= "1366" />
  <line class="fil0 str0" x1="1133" y1="1270" x2="1144" y2= "1264" />
  <line class="fil0 str0" x1="1884" y1="3281" x2="1880" y2= "3285" />
  <polyline class="fil0 str0" points="3802,2555 3803,2554 3803,2552 3804,2551 3805,2549 3805,2547 3806,2545 3806,2543 3806,2541 3806,2539 "/>
  <line class="fil0 str0" x1="1194" y1="2114" x2="1204" y2= "2100" />
  <line class="fil0 str0" x1="1191" y1="2114" x2="1201" y2= "2100" />
  <line class="fil0 str0" x1="1194" y1="1828" x2="1204" y2= "1814" />
  <line class="fil0 str0" x1="1191" y1="1828" x2="1201" y2= "1814" />
  <line class="fil0 str0" x1="1194" y1="1542" x2="1204" y2= "1528" />
  <line class="fil0 str0" x1="1191" y1="1542" x2="1201" y2= "1528" />
  <line class="fil0 str0" x1="1194" y1="1256" x2="1204" y2= "1243" />
  <line class="fil0 str0" x1="1191" y1="1256" x2="1201" y2= "1243" />
  <line class="fil0 str0" x1="3975" y1="1552" x2="3975" y2= "4668" />
  <line class="fil0 str0" x1="3954" y1="1539" x2="3954" y2= "4202" />
  <line class="fil0 str0" x1="3806" y1="2539" x2="3806" y2= "2537" />
  <line class="fil0 str0" x1="3806" y1="3285" x2="3806" y2= "3283" />
  <polyline class="fil0 str0" points="2737,3754 2737,3756 2737,3757 2737,3759 2737,3761 2736,3762 2736,3764 2735,3766 2735,3767 2734,3769 2733,3771 "/>
  <line class="fil0 str0" x1="2843" y1="4083" x2="2843" y2= "4053" />
  <line class="fil0 str0" x1="2451" y1="4115" x2="2451" y2= "4084" />
  <line class="fil0 str0" x1="2437" y1="4287" x2="2437" y2= "4318" />
  <line class="fil0 str0" x1="2366" y1="4287" x2="2366" y2= "4318" />
  <polyline class="fil0 str0" points="2693,3778 2693,3777 2693,3775 2693,3774 2693,3772 2692,3770 2692,3768 2691,3766 2691,3763 2690,3761 2689,3758 2688,3755 2687,3753 2685,3750 2684,3747 2682,3744 2680,3741 2678,3738 2676,3736 2673,3733 2671,3731 2669,3729 2666,3727 2664,3725 2662,3723 2659,3722 2657,3721 2654,3720 2652,3720 2650,3719 2647,3719 2645,3719 2643,3720 2641,3720 2639,3721 2638,3722 2636,3723 2635,3725 2634,3726 2633,3728 2632,3729 2632,3731 2631,3733 2631,3734 2630,3736 2630,3737 2630,3739 2630,3740 2630,3742 "/>
  <polyline class="fil0 str0" points="2630,3742 2630,3743 2630,3745 2630,3746 2630,3748 2631,3750 2631,3752 2632,3754 2632,3756 2633,3759 2634,3762 2635,3764 2636,3767 "/>
  <polyline class="fil0 str0" points="2696,3778 2696,3777 2696,3775 2696,3773 2696,3771 2695,3769 2695,3767 2694,3765 2694,3763 2693,3760 2692,3757 2691,3754 2689,3751 2688,3748 2686,3745 2684,3742 2682,3739 2680,3736 2678,3733 2676,3731 2673,3728 2671,3726 2668,3724 2666,3722 2663,3721 2661,3719 2658,3718 2655,3717 2653,3717 2651,3716 2648,3716 2646,3716 2644,3717 2642,3717 2640,3718 2640,3718 "/>
  <line class="fil0 str0" x1="3806" y1="2537" x2="3803" y2= "2527" />
  <line class="fil0 str0" x1="3806" y1="3283" x2="3803" y2= "3273" />
  <polyline class="fil0 str0" points="1889,3265 1889,3266 1888,3267 1888,3269 1888,3271 1888,3272 1887,3274 1887,3276 1886,3277 1885,3279 1884,3281 "/>
  <line class="fil0 str0" x1="2294" y1="4206" x2="2294" y2= "4175" />
  <line class="fil0 str0" x1="1715" y1="3377" x2="1715" y2= "3374" />
  <line class="fil0 str0" x1="1603" y1="3625" x2="1603" y2= "3595" />
  <polyline class="fil0 str0" points="1844,3288 1844,3287 1844,3285 1844,3284 1844,3282 1844,3280 1843,3278 1843,3276 1842,3273 1841,3271 1841,3268 1839,3266 1838,3263 1837,3260 1835,3257 1833,3254 1831,3251 1829,3248 1827,3246 1825,3243 1823,3241 1820,3239 1818,3237 1815,3235 1813,3234 1811,3232 1808,3231 1806,3230 1803,3230 1801,3229 1799,3229 1797,3229 1795,3230 1793,3230 1791,3231 1789,3232 1788,3233 1786,3235 1785,3236 1784,3238 1784,3239 1783,3241 1783,3243 1782,3244 1782,3246 1782,3247 1781,3249 1781,3250 1781,3252 "/>
  <polyline class="fil0 str0" points="1781,3252 1781,3253 1781,3255 1782,3256 1782,3258 1782,3260 1782,3262 1783,3264 1784,3267 1784,3269 1785,3272 1786,3274 1788,3277 "/>
  <polyline class="fil0 str0" points="1848,3288 1848,3287 1847,3285 1847,3283 1847,3282 1847,3280 1846,3277 1846,3275 1845,3273 1844,3270 1843,3267 1842,3264 1841,3261 1839,3258 1838,3255 1836,3252 1834,3249 1832,3246 1829,3244 1827,3241 1825,3239 1822,3236 1820,3234 1817,3233 1815,3231 1812,3230 1809,3228 1807,3228 1804,3227 1802,3227 1800,3226 1797,3226 1795,3227 1793,3228 1791,3228 1791,3229 "/>
  <polyline class="fil0 str0" points="3770,2537 3770,2536 3770,2535 3770,2534 3769,2534 3769,2533 3768,2532 3768,2531 3768,2531 3767,2530 3767,2529 3766,2529 3765,2528 "/>
  <polyline class="fil0 str0" points="3754,2535 3754,2536 3754,2537 3755,2537 3755,2538 3755,2539 3756,2540 3756,2540 3757,2541 3757,2542 3758,2542 3758,2543 3759,2544 "/>
  <polyline class="fil0 str0" points="3770,3283 3770,3282 3770,3282 3770,3281 3769,3280 3769,3279 3768,3278 3768,3278 3768,3277 3767,3276 3767,3276 3766,3275 3765,3274 "/>
  <polyline class="fil0 str0" points="3754,3281 3754,3282 3754,3283 3755,3284 3755,3284 3755,3285 3756,3286 3756,3287 3757,3287 3757,3288 3758,3289 3758,3289 3759,3290 "/>
  <line class="fil0 str0" x1="3803" y1="2527" x2="3802" y2= "2522" />
  <line class="fil0 str0" x1="3803" y1="3273" x2="3802" y2= "3268" />
  <line class="fil0 str0" x1="1526" y1="1793" x2="1526" y2= "1098" />
  <line class="fil0 str0" x1="1445" y1="3716" x2="1445" y2= "3685" />
  <line class="fil0 str0" x1="1306" y1="3675" x2="1306" y2= "3706" />
  <line class="fil0 str0" x1="1093" y1="2363" x2="1093" y2= "1009" />
  <line class="fil0 str0" x1="971" y1="2434" x2="971" y2= "1270" />
  <line class="fil0 str0" x1="941" y1="2434" x2="941" y2= "1219" />
  <line class="fil0 str0" x1="918" y1="2436" x2="918" y2= "1412" />
  <line class="fil0 str0" x1="3802" y1="2522" x2="3798" y2= "2515" />
  <line class="fil0 str0" x1="3802" y1="3268" x2="3798" y2= "3261" />
  <line class="fil0 str0" x1="667" y1="2293" x2="667" y2= "2290" />
  <line class="fil0 str0" x1="627" y1="2273" x2="627" y2= "2269" />
  <polyline class="fil0 str0" points="3798,2515 3797,2513 3795,2511 3794,2508 3792,2506 3790,2504 3789,2503 3787,2501 3785,2499 3783,2498 "/>
  <polyline class="fil0 str0" points="3798,3261 3797,3259 3795,3257 3794,3255 3792,3253 3790,3251 3789,3249 3787,3247 3785,3246 3783,3244 "/>
  <line class="fil0 str0" x1="3783" y1="2498" x2="3781" y2= "2497" />
  <line class="fil0 str0" x1="3781" y1="2497" x2="3779" y2= "2495" />
  <line class="fil0 str0" x1="1194" y1="1265" x2="1204" y2= "1267" />
  <line class="fil0 str0" x1="1191" y1="1269" x2="1201" y2= "1270" />
  <line class="fil0 str0" x1="1194" y1="1551" x2="1204" y2= "1553" />
  <line class="fil0 str0" x1="1191" y1="1554" x2="1201" y2= "1556" />
  <polyline class="fil0 str0" points="2645,3782 2647,3784 2649,3787 2652,3789 2654,3791 2657,3793 2659,3795 2661,3796 2664,3798 2666,3799 2669,3799 2671,3800 2673,3800 2676,3801 2678,3800 2680,3800 2682,3800 2683,3799 2685,3798 2687,3796 2688,3795 2689,3794 2690,3792 2691,3790 2691,3789 2692,3787 2692,3785 2693,3784 2693,3782 2693,3781 2693,3779 2693,3778 "/>
  <line class="fil0 str0" x1="3783" y1="3244" x2="3781" y2= "3243" />
  <line class="fil0 str0" x1="3781" y1="3243" x2="3779" y2= "3242" />
  <polyline class="fil0 str0" points="3779,2495 3778,2494 3776,2494 3774,2493 3772,2492 3770,2492 3769,2492 3767,2492 3765,2492 3764,2492 3762,2493 "/>
  <line class="fil0 str0" x1="1194" y1="1837" x2="1204" y2= "1838" />
  <line class="fil0 str0" x1="1191" y1="1840" x2="1201" y2= "1842" />
  <line class="fil0 str0" x1="1194" y1="2123" x2="1204" y2= "2124" />
  <line class="fil0 str0" x1="1191" y1="2126" x2="1201" y2= "2127" />
  <polyline class="fil0 str0" points="3759,2524 3758,2524 3758,2524 3757,2524 3757,2524 3756,2525 3756,2525 3755,2525 3755,2525 3755,2526 3754,2526 3754,2527 3754,2527 "/>
  <polyline class="fil0 str0" points="3765,2547 3766,2547 3767,2547 3767,2547 3768,2547 3768,2547 3768,2547 3769,2547 3769,2546 3770,2546 3770,2546 3770,2545 3770,2545 "/>
  <polyline class="fil0 str0" points="1797,3292 1799,3294 1801,3297 1803,3299 1806,3301 1808,3303 1810,3305 1813,3306 1815,3308 1818,3309 1820,3310 1822,3310 1825,3311 1827,3311 1829,3311 1831,3310 1833,3310 1835,3309 1837,3308 1838,3306 1839,3305 1840,3304 1841,3302 1842,3300 1843,3299 1843,3297 1844,3296 1844,3294 1844,3292 1844,3291 1844,3290 1844,3288 "/>
  <polyline class="fil0 str0" points="2714,3705 2717,3707 2719,3710 2721,3712 2723,3715 2725,3718 2727,3721 2729,3725 2730,3728 2732,3731 2733,3733 2734,3736 2735,3739 2735,3741 2736,3744 2736,3746 2737,3748 2737,3750 2737,3751 2737,3753 2737,3754 "/>
  <polyline class="fil0 str0" points="1866,3215 1868,3217 1870,3220 1873,3223 1875,3225 1877,3228 1879,3232 1880,3235 1882,3238 1883,3241 1884,3244 1885,3246 1886,3249 1887,3251 1887,3254 1888,3256 1888,3258 1888,3260 1888,3261 1889,3263 1889,3265 "/>
  <line class="fil0 str0" x1="1894" y1="2954" x2="1865" y2= "2938" />
  <line class="fil0 str0" x1="2742" y1="3444" x2="2714" y2= "3428" />
  <polyline class="fil0 str0" points="3779,3242 3778,3241 3776,3240 3774,3239 3772,3239 3770,3238 3769,3238 3767,3238 3765,3238 3764,3239 3762,3239 "/>
  <polyline class="fil0 str0" points="3759,3271 3758,3271 3758,3271 3757,3271 3757,3271 3756,3271 3756,3271 3755,3271 3755,3272 3755,3272 3754,3273 3754,3273 3754,3273 "/>
  <polyline class="fil0 str0" points="3765,3294 3766,3294 3767,3294 3767,3294 3768,3294 3768,3293 3768,3293 3769,3293 3769,3293 3770,3292 3770,3292 3770,3291 3770,3291 "/>
  <line class="fil0 str0" x1="3651" y1="4003" x2="2883" y2= "3560" />
  <line class="fil0 str0" x1="2072" y1="3121" x2="622" y2= "2283" />
  <line class="fil0 str0" x1="2864" y1="3578" x2="2057" y2= "3112" />
  <line class="fil0 str0" x1="3953" y1="4207" x2="2863" y2= "3578" />
  <line class="fil0 str0" x1="2865" y1="4041" x2="3954" y2= "4670" />
  <line class="fil0 str0" x1="2843" y1="4053" x2="1712" y2= "3400" />
  <polyline class="fil0 str0" points="622,2283 622,2281 622,2279 623,2278 625,2276 "/>
  <polyline class="fil0 str0" points="1133,2331 1133,2329 1134,2327 1134,2325 1135,2324 1136,2322 1137,2321 1138,2320 1139,2319 "/>
  <polyline class="fil0 str0" points="1133,2229 1133,2227 1134,2225 1134,2223 1135,2222 1136,2220 1137,2219 1138,2217 1139,2217 "/>
  <polyline class="fil0 str0" points="1133,2127 1133,2125 1134,2123 1134,2121 1135,2119 1136,2118 1137,2117 1138,2115 1139,2114 "/>
  <polyline class="fil0 str0" points="1133,2046 1133,2043 1134,2041 1134,2040 1135,2038 1136,2036 1137,2035 1138,2034 1139,2033 "/>
  <polyline class="fil0 str0" points="1133,1944 1133,1941 1134,1939 1134,1937 1135,1936 1136,1934 1137,1933 1138,1932 1139,1931 "/>
  <polyline class="fil0 str0" points="1133,1842 1133,1839 1134,1837 1134,1835 1135,1834 1136,1832 1137,1831 1138,1830 1139,1829 "/>
  <polyline class="fil0 str0" points="1133,1760 1133,1758 1134,1756 1134,1754 1135,1752 1136,1750 1137,1749 1138,1748 1139,1747 "/>
  <polyline class="fil0 str0" points="1133,1658 1133,1656 1134,1654 1134,1652 1135,1650 1136,1648 1137,1647 1138,1646 1139,1645 "/>
  <polyline class="fil0 str0" points="1133,1556 1133,1554 1134,1552 1134,1550 1135,1548 1136,1546 1137,1545 1138,1544 1139,1543 "/>
  <polyline class="fil0 str0" points="1133,1474 1133,1472 1134,1470 1134,1468 1135,1466 1136,1465 1137,1463 1138,1462 1139,1461 "/>
  <polyline class="fil0 str0" points="1133,1372 1133,1370 1134,1368 1134,1366 1135,1364 1136,1363 1137,1361 1138,1360 1139,1359 "/>
  <polyline class="fil0 str0" points="1133,1270 1133,1268 1134,1266 1134,1264 1135,1262 1136,1261 1137,1259 1138,1258 1139,1257 "/>
  <line class="fil0 str0" x1="1291" y1="3655" x2="1291" y2= "3685" />
  <line class="fil0 str0" x1="1204" y1="1267" x2="1204" y2= "1243" />
  <line class="fil0 str0" x1="1204" y1="1553" x2="1204" y2= "1528" />
  <line class="fil0 str0" x1="1204" y1="1838" x2="1204" y2= "1814" />
  <line class="fil0 str0" x1="1204" y1="2124" x2="1204" y2= "2100" />
  <line class="fil0 str0" x1="1201" y1="2127" x2="1201" y2= "2417" />
  <line class="fil0 str0" x1="1201" y1="1842" x2="1201" y2= "2100" />
  <line class="fil0 str0" x1="1201" y1="1556" x2="1201" y2= "1814" />
  <line class="fil0 str0" x1="1201" y1="1270" x2="1201" y2= "1528" />
  <line class="fil0 str0" x1="1201" y1="984" x2="1201" y2= "1243" />
  <line class="fil0 str0" x1="1194" y1="1265" x2="1194" y2= "1256" />
  <line class="fil0 str0" x1="1194" y1="1551" x2="1194" y2= "1542" />
  <line class="fil0 str0" x1="1194" y1="1837" x2="1194" y2= "1828" />
  <line class="fil0 str0" x1="1194" y1="2123" x2="1194" y2= "2114" />
  <line class="fil0 str0" x1="1191" y1="2126" x2="1191" y2= "2417" />
  <line class="fil0 str0" x1="1191" y1="1840" x2="1191" y2= "2114" />
  <line class="fil0 str0" x1="1191" y1="1554" x2="1191" y2= "1828" />
  <line class="fil0 str0" x1="1191" y1="1269" x2="1191" y2= "1542" />
  <line class="fil0 str0" x1="1191" y1="983" x2="1191" y2= "1256" />
  <line class="fil0 str0" x1="1169" y1="2101" x2="1169" y2= "2108" />
  <line class="fil0 str0" x1="1169" y1="1815" x2="1169" y2= "1822" />
  <line class="fil0 str0" x1="1169" y1="1529" x2="1169" y2= "1537" />
  <line class="fil0 str0" x1="1169" y1="1243" x2="1169" y2= "1251" />
  <line class="fil0 str0" x1="1164" y1="1253" x2="1164" y2= "1241" />
  <line class="fil0 str0" x1="1164" y1="1539" x2="1164" y2= "1527" />
  <line class="fil0 str0" x1="1164" y1="1825" x2="1164" y2= "1813" />
  <line class="fil0 str0" x1="1164" y1="2111" x2="1164" y2= "2098" />
  <line class="fil0 str0" x1="949" y1="2436" x2="949" y2= "2450" />
  <line class="fil0 str0" x1="938" y1="2432" x2="938" y2= "2450" />
  <line class="fil0 str0" x1="1809" y1="3217" x2="1809" y2= "3218" />
  <polyline class="fil0 str0" points="1781,3251 1781,3254 1781,3257 1782,3260 1782,3264 1783,3267 1784,3270 1786,3274 1787,3277 1789,3280 1791,3283 1792,3287 1794,3290 1797,3292 1799,3295 1801,3298 1804,3300 1806,3302 1809,3304 1811,3306 1814,3308 1817,3309 1819,3310 1822,3311 1824,3312 1827,3312 1829,3312 1832,3312 1834,3311 1836,3311 1838,3310 "/>
  <line class="fil0 str0" x1="1173" y1="1209" x2="1173" y2= "1211" />
  <line class="fil0 str0" x1="1173" y1="1291" x2="1173" y2= "1293" />
  <line class="fil0 str0" x1="1173" y1="1393" x2="1173" y2= "1395" />
  <line class="fil0 str0" x1="1173" y1="1495" x2="1173" y2= "1497" />
  <line class="fil0 str0" x1="1173" y1="1576" x2="1173" y2= "1579" />
  <line class="fil0 str0" x1="1173" y1="1678" x2="1173" y2= "1681" />
  <line class="fil0 str0" x1="1173" y1="1781" x2="1173" y2= "1783" />
  <line class="fil0 str0" x1="1173" y1="1862" x2="1173" y2= "1865" />
  <line class="fil0 str0" x1="1144" y1="1266" x2="1144" y2= "1264" />
  <line class="fil0 str0" x1="1173" y1="1964" x2="1173" y2= "1967" />
  <line class="fil0 str0" x1="1144" y1="1368" x2="1144" y2= "1366" />
  <line class="fil0 str0" x1="1173" y1="2066" x2="1173" y2= "2069" />
  <line class="fil0 str0" x1="1173" y1="2148" x2="1173" y2= "2150" />
  <line class="fil0 str0" x1="1144" y1="1470" x2="1144" y2= "1468" />
  <line class="fil0 str0" x1="1802" y1="1526" x2="1803" y2= "1529" />
  <line class="fil0 str0" x1="1792" y1="1520" x2="1792" y2= "1523" />
  <line class="fil0 str0" x1="1802" y1="1812" x2="1803" y2= "1814" />
  <line class="fil0 str0" x1="1792" y1="1806" x2="1792" y2= "1808" />
  <line class="fil0 str0" x1="1763" y1="1554" x2="1763" y2= "1552" />
  <line class="fil0 str0" x1="1763" y1="1840" x2="1763" y2= "1837" />
  <line class="fil0 str0" x1="1918" y1="3274" x2="1917" y2= "3264" />
  <line class="fil0 str0" x1="1810" y1="3206" x2="1810" y2= "3207" />
  <line class="fil0 str0" x1="1805" y1="3209" x2="1805" y2= "3220" />
  <line class="fil0 str0" x1="1914" y1="3264" x2="1914" y2= "3259" />
  <polyline class="fil0 str0" points="1291,3655 1292,3658 1293,3662 1295,3666 1298,3669 1301,3672 1306,3675 "/>
  <line class="fil0 str0" x1="1914" y1="3259" x2="1913" y2= "3254" />
  <line class="fil0 str0" x1="1145" y1="1271" x2="1144" y2= "1266" />
  <line class="fil0 str0" x1="1145" y1="1373" x2="1144" y2= "1368" />
  <line class="fil0 str0" x1="1145" y1="1475" x2="1144" y2= "1470" />
  <line class="fil0 str0" x1="1145" y1="1557" x2="1144" y2= "1552" />
  <line class="fil0 str0" x1="1145" y1="1659" x2="1144" y2= "1654" />
  <polyline class="fil0 str0" points="1917,3264 1915,3254 1913,3244 1909,3234 1904,3223 1898,3213 "/>
  <line class="fil0 str0" x1="1913" y1="3255" x2="1912" y2= "3250" />
  <polyline class="fil0 str0" points="2761,3741 2760,3736 2758,3732 "/>
  <line class="fil0 str0" x1="1790" y1="1515" x2="1792" y2= "1520" />
  <line class="fil0 str0" x1="1764" y1="1560" x2="1763" y2= "1554" />
  <line class="fil0 str0" x1="1790" y1="1800" x2="1792" y2= "1806" />
  <line class="fil0 str0" x1="1764" y1="1845" x2="1763" y2= "1840" />
  <line class="fil0 str0" x1="3804" y1="3270" x2="3803" y2= "3268" />
  <line class="fil0 str0" x1="3803" y1="2521" x2="3801" y2= "2517" />
  <line class="fil0 str0" x1="3803" y1="3268" x2="3801" y2= "3263" />
  <line class="fil0 str0" x1="3801" y1="2517" x2="3800" y2= "2514" />
  <path class="fil0 str0" d="M3954 4670c5,3 15,2 22,-2"/>
  <line class="fil0 str0" x1="3975" y1="4668" x2="4848" y2= "4164" />
  <line class="fil0 str0" x1="2714" y1="3672" x2="2713" y2= "3673" />
  <polyline class="fil0 str0" points="2695,3319 2698,3318 2701,3317 2704,3317 2708,3318 2711,3319 2715,3321 2718,3323 2722,3326 2725,3329 2728,3333 2731,3337 2734,3341 2736,3346 2738,3350 2740,3355 2741,3359 2742,3364 2742,3368 "/>
  <polyline class="fil0 str0" points="3762,3239 3764,3238 3765,3238 3767,3237 3768,3237 3770,3237 3772,3237 3773,3238 3775,3238 3777,3239 3779,3240 3781,3241 "/>
  <line class="fil0 str0" x1="2673" y1="3661" x2="2670" y2= "3662" />
  <polyline class="fil0 str0" points="2437,4318 2432,4321 2427,4323 2421,4324 2415,4326 2408,4326 2402,4326 2395,4326 2389,4326 2383,4324 2377,4323 2371,4321 2366,4318 "/>
  <polyline class="fil0 str0" points="2349,4207 2345,4209 2341,4210 2336,4212 2331,4213 2326,4213 2321,4213 2316,4213 2311,4213 2306,4212 2302,4210 2298,4209 2294,4207 2291,4205 2288,4202 2286,4200 2284,4197 2283,4194 2283,4191 "/>
  <polyline class="fil0 str0" points="2451,4115 2455,4113 2459,4111 2464,4110 2469,4109 2474,4109 2479,4108 2484,4109 2489,4109 2493,4110 2498,4111 2502,4113 "/>
  <polyline class="fil0 str0" points="2451,4084 2455,4083 2459,4081 2464,4080 2469,4079 2474,4078 2479,4078 2484,4078 2489,4079 2493,4080 2498,4081 2502,4083 2506,4084 2509,4087 2512,4089 2514,4092 2516,4094 2517,4097 2517,4100 "/>
  <polyline class="fil0 str0" points="3798,3304 3796,3305 3794,3306 3792,3307 3790,3308 3788,3308 3786,3308 3783,3308 3781,3308 3779,3308 3776,3307 3774,3307 3772,3306 3769,3305 3767,3304 "/>
  <line class="fil0 str0" x1="2437" y1="4318" x2="2843" y2= "4083" />
  <line class="fil0 str0" x1="2437" y1="4287" x2="2843" y2= "4053" />
  <line class="fil0 str0" x1="2349" y1="4207" x2="2506" y2= "4116" />
  <line class="fil0 str0" x1="2451" y1="4115" x2="2294" y2= "4206" />
  <line class="fil0 str0" x1="2451" y1="4084" x2="2294" y2= "4175" />
  <line class="fil0 str0" x1="3798" y1="3304" x2="3800" y2= "3304" />
  <line class="fil0 str0" x1="3759" y1="3293" x2="3765" y2= "3289" />
  <line class="fil0 str0" x1="3765" y1="3288" x2="3772" y2= "3284" />
  <line class="fil0 str0" x1="3759" y1="3284" x2="3765" y2= "3280" />
  <line class="fil0 str0" x1="964" y1="2436" x2="967" y2= "2435" />
  <line class="fil0 str0" x1="1865" y1="3182" x2="1864" y2= "3183" />
  <polyline class="fil0 str0" points="2563,3151 2566,3150 2569,3149 2572,3149 2576,3150 2579,3151 2583,3153 "/>
  <polyline class="fil0 str0" points="1847,2829 1850,2828 1853,2827 1856,2827 1859,2828 1863,2829 1866,2831 1870,2833 1873,2836 1877,2839 1880,2843 1883,2847 1886,2851 1888,2856 1890,2860 1891,2865 1893,2870 1893,2874 1894,2878 "/>
  <polyline class="fil0 str0" points="3762,2493 3764,2492 3765,2492 3767,2491 3768,2491 3770,2491 3772,2491 3773,2492 3775,2492 3777,2493 3779,2494 3781,2495 "/>
  <line class="fil0 str0" x1="1824" y1="3171" x2="1821" y2= "3172" />
  <polyline class="fil0 str0" points="1500,3717 1496,3719 1492,3721 1487,3722 1483,3723 1478,3723 1473,3724 1468,3723 1463,3723 1458,3722 1453,3721 1449,3719 1445,3717 1442,3715 1439,3712 1437,3710 1435,3707 1434,3704 1434,3701 "/>
  <polyline class="fil0 str0" points="1603,3625 1607,3623 1611,3622 1615,3620 1620,3619 1625,3619 1630,3619 1635,3619 1640,3619 1645,3620 1649,3622 1654,3623 "/>
  <polyline class="fil0 str0" points="1603,3595 1607,3593 1611,3591 1615,3590 1620,3589 1625,3588 1630,3588 1635,3588 1640,3589 1645,3590 1649,3591 1654,3593 1657,3595 1661,3597 1664,3599 1666,3602 1667,3605 1668,3607 1669,3610 "/>
  <polyline class="fil0 str0" points="3798,2558 3796,2559 3794,2560 3792,2561 3790,2561 3788,2562 3786,2562 3783,2562 3781,2562 3779,2562 3776,2561 3774,2561 3772,2560 3769,2559 3767,2558 "/>
  <line class="fil0 str0" x1="3759" y1="3276" x2="3766" y2= "3272" />
  <line class="fil0 str0" x1="3751" y1="3279" x2="3758" y2= "3276" />
  <line class="fil0 str0" x1="3761" y1="3240" x2="3762" y2= "3239" />
  <line class="fil0 str0" x1="2748" y1="3789" x2="2741" y2= "3794" />
  <line class="fil0 str0" x1="2727" y1="3776" x2="2686" y2= "3800" />
  <line class="fil0 str0" x1="2661" y1="3783" x2="2678" y2= "3773" />
  <line class="fil0 str0" x1="2644" y1="3761" x2="2667" y2= "3749" />
  <line class="fil0 str0" x1="2731" y1="3684" x2="2729" y2= "3685" />
  <line class="fil0 str0" x1="2681" y1="3695" x2="2640" y2= "3718" />
  <line class="fil0 str0" x1="2680" y1="3670" x2="2672" y2= "3674" />
  <line class="fil0 str0" x1="3798" y1="2558" x2="3800" y2= "2557" />
  <line class="fil0 str0" x1="3759" y1="2547" x2="3765" y2= "2543" />
  <line class="fil0 str0" x1="3765" y1="2542" x2="3772" y2= "2538" />
  <line class="fil0 str0" x1="3759" y1="2538" x2="3765" y2= "2534" />
  <line class="fil0 str0" x1="3759" y1="2530" x2="3766" y2= "2526" />
  <line class="fil0 str0" x1="3751" y1="2533" x2="3758" y2= "2529" />
  <line class="fil0 str0" x1="3761" y1="2494" x2="3762" y2= "2493" />
  <polyline class="fil0 str0" points="2843,4083 2849,4080 2854,4076 2858,4071 2863,4066 2867,4060 2871,4054 "/>
  <polyline class="fil0 str0" points="2843,4053 2845,4052 2847,4051 2848,4049 2850,4047 2851,4045 2852,4043 2854,4041 2854,4039 2855,4037 2856,4035 2856,4033 "/>
  <line class="fil0 str0" x1="2293" y1="4206" x2="2294" y2= "4206" />
  <polyline class="fil0 str0" points="2748,3789 2751,3788 2753,3786 2755,3784 2757,3781 2758,3778 2760,3775 2761,3772 2762,3769 2762,3765 2763,3762 "/>
  <polyline class="fil0 str0" points="2741,3794 2743,3792 2745,3790 2747,3788 2749,3786 2751,3783 2752,3780 2753,3777 2754,3773 2754,3770 2755,3766 2755,3762 "/>
  <polyline class="fil0 str0" points="2672,3674 2670,3676 2667,3678 2665,3680 2664,3682 2662,3685 2661,3689 "/>
  <line class="fil0 str0" x1="2750" y1="3801" x2="2752" y2= "3799" />
  <polyline class="fil0 str0" points="2670,3662 2667,3664 2662,3668 2658,3674 2655,3682 2654,3690 "/>
  <polyline class="fil0 str0" points="2640,3718 2638,3720 2636,3721 2635,3723 2633,3725 2632,3727 2631,3729 2630,3732 2630,3735 2629,3738 2629,3741 "/>
  <line class="fil0 str0" x1="3800" y1="3304" x2="3802" y2= "3302" />
  <polyline class="fil0 str0" points="1762,2691 1765,2689 1769,2688 1773,2689 1777,2689 1782,2691 1787,2693 "/>
  <polyline class="fil0 str0" points="1027,2985 1019,2988 1010,2992 999,2995 988,2997 977,2999 966,3000 954,3001 943,3001 931,3000 920,2999 909,2997 898,2995 888,2992 878,2988 869,2984 860,2980 "/>
  <line class="fil0 str0" x1="2563" y1="3151" x2="2536" y2= "3166" />
  <line class="fil0 str0" x1="1500" y1="3717" x2="1657" y2= "3626" />
  <line class="fil0 str0" x1="1603" y1="3625" x2="1445" y2= "3716" />
  <line class="fil0 str0" x1="1603" y1="3595" x2="1445" y2= "3685" />
  <line class="fil0 str0" x1="1900" y1="3299" x2="1892" y2= "3304" />
  <line class="fil0 str0" x1="1306" y1="3634" x2="1712" y2= "3400" />
  <line class="fil0 str0" x1="1879" y1="3286" x2="1838" y2= "3310" />
  <line class="fil0 str0" x1="1718" y1="3376" x2="1715" y2= "3377" />
  <line class="fil0 str0" x1="1813" y1="3293" x2="1830" y2= "3283" />
  <line class="fil0 str0" x1="1796" y1="3272" x2="1818" y2= "3259" />
  <line class="fil0 str0" x1="1883" y1="3194" x2="1881" y2= "3195" />
  <line class="fil0 str0" x1="1832" y1="3205" x2="1791" y2= "3229" />
  <line class="fil0 str0" x1="1831" y1="3180" x2="1823" y2= "3185" />
  <line class="fil0 str0" x1="2768" y1="2478" x2="3651" y2= "1968" />
  <polyline class="fil0 str0" points="1712,3400 1714,3399 1715,3397 1717,3396 1718,3394 1720,3392 1721,3390 1722,3388 1723,3386 1724,3384 1724,3382 1725,3380 "/>
  <line class="fil0 str0" x1="1445" y1="3717" x2="1445" y2= "3716" />
  <polyline class="fil0 str0" points="1306,3634 1301,3637 1298,3640 1295,3644 1293,3647 1292,3651 1291,3655 "/>
  <polyline class="fil0 str0" points="1900,3299 1902,3298 1904,3296 1906,3294 1908,3291 1910,3288 1911,3286 1912,3282 1913,3279 1914,3275 1914,3272 "/>
  <polyline class="fil0 str0" points="1892,3304 1895,3302 1897,3300 1899,3298 1900,3296 1902,3293 1903,3290 1904,3287 1905,3283 1906,3280 1906,3276 1906,3272 "/>
  <line class="fil0 str0" x1="1901" y1="3311" x2="1904" y2= "3309" />
  <line class="fil0 str0" x1="3800" y1="2557" x2="3802" y2= "2555" />
  <line class="fil0 str0" x1="625" y1="2270" x2="627" y2= "2269" />
  <polyline class="fil0 str0" points="1167,2367 1166,2368 1164,2368 1162,2369 1161,2369 1159,2368 1157,2368 1155,2367 1153,2366 1151,2365 1149,2363 1147,2362 "/>
  <polyline class="fil0 str0" points="1139,2319 1140,2318 1142,2317 1144,2317 1145,2317 "/>
  <polyline class="fil0 str0" points="1167,2265 1166,2266 1164,2266 1162,2267 1161,2266 1159,2266 1157,2266 1155,2265 1153,2264 1151,2263 1149,2261 1147,2260 "/>
  <polyline class="fil0 str0" points="1139,2217 1140,2216 1142,2215 1144,2215 1145,2215 "/>
  <polyline class="fil0 str0" points="1167,2163 1166,2164 1164,2164 1162,2164 1161,2164 1159,2164 1157,2164 1155,2163 1153,2162 1151,2161 1149,2159 1147,2157 "/>
  <polyline class="fil0 str0" points="1139,2114 1140,2114 1142,2113 1144,2113 1145,2113 "/>
  <polyline class="fil0 str0" points="1167,2082 1166,2082 1164,2083 1162,2083 1161,2083 1159,2082 "/>
  <polyline class="fil0 str0" points="1139,2033 1140,2032 1142,2032 1144,2032 1145,2032 "/>
  <polyline class="fil0 str0" points="1167,1979 1166,1980 1164,1981 1162,1981 1161,1981 1159,1980 1157,1980 1155,1979 1153,1978 1151,1977 1149,1975 1147,1974 "/>
  <polyline class="fil0 str0" points="1139,1931 1140,1930 1142,1930 1144,1929 1145,1930 "/>
  <polyline class="fil0 str0" points="1167,1877 1166,1878 1164,1878 1162,1879 1161,1879 1159,1878 1157,1878 1155,1877 1153,1876 1151,1875 1149,1873 1147,1872 "/>
  <polyline class="fil0 str0" points="1139,1829 1140,1828 1142,1828 1144,1827 1145,1827 "/>
  <polyline class="fil0 str0" points="1167,1796 1166,1796 1164,1797 1162,1797 1161,1797 1159,1797 "/>
  <polyline class="fil0 str0" points="1139,1747 1140,1746 1142,1746 1144,1746 1145,1746 "/>
  <polyline class="fil0 str0" points="1167,1694 1166,1694 1164,1695 1162,1695 1161,1695 1159,1695 1157,1694 1155,1693 1153,1692 1151,1691 1149,1690 1147,1688 "/>
  <line class="fil0 str0" x1="967" y1="2435" x2="971" y2= "2434" />
  <line class="fil0 str0" x1="1735" y1="2706" x2="1762" y2= "2691" />
  <line class="fil0 str0" x1="1210" y1="2411" x2="1196" y2= "2420" />
  <line class="fil0 str0" x1="1823" y1="1955" x2="1737" y2= "2004" />
  <line class="fil0 str0" x1="944" y1="2453" x2="949" y2= "2450" />
  <line class="fil0 str0" x1="1095" y1="2362" x2="971" y2= "2434" />
  <line class="fil0 str0" x1="1724" y1="1998" x2="1733" y2= "1992" />
  <polyline class="fil0 str0" points="1823,3185 1821,3186 1819,3188 1817,3190 1815,3193 1813,3195 1812,3199 "/>
  <polyline class="fil0 str0" points="1821,3172 1818,3174 1814,3179 1810,3185 1807,3192 1805,3200 "/>
  <polyline class="fil0 str0" points="1791,3229 1789,3230 1788,3231 1786,3233 1785,3235 1783,3237 1782,3240 1782,3242 1781,3245 1781,3248 1781,3251 "/>
  <polyline class="fil0 str0" points="2536,3166 2534,3168 2532,3170 2530,3173 2529,3177 2528,3180 2528,3185 "/>
  <line class="fil0 str0" x1="2727" y1="3776" x2="2732" y2= "3771" />
  <line class="fil0 str0" x1="2752" y1="3799" x2="2757" y2= "3794" />
  <line class="fil0 str0" x1="2672" y1="3661" x2="2667" y2= "3666" />
  <polyline class="fil0 str0" points="1139,1645 1140,1644 1142,1644 1144,1644 1145,1644 "/>
  <polyline class="fil0 str0" points="1167,1592 1166,1592 1164,1593 1162,1593 1161,1593 1159,1593 1157,1592 1155,1591 1153,1590 1151,1589 1149,1588 1147,1586 "/>
  <polyline class="fil0 str0" points="1139,1543 1140,1542 1142,1542 1144,1542 1145,1542 "/>
  <polyline class="fil0 str0" points="1167,1510 1166,1511 1164,1511 1162,1511 1161,1511 1159,1511 "/>
  <polyline class="fil0 str0" points="1139,1461 1140,1461 1142,1460 1144,1460 1145,1460 "/>
  <polyline class="fil0 str0" points="1167,1408 1166,1409 1164,1409 1162,1409 1161,1409 1159,1409 1157,1408 1155,1408 1153,1406 1151,1405 1149,1404 1147,1402 "/>
  <polyline class="fil0 str0" points="1139,1359 1140,1359 1142,1358 1144,1358 1145,1358 "/>
  <polyline class="fil0 str0" points="1167,1306 1166,1307 1164,1307 1162,1307 1161,1307 1159,1307 1157,1306 1155,1305 1153,1304 1151,1303 1149,1302 1147,1300 "/>
  <polyline class="fil0 str0" points="1139,1257 1140,1256 1142,1256 1144,1256 1145,1256 "/>
  <polyline class="fil0 str0" points="1167,1224 1166,1225 1164,1225 1162,1225 1161,1225 1159,1225 "/>
  <line class="fil0 str0" x1="1164" y1="2111" x2="1169" y2= "2108" />
  <line class="fil0 str0" x1="1828" y1="1643" x2="2018" y2= "1534" />
  <line class="fil0 str0" x1="1164" y1="1825" x2="1169" y2= "1822" />
  <line class="fil0 str0" x1="1164" y1="1539" x2="1169" y2= "1537" />
  <line class="fil0 str0" x1="1168" y1="2366" x2="1167" y2= "2367" />
  <line class="fil0 str0" x1="1168" y1="2264" x2="1167" y2= "2265" />
  <polyline class="fil0 str0" points="1735,2706 1732,2708 1730,2711 1728,2715 1726,2719 1725,2724 1725,2729 "/>
  <line class="fil0 str0" x1="1879" y1="3286" x2="1884" y2= "3282" />
  <line class="fil0 str0" x1="1904" y1="3309" x2="1909" y2= "3304" />
  <line class="fil0 str0" x1="1824" y1="3171" x2="1819" y2= "3176" />
  <line class="fil0 str0" x1="1164" y1="1253" x2="1169" y2= "1251" />
  <line class="fil0 str0" x1="1168" y1="2162" x2="1167" y2= "2163" />
  <line class="fil0 str0" x1="1168" y1="2081" x2="1167" y2= "2082" />
  <line class="fil0 str0" x1="1168" y1="1979" x2="1167" y2= "1979" />
  <line class="fil0 str0" x1="1168" y1="1876" x2="1167" y2= "1877" />
  <line class="fil0 str0" x1="1168" y1="1795" x2="1167" y2= "1796" />
  <line class="fil0 str0" x1="1168" y1="1693" x2="1167" y2= "1694" />
  <line class="fil0 str0" x1="1168" y1="1591" x2="1167" y2= "1592" />
  <line class="fil0 str0" x1="1168" y1="1509" x2="1167" y2= "1510" />
  <line class="fil0 str0" x1="1168" y1="1407" x2="1167" y2= "1408" />
  <polyline class="fil0 str0" points="1788,1845 1787,1846 1785,1848 1783,1849 1781,1850 1779,1851 1777,1851 1775,1851 1773,1852 1772,1851 1770,1851 1769,1850 "/>
  <line class="fil0 str0" x1="2732" y1="3771" x2="2734" y2= "3769" />
  <line class="fil0 str0" x1="3802" y1="3302" x2="3806" y2= "3296" />
  <line class="fil0 str0" x1="3802" y1="2555" x2="3806" y2= "2550" />
  <line class="fil0 str0" x1="1168" y1="1305" x2="1167" y2= "1306" />
  <line class="fil0 str0" x1="1168" y1="1223" x2="1167" y2= "1224" />
  <polyline class="fil0 str0" points="612,2260 610,2262 609,2263 609,2264 "/>
  <polyline class="fil0 str0" points="1788,1559 1787,1560 1785,1562 1783,1563 1781,1564 1779,1565 1777,1565 1775,1566 1773,1566 1772,1566 1770,1565 1769,1564 "/>
  <polyline class="fil0 str0" points="1780,1837 1778,1838 1776,1840 1774,1841 1772,1843 1770,1844 1768,1845 1766,1845 "/>
  <polyline class="fil0 str0" points="1775,1809 1777,1807 1779,1806 1781,1804 1783,1803 1785,1802 1787,1801 1788,1801 1790,1800 1790,1800 "/>
  <polyline class="fil0 str0" points="1780,1551 1778,1553 1776,1554 1774,1556 1772,1557 1770,1558 1768,1559 1766,1559 "/>
  <polyline class="fil0 str0" points="1775,1523 1777,1522 1779,1520 1781,1518 1783,1517 1785,1516 1787,1515 1788,1515 1790,1515 1790,1515 "/>
  <polyline class="fil0 str0" points="2757,3794 2761,3788 2764,3781 2766,3773 2766,3764 "/>
  <line class="fil0 str0" x1="2667" y1="3666" x2="2663" y2= "3672" />
  <line class="fil0 str0" x1="2871" y1="4054" x2="2873" y2= "4050" />
  <polyline class="fil0 str0" points="625,2276 626,2274 627,2273 629,2273 630,2273 631,2273 "/>
  <line class="fil0 str0" x1="1794" y1="1839" x2="1788" y2= "1845" />
  <line class="fil0 str0" x1="1794" y1="1553" x2="1788" y2= "1559" />
  <line class="fil0 str0" x1="1204" y1="2124" x2="1201" y2= "2127" />
  <line class="fil0 str0" x1="1194" y1="2123" x2="1191" y2= "2126" />
  <line class="fil0 str0" x1="1204" y1="1838" x2="1201" y2= "1842" />
  <line class="fil0 str0" x1="1194" y1="1837" x2="1191" y2= "1840" />
  <line class="fil0 str0" x1="1884" y1="3282" x2="1885" y2= "3280" />
  <polyline class="fil0 str0" points="1909,3304 1913,3298 1915,3291 1917,3283 1918,3274 "/>
  <line class="fil0 str0" x1="1819" y1="3176" x2="1815" y2= "3182" />
  <polyline class="fil0 str0" points="2734,3769 2735,3767 2736,3765 2737,3762 2737,3760 2738,3757 2738,3754 "/>
  <polyline class="fil0 str0" points="3806,3296 3806,3294 3807,3293 3807,3291 3807,3289 3807,3287 3807,3285 "/>
  <line class="fil0 str0" x1="1204" y1="1553" x2="1201" y2= "1556" />
  <line class="fil0 str0" x1="1194" y1="1551" x2="1191" y2= "1554" />
  <line class="fil0 str0" x1="1204" y1="1267" x2="1201" y2= "1270" />
  <line class="fil0 str0" x1="1194" y1="1265" x2="1191" y2= "1269" />
  <line class="fil0 str0" x1="1171" y1="2362" x2="1168" y2= "2366" />
  <line class="fil0 str0" x1="1171" y1="2260" x2="1168" y2= "2264" />
  <line class="fil0 str0" x1="1171" y1="2158" x2="1168" y2= "2162" />
  <line class="fil0 str0" x1="1171" y1="2077" x2="1168" y2= "2081" />
  <line class="fil0 str0" x1="1171" y1="1975" x2="1168" y2= "1979" />
  <line class="fil0 str0" x1="1171" y1="1873" x2="1168" y2= "1876" />
  <line class="fil0 str0" x1="1171" y1="1791" x2="1168" y2= "1795" />
  <line class="fil0 str0" x1="1171" y1="1689" x2="1168" y2= "1693" />
  <line class="fil0 str0" x1="1171" y1="1587" x2="1168" y2= "1591" />
  <line class="fil0 str0" x1="1786" y1="1828" x2="1780" y2= "1837" />
  <line class="fil0 str0" x1="1786" y1="1542" x2="1780" y2= "1551" />
  <polyline class="fil0 str0" points="1885,3280 1886,3277 1887,3275 1888,3272 1889,3270 1889,3267 1889,3264 "/>
  <polyline class="fil0 str0" points="2663,3672 2660,3679 2659,3687 2658,3696 "/>
  <polyline class="fil0 str0" points="3806,2550 3806,2548 3807,2546 3807,2544 3807,2542 3807,2540 3807,2538 "/>
  <line class="fil0 str0" x1="1171" y1="1505" x2="1168" y2= "1509" />
  <line class="fil0 str0" x1="1171" y1="1403" x2="1168" y2= "1407" />
  <line class="fil0 str0" x1="1171" y1="1301" x2="1168" y2= "1305" />
  <line class="fil0 str0" x1="1171" y1="1219" x2="1168" y2= "1223" />
  <line class="fil0 str0" x1="2661" y1="3688" x2="2660" y2= "3692" />
  <line class="fil0 str0" x1="1791" y1="1815" x2="1786" y2= "1828" />
  <polyline class="fil0 str0" points="1815,3182 1812,3189 1810,3197 1810,3206 "/>
  <line class="fil0 str0" x1="1812" y1="3198" x2="1811" y2= "3202" />
  <line class="fil0 str0" x1="2660" y1="3691" x2="2658" y2= "3698" />
  <line class="fil0 str0" x1="3766" y1="3271" x2="3766" y2= "3272" />
  <line class="fil0 str0" x1="3766" y1="2525" x2="3766" y2= "2526" />
  <polyline class="fil0 str0" points="4086,4668 4086,4671 4085,4678 4083,4684 4079,4691 4075,4697 4070,4703 4064,4708 4057,4714 4049,4719 4041,4723 4032,4727 4022,4731 4011,4734 4001,4736 3990,4738 3978,4739 3967,4740 3955,4740 3944,4739 3932,4738 3921,4736 3910,4734 3900,4731 3890,4727 3881,4723 3873,4719 "/>
  <polyline class="fil0 str0" points="4086,4606 4086,4610 4085,4616 4083,4623 4079,4629 4075,4636 4070,4642 4064,4647 4057,4653 4049,4658 4041,4662 4032,4666 4022,4670 4011,4672 "/>
  <line class="fil0 str0" x1="1791" y1="1530" x2="1786" y2= "1542" />
  <line class="fil0 str0" x1="2658" y1="3697" x2="2658" y2= "3699" />
  <line class="fil0 str0" x1="3759" y1="3271" x2="3759" y2= "3267" />
  <line class="fil0 str0" x1="3759" y1="2524" x2="3759" y2= "2521" />
  <line class="fil0 str0" x1="3766" y1="3272" x2="3765" y2= "3274" />
  <line class="fil0 str0" x1="3766" y1="2526" x2="3765" y2= "2528" />
  <line class="fil0 str0" x1="4086" y1="4665" x2="4086" y2= "4604" />
  <line class="fil0 str0" x1="3954" y1="4670" x2="3954" y2= "4202" />
  <line class="fil0 str0" x1="3836" y1="4668" x2="3836" y2= "4600" />
  <line class="fil0 str0" x1="3773" y1="3285" x2="3773" y2= "3292" />
  <line class="fil0 str0" x1="3773" y1="2538" x2="3773" y2= "2546" />
  <line class="fil0 str0" x1="3768" y1="3282" x2="3768" y2= "3286" />
  <line class="fil0 str0" x1="3768" y1="2535" x2="3768" y2= "2540" />
  <line class="fil0 str0" x1="3765" y1="2547" x2="3765" y2= "2542" />
  <line class="fil0 str0" x1="3765" y1="2534" x2="3765" y2= "2528" />
  <line class="fil0 str0" x1="3765" y1="3294" x2="3765" y2= "3288" />
  <line class="fil0 str0" x1="3765" y1="3280" x2="3765" y2= "3274" />
  <line class="fil0 str0" x1="3759" y1="3271" x2="3759" y2= "3276" />
  <line class="fil0 str0" x1="3759" y1="3284" x2="3759" y2= "3290" />
  <line class="fil0 str0" x1="3759" y1="2524" x2="3759" y2= "2530" />
  <line class="fil0 str0" x1="3759" y1="2538" x2="3759" y2= "2544" />
  <line class="fil0 str0" x1="3751" y1="2533" x2="3751" y2= "2525" />
  <line class="fil0 str0" x1="3751" y1="3279" x2="3751" y2= "3272" />
  <polyline class="fil0 str0" points="1802,1822 1801,1824 1800,1827 1799,1829 1798,1832 1797,1834 1795,1836 1794,1839 "/>
  <polyline class="fil0 str0" points="1802,1536 1801,1538 1800,1541 1799,1543 1798,1546 1797,1548 1795,1551 1794,1553 "/>
  <line class="fil0 str0" x1="1811" y1="3201" x2="1810" y2= "3208" />
  <line class="fil0 str0" x1="1810" y1="3207" x2="1810" y2= "3209" />
  <polyline class="fil0 str0" points="2517,4100 2517,4103 2516,4106 2514,4109 2512,4111 2509,4114 2506,4116 "/>
  <polyline class="fil0 str0" points="2283,4191 2283,4188 2284,4185 2286,4183 2288,4180 2291,4178 2294,4175 "/>
  <line class="fil0 str0" x1="2654" y1="3690" x2="2653" y2= "3699" />
  <line class="fil0 str0" x1="2658" y1="3698" x2="2658" y2= "3706" />
  <line class="fil0 str0" x1="2714" y1="3321" x2="2714" y2= "3320" />
  <polyline class="fil0 str0" points="2687,3337 2688,3333 2688,3329 2690,3326 2691,3323 2693,3321 2695,3319 "/>
  <line class="fil0 str0" x1="2763" y1="3762" x2="2763" y2= "3758" />
  <line class="fil0 str0" x1="3651" y1="1412" x2="3651" y2= "4033" />
  <polyline class="fil0 str0" points="3836,4606 3836,4610 3837,4616 3839,4623 3842,4629 3847,4636 3852,4642 3858,4647 3865,4653 3873,4658 "/>
  <polyline class="fil0 str0" points="3836,4668 3836,4671 3837,4678 3839,4684 3842,4691 3847,4697 3852,4703 3858,4708 3865,4714 3873,4719 "/>
  <line class="fil0 str0" x1="3765" y1="2547" x2="3766" y2= "2551" />
  <line class="fil0 str0" x1="3759" y1="2547" x2="3759" y2= "2544" />
  <line class="fil0 str0" x1="3765" y1="3294" x2="3766" y2= "3297" />
  <line class="fil0 str0" x1="3759" y1="3293" x2="3759" y2= "3290" />
  <line class="fil0 str0" x1="3807" y1="2538" x2="3806" y2= "2533" />
  <line class="fil0 str0" x1="3807" y1="3285" x2="3806" y2= "3279" />
  <line class="fil0 str0" x1="1173" y1="2354" x2="1171" y2= "2362" />
  <line class="fil0 str0" x1="1173" y1="2252" x2="1171" y2= "2260" />
  <line class="fil0 str0" x1="1144" y1="2325" x2="1145" y2= "2317" />
  <line class="fil0 str0" x1="1173" y1="2150" x2="1171" y2= "2158" />
  <line class="fil0 str0" x1="1144" y1="2223" x2="1145" y2= "2215" />
  <line class="fil0 str0" x1="1173" y1="2069" x2="1171" y2= "2077" />
  <line class="fil0 str0" x1="1144" y1="2121" x2="1145" y2= "2113" />
  <line class="fil0 str0" x1="1173" y1="1967" x2="1171" y2= "1975" />
  <line class="fil0 str0" x1="1144" y1="2040" x2="1145" y2= "2032" />
  <line class="fil0 str0" x1="1173" y1="1865" x2="1171" y2= "1873" />
  <line class="fil0 str0" x1="1144" y1="1938" x2="1145" y2= "1930" />
  <line class="fil0 str0" x1="1173" y1="1783" x2="1171" y2= "1791" />
  <line class="fil0 str0" x1="1144" y1="1835" x2="1145" y2= "1827" />
  <line class="fil0 str0" x1="1173" y1="1681" x2="1171" y2= "1689" />
  <line class="fil0 str0" x1="1144" y1="1754" x2="1145" y2= "1746" />
  <line class="fil0 str0" x1="1173" y1="1579" x2="1171" y2= "1587" />
  <line class="fil0 str0" x1="1144" y1="1652" x2="1145" y2= "1644" />
  <line class="fil0 str0" x1="1173" y1="1497" x2="1171" y2= "1505" />
  <line class="fil0 str0" x1="1144" y1="1550" x2="1145" y2= "1542" />
  <line class="fil0 str0" x1="1173" y1="1395" x2="1171" y2= "1403" />
  <line class="fil0 str0" x1="1144" y1="1468" x2="1145" y2= "1460" />
  <line class="fil0 str0" x1="1173" y1="1293" x2="1171" y2= "1301" />
  <line class="fil0 str0" x1="1144" y1="1366" x2="1145" y2= "1358" />
  <line class="fil0 str0" x1="1173" y1="1211" x2="1171" y2= "1219" />
  <line class="fil0 str0" x1="1144" y1="1264" x2="1145" y2= "1256" />
  <line class="fil0 str0" x1="1803" y1="1814" x2="1802" y2= "1822" />
  <line class="fil0 str0" x1="1792" y1="1808" x2="1791" y2= "1815" />
  <line class="fil0 str0" x1="1803" y1="1529" x2="1802" y2= "1536" />
  <line class="fil0 str0" x1="1792" y1="1523" x2="1791" y2= "1530" />
  <polyline class="fil0 str0" points="1669,3610 1668,3613 1667,3616 1666,3619 1664,3621 1661,3624 1657,3626 "/>
  <polyline class="fil0 str0" points="1434,3701 1434,3698 1435,3695 1437,3693 1439,3690 1442,3688 1445,3685 "/>
  <polyline class="fil0 str0" points="1828,1947 1828,1948 1828,1949 1827,1950 1827,1951 1826,1952 1825,1953 1823,1954 1822,1955 "/>
  <line class="fil0 str0" x1="1805" y1="3200" x2="1805" y2= "3209" />
  <line class="fil0 str0" x1="1810" y1="3208" x2="1809" y2= "3216" />
  <line class="fil0 str0" x1="1865" y1="2831" x2="1865" y2= "2831" />
  <polyline class="fil0 str0" points="1839,2847 1839,2843 1840,2839 1841,2836 1843,2833 1845,2831 1847,2829 "/>
  <line class="fil0 str0" x1="2658" y1="3706" x2="2658" y2= "3707" />
  <line class="fil0 str0" x1="2883" y1="3590" x2="2883" y2= "3367" />
  <line class="fil0 str0" x1="2865" y1="4041" x2="2865" y2= "4038" />
  <line class="fil0 str0" x1="2856" y1="3573" x2="2856" y2= "3382" />
  <line class="fil0 str0" x1="2742" y1="3507" x2="2742" y2= "3368" />
  <line class="fil0 str0" x1="2742" y1="3699" x2="2742" y2= "3697" />
  <line class="fil0 str0" x1="2714" y1="3672" x2="2714" y2= "3673" />
  <line class="fil0 str0" x1="2714" y1="3321" x2="2714" y2= "3491" />
  <line class="fil0 str0" x1="2687" y1="3658" x2="2687" y2= "3667" />
  <line class="fil0 str0" x1="2687" y1="3337" x2="2687" y2= "3470" />
  <line class="fil0 str0" x1="2678" y1="3781" x2="2678" y2= "3758" />
  <line class="fil0 str0" x1="2667" y1="3744" x2="2667" y2= "3749" />
  <line class="fil0 str0" x1="2644" y1="3739" x2="2644" y2= "3761" />
  <line class="fil0 str0" x1="2528" y1="3185" x2="2528" y2= "3386" />
  <line class="fil0 str0" x1="2763" y1="3758" x2="2763" y2= "3753" />
  <polyline class="fil0 str0" points="2755,3762 2755,3758 2754,3754 2754,3749 2753,3745 2752,3741 2751,3736 2749,3732 2747,3727 2745,3723 2743,3718 "/>
  <polyline class="fil0 str0" points="2754,3762 2753,3758 2753,3754 2752,3750 2752,3745 2750,3741 2749,3737 2748,3732 2746,3728 2744,3723 "/>
  <line class="fil0 str0" x1="2658" y1="3707" x2="2658" y2= "3708" />
  <polyline class="fil0 str0" points="2738,3754 2738,3750 2737,3747 2737,3744 2736,3741 2735,3737 2734,3734 2733,3731 2731,3727 2730,3724 2728,3721 2726,3718 2724,3715 2722,3712 2720,3709 2717,3707 2716,3705 "/>
  <polyline class="fil0 str0" points="2629,3741 2629,3744 2630,3747 2630,3750 2631,3754 2632,3757 2633,3760 2634,3764 2636,3767 2637,3770 2639,3773 2641,3776 2643,3779 2645,3782 2647,3785 2650,3788 2652,3790 2655,3792 2657,3794 2660,3796 2663,3798 2665,3799 2668,3800 2670,3801 2673,3802 2675,3802 2678,3802 2680,3802 2682,3801 2684,3800 2686,3800 "/>
  <polyline class="fil0 str0" points="2856,3382 2856,3377 2855,3371 2853,3365 2851,3359 2849,3353 2846,3347 2842,3342 2839,3337 2834,3332 2830,3328 2825,3324 2821,3321 "/>
  <line class="fil0 str0" x1="3806" y1="2532" x2="3805" y2= "2526" />
  <line class="fil0 str0" x1="3806" y1="3279" x2="3805" y2= "3273" />
  <polyline class="fil0 str0" points="1763,1837 1763,1835 1763,1833 1764,1830 1764,1828 1765,1825 1766,1823 1767,1820 1769,1818 1770,1815 1772,1813 1773,1811 1775,1809 "/>
  <polyline class="fil0 str0" points="1763,1552 1763,1549 1763,1547 1764,1544 1764,1542 1765,1539 1766,1537 1767,1534 1769,1532 1770,1530 1772,1527 1773,1525 1775,1523 "/>
  <line class="fil0 str0" x1="1809" y1="3216" x2="1809" y2= "3217" />
  <line class="fil0 str0" x1="1914" y1="3272" x2="1914" y2= "3268" />
  <line class="fil0 str0" x1="2079" y1="2895" x2="2079" y2= "3125" />
  <line class="fil0 str0" x1="2053" y1="2910" x2="2053" y2= "3110" />
  <line class="fil0 str0" x1="1894" y1="3018" x2="1894" y2= "2878" />
  <line class="fil0 str0" x1="1894" y1="3210" x2="1894" y2= "3207" />
  <line class="fil0 str0" x1="1865" y1="3182" x2="1865" y2= "3183" />
  <line class="fil0 str0" x1="1865" y1="2831" x2="1865" y2= "3002" />
  <line class="fil0 str0" x1="1839" y1="3169" x2="1839" y2= "3177" />
  <line class="fil0 str0" x1="1839" y1="2847" x2="1839" y2= "2986" />
  <line class="fil0 str0" x1="1830" y1="3291" x2="1830" y2= "3268" />
  <line class="fil0 str0" x1="1828" y1="1947" x2="1828" y2= "1412" />
  <line class="fil0 str0" x1="1818" y1="3254" x2="1818" y2= "3259" />
  <line class="fil0 str0" x1="1796" y1="3249" x2="1796" y2= "3272" />
  <line class="fil0 str0" x1="1743" y1="2003" x2="1743" y2= "1132" />
  <line class="fil0 str0" x1="1733" y1="1299" x2="1733" y2= "2003" />
  <line class="fil0 str0" x1="1725" y1="2921" x2="1725" y2= "2729" />
  <line class="fil0 str0" x1="1706" y1="3372" x2="1706" y2= "3369" />
  <line class="fil0 str0" x1="1914" y1="3268" x2="1914" y2= "3263" />
  <polyline class="fil0 str0" points="1906,3272 1906,3268 1906,3264 1905,3260 1904,3255 1903,3251 1902,3246 1900,3242 1899,3237 1897,3233 1895,3229 "/>
  <polyline class="fil0 str0" points="1905,3272 1905,3268 1904,3264 1904,3260 1903,3255 1902,3251 1901,3247 1899,3242 1897,3238 1895,3233 "/>
  <polyline class="fil0 str0" points="1889,3264 1889,3261 1889,3257 1888,3254 1888,3251 1887,3247 1886,3244 1884,3241 1883,3237 1881,3234 1879,3231 1878,3228 1875,3225 1873,3222 1871,3219 1869,3217 1867,3215 "/>
  <polyline class="fil0 str0" points="2053,2910 2053,2906 2052,2901 2051,2896 2049,2892 2047,2887 2045,2882 2042,2878 2039,2874 2035,2870 2032,2866 2028,2864 2025,2861 "/>
  <line class="fil0 str0" x1="2766" y1="3764" x2="2766" y2= "3754" />
  <line class="fil0 str0" x1="2658" y1="3696" x2="2658" y2= "3697" />
  <line class="fil0 str0" x1="2653" y1="3699" x2="2654" y2= "3710" />
  <line class="fil0 str0" x1="2763" y1="3754" x2="2762" y2= "3749" />
  <line class="fil0 str0" x1="2762" y1="3749" x2="2762" y2= "3744" />
  <polyline class="fil0 str0" points="2766,3754 2764,3744 2761,3734 2757,3723 2752,3713 2747,3703 "/>
  <line class="fil0 str0" x1="2865" y1="4041" x2="2866" y2= "4045" />
  <line class="fil0 str0" x1="2762" y1="3745" x2="2761" y2= "3740" />
  <line class="fil0 str0" x1="3805" y1="2526" x2="3804" y2= "2524" />
  <line class="fil0 str0" x1="3805" y1="3273" x2="3804" y2= "3270" />
  <line class="fil0 str0" x1="3804" y1="2524" x2="3803" y2= "2521" />
  <path class="fil1" d="M4253 4653c0,3 1,6 3,7 2,2 4,3 7,3 3,0 6,-1 7,-3 2,-1 3,-4 3,-7 0,-2 -1,-4 -3,-6 -1,-2 -4,-2 -7,-2 -3,0 -5,0 -7,2 -2,2 -3,4 -3,6zm2 -21c0,2 0,4 2,5 2,2 4,3 6,3 3,0 5,-1 6,-3 2,-1 2,-3 2,-5 0,-2 0,-4 -2,-6 -1,-1 -3,-2 -6,-2 -3,0 -5,1 -6,2 -2,2 -2,4 -2,6zm0 9c-3,-1 -4,-2 -5,-4 -1,-1 -2,-3 -2,-6 0,-3 2,-6 4,-9 3,-2 7,-3 11,-3 5,0 8,1 11,3 3,3 4,6 4,9 0,3 0,5 -1,6 -2,2 -3,3 -5,4 2,1 4,3 6,5 1,2 2,5 2,8 0,4 -2,8 -5,11 -3,2 -7,4 -12,4 -5,0 -9,-2 -12,-4 -3,-3 -5,-7 -5,-11 0,-3 1,-6 3,-8 1,-2 3,-4 6,-5z"/>
  <path id="1" class="fil1" d="M4284 4652l6 0c0,4 1,6 3,8 2,2 4,3 7,3 4,0 6,-1 8,-3 2,-1 3,-4 3,-7 0,-2 -1,-4 -3,-6 -2,-1 -4,-2 -8,-2 0,0 -1,0 -3,0l0 0 0 -5c0,0 1,0 1,0 0,0 1,0 1,0 4,0 6,-1 8,-2 1,-1 2,-3 2,-6 0,-2 -1,-4 -2,-5 -2,-2 -4,-2 -7,-2 -3,0 -5,0 -7,2 -1,2 -2,4 -2,8l-6 0 0 0c0,-5 1,-9 4,-12 3,-3 6,-4 11,-4 5,0 9,1 12,3 2,3 4,6 4,10 0,2 -1,4 -2,6 -1,1 -2,3 -4,4 2,1 4,2 5,4 2,2 2,5 2,7 0,5 -1,9 -4,12 -3,2 -8,4 -13,4 -5,0 -9,-2 -12,-5 -3,-3 -4,-6 -4,-11l0 -1z"/>
  <path id="2" class="fil1" d="M4329 4644c0,7 1,11 3,15 1,3 4,4 7,4 4,0 6,-1 8,-4 2,-3 2,-8 2,-15 0,-7 0,-12 -2,-15 -2,-3 -4,-4 -8,-4 -3,0 -6,1 -7,4 -2,3 -3,8 -3,15zm-6 0c0,-8 1,-14 4,-19 3,-4 7,-6 12,-6 6,0 10,2 13,6 3,4 4,11 4,19 0,8 -1,14 -4,18 -3,5 -7,7 -13,7 -5,0 -9,-2 -12,-7 -3,-4 -4,-10 -4,-18z"/>
  <path id="3" class="fil1" d="M4367 4644c0,7 1,11 3,15 1,3 4,4 7,4 4,0 6,-1 8,-4 2,-3 2,-8 2,-15 0,-7 0,-12 -2,-15 -2,-3 -4,-4 -8,-4 -3,0 -6,1 -7,4 -2,3 -3,8 -3,15zm-6 0c0,-8 1,-14 4,-19 3,-4 7,-6 12,-6 6,0 10,2 13,6 3,4 4,11 4,19 0,8 -1,14 -4,18 -3,5 -7,7 -13,7 -5,0 -9,-2 -12,-7 -3,-4 -4,-10 -4,-18z"/>
  <path id="4" class="fil1" d="M4406 4644c0,7 0,11 2,15 2,3 4,4 8,4 3,0 6,-1 7,-4 2,-3 3,-8 3,-15 0,-7 -1,-12 -3,-15 -1,-3 -4,-4 -7,-4 -4,0 -6,1 -8,4 -2,3 -2,8 -2,15zm-7 0c0,-8 1,-14 4,-19 3,-4 7,-6 13,-6 5,0 9,2 12,6 3,4 4,11 4,19 0,8 -1,14 -4,18 -3,5 -7,7 -12,7 -6,0 -10,-2 -13,-7 -3,-4 -4,-10 -4,-18z"/>
  <polygon id="5" class="fil1" points="4437,4652 4437,4646 4454,4646 4454,4652 "/>
  <path id="6" class="fil1" d="M4465 4644c0,7 1,11 3,15 1,3 4,4 7,4 4,0 6,-1 8,-4 2,-3 2,-8 2,-15 0,-7 0,-12 -2,-15 -2,-3 -4,-4 -8,-4 -3,0 -6,1 -7,4 -2,3 -3,8 -3,15zm-6 0c0,-8 1,-14 4,-19 3,-4 7,-6 12,-6 6,0 10,2 13,6 3,4 4,11 4,19 0,8 -1,14 -4,18 -3,5 -7,7 -13,7 -5,0 -9,-2 -12,-7 -3,-4 -4,-10 -4,-18z"/>
  <path id="7" class="fil1" d="M4502 4650l15 0 0 -22 -15 22zm15 17l0 -12 -21 0 0 -6 21 -29 7 0 0 30 6 0 0 5 -6 0 0 12 -7 0z"/>
  <ellipse class="fil2 str1" transform="matrix(-0.931074 -0.537556 0.537556 -0.931074 1463.95 1568.79)" rx="7" ry="12"/>
  <ellipse class="fil2 str1" transform="matrix(-0.951965 -0.549617 0.549617 -0.951965 1462.93 1772.29)" rx="7" ry="12"/>
  <path class="fil2 str1" d="M1427 1766c-3,-2 -4,-10 -1,-15 4,-6 11,-8 14,-6"/>
  <path class="fil2 str1" d="M1427 1562c-4,-2 -4,-10 -1,-15 3,-6 11,-8 14,-6"/>
  <g id="_933976128">
   <polygon class="fil3" points="1764,2107 1790,2090 1895,2060 2001,2211 1974,2228 1949,2212 1949,2545 2000,2575 1975,2591 1869,2622 1764,2470 1791,2454 1816,2470 1815,2136 "/>
   <g id="BA1">
    <path class="fil2 str0" d="M1922 2197l0 0m52 30l0 0m-52 -30l52 30m-52 -30l52 30m-52 -30l52 30m-52 -30l52 30m-52 -30l52 30m-52 -30l52 30m-52 -30l52 30m-52 -30l52 30m-52 -30l52 30m-52 -30l52 30m-52 -30l52 30m-52 -30l52 30m-52 -30l52 30m-52 -30l52 30m-52 -30l52 30m-52 -30l52 30m-52 -30l52 30m-52 -30l52 30m-52 -30l52 30m-52 -30l52 30m-52 -30l52 30"/>
    <path class="fil2 str0" d="M1764 2106m0 -1l1 2 26 -16 -1 -1 -26 15m27 -14m-1 -1l1 2 105 -31 -1 -1 -105 30m106 -30m0 0l-1 1 105 151 1 -1 -105 -151m104 152m1 1l-1 -2 -26 15 1 2 26 -15m-27 14"/>
    <path class="fil2 str0" d="M1974 2227m0 1l1 -1 -105 -152 -1 1 105 152m-105 -152m1 0l-1 -1 -105 30 1 2 105 -31m-106 30"/>
    <path class="fil2 str0" d="M1948 2212m1 0l-2 0 0 333 2 0 0 -333m-1 333m0 -1l0 2 52 30 1 -1 -53 -31m52 31m1 1l-1 -1 -26 15 1 1 26 -15m-27 15"/>
    <path class="fil2 str0" d="M1896 2060m0 1l-1 -1 -26 15 1 1 26 -15m-27 15"/>
    <path class="fil2 str0" d="M1764 2106m1 -1l-1 2 51 29 1 -1 -51 -30m51 31m1 0l-2 0 0 363 2 0 0 -363m-1 363m-1 1l1 -2 -51 -29 -1 1 51 30m-51 -31m1 0l-1 1 104 152 1 -1 -104 -152m104 152m-1 -1l1 2 105 -31 0 -1 -106 30m106 -29m0 0l1 -1 -53 -30 -1 1 53 30m-52 -31"/>
    <path class="fil2 str0" d="M1948 2545m0 1l0 -2 -27 16 1 1 26 -15m-26 14m-1 0l2 0 0 -363 -2 0 0 363m1 -363"/>
    <path class="fil2 str0" d="M1764 2469m0 0l1 1 26 -15 -1 -1 -26 15m27 -15m0 0l-1 1 26 15 1 -1 -26 -15m26 15"/>
   </g>
  </g>
  <g id="_145065376">
   <polygon class="fil3" points="2612,2596 2638,2580 2743,2549 2849,2701 2821,2717 2797,2702 2797,3035 2848,3065 2822,3081 2717,3112 2611,2960 2639,2943 2664,2960 2663,2626 "/>
   <g id="BA1_0">
    <path class="fil2 str0" d="M2769 2686l0 0m53 31l0 0m-53 -31l53 31m-53 -31l53 31m-53 -31l53 31m-53 -31l53 31m-53 -31l53 31m-53 -31l53 31m-53 -31l53 31m-53 -31l53 31m-53 -31l53 31m-53 -31l53 31m-53 -31l53 31m-53 -31l53 31m-53 -31l53 31m-53 -31l53 31m-53 -31l53 31m-53 -31l53 31m-53 -31l53 31m-53 -31l53 31m-53 -31l53 31m-53 -31l53 31m-53 -31l53 31"/>
    <path class="fil2 str0" d="M2612 2596m0 -1l0 1 27 -15 -1 -1 -26 15m26 -15m0 0l1 1 104 -30 0 -2 -105 31m105 -30m1 0l-1 1 105 151 1 -1 -105 -151m104 152m1 0l-1 -1 -26 15 0 1 27 -15m-27 15"/>
    <path class="fil2 str0" d="M2822 2717m-1 0l2 -1 -105 -151 -2 1 105 151m-104 -152m0 1l0 -1 -105 30 0 1 105 -30m-105 30"/>
    <path class="fil2 str0" d="M2796 2702m1 0l-2 0 0 333 2 0 0 -333m-1 333m0 -1l-1 2 53 30 1 -2 -53 -30m52 31m1 1l-1 -2 -26 16 0 1 27 -15m-27 14"/>
    <path class="fil2 str0" d="M2743 2550m1 1l-1 -2 -26 16 0 1 27 -15m-27 14"/>
    <path class="fil2 str0" d="M2612 2596m0 -1l0 1 51 30 1 -1 -52 -30m52 30m0 0l-1 0 0 364 1 0 0 -364m0 364m-1 1l1 -2 -52 -30 0 2 51 30m-51 -31m1 0l-2 1 105 151 1 0 -104 -152m103 152m0 -1l1 2 105 -31 0 -1 -106 30m106 -30m0 1l0 -1 -52 -31 -1 2 53 30m-53 -31"/>
    <path class="fil2 str0" d="M2796 3035m0 1l-1 -2 -26 15 1 2 26 -15m-27 14m0 0l1 0 0 -364 -1 0 0 364m0 -364"/>
    <path class="fil2 str0" d="M2612 2959m0 -1l0 2 27 -15 -1 -2 -26 15m26 -14m1 -1l-1 2 26 15 1 -2 -26 -15m26 16"/>
   </g>
  </g>
 </g>
 <g id="_0">
  <metadata id="CorelCorpID_1Corel-Layer"/>
  <polyline class="fil2 str2" points="909,2997 879,4492 3836,4668 "/>
  <g id="_933906352">
   <circle class="fil3 str1" cx="847" cy="4526" r="76"/>
   <path class="fil1" d="M858 4575l-12 0 0 -78c-3,3 -7,6 -12,9 -5,3 -9,5 -13,6l0 -12c7,-3 13,-7 18,-11 5,-5 9,-9 11,-14l8 0 0 100z"/>
  </g>
  <line class="fil2 str3" x1="4562" y1="3346" x2="2671" y2= "4059" />
  <g id="_933905936">
   <circle class="fil3 str1" cx="4562" cy="3346" r="76"/>
   <path class="fil1" d="M4591 3383l0 12 -66 0c0,-3 1,-6 2,-9 1,-4 4,-8 8,-13 4,-4 9,-9 16,-15 11,-9 18,-16 22,-21 4,-5 5,-10 5,-15 0,-4 -1,-8 -5,-12 -3,-3 -8,-5 -13,-5 -6,0 -11,2 -15,5 -3,4 -5,9 -5,15l-12 -1c0,-10 4,-17 9,-22 6,-4 13,-7 23,-7 9,0 17,3 23,8 5,5 8,12 8,20 0,4 -1,8 -3,11 -1,4 -4,8 -8,13 -3,4 -10,10 -18,17 -8,6 -13,10 -15,13 -2,2 -3,4 -5,6l49 0z"/>
  </g>
 </g>
</svg>
