<?xml version="1.0" encoding="utf-8"?>
<!-- Generator: Adobe Illustrator 16.0.0, SVG Export Plug-In . SVG Version: 6.00 Build 0)  -->
<!DOCTYPE svg PUBLIC "-//W3C//DTD SVG 1.1//EN" "http://www.w3.org/Graphics/SVG/1.1/DTD/svg11.dtd">
<svg version="1.1" id="Layer_1" xmlns="http://www.w3.org/2000/svg" xmlns:xlink="http://www.w3.org/1999/xlink" x="0px" y="0px"
	 width="72px" height="50.475px" viewBox="0 0 72 50.475" enable-background="new 0 0 72 50.475" xml:space="preserve">
<g>
	<path fill="none" stroke="#010101" stroke-width="0.7496" stroke-miterlimit="10" d="M14.05,6.079l42.84,24.35
		c0,0,3.14-1.74,8.371-0.39c0,0,4.81,1.823,4.81,4.329c0,2.504-0.337,3.849-0.337,3.849s-0.747,2.406-4.204,3.511
		c-2.279,0.729-9.802,1.05-12.417-5.362L9.579,11.479c0,0-3.762,1.457-6.919-1.013C0.72,8.947,0.72,8.947,0.72,8.947V3.875
		c0,0,5.062,2.71,5.568,2.794c0.506,0.085,4.387-2.794,4.387-2.794L5.613,0.848c0,0,3.635-0.808,7.009,1.639
		C14.695,3.988,14.05,6.079,14.05,6.079 M0.72,6.699c0,0,2.384,2.89,6.121,2.89c2.196,0,2.69-0.599,2.69-0.599l44.661,25.378
		c0,0,2.046,4.856,7.339,4.856c6.93,0,8.53-3.732,8.53-4.856 M5.107,0.72v2.553l3.446,2.111"/>
	<path fill="#FFFFFF" d="M22.86,34.886l-4.333-2.54L41.041,5.571c0,0-0.058-0.672-0.616-1.271c-1.322-1.417-2.65-1.284-2.65-1.284
		l-0.426,0.497L14.55,30.287c0,0-1.917,1.847,0,3.48l5.54,3.978c0,0,0.25,0.163,0.612,0.297c0.566,0.209,1.409,0.352,2.016-0.297
		c0.994-1.066,0.354-2.842,0-2.983c-0.355-0.142-1.279-0.426-1.279-0.426l-1.252,1.157l-0.097,2.252L22.86,34.886L22.86,34.886z"/>
	<path fill="none" stroke="#010101" stroke-width="0.7496" stroke-miterlimit="10" d="M22.86,34.886l-4.333-2.54L41.041,5.571
		c0,0-0.058-0.672-0.616-1.271c-1.322-1.417-2.65-1.284-2.65-1.284l-0.426,0.497L14.55,30.287c0,0-1.917,1.847,0,3.48l5.54,3.978
		c0,0,0.25,0.163,0.612,0.297c0.566,0.209,1.409,0.352,2.016-0.297c0.994-1.066,0.354-2.842,0-2.983
		c-0.355-0.142-1.279-0.426-1.279-0.426l-1.252,1.157l-0.097,2.252 M20.187,35.492l-5.025-3.335v-1.146L38.917,3.235 M21.025,34.368
		l-4.298-3.006l0.281-0.674L39.975,3.875 M58.494,32.75l0.277-1.396l2.482,0.599l2.037-0.771l1.167,1.342l2.603,0.306l-0.83,1.299
		l1.643,1.204l-2.342,0.493l-0.279,1.397l-2.48-0.6l-2.038,0.771l-1.167-1.34l-2.602-0.308l0.829-1.298l-1.643-1.205L58.494,32.75
		L58.494,32.75z"/>
	<polygon fill="#010101" points="63.467,33.313 63.078,33.46 61.214,34.167 58.911,33.611 58.306,33.463 58.184,34.074 
		57.983,35.083 57.336,35.22 57.294,35.229 56.964,35.746 57.461,35.805 58.494,35.588 58.771,34.191 61.253,34.791 63.29,34.019 
		64.457,35.361 66.563,35.608 65.531,35.826 67.873,35.333 67.594,35.127 66.632,35.015 64.757,34.794 63.74,33.626 63.467,33.313 
		63.467,33.313 	"/>
	<path fill="none" stroke="#010101" stroke-width="0.7496" stroke-miterlimit="10" d="M61.253,31.953v2.334 M64.509,32.637v2.335
		 M58.494,32.637v1.469"/>
	<text transform="matrix(1 0 0 1 54.4844 49.3398)" fill="#010101" font-family="'ArialMT'" font-size="3.9879">83009-02</text>
</g>
</svg>
