<svg xmlns="http://www.w3.org/2000/svg" viewBox="0 0 80 80"><defs><style>.cls-1,.cls-3{fill:#0071bc;}.cls-1,.cls-2,.cls-6,.cls-7{stroke:#0071bc;stroke-miterlimit:10;}.cls-1,.cls-2,.cls-7{stroke-width:2.48px;}.cls-2,.cls-4{fill:#fff;}.cls-5{fill:#67a1d3;}.cls-6,.cls-7{fill:none;}.cls-6{stroke-width:1.24px;}.cls-7{stroke-linecap:round;}</style></defs><title>Artboard 11</title><g id="Layer_2" data-name="Layer 2"><path class="cls-1" d="M15.86,57.45H64.14a0,0,0,0,1,0,0v3.17a4.88,4.88,0,0,1-4.87,4.88H20.73a4.88,4.88,0,0,1-4.87-4.87V57.45A0,0,0,0,1,15.86,57.45Z"/><path class="cls-2" d="M23.23,13.5H56.77a7.38,7.38,0,0,1,7.38,7.38V55.6a0,0,0,0,1,0,0H15.86a0,0,0,0,1,0,0V20.87A7.38,7.38,0,0,1,23.23,13.5Z"/><circle class="cls-3" cx="40" cy="30.6" r="12.38"/><circle class="cls-4" cx="40" cy="24.88" r="9.9"/><path class="cls-5" d="M40,17.45a7.43,7.43,0,1,1-7.43,7.43A7.43,7.43,0,0,1,40,17.45m0-4.95A12.38,12.38,0,1,0,52.38,24.88,12.38,12.38,0,0,0,40,12.5Z"/><circle class="cls-6" cx="57.95" cy="49.4" r="1.24"/><line class="cls-7" x1="51.76" y1="49.4" x2="40.62" y2="49.4"/></g></svg>