<svg xmlns="http://www.w3.org/2000/svg" viewBox="0 0 80 80"><defs><style>.cls-1{fill:none;stroke:#0071bc;stroke-miterlimit:10;stroke-width:2px;}.cls-2{fill:#fff;}.cls-3{fill:#0071bc;}.cls-4{fill:#67a1d3;}</style></defs><title>Artboard 10</title><g id="Layer_2" data-name="Layer 2"><line class="cls-1" x1="74" y1="15.5" x2="29" y2="38.5"/><line class="cls-1" x1="71" y1="65.5" x2="26" y2="42.5"/><circle class="cls-2" cx="67" cy="17.5" r="11"/><path class="cls-3" d="M67,7.5a10,10,0,1,1-10,10,10,10,0,0,1,10-10m0-2a12,12,0,1,0,12,12,12,12,0,0,0-12-12Z"/><path class="cls-4" d="M67,27.5c2.42,0,4.56.1,5.91-1.83,0-3.51-1.36-7.26-5.91-7.26s-5.9,3.75-5.91,7.26C62.44,27.6,64.58,27.5,67,27.5Z"/><path class="cls-4" d="M67,21.23a5.21,5.21,0,0,1-5.09-5.32,5.09,5.09,0,1,1,10.18,0A5.21,5.21,0,0,1,67,21.23Z"/><path class="cls-2" d="M67,11.59a4.21,4.21,0,0,1,4.09,4.32,4.1,4.1,0,1,1-8.18,0A4.21,4.21,0,0,1,67,11.59m0-2a6.21,6.21,0,0,0-6.09,6.32,6.09,6.09,0,1,0,12.18,0A6.21,6.21,0,0,0,67,9.59Z"/><circle class="cls-2" cx="67" cy="62.5" r="11"/><path class="cls-3" d="M67,52.5a10,10,0,1,1-10,10,10,10,0,0,1,10-10m0-2a12,12,0,1,0,12,12,12,12,0,0,0-12-12Z"/><path class="cls-4" d="M67,72.5c2.42,0,4.56.1,5.91-1.83,0-3.51-1.36-7.26-5.91-7.26s-5.9,3.75-5.91,7.26C62.44,72.6,64.58,72.5,67,72.5Z"/><ellipse class="cls-4" cx="67" cy="60.91" rx="5.09" ry="5.32"/><path class="cls-2" d="M67,56.59a4.33,4.33,0,1,1-4.09,4.32A4.21,4.21,0,0,1,67,56.59m0-2a6.32,6.32,0,1,0,6.09,6.32A6.22,6.22,0,0,0,67,54.59Z"/><path class="cls-2" d="M29.5,68.2A27.7,27.7,0,1,1,57.2,40.5,27.72,27.72,0,0,1,29.5,68.2Z"/><path class="cls-4" d="M29.5,14A26.5,26.5,0,1,1,3,40.5,26.49,26.49,0,0,1,29.5,14m0-2.41A28.91,28.91,0,1,0,58.41,40.5,28.94,28.94,0,0,0,29.5,11.59Z"/><path class="cls-3" d="M15.73,54.42c-4.06,0-8.18-.51-10.76-4.22l-.09-.13v-.15c0-8,3.87-12.43,10.85-12.43s10.84,4.42,10.86,12.43v.15l-.09.13C23.92,53.91,19.8,54.42,15.73,54.42Z"/><path class="cls-2" d="M15.73,38c8,0,10.35,5.78,10.36,11.93-2.36,3.39-6.12,4-10.36,4s-8-.61-10.35-4C5.39,43.77,7.77,38,15.73,38m0-1C8.43,37,4.4,41.58,4.38,49.92v.31l.18.26c2.71,3.9,7,4.43,11.17,4.43s8.47-.53,11.18-4.43l.18-.26v-.31C27.07,41.58,23,37,15.73,37Z"/><path class="cls-3" d="M15.73,41.68a7.89,7.89,0,0,1-7.67-8.07,7.88,7.88,0,0,1,7.67-8.06,7.88,7.88,0,0,1,7.67,8.06A7.89,7.89,0,0,1,15.73,41.68Z"/><path class="cls-2" d="M15.73,26.05a7.37,7.37,0,0,1,7.17,7.56,7.38,7.38,0,0,1-7.17,7.57,7.38,7.38,0,0,1-7.17-7.57,7.37,7.37,0,0,1,7.17-7.56m0-1a8.38,8.38,0,0,0-8.17,8.56,8.39,8.39,0,0,0,8.17,8.57,8.38,8.38,0,0,0,8.17-8.57,8.38,8.38,0,0,0-8.17-8.56Z"/><path class="cls-3" d="M43.27,54.42c-4.07,0-8.19-.51-10.77-4.22l-.09-.13v-.15c0-8,3.87-12.43,10.86-12.43s10.84,4.42,10.85,12.43v.15L54,50.2C51.45,53.91,47.33,54.42,43.27,54.42Z"/><path class="cls-2" d="M43.27,38c8,0,10.34,5.78,10.35,11.93-2.36,3.39-6.11,4-10.35,4s-8-.61-10.36-4C32.92,43.77,35.3,38,43.27,38m0-1C36,37,31.93,41.58,31.91,49.92v.31l.18.26c2.71,3.9,7,4.43,11.18,4.43s8.46-.53,11.17-4.43l.18-.26v-.31c0-8.34-4-12.93-11.35-12.93Z"/><path class="cls-3" d="M29.21,59.07c-4.72,0-9.5-.6-12.49-4.89l-.09-.13v-.16c0-9.29,4.49-14.41,12.58-14.41S41.77,44.6,41.79,53.89v.16l-.09.13C38.71,58.47,33.93,59.07,29.21,59.07Z"/><path class="cls-2" d="M29.21,40c9.29,0,12.07,6.74,12.08,13.91-2.75,4-7.13,4.68-12.08,4.68s-9.32-.72-12.08-4.68C17.15,46.72,19.92,40,29.21,40m0-1c-8.41,0-13.06,5.3-13.08,14.91v.32l.18.25c3.12,4.49,8.05,5.11,12.9,5.11S39,59,42.11,54.46l.18-.25v-.32C42.27,44.28,37.63,39,29.21,39Z"/><path class="cls-3" d="M43.27,41.68a7.89,7.89,0,0,1-7.67-8.07,7.68,7.68,0,1,1,15.34,0A7.89,7.89,0,0,1,43.27,41.68Z"/><path class="cls-2" d="M43.27,26.05a7.37,7.37,0,0,1,7.17,7.56,7.18,7.18,0,1,1-14.34,0,7.37,7.37,0,0,1,7.17-7.56m0-1a8.38,8.38,0,0,0-8.17,8.56,8.18,8.18,0,1,0,16.34,0,8.38,8.38,0,0,0-8.17-8.56Z"/><ellipse class="cls-3" cx="29.21" cy="34.87" rx="8.86" ry="9.33"/><path class="cls-2" d="M29.21,26.05a8.6,8.6,0,0,1,8.36,8.82,8.6,8.6,0,0,1-8.36,8.83,8.6,8.6,0,0,1-8.36-8.83,8.6,8.6,0,0,1,8.36-8.82m0-1a9.61,9.61,0,0,0-9.36,9.82,9.62,9.62,0,0,0,9.36,9.83,9.62,9.62,0,0,0,9.36-9.83,9.61,9.61,0,0,0-9.36-9.82Z"/></g></svg>