<svg xmlns="http://www.w3.org/2000/svg" viewBox="0 0 87.7 41.74"><defs><style>.cls-1{fill:#d9d9d9;}.cls-1,.cls-3,.cls-4,.cls-6{fill-rule:evenodd;}.cls-2,.cls-5,.cls-7,.cls-8{fill:none;stroke-linecap:round;stroke-linejoin:round;}.cls-2,.cls-7{stroke:#999;}.cls-2,.cls-5{stroke-width:0.05px;}.cls-3{fill:#a6a6a6;}.cls-4{fill:#2868b1;}.cls-5,.cls-8{stroke:#749dd2;}.cls-6{fill:#bfbfbf;}.cls-7,.cls-8{stroke-width:0.05px;}</style></defs><title>Cable, IO_Source</title><g id="Rulers"><path class="cls-1" d="M31.44,36.86H46.69A1.31,1.31,0,0,0,48,35.56V20.47a1.31,1.31,0,0,0-1.31-1.31H31.44a1.32,1.32,0,0,0-1.32,1.31V35.56a1.31,1.31,0,0,0,1.32,1.3Zm0,0a1.31,1.31,0,0,1-1.32-1.3V20.47a1.32,1.32,0,0,1,1.32-1.31H46.69A1.31,1.31,0,0,1,48,20.47V35.56a1.31,1.31,0,0,1-1.31,1.3H31.44Zm47.9-1.69V19.5h4.42v-1H11.19v19.1H61.46V35.17Zm4.42,1.35h-3v1h3Zm-4.42-1.35H61.46v2.39H80.81v-1h3v-17H79.34ZM3.94,19.69V36.34h7.25V19.69Z"/><path class="cls-2" d="M31.44,36.86H46.69A1.31,1.31,0,0,0,48,35.56V20.47a1.31,1.31,0,0,0-1.31-1.31H31.44a1.32,1.32,0,0,0-1.32,1.31V35.56a1.31,1.31,0,0,0,1.32,1.3Zm0,0a1.31,1.31,0,0,1-1.32-1.3V20.47a1.32,1.32,0,0,1,1.32-1.31H46.69A1.31,1.31,0,0,1,48,20.47V35.56a1.31,1.31,0,0,1-1.31,1.3H31.44Zm47.9-1.69V19.5h4.42v-1H11.19v19.1H61.46V35.17Zm4.42,1.35h-3v1h3Zm-4.42-1.35H61.46v2.39H80.81v-1h3v-17H79.34ZM3.94,19.69V36.34h7.25V19.69Z"/><path class="cls-2" d="M3.94,33.63H5.2v-.57m5.41,0v.57H7.93v-.57m2.68-3.59V28.9H7.93v.57m-4-.57H5.2v.57M3.94,27.13H5.2v-.58m5.41,0v.58H7.93v-.58M10.61,23v-.57H7.93V23m-4-.57H5.2V23"/><path class="cls-3" d="M79.34,33.35v1.82h1.85V33.35Zm0-12.49v1.82h1.85V20.86ZM3.94,26.55H5.2v-.41H7.93v.41h2.68V23H7.93v.42H5.2V23H3.94Zm0,2.92v3.59H5.2v-.42H7.93v.42h2.68V29.47H7.93v.42H5.2v-.42Z"/><path class="cls-2" d="M79.34,33.35v1.82h1.85V33.35Zm0-12.49v1.82h1.85V20.86ZM3.94,26.55H5.2v-.41H7.93v.41h2.68V23H7.93v.42H5.2V23H3.94Zm0,2.92v3.59H5.2v-.42H7.93v.42h2.68V29.47H7.93v.42H5.2v-.42Z"/><path class="cls-4" d="M6.62,28a31.2,31.2,0,0,1-.18,3.38c-.07.72-.17,1.42-.3,2.08v3.91h3a27.09,27.09,0,0,0,1.26-6.09V24.73a27.2,27.2,0,0,0-1.26-6.09H6.14v3.91c.06.28.1.56.15.85A32.8,32.8,0,0,1,6.62,28Zm2.8-8.32h1.77V18.64H9.09Q9.25,19.15,9.42,19.69ZM9.09,37.38h2.1v-1H9.42C9.31,36.7,9.2,37,9.09,37.38Z"/><path class="cls-5" d="M6.62,28a31.2,31.2,0,0,1-.18,3.38c-.07.72-.17,1.42-.3,2.08v3.91h3a27.09,27.09,0,0,0,1.26-6.09V24.73a27.2,27.2,0,0,0-1.26-6.09H6.14v3.91c.06.28.1.56.15.85A32.8,32.8,0,0,1,6.62,28Zm2.8-8.32h1.77V18.64H9.09Q9.25,19.15,9.42,19.69ZM9.09,37.38h2.1v-1H9.42C9.31,36.7,9.2,37,9.09,37.38Z"/><path class="cls-6" d="M78.48,7.74V6.86l-.21-.2H76.59V8h1.68Zm0,5.42v-.88l-.21-.2H76.59v1.29h1.68Z"/><path class="cls-7" d="M78.48,7.74V6.86l-.21-.2H76.59V8h1.68Zm0,5.42v-.88l-.21-.2H76.59v1.29h1.68Z"/><path class="cls-4" d="M9.21,13.38a.51.51,0,0,0,.57.53c.48,0,.46-.39-.14-1a1.24,1.24,0,0,1-.18-.22A1.18,1.18,0,0,0,9.21,13.38Zm.43-.44c.6.58.62,1,.14,1h16V11.53h-16a.51.51,0,0,0-.57.53,1.16,1.16,0,0,0,.25.66A1.24,1.24,0,0,0,9.64,12.94ZM9.21,8a.51.51,0,0,0,.57.53c.48,0,.46-.39-.14-1a1.18,1.18,0,0,1-.18-.21A1.18,1.18,0,0,0,9.21,8Zm.43-.45c.6.59.62,1,.14,1h16V6.11h-16a.51.51,0,0,0-.57.53,1.18,1.18,0,0,0,.25.66A1.18,1.18,0,0,0,9.64,7.51ZM55.78,4.72l-30,.62V9.26l30,.62Zm0,5.42-30,.62v3.92l30,.62ZM63.87,15H76.59V10.41H63.87Zm-2-1.22V15h2V10.41h-.74v3.4Zm1.26-7.59H55.78v7.59h7.35Zm.74,3.39H76.59V5H63.87Zm-.74,0h.74V5h-2V6.22h1.26ZM61.87,6.22v-2H55.78v2Zm0,9.63v-2H55.78v2Z"/><path class="cls-8" d="M9.21,13.38a.51.51,0,0,0,.57.53c.48,0,.46-.39-.14-1a1.24,1.24,0,0,1-.18-.22A1.18,1.18,0,0,0,9.21,13.38Zm.43-.44c.6.58.62,1,.14,1h16V11.53h-16a.51.51,0,0,0-.57.53,1.16,1.16,0,0,0,.25.66A1.24,1.24,0,0,0,9.64,12.94ZM9.21,8a.51.51,0,0,0,.57.53c.48,0,.46-.39-.14-1a1.18,1.18,0,0,1-.18-.21A1.18,1.18,0,0,0,9.21,8Zm.43-.45c.6.59.62,1,.14,1h16V6.11h-16a.51.51,0,0,0-.57.53,1.18,1.18,0,0,0,.25.66A1.18,1.18,0,0,0,9.64,7.51ZM55.78,4.72l-30,.62V9.26l30,.62Zm0,5.42-30,.62v3.92l30,.62ZM63.87,15H76.59V10.41H63.87Zm-2-1.22V15h2V10.41h-.74v3.4Zm1.26-7.59H55.78v7.59h7.35Zm.74,3.39H76.59V5H63.87Zm-.74,0h.74V5h-2V6.22h1.26ZM61.87,6.22v-2H55.78v2Zm0,9.63v-2H55.78v2Z"/><path class="cls-4" d="M75.12,5.65H67.87v.57H63.13V8.38h4.74V9h7.25Zm0,5.42H67.87v.57H63.13v2.17h4.74v.56h7.25Z"/><path class="cls-8" d="M75.12,5.65H67.87v.57H63.13V8.38h4.74V9h7.25Zm0,5.42H67.87v.57H63.13v2.17h4.74v.56h7.25Z"/><path class="cls-8" d="M67.87,13.81h2m-2-2.17h2m-2-3.26h2m-2-2.16h2"/></g></svg>