<svg xmlns="http://www.w3.org/2000/svg" viewBox="0 0 89.67 45.34"><defs><style>.cls-1{fill:#2868b1;}.cls-1,.cls-3{fill-rule:evenodd;}.cls-2{fill:none;stroke:#749dd2;stroke-linecap:round;stroke-linejoin:round;stroke-width:0.05px;}.cls-3{fill:#4174b8;}</style></defs><title>Cable, Power_Source</title><g id="Rulers"><path class="cls-1" d="M4.66,22.67a4.42,4.42,0,0,0-.9,2.46,1.88,1.88,0,0,0,2.1,2c1.79,0,1.7-1.44-.51-3.64A7.17,7.17,0,0,1,4.66,22.67Zm-.9-2.46a4.42,4.42,0,0,0,.9,2.46,7.17,7.17,0,0,0,.69.8c2.21,2.2,2.3,3.64.51,3.64H19.54V18.22H5.86A1.89,1.89,0,0,0,3.76,20.21ZM19.54,16.5V28.84L41.42,30V15.35Zm42.18-6.38H44.57a3.14,3.14,0,0,0-3.15,3.14V32.08a3.14,3.14,0,0,0,3.15,3.14H61.72ZM85.91,30.93H61.72v4.71a2.1,2.1,0,0,0,2.1,2.09H85.91Zm0,0V14.41H61.72V30.93Zm0-16.52V7.61H63.82a2.09,2.09,0,0,0-2.1,2.09v4.71Z"/><path class="cls-2" d="M4.66,22.67a4.42,4.42,0,0,0-.9,2.46,1.88,1.88,0,0,0,2.1,2c1.79,0,1.7-1.44-.51-3.64A7.17,7.17,0,0,1,4.66,22.67Zm-.9-2.46a4.42,4.42,0,0,0,.9,2.46,7.17,7.17,0,0,0,.69.8c2.21,2.2,2.3,3.64.51,3.64H19.54V18.22H5.86A1.89,1.89,0,0,0,3.76,20.21ZM19.54,16.5V28.84L41.42,30V15.35Zm42.18-6.38H44.57a3.14,3.14,0,0,0-3.15,3.14V32.08a3.14,3.14,0,0,0,3.15,3.14H61.72ZM85.91,30.93H61.72v4.71a2.1,2.1,0,0,0,2.1,2.09H85.91Zm0,0V14.41H61.72V30.93Zm0-16.52V7.61H63.82a2.09,2.09,0,0,0-2.1,2.09v4.71Z"/><path class="cls-3" d="M22.49,16.44v7.48a.94.94,0,0,0,.94.94h0a.94.94,0,0,0,.95-.94h0V16.34Zm7.57-.4v7.88a.94.94,0,0,0,1,.94h0a.94.94,0,0,0,.94-.94V16Zm7.57-.39v8.27a1,1,0,0,0,.95.94h0a.94.94,0,0,0,.94-.94h0V15.55ZM35.74,29.79V21.62a1,1,0,0,0-1.9,0v8.07Zm-7.57-.4V21.62a1,1,0,0,0-1.9,0v7.67Z"/></g></svg>