<svg xmlns="http://www.w3.org/2000/svg" viewBox="0 0 360 108"><defs><style>.cls-1,.cls-27,.cls-28,.cls-29{fill:none;}.cls-1{stroke:#a2aaad;stroke-linecap:round;stroke-linejoin:round;stroke-width:1.2px;}.cls-2,.cls-3{fill:#d0d3d4;}.cls-19,.cls-28,.cls-3{stroke:#fff;}.cls-19,.cls-27,.cls-28,.cls-29,.cls-3{stroke-miterlimit:10;}.cls-19,.cls-27,.cls-29,.cls-3{stroke-width:0.5px;}.cls-4,.cls-8{fill:#a2aaad;}.cls-17,.cls-5{fill:#101820;}.cls-6{fill:#333f48;}.cls-16,.cls-7{fill:#fff;}.cls-11,.cls-12,.cls-13,.cls-16,.cls-17,.cls-18,.cls-19,.cls-21,.cls-23,.cls-8{fill-rule:evenodd;}.cls-9{fill:#f1f1f2;}.cls-10,.cls-13{fill:#595959;}.cls-11,.cls-14{fill:#666;}.cls-12{fill:#f4855c;}.cls-15{fill:#ccc;}.cls-18{fill:#292929;}.cls-19,.cls-20{fill:#ededed;}.cls-21{fill:#4d4d4d;}.cls-22{fill:#555;}.cls-23{fill:#6a6a6a;}.cls-24{fill:#999;}.cls-25,.cls-26{font-size:10px;font-family:Helvetica-Bold, Helvetica;font-weight:700;}.cls-25{letter-spacing:-0.04em;}.cls-27{stroke:#000;}.cls-28{stroke-width:3px;}.cls-29{stroke:#ff7500;}</style></defs><g id="Rulers"><g id="E5724_DE224" data-name="E5724/DE224"><rect class="cls-1" x="33.02" y="20.74" width="293.97" height="63.1"/><rect class="cls-2" x="35.72" y="23.88" width="288.57" height="56.83"/><g id="PSUB"><rect class="cls-3" x="185.69" y="53.9" width="136.72" height="23.06" rx="0.76"/><path class="cls-4" d="M305,56.21V74a1,1,0,0,0,1,1H319a1,1,0,0,0,1-1V56.21a1,1,0,0,0-1-1H306.08a1,1,0,0,0-1,1Z"/><path class="cls-4" d="M292.67,72.13h8.26a.58.58,0,0,0,.58-.58h0V59.33a.58.58,0,0,0-.58-.58h-8.26a.58.58,0,0,0-.58.58V71.55A.58.58,0,0,0,292.67,72.13Z"/><path class="cls-5" d="M300.27,62.38V60.56a.33.33,0,0,0-.33-.33h-6.28a.33.33,0,0,0-.33.33v1.82Z"/><path class="cls-6" d="M300.27,62.38h-6.94v7.77a.33.33,0,0,0,.33.33h6.28a.33.33,0,0,0,.33-.33h0Z"/><path class="cls-5" d="M306.54,61.42v8a1.66,1.66,0,0,0,.51,1.2l3.24,3.1a1.67,1.67,0,0,0,1.14.45h5.44a1.65,1.65,0,0,0,1.65-1.65V58.32a1.65,1.65,0,0,0-1.65-1.65h-5.44a1.68,1.68,0,0,0-1.14.46l-3.24,3.1A1.63,1.63,0,0,0,306.54,61.42Z"/><rect class="cls-7" x="312.64" y="69.68" width="3.3" height="0.99"/><rect class="cls-7" x="309.12" y="64.96" width="3.3" height="0.99"/><rect class="cls-7" x="312.64" y="60.23" width="3.3" height="0.99"/><path class="cls-8" d="M228.81,75.69H250a.57.57,0,0,0,.57-.57h0V55.75a.58.58,0,0,0-.57-.57h-21.2a.57.57,0,0,0-.57.57V75.12A.56.56,0,0,0,228.81,75.69Z"/><circle class="cls-5" cx="236.59" cy="60.31" r="1.01"/><circle class="cls-5" cx="242.66" cy="60.31" r="1.01"/><g id="Latch_PSU" data-name="Latch/PSU"><rect class="cls-9" x="317.68" y="76.89" width="6.8" height="1.17"/><rect class="cls-10" x="236.95" y="73.72" width="3.32" height="5"/><rect class="cls-10" x="273.34" y="75.39" width="44.34" height="3.34"/><rect class="cls-10" x="272.18" y="75.39" width="1.16" height="3.34"/><rect class="cls-10" x="186.27" y="75.39" width="33.03" height="3.34"/><rect class="cls-10" x="219.3" y="75.39" width="1.16" height="3.34"/><path class="cls-11" d="M253.8,75.39a8,8,0,0,1-2-.25L247.12,74a7.94,7.94,0,0,0-2-.25h-5a.34.34,0,0,0-.33.34v4.33a.33.33,0,0,0,.33.33h32.08V75.39Z"/><path class="cls-12" d="M242.42,78.22h27.93V75.89H253.8a9,9,0,0,1-2.13-.26L247,74.45a8,8,0,0,0-1.88-.23h-2.7Z"/><polygon class="cls-13" points="246.3 76.19 244.86 75.53 244.86 76.91 246.3 76.19"/><path class="cls-11" d="M232.11,75.39H220.46v3.33h16.66a.33.33,0,0,0,.33-.33h0V74.06a.34.34,0,0,0-.33-.34h-2.29a.87.87,0,0,0-.51.17l-1.7,1.33A.87.87,0,0,1,232.11,75.39Z"/><rect class="cls-14" x="183.82" y="76.47" width="4.97" height="2.25"/><rect class="cls-15" x="317.68" y="78.06" width="6.22" height="0.67"/></g><path class="cls-16" d="M296.78,65.62a.18.18,0,0,0,.19-.16V64.09a.17.17,0,0,0-.19-.16.15.15,0,0,0-.16.16v1.37a.16.16,0,0,0,.16.16m.64,2.35a.61.61,0,0,0-.64-.6.6.6,0,0,0-.6.6.6.6,0,0,0,.6.61A.62.62,0,0,0,297.42,68Zm.35,0a1,1,0,0,0-1-1,1,1,0,0,0,0,1.91A1,1,0,0,0,297.77,68Z"/><path class="cls-17" d="M242.83,58.12a.18.18,0,0,0-.35,0,.18.18,0,1,0,.35,0Z"/><path class="cls-17" d="M242.83,56.61a.18.18,0,1,0-.35,0l.09,1.21s0,0,.09,0a.14.14,0,0,0,.08,0Z"/><path class="cls-17" d="M236.59,56.11a1.26,1.26,0,1,0,1.25,1.26A1.24,1.24,0,0,0,236.59,56.11Zm-.13.23a1,1,0,0,1,1.06.58l-.7.71-.29-1.09-1,1A1,1,0,0,1,236.46,56.34Zm.26,2a1,1,0,0,1-1.05-.57l.7-.72.3,1.09.94-.95A1,1,0,0,1,236.72,58.39Z"/></g><g id="PSUA"><rect class="cls-3" x="37.78" y="53.9" width="136.72" height="23.06" rx="0.76"/><path class="cls-4" d="M157.13,56.21V74a1,1,0,0,0,1,1h12.91a1,1,0,0,0,1-1V56.21a1,1,0,0,0-1-1H158.17a1,1,0,0,0-1,1Z"/><path class="cls-4" d="M144.76,72.13H153a.58.58,0,0,0,.58-.58h0V59.33a.58.58,0,0,0-.58-.58h-8.26a.58.58,0,0,0-.58.58V71.55A.58.58,0,0,0,144.76,72.13Z"/><path class="cls-5" d="M152.36,62.38V60.56a.33.33,0,0,0-.33-.33h-6.28a.33.33,0,0,0-.33.33v1.82Z"/><path class="cls-6" d="M152.36,62.38h-6.94v7.77a.33.33,0,0,0,.33.33H152a.33.33,0,0,0,.33-.33h0Z"/><path class="cls-5" d="M158.63,61.42v8a1.71,1.71,0,0,0,.51,1.2l3.24,3.1a1.67,1.67,0,0,0,1.14.45H169a1.65,1.65,0,0,0,1.65-1.65V58.32A1.65,1.65,0,0,0,169,56.67h-5.44a1.68,1.68,0,0,0-1.14.46l-3.24,3.1A1.67,1.67,0,0,0,158.63,61.42Z"/><rect class="cls-7" x="164.73" y="69.68" width="3.3" height="0.99"/><rect class="cls-7" x="161.21" y="64.96" width="3.3" height="0.99"/><rect class="cls-7" x="164.73" y="60.23" width="3.3" height="0.99"/><path class="cls-8" d="M80.9,75.69h21.2a.57.57,0,0,0,.57-.57h0V55.75a.58.58,0,0,0-.57-.57H80.9a.57.57,0,0,0-.57.57V75.12A.56.56,0,0,0,80.9,75.69Z"/><circle class="cls-5" cx="88.68" cy="60.31" r="1.01"/><circle class="cls-5" cx="94.75" cy="60.31" r="1.01"/><g id="Latch_PSU-2" data-name="Latch/PSU"><rect class="cls-9" x="169.77" y="76.89" width="6.8" height="1.17"/><rect class="cls-10" x="89.04" y="73.72" width="3.32" height="5"/><rect class="cls-10" x="125.43" y="75.39" width="44.34" height="3.34"/><rect class="cls-10" x="124.27" y="75.39" width="1.16" height="3.34"/><rect class="cls-10" x="38.36" y="75.39" width="33.03" height="3.34"/><rect class="cls-10" x="71.39" y="75.39" width="1.16" height="3.34"/><path class="cls-11" d="M105.89,75.39a7.89,7.89,0,0,1-2-.25L99.21,74a7.94,7.94,0,0,0-2-.25h-5a.34.34,0,0,0-.33.34v4.33a.33.33,0,0,0,.33.33h32.08V75.39Z"/><path class="cls-12" d="M94.51,78.22h27.94V75.89H105.89a8.92,8.92,0,0,1-2.12-.26l-4.68-1.18a7.93,7.93,0,0,0-1.88-.23h-2.7Z"/><polygon class="cls-13" points="98.39 76.19 96.95 75.53 96.95 76.91 98.39 76.19"/><path class="cls-11" d="M84.2,75.39H72.55v3.33H89.21a.33.33,0,0,0,.33-.33h0V74.06a.34.34,0,0,0-.33-.34H86.92a.82.82,0,0,0-.5.17l-1.71,1.33A.87.87,0,0,1,84.2,75.39Z"/><rect class="cls-14" x="35.91" y="76.47" width="4.97" height="2.25"/><rect class="cls-15" x="169.77" y="78.06" width="6.22" height="0.67"/></g><path class="cls-16" d="M148.87,65.62a.18.18,0,0,0,.19-.16V64.09a.17.17,0,0,0-.19-.16.15.15,0,0,0-.16.16v1.37a.16.16,0,0,0,.16.16m.64,2.35a.61.61,0,0,0-.64-.6.6.6,0,0,0-.6.6.6.6,0,0,0,.6.61A.62.62,0,0,0,149.51,68Zm.35,0a1,1,0,0,0-1-1,1,1,0,0,0,0,1.91A1,1,0,0,0,149.86,68Z"/><path class="cls-17" d="M94.92,58.12a.18.18,0,0,0-.35,0,.18.18,0,1,0,.35,0Z"/><path class="cls-17" d="M94.92,56.61a.18.18,0,1,0-.35,0l.09,1.21s0,0,.09,0a.14.14,0,0,0,.08,0Z"/><path class="cls-17" d="M88.68,56.11a1.26,1.26,0,1,0,1.25,1.26A1.24,1.24,0,0,0,88.68,56.11Zm-.13.23a1,1,0,0,1,1.06.58l-.7.71-.29-1.09-1,1A1,1,0,0,1,88.55,56.34Zm.26,2a1,1,0,0,1-1-.57l.7-.72.3,1.09.94-.95A1,1,0,0,1,88.81,58.39Z"/></g><polygon class="cls-18" points="179.07 33.77 182.55 33.77 182.55 29.55 179.07 29.55 177.45 31.66 179.07 33.77"/><polygon class="cls-18" points="180.9 46.93 182.55 44.82 180.9 42.74 177.45 42.74 177.45 46.93 180.9 46.93"/><polygon class="cls-18" points="179.07 64.19 182.55 64.19 182.55 59.99 179.07 59.99 177.45 62.08 179.07 64.19"/><polygon class="cls-18" points="180.9 77.37 182.55 75.26 180.9 73.15 177.45 73.15 177.45 77.37 180.9 77.37"/><path class="cls-16" d="M179.68,60.93a1.17,1.17,0,0,0-1.14,1.15,1.15,1.15,0,1,0,1.14-1.15Zm.13.23a.93.93,0,0,1,.81.76l-.79.46v-1l-1.06.61A.9.9,0,0,1,179.81,61.16ZM179.56,63a.91.91,0,0,1-.79-.77l.79-.45v1l1.06-.61A.94.94,0,0,1,179.56,63Z"/><path class="cls-7" d="M180.48,30.65h.44l.91,2.15h-.49l-.19-.47h-.91l-.19.47h-.48Zm.5,1.26-.29-.69-.28.69Z"/><path class="cls-7" d="M178.51,43.83h1a.77.77,0,0,1,.56.19.49.49,0,0,1,.15.36h0a.49.49,0,0,1-.28.46.53.53,0,0,1,.4.53h0c0,.39-.32.59-.8.59h-1Zm1.23.63c0-.14-.11-.22-.31-.22H179v.46h.43c.21,0,.34-.07.34-.23Zm-.23.63H179v.47h.56c.21,0,.33-.08.33-.24h0C179.86,45.17,179.75,45.09,179.51,45.09Z"/><path class="cls-7" d="M181,63v-.31h.46V61.65l-.41.15-.09-.32.61-.23h.26v1.48h.41V63Z"/><path class="cls-7" d="M180.23,76.2v-.3l.57-.5c.21-.19.29-.29.29-.43a.22.22,0,0,0-.24-.22c-.14,0-.24.07-.36.23l-.26-.22a.73.73,0,0,1,.65-.36.53.53,0,0,1,.6.54h0a.71.71,0,0,1-.31.57l-.42.36h.75v.33Z"/><path class="cls-16" d="M178.87,74.12a1.15,1.15,0,0,0,0,2.29,1.15,1.15,0,0,0,0-2.29Zm.13.2a.93.93,0,0,1,.78.77l-.78.45v-1l-1.07.64A.94.94,0,0,1,179,74.32Zm-.28,1.88a1,1,0,0,1-.79-.76l.79-.46v1l1.06-.61A1,1,0,0,1,178.72,76.2Z"/><g id="IOMB"><path class="cls-19" d="M321.75,27H186.55a.76.76,0,0,0-.76.75V48.88a.76.76,0,0,0,.76.75h135.2a.76.76,0,0,0,.76-.75V27.72A.76.76,0,0,0,321.75,27Z"/><path class="cls-8" d="M188.7,48.65H319.6a.4.4,0,0,0,.4-.4h0V28.76a.4.4,0,0,0-.4-.4H188.7a.4.4,0,0,0-.4.4V48.25A.4.4,0,0,0,188.7,48.65Z"/><rect class="cls-20" x="234.04" y="27.67" width="65.65" height="14.92"/><g id="Latch_Controller_IOM" data-name="Latch/Controller/IOM"><rect class="cls-9" x="312.08" y="49.22" width="12.49" height="0.81"/><path class="cls-21" d="M231.79,47.44v3.24h83.4a.17.17,0,0,0,.17-.16h0V48.74a.18.18,0,0,0-.17-.17H259.75a.16.16,0,0,1-.16-.16V47.6a.17.17,0,0,0-.17-.16H231.79Z"/><path class="cls-22" d="M236.93,47.44h-7.58v3.24h22.8V47.44h-1.08a6.18,6.18,0,0,1-1.7-.24l-4-1.14a5.54,5.54,0,0,0-1.51-.24h-5.2a.43.43,0,0,0-.33.17l-1.11,1.29A.45.45,0,0,1,236.93,47.44Z"/><path class="cls-22" d="M231.43,47.44H220v3.24h16.37a.32.32,0,0,0,.32-.32h0V46.14a.32.32,0,0,0-.32-.33H234.1a.84.84,0,0,0-.5.17l-1.68,1.29A.79.79,0,0,1,231.43,47.44Z"/><path class="cls-23" d="M231.79,47.44h-47.9a.16.16,0,0,0-.16.16v2.92a.16.16,0,0,0,.16.16h47.9Z"/><path class="cls-12" d="M251.22,48h-1.88a6.13,6.13,0,0,1-1.65-.22l-3.61-1a5.57,5.57,0,0,0-1.46-.19h-2.09v3.29h10.69Z"/><polygon class="cls-13" points="243.27 48.26 241.99 47.63 241.98 48.96 243.27 48.26"/></g><path class="cls-5" d="M239.86,35.13a.76.76,0,0,0-.76-.76.75.75,0,0,0-.75.76.74.74,0,0,0,.75.75A.75.75,0,0,0,239.86,35.13Z"/><path class="cls-5" d="M262.49,35.13a.76.76,0,0,0-.76-.76.75.75,0,0,0-.75.76.74.74,0,0,0,.75.75A.75.75,0,0,0,262.49,35.13Z"/><path class="cls-5" d="M239.86,38.35a.75.75,0,0,0-.76-.75.74.74,0,0,0-.75.75.75.75,0,0,0,.75.76A.76.76,0,0,0,239.86,38.35Z"/><path class="cls-5" d="M262.53,38.35a.76.76,0,0,0-1.51,0,.76.76,0,1,0,1.51,0Z"/><path class="cls-5" d="M271.23,35.13a.75.75,0,1,0-1.5,0,.75.75,0,0,0,1.5,0Z"/><path class="cls-5" d="M293.91,35.13a.76.76,0,1,0-.75.75A.75.75,0,0,0,293.91,35.13Z"/><path class="cls-5" d="M271.23,38.35a.75.75,0,0,0-1.5,0,.75.75,0,1,0,1.5,0Z"/><path class="cls-5" d="M293.91,38.35a.76.76,0,0,0-1.51,0,.76.76,0,1,0,1.51,0Z"/><rect class="cls-9" x="243.48" y="34.2" width="13.92" height="6.79" rx="0.41"/><path class="cls-5" d="M305.24,35.13a.76.76,0,1,0-1.51,0,.76.76,0,0,0,1.51,0Z"/><path class="cls-5" d="M305.24,38.35a.76.76,0,1,0-.76.76A.76.76,0,0,0,305.24,38.35Z"/><rect class="cls-24" x="250.36" y="27.67" width="0.16" height="13.33"/><rect class="cls-9" x="274.86" y="34.2" width="13.92" height="6.79" rx="0.41"/><rect class="cls-24" x="281.74" y="27.67" width="0.16" height="13.33"/><path class="cls-17" d="M268,30.38h.2l0,.16h.16l-.2-.75H268l-.2.75H268Zm.1-.46h0l.08.34H268Z"/><path class="cls-17" d="M265.6,30.58a.07.07,0,0,0,.08-.08.08.08,0,0,0-.08-.08.09.09,0,0,0-.08.08A.08.08,0,0,0,265.6,30.58Z"/><path class="cls-17" d="M265.87,30.71a.09.09,0,0,0,.08-.08.08.08,0,1,0-.16,0A.09.09,0,0,0,265.87,30.71Z"/><path class="cls-17" d="M266.14,30.83a.08.08,0,0,0,.08-.08.09.09,0,0,0-.08-.08.08.08,0,0,0-.08.08A.07.07,0,0,0,266.14,30.83Z"/><path class="cls-17" d="M266.41,30.8a.07.07,0,0,0-.08.08.08.08,0,0,0,.08.08.09.09,0,0,0,.08-.08A.08.08,0,0,0,266.41,30.8Z"/><path class="cls-17" d="M266.68,30.92a.09.09,0,0,0-.09.08.08.08,0,0,0,.09.08.08.08,0,0,0,.08-.08A.09.09,0,0,0,266.68,30.92Z"/><path class="cls-17" d="M266.94,31.05a.08.08,0,0,0-.08.08.09.09,0,0,0,.08.08.08.08,0,0,0,.08-.08A.07.07,0,0,0,266.94,31.05Z"/><path class="cls-17" d="M265.71,30.16a.08.08,0,0,0-.08-.08.09.09,0,0,0-.08.08.08.08,0,0,0,.08.08A.07.07,0,0,0,265.71,30.16Z"/><path class="cls-17" d="M266,30.16a.09.09,0,0,0-.08-.08.08.08,0,0,0-.08.08.07.07,0,0,0,.08.08A.08.08,0,0,0,266,30.16Z"/><path class="cls-17" d="M266.3,30.16a.08.08,0,0,0-.08-.08.09.09,0,0,0-.08.08.08.08,0,0,0,.08.08A.07.07,0,0,0,266.3,30.16Z"/><path class="cls-17" d="M266.52,30.08a.08.08,0,0,0-.08.08.07.07,0,0,0,.08.08.08.08,0,0,0,.08-.08A.09.09,0,0,0,266.52,30.08Z"/><path class="cls-17" d="M266.9,30.16a.09.09,0,0,0-.09-.08.09.09,0,0,0-.08.08.08.08,0,0,0,.08.08A.08.08,0,0,0,266.9,30.16Z"/><path class="cls-17" d="M267.11,30.08a.08.08,0,0,0-.08.08.08.08,0,1,0,.16,0A.08.08,0,0,0,267.11,30.08Z"/><path class="cls-17" d="M267.4,30.08a.08.08,0,0,0-.07.08.07.07,0,0,0,.07.08.08.08,0,0,0,.09-.08A.09.09,0,0,0,267.4,30.08Z"/><path class="cls-17" d="M265.6,29.9a.07.07,0,0,0,.08-.08.08.08,0,0,0-.08-.08.09.09,0,0,0-.08.08A.08.08,0,0,0,265.6,29.9Z"/><path class="cls-17" d="M265.87,29.78a.09.09,0,0,0,.08-.08.08.08,0,1,0-.16,0A.09.09,0,0,0,265.87,29.78Z"/><path class="cls-17" d="M266.14,29.65a.08.08,0,0,0,.08-.08.09.09,0,0,0-.08-.08.08.08,0,0,0-.08.08A.07.07,0,0,0,266.14,29.65Z"/><path class="cls-17" d="M266.41,29.37a.08.08,0,1,0,0,.16.08.08,0,0,0,0-.16Z"/><path class="cls-17" d="M266.68,29.41a.09.09,0,0,0,.08-.08.08.08,0,0,0-.08-.08.08.08,0,0,0-.09.08A.09.09,0,0,0,266.68,29.41Z"/><path class="cls-17" d="M266.94,29.12a.09.09,0,0,0-.08.08.08.08,0,0,0,.08.08.07.07,0,0,0,.08-.08A.08.08,0,0,0,266.94,29.12Z"/><path class="cls-17" d="M268.05,29.56c.17,0,.27-.07.27-.23s0-.15-.15-.2l-.12-.05c-.06,0-.08-.06-.08-.1a.08.08,0,0,1,.09-.09c.06,0,.08,0,.08.11h.15v0c0-.15-.1-.2-.23-.2s-.24.07-.24.22.06.18.2.23.14.06.14.12a.09.09,0,0,1-.1.1c-.08,0-.1-.05-.1-.12v0h-.15v0C267.81,29.48,267.88,29.56,268.05,29.56Z"/><path class="cls-17" d="M268.17,31.12l-.12-.05C268,31,268,31,268,31a.08.08,0,0,1,.09-.09c.06,0,.08,0,.08.11h.15v0c0-.14-.1-.2-.23-.2s-.24.07-.24.22.06.18.2.23.14.06.14.13a.09.09,0,0,1-.1.09c-.08,0-.1-.05-.1-.12v0h-.15v0c0,.14.07.22.24.22s.27-.07.27-.23S268.29,31.17,268.17,31.12Z"/><path class="cls-17" d="M266.05,31.13l-.7-.48v-.19a.08.08,0,0,0,.06-.1s0-.05-.06-.06v-.06a.1.1,0,0,0,.07-.09.12.12,0,0,0-.07-.07v0a.09.09,0,0,0,.06-.1.06.06,0,0,0-.06-.06v-.2l.69-.49,0,.1.41-.47-.59.2.07.06-.6.42v-.27h-1.22V30h-.5v.42h.5v.73h1.22v-.27l.62.42-.08.05.58.22-.4-.48Zm-.81-.14h-1v-.62h.5V30h-.5v-.62h1Z"/><rect class="cls-5" x="275.45" y="34.79" width="5.6" height="5.61"/><rect class="cls-5" x="282.59" y="34.79" width="5.6" height="5.61"/><rect class="cls-5" x="244.07" y="34.79" width="5.6" height="5.61"/><rect class="cls-5" x="251.21" y="34.79" width="5.6" height="5.61"/></g><g id="IOMA"><path class="cls-19" d="M173.74,27H38.55a.77.77,0,0,0-.77.75V48.88a.77.77,0,0,0,.77.75H173.74a.77.77,0,0,0,.77-.75V27.72A.77.77,0,0,0,173.74,27Z"/><path class="cls-8" d="M40.7,48.65H171.59a.41.41,0,0,0,.41-.4h0V28.76a.39.39,0,0,0-.4-.4H40.7a.4.4,0,0,0-.41.4V48.25A.4.4,0,0,0,40.7,48.65Z"/><rect class="cls-20" x="86.03" y="27.67" width="65.65" height="14.92"/><g id="Latch_Controller_IOM-2" data-name="Latch/Controller/IOM"><rect class="cls-9" x="164.08" y="49.22" width="12.49" height="0.81"/><path class="cls-21" d="M83.79,47.44v3.24h83.4a.16.16,0,0,0,.16-.16h0V48.74a.17.17,0,0,0-.16-.17H111.74a.16.16,0,0,1-.16-.16V47.6a.16.16,0,0,0-.16-.16H83.79Z"/><path class="cls-22" d="M88.92,47.44H81.35v3.24h22.8V47.44h-1.09a6.05,6.05,0,0,1-1.69-.24l-4-1.14a5.6,5.6,0,0,0-1.51-.24H90.69a.45.45,0,0,0-.33.17l-1.11,1.29A.43.43,0,0,1,88.92,47.44Z"/><path class="cls-22" d="M83.42,47.44H72v3.24H88.34a.32.32,0,0,0,.33-.32h0V46.14a.33.33,0,0,0-.33-.33H86.09a.79.79,0,0,0-.49.17l-1.68,1.29A.82.82,0,0,1,83.42,47.44Z"/><path class="cls-23" d="M83.79,47.44H35.88a.16.16,0,0,0-.16.16v2.92a.16.16,0,0,0,.16.16H83.79Z"/><path class="cls-12" d="M103.21,48h-1.88a6.11,6.11,0,0,1-1.64-.22l-3.62-1a5.57,5.57,0,0,0-1.46-.19H92.53v3.29h10.68Z"/><polygon class="cls-13" points="95.26 48.26 93.98 47.63 93.98 48.96 95.26 48.26"/></g><path class="cls-5" d="M91.85,35.13a.76.76,0,1,0-.75.75A.75.75,0,0,0,91.85,35.13Z"/><path class="cls-5" d="M114.48,35.13a.76.76,0,1,0-.75.75A.75.75,0,0,0,114.48,35.13Z"/><path class="cls-5" d="M91.85,38.35a.76.76,0,0,0-1.51,0,.76.76,0,1,0,1.51,0Z"/><path class="cls-5" d="M114.53,38.35a.76.76,0,1,0-.76.76A.76.76,0,0,0,114.53,38.35Z"/><path class="cls-5" d="M123.23,35.13a.76.76,0,1,0-1.51,0,.76.76,0,0,0,1.51,0Z"/><path class="cls-5" d="M145.91,35.13a.76.76,0,0,0-.76-.76.75.75,0,0,0-.75.76.74.74,0,0,0,.75.75A.75.75,0,0,0,145.91,35.13Z"/><path class="cls-5" d="M123.23,38.35a.76.76,0,1,0-.76.76A.76.76,0,0,0,123.23,38.35Z"/><path class="cls-5" d="M145.91,38.35a.75.75,0,0,0-.76-.75.74.74,0,0,0-.75.75.75.75,0,0,0,.75.76A.76.76,0,0,0,145.91,38.35Z"/><rect class="cls-9" x="95.48" y="34.2" width="13.92" height="6.79" rx="0.41"/><path class="cls-5" d="M157.23,35.13a.75.75,0,0,0-.75-.76.76.76,0,0,0-.76.76.75.75,0,0,0,.76.75A.74.74,0,0,0,157.23,35.13Z"/><path class="cls-5" d="M157.23,38.35a.74.74,0,0,0-.75-.75.75.75,0,0,0-.76.75.76.76,0,0,0,.76.76A.75.75,0,0,0,157.23,38.35Z"/><rect class="cls-24" x="102.35" y="27.67" width="0.16" height="13.33"/><rect class="cls-9" x="126.86" y="34.2" width="13.92" height="6.79" rx="0.41"/><rect class="cls-24" x="133.73" y="27.67" width="0.16" height="13.33"/><path class="cls-17" d="M120,30.38h.2l0,.16h.16l-.2-.75H120l-.2.75h.16Zm.1-.46h0l.07.34H120Z"/><path class="cls-17" d="M117.6,30.58a.08.08,0,0,0,.08-.08.09.09,0,0,0-.08-.08.08.08,0,0,0-.08.08A.07.07,0,0,0,117.6,30.58Z"/><path class="cls-17" d="M117.87,30.71a.09.09,0,0,0,.08-.08.08.08,0,0,0-.08-.08.07.07,0,0,0-.08.08A.08.08,0,0,0,117.87,30.71Z"/><path class="cls-17" d="M118.14,30.83a.07.07,0,0,0,.07-.08.08.08,0,0,0-.07-.08.09.09,0,0,0-.09.08A.08.08,0,0,0,118.14,30.83Z"/><path class="cls-17" d="M118.4,30.8a.08.08,0,0,0-.08.08.09.09,0,0,0,.08.08.08.08,0,0,0,.08-.08A.07.07,0,0,0,118.4,30.8Z"/><path class="cls-17" d="M118.67,30.92a.08.08,0,0,0-.08.08.08.08,0,0,0,.16,0A.08.08,0,0,0,118.67,30.92Z"/><path class="cls-17" d="M118.94,31.05a.07.07,0,0,0-.08.08.08.08,0,0,0,.08.08.09.09,0,0,0,.08-.08A.08.08,0,0,0,118.94,31.05Z"/><path class="cls-17" d="M117.71,30.16a.09.09,0,0,0-.08-.08.08.08,0,0,0-.08.08.07.07,0,0,0,.08.08A.08.08,0,0,0,117.71,30.16Z"/><path class="cls-17" d="M118,30.16a.08.08,0,0,0-.08-.08.09.09,0,0,0-.08.08.08.08,0,0,0,.08.08A.07.07,0,0,0,118,30.16Z"/><path class="cls-17" d="M118.3,30.16a.09.09,0,0,0-.08-.08.08.08,0,0,0-.08.08.07.07,0,0,0,.08.08A.08.08,0,0,0,118.3,30.16Z"/><path class="cls-17" d="M118.51,30.08a.09.09,0,0,0-.08.08.08.08,0,0,0,.08.08.07.07,0,0,0,.08-.08A.08.08,0,0,0,118.51,30.08Z"/><path class="cls-17" d="M118.89,30.16a.09.09,0,0,0-.08-.08.08.08,0,0,0-.08.08.07.07,0,0,0,.08.08A.08.08,0,0,0,118.89,30.16Z"/><path class="cls-17" d="M119.1,30.08a.09.09,0,0,0-.08.08.08.08,0,0,0,.08.08.08.08,0,0,0,.09-.08A.09.09,0,0,0,119.1,30.08Z"/><path class="cls-17" d="M119.4,30.08a.09.09,0,0,0-.08.08.08.08,0,0,0,.08.08.07.07,0,0,0,.08-.08A.08.08,0,0,0,119.4,30.08Z"/><path class="cls-17" d="M117.6,29.9a.08.08,0,0,0,.08-.08.09.09,0,0,0-.08-.08.08.08,0,0,0-.08.08A.07.07,0,0,0,117.6,29.9Z"/><path class="cls-17" d="M117.87,29.78a.09.09,0,0,0,.08-.08.08.08,0,0,0-.08-.08.07.07,0,0,0-.08.08A.08.08,0,0,0,117.87,29.78Z"/><path class="cls-17" d="M118.14,29.65a.07.07,0,0,0,.07-.08.08.08,0,0,0-.07-.08.09.09,0,0,0-.09.08A.08.08,0,0,0,118.14,29.65Z"/><path class="cls-17" d="M118.4,29.37a.08.08,0,1,0,0,.16.08.08,0,0,0,0-.16Z"/><path class="cls-17" d="M118.67,29.41a.08.08,0,0,0,.08-.08.08.08,0,0,0-.16,0A.08.08,0,0,0,118.67,29.41Z"/><path class="cls-17" d="M118.94,29.12a.08.08,0,0,0-.08.08.07.07,0,0,0,.08.08.08.08,0,0,0,.08-.08A.09.09,0,0,0,118.94,29.12Z"/><path class="cls-17" d="M120.05,29.56c.16,0,.26-.07.26-.23a.2.2,0,0,0-.14-.2l-.12-.05c-.07,0-.08-.06-.08-.1a.08.08,0,0,1,.09-.09s.08,0,.08.11h.15v0c0-.15-.1-.2-.24-.2a.21.21,0,0,0-.24.22c0,.12.07.18.2.23s.14.06.14.12a.09.09,0,0,1-.09.1c-.08,0-.1-.05-.1-.12v0h-.15v0C119.81,29.48,119.87,29.56,120.05,29.56Z"/><path class="cls-17" d="M120.17,31.12l-.12-.05C120,31,120,31,120,31a.08.08,0,0,1,.09-.09s.08,0,.08.11h.15v0c0-.14-.1-.2-.24-.2a.21.21,0,0,0-.24.22c0,.12.07.18.2.23s.14.06.14.13a.08.08,0,0,1-.09.09c-.08,0-.1-.05-.1-.12v0h-.15v0c0,.14.06.22.24.22s.26-.07.26-.23A.2.2,0,0,0,120.17,31.12Z"/><path class="cls-17" d="M118,31.13l-.69-.48v-.19a.08.08,0,0,0,.06-.1.09.09,0,0,0-.06-.06v-.06a.08.08,0,0,0,.06-.09.11.11,0,0,0-.06-.07v0a.09.09,0,0,0,.06-.1s0-.06-.06-.06v-.2l.69-.49,0,.1.4-.47-.59.2.08.06-.6.42v-.27h-1.23V30h-.5v.42h.5v.73h1.23v-.27l.61.42-.08.05.58.22-.39-.48Zm-.8-.14h-1v-.62h.5V30h-.5v-.62h1Z"/><rect class="cls-5" x="127.45" y="34.79" width="5.6" height="5.61"/><rect class="cls-5" x="134.58" y="34.79" width="5.6" height="5.61"/><rect class="cls-5" x="96.07" y="34.79" width="5.6" height="5.61"/><rect class="cls-5" x="103.2" y="34.79" width="5.6" height="5.61"/></g></g><text class="cls-25" transform="translate(164.05 98.16)">A</text><text class="cls-26" transform="translate(188.79 98.16)">B</text><line class="cls-27" x1="200.94" y1="94.53" x2="215.71" y2="94.53"/><polygon points="214.98 97.02 219.3 94.53 214.98 92.04 214.98 97.02"/><line class="cls-27" x1="159.03" y1="94.53" x2="144.26" y2="94.53"/><polygon points="144.99 92.04 140.67 94.53 144.99 97.02 144.99 92.04"/><line class="cls-28" x1="180" y1="4.99" x2="180" y2="103.01"/><line class="cls-29" x1="180" y1="4.99" x2="180" y2="103.01"/></g></svg>