<?xml version="1.0" encoding="UTF-8"?><!-- Generator: Adobe Illustrator 12.0.0, SVG Export Plug-In . SVG Version: 6.00 Build 51448)  --><!DOCTYPE svg PUBLIC "-//W3C//DTD SVG 1.1//EN" "http://www.w3.org/Graphics/SVG/1.1/DTD/svg11.dtd">
<svg xmlns="http://www.w3.org/2000/svg" xmlns:xlink="http://www.w3.org/1999/xlink" version="1.1" id="Layer_1" width="3.448" height="18" viewBox="0 0 3.448 18" overflow="visible" enable-background="new 0 0 3.448 18" xml:space="preserve" preserveAspectRatio="xMidYMid meet" zoomAndPan="magnify" contentScriptType="application/ecmascript" contentStyleType="text/css">
<g>
	<path fill-rule="evenodd" clip-rule="evenodd" fill="#010101" d="M1.722,18c0.948,0,1.727-0.781,1.727-1.728   c0-0.945-0.779-1.719-1.727-1.719C0.774,14.553,0,15.327,0,16.275C0,17.219,0.774,18,1.722,18"/>
	<path fill-rule="evenodd" clip-rule="evenodd" fill="#010101" d="M1.68,12.992L3.358,1.646c0-0.005,0-0.014,0-0.018   C3.358,0.731,2.623,0,1.722,0C0.826,0,0.103,0.731,0.103,1.628c0,0.003,0,0.018,0,0.023 M1.68,12.992L0.103,1.651L1.68,12.992   L3.358,1.646L1.68,12.992z"/>
</g>
</svg>