<?xml version="1.0" encoding="UTF-8"?><svg xmlns="http://www.w3.org/2000/svg" width="4.207in" height="3.606in" viewBox="0 0 302.913 259.608"><g id="a"><rect x="5.094" y="3.404" width="293.969" height="58.794" fill="none" stroke="#a2aaad" stroke-linecap="round" stroke-linejoin="round" stroke-width="1.199"/><rect x="12.944" y="32.894" width="135.226" height="23.518" fill="#caced0" stroke="#a2aaad" stroke-linecap="round" stroke-linejoin="round" stroke-width="1.225"/><rect x="155.407" y="32.894" width="135.226" height="23.518" fill="#caced0" stroke="#a2aaad" stroke-linecap="round" stroke-linejoin="round" stroke-width="1.225"/><path d="M67.982,14.787h1.125v2.556h2.925v-2.556h1.125v6.426h-1.125v-2.898h-2.925v2.898h-1.125v-6.426Z" fill="#221f1f"/><path d="M76.496,21.339c-.372,0-.704-.062-.994-.185-.292-.123-.537-.292-.738-.509-.201-.216-.354-.474-.459-.773-.105-.3-.157-.63-.157-.99,0-.354.052-.681.157-.98.104-.301.258-.559.459-.774s.446-.386.738-.509c.29-.123.622-.185.994-.185s.703.062.994.185.537.293.738.509.354.474.459.774c.104.3.157.627.157.98,0,.36-.053.69-.157.99-.105.3-.258.558-.459.773-.201.217-.447.386-.738.509s-.622.185-.994.185ZM76.496,20.53c.228,0,.426-.049.594-.145s.307-.222.414-.378c.108-.156.188-.331.238-.526s.077-.395.077-.599c0-.198-.026-.396-.077-.594s-.13-.374-.238-.526c-.107-.153-.246-.277-.414-.374-.168-.096-.366-.144-.594-.144s-.426.048-.594.144c-.168.097-.307.221-.414.374-.108.152-.188.328-.239.526-.051.198-.076.396-.076.594,0,.204.025.403.076.599.052.195.131.37.239.526.107.156.246.282.414.378s.365.145.594.145Z" fill="#221f1f"/><path d="M80.474,19.719c.03.3.145.51.342.63.198.12.436.181.712.181.096,0,.205-.008.328-.022.123-.016.238-.044.347-.086.107-.042.196-.104.266-.185.068-.081.1-.188.094-.319s-.054-.24-.144-.324-.206-.151-.347-.202-.302-.095-.481-.131-.363-.075-.549-.117c-.192-.042-.377-.093-.554-.152-.177-.061-.336-.142-.477-.243-.142-.103-.254-.232-.338-.392s-.126-.355-.126-.59c0-.252.062-.463.185-.634.123-.172.279-.31.468-.414.189-.105.399-.179.63-.221.231-.042.452-.063.662-.063.239,0,.469.026.688.077.219.051.417.133.594.247s.324.263.441.445c.116.184.19.404.22.662h-1.07c-.049-.246-.161-.411-.338-.495s-.38-.126-.607-.126c-.072,0-.157.006-.257.018-.099.013-.191.035-.278.067-.088.033-.161.081-.221.145-.061.062-.09.146-.09.247,0,.126.043.229.13.307.087.077.201.143.343.193.141.051.301.094.481.13.18.036.365.075.558.117.186.042.369.093.549.153.18.06.341.141.481.243.141.102.255.23.342.387s.131.348.131.576c0,.275-.062.51-.189.702-.126.191-.289.348-.49.468s-.425.207-.67.261c-.246.054-.489.081-.729.081-.294,0-.565-.033-.814-.099-.249-.066-.465-.167-.647-.302-.184-.135-.327-.303-.433-.504-.104-.201-.16-.439-.166-.716h1.025Z" fill="#221f1f"/><path d="M83.902,16.56h.774v-1.395h1.026v1.395h.927v.766h-.927v2.483c0,.108.004.201.014.279.009.078.029.144.062.198.033.054.082.095.148.121.066.027.156.041.271.041.071,0,.144-.002.216-.005.071-.003.144-.014.216-.031v.792c-.114.012-.225.023-.333.036-.108.012-.219.018-.333.018-.271,0-.487-.025-.652-.076s-.294-.126-.388-.226c-.093-.099-.155-.223-.188-.373s-.053-.321-.059-.513v-2.745h-.774v-.766Z" fill="#221f1f"/><path d="M89.807,15.957c.216,0,.426-.019.63-.054.204-.036.389-.097.554-.181s.306-.191.423-.324c.117-.132.193-.293.229-.485h.837v6.3h-1.125v-4.446h-1.548v-.81Z" fill="#221f1f"/><path d="M209.609,14.787h1.125v2.556h2.925v-2.556h1.125v6.426h-1.125v-2.898h-2.925v2.898h-1.125v-6.426Z" fill="#221f1f"/><path d="M218.123,21.339c-.372,0-.704-.062-.994-.185-.292-.123-.537-.292-.738-.509-.201-.216-.354-.474-.459-.773-.105-.3-.157-.63-.157-.99,0-.354.052-.681.157-.98.104-.301.258-.559.459-.774s.446-.386.738-.509c.29-.123.622-.185.994-.185s.703.062.994.185.537.293.738.509.354.474.459.774c.104.3.157.627.157.98,0,.36-.053.69-.157.99-.105.3-.258.558-.459.773-.201.217-.447.386-.738.509s-.622.185-.994.185ZM218.123,20.53c.228,0,.426-.049.594-.145s.307-.222.414-.378c.108-.156.188-.331.238-.526s.077-.395.077-.599c0-.198-.026-.396-.077-.594s-.13-.374-.238-.526c-.107-.153-.246-.277-.414-.374-.168-.096-.366-.144-.594-.144s-.426.048-.594.144c-.168.097-.307.221-.414.374-.108.152-.188.328-.239.526-.051.198-.076.396-.076.594,0,.204.025.403.076.599.052.195.131.37.239.526.107.156.246.282.414.378s.365.145.594.145Z" fill="#221f1f"/><path d="M222.1,19.719c.03.3.145.51.342.63.198.12.436.181.712.181.096,0,.205-.008.328-.022.123-.016.238-.044.346-.086.109-.042.197-.104.266-.185s.102-.188.096-.319c-.008-.132-.055-.24-.145-.324s-.205-.151-.347-.202-.302-.095-.481-.131-.363-.075-.549-.117c-.192-.042-.377-.093-.554-.152-.177-.061-.336-.142-.477-.243-.142-.103-.254-.232-.338-.392s-.126-.355-.126-.59c0-.252.062-.463.185-.634.123-.172.279-.31.468-.414.189-.105.399-.179.63-.221.231-.042.452-.063.662-.063.239,0,.469.026.688.077.219.051.416.133.594.247.176.114.324.263.441.445.117.184.189.404.221.662h-1.072c-.047-.246-.16-.411-.337-.495s-.38-.126-.607-.126c-.072,0-.157.006-.257.018-.099.013-.191.035-.278.067-.088.033-.161.081-.221.145-.061.062-.09.146-.09.247,0,.126.043.229.13.307.087.077.201.143.343.193.141.051.301.094.481.13.18.036.365.075.557.117.188.042.369.093.549.153.182.06.342.141.482.243.141.102.256.23.342.387.088.156.131.348.131.576,0,.275-.062.51-.189.702-.125.191-.289.348-.49.468s-.424.207-.67.261-.489.081-.729.081c-.294,0-.565-.033-.814-.099-.249-.066-.465-.167-.647-.302-.184-.135-.327-.303-.433-.504-.104-.201-.16-.439-.166-.716h1.025Z" fill="#221f1f"/><path d="M225.529,16.56h.773v-1.395h1.026v1.395h.927v.766h-.927v2.483c0,.108.005.201.014.279s.029.144.062.198c.033.054.083.095.148.121.066.027.156.041.271.041.072,0,.144-.002.216-.005s.144-.014.216-.031v.792c-.114.012-.225.023-.333.036-.107.012-.219.018-.333.018-.27,0-.487-.025-.652-.076s-.294-.126-.387-.226c-.094-.099-.156-.223-.189-.373s-.053-.321-.059-.513v-2.745h-.773v-.766Z" fill="#221f1f"/><path d="M235.609,21.213h-4.303c.006-.522.132-.978.378-1.368.246-.39.582-.729,1.009-1.017.203-.15.417-.296.639-.437.222-.142.426-.293.612-.455.186-.162.339-.337.459-.526.12-.188.183-.406.188-.652,0-.114-.014-.235-.04-.364-.027-.129-.08-.249-.157-.36-.078-.11-.187-.204-.324-.279-.139-.074-.318-.112-.54-.112-.204,0-.374.041-.509.122s-.243.191-.324.333c-.081.141-.141.308-.18.499-.039.192-.062.399-.067.621h-1.026c0-.348.047-.67.14-.968.093-.297.232-.553.419-.77.186-.216.412-.385.679-.508.268-.123.578-.185.932-.185.384,0,.705.062.963.188s.467.285.626.478c.159.191.271.4.338.625.065.226.099.439.099.644,0,.252-.039.48-.117.685s-.183.392-.314.562c-.133.171-.282.328-.45.472-.168.145-.342.279-.522.405-.18.126-.359.246-.54.36-.18.114-.347.228-.499.342-.153.114-.287.232-.4.355-.114.123-.192.254-.234.392h3.069v.918Z" fill="#221f1f"/></g><g id="b"><g id="c"><rect x="7.405" y="142.509" width="65.642" height="108.928" fill="#d0d3d4"/><polygon points="298.427 254.87 4.458 254.87 4.704 139.077 298.672 139.077 298.427 254.87" fill="none" fill-rule="evenodd" stroke="#a2aaad" stroke-linecap="round" stroke-linejoin="round" stroke-width="1.212"/><path d="M71.726,181.322v-21.838c0-1.578-.627-3.091-1.744-4.207l-7.61-7.607c-1.116-1.116-2.63-1.742-4.208-1.742h-21.845c-1.579,0-3.092.627-4.208,1.742l-7.61,7.607c-1.116,1.115-1.743,2.629-1.743,4.207v21.838c0,1.577.626,3.09,1.743,4.205l7.61,7.608c1.116,1.115,2.63,1.742,4.208,1.742h21.845c1.579,0,3.092-.627,4.208-1.742l7.61-7.608c1.116-1.115,1.744-2.629,1.744-4.205Z" fill="#292929" fill-rule="evenodd"/><path d="M62.119,170.403c0-8.214-6.662-14.872-14.878-14.872s-14.878,6.658-14.878,14.872c-.001,8.214,6.661,14.872,14.877,14.872s14.878-6.658,14.879-14.872Z" fill="#d0d3d4" fill-rule="evenodd"/><path d="M47.241,194.829c-6.526,0-12.662-2.541-17.277-7.154-4.616-4.614-7.157-10.748-7.156-17.271,0-13.469,10.961-24.426,24.435-24.426s24.435,10.957,24.435,24.426-10.962,24.426-24.436,24.426ZM47.242,146.36c-13.263,0-24.053,10.785-24.053,24.043,0,6.423,2.502,12.46,7.044,17.001,4.543,4.541,10.584,7.042,17.008,7.042,13.263,0,24.053-10.785,24.053-24.043s-10.79-24.043-24.052-24.043Z" fill="#fff"/><path d="M47.242,146.04c13.438,0,24.372,10.929,24.372,24.363s-10.934,24.363-24.373,24.363c-6.51,0-12.63-2.534-17.234-7.136-4.604-4.602-7.138-10.72-7.138-17.227,0-13.434,10.934-24.363,24.373-24.363M47.241,194.509c13.297,0,24.115-10.814,24.115-24.106s-10.818-24.106-24.114-24.106-24.115,10.814-24.115,24.106c0,6.439,2.508,12.492,7.063,17.045,4.555,4.553,10.61,7.061,17.052,7.061M47.242,145.915c-13.508,0-24.498,10.985-24.498,24.488,0,6.541,2.548,12.69,7.175,17.315,4.627,4.625,10.779,7.173,17.322,7.173,13.508,0,24.498-10.985,24.498-24.488s-10.989-24.488-24.497-24.488h0ZM47.241,194.384c-6.407,0-12.432-2.494-16.963-7.024-4.531-4.53-7.026-10.552-7.026-16.957,0-13.223,10.762-23.981,23.99-23.981s23.989,10.758,23.989,23.981-10.762,23.981-23.99,23.981h0Z" fill="#fff"/><path d="M47.241,190.099c-5.263,0-10.211-2.049-13.933-5.769-3.723-3.721-5.771-8.667-5.771-13.928,0-10.861,8.839-19.697,19.704-19.697,5.265,0,10.213,2.049,13.933,5.77,3.718,3.715,5.767,8.654,5.771,13.908,0,10.88-8.84,19.716-19.704,19.716ZM47.242,151.089c-10.654,0-19.322,8.664-19.322,19.314,0,5.159,2.01,10.009,5.658,13.657,3.65,3.648,8.503,5.657,13.663,5.657,10.644,0,19.312-8.655,19.323-19.295,0-5.179-2.011-10.029-5.659-13.678-3.648-3.647-8.501-5.656-13.663-5.656Z" fill="#fff"/><path d="M47.242,150.768c5.247,0,10.179,2.042,13.889,5.751,3.705,3.704,5.747,8.627,5.752,13.864.001.007.002.013.002.02h-.002.002c-.002,10.826-8.814,19.634-19.643,19.634-5.246,0-10.179-2.043-13.889-5.751-3.71-3.709-5.753-8.639-5.752-13.883,0-10.827,8.812-19.635,19.642-19.635M47.241,189.78c10.681,0,19.374-8.682,19.386-19.358,0-.007-.001-.013-.001-.019,0-5.176-2.016-10.042-5.677-13.702-3.661-3.66-8.529-5.675-13.707-5.675-10.689,0-19.385,8.692-19.385,19.377,0,5.175,2.016,10.041,5.677,13.701s8.529,5.675,13.707,5.675M66.886,170.403h-.002.002M47.242,150.643c-10.9,0-19.767,8.864-19.767,19.76,0,5.277,2.055,10.239,5.789,13.972,3.734,3.732,8.698,5.787,13.977,5.787,10.899,0,19.767-8.864,19.768-19.759v-.125h-.003c-.025-5.219-2.079-10.141-5.787-13.847-3.733-3.732-8.697-5.787-13.977-5.787h0ZM47.241,189.655c-5.144,0-9.981-2.003-13.618-5.639-3.638-3.636-5.641-8.471-5.64-13.613,0-10.616,8.64-19.252,19.26-19.252,5.144,0,9.981,2.003,13.618,5.639,3.637,3.636,5.64,8.471,5.64,13.613v.009l.003.028c-.013,10.586-8.654,19.214-19.262,19.214h0Z" fill="#fff"/><path d="M47.241,185.371c-3.999,0-7.759-1.557-10.587-4.385-2.829-2.826-4.387-6.584-4.386-10.583,0-8.254,6.717-14.969,14.974-14.969s14.974,6.715,14.974,14.969c0,8.253-6.719,14.968-14.975,14.968ZM47.242,155.817c-8.046,0-14.592,6.543-14.592,14.586,0,3.896,1.518,7.56,4.273,10.313,2.757,2.755,6.421,4.272,10.317,4.272,8.046,0,14.592-6.543,14.593-14.586,0-8.043-6.546-14.586-14.592-14.586Z" fill="#fff"/><path d="M47.242,155.497c8.222,0,14.911,6.687,14.911,14.906-.001,8.219-6.691,14.905-14.912,14.905-3.983,0-7.727-1.55-10.544-4.366-2.817-2.815-4.367-6.558-4.367-10.54,0-8.219,6.689-14.906,14.911-14.906M47.241,185.051c8.08,0,14.654-6.571,14.655-14.648,0-8.077-6.574-14.648-14.654-14.648s-14.654,6.571-14.654,14.648c0,3.912,1.523,7.591,4.291,10.358,2.768,2.767,6.448,4.29,10.362,4.29M62.025,170.403h.003-.003M47.242,155.372c-8.291,0-15.036,6.743-15.036,15.031,0,4.015,1.563,7.789,4.403,10.628,2.84,2.839,6.616,4.402,10.632,4.402,8.291,0,15.036-6.743,15.037-15.03,0-8.288-6.745-15.031-15.036-15.031h0ZM47.241,184.926c-3.881,0-7.529-1.511-10.273-4.254-2.744-2.743-4.255-6.39-4.255-10.269,0-8.008,6.518-14.524,14.529-14.524s14.529,6.515,14.529,14.523c0,8.008-6.519,14.523-14.53,14.523h0Z" fill="#fff"/><path d="M47.241,180.642c-5.647,0-10.242-4.594-10.242-10.239s4.595-10.239,10.243-10.239,10.244,4.594,10.244,10.239c0,5.646-4.597,10.239-10.245,10.239ZM47.242,160.546c-5.438,0-9.861,4.422-9.861,9.857s4.423,9.857,9.86,9.857,9.861-4.422,9.862-9.857c0-5.436-4.424-9.857-9.861-9.857Z" fill="#fff"/><path d="M47.242,160.226c5.614,0,10.181,4.565,10.181,10.177,0,5.612-4.568,10.177-10.182,10.177s-10.18-4.565-10.18-10.177,4.567-10.177,10.181-10.177M47.241,180.323c5.471,0,9.924-4.45,9.925-9.92,0-5.47-4.452-9.92-9.924-9.92s-9.924,4.45-9.924,9.92,4.451,9.92,9.923,9.92M57.295,170.403h.003-.003M47.242,160.101c-5.683,0-10.306,4.621-10.306,10.302s4.623,10.302,10.305,10.302,10.306-4.621,10.307-10.302c0-5.681-4.623-10.302-10.306-10.302h0ZM47.241,180.198c-5.402,0-9.798-4.394-9.798-9.795s4.396-9.795,9.799-9.795,9.799,4.394,9.799,9.795c-.001,5.401-4.397,9.795-9.8,9.795h0Z" fill="#fff"/><path d="M47.241,175.914c-3.039,0-5.512-2.472-5.512-5.511s2.473-5.512,5.513-5.512,5.513,2.473,5.513,5.512-2.474,5.511-5.514,5.511ZM47.242,165.274c-2.829,0-5.131,2.301-5.131,5.129s2.301,5.128,5.13,5.128,5.132-2.301,5.132-5.128-2.302-5.129-5.131-5.129Z" fill="#fff"/><path d="M47.242,164.954c3.005,0,5.45,2.444,5.45,5.449s-2.445,5.448-5.451,5.448-5.45-2.444-5.45-5.448,2.445-5.449,5.451-5.449M47.241,175.594c2.864,0,5.194-2.329,5.194-5.191s-2.33-5.191-5.193-5.191-5.193,2.329-5.193,5.191,2.329,5.191,5.192,5.191M47.242,164.829c-3.074,0-5.576,2.5-5.576,5.574s2.501,5.573,5.575,5.573,5.576-2.5,5.576-5.573-2.501-5.574-5.575-5.574h0ZM47.241,175.469c-2.794,0-5.067-2.273-5.067-5.066s2.274-5.066,5.068-5.066,5.068,2.273,5.068,5.066-2.274,5.066-5.069,5.066h0Z" fill="#fff"/><path d="M69.917,193.288l-.108-.057-19.716-19.708c-.761-.762-1.773-1.181-2.853-1.181-1.061,0-2.1.431-2.851,1.181l-19.734,19.727-.117.038c-.051,0-.099-.021-.135-.057-.074-.074-.074-.195,0-.27l19.716-19.709c.82-.821,1.958-1.292,3.121-1.292,1.181,0,2.289.459,3.122,1.292l19.717,19.709c.074.074.074.195,0,.27l-.018.019-.118.038h-.026Z" fill="#fff"/><path d="M47.24,172.023c1.163,0,2.257.452,3.078,1.274l19.716,19.709c.05.05.05.132,0,.182-.025.025-.058.038-.091.038s-.066-.013-.091-.038l-19.716-19.709c-.773-.773-1.801-1.199-2.896-1.199-1.078,0-2.133.437-2.895,1.199l-19.716,19.709c-.025.025-.058.038-.091.038-.033,0-.066-.013-.091-.038-.05-.05-.05-.132,0-.182l19.716-19.709c.809-.809,1.931-1.274,3.077-1.274M47.24,171.898c-1.179,0-2.332.478-3.165,1.311l-19.716,19.709c-.048.048-.074.112-.074.179s.026.131.074.179c.048.048.112.074.18.074s.131-.026.179-.074l19.716-19.709c.738-.738,1.761-1.162,2.806-1.162,1.061,0,2.059.413,2.808,1.162l19.716,19.709c.048.048.112.074.179.074s.131-.026.179-.074c.099-.099.099-.26,0-.359l-19.716-19.709c-.845-.845-1.97-1.311-3.167-1.311h0Z" fill="#fff"/><path d="M47.24,168.846c-1.162,0-2.3-.471-3.121-1.292l-19.716-19.709c-.074-.074-.074-.195,0-.27l.018-.019.117-.038c.052,0,.1.021.136.057l19.716,19.708c.751.75,1.79,1.181,2.851,1.181s2.101-.431,2.853-1.181l19.734-19.727.116-.038c.052,0,.1.021.136.057.074.074.074.195,0,.27l-19.717,19.709c-.82.821-1.959,1.292-3.122,1.292Z" fill="#fff"/><path d="M24.538,147.581c.033,0,.066.013.091.038l19.716,19.709c.762.762,1.817,1.199,2.895,1.199s2.134-.437,2.896-1.199l19.716-19.709c.025-.025.058-.038.091-.038.033,0,.066.013.091.038.05.05.05.132,0,.182l-19.716,19.709c-.81.809-1.932,1.274-3.078,1.274s-2.267-.465-3.077-1.274l-19.716-19.709c-.05-.05-.05-.132,0-.182.025-.025.058-.038.091-.038M69.944,147.456h0c-.068,0-.131.026-.179.074l-19.716,19.709c-.739.738-1.762,1.162-2.808,1.162s-2.068-.424-2.806-1.162l-19.716-19.709c-.048-.048-.112-.074-.179-.074s-.131.026-.179.074c-.048.048-.074.112-.074.179s.026.131.074.179l19.716,19.709c.833.833,1.987,1.311,3.165,1.311s2.333-.478,3.167-1.311l19.716-19.709c.099-.099.099-.26,0-.359-.048-.048-.112-.074-.18-.074h0Z" fill="#fff"/><path d="M71.726,234.351v-21.838c0-1.578-.627-3.091-1.744-4.207l-7.61-7.607c-1.116-1.116-2.63-1.742-4.208-1.742h-21.845c-1.579,0-3.092.627-4.208,1.742l-7.61,7.607c-1.116,1.115-1.743,2.629-1.743,4.207v21.838c0,1.577.626,3.09,1.743,4.205l7.61,7.608c1.116,1.115,2.63,1.742,4.208,1.742h21.845c1.579,0,3.092-.627,4.208-1.742l7.61-7.608c1.116-1.115,1.744-2.629,1.744-4.205Z" fill="#292929" fill-rule="evenodd"/><path d="M62.119,223.432c0-8.214-6.662-14.872-14.878-14.872s-14.878,6.658-14.878,14.872c-.001,8.214,6.661,14.872,14.877,14.872s14.878-6.658,14.879-14.872Z" fill="#d0d3d4" fill-rule="evenodd"/><path d="M47.241,247.857c-6.526,0-12.662-2.541-17.277-7.154-4.616-4.613-7.157-10.747-7.156-17.271,0-13.469,10.961-24.426,24.435-24.426s24.435,10.957,24.435,24.426-10.962,24.426-24.436,24.426ZM47.242,199.388c-13.263,0-24.053,10.785-24.053,24.043,0,6.423,2.502,12.46,7.044,17.001s10.583,7.042,17.008,7.042c13.263,0,24.053-10.785,24.053-24.043s-10.79-24.043-24.052-24.043Z" fill="#fff"/><path d="M47.242,199.069c13.438,0,24.372,10.929,24.372,24.363s-10.934,24.363-24.373,24.363c-6.51,0-12.63-2.534-17.234-7.136-4.604-4.602-7.138-10.72-7.138-17.227,0-13.434,10.934-24.363,24.373-24.363M47.241,247.537c13.297,0,24.115-10.814,24.115-24.106s-10.818-24.106-24.114-24.106-24.115,10.814-24.115,24.106c0,6.439,2.508,12.492,7.063,17.045,4.555,4.553,10.61,7.061,17.052,7.061M47.242,198.944c-13.508,0-24.498,10.985-24.498,24.488,0,6.541,2.548,12.69,7.175,17.315,4.627,4.625,10.779,7.173,17.322,7.173,13.508,0,24.498-10.985,24.498-24.488s-10.989-24.488-24.497-24.488h0ZM47.241,247.412c-6.407,0-12.432-2.495-16.963-7.024-4.531-4.53-7.026-10.552-7.026-16.957,0-13.223,10.762-23.981,23.99-23.981s23.989,10.758,23.989,23.981-10.762,23.981-23.99,23.981h0Z" fill="#fff"/><path d="M47.241,243.129c-5.263,0-10.211-2.049-13.933-5.77-3.723-3.721-5.771-8.667-5.771-13.928,0-10.861,8.839-19.697,19.704-19.697,5.265,0,10.213,2.049,13.933,5.77,3.718,3.715,5.767,8.654,5.771,13.908,0,10.881-8.84,19.717-19.704,19.717ZM47.242,204.117c-10.654,0-19.322,8.664-19.322,19.314,0,5.16,2.01,10.01,5.658,13.657,3.65,3.648,8.503,5.657,13.663,5.657,10.644,0,19.312-8.655,19.323-19.295,0-5.18-2.011-10.029-5.659-13.677-3.649-3.648-8.502-5.657-13.663-5.657Z" fill="#fff"/><path d="M47.242,203.797c5.247,0,10.179,2.042,13.889,5.751,3.705,3.704,5.747,8.627,5.752,13.864.001.007.002.013.002.02h-.002.002c-.002,10.826-8.814,19.634-19.643,19.634-5.246,0-10.179-2.043-13.889-5.751-3.71-3.709-5.753-8.639-5.752-13.883,0-10.827,8.812-19.635,19.642-19.635M47.241,242.809c10.681,0,19.374-8.682,19.386-19.358,0-.007-.001-.013-.001-.019,0-5.176-2.016-10.042-5.677-13.702-3.661-3.66-8.529-5.675-13.707-5.675-10.689,0-19.385,8.692-19.385,19.377,0,5.175,2.016,10.041,5.677,13.701,3.661,3.66,8.529,5.676,13.707,5.676M66.886,223.432h-.002.002M47.242,203.672c-10.9,0-19.767,8.864-19.767,19.76,0,5.277,2.055,10.239,5.789,13.972,3.734,3.732,8.698,5.788,13.977,5.788,10.899,0,19.767-8.864,19.768-19.759v-.125h-.003c-.025-5.219-2.079-10.141-5.787-13.847-3.733-3.732-8.697-5.788-13.977-5.788h0ZM47.241,242.684c-5.144,0-9.981-2.003-13.618-5.639-3.638-3.636-5.641-8.471-5.64-13.613,0-10.616,8.64-19.252,19.26-19.252,5.144,0,9.981,2.003,13.618,5.639,3.637,3.636,5.64,8.471,5.64,13.613v.009l.003.028c-.013,10.586-8.654,19.214-19.262,19.214h0Z" fill="#fff"/><path d="M47.241,238.399c-3.999,0-7.76-1.557-10.587-4.384-2.829-2.827-4.387-6.586-4.386-10.584,0-8.253,6.717-14.968,14.974-14.968s14.974,6.715,14.974,14.968c0,8.253-6.719,14.968-14.975,14.968ZM47.242,208.846c-8.046,0-14.592,6.543-14.592,14.586,0,3.896,1.518,7.56,4.273,10.313,2.757,2.755,6.421,4.272,10.317,4.272,8.046,0,14.592-6.543,14.593-14.586,0-8.043-6.546-14.586-14.592-14.586Z" fill="#fff"/><path d="M47.242,208.526c8.222,0,14.911,6.687,14.911,14.906-.001,8.219-6.691,14.905-14.912,14.905-3.983,0-7.727-1.55-10.544-4.366-2.817-2.815-4.367-6.558-4.367-10.54,0-8.219,6.689-14.906,14.911-14.906M47.241,238.08c8.08,0,14.654-6.571,14.655-14.648,0-8.077-6.574-14.648-14.654-14.648s-14.654,6.571-14.654,14.648c0,3.912,1.523,7.591,4.291,10.358,2.768,2.767,6.448,4.29,10.362,4.29M62.025,223.432h.003-.003M47.242,208.401c-8.291,0-15.036,6.743-15.036,15.031,0,4.015,1.563,7.789,4.403,10.628,2.84,2.839,6.616,4.402,10.632,4.402,8.291,0,15.036-6.743,15.037-15.03,0-8.288-6.745-15.031-15.036-15.031h0ZM47.241,237.955c-3.881,0-7.529-1.511-10.273-4.254-2.744-2.743-4.255-6.39-4.255-10.269,0-8.008,6.518-14.524,14.529-14.524s14.529,6.515,14.529,14.523c0,8.008-6.519,14.523-14.53,14.523h0Z" fill="#fff"/><path d="M47.241,233.672c-5.647,0-10.242-4.594-10.242-10.24s4.595-10.239,10.243-10.239,10.244,4.594,10.244,10.239c0,5.646-4.597,10.24-10.245,10.24ZM47.242,213.575c-5.438,0-9.861,4.422-9.861,9.856s4.423,9.857,9.86,9.857,9.861-4.422,9.862-9.857c0-5.435-4.424-9.856-9.861-9.856Z" fill="#fff"/><path d="M47.242,213.255c5.614,0,10.181,4.565,10.181,10.177,0,5.612-4.568,10.177-10.182,10.177s-10.18-4.565-10.18-10.177,4.567-10.177,10.181-10.177M47.241,233.351c5.471,0,9.924-4.45,9.925-9.92,0-5.47-4.452-9.92-9.924-9.92s-9.924,4.45-9.924,9.92,4.451,9.92,9.923,9.92M57.295,223.432h.003-.003M47.242,213.13c-5.683,0-10.306,4.621-10.306,10.302s4.623,10.302,10.305,10.302,10.306-4.621,10.307-10.302c0-5.681-4.623-10.302-10.306-10.302h0ZM47.241,233.226c-5.402,0-9.798-4.394-9.798-9.795s4.396-9.795,9.799-9.795,9.799,4.394,9.799,9.795c-.001,5.401-4.397,9.795-9.8,9.795h0Z" fill="#fff"/><path d="M47.241,228.942c-3.039,0-5.512-2.472-5.512-5.511s2.473-5.511,5.513-5.511,5.513,2.472,5.513,5.511-2.474,5.511-5.514,5.511ZM47.242,218.303c-2.829,0-5.131,2.301-5.131,5.129s2.301,5.129,5.13,5.129,5.132-2.301,5.132-5.129-2.302-5.129-5.131-5.129Z" fill="#fff"/><path d="M47.242,217.983c3.005,0,5.45,2.444,5.45,5.449s-2.445,5.448-5.451,5.448-5.45-2.444-5.45-5.448,2.445-5.449,5.451-5.449M47.241,228.623c2.864,0,5.194-2.329,5.194-5.191s-2.33-5.191-5.193-5.191-5.193,2.329-5.193,5.191,2.329,5.191,5.192,5.191M47.242,217.858c-3.074,0-5.576,2.5-5.576,5.574s2.501,5.573,5.575,5.573,5.576-2.5,5.576-5.573-2.501-5.574-5.575-5.574h0ZM47.241,228.498c-2.794,0-5.067-2.273-5.067-5.066s2.274-5.066,5.068-5.066,5.068,2.273,5.068,5.066-2.274,5.066-5.069,5.066h0Z" fill="#fff"/><path d="M24.513,246.316l-.109-.055c-.073-.075-.073-.197,0-.271l19.717-19.708c.821-.822,1.959-1.293,3.121-1.293,1.181,0,2.29.459,3.122,1.293l19.717,19.708c.073.074.073.196,0,.271l-.019.019-.118.037c-.049,0-.098-.02-.134-.055l-19.717-19.71c-.761-.761-1.774-1.18-2.853-1.18-1.062,0-2.101.43-2.851,1.18l-19.734,19.728-.116.037h-.026Z" fill="#fff"/><path d="M47.24,225.052c1.163,0,2.257.452,3.078,1.274l19.716,19.709c.05.05.05.132,0,.182-.025.025-.058.038-.091.038s-.066-.013-.091-.038l-19.716-19.709c-.773-.773-1.801-1.199-2.896-1.199-1.078,0-2.133.437-2.895,1.199l-19.716,19.709c-.025.025-.058.038-.091.038-.033,0-.066-.013-.091-.038-.05-.05-.05-.132,0-.182l19.716-19.709c.809-.809,1.931-1.274,3.077-1.274M47.24,224.927c-1.179,0-2.332.478-3.165,1.311l-19.716,19.709c-.048.048-.074.112-.074.179s.026.132.074.179c.048.048.112.074.18.074s.131-.026.179-.074l19.716-19.709c.738-.738,1.761-1.162,2.806-1.162,1.061,0,2.059.413,2.808,1.162l19.716,19.709c.048.048.112.074.179.074s.131-.026.179-.074c.099-.099.099-.26,0-.359l-19.716-19.709c-.845-.845-1.97-1.311-3.167-1.311h0Z" fill="#fff"/><path d="M47.24,221.875c-1.161,0-2.299-.471-3.121-1.293l-19.716-19.709c-.074-.074-.074-.195,0-.27l.018-.019.117-.037c.052,0,.1.02.135.056l19.717,19.709c.75.75,1.789,1.18,2.851,1.18s2.102-.43,2.853-1.18l19.734-19.728.116-.038c.052,0,.1.021.136.057.074.074.074.195,0,.27l-19.717,19.709c-.821.822-1.959,1.293-3.122,1.293Z" fill="#fff"/><path d="M24.538,200.61c.033,0,.066.013.091.038l19.716,19.709c.762.762,1.817,1.199,2.895,1.199s2.134-.437,2.896-1.199l19.716-19.709c.025-.025.058-.038.091-.038.033,0,.066.013.091.038.05.05.05.132,0,.182l-19.716,19.709c-.81.809-1.932,1.274-3.078,1.274s-2.267-.465-3.077-1.274l-19.716-19.709c-.05-.05-.05-.132,0-.182.025-.025.058-.038.091-.038M24.538,200.485c-.068,0-.131.026-.179.074-.048.048-.074.112-.074.179s.026.131.074.179l19.716,19.709c.833.833,1.987,1.311,3.165,1.311s2.333-.478,3.167-1.311l19.716-19.709c.099-.099.099-.26,0-.359-.048-.048-.112-.074-.18-.074s-.131.026-.179.074l-19.716,19.709c-.739.738-1.762,1.162-2.808,1.162s-2.068-.424-2.806-1.162l-19.716-19.709c-.048-.048-.112-.074-.179-.074h0Z" fill="#fff"/><rect x="75.994" y="142.509" width="151.387" height="108.928" fill="#292929"/><rect x="230.224" y="142.509" width="65.594" height="108.928" fill="#d0d3d4"/><path d="M280.639,181.322v-21.838c0-1.578-.627-3.091-1.744-4.207l-7.61-7.607c-1.116-1.116-2.63-1.742-4.208-1.742h-21.845c-1.579,0-3.092.627-4.208,1.742l-7.61,7.607c-1.116,1.115-1.743,2.629-1.743,4.207v21.838c0,1.577.626,3.09,1.743,4.205l7.61,7.608c1.116,1.115,2.63,1.742,4.208,1.742h21.845c1.579,0,3.092-.627,4.208-1.742l7.61-7.608c1.116-1.115,1.744-2.629,1.744-4.205Z" fill="#292929" fill-rule="evenodd"/><path d="M271.032,170.403c0-8.214-6.662-14.872-14.878-14.872s-14.878,6.658-14.878,14.872c-.001,8.214,6.661,14.872,14.877,14.872s14.878-6.658,14.879-14.872Z" fill="#d0d3d4" fill-rule="evenodd"/><path d="M256.154,194.829c-6.527,0-12.663-2.541-17.278-7.154s-7.156-10.747-7.156-17.271c0-13.469,10.962-24.426,24.436-24.426s24.434,10.957,24.434,24.426-10.961,24.426-24.435,24.426ZM256.155,146.36c-13.263,0-24.053,10.785-24.053,24.043,0,6.422,2.501,12.459,7.044,17.001,4.543,4.541,10.584,7.042,17.008,7.042,13.263,0,24.053-10.785,24.053-24.043s-10.79-24.043-24.052-24.043Z" fill="#fff"/><path d="M256.155,146.04c13.438,0,24.372,10.929,24.372,24.363s-10.934,24.363-24.373,24.363c-6.51,0-12.63-2.534-17.234-7.136-4.604-4.602-7.138-10.72-7.138-17.227,0-13.434,10.934-24.363,24.373-24.363M256.154,194.509c13.297,0,24.115-10.814,24.115-24.106s-10.818-24.106-24.114-24.106-24.115,10.814-24.115,24.106c0,6.439,2.508,12.492,7.063,17.045,4.555,4.553,10.61,7.061,17.052,7.061M256.155,145.915c-13.508,0-24.498,10.985-24.498,24.488,0,6.541,2.548,12.69,7.175,17.315,4.627,4.625,10.779,7.173,17.322,7.173,13.508,0,24.498-10.985,24.498-24.488s-10.989-24.488-24.497-24.488h0ZM256.154,194.384c-6.407,0-12.432-2.494-16.963-7.024-4.531-4.53-7.026-10.552-7.026-16.957,0-13.223,10.762-23.981,23.99-23.981s23.989,10.758,23.989,23.981-10.762,23.981-23.99,23.981h0Z" fill="#fff"/><path d="M256.154,190.099c-5.263,0-10.211-2.049-13.934-5.769-3.722-3.721-5.771-8.667-5.771-13.928,0-10.861,8.84-19.697,19.705-19.697,5.264,0,10.212,2.049,13.933,5.77,3.717,3.715,5.766,8.654,5.771,13.908,0,10.88-8.84,19.716-19.704,19.716ZM256.155,151.089c-10.654,0-19.322,8.664-19.322,19.314,0,5.159,2.009,10.009,5.658,13.657s8.502,5.657,13.663,5.657c10.643,0,19.311-8.655,19.323-19.295,0-5.178-2.01-10.028-5.659-13.678-3.649-3.647-8.502-5.656-13.663-5.656Z" fill="#fff"/><path d="M256.155,150.768c5.247,0,10.179,2.042,13.889,5.751,3.705,3.704,5.747,8.627,5.752,13.864.001.007.002.013.002.02h-.002.002c-.002,10.826-8.814,19.634-19.643,19.634-5.246,0-10.179-2.043-13.889-5.751-3.71-3.709-5.753-8.639-5.752-13.883,0-10.827,8.812-19.635,19.642-19.635M256.154,189.78c10.681,0,19.374-8.682,19.386-19.358-.001-.007-.002-.013-.002-.019,0-5.176-2.016-10.042-5.677-13.702-3.661-3.66-8.529-5.675-13.707-5.675-10.689,0-19.385,8.692-19.385,19.377,0,5.175,2.016,10.041,5.677,13.701s8.529,5.675,13.707,5.675M275.799,170.403h-.002.002M256.155,150.643c-10.9,0-19.767,8.864-19.767,19.76,0,5.277,2.055,10.239,5.789,13.972,3.734,3.732,8.698,5.787,13.977,5.787,10.899,0,19.767-8.864,19.768-19.759v-.125h-.003c-.025-5.219-2.079-10.141-5.787-13.847-3.733-3.732-8.697-5.787-13.977-5.787h0ZM256.154,189.655c-5.144,0-9.981-2.003-13.618-5.639-3.638-3.636-5.641-8.471-5.64-13.613,0-10.616,8.64-19.252,19.26-19.252,5.144,0,9.981,2.003,13.618,5.639,3.637,3.636,5.64,8.471,5.64,13.613v.01l.003.029c-.014,10.585-8.654,19.213-19.262,19.213h0Z" fill="#fff"/><path d="M256.154,185.371c-3.999,0-7.76-1.557-10.588-4.385-2.828-2.826-4.386-6.584-4.386-10.583,0-8.254,6.718-14.969,14.975-14.969s14.974,6.715,14.974,14.969c0,8.253-6.719,14.968-14.975,14.968ZM256.155,155.817c-8.046,0-14.592,6.543-14.592,14.586,0,3.896,1.517,7.558,4.272,10.313,2.757,2.755,6.421,4.272,10.318,4.272,8.045,0,14.591-6.543,14.592-14.586,0-8.043-6.545-14.586-14.591-14.586Z" fill="#fff"/><path d="M256.155,155.497c8.222,0,14.911,6.687,14.911,14.906,0,8.219-6.691,14.905-14.912,14.905-3.983,0-7.727-1.55-10.544-4.366-2.817-2.815-4.367-6.558-4.367-10.54,0-8.219,6.689-14.906,14.911-14.906M256.154,185.051c8.08,0,14.654-6.571,14.655-14.648,0-8.077-6.574-14.648-14.654-14.648s-14.654,6.571-14.654,14.648c0,3.912,1.523,7.591,4.291,10.358,2.768,2.767,6.448,4.29,10.362,4.29M270.938,170.403h.003-.003M256.155,155.372c-8.291,0-15.036,6.743-15.036,15.031,0,4.015,1.563,7.789,4.404,10.628,2.84,2.839,6.616,4.402,10.632,4.402,8.291,0,15.036-6.743,15.037-15.03,0-8.288-6.745-15.031-15.036-15.031h0ZM256.154,184.926c-3.881,0-7.529-1.511-10.273-4.254-2.744-2.743-4.255-6.39-4.255-10.269,0-8.008,6.518-14.524,14.529-14.524s14.529,6.515,14.529,14.523c-.001,8.008-6.519,14.523-14.53,14.523h0Z" fill="#fff"/><path d="M256.154,180.642c-5.648,0-10.243-4.594-10.243-10.239s4.596-10.239,10.244-10.239,10.243,4.594,10.243,10.239c0,5.646-4.597,10.239-10.244,10.239ZM256.155,160.546c-5.438,0-9.861,4.422-9.861,9.857s4.423,9.857,9.86,9.857,9.861-4.422,9.862-9.857c0-5.436-4.424-9.857-9.861-9.857Z" fill="#fff"/><path d="M256.155,160.226c5.614,0,10.181,4.565,10.181,10.177,0,5.612-4.568,10.177-10.182,10.177s-10.18-4.565-10.18-10.177,4.567-10.177,10.181-10.177M256.154,180.323c5.471,0,9.924-4.45,9.925-9.92,0-5.47-4.452-9.92-9.924-9.92s-9.924,4.45-9.924,9.92,4.451,9.92,9.923,9.92M266.207,170.403h.003-.003M256.155,160.101c-5.683,0-10.306,4.621-10.306,10.302s4.623,10.302,10.305,10.302,10.306-4.621,10.307-10.302c0-5.681-4.623-10.302-10.306-10.302h0ZM256.154,180.198c-5.402,0-9.798-4.394-9.798-9.795s4.396-9.795,9.799-9.795,9.799,4.394,9.799,9.795c-.001,5.401-4.397,9.795-9.8,9.795h0Z" fill="#fff"/><path d="M256.154,175.914c-3.04,0-5.513-2.472-5.513-5.511s2.474-5.512,5.514-5.512,5.513,2.473,5.513,5.512-2.474,5.511-5.514,5.511ZM256.155,165.274c-2.829,0-5.131,2.301-5.131,5.129s2.301,5.128,5.13,5.128,5.131-2.301,5.131-5.128-2.301-5.129-5.13-5.129Z" fill="#fff"/><path d="M256.155,164.954c3.005,0,5.45,2.444,5.45,5.449s-2.445,5.448-5.451,5.448-5.45-2.444-5.45-5.448,2.445-5.449,5.451-5.449M256.154,175.594c2.864,0,5.194-2.329,5.194-5.191s-2.33-5.191-5.193-5.191-5.193,2.329-5.193,5.191,2.329,5.191,5.192,5.191M256.155,164.829c-3.074,0-5.576,2.5-5.576,5.574s2.501,5.573,5.575,5.573,5.576-2.5,5.576-5.573-2.501-5.574-5.575-5.574h0ZM256.154,175.469c-2.794,0-5.067-2.273-5.067-5.066s2.274-5.066,5.068-5.066,5.068,2.273,5.068,5.066-2.274,5.066-5.069,5.066h0Z" fill="#fff"/><path d="M278.83,193.288l-.108-.057-19.717-19.708c-.761-.762-1.773-1.181-2.852-1.181-1.062,0-2.101.431-2.852,1.181l-19.733,19.727-.117.038c-.051,0-.099-.021-.135-.057l-.019-.018-.038-.117c0-.052.021-.1.057-.136l19.716-19.708c.82-.821,1.958-1.292,3.121-1.292,1.181,0,2.289.459,3.122,1.292l19.734,19.727.038.117c0,.052-.021.1-.057.136l-.019.018-.116.038h-.026Z" fill="#fff"/><path d="M256.153,172.023c1.163,0,2.257.452,3.078,1.274l19.716,19.709c.05.05.05.132,0,.182-.025.025-.058.038-.091.038s-.066-.013-.091-.038l-19.716-19.709c-.773-.773-1.801-1.199-2.896-1.199-1.078,0-2.133.437-2.895,1.199l-19.716,19.709c-.025.025-.058.038-.091.038-.033,0-.066-.013-.091-.038-.05-.05-.05-.132,0-.182l19.716-19.709c.809-.809,1.931-1.274,3.077-1.274M256.153,171.898c-1.179,0-2.332.478-3.165,1.311l-19.716,19.709c-.048.048-.074.112-.074.179s.026.131.074.179c.048.048.112.074.18.074s.131-.026.179-.074l19.716-19.709c.738-.738,1.761-1.162,2.806-1.162,1.061,0,2.059.413,2.808,1.162l19.716,19.709c.048.048.112.074.179.074s.131-.026.179-.074c.048-.048.074-.112.074-.179s-.026-.131-.074-.179l-19.716-19.709c-.845-.845-1.97-1.311-3.167-1.311h0Z" fill="#fff"/><path d="M256.153,168.846c-1.163,0-2.301-.471-3.121-1.292l-19.734-19.727-.038-.117c0-.052.021-.1.057-.136l.019-.018.116-.038c.052,0,.1.021.136.057l19.715,19.708c.752.75,1.791,1.181,2.852,1.181s2.101-.431,2.852-1.181l19.735-19.727.116-.038c.051,0,.099.021.135.057l.019.018.038.117c0,.052-.021.1-.057.136l-19.716,19.708c-.821.821-1.96,1.292-3.122,1.292Z" fill="#fff"/><path d="M233.451,147.581c.033,0,.066.013.091.038l19.716,19.709c.762.762,1.817,1.199,2.895,1.199s2.134-.437,2.896-1.199l19.716-19.709c.025-.025.058-.038.091-.038.033,0,.066.013.091.038.05.05.05.132,0,.182l-19.716,19.709c-.81.809-1.932,1.274-3.078,1.274s-2.267-.465-3.077-1.274l-19.716-19.709c-.05-.05-.05-.132,0-.182.025-.025.058-.038.091-.038M278.856,147.456h0c-.068,0-.131.026-.179.074l-19.716,19.709c-.739.738-1.762,1.162-2.808,1.162s-2.068-.424-2.806-1.162l-19.716-19.709c-.048-.048-.112-.074-.179-.074s-.131.026-.179.074c-.048.048-.074.112-.074.179s.026.131.074.179l19.716,19.709c.833.833,1.987,1.311,3.165,1.311s2.333-.478,3.167-1.311l19.716-19.709c.048-.048.074-.112.074-.179s-.026-.131-.074-.179c-.048-.048-.112-.074-.18-.074h0Z" fill="#fff"/><path d="M280.639,234.351v-21.838c0-1.578-.627-3.091-1.744-4.207l-7.61-7.607c-1.116-1.116-2.63-1.742-4.208-1.742h-21.845c-1.579,0-3.092.627-4.208,1.742l-7.61,7.607c-1.116,1.115-1.743,2.629-1.743,4.207v21.838c0,1.577.626,3.09,1.743,4.205l7.61,7.608c1.116,1.115,2.63,1.742,4.208,1.742h21.845c1.579,0,3.092-.627,4.208-1.742l7.61-7.608c1.116-1.115,1.744-2.629,1.744-4.205Z" fill="#292929" fill-rule="evenodd"/><path d="M271.032,223.432c0-8.214-6.662-14.872-14.878-14.872s-14.878,6.658-14.878,14.872c-.001,8.214,6.661,14.872,14.877,14.872s14.878-6.658,14.879-14.872Z" fill="#d0d3d4" fill-rule="evenodd"/><path d="M256.154,247.857c-6.527,0-12.663-2.541-17.278-7.154-4.615-4.612-7.156-10.746-7.156-17.271,0-13.469,10.962-24.426,24.436-24.426s24.434,10.957,24.434,24.426-10.961,24.426-24.435,24.426ZM256.155,199.388c-13.263,0-24.053,10.785-24.053,24.043,0,6.422,2.501,12.459,7.044,17.001,4.543,4.541,10.583,7.042,17.008,7.042,13.263,0,24.053-10.785,24.053-24.043s-10.79-24.043-24.052-24.043Z" fill="#fff"/><path d="M256.155,199.069c13.438,0,24.372,10.929,24.372,24.363s-10.934,24.363-24.373,24.363c-6.51,0-12.63-2.534-17.234-7.136-4.604-4.602-7.138-10.72-7.138-17.227,0-13.434,10.934-24.363,24.373-24.363M256.154,247.537c13.297,0,24.115-10.814,24.115-24.106s-10.818-24.106-24.114-24.106-24.115,10.814-24.115,24.106c0,6.439,2.508,12.492,7.063,17.045,4.555,4.553,10.61,7.061,17.052,7.061M256.155,198.944c-13.508,0-24.498,10.985-24.498,24.488,0,6.541,2.548,12.69,7.175,17.315,4.627,4.625,10.779,7.173,17.322,7.173,13.508,0,24.498-10.985,24.498-24.488s-10.989-24.488-24.497-24.488h0ZM256.154,247.412c-6.407,0-12.432-2.495-16.963-7.024-4.531-4.53-7.026-10.552-7.026-16.957,0-13.223,10.762-23.981,23.99-23.981s23.989,10.758,23.989,23.981-10.762,23.981-23.99,23.981h0Z" fill="#fff"/><path d="M256.154,243.129c-5.262,0-10.211-2.049-13.934-5.77-3.722-3.721-5.771-8.667-5.771-13.928,0-10.861,8.84-19.697,19.705-19.697,5.264,0,10.212,2.049,13.933,5.77,3.717,3.715,5.766,8.654,5.771,13.908,0,10.881-8.84,19.717-19.704,19.717ZM256.155,204.117c-10.654,0-19.322,8.664-19.322,19.314,0,5.16,2.009,10.01,5.658,13.657,3.649,3.648,8.502,5.657,13.663,5.657,10.643,0,19.311-8.655,19.323-19.295,0-5.178-2.01-10.028-5.659-13.677-3.65-3.648-8.503-5.657-13.663-5.657Z" fill="#fff"/><path d="M256.155,203.797c5.247,0,10.179,2.042,13.889,5.751,3.705,3.704,5.747,8.627,5.752,13.864.001.007.002.013.002.02h-.002.002c-.002,10.826-8.814,19.634-19.643,19.634-5.246,0-10.179-2.043-13.889-5.751-3.71-3.709-5.753-8.639-5.752-13.883,0-10.827,8.812-19.635,19.642-19.635M256.154,242.809c10.681,0,19.374-8.682,19.386-19.358-.001-.007-.002-.013-.002-.019,0-5.176-2.016-10.042-5.677-13.702-3.661-3.66-8.529-5.675-13.707-5.675-10.689,0-19.385,8.692-19.385,19.377,0,5.175,2.016,10.041,5.677,13.701,3.661,3.66,8.529,5.676,13.707,5.676M275.799,223.432h-.002.002M256.155,203.672c-10.9,0-19.767,8.864-19.767,19.76,0,5.277,2.055,10.239,5.789,13.972,3.734,3.732,8.698,5.788,13.977,5.788,10.899,0,19.767-8.864,19.768-19.759v-.125h-.003c-.025-5.219-2.079-10.141-5.787-13.847-3.733-3.732-8.697-5.788-13.977-5.788h0ZM256.154,242.684c-5.144,0-9.981-2.003-13.618-5.639-3.638-3.636-5.641-8.471-5.64-13.613,0-10.616,8.64-19.252,19.26-19.252,5.144,0,9.981,2.003,13.618,5.639,3.637,3.636,5.64,8.471,5.64,13.613v.01l.003.029c-.014,10.585-8.654,19.213-19.262,19.213h0Z" fill="#fff"/><path d="M256.154,238.399c-4,0-7.761-1.557-10.588-4.384-2.828-2.827-4.386-6.586-4.386-10.584,0-8.253,6.718-14.968,14.975-14.968s14.974,6.715,14.974,14.968c0,8.253-6.719,14.968-14.975,14.968ZM256.155,208.846c-8.046,0-14.592,6.543-14.592,14.586,0,3.896,1.517,7.558,4.272,10.313,2.757,2.755,6.421,4.272,10.318,4.272,8.045,0,14.591-6.543,14.592-14.586,0-8.043-6.545-14.586-14.591-14.586Z" fill="#fff"/><path d="M256.155,208.526c8.222,0,14.911,6.687,14.911,14.906,0,8.219-6.691,14.905-14.912,14.905-3.983,0-7.727-1.55-10.544-4.366-2.817-2.815-4.367-6.558-4.367-10.54,0-8.219,6.689-14.906,14.911-14.906M256.154,238.08c8.08,0,14.654-6.571,14.655-14.648,0-8.077-6.574-14.648-14.654-14.648s-14.654,6.571-14.654,14.648c0,3.912,1.523,7.591,4.291,10.358,2.768,2.767,6.448,4.29,10.362,4.29M270.938,223.432h.003-.003M256.155,208.401c-8.291,0-15.036,6.743-15.036,15.031,0,4.015,1.563,7.789,4.404,10.628,2.84,2.839,6.616,4.402,10.632,4.402,8.291,0,15.036-6.743,15.037-15.03,0-8.288-6.745-15.031-15.036-15.031h0ZM256.154,237.955c-3.881,0-7.529-1.511-10.273-4.254-2.744-2.743-4.255-6.39-4.255-10.269,0-8.008,6.518-14.524,14.529-14.524s14.529,6.515,14.529,14.523c-.001,8.008-6.519,14.523-14.53,14.523h0Z" fill="#fff"/><path d="M256.154,233.672c-5.648,0-10.243-4.594-10.243-10.24s4.596-10.239,10.244-10.239,10.243,4.594,10.243,10.239c0,5.646-4.597,10.24-10.244,10.24ZM256.155,213.575c-5.438,0-9.861,4.422-9.861,9.856s4.423,9.857,9.86,9.857,9.861-4.422,9.862-9.857c0-5.435-4.424-9.856-9.861-9.856Z" fill="#fff"/><path d="M256.155,213.255c5.614,0,10.181,4.565,10.181,10.177,0,5.612-4.568,10.177-10.182,10.177s-10.18-4.565-10.18-10.177,4.567-10.177,10.181-10.177M256.154,233.351c5.471,0,9.924-4.45,9.925-9.92,0-5.47-4.452-9.92-9.924-9.92s-9.924,4.45-9.924,9.92,4.451,9.92,9.923,9.92M266.207,223.432h.003-.003M256.155,213.13c-5.683,0-10.306,4.621-10.306,10.302s4.623,10.302,10.305,10.302,10.306-4.621,10.307-10.302c0-5.681-4.623-10.302-10.306-10.302h0ZM256.154,233.226c-5.402,0-9.798-4.394-9.798-9.795s4.396-9.795,9.799-9.795,9.799,4.394,9.799,9.795c-.001,5.401-4.397,9.795-9.8,9.795h0Z" fill="#fff"/><path d="M256.154,228.942c-3.04,0-5.513-2.472-5.513-5.511s2.474-5.511,5.514-5.511,5.513,2.472,5.513,5.511-2.474,5.511-5.514,5.511ZM256.155,218.303c-2.829,0-5.131,2.301-5.131,5.129s2.301,5.129,5.13,5.129,5.131-2.301,5.131-5.129-2.301-5.129-5.13-5.129Z" fill="#fff"/><path d="M256.155,217.983c3.005,0,5.45,2.444,5.45,5.449s-2.445,5.448-5.451,5.448-5.45-2.444-5.45-5.448,2.445-5.449,5.451-5.449M256.154,228.623c2.864,0,5.194-2.329,5.194-5.191s-2.33-5.191-5.193-5.191-5.193,2.329-5.193,5.191,2.329,5.191,5.192,5.191M256.155,217.858c-3.074,0-5.576,2.5-5.576,5.574s2.501,5.573,5.575,5.573,5.576-2.5,5.576-5.573-2.501-5.574-5.575-5.574h0ZM256.154,228.498c-2.794,0-5.067-2.273-5.067-5.066s2.274-5.066,5.068-5.066,5.068,2.273,5.068,5.066-2.274,5.066-5.069,5.066h0Z" fill="#fff"/><path d="M233.426,246.316l-.109-.055c-.075-.075-.075-.197,0-.271l19.716-19.708c.821-.822,1.959-1.293,3.121-1.293,1.181,0,2.29.459,3.122,1.293l19.716,19.708c.075.074.075.196,0,.271l-.018.019-.117.037c-.05,0-.098-.02-.134-.055l-19.718-19.71c-.761-.761-1.773-1.18-2.852-1.18-1.062,0-2.102.43-2.852,1.18l-19.733,19.728-.116.037h-.026Z" fill="#fff"/><path d="M256.153,225.052c1.163,0,2.257.452,3.078,1.274l19.716,19.709c.05.05.05.132,0,.182-.025.025-.058.038-.091.038s-.066-.013-.091-.038l-19.716-19.709c-.773-.773-1.801-1.199-2.896-1.199-1.078,0-2.133.437-2.895,1.199l-19.716,19.709c-.025.025-.058.038-.091.038-.033,0-.066-.013-.091-.038-.05-.05-.05-.132,0-.182l19.716-19.709c.809-.809,1.931-1.274,3.077-1.274M256.153,224.927c-1.179,0-2.332.478-3.165,1.311l-19.716,19.709c-.048.048-.074.112-.074.179s.026.132.074.179.112.074.18.074.131-.026.179-.074l19.716-19.709c.738-.738,1.761-1.162,2.806-1.162,1.061,0,2.059.413,2.808,1.162l19.716,19.709c.048.048.112.074.179.074s.131-.026.179-.074c.048-.048.074-.112.074-.179s-.026-.131-.074-.179l-19.716-19.709c-.845-.845-1.97-1.311-3.167-1.311h0Z" fill="#fff"/><path d="M256.153,221.875c-1.162,0-2.3-.471-3.121-1.293l-19.734-19.727-.038-.117c0-.052.021-.1.057-.136l.019-.018.116-.037c.051,0,.1.02.135.056l19.716,19.709c.751.75,1.79,1.18,2.852,1.18s2.102-.43,2.852-1.18l19.735-19.728.116-.038c.051,0,.099.021.135.057l.019.018.038.117c0,.052-.021.1-.057.136l-19.716,19.708c-.822.822-1.96,1.293-3.122,1.293Z" fill="#fff"/><path d="M233.451,200.61c.033,0,.066.013.091.038l19.716,19.709c.762.762,1.817,1.199,2.895,1.199s2.134-.437,2.896-1.199l19.716-19.709c.025-.025.058-.038.091-.038.033,0,.066.013.091.038.05.05.05.132,0,.182l-19.716,19.709c-.81.809-1.932,1.274-3.078,1.274s-2.267-.465-3.077-1.274l-19.716-19.709c-.05-.05-.05-.132,0-.182.025-.025.058-.038.091-.038M233.451,200.485c-.068,0-.131.026-.179.074-.048.048-.074.112-.074.179s.026.131.074.179l19.716,19.709c.833.833,1.987,1.311,3.165,1.311s2.333-.478,3.167-1.311l19.716-19.709c.048-.048.074-.112.074-.179s-.026-.131-.074-.179c-.048-.048-.112-.074-.18-.074s-.131.026-.179.074l-19.716,19.709c-.739.738-1.762,1.162-2.808,1.162s-2.068-.424-2.806-1.162l-19.716-19.709c-.048-.048-.112-.074-.179-.074h0Z" fill="#fff"/><g id="d"><rect x="83.232" y="144.689" width="136.72" height="23.062" rx=".761" ry=".761" fill="#d0d3d4" stroke="#fff" stroke-miterlimit="10" stroke-width=".5"/><path d="M106.849,162.916h8.262c.319,0,.578-.259.578-.578h0v-12.225c0-.319-.259-.578-.578-.578h-8.262c-.319,0-.578.259-.578.578v12.225c0,.319.259.578.578.578Z" fill="#a2aaad"/><path d="M114.45,153.169v-1.817c0-.183-.148-.33-.33-.33h-6.279c-.182,0-.33.148-.33.33v1.817h6.94Z" fill="#101820"/><path d="M114.45,153.169h-6.94v7.764c0,.182.148.33.33.33h6.279c.183,0,.33-.148.33-.33h0v-7.764Z" fill="#333f48"/><path d="M110.964,156.404c.096,0,.191-.064.191-.159v-1.369c0-.096-.096-.159-.191-.159s-.159.064-.159.159v1.369c0,.096.064.159.159.159M111.601,158.761c0-.35-.287-.605-.637-.605-.318,0-.605.255-.605.605s.287.605.605.605c.35,0,.637-.255.637-.605ZM111.952,158.761c0-.541-.446-.955-.987-.955-.51,0-.955.414-.955.955s.446.955.955.955c.541,0,.987-.414.987-.955Z" fill="#fff" fill-rule="evenodd"/><path d="M119.724,166.48h21.201c.313,0,.569-.256.569-.572h0v-19.367c0-.316-.255-.572-.569-.572h-21.201c-.315,0-.569.256-.569.572v19.367c0,.316.254.572.569.572Z" fill="#a2aaad" fill-rule="evenodd"/><circle cx="127.509" cy="164.767" r="1.01" fill="#101820"/><circle cx="133.573" cy="164.767" r="1.01" fill="#101820"/><path d="M133.746,162.584c0-.087-.087-.173-.173-.173s-.173.087-.173.173.087.173.173.173.173-.087.173-.173Z" fill="#101820" fill-rule="evenodd"/><path d="M133.746,161.069c0-.087-.087-.173-.173-.173s-.173.087-.173.173l.087,1.213c.043,0,.043.043.087.043s.087-.043.087-.043l.087-1.213Z" fill="#101820" fill-rule="evenodd"/><path d="M127.509,160.572c-.688,0-1.247.561-1.247,1.254s.557,1.254,1.245,1.254c.688,0,1.248-.561,1.248-1.254s-.558-1.254-1.247-1.254ZM127.38,160.8c.44-.055.866.178,1.056.581l-.702.707-.291-1.092-.954.959c-.071-.567.329-1.084.892-1.155ZM127.631,162.853c-.437.053-.858-.179-1.049-.578l.708-.713.291,1.092.946-.952c.068.567-.334,1.082-.897,1.151Z" fill="#101820" fill-rule="evenodd"/><path d="M85.611,167.922h16.971c.23,0,.417-.187.417-.418h0v-22.097c0-.231-.187-.418-.417-.418h-16.971c-.23,0-.416.187-.416.418v22.097c0,.231.186.418.416.418Z" fill="#a2aaad" fill-rule="evenodd"/><path d="M101.377,164.407v-15.903c0-1.155-.931-2.092-2.08-2.092h-10.399c-1.149,0-2.08.937-2.08,2.092v15.903c0,1.156.931,2.092,2.08,2.092h10.399c1.149,0,2.08-.937,2.08-2.092h0Z" fill="#101820" fill-rule="evenodd"/><rect x="96.191" y="150.188" width="1.359" height="4.282" fill="#fff"/><rect x="90.645" y="154.314" width="1.358" height="4.284" fill="#fff"/><rect x="96.191" y="158.44" width="1.359" height="4.284" fill="#fff"/><rect x="102.999" y="152.882" width="3.271" height="6.687" fill="#101820"/></g><g id="e"><rect x="215.22" y="167.677" width="6.797" height="1.167" fill="#f1f1f2"/><rect x="134.489" y="164.509" width="3.315" height="5.003" fill="#595959"/><rect x="170.876" y="166.177" width="44.343" height="3.335" fill="#595959"/><rect x="169.716" y="166.177" width="1.16" height="3.335" fill="#595959"/><rect x="83.804" y="166.177" width="33.031" height="3.335" fill="#595959"/><rect x="116.834" y="166.177" width="1.16" height="3.335" fill="#595959"/><path d="M151.338,166.177c-.677,0-1.35-.083-2.006-.248l-4.674-1.172c-.656-.165-1.329-.248-2.005-.248h-5.016c-.183,0-.331.149-.331.334v4.336c0,.184.149.334.331.334h32.077v-3.335h-18.377Z" fill="#666" fill-rule="evenodd"/><path d="M139.959,169.012h27.933v-2.335h-16.554c-.716,0-1.43-.088-2.126-.263l-4.674-1.172c-.616-.155-1.25-.233-1.885-.233h-2.694v4.002Z" fill="#f4855c" fill-rule="evenodd"/><polygon points="143.835 166.977 142.402 166.321 142.399 167.7 143.835 166.977" fill="#595959" fill-rule="evenodd"/><path d="M129.648,166.177h-11.653v3.335h16.661c.183,0,.331-.149.331-.334h0v-4.336c0-.184-.149-.334-.331-.334h-2.289c-.183,0-.361.061-.505.173l-1.708,1.322c-.145.112-.322.173-.506.173Z" fill="#666" fill-rule="evenodd"/><rect x="81.359" y="167.261" width="4.973" height="2.251" fill="#666"/><rect x="215.22" y="168.845" width="6.216" height=".667" fill="#ccc"/></g><g id="f"><rect x="83.232" y="224.435" width="136.72" height="23.062" rx=".761" ry=".761" fill="#d0d3d4" stroke="#fff" stroke-miterlimit="10" stroke-width=".5"/><path d="M106.849,242.661h8.262c.319,0,.578-.259.578-.578h0v-12.225c0-.319-.259-.578-.578-.578h-8.262c-.319,0-.578.259-.578.578v12.225c0,.319.259.578.578.578Z" fill="#a2aaad"/><path d="M114.45,232.914v-1.817c0-.183-.148-.33-.33-.33h-6.279c-.182,0-.33.148-.33.33v1.817h6.94Z" fill="#101820"/><path d="M114.45,232.914h-6.94v7.764c0,.182.148.33.33.33h6.279c.183,0,.33-.148.33-.33h0v-7.764Z" fill="#333f48"/><path d="M110.964,236.149c.096,0,.191-.064.191-.159v-1.369c0-.096-.096-.159-.191-.159s-.159.064-.159.159v1.369c0,.096.064.159.159.159M111.601,238.506c0-.35-.287-.605-.637-.605-.318,0-.605.255-.605.605s.287.605.605.605c.35,0,.637-.255.637-.605ZM111.952,238.506c0-.541-.446-.955-.987-.955-.51,0-.955.414-.955.955s.446.955.955.955c.541,0,.987-.414.987-.955Z" fill="#fff" fill-rule="evenodd"/><path d="M119.724,246.225h21.201c.313,0,.569-.256.569-.572h0v-19.367c0-.316-.255-.572-.569-.572h-21.201c-.315,0-.569.256-.569.572v19.367c0,.316.254.572.569.572Z" fill="#a2aaad" fill-rule="evenodd"/><circle cx="127.509" cy="244.512" r="1.01" fill="#101820"/><circle cx="133.573" cy="244.512" r="1.01" fill="#101820"/><path d="M133.746,242.329c0-.087-.087-.173-.173-.173s-.173.087-.173.173.087.173.173.173.173-.087.173-.173Z" fill="#101820" fill-rule="evenodd"/><path d="M133.746,240.814c0-.087-.087-.173-.173-.173s-.173.087-.173.173l.087,1.213c.043,0,.043.043.087.043s.087-.043.087-.043l.087-1.213Z" fill="#101820" fill-rule="evenodd"/><path d="M127.509,240.317c-.688,0-1.247.561-1.247,1.254s.557,1.254,1.245,1.254c.688,0,1.248-.561,1.248-1.254s-.558-1.254-1.247-1.254ZM127.38,240.546c.44-.055.866.178,1.056.581l-.702.707-.291-1.092-.954.959c-.071-.567.329-1.084.892-1.155ZM127.631,242.598c-.437.053-.858-.179-1.049-.578l.708-.713.291,1.092.946-.952c.068.567-.334,1.082-.897,1.151Z" fill="#101820" fill-rule="evenodd"/><path d="M85.611,247.667h16.971c.23,0,.417-.187.417-.418h0v-22.097c0-.231-.187-.418-.417-.418h-16.971c-.23,0-.416.187-.416.418v22.097c0,.231.186.418.416.418Z" fill="#a2aaad" fill-rule="evenodd"/><path d="M101.377,244.152v-15.903c0-1.155-.931-2.092-2.08-2.092h-10.399c-1.149,0-2.08.937-2.08,2.092v15.903c0,1.156.931,2.092,2.08,2.092h10.399c1.149,0,2.08-.937,2.08-2.092h0Z" fill="#101820" fill-rule="evenodd"/><rect x="96.191" y="229.933" width="1.359" height="4.282" fill="#fff"/><rect x="90.645" y="234.059" width="1.358" height="4.284" fill="#fff"/><rect x="96.191" y="238.185" width="1.359" height="4.284" fill="#fff"/><rect x="102.999" y="232.627" width="3.271" height="6.687" fill="#101820"/></g><g id="g"><rect x="215.22" y="247.423" width="6.797" height="1.167" fill="#f1f1f2"/><rect x="134.489" y="244.254" width="3.315" height="5.003" fill="#595959"/><rect x="170.876" y="245.922" width="44.343" height="3.335" fill="#595959"/><rect x="169.716" y="245.922" width="1.16" height="3.335" fill="#595959"/><rect x="83.804" y="245.922" width="33.031" height="3.335" fill="#595959"/><rect x="116.834" y="245.922" width="1.16" height="3.335" fill="#595959"/><path d="M151.338,245.922c-.677,0-1.35-.083-2.006-.248l-4.674-1.172c-.656-.165-1.329-.248-2.005-.248h-5.016c-.183,0-.331.149-.331.334v4.336c0,.184.149.334.331.334h32.077v-3.335h-18.377Z" fill="#666" fill-rule="evenodd"/><path d="M139.959,248.757h27.933v-2.335h-16.554c-.716,0-1.43-.088-2.126-.263l-4.674-1.172c-.616-.155-1.25-.233-1.885-.233h-2.694v4.002Z" fill="#f4855c" fill-rule="evenodd"/><polygon points="143.835 246.722 142.402 246.066 142.399 247.445 143.835 246.722" fill="#595959" fill-rule="evenodd"/><path d="M129.648,245.922h-11.653v3.335h16.661c.183,0,.331-.149.331-.334h0v-4.336c0-.184-.149-.334-.331-.334h-2.289c-.183,0-.361.061-.505.173l-1.708,1.322c-.145.112-.322.173-.506.173Z" fill="#666" fill-rule="evenodd"/><rect x="81.359" y="247.006" width="4.973" height="2.251" fill="#666"/><rect x="215.22" y="248.59" width="6.216" height=".667" fill="#ccc"/></g><path d="M77.272,186.418v-42.22h-2.789c-.326,0-.59-.265-.59-.591h-.001v-1.098h-7.856v2.027h.422v2.195h-.844v100.484h.844v2.195h-.422v2.027h7.856v-1.098c0-.326.265-.591.591-.591h2.789v-42.22h-6.59c-.466,0-.844-.379-.844-.844v-19.421c0-.467.378-.845.844-.845h6.59Z" fill="#595959" fill-rule="evenodd"/><rect x="71.357" y="190.218" width="3.38" height="13.51" fill="#bc674d"/><rect x="74.737" y="190.218" width="2.534" height="13.51" fill="#f4855c"/><path d="M226.124,186.418v-42.22h2.789c.326,0,.59-.265.59-.591h.001v-1.098h7.856v2.027h-.422s0,2.195,0,2.195h.844v100.484h-.844s0,2.195,0,2.195h.422v2.027h-7.856v-1.098c0-.326-.265-.591-.591-.591h-2.789v-42.22h6.59c.466,0,.844-.379.844-.844v-19.421c0-.467-.378-.845-.844-.845h-6.59Z" fill="#595959" fill-rule="evenodd"/><rect x="228.659" y="190.218" width="3.38" height="13.51" fill="#bc674d"/><rect x="226.124" y="190.218" width="2.534" height="13.51" fill="#f4855c"/></g><path d="M219.287,172.012H84.089c-.42,0-.761.335-.761.747v21.161c0,.413.341.747.761.747h135.199c.42,0,.761-.335.761-.747v-21.161c0-.413-.341-.747-.761-.747Z" fill="#d0d3d4" fill-rule="evenodd" stroke="#fff" stroke-miterlimit="10" stroke-width=".5"/><path d="M108.193,184.31h.189v-.191h-.189v.191ZM108.236,183.973h.107l.047-.715v-.302h-.206v.302l.052.715ZM98.937,184.31h.193v-.191h-.193v.191ZM98.98,183.973h.107l.047-.715v-.302h-.206v.302l.051.715Z" fill="#fff" fill-rule="evenodd"/><path d="M108.193,184.31h.189v-.191h-.189v.191ZM108.236,183.973h.107l.047-.715v-.302h-.206v.302l.052.715ZM98.937,184.31h.193v-.191h-.193v.191ZM98.98,183.973h.107l.047-.715v-.302h-.206v.302l.051.715Z" fill="#fff" fill-rule="evenodd"/><rect x="158.174" y="188.232" width="59.35" height="4.43" fill="#404040"/><path d="M86.015,192.683h70.879v-16.437c0-1.399-1.132-2.531-2.531-2.531h-65.817c-1.398,0-2.531,1.132-2.531,2.531v16.437Z" fill="#a2aaad" fill-rule="evenodd"/><rect x="90.883" y="174.436" width="10.757" height="7.819" fill="#eee"/><rect x="103.948" y="174.356" width="10.757" height="7.899" fill="#eee"/><polygon points="92.299 181.526 100.225 181.526 100.225 176.208 98.47 176.208 98.47 175.302 97.777 175.284 97.777 174.965 94.747 174.965 94.747 175.284 94.06 175.284 94.06 176.18 92.299 176.18 92.299 181.526" fill="#262626" fill-rule="evenodd"/><polygon points="105.363 181.526 113.29 181.526 113.29 176.208 111.534 176.208 111.534 175.302 110.841 175.284 110.841 174.965 107.811 174.965 107.811 175.284 107.124 175.284 107.124 176.18 105.363 176.18 105.363 181.526" fill="#262626" fill-rule="evenodd"/><rect x="92.09" y="175.114" width="1.708" height=".854" fill="#404040"/><rect x="98.726" y="175.114" width="1.708" height=".854" fill="#404040"/><path d="M121.326,177.273h5.808c.4,0,.725.325.725.725v3.388c0,.4-.325.726-.726.726h-5.808c-.4,0-.726-.325-.726-.726v-3.388c0-.4.325-.726.726-.726Z" fill="#eee"/><path d="M122.853,180.398h2.753c.389,0,.705-.316.705-.705,0-.392-.316-.708-.705-.708h-2.753c-.389,0-.705.316-.705.708,0,.389.316.705.705.705Z" fill="#262626" fill-rule="evenodd"/><rect x="86.015" y="182.414" width="41.844" height="10.248" fill="#7da9dc"/><path d="M87.49,188.09l.369-.003-.004,1.149h.167l.005-.43h.326v.292h.605v-.802h-.605v.285h-.326v-1.163h.326v.274h.605v-.802h-.605v.305h-.326l-.005-.385h-.167l.004,1.055-.369.003-.004-.326h-.643v.854h.643l.004-.305Z" fill="#fff" fill-rule="evenodd"/><rect x="89.729" y="184.886" width="35.6" height="6.335" fill="#fff"/><path d="M91.565,183.348c0-.219.175-.392.392-.392s.392.174.392.392c0,.215-.175.389-.392.389s-.392-.174-.392-.389Z" fill="#fff"/><path d="M94.483,183.31c0-.215.175-.389.392-.389s.391.174.391.389c0,.219-.175.392-.391.392s-.392-.174-.392-.392Z" fill="#fff"/><path d="M100.318,183.348c0-.219.175-.392.392-.392s.392.174.392.392c0,.215-.175.389-.392.389s-.392-.174-.392-.389Z" fill="#fff"/><path d="M103.236,183.31c0-.215.175-.389.392-.389s.392.174.392.389c0,.219-.175.392-.392.392s-.392-.174-.392-.392Z" fill="#fff"/><path d="M109.072,183.348c0-.219.175-.392.392-.392s.391.174.391.392c0,.215-.175.389-.391.389s-.392-.174-.392-.389Z" fill="#fff"/><path d="M111.988,183.31c0-.215.177-.389.392-.389.219,0,.392.174.392.389,0,.219-.174.392-.392.392-.215,0-.392-.174-.392-.392Z" fill="#fff"/><path d="M117.823,183.348c0-.219.177-.392.392-.392s.392.174.392.392c0,.215-.177.389-.392.389s-.392-.174-.392-.389Z" fill="#fff"/><path d="M120.743,183.31c0-.215.174-.389.392-.389.215,0,.392.174.392.389,0,.219-.177.392-.392.392-.219,0-.392-.174-.392-.392Z" fill="#fff"/><path d="M158.174,192.662h59.35v-15.982c0-1.638-1.326-2.965-2.965-2.965h-53.417c-1.638,0-2.968,1.326-2.968,2.965v15.982Z" fill="#ededed" stroke="#a7a9ac" stroke-miterlimit="10" stroke-width=".25"/><path d="M186.816,185.58v-6.651c0-.215-.177-.389-.389-.389h-13.774c-.215,0-.389.174-.389.389v6.651c0,.212.174.385.389.385h13.774c.212,0,.389-.174.389-.385Z" fill="none" stroke="#a2aaad" stroke-miterlimit="10" stroke-width=".25"/><path d="M173.076,184.886h5.801v-5.186h-5.801v5.186ZM180.203,184.886h5.801v-5.186h-5.801v5.186Z" fill="#262626" fill-rule="evenodd"/><rect x="187.635" y="173.595" width="30.035" height="19.067" fill="#7da9dc"/><rect x="158.174" y="188.232" width="59.493" height="4.571" fill="#a2aaad"/><rect x="188.489" y="178.539" width="18.553" height="6.042" fill="#fff" stroke="#fff" stroke-miterlimit="10" stroke-width=".5"/><rect x="188.604" y="178.654" width="9.012" height="5.812" fill="#b2292e"/><rect x="197.915" y="178.654" width="9.012" height="5.812" fill="#f2616f"/><rect x="208.13" y="173.588" width="9.533" height="19.074" fill="#a2aaad"/><path d="M170.772,185.58v-6.651c0-.215-.087-.389-.194-.389h-6.873c-.104,0-.191.174-.191.389v6.651c0,.212.087.385.191.385h6.873c.108,0,.194-.174.194-.385Z" fill="none" stroke="#a2aaad" stroke-miterlimit="10" stroke-width=".25"/><rect x="164.252" y="179.691" width="5.775" height="5.185" fill="#262626"/><path d="M174.045,176.715c0-.219.174-.392.389-.392.219,0,.392.174.392.392,0,.215-.174.389-.392.389-.215,0-.389-.174-.389-.389Z" fill="#404040"/><path d="M177.058,176.749c0-.215.177-.389.392-.389s.392.174.392.389c0,.219-.177.392-.392.392s-.392-.174-.392-.392Z" fill="#404040"/><path d="M181.21,176.715c0-.219.174-.392.389-.392.219,0,.392.174.392.392,0,.215-.174.389-.392.389-.215,0-.389-.174-.389-.389Z" fill="#404040"/><path d="M184.223,176.749c0-.215.177-.389.392-.389s.392.174.392.389c0,.219-.177.392-.392.392s-.392-.174-.392-.392Z" fill="#404040"/><path d="M165.318,176.715c0-.219.174-.392.389-.392.219,0,.392.174.392.392,0,.215-.174.389-.392.389-.215,0-.389-.174-.389-.389Z" fill="#404040"/><path d="M168.331,176.749c0-.215.177-.389.392-.389s.392.174.392.389c0,.219-.177.392-.392.392s-.392-.174-.392-.392Z" fill="#404040"/><path d="M190.27,176.715c0-.219.174-.392.389-.392.219,0,.392.174.392.392,0,.215-.174.389-.392.389-.215,0-.389-.174-.389-.389Z" fill="#fff"/><path d="M193.283,176.749c0-.215.177-.389.392-.389s.392.174.392.389c0,.219-.177.392-.392.392s-.392-.174-.392-.392Z" fill="#fff"/><path d="M199.903,176.715c0-.219.174-.392.392-.392.215,0,.389.174.389.392,0,.215-.174.389-.389.389-.219,0-.392-.174-.392-.389Z" fill="#fff"/><path d="M202.916,176.749c0-.215.177-.389.392-.389s.392.174.392.389c0,.219-.177.392-.392.392s-.392-.174-.392-.392Z" fill="#fff"/><polygon points="180.203 186.587 180.203 186.202 180.949 186.952 180.203 187.698 180.203 187.313 179.811 187.313 179.811 186.587 180.203 186.587" fill="#262626" fill-rule="evenodd"/><polygon points="178.988 187.313 178.988 187.698 178.242 186.948 178.988 186.202 178.988 186.587 179.384 186.587 179.384 187.313 178.988 187.313" fill="#262626" fill-rule="evenodd"/><path d="M211.761,184.601c0-.292.236-.528.528-.528.288,0,.524.236.524.528s-.236.528-.524.528c-.292,0-.528-.236-.528-.528Z" fill="#262626"/><path d="M211.761,182.581c0-.292.236-.528.528-.528.288,0,.524.236.524.528s-.236.528-.524.528c-.292,0-.528-.236-.528-.528Z" fill="#262626"/><path d="M211.761,179.266c0-.292.236-.528.528-.528.288,0,.524.236.524.528,0,.288-.236.524-.524.524-.292,0-.528-.236-.528-.524Z" fill="#262626"/><path d="M211.761,180.873c0-.292.236-.528.528-.528.288,0,.524.236.524.528s-.236.528-.524.528c-.292,0-.528-.236-.528-.528Z" fill="#262626"/><polygon points="86.307 178.971 87.013 178.971 87.72 178.263 87.013 177.558 86.307 177.558 87.013 178.263 86.307 178.971" fill="#262626" fill-rule="evenodd"/><polygon points="90.524 177.558 89.817 177.558 89.111 178.263 89.817 178.971 90.524 178.971 89.817 178.263 90.524 177.558" fill="#262626" fill-rule="evenodd"/><rect x="87.21" y="178.01" width="2.486" height=".51" fill="#262626"/><path d="M107.423,190.903v-5.478h-8.464v5.478h8.464ZM98.656,190.903v-5.478h-8.504v5.478h8.504ZM116.088,190.903v-5.478h-8.339v5.478h8.339ZM124.885,190.903v-5.478l-8.454-.018v5.478l8.454.018Z" fill="#262626" fill-rule="evenodd"/><path d="M122.028,185.407h-2.951v.312h2.951v-.312ZM113.336,185.407h-2.948v.312h2.948v-.312ZM104.645,185.407h-2.95v.312h2.95v-.312ZM95.956,185.407h-2.95v.312h2.95v-.312Z" fill="#fff" fill-rule="evenodd"/><rect x="209.623" y="194.262" width="12.49" height=".812" fill="#f1f1f2"/><path d="M155.919,192.477v3.247h56.812c.09,0,.163-.073.163-.162h0v-1.786c0-.09-.073-.162-.163-.162h-28.852c-.09,0-.163-.073-.163-.162v-.812c0-.09-.073-.162-.163-.162h-27.634Z" fill="#4d4d4d" fill-rule="evenodd"/><path d="M161.058,192.477h-7.576v3.247h22.797v-3.247h-1.082c-.572,0-1.142-.081-1.698-.241l-3.957-1.141c-.495-.143-1.002-.223-1.511-.238v-.003h-5.206c-.119,0-.234.059-.328.169l-1.11,1.286c-.094.109-.21.169-.328.169Z" fill="#555"/><path d="M155.556,192.477h-38.04v3.247h42.958c.18,0,.326-.145.326-.325h0v-4.221c0-.179-.146-.325-.326-.325h-2.248c-.18,0-.354.059-.497.169l-1.678,1.286c-.142.109-.317.169-.497.169Z" fill="#555"/><path d="M155.919,192.477h-74.492c-.09,0-.163.073-.163.162v2.922c0,.09.073.162.163.162h74.492v-3.247Z" fill="#6a6a6a" fill-rule="evenodd"/><path d="M175.344,193.057h-1.879c-.554,0-1.107-.073-1.645-.216l-3.617-.964c-.477-.127-.967-.192-1.459-.192h-2.085v3.292h10.683v-1.92Z" fill="#f4855c" fill-rule="evenodd"/><polygon points="166.839 193.37 165.412 192.738 165.409 194.068 166.839 193.37" fill="#404040" fill-rule="evenodd"/><rect x="137.098" y="177.73" width="11.886" height="6.089" rx=".572" ry=".572" fill="#ededed"/><path d="M146.969,179.099h-7.897c-.125,0-.219.104-.219.222v2.982c0,.118.094.212.219.212h7.897c.118,0,.212-.094.212-.212v-2.982c0-.118-.094-.222-.212-.222Z" fill="#262626" fill-rule="evenodd"/><path d="M219.287,198.223H84.089c-.42,0-.761.335-.761.747v21.161c0,.413.341.747.761.747h135.199c.42,0,.761-.335.761-.747v-21.161c0-.413-.341-.747-.761-.747Z" fill="#d0d3d4" fill-rule="evenodd" stroke="#fff" stroke-miterlimit="10" stroke-width=".5"/><path d="M108.193,210.521h.189v-.191h-.189v.191ZM108.236,210.184h.107l.047-.715v-.302h-.206v.302l.052.715ZM98.937,210.521h.193v-.191h-.193v.191ZM98.98,210.184h.107l.047-.715v-.302h-.206v.302l.051.715Z" fill="#fff" fill-rule="evenodd"/><path d="M108.193,210.521h.189v-.191h-.189v.191ZM108.236,210.184h.107l.047-.715v-.302h-.206v.302l.052.715ZM98.937,210.521h.193v-.191h-.193v.191ZM98.98,210.184h.107l.047-.715v-.302h-.206v.302l.051.715Z" fill="#fff" fill-rule="evenodd"/><rect x="158.174" y="214.443" width="59.35" height="4.43" fill="#404040"/><path d="M86.015,218.894h70.879v-16.437c0-1.399-1.132-2.531-2.531-2.531h-65.817c-1.398,0-2.531,1.132-2.531,2.531v16.437Z" fill="#a2aaad" fill-rule="evenodd"/><rect x="90.883" y="200.647" width="10.757" height="7.819" fill="#eee"/><rect x="103.948" y="200.567" width="10.757" height="7.899" fill="#eee"/><polygon points="92.299 207.737 100.225 207.737 100.225 202.419 98.47 202.419 98.47 201.513 97.777 201.496 97.777 201.176 94.747 201.176 94.747 201.496 94.06 201.496 94.06 202.391 92.299 202.391 92.299 207.737" fill="#262626" fill-rule="evenodd"/><polygon points="105.363 207.737 113.29 207.737 113.29 202.419 111.534 202.419 111.534 201.513 110.841 201.496 110.841 201.176 107.811 201.176 107.811 201.496 107.124 201.496 107.124 202.391 105.363 202.391 105.363 207.737" fill="#262626" fill-rule="evenodd"/><rect x="92.09" y="201.325" width="1.708" height=".854" fill="#404040"/><rect x="98.726" y="201.325" width="1.708" height=".854" fill="#404040"/><path d="M121.326,203.485h5.808c.4,0,.725.325.725.725v3.388c0,.4-.325.726-.726.726h-5.808c-.4,0-.726-.325-.726-.726v-3.388c0-.4.325-.725.725-.725Z" fill="#eee"/><path d="M122.853,206.609h2.753c.389,0,.705-.316.705-.705,0-.392-.316-.708-.705-.708h-2.753c-.389,0-.705.316-.705.708,0,.389.316.705.705.705Z" fill="#262626" fill-rule="evenodd"/><rect x="86.015" y="208.625" width="41.844" height="10.248" fill="#7da9dc"/><path d="M87.49,214.301l.369-.003-.004,1.149h.167l.005-.43h.326v.292h.605v-.802h-.605v.285h-.326v-1.163h.326v.274h.605v-.802h-.605v.305h-.326l-.005-.385h-.167l.004,1.055-.369.003-.004-.326h-.643v.854h.643l.004-.305Z" fill="#fff" fill-rule="evenodd"/><rect x="89.729" y="211.097" width="35.6" height="6.335" fill="#fff"/><path d="M91.565,209.56c0-.219.175-.392.392-.392s.392.174.392.392c0,.215-.175.389-.392.389s-.392-.174-.392-.389Z" fill="#fff"/><path d="M94.483,209.521c0-.215.175-.389.392-.389s.391.174.391.389c0,.219-.175.392-.391.392s-.392-.174-.392-.392Z" fill="#fff"/><path d="M100.318,209.56c0-.219.175-.392.392-.392s.392.174.392.392c0,.215-.175.389-.392.389s-.392-.174-.392-.389Z" fill="#fff"/><path d="M103.236,209.521c0-.215.175-.389.392-.389s.392.174.392.389c0,.219-.175.392-.392.392s-.392-.174-.392-.392Z" fill="#fff"/><path d="M109.072,209.56c0-.219.175-.392.392-.392s.391.174.391.392c0,.215-.175.389-.391.389s-.392-.174-.392-.389Z" fill="#fff"/><path d="M111.988,209.521c0-.215.177-.389.392-.389.219,0,.392.174.392.389,0,.219-.174.392-.392.392-.215,0-.392-.174-.392-.392Z" fill="#fff"/><path d="M117.823,209.56c0-.219.177-.392.392-.392s.392.174.392.392c0,.215-.177.389-.392.389s-.392-.174-.392-.389Z" fill="#fff"/><path d="M120.743,209.521c0-.215.174-.389.392-.389.215,0,.392.174.392.389,0,.219-.177.392-.392.392-.219,0-.392-.174-.392-.392Z" fill="#fff"/><path d="M158.174,218.873h59.35v-15.982c0-1.638-1.326-2.965-2.965-2.965h-53.417c-1.638,0-2.968,1.326-2.968,2.965v15.982Z" fill="#ededed" stroke="#a7a9ac" stroke-miterlimit="10" stroke-width=".25"/><path d="M186.816,211.792v-6.651c0-.215-.177-.389-.389-.389h-13.774c-.215,0-.389.174-.389.389v6.651c0,.212.174.385.389.385h13.774c.212,0,.389-.174.389-.385Z" fill="none" stroke="#a2aaad" stroke-miterlimit="10" stroke-width=".25"/><path d="M173.076,211.097h5.801v-5.186h-5.801v5.186ZM180.203,211.097h5.801v-5.186h-5.801v5.186Z" fill="#262626" fill-rule="evenodd"/><rect x="187.635" y="199.806" width="30.035" height="19.067" fill="#7da9dc"/><rect x="158.174" y="214.443" width="59.493" height="4.571" fill="#a2aaad"/><rect x="188.489" y="204.75" width="18.553" height="6.042" fill="#fff" stroke="#fff" stroke-miterlimit="10" stroke-width=".5"/><rect x="188.604" y="204.865" width="9.012" height="5.812" fill="#b2292e"/><rect x="197.915" y="204.865" width="9.012" height="5.812" fill="#f2616f"/><rect x="208.13" y="199.799" width="9.533" height="19.074" fill="#a2aaad"/><path d="M170.772,211.792v-6.651c0-.215-.087-.389-.194-.389h-6.873c-.104,0-.191.174-.191.389v6.651c0,.212.087.385.191.385h6.873c.108,0,.194-.174.194-.385Z" fill="none" stroke="#a2aaad" stroke-miterlimit="10" stroke-width=".25"/><rect x="164.252" y="205.902" width="5.775" height="5.185" fill="#262626"/><path d="M174.045,202.926c0-.219.174-.392.389-.392.219,0,.392.174.392.392,0,.215-.174.389-.392.389-.215,0-.389-.174-.389-.389Z" fill="#404040"/><path d="M177.058,202.96c0-.215.177-.389.392-.389s.392.174.392.389c0,.219-.177.392-.392.392s-.392-.174-.392-.392Z" fill="#404040"/><path d="M181.21,202.926c0-.219.174-.392.389-.392.219,0,.392.174.392.392,0,.215-.174.389-.392.389-.215,0-.389-.174-.389-.389Z" fill="#404040"/><path d="M184.223,202.96c0-.215.177-.389.392-.389s.392.174.392.389c0,.219-.177.392-.392.392s-.392-.174-.392-.392Z" fill="#404040"/><path d="M165.318,202.926c0-.219.174-.392.389-.392.219,0,.392.174.392.392,0,.215-.174.389-.392.389-.215,0-.389-.174-.389-.389Z" fill="#404040"/><path d="M168.331,202.96c0-.215.177-.389.392-.389s.392.174.392.389c0,.219-.177.392-.392.392s-.392-.174-.392-.392Z" fill="#404040"/><path d="M190.27,202.926c0-.219.174-.392.389-.392.219,0,.392.174.392.392,0,.215-.174.389-.392.389-.215,0-.389-.174-.389-.389Z" fill="#fff"/><path d="M193.283,202.96c0-.215.177-.389.392-.389s.392.174.392.389c0,.219-.177.392-.392.392s-.392-.174-.392-.392Z" fill="#fff"/><path d="M199.903,202.926c0-.219.174-.392.392-.392.215,0,.389.174.389.392,0,.215-.174.389-.389.389-.219,0-.392-.174-.392-.389Z" fill="#fff"/><path d="M202.916,202.96c0-.215.177-.389.392-.389s.392.174.392.389c0,.219-.177.392-.392.392s-.392-.174-.392-.392Z" fill="#fff"/><polygon points="180.203 212.798 180.203 212.413 180.949 213.163 180.203 213.909 180.203 213.524 179.811 213.524 179.811 212.798 180.203 212.798" fill="#262626" fill-rule="evenodd"/><polygon points="178.988 213.524 178.988 213.909 178.242 213.159 178.988 212.413 178.988 212.798 179.384 212.798 179.384 213.524 178.988 213.524" fill="#262626" fill-rule="evenodd"/><path d="M211.761,210.813c0-.292.236-.528.528-.528.288,0,.524.236.524.528s-.236.528-.524.528c-.292,0-.528-.236-.528-.528Z" fill="#262626"/><path d="M211.761,208.792c0-.292.236-.528.528-.528.288,0,.524.236.524.528s-.236.528-.524.528c-.292,0-.528-.236-.528-.528Z" fill="#262626"/><path d="M211.761,205.477c0-.292.236-.528.528-.528.288,0,.524.236.524.528,0,.288-.236.524-.524.524-.292,0-.528-.236-.528-.524Z" fill="#262626"/><path d="M211.761,207.084c0-.292.236-.528.528-.528.288,0,.524.236.524.528s-.236.528-.524.528c-.292,0-.528-.236-.528-.528Z" fill="#262626"/><polygon points="86.307 205.182 87.013 205.182 87.72 204.474 87.013 203.769 86.307 203.769 87.013 204.474 86.307 205.182" fill="#262626" fill-rule="evenodd"/><polygon points="90.524 203.769 89.817 203.769 89.111 204.474 89.817 205.182 90.524 205.182 89.817 204.474 90.524 203.769" fill="#262626" fill-rule="evenodd"/><rect x="87.21" y="204.221" width="2.486" height=".51" fill="#262626"/><path d="M107.423,217.114v-5.478h-8.464v5.478h8.464ZM98.656,217.114v-5.478h-8.504v5.478h8.504ZM116.088,217.114v-5.478h-8.339v5.478h8.339ZM124.885,217.114v-5.478l-8.454-.018v5.478l8.454.018Z" fill="#262626" fill-rule="evenodd"/><path d="M122.028,211.618h-2.951v.312h2.951v-.312ZM113.336,211.618h-2.948v.312h2.948v-.312ZM104.645,211.618h-2.95v.312h2.95v-.312ZM95.956,211.618h-2.95v.312h2.95v-.312Z" fill="#fff" fill-rule="evenodd"/><rect x="209.623" y="220.474" width="12.49" height=".812" fill="#f1f1f2"/><path d="M155.919,218.688v3.247h56.812c.09,0,.163-.073.163-.162h0v-1.786c0-.09-.073-.162-.163-.162h-28.852c-.09,0-.163-.073-.163-.162v-.812c0-.09-.073-.162-.163-.162h-27.634Z" fill="#4d4d4d" fill-rule="evenodd"/><path d="M161.058,218.688h-7.576v3.247h22.797v-3.247h-1.082c-.572,0-1.142-.081-1.698-.241l-3.957-1.141c-.495-.143-1.002-.223-1.511-.238v-.003h-5.206c-.119,0-.234.059-.328.169l-1.11,1.286c-.094.109-.21.169-.328.169Z" fill="#555"/><path d="M155.556,218.688h-38.04v3.247h42.958c.18,0,.326-.145.326-.325h0v-4.221c0-.179-.146-.325-.326-.325h-2.248c-.18,0-.354.059-.497.169l-1.678,1.286c-.142.109-.317.169-.497.169Z" fill="#555"/><path d="M155.919,218.688h-74.492c-.09,0-.163.073-.163.162v2.922c0,.09.073.162.163.162h74.492v-3.247Z" fill="#6a6a6a" fill-rule="evenodd"/><path d="M175.344,219.268h-1.879c-.554,0-1.107-.073-1.645-.216l-3.617-.964c-.477-.127-.967-.192-1.459-.192h-2.085v3.292h10.683v-1.92Z" fill="#f4855c" fill-rule="evenodd"/><polygon points="166.839 219.581 165.412 218.949 165.409 220.279 166.839 219.581" fill="#404040" fill-rule="evenodd"/><rect x="137.098" y="203.941" width="11.886" height="6.089" rx=".572" ry=".572" fill="#ededed"/><path d="M146.969,205.311h-7.897c-.125,0-.219.104-.219.222v2.982c0,.118.094.212.219.212h7.897c.118,0,.212-.094.212-.212v-2.982c0-.118-.094-.222-.212-.222Z" fill="#262626" fill-rule="evenodd"/></g><g id="h"><rect x="52.716" y="39.979" width="15.124" height="7.384" rx=".406" ry=".406" fill="#f1f1f2" stroke="#d0d3d4" stroke-miterlimit="10" stroke-width=".251"/><rect x="53.358" y="40.623" width="13.84" height="6.097" fill="#101820"/><rect x="90.048" y="39.979" width="15.124" height="7.384" rx=".406" ry=".406" fill="#f1f1f2" stroke="#d0d3d4" stroke-miterlimit="10" stroke-width=".251"/><rect x="90.69" y="40.623" width="13.84" height="6.097" fill="#101820"/><rect x="239.164" y="39.979" width="15.124" height="7.384" rx=".406" ry=".406" fill="#f1f1f2" stroke="#d0d3d4" stroke-miterlimit="10" stroke-width=".251"/><rect x="239.807" y="40.623" width="13.84" height="6.097" fill="#101820"/><rect x="201.833" y="39.979" width="15.124" height="7.384" rx=".406" ry=".406" fill="#f1f1f2" stroke="#d0d3d4" stroke-miterlimit="10" stroke-width=".251"/><rect x="202.475" y="40.623" width="13.84" height="6.097" fill="#101820"/><line x1="246.727" y1="91.464" x2="246.727" y2="43.671" fill="none" stroke="#fff" stroke-linejoin="round" stroke-width="3.5"/><line x1="246.727" y1="91.464" x2="246.727" y2="43.671" fill="none" stroke="#5cc4ff" stroke-linejoin="round" stroke-width="1.575"/><polyline points="68.19 87.768 68.19 72.988 209.259 72.988 209.259 43.671" fill="none" stroke="#fff" stroke-linejoin="round" stroke-width="3.5"/><polyline points="68.19 87.768 68.19 72.988 209.259 72.988 209.259 43.671" fill="none" stroke="#5cc4ff" stroke-linejoin="round" stroke-width="1.575"/><polyline points="208.962 87.768 208.962 78.027 97.61 78.027 97.61 43.671" fill="none" stroke="#fff" stroke-linejoin="round" stroke-width="3.5"/><polyline points="208.962 87.768 208.962 78.027 97.61 78.027 97.61 43.671" fill="none" stroke="#005cb9" stroke-linejoin="round" stroke-width="1.575"/><rect x="202.475" y="40.623" width="13.84" height="6.097" fill="#101820"/><rect x="202.475" y="40.623" width="13.84" height="6.097" fill="#5cc4ff"/><rect x="239.807" y="40.623" width="13.84" height="6.097" fill="#5cc4ff"/><polygon points="292.19 94.527 159.813 94.527 166.944 88.401 285.504 88.401 292.19 94.527 292.19 94.527 292.19 94.527" fill="#59595c" fill-rule="evenodd"/><polygon points="159.813 96.537 292.19 96.537 292.19 108.997 159.813 108.997 159.813 96.537 159.813 96.537" fill="#59595c" fill-rule="evenodd"/><path d="M254.604,106.571h-4.347v-2.713h4.347v2.713h0ZM254.604,101.898h-4.347v-2.711h4.347v2.711h0ZM259.687,106.571h-4.349v-2.713h4.349v2.713h0ZM259.687,101.898h-4.349v-2.711h4.349v2.711h0ZM264.768,106.571h-4.347v-2.713h4.347v2.713h0ZM264.768,101.898h-4.347v-2.711h4.347v2.711h0ZM269.848,106.571h-4.347v-2.713h4.347v2.713h0ZM269.848,101.898h-4.347v-2.711h4.347v2.711h0ZM249.523,101.898h-4.347v-2.711h4.347v2.711h0ZM244.444,106.571h-4.348v-2.713h4.348v2.713h0ZM244.444,101.898h-4.348v-2.711h4.348v2.711h0ZM249.523,106.571h-4.347v-2.713h4.347v2.713h0Z" fill="#fff" fill-rule="evenodd"/><path d="M220.731,106.571h-4.347v-2.713h4.347v2.713h0ZM220.731,101.898h-4.347v-2.711h4.347v2.711h0ZM225.811,106.571h-4.348v-2.713h4.348v2.713h0ZM225.811,101.898h-4.348v-2.711h4.348v2.711h0ZM230.894,106.571h-4.349v-2.713h4.349v2.713h0ZM230.894,101.898h-4.349v-2.711h4.349v2.711h0ZM235.975,106.571h-4.348v-2.713h4.348v2.713h0ZM235.975,101.898h-4.348v-2.711h4.348v2.711h0ZM215.65,101.898h-4.348v-2.711h4.348v2.711h0ZM210.569,106.571h-4.347v-2.713h4.347v2.713h0ZM210.569,101.898h-4.347v-2.711h4.347v2.711h0ZM215.65,106.571h-4.348v-2.713h4.348v2.713h0Z" fill="#fff" fill-rule="evenodd"/><path d="M175.324,106.338h-11.412v-3.584h11.412v3.584h0ZM189.809,106.338h-11.411v-3.584h11.411v3.584h0Z" fill="#fff" fill-rule="evenodd"/><polygon points="138.987 94.527 6.61 94.527 13.741 88.401 132.301 88.401 138.987 94.527 138.987 94.527 138.987 94.527" fill="#59595c" fill-rule="evenodd"/><polygon points="6.61 96.537 138.987 96.537 138.987 108.997 6.61 108.997 6.61 96.537 6.61 96.537" fill="#59595c" fill-rule="evenodd"/><path d="M101.402,106.571h-4.347v-2.713h4.347v2.713h0ZM101.402,101.898h-4.347v-2.711h4.347v2.711h0ZM106.484,106.571h-4.349v-2.713h4.349v2.713h0ZM106.484,101.898h-4.349v-2.711h4.349v2.711h0ZM111.565,106.571h-4.347v-2.713h4.347v2.713h0ZM111.565,101.898h-4.347v-2.711h4.347v2.711h0ZM116.646,106.571h-4.347v-2.713h4.347v2.713h0ZM116.646,101.898h-4.347v-2.711h4.347v2.711h0ZM96.321,101.898h-4.347v-2.711h4.347v2.711h0ZM91.241,106.571h-4.348v-2.713h4.348v2.713h0ZM91.241,101.898h-4.348v-2.711h4.348v2.711h0ZM96.321,106.571h-4.347v-2.713h4.347v2.713h0Z" fill="#fff" fill-rule="evenodd"/><path d="M67.528,106.571h-4.347v-2.713h4.347v2.713h0ZM67.528,101.898h-4.347v-2.711h4.347v2.711h0ZM72.609,106.571h-4.348v-2.713h4.348v2.713h0ZM72.609,101.898h-4.348v-2.711h4.348v2.711h0ZM77.691,106.571h-4.349v-2.713h4.349v2.713h0ZM77.691,101.898h-4.349v-2.711h4.349v2.711h0ZM82.772,106.571h-4.348v-2.713h4.348v2.713h0ZM82.772,101.898h-4.348v-2.711h4.348v2.711h0ZM62.447,101.898h-4.348v-2.711h4.348v2.711h0ZM57.366,106.571h-4.347v-2.713h4.347v2.713h0ZM57.366,101.898h-4.347v-2.711h4.347v2.711h0ZM62.447,106.571h-4.348v-2.713h4.348v2.713h0Z" fill="#fff" fill-rule="evenodd"/><path d="M22.122,106.338h-11.412v-3.584h11.412v3.584h0ZM36.607,106.338h-11.411v-3.584h11.411v3.584h0Z" fill="#fff" fill-rule="evenodd"/><polyline points="202.424 204.873 202.424 192.9 246.664 192.871 246.664 108.997" fill="none" stroke="#fff" stroke-linejoin="round" stroke-width="3.5"/><polyline points="202.424 204.873 202.424 192.9 246.664 192.871 246.664 108.997" fill="none" stroke="#f2616f" stroke-linejoin="round" stroke-width="1.575"/><polyline points="202.424 178.673 202.424 124.735 209.196 124.706 209.196 108.997" fill="none" stroke="#fff" stroke-linejoin="round" stroke-width="3.5"/><polyline points="202.424 178.673 202.424 124.735 209.196 124.706 209.196 108.997" fill="none" stroke="#f2616f" stroke-linejoin="round" stroke-width="1.575"/><polyline points="193.195 204.844 193.195 192.871 97.547 192.871 97.547 108.997" fill="none" stroke="#fff" stroke-linejoin="round" stroke-width="3.5"/><polyline points="193.195 204.844 193.195 192.871 97.547 192.871 97.547 108.997" fill="none" stroke="#b2292e" stroke-linejoin="round" stroke-width="1.575"/><polyline points="193.195 178.644 193.195 124.706 60.215 124.706 60.215 108.997" fill="none" stroke="#fff" stroke-linejoin="round" stroke-width="3.5"/><polyline points="193.195 178.644 193.195 124.706 60.215 124.706 60.215 108.997" fill="none" stroke="#b2292e" stroke-linejoin="round" stroke-width="1.575"/><rect x="53.358" y="40.623" width="13.84" height="6.097" fill="#101820"/><rect x="90.69" y="40.623" width="13.84" height="6.097" fill="#101820"/><rect x="90.69" y="40.623" width="13.84" height="6.097" fill="#005cb9"/><line x1="60.434" y1="87.768" x2="60.434" y2="43.671" fill="none" stroke="#fff" stroke-linejoin="round" stroke-width="3.5"/><line x1="60.434" y1="87.768" x2="60.434" y2="43.671" fill="none" stroke="#005cb9" stroke-linejoin="round" stroke-width="1.575"/><rect x="53.358" y="40.623" width="13.84" height="6.097" fill="#005cb9"/><rect x="180.204" y="179.694" width="5.801" height="5.186" fill="#262626"/><rect x="173.087" y="179.694" width="5.801" height="5.186" fill="#262626"/><rect x="180.204" y="205.915" width="5.801" height="5.186" fill="#262626"/><rect x="173.087" y="205.915" width="5.801" height="5.186" fill="#262626"/></g></svg>