<?xml version="1.0" encoding="UTF-8"?><svg xmlns="http://www.w3.org/2000/svg" width="4.125in" height="3.125in" viewBox="0 0 297 225"><g id="a"><g id="b"><rect x="3.857" y="110.266" width="65.642" height="108.928" fill="#d0d3d4"/><polygon points="294.879 222.626 .911 222.626 1.156 106.834 295.124 106.834 294.879 222.626" fill="none" fill-rule="evenodd" stroke="#a2aaad" stroke-linecap="round" stroke-linejoin="round" stroke-width="1.212"/><path d="M68.178,149.079v-21.838c0-1.578-.627-3.091-1.744-4.207l-7.61-7.607c-1.116-1.116-2.63-1.742-4.208-1.742h-21.845c-1.579,0-3.092.627-4.208,1.742l-7.61,7.607c-1.116,1.115-1.743,2.629-1.743,4.207v21.838c0,1.577.626,3.09,1.743,4.205l7.61,7.608c1.116,1.115,2.63,1.742,4.208,1.742h21.845c1.579,0,3.092-.627,4.208-1.742l7.61-7.608c1.116-1.115,1.744-2.629,1.744-4.205Z" fill="#292929" fill-rule="evenodd"/><path d="M58.572,138.16c0-8.214-6.662-14.872-14.878-14.872s-14.878,6.658-14.878,14.872c-.001,8.214,6.661,14.872,14.877,14.872s14.878-6.658,14.879-14.872Z" fill="#d0d3d4" fill-rule="evenodd"/><path d="M43.693,162.586c-6.526,0-12.662-2.541-17.277-7.154-4.616-4.614-7.157-10.748-7.156-17.271,0-13.469,10.961-24.426,24.435-24.426s24.435,10.957,24.435,24.426-10.962,24.426-24.436,24.426ZM43.694,114.117c-13.263,0-24.053,10.785-24.053,24.043,0,6.423,2.502,12.46,7.044,17.001,4.543,4.541,10.584,7.042,17.008,7.042,13.263,0,24.053-10.785,24.053-24.043s-10.79-24.043-24.052-24.043Z" fill="#fff"/><path d="M43.694,113.797c13.438,0,24.372,10.929,24.372,24.363s-10.934,24.363-24.373,24.363c-6.51,0-12.63-2.534-17.234-7.136-4.604-4.602-7.138-10.72-7.138-17.227,0-13.434,10.934-24.363,24.373-24.363M43.693,162.265c13.297,0,24.115-10.814,24.115-24.106s-10.818-24.106-24.114-24.106-24.115,10.814-24.115,24.106c0,6.439,2.508,12.492,7.063,17.045,4.555,4.553,10.61,7.061,17.052,7.061M43.694,113.672c-13.508,0-24.498,10.985-24.498,24.488,0,6.541,2.548,12.69,7.175,17.315,4.627,4.625,10.779,7.173,17.322,7.173,13.508,0,24.498-10.985,24.498-24.488s-10.989-24.488-24.497-24.488h0ZM43.693,162.14c-6.407,0-12.432-2.494-16.963-7.024-4.531-4.53-7.026-10.552-7.026-16.957,0-13.223,10.762-23.981,23.99-23.981s23.989,10.758,23.989,23.981-10.762,23.981-23.99,23.981h0Z" fill="#fff"/><path d="M43.693,157.856c-5.263,0-10.211-2.049-13.933-5.769-3.723-3.721-5.771-8.667-5.771-13.928,0-10.861,8.839-19.697,19.704-19.697,5.265,0,10.213,2.049,13.933,5.77,3.718,3.715,5.767,8.654,5.771,13.908,0,10.88-8.84,19.716-19.704,19.716ZM43.694,118.845c-10.654,0-19.322,8.664-19.322,19.314,0,5.159,2.01,10.009,5.658,13.657,3.65,3.648,8.503,5.657,13.663,5.657,10.644,0,19.312-8.655,19.323-19.295,0-5.179-2.011-10.029-5.659-13.678-3.648-3.647-8.501-5.656-13.663-5.656Z" fill="#fff"/><path d="M43.694,118.525c5.247,0,10.179,2.042,13.889,5.751,3.705,3.704,5.747,8.627,5.752,13.864.001.007.002.013.002.02h-.002.002c-.002,10.826-8.814,19.634-19.643,19.634-5.246,0-10.179-2.043-13.889-5.751-3.71-3.709-5.753-8.639-5.752-13.883,0-10.827,8.812-19.635,19.642-19.635M43.693,157.537c10.681,0,19.374-8.682,19.386-19.358,0-.007-.001-.013-.001-.019,0-5.176-2.016-10.042-5.677-13.702-3.661-3.66-8.529-5.675-13.707-5.675-10.689,0-19.385,8.692-19.385,19.377,0,5.175,2.016,10.041,5.677,13.701s8.529,5.675,13.707,5.675M63.338,138.16h-.002.002M43.694,118.4c-10.9,0-19.767,8.864-19.767,19.76,0,5.277,2.055,10.239,5.789,13.972,3.734,3.732,8.698,5.787,13.977,5.787,10.899,0,19.767-8.864,19.768-19.759v-.125h-.003c-.025-5.219-2.079-10.141-5.787-13.847-3.733-3.732-8.697-5.787-13.977-5.787h0ZM43.693,157.412c-5.144,0-9.981-2.003-13.618-5.639-3.638-3.636-5.641-8.471-5.64-13.613,0-10.616,8.64-19.252,19.26-19.252,5.144,0,9.981,2.003,13.618,5.639,3.637,3.636,5.64,8.471,5.64,13.613v.009l.003.028c-.013,10.586-8.654,19.214-19.262,19.214h0Z" fill="#fff"/><path d="M43.693,153.128c-3.999,0-7.759-1.557-10.587-4.385-2.829-2.826-4.387-6.584-4.386-10.583,0-8.254,6.717-14.969,14.974-14.969s14.974,6.715,14.974,14.969c0,8.253-6.719,14.968-14.975,14.968ZM43.694,123.574c-8.046,0-14.592,6.543-14.592,14.586,0,3.896,1.518,7.56,4.273,10.313,2.757,2.755,6.421,4.272,10.317,4.272,8.046,0,14.592-6.543,14.593-14.586,0-8.043-6.546-14.586-14.592-14.586Z" fill="#fff"/><path d="M43.694,123.254c8.222,0,14.911,6.687,14.911,14.906-.001,8.219-6.691,14.905-14.912,14.905-3.983,0-7.727-1.55-10.544-4.366-2.817-2.815-4.367-6.558-4.367-10.54,0-8.219,6.689-14.906,14.911-14.906M43.693,152.808c8.08,0,14.654-6.571,14.655-14.648,0-8.077-6.574-14.648-14.654-14.648s-14.654,6.571-14.654,14.648c0,3.912,1.523,7.591,4.291,10.358,2.768,2.767,6.448,4.29,10.362,4.29M58.477,138.16h.003-.003M43.694,123.129c-8.291,0-15.036,6.743-15.036,15.031,0,4.015,1.563,7.789,4.403,10.628,2.84,2.839,6.616,4.402,10.632,4.402,8.291,0,15.036-6.743,15.037-15.03,0-8.288-6.745-15.031-15.036-15.031h0ZM43.693,152.683c-3.881,0-7.529-1.511-10.273-4.254-2.744-2.743-4.255-6.39-4.255-10.269,0-8.008,6.518-14.524,14.529-14.524s14.529,6.515,14.529,14.523c0,8.008-6.519,14.523-14.53,14.523h0Z" fill="#fff"/><path d="M43.693,148.399c-5.647,0-10.242-4.594-10.242-10.239s4.595-10.239,10.243-10.239,10.244,4.594,10.244,10.239c0,5.646-4.597,10.239-10.245,10.239ZM43.694,128.302c-5.438,0-9.861,4.422-9.861,9.857s4.423,9.857,9.86,9.857,9.861-4.422,9.862-9.857c0-5.436-4.424-9.857-9.861-9.857Z" fill="#fff"/><path d="M43.694,127.983c5.614,0,10.181,4.565,10.181,10.177,0,5.612-4.568,10.177-10.182,10.177s-10.18-4.565-10.18-10.177,4.567-10.177,10.181-10.177M43.693,148.079c5.471,0,9.924-4.45,9.925-9.92,0-5.47-4.452-9.92-9.924-9.92s-9.924,4.45-9.924,9.92,4.451,9.92,9.923,9.92M53.747,138.16h.003-.003M43.694,127.858c-5.683,0-10.306,4.621-10.306,10.302s4.623,10.302,10.305,10.302,10.306-4.621,10.307-10.302c0-5.681-4.623-10.302-10.306-10.302h0ZM43.693,147.954c-5.402,0-9.798-4.394-9.798-9.795s4.396-9.795,9.799-9.795,9.799,4.394,9.799,9.795c-.001,5.401-4.397,9.795-9.8,9.795h0Z" fill="#fff"/><path d="M43.693,143.671c-3.039,0-5.512-2.472-5.512-5.511s2.473-5.512,5.513-5.512,5.513,2.473,5.513,5.512-2.474,5.511-5.514,5.511ZM43.694,133.031c-2.829,0-5.131,2.301-5.131,5.129s2.301,5.128,5.13,5.128,5.132-2.301,5.132-5.128-2.302-5.129-5.131-5.129Z" fill="#fff"/><path d="M43.694,132.711c3.005,0,5.45,2.444,5.45,5.449s-2.445,5.448-5.451,5.448-5.45-2.444-5.45-5.448,2.445-5.449,5.451-5.449M43.693,143.351c2.864,0,5.194-2.329,5.194-5.191s-2.33-5.191-5.193-5.191-5.193,2.329-5.193,5.191,2.329,5.191,5.192,5.191M43.694,132.586c-3.074,0-5.576,2.5-5.576,5.574s2.501,5.573,5.575,5.573,5.576-2.5,5.576-5.573-2.501-5.574-5.575-5.574h0ZM43.693,143.226c-2.794,0-5.067-2.273-5.067-5.066s2.274-5.066,5.068-5.066,5.068,2.273,5.068,5.066-2.274,5.066-5.069,5.066h0Z" fill="#fff"/><path d="M66.369,161.045l-.108-.057-19.716-19.708c-.761-.762-1.773-1.181-2.853-1.181-1.061,0-2.1.431-2.851,1.181l-19.734,19.727-.117.038c-.051,0-.099-.021-.135-.057-.074-.074-.074-.195,0-.27l19.716-19.709c.82-.821,1.958-1.292,3.121-1.292,1.181,0,2.289.459,3.122,1.292l19.717,19.709c.074.074.074.195,0,.27l-.018.019-.118.038h-.026Z" fill="#fff"/><path d="M43.692,139.78c1.163,0,2.257.452,3.078,1.274l19.716,19.709c.05.05.05.132,0,.182-.025.025-.058.038-.091.038s-.066-.013-.091-.038l-19.716-19.709c-.773-.773-1.801-1.199-2.896-1.199-1.078,0-2.133.437-2.895,1.199l-19.716,19.709c-.025.025-.058.038-.091.038-.033,0-.066-.013-.091-.038-.05-.05-.05-.132,0-.182l19.716-19.709c.809-.809,1.931-1.274,3.077-1.274M43.692,139.655c-1.179,0-2.332.478-3.165,1.311l-19.716,19.709c-.048.048-.074.112-.074.179s.026.131.074.179c.048.048.112.074.18.074s.131-.026.179-.074l19.716-19.709c.738-.738,1.761-1.162,2.806-1.162,1.061,0,2.059.413,2.808,1.162l19.716,19.709c.048.048.112.074.179.074s.131-.026.179-.074c.099-.099.099-.26,0-.359l-19.716-19.709c-.845-.845-1.97-1.311-3.167-1.311h0Z" fill="#fff"/><path d="M43.692,136.602c-1.162,0-2.3-.471-3.121-1.292l-19.716-19.709c-.074-.074-.074-.195,0-.27l.018-.019.117-.038c.052,0,.1.021.136.057l19.716,19.708c.751.75,1.79,1.181,2.851,1.181s2.101-.431,2.853-1.181l19.734-19.727.116-.038c.052,0,.1.021.136.057.074.074.074.195,0,.27l-19.717,19.709c-.82.821-1.959,1.292-3.122,1.292Z" fill="#fff"/><path d="M20.99,115.338c.033,0,.066.013.091.038l19.716,19.709c.762.762,1.817,1.199,2.895,1.199s2.134-.437,2.896-1.199l19.716-19.709c.025-.025.058-.038.091-.038.033,0,.066.013.091.038.05.05.05.132,0,.182l-19.716,19.709c-.81.809-1.932,1.274-3.078,1.274s-2.267-.465-3.077-1.274l-19.716-19.709c-.05-.05-.05-.132,0-.182.025-.025.058-.038.091-.038M66.396,115.213h0c-.068,0-.131.026-.179.074l-19.716,19.709c-.739.738-1.762,1.162-2.808,1.162s-2.068-.424-2.806-1.162l-19.716-19.709c-.048-.048-.112-.074-.179-.074s-.131.026-.179.074c-.048.048-.074.112-.074.179s.026.131.074.179l19.716,19.709c.833.833,1.987,1.311,3.165,1.311s2.333-.478,3.167-1.311l19.716-19.709c.099-.099.099-.26,0-.359-.048-.048-.112-.074-.18-.074h0Z" fill="#fff"/><path d="M68.178,202.107v-21.838c0-1.578-.627-3.091-1.744-4.207l-7.61-7.607c-1.116-1.116-2.63-1.742-4.208-1.742h-21.845c-1.579,0-3.092.627-4.208,1.742l-7.61,7.607c-1.116,1.115-1.743,2.629-1.743,4.207v21.838c0,1.577.626,3.09,1.743,4.205l7.61,7.608c1.116,1.115,2.63,1.742,4.208,1.742h21.845c1.579,0,3.092-.627,4.208-1.742l7.61-7.608c1.116-1.115,1.744-2.629,1.744-4.205Z" fill="#292929" fill-rule="evenodd"/><path d="M58.572,191.188c0-8.214-6.662-14.872-14.878-14.872s-14.878,6.658-14.878,14.872c-.001,8.214,6.661,14.872,14.877,14.872s14.878-6.658,14.879-14.872Z" fill="#d0d3d4" fill-rule="evenodd"/><path d="M43.693,215.614c-6.526,0-12.662-2.541-17.277-7.154-4.616-4.613-7.157-10.747-7.156-17.271,0-13.469,10.961-24.426,24.435-24.426s24.435,10.957,24.435,24.426-10.962,24.426-24.436,24.426ZM43.694,167.145c-13.263,0-24.053,10.785-24.053,24.043,0,6.423,2.502,12.46,7.044,17.001s10.583,7.042,17.008,7.042c13.263,0,24.053-10.785,24.053-24.043s-10.79-24.043-24.052-24.043Z" fill="#fff"/><path d="M43.694,166.825c13.438,0,24.372,10.929,24.372,24.363s-10.934,24.363-24.373,24.363c-6.51,0-12.63-2.534-17.234-7.136-4.604-4.602-7.138-10.72-7.138-17.227,0-13.434,10.934-24.363,24.373-24.363M43.693,215.294c13.297,0,24.115-10.814,24.115-24.106s-10.818-24.106-24.114-24.106-24.115,10.814-24.115,24.106c0,6.439,2.508,12.492,7.063,17.045,4.555,4.553,10.61,7.061,17.052,7.061M43.694,166.7c-13.508,0-24.498,10.985-24.498,24.488,0,6.541,2.548,12.69,7.175,17.315,4.627,4.625,10.779,7.173,17.322,7.173,13.508,0,24.498-10.985,24.498-24.488s-10.989-24.488-24.497-24.488h0ZM43.693,215.169c-6.407,0-12.432-2.495-16.963-7.024-4.531-4.53-7.026-10.552-7.026-16.957,0-13.223,10.762-23.981,23.99-23.981s23.989,10.758,23.989,23.981-10.762,23.981-23.99,23.981h0Z" fill="#fff"/><path d="M43.693,210.885c-5.263,0-10.211-2.049-13.933-5.77-3.723-3.721-5.771-8.667-5.771-13.928,0-10.861,8.839-19.697,19.704-19.697,5.265,0,10.213,2.049,13.933,5.77,3.718,3.715,5.767,8.654,5.771,13.908,0,10.881-8.84,19.717-19.704,19.717ZM43.694,171.874c-10.654,0-19.322,8.664-19.322,19.314,0,5.16,2.01,10.01,5.658,13.657,3.65,3.648,8.503,5.657,13.663,5.657,10.644,0,19.312-8.655,19.323-19.295,0-5.18-2.011-10.029-5.659-13.677-3.649-3.648-8.502-5.657-13.663-5.657Z" fill="#fff"/><path d="M43.694,171.554c5.247,0,10.179,2.042,13.889,5.751,3.705,3.704,5.747,8.627,5.752,13.864.001.007.002.013.002.02h-.002.002c-.002,10.826-8.814,19.634-19.643,19.634-5.246,0-10.179-2.043-13.889-5.751-3.71-3.709-5.753-8.639-5.752-13.883,0-10.827,8.812-19.635,19.642-19.635M43.693,210.565c10.681,0,19.374-8.682,19.386-19.358,0-.007-.001-.013-.001-.019,0-5.176-2.016-10.042-5.677-13.702-3.661-3.66-8.529-5.675-13.707-5.675-10.689,0-19.385,8.692-19.385,19.377,0,5.175,2.016,10.041,5.677,13.701,3.661,3.66,8.529,5.676,13.707,5.676M63.338,191.188h-.002.002M43.694,171.429c-10.9,0-19.767,8.864-19.767,19.76,0,5.277,2.055,10.239,5.789,13.972,3.734,3.732,8.698,5.788,13.977,5.788,10.899,0,19.767-8.864,19.768-19.759v-.125h-.003c-.025-5.219-2.079-10.141-5.787-13.847-3.733-3.732-8.697-5.788-13.977-5.788h0ZM43.693,210.44c-5.144,0-9.981-2.003-13.618-5.639-3.638-3.636-5.641-8.471-5.64-13.613,0-10.616,8.64-19.252,19.26-19.252,5.144,0,9.981,2.003,13.618,5.639,3.637,3.636,5.64,8.471,5.64,13.613v.009l.003.028c-.013,10.586-8.654,19.214-19.262,19.214h0Z" fill="#fff"/><path d="M43.693,206.156c-3.999,0-7.76-1.557-10.587-4.384-2.829-2.827-4.387-6.586-4.386-10.584,0-8.253,6.717-14.968,14.974-14.968s14.974,6.715,14.974,14.968c0,8.253-6.719,14.968-14.975,14.968ZM43.694,176.602c-8.046,0-14.592,6.543-14.592,14.586,0,3.896,1.518,7.56,4.273,10.313,2.757,2.755,6.421,4.272,10.317,4.272,8.046,0,14.592-6.543,14.593-14.586,0-8.043-6.546-14.586-14.592-14.586Z" fill="#fff"/><path d="M43.694,176.283c8.222,0,14.911,6.687,14.911,14.906-.001,8.219-6.691,14.905-14.912,14.905-3.983,0-7.727-1.55-10.544-4.366-2.817-2.815-4.367-6.558-4.367-10.54,0-8.219,6.689-14.906,14.911-14.906M43.693,205.836c8.08,0,14.654-6.571,14.655-14.648,0-8.077-6.574-14.648-14.654-14.648s-14.654,6.571-14.654,14.648c0,3.912,1.523,7.591,4.291,10.358,2.768,2.767,6.448,4.29,10.362,4.29M58.477,191.188h.003-.003M43.694,176.158c-8.291,0-15.036,6.743-15.036,15.031,0,4.015,1.563,7.789,4.403,10.628,2.84,2.839,6.616,4.402,10.632,4.402,8.291,0,15.036-6.743,15.037-15.03,0-8.288-6.745-15.031-15.036-15.031h0ZM43.693,205.711c-3.881,0-7.529-1.511-10.273-4.254-2.744-2.743-4.255-6.39-4.255-10.269,0-8.008,6.518-14.524,14.529-14.524s14.529,6.515,14.529,14.523c0,8.008-6.519,14.523-14.53,14.523h0Z" fill="#fff"/><path d="M43.693,201.428c-5.647,0-10.242-4.594-10.242-10.24s4.595-10.239,10.243-10.239,10.244,4.594,10.244,10.239c0,5.646-4.597,10.24-10.245,10.24ZM43.694,181.332c-5.438,0-9.861,4.422-9.861,9.856s4.423,9.857,9.86,9.857,9.861-4.422,9.862-9.857c0-5.435-4.424-9.856-9.861-9.856Z" fill="#fff"/><path d="M43.694,181.011c5.614,0,10.181,4.565,10.181,10.177,0,5.612-4.568,10.177-10.182,10.177s-10.18-4.565-10.18-10.177,4.567-10.177,10.181-10.177M43.693,201.108c5.471,0,9.924-4.45,9.925-9.92,0-5.47-4.452-9.92-9.924-9.92s-9.924,4.45-9.924,9.92,4.451,9.92,9.923,9.92M53.747,191.188h.003-.003M43.694,180.886c-5.683,0-10.306,4.621-10.306,10.302s4.623,10.302,10.305,10.302,10.306-4.621,10.307-10.302c0-5.681-4.623-10.302-10.306-10.302h0ZM43.693,200.983c-5.402,0-9.798-4.394-9.798-9.795s4.396-9.795,9.799-9.795,9.799,4.394,9.799,9.795c-.001,5.401-4.397,9.795-9.8,9.795h0Z" fill="#fff"/><path d="M43.693,196.699c-3.039,0-5.512-2.472-5.512-5.511s2.473-5.511,5.513-5.511,5.513,2.472,5.513,5.511-2.474,5.511-5.514,5.511ZM43.694,186.059c-2.829,0-5.131,2.301-5.131,5.129s2.301,5.129,5.13,5.129,5.132-2.301,5.132-5.129-2.302-5.129-5.131-5.129Z" fill="#fff"/><path d="M43.694,185.74c3.005,0,5.45,2.444,5.45,5.449s-2.445,5.448-5.451,5.448-5.45-2.444-5.45-5.448,2.445-5.449,5.451-5.449M43.693,196.379c2.864,0,5.194-2.329,5.194-5.191s-2.33-5.191-5.193-5.191-5.193,2.329-5.193,5.191,2.329,5.191,5.192,5.191M43.694,185.615c-3.074,0-5.576,2.5-5.576,5.574s2.501,5.573,5.575,5.573,5.576-2.5,5.576-5.573-2.501-5.574-5.575-5.574h0ZM43.693,196.254c-2.794,0-5.067-2.273-5.067-5.066s2.274-5.066,5.068-5.066,5.068,2.273,5.068,5.066-2.274,5.066-5.069,5.066h0Z" fill="#fff"/><path d="M20.965,214.073l-.109-.055c-.073-.075-.073-.197,0-.271l19.717-19.708c.821-.822,1.959-1.293,3.121-1.293,1.181,0,2.29.459,3.122,1.293l19.717,19.708c.073.074.073.196,0,.271l-.019.019-.118.037c-.049,0-.098-.02-.134-.055l-19.717-19.71c-.761-.761-1.774-1.18-2.853-1.18-1.062,0-2.101.43-2.851,1.18l-19.734,19.728-.116.037h-.026Z" fill="#fff"/><path d="M43.692,192.808c1.163,0,2.257.452,3.078,1.274l19.716,19.709c.05.05.05.132,0,.182-.025.025-.058.038-.091.038s-.066-.013-.091-.038l-19.716-19.709c-.773-.773-1.801-1.199-2.896-1.199-1.078,0-2.133.437-2.895,1.199l-19.716,19.709c-.025.025-.058.038-.091.038-.033,0-.066-.013-.091-.038-.05-.05-.05-.132,0-.182l19.716-19.709c.809-.809,1.931-1.274,3.077-1.274M43.692,192.683c-1.179,0-2.332.478-3.165,1.311l-19.716,19.709c-.048.048-.074.112-.074.179s.026.132.074.179c.048.048.112.074.18.074s.131-.026.179-.074l19.716-19.709c.738-.738,1.761-1.162,2.806-1.162,1.061,0,2.059.413,2.808,1.162l19.716,19.709c.048.048.112.074.179.074s.131-.026.179-.074c.099-.099.099-.26,0-.359l-19.716-19.709c-.845-.845-1.97-1.311-3.167-1.311h0Z" fill="#fff"/><path d="M43.692,189.632c-1.161,0-2.299-.471-3.121-1.293l-19.716-19.709c-.074-.074-.074-.195,0-.27l.018-.019.117-.037c.052,0,.1.02.135.056l19.717,19.709c.75.75,1.789,1.18,2.851,1.18s2.102-.43,2.853-1.18l19.734-19.728.116-.038c.052,0,.1.021.136.057.074.074.074.195,0,.27l-19.717,19.709c-.821.822-1.959,1.293-3.122,1.293Z" fill="#fff"/><path d="M20.99,168.366c.033,0,.066.013.091.038l19.716,19.709c.762.762,1.817,1.199,2.895,1.199s2.134-.437,2.896-1.199l19.716-19.709c.025-.025.058-.038.091-.038.033,0,.066.013.091.038.05.05.05.132,0,.182l-19.716,19.709c-.81.809-1.932,1.274-3.078,1.274s-2.267-.465-3.077-1.274l-19.716-19.709c-.05-.05-.05-.132,0-.182.025-.025.058-.038.091-.038M20.99,168.241c-.068,0-.131.026-.179.074-.048.048-.074.112-.074.179s.026.131.074.179l19.716,19.709c.833.833,1.987,1.311,3.165,1.311s2.333-.478,3.167-1.311l19.716-19.709c.099-.099.099-.26,0-.359-.048-.048-.112-.074-.18-.074s-.131.026-.179.074l-19.716,19.709c-.739.738-1.762,1.162-2.808,1.162s-2.068-.424-2.806-1.162l-19.716-19.709c-.048-.048-.112-.074-.179-.074h0Z" fill="#fff"/><rect x="72.447" y="110.266" width="151.387" height="108.928" fill="#292929"/><rect x="226.676" y="110.266" width="65.594" height="108.928" fill="#d0d3d4"/><path d="M277.091,149.079v-21.838c0-1.578-.627-3.091-1.744-4.207l-7.61-7.607c-1.116-1.116-2.63-1.742-4.208-1.742h-21.845c-1.579,0-3.092.627-4.208,1.742l-7.61,7.607c-1.116,1.115-1.743,2.629-1.743,4.207v21.838c0,1.577.626,3.09,1.743,4.205l7.61,7.608c1.116,1.115,2.63,1.742,4.208,1.742h21.845c1.579,0,3.092-.627,4.208-1.742l7.61-7.608c1.116-1.115,1.744-2.629,1.744-4.205Z" fill="#292929" fill-rule="evenodd"/><path d="M267.484,138.16c0-8.214-6.662-14.872-14.878-14.872s-14.878,6.658-14.878,14.872c-.001,8.214,6.661,14.872,14.877,14.872s14.878-6.658,14.879-14.872Z" fill="#d0d3d4" fill-rule="evenodd"/><path d="M252.606,162.586c-6.527,0-12.663-2.541-17.278-7.154s-7.156-10.747-7.156-17.271c0-13.469,10.962-24.426,24.436-24.426s24.434,10.957,24.434,24.426-10.961,24.426-24.435,24.426ZM252.607,114.117c-13.263,0-24.053,10.785-24.053,24.043,0,6.422,2.501,12.459,7.044,17.001,4.543,4.541,10.584,7.042,17.008,7.042,13.263,0,24.053-10.785,24.053-24.043s-10.79-24.043-24.052-24.043Z" fill="#fff"/><path d="M252.607,113.797c13.438,0,24.372,10.929,24.372,24.363s-10.934,24.363-24.373,24.363c-6.51,0-12.63-2.534-17.234-7.136-4.604-4.602-7.138-10.72-7.138-17.227,0-13.434,10.934-24.363,24.373-24.363M252.606,162.265c13.297,0,24.115-10.814,24.115-24.106s-10.818-24.106-24.114-24.106-24.115,10.814-24.115,24.106c0,6.439,2.508,12.492,7.063,17.045,4.555,4.553,10.61,7.061,17.052,7.061M252.607,113.672c-13.508,0-24.498,10.985-24.498,24.488,0,6.541,2.548,12.69,7.175,17.315,4.627,4.625,10.779,7.173,17.322,7.173,13.508,0,24.498-10.985,24.498-24.488s-10.989-24.488-24.497-24.488h0ZM252.606,162.14c-6.407,0-12.432-2.494-16.963-7.024-4.531-4.53-7.026-10.552-7.026-16.957,0-13.223,10.762-23.981,23.99-23.981s23.989,10.758,23.989,23.981-10.762,23.981-23.99,23.981h0Z" fill="#fff"/><path d="M252.606,157.856c-5.263,0-10.211-2.049-13.934-5.769-3.722-3.721-5.771-8.667-5.771-13.928,0-10.861,8.84-19.697,19.705-19.697,5.264,0,10.212,2.049,13.933,5.77,3.717,3.715,5.766,8.654,5.771,13.908,0,10.88-8.84,19.716-19.704,19.716ZM252.607,118.845c-10.654,0-19.322,8.664-19.322,19.314,0,5.159,2.009,10.009,5.658,13.657s8.502,5.657,13.663,5.657c10.643,0,19.311-8.655,19.323-19.295,0-5.178-2.01-10.028-5.659-13.678-3.649-3.647-8.502-5.656-13.663-5.656Z" fill="#fff"/><path d="M252.607,118.525c5.247,0,10.179,2.042,13.889,5.751,3.705,3.704,5.747,8.627,5.752,13.864.001.007.002.013.002.02h-.002.002c-.002,10.826-8.814,19.634-19.643,19.634-5.246,0-10.179-2.043-13.889-5.751-3.71-3.709-5.753-8.639-5.752-13.883,0-10.827,8.812-19.635,19.642-19.635M252.606,157.537c10.681,0,19.374-8.682,19.386-19.358-.001-.007-.002-.013-.002-.019,0-5.176-2.016-10.042-5.677-13.702-3.661-3.66-8.529-5.675-13.707-5.675-10.689,0-19.385,8.692-19.385,19.377,0,5.175,2.016,10.041,5.677,13.701s8.529,5.675,13.707,5.675M272.251,138.16h-.002.002M252.607,118.4c-10.9,0-19.767,8.864-19.767,19.76,0,5.277,2.055,10.239,5.789,13.972,3.734,3.732,8.698,5.787,13.977,5.787,10.899,0,19.767-8.864,19.768-19.759v-.125h-.003c-.025-5.219-2.079-10.141-5.787-13.847-3.733-3.732-8.697-5.787-13.977-5.787h0ZM252.606,157.412c-5.144,0-9.981-2.003-13.618-5.639-3.638-3.636-5.641-8.471-5.64-13.613,0-10.616,8.64-19.252,19.26-19.252,5.144,0,9.981,2.003,13.618,5.639,3.637,3.636,5.64,8.471,5.64,13.613v.01l.003.029c-.014,10.585-8.654,19.213-19.262,19.213h0Z" fill="#fff"/><path d="M252.606,153.128c-3.999,0-7.76-1.557-10.588-4.385-2.828-2.826-4.386-6.584-4.386-10.583,0-8.254,6.718-14.969,14.975-14.969s14.974,6.715,14.974,14.969c0,8.253-6.719,14.968-14.975,14.968ZM252.607,123.574c-8.046,0-14.592,6.543-14.592,14.586,0,3.896,1.517,7.558,4.272,10.313,2.757,2.755,6.421,4.272,10.318,4.272,8.045,0,14.591-6.543,14.592-14.586,0-8.043-6.545-14.586-14.591-14.586Z" fill="#fff"/><path d="M252.607,123.254c8.222,0,14.911,6.687,14.911,14.906,0,8.219-6.691,14.905-14.912,14.905-3.983,0-7.727-1.55-10.544-4.366-2.817-2.815-4.367-6.558-4.367-10.54,0-8.219,6.689-14.906,14.911-14.906M252.606,152.808c8.08,0,14.654-6.571,14.655-14.648,0-8.077-6.574-14.648-14.654-14.648s-14.654,6.571-14.654,14.648c0,3.912,1.523,7.591,4.291,10.358,2.768,2.767,6.448,4.29,10.362,4.29M267.39,138.16h.003-.003M252.607,123.129c-8.291,0-15.036,6.743-15.036,15.031,0,4.015,1.563,7.789,4.404,10.628,2.84,2.839,6.616,4.402,10.632,4.402,8.291,0,15.036-6.743,15.037-15.03,0-8.288-6.745-15.031-15.036-15.031h0ZM252.606,152.683c-3.881,0-7.529-1.511-10.273-4.254-2.744-2.743-4.255-6.39-4.255-10.269,0-8.008,6.518-14.524,14.529-14.524s14.529,6.515,14.529,14.523c-.001,8.008-6.519,14.523-14.53,14.523h0Z" fill="#fff"/><path d="M252.606,148.399c-5.648,0-10.243-4.594-10.243-10.239s4.596-10.239,10.244-10.239,10.243,4.594,10.243,10.239c0,5.646-4.597,10.239-10.244,10.239ZM252.607,128.302c-5.438,0-9.861,4.422-9.861,9.857s4.423,9.857,9.86,9.857,9.861-4.422,9.862-9.857c0-5.436-4.424-9.857-9.861-9.857Z" fill="#fff"/><path d="M252.607,127.983c5.614,0,10.181,4.565,10.181,10.177,0,5.612-4.568,10.177-10.182,10.177s-10.18-4.565-10.18-10.177,4.567-10.177,10.181-10.177M252.606,148.079c5.471,0,9.924-4.45,9.925-9.92,0-5.47-4.452-9.92-9.924-9.92s-9.924,4.45-9.924,9.92,4.451,9.92,9.923,9.92M262.659,138.16h.003-.003M252.607,127.858c-5.683,0-10.306,4.621-10.306,10.302s4.623,10.302,10.305,10.302,10.306-4.621,10.307-10.302c0-5.681-4.623-10.302-10.306-10.302h0ZM252.606,147.954c-5.402,0-9.798-4.394-9.798-9.795s4.396-9.795,9.799-9.795,9.799,4.394,9.799,9.795c-.001,5.401-4.397,9.795-9.8,9.795h0Z" fill="#fff"/><path d="M252.606,143.671c-3.04,0-5.513-2.472-5.513-5.511s2.474-5.512,5.514-5.512,5.513,2.473,5.513,5.512-2.474,5.511-5.514,5.511ZM252.607,133.031c-2.829,0-5.131,2.301-5.131,5.129s2.301,5.128,5.13,5.128,5.131-2.301,5.131-5.128-2.301-5.129-5.13-5.129Z" fill="#fff"/><path d="M252.607,132.711c3.005,0,5.45,2.444,5.45,5.449s-2.445,5.448-5.451,5.448-5.45-2.444-5.45-5.448,2.445-5.449,5.451-5.449M252.606,143.351c2.864,0,5.194-2.329,5.194-5.191s-2.33-5.191-5.193-5.191-5.193,2.329-5.193,5.191,2.329,5.191,5.192,5.191M252.607,132.586c-3.074,0-5.576,2.5-5.576,5.574s2.501,5.573,5.575,5.573,5.576-2.5,5.576-5.573-2.501-5.574-5.575-5.574h0ZM252.606,143.226c-2.794,0-5.067-2.273-5.067-5.066s2.274-5.066,5.068-5.066,5.068,2.273,5.068,5.066-2.274,5.066-5.069,5.066h0Z" fill="#fff"/><path d="M275.282,161.045l-.108-.057-19.717-19.708c-.761-.762-1.773-1.181-2.852-1.181-1.062,0-2.101.431-2.852,1.181l-19.733,19.727-.117.038c-.051,0-.099-.021-.135-.057l-.019-.018-.038-.117c0-.052.021-.1.057-.136l19.716-19.708c.82-.821,1.958-1.292,3.121-1.292,1.181,0,2.289.459,3.122,1.292l19.734,19.727.038.117c0,.052-.021.1-.057.136l-.019.018-.116.038h-.026Z" fill="#fff"/><path d="M252.605,139.78c1.163,0,2.257.452,3.078,1.274l19.716,19.709c.05.05.05.132,0,.182-.025.025-.058.038-.091.038s-.066-.013-.091-.038l-19.716-19.709c-.773-.773-1.801-1.199-2.896-1.199-1.078,0-2.133.437-2.895,1.199l-19.716,19.709c-.025.025-.058.038-.091.038-.033,0-.066-.013-.091-.038-.05-.05-.05-.132,0-.182l19.716-19.709c.809-.809,1.931-1.274,3.077-1.274M252.605,139.655c-1.179,0-2.332.478-3.165,1.311l-19.716,19.709c-.048.048-.074.112-.074.179s.026.131.074.179c.048.048.112.074.18.074s.131-.026.179-.074l19.716-19.709c.738-.738,1.761-1.162,2.806-1.162,1.061,0,2.059.413,2.808,1.162l19.716,19.709c.048.048.112.074.179.074s.131-.026.179-.074c.048-.048.074-.112.074-.179s-.026-.131-.074-.179l-19.716-19.709c-.845-.845-1.97-1.311-3.167-1.311h0Z" fill="#fff"/><path d="M252.605,136.602c-1.163,0-2.301-.471-3.121-1.292l-19.734-19.727-.038-.117c0-.052.021-.1.057-.136l.019-.018.116-.038c.052,0,.1.021.136.057l19.715,19.708c.752.75,1.791,1.181,2.852,1.181s2.101-.431,2.852-1.181l19.735-19.727.116-.038c.051,0,.099.021.135.057l.019.018.038.117c0,.052-.021.1-.057.136l-19.716,19.708c-.821.821-1.96,1.292-3.122,1.292Z" fill="#fff"/><path d="M229.903,115.338c.033,0,.066.013.091.038l19.716,19.709c.762.762,1.817,1.199,2.895,1.199s2.134-.437,2.896-1.199l19.716-19.709c.025-.025.058-.038.091-.038.033,0,.066.013.091.038.05.05.05.132,0,.182l-19.716,19.709c-.81.809-1.932,1.274-3.078,1.274s-2.267-.465-3.077-1.274l-19.716-19.709c-.05-.05-.05-.132,0-.182.025-.025.058-.038.091-.038M275.308,115.213h0c-.068,0-.131.026-.179.074l-19.716,19.709c-.739.738-1.762,1.162-2.808,1.162s-2.068-.424-2.806-1.162l-19.716-19.709c-.048-.048-.112-.074-.179-.074s-.131.026-.179.074c-.048.048-.074.112-.074.179s.026.131.074.179l19.716,19.709c.833.833,1.987,1.311,3.165,1.311s2.333-.478,3.167-1.311l19.716-19.709c.048-.048.074-.112.074-.179s-.026-.131-.074-.179c-.048-.048-.112-.074-.18-.074h0Z" fill="#fff"/><path d="M277.091,202.107v-21.838c0-1.578-.627-3.091-1.744-4.207l-7.61-7.607c-1.116-1.116-2.63-1.742-4.208-1.742h-21.845c-1.579,0-3.092.627-4.208,1.742l-7.61,7.607c-1.116,1.115-1.743,2.629-1.743,4.207v21.838c0,1.577.626,3.09,1.743,4.205l7.61,7.608c1.116,1.115,2.63,1.742,4.208,1.742h21.845c1.579,0,3.092-.627,4.208-1.742l7.61-7.608c1.116-1.115,1.744-2.629,1.744-4.205Z" fill="#292929" fill-rule="evenodd"/><path d="M267.484,191.188c0-8.214-6.662-14.872-14.878-14.872s-14.878,6.658-14.878,14.872c-.001,8.214,6.661,14.872,14.877,14.872s14.878-6.658,14.879-14.872Z" fill="#d0d3d4" fill-rule="evenodd"/><path d="M252.606,215.614c-6.527,0-12.663-2.541-17.278-7.154-4.615-4.612-7.156-10.746-7.156-17.271,0-13.469,10.962-24.426,24.436-24.426s24.434,10.957,24.434,24.426-10.961,24.426-24.435,24.426ZM252.607,167.145c-13.263,0-24.053,10.785-24.053,24.043,0,6.422,2.501,12.459,7.044,17.001,4.543,4.541,10.583,7.042,17.008,7.042,13.263,0,24.053-10.785,24.053-24.043s-10.79-24.043-24.052-24.043Z" fill="#fff"/><path d="M252.607,166.825c13.438,0,24.372,10.929,24.372,24.363s-10.934,24.363-24.373,24.363c-6.51,0-12.63-2.534-17.234-7.136-4.604-4.602-7.138-10.72-7.138-17.227,0-13.434,10.934-24.363,24.373-24.363M252.606,215.294c13.297,0,24.115-10.814,24.115-24.106s-10.818-24.106-24.114-24.106-24.115,10.814-24.115,24.106c0,6.439,2.508,12.492,7.063,17.045,4.555,4.553,10.61,7.061,17.052,7.061M252.607,166.7c-13.508,0-24.498,10.985-24.498,24.488,0,6.541,2.548,12.69,7.175,17.315,4.627,4.625,10.779,7.173,17.322,7.173,13.508,0,24.498-10.985,24.498-24.488s-10.989-24.488-24.497-24.488h0ZM252.606,215.169c-6.407,0-12.432-2.495-16.963-7.024-4.531-4.53-7.026-10.552-7.026-16.957,0-13.223,10.762-23.981,23.99-23.981s23.989,10.758,23.989,23.981-10.762,23.981-23.99,23.981h0Z" fill="#fff"/><path d="M252.606,210.885c-5.262,0-10.211-2.049-13.934-5.77-3.722-3.721-5.771-8.667-5.771-13.928,0-10.861,8.84-19.697,19.705-19.697,5.264,0,10.212,2.049,13.933,5.77,3.717,3.715,5.766,8.654,5.771,13.908,0,10.881-8.84,19.717-19.704,19.717ZM252.607,171.874c-10.654,0-19.322,8.664-19.322,19.314,0,5.16,2.009,10.01,5.658,13.657,3.649,3.648,8.502,5.657,13.663,5.657,10.643,0,19.311-8.655,19.323-19.295,0-5.178-2.01-10.028-5.659-13.677-3.65-3.648-8.503-5.657-13.663-5.657Z" fill="#fff"/><path d="M252.607,171.554c5.247,0,10.179,2.042,13.889,5.751,3.705,3.704,5.747,8.627,5.752,13.864.001.007.002.013.002.02h-.002.002c-.002,10.826-8.814,19.634-19.643,19.634-5.246,0-10.179-2.043-13.889-5.751-3.71-3.709-5.753-8.639-5.752-13.883,0-10.827,8.812-19.635,19.642-19.635M252.606,210.565c10.681,0,19.374-8.682,19.386-19.358-.001-.007-.002-.013-.002-.019,0-5.176-2.016-10.042-5.677-13.702-3.661-3.66-8.529-5.675-13.707-5.675-10.689,0-19.385,8.692-19.385,19.377,0,5.175,2.016,10.041,5.677,13.701,3.661,3.66,8.529,5.676,13.707,5.676M272.251,191.188h-.002.002M252.607,171.429c-10.9,0-19.767,8.864-19.767,19.76,0,5.277,2.055,10.239,5.789,13.972,3.734,3.732,8.698,5.788,13.977,5.788,10.899,0,19.767-8.864,19.768-19.759v-.125h-.003c-.025-5.219-2.079-10.141-5.787-13.847-3.733-3.732-8.697-5.788-13.977-5.788h0ZM252.606,210.44c-5.144,0-9.981-2.003-13.618-5.639-3.638-3.636-5.641-8.471-5.64-13.613,0-10.616,8.64-19.252,19.26-19.252,5.144,0,9.981,2.003,13.618,5.639,3.637,3.636,5.64,8.471,5.64,13.613v.01l.003.029c-.014,10.585-8.654,19.213-19.262,19.213h0Z" fill="#fff"/><path d="M252.606,206.156c-4,0-7.761-1.557-10.588-4.384-2.828-2.827-4.386-6.586-4.386-10.584,0-8.253,6.718-14.968,14.975-14.968s14.974,6.715,14.974,14.968c0,8.253-6.719,14.968-14.975,14.968ZM252.607,176.602c-8.046,0-14.592,6.543-14.592,14.586,0,3.896,1.517,7.558,4.272,10.313,2.757,2.755,6.421,4.272,10.318,4.272,8.045,0,14.591-6.543,14.592-14.586,0-8.043-6.545-14.586-14.591-14.586Z" fill="#fff"/><path d="M252.607,176.283c8.222,0,14.911,6.687,14.911,14.906,0,8.219-6.691,14.905-14.912,14.905-3.983,0-7.727-1.55-10.544-4.366-2.817-2.815-4.367-6.558-4.367-10.54,0-8.219,6.689-14.906,14.911-14.906M252.606,205.836c8.08,0,14.654-6.571,14.655-14.648,0-8.077-6.574-14.648-14.654-14.648s-14.654,6.571-14.654,14.648c0,3.912,1.523,7.591,4.291,10.358,2.768,2.767,6.448,4.29,10.362,4.29M267.39,191.188h.003-.003M252.607,176.158c-8.291,0-15.036,6.743-15.036,15.031,0,4.015,1.563,7.789,4.404,10.628,2.84,2.839,6.616,4.402,10.632,4.402,8.291,0,15.036-6.743,15.037-15.03,0-8.288-6.745-15.031-15.036-15.031h0ZM252.606,205.711c-3.881,0-7.529-1.511-10.273-4.254-2.744-2.743-4.255-6.39-4.255-10.269,0-8.008,6.518-14.524,14.529-14.524s14.529,6.515,14.529,14.523c-.001,8.008-6.519,14.523-14.53,14.523h0Z" fill="#fff"/><path d="M252.606,201.428c-5.648,0-10.243-4.594-10.243-10.24s4.596-10.239,10.244-10.239,10.243,4.594,10.243,10.239c0,5.646-4.597,10.24-10.244,10.24ZM252.607,181.332c-5.438,0-9.861,4.422-9.861,9.856s4.423,9.857,9.86,9.857,9.861-4.422,9.862-9.857c0-5.435-4.424-9.856-9.861-9.856Z" fill="#fff"/><path d="M252.607,181.011c5.614,0,10.181,4.565,10.181,10.177,0,5.612-4.568,10.177-10.182,10.177s-10.18-4.565-10.18-10.177,4.567-10.177,10.181-10.177M252.606,201.108c5.471,0,9.924-4.45,9.925-9.92,0-5.47-4.452-9.92-9.924-9.92s-9.924,4.45-9.924,9.92,4.451,9.92,9.923,9.92M262.659,191.188h.003-.003M252.607,180.886c-5.683,0-10.306,4.621-10.306,10.302s4.623,10.302,10.305,10.302,10.306-4.621,10.307-10.302c0-5.681-4.623-10.302-10.306-10.302h0ZM252.606,200.983c-5.402,0-9.798-4.394-9.798-9.795s4.396-9.795,9.799-9.795,9.799,4.394,9.799,9.795c-.001,5.401-4.397,9.795-9.8,9.795h0Z" fill="#fff"/><path d="M252.606,196.699c-3.04,0-5.513-2.472-5.513-5.511s2.474-5.511,5.514-5.511,5.513,2.472,5.513,5.511-2.474,5.511-5.514,5.511ZM252.607,186.059c-2.829,0-5.131,2.301-5.131,5.129s2.301,5.129,5.13,5.129,5.131-2.301,5.131-5.129-2.301-5.129-5.13-5.129Z" fill="#fff"/><path d="M252.607,185.74c3.005,0,5.45,2.444,5.45,5.449s-2.445,5.448-5.451,5.448-5.45-2.444-5.45-5.448,2.445-5.449,5.451-5.449M252.606,196.379c2.864,0,5.194-2.329,5.194-5.191s-2.33-5.191-5.193-5.191-5.193,2.329-5.193,5.191,2.329,5.191,5.192,5.191M252.607,185.615c-3.074,0-5.576,2.5-5.576,5.574s2.501,5.573,5.575,5.573,5.576-2.5,5.576-5.573-2.501-5.574-5.575-5.574h0ZM252.606,196.254c-2.794,0-5.067-2.273-5.067-5.066s2.274-5.066,5.068-5.066,5.068,2.273,5.068,5.066-2.274,5.066-5.069,5.066h0Z" fill="#fff"/><path d="M229.878,214.073l-.109-.055c-.075-.075-.075-.197,0-.271l19.716-19.708c.821-.822,1.959-1.293,3.121-1.293,1.181,0,2.29.459,3.122,1.293l19.716,19.708c.075.074.075.196,0,.271l-.018.019-.117.037c-.05,0-.098-.02-.134-.055l-19.718-19.71c-.761-.761-1.773-1.18-2.852-1.18-1.062,0-2.102.43-2.852,1.18l-19.733,19.728-.116.037h-.026Z" fill="#fff"/><path d="M252.605,192.808c1.163,0,2.257.452,3.078,1.274l19.716,19.709c.05.05.05.132,0,.182-.025.025-.058.038-.091.038s-.066-.013-.091-.038l-19.716-19.709c-.773-.773-1.801-1.199-2.896-1.199-1.078,0-2.133.437-2.895,1.199l-19.716,19.709c-.025.025-.058.038-.091.038-.033,0-.066-.013-.091-.038-.05-.05-.05-.132,0-.182l19.716-19.709c.809-.809,1.931-1.274,3.077-1.274M252.605,192.683c-1.179,0-2.332.478-3.165,1.311l-19.716,19.709c-.048.048-.074.112-.074.179s.026.132.074.179.112.074.18.074.131-.026.179-.074l19.716-19.709c.738-.738,1.761-1.162,2.806-1.162,1.061,0,2.059.413,2.808,1.162l19.716,19.709c.048.048.112.074.179.074s.131-.026.179-.074c.048-.048.074-.112.074-.179s-.026-.131-.074-.179l-19.716-19.709c-.845-.845-1.97-1.311-3.167-1.311h0Z" fill="#fff"/><path d="M252.605,189.632c-1.162,0-2.3-.471-3.121-1.293l-19.734-19.727-.038-.117c0-.052.021-.1.057-.136l.019-.018.116-.037c.051,0,.1.02.135.056l19.716,19.709c.751.75,1.79,1.18,2.852,1.18s2.102-.43,2.852-1.18l19.735-19.728.116-.038c.051,0,.099.021.135.057l.019.018.038.117c0,.052-.021.1-.057.136l-19.716,19.708c-.822.822-1.96,1.293-3.122,1.293Z" fill="#fff"/><path d="M229.903,168.366c.033,0,.066.013.091.038l19.716,19.709c.762.762,1.817,1.199,2.895,1.199s2.134-.437,2.896-1.199l19.716-19.709c.025-.025.058-.038.091-.038.033,0,.066.013.091.038.05.05.05.132,0,.182l-19.716,19.709c-.81.809-1.932,1.274-3.078,1.274s-2.267-.465-3.077-1.274l-19.716-19.709c-.05-.05-.05-.132,0-.182.025-.025.058-.038.091-.038M229.903,168.241c-.068,0-.131.026-.179.074-.048.048-.074.112-.074.179s.026.131.074.179l19.716,19.709c.833.833,1.987,1.311,3.165,1.311s2.333-.478,3.167-1.311l19.716-19.709c.048-.048.074-.112.074-.179s-.026-.131-.074-.179c-.048-.048-.112-.074-.18-.074s-.131.026-.179.074l-19.716,19.709c-.739.738-1.762,1.162-2.808,1.162s-2.068-.424-2.806-1.162l-19.716-19.709c-.048-.048-.112-.074-.179-.074h0Z" fill="#fff"/><g id="c"><rect x="79.684" y="112.446" width="136.72" height="23.062" rx=".761" ry=".761" fill="#d0d3d4" stroke="#fff" stroke-miterlimit="10" stroke-width=".5"/><path d="M103.301,130.672h8.262c.319,0,.578-.259.578-.578h0v-12.225c0-.319-.259-.578-.578-.578h-8.262c-.319,0-.578.259-.578.578v12.225c0,.319.259.578.578.578Z" fill="#a2aaad"/><path d="M110.903,120.926v-1.817c0-.183-.148-.33-.33-.33h-6.279c-.182,0-.33.148-.33.33v1.817h6.94Z" fill="#101820"/><path d="M110.903,120.926h-6.94v7.764c0,.182.148.33.33.33h6.279c.183,0,.33-.148.33-.33h0v-7.764Z" fill="#333f48"/><path d="M107.417,124.161c.096,0,.191-.064.191-.159v-1.369c0-.096-.096-.159-.191-.159s-.159.064-.159.159v1.369c0,.096.064.159.159.159M108.054,126.518c0-.35-.287-.605-.637-.605-.318,0-.605.255-.605.605s.287.605.605.605c.35,0,.637-.255.637-.605ZM108.404,126.518c0-.541-.446-.955-.987-.955-.51,0-.955.414-.955.955s.446.955.955.955c.541,0,.987-.414.987-.955Z" fill="#fff" fill-rule="evenodd"/><path d="M116.176,134.237h21.201c.313,0,.569-.256.569-.572h0v-19.367c0-.316-.255-.572-.569-.572h-21.201c-.315,0-.569.256-.569.572v19.367c0,.316.254.572.569.572Z" fill="#a2aaad" fill-rule="evenodd"/><circle cx="123.961" cy="132.524" r="1.01" fill="#101820"/><circle cx="130.025" cy="132.524" r="1.01" fill="#101820"/><path d="M130.199,130.341c0-.087-.087-.173-.173-.173s-.173.087-.173.173.087.173.173.173.173-.087.173-.173Z" fill="#101820" fill-rule="evenodd"/><path d="M130.199,128.825c0-.087-.087-.173-.173-.173s-.173.087-.173.173l.087,1.213c.043,0,.043.043.087.043s.087-.043.087-.043l.087-1.213Z" fill="#101820" fill-rule="evenodd"/><path d="M123.961,128.329c-.688,0-1.247.561-1.247,1.254s.557,1.254,1.245,1.254c.688,0,1.248-.561,1.248-1.254s-.558-1.254-1.247-1.254ZM123.832,128.557c.44-.055.866.178,1.056.581l-.702.707-.291-1.092-.954.959c-.071-.567.329-1.084.892-1.155ZM124.084,130.61c-.437.053-.858-.179-1.049-.578l.708-.713.291,1.092.946-.952c.068.567-.334,1.082-.897,1.151Z" fill="#101820" fill-rule="evenodd"/><path d="M82.063,135.679h16.971c.23,0,.417-.187.417-.418h0v-22.097c0-.231-.187-.418-.417-.418h-16.971c-.23,0-.416.187-.416.418v22.097c0,.231.186.418.416.418Z" fill="#a2aaad" fill-rule="evenodd"/><path d="M97.829,132.163v-15.903c0-1.155-.931-2.092-2.08-2.092h-10.399c-1.149,0-2.08.937-2.08,2.092v15.903c0,1.156.931,2.092,2.08,2.092h10.399c1.149,0,2.08-.937,2.08-2.092h0Z" fill="#101820" fill-rule="evenodd"/><rect x="92.643" y="117.944" width="1.359" height="4.282" fill="#fff"/><rect x="87.097" y="122.071" width="1.358" height="4.284" fill="#fff"/><rect x="92.643" y="126.197" width="1.359" height="4.284" fill="#fff"/><rect x="99.452" y="120.638" width="3.271" height="6.687" fill="#101820"/></g><g id="d"><rect x="211.672" y="135.434" width="6.797" height="1.167" fill="#f1f1f2"/><rect x="130.941" y="132.266" width="3.315" height="5.003" fill="#595959"/><rect x="167.328" y="133.933" width="44.343" height="3.335" fill="#595959"/><rect x="166.168" y="133.933" width="1.16" height="3.335" fill="#595959"/><rect x="80.256" y="133.933" width="33.031" height="3.335" fill="#595959"/><rect x="113.286" y="133.933" width="1.16" height="3.335" fill="#595959"/><path d="M147.791,133.933c-.677,0-1.35-.083-2.006-.248l-4.674-1.172c-.656-.165-1.329-.248-2.005-.248h-5.016c-.183,0-.331.149-.331.334v4.336c0,.184.149.334.331.334h32.077v-3.335h-18.377Z" fill="#666" fill-rule="evenodd"/><path d="M136.412,136.768h27.933v-2.335h-16.554c-.716,0-1.43-.088-2.126-.263l-4.674-1.172c-.616-.155-1.25-.233-1.885-.233h-2.694v4.002Z" fill="#f4855c" fill-rule="evenodd"/><polygon points="140.288 134.734 138.854 134.078 138.851 135.456 140.288 134.734" fill="#595959" fill-rule="evenodd"/><path d="M126.1,133.933h-11.653v3.335h16.661c.183,0,.331-.149.331-.334h0v-4.336c0-.184-.149-.334-.331-.334h-2.289c-.183,0-.361.061-.505.173l-1.708,1.322c-.145.112-.322.173-.506.173Z" fill="#666" fill-rule="evenodd"/><rect x="77.812" y="135.017" width="4.973" height="2.251" fill="#666"/><rect x="211.672" y="136.602" width="6.216" height=".667" fill="#ccc"/></g><g id="e"><rect x="79.684" y="192.191" width="136.72" height="23.062" rx=".761" ry=".761" fill="#d0d3d4" stroke="#fff" stroke-miterlimit="10" stroke-width=".5"/><path d="M103.301,210.417h8.262c.319,0,.578-.259.578-.578h0v-12.225c0-.319-.259-.578-.578-.578h-8.262c-.319,0-.578.259-.578.578v12.225c0,.319.259.578.578.578Z" fill="#a2aaad"/><path d="M110.903,200.671v-1.817c0-.183-.148-.33-.33-.33h-6.279c-.182,0-.33.148-.33.33v1.817h6.94Z" fill="#101820"/><path d="M110.903,200.671h-6.94v7.764c0,.182.148.33.33.33h6.279c.183,0,.33-.148.33-.33h0v-7.764Z" fill="#333f48"/><path d="M107.417,203.906c.096,0,.191-.064.191-.159v-1.369c0-.096-.096-.159-.191-.159s-.159.064-.159.159v1.369c0,.096.064.159.159.159M108.054,206.263c0-.35-.287-.605-.637-.605-.318,0-.605.255-.605.605s.287.605.605.605c.35,0,.637-.255.637-.605ZM108.404,206.263c0-.541-.446-.955-.987-.955-.51,0-.955.414-.955.955s.446.955.955.955c.541,0,.987-.414.987-.955Z" fill="#fff" fill-rule="evenodd"/><path d="M116.176,213.982h21.201c.313,0,.569-.256.569-.572h0v-19.367c0-.316-.255-.572-.569-.572h-21.201c-.315,0-.569.256-.569.572v19.367c0,.316.254.572.569.572Z" fill="#a2aaad" fill-rule="evenodd"/><circle cx="123.961" cy="212.269" r="1.01" fill="#101820"/><circle cx="130.025" cy="212.269" r="1.01" fill="#101820"/><path d="M130.199,210.086c0-.087-.087-.173-.173-.173s-.173.087-.173.173.087.173.173.173.173-.087.173-.173Z" fill="#101820" fill-rule="evenodd"/><path d="M130.199,208.57c0-.087-.087-.173-.173-.173s-.173.087-.173.173l.087,1.213c.043,0,.043.043.087.043s.087-.043.087-.043l.087-1.213Z" fill="#101820" fill-rule="evenodd"/><path d="M123.961,208.074c-.688,0-1.247.561-1.247,1.254s.557,1.254,1.245,1.254c.688,0,1.248-.561,1.248-1.254s-.558-1.254-1.247-1.254ZM123.832,208.302c.44-.055.866.178,1.056.581l-.702.707-.291-1.092-.954.959c-.071-.567.329-1.084.892-1.155ZM124.084,210.355c-.437.053-.858-.179-1.049-.578l.708-.713.291,1.092.946-.952c.068.567-.334,1.082-.897,1.151Z" fill="#101820" fill-rule="evenodd"/><path d="M82.063,215.424h16.971c.23,0,.417-.187.417-.418h0v-22.097c0-.231-.187-.418-.417-.418h-16.971c-.23,0-.416.187-.416.418v22.097c0,.231.186.418.416.418Z" fill="#a2aaad" fill-rule="evenodd"/><path d="M97.829,211.908v-15.903c0-1.155-.931-2.092-2.08-2.092h-10.399c-1.149,0-2.08.937-2.08,2.092v15.903c0,1.156.931,2.092,2.08,2.092h10.399c1.149,0,2.08-.937,2.08-2.092h0Z" fill="#101820" fill-rule="evenodd"/><rect x="92.643" y="197.689" width="1.359" height="4.282" fill="#fff"/><rect x="87.097" y="201.816" width="1.358" height="4.284" fill="#fff"/><rect x="92.643" y="205.942" width="1.359" height="4.284" fill="#fff"/><rect x="99.452" y="200.383" width="3.271" height="6.687" fill="#101820"/></g><g id="f"><rect x="211.672" y="215.179" width="6.797" height="1.167" fill="#f1f1f2"/><rect x="130.941" y="212.011" width="3.315" height="5.003" fill="#595959"/><rect x="167.328" y="213.678" width="44.343" height="3.335" fill="#595959"/><rect x="166.168" y="213.678" width="1.16" height="3.335" fill="#595959"/><rect x="80.256" y="213.678" width="33.031" height="3.335" fill="#595959"/><rect x="113.286" y="213.678" width="1.16" height="3.335" fill="#595959"/><path d="M147.791,213.678c-.677,0-1.35-.083-2.006-.248l-4.674-1.172c-.656-.165-1.329-.248-2.005-.248h-5.016c-.183,0-.331.149-.331.334v4.336c0,.184.149.334.331.334h32.077v-3.335h-18.377Z" fill="#666" fill-rule="evenodd"/><path d="M136.412,216.513h27.933v-2.335h-16.554c-.716,0-1.43-.088-2.126-.263l-4.674-1.172c-.616-.155-1.25-.233-1.885-.233h-2.694v4.002Z" fill="#f4855c" fill-rule="evenodd"/><polygon points="140.288 214.479 138.854 213.823 138.851 215.201 140.288 214.479" fill="#595959" fill-rule="evenodd"/><path d="M126.1,213.678h-11.653v3.335h16.661c.183,0,.331-.149.331-.334h0v-4.336c0-.184-.149-.334-.331-.334h-2.289c-.183,0-.361.061-.505.173l-1.708,1.322c-.145.112-.322.173-.506.173Z" fill="#666" fill-rule="evenodd"/><rect x="77.812" y="214.762" width="4.973" height="2.251" fill="#666"/><rect x="211.672" y="216.347" width="6.216" height=".667" fill="#ccc"/></g><path d="M73.724,154.175v-42.22h-2.789c-.326,0-.59-.265-.59-.591h-.001v-1.098h-7.856v2.027h.422v2.195h-.844v100.484h.844v2.195h-.422v2.027h7.856v-1.098c0-.326.265-.591.591-.591h2.789v-42.22h-6.59c-.466,0-.844-.379-.844-.844v-19.421c0-.467.378-.845.844-.845h6.59Z" fill="#595959" fill-rule="evenodd"/><rect x="67.81" y="157.975" width="3.38" height="13.51" fill="#bc674d"/><rect x="71.19" y="157.975" width="2.534" height="13.51" fill="#f4855c"/><path d="M222.577,154.175v-42.22h2.789c.326,0,.59-.265.59-.591h.001v-1.098h7.856v2.027h-.422s0,2.195,0,2.195h.844v100.484h-.844s0,2.195,0,2.195h.422v2.027h-7.856v-1.098c0-.326-.265-.591-.591-.591h-2.789v-42.22h6.59c.466,0,.844-.379.844-.844v-19.421c0-.467-.378-.845-.844-.845h-6.59Z" fill="#595959" fill-rule="evenodd"/><rect x="225.111" y="157.975" width="3.38" height="13.51" fill="#bc674d"/><rect x="222.577" y="157.975" width="2.534" height="13.51" fill="#f4855c"/></g><path d="M215.74,139.769H80.541c-.42,0-.761.335-.761.747v21.161c0,.413.341.747.761.747h135.199c.42,0,.761-.335.761-.747v-21.161c0-.413-.341-.747-.761-.747Z" fill="#d0d3d4" fill-rule="evenodd" stroke="#fff" stroke-miterlimit="10" stroke-width=".5"/><path d="M104.645,152.067h.189v-.191h-.189v.191ZM104.688,151.73h.107l.047-.715v-.302h-.206v.302l.052.715ZM95.389,152.067h.193v-.191h-.193v.191ZM95.432,151.73h.107l.047-.715v-.302h-.206v.302l.051.715Z" fill="#fff" fill-rule="evenodd"/><path d="M104.645,152.067h.189v-.191h-.189v.191ZM104.688,151.73h.107l.047-.715v-.302h-.206v.302l.052.715ZM95.389,152.067h.193v-.191h-.193v.191ZM95.432,151.73h.107l.047-.715v-.302h-.206v.302l.051.715Z" fill="#fff" fill-rule="evenodd"/><rect x="154.626" y="155.989" width="59.35" height="4.43" fill="#404040"/><path d="M82.467,160.439h70.879v-16.437c0-1.399-1.132-2.531-2.531-2.531h-65.817c-1.398,0-2.531,1.132-2.531,2.531v16.437Z" fill="#a2aaad" fill-rule="evenodd"/><rect x="87.336" y="142.192" width="10.757" height="7.819" fill="#eee"/><rect x="100.4" y="142.113" width="10.757" height="7.899" fill="#eee"/><polygon points="88.751 149.283 96.677 149.283 96.677 143.964 94.923 143.964 94.923 143.058 94.229 143.041 94.229 142.722 91.2 142.722 91.2 143.041 90.513 143.041 90.513 143.937 88.751 143.937 88.751 149.283" fill="#262626" fill-rule="evenodd"/><polygon points="101.815 149.283 109.742 149.283 109.742 143.964 107.987 143.964 107.987 143.058 107.293 143.041 107.293 142.722 104.264 142.722 104.264 143.041 103.577 143.041 103.577 143.937 101.815 143.937 101.815 149.283" fill="#262626" fill-rule="evenodd"/><rect x="88.542" y="142.871" width="1.708" height=".854" fill="#404040"/><rect x="95.178" y="142.871" width="1.708" height=".854" fill="#404040"/><path d="M117.778,145.03h5.808c.4,0,.725.325.725.725v3.388c0,.4-.325.726-.726.726h-5.808c-.4,0-.726-.325-.726-.726v-3.388c0-.4.325-.726.726-.726Z" fill="#eee"/><path d="M119.305,148.154h2.753c.389,0,.705-.316.705-.705,0-.392-.316-.708-.705-.708h-2.753c-.389,0-.705.316-.705.708,0,.389.316.705.705.705Z" fill="#262626" fill-rule="evenodd"/><rect x="82.467" y="150.171" width="41.844" height="10.248" fill="#7da9dc"/><path d="M83.942,155.847l.369-.003-.004,1.149h.167l.005-.43h.326v.292h.605v-.802h-.605v.285h-.326v-1.163h.326v.274h.605v-.802h-.605v.305h-.326l-.005-.385h-.167l.004,1.055-.369.003-.004-.326h-.643v.854h.643l.004-.305Z" fill="#fff" fill-rule="evenodd"/><rect x="86.181" y="152.643" width="35.6" height="6.335" fill="#fff"/><path d="M88.017,151.105c0-.219.175-.392.392-.392s.392.174.392.392c0,.215-.175.389-.392.389s-.392-.174-.392-.389Z" fill="#fff"/><path d="M90.935,151.067c0-.215.175-.389.392-.389s.391.174.391.389c0,.219-.175.392-.391.392s-.392-.174-.392-.392Z" fill="#fff"/><path d="M96.77,151.105c0-.219.175-.392.392-.392s.392.174.392.392c0,.215-.175.389-.392.389s-.392-.174-.392-.389Z" fill="#fff"/><path d="M99.688,151.067c0-.215.175-.389.392-.389s.392.174.392.389c0,.219-.175.392-.392.392s-.392-.174-.392-.392Z" fill="#fff"/><path d="M105.524,151.105c0-.219.175-.392.392-.392s.391.174.391.392c0,.215-.175.389-.391.389s-.392-.174-.392-.389Z" fill="#fff"/><path d="M108.44,151.067c0-.215.177-.389.392-.389.219,0,.392.174.392.389,0,.219-.174.392-.392.392-.215,0-.392-.174-.392-.392Z" fill="#fff"/><path d="M114.275,151.105c0-.219.177-.392.392-.392s.392.174.392.392c0,.215-.177.389-.392.389s-.392-.174-.392-.389Z" fill="#fff"/><path d="M117.195,151.067c0-.215.174-.389.392-.389.215,0,.392.174.392.389,0,.219-.177.392-.392.392-.219,0-.392-.174-.392-.392Z" fill="#fff"/><path d="M154.626,160.419h59.35v-15.982c0-1.638-1.326-2.965-2.965-2.965h-53.417c-1.638,0-2.968,1.326-2.968,2.965v15.982Z" fill="#ededed" stroke="#a7a9ac" stroke-miterlimit="10" stroke-width=".25"/><path d="M183.268,153.337v-6.651c0-.215-.177-.389-.389-.389h-13.774c-.215,0-.389.174-.389.389v6.651c0,.212.174.385.389.385h13.774c.212,0,.389-.174.389-.385Z" fill="none" stroke="#a2aaad" stroke-miterlimit="10" stroke-width=".25"/><path d="M169.529,152.643h5.801v-5.186h-5.801v5.186ZM176.655,152.643h5.801v-5.186h-5.801v5.186Z" fill="#262626" fill-rule="evenodd"/><rect x="184.088" y="141.351" width="30.035" height="19.067" fill="#7da9dc"/><rect x="154.626" y="155.989" width="59.493" height="4.571" fill="#a2aaad"/><rect x="184.941" y="146.295" width="18.553" height="6.042" fill="#fff" stroke="#fff" stroke-miterlimit="10" stroke-width=".5"/><rect x="185.056" y="146.41" width="9.012" height="5.812" fill="#b2292e"/><rect x="194.368" y="146.41" width="9.012" height="5.812" fill="#f2616f"/><rect x="204.582" y="141.344" width="9.533" height="19.074" fill="#a2aaad"/><path d="M167.224,153.337v-6.651c0-.215-.087-.389-.194-.389h-6.873c-.104,0-.191.174-.191.389v6.651c0,.212.087.385.191.385h6.873c.108,0,.194-.174.194-.385Z" fill="none" stroke="#a2aaad" stroke-miterlimit="10" stroke-width=".25"/><rect x="160.705" y="147.447" width="5.775" height="5.185" fill="#262626"/><path d="M170.497,144.471c0-.219.174-.392.389-.392.219,0,.392.174.392.392,0,.215-.174.389-.392.389-.215,0-.389-.174-.389-.389Z" fill="#404040"/><path d="M173.51,144.506c0-.215.177-.389.392-.389s.392.174.392.389c0,.219-.177.392-.392.392s-.392-.174-.392-.392Z" fill="#404040"/><path d="M177.662,144.471c0-.219.174-.392.389-.392.219,0,.392.174.392.392,0,.215-.174.389-.392.389-.215,0-.389-.174-.389-.389Z" fill="#404040"/><path d="M180.675,144.506c0-.215.177-.389.392-.389s.392.174.392.389c0,.219-.177.392-.392.392s-.392-.174-.392-.392Z" fill="#404040"/><path d="M161.77,144.471c0-.219.174-.392.389-.392.219,0,.392.174.392.392,0,.215-.174.389-.392.389-.215,0-.389-.174-.389-.389Z" fill="#404040"/><path d="M164.783,144.506c0-.215.177-.389.392-.389s.392.174.392.389c0,.219-.177.392-.392.392s-.392-.174-.392-.392Z" fill="#404040"/><path d="M186.722,144.471c0-.219.174-.392.389-.392.219,0,.392.174.392.392,0,.215-.174.389-.392.389-.215,0-.389-.174-.389-.389Z" fill="#fff"/><path d="M189.735,144.506c0-.215.177-.389.392-.389s.392.174.392.389c0,.219-.177.392-.392.392s-.392-.174-.392-.392Z" fill="#fff"/><path d="M196.355,144.471c0-.219.174-.392.392-.392.215,0,.389.174.389.392,0,.215-.174.389-.389.389-.219,0-.392-.174-.392-.389Z" fill="#fff"/><path d="M199.368,144.506c0-.215.177-.389.392-.389s.392.174.392.389c0,.219-.177.392-.392.392s-.392-.174-.392-.392Z" fill="#fff"/><polygon points="176.655 154.344 176.655 153.958 177.402 154.708 176.655 155.455 176.655 155.069 176.263 155.069 176.263 154.344 176.655 154.344" fill="#262626" fill-rule="evenodd"/><polygon points="175.44 155.069 175.44 155.455 174.694 154.705 175.44 153.958 175.44 154.344 175.836 154.344 175.836 155.069 175.44 155.069" fill="#262626" fill-rule="evenodd"/><path d="M208.213,152.358c0-.292.236-.528.528-.528.288,0,.524.236.524.528s-.236.528-.524.528c-.292,0-.528-.236-.528-.528Z" fill="#262626"/><path d="M208.213,150.338c0-.292.236-.528.528-.528.288,0,.524.236.524.528s-.236.528-.524.528c-.292,0-.528-.236-.528-.528Z" fill="#262626"/><path d="M208.213,147.023c0-.292.236-.528.528-.528.288,0,.524.236.524.528,0,.288-.236.524-.524.524-.292,0-.528-.236-.528-.524Z" fill="#262626"/><path d="M208.213,148.63c0-.292.236-.528.528-.528.288,0,.524.236.524.528s-.236.528-.524.528c-.292,0-.528-.236-.528-.528Z" fill="#262626"/><polygon points="82.759 146.728 83.465 146.728 84.172 146.019 83.465 145.315 82.759 145.315 83.465 146.019 82.759 146.728" fill="#262626" fill-rule="evenodd"/><polygon points="86.976 145.315 86.27 145.315 85.563 146.019 86.27 146.728 86.976 146.728 86.27 146.019 86.976 145.315" fill="#262626" fill-rule="evenodd"/><rect x="83.662" y="145.766" width="2.486" height=".51" fill="#262626"/><path d="M103.876,158.66v-5.478h-8.464v5.478h8.464ZM95.108,158.66v-5.478h-8.504v5.478h8.504ZM112.541,158.66v-5.478h-8.339v5.478h8.339ZM121.338,158.66v-5.478l-8.454-.018v5.478l8.454.018Z" fill="#262626" fill-rule="evenodd"/><path d="M118.48,153.164h-2.951v.312h2.951v-.312ZM109.788,153.164h-2.948v.312h2.948v-.312ZM101.097,153.164h-2.95v.312h2.95v-.312ZM92.408,153.164h-2.95v.312h2.95v-.312Z" fill="#fff" fill-rule="evenodd"/><rect x="206.075" y="162.019" width="12.49" height=".812" fill="#f1f1f2"/><path d="M152.371,160.233v3.247h56.812c.09,0,.163-.073.163-.162h0v-1.786c0-.09-.073-.162-.163-.162h-28.852c-.09,0-.163-.073-.163-.162v-.812c0-.09-.073-.162-.163-.162h-27.634Z" fill="#4d4d4d" fill-rule="evenodd"/><path d="M157.511,160.233h-7.576v3.247h22.797v-3.247h-1.082c-.572,0-1.142-.081-1.698-.241l-3.957-1.141c-.495-.143-1.002-.223-1.511-.238v-.003h-5.206c-.119,0-.234.059-.328.169l-1.11,1.286c-.094.109-.21.169-.328.169Z" fill="#555"/><path d="M152.009,160.233h-38.04v3.247h42.958c.18,0,.326-.145.326-.325h0v-4.221c0-.179-.146-.325-.326-.325h-2.248c-.18,0-.354.059-.497.169l-1.678,1.286c-.142.109-.317.169-.497.169Z" fill="#555"/><path d="M152.371,160.233h-74.492c-.09,0-.163.073-.163.162v2.922c0,.09.073.162.163.162h74.492v-3.247Z" fill="#6a6a6a" fill-rule="evenodd"/><path d="M171.796,160.814h-1.879c-.554,0-1.107-.073-1.645-.216l-3.617-.964c-.477-.127-.967-.192-1.459-.192h-2.085v3.292h10.683v-1.92Z" fill="#f4855c" fill-rule="evenodd"/><polygon points="163.291 161.127 161.865 160.495 161.861 161.824 163.291 161.127" fill="#404040" fill-rule="evenodd"/><rect x="133.551" y="145.486" width="11.886" height="6.089" rx=".572" ry=".572" fill="#ededed"/><path d="M143.421,146.856h-7.897c-.125,0-.219.104-.219.222v2.982c0,.118.094.212.219.212h7.897c.118,0,.212-.094.212-.212v-2.982c0-.118-.094-.222-.212-.222Z" fill="#262626" fill-rule="evenodd"/><path d="M215.74,165.98H80.541c-.42,0-.761.335-.761.747v21.161c0,.413.341.747.761.747h135.199c.42,0,.761-.335.761-.747v-21.161c0-.413-.341-.747-.761-.747Z" fill="#d0d3d4" fill-rule="evenodd" stroke="#fff" stroke-miterlimit="10" stroke-width=".5"/><path d="M104.645,178.278h.189v-.191h-.189v.191ZM104.688,177.941h.107l.047-.715v-.302h-.206v.302l.052.715ZM95.389,178.278h.193v-.191h-.193v.191ZM95.432,177.941h.107l.047-.715v-.302h-.206v.302l.051.715Z" fill="#fff" fill-rule="evenodd"/><path d="M104.645,178.278h.189v-.191h-.189v.191ZM104.688,177.941h.107l.047-.715v-.302h-.206v.302l.052.715ZM95.389,178.278h.193v-.191h-.193v.191ZM95.432,177.941h.107l.047-.715v-.302h-.206v.302l.051.715Z" fill="#fff" fill-rule="evenodd"/><rect x="154.626" y="182.2" width="59.35" height="4.43" fill="#404040"/><path d="M82.467,186.651h70.879v-16.437c0-1.399-1.132-2.531-2.531-2.531h-65.817c-1.398,0-2.531,1.132-2.531,2.531v16.437Z" fill="#a2aaad" fill-rule="evenodd"/><rect x="87.336" y="168.404" width="10.757" height="7.819" fill="#eee"/><rect x="100.4" y="168.324" width="10.757" height="7.899" fill="#eee"/><polygon points="88.751 175.494 96.677 175.494 96.677 170.176 94.923 170.176 94.923 169.27 94.229 169.252 94.229 168.933 91.2 168.933 91.2 169.252 90.513 169.252 90.513 170.148 88.751 170.148 88.751 175.494" fill="#262626" fill-rule="evenodd"/><polygon points="101.815 175.494 109.742 175.494 109.742 170.176 107.987 170.176 107.987 169.27 107.293 169.252 107.293 168.933 104.264 168.933 104.264 169.252 103.577 169.252 103.577 170.148 101.815 170.148 101.815 175.494" fill="#262626" fill-rule="evenodd"/><rect x="88.542" y="169.082" width="1.708" height=".854" fill="#404040"/><rect x="95.178" y="169.082" width="1.708" height=".854" fill="#404040"/><path d="M117.778,171.241h5.808c.4,0,.725.325.725.725v3.388c0,.4-.325.726-.726.726h-5.808c-.4,0-.726-.325-.726-.726v-3.388c0-.4.325-.725.725-.725Z" fill="#eee"/><path d="M119.305,174.366h2.753c.389,0,.705-.316.705-.705,0-.392-.316-.708-.705-.708h-2.753c-.389,0-.705.316-.705.708,0,.389.316.705.705.705Z" fill="#262626" fill-rule="evenodd"/><rect x="82.467" y="176.382" width="41.844" height="10.248" fill="#7da9dc"/><path d="M83.942,182.058l.369-.003-.004,1.149h.167l.005-.43h.326v.292h.605v-.802h-.605v.285h-.326v-1.163h.326v.274h.605v-.802h-.605v.305h-.326l-.005-.385h-.167l.004,1.055-.369.003-.004-.326h-.643v.854h.643l.004-.305Z" fill="#fff" fill-rule="evenodd"/><rect x="86.181" y="178.854" width="35.6" height="6.335" fill="#fff"/><path d="M88.017,177.316c0-.219.175-.392.392-.392s.392.174.392.392c0,.215-.175.389-.392.389s-.392-.174-.392-.389Z" fill="#fff"/><path d="M90.935,177.278c0-.215.175-.389.392-.389s.391.174.391.389c0,.219-.175.392-.391.392s-.392-.174-.392-.392Z" fill="#fff"/><path d="M96.77,177.316c0-.219.175-.392.392-.392s.392.174.392.392c0,.215-.175.389-.392.389s-.392-.174-.392-.389Z" fill="#fff"/><path d="M99.688,177.278c0-.215.175-.389.392-.389s.392.174.392.389c0,.219-.175.392-.392.392s-.392-.174-.392-.392Z" fill="#fff"/><path d="M105.524,177.316c0-.219.175-.392.392-.392s.391.174.391.392c0,.215-.175.389-.391.389s-.392-.174-.392-.389Z" fill="#fff"/><path d="M108.44,177.278c0-.215.177-.389.392-.389.219,0,.392.174.392.389,0,.219-.174.392-.392.392-.215,0-.392-.174-.392-.392Z" fill="#fff"/><path d="M114.275,177.316c0-.219.177-.392.392-.392s.392.174.392.392c0,.215-.177.389-.392.389s-.392-.174-.392-.389Z" fill="#fff"/><path d="M117.195,177.278c0-.215.174-.389.392-.389.215,0,.392.174.392.389,0,.219-.177.392-.392.392-.219,0-.392-.174-.392-.392Z" fill="#fff"/><path d="M154.626,186.63h59.35v-15.982c0-1.638-1.326-2.965-2.965-2.965h-53.417c-1.638,0-2.968,1.326-2.968,2.965v15.982Z" fill="#ededed" stroke="#a7a9ac" stroke-miterlimit="10" stroke-width=".25"/><path d="M183.268,179.548v-6.651c0-.215-.177-.389-.389-.389h-13.774c-.215,0-.389.174-.389.389v6.651c0,.212.174.385.389.385h13.774c.212,0,.389-.174.389-.385Z" fill="none" stroke="#a2aaad" stroke-miterlimit="10" stroke-width=".25"/><path d="M169.529,178.854h5.801v-5.186h-5.801v5.186ZM176.655,178.854h5.801v-5.186h-5.801v5.186Z" fill="#262626" fill-rule="evenodd"/><rect x="184.088" y="167.563" width="30.035" height="19.067" fill="#7da9dc"/><rect x="154.626" y="182.2" width="59.493" height="4.571" fill="#a2aaad"/><rect x="184.941" y="172.507" width="18.553" height="6.042" fill="#fff" stroke="#fff" stroke-miterlimit="10" stroke-width=".5"/><rect x="185.056" y="172.622" width="9.012" height="5.812" fill="#b2292e"/><rect x="194.368" y="172.622" width="9.012" height="5.812" fill="#f2616f"/><rect x="204.582" y="167.556" width="9.533" height="19.074" fill="#a2aaad"/><path d="M167.224,179.548v-6.651c0-.215-.087-.389-.194-.389h-6.873c-.104,0-.191.174-.191.389v6.651c0,.212.087.385.191.385h6.873c.108,0,.194-.174.194-.385Z" fill="none" stroke="#a2aaad" stroke-miterlimit="10" stroke-width=".25"/><rect x="160.705" y="173.658" width="5.775" height="5.185" fill="#262626"/><path d="M170.497,170.682c0-.219.174-.392.389-.392.219,0,.392.174.392.392,0,.215-.174.389-.392.389-.215,0-.389-.174-.389-.389Z" fill="#404040"/><path d="M173.51,170.717c0-.215.177-.389.392-.389s.392.174.392.389c0,.219-.177.392-.392.392s-.392-.174-.392-.392Z" fill="#404040"/><path d="M177.662,170.682c0-.219.174-.392.389-.392.219,0,.392.174.392.392,0,.215-.174.389-.392.389-.215,0-.389-.174-.389-.389Z" fill="#404040"/><path d="M180.675,170.717c0-.215.177-.389.392-.389s.392.174.392.389c0,.219-.177.392-.392.392s-.392-.174-.392-.392Z" fill="#404040"/><path d="M161.77,170.682c0-.219.174-.392.389-.392.219,0,.392.174.392.392,0,.215-.174.389-.392.389-.215,0-.389-.174-.389-.389Z" fill="#404040"/><path d="M164.783,170.717c0-.215.177-.389.392-.389s.392.174.392.389c0,.219-.177.392-.392.392s-.392-.174-.392-.392Z" fill="#404040"/><path d="M186.722,170.682c0-.219.174-.392.389-.392.219,0,.392.174.392.392,0,.215-.174.389-.392.389-.215,0-.389-.174-.389-.389Z" fill="#fff"/><path d="M189.735,170.717c0-.215.177-.389.392-.389s.392.174.392.389c0,.219-.177.392-.392.392s-.392-.174-.392-.392Z" fill="#fff"/><path d="M196.355,170.682c0-.219.174-.392.392-.392.215,0,.389.174.389.392,0,.215-.174.389-.389.389-.219,0-.392-.174-.392-.389Z" fill="#fff"/><path d="M199.368,170.717c0-.215.177-.389.392-.389s.392.174.392.389c0,.219-.177.392-.392.392s-.392-.174-.392-.392Z" fill="#fff"/><polygon points="176.655 180.555 176.655 180.17 177.402 180.919 176.655 181.666 176.655 181.281 176.263 181.281 176.263 180.555 176.655 180.555" fill="#262626" fill-rule="evenodd"/><polygon points="175.44 181.281 175.44 181.666 174.694 180.916 175.44 180.17 175.44 180.555 175.836 180.555 175.836 181.281 175.44 181.281" fill="#262626" fill-rule="evenodd"/><path d="M208.213,178.569c0-.292.236-.528.528-.528.288,0,.524.236.524.528s-.236.528-.524.528c-.292,0-.528-.236-.528-.528Z" fill="#262626"/><path d="M208.213,176.549c0-.292.236-.528.528-.528.288,0,.524.236.524.528s-.236.528-.524.528c-.292,0-.528-.236-.528-.528Z" fill="#262626"/><path d="M208.213,173.234c0-.292.236-.528.528-.528.288,0,.524.236.524.528,0,.288-.236.524-.524.524-.292,0-.528-.236-.528-.524Z" fill="#262626"/><path d="M208.213,174.841c0-.292.236-.528.528-.528.288,0,.524.236.524.528s-.236.528-.524.528c-.292,0-.528-.236-.528-.528Z" fill="#262626"/><polygon points="82.759 172.939 83.465 172.939 84.172 172.231 83.465 171.526 82.759 171.526 83.465 172.231 82.759 172.939" fill="#262626" fill-rule="evenodd"/><polygon points="86.976 171.526 86.27 171.526 85.563 172.231 86.27 172.939 86.976 172.939 86.27 172.231 86.976 171.526" fill="#262626" fill-rule="evenodd"/><rect x="83.662" y="171.978" width="2.486" height=".51" fill="#262626"/><path d="M103.876,184.871v-5.478h-8.464v5.478h8.464ZM95.108,184.871v-5.478h-8.504v5.478h8.504ZM112.541,184.871v-5.478h-8.339v5.478h8.339ZM121.338,184.871v-5.478l-8.454-.018v5.478l8.454.018Z" fill="#262626" fill-rule="evenodd"/><path d="M118.48,179.375h-2.951v.312h2.951v-.312ZM109.788,179.375h-2.948v.312h2.948v-.312ZM101.097,179.375h-2.95v.312h2.95v-.312ZM92.408,179.375h-2.95v.312h2.95v-.312Z" fill="#fff" fill-rule="evenodd"/><rect x="206.075" y="188.23" width="12.49" height=".812" fill="#f1f1f2"/><path d="M152.371,186.445v3.247h56.812c.09,0,.163-.073.163-.162h0v-1.786c0-.09-.073-.162-.163-.162h-28.852c-.09,0-.163-.073-.163-.162v-.812c0-.09-.073-.162-.163-.162h-27.634Z" fill="#4d4d4d" fill-rule="evenodd"/><path d="M157.511,186.445h-7.576v3.247h22.797v-3.247h-1.082c-.572,0-1.142-.081-1.698-.241l-3.957-1.141c-.495-.143-1.002-.223-1.511-.238v-.003h-5.206c-.119,0-.234.059-.328.169l-1.11,1.286c-.094.109-.21.169-.328.169Z" fill="#555"/><path d="M152.009,186.445h-38.04v3.247h42.958c.18,0,.326-.145.326-.325h0v-4.221c0-.179-.146-.325-.326-.325h-2.248c-.18,0-.354.059-.497.169l-1.678,1.286c-.142.109-.317.169-.497.169Z" fill="#555"/><path d="M152.371,186.445h-74.492c-.09,0-.163.073-.163.162v2.922c0,.09.073.162.163.162h74.492v-3.247Z" fill="#6a6a6a" fill-rule="evenodd"/><path d="M171.796,187.025h-1.879c-.554,0-1.107-.073-1.645-.216l-3.617-.964c-.477-.127-.967-.192-1.459-.192h-2.085v3.292h10.683v-1.92Z" fill="#f4855c" fill-rule="evenodd"/><polygon points="163.291 187.338 161.865 186.706 161.861 188.036 163.291 187.338" fill="#404040" fill-rule="evenodd"/><rect x="133.551" y="171.698" width="11.886" height="6.089" rx=".572" ry=".572" fill="#ededed"/><path d="M143.421,173.067h-7.897c-.125,0-.219.104-.219.222v2.982c0,.118.094.212.219.212h7.897c.118,0,.212-.094.212-.212v-2.982c0-.118-.094-.222-.212-.222Z" fill="#262626" fill-rule="evenodd"/></g><g id="g"><path d="M140.936,2.6H5.737c-.42,0-.761.335-.761.747v21.161c0,.413.341.747.761.747h135.199c.42,0,.761-.335.761-.747V3.347c0-.413-.341-.747-.761-.747Z" fill="#caced0" fill-rule="evenodd" stroke="#a2aaad" stroke-miterlimit="10" stroke-width="1.2"/><rect x="49.168" y="7.736" width="15.124" height="7.384" rx=".406" ry=".406" fill="#f1f1f2" stroke="#d0d3d4" stroke-miterlimit="10" stroke-width=".251"/><rect x="49.81" y="8.38" width="13.84" height="6.097" fill="#101820"/><rect x="86.5" y="7.736" width="15.124" height="7.384" rx=".406" ry=".406" fill="#f1f1f2" stroke="#d0d3d4" stroke-miterlimit="10" stroke-width=".251"/><rect x="87.142" y="8.38" width="13.84" height="6.097" fill="#101820"/><path d="M290.053,2.6h-135.199c-.42,0-.761.335-.761.747v21.161c0,.413.341.747.761.747h135.199c.42,0,.761-.335.761-.747V3.347c0-.413-.341-.747-.761-.747Z" fill="#caced0" fill-rule="evenodd" stroke="#a2aaad" stroke-miterlimit="10" stroke-width="1.2"/><rect x="235.617" y="7.736" width="15.124" height="7.384" rx=".406" ry=".406" fill="#f1f1f2" stroke="#d0d3d4" stroke-miterlimit="10" stroke-width=".251"/><rect x="236.259" y="8.38" width="13.84" height="6.097" fill="#101820"/><rect x="198.285" y="7.736" width="15.124" height="7.384" rx=".406" ry=".406" fill="#f1f1f2" stroke="#d0d3d4" stroke-miterlimit="10" stroke-width=".251"/><rect x="198.927" y="8.38" width="13.84" height="6.097" fill="#101820"/><line x1="243.179" y1="59.221" x2="243.179" y2="11.428" fill="none" stroke="#fff" stroke-linejoin="round" stroke-width="3.5"/><line x1="243.179" y1="59.221" x2="243.179" y2="11.428" fill="none" stroke="#5cc4ff" stroke-linejoin="round" stroke-width="1.575"/><polyline points="64.642 55.524 64.642 33.845 205.711 33.845 205.711 11.428" fill="none" stroke="#fff" stroke-linejoin="round" stroke-width="3.5"/><polyline points="64.642 55.524 64.642 33.845 205.711 33.845 205.711 11.428" fill="none" stroke="#5cc4ff" stroke-linejoin="round" stroke-width="1.575"/><polyline points="205.414 55.524 205.414 48.084 94.062 48.084 94.062 11.428" fill="none" stroke="#fff" stroke-linejoin="round" stroke-width="3.5"/><polyline points="205.414 55.524 205.414 48.084 94.062 48.084 94.062 11.428" fill="none" stroke="#005cb9" stroke-linejoin="round" stroke-width="1.575"/><rect x="198.927" y="8.38" width="13.84" height="6.097" fill="#101820"/><rect x="198.927" y="8.38" width="13.84" height="6.097" fill="#5cc4ff"/><rect x="236.259" y="8.38" width="13.84" height="6.097" fill="#5cc4ff"/><polygon points="288.642 62.284 156.265 62.284 163.396 56.157 281.956 56.157 288.642 62.284 288.642 62.284 288.642 62.284" fill="#59595c" fill-rule="evenodd"/><polygon points="156.265 64.294 288.642 64.294 288.642 76.753 156.265 76.753 156.265 64.294 156.265 64.294" fill="#59595c" fill-rule="evenodd"/><path d="M251.056,74.327h-4.347v-2.713h4.347v2.713h0ZM251.056,69.654h-4.347v-2.711h4.347v2.711h0ZM256.139,74.327h-4.349v-2.713h4.349v2.713h0ZM256.139,69.654h-4.349v-2.711h4.349v2.711h0ZM261.22,74.327h-4.347v-2.713h4.347v2.713h0ZM261.22,69.654h-4.347v-2.711h4.347v2.711h0ZM266.301,74.327h-4.347v-2.713h4.347v2.713h0ZM266.301,69.654h-4.347v-2.711h4.347v2.711h0ZM245.976,69.654h-4.347v-2.711h4.347v2.711h0ZM240.896,74.327h-4.348v-2.713h4.348v2.713h0ZM240.896,69.654h-4.348v-2.711h4.348v2.711h0ZM245.976,74.327h-4.347v-2.713h4.347v2.713h0Z" fill="#fff" fill-rule="evenodd"/><path d="M217.183,74.327h-4.347v-2.713h4.347v2.713h0ZM217.183,69.654h-4.347v-2.711h4.347v2.711h0ZM222.263,74.327h-4.348v-2.713h4.348v2.713h0ZM222.263,69.654h-4.348v-2.711h4.348v2.711h0ZM227.346,74.327h-4.349v-2.713h4.349v2.713h0ZM227.346,69.654h-4.349v-2.711h4.349v2.711h0ZM232.427,74.327h-4.348v-2.713h4.348v2.713h0ZM232.427,69.654h-4.348v-2.711h4.348v2.711h0ZM212.102,69.654h-4.348v-2.711h4.348v2.711h0ZM207.021,74.327h-4.347v-2.713h4.347v2.713h0ZM207.021,69.654h-4.347v-2.711h4.347v2.711h0ZM212.102,74.327h-4.348v-2.713h4.348v2.713h0Z" fill="#fff" fill-rule="evenodd"/><path d="M171.777,74.095h-11.412v-3.584h11.412v3.584h0ZM186.262,74.095h-11.411v-3.584h11.411v3.584h0Z" fill="#fff" fill-rule="evenodd"/><polygon points="135.439 62.284 3.062 62.284 10.194 56.157 128.753 56.157 135.439 62.284 135.439 62.284 135.439 62.284" fill="#59595c" fill-rule="evenodd"/><polygon points="3.062 64.294 135.439 64.294 135.439 76.753 3.062 76.753 3.062 64.294 3.062 64.294" fill="#59595c" fill-rule="evenodd"/><path d="M97.854,74.327h-4.347v-2.713h4.347v2.713h0ZM97.854,69.654h-4.347v-2.711h4.347v2.711h0ZM102.936,74.327h-4.349v-2.713h4.349v2.713h0ZM102.936,69.654h-4.349v-2.711h4.349v2.711h0ZM108.017,74.327h-4.347v-2.713h4.347v2.713h0ZM108.017,69.654h-4.347v-2.711h4.347v2.711h0ZM113.098,74.327h-4.347v-2.713h4.347v2.713h0ZM113.098,69.654h-4.347v-2.711h4.347v2.711h0ZM92.773,69.654h-4.347v-2.711h4.347v2.711h0ZM87.693,74.327h-4.348v-2.713h4.348v2.713h0ZM87.693,69.654h-4.348v-2.711h4.348v2.711h0ZM92.773,74.327h-4.347v-2.713h4.347v2.713h0Z" fill="#fff" fill-rule="evenodd"/><path d="M63.98,74.327h-4.347v-2.713h4.347v2.713h0ZM63.98,69.654h-4.347v-2.711h4.347v2.711h0ZM69.061,74.327h-4.348v-2.713h4.348v2.713h0ZM69.061,69.654h-4.348v-2.711h4.348v2.711h0ZM74.144,74.327h-4.349v-2.713h4.349v2.713h0ZM74.144,69.654h-4.349v-2.711h4.349v2.711h0ZM79.224,74.327h-4.348v-2.713h4.348v2.713h0ZM79.224,69.654h-4.348v-2.711h4.348v2.711h0ZM58.899,69.654h-4.348v-2.711h4.348v2.711h0ZM53.819,74.327h-4.347v-2.713h4.347v2.713h0ZM53.819,69.654h-4.347v-2.711h4.347v2.711h0ZM58.899,74.327h-4.348v-2.713h4.348v2.713h0Z" fill="#fff" fill-rule="evenodd"/><path d="M18.574,74.095H7.162v-3.584h11.412v3.584h0ZM33.059,74.095h-11.411v-3.584h11.411v3.584h0Z" fill="#fff" fill-rule="evenodd"/><polyline points="198.876 172.63 198.876 160.657 243.116 160.628 243.116 76.753" fill="none" stroke="#fff" stroke-linejoin="round" stroke-width="3.5"/><polyline points="198.876 172.63 198.876 160.657 243.116 160.628 243.116 76.753" fill="none" stroke="#f2616f" stroke-linejoin="round" stroke-width="1.575"/><polyline points="198.876 146.429 198.876 99.967 205.648 99.939 205.648 76.753" fill="none" stroke="#fff" stroke-linejoin="round" stroke-width="3.5"/><polyline points="198.876 146.429 198.876 99.967 205.648 99.939 205.648 76.753" fill="none" stroke="#f2616f" stroke-linejoin="round" stroke-width="1.575"/><polyline points="189.647 172.601 189.647 160.628 93.999 160.628 93.999 76.753" fill="none" stroke="#fff" stroke-linejoin="round" stroke-width="3.5"/><polyline points="189.647 172.601 189.647 160.628 93.999 160.628 93.999 76.753" fill="none" stroke="#b2292e" stroke-linejoin="round" stroke-width="1.575"/><polyline points="189.647 146.4 189.647 99.939 56.668 99.939 56.668 76.753" fill="none" stroke="#fff" stroke-linejoin="round" stroke-width="3.5"/><polyline points="189.647 146.4 189.647 99.939 56.668 99.939 56.668 76.753" fill="none" stroke="#b2292e" stroke-linejoin="round" stroke-width="1.575"/><rect x="49.81" y="8.38" width="13.84" height="6.097" fill="#101820"/><rect x="87.142" y="8.38" width="13.84" height="6.097" fill="#101820"/><rect x="87.142" y="8.38" width="13.84" height="6.097" fill="#005cb9"/><line x1="56.886" y1="55.524" x2="56.886" y2="11.428" fill="none" stroke="#fff" stroke-linejoin="round" stroke-width="3.5"/><line x1="56.886" y1="55.524" x2="56.886" y2="11.428" fill="none" stroke="#005cb9" stroke-linejoin="round" stroke-width="1.575"/><rect x="49.81" y="8.38" width="13.84" height="6.097" fill="#005cb9"/><rect x="176.656" y="147.451" width="5.801" height="5.186" fill="#262626"/><rect x="169.539" y="147.451" width="5.801" height="5.186" fill="#262626"/><rect x="176.656" y="173.671" width="5.801" height="5.186" fill="#262626"/><rect x="169.539" y="173.671" width="5.801" height="5.186" fill="#262626"/></g></svg>