<?xml version="1.0" encoding="UTF-8"?><svg id="a" xmlns="http://www.w3.org/2000/svg" width="4.125in" height="2.375in" viewBox="0 0 297 171"><rect x="1.6" y="105.834" width="293.969" height="63.104" fill="none" stroke="#a2aaad" stroke-linecap="round" stroke-linejoin="round" stroke-width="1.199"/><rect x="4.301" y="108.97" width="288.566" height="56.832" fill="#d0d3d4"/><rect x="6.369" y="138.995" width="136.72" height="23.062" rx=".761" ry=".761" fill="#d0d3d4" stroke="#fff" stroke-miterlimit="10" stroke-width=".5"/><path d="M125.717,141.298v17.81c0,.57.462,1.033,1.033,1.033h12.91c.571,0,1.033-.462,1.033-1.033v-17.81c0-.57-.462-1.032-1.033-1.032h-12.91c-.57,0-1.033.462-1.033,1.032h0Z" fill="#a2aaad"/><path d="M113.341,157.221h8.262c.319,0,.578-.259.578-.578h0v-12.225c0-.319-.259-.578-.578-.578h-8.262c-.319,0-.578.259-.578.578v12.225c0,.319.259.578.578.578Z" fill="#a2aaad"/><path d="M120.942,147.474v-1.817c0-.183-.148-.33-.33-.33h-6.279c-.182,0-.33.148-.33.33v1.817h6.94Z" fill="#101820"/><path d="M120.942,147.474h-6.94v7.764c0,.182.148.33.33.33h6.279c.183,0,.33-.148.33-.33h0v-7.764Z" fill="#333f48"/><path d="M127.215,146.515v8.03c0,.451.184.882.51,1.193l3.239,3.099c.308.294.717.459,1.143.459h5.436c.912,0,1.652-.739,1.652-1.652v-14.229c0-.913-.74-1.652-1.652-1.652h-5.436c-.426,0-.835.164-1.143.459l-3.239,3.1c-.325.312-.51.743-.51,1.193Z" fill="#101820"/><rect x="133.314" y="154.768" width="3.305" height=".991" fill="#fff"/><rect x="129.791" y="150.048" width="3.305" height=".991" fill="#fff"/><rect x="133.314" y="145.327" width="3.305" height=".991" fill="#fff"/><path d="M49.482,160.785h21.201c.313,0,.569-.256.569-.572h0v-19.367c0-.316-.255-.572-.569-.572h-21.201c-.315,0-.569.256-.569.572v19.367c0,.316.254.572.569.572Z" fill="#a2aaad" fill-rule="evenodd"/><circle cx="57.267" cy="145.399" r="1.01" fill="#101820"/><circle cx="63.332" cy="145.399" r="1.01" fill="#101820"/><g id="b"><rect x="138.357" y="161.983" width="6.797" height="1.167" fill="#f1f1f2"/><rect x="57.626" y="158.814" width="3.315" height="5.003" fill="#595959"/><rect x="94.013" y="160.482" width="44.343" height="3.335" fill="#595959"/><rect x="92.853" y="160.482" width="1.16" height="3.335" fill="#595959"/><rect x="6.941" y="160.482" width="33.031" height="3.335" fill="#595959"/><rect x="39.971" y="160.482" width="1.16" height="3.335" fill="#595959"/><path d="M74.475,160.482c-.677,0-1.35-.083-2.006-.248l-4.674-1.172c-.656-.165-1.329-.248-2.005-.248h-5.016c-.183,0-.331.149-.331.334v4.336c0,.184.149.334.331.334h32.077v-3.335h-18.377Z" fill="#666" fill-rule="evenodd"/><path d="M63.097,163.317h27.933v-2.335h-16.554c-.716,0-1.43-.088-2.126-.263l-4.674-1.172c-.616-.155-1.25-.233-1.885-.233h-2.694v4.002Z" fill="#f4855c" fill-rule="evenodd"/><polygon points="66.972 161.282 65.539 160.626 65.536 162.005 66.972 161.282" fill="#595959" fill-rule="evenodd"/><path d="M52.785,160.482h-11.653v3.335h16.661c.183,0,.331-.149.331-.334h0v-4.336c0-.184-.149-.334-.331-.334h-2.289c-.183,0-.361.061-.505.173l-1.708,1.322c-.145.112-.322.173-.506.173Z" fill="#666" fill-rule="evenodd"/><rect x="4.497" y="161.566" width="4.973" height="2.251" fill="#666"/><rect x="138.357" y="163.15" width="6.216" height=".667" fill="#ccc"/></g><path d="M117.456,150.709c.096,0,.191-.064.191-.159v-1.369c0-.096-.096-.159-.191-.159s-.159.064-.159.159v1.369c0,.096.064.159.159.159M118.093,153.066c0-.35-.287-.605-.637-.605-.318,0-.605.255-.605.605s.287.605.605.605c.35,0,.637-.255.637-.605ZM118.443,153.066c0-.541-.446-.955-.987-.955-.51,0-.955.414-.955.955s.446.955.955.955c.541,0,.987-.414.987-.955Z" fill="#fff" fill-rule="evenodd"/><path d="M63.505,143.216c0-.087-.087-.173-.173-.173s-.173.087-.173.173.087.173.173.173.173-.087.173-.173Z" fill="#101820" fill-rule="evenodd"/><path d="M63.505,141.7c0-.087-.087-.173-.173-.173s-.173.087-.173.173l.087,1.213c.043,0,.043.043.087.043s.087-.043.087-.043l.087-1.213Z" fill="#101820" fill-rule="evenodd"/><path d="M57.267,141.204c-.688,0-1.247.561-1.247,1.254s.557,1.254,1.245,1.254c.688,0,1.248-.561,1.248-1.254s-.558-1.254-1.247-1.254ZM57.138,141.432c.44-.055.866.178,1.056.581l-.702.707-.291-1.092-.954.959c-.071-.567.329-1.084.892-1.155ZM57.39,143.485c-.437.053-.858-.179-1.049-.578l.708-.713.291,1.092.946-.952c.068.567-.334,1.082-.897,1.151Z" fill="#101820" fill-rule="evenodd"/><rect x="154.278" y="138.995" width="136.72" height="23.062" rx=".761" ry=".761" fill="#d0d3d4" stroke="#fff" stroke-miterlimit="10" stroke-width=".5"/><path d="M273.627,141.298v17.81c0,.57.462,1.033,1.033,1.033h12.91c.571,0,1.033-.462,1.033-1.033v-17.81c0-.57-.462-1.032-1.033-1.032h-12.91c-.57,0-1.033.462-1.033,1.032h0Z" fill="#a2aaad"/><path d="M261.25,157.221h8.262c.319,0,.578-.259.578-.578h0v-12.225c0-.319-.259-.578-.578-.578h-8.262c-.319,0-.578.259-.578.578v12.225c0,.319.259.578.578.578Z" fill="#a2aaad"/><path d="M268.851,147.474v-1.817c0-.183-.148-.33-.33-.33h-6.279c-.182,0-.33.148-.33.33v1.817h6.94Z" fill="#101820"/><path d="M268.851,147.474h-6.94v7.764c0,.182.148.33.33.33h6.279c.183,0,.33-.148.33-.33h0v-7.764Z" fill="#333f48"/><path d="M275.125,146.515v8.03c0,.451.184.882.51,1.193l3.239,3.099c.308.294.717.459,1.143.459h5.436c.912,0,1.652-.739,1.652-1.652v-14.229c0-.913-.74-1.652-1.652-1.652h-5.436c-.426,0-.835.164-1.143.459l-3.239,3.1c-.325.312-.51.743-.51,1.193Z" fill="#101820"/><rect x="281.224" y="154.768" width="3.305" height=".991" fill="#fff"/><rect x="277.7" y="150.048" width="3.305" height=".991" fill="#fff"/><rect x="281.224" y="145.327" width="3.305" height=".991" fill="#fff"/><path d="M197.391,160.785h21.201c.313,0,.569-.256.569-.572h0v-19.367c0-.316-.255-.572-.569-.572h-21.201c-.315,0-.569.256-.569.572v19.367c0,.316.254.572.569.572Z" fill="#a2aaad" fill-rule="evenodd"/><circle cx="205.176" cy="145.399" r="1.01" fill="#101820"/><circle cx="211.241" cy="145.399" r="1.01" fill="#101820"/><g id="c"><rect x="286.266" y="161.983" width="6.797" height="1.167" fill="#f1f1f2"/><rect x="205.535" y="158.814" width="3.315" height="5.003" fill="#595959"/><rect x="241.922" y="160.482" width="44.343" height="3.335" fill="#595959"/><rect x="240.762" y="160.482" width="1.16" height="3.335" fill="#595959"/><rect x="154.85" y="160.482" width="33.031" height="3.335" fill="#595959"/><rect x="187.88" y="160.482" width="1.16" height="3.335" fill="#595959"/><path d="M222.385,160.482c-.677,0-1.35-.083-2.006-.248l-4.674-1.172c-.656-.165-1.329-.248-2.005-.248h-5.016c-.183,0-.331.149-.331.334v4.336c0,.184.149.334.331.334h32.077v-3.335h-18.377Z" fill="#666" fill-rule="evenodd"/><path d="M211.006,163.317h27.933v-2.335h-16.554c-.716,0-1.43-.088-2.126-.263l-4.674-1.172c-.616-.155-1.25-.233-1.885-.233h-2.694v4.002Z" fill="#f4855c" fill-rule="evenodd"/><polygon points="214.882 161.282 213.448 160.626 213.445 162.005 214.882 161.282" fill="#595959" fill-rule="evenodd"/><path d="M200.694,160.482h-11.653v3.335h16.661c.183,0,.331-.149.331-.334h0v-4.336c0-.184-.149-.334-.331-.334h-2.289c-.183,0-.361.061-.505.173l-1.708,1.322c-.145.112-.322.173-.506.173Z" fill="#666" fill-rule="evenodd"/><rect x="152.406" y="161.566" width="4.973" height="2.251" fill="#666"/><rect x="286.266" y="163.15" width="6.216" height=".667" fill="#ccc"/></g><path d="M265.365,150.709c.096,0,.191-.064.191-.159v-1.369c0-.096-.096-.159-.191-.159s-.159.064-.159.159v1.369c0,.096.064.159.159.159M266.002,153.066c0-.35-.287-.605-.637-.605-.318,0-.605.255-.605.605s.287.605.605.605c.35,0,.637-.255.637-.605ZM266.352,153.066c0-.541-.446-.955-.987-.955-.51,0-.955.414-.955.955s.446.955.955.955c.541,0,.987-.414.987-.955Z" fill="#fff" fill-rule="evenodd"/><path d="M211.414,143.216c0-.087-.087-.173-.173-.173s-.173.087-.173.173.087.173.173.173.173-.087.173-.173Z" fill="#101820" fill-rule="evenodd"/><path d="M211.414,141.7c0-.087-.087-.173-.173-.173s-.173.087-.173.173l.087,1.213c.043,0,.043.043.087.043s.087-.043.087-.043l.087-1.213Z" fill="#101820" fill-rule="evenodd"/><path d="M205.176,141.204c-.688,0-1.247.561-1.247,1.254s.557,1.254,1.245,1.254c.688,0,1.248-.561,1.248-1.254s-.558-1.254-1.247-1.254ZM205.047,141.432c.44-.055.866.178,1.056.581l-.702.707-.291-1.092-.954.959c-.071-.567.329-1.084.892-1.155ZM205.299,143.485c-.437.053-.858-.179-1.049-.578l.708-.713.291,1.092.946-.952c.068.567-.334,1.082-.897,1.151Z" fill="#101820" fill-rule="evenodd"/><polygon points="147.657 118.863 151.138 118.863 151.138 114.645 147.657 114.645 146.03 116.754 147.657 118.863" fill="#292929" fill-rule="evenodd"/><polygon points="149.486 132.024 151.138 129.915 149.486 127.832 146.03 127.832 146.03 132.024 149.486 132.024" fill="#292929" fill-rule="evenodd"/><polygon points="147.657 149.277 151.138 149.277 151.138 145.085 147.657 145.085 146.03 147.168 147.657 149.277" fill="#292929" fill-rule="evenodd"/><polygon points="149.486 162.464 151.138 160.355 149.486 158.246 146.03 158.246 146.03 162.464 149.486 162.464" fill="#292929" fill-rule="evenodd"/><path d="M148.266,146.025c-.61,0-1.143.534-1.143,1.143,0,.635.534,1.143,1.143,1.143.635,0,1.143-.508,1.143-1.143,0-.61-.508-1.143-1.143-1.143ZM148.394,146.253c.407.051.737.356.813.762l-.788.457v-1.042l-1.067.61c.051-.508.534-.864,1.042-.788ZM148.139,148.108c-.407-.051-.711-.356-.788-.762l.788-.457v1.042l1.067-.61c-.076.508-.559.864-1.067.788Z" fill="#fff" fill-rule="evenodd"/><path d="M149.067,115.745h.433l.916,2.152h-.492l-.195-.479h-.903l-.195.479h-.479l.916-2.152ZM149.562,117.003l-.284-.693-.284.693h.568Z" fill="#fff"/><path d="M147.096,128.924h.992c.244,0,.437.067.559.189.097.098.146.217.146.364v.006c0,.241-.128.376-.281.461.248.095.4.238.4.525v.006c0,.391-.318.586-.8.586h-1.016v-2.137ZM148.326,129.556c0-.141-.11-.22-.309-.22h-.464v.452h.433c.208,0,.339-.067.339-.226v-.006ZM148.097,130.179h-.544v.47h.558c.208,0,.333-.073.333-.232v-.006c0-.144-.106-.232-.348-.232Z" fill="#fff"/><path d="M149.56,148.134v-.315h.459v-1.078l-.404.15-.092-.317.606-.228h.259v1.474h.414v.315h-1.243Z" fill="#fff"/><path d="M148.816,161.295v-.304l.568-.502c.208-.185.292-.282.292-.424,0-.145-.099-.224-.241-.224-.137,0-.236.074-.365.236l-.257-.228c.17-.231.34-.356.647-.356.373,0,.606.213.606.538v.005c0,.254-.127.398-.317.566l-.411.358h.743v.335h-1.266Z" fill="#fff"/><path d="M147.453,159.212c-.635,0-1.143.508-1.143,1.143s.508,1.143,1.143,1.143c.61,0,1.143-.508,1.143-1.143s-.534-1.143-1.143-1.143ZM147.58,159.415c.381.051.711.356.788.762l-.788.457v-1.042l-1.067.635c.076-.534.534-.889,1.067-.813ZM147.301,161.295c-.381-.076-.711-.381-.788-.762l.788-.457v1.016l1.067-.61c-.076.508-.534.864-1.067.813Z" fill="#fff" fill-rule="evenodd"/><path d="M142.328,112.066H7.13c-.42,0-.761.335-.761.747v21.161c0,.413.341.747.761.747h135.199c.42,0,.761-.335.761-.747v-21.161c0-.413-.341-.747-.761-.747Z" fill="#d0d3d4" fill-rule="evenodd" stroke="#fff" stroke-miterlimit="10" stroke-width=".5"/><path d="M31.234,124.363h.189v-.191h-.189v.191ZM31.277,124.027h.107l.047-.715v-.302h-.206v.302l.052.715ZM21.978,124.363h.193v-.191h-.193v.191ZM22.021,124.027h.107l.047-.715v-.302h-.206v.302l.051.715Z" fill="#fff" fill-rule="evenodd"/><path d="M31.234,124.363h.189v-.191h-.189v.191ZM31.277,124.027h.107l.047-.715v-.302h-.206v.302l.052.715ZM21.978,124.363h.193v-.191h-.193v.191ZM22.021,124.027h.107l.047-.715v-.302h-.206v.302l.051.715Z" fill="#fff" fill-rule="evenodd"/><rect x="81.215" y="128.286" width="59.35" height="4.43" fill="#404040"/><path d="M9.056,132.736h70.879v-16.437c0-1.399-1.132-2.531-2.531-2.531H11.587c-1.398,0-2.531,1.132-2.531,2.531v16.437Z" fill="#a2aaad" fill-rule="evenodd"/><rect x="13.925" y="114.489" width="10.757" height="7.819" fill="#eee"/><rect x="26.989" y="114.409" width="10.757" height="7.899" fill="#eee"/><polygon points="15.34 121.579 23.266 121.579 23.266 116.261 21.512 116.261 21.512 115.355 20.818 115.338 20.818 115.019 17.789 115.019 17.789 115.338 17.102 115.338 17.102 116.233 15.34 116.233 15.34 121.579" fill="#262626" fill-rule="evenodd"/><polygon points="28.404 121.579 36.331 121.579 36.331 116.261 34.576 116.261 34.576 115.355 33.882 115.338 33.882 115.019 30.853 115.019 30.853 115.338 30.166 115.338 30.166 116.233 28.404 116.233 28.404 121.579" fill="#262626" fill-rule="evenodd"/><rect x="15.131" y="115.168" width="1.708" height=".854" fill="#404040"/><rect x="21.767" y="115.168" width="1.708" height=".854" fill="#404040"/><path d="M44.367,117.327h5.808c.4,0,.725.325.725.725v3.388c0,.4-.325.726-.726.726h-5.808c-.4,0-.726-.325-.726-.726v-3.388c0-.4.325-.725.725-.725Z" fill="#eee"/><path d="M45.894,120.451h2.753c.389,0,.705-.316.705-.705,0-.392-.316-.708-.705-.708h-2.753c-.389,0-.705.316-.705.708,0,.389.316.705.705.705Z" fill="#262626" fill-rule="evenodd"/><rect x="9.056" y="122.468" width="41.844" height="10.248" fill="#7da9dc"/><path d="M10.531,128.144l.369-.003-.004,1.149h.167l.005-.43h.326v.292h.605v-.802h-.605v.285h-.326v-1.163h.326v.274h.605v-.802h-.605v.305h-.326l-.005-.385h-.167l.004,1.055-.369.003-.004-.326h-.643v.854h.643l.004-.305Z" fill="#fff" fill-rule="evenodd"/><rect x="12.77" y="124.94" width="35.6" height="6.335" fill="#fff"/><path d="M14.606,123.402c0-.219.175-.392.392-.392s.392.174.392.392c0,.215-.175.389-.392.389s-.392-.174-.392-.389Z" fill="#fff"/><path d="M17.524,123.364c0-.215.175-.389.392-.389s.391.174.391.389c0,.219-.175.392-.391.392s-.392-.174-.392-.392Z" fill="#fff"/><path d="M23.359,123.402c0-.219.175-.392.392-.392s.392.174.392.392c0,.215-.175.389-.392.389s-.392-.174-.392-.389Z" fill="#fff"/><path d="M26.277,123.364c0-.215.175-.389.392-.389s.392.174.392.389c0,.219-.175.392-.392.392s-.392-.174-.392-.392Z" fill="#fff"/><path d="M32.113,123.402c0-.219.175-.392.392-.392s.391.174.391.392c0,.215-.175.389-.391.389s-.392-.174-.392-.389Z" fill="#fff"/><path d="M35.029,123.364c0-.215.177-.389.392-.389.219,0,.392.174.392.389,0,.219-.174.392-.392.392-.215,0-.392-.174-.392-.392Z" fill="#fff"/><path d="M40.864,123.402c0-.219.177-.392.392-.392s.392.174.392.392c0,.215-.177.389-.392.389s-.392-.174-.392-.389Z" fill="#fff"/><path d="M43.784,123.364c0-.215.174-.389.392-.389.215,0,.392.174.392.389,0,.219-.177.392-.392.392-.219,0-.392-.174-.392-.392Z" fill="#fff"/><path d="M81.215,132.715h59.35v-15.982c0-1.638-1.326-2.965-2.965-2.965h-53.417c-1.638,0-2.968,1.326-2.968,2.965v15.982Z" fill="#ededed" stroke="#a7a9ac" stroke-miterlimit="10" stroke-width=".25"/><path d="M109.857,125.634v-6.651c0-.215-.177-.389-.389-.389h-13.774c-.215,0-.389.174-.389.389v6.651c0,.212.174.385.389.385h13.774c.212,0,.389-.174.389-.385Z" fill="none" stroke="#a2aaad" stroke-miterlimit="10" stroke-width=".25"/><rect x="110.676" y="113.648" width="30.035" height="19.067" fill="#7da9dc"/><rect x="81.215" y="128.286" width="59.493" height="4.571" fill="#a2aaad"/><rect x="111.53" y="118.592" width="18.553" height="6.042" fill="#fff" stroke="#fff" stroke-miterlimit="10" stroke-width=".5"/><rect x="111.645" y="118.707" width="9.012" height="5.812" fill="#b2292e"/><rect x="120.956" y="118.707" width="9.012" height="5.812" fill="#f2616f"/><rect x="131.171" y="113.641" width="9.533" height="19.074" fill="#a2aaad"/><path d="M93.813,125.634v-6.651c0-.215-.087-.389-.194-.389h-6.873c-.104,0-.191.174-.191.389v6.651c0,.212.087.385.191.385h6.873c.108,0,.194-.174.194-.385Z" fill="none" stroke="#a2aaad" stroke-miterlimit="10" stroke-width=".25"/><rect x="87.293" y="119.744" width="5.775" height="5.185" fill="#262626"/><path d="M97.086,116.768c0-.219.174-.392.389-.392.219,0,.392.174.392.392,0,.215-.174.389-.392.389-.215,0-.389-.174-.389-.389Z" fill="#404040"/><path d="M100.099,116.803c0-.215.177-.389.392-.389s.392.174.392.389c0,.219-.177.392-.392.392s-.392-.174-.392-.392Z" fill="#404040"/><path d="M104.251,116.768c0-.219.174-.392.389-.392.219,0,.392.174.392.392,0,.215-.174.389-.392.389-.215,0-.389-.174-.389-.389Z" fill="#404040"/><path d="M107.264,116.803c0-.215.177-.389.392-.389s.392.174.392.389c0,.219-.177.392-.392.392s-.392-.174-.392-.392Z" fill="#404040"/><path d="M88.359,116.768c0-.219.174-.392.389-.392.219,0,.392.174.392.392,0,.215-.174.389-.392.389-.215,0-.389-.174-.389-.389Z" fill="#404040"/><path d="M91.372,116.803c0-.215.177-.389.392-.389s.392.174.392.389c0,.219-.177.392-.392.392s-.392-.174-.392-.392Z" fill="#404040"/><path d="M113.311,116.768c0-.219.174-.392.389-.392.219,0,.392.174.392.392,0,.215-.174.389-.392.389-.215,0-.389-.174-.389-.389Z" fill="#fff"/><path d="M116.324,116.803c0-.215.177-.389.392-.389s.392.174.392.389c0,.219-.177.392-.392.392s-.392-.174-.392-.392Z" fill="#fff"/><path d="M122.944,116.768c0-.219.174-.392.392-.392.215,0,.389.174.389.392,0,.215-.174.389-.389.389-.219,0-.392-.174-.392-.389Z" fill="#fff"/><path d="M125.957,116.803c0-.215.177-.389.392-.389s.392.174.392.389c0,.219-.177.392-.392.392s-.392-.174-.392-.392Z" fill="#fff"/><polygon points="103.244 126.641 103.244 126.255 103.991 127.005 103.244 127.751 103.244 127.366 102.852 127.366 102.852 126.641 103.244 126.641" fill="#262626" fill-rule="evenodd"/><polygon points="102.029 127.366 102.029 127.751 101.283 127.002 102.029 126.255 102.029 126.641 102.425 126.641 102.425 127.366 102.029 127.366" fill="#262626" fill-rule="evenodd"/><path d="M134.802,124.655c0-.292.236-.528.528-.528.288,0,.524.236.524.528s-.236.528-.524.528c-.292,0-.528-.236-.528-.528Z" fill="#101820"/><path d="M134.802,122.635c0-.292.236-.528.528-.528.288,0,.524.236.524.528s-.236.528-.524.528c-.292,0-.528-.236-.528-.528Z" fill="#101820"/><path d="M134.802,119.319c0-.292.236-.528.528-.528.288,0,.524.236.524.528,0,.288-.236.524-.524.524-.292,0-.528-.236-.528-.524Z" fill="#101820"/><path d="M134.802,120.927c0-.292.236-.528.528-.528.288,0,.524.236.524.528s-.236.528-.524.528c-.292,0-.528-.236-.528-.528Z" fill="#101820"/><polygon points="9.348 119.024 10.054 119.024 10.761 118.316 10.054 117.612 9.348 117.612 10.054 118.316 9.348 119.024" fill="#262626" fill-rule="evenodd"/><polygon points="13.565 117.612 12.859 117.612 12.152 118.316 12.859 119.024 13.565 119.024 12.859 118.316 13.565 117.612" fill="#262626" fill-rule="evenodd"/><rect x="10.251" y="118.063" width="2.486" height=".51" fill="#262626"/><path d="M30.465,130.957v-5.478h-8.464v5.478h8.464ZM21.697,130.957v-5.478h-8.504v5.478h8.504ZM39.13,130.957v-5.478h-8.339v5.478h8.339ZM47.927,130.957v-5.478l-8.454-.018v5.478l8.454.018Z" fill="#262626" fill-rule="evenodd"/><path d="M45.069,125.461h-2.951v.312h2.951v-.312ZM36.377,125.461h-2.948v.312h2.948v-.312ZM27.686,125.461h-2.95v.312h2.95v-.312ZM18.997,125.461h-2.95v.312h2.95v-.312Z" fill="#fff" fill-rule="evenodd"/><rect x="132.664" y="134.316" width="12.49" height=".812" fill="#f1f1f2"/><path d="M78.96,132.53v3.247h56.812c.09,0,.163-.073.163-.162h0v-1.786c0-.09-.073-.162-.163-.162h-28.852c-.09,0-.163-.073-.163-.162v-.812c0-.09-.073-.162-.163-.162h-27.634Z" fill="#4d4d4d" fill-rule="evenodd"/><path d="M84.1,132.53h-7.576v3.247h22.797v-3.247h-1.082c-.572,0-1.142-.081-1.698-.241l-3.957-1.141c-.495-.143-1.002-.223-1.511-.238v-.003h-5.206c-.119,0-.234.059-.328.169l-1.11,1.286c-.094.109-.21.169-.328.169Z" fill="#555"/><path d="M78.598,132.53h-38.04v3.247h42.958c.18,0,.326-.145.326-.325h0v-4.221c0-.179-.146-.325-.326-.325h-2.248c-.18,0-.354.059-.497.169l-1.678,1.286c-.142.109-.317.169-.497.169Z" fill="#555"/><path d="M78.96,132.53H4.468c-.09,0-.163.073-.163.162v2.922c0,.09.073.162.163.162h74.492v-3.247Z" fill="#6a6a6a" fill-rule="evenodd"/><path d="M98.385,133.11h-1.879c-.554,0-1.107-.073-1.645-.216l-3.617-.964c-.477-.127-.967-.192-1.459-.192h-2.085v3.292h10.683v-1.92Z" fill="#f4855c" fill-rule="evenodd"/><polygon points="89.88 133.423 88.454 132.792 88.45 134.121 89.88 133.423" fill="#404040" fill-rule="evenodd"/><rect x="60.14" y="117.783" width="11.886" height="6.089" rx=".572" ry=".572" fill="#ededed"/><path d="M70.01,119.153h-7.897c-.125,0-.219.104-.219.222v2.982c0,.118.094.212.219.212h7.897c.118,0,.212-.094.212-.212v-2.982c0-.118-.094-.222-.212-.222Z" fill="#262626" fill-rule="evenodd"/><path d="M290.333,112.066h-135.199c-.42,0-.761.335-.761.747v21.161c0,.413.341.747.761.747h135.199c.42,0,.761-.335.761-.747v-21.161c0-.413-.341-.747-.761-.747Z" fill="#d0d3d4" fill-rule="evenodd" stroke="#fff" stroke-miterlimit="10" stroke-width=".5"/><path d="M179.239,124.363h.189v-.191h-.189v.191ZM179.282,124.027h.107l.047-.715v-.302h-.206v.302l.052.715ZM169.983,124.363h.193v-.191h-.193v.191ZM170.026,124.027h.107l.047-.715v-.302h-.206v.302l.051.715Z" fill="#fff" fill-rule="evenodd"/><path d="M179.239,124.363h.189v-.191h-.189v.191ZM179.282,124.027h.107l.047-.715v-.302h-.206v.302l.052.715ZM169.983,124.363h.193v-.191h-.193v.191ZM170.026,124.027h.107l.047-.715v-.302h-.206v.302l.051.715Z" fill="#fff" fill-rule="evenodd"/><rect x="229.22" y="128.286" width="59.35" height="4.43" fill="#404040"/><path d="M157.061,132.736h70.879v-16.437c0-1.399-1.132-2.531-2.531-2.531h-65.817c-1.398,0-2.531,1.132-2.531,2.531v16.437Z" fill="#a2aaad" fill-rule="evenodd"/><rect x="161.93" y="114.489" width="10.757" height="7.819" fill="#eee"/><rect x="174.994" y="114.409" width="10.757" height="7.899" fill="#eee"/><polygon points="163.345 121.579 171.271 121.579 171.271 116.261 169.517 116.261 169.517 115.355 168.823 115.338 168.823 115.019 165.794 115.019 165.794 115.338 165.107 115.338 165.107 116.233 163.345 116.233 163.345 121.579" fill="#262626" fill-rule="evenodd"/><polygon points="176.409 121.579 184.336 121.579 184.336 116.261 182.581 116.261 182.581 115.355 181.887 115.338 181.887 115.019 178.858 115.019 178.858 115.338 178.171 115.338 178.171 116.233 176.409 116.233 176.409 121.579" fill="#262626" fill-rule="evenodd"/><rect x="163.136" y="115.168" width="1.708" height=".854" fill="#404040"/><rect x="169.772" y="115.168" width="1.708" height=".854" fill="#404040"/><path d="M192.372,117.327h5.808c.4,0,.725.325.725.725v3.388c0,.4-.325.726-.726.726h-5.808c-.4,0-.726-.325-.726-.726v-3.388c0-.4.325-.725.725-.725Z" fill="#eee"/><path d="M193.899,120.451h2.753c.389,0,.705-.316.705-.705,0-.392-.316-.708-.705-.708h-2.753c-.389,0-.705.316-.705.708,0,.389.316.705.705.705Z" fill="#262626" fill-rule="evenodd"/><rect x="157.061" y="122.468" width="41.844" height="10.248" fill="#7da9dc"/><path d="M158.536,128.144l.369-.003-.004,1.149h.167l.005-.43h.326v.292h.605v-.802h-.605v.285h-.326v-1.163h.326v.274h.605v-.802h-.605v.305h-.326l-.005-.385h-.167l.004,1.055-.369.003-.004-.326h-.643v.854h.643l.004-.305Z" fill="#fff" fill-rule="evenodd"/><rect x="160.775" y="124.94" width="35.6" height="6.335" fill="#fff"/><path d="M162.611,123.402c0-.219.175-.392.392-.392s.392.174.392.392c0,.215-.175.389-.392.389s-.392-.174-.392-.389Z" fill="#fff"/><path d="M165.529,123.364c0-.215.175-.389.392-.389s.391.174.391.389c0,.219-.175.392-.391.392s-.392-.174-.392-.392Z" fill="#fff"/><path d="M171.364,123.402c0-.219.175-.392.392-.392s.392.174.392.392c0,.215-.175.389-.392.389s-.392-.174-.392-.389Z" fill="#fff"/><path d="M174.282,123.364c0-.215.175-.389.392-.389s.392.174.392.389c0,.219-.175.392-.392.392s-.392-.174-.392-.392Z" fill="#fff"/><path d="M180.118,123.402c0-.219.175-.392.392-.392s.391.174.391.392c0,.215-.175.389-.391.389s-.392-.174-.392-.389Z" fill="#fff"/><path d="M183.034,123.364c0-.215.177-.389.392-.389.219,0,.392.174.392.389,0,.219-.174.392-.392.392-.215,0-.392-.174-.392-.392Z" fill="#fff"/><path d="M188.869,123.402c0-.219.177-.392.392-.392s.392.174.392.392c0,.215-.177.389-.392.389s-.392-.174-.392-.389Z" fill="#fff"/><path d="M191.789,123.364c0-.215.174-.389.392-.389.215,0,.392.174.392.389,0,.219-.177.392-.392.392-.219,0-.392-.174-.392-.392Z" fill="#fff"/><path d="M229.22,132.715h59.35v-15.982c0-1.638-1.326-2.965-2.965-2.965h-53.417c-1.638,0-2.968,1.326-2.968,2.965v15.982Z" fill="#ededed" stroke="#a7a9ac" stroke-miterlimit="10" stroke-width=".25"/><path d="M257.862,125.634v-6.651c0-.215-.177-.389-.389-.389h-13.774c-.215,0-.389.174-.389.389v6.651c0,.212.174.385.389.385h13.774c.212,0,.389-.174.389-.385Z" fill="none" stroke="#a2aaad" stroke-miterlimit="10" stroke-width=".25"/><path d="M244.123,124.94h5.801v-5.186h-5.801v5.186ZM251.249,124.94h5.801v-5.186h-5.801v5.186Z" fill="#262626" fill-rule="evenodd"/><rect x="258.681" y="113.648" width="30.035" height="19.067" fill="#7da9dc"/><rect x="229.22" y="128.286" width="59.493" height="4.571" fill="#a2aaad"/><rect x="259.535" y="118.592" width="18.553" height="6.042" fill="#fff" stroke="#fff" stroke-miterlimit="10" stroke-width=".5"/><rect x="259.65" y="118.707" width="9.012" height="5.812" fill="#b2292e"/><rect x="268.961" y="118.707" width="9.012" height="5.812" fill="#f2616f"/><rect x="279.176" y="113.641" width="9.533" height="19.074" fill="#a2aaad"/><path d="M241.818,125.634v-6.651c0-.215-.087-.389-.194-.389h-6.873c-.104,0-.191.174-.191.389v6.651c0,.212.087.385.191.385h6.873c.108,0,.194-.174.194-.385Z" fill="none" stroke="#a2aaad" stroke-miterlimit="10" stroke-width=".25"/><rect x="235.299" y="119.744" width="5.775" height="5.185" fill="#262626"/><path d="M245.091,116.768c0-.219.174-.392.389-.392.219,0,.392.174.392.392,0,.215-.174.389-.392.389-.215,0-.389-.174-.389-.389Z" fill="#404040"/><path d="M248.104,116.803c0-.215.177-.389.392-.389s.392.174.392.389c0,.219-.177.392-.392.392s-.392-.174-.392-.392Z" fill="#404040"/><path d="M252.256,116.768c0-.219.174-.392.389-.392.219,0,.392.174.392.392,0,.215-.174.389-.392.389-.215,0-.389-.174-.389-.389Z" fill="#404040"/><path d="M255.269,116.803c0-.215.177-.389.392-.389s.392.174.392.389c0,.219-.177.392-.392.392s-.392-.174-.392-.392Z" fill="#404040"/><path d="M236.364,116.768c0-.219.174-.392.389-.392.219,0,.392.174.392.392,0,.215-.174.389-.392.389-.215,0-.389-.174-.389-.389Z" fill="#404040"/><path d="M239.377,116.803c0-.215.177-.389.392-.389s.392.174.392.389c0,.219-.177.392-.392.392s-.392-.174-.392-.392Z" fill="#404040"/><path d="M261.316,116.768c0-.219.174-.392.389-.392.219,0,.392.174.392.392,0,.215-.174.389-.392.389-.215,0-.389-.174-.389-.389Z" fill="#fff"/><path d="M264.329,116.803c0-.215.177-.389.392-.389s.392.174.392.389c0,.219-.177.392-.392.392s-.392-.174-.392-.392Z" fill="#fff"/><path d="M270.949,116.768c0-.219.174-.392.392-.392.215,0,.389.174.389.392,0,.215-.174.389-.389.389-.219,0-.392-.174-.392-.389Z" fill="#fff"/><path d="M273.962,116.803c0-.215.177-.389.392-.389s.392.174.392.389c0,.219-.177.392-.392.392s-.392-.174-.392-.392Z" fill="#fff"/><polygon points="251.249 126.641 251.249 126.255 251.996 127.005 251.249 127.751 251.249 127.366 250.857 127.366 250.857 126.641 251.249 126.641" fill="#262626" fill-rule="evenodd"/><polygon points="250.034 127.366 250.034 127.751 249.288 127.002 250.034 126.255 250.034 126.641 250.43 126.641 250.43 127.366 250.034 127.366" fill="#262626" fill-rule="evenodd"/><path d="M282.807,124.655c0-.292.236-.528.528-.528.288,0,.524.236.524.528s-.236.528-.524.528c-.292,0-.528-.236-.528-.528Z" fill="#262626"/><path d="M282.807,122.635c0-.292.236-.528.528-.528.288,0,.524.236.524.528s-.236.528-.524.528c-.292,0-.528-.236-.528-.528Z" fill="#262626"/><path d="M282.807,119.319c0-.292.236-.528.528-.528.288,0,.524.236.524.528,0,.288-.236.524-.524.524-.292,0-.528-.236-.528-.524Z" fill="#262626"/><path d="M282.807,120.927c0-.292.236-.528.528-.528.288,0,.524.236.524.528s-.236.528-.524.528c-.292,0-.528-.236-.528-.528Z" fill="#262626"/><polygon points="157.353 119.024 158.059 119.024 158.766 118.316 158.059 117.612 157.353 117.612 158.059 118.316 157.353 119.024" fill="#262626" fill-rule="evenodd"/><polygon points="161.57 117.612 160.864 117.612 160.157 118.316 160.864 119.024 161.57 119.024 160.864 118.316 161.57 117.612" fill="#262626" fill-rule="evenodd"/><rect x="158.256" y="118.063" width="2.486" height=".51" fill="#262626"/><path d="M178.47,130.957v-5.478h-8.464v5.478h8.464ZM169.702,130.957v-5.478h-8.504v5.478h8.504ZM187.135,130.957v-5.478h-8.339v5.478h8.339ZM195.932,130.957v-5.478l-8.454-.018v5.478l8.454.018Z" fill="#262626" fill-rule="evenodd"/><path d="M193.074,125.461h-2.951v.312h2.951v-.312ZM184.382,125.461h-2.948v.312h2.948v-.312ZM175.691,125.461h-2.95v.312h2.95v-.312ZM167.002,125.461h-2.95v.312h2.95v-.312Z" fill="#fff" fill-rule="evenodd"/><rect x="280.669" y="134.316" width="12.49" height=".812" fill="#f1f1f2"/><path d="M226.965,132.53v3.247h56.812c.09,0,.163-.073.163-.162h0v-1.786c0-.09-.073-.162-.163-.162h-28.852c-.09,0-.163-.073-.163-.162v-.812c0-.09-.073-.162-.163-.162h-27.634Z" fill="#4d4d4d" fill-rule="evenodd"/><path d="M232.105,132.53h-7.576v3.247h22.797v-3.247h-1.082c-.572,0-1.142-.081-1.698-.241l-3.957-1.141c-.495-.143-1.002-.223-1.511-.238v-.003h-5.206c-.119,0-.234.059-.328.169l-1.11,1.286c-.094.109-.21.169-.328.169Z" fill="#555"/><path d="M226.603,132.53h-38.04v3.247h42.958c.18,0,.326-.145.326-.325h0v-4.221c0-.179-.146-.325-.326-.325h-2.248c-.18,0-.354.059-.497.169l-1.678,1.286c-.142.109-.317.169-.497.169Z" fill="#555"/><path d="M226.965,132.53h-74.492c-.09,0-.163.073-.163.162v2.922c0,.09.073.162.163.162h74.492v-3.247Z" fill="#6a6a6a" fill-rule="evenodd"/><path d="M246.39,133.11h-1.879c-.554,0-1.107-.073-1.645-.216l-3.617-.964c-.477-.127-.967-.192-1.459-.192h-2.085v3.292h10.683v-1.92Z" fill="#f4855c" fill-rule="evenodd"/><polygon points="237.885 133.423 236.459 132.792 236.455 134.121 237.885 133.423" fill="#404040" fill-rule="evenodd"/><rect x="208.145" y="117.783" width="11.886" height="6.089" rx=".572" ry=".572" fill="#ededed"/><path d="M218.015,119.153h-7.897c-.125,0-.219.104-.219.222v2.982c0,.118.094.212.219.212h7.897c.118,0,.212-.094.212-.212v-2.982c0-.118-.094-.222-.212-.222Z" fill="#262626" fill-rule="evenodd"/><path d="M141.965,1.6H6.766c-.42,0-.761.335-.761.747v21.161c0,.413.341.747.761.747h135.199c.42,0,.761-.335.761-.747V2.347c0-.413-.341-.747-.761-.747Z" fill="#caced0" fill-rule="evenodd" stroke="#a2aaad" stroke-miterlimit="10" stroke-width="1.2"/><rect x="50.197" y="6.736" width="15.124" height="7.384" rx=".406" ry=".406" fill="#f1f1f2" stroke="#d0d3d4" stroke-miterlimit="10" stroke-width=".251"/><rect x="50.839" y="7.38" width="13.84" height="6.097" fill="#101820"/><rect x="87.529" y="6.736" width="15.124" height="7.384" rx=".406" ry=".406" fill="#f1f1f2" stroke="#d0d3d4" stroke-miterlimit="10" stroke-width=".251"/><rect x="88.171" y="7.38" width="13.84" height="6.097" fill="#101820"/><path d="M291.082,1.6h-135.199c-.42,0-.761.335-.761.747v21.161c0,.413.341.747.761.747h135.199c.42,0,.761-.335.761-.747V2.347c0-.413-.341-.747-.761-.747Z" fill="#caced0" fill-rule="evenodd" stroke="#a2aaad" stroke-miterlimit="10" stroke-width="1.2"/><rect x="236.646" y="6.736" width="15.124" height="7.384" rx=".406" ry=".406" fill="#f1f1f2" stroke="#d0d3d4" stroke-miterlimit="10" stroke-width=".251"/><rect x="237.288" y="7.38" width="13.84" height="6.097" fill="#101820"/><rect x="199.314" y="6.736" width="15.124" height="7.384" rx=".406" ry=".406" fill="#f1f1f2" stroke="#d0d3d4" stroke-miterlimit="10" stroke-width=".251"/><rect x="199.956" y="7.38" width="13.84" height="6.097" fill="#101820"/><line x1="57.915" y1="57.4" x2="57.915" y2="10.428" fill="none" stroke="#fff" stroke-linejoin="round" stroke-width="3.5"/><line x1="57.915" y1="57.4" x2="57.915" y2="10.428" fill="none" stroke="#005cb9" stroke-linejoin="round" stroke-width="1.575"/><line x1="244.208" y1="56.904" x2="244.208" y2="10.428" fill="none" stroke="#fff" stroke-linejoin="round" stroke-width="3.5"/><line x1="244.208" y1="56.904" x2="244.208" y2="10.428" fill="none" stroke="#5cc4ff" stroke-linejoin="round" stroke-width="1.575"/><polyline points="67.671 56.656 67.671 36.845 206.74 36.845 206.74 10.428" fill="none" stroke="#fff" stroke-linejoin="round" stroke-width="3.5"/><polyline points="67.671 56.656 67.671 36.845 206.74 36.845 206.74 10.428" fill="none" stroke="#5cc4ff" stroke-linejoin="round" stroke-width="1.575"/><polyline points="231.319 56.408 231.319 44.084 95.091 44.084 95.091 10.428" fill="none" stroke="#fff" stroke-linejoin="round" stroke-width="3.5"/><polyline points="231.319 56.408 231.319 44.084 95.091 44.084 95.091 10.428" fill="none" stroke="#005cb9" stroke-linejoin="round" stroke-width="1.575"/><polyline points="116.112 118.711 116.112 98.578 57.744 98.578 57.744 74.636" fill="none" stroke="#fff" stroke-linejoin="round" stroke-width="3.5"/><polyline points="116.112 118.711 116.112 98.578 57.744 98.578 57.744 74.636" fill="none" stroke="#b2292e" stroke-linejoin="round" stroke-width="1.575"/><polyline points="273.428 118.702 273.436 87.673 244.208 87.673 244.208 72.029" fill="none" stroke="#fff" stroke-linejoin="round" stroke-width="3.5"/><polyline points="273.428 118.702 273.436 87.673 244.208 87.673 244.208 72.029" fill="none" stroke="#f2616f" stroke-linejoin="round" stroke-width="1.575"/><polyline points="125.447 118.711 125.447 87.673 231.319 87.673 231.319 75.522" fill="none" stroke="#fff" stroke-linejoin="round" stroke-width="3.5"/><polyline points="125.447 118.711 125.447 87.673 231.319 87.673 231.319 75.522" fill="none" stroke="#f2616f" stroke-linejoin="round" stroke-width="1.575"/><polyline points="264.068 118.702 264.077 94.692 67.683 94.692 67.683 75.522" fill="none" stroke="#fff" stroke-linejoin="round" stroke-width="3.5"/><polyline points="264.068 118.702 264.077 94.692 67.683 94.692 67.683 75.522" fill="none" stroke="#b2292e" stroke-linejoin="round" stroke-width="1.575"/><rect x="50.839" y="7.38" width="13.84" height="6.097" fill="#101820"/><rect x="88.171" y="7.38" width="13.84" height="6.097" fill="#101820"/><rect x="199.956" y="7.38" width="13.84" height="6.097" fill="#101820"/><rect x="50.839" y="7.38" width="13.84" height="6.097" fill="#005cb9"/><rect x="88.171" y="7.38" width="13.84" height="6.097" fill="#005cb9"/><rect x="199.956" y="7.38" width="13.84" height="6.097" fill="#5cc4ff"/><rect x="237.288" y="7.38" width="13.84" height="6.097" fill="#5cc4ff"/><polygon points="291.671 61.284 159.294 61.284 166.425 55.157 284.985 55.157 291.671 61.284 291.671 61.284 291.671 61.284" fill="#59595c" fill-rule="evenodd"/><polygon points="159.294 63.294 291.671 63.294 291.671 75.753 159.294 75.753 159.294 63.294 159.294 63.294" fill="#59595c" fill-rule="evenodd"/><path d="M254.085,73.327h-4.347v-2.713h4.347v2.713h0ZM254.085,68.654h-4.347v-2.711h4.347v2.711h0ZM259.168,73.327h-4.349v-2.713h4.349v2.713h0ZM259.168,68.654h-4.349v-2.711h4.349v2.711h0ZM264.249,73.327h-4.347v-2.713h4.347v2.713h0ZM264.249,68.654h-4.347v-2.711h4.347v2.711h0ZM269.33,73.327h-4.347v-2.713h4.347v2.713h0ZM269.33,68.654h-4.347v-2.711h4.347v2.711h0ZM249.005,68.654h-4.347v-2.711h4.347v2.711h0ZM243.925,73.327h-4.348v-2.713h4.348v2.713h0ZM243.925,68.654h-4.348v-2.711h4.348v2.711h0ZM249.005,73.327h-4.347v-2.713h4.347v2.713h0Z" fill="#fff" fill-rule="evenodd"/><path d="M220.212,73.327h-4.347v-2.713h4.347v2.713h0ZM220.212,68.654h-4.347v-2.711h4.347v2.711h0ZM225.293,73.327h-4.348v-2.713h4.348v2.713h0ZM225.293,68.654h-4.348v-2.711h4.348v2.711h0ZM230.375,73.327h-4.349v-2.713h4.349v2.713h0ZM230.375,68.654h-4.349v-2.711h4.349v2.711h0ZM235.456,73.327h-4.348v-2.713h4.348v2.713h0ZM235.456,68.654h-4.348v-2.711h4.348v2.711h0ZM215.131,68.654h-4.348v-2.711h4.348v2.711h0ZM210.05,73.327h-4.347v-2.713h4.347v2.713h0ZM210.05,68.654h-4.347v-2.711h4.347v2.711h0ZM215.131,73.327h-4.348v-2.713h4.348v2.713h0Z" fill="#fff" fill-rule="evenodd"/><path d="M174.806,73.095h-11.412v-3.584h11.412v3.584h0ZM189.291,73.095h-11.411v-3.584h11.411v3.584h0Z" fill="#fff" fill-rule="evenodd"/><polygon points="138.468 61.284 6.091 61.284 13.223 55.157 131.782 55.157 138.468 61.284 138.468 61.284 138.468 61.284" fill="#59595c" fill-rule="evenodd"/><polygon points="6.091 63.294 138.468 63.294 138.468 75.753 6.091 75.753 6.091 63.294 6.091 63.294" fill="#59595c" fill-rule="evenodd"/><path d="M100.883,73.327h-4.347v-2.713h4.347v2.713h0ZM100.883,68.654h-4.347v-2.711h4.347v2.711h0ZM105.966,73.327h-4.349v-2.713h4.349v2.713h0ZM105.966,68.654h-4.349v-2.711h4.349v2.711h0ZM111.046,73.327h-4.347v-2.713h4.347v2.713h0ZM111.046,68.654h-4.347v-2.711h4.347v2.711h0ZM116.127,73.327h-4.347v-2.713h4.347v2.713h0ZM116.127,68.654h-4.347v-2.711h4.347v2.711h0ZM95.802,68.654h-4.347v-2.711h4.347v2.711h0ZM90.722,73.327h-4.348v-2.713h4.348v2.713h0ZM90.722,68.654h-4.348v-2.711h4.348v2.711h0ZM95.802,73.327h-4.347v-2.713h4.347v2.713h0Z" fill="#fff" fill-rule="evenodd"/><path d="M67.009,73.327h-4.347v-2.713h4.347v2.713h0ZM67.009,68.654h-4.347v-2.711h4.347v2.711h0ZM72.09,73.327h-4.348v-2.713h4.348v2.713h0ZM72.09,68.654h-4.348v-2.711h4.348v2.711h0ZM77.173,73.327h-4.349v-2.713h4.349v2.713h0ZM77.173,68.654h-4.349v-2.711h4.349v2.711h0ZM82.253,73.327h-4.348v-2.713h4.348v2.713h0ZM82.253,68.654h-4.348v-2.711h4.348v2.711h0ZM61.928,68.654h-4.348v-2.711h4.348v2.711h0ZM56.848,73.327h-4.347v-2.713h4.347v2.713h0ZM56.848,68.654h-4.347v-2.711h4.347v2.711h0ZM61.928,73.327h-4.348v-2.713h4.348v2.713h0Z" fill="#fff" fill-rule="evenodd"/><path d="M21.603,73.095h-11.412v-3.584h11.412v3.584h0ZM36.088,73.095h-11.411v-3.584h11.411v3.584h0Z" fill="#fff" fill-rule="evenodd"/><rect x="103.217" y="119.753" width="5.801" height="5.186" fill="#262626"/><rect x="96.107" y="119.76" width="5.801" height="5.186" fill="#262626"/><rect x="251.249" y="119.753" width="5.801" height="5.186" fill="#262626"/><rect x="244.15" y="119.754" width="5.801" height="5.186" fill="#262626"/></svg>