<?xml version="1.0" encoding="UTF-8"?><svg id="a" xmlns="http://www.w3.org/2000/svg" width="4.125in" height="2.424in" viewBox="0 0 297 174.533"><rect x="1.598" y="2.782" width="293.969" height="58.794" fill="none" stroke="#a2aaad" stroke-linecap="round" stroke-linejoin="round" stroke-width="1.037"/><rect x="9.448" y="32.272" width="135.226" height="23.518" fill="#caced0" stroke="#a2aaad" stroke-linecap="round" stroke-linejoin="round" stroke-width="1.225"/><rect x="151.911" y="32.272" width="135.226" height="23.518" fill="#caced0" stroke="#a2aaad" stroke-linecap="round" stroke-linejoin="round" stroke-width="1.225"/><rect x="1.598" y="91.526" width="293.969" height="63.104" fill="none" stroke="#a2aaad" stroke-linecap="round" stroke-linejoin="round" stroke-width="1.199"/><rect x="4.3" y="94.662" width="288.566" height="56.832" fill="#d0d3d4"/><rect x="6.368" y="124.687" width="136.72" height="23.062" rx=".761" ry=".761" fill="#d0d3d4" stroke="#fff" stroke-miterlimit="10" stroke-width=".5"/><path d="M125.716,126.99v17.81c0,.57.462,1.033,1.033,1.033h12.91c.571,0,1.033-.462,1.033-1.033v-17.81c0-.57-.462-1.032-1.033-1.032h-12.91c-.57,0-1.033.462-1.033,1.032h0Z" fill="#a2aaad"/><path d="M113.339,142.913h8.262c.319,0,.578-.259.578-.578h0v-12.225c0-.319-.259-.578-.578-.578h-8.262c-.319,0-.578.259-.578.578v12.225c0,.319.259.578.578.578Z" fill="#a2aaad"/><path d="M120.941,133.166v-1.817c0-.183-.148-.33-.33-.33h-6.279c-.182,0-.33.148-.33.33v1.817h6.94Z" fill="#101820"/><path d="M120.941,133.166h-6.94v7.764c0,.182.148.33.33.33h6.279c.183,0,.33-.148.33-.33h0v-7.764Z" fill="#333f48"/><path d="M127.214,132.207v8.03c0,.451.184.882.51,1.193l3.239,3.099c.308.294.717.459,1.143.459h5.436c.912,0,1.652-.739,1.652-1.652v-14.229c0-.913-.74-1.652-1.652-1.652h-5.436c-.426,0-.835.164-1.143.459l-3.239,3.1c-.325.312-.51.743-.51,1.193Z" fill="#101820"/><rect x="133.313" y="140.46" width="3.305" height=".991" fill="#fff"/><rect x="129.79" y="135.74" width="3.305" height=".991" fill="#fff"/><rect x="133.313" y="131.019" width="3.305" height=".991" fill="#fff"/><path d="M49.481,146.477h21.201c.313,0,.569-.256.569-.572h0v-19.367c0-.316-.255-.572-.569-.572h-21.201c-.315,0-.569.256-.569.572v19.367c0,.316.254.572.569.572Z" fill="#a2aaad" fill-rule="evenodd"/><circle cx="57.266" cy="131.091" r="1.01" fill="#101820"/><circle cx="63.33" cy="131.091" r="1.01" fill="#101820"/><g id="b"><rect x="138.355" y="147.675" width="6.797" height="1.167" fill="#f1f1f2"/><rect x="57.625" y="144.506" width="3.315" height="5.003" fill="#595959"/><rect x="94.012" y="146.174" width="44.343" height="3.335" fill="#595959"/><rect x="92.851" y="146.174" width="1.16" height="3.335" fill="#595959"/><rect x="6.94" y="146.174" width="33.031" height="3.335" fill="#595959"/><rect x="39.97" y="146.174" width="1.16" height="3.335" fill="#595959"/><path d="M74.474,146.174c-.677,0-1.35-.083-2.006-.248l-4.674-1.172c-.656-.165-1.329-.248-2.005-.248h-5.016c-.183,0-.331.149-.331.334v4.336c0,.184.149.334.331.334h32.077v-3.335h-18.377Z" fill="#666" fill-rule="evenodd"/><path d="M63.095,149.009h27.933v-2.335h-16.554c-.716,0-1.43-.088-2.126-.263l-4.674-1.172c-.616-.155-1.25-.233-1.885-.233h-2.694v4.002Z" fill="#f4855c" fill-rule="evenodd"/><polygon points="66.971 146.974 65.537 146.318 65.535 147.697 66.971 146.974" fill="#595959" fill-rule="evenodd"/><path d="M52.784,146.174h-11.653v3.335h16.661c.183,0,.331-.149.331-.334h0v-4.336c0-.184-.149-.334-.331-.334h-2.289c-.183,0-.361.061-.505.173l-1.708,1.322c-.145.112-.322.173-.506.173Z" fill="#666" fill-rule="evenodd"/><rect x="4.495" y="147.258" width="4.973" height="2.251" fill="#666"/><rect x="138.355" y="148.842" width="6.216" height=".667" fill="#ccc"/></g><path d="M117.455,136.401c.096,0,.191-.064.191-.159v-1.369c0-.096-.096-.159-.191-.159s-.159.064-.159.159v1.369c0,.096.064.159.159.159M118.091,138.758c0-.35-.287-.605-.637-.605-.318,0-.605.255-.605.605s.287.605.605.605c.35,0,.637-.255.637-.605ZM118.442,138.758c0-.541-.446-.955-.987-.955-.51,0-.955.414-.955.955s.446.955.955.955c.541,0,.987-.414.987-.955Z" fill="#fff" fill-rule="evenodd"/><path d="M63.504,128.908c0-.087-.087-.173-.173-.173s-.173.087-.173.173.087.173.173.173.173-.087.173-.173Z" fill="#101820" fill-rule="evenodd"/><path d="M63.504,127.393c0-.087-.087-.173-.173-.173s-.173.087-.173.173l.087,1.213c.043,0,.043.043.087.043s.087-.043.087-.043l.087-1.213Z" fill="#101820" fill-rule="evenodd"/><path d="M57.266,126.896c-.688,0-1.247.561-1.247,1.254s.557,1.254,1.245,1.254c.688,0,1.248-.561,1.248-1.254s-.558-1.254-1.247-1.254ZM57.137,127.124c.44-.055.866.178,1.056.581l-.702.707-.291-1.092-.954.959c-.071-.567.329-1.084.892-1.155ZM57.389,129.177c-.437.053-.858-.179-1.049-.578l.708-.713.291,1.092.946-.952c.068.567-.334,1.082-.897,1.151Z" fill="#101820" fill-rule="evenodd"/><rect x="154.277" y="124.687" width="136.72" height="23.062" rx=".761" ry=".761" fill="#d0d3d4" stroke="#fff" stroke-miterlimit="10" stroke-width=".5"/><path d="M273.625,126.99v17.81c0,.57.462,1.033,1.033,1.033h12.91c.571,0,1.033-.462,1.033-1.033v-17.81c0-.57-.462-1.032-1.033-1.032h-12.91c-.57,0-1.033.462-1.033,1.032h0Z" fill="#a2aaad"/><path d="M261.248,142.913h8.262c.319,0,.578-.259.578-.578h0v-12.225c0-.319-.259-.578-.578-.578h-8.262c-.319,0-.578.259-.578.578v12.225c0,.319.259.578.578.578Z" fill="#a2aaad"/><path d="M268.85,133.166v-1.817c0-.183-.148-.33-.33-.33h-6.279c-.182,0-.33.148-.33.33v1.817h6.94Z" fill="#101820"/><path d="M268.85,133.166h-6.94v7.764c0,.182.148.33.33.33h6.279c.183,0,.33-.148.33-.33h0v-7.764Z" fill="#333f48"/><path d="M275.123,132.207v8.03c0,.451.184.882.51,1.193l3.239,3.099c.308.294.717.459,1.143.459h5.436c.912,0,1.652-.739,1.652-1.652v-14.229c0-.913-.74-1.652-1.652-1.652h-5.436c-.426,0-.835.164-1.143.459l-3.239,3.1c-.325.312-.51.743-.51,1.193Z" fill="#101820"/><rect x="281.222" y="140.46" width="3.305" height=".991" fill="#fff"/><rect x="277.699" y="135.74" width="3.305" height=".991" fill="#fff"/><rect x="281.222" y="131.019" width="3.305" height=".991" fill="#fff"/><path d="M197.39,146.477h21.201c.313,0,.569-.256.569-.572h0v-19.367c0-.316-.255-.572-.569-.572h-21.201c-.315,0-.569.256-.569.572v19.367c0,.316.254.572.569.572Z" fill="#a2aaad" fill-rule="evenodd"/><circle cx="205.175" cy="131.091" r="1.01" fill="#101820"/><circle cx="211.239" cy="131.091" r="1.01" fill="#101820"/><g id="c"><rect x="286.264" y="147.675" width="6.797" height="1.167" fill="#f1f1f2"/><rect x="205.534" y="144.506" width="3.315" height="5.003" fill="#595959"/><rect x="241.921" y="146.174" width="44.343" height="3.335" fill="#595959"/><rect x="240.76" y="146.174" width="1.16" height="3.335" fill="#595959"/><rect x="154.849" y="146.174" width="33.031" height="3.335" fill="#595959"/><rect x="187.879" y="146.174" width="1.16" height="3.335" fill="#595959"/><path d="M222.383,146.174c-.677,0-1.35-.083-2.006-.248l-4.674-1.172c-.656-.165-1.329-.248-2.005-.248h-5.016c-.183,0-.331.149-.331.334v4.336c0,.184.149.334.331.334h32.077v-3.335h-18.377Z" fill="#666" fill-rule="evenodd"/><path d="M211.004,149.009h27.933v-2.335h-16.554c-.716,0-1.43-.088-2.126-.263l-4.674-1.172c-.616-.155-1.25-.233-1.885-.233h-2.694v4.002Z" fill="#f4855c" fill-rule="evenodd"/><polygon points="214.88 146.974 213.446 146.318 213.444 147.697 214.88 146.974" fill="#595959" fill-rule="evenodd"/><path d="M200.693,146.174h-11.653v3.335h16.661c.183,0,.331-.149.331-.334h0v-4.336c0-.184-.149-.334-.331-.334h-2.289c-.183,0-.361.061-.505.173l-1.708,1.322c-.145.112-.322.173-.506.173Z" fill="#666" fill-rule="evenodd"/><rect x="152.404" y="147.258" width="4.973" height="2.251" fill="#666"/><rect x="286.264" y="148.842" width="6.216" height=".667" fill="#ccc"/></g><path d="M265.364,136.401c.096,0,.191-.064.191-.159v-1.369c0-.096-.096-.159-.191-.159s-.159.064-.159.159v1.369c0,.096.064.159.159.159M266.001,138.758c0-.35-.287-.605-.637-.605-.318,0-.605.255-.605.605s.287.605.605.605c.35,0,.637-.255.637-.605ZM266.351,138.758c0-.541-.446-.955-.987-.955-.51,0-.955.414-.955.955s.446.955.955.955c.541,0,.987-.414.987-.955Z" fill="#fff" fill-rule="evenodd"/><path d="M211.413,128.908c0-.087-.087-.173-.173-.173s-.173.087-.173.173.087.173.173.173.173-.087.173-.173Z" fill="#101820" fill-rule="evenodd"/><path d="M211.413,127.393c0-.087-.087-.173-.173-.173s-.173.087-.173.173l.087,1.213c.043,0,.043.043.087.043s.087-.043.087-.043l.087-1.213Z" fill="#101820" fill-rule="evenodd"/><path d="M205.175,126.896c-.688,0-1.247.561-1.247,1.254s.557,1.254,1.245,1.254c.688,0,1.248-.561,1.248-1.254s-.558-1.254-1.247-1.254ZM205.046,127.124c.44-.055.866.178,1.056.581l-.702.707-.291-1.092-.954.959c-.071-.567.329-1.084.892-1.155ZM205.298,129.177c-.437.053-.858-.179-1.049-.578l.708-.713.291,1.092.946-.952c.068.567-.334,1.082-.897,1.151Z" fill="#101820" fill-rule="evenodd"/><polygon points="147.655 104.555 151.136 104.555 151.136 100.337 147.655 100.337 146.029 102.446 147.655 104.555" fill="#292929" fill-rule="evenodd"/><polygon points="149.485 117.717 151.136 115.608 149.485 113.524 146.029 113.524 146.029 117.717 149.485 117.717" fill="#292929" fill-rule="evenodd"/><polygon points="147.655 134.969 151.136 134.969 151.136 130.777 147.655 130.777 146.029 132.86 147.655 134.969" fill="#292929" fill-rule="evenodd"/><polygon points="149.485 148.156 151.136 146.047 149.485 143.938 146.029 143.938 146.029 148.156 149.485 148.156" fill="#292929" fill-rule="evenodd"/><path d="M148.265,131.717c-.61,0-1.143.534-1.143,1.143,0,.635.534,1.143,1.143,1.143.635,0,1.143-.508,1.143-1.143,0-.61-.508-1.143-1.143-1.143ZM148.392,131.945c.407.051.737.356.813.762l-.788.457v-1.042l-1.067.61c.051-.508.534-.864,1.042-.788ZM148.138,133.8c-.407-.051-.711-.356-.788-.762l.788-.457v1.042l1.067-.61c-.076.508-.559.864-1.067.788Z" fill="#fff" fill-rule="evenodd"/><path d="M149.066,101.437h.433l.916,2.152h-.492l-.195-.479h-.903l-.195.479h-.479l.916-2.152ZM149.56,102.695l-.284-.693-.284.693h.568Z" fill="#fff"/><path d="M147.095,114.616h.992c.244,0,.437.067.559.189.097.098.146.217.146.364v.006c0,.241-.128.376-.281.461.248.095.4.238.4.525v.006c0,.391-.318.586-.8.586h-1.016v-2.137ZM148.325,115.248c0-.141-.11-.22-.309-.22h-.464v.452h.433c.208,0,.339-.067.339-.226v-.006ZM148.096,115.871h-.544v.47h.558c.208,0,.333-.073.333-.232v-.006c0-.144-.106-.232-.348-.232Z" fill="#fff"/><path d="M149.558,133.826v-.315h.459v-1.078l-.404.15-.092-.317.606-.228h.259v1.474h.414v.315h-1.243Z" fill="#fff"/><path d="M148.814,146.987v-.304l.568-.502c.208-.185.292-.282.292-.424,0-.145-.099-.224-.241-.224-.137,0-.236.074-.365.236l-.257-.228c.17-.231.34-.356.647-.356.373,0,.606.213.606.538v.005c0,.254-.127.398-.317.566l-.411.358h.743v.335h-1.266Z" fill="#fff"/><path d="M147.452,144.904c-.635,0-1.143.508-1.143,1.143s.508,1.143,1.143,1.143c.61,0,1.143-.508,1.143-1.143s-.534-1.143-1.143-1.143ZM147.579,145.107c.381.051.711.356.788.762l-.788.457v-1.042l-1.067.635c.076-.534.534-.889,1.067-.813ZM147.3,146.987c-.381-.076-.711-.381-.788-.762l.788-.457v1.016l1.067-.61c-.076.508-.534.864-1.067.813Z" fill="#fff" fill-rule="evenodd"/><path d="M142.328,97.758H7.13c-.42,0-.761.335-.761.747v21.161c0,.413.341.747.761.747h135.199c.42,0,.761-.335.761-.747v-21.161c0-.413-.341-.747-.761-.747Z" fill="#d0d3d4" fill-rule="evenodd" stroke="#fff" stroke-miterlimit="10" stroke-width=".5"/><path d="M31.234,110.055h.189v-.191h-.189v.191ZM31.277,109.719h.107l.047-.715v-.302h-.206v.302l.052.715ZM21.978,110.055h.193v-.191h-.193v.191ZM22.021,109.719h.107l.047-.715v-.302h-.206v.302l.051.715Z" fill="#fff" fill-rule="evenodd"/><path d="M31.234,110.055h.189v-.191h-.189v.191ZM31.277,109.719h.107l.047-.715v-.302h-.206v.302l.052.715ZM21.978,110.055h.193v-.191h-.193v.191ZM22.021,109.719h.107l.047-.715v-.302h-.206v.302l.051.715Z" fill="#fff" fill-rule="evenodd"/><rect x="81.215" y="113.978" width="59.35" height="4.43" fill="#404040"/><path d="M9.056,118.428h70.879v-16.437c0-1.399-1.132-2.531-2.531-2.531H11.587c-1.398,0-2.531,1.132-2.531,2.531v16.437Z" fill="#a2aaad" fill-rule="evenodd"/><rect x="13.925" y="100.181" width="10.757" height="7.819" fill="#eee"/><rect x="26.989" y="100.101" width="10.757" height="7.899" fill="#eee"/><polygon points="15.34 107.271 23.266 107.271 23.266 101.953 21.512 101.953 21.512 101.047 20.818 101.03 20.818 100.711 17.789 100.711 17.789 101.03 17.102 101.03 17.102 101.926 15.34 101.926 15.34 107.271" fill="#262626" fill-rule="evenodd"/><polygon points="28.404 107.271 36.331 107.271 36.331 101.953 34.576 101.953 34.576 101.047 33.882 101.03 33.882 100.711 30.853 100.711 30.853 101.03 30.166 101.03 30.166 101.926 28.404 101.926 28.404 107.271" fill="#262626" fill-rule="evenodd"/><rect x="15.131" y="100.86" width="1.708" height=".854" fill="#404040"/><rect x="21.767" y="100.86" width="1.708" height=".854" fill="#404040"/><path d="M44.367,103.019h5.808c.4,0,.725.325.725.725v3.388c0,.4-.325.726-.726.726h-5.808c-.4,0-.726-.325-.726-.726v-3.388c0-.4.325-.725.725-.725Z" fill="#eee"/><path d="M45.894,106.143h2.753c.389,0,.705-.316.705-.705,0-.392-.316-.708-.705-.708h-2.753c-.389,0-.705.316-.705.708,0,.389.316.705.705.705Z" fill="#262626" fill-rule="evenodd"/><rect x="9.056" y="108.16" width="41.844" height="10.248" fill="#7da9dc"/><path d="M10.531,113.836l.369-.003-.004,1.149h.167l.005-.43h.326v.292h.605v-.802h-.605v.285h-.326v-1.163h.326v.274h.605v-.802h-.605v.305h-.326l-.005-.385h-.167l.004,1.055-.369.003-.004-.326h-.643v.854h.643l.004-.305Z" fill="#fff" fill-rule="evenodd"/><rect x="12.77" y="110.632" width="35.6" height="6.335" fill="#fff"/><path d="M14.606,109.094c0-.219.175-.392.392-.392s.392.174.392.392c0,.215-.175.389-.392.389s-.392-.174-.392-.389Z" fill="#fff"/><path d="M17.524,109.056c0-.215.175-.389.392-.389s.391.174.391.389c0,.219-.175.392-.391.392s-.392-.174-.392-.392Z" fill="#fff"/><path d="M23.359,109.094c0-.219.175-.392.392-.392s.392.174.392.392c0,.215-.175.389-.392.389s-.392-.174-.392-.389Z" fill="#fff"/><path d="M26.277,109.056c0-.215.175-.389.392-.389s.392.174.392.389c0,.219-.175.392-.392.392s-.392-.174-.392-.392Z" fill="#fff"/><path d="M32.113,109.094c0-.219.175-.392.392-.392s.391.174.391.392c0,.215-.175.389-.391.389s-.392-.174-.392-.389Z" fill="#fff"/><path d="M35.029,109.056c0-.215.177-.389.392-.389.219,0,.392.174.392.389,0,.219-.174.392-.392.392-.215,0-.392-.174-.392-.392Z" fill="#fff"/><path d="M40.864,109.094c0-.219.177-.392.392-.392s.392.174.392.392c0,.215-.177.389-.392.389s-.392-.174-.392-.389Z" fill="#fff"/><path d="M43.784,109.056c0-.215.174-.389.392-.389.215,0,.392.174.392.389,0,.219-.177.392-.392.392-.219,0-.392-.174-.392-.392Z" fill="#fff"/><path d="M81.215,118.407h59.35v-15.982c0-1.638-1.326-2.965-2.965-2.965h-53.417c-1.638,0-2.968,1.326-2.968,2.965v15.982Z" fill="#ededed" stroke="#a7a9ac" stroke-miterlimit="10" stroke-width=".25"/><path d="M109.857,111.326v-6.651c0-.215-.177-.389-.389-.389h-13.774c-.215,0-.389.174-.389.389v6.651c0,.212.174.385.389.385h13.774c.212,0,.389-.174.389-.385Z" fill="none" stroke="#a2aaad" stroke-miterlimit="10" stroke-width=".25"/><rect x="110.676" y="99.34" width="30.035" height="19.067" fill="#7da9dc"/><rect x="81.215" y="113.978" width="59.493" height="4.571" fill="#a2aaad"/><rect x="111.53" y="104.284" width="18.553" height="6.042" fill="#fff" stroke="#fff" stroke-miterlimit="10" stroke-width=".5"/><rect x="111.645" y="104.399" width="9.012" height="5.812" fill="#005cb9"/><rect x="120.956" y="104.399" width="9.012" height="5.812" fill="#b2292e"/><rect x="131.171" y="99.333" width="9.533" height="19.074" fill="#a2aaad"/><path d="M93.813,111.326v-6.651c0-.215-.087-.389-.194-.389h-6.873c-.104,0-.191.174-.191.389v6.651c0,.212.087.385.191.385h6.873c.108,0,.194-.174.194-.385Z" fill="none" stroke="#a2aaad" stroke-miterlimit="10" stroke-width=".25"/><rect x="87.293" y="105.436" width="5.775" height="5.185" fill="#262626"/><path d="M97.086,102.46c0-.219.174-.392.389-.392.219,0,.392.174.392.392,0,.215-.174.389-.392.389-.215,0-.389-.174-.389-.389Z" fill="#404040"/><path d="M100.099,102.495c0-.215.177-.389.392-.389s.392.174.392.389c0,.219-.177.392-.392.392s-.392-.174-.392-.392Z" fill="#404040"/><path d="M104.251,102.46c0-.219.174-.392.389-.392.219,0,.392.174.392.392,0,.215-.174.389-.392.389-.215,0-.389-.174-.389-.389Z" fill="#404040"/><path d="M107.264,102.495c0-.215.177-.389.392-.389s.392.174.392.389c0,.219-.177.392-.392.392s-.392-.174-.392-.392Z" fill="#404040"/><path d="M88.359,102.46c0-.219.174-.392.389-.392.219,0,.392.174.392.392,0,.215-.174.389-.392.389-.215,0-.389-.174-.389-.389Z" fill="#404040"/><path d="M91.372,102.495c0-.215.177-.389.392-.389s.392.174.392.389c0,.219-.177.392-.392.392s-.392-.174-.392-.392Z" fill="#404040"/><path d="M113.311,102.46c0-.219.174-.392.389-.392.219,0,.392.174.392.392,0,.215-.174.389-.392.389-.215,0-.389-.174-.389-.389Z" fill="#fff"/><path d="M116.324,102.495c0-.215.177-.389.392-.389s.392.174.392.389c0,.219-.177.392-.392.392s-.392-.174-.392-.392Z" fill="#fff"/><path d="M122.944,102.46c0-.219.174-.392.392-.392.215,0,.389.174.389.392,0,.215-.174.389-.389.389-.219,0-.392-.174-.392-.389Z" fill="#fff"/><path d="M125.957,102.495c0-.215.177-.389.392-.389s.392.174.392.389c0,.219-.177.392-.392.392s-.392-.174-.392-.392Z" fill="#fff"/><polygon points="103.244 112.333 103.244 111.947 103.991 112.697 103.244 113.443 103.244 113.058 102.852 113.058 102.852 112.333 103.244 112.333" fill="#262626" fill-rule="evenodd"/><polygon points="102.029 113.058 102.029 113.443 101.283 112.694 102.029 111.947 102.029 112.333 102.425 112.333 102.425 113.058 102.029 113.058" fill="#262626" fill-rule="evenodd"/><path d="M134.802,110.347c0-.292.236-.528.528-.528.288,0,.524.236.524.528s-.236.528-.524.528c-.292,0-.528-.236-.528-.528Z" fill="#101820"/><path d="M134.802,108.327c0-.292.236-.528.528-.528.288,0,.524.236.524.528s-.236.528-.524.528c-.292,0-.528-.236-.528-.528Z" fill="#101820"/><path d="M134.802,105.012c0-.292.236-.528.528-.528.288,0,.524.236.524.528,0,.288-.236.524-.524.524-.292,0-.528-.236-.528-.524Z" fill="#101820"/><path d="M134.802,106.619c0-.292.236-.528.528-.528.288,0,.524.236.524.528s-.236.528-.524.528c-.292,0-.528-.236-.528-.528Z" fill="#101820"/><polygon points="9.348 104.717 10.054 104.717 10.761 104.008 10.054 103.304 9.348 103.304 10.054 104.008 9.348 104.717" fill="#262626" fill-rule="evenodd"/><polygon points="13.565 103.304 12.859 103.304 12.152 104.008 12.859 104.717 13.565 104.717 12.859 104.008 13.565 103.304" fill="#262626" fill-rule="evenodd"/><rect x="10.251" y="103.755" width="2.486" height=".51" fill="#262626"/><path d="M30.465,116.649v-5.478h-8.464v5.478h8.464ZM21.697,116.649v-5.478h-8.504v5.478h8.504ZM39.13,116.649v-5.478h-8.339v5.478h8.339ZM47.927,116.649v-5.478l-8.454-.018v5.478l8.454.018Z" fill="#262626" fill-rule="evenodd"/><path d="M45.069,111.153h-2.951v.312h2.951v-.312ZM36.377,111.153h-2.948v.312h2.948v-.312ZM27.686,111.153h-2.95v.312h2.95v-.312ZM18.997,111.153h-2.95v.312h2.95v-.312Z" fill="#fff" fill-rule="evenodd"/><rect x="132.664" y="120.008" width="12.49" height=".812" fill="#f1f1f2"/><path d="M78.96,118.222v3.247h56.812c.09,0,.163-.073.163-.162h0v-1.786c0-.09-.073-.162-.163-.162h-28.852c-.09,0-.163-.073-.163-.162v-.812c0-.09-.073-.162-.163-.162h-27.634Z" fill="#4d4d4d" fill-rule="evenodd"/><path d="M84.1,118.222h-7.576v3.247h22.797v-3.247h-1.082c-.572,0-1.142-.081-1.698-.241l-3.957-1.141c-.495-.143-1.002-.223-1.511-.238v-.003h-5.206c-.119,0-.234.059-.328.169l-1.11,1.286c-.094.109-.21.169-.328.169Z" fill="#555"/><path d="M78.598,118.222h-38.04v3.247h42.958c.18,0,.326-.145.326-.325h0v-4.221c0-.179-.146-.325-.326-.325h-2.248c-.18,0-.354.059-.497.169l-1.678,1.286c-.142.109-.317.169-.497.169Z" fill="#555"/><path d="M78.96,118.222H4.468c-.09,0-.163.073-.163.162v2.922c0,.09.073.162.163.162h74.492v-3.247Z" fill="#6a6a6a" fill-rule="evenodd"/><path d="M98.385,118.802h-1.879c-.554,0-1.107-.073-1.645-.216l-3.617-.964c-.477-.127-.967-.192-1.459-.192h-2.085v3.292h10.683v-1.92Z" fill="#f4855c" fill-rule="evenodd"/><polygon points="89.88 119.116 88.454 118.484 88.45 119.813 89.88 119.116" fill="#404040" fill-rule="evenodd"/><rect x="60.14" y="103.475" width="11.886" height="6.089" rx=".572" ry=".572" fill="#ededed"/><path d="M70.01,104.845h-7.897c-.125,0-.219.104-.219.222v2.982c0,.118.094.212.219.212h7.897c.118,0,.212-.094.212-.212v-2.982c0-.118-.094-.222-.212-.222Z" fill="#262626" fill-rule="evenodd"/><path d="M290.333,97.758h-135.199c-.42,0-.761.335-.761.747v21.161c0,.413.341.747.761.747h135.199c.42,0,.761-.335.761-.747v-21.161c0-.413-.341-.747-.761-.747Z" fill="#d0d3d4" fill-rule="evenodd" stroke="#fff" stroke-miterlimit="10" stroke-width=".5"/><path d="M179.239,110.055h.189v-.191h-.189v.191ZM179.282,109.719h.107l.047-.715v-.302h-.206v.302l.052.715ZM169.983,110.055h.193v-.191h-.193v.191ZM170.026,109.719h.107l.047-.715v-.302h-.206v.302l.051.715Z" fill="#fff" fill-rule="evenodd"/><path d="M179.239,110.055h.189v-.191h-.189v.191ZM179.282,109.719h.107l.047-.715v-.302h-.206v.302l.052.715ZM169.983,110.055h.193v-.191h-.193v.191ZM170.026,109.719h.107l.047-.715v-.302h-.206v.302l.051.715Z" fill="#fff" fill-rule="evenodd"/><rect x="229.22" y="113.978" width="59.35" height="4.43" fill="#404040"/><path d="M157.061,118.428h70.879v-16.437c0-1.399-1.132-2.531-2.531-2.531h-65.817c-1.398,0-2.531,1.132-2.531,2.531v16.437Z" fill="#a2aaad" fill-rule="evenodd"/><rect x="161.93" y="100.181" width="10.757" height="7.819" fill="#eee"/><rect x="174.994" y="100.101" width="10.757" height="7.899" fill="#eee"/><polygon points="163.345 107.271 171.271 107.271 171.271 101.953 169.517 101.953 169.517 101.047 168.823 101.03 168.823 100.711 165.794 100.711 165.794 101.03 165.107 101.03 165.107 101.926 163.345 101.926 163.345 107.271" fill="#262626" fill-rule="evenodd"/><polygon points="176.409 107.271 184.336 107.271 184.336 101.953 182.581 101.953 182.581 101.047 181.887 101.03 181.887 100.711 178.858 100.711 178.858 101.03 178.171 101.03 178.171 101.926 176.409 101.926 176.409 107.271" fill="#262626" fill-rule="evenodd"/><rect x="163.136" y="100.86" width="1.708" height=".854" fill="#404040"/><rect x="169.772" y="100.86" width="1.708" height=".854" fill="#404040"/><path d="M192.372,103.019h5.808c.4,0,.725.325.725.725v3.388c0,.4-.325.726-.726.726h-5.808c-.4,0-.726-.325-.726-.726v-3.388c0-.4.325-.725.725-.725Z" fill="#eee"/><path d="M193.899,106.143h2.753c.389,0,.705-.316.705-.705,0-.392-.316-.708-.705-.708h-2.753c-.389,0-.705.316-.705.708,0,.389.316.705.705.705Z" fill="#262626" fill-rule="evenodd"/><rect x="157.061" y="108.16" width="41.844" height="10.248" fill="#7da9dc"/><path d="M158.536,113.836l.369-.003-.004,1.149h.167l.005-.43h.326v.292h.605v-.802h-.605v.285h-.326v-1.163h.326v.274h.605v-.802h-.605v.305h-.326l-.005-.385h-.167l.004,1.055-.369.003-.004-.326h-.643v.854h.643l.004-.305Z" fill="#fff" fill-rule="evenodd"/><rect x="160.775" y="110.632" width="35.6" height="6.335" fill="#fff"/><path d="M162.611,109.094c0-.219.175-.392.392-.392s.392.174.392.392c0,.215-.175.389-.392.389s-.392-.174-.392-.389Z" fill="#fff"/><path d="M165.529,109.056c0-.215.175-.389.392-.389s.391.174.391.389c0,.219-.175.392-.391.392s-.392-.174-.392-.392Z" fill="#fff"/><path d="M171.364,109.094c0-.219.175-.392.392-.392s.392.174.392.392c0,.215-.175.389-.392.389s-.392-.174-.392-.389Z" fill="#fff"/><path d="M174.282,109.056c0-.215.175-.389.392-.389s.392.174.392.389c0,.219-.175.392-.392.392s-.392-.174-.392-.392Z" fill="#fff"/><path d="M180.118,109.094c0-.219.175-.392.392-.392s.391.174.391.392c0,.215-.175.389-.391.389s-.392-.174-.392-.389Z" fill="#fff"/><path d="M183.034,109.056c0-.215.177-.389.392-.389.219,0,.392.174.392.389,0,.219-.174.392-.392.392-.215,0-.392-.174-.392-.392Z" fill="#fff"/><path d="M188.869,109.094c0-.219.177-.392.392-.392s.392.174.392.392c0,.215-.177.389-.392.389s-.392-.174-.392-.389Z" fill="#fff"/><path d="M191.789,109.056c0-.215.174-.389.392-.389.215,0,.392.174.392.389,0,.219-.177.392-.392.392-.219,0-.392-.174-.392-.392Z" fill="#fff"/><path d="M229.22,118.407h59.35v-15.982c0-1.638-1.326-2.965-2.965-2.965h-53.417c-1.638,0-2.968,1.326-2.968,2.965v15.982Z" fill="#ededed" stroke="#a7a9ac" stroke-miterlimit="10" stroke-width=".25"/><path d="M257.862,111.326v-6.651c0-.215-.177-.389-.389-.389h-13.774c-.215,0-.389.174-.389.389v6.651c0,.212.174.385.389.385h13.774c.212,0,.389-.174.389-.385Z" fill="none" stroke="#a2aaad" stroke-miterlimit="10" stroke-width=".25"/><path d="M244.123,110.632h5.801v-5.186h-5.801v5.186ZM251.249,110.632h5.801v-5.186h-5.801v5.186Z" fill="#262626" fill-rule="evenodd"/><rect x="258.681" y="99.34" width="30.035" height="19.067" fill="#7da9dc"/><rect x="229.22" y="113.978" width="59.493" height="4.571" fill="#a2aaad"/><rect x="259.535" y="104.284" width="18.553" height="6.042" fill="#fff" stroke="#fff" stroke-miterlimit="10" stroke-width=".5"/><rect x="259.65" y="104.399" width="9.012" height="5.812" fill="#005cb9"/><rect x="268.961" y="104.399" width="9.012" height="5.812" fill="#b2292e"/><rect x="279.176" y="99.333" width="9.533" height="19.074" fill="#a2aaad"/><path d="M241.818,111.326v-6.651c0-.215-.087-.389-.194-.389h-6.873c-.104,0-.191.174-.191.389v6.651c0,.212.087.385.191.385h6.873c.108,0,.194-.174.194-.385Z" fill="none" stroke="#a2aaad" stroke-miterlimit="10" stroke-width=".25"/><rect x="235.299" y="105.436" width="5.775" height="5.185" fill="#262626"/><path d="M245.091,102.46c0-.219.174-.392.389-.392.219,0,.392.174.392.392,0,.215-.174.389-.392.389-.215,0-.389-.174-.389-.389Z" fill="#404040"/><path d="M248.104,102.495c0-.215.177-.389.392-.389s.392.174.392.389c0,.219-.177.392-.392.392s-.392-.174-.392-.392Z" fill="#404040"/><path d="M252.256,102.46c0-.219.174-.392.389-.392.219,0,.392.174.392.392,0,.215-.174.389-.392.389-.215,0-.389-.174-.389-.389Z" fill="#404040"/><path d="M255.269,102.495c0-.215.177-.389.392-.389s.392.174.392.389c0,.219-.177.392-.392.392s-.392-.174-.392-.392Z" fill="#404040"/><path d="M236.364,102.46c0-.219.174-.392.389-.392.219,0,.392.174.392.392,0,.215-.174.389-.392.389-.215,0-.389-.174-.389-.389Z" fill="#404040"/><path d="M239.377,102.495c0-.215.177-.389.392-.389s.392.174.392.389c0,.219-.177.392-.392.392s-.392-.174-.392-.392Z" fill="#404040"/><path d="M261.316,102.46c0-.219.174-.392.389-.392.219,0,.392.174.392.392,0,.215-.174.389-.392.389-.215,0-.389-.174-.389-.389Z" fill="#fff"/><path d="M264.329,102.495c0-.215.177-.389.392-.389s.392.174.392.389c0,.219-.177.392-.392.392s-.392-.174-.392-.392Z" fill="#fff"/><path d="M270.949,102.46c0-.219.174-.392.392-.392.215,0,.389.174.389.392,0,.215-.174.389-.389.389-.219,0-.392-.174-.392-.389Z" fill="#fff"/><path d="M273.962,102.495c0-.215.177-.389.392-.389s.392.174.392.389c0,.219-.177.392-.392.392s-.392-.174-.392-.392Z" fill="#fff"/><polygon points="251.249 112.333 251.249 111.947 251.996 112.697 251.249 113.443 251.249 113.058 250.857 113.058 250.857 112.333 251.249 112.333" fill="#262626" fill-rule="evenodd"/><polygon points="250.034 113.058 250.034 113.443 249.288 112.694 250.034 111.947 250.034 112.333 250.43 112.333 250.43 113.058 250.034 113.058" fill="#262626" fill-rule="evenodd"/><path d="M282.807,110.347c0-.292.236-.528.528-.528.288,0,.524.236.524.528s-.236.528-.524.528c-.292,0-.528-.236-.528-.528Z" fill="#262626"/><path d="M282.807,108.327c0-.292.236-.528.528-.528.288,0,.524.236.524.528s-.236.528-.524.528c-.292,0-.528-.236-.528-.528Z" fill="#262626"/><path d="M282.807,105.012c0-.292.236-.528.528-.528.288,0,.524.236.524.528,0,.288-.236.524-.524.524-.292,0-.528-.236-.528-.524Z" fill="#262626"/><path d="M282.807,106.619c0-.292.236-.528.528-.528.288,0,.524.236.524.528s-.236.528-.524.528c-.292,0-.528-.236-.528-.528Z" fill="#262626"/><polygon points="157.353 104.717 158.059 104.717 158.766 104.008 158.059 103.304 157.353 103.304 158.059 104.008 157.353 104.717" fill="#262626" fill-rule="evenodd"/><polygon points="161.57 103.304 160.864 103.304 160.157 104.008 160.864 104.717 161.57 104.717 160.864 104.008 161.57 103.304" fill="#262626" fill-rule="evenodd"/><rect x="158.256" y="103.755" width="2.486" height=".51" fill="#262626"/><path d="M178.47,116.649v-5.478h-8.464v5.478h8.464ZM169.702,116.649v-5.478h-8.504v5.478h8.504ZM187.135,116.649v-5.478h-8.339v5.478h8.339ZM195.932,116.649v-5.478l-8.454-.018v5.478l8.454.018Z" fill="#262626" fill-rule="evenodd"/><path d="M193.074,111.153h-2.951v.312h2.951v-.312ZM184.382,111.153h-2.948v.312h2.948v-.312ZM175.691,111.153h-2.95v.312h2.95v-.312ZM167.002,111.153h-2.95v.312h2.95v-.312Z" fill="#fff" fill-rule="evenodd"/><rect x="280.669" y="120.008" width="12.49" height=".812" fill="#f1f1f2"/><path d="M226.965,118.222v3.247h56.812c.09,0,.163-.073.163-.162h0v-1.786c0-.09-.073-.162-.163-.162h-28.852c-.09,0-.163-.073-.163-.162v-.812c0-.09-.073-.162-.163-.162h-27.634Z" fill="#4d4d4d" fill-rule="evenodd"/><path d="M232.105,118.222h-7.576v3.247h22.797v-3.247h-1.082c-.572,0-1.142-.081-1.698-.241l-3.957-1.141c-.495-.143-1.002-.223-1.511-.238v-.003h-5.206c-.119,0-.234.059-.328.169l-1.11,1.286c-.094.109-.21.169-.328.169Z" fill="#555"/><path d="M226.603,118.222h-38.04v3.247h42.958c.18,0,.326-.145.326-.325h0v-4.221c0-.179-.146-.325-.326-.325h-2.248c-.18,0-.354.059-.497.169l-1.678,1.286c-.142.109-.317.169-.497.169Z" fill="#555"/><path d="M226.965,118.222h-74.492c-.09,0-.163.073-.163.162v2.922c0,.09.073.162.163.162h74.492v-3.247Z" fill="#6a6a6a" fill-rule="evenodd"/><path d="M246.39,118.802h-1.879c-.554,0-1.107-.073-1.645-.216l-3.617-.964c-.477-.127-.967-.192-1.459-.192h-2.085v3.292h10.683v-1.92Z" fill="#f4855c" fill-rule="evenodd"/><polygon points="237.885 119.116 236.459 118.484 236.455 119.813 237.885 119.116" fill="#404040" fill-rule="evenodd"/><rect x="208.145" y="103.475" width="11.886" height="6.089" rx=".572" ry=".572" fill="#ededed"/><path d="M218.015,104.845h-7.897c-.125,0-.219.104-.219.222v2.982c0,.118.094.212.219.212h7.897c.118,0,.212-.094.212-.212v-2.982c0-.118-.094-.222-.212-.222Z" fill="#262626" fill-rule="evenodd"/><rect x="50.197" y="40.381" width="15.124" height="7.384" rx=".406" ry=".406" fill="#f1f1f2" stroke="#d0d3d4" stroke-miterlimit="10" stroke-width=".251"/><rect x="50.839" y="41.024" width="13.84" height="6.097" fill="#101820"/><rect x="87.529" y="40.381" width="15.124" height="7.384" rx=".406" ry=".406" fill="#f1f1f2" stroke="#d0d3d4" stroke-miterlimit="10" stroke-width=".251"/><rect x="88.171" y="41.024" width="13.84" height="6.097" fill="#101820"/><rect x="236.646" y="40.381" width="15.124" height="7.384" rx=".406" ry=".406" fill="#f1f1f2" stroke="#d0d3d4" stroke-miterlimit="10" stroke-width=".251"/><rect x="237.288" y="41.024" width="13.84" height="6.097" fill="#101820"/><rect x="199.314" y="40.381" width="15.124" height="7.384" rx=".406" ry=".406" fill="#f1f1f2" stroke="#d0d3d4" stroke-miterlimit="10" stroke-width=".251"/><rect x="199.956" y="41.024" width="13.84" height="6.097" fill="#101820"/><polyline points="57.915 44.073 57.915 82.923 116.079 82.923 116.079 104.394" fill="none" stroke="#fff" stroke-linejoin="round" stroke-width="3.5"/><polyline points="57.915 44.073 57.915 82.923 116.079 82.923 116.079 104.394" fill="none" stroke="#005cb9" stroke-linejoin="round" stroke-width="1.575"/><polyline points="244.208 44.073 244.208 69.341 273.433 69.341 273.433 104.396" fill="none" stroke="#fff" stroke-linejoin="round" stroke-width="3.5"/><polyline points="244.208 44.073 244.208 69.341 273.433 69.341 273.433 104.396" fill="none" stroke="#b2292e" stroke-linejoin="round" stroke-width="1.575"/><polyline points="125.355 104.394 125.355 69.341 206.74 69.341 206.74 44.073" fill="none" stroke="#fff" stroke-linejoin="round" stroke-width="3.5"/><polyline points="125.355 104.394 125.355 69.341 206.74 69.341 206.74 44.073" fill="none" stroke="#b2292e" stroke-linejoin="round" stroke-width="1.575"/><polyline points="264.177 104.396 264.177 76.728 95.091 76.728 95.091 44.073" fill="none" stroke="#fff" stroke-linejoin="round" stroke-width="3.5"/><polyline points="264.177 104.396 264.177 76.728 95.091 76.728 95.091 44.073" fill="none" stroke="#005cb9" stroke-linejoin="round" stroke-width="1.575"/><rect x="50.839" y="41.024" width="13.84" height="6.097" fill="#101820"/><rect x="88.171" y="41.024" width="13.84" height="6.097" fill="#101820"/><rect x="199.956" y="41.024" width="13.84" height="6.097" fill="#101820"/><rect x="50.839" y="41.024" width="13.84" height="6.097" fill="#005cb9"/><rect x="88.171" y="41.024" width="13.84" height="6.097" fill="#005cb9"/><rect x="199.956" y="41.024" width="13.84" height="6.097" fill="#b2292e"/><rect x="237.288" y="41.024" width="13.84" height="6.097" fill="#b2292e"/><rect x="103.217" y="105.445" width="5.801" height="5.186" fill="#262626"/><rect x="96.107" y="105.453" width="5.801" height="5.186" fill="#262626"/><rect x="251.249" y="105.445" width="5.801" height="5.186" fill="#262626"/><rect x="244.15" y="105.447" width="5.801" height="5.186" fill="#262626"/><path d="M53.942,163.26c-.048-.187-.114-.357-.198-.514-.084-.155-.192-.29-.324-.404s-.287-.203-.463-.266c-.177-.063-.383-.095-.617-.095-.342,0-.638.069-.886.207-.249.139-.452.322-.608.554-.156.23-.271.493-.346.787-.075.294-.113.595-.113.9s.038.606.113.899c.075.295.19.557.346.788.156.23.359.415.608.554.249.138.544.207.886.207.252,0,.474-.044.666-.131s.357-.207.495-.36c.138-.152.246-.331.324-.535.078-.204.129-.423.153-.657h1.098c-.024.385-.106.735-.247,1.054-.141.317-.332.592-.572.823-.24.23-.522.409-.846.535-.324.126-.681.189-1.071.189-.48,0-.911-.089-1.292-.266s-.704-.419-.967-.725c-.264-.306-.467-.663-.607-1.071-.141-.408-.212-.843-.212-1.305,0-.456.071-.888.212-1.296.141-.408.343-.766.607-1.071.264-.306.586-.549.967-.729.381-.181.812-.271,1.292-.271.36,0,.699.05,1.017.148.318.1.599.243.841.433.243.188.439.418.59.688.15.27.243.579.279.927h-1.125Z" fill="#221f1f"/><path d="M58.091,167.768c-.372,0-.704-.062-.994-.185-.292-.123-.537-.292-.738-.509-.201-.216-.354-.474-.459-.773s-.157-.63-.157-.99c0-.354.052-.681.157-.98.105-.301.258-.559.459-.774s.447-.386.738-.509c.291-.123.622-.185.994-.185s.704.062.995.185.537.293.738.509c.201.216.354.474.459.774.105.3.158.627.158.98,0,.36-.053.69-.158.99s-.258.558-.459.773c-.201.217-.447.386-.738.509s-.623.185-.995.185ZM58.091,166.959c.228,0,.426-.049.594-.145s.306-.222.414-.378.188-.331.238-.526.077-.395.077-.599c0-.198-.026-.396-.077-.594s-.13-.374-.238-.526c-.108-.153-.246-.277-.414-.374-.168-.096-.366-.144-.594-.144s-.426.048-.594.144c-.168.097-.306.221-.414.374-.108.152-.188.328-.239.526-.051.198-.076.396-.076.594,0,.204.025.403.076.599.051.195.131.37.239.526s.246.282.414.378.366.145.594.145Z" fill="#221f1f"/><path d="M61.295,162.989h.972v.685l.018.018c.156-.258.36-.46.612-.607.252-.146.531-.221.837-.221.51,0,.912.133,1.206.396s.441.66.441,1.188v3.195h-1.026v-2.925c-.012-.366-.09-.632-.234-.797-.144-.165-.369-.247-.675-.247-.174,0-.33.031-.468.095-.138.062-.255.149-.351.261-.096.111-.171.241-.225.392-.054.149-.081.309-.081.477v2.745h-1.026v-4.653Z" fill="#221f1f"/><path d="M65.992,162.989h.774v-1.395h1.026v1.395h.927v.766h-.927v2.483c0,.108.004.201.014.279.009.078.03.144.063.198.033.054.082.095.148.121.066.027.156.041.27.041.072,0,.144-.002.216-.005s.144-.014.216-.031v.792c-.114.012-.225.023-.333.036-.108.012-.219.018-.333.018-.27,0-.487-.025-.652-.076s-.294-.126-.387-.226c-.093-.099-.156-.223-.189-.373-.033-.15-.052-.321-.058-.513v-2.745h-.774v-.766Z" fill="#221f1f"/><path d="M69.457,162.989h.963v.9h.018c.03-.126.088-.249.175-.369s.192-.229.315-.328c.123-.1.259-.179.409-.239.15-.06.303-.09.459-.09.12,0,.203.003.248.01.045.006.091.012.14.018v.99c-.072-.013-.146-.022-.221-.032-.075-.009-.148-.013-.22-.013-.174,0-.338.034-.491.104-.153.068-.287.171-.4.306-.114.135-.204.302-.27.499-.066.198-.099.427-.099.685v2.214h-1.026v-4.653Z" fill="#221f1f"/><path d="M74.596,167.768c-.372,0-.704-.062-.994-.185-.292-.123-.537-.292-.738-.509-.201-.216-.354-.474-.459-.773s-.157-.63-.157-.99c0-.354.052-.681.157-.98.105-.301.258-.559.459-.774s.447-.386.738-.509c.291-.123.622-.185.994-.185s.704.062.995.185.537.293.738.509c.201.216.354.474.459.774.105.3.158.627.158.98,0,.36-.053.69-.158.99s-.258.558-.459.773c-.201.217-.447.386-.738.509s-.623.185-.995.185ZM74.596,166.959c.228,0,.426-.049.594-.145s.306-.222.414-.378.188-.331.238-.526.077-.395.077-.599c0-.198-.026-.396-.077-.594s-.13-.374-.238-.526c-.108-.153-.246-.277-.414-.374-.168-.096-.366-.144-.594-.144s-.426.048-.594.144c-.168.097-.306.221-.414.374-.108.152-.188.328-.239.526-.051.198-.076.396-.076.594,0,.204.025.403.076.599.051.195.131.37.239.526s.246.282.414.378.366.145.594.145Z" fill="#221f1f"/><path d="M77.827,161.217h1.026v6.426h-1.026v-6.426Z" fill="#221f1f"/><path d="M79.996,161.217h1.026v6.426h-1.026v-6.426Z" fill="#221f1f"/><path d="M82.939,165.582c0,.18.025.354.077.521.051.168.127.315.229.441s.231.227.387.301c.156.075.342.113.558.113.3,0,.542-.064.725-.194.183-.129.32-.322.41-.58h.972c-.054.252-.147.477-.279.675s-.291.364-.477.5c-.186.135-.395.236-.625.306s-.472.104-.725.104c-.366,0-.69-.06-.972-.18-.282-.12-.521-.288-.716-.504-.195-.217-.342-.475-.441-.774s-.148-.63-.148-.99c0-.33.053-.644.158-.94s.255-.558.45-.783c.195-.225.431-.403.707-.535s.588-.198.936-.198c.366,0,.694.077.985.229.291.153.533.355.725.607s.332.542.418.869.109.664.068,1.013h-3.42ZM85.333,164.906c-.012-.162-.046-.317-.104-.468-.057-.149-.135-.28-.234-.392-.099-.11-.219-.201-.36-.27-.141-.069-.299-.104-.473-.104-.18,0-.343.031-.49.095-.147.062-.273.149-.378.261s-.189.241-.252.392c-.063.149-.098.312-.104.485h2.394Z" fill="#221f1f"/><path d="M87.143,162.989h.963v.9h.018c.03-.126.088-.249.175-.369s.192-.229.315-.328c.123-.1.259-.179.409-.239.15-.06.303-.09.459-.09.12,0,.203.003.248.01.045.006.091.012.14.018v.99c-.072-.013-.146-.022-.221-.032-.075-.009-.148-.013-.22-.013-.174,0-.338.034-.491.104-.153.068-.287.171-.4.306-.114.135-.204.302-.27.499-.066.198-.099.427-.099.685v2.214h-1.026v-4.653Z" fill="#221f1f"/><path d="M94.675,161.217h1.197l2.475,6.426h-1.206l-.603-1.701h-2.565l-.603,1.701h-1.161l2.466-6.426ZM94.279,165.087h1.962l-.963-2.764h-.027l-.972,2.764Z" fill="#221f1f"/><path d="M203.402,163.26c-.048-.187-.114-.357-.198-.514-.084-.155-.192-.29-.324-.404s-.287-.203-.463-.266c-.177-.063-.383-.095-.617-.095-.342,0-.638.069-.886.207-.249.139-.452.322-.608.554-.156.23-.271.493-.346.787-.075.294-.113.595-.113.9s.038.606.113.899c.075.295.19.557.346.788.156.23.359.415.608.554.249.138.544.207.886.207.252,0,.474-.044.666-.131s.357-.207.495-.36c.138-.152.246-.331.324-.535.078-.204.129-.423.153-.657h1.098c-.024.385-.106.735-.247,1.054-.141.317-.332.592-.572.823-.24.23-.522.409-.846.535-.324.126-.681.189-1.071.189-.48,0-.911-.089-1.292-.266s-.704-.419-.967-.725c-.264-.306-.467-.663-.607-1.071-.141-.408-.212-.843-.212-1.305,0-.456.071-.888.212-1.296.141-.408.343-.766.607-1.071.264-.306.586-.549.967-.729.381-.181.812-.271,1.292-.271.36,0,.699.05,1.017.148.318.1.599.243.841.433.243.188.439.418.59.688.15.27.243.579.279.927h-1.125Z" fill="#221f1f"/><path d="M207.551,167.768c-.372,0-.704-.062-.994-.185-.292-.123-.537-.292-.738-.509-.201-.216-.354-.474-.459-.773s-.157-.63-.157-.99c0-.354.052-.681.157-.98.105-.301.258-.559.459-.774s.447-.386.738-.509c.291-.123.622-.185.994-.185s.704.062.995.185.537.293.738.509c.201.216.354.474.459.774.105.3.158.627.158.98,0,.36-.053.69-.158.99s-.258.558-.459.773c-.201.217-.447.386-.738.509s-.623.185-.995.185ZM207.551,166.959c.228,0,.426-.049.594-.145s.306-.222.414-.378.188-.331.238-.526.077-.395.077-.599c0-.198-.026-.396-.077-.594s-.13-.374-.238-.526c-.108-.153-.246-.277-.414-.374-.168-.096-.366-.144-.594-.144s-.426.048-.594.144c-.168.097-.306.221-.414.374-.108.152-.188.328-.239.526-.051.198-.076.396-.076.594,0,.204.025.403.076.599.051.195.131.37.239.526s.246.282.414.378.366.145.594.145Z" fill="#221f1f"/><path d="M210.755,162.989h.972v.685l.018.018c.156-.258.36-.46.612-.607.252-.146.531-.221.837-.221.51,0,.912.133,1.206.396s.441.66.441,1.188v3.195h-1.026v-2.925c-.012-.366-.09-.632-.234-.797-.144-.165-.369-.247-.675-.247-.174,0-.33.031-.468.095-.138.062-.255.149-.351.261-.096.111-.171.241-.225.392-.054.149-.081.309-.081.477v2.745h-1.026v-4.653Z" fill="#221f1f"/><path d="M215.453,162.989h.774v-1.395h1.026v1.395h.927v.766h-.927v2.483c0,.108.004.201.014.279.009.078.03.144.063.198.033.054.082.095.148.121.066.027.156.041.27.041.072,0,.144-.002.216-.005s.144-.014.216-.031v.792c-.114.012-.225.023-.333.036-.108.012-.219.018-.333.018-.27,0-.487-.025-.652-.076s-.294-.126-.387-.226c-.093-.099-.156-.223-.189-.373-.033-.15-.052-.321-.058-.513v-2.745h-.774v-.766Z" fill="#221f1f"/><path d="M218.918,162.989h.963v.9h.018c.03-.126.088-.249.175-.369s.192-.229.315-.328c.123-.1.26-.179.409-.239.15-.06.304-.09.459-.09.12,0,.203.003.248.01.045.006.091.012.14.018v.99c-.072-.013-.146-.022-.221-.032-.075-.009-.148-.013-.221-.013-.174,0-.338.034-.49.104-.153.068-.287.171-.4.306-.114.135-.205.302-.271.499-.066.198-.099.427-.099.685v2.214h-1.026v-4.653Z" fill="#221f1f"/><path d="M224.057,167.768c-.372,0-.703-.062-.994-.185s-.537-.292-.738-.509c-.201-.216-.354-.474-.459-.773-.104-.3-.157-.63-.157-.99,0-.354.053-.681.157-.98.105-.301.258-.559.459-.774s.447-.386.738-.509.622-.185.994-.185.703.062.995.185c.29.123.536.293.737.509s.354.474.459.774c.105.3.158.627.158.98,0,.36-.053.69-.158.99-.104.3-.258.558-.459.773-.201.217-.447.386-.737.509-.292.123-.623.185-.995.185ZM224.057,166.959c.229,0,.426-.049.594-.145s.307-.222.414-.378c.108-.156.188-.331.239-.526.051-.195.076-.395.076-.599,0-.198-.025-.396-.076-.594-.052-.198-.131-.374-.239-.526-.107-.153-.246-.277-.414-.374-.168-.096-.365-.144-.594-.144s-.426.048-.594.144c-.168.097-.306.221-.414.374-.107.152-.188.328-.238.526s-.076.396-.076.594c0,.204.025.403.076.599s.131.37.238.526c.108.156.246.282.414.378s.366.145.594.145Z" fill="#221f1f"/><path d="M227.288,161.217h1.025v6.426h-1.025v-6.426Z" fill="#221f1f"/><path d="M229.457,161.217h1.025v6.426h-1.025v-6.426Z" fill="#221f1f"/><path d="M232.399,165.582c0,.18.025.354.077.521.051.168.127.315.229.441.102.126.23.227.387.301.156.075.342.113.558.113.3,0,.542-.064.725-.194.183-.129.319-.322.409-.58h.973c-.055.252-.147.477-.279.675s-.291.364-.477.5c-.187.135-.395.236-.626.306-.23.069-.473.104-.725.104-.366,0-.689-.06-.972-.18s-.521-.288-.716-.504c-.195-.217-.342-.475-.44-.774-.1-.3-.148-.63-.148-.99,0-.33.052-.644.157-.94.104-.297.255-.558.45-.783.194-.225.43-.403.706-.535s.588-.198.937-.198c.365,0,.694.077.985.229.291.153.532.355.725.607.191.252.331.542.418.869s.109.664.067,1.013h-3.42ZM234.794,164.906c-.013-.162-.047-.317-.104-.468-.058-.149-.136-.28-.234-.392-.099-.11-.219-.201-.36-.27-.141-.069-.298-.104-.472-.104-.181,0-.344.031-.491.095-.146.062-.272.149-.378.261-.104.111-.188.241-.252.392-.062.149-.098.312-.104.485h2.395Z" fill="#221f1f"/><path d="M236.602,162.989h.963v.9h.019c.029-.126.088-.249.175-.369s.192-.229.315-.328c.123-.1.259-.179.409-.239.15-.06.303-.09.459-.09.12,0,.202.003.248.01.045.006.091.012.139.018v.99c-.071-.013-.146-.022-.22-.032-.075-.009-.148-.013-.221-.013-.174,0-.338.034-.49.104-.153.068-.287.171-.401.306-.113.135-.204.302-.27.499-.066.198-.099.427-.099.685v2.214h-1.026v-4.653Z" fill="#221f1f"/><path d="M242.416,161.217h3.123c.576,0,1.038.132,1.387.396.348.265.521.663.521,1.197,0,.324-.079.602-.238.832-.159.231-.386.41-.68.536v.018c.396.084.696.271.9.562s.306.656.306,1.094c0,.252-.045.487-.135.706-.09.22-.231.408-.423.567-.192.159-.438.285-.738.378s-.657.14-1.071.14h-2.952v-6.426ZM243.541,163.907h1.836c.271,0,.495-.076.676-.229.18-.152.27-.373.27-.661,0-.324-.081-.552-.243-.684-.162-.133-.396-.198-.702-.198h-1.836v1.772ZM243.541,166.724h1.989c.342,0,.607-.089.797-.266.188-.177.283-.428.283-.751,0-.318-.095-.562-.283-.734-.189-.171-.455-.256-.797-.256h-1.989v2.007Z" fill="#221f1f"/><path d="M61.75,13.594h1.125v2.556h2.925v-2.556h1.125v6.426h-1.125v-2.898h-2.925v2.898h-1.125v-6.426Z" fill="#221f1f"/><path d="M70.264,20.145c-.372,0-.704-.062-.994-.185-.292-.123-.537-.292-.738-.509-.201-.216-.354-.474-.459-.773s-.157-.63-.157-.99c0-.354.052-.681.157-.98.105-.301.258-.559.459-.774s.447-.386.738-.509c.291-.123.622-.185.994-.185s.704.062.995.185.537.293.738.509c.201.216.354.474.459.774.105.3.158.627.158.98,0,.36-.053.69-.158.99s-.258.558-.459.773c-.201.217-.447.386-.738.509s-.623.185-.995.185ZM70.264,19.336c.228,0,.426-.049.594-.145s.306-.222.414-.378.188-.331.238-.526.077-.395.077-.599c0-.198-.026-.396-.077-.594s-.13-.374-.238-.526c-.108-.153-.246-.277-.414-.374-.168-.096-.366-.144-.594-.144s-.426.048-.594.144c-.168.097-.306.221-.414.374-.108.152-.188.328-.239.526-.051.198-.076.396-.076.594,0,.204.025.403.076.599.051.195.131.37.239.526s.246.282.414.378.366.145.594.145Z" fill="#221f1f"/><path d="M74.242,18.525c.03.3.144.51.342.63.198.12.435.181.711.181.096,0,.205-.008.328-.022.123-.016.239-.044.347-.086s.196-.104.266-.185c.069-.081.1-.188.094-.319s-.054-.24-.144-.324c-.09-.084-.206-.151-.346-.202-.141-.051-.302-.095-.481-.131-.18-.036-.363-.075-.549-.117-.192-.042-.376-.093-.553-.152-.177-.061-.336-.142-.477-.243-.141-.103-.253-.232-.337-.392-.084-.159-.126-.355-.126-.59,0-.252.061-.463.184-.634.123-.172.279-.31.468-.414.189-.105.399-.179.63-.221s.452-.063.662-.063c.24,0,.469.026.688.077.219.051.417.133.594.247.177.114.324.263.441.445.117.184.19.404.22.662h-1.071c-.048-.246-.161-.411-.337-.495-.177-.084-.38-.126-.608-.126-.072,0-.157.006-.256.018-.099.013-.192.035-.279.067-.087.033-.161.081-.221.145-.06.062-.09.146-.09.247,0,.126.043.229.13.307.087.077.201.143.342.193.141.051.301.094.481.13.18.036.366.075.558.117.186.042.369.093.549.153.18.06.34.141.481.243.141.102.255.23.342.387s.131.348.131.576c0,.275-.063.51-.189.702-.126.191-.29.348-.49.468-.201.12-.425.207-.67.261-.246.054-.489.081-.729.081-.294,0-.566-.033-.814-.099-.249-.066-.465-.167-.648-.302-.183-.135-.327-.303-.432-.504s-.161-.439-.167-.716h1.026Z" fill="#221f1f"/><path d="M77.671,15.366h.774v-1.395h1.026v1.395h.927v.766h-.927v2.483c0,.108.004.201.014.279.009.078.03.144.063.198.033.054.082.095.148.121.066.027.156.041.27.041.072,0,.144-.002.216-.005s.144-.014.216-.031v.792c-.114.012-.225.023-.333.036-.108.012-.219.018-.333.018-.27,0-.487-.025-.652-.076s-.294-.126-.387-.226c-.093-.099-.156-.223-.189-.373-.033-.15-.052-.321-.058-.513v-2.745h-.774v-.766Z" fill="#221f1f"/><path d="M83.575,14.764c.216,0,.426-.019.63-.054.204-.036.389-.097.554-.181s.306-.191.423-.324c.117-.132.193-.293.229-.485h.837v6.3h-1.125v-4.446h-1.548v-.81Z" fill="#221f1f"/><path d="M210.377,13.594h1.125v2.556h2.925v-2.556h1.125v6.426h-1.125v-2.898h-2.925v2.898h-1.125v-6.426Z" fill="#221f1f"/><path d="M218.891,20.145c-.372,0-.704-.062-.994-.185-.292-.123-.537-.292-.738-.509-.201-.216-.354-.474-.459-.773s-.157-.63-.157-.99c0-.354.052-.681.157-.98.105-.301.258-.559.459-.774s.447-.386.738-.509c.291-.123.622-.185.994-.185s.704.062.995.185.537.293.738.509.354.474.459.774c.104.3.157.627.157.98,0,.36-.053.69-.157.99-.105.3-.258.558-.459.773-.201.217-.447.386-.738.509s-.623.185-.995.185ZM218.891,19.336c.228,0,.426-.049.594-.145s.306-.222.414-.378.188-.331.238-.526.077-.395.077-.599c0-.198-.026-.396-.077-.594s-.13-.374-.238-.526c-.108-.153-.246-.277-.414-.374-.168-.096-.366-.144-.594-.144s-.426.048-.594.144c-.168.097-.306.221-.414.374-.108.152-.188.328-.239.526-.051.198-.076.396-.076.594,0,.204.025.403.076.599.051.195.131.37.239.526s.246.282.414.378.366.145.594.145Z" fill="#221f1f"/><path d="M222.869,18.525c.03.3.145.51.342.63.198.12.436.181.712.181.096,0,.205-.008.328-.022.123-.016.238-.044.346-.086.109-.042.197-.104.266-.185s.102-.188.096-.319c-.008-.132-.055-.24-.145-.324s-.205-.151-.347-.202-.302-.095-.481-.131-.363-.075-.549-.117c-.192-.042-.377-.093-.554-.152-.177-.061-.336-.142-.477-.243-.142-.103-.254-.232-.338-.392s-.126-.355-.126-.59c0-.252.062-.463.185-.634.123-.172.279-.31.468-.414.189-.105.399-.179.63-.221.231-.042.452-.063.662-.063.239,0,.469.026.688.077.219.051.416.133.594.247.176.114.324.263.441.445.117.184.189.404.221.662h-1.072c-.047-.246-.16-.411-.337-.495s-.38-.126-.607-.126c-.072,0-.157.006-.257.018-.099.013-.191.035-.278.067-.088.033-.161.081-.221.145-.061.062-.09.146-.09.247,0,.126.043.229.13.307.087.077.201.143.343.193.141.051.301.094.481.13.18.036.365.075.557.117.188.042.369.093.549.153.182.06.342.141.482.243.141.102.256.23.342.387.088.156.131.348.131.576,0,.275-.062.51-.189.702-.125.191-.289.348-.49.468s-.424.207-.67.261-.489.081-.729.081c-.294,0-.565-.033-.814-.099-.249-.066-.465-.167-.647-.302-.184-.135-.327-.303-.433-.504-.104-.201-.16-.439-.166-.716h1.025Z" fill="#221f1f"/><path d="M226.298,15.366h.773v-1.395h1.026v1.395h.927v.766h-.927v2.483c0,.108.005.201.014.279s.029.144.062.198c.033.054.083.095.148.121.066.027.156.041.271.041.072,0,.144-.002.216-.005s.144-.014.216-.031v.792c-.114.012-.225.023-.333.036-.107.012-.219.018-.333.018-.27,0-.487-.025-.652-.076s-.294-.126-.387-.226c-.094-.099-.156-.223-.189-.373s-.053-.321-.059-.513v-2.745h-.773v-.766Z" fill="#221f1f"/><path d="M236.378,20.019h-4.303c.006-.522.132-.978.378-1.368.246-.39.582-.729,1.009-1.017.203-.15.417-.296.639-.437.222-.142.426-.293.612-.455.186-.162.339-.337.459-.526.12-.188.183-.406.188-.652,0-.114-.014-.235-.04-.364-.027-.129-.08-.249-.157-.36-.078-.11-.187-.204-.324-.279-.139-.074-.318-.112-.54-.112-.204,0-.374.041-.509.122s-.243.191-.324.333c-.081.141-.141.308-.18.499-.039.192-.062.399-.067.621h-1.026c0-.348.047-.67.14-.968.093-.297.232-.553.419-.77.186-.216.412-.385.679-.508.268-.123.578-.185.932-.185.384,0,.705.062.963.188s.467.285.626.478c.159.191.271.4.338.625.065.226.099.439.099.644,0,.252-.039.48-.117.685s-.183.392-.314.562c-.133.171-.282.328-.45.472-.168.145-.342.279-.522.405-.18.126-.359.246-.54.36-.18.114-.347.228-.499.342-.153.114-.287.232-.4.355-.114.123-.192.254-.234.392h3.069v.918Z" fill="#221f1f"/></svg>