<?xml version="1.0" encoding="UTF-8"?><svg xmlns="http://www.w3.org/2000/svg" width="4.125in" height="2.5in" viewBox="0 0 297 180"><g id="a"><g id="b"><rect x="4.546" y="61.266" width="65.642" height="108.928" fill="#d0d3d4"/><polygon points="295.568 173.626 1.6 173.626 1.845 57.834 295.813 57.834 295.568 173.626" fill="none" fill-rule="evenodd" stroke="#a2aaad" stroke-linecap="round" stroke-linejoin="round" stroke-width="1.212"/><path d="M68.867,100.079v-21.838c0-1.578-.627-3.091-1.744-4.207l-7.61-7.607c-1.116-1.116-2.63-1.742-4.208-1.742h-21.845c-1.579,0-3.092.627-4.208,1.742l-7.61,7.607c-1.116,1.115-1.743,2.629-1.743,4.207v21.838c0,1.577.626,3.09,1.743,4.205l7.61,7.608c1.116,1.115,2.63,1.742,4.208,1.742h21.845c1.579,0,3.092-.627,4.208-1.742l7.61-7.608c1.116-1.115,1.744-2.629,1.744-4.205Z" fill="#292929" fill-rule="evenodd"/><path d="M59.261,89.16c0-8.214-6.662-14.872-14.878-14.872s-14.878,6.658-14.878,14.872c-.001,8.214,6.661,14.872,14.877,14.872s14.878-6.658,14.879-14.872Z" fill="#d0d3d4" fill-rule="evenodd"/><path d="M44.383,113.586c-6.527,0-12.663-2.541-17.277-7.154-4.615-4.613-7.157-10.747-7.157-17.271,0-13.468,10.962-24.426,24.436-24.426s24.434,10.958,24.434,24.426-10.961,24.426-24.435,24.426ZM44.384,65.117c-13.263,0-24.053,10.786-24.053,24.043,0,6.422,2.501,12.459,7.044,17.001,4.543,4.541,10.584,7.042,17.008,7.042,13.263,0,24.053-10.785,24.053-24.043s-10.79-24.043-24.052-24.043Z" fill="#fff"/><path d="M44.383,64.797c13.438,0,24.372,10.929,24.372,24.363s-10.934,24.363-24.373,24.363c-6.51,0-12.63-2.534-17.234-7.136-4.604-4.602-7.138-10.72-7.138-17.227,0-13.434,10.934-24.363,24.373-24.363M44.382,113.265c13.297,0,24.115-10.814,24.115-24.106s-10.818-24.106-24.114-24.106-24.115,10.814-24.115,24.106c0,6.439,2.508,12.492,7.063,17.045,4.555,4.553,10.61,7.061,17.052,7.061M44.383,64.672c-13.508,0-24.498,10.985-24.498,24.488,0,6.541,2.548,12.69,7.175,17.315,4.627,4.625,10.779,7.173,17.322,7.173,13.508,0,24.498-10.985,24.498-24.488s-10.989-24.488-24.497-24.488h0ZM44.382,113.14c-6.407,0-12.432-2.494-16.963-7.024-4.531-4.53-7.026-10.552-7.026-16.957,0-13.223,10.762-23.981,23.99-23.981s23.989,10.758,23.989,23.981-10.762,23.981-23.99,23.981h0Z" fill="#fff"/><path d="M44.383,108.856c-5.263,0-10.211-2.049-13.933-5.769-3.722-3.721-5.771-8.667-5.771-13.928,0-10.861,8.84-19.697,19.705-19.697,5.264,0,10.212,2.049,13.933,5.769,3.717,3.715,5.766,8.655,5.771,13.909,0,10.88-8.84,19.716-19.704,19.716ZM44.384,69.845c-10.654,0-19.322,8.665-19.322,19.315,0,5.158,2.009,10.008,5.658,13.657,3.649,3.648,8.502,5.657,13.663,5.657,10.644,0,19.312-8.655,19.323-19.295,0-5.178-2.01-10.028-5.659-13.677-3.65-3.648-8.503-5.658-13.663-5.658Z" fill="#fff"/><path d="M44.383,69.525c5.247,0,10.179,2.042,13.889,5.751,3.705,3.704,5.747,8.627,5.752,13.864.001.007.001.013.001.02h-.001.001c-.001,10.826-8.814,19.634-19.643,19.634-5.246,0-10.179-2.043-13.889-5.751-3.71-3.709-5.753-8.639-5.752-13.883,0-10.827,8.812-19.635,19.642-19.635M44.382,108.537c10.681,0,19.374-8.682,19.386-19.358-.001-.007-.002-.013-.002-.019,0-5.176-2.016-10.042-5.676-13.702-3.661-3.66-8.529-5.675-13.707-5.675-10.689,0-19.385,8.692-19.385,19.377,0,5.175,2.016,10.041,5.677,13.701s8.529,5.675,13.707,5.675M64.027,89.16h-.002.002M44.383,69.4c-10.9,0-19.767,8.864-19.767,19.76,0,5.277,2.055,10.239,5.789,13.972,3.734,3.732,8.698,5.787,13.977,5.787,10.899,0,19.767-8.864,19.768-19.759v-.125s-.003,0-.003,0c-.025-5.22-2.079-10.141-5.787-13.847-3.733-3.732-8.697-5.787-13.977-5.787h0ZM44.382,108.412c-5.144,0-9.981-2.003-13.618-5.639-3.638-3.636-5.641-8.471-5.64-13.613,0-10.616,8.64-19.252,19.26-19.252,5.144,0,9.981,2.003,13.618,5.639,3.637,3.636,5.64,8.471,5.64,13.613v.01l.003.029c-.013,10.586-8.654,19.214-19.262,19.214h0Z" fill="#fff"/><path d="M44.383,104.128c-3.999,0-7.76-1.557-10.588-4.385-2.828-2.826-4.386-6.584-4.386-10.583,0-8.254,6.718-14.968,14.975-14.968s14.974,6.714,14.974,14.968c0,8.253-6.719,14.968-14.975,14.968ZM44.384,74.574c-8.046,0-14.592,6.543-14.592,14.586,0,3.896,1.518,7.559,4.272,10.313,2.758,2.755,6.422,4.272,10.318,4.272,8.045,0,14.591-6.543,14.592-14.586,0-8.043-6.546-14.586-14.591-14.586Z" fill="#fff"/><path d="M44.383,74.254c8.222,0,14.911,6.687,14.911,14.906-.001,8.219-6.691,14.905-14.912,14.905-3.983,0-7.727-1.55-10.544-4.366-2.817-2.815-4.367-6.558-4.367-10.54,0-8.219,6.689-14.906,14.911-14.906M44.382,103.808c8.08,0,14.654-6.571,14.655-14.648,0-8.077-6.574-14.648-14.654-14.648s-14.654,6.571-14.654,14.648c0,3.912,1.523,7.591,4.291,10.358,2.768,2.767,6.448,4.29,10.362,4.29M59.166,89.16h.003-.003M44.383,74.129c-8.291,0-15.036,6.743-15.036,15.031,0,4.015,1.563,7.789,4.404,10.628,2.84,2.839,6.616,4.402,10.632,4.402,8.291,0,15.036-6.743,15.037-15.03,0-8.288-6.745-15.031-15.036-15.031h0ZM44.382,103.683c-3.881,0-7.529-1.511-10.273-4.254-2.744-2.743-4.255-6.39-4.255-10.269,0-8.008,6.518-14.524,14.529-14.524s14.529,6.515,14.529,14.523c-.001,8.008-6.519,14.523-14.53,14.523h0Z" fill="#fff"/><path d="M44.383,99.399c-5.648,0-10.243-4.594-10.243-10.239s4.596-10.24,10.244-10.24,10.243,4.593,10.243,10.24c0,5.646-4.597,10.239-10.244,10.239ZM44.384,79.302c-5.438,0-9.861,4.422-9.861,9.857s4.423,9.857,9.86,9.857,9.861-4.422,9.862-9.857c0-5.436-4.424-9.857-9.861-9.857Z" fill="#fff"/><path d="M44.383,78.983c5.614,0,10.181,4.565,10.181,10.177-.001,5.612-4.568,10.177-10.182,10.177s-10.18-4.565-10.18-10.177,4.567-10.177,10.181-10.177M44.382,99.079c5.471,0,9.924-4.45,9.925-9.92,0-5.47-4.452-9.92-9.924-9.92s-9.924,4.45-9.924,9.92,4.451,9.92,9.923,9.92M54.436,89.16h.003-.003M44.383,78.858c-5.683,0-10.306,4.621-10.306,10.302s4.623,10.302,10.305,10.302,10.306-4.621,10.307-10.302c0-5.681-4.623-10.302-10.306-10.302h0ZM44.382,98.954c-5.402,0-9.798-4.394-9.798-9.795s4.396-9.795,9.799-9.795,9.799,4.394,9.799,9.795c-.001,5.401-4.397,9.795-9.8,9.795h0Z" fill="#fff"/><path d="M44.383,94.671c-3.04,0-5.513-2.472-5.513-5.511s2.474-5.512,5.514-5.512,5.513,2.473,5.513,5.512-2.474,5.511-5.514,5.511ZM44.384,84.031c-2.829,0-5.131,2.301-5.131,5.129s2.301,5.128,5.13,5.128,5.131-2.301,5.131-5.128-2.301-5.129-5.13-5.129Z" fill="#fff"/><path d="M44.383,83.711c3.005,0,5.45,2.444,5.45,5.449s-2.445,5.448-5.451,5.448-5.45-2.444-5.45-5.448,2.445-5.449,5.451-5.449M44.382,94.351c2.864,0,5.194-2.329,5.194-5.191s-2.33-5.191-5.193-5.191-5.193,2.329-5.193,5.191,2.329,5.191,5.192,5.191M44.383,83.586c-3.074,0-5.576,2.5-5.576,5.574s2.501,5.573,5.575,5.573,5.576-2.5,5.576-5.573-2.501-5.574-5.575-5.574h0ZM44.382,94.226c-2.794,0-5.067-2.273-5.067-5.066s2.274-5.066,5.068-5.066,5.068,2.273,5.068,5.066-2.274,5.066-5.069,5.066h0Z" fill="#fff"/><path d="M67.059,112.045l-.109-.057-19.716-19.708c-.762-.762-1.774-1.181-2.853-1.181-1.062,0-2.101.431-2.852,1.181l-19.734,19.727-.116.038c-.051,0-.099-.021-.135-.057l-.019-.018-.038-.117c0-.052.021-.1.057-.136l19.716-19.708c.82-.821,1.958-1.292,3.121-1.292,1.181,0,2.289.459,3.122,1.292l19.734,19.727.038.117c0,.052-.021.1-.057.136l-.019.018-.116.038h-.025Z" fill="#fff"/><path d="M44.381,90.78c1.163,0,2.257.452,3.078,1.274l19.716,19.709c.05.05.05.132,0,.182-.025.025-.058.038-.091.038s-.066-.013-.091-.038l-19.716-19.709c-.773-.773-1.801-1.199-2.896-1.199-1.078,0-2.133.437-2.895,1.199l-19.716,19.709c-.025.025-.058.038-.091.038-.033,0-.066-.013-.091-.038-.05-.05-.05-.132,0-.182l19.716-19.709c.809-.809,1.931-1.274,3.077-1.274M44.381,90.655c-1.179,0-2.332.478-3.165,1.311l-19.716,19.709c-.099.099-.099.26,0,.359.048.048.112.074.18.074s.131-.026.179-.074l19.716-19.709c.738-.738,1.761-1.162,2.806-1.162,1.061,0,2.059.413,2.808,1.162l19.716,19.709c.048.048.112.074.179.074s.131-.026.179-.074c.048-.048.074-.112.074-.179s-.026-.131-.074-.179l-19.716-19.709c-.845-.845-1.97-1.311-3.167-1.311h0Z" fill="#fff"/><path d="M44.382,87.602c-1.163,0-2.301-.471-3.121-1.292l-19.734-19.727-.038-.117c0-.051.021-.1.057-.136l.019-.018.116-.037c.051,0,.099.02.135.055l19.716,19.709c.752.75,1.791,1.181,2.852,1.181s2.101-.431,2.853-1.181l19.733-19.727.117-.038c.051,0,.099.02.135.056l.019.019.038.117c0,.051-.021.099-.057.135l-19.716,19.708c-.82.821-1.959,1.292-3.122,1.292Z" fill="#fff"/><path d="M21.679,66.338c.033,0,.066.013.091.038l19.716,19.709c.762.762,1.817,1.199,2.895,1.199s2.134-.437,2.896-1.199l19.716-19.709c.025-.025.058-.038.091-.038.033,0,.066.013.091.038.05.05.05.132,0,.182l-19.716,19.709c-.81.809-1.932,1.274-3.078,1.274s-2.267-.465-3.077-1.274l-19.716-19.709c-.05-.05-.05-.132,0-.182.025-.025.058-.038.091-.038M67.085,66.213h0c-.068,0-.131.026-.179.074l-19.716,19.709c-.739.738-1.762,1.162-2.808,1.162s-2.068-.424-2.806-1.162l-19.716-19.709c-.048-.048-.112-.074-.179-.074s-.131.026-.179.074c-.099.099-.099.26,0,.359l19.716,19.709c.833.833,1.987,1.311,3.165,1.311s2.333-.478,3.167-1.311l19.716-19.709c.048-.048.074-.112.074-.179s-.026-.131-.074-.179c-.048-.048-.112-.074-.18-.074h0Z" fill="#fff"/><path d="M68.867,153.107v-21.838c0-1.578-.627-3.091-1.744-4.207l-7.61-7.607c-1.116-1.116-2.63-1.742-4.208-1.742h-21.845c-1.579,0-3.092.627-4.208,1.742l-7.61,7.607c-1.116,1.115-1.743,2.629-1.743,4.207v21.838c0,1.577.626,3.09,1.743,4.205l7.61,7.608c1.116,1.115,2.63,1.742,4.208,1.742h21.845c1.579,0,3.092-.627,4.208-1.742l7.61-7.608c1.116-1.115,1.744-2.629,1.744-4.205Z" fill="#292929" fill-rule="evenodd"/><path d="M59.261,142.188c0-8.214-6.662-14.872-14.878-14.872s-14.878,6.658-14.878,14.872c-.001,8.214,6.661,14.872,14.877,14.872s14.878-6.658,14.879-14.872Z" fill="#d0d3d4" fill-rule="evenodd"/><path d="M44.383,166.614c-6.527,0-12.663-2.541-17.277-7.154-4.615-4.612-7.157-10.746-7.157-17.271,0-13.469,10.962-24.426,24.436-24.426s24.434,10.957,24.434,24.426-10.961,24.426-24.435,24.426ZM44.384,118.145c-13.263,0-24.053,10.785-24.053,24.043,0,6.422,2.501,12.459,7.044,17.001,4.543,4.541,10.583,7.042,17.008,7.042,13.263,0,24.053-10.785,24.053-24.043s-10.79-24.043-24.052-24.043Z" fill="#fff"/><path d="M44.383,117.825c13.438,0,24.372,10.929,24.372,24.363s-10.934,24.363-24.373,24.363c-6.51,0-12.63-2.534-17.234-7.136-4.604-4.602-7.138-10.72-7.138-17.227,0-13.434,10.934-24.363,24.373-24.363M44.382,166.294c13.297,0,24.115-10.814,24.115-24.106s-10.818-24.106-24.114-24.106-24.115,10.814-24.115,24.106c0,6.439,2.508,12.492,7.063,17.045,4.555,4.553,10.61,7.061,17.052,7.061M44.383,117.7c-13.508,0-24.498,10.985-24.498,24.488,0,6.541,2.548,12.69,7.175,17.315,4.627,4.625,10.779,7.173,17.322,7.173,13.508,0,24.498-10.985,24.498-24.488s-10.989-24.488-24.497-24.488h0ZM44.382,166.169c-6.407,0-12.432-2.494-16.963-7.024-4.531-4.53-7.026-10.552-7.026-16.957,0-13.223,10.762-23.981,23.99-23.981s23.989,10.758,23.989,23.981-10.762,23.981-23.99,23.981h0Z" fill="#fff"/><path d="M44.383,161.885c-5.263,0-10.211-2.049-13.933-5.77s-5.771-8.667-5.771-13.928c0-10.861,8.84-19.697,19.705-19.697,5.264,0,10.212,2.049,13.933,5.77,3.717,3.715,5.766,8.654,5.771,13.908,0,10.881-8.84,19.717-19.704,19.717ZM44.384,122.874c-10.654,0-19.322,8.664-19.322,19.314,0,5.159,2.009,10.009,5.658,13.657s8.502,5.657,13.663,5.657c10.644,0,19.312-8.655,19.323-19.295,0-5.178-2.01-10.028-5.659-13.677-3.65-3.648-8.503-5.657-13.663-5.657Z" fill="#fff"/><path d="M44.383,122.554c5.247,0,10.179,2.042,13.889,5.751,3.705,3.704,5.747,8.627,5.752,13.864.001.007.001.013.001.02h-.001.001c-.001,10.826-8.814,19.634-19.643,19.634-5.246,0-10.179-2.043-13.889-5.751-3.71-3.709-5.753-8.639-5.752-13.883,0-10.827,8.812-19.635,19.642-19.635M44.382,161.565c10.681,0,19.374-8.682,19.386-19.358-.001-.007-.002-.013-.002-.019,0-5.176-2.016-10.042-5.676-13.702-3.661-3.66-8.529-5.675-13.707-5.675-10.689,0-19.385,8.692-19.385,19.377,0,5.175,2.016,10.041,5.677,13.701,3.661,3.66,8.529,5.675,13.707,5.675M64.027,142.188h-.002.002M44.383,122.429c-10.9,0-19.767,8.864-19.767,19.76,0,5.277,2.055,10.239,5.789,13.972,3.734,3.732,8.698,5.787,13.977,5.787,10.899,0,19.767-8.864,19.768-19.759v-.125s-.003,0-.003,0c-.025-5.22-2.079-10.141-5.787-13.847-3.733-3.732-8.697-5.788-13.977-5.788h0ZM44.382,161.44c-5.144,0-9.981-2.003-13.618-5.639-3.638-3.636-5.641-8.471-5.64-13.613,0-10.616,8.64-19.252,19.26-19.252,5.144,0,9.981,2.003,13.618,5.639,3.637,3.636,5.64,8.471,5.64,13.613v.01l.003.029c-.013,10.586-8.654,19.214-19.262,19.214h0Z" fill="#fff"/><path d="M44.383,157.156c-4,0-7.761-1.557-10.588-4.384-2.828-2.827-4.386-6.586-4.386-10.584,0-8.253,6.718-14.968,14.975-14.968s14.974,6.715,14.974,14.968c0,8.253-6.719,14.968-14.975,14.968ZM44.384,127.602c-8.046,0-14.592,6.543-14.592,14.586,0,3.896,1.518,7.559,4.272,10.313,2.758,2.755,6.422,4.272,10.318,4.272,8.045,0,14.591-6.543,14.592-14.586,0-8.043-6.546-14.586-14.591-14.586Z" fill="#fff"/><path d="M44.383,127.283c8.222,0,14.911,6.687,14.911,14.906-.001,8.219-6.691,14.905-14.912,14.905-3.983,0-7.727-1.55-10.544-4.366-2.817-2.815-4.367-6.558-4.367-10.54,0-8.219,6.689-14.906,14.911-14.906M44.382,156.836c8.08,0,14.654-6.571,14.655-14.648,0-8.077-6.574-14.648-14.654-14.648s-14.654,6.571-14.654,14.648c0,3.912,1.523,7.591,4.291,10.358,2.768,2.767,6.448,4.29,10.362,4.29M59.166,142.188h.003-.003M44.383,127.158c-8.291,0-15.036,6.743-15.036,15.031,0,4.015,1.563,7.789,4.404,10.628,2.84,2.839,6.616,4.402,10.632,4.402,8.291,0,15.036-6.743,15.037-15.03,0-8.288-6.745-15.031-15.036-15.031h0ZM44.382,156.711c-3.881,0-7.529-1.511-10.273-4.254-2.744-2.743-4.255-6.39-4.255-10.269,0-8.008,6.518-14.524,14.529-14.524s14.529,6.515,14.529,14.523c-.001,8.008-6.519,14.523-14.53,14.523h0Z" fill="#fff"/><path d="M44.383,152.428c-5.648,0-10.243-4.594-10.243-10.24s4.596-10.239,10.244-10.239,10.243,4.594,10.243,10.239c0,5.646-4.597,10.24-10.244,10.24ZM44.384,132.332c-5.438,0-9.861,4.422-9.861,9.856s4.423,9.857,9.86,9.857,9.861-4.422,9.862-9.857c0-5.435-4.424-9.856-9.861-9.856Z" fill="#fff"/><path d="M44.383,132.011c5.614,0,10.181,4.565,10.181,10.177-.001,5.612-4.568,10.177-10.182,10.177s-10.18-4.565-10.18-10.177,4.567-10.177,10.181-10.177M44.382,152.108c5.471,0,9.924-4.45,9.925-9.92,0-5.47-4.452-9.92-9.924-9.92s-9.924,4.45-9.924,9.92,4.451,9.92,9.923,9.92M54.436,142.188h.003-.003M44.383,131.886c-5.683,0-10.306,4.621-10.306,10.302s4.623,10.302,10.305,10.302,10.306-4.621,10.307-10.302c0-5.681-4.623-10.302-10.306-10.302h0ZM44.382,151.983c-5.402,0-9.798-4.394-9.798-9.795s4.396-9.795,9.799-9.795,9.799,4.394,9.799,9.795c-.001,5.401-4.397,9.795-9.8,9.795h0Z" fill="#fff"/><path d="M44.383,147.699c-3.04,0-5.513-2.472-5.513-5.511s2.474-5.511,5.514-5.511,5.513,2.472,5.513,5.511-2.474,5.511-5.514,5.511ZM44.384,137.059c-2.829,0-5.131,2.301-5.131,5.129s2.301,5.129,5.13,5.129,5.131-2.301,5.131-5.129-2.301-5.129-5.13-5.129Z" fill="#fff"/><path d="M44.383,136.74c3.005,0,5.45,2.444,5.45,5.449s-2.445,5.448-5.451,5.448-5.45-2.444-5.45-5.448,2.445-5.449,5.451-5.449M44.382,147.379c2.864,0,5.194-2.329,5.194-5.191s-2.33-5.191-5.193-5.191-5.193,2.329-5.193,5.191,2.329,5.191,5.192,5.191M44.383,136.615c-3.074,0-5.576,2.5-5.576,5.574s2.501,5.573,5.575,5.573,5.576-2.5,5.576-5.573-2.501-5.574-5.575-5.574h0ZM44.382,147.254c-2.794,0-5.067-2.273-5.067-5.066s2.274-5.066,5.068-5.066,5.068,2.273,5.068,5.066-2.274,5.066-5.069,5.066h0Z" fill="#fff"/><path d="M21.654,165.073l-.109-.055c-.075-.075-.075-.197,0-.271l19.716-19.708c.821-.822,1.959-1.293,3.121-1.293,1.181,0,2.29.459,3.122,1.293l19.716,19.708c.075.074.075.196,0,.271l-.018.019-.117.037c-.05,0-.098-.02-.134-.055l-19.717-19.71c-.762-.761-1.775-1.18-2.853-1.18-1.062,0-2.102.43-2.852,1.18l-19.734,19.728-.115.037h-.026Z" fill="#fff"/><path d="M44.381,143.808c1.163,0,2.257.452,3.078,1.274l19.716,19.709c.05.05.05.132,0,.182-.025.025-.058.038-.091.038s-.066-.013-.091-.038l-19.716-19.709c-.773-.773-1.801-1.199-2.896-1.199-1.078,0-2.133.437-2.895,1.199l-19.716,19.709c-.025.025-.058.038-.091.038-.033,0-.066-.013-.091-.038-.05-.05-.05-.132,0-.182l19.716-19.709c.809-.809,1.931-1.274,3.077-1.274M44.381,143.683c-1.179,0-2.332.478-3.165,1.311l-19.716,19.709c-.099.099-.099.26,0,.359.048.048.112.074.18.074s.131-.026.179-.074l19.716-19.709c.738-.738,1.761-1.162,2.806-1.162,1.061,0,2.059.413,2.808,1.162l19.716,19.709c.048.048.112.074.179.074s.131-.026.179-.074c.048-.048.074-.112.074-.179s-.026-.131-.074-.179l-19.716-19.709c-.845-.845-1.97-1.311-3.167-1.311h0Z" fill="#fff"/><path d="M44.382,140.632c-1.162,0-2.3-.471-3.121-1.293l-19.734-19.727-.038-.117c0-.052.021-.1.057-.136l.019-.018.116-.037c.051,0,.1.02.135.056l19.716,19.709c.751.75,1.79,1.18,2.852,1.18s2.102-.43,2.853-1.18l19.733-19.728.117-.038c.051,0,.099.021.135.057l.019.018.038.117c0,.052-.021.1-.057.136l-19.716,19.708c-.821.822-1.959,1.293-3.122,1.293Z" fill="#fff"/><path d="M21.679,119.366c.033,0,.066.013.091.038l19.716,19.709c.762.762,1.817,1.199,2.895,1.199s2.134-.437,2.896-1.199l19.716-19.709c.025-.025.058-.038.091-.038.033,0,.066.013.091.038.05.05.05.132,0,.182l-19.716,19.709c-.81.809-1.932,1.274-3.078,1.274s-2.267-.465-3.077-1.274l-19.716-19.709c-.05-.05-.05-.132,0-.182.025-.025.058-.038.091-.038M21.679,119.241c-.068,0-.131.026-.179.074-.099.099-.099.26,0,.359l19.716,19.709c.833.833,1.987,1.311,3.165,1.311s2.333-.478,3.167-1.311l19.716-19.709c.048-.048.074-.112.074-.179s-.026-.131-.074-.179c-.048-.048-.112-.074-.18-.074s-.131.026-.179.074l-19.716,19.709c-.739.738-1.762,1.162-2.808,1.162s-2.068-.424-2.806-1.162l-19.716-19.709c-.048-.048-.112-.074-.179-.074h0Z" fill="#fff"/><rect x="73.136" y="61.266" width="151.387" height="108.928" fill="#292929"/><rect x="227.365" y="61.266" width="65.594" height="108.928" fill="#d0d3d4"/><path d="M277.78,100.079v-21.838c0-1.578-.627-3.091-1.744-4.207l-7.61-7.607c-1.116-1.116-2.63-1.742-4.208-1.742h-21.845c-1.579,0-3.092.627-4.208,1.742l-7.61,7.607c-1.116,1.115-1.743,2.629-1.743,4.207v21.838c0,1.577.626,3.09,1.743,4.205l7.61,7.608c1.116,1.115,2.63,1.742,4.208,1.742h21.845c1.579,0,3.092-.627,4.208-1.742l7.61-7.608c1.116-1.115,1.744-2.629,1.744-4.205Z" fill="#292929" fill-rule="evenodd"/><path d="M268.173,89.16c0-8.214-6.662-14.872-14.878-14.872s-14.878,6.658-14.878,14.872c-.001,8.214,6.661,14.872,14.877,14.872s14.878-6.658,14.879-14.872Z" fill="#d0d3d4" fill-rule="evenodd"/><path d="M253.295,113.586c-6.526,0-12.662-2.541-17.277-7.154-4.616-4.614-7.157-10.748-7.156-17.271,0-13.468,10.961-24.426,24.435-24.426s24.435,10.958,24.435,24.426-10.962,24.426-24.436,24.426ZM253.296,65.117c-13.263,0-24.053,10.786-24.053,24.043,0,6.423,2.502,12.46,7.044,17.001,4.544,4.541,10.585,7.042,17.008,7.042,13.263,0,24.053-10.785,24.053-24.043s-10.79-24.043-24.052-24.043Z" fill="#fff"/><path d="M253.296,64.797c13.438,0,24.372,10.929,24.372,24.363s-10.934,24.363-24.373,24.363c-6.51,0-12.63-2.534-17.234-7.136-4.604-4.602-7.138-10.72-7.138-17.227,0-13.434,10.934-24.363,24.373-24.363M253.295,113.265c13.297,0,24.115-10.814,24.115-24.106s-10.818-24.106-24.114-24.106-24.115,10.814-24.115,24.106c0,6.439,2.508,12.492,7.063,17.045,4.555,4.553,10.61,7.061,17.052,7.061M253.296,64.672c-13.508,0-24.498,10.985-24.498,24.488,0,6.541,2.547,12.69,7.175,17.315,4.627,4.625,10.779,7.173,17.322,7.173,13.508,0,24.498-10.985,24.498-24.488s-10.989-24.488-24.497-24.488h0ZM253.295,113.14c-6.407,0-12.432-2.494-16.963-7.024-4.531-4.53-7.026-10.552-7.026-16.957,0-13.223,10.762-23.981,23.99-23.981s23.989,10.758,23.989,23.981-10.762,23.981-23.99,23.981h0Z" fill="#fff"/><path d="M253.295,108.856c-5.263,0-10.211-2.049-13.933-5.769-3.723-3.721-5.771-8.667-5.771-13.928,0-10.861,8.839-19.697,19.704-19.697,5.265,0,10.213,2.049,13.933,5.769,3.718,3.715,5.767,8.655,5.771,13.909,0,10.88-8.84,19.716-19.704,19.716ZM253.296,69.845c-10.654,0-19.322,8.665-19.322,19.315,0,5.159,2.01,10.009,5.658,13.657,3.65,3.648,8.503,5.657,13.663,5.657,10.644,0,19.312-8.655,19.323-19.295,0-5.18-2.011-10.03-5.659-13.677-3.649-3.648-8.502-5.658-13.663-5.658Z" fill="#fff"/><path d="M253.296,69.525c5.247,0,10.179,2.042,13.889,5.751,3.705,3.704,5.747,8.627,5.752,13.864,0,.007.001.013.001.02h-.001.001c-.001,10.826-8.814,19.634-19.643,19.634-5.246,0-10.179-2.043-13.889-5.751-3.71-3.709-5.753-8.639-5.752-13.883,0-10.827,8.812-19.635,19.642-19.635M253.295,108.537c10.681,0,19.374-8.682,19.386-19.358,0-.007-.002-.013-.002-.019,0-5.176-2.016-10.042-5.676-13.702-3.661-3.66-8.529-5.675-13.707-5.675-10.689,0-19.385,8.692-19.385,19.377,0,5.175,2.016,10.041,5.677,13.701s8.529,5.675,13.707,5.675M272.94,89.16h-.002.002M253.296,69.4c-10.9,0-19.767,8.864-19.767,19.76,0,5.277,2.055,10.239,5.789,13.972,3.734,3.732,8.698,5.787,13.977,5.787,10.899,0,19.767-8.864,19.768-19.759v-.125h-.003c-.026-5.22-2.079-10.141-5.787-13.847-3.733-3.732-8.697-5.787-13.977-5.787h0ZM253.295,108.412c-5.144,0-9.981-2.003-13.618-5.639-3.638-3.636-5.641-8.471-5.64-13.613,0-10.616,8.64-19.252,19.26-19.252,5.144,0,9.981,2.003,13.619,5.639,3.637,3.636,5.64,8.471,5.64,13.613v.009l.003.028c-.013,10.586-8.654,19.214-19.262,19.214h0Z" fill="#fff"/><path d="M253.295,104.128c-3.999,0-7.759-1.557-10.587-4.385-2.829-2.826-4.387-6.584-4.386-10.583,0-8.254,6.717-14.968,14.974-14.968s14.975,6.714,14.975,14.968c0,8.253-6.719,14.968-14.976,14.968ZM253.296,74.574c-8.045,0-14.591,6.543-14.591,14.586,0,3.896,1.517,7.559,4.272,10.313,2.757,2.755,6.421,4.272,10.317,4.272,8.046,0,14.592-6.543,14.593-14.586,0-8.043-6.546-14.586-14.592-14.586Z" fill="#fff"/><path d="M253.296,74.254c8.222,0,14.911,6.687,14.911,14.906,0,8.219-6.69,14.905-14.912,14.905-3.983,0-7.727-1.55-10.544-4.366-2.817-2.815-4.367-6.558-4.367-10.54,0-8.219,6.689-14.906,14.911-14.906M253.295,103.808c8.08,0,14.654-6.571,14.655-14.648,0-8.077-6.574-14.648-14.654-14.648s-14.654,6.571-14.654,14.648c0,3.912,1.523,7.591,4.291,10.358,2.768,2.767,6.448,4.29,10.362,4.29M268.079,89.16h.003-.003M253.296,74.129c-8.291,0-15.036,6.743-15.036,15.031,0,4.015,1.563,7.789,4.403,10.628,2.84,2.839,6.616,4.402,10.632,4.402,8.291,0,15.036-6.743,15.037-15.03,0-8.288-6.745-15.031-15.036-15.031h0ZM253.295,103.683c-3.881,0-7.529-1.511-10.273-4.254-2.744-2.743-4.255-6.39-4.255-10.269,0-8.008,6.518-14.524,14.529-14.524s14.529,6.515,14.529,14.523c0,8.008-6.519,14.523-14.53,14.523h0Z" fill="#fff"/><path d="M253.295,99.399c-5.647,0-10.242-4.594-10.242-10.239s4.595-10.24,10.243-10.24,10.244,4.593,10.244,10.24c0,5.646-4.597,10.239-10.245,10.239ZM253.296,79.302c-5.438,0-9.861,4.422-9.861,9.857s4.423,9.857,9.86,9.857,9.861-4.422,9.862-9.857c0-5.436-4.424-9.857-9.861-9.857Z" fill="#fff"/><path d="M253.296,78.983c5.614,0,10.181,4.565,10.181,10.177-.001,5.612-4.568,10.177-10.182,10.177s-10.18-4.565-10.18-10.177,4.567-10.177,10.181-10.177M253.295,99.079c5.471,0,9.924-4.45,9.925-9.92,0-5.47-4.452-9.92-9.924-9.92s-9.924,4.45-9.924,9.92,4.451,9.92,9.923,9.92M263.348,89.16h.003-.003M253.296,78.858c-5.683,0-10.306,4.621-10.306,10.302s4.623,10.302,10.305,10.302,10.306-4.621,10.307-10.302c0-5.681-4.623-10.302-10.306-10.302h0ZM253.295,98.954c-5.402,0-9.798-4.394-9.798-9.795s4.396-9.795,9.799-9.795,9.799,4.394,9.799,9.795c0,5.401-4.397,9.795-9.8,9.795h0Z" fill="#fff"/><path d="M253.295,94.671c-3.039,0-5.512-2.472-5.512-5.511s2.473-5.512,5.513-5.512,5.513,2.473,5.513,5.512-2.474,5.511-5.514,5.511ZM253.296,84.031c-2.829,0-5.131,2.301-5.131,5.129s2.301,5.128,5.13,5.128,5.132-2.301,5.132-5.128-2.302-5.129-5.131-5.129Z" fill="#fff"/><path d="M253.296,83.711c3.005,0,5.45,2.444,5.45,5.449s-2.445,5.448-5.451,5.448-5.45-2.444-5.45-5.448,2.445-5.449,5.451-5.449M253.295,94.351c2.864,0,5.194-2.329,5.194-5.191s-2.33-5.191-5.193-5.191-5.193,2.329-5.193,5.191,2.329,5.191,5.192,5.191M253.296,83.586c-3.074,0-5.576,2.5-5.576,5.574s2.501,5.573,5.575,5.573,5.576-2.5,5.576-5.573-2.501-5.574-5.575-5.574h0ZM253.295,94.226c-2.794,0-5.067-2.273-5.067-5.066s2.274-5.066,5.068-5.066,5.068,2.273,5.068,5.066-2.274,5.066-5.069,5.066h0Z" fill="#fff"/><path d="M275.972,112.045l-.109-.057-19.716-19.708c-.761-.762-1.773-1.181-2.853-1.181-1.061,0-2.1.431-2.851,1.181l-19.734,19.727-.116.038c-.052,0-.1-.021-.136-.057-.074-.074-.074-.195,0-.27l19.717-19.709c.819-.821,1.957-1.292,3.12-1.292,1.181,0,2.289.459,3.122,1.292l19.717,19.709c.074.074.074.195,0,.27l-.018.019-.117.038h-.026Z" fill="#fff"/><path d="M253.294,90.78c1.163,0,2.257.452,3.078,1.274l19.716,19.709c.05.05.05.132,0,.182-.025.025-.058.038-.091.038s-.066-.013-.091-.038l-19.716-19.709c-.773-.773-1.801-1.199-2.896-1.199-1.078,0-2.133.437-2.895,1.199l-19.716,19.709c-.025.025-.058.038-.091.038-.033,0-.066-.013-.091-.038-.05-.05-.05-.132,0-.182l19.716-19.709c.809-.809,1.931-1.274,3.077-1.274M253.294,90.655c-1.179,0-2.332.478-3.165,1.311l-19.716,19.709c-.099.099-.099.26,0,.359.048.048.112.074.18.074s.131-.026.179-.074l19.716-19.709c.738-.738,1.761-1.162,2.806-1.162,1.061,0,2.059.413,2.808,1.162l19.716,19.709c.048.048.111.074.179.074s.131-.026.179-.074c.048-.048.074-.112.074-.179s-.026-.131-.074-.179l-19.716-19.709c-.845-.845-1.97-1.311-3.167-1.311h0Z" fill="#fff"/><path d="M253.294,87.602c-1.162,0-2.3-.471-3.12-1.292l-19.717-19.708c-.074-.075-.074-.196,0-.271l.018-.019.117-.037c.052,0,.1.02.136.055l19.716,19.709c.751.75,1.79,1.181,2.851,1.181s2.102-.431,2.853-1.181l19.734-19.727.116-.038c.052,0,.1.02.136.056.074.075.074.196,0,.271l-19.717,19.709c-.82.821-1.959,1.292-3.122,1.292Z" fill="#fff"/><path d="M230.592,66.338c.033,0,.066.013.091.038l19.716,19.709c.762.762,1.817,1.199,2.895,1.199s2.134-.437,2.896-1.199l19.716-19.709c.025-.025.058-.038.091-.038.033,0,.066.013.091.038.05.05.05.132,0,.182l-19.716,19.709c-.81.809-1.932,1.274-3.078,1.274s-2.267-.465-3.077-1.274l-19.716-19.709c-.05-.05-.05-.132,0-.182.025-.025.058-.038.091-.038M275.997,66.213h0c-.068,0-.131.026-.179.074l-19.716,19.709c-.739.738-1.762,1.162-2.808,1.162s-2.068-.424-2.806-1.162l-19.716-19.709c-.048-.048-.112-.074-.179-.074s-.131.026-.179.074c-.099.099-.099.26,0,.359l19.716,19.709c.833.833,1.987,1.311,3.165,1.311s2.333-.478,3.167-1.311l19.716-19.709c.048-.048.074-.112.074-.179s-.026-.131-.074-.179c-.048-.048-.112-.074-.18-.074h0Z" fill="#fff"/><path d="M277.78,153.107v-21.838c0-1.578-.627-3.091-1.744-4.207l-7.61-7.607c-1.116-1.116-2.63-1.742-4.208-1.742h-21.845c-1.579,0-3.092.627-4.208,1.742l-7.61,7.607c-1.116,1.115-1.743,2.629-1.743,4.207v21.838c0,1.577.626,3.09,1.743,4.205l7.61,7.608c1.116,1.115,2.63,1.742,4.208,1.742h21.845c1.579,0,3.092-.627,4.208-1.742l7.61-7.608c1.116-1.115,1.744-2.629,1.744-4.205Z" fill="#292929" fill-rule="evenodd"/><path d="M268.173,142.188c0-8.214-6.662-14.872-14.878-14.872s-14.878,6.658-14.878,14.872c-.001,8.214,6.661,14.872,14.877,14.872s14.878-6.658,14.879-14.872Z" fill="#d0d3d4" fill-rule="evenodd"/><path d="M253.295,166.614c-6.526,0-12.662-2.541-17.277-7.154-4.616-4.613-7.157-10.747-7.156-17.271,0-13.469,10.961-24.426,24.435-24.426s24.435,10.957,24.435,24.426-10.962,24.426-24.436,24.426ZM253.296,118.145c-13.263,0-24.053,10.785-24.053,24.043,0,6.423,2.502,12.46,7.044,17.001,4.544,4.541,10.584,7.042,17.008,7.042,13.263,0,24.053-10.785,24.053-24.043s-10.79-24.043-24.052-24.043Z" fill="#fff"/><path d="M253.296,117.825c13.438,0,24.372,10.929,24.372,24.363s-10.934,24.363-24.373,24.363c-6.51,0-12.63-2.534-17.234-7.136-4.604-4.602-7.138-10.72-7.138-17.227,0-13.434,10.934-24.363,24.373-24.363M253.295,166.294c13.297,0,24.115-10.814,24.115-24.106s-10.818-24.106-24.114-24.106-24.115,10.814-24.115,24.106c0,6.439,2.508,12.492,7.063,17.045,4.555,4.553,10.61,7.061,17.052,7.061M253.296,117.7c-13.508,0-24.498,10.985-24.498,24.488,0,6.541,2.547,12.69,7.175,17.315,4.627,4.625,10.779,7.173,17.322,7.173,13.508,0,24.498-10.985,24.498-24.488s-10.989-24.488-24.497-24.488h0ZM253.295,166.169c-6.407,0-12.432-2.494-16.963-7.024-4.531-4.53-7.026-10.552-7.026-16.957,0-13.223,10.762-23.981,23.99-23.981s23.989,10.758,23.989,23.981-10.762,23.981-23.99,23.981h0Z" fill="#fff"/><path d="M253.295,161.885c-5.263,0-10.211-2.049-13.933-5.77-3.723-3.721-5.771-8.667-5.771-13.928,0-10.861,8.839-19.697,19.704-19.697,5.265,0,10.213,2.049,13.933,5.77,3.718,3.715,5.767,8.654,5.771,13.908,0,10.881-8.84,19.717-19.704,19.717ZM253.296,122.874c-10.654,0-19.322,8.664-19.322,19.314,0,5.16,2.01,10.01,5.658,13.657,3.65,3.648,8.503,5.657,13.663,5.657,10.644,0,19.312-8.655,19.323-19.295,0-5.18-2.011-10.029-5.659-13.677-3.649-3.648-8.502-5.657-13.663-5.657Z" fill="#fff"/><path d="M253.296,122.554c5.247,0,10.179,2.042,13.889,5.751,3.705,3.704,5.747,8.627,5.752,13.864,0,.007.001.013.001.02h-.001.001c-.001,10.826-8.814,19.634-19.643,19.634-5.246,0-10.179-2.043-13.889-5.751-3.71-3.709-5.753-8.639-5.752-13.883,0-10.827,8.812-19.635,19.642-19.635M253.295,161.565c10.681,0,19.374-8.682,19.386-19.358,0-.007-.002-.013-.002-.019,0-5.176-2.016-10.042-5.676-13.702-3.661-3.66-8.529-5.675-13.707-5.675-10.689,0-19.385,8.692-19.385,19.377,0,5.175,2.016,10.041,5.677,13.701,3.661,3.66,8.529,5.675,13.707,5.675M272.94,142.188h-.002.002M253.296,122.429c-10.9,0-19.767,8.864-19.767,19.76,0,5.277,2.055,10.239,5.789,13.972,3.734,3.732,8.698,5.787,13.977,5.787,10.899,0,19.767-8.864,19.768-19.759v-.125h-.003c-.026-5.22-2.079-10.141-5.787-13.847-3.733-3.732-8.697-5.788-13.977-5.788h0ZM253.295,161.44c-5.144,0-9.981-2.003-13.618-5.639-3.638-3.636-5.641-8.471-5.64-13.613,0-10.616,8.64-19.252,19.26-19.252,5.144,0,9.981,2.003,13.619,5.639,3.637,3.636,5.64,8.471,5.64,13.613v.009l.003.028c-.013,10.586-8.654,19.214-19.262,19.214h0Z" fill="#fff"/><path d="M253.295,157.156c-3.999,0-7.76-1.557-10.587-4.384-2.829-2.827-4.387-6.586-4.386-10.584,0-8.253,6.717-14.968,14.974-14.968s14.975,6.715,14.975,14.968c0,8.253-6.719,14.968-14.976,14.968ZM253.296,127.602c-8.045,0-14.591,6.543-14.591,14.586,0,3.896,1.517,7.559,4.272,10.313,2.757,2.755,6.421,4.272,10.317,4.272,8.046,0,14.592-6.543,14.593-14.586,0-8.043-6.546-14.586-14.592-14.586Z" fill="#fff"/><path d="M253.296,127.283c8.222,0,14.911,6.687,14.911,14.906,0,8.219-6.69,14.905-14.912,14.905-3.983,0-7.727-1.55-10.544-4.366-2.817-2.815-4.367-6.558-4.367-10.54,0-8.219,6.689-14.906,14.911-14.906M253.295,156.836c8.08,0,14.654-6.571,14.655-14.648,0-8.077-6.574-14.648-14.654-14.648s-14.654,6.571-14.654,14.648c0,3.912,1.523,7.591,4.291,10.358,2.768,2.767,6.448,4.29,10.362,4.29M268.079,142.188h.003-.003M253.296,127.158c-8.291,0-15.036,6.743-15.036,15.031,0,4.015,1.563,7.789,4.403,10.628,2.84,2.839,6.616,4.402,10.632,4.402,8.291,0,15.036-6.743,15.037-15.03,0-8.288-6.745-15.031-15.036-15.031h0ZM253.295,156.711c-3.881,0-7.529-1.511-10.273-4.254-2.744-2.743-4.255-6.39-4.255-10.269,0-8.008,6.518-14.524,14.529-14.524s14.529,6.515,14.529,14.523c0,8.008-6.519,14.523-14.53,14.523h0Z" fill="#fff"/><path d="M253.295,152.428c-5.647,0-10.242-4.594-10.242-10.24s4.595-10.239,10.243-10.239,10.244,4.594,10.244,10.239c0,5.646-4.597,10.24-10.245,10.24ZM253.296,132.332c-5.438,0-9.861,4.422-9.861,9.856s4.423,9.857,9.86,9.857,9.861-4.422,9.862-9.857c0-5.435-4.424-9.856-9.861-9.856Z" fill="#fff"/><path d="M253.296,132.011c5.614,0,10.181,4.565,10.181,10.177-.001,5.612-4.568,10.177-10.182,10.177s-10.18-4.565-10.18-10.177,4.567-10.177,10.181-10.177M253.295,152.108c5.471,0,9.924-4.45,9.925-9.92,0-5.47-4.452-9.92-9.924-9.92s-9.924,4.45-9.924,9.92,4.451,9.92,9.923,9.92M263.348,142.188h.003-.003M253.296,131.886c-5.683,0-10.306,4.621-10.306,10.302s4.623,10.302,10.305,10.302,10.306-4.621,10.307-10.302c0-5.681-4.623-10.302-10.306-10.302h0ZM253.295,151.983c-5.402,0-9.798-4.394-9.798-9.795s4.396-9.795,9.799-9.795,9.799,4.394,9.799,9.795c0,5.401-4.397,9.795-9.8,9.795h0Z" fill="#fff"/><path d="M253.295,147.699c-3.039,0-5.512-2.472-5.512-5.511s2.473-5.511,5.513-5.511,5.513,2.472,5.513,5.511-2.474,5.511-5.514,5.511ZM253.296,137.059c-2.829,0-5.131,2.301-5.131,5.129s2.301,5.129,5.13,5.129,5.132-2.301,5.132-5.129-2.302-5.129-5.131-5.129Z" fill="#fff"/><path d="M253.296,136.74c3.005,0,5.45,2.444,5.45,5.449s-2.445,5.448-5.451,5.448-5.45-2.444-5.45-5.448,2.445-5.449,5.451-5.449M253.295,147.379c2.864,0,5.194-2.329,5.194-5.191s-2.33-5.191-5.193-5.191-5.193,2.329-5.193,5.191,2.329,5.191,5.192,5.191M253.296,136.615c-3.074,0-5.576,2.5-5.576,5.574s2.501,5.573,5.575,5.573,5.576-2.5,5.576-5.573-2.501-5.574-5.575-5.574h0ZM253.295,147.254c-2.794,0-5.067-2.273-5.067-5.066s2.274-5.066,5.068-5.066,5.068,2.273,5.068,5.066-2.274,5.066-5.069,5.066h0Z" fill="#fff"/><path d="M230.567,165.073l-.11-.055c-.073-.075-.073-.197,0-.271l19.718-19.708c.82-.821,1.958-1.293,3.12-1.293,1.181,0,2.29.459,3.122,1.293l19.717,19.708c.073.074.073.196,0,.271l-.019.019-.117.037c-.051,0-.099-.02-.135-.055l-19.717-19.71c-.761-.761-1.774-1.18-2.853-1.18-1.062,0-2.101.43-2.851,1.18l-19.734,19.728-.116.037h-.025Z" fill="#fff"/><path d="M253.294,143.808c1.163,0,2.257.452,3.078,1.274l19.716,19.709c.05.05.05.132,0,.182-.025.025-.058.038-.091.038s-.066-.013-.091-.038l-19.716-19.709c-.773-.773-1.801-1.199-2.896-1.199-1.078,0-2.133.437-2.895,1.199l-19.716,19.709c-.025.025-.058.038-.091.038-.033,0-.066-.013-.091-.038-.05-.05-.05-.132,0-.182l19.716-19.709c.809-.809,1.931-1.274,3.077-1.274M253.294,143.683c-1.179,0-2.332.478-3.165,1.311l-19.716,19.709c-.099.099-.099.26,0,.359.048.048.112.074.18.074s.131-.026.179-.074l19.716-19.709c.738-.738,1.761-1.162,2.806-1.162,1.061,0,2.059.413,2.808,1.162l19.716,19.709c.048.048.112.074.179.074s.131-.026.179-.074c.048-.048.074-.112.074-.179s-.026-.131-.074-.179l-19.716-19.709c-.845-.845-1.97-1.311-3.167-1.311h0Z" fill="#fff"/><path d="M253.294,140.632c-1.161,0-2.299-.471-3.12-1.293l-19.717-19.709c-.074-.074-.074-.195,0-.27l.018-.019.117-.037c.052,0,.1.02.136.055l19.716,19.71c.75.75,1.789,1.18,2.851,1.18s2.103-.43,2.853-1.18l19.734-19.728.116-.038c.052,0,.1.021.136.057.074.074.074.195,0,.27l-19.717,19.709c-.821.822-1.959,1.293-3.122,1.293Z" fill="#fff"/><path d="M230.592,119.366c.033,0,.066.013.091.038l19.716,19.709c.762.762,1.817,1.199,2.895,1.199s2.134-.437,2.896-1.199l19.716-19.709c.025-.025.058-.038.091-.038.033,0,.066.013.091.038.05.05.05.132,0,.182l-19.716,19.709c-.81.809-1.932,1.274-3.078,1.274s-2.267-.465-3.077-1.274l-19.716-19.709c-.05-.05-.05-.132,0-.182.025-.025.058-.038.091-.038M230.592,119.241c-.068,0-.131.026-.179.074-.099.099-.099.26,0,.359l19.716,19.709c.833.833,1.987,1.311,3.165,1.311s2.333-.478,3.167-1.311l19.716-19.709c.048-.048.074-.112.074-.179s-.026-.131-.074-.179c-.048-.048-.112-.074-.18-.074s-.131.026-.179.074l-19.716,19.709c-.739.738-1.762,1.162-2.808,1.162s-2.068-.424-2.806-1.162l-19.716-19.709c-.048-.048-.112-.074-.179-.074h0Z" fill="#fff"/><g id="c"><rect x="80.373" y="63.446" width="136.72" height="23.062" rx=".761" ry=".761" fill="#d0d3d4" stroke="#fff" stroke-miterlimit="10" stroke-width=".5"/><path d="M103.99,81.672h8.262c.319,0,.578-.259.578-.578h0v-12.225c0-.319-.259-.578-.578-.578h-8.262c-.319,0-.578.259-.578.578v12.225c0,.319.259.578.578.578Z" fill="#a2aaad"/><path d="M111.592,71.926v-1.817c0-.183-.148-.33-.33-.33h-6.279c-.182,0-.33.148-.33.33v1.817h6.94Z" fill="#101820"/><path d="M111.592,71.926h-6.94v7.764c0,.182.148.33.33.33h6.279c.183,0,.33-.148.33-.33h0v-7.764Z" fill="#333f48"/><path d="M108.106,75.161c.096,0,.191-.064.191-.159v-1.369c0-.096-.096-.159-.191-.159s-.159.064-.159.159v1.369c0,.096.064.159.159.159M108.743,77.518c0-.35-.287-.605-.637-.605-.318,0-.605.255-.605.605s.287.605.605.605c.35,0,.637-.255.637-.605ZM109.093,77.518c0-.541-.446-.955-.987-.955-.51,0-.955.414-.955.955s.446.955.955.955c.541,0,.987-.414.987-.955Z" fill="#fff" fill-rule="evenodd"/><path d="M116.865,85.237h21.201c.313,0,.569-.256.569-.572h0v-19.367c0-.316-.255-.572-.569-.572h-21.201c-.315,0-.569.256-.569.572v19.367c0,.316.254.572.569.572Z" fill="#a2aaad" fill-rule="evenodd"/><circle cx="124.65" cy="83.524" r="1.01" fill="#101820"/><circle cx="130.714" cy="83.524" r="1.01" fill="#101820"/><path d="M130.888,81.341c0-.087-.087-.173-.173-.173s-.173.087-.173.173.087.173.173.173.173-.087.173-.173Z" fill="#101820" fill-rule="evenodd"/><path d="M130.888,79.825c0-.087-.087-.173-.173-.173s-.173.087-.173.173l.087,1.213c.043,0,.043.043.087.043s.087-.043.087-.043l.087-1.213Z" fill="#101820" fill-rule="evenodd"/><path d="M124.65,79.329c-.688,0-1.247.561-1.247,1.254s.557,1.254,1.245,1.254c.688,0,1.248-.561,1.248-1.254s-.558-1.254-1.247-1.254ZM124.521,79.557c.44-.055.866.178,1.056.581l-.702.707-.291-1.092-.954.959c-.071-.567.329-1.084.892-1.155ZM124.773,81.61c-.437.053-.858-.179-1.049-.578l.708-.713.291,1.092.946-.952c.068.567-.334,1.082-.897,1.151Z" fill="#101820" fill-rule="evenodd"/><path d="M82.752,86.679h16.971c.23,0,.417-.187.417-.418h0v-22.097c0-.231-.187-.418-.417-.418h-16.971c-.23,0-.416.187-.416.418v22.097c0,.231.186.418.416.418Z" fill="#a2aaad" fill-rule="evenodd"/><path d="M98.518,83.163v-15.903c0-1.155-.931-2.092-2.08-2.092h-10.399c-1.149,0-2.08.937-2.08,2.092v15.903c0,1.156.931,2.092,2.08,2.092h10.399c1.149,0,2.08-.937,2.08-2.092h0Z" fill="#101820" fill-rule="evenodd"/><rect x="93.332" y="68.944" width="1.359" height="4.282" fill="#fff"/><rect x="87.786" y="73.071" width="1.358" height="4.284" fill="#fff"/><rect x="93.332" y="77.197" width="1.359" height="4.284" fill="#fff"/><rect x="100.141" y="71.638" width="3.271" height="6.687" fill="#101820"/></g><g id="d"><rect x="212.361" y="86.434" width="6.797" height="1.167" fill="#f1f1f2"/><rect x="131.63" y="83.266" width="3.315" height="5.003" fill="#595959"/><rect x="168.017" y="84.933" width="44.343" height="3.335" fill="#595959"/><rect x="166.857" y="84.933" width="1.16" height="3.335" fill="#595959"/><rect x="80.945" y="84.933" width="33.031" height="3.335" fill="#595959"/><rect x="113.975" y="84.933" width="1.16" height="3.335" fill="#595959"/><path d="M148.48,84.933c-.677,0-1.35-.083-2.006-.248l-4.674-1.172c-.656-.165-1.329-.248-2.005-.248h-5.016c-.183,0-.331.149-.331.334v4.336c0,.184.149.334.331.334h32.077v-3.335h-18.377Z" fill="#666" fill-rule="evenodd"/><path d="M137.101,87.768h27.933v-2.335h-16.554c-.716,0-1.43-.088-2.126-.263l-4.674-1.172c-.616-.155-1.25-.233-1.885-.233h-2.694v4.002Z" fill="#f4855c" fill-rule="evenodd"/><polygon points="140.977 85.734 139.543 85.078 139.54 86.456 140.977 85.734" fill="#595959" fill-rule="evenodd"/><path d="M126.789,84.933h-11.653v3.335h16.661c.183,0,.331-.149.331-.334h0v-4.336c0-.184-.149-.334-.331-.334h-2.289c-.183,0-.361.061-.505.173l-1.708,1.322c-.145.112-.322.173-.506.173Z" fill="#666" fill-rule="evenodd"/><rect x="78.501" y="86.017" width="4.973" height="2.251" fill="#666"/><rect x="212.361" y="87.602" width="6.216" height=".667" fill="#ccc"/></g><g id="e"><rect x="80.373" y="143.191" width="136.72" height="23.062" rx=".761" ry=".761" fill="#d0d3d4" stroke="#fff" stroke-miterlimit="10" stroke-width=".5"/><path d="M103.99,161.417h8.262c.319,0,.578-.259.578-.578h0v-12.225c0-.319-.259-.578-.578-.578h-8.262c-.319,0-.578.259-.578.578v12.225c0,.319.259.578.578.578Z" fill="#a2aaad"/><path d="M111.592,151.671v-1.817c0-.183-.148-.33-.33-.33h-6.279c-.182,0-.33.148-.33.33v1.817h6.94Z" fill="#101820"/><path d="M111.592,151.671h-6.94v7.764c0,.182.148.33.33.33h6.279c.183,0,.33-.148.33-.33h0v-7.764Z" fill="#333f48"/><path d="M108.106,154.906c.096,0,.191-.064.191-.159v-1.369c0-.096-.096-.159-.191-.159s-.159.064-.159.159v1.369c0,.096.064.159.159.159M108.743,157.263c0-.35-.287-.605-.637-.605-.318,0-.605.255-.605.605s.287.605.605.605c.35,0,.637-.255.637-.605ZM109.093,157.263c0-.541-.446-.955-.987-.955-.51,0-.955.414-.955.955s.446.955.955.955c.541,0,.987-.414.987-.955Z" fill="#fff" fill-rule="evenodd"/><path d="M116.865,164.982h21.201c.313,0,.569-.256.569-.572h0v-19.367c0-.316-.255-.572-.569-.572h-21.201c-.315,0-.569.256-.569.572v19.367c0,.316.254.572.569.572Z" fill="#a2aaad" fill-rule="evenodd"/><circle cx="124.65" cy="163.269" r="1.01" fill="#101820"/><circle cx="130.714" cy="163.269" r="1.01" fill="#101820"/><path d="M130.888,161.086c0-.087-.087-.173-.173-.173s-.173.087-.173.173.087.173.173.173.173-.087.173-.173Z" fill="#101820" fill-rule="evenodd"/><path d="M130.888,159.57c0-.087-.087-.173-.173-.173s-.173.087-.173.173l.087,1.213c.043,0,.043.043.087.043s.087-.043.087-.043l.087-1.213Z" fill="#101820" fill-rule="evenodd"/><path d="M124.65,159.074c-.688,0-1.247.561-1.247,1.254s.557,1.254,1.245,1.254c.688,0,1.248-.561,1.248-1.254s-.558-1.254-1.247-1.254ZM124.521,159.302c.44-.055.866.178,1.056.581l-.702.707-.291-1.092-.954.959c-.071-.567.329-1.084.892-1.155ZM124.773,161.355c-.437.053-.858-.179-1.049-.578l.708-.713.291,1.092.946-.952c.068.567-.334,1.082-.897,1.151Z" fill="#101820" fill-rule="evenodd"/><path d="M82.752,166.424h16.971c.23,0,.417-.187.417-.418h0v-22.097c0-.231-.187-.418-.417-.418h-16.971c-.23,0-.416.187-.416.418v22.097c0,.231.186.418.416.418Z" fill="#a2aaad" fill-rule="evenodd"/><path d="M98.518,162.908v-15.903c0-1.155-.931-2.092-2.08-2.092h-10.399c-1.149,0-2.08.937-2.08,2.092v15.903c0,1.156.931,2.092,2.08,2.092h10.399c1.149,0,2.08-.937,2.08-2.092h0Z" fill="#101820" fill-rule="evenodd"/><rect x="93.332" y="148.689" width="1.359" height="4.282" fill="#fff"/><rect x="87.786" y="152.816" width="1.358" height="4.284" fill="#fff"/><rect x="93.332" y="156.942" width="1.359" height="4.284" fill="#fff"/><rect x="100.141" y="151.383" width="3.271" height="6.687" fill="#101820"/></g><g id="f"><rect x="212.361" y="166.179" width="6.797" height="1.167" fill="#f1f1f2"/><rect x="131.63" y="163.011" width="3.315" height="5.003" fill="#595959"/><rect x="168.017" y="164.678" width="44.343" height="3.335" fill="#595959"/><rect x="166.857" y="164.678" width="1.16" height="3.335" fill="#595959"/><rect x="80.945" y="164.678" width="33.031" height="3.335" fill="#595959"/><rect x="113.975" y="164.678" width="1.16" height="3.335" fill="#595959"/><path d="M148.48,164.678c-.677,0-1.35-.083-2.006-.248l-4.674-1.172c-.656-.165-1.329-.248-2.005-.248h-5.016c-.183,0-.331.149-.331.334v4.336c0,.184.149.334.331.334h32.077v-3.335h-18.377Z" fill="#666" fill-rule="evenodd"/><path d="M137.101,167.513h27.933v-2.335h-16.554c-.716,0-1.43-.088-2.126-.263l-4.674-1.172c-.616-.155-1.25-.233-1.885-.233h-2.694v4.002Z" fill="#f4855c" fill-rule="evenodd"/><polygon points="140.977 165.479 139.543 164.823 139.54 166.201 140.977 165.479" fill="#595959" fill-rule="evenodd"/><path d="M126.789,164.678h-11.653v3.335h16.661c.183,0,.331-.149.331-.334h0v-4.336c0-.184-.149-.334-.331-.334h-2.289c-.183,0-.361.061-.505.173l-1.708,1.322c-.145.112-.322.173-.506.173Z" fill="#666" fill-rule="evenodd"/><rect x="78.501" y="165.762" width="4.973" height="2.251" fill="#666"/><rect x="212.361" y="167.347" width="6.216" height=".667" fill="#ccc"/></g><path d="M74.413,105.175v-42.22h-2.789c-.326,0-.59-.265-.59-.591h-.001v-1.098h-7.856v2.027h.422v2.195h-.844v100.484h.844v2.195h-.422v2.027h7.856v-1.098c0-.326.265-.591.591-.591h2.789v-42.22h-6.59c-.466,0-.844-.379-.844-.844v-19.421c0-.467.378-.845.844-.845h6.59Z" fill="#595959" fill-rule="evenodd"/><rect x="68.499" y="108.975" width="3.38" height="13.51" fill="#bc674d"/><rect x="71.879" y="108.975" width="2.534" height="13.51" fill="#f4855c"/><path d="M223.266,105.175v-42.22h2.789c.326,0,.59-.265.59-.591h.001v-1.098h7.856v2.027h-.422s0,2.195,0,2.195h.844v100.484h-.844s0,2.195,0,2.195h.422v2.027h-7.856v-1.098c0-.326-.265-.591-.591-.591h-2.789v-42.22h6.59c.466,0,.844-.379.844-.844v-19.421c0-.467-.378-.845-.844-.845h-6.59Z" fill="#595959" fill-rule="evenodd"/><rect x="225.8" y="108.975" width="3.38" height="13.51" fill="#bc674d"/><rect x="223.266" y="108.975" width="2.534" height="13.51" fill="#f4855c"/></g><path d="M216.429,90.769H81.23c-.42,0-.761.335-.761.747v21.161c0,.413.341.747.761.747h135.199c.42,0,.761-.335.761-.747v-21.161c0-.413-.341-.747-.761-.747Z" fill="#d0d3d4" fill-rule="evenodd" stroke="#fff" stroke-miterlimit="10" stroke-width=".5"/><path d="M105.334,103.067h.189v-.191h-.189v.191ZM105.377,102.73h.107l.047-.715v-.302h-.206v.302l.052.715ZM96.078,103.067h.193v-.191h-.193v.191ZM96.121,102.73h.107l.047-.715v-.302h-.206v.302l.051.715Z" fill="#fff" fill-rule="evenodd"/><path d="M105.334,103.067h.189v-.191h-.189v.191ZM105.377,102.73h.107l.047-.715v-.302h-.206v.302l.052.715ZM96.078,103.067h.193v-.191h-.193v.191ZM96.121,102.73h.107l.047-.715v-.302h-.206v.302l.051.715Z" fill="#fff" fill-rule="evenodd"/><rect x="155.315" y="106.989" width="59.35" height="4.43" fill="#404040"/><path d="M83.156,111.439h70.879v-16.437c0-1.399-1.132-2.531-2.531-2.531h-65.817c-1.398,0-2.531,1.132-2.531,2.531v16.437Z" fill="#a2aaad" fill-rule="evenodd"/><rect x="88.025" y="93.192" width="10.757" height="7.819" fill="#eee"/><rect x="101.089" y="93.113" width="10.757" height="7.899" fill="#eee"/><polygon points="89.44 100.283 97.366 100.283 97.366 94.964 95.612 94.964 95.612 94.058 94.918 94.041 94.918 93.722 91.889 93.722 91.889 94.041 91.202 94.041 91.202 94.937 89.44 94.937 89.44 100.283" fill="#262626" fill-rule="evenodd"/><polygon points="102.504 100.283 110.431 100.283 110.431 94.964 108.676 94.964 108.676 94.058 107.982 94.041 107.982 93.722 104.953 93.722 104.953 94.041 104.266 94.041 104.266 94.937 102.504 94.937 102.504 100.283" fill="#262626" fill-rule="evenodd"/><rect x="89.231" y="93.871" width="1.708" height=".854" fill="#404040"/><rect x="95.867" y="93.871" width="1.708" height=".854" fill="#404040"/><path d="M118.467,96.03h5.808c.4,0,.725.325.725.725v3.388c0,.4-.325.726-.726.726h-5.808c-.4,0-.726-.325-.726-.726v-3.388c0-.4.325-.725.725-.725Z" fill="#eee"/><path d="M119.994,99.154h2.753c.389,0,.705-.316.705-.705,0-.392-.316-.708-.705-.708h-2.753c-.389,0-.705.316-.705.708,0,.389.316.705.705.705Z" fill="#262626" fill-rule="evenodd"/><rect x="83.156" y="101.171" width="41.844" height="10.248" fill="#7da9dc"/><path d="M84.631,106.847l.369-.003-.004,1.149h.167l.005-.43h.326v.292h.605v-.802h-.605v.285h-.326v-1.163h.326v.274h.605v-.802h-.605v.305h-.326l-.005-.385h-.167l.004,1.055-.369.003-.004-.326h-.643v.854h.643l.004-.305Z" fill="#fff" fill-rule="evenodd"/><rect x="86.87" y="103.643" width="35.6" height="6.335" fill="#fff"/><path d="M88.706,102.105c0-.219.175-.392.392-.392s.392.174.392.392c0,.215-.175.389-.392.389s-.392-.174-.392-.389Z" fill="#fff"/><path d="M91.624,102.067c0-.215.175-.389.392-.389s.391.174.391.389c0,.219-.175.392-.391.392s-.392-.174-.392-.392Z" fill="#fff"/><path d="M97.459,102.105c0-.219.175-.392.392-.392s.392.174.392.392c0,.215-.175.389-.392.389s-.392-.174-.392-.389Z" fill="#fff"/><path d="M100.377,102.067c0-.215.175-.389.392-.389s.392.174.392.389c0,.219-.175.392-.392.392s-.392-.174-.392-.392Z" fill="#fff"/><path d="M106.213,102.105c0-.219.175-.392.392-.392s.391.174.391.392c0,.215-.175.389-.391.389s-.392-.174-.392-.389Z" fill="#fff"/><path d="M109.129,102.067c0-.215.177-.389.392-.389.219,0,.392.174.392.389,0,.219-.174.392-.392.392-.215,0-.392-.174-.392-.392Z" fill="#fff"/><path d="M114.964,102.105c0-.219.177-.392.392-.392s.392.174.392.392c0,.215-.177.389-.392.389s-.392-.174-.392-.389Z" fill="#fff"/><path d="M117.884,102.067c0-.215.174-.389.392-.389.215,0,.392.174.392.389,0,.219-.177.392-.392.392-.219,0-.392-.174-.392-.392Z" fill="#fff"/><path d="M155.315,111.419h59.35v-15.982c0-1.638-1.326-2.965-2.965-2.965h-53.417c-1.638,0-2.968,1.326-2.968,2.965v15.982Z" fill="#ededed" stroke="#a7a9ac" stroke-miterlimit="10" stroke-width=".25"/><path d="M183.957,104.337v-6.651c0-.215-.177-.389-.389-.389h-13.774c-.215,0-.389.174-.389.389v6.651c0,.212.174.385.389.385h13.774c.212,0,.389-.174.389-.385Z" fill="none" stroke="#a2aaad" stroke-miterlimit="10" stroke-width=".25"/><path d="M170.218,103.643h5.801v-5.186h-5.801v5.186ZM177.344,103.643h5.801v-5.186h-5.801v5.186Z" fill="#262626" fill-rule="evenodd"/><rect x="184.777" y="92.351" width="30.035" height="19.067" fill="#7da9dc"/><rect x="155.315" y="106.989" width="59.493" height="4.571" fill="#a2aaad"/><rect x="185.63" y="97.295" width="18.553" height="6.042" fill="#fff" stroke="#fff" stroke-miterlimit="10" stroke-width=".5"/><rect x="185.745" y="97.41" width="9.012" height="5.812" fill="#005cb9"/><rect x="195.057" y="97.41" width="9.012" height="5.812" fill="#b2292e"/><rect x="205.271" y="92.344" width="9.533" height="19.074" fill="#a2aaad"/><path d="M167.913,104.337v-6.651c0-.215-.087-.389-.194-.389h-6.873c-.104,0-.191.174-.191.389v6.651c0,.212.087.385.191.385h6.873c.108,0,.194-.174.194-.385Z" fill="none" stroke="#a2aaad" stroke-miterlimit="10" stroke-width=".25"/><rect x="161.394" y="98.447" width="5.775" height="5.185" fill="#262626"/><path d="M171.186,95.471c0-.219.174-.392.389-.392.219,0,.392.174.392.392,0,.215-.174.389-.392.389-.215,0-.389-.174-.389-.389Z" fill="#404040"/><path d="M174.199,95.506c0-.215.177-.389.392-.389s.392.174.392.389c0,.219-.177.392-.392.392s-.392-.174-.392-.392Z" fill="#404040"/><path d="M178.351,95.471c0-.219.174-.392.389-.392.219,0,.392.174.392.392,0,.215-.174.389-.392.389-.215,0-.389-.174-.389-.389Z" fill="#404040"/><path d="M181.364,95.506c0-.215.177-.389.392-.389s.392.174.392.389c0,.219-.177.392-.392.392s-.392-.174-.392-.392Z" fill="#404040"/><path d="M162.459,95.471c0-.219.174-.392.389-.392.219,0,.392.174.392.392,0,.215-.174.389-.392.389-.215,0-.389-.174-.389-.389Z" fill="#404040"/><path d="M165.472,95.506c0-.215.177-.389.392-.389s.392.174.392.389c0,.219-.177.392-.392.392s-.392-.174-.392-.392Z" fill="#404040"/><path d="M187.411,95.471c0-.219.174-.392.389-.392.219,0,.392.174.392.392,0,.215-.174.389-.392.389-.215,0-.389-.174-.389-.389Z" fill="#fff"/><path d="M190.424,95.506c0-.215.177-.389.392-.389s.392.174.392.389c0,.219-.177.392-.392.392s-.392-.174-.392-.392Z" fill="#fff"/><path d="M197.044,95.471c0-.219.174-.392.392-.392.215,0,.389.174.389.392,0,.215-.174.389-.389.389-.219,0-.392-.174-.392-.389Z" fill="#fff"/><path d="M200.057,95.506c0-.215.177-.389.392-.389s.392.174.392.389c0,.219-.177.392-.392.392s-.392-.174-.392-.392Z" fill="#fff"/><polygon points="177.344 105.344 177.344 104.958 178.091 105.708 177.344 106.455 177.344 106.069 176.952 106.069 176.952 105.344 177.344 105.344" fill="#262626" fill-rule="evenodd"/><polygon points="176.129 106.069 176.129 106.455 175.383 105.705 176.129 104.958 176.129 105.344 176.525 105.344 176.525 106.069 176.129 106.069" fill="#262626" fill-rule="evenodd"/><path d="M208.902,103.358c0-.292.236-.528.528-.528.288,0,.524.236.524.528s-.236.528-.524.528c-.292,0-.528-.236-.528-.528Z" fill="#262626"/><path d="M208.902,101.338c0-.292.236-.528.528-.528.288,0,.524.236.524.528s-.236.528-.524.528c-.292,0-.528-.236-.528-.528Z" fill="#262626"/><path d="M208.902,98.023c0-.292.236-.528.528-.528.288,0,.524.236.524.528,0,.288-.236.524-.524.524-.292,0-.528-.236-.528-.524Z" fill="#262626"/><path d="M208.902,99.63c0-.292.236-.528.528-.528.288,0,.524.236.524.528s-.236.528-.524.528c-.292,0-.528-.236-.528-.528Z" fill="#262626"/><polygon points="83.448 97.728 84.154 97.728 84.861 97.019 84.154 96.315 83.448 96.315 84.154 97.019 83.448 97.728" fill="#262626" fill-rule="evenodd"/><polygon points="87.665 96.315 86.959 96.315 86.252 97.019 86.959 97.728 87.665 97.728 86.959 97.019 87.665 96.315" fill="#262626" fill-rule="evenodd"/><rect x="84.351" y="96.766" width="2.486" height=".51" fill="#262626"/><path d="M104.565,109.66v-5.478h-8.464v5.478h8.464ZM95.797,109.66v-5.478h-8.504v5.478h8.504ZM113.23,109.66v-5.478h-8.339v5.478h8.339ZM122.027,109.66v-5.478l-8.454-.018v5.478l8.454.018Z" fill="#262626" fill-rule="evenodd"/><path d="M119.169,104.164h-2.951v.312h2.951v-.312ZM110.477,104.164h-2.948v.312h2.948v-.312ZM101.786,104.164h-2.95v.312h2.95v-.312ZM93.097,104.164h-2.95v.312h2.95v-.312Z" fill="#fff" fill-rule="evenodd"/><rect x="206.764" y="113.019" width="12.49" height=".812" fill="#f1f1f2"/><path d="M153.06,111.233v3.247h56.812c.09,0,.163-.073.163-.162h0v-1.786c0-.09-.073-.162-.163-.162h-28.852c-.09,0-.163-.073-.163-.162v-.812c0-.09-.073-.162-.163-.162h-27.634Z" fill="#4d4d4d" fill-rule="evenodd"/><path d="M158.2,111.233h-7.576v3.247h22.797v-3.247h-1.082c-.572,0-1.142-.081-1.698-.241l-3.957-1.141c-.495-.143-1.002-.223-1.511-.238v-.003h-5.206c-.119,0-.234.059-.328.169l-1.11,1.286c-.094.109-.21.169-.328.169Z" fill="#555"/><path d="M152.698,111.233h-38.04v3.247h42.958c.18,0,.326-.145.326-.325h0v-4.221c0-.179-.146-.325-.326-.325h-2.248c-.18,0-.354.059-.497.169l-1.678,1.286c-.142.109-.317.169-.497.169Z" fill="#555"/><path d="M153.06,111.233h-74.492c-.09,0-.163.073-.163.162v2.922c0,.09.073.162.163.162h74.492v-3.247Z" fill="#6a6a6a" fill-rule="evenodd"/><path d="M172.485,111.814h-1.879c-.554,0-1.107-.073-1.645-.216l-3.617-.964c-.477-.127-.967-.192-1.459-.192h-2.085v3.292h10.683v-1.92Z" fill="#f4855c" fill-rule="evenodd"/><polygon points="163.98 112.127 162.554 111.495 162.55 112.824 163.98 112.127" fill="#404040" fill-rule="evenodd"/><rect x="134.24" y="96.486" width="11.886" height="6.089" rx=".572" ry=".572" fill="#ededed"/><path d="M144.11,97.856h-7.897c-.125,0-.219.104-.219.222v2.982c0,.118.094.212.219.212h7.897c.118,0,.212-.094.212-.212v-2.982c0-.118-.094-.222-.212-.222Z" fill="#262626" fill-rule="evenodd"/><path d="M216.429,116.98H81.23c-.42,0-.761.335-.761.747v21.161c0,.413.341.747.761.747h135.199c.42,0,.761-.335.761-.747v-21.161c0-.413-.341-.747-.761-.747Z" fill="#d0d3d4" fill-rule="evenodd" stroke="#fff" stroke-miterlimit="10" stroke-width=".5"/><path d="M105.334,129.278h.189v-.191h-.189v.191ZM105.377,128.941h.107l.047-.715v-.302h-.206v.302l.052.715ZM96.078,129.278h.193v-.191h-.193v.191ZM96.121,128.941h.107l.047-.715v-.302h-.206v.302l.051.715Z" fill="#fff" fill-rule="evenodd"/><path d="M105.334,129.278h.189v-.191h-.189v.191ZM105.377,128.941h.107l.047-.715v-.302h-.206v.302l.052.715ZM96.078,129.278h.193v-.191h-.193v.191ZM96.121,128.941h.107l.047-.715v-.302h-.206v.302l.051.715Z" fill="#fff" fill-rule="evenodd"/><rect x="155.315" y="133.2" width="59.35" height="4.43" fill="#404040"/><path d="M83.156,137.651h70.879v-16.437c0-1.399-1.132-2.531-2.531-2.531h-65.817c-1.398,0-2.531,1.132-2.531,2.531v16.437Z" fill="#a2aaad" fill-rule="evenodd"/><rect x="88.025" y="119.404" width="10.757" height="7.819" fill="#eee"/><rect x="101.089" y="119.324" width="10.757" height="7.899" fill="#eee"/><polygon points="89.44 126.494 97.366 126.494 97.366 121.176 95.612 121.176 95.612 120.27 94.918 120.252 94.918 119.933 91.889 119.933 91.889 120.252 91.202 120.252 91.202 121.148 89.44 121.148 89.44 126.494" fill="#262626" fill-rule="evenodd"/><polygon points="102.504 126.494 110.431 126.494 110.431 121.176 108.676 121.176 108.676 120.27 107.982 120.252 107.982 119.933 104.953 119.933 104.953 120.252 104.266 120.252 104.266 121.148 102.504 121.148 102.504 126.494" fill="#262626" fill-rule="evenodd"/><rect x="89.231" y="120.082" width="1.708" height=".854" fill="#404040"/><rect x="95.867" y="120.082" width="1.708" height=".854" fill="#404040"/><path d="M118.467,122.241h5.808c.4,0,.725.325.725.725v3.388c0,.4-.325.726-.726.726h-5.808c-.4,0-.726-.325-.726-.726v-3.388c0-.4.325-.725.725-.725Z" fill="#eee"/><path d="M119.994,125.366h2.753c.389,0,.705-.316.705-.705,0-.392-.316-.708-.705-.708h-2.753c-.389,0-.705.316-.705.708,0,.389.316.705.705.705Z" fill="#262626" fill-rule="evenodd"/><rect x="83.156" y="127.382" width="41.844" height="10.248" fill="#7da9dc"/><path d="M84.631,133.058l.369-.003-.004,1.149h.167l.005-.43h.326v.292h.605v-.802h-.605v.285h-.326v-1.163h.326v.274h.605v-.802h-.605v.305h-.326l-.005-.385h-.167l.004,1.055-.369.003-.004-.326h-.643v.854h.643l.004-.305Z" fill="#fff" fill-rule="evenodd"/><rect x="86.87" y="129.854" width="35.6" height="6.335" fill="#fff"/><path d="M88.706,128.316c0-.219.175-.392.392-.392s.392.174.392.392c0,.215-.175.389-.392.389s-.392-.174-.392-.389Z" fill="#fff"/><path d="M91.624,128.278c0-.215.175-.389.392-.389s.391.174.391.389c0,.219-.175.392-.391.392s-.392-.174-.392-.392Z" fill="#fff"/><path d="M97.459,128.316c0-.219.175-.392.392-.392s.392.174.392.392c0,.215-.175.389-.392.389s-.392-.174-.392-.389Z" fill="#fff"/><path d="M100.377,128.278c0-.215.175-.389.392-.389s.392.174.392.389c0,.219-.175.392-.392.392s-.392-.174-.392-.392Z" fill="#fff"/><path d="M106.213,128.316c0-.219.175-.392.392-.392s.391.174.391.392c0,.215-.175.389-.391.389s-.392-.174-.392-.389Z" fill="#fff"/><path d="M109.129,128.278c0-.215.177-.389.392-.389.219,0,.392.174.392.389,0,.219-.174.392-.392.392-.215,0-.392-.174-.392-.392Z" fill="#fff"/><path d="M114.964,128.316c0-.219.177-.392.392-.392s.392.174.392.392c0,.215-.177.389-.392.389s-.392-.174-.392-.389Z" fill="#fff"/><path d="M117.884,128.278c0-.215.174-.389.392-.389.215,0,.392.174.392.389,0,.219-.177.392-.392.392-.219,0-.392-.174-.392-.392Z" fill="#fff"/><path d="M155.315,137.63h59.35v-15.982c0-1.638-1.326-2.965-2.965-2.965h-53.417c-1.638,0-2.968,1.326-2.968,2.965v15.982Z" fill="#ededed" stroke="#a7a9ac" stroke-miterlimit="10" stroke-width=".25"/><path d="M183.957,130.548v-6.651c0-.215-.177-.389-.389-.389h-13.774c-.215,0-.389.174-.389.389v6.651c0,.212.174.385.389.385h13.774c.212,0,.389-.174.389-.385Z" fill="none" stroke="#a2aaad" stroke-miterlimit="10" stroke-width=".25"/><path d="M170.218,129.854h5.801v-5.186h-5.801v5.186ZM177.344,129.854h5.801v-5.186h-5.801v5.186Z" fill="#262626" fill-rule="evenodd"/><rect x="184.777" y="118.563" width="30.035" height="19.067" fill="#7da9dc"/><rect x="155.315" y="133.2" width="59.493" height="4.571" fill="#a2aaad"/><rect x="185.63" y="123.507" width="18.553" height="6.042" fill="#fff" stroke="#fff" stroke-miterlimit="10" stroke-width=".5"/><rect x="185.745" y="123.622" width="9.012" height="5.812" fill="#005cb9"/><rect x="195.057" y="123.622" width="9.012" height="5.812" fill="#b2292e"/><rect x="205.271" y="118.556" width="9.533" height="19.074" fill="#a2aaad"/><path d="M167.913,130.548v-6.651c0-.215-.087-.389-.194-.389h-6.873c-.104,0-.191.174-.191.389v6.651c0,.212.087.385.191.385h6.873c.108,0,.194-.174.194-.385Z" fill="none" stroke="#a2aaad" stroke-miterlimit="10" stroke-width=".25"/><rect x="161.394" y="124.658" width="5.775" height="5.185" fill="#262626"/><path d="M171.186,121.682c0-.219.174-.392.389-.392.219,0,.392.174.392.392,0,.215-.174.389-.392.389-.215,0-.389-.174-.389-.389Z" fill="#404040"/><path d="M174.199,121.717c0-.215.177-.389.392-.389s.392.174.392.389c0,.219-.177.392-.392.392s-.392-.174-.392-.392Z" fill="#404040"/><path d="M178.351,121.682c0-.219.174-.392.389-.392.219,0,.392.174.392.392,0,.215-.174.389-.392.389-.215,0-.389-.174-.389-.389Z" fill="#404040"/><path d="M181.364,121.717c0-.215.177-.389.392-.389s.392.174.392.389c0,.219-.177.392-.392.392s-.392-.174-.392-.392Z" fill="#404040"/><path d="M162.459,121.682c0-.219.174-.392.389-.392.219,0,.392.174.392.392,0,.215-.174.389-.392.389-.215,0-.389-.174-.389-.389Z" fill="#404040"/><path d="M165.472,121.717c0-.215.177-.389.392-.389s.392.174.392.389c0,.219-.177.392-.392.392s-.392-.174-.392-.392Z" fill="#404040"/><path d="M187.411,121.682c0-.219.174-.392.389-.392.219,0,.392.174.392.392,0,.215-.174.389-.392.389-.215,0-.389-.174-.389-.389Z" fill="#fff"/><path d="M190.424,121.717c0-.215.177-.389.392-.389s.392.174.392.389c0,.219-.177.392-.392.392s-.392-.174-.392-.392Z" fill="#fff"/><path d="M197.044,121.682c0-.219.174-.392.392-.392.215,0,.389.174.389.392,0,.215-.174.389-.389.389-.219,0-.392-.174-.392-.389Z" fill="#fff"/><path d="M200.057,121.717c0-.215.177-.389.392-.389s.392.174.392.389c0,.219-.177.392-.392.392s-.392-.174-.392-.392Z" fill="#fff"/><polygon points="177.344 131.555 177.344 131.17 178.091 131.919 177.344 132.666 177.344 132.281 176.952 132.281 176.952 131.555 177.344 131.555" fill="#262626" fill-rule="evenodd"/><polygon points="176.129 132.281 176.129 132.666 175.383 131.916 176.129 131.17 176.129 131.555 176.525 131.555 176.525 132.281 176.129 132.281" fill="#262626" fill-rule="evenodd"/><path d="M208.902,129.569c0-.292.236-.528.528-.528.288,0,.524.236.524.528s-.236.528-.524.528c-.292,0-.528-.236-.528-.528Z" fill="#262626"/><path d="M208.902,127.549c0-.292.236-.528.528-.528.288,0,.524.236.524.528s-.236.528-.524.528c-.292,0-.528-.236-.528-.528Z" fill="#262626"/><path d="M208.902,124.234c0-.292.236-.528.528-.528.288,0,.524.236.524.528,0,.288-.236.524-.524.524-.292,0-.528-.236-.528-.524Z" fill="#262626"/><path d="M208.902,125.841c0-.292.236-.528.528-.528.288,0,.524.236.524.528s-.236.528-.524.528c-.292,0-.528-.236-.528-.528Z" fill="#262626"/><polygon points="83.448 123.939 84.154 123.939 84.861 123.231 84.154 122.526 83.448 122.526 84.154 123.231 83.448 123.939" fill="#262626" fill-rule="evenodd"/><polygon points="87.665 122.526 86.959 122.526 86.252 123.231 86.959 123.939 87.665 123.939 86.959 123.231 87.665 122.526" fill="#262626" fill-rule="evenodd"/><rect x="84.351" y="122.978" width="2.486" height=".51" fill="#262626"/><path d="M104.565,135.871v-5.478h-8.464v5.478h8.464ZM95.797,135.871v-5.478h-8.504v5.478h8.504ZM113.23,135.871v-5.478h-8.339v5.478h8.339ZM122.027,135.871v-5.478l-8.454-.018v5.478l8.454.018Z" fill="#262626" fill-rule="evenodd"/><path d="M119.169,130.375h-2.951v.312h2.951v-.312ZM110.477,130.375h-2.948v.312h2.948v-.312ZM101.786,130.375h-2.95v.312h2.95v-.312ZM93.097,130.375h-2.95v.312h2.95v-.312Z" fill="#fff" fill-rule="evenodd"/><rect x="206.764" y="139.23" width="12.49" height=".812" fill="#f1f1f2"/><path d="M153.06,137.445v3.247h56.812c.09,0,.163-.073.163-.162h0v-1.786c0-.09-.073-.162-.163-.162h-28.852c-.09,0-.163-.073-.163-.162v-.812c0-.09-.073-.162-.163-.162h-27.634Z" fill="#4d4d4d" fill-rule="evenodd"/><path d="M158.2,137.445h-7.576v3.247h22.797v-3.247h-1.082c-.572,0-1.142-.081-1.698-.241l-3.957-1.141c-.495-.143-1.002-.223-1.511-.238v-.003h-5.206c-.119,0-.234.059-.328.169l-1.11,1.286c-.094.109-.21.169-.328.169Z" fill="#555"/><path d="M152.698,137.445h-38.04v3.247h42.958c.18,0,.326-.145.326-.325h0v-4.221c0-.179-.146-.325-.326-.325h-2.248c-.18,0-.354.059-.497.169l-1.678,1.286c-.142.109-.317.169-.497.169Z" fill="#555"/><path d="M153.06,137.445h-74.492c-.09,0-.163.073-.163.162v2.922c0,.09.073.162.163.162h74.492v-3.247Z" fill="#6a6a6a" fill-rule="evenodd"/><path d="M172.485,138.025h-1.879c-.554,0-1.107-.073-1.645-.216l-3.617-.964c-.477-.127-.967-.192-1.459-.192h-2.085v3.292h10.683v-1.92Z" fill="#f4855c" fill-rule="evenodd"/><polygon points="163.98 138.338 162.554 137.706 162.55 139.036 163.98 138.338" fill="#404040" fill-rule="evenodd"/><rect x="134.24" y="122.698" width="11.886" height="6.089" rx=".572" ry=".572" fill="#ededed"/><path d="M144.11,124.067h-7.897c-.125,0-.219.104-.219.222v2.982c0,.118.094.212.219.212h7.897c.118,0,.212-.094.212-.212v-2.982c0-.118-.094-.222-.212-.222Z" fill="#262626" fill-rule="evenodd"/></g><g id="g"><path d="M141.87,3.6H6.671c-.42,0-.761.335-.761.747v21.161c0,.413.341.747.761.747h135.199c.42,0,.761-.335.761-.747V4.347c0-.413-.341-.747-.761-.747Z" fill="#caced0" fill-rule="evenodd" stroke="#a2aaad" stroke-miterlimit="10" stroke-width="1.2"/><rect x="50.102" y="8.736" width="15.124" height="7.384" rx=".406" ry=".406" fill="#f1f1f2" stroke="#d0d3d4" stroke-miterlimit="10" stroke-width=".251"/><rect x="50.745" y="9.38" width="13.84" height="6.097" fill="#101820"/><rect x="87.434" y="8.736" width="15.124" height="7.384" rx=".406" ry=".406" fill="#f1f1f2" stroke="#d0d3d4" stroke-miterlimit="10" stroke-width=".251"/><rect x="88.076" y="9.38" width="13.84" height="6.097" fill="#101820"/><rect x="50.745" y="9.38" width="13.84" height="6.097" fill="#101820"/><rect x="88.076" y="9.38" width="13.84" height="6.097" fill="#101820"/><rect x="50.745" y="9.38" width="13.84" height="6.097" fill="#101820"/><rect x="88.076" y="9.38" width="13.84" height="6.097" fill="#101820"/><path d="M290.987,3.6h-135.199c-.42,0-.761.335-.761.747v21.161c0,.413.341.747.761.747h135.199c.42,0,.761-.335.761-.747V4.347c0-.413-.341-.747-.761-.747Z" fill="#caced0" fill-rule="evenodd" stroke="#a2aaad" stroke-miterlimit="10" stroke-width="1.2"/><rect x="199.219" y="8.736" width="15.124" height="7.384" rx=".406" ry=".406" fill="#f1f1f2" stroke="#d0d3d4" stroke-miterlimit="10" stroke-width=".251"/><rect x="199.861" y="9.38" width="13.84" height="6.097" fill="#101820"/><rect x="236.551" y="8.736" width="15.124" height="7.384" rx=".406" ry=".406" fill="#f1f1f2" stroke="#d0d3d4" stroke-miterlimit="10" stroke-width=".251"/><rect x="237.193" y="9.38" width="13.84" height="6.097" fill="#101820"/><rect x="199.861" y="9.38" width="13.84" height="6.097" fill="#101820"/><rect x="237.193" y="9.38" width="13.84" height="6.097" fill="#101820"/><rect x="199.861" y="9.38" width="13.84" height="6.097" fill="#101820"/><polyline points="199.683 123.622 199.69 111.714 244.113 111.714 244.113 12.428" fill="none" stroke="#fff" stroke-linejoin="round" stroke-width="3.5"/><polyline points="199.683 123.622 199.69 111.714 244.113 111.714 244.113 12.428" fill="none" stroke="#b2292e" stroke-linejoin="round" stroke-width="1.575"/><polyline points="199.606 97.386 199.606 52.277 206.645 52.277 206.645 12.428" fill="none" stroke="#fff" stroke-linejoin="round" stroke-width="3.5"/><polyline points="199.606 97.386 199.606 52.277 206.645 52.277 206.645 12.428" fill="none" stroke="#b2292e" stroke-linejoin="round" stroke-width="1.575"/><polyline points="190.212 123.622 190.219 111.624 94.996 111.714 94.996 12.428" fill="none" stroke="#fff" stroke-linejoin="round" stroke-width="3.5"/><polyline points="190.212 123.622 190.219 111.624 94.996 111.714 94.996 12.428" fill="none" stroke="#005cb9" stroke-linejoin="round" stroke-width="1.575"/><polyline points="190.203 97.386 190.203 52.187 57.665 52.277 57.665 12.428" fill="none" stroke="#fff" stroke-linejoin="round" stroke-width="3.5"/><polyline points="190.203 97.386 190.203 52.187 57.665 52.277 57.665 12.428" fill="none" stroke="#005cb9" stroke-linejoin="round" stroke-width="1.575"/><rect x="50.745" y="9.38" width="13.84" height="6.097" fill="#005cb9"/><rect x="88.076" y="9.38" width="13.84" height="6.097" fill="#005cb9"/><rect x="199.861" y="9.38" width="13.84" height="6.097" fill="#b2292e"/><rect x="237.193" y="9.38" width="13.84" height="6.097" fill="#b2292e"/><rect x="177.346" y="98.452" width="5.801" height="5.186" fill="#262626"/><rect x="170.218" y="98.452" width="5.801" height="5.186" fill="#262626"/><rect x="177.346" y="124.663" width="5.801" height="5.186" fill="#262626"/><rect x="170.218" y="124.663" width="5.801" height="5.186" fill="#262626"/></g></svg>