<?xml version="1.0" encoding="UTF-8"?><svg id="a" xmlns="http://www.w3.org/2000/svg" width="4.125in" height="3.205in" viewBox="0 0 297 230.787"><rect x="1.598" y="4.723" width="293.969" height="58.794" fill="none" stroke="#a2aaad" stroke-linecap="round" stroke-linejoin="round" stroke-width="1.199"/><rect x="9.448" y="34.214" width="135.226" height="23.518" fill="#caced0" stroke="#a2aaad" stroke-linecap="round" stroke-linejoin="round" stroke-width="1.225"/><rect x="151.911" y="34.214" width="135.226" height="23.518" fill="#caced0" stroke="#a2aaad" stroke-linecap="round" stroke-linejoin="round" stroke-width="1.225"/><rect x="1.598" y="143.2" width="293.969" height="63.104" fill="none" stroke="#a2aaad" stroke-linecap="round" stroke-linejoin="round" stroke-width="1.199"/><rect x="4.3" y="146.336" width="288.566" height="56.832" fill="#d0d3d4"/><rect x="6.368" y="176.361" width="136.72" height="23.062" rx=".761" ry=".761" fill="#d0d3d4" stroke="#fff" stroke-miterlimit="10" stroke-width=".5"/><path d="M125.716,178.665v17.81c0,.57.462,1.033,1.033,1.033h12.91c.571,0,1.033-.462,1.033-1.033v-17.81c0-.57-.462-1.032-1.033-1.032h-12.91c-.57,0-1.033.462-1.033,1.032h0Z" fill="#a2aaad"/><path d="M113.339,194.587h8.262c.319,0,.578-.259.578-.578h0v-12.225c0-.319-.259-.578-.578-.578h-8.262c-.319,0-.578.259-.578.578v12.225c0,.319.259.578.578.578Z" fill="#a2aaad"/><path d="M120.941,184.841v-1.817c0-.183-.148-.33-.33-.33h-6.279c-.182,0-.33.148-.33.33v1.817h6.94Z" fill="#101820"/><path d="M120.941,184.841h-6.94v7.764c0,.182.148.33.33.33h6.279c.183,0,.33-.148.33-.33h0v-7.764Z" fill="#333f48"/><path d="M127.214,183.882v8.03c0,.451.184.882.51,1.193l3.239,3.099c.308.294.717.459,1.143.459h5.436c.912,0,1.652-.739,1.652-1.652v-14.229c0-.913-.74-1.652-1.652-1.652h-5.436c-.426,0-.835.164-1.143.459l-3.239,3.1c-.325.312-.51.743-.51,1.193Z" fill="#101820"/><rect x="133.313" y="192.135" width="3.305" height=".991" fill="#fff"/><rect x="129.79" y="187.415" width="3.305" height=".991" fill="#fff"/><rect x="133.313" y="182.694" width="3.305" height=".991" fill="#fff"/><path d="M49.481,198.152h21.201c.313,0,.569-.256.569-.572h0v-19.367c0-.316-.255-.572-.569-.572h-21.201c-.315,0-.569.256-.569.572v19.367c0,.316.254.572.569.572Z" fill="#a2aaad" fill-rule="evenodd"/><circle cx="57.266" cy="182.766" r="1.01" fill="#101820"/><circle cx="63.33" cy="182.766" r="1.01" fill="#101820"/><g id="b"><rect x="138.355" y="199.349" width="6.797" height="1.167" fill="#f1f1f2"/><rect x="57.625" y="196.181" width="3.315" height="5.003" fill="#595959"/><rect x="94.012" y="197.848" width="44.343" height="3.335" fill="#595959"/><rect x="92.851" y="197.848" width="1.16" height="3.335" fill="#595959"/><rect x="6.94" y="197.848" width="33.031" height="3.335" fill="#595959"/><rect x="39.97" y="197.848" width="1.16" height="3.335" fill="#595959"/><path d="M74.474,197.848c-.677,0-1.35-.083-2.006-.248l-4.674-1.172c-.656-.165-1.329-.248-2.005-.248h-5.016c-.183,0-.331.149-.331.334v4.336c0,.184.149.334.331.334h32.077v-3.335h-18.377Z" fill="#666" fill-rule="evenodd"/><path d="M63.095,200.684h27.933v-2.335h-16.554c-.716,0-1.43-.088-2.126-.263l-4.674-1.172c-.616-.155-1.25-.233-1.885-.233h-2.694v4.002Z" fill="#f4855c" fill-rule="evenodd"/><polygon points="66.971 198.649 65.537 197.993 65.535 199.372 66.971 198.649" fill="#595959" fill-rule="evenodd"/><path d="M52.784,197.848h-11.653v3.335h16.661c.183,0,.331-.149.331-.334h0v-4.336c0-.184-.149-.334-.331-.334h-2.289c-.183,0-.361.061-.505.173l-1.708,1.322c-.145.112-.322.173-.506.173Z" fill="#666" fill-rule="evenodd"/><rect x="4.495" y="198.932" width="4.973" height="2.251" fill="#666"/><rect x="138.355" y="200.517" width="6.216" height=".667" fill="#ccc"/></g><path d="M117.455,188.076c.096,0,.191-.064.191-.159v-1.369c0-.096-.096-.159-.191-.159s-.159.064-.159.159v1.369c0,.096.064.159.159.159M118.091,190.433c0-.35-.287-.605-.637-.605-.318,0-.605.255-.605.605s.287.605.605.605c.35,0,.637-.255.637-.605ZM118.442,190.433c0-.541-.446-.955-.987-.955-.51,0-.955.414-.955.955s.446.955.955.955c.541,0,.987-.414.987-.955Z" fill="#fff" fill-rule="evenodd"/><path d="M63.504,180.583c0-.087-.087-.173-.173-.173s-.173.087-.173.173.087.173.173.173.173-.087.173-.173Z" fill="#101820" fill-rule="evenodd"/><path d="M63.504,179.067c0-.087-.087-.173-.173-.173s-.173.087-.173.173l.087,1.213c.043,0,.043.043.087.043s.087-.043.087-.043l.087-1.213Z" fill="#101820" fill-rule="evenodd"/><path d="M57.266,178.571c-.688,0-1.247.561-1.247,1.254s.557,1.254,1.245,1.254c.688,0,1.248-.561,1.248-1.254s-.558-1.254-1.247-1.254ZM57.137,178.799c.44-.055.866.178,1.056.581l-.702.707-.291-1.092-.954.959c-.071-.567.329-1.084.892-1.155ZM57.389,180.852c-.437.053-.858-.179-1.049-.578l.708-.713.291,1.092.946-.952c.068.567-.334,1.082-.897,1.151Z" fill="#101820" fill-rule="evenodd"/><rect x="154.277" y="176.361" width="136.72" height="23.062" rx=".761" ry=".761" fill="#d0d3d4" stroke="#fff" stroke-miterlimit="10" stroke-width=".5"/><path d="M273.625,178.665v17.81c0,.57.462,1.033,1.033,1.033h12.91c.571,0,1.033-.462,1.033-1.033v-17.81c0-.57-.462-1.032-1.033-1.032h-12.91c-.57,0-1.033.462-1.033,1.032h0Z" fill="#a2aaad"/><path d="M261.248,194.587h8.262c.319,0,.578-.259.578-.578h0v-12.225c0-.319-.259-.578-.578-.578h-8.262c-.319,0-.578.259-.578.578v12.225c0,.319.259.578.578.578Z" fill="#a2aaad"/><path d="M268.85,184.841v-1.817c0-.183-.148-.33-.33-.33h-6.279c-.182,0-.33.148-.33.33v1.817h6.94Z" fill="#101820"/><path d="M268.85,184.841h-6.94v7.764c0,.182.148.33.33.33h6.279c.183,0,.33-.148.33-.33h0v-7.764Z" fill="#333f48"/><path d="M275.123,183.882v8.03c0,.451.184.882.51,1.193l3.239,3.099c.308.294.717.459,1.143.459h5.436c.912,0,1.652-.739,1.652-1.652v-14.229c0-.913-.74-1.652-1.652-1.652h-5.436c-.426,0-.835.164-1.143.459l-3.239,3.1c-.325.312-.51.743-.51,1.193Z" fill="#101820"/><rect x="281.222" y="192.135" width="3.305" height=".991" fill="#fff"/><rect x="277.699" y="187.415" width="3.305" height=".991" fill="#fff"/><rect x="281.222" y="182.694" width="3.305" height=".991" fill="#fff"/><path d="M197.39,198.152h21.201c.313,0,.569-.256.569-.572h0v-19.367c0-.316-.255-.572-.569-.572h-21.201c-.315,0-.569.256-.569.572v19.367c0,.316.254.572.569.572Z" fill="#a2aaad" fill-rule="evenodd"/><circle cx="205.175" cy="182.766" r="1.01" fill="#101820"/><circle cx="211.239" cy="182.766" r="1.01" fill="#101820"/><g id="c"><rect x="286.264" y="199.349" width="6.797" height="1.167" fill="#f1f1f2"/><rect x="205.534" y="196.181" width="3.315" height="5.003" fill="#595959"/><rect x="241.921" y="197.848" width="44.343" height="3.335" fill="#595959"/><rect x="240.76" y="197.848" width="1.16" height="3.335" fill="#595959"/><rect x="154.849" y="197.848" width="33.031" height="3.335" fill="#595959"/><rect x="187.879" y="197.848" width="1.16" height="3.335" fill="#595959"/><path d="M222.383,197.848c-.677,0-1.35-.083-2.006-.248l-4.674-1.172c-.656-.165-1.329-.248-2.005-.248h-5.016c-.183,0-.331.149-.331.334v4.336c0,.184.149.334.331.334h32.077v-3.335h-18.377Z" fill="#666" fill-rule="evenodd"/><path d="M211.004,200.684h27.933v-2.335h-16.554c-.716,0-1.43-.088-2.126-.263l-4.674-1.172c-.616-.155-1.25-.233-1.885-.233h-2.694v4.002Z" fill="#f4855c" fill-rule="evenodd"/><polygon points="214.88 198.649 213.446 197.993 213.444 199.372 214.88 198.649" fill="#595959" fill-rule="evenodd"/><path d="M200.693,197.848h-11.653v3.335h16.661c.183,0,.331-.149.331-.334h0v-4.336c0-.184-.149-.334-.331-.334h-2.289c-.183,0-.361.061-.505.173l-1.708,1.322c-.145.112-.322.173-.506.173Z" fill="#666" fill-rule="evenodd"/><rect x="152.404" y="198.932" width="4.973" height="2.251" fill="#666"/><rect x="286.264" y="200.517" width="6.216" height=".667" fill="#ccc"/></g><path d="M265.364,188.076c.096,0,.191-.064.191-.159v-1.369c0-.096-.096-.159-.191-.159s-.159.064-.159.159v1.369c0,.096.064.159.159.159M266.001,190.433c0-.35-.287-.605-.637-.605-.318,0-.605.255-.605.605s.287.605.605.605c.35,0,.637-.255.637-.605ZM266.351,190.433c0-.541-.446-.955-.987-.955-.51,0-.955.414-.955.955s.446.955.955.955c.541,0,.987-.414.987-.955Z" fill="#fff" fill-rule="evenodd"/><path d="M211.413,180.583c0-.087-.087-.173-.173-.173s-.173.087-.173.173.087.173.173.173.173-.087.173-.173Z" fill="#101820" fill-rule="evenodd"/><path d="M211.413,179.067c0-.087-.087-.173-.173-.173s-.173.087-.173.173l.087,1.213c.043,0,.043.043.087.043s.087-.043.087-.043l.087-1.213Z" fill="#101820" fill-rule="evenodd"/><path d="M205.175,178.571c-.688,0-1.247.561-1.247,1.254s.557,1.254,1.245,1.254c.688,0,1.248-.561,1.248-1.254s-.558-1.254-1.247-1.254ZM205.046,178.799c.44-.055.866.178,1.056.581l-.702.707-.291-1.092-.954.959c-.071-.567.329-1.084.892-1.155ZM205.298,180.852c-.437.053-.858-.179-1.049-.578l.708-.713.291,1.092.946-.952c.068.567-.334,1.082-.897,1.151Z" fill="#101820" fill-rule="evenodd"/><polygon points="147.655 156.229 151.136 156.229 151.136 152.012 147.655 152.012 146.029 154.121 147.655 156.229" fill="#292929" fill-rule="evenodd"/><polygon points="149.485 169.391 151.136 167.282 149.485 165.199 146.029 165.199 146.029 169.391 149.485 169.391" fill="#292929" fill-rule="evenodd"/><polygon points="147.655 186.644 151.136 186.644 151.136 182.451 147.655 182.451 146.029 184.535 147.655 186.644" fill="#292929" fill-rule="evenodd"/><polygon points="149.485 199.831 151.136 197.722 149.485 195.613 146.029 195.613 146.029 199.831 149.485 199.831" fill="#292929" fill-rule="evenodd"/><path d="M148.265,183.392c-.61,0-1.143.534-1.143,1.143,0,.635.534,1.143,1.143,1.143.635,0,1.143-.508,1.143-1.143,0-.61-.508-1.143-1.143-1.143ZM148.392,183.62c.407.051.737.356.813.762l-.788.457v-1.042l-1.067.61c.051-.508.534-.864,1.042-.788ZM148.138,185.475c-.407-.051-.711-.356-.788-.762l.788-.457v1.042l1.067-.61c-.076.508-.559.864-1.067.788Z" fill="#fff" fill-rule="evenodd"/><path d="M149.066,153.112h.433l.916,2.152h-.492l-.195-.479h-.903l-.195.479h-.479l.916-2.152ZM149.56,154.37l-.284-.693-.284.693h.568Z" fill="#fff"/><path d="M147.095,166.291h.992c.244,0,.437.067.559.189.097.098.146.217.146.364v.006c0,.241-.128.376-.281.461.248.095.4.238.4.525v.006c0,.391-.318.586-.8.586h-1.016v-2.137ZM148.325,166.923c0-.141-.11-.22-.309-.22h-.464v.452h.433c.208,0,.339-.067.339-.226v-.006ZM148.096,167.545h-.544v.47h.558c.208,0,.333-.073.333-.232v-.006c0-.144-.106-.232-.348-.232Z" fill="#fff"/><path d="M149.558,185.5v-.315h.459v-1.078l-.404.15-.092-.317.606-.228h.259v1.474h.414v.315h-1.243Z" fill="#fff"/><path d="M148.814,198.662v-.304l.568-.502c.208-.185.292-.282.292-.424,0-.145-.099-.224-.241-.224-.137,0-.236.074-.365.236l-.257-.228c.17-.231.34-.356.647-.356.373,0,.606.213.606.538v.005c0,.254-.127.398-.317.566l-.411.358h.743v.335h-1.266Z" fill="#fff"/><path d="M147.452,196.579c-.635,0-1.143.508-1.143,1.143s.508,1.143,1.143,1.143c.61,0,1.143-.508,1.143-1.143s-.534-1.143-1.143-1.143ZM147.579,196.782c.381.051.711.356.788.762l-.788.457v-1.042l-1.067.635c.076-.534.534-.889,1.067-.813ZM147.3,198.662c-.381-.076-.711-.381-.788-.762l.788-.457v1.016l1.067-.61c-.076.508-.534.864-1.067.813Z" fill="#fff" fill-rule="evenodd"/><path d="M142.328,149.432H7.13c-.42,0-.761.335-.761.747v21.161c0,.413.341.747.761.747h135.199c.42,0,.761-.335.761-.747v-21.161c0-.413-.341-.747-.761-.747Z" fill="#d0d3d4" fill-rule="evenodd" stroke="#fff" stroke-miterlimit="10" stroke-width=".5"/><path d="M31.234,161.73h.189v-.191h-.189v.191ZM31.277,161.393h.107l.047-.715v-.302h-.206v.302l.052.715ZM21.978,161.73h.193v-.191h-.193v.191ZM22.021,161.393h.107l.047-.715v-.302h-.206v.302l.051.715Z" fill="#fff" fill-rule="evenodd"/><path d="M31.234,161.73h.189v-.191h-.189v.191ZM31.277,161.393h.107l.047-.715v-.302h-.206v.302l.052.715ZM21.978,161.73h.193v-.191h-.193v.191ZM22.021,161.393h.107l.047-.715v-.302h-.206v.302l.051.715Z" fill="#fff" fill-rule="evenodd"/><rect x="81.215" y="165.652" width="59.35" height="4.43" fill="#404040"/><path d="M9.056,170.103h70.879v-16.437c0-1.399-1.132-2.531-2.531-2.531H11.587c-1.398,0-2.531,1.132-2.531,2.531v16.437Z" fill="#a2aaad" fill-rule="evenodd"/><rect x="13.925" y="151.856" width="10.757" height="7.819" fill="#eee"/><rect x="26.989" y="151.776" width="10.757" height="7.899" fill="#eee"/><polygon points="15.34 158.946 23.266 158.946 23.266 153.628 21.512 153.628 21.512 152.722 20.818 152.705 20.818 152.385 17.789 152.385 17.789 152.705 17.102 152.705 17.102 153.6 15.34 153.6 15.34 158.946" fill="#262626" fill-rule="evenodd"/><polygon points="28.404 158.946 36.331 158.946 36.331 153.628 34.576 153.628 34.576 152.722 33.882 152.705 33.882 152.385 30.853 152.385 30.853 152.705 30.166 152.705 30.166 153.6 28.404 153.6 28.404 158.946" fill="#262626" fill-rule="evenodd"/><rect x="15.131" y="152.535" width="1.708" height=".854" fill="#404040"/><rect x="21.767" y="152.535" width="1.708" height=".854" fill="#404040"/><path d="M44.367,154.694h5.808c.4,0,.725.325.725.725v3.388c0,.4-.325.726-.726.726h-5.808c-.4,0-.726-.325-.726-.726v-3.388c0-.4.325-.725.725-.725Z" fill="#eee"/><path d="M45.894,157.818h2.753c.389,0,.705-.316.705-.705,0-.392-.316-.708-.705-.708h-2.753c-.389,0-.705.316-.705.708,0,.389.316.705.705.705Z" fill="#262626" fill-rule="evenodd"/><rect x="9.056" y="159.834" width="41.844" height="10.248" fill="#7da9dc"/><path d="M10.531,165.51l.369-.003-.004,1.149h.167l.005-.43h.326v.292h.605v-.802h-.605v.285h-.326v-1.163h.326v.274h.605v-.802h-.605v.305h-.326l-.005-.385h-.167l.004,1.055-.369.003-.004-.326h-.643v.854h.643l.004-.305Z" fill="#fff" fill-rule="evenodd"/><rect x="12.77" y="162.306" width="35.6" height="6.335" fill="#fff"/><path d="M14.606,160.769c0-.219.175-.392.392-.392s.392.174.392.392c0,.215-.175.389-.392.389s-.392-.174-.392-.389Z" fill="#fff"/><path d="M17.524,160.73c0-.215.175-.389.392-.389s.391.174.391.389c0,.219-.175.392-.391.392s-.392-.174-.392-.392Z" fill="#fff"/><path d="M23.359,160.769c0-.219.175-.392.392-.392s.392.174.392.392c0,.215-.175.389-.392.389s-.392-.174-.392-.389Z" fill="#fff"/><path d="M26.277,160.73c0-.215.175-.389.392-.389s.392.174.392.389c0,.219-.175.392-.392.392s-.392-.174-.392-.392Z" fill="#fff"/><path d="M32.113,160.769c0-.219.175-.392.392-.392s.391.174.391.392c0,.215-.175.389-.391.389s-.392-.174-.392-.389Z" fill="#fff"/><path d="M35.029,160.73c0-.215.177-.389.392-.389.219,0,.392.174.392.389,0,.219-.174.392-.392.392-.215,0-.392-.174-.392-.392Z" fill="#fff"/><path d="M40.864,160.769c0-.219.177-.392.392-.392s.392.174.392.392c0,.215-.177.389-.392.389s-.392-.174-.392-.389Z" fill="#fff"/><path d="M43.784,160.73c0-.215.174-.389.392-.389.215,0,.392.174.392.389,0,.219-.177.392-.392.392-.219,0-.392-.174-.392-.392Z" fill="#fff"/><path d="M81.215,170.082h59.35v-15.982c0-1.638-1.326-2.965-2.965-2.965h-53.417c-1.638,0-2.968,1.326-2.968,2.965v15.982Z" fill="#ededed" stroke="#a7a9ac" stroke-miterlimit="10" stroke-width=".25"/><path d="M109.857,163.001v-6.651c0-.215-.177-.389-.389-.389h-13.774c-.215,0-.389.174-.389.389v6.651c0,.212.174.385.389.385h13.774c.212,0,.389-.174.389-.385Z" fill="none" stroke="#a2aaad" stroke-miterlimit="10" stroke-width=".25"/><rect x="110.676" y="151.015" width="30.035" height="19.067" fill="#7da9dc"/><rect x="81.215" y="165.652" width="59.493" height="4.571" fill="#a2aaad"/><rect x="111.53" y="155.959" width="18.553" height="6.042" fill="#fff" stroke="#fff" stroke-miterlimit="10" stroke-width=".5"/><rect x="111.645" y="156.074" width="9.012" height="5.812" fill="#b2292e"/><rect x="120.956" y="156.074" width="9.012" height="5.812" fill="#f2616f"/><rect x="131.171" y="151.008" width="9.533" height="19.074" fill="#a2aaad"/><path d="M93.813,163.001v-6.651c0-.215-.087-.389-.194-.389h-6.873c-.104,0-.191.174-.191.389v6.651c0,.212.087.385.191.385h6.873c.108,0,.194-.174.194-.385Z" fill="none" stroke="#a2aaad" stroke-miterlimit="10" stroke-width=".25"/><rect x="87.293" y="157.111" width="5.775" height="5.185" fill="#262626"/><path d="M97.086,154.135c0-.219.174-.392.389-.392.219,0,.392.174.392.392,0,.215-.174.389-.392.389-.215,0-.389-.174-.389-.389Z" fill="#404040"/><path d="M100.099,154.17c0-.215.177-.389.392-.389s.392.174.392.389c0,.219-.177.392-.392.392s-.392-.174-.392-.392Z" fill="#404040"/><path d="M104.251,154.135c0-.219.174-.392.389-.392.219,0,.392.174.392.392,0,.215-.174.389-.392.389-.215,0-.389-.174-.389-.389Z" fill="#404040"/><path d="M107.264,154.17c0-.215.177-.389.392-.389s.392.174.392.389c0,.219-.177.392-.392.392s-.392-.174-.392-.392Z" fill="#404040"/><path d="M88.359,154.135c0-.219.174-.392.389-.392.219,0,.392.174.392.392,0,.215-.174.389-.392.389-.215,0-.389-.174-.389-.389Z" fill="#404040"/><path d="M91.372,154.17c0-.215.177-.389.392-.389s.392.174.392.389c0,.219-.177.392-.392.392s-.392-.174-.392-.392Z" fill="#404040"/><path d="M113.311,154.135c0-.219.174-.392.389-.392.219,0,.392.174.392.392,0,.215-.174.389-.392.389-.215,0-.389-.174-.389-.389Z" fill="#fff"/><path d="M116.324,154.17c0-.215.177-.389.392-.389s.392.174.392.389c0,.219-.177.392-.392.392s-.392-.174-.392-.392Z" fill="#fff"/><path d="M122.944,154.135c0-.219.174-.392.392-.392.215,0,.389.174.389.392,0,.215-.174.389-.389.389-.219,0-.392-.174-.392-.389Z" fill="#fff"/><path d="M125.957,154.17c0-.215.177-.389.392-.389s.392.174.392.389c0,.219-.177.392-.392.392s-.392-.174-.392-.392Z" fill="#fff"/><polygon points="103.244 164.007 103.244 163.622 103.991 164.372 103.244 165.118 103.244 164.733 102.852 164.733 102.852 164.007 103.244 164.007" fill="#262626" fill-rule="evenodd"/><polygon points="102.029 164.733 102.029 165.118 101.283 164.368 102.029 163.622 102.029 164.007 102.425 164.007 102.425 164.733 102.029 164.733" fill="#262626" fill-rule="evenodd"/><path d="M134.802,162.022c0-.292.236-.528.528-.528.288,0,.524.236.524.528s-.236.528-.524.528c-.292,0-.528-.236-.528-.528Z" fill="#101820"/><path d="M134.802,160.001c0-.292.236-.528.528-.528.288,0,.524.236.524.528s-.236.528-.524.528c-.292,0-.528-.236-.528-.528Z" fill="#101820"/><path d="M134.802,156.686c0-.292.236-.528.528-.528.288,0,.524.236.524.528,0,.288-.236.524-.524.524-.292,0-.528-.236-.528-.524Z" fill="#101820"/><path d="M134.802,158.294c0-.292.236-.528.528-.528.288,0,.524.236.524.528s-.236.528-.524.528c-.292,0-.528-.236-.528-.528Z" fill="#101820"/><polygon points="9.348 156.391 10.054 156.391 10.761 155.683 10.054 154.978 9.348 154.978 10.054 155.683 9.348 156.391" fill="#262626" fill-rule="evenodd"/><polygon points="13.565 154.978 12.859 154.978 12.152 155.683 12.859 156.391 13.565 156.391 12.859 155.683 13.565 154.978" fill="#262626" fill-rule="evenodd"/><rect x="10.251" y="155.43" width="2.486" height=".51" fill="#262626"/><path d="M30.465,168.323v-5.478h-8.464v5.478h8.464ZM21.697,168.323v-5.478h-8.504v5.478h8.504ZM39.13,168.323v-5.478h-8.339v5.478h8.339ZM47.927,168.323v-5.478l-8.454-.018v5.478l8.454.018Z" fill="#262626" fill-rule="evenodd"/><path d="M45.069,162.827h-2.951v.312h2.951v-.312ZM36.377,162.827h-2.948v.312h2.948v-.312ZM27.686,162.827h-2.95v.312h2.95v-.312ZM18.997,162.827h-2.95v.312h2.95v-.312Z" fill="#fff" fill-rule="evenodd"/><rect x="132.664" y="171.683" width="12.49" height=".812" fill="#f1f1f2"/><path d="M78.96,169.897v3.247h56.812c.09,0,.163-.073.163-.162h0v-1.786c0-.09-.073-.162-.163-.162h-28.852c-.09,0-.163-.073-.163-.162v-.812c0-.09-.073-.162-.163-.162h-27.634Z" fill="#4d4d4d" fill-rule="evenodd"/><path d="M84.1,169.897h-7.576v3.247h22.797v-3.247h-1.082c-.572,0-1.142-.081-1.698-.241l-3.957-1.141c-.495-.143-1.002-.223-1.511-.238v-.003h-5.206c-.119,0-.234.059-.328.169l-1.11,1.286c-.094.109-.21.169-.328.169Z" fill="#555"/><path d="M78.598,169.897h-38.04v3.247h42.958c.18,0,.326-.145.326-.325h0v-4.221c0-.179-.146-.325-.326-.325h-2.248c-.18,0-.354.059-.497.169l-1.678,1.286c-.142.109-.317.169-.497.169Z" fill="#555"/><path d="M78.96,169.897H4.468c-.09,0-.163.073-.163.162v2.922c0,.09.073.162.163.162h74.492v-3.247Z" fill="#6a6a6a" fill-rule="evenodd"/><path d="M98.385,170.477h-1.879c-.554,0-1.107-.073-1.645-.216l-3.617-.964c-.477-.127-.967-.192-1.459-.192h-2.085v3.292h10.683v-1.92Z" fill="#f4855c" fill-rule="evenodd"/><polygon points="89.88 170.79 88.454 170.158 88.45 171.488 89.88 170.79" fill="#404040" fill-rule="evenodd"/><rect x="60.14" y="155.15" width="11.886" height="6.089" rx=".572" ry=".572" fill="#ededed"/><path d="M70.01,156.52h-7.897c-.125,0-.219.104-.219.222v2.982c0,.118.094.212.219.212h7.897c.118,0,.212-.094.212-.212v-2.982c0-.118-.094-.222-.212-.222Z" fill="#262626" fill-rule="evenodd"/><path d="M290.333,149.432h-135.199c-.42,0-.761.335-.761.747v21.161c0,.413.341.747.761.747h135.199c.42,0,.761-.335.761-.747v-21.161c0-.413-.341-.747-.761-.747Z" fill="#d0d3d4" fill-rule="evenodd" stroke="#fff" stroke-miterlimit="10" stroke-width=".5"/><path d="M179.239,161.73h.189v-.191h-.189v.191ZM179.282,161.393h.107l.047-.715v-.302h-.206v.302l.052.715ZM169.983,161.73h.193v-.191h-.193v.191ZM170.026,161.393h.107l.047-.715v-.302h-.206v.302l.051.715Z" fill="#fff" fill-rule="evenodd"/><path d="M179.239,161.73h.189v-.191h-.189v.191ZM179.282,161.393h.107l.047-.715v-.302h-.206v.302l.052.715ZM169.983,161.73h.193v-.191h-.193v.191ZM170.026,161.393h.107l.047-.715v-.302h-.206v.302l.051.715Z" fill="#fff" fill-rule="evenodd"/><rect x="229.22" y="165.652" width="59.35" height="4.43" fill="#404040"/><path d="M157.061,170.103h70.879v-16.437c0-1.399-1.132-2.531-2.531-2.531h-65.817c-1.398,0-2.531,1.132-2.531,2.531v16.437Z" fill="#a2aaad" fill-rule="evenodd"/><rect x="161.93" y="151.856" width="10.757" height="7.819" fill="#eee"/><rect x="174.994" y="151.776" width="10.757" height="7.899" fill="#eee"/><polygon points="163.345 158.946 171.271 158.946 171.271 153.628 169.517 153.628 169.517 152.722 168.823 152.705 168.823 152.385 165.794 152.385 165.794 152.705 165.107 152.705 165.107 153.6 163.345 153.6 163.345 158.946" fill="#262626" fill-rule="evenodd"/><polygon points="176.409 158.946 184.336 158.946 184.336 153.628 182.581 153.628 182.581 152.722 181.887 152.705 181.887 152.385 178.858 152.385 178.858 152.705 178.171 152.705 178.171 153.6 176.409 153.6 176.409 158.946" fill="#262626" fill-rule="evenodd"/><rect x="163.136" y="152.535" width="1.708" height=".854" fill="#404040"/><rect x="169.772" y="152.535" width="1.708" height=".854" fill="#404040"/><path d="M192.372,154.694h5.808c.4,0,.725.325.725.725v3.388c0,.4-.325.726-.726.726h-5.808c-.4,0-.726-.325-.726-.726v-3.388c0-.4.325-.725.725-.725Z" fill="#eee"/><path d="M193.899,157.818h2.753c.389,0,.705-.316.705-.705,0-.392-.316-.708-.705-.708h-2.753c-.389,0-.705.316-.705.708,0,.389.316.705.705.705Z" fill="#262626" fill-rule="evenodd"/><rect x="157.061" y="159.834" width="41.844" height="10.248" fill="#7da9dc"/><path d="M158.536,165.51l.369-.003-.004,1.149h.167l.005-.43h.326v.292h.605v-.802h-.605v.285h-.326v-1.163h.326v.274h.605v-.802h-.605v.305h-.326l-.005-.385h-.167l.004,1.055-.369.003-.004-.326h-.643v.854h.643l.004-.305Z" fill="#fff" fill-rule="evenodd"/><rect x="160.775" y="162.306" width="35.6" height="6.335" fill="#fff"/><path d="M162.611,160.769c0-.219.175-.392.392-.392s.392.174.392.392c0,.215-.175.389-.392.389s-.392-.174-.392-.389Z" fill="#fff"/><path d="M165.529,160.73c0-.215.175-.389.392-.389s.391.174.391.389c0,.219-.175.392-.391.392s-.392-.174-.392-.392Z" fill="#fff"/><path d="M171.364,160.769c0-.219.175-.392.392-.392s.392.174.392.392c0,.215-.175.389-.392.389s-.392-.174-.392-.389Z" fill="#fff"/><path d="M174.282,160.73c0-.215.175-.389.392-.389s.392.174.392.389c0,.219-.175.392-.392.392s-.392-.174-.392-.392Z" fill="#fff"/><path d="M180.118,160.769c0-.219.175-.392.392-.392s.391.174.391.392c0,.215-.175.389-.391.389s-.392-.174-.392-.389Z" fill="#fff"/><path d="M183.034,160.73c0-.215.177-.389.392-.389.219,0,.392.174.392.389,0,.219-.174.392-.392.392-.215,0-.392-.174-.392-.392Z" fill="#fff"/><path d="M188.869,160.769c0-.219.177-.392.392-.392s.392.174.392.392c0,.215-.177.389-.392.389s-.392-.174-.392-.389Z" fill="#fff"/><path d="M191.789,160.73c0-.215.174-.389.392-.389.215,0,.392.174.392.389,0,.219-.177.392-.392.392-.219,0-.392-.174-.392-.392Z" fill="#fff"/><path d="M229.22,170.082h59.35v-15.982c0-1.638-1.326-2.965-2.965-2.965h-53.417c-1.638,0-2.968,1.326-2.968,2.965v15.982Z" fill="#ededed" stroke="#a7a9ac" stroke-miterlimit="10" stroke-width=".25"/><path d="M257.862,163.001v-6.651c0-.215-.177-.389-.389-.389h-13.774c-.215,0-.389.174-.389.389v6.651c0,.212.174.385.389.385h13.774c.212,0,.389-.174.389-.385Z" fill="none" stroke="#a2aaad" stroke-miterlimit="10" stroke-width=".25"/><path d="M244.123,162.306h5.801v-5.186h-5.801v5.186ZM251.249,162.306h5.801v-5.186h-5.801v5.186Z" fill="#262626" fill-rule="evenodd"/><rect x="258.681" y="151.015" width="30.035" height="19.067" fill="#7da9dc"/><rect x="229.22" y="165.652" width="59.493" height="4.571" fill="#a2aaad"/><rect x="259.535" y="155.959" width="18.553" height="6.042" fill="#fff" stroke="#fff" stroke-miterlimit="10" stroke-width=".5"/><rect x="259.65" y="156.074" width="9.012" height="5.812" fill="#b2292e"/><rect x="268.961" y="156.074" width="9.012" height="5.812" fill="#f2616f"/><rect x="279.176" y="151.008" width="9.533" height="19.074" fill="#a2aaad"/><path d="M241.818,163.001v-6.651c0-.215-.087-.389-.194-.389h-6.873c-.104,0-.191.174-.191.389v6.651c0,.212.087.385.191.385h6.873c.108,0,.194-.174.194-.385Z" fill="none" stroke="#a2aaad" stroke-miterlimit="10" stroke-width=".25"/><rect x="235.299" y="157.111" width="5.775" height="5.185" fill="#262626"/><path d="M245.091,154.135c0-.219.174-.392.389-.392.219,0,.392.174.392.392,0,.215-.174.389-.392.389-.215,0-.389-.174-.389-.389Z" fill="#404040"/><path d="M248.104,154.17c0-.215.177-.389.392-.389s.392.174.392.389c0,.219-.177.392-.392.392s-.392-.174-.392-.392Z" fill="#404040"/><path d="M252.256,154.135c0-.219.174-.392.389-.392.219,0,.392.174.392.392,0,.215-.174.389-.392.389-.215,0-.389-.174-.389-.389Z" fill="#404040"/><path d="M255.269,154.17c0-.215.177-.389.392-.389s.392.174.392.389c0,.219-.177.392-.392.392s-.392-.174-.392-.392Z" fill="#404040"/><path d="M236.364,154.135c0-.219.174-.392.389-.392.219,0,.392.174.392.392,0,.215-.174.389-.392.389-.215,0-.389-.174-.389-.389Z" fill="#404040"/><path d="M239.377,154.17c0-.215.177-.389.392-.389s.392.174.392.389c0,.219-.177.392-.392.392s-.392-.174-.392-.392Z" fill="#404040"/><path d="M261.316,154.135c0-.219.174-.392.389-.392.219,0,.392.174.392.392,0,.215-.174.389-.392.389-.215,0-.389-.174-.389-.389Z" fill="#fff"/><path d="M264.329,154.17c0-.215.177-.389.392-.389s.392.174.392.389c0,.219-.177.392-.392.392s-.392-.174-.392-.392Z" fill="#fff"/><path d="M270.949,154.135c0-.219.174-.392.392-.392.215,0,.389.174.389.392,0,.215-.174.389-.389.389-.219,0-.392-.174-.392-.389Z" fill="#fff"/><path d="M273.962,154.17c0-.215.177-.389.392-.389s.392.174.392.389c0,.219-.177.392-.392.392s-.392-.174-.392-.392Z" fill="#fff"/><polygon points="251.249 164.007 251.249 163.622 251.996 164.372 251.249 165.118 251.249 164.733 250.857 164.733 250.857 164.007 251.249 164.007" fill="#262626" fill-rule="evenodd"/><polygon points="250.034 164.733 250.034 165.118 249.288 164.368 250.034 163.622 250.034 164.007 250.43 164.007 250.43 164.733 250.034 164.733" fill="#262626" fill-rule="evenodd"/><path d="M282.807,162.022c0-.292.236-.528.528-.528.288,0,.524.236.524.528s-.236.528-.524.528c-.292,0-.528-.236-.528-.528Z" fill="#262626"/><path d="M282.807,160.001c0-.292.236-.528.528-.528.288,0,.524.236.524.528s-.236.528-.524.528c-.292,0-.528-.236-.528-.528Z" fill="#262626"/><path d="M282.807,156.686c0-.292.236-.528.528-.528.288,0,.524.236.524.528,0,.288-.236.524-.524.524-.292,0-.528-.236-.528-.524Z" fill="#262626"/><path d="M282.807,158.294c0-.292.236-.528.528-.528.288,0,.524.236.524.528s-.236.528-.524.528c-.292,0-.528-.236-.528-.528Z" fill="#262626"/><polygon points="157.353 156.391 158.059 156.391 158.766 155.683 158.059 154.978 157.353 154.978 158.059 155.683 157.353 156.391" fill="#262626" fill-rule="evenodd"/><polygon points="161.57 154.978 160.864 154.978 160.157 155.683 160.864 156.391 161.57 156.391 160.864 155.683 161.57 154.978" fill="#262626" fill-rule="evenodd"/><rect x="158.256" y="155.43" width="2.486" height=".51" fill="#262626"/><path d="M178.47,168.323v-5.478h-8.464v5.478h8.464ZM169.702,168.323v-5.478h-8.504v5.478h8.504ZM187.135,168.323v-5.478h-8.339v5.478h8.339ZM195.932,168.323v-5.478l-8.454-.018v5.478l8.454.018Z" fill="#262626" fill-rule="evenodd"/><path d="M193.074,162.827h-2.951v.312h2.951v-.312ZM184.382,162.827h-2.948v.312h2.948v-.312ZM175.691,162.827h-2.95v.312h2.95v-.312ZM167.002,162.827h-2.95v.312h2.95v-.312Z" fill="#fff" fill-rule="evenodd"/><rect x="280.669" y="171.683" width="12.49" height=".812" fill="#f1f1f2"/><path d="M226.965,169.897v3.247h56.812c.09,0,.163-.073.163-.162h0v-1.786c0-.09-.073-.162-.163-.162h-28.852c-.09,0-.163-.073-.163-.162v-.812c0-.09-.073-.162-.163-.162h-27.634Z" fill="#4d4d4d" fill-rule="evenodd"/><path d="M232.105,169.897h-7.576v3.247h22.797v-3.247h-1.082c-.572,0-1.142-.081-1.698-.241l-3.957-1.141c-.495-.143-1.002-.223-1.511-.238v-.003h-5.206c-.119,0-.234.059-.328.169l-1.11,1.286c-.094.109-.21.169-.328.169Z" fill="#555"/><path d="M226.603,169.897h-38.04v3.247h42.958c.18,0,.326-.145.326-.325h0v-4.221c0-.179-.146-.325-.326-.325h-2.248c-.18,0-.354.059-.497.169l-1.678,1.286c-.142.109-.317.169-.497.169Z" fill="#555"/><path d="M226.965,169.897h-74.492c-.09,0-.163.073-.163.162v2.922c0,.09.073.162.163.162h74.492v-3.247Z" fill="#6a6a6a" fill-rule="evenodd"/><path d="M246.39,170.477h-1.879c-.554,0-1.107-.073-1.645-.216l-3.617-.964c-.477-.127-.967-.192-1.459-.192h-2.085v3.292h10.683v-1.92Z" fill="#f4855c" fill-rule="evenodd"/><polygon points="237.885 170.79 236.459 170.158 236.455 171.488 237.885 170.79" fill="#404040" fill-rule="evenodd"/><rect x="208.145" y="155.15" width="11.886" height="6.089" rx=".572" ry=".572" fill="#ededed"/><path d="M218.015,156.52h-7.897c-.125,0-.219.104-.219.222v2.982c0,.118.094.212.219.212h7.897c.118,0,.212-.094.212-.212v-2.982c0-.118-.094-.222-.212-.222Z" fill="#262626" fill-rule="evenodd"/><rect x="50.197" y="41.917" width="15.124" height="7.384" rx=".406" ry=".406" fill="#f1f1f2" stroke="#d0d3d4" stroke-miterlimit="10" stroke-width=".251"/><rect x="50.839" y="42.56" width="13.84" height="6.097" fill="#101820"/><rect x="87.529" y="41.917" width="15.124" height="7.384" rx=".406" ry=".406" fill="#f1f1f2" stroke="#d0d3d4" stroke-miterlimit="10" stroke-width=".251"/><rect x="88.171" y="42.56" width="13.84" height="6.097" fill="#101820"/><rect x="230.646" y="41.917" width="15.124" height="7.384" rx=".406" ry=".406" fill="#f1f1f2" stroke="#d0d3d4" stroke-miterlimit="10" stroke-width=".251"/><rect x="231.288" y="42.56" width="13.84" height="6.097" fill="#101820"/><rect x="193.314" y="41.917" width="15.124" height="7.384" rx=".406" ry=".406" fill="#f1f1f2" stroke="#d0d3d4" stroke-miterlimit="10" stroke-width=".251"/><rect x="193.956" y="42.56" width="13.84" height="6.097" fill="#101820"/><line x1="57.915" y1="92.58" x2="57.915" y2="45.609" fill="none" stroke="#fff" stroke-linejoin="round" stroke-width="3.5"/><line x1="57.915" y1="92.58" x2="57.915" y2="45.609" fill="none" stroke="#005cb9" stroke-linejoin="round" stroke-width="1.575"/><line x1="238.579" y1="92.084" x2="238.579" y2="45.609" fill="none" stroke="#fff" stroke-linejoin="round" stroke-width="3.5"/><line x1="238.579" y1="92.084" x2="238.579" y2="45.609" fill="none" stroke="#5cc4ff" stroke-linejoin="round" stroke-width="1.575"/><polyline points="67.671 91.836 67.671 72.025 201.111 72.025 201.111 45.609" fill="none" stroke="#fff" stroke-linejoin="round" stroke-width="3.5"/><polyline points="67.671 91.836 67.671 72.025 201.111 72.025 201.111 45.609" fill="none" stroke="#5cc4ff" stroke-linejoin="round" stroke-width="1.575"/><polyline points="231.319 91.588 231.319 79.265 95.091 79.265 95.091 45.609" fill="none" stroke="#fff" stroke-linejoin="round" stroke-width="3.5"/><polyline points="231.319 91.588 231.319 79.265 95.091 79.265 95.091 45.609" fill="none" stroke="#005cb9" stroke-linejoin="round" stroke-width="1.575"/><polyline points="116.112 153.892 116.112 133.759 57.744 133.759 57.744 109.817" fill="none" stroke="#fff" stroke-linejoin="round" stroke-width="3.5"/><polyline points="116.112 153.892 116.112 133.759 57.744 133.759 57.744 109.817" fill="none" stroke="#b2292e" stroke-linejoin="round" stroke-width="1.575"/><polyline points="273.428 153.883 273.436 122.854 244.208 122.854 244.208 107.21" fill="none" stroke="#fff" stroke-linejoin="round" stroke-width="3.5"/><polyline points="273.428 153.883 273.436 122.854 244.208 122.854 244.208 107.21" fill="none" stroke="#f2616f" stroke-linejoin="round" stroke-width="1.575"/><polyline points="125.447 153.892 125.447 122.854 231.319 122.854 231.319 110.703" fill="none" stroke="#fff" stroke-linejoin="round" stroke-width="3.5"/><polyline points="125.447 153.892 125.447 122.854 231.319 122.854 231.319 110.703" fill="none" stroke="#f2616f" stroke-linejoin="round" stroke-width="1.575"/><polyline points="264.068 153.883 264.077 129.873 67.683 129.873 67.683 110.703" fill="none" stroke="#fff" stroke-linejoin="round" stroke-width="3.5"/><polyline points="264.068 153.883 264.077 129.873 67.683 129.873 67.683 110.703" fill="none" stroke="#b2292e" stroke-linejoin="round" stroke-width="1.575"/><rect x="50.839" y="42.56" width="13.84" height="6.097" fill="#101820"/><rect x="88.171" y="42.56" width="13.84" height="6.097" fill="#101820"/><rect x="193.956" y="42.56" width="13.84" height="6.097" fill="#101820"/><rect x="50.839" y="42.56" width="13.84" height="6.097" fill="#005cb9"/><rect x="88.171" y="42.56" width="13.84" height="6.097" fill="#005cb9"/><rect x="193.956" y="42.56" width="13.84" height="6.097" fill="#5cc4ff"/><rect x="231.288" y="42.56" width="13.84" height="6.097" fill="#5cc4ff"/><polygon points="291.671 96.465 159.294 96.465 166.425 90.338 284.985 90.338 291.671 96.465 291.671 96.465 291.671 96.465" fill="#59595c" fill-rule="evenodd"/><polygon points="159.294 98.475 291.671 98.475 291.671 110.934 159.294 110.934 159.294 98.475 159.294 98.475" fill="#59595c" fill-rule="evenodd"/><path d="M254.085,108.508h-4.347v-2.713h4.347v2.713h0ZM254.085,103.835h-4.347v-2.711h4.347v2.711h0ZM259.168,108.508h-4.349v-2.713h4.349v2.713h0ZM259.168,103.835h-4.349v-2.711h4.349v2.711h0ZM264.249,108.508h-4.347v-2.713h4.347v2.713h0ZM264.249,103.835h-4.347v-2.711h4.347v2.711h0ZM269.33,108.508h-4.347v-2.713h4.347v2.713h0ZM269.33,103.835h-4.347v-2.711h4.347v2.711h0ZM249.005,103.835h-4.347v-2.711h4.347v2.711h0ZM243.925,108.508h-4.348v-2.713h4.348v2.713h0ZM243.925,103.835h-4.348v-2.711h4.348v2.711h0ZM249.005,108.508h-4.347v-2.713h4.347v2.713h0Z" fill="#fff" fill-rule="evenodd"/><path d="M220.212,108.508h-4.347v-2.713h4.347v2.713h0ZM220.212,103.835h-4.347v-2.711h4.347v2.711h0ZM225.293,108.508h-4.348v-2.713h4.348v2.713h0ZM225.293,103.835h-4.348v-2.711h4.348v2.711h0ZM230.375,108.508h-4.349v-2.713h4.349v2.713h0ZM230.375,103.835h-4.349v-2.711h4.349v2.711h0ZM235.456,108.508h-4.348v-2.713h4.348v2.713h0ZM235.456,103.835h-4.348v-2.711h4.348v2.711h0ZM215.131,103.835h-4.348v-2.711h4.348v2.711h0ZM210.05,108.508h-4.347v-2.713h4.347v2.713h0ZM210.05,103.835h-4.347v-2.711h4.347v2.711h0ZM215.131,108.508h-4.348v-2.713h4.348v2.713h0Z" fill="#fff" fill-rule="evenodd"/><path d="M174.806,108.275h-11.412v-3.584h11.412v3.584h0ZM189.291,108.275h-11.411v-3.584h11.411v3.584h0Z" fill="#fff" fill-rule="evenodd"/><polygon points="138.468 96.465 6.091 96.465 13.223 90.338 131.782 90.338 138.468 96.465 138.468 96.465 138.468 96.465" fill="#59595c" fill-rule="evenodd"/><polygon points="6.091 98.475 138.468 98.475 138.468 110.934 6.091 110.934 6.091 98.475 6.091 98.475" fill="#59595c" fill-rule="evenodd"/><path d="M100.883,108.508h-4.347v-2.713h4.347v2.713h0ZM100.883,103.835h-4.347v-2.711h4.347v2.711h0ZM105.966,108.508h-4.349v-2.713h4.349v2.713h0ZM105.966,103.835h-4.349v-2.711h4.349v2.711h0ZM111.046,108.508h-4.347v-2.713h4.347v2.713h0ZM111.046,103.835h-4.347v-2.711h4.347v2.711h0ZM116.127,108.508h-4.347v-2.713h4.347v2.713h0ZM116.127,103.835h-4.347v-2.711h4.347v2.711h0ZM95.802,103.835h-4.347v-2.711h4.347v2.711h0ZM90.722,108.508h-4.348v-2.713h4.348v2.713h0ZM90.722,103.835h-4.348v-2.711h4.348v2.711h0ZM95.802,108.508h-4.347v-2.713h4.347v2.713h0Z" fill="#fff" fill-rule="evenodd"/><path d="M67.009,108.508h-4.347v-2.713h4.347v2.713h0ZM67.009,103.835h-4.347v-2.711h4.347v2.711h0ZM72.09,108.508h-4.348v-2.713h4.348v2.713h0ZM72.09,103.835h-4.348v-2.711h4.348v2.711h0ZM77.173,108.508h-4.349v-2.713h4.349v2.713h0ZM77.173,103.835h-4.349v-2.711h4.349v2.711h0ZM82.253,108.508h-4.348v-2.713h4.348v2.713h0ZM82.253,103.835h-4.348v-2.711h4.348v2.711h0ZM61.928,103.835h-4.348v-2.711h4.348v2.711h0ZM56.848,108.508h-4.347v-2.713h4.347v2.713h0ZM56.848,103.835h-4.347v-2.711h4.347v2.711h0ZM61.928,108.508h-4.348v-2.713h4.348v2.713h0Z" fill="#fff" fill-rule="evenodd"/><path d="M21.603,108.275h-11.412v-3.584h11.412v3.584h0ZM36.088,108.275h-11.411v-3.584h11.411v3.584h0Z" fill="#fff" fill-rule="evenodd"/><rect x="103.217" y="157.12" width="5.801" height="5.186" fill="#262626"/><rect x="96.107" y="157.127" width="5.801" height="5.186" fill="#262626"/><rect x="251.249" y="157.12" width="5.801" height="5.186" fill="#262626"/><rect x="244.15" y="157.121" width="5.801" height="5.186" fill="#262626"/><path d="M58.298,218.48c-.048-.187-.114-.357-.198-.514-.084-.155-.192-.29-.324-.404s-.287-.203-.463-.266c-.177-.063-.383-.095-.617-.095-.342,0-.638.069-.886.207-.249.139-.452.322-.608.554-.156.23-.271.493-.346.787-.075.294-.113.595-.113.9s.038.606.113.899c.075.295.19.557.346.788.156.23.359.415.608.554.249.138.544.207.886.207.252,0,.474-.044.666-.131s.357-.207.495-.36c.138-.152.246-.331.324-.535.078-.204.129-.423.153-.657h1.098c-.024.385-.106.735-.247,1.054-.141.317-.332.592-.572.823-.24.23-.522.409-.846.535-.324.126-.681.189-1.071.189-.48,0-.911-.089-1.292-.266s-.704-.419-.967-.725c-.264-.306-.467-.663-.607-1.071-.141-.408-.212-.843-.212-1.305,0-.456.071-.888.212-1.296.141-.408.343-.766.607-1.071.264-.306.586-.549.967-.729.381-.181.812-.271,1.292-.271.36,0,.699.05,1.017.148.318.1.599.243.841.433.243.188.439.418.59.688.15.27.243.579.279.927h-1.125Z" fill="#221f1f"/><path d="M62.447,222.989c-.372,0-.704-.062-.994-.185-.292-.123-.537-.292-.738-.509-.201-.216-.354-.474-.459-.773s-.157-.63-.157-.99c0-.354.052-.681.157-.98.105-.301.258-.559.459-.774s.447-.386.738-.509c.291-.123.622-.185.994-.185s.704.062.995.185.537.293.738.509c.201.216.354.474.459.774.105.3.158.627.158.98,0,.36-.053.69-.158.99s-.258.558-.459.773c-.201.217-.447.386-.738.509s-.623.185-.995.185ZM62.447,222.179c.228,0,.426-.049.594-.145s.306-.222.414-.378.188-.331.238-.526.077-.395.077-.599c0-.198-.026-.396-.077-.594s-.13-.374-.238-.526c-.108-.153-.246-.277-.414-.374-.168-.096-.366-.144-.594-.144s-.426.048-.594.144c-.168.097-.306.221-.414.374-.108.152-.188.328-.239.526-.051.198-.076.396-.076.594,0,.204.025.403.076.599.051.195.131.37.239.526s.246.282.414.378.366.145.594.145Z" fill="#221f1f"/><path d="M65.651,218.209h.972v.685l.018.018c.156-.258.36-.46.612-.607.252-.146.531-.221.837-.221.51,0,.912.133,1.206.396s.441.66.441,1.188v3.195h-1.026v-2.925c-.012-.366-.09-.632-.234-.797-.144-.165-.369-.247-.675-.247-.174,0-.33.031-.468.095-.138.062-.255.149-.351.261-.096.111-.171.241-.225.392-.054.149-.081.309-.081.477v2.745h-1.026v-4.653Z" fill="#221f1f"/><path d="M70.348,218.209h.774v-1.395h1.026v1.395h.927v.766h-.927v2.483c0,.108.004.201.014.279.009.078.03.144.063.198.033.054.082.095.148.121.066.027.156.041.27.041.072,0,.144-.002.216-.005s.144-.014.216-.031v.792c-.114.012-.225.023-.333.036-.108.012-.219.018-.333.018-.27,0-.487-.025-.652-.076s-.294-.126-.387-.226c-.093-.099-.156-.223-.189-.373-.033-.15-.052-.321-.058-.513v-2.745h-.774v-.766Z" fill="#221f1f"/><path d="M73.813,218.209h.963v.9h.018c.03-.126.088-.249.175-.369s.192-.229.315-.328c.123-.1.259-.179.409-.239.15-.06.303-.09.459-.09.12,0,.203.003.248.01.045.006.091.012.14.018v.99c-.072-.013-.146-.022-.221-.032-.075-.009-.148-.013-.22-.013-.174,0-.338.034-.491.104-.153.068-.287.171-.4.306-.114.135-.204.302-.27.499-.066.198-.099.427-.099.685v2.214h-1.026v-4.653Z" fill="#221f1f"/><path d="M78.952,222.989c-.372,0-.704-.062-.994-.185-.292-.123-.537-.292-.738-.509-.201-.216-.354-.474-.459-.773s-.157-.63-.157-.99c0-.354.052-.681.157-.98.105-.301.258-.559.459-.774s.447-.386.738-.509c.291-.123.622-.185.994-.185s.704.062.995.185.537.293.738.509c.201.216.354.474.459.774.105.3.158.627.158.98,0,.36-.053.69-.158.99s-.258.558-.459.773c-.201.217-.447.386-.738.509s-.623.185-.995.185ZM78.952,222.179c.228,0,.426-.049.594-.145s.306-.222.414-.378.188-.331.238-.526.077-.395.077-.599c0-.198-.026-.396-.077-.594s-.13-.374-.238-.526c-.108-.153-.246-.277-.414-.374-.168-.096-.366-.144-.594-.144s-.426.048-.594.144c-.168.097-.306.221-.414.374-.108.152-.188.328-.239.526-.051.198-.076.396-.076.594,0,.204.025.403.076.599.051.195.131.37.239.526s.246.282.414.378.366.145.594.145Z" fill="#221f1f"/><path d="M82.183,216.437h1.026v6.426h-1.026v-6.426Z" fill="#221f1f"/><path d="M84.352,216.437h1.026v6.426h-1.026v-6.426Z" fill="#221f1f"/><path d="M87.295,220.802c0,.18.025.354.077.521.051.168.127.315.229.441s.231.227.387.301c.156.075.342.113.558.113.3,0,.542-.064.725-.194.183-.129.32-.322.41-.58h.972c-.054.252-.147.477-.279.675s-.291.364-.477.5c-.186.135-.395.236-.625.306s-.472.104-.725.104c-.366,0-.69-.06-.972-.18-.282-.12-.521-.288-.716-.504-.195-.217-.342-.475-.441-.774s-.148-.63-.148-.99c0-.33.053-.644.158-.94s.255-.558.45-.783c.195-.225.431-.403.707-.535s.588-.198.936-.198c.366,0,.694.077.985.229.291.153.533.355.725.607s.332.542.418.869.109.664.068,1.013h-3.42ZM89.689,220.126c-.012-.162-.046-.317-.104-.468-.057-.149-.135-.28-.234-.392-.099-.11-.219-.201-.36-.27-.141-.069-.299-.104-.473-.104-.18,0-.343.031-.49.095-.147.062-.273.149-.378.261s-.189.241-.252.392c-.063.149-.098.312-.104.485h2.394Z" fill="#221f1f"/><path d="M91.498,218.209h.963v.9h.018c.03-.126.088-.249.175-.369s.192-.229.315-.328c.123-.1.259-.179.409-.239.15-.06.303-.09.459-.09.12,0,.203.003.248.01.045.006.091.012.14.018v.99c-.072-.013-.146-.022-.221-.032-.075-.009-.148-.013-.22-.013-.174,0-.338.034-.491.104-.153.068-.287.171-.4.306-.114.135-.204.302-.27.499-.066.198-.099.427-.099.685v2.214h-1.026v-4.653Z" fill="#221f1f"/><path d="M99.031,216.437h1.197l2.475,6.426h-1.206l-.603-1.701h-2.565l-.603,1.701h-1.161l2.466-6.426ZM98.635,220.307h1.962l-.963-2.764h-.027l-.972,2.764Z" fill="#221f1f"/><path d="M199.138,218.48c-.048-.187-.114-.357-.198-.514-.084-.155-.192-.29-.324-.404s-.287-.203-.463-.266c-.177-.063-.383-.095-.617-.095-.342,0-.638.069-.886.207-.249.139-.452.322-.608.554-.156.23-.271.493-.346.787-.075.294-.113.595-.113.9s.038.606.113.899c.075.295.19.557.346.788.156.23.359.415.608.554.249.138.544.207.886.207.252,0,.474-.044.666-.131s.357-.207.495-.36c.138-.152.246-.331.324-.535.078-.204.129-.423.153-.657h1.098c-.024.385-.106.735-.247,1.054-.141.317-.332.592-.572.823-.24.23-.522.409-.846.535-.324.126-.681.189-1.071.189-.48,0-.911-.089-1.292-.266s-.704-.419-.967-.725c-.264-.306-.467-.663-.607-1.071-.141-.408-.212-.843-.212-1.305,0-.456.071-.888.212-1.296.141-.408.343-.766.607-1.071.264-.306.586-.549.967-.729.381-.181.812-.271,1.292-.271.36,0,.699.05,1.017.148.318.1.599.243.841.433.243.188.439.418.59.688.15.27.243.579.279.927h-1.125Z" fill="#221f1f"/><path d="M203.287,222.989c-.372,0-.704-.062-.994-.185-.292-.123-.537-.292-.738-.509-.201-.216-.354-.474-.459-.773s-.157-.63-.157-.99c0-.354.052-.681.157-.98.105-.301.258-.559.459-.774s.447-.386.738-.509c.291-.123.622-.185.994-.185s.704.062.995.185.537.293.738.509c.201.216.354.474.459.774.105.3.158.627.158.98,0,.36-.053.69-.158.99s-.258.558-.459.773c-.201.217-.447.386-.738.509s-.623.185-.995.185ZM203.287,222.179c.228,0,.426-.049.594-.145s.306-.222.414-.378.188-.331.238-.526.077-.395.077-.599c0-.198-.026-.396-.077-.594s-.13-.374-.238-.526c-.108-.153-.246-.277-.414-.374-.168-.096-.366-.144-.594-.144s-.426.048-.594.144c-.168.097-.306.221-.414.374-.108.152-.188.328-.239.526-.051.198-.076.396-.076.594,0,.204.025.403.076.599.051.195.131.37.239.526s.246.282.414.378.366.145.594.145Z" fill="#221f1f"/><path d="M206.491,218.209h.972v.685l.018.018c.156-.258.36-.46.612-.607.252-.146.531-.221.837-.221.51,0,.912.133,1.206.396s.441.66.441,1.188v3.195h-1.026v-2.925c-.012-.366-.09-.632-.234-.797-.144-.165-.369-.247-.675-.247-.174,0-.33.031-.468.095-.138.062-.255.149-.351.261-.096.111-.171.241-.225.392-.054.149-.081.309-.081.477v2.745h-1.026v-4.653Z" fill="#221f1f"/><path d="M211.188,218.209h.774v-1.395h1.026v1.395h.927v.766h-.927v2.483c0,.108.004.201.014.279.009.078.03.144.063.198.033.054.082.095.148.121.066.027.156.041.27.041.072,0,.144-.002.216-.005s.144-.014.216-.031v.792c-.114.012-.225.023-.333.036-.108.012-.219.018-.333.018-.27,0-.487-.025-.652-.076s-.294-.126-.387-.226c-.093-.099-.156-.223-.189-.373-.033-.15-.052-.321-.058-.513v-2.745h-.774v-.766Z" fill="#221f1f"/><path d="M214.654,218.209h.963v.9h.018c.03-.126.088-.249.175-.369s.192-.229.315-.328c.123-.1.259-.179.409-.239.15-.06.303-.09.459-.09.12,0,.203.003.248.01.045.006.091.012.14.018v.99c-.072-.013-.146-.022-.221-.032-.075-.009-.148-.013-.22-.013-.174,0-.338.034-.491.104-.153.068-.287.171-.4.306-.114.135-.204.302-.27.499-.066.198-.099.427-.099.685v2.214h-1.026v-4.653Z" fill="#221f1f"/><path d="M219.792,222.989c-.372,0-.704-.062-.994-.185-.292-.123-.537-.292-.738-.509-.201-.216-.354-.474-.459-.773s-.157-.63-.157-.99c0-.354.052-.681.157-.98.105-.301.258-.559.459-.774s.447-.386.738-.509c.291-.123.622-.185.994-.185s.703.062.995.185c.29.123.536.293.737.509s.354.474.459.774c.105.3.158.627.158.98,0,.36-.053.69-.158.99-.104.3-.258.558-.459.773-.201.217-.447.386-.737.509-.292.123-.623.185-.995.185ZM219.792,222.179c.228,0,.425-.049.593-.145s.307-.222.414-.378c.108-.156.188-.331.239-.526.051-.195.076-.395.076-.599,0-.198-.025-.396-.076-.594-.052-.198-.131-.374-.239-.526-.107-.153-.246-.277-.414-.374-.168-.096-.365-.144-.593-.144s-.426.048-.594.144c-.168.097-.306.221-.414.374-.108.152-.188.328-.239.526-.051.198-.076.396-.076.594,0,.204.025.403.076.599.051.195.131.37.239.526s.246.282.414.378.366.145.594.145Z" fill="#221f1f"/><path d="M223.023,216.437h1.025v6.426h-1.025v-6.426Z" fill="#221f1f"/><path d="M225.192,216.437h1.025v6.426h-1.025v-6.426Z" fill="#221f1f"/><path d="M228.135,220.802c0,.18.025.354.077.521.051.168.127.315.229.441.102.126.23.227.387.301.156.075.342.113.558.113.3,0,.542-.064.725-.194.183-.129.319-.322.409-.58h.973c-.055.252-.147.477-.279.675s-.291.364-.477.5c-.187.135-.395.236-.626.306-.23.069-.473.104-.725.104-.366,0-.689-.06-.972-.18s-.521-.288-.716-.504c-.195-.217-.342-.475-.44-.774-.1-.3-.148-.63-.148-.99,0-.33.052-.644.157-.94.104-.297.255-.558.45-.783.194-.225.43-.403.706-.535s.588-.198.937-.198c.365,0,.694.077.985.229.291.153.532.355.725.607.191.252.331.542.418.869s.109.664.067,1.013h-3.42ZM230.529,220.126c-.013-.162-.047-.317-.104-.468-.058-.149-.136-.28-.234-.392-.099-.11-.219-.201-.36-.27-.141-.069-.298-.104-.472-.104-.181,0-.344.031-.491.095-.146.062-.272.149-.378.261-.104.111-.188.241-.252.392-.062.149-.098.312-.104.485h2.395Z" fill="#221f1f"/><path d="M232.338,218.209h.963v.9h.019c.029-.126.088-.249.175-.369s.192-.229.315-.328c.123-.1.259-.179.409-.239.15-.06.303-.09.459-.09.12,0,.202.003.248.01.045.006.091.012.139.018v.99c-.071-.013-.146-.022-.22-.032-.075-.009-.148-.013-.221-.013-.174,0-.338.034-.49.104-.153.068-.287.171-.401.306-.113.135-.204.302-.27.499-.066.198-.099.427-.099.685v2.214h-1.026v-4.653Z" fill="#221f1f"/><path d="M238.151,216.437h3.123c.576,0,1.038.132,1.387.396.348.265.521.663.521,1.197,0,.324-.079.602-.238.832-.159.231-.386.41-.68.536v.018c.396.084.696.271.9.562s.306.656.306,1.094c0,.252-.045.487-.135.706-.09.22-.231.408-.423.567-.192.159-.438.285-.738.378s-.657.14-1.071.14h-2.952v-6.426ZM239.276,219.127h1.836c.271,0,.495-.076.676-.229.18-.152.27-.373.27-.661,0-.324-.081-.552-.243-.684-.162-.133-.396-.198-.702-.198h-1.836v1.772ZM239.276,221.945h1.989c.342,0,.607-.089.797-.266.188-.177.283-.428.283-.751,0-.318-.095-.562-.283-.734-.189-.171-.455-.256-.797-.256h-1.989v2.007Z" fill="#221f1f"/><path d="M64.486,16.107h1.125v2.556h2.925v-2.556h1.125v6.426h-1.125v-2.898h-2.925v2.898h-1.125v-6.426Z" fill="#221f1f"/><path d="M73,22.658c-.372,0-.704-.062-.994-.185-.292-.123-.537-.292-.738-.509-.201-.216-.354-.474-.459-.773s-.157-.63-.157-.99c0-.354.052-.681.157-.98.105-.301.258-.559.459-.774s.447-.386.738-.509c.291-.123.622-.185.994-.185s.704.062.995.185.537.293.738.509c.201.216.354.474.459.774.105.3.158.627.158.98,0,.36-.053.69-.158.99s-.258.558-.459.773c-.201.217-.447.386-.738.509s-.623.185-.995.185ZM73,21.849c.228,0,.426-.049.594-.145s.306-.222.414-.378.188-.331.238-.526.077-.395.077-.599c0-.198-.026-.396-.077-.594s-.13-.374-.238-.526c-.108-.153-.246-.277-.414-.374-.168-.096-.366-.144-.594-.144s-.426.048-.594.144c-.168.097-.306.221-.414.374-.108.152-.188.328-.239.526-.051.198-.076.396-.076.594,0,.204.025.403.076.599.051.195.131.37.239.526s.246.282.414.378.366.145.594.145Z" fill="#221f1f"/><path d="M76.978,21.038c.03.3.144.51.342.63.198.12.435.181.711.181.096,0,.205-.008.328-.022.123-.016.239-.044.347-.086s.196-.104.266-.185c.069-.081.1-.188.094-.319s-.054-.24-.144-.324c-.09-.084-.206-.151-.346-.202-.141-.051-.302-.095-.481-.131-.18-.036-.363-.075-.549-.117-.192-.042-.376-.093-.553-.152-.177-.061-.336-.142-.477-.243-.141-.103-.253-.232-.337-.392-.084-.159-.126-.355-.126-.59,0-.252.061-.463.184-.634.123-.172.279-.31.468-.414.189-.105.399-.179.63-.221s.452-.063.662-.063c.24,0,.469.026.688.077.219.051.417.133.594.247.177.114.324.263.441.445.117.184.19.404.22.662h-1.071c-.048-.246-.161-.411-.337-.495-.177-.084-.38-.126-.608-.126-.072,0-.157.006-.256.018-.099.013-.192.035-.279.067-.087.033-.161.081-.221.145-.06.062-.09.146-.09.247,0,.126.043.229.13.307.087.077.201.143.342.193.141.051.301.094.481.13.18.036.366.075.558.117.186.042.369.093.549.153.18.06.34.141.481.243.141.102.255.23.342.387s.131.348.131.576c0,.275-.063.51-.189.702-.126.191-.29.348-.49.468-.201.12-.425.207-.67.261-.246.054-.489.081-.729.081-.294,0-.566-.033-.814-.099-.249-.066-.465-.167-.648-.302-.183-.135-.327-.303-.432-.504s-.161-.439-.167-.716h1.026Z" fill="#221f1f"/><path d="M80.407,17.879h.774v-1.395h1.026v1.395h.927v.766h-.927v2.483c0,.108.004.201.014.279.009.078.03.144.063.198.033.054.082.095.148.121.066.027.156.041.27.041.072,0,.144-.002.216-.005s.144-.014.216-.031v.792c-.114.012-.225.023-.333.036-.108.012-.219.018-.333.018-.27,0-.487-.025-.652-.076s-.294-.126-.387-.226c-.093-.099-.156-.223-.189-.373-.033-.15-.052-.321-.058-.513v-2.745h-.774v-.766Z" fill="#221f1f"/><path d="M86.311,17.277c.216,0,.426-.019.63-.054.204-.036.389-.097.554-.181s.306-.191.423-.324c.117-.132.193-.293.229-.485h.837v6.3h-1.125v-4.446h-1.548v-.81Z" fill="#221f1f"/><path d="M206.113,16.107h1.125v2.556h2.925v-2.556h1.125v6.426h-1.125v-2.898h-2.925v2.898h-1.125v-6.426Z" fill="#221f1f"/><path d="M214.627,22.658c-.372,0-.704-.062-.994-.185-.292-.123-.537-.292-.738-.509-.201-.216-.354-.474-.459-.773s-.157-.63-.157-.99c0-.354.052-.681.157-.98.105-.301.258-.559.459-.774s.447-.386.738-.509c.291-.123.622-.185.994-.185s.704.062.995.185.537.293.738.509c.201.216.354.474.459.774.105.3.158.627.158.98,0,.36-.053.69-.158.99s-.258.558-.459.773c-.201.217-.447.386-.738.509s-.623.185-.995.185ZM214.627,21.849c.228,0,.426-.049.594-.145s.306-.222.414-.378.188-.331.238-.526.077-.395.077-.599c0-.198-.026-.396-.077-.594s-.13-.374-.238-.526c-.108-.153-.246-.277-.414-.374-.168-.096-.366-.144-.594-.144s-.426.048-.594.144c-.168.097-.306.221-.414.374-.108.152-.188.328-.239.526-.051.198-.076.396-.076.594,0,.204.025.403.076.599.051.195.131.37.239.526s.246.282.414.378.366.145.594.145Z" fill="#221f1f"/><path d="M218.605,21.038c.03.3.144.51.342.63.198.12.435.181.711.181.096,0,.205-.008.328-.022.124-.016.238-.044.346-.086.109-.042.197-.104.266-.185s.102-.188.096-.319c-.008-.132-.055-.24-.145-.324s-.205-.151-.347-.202c-.141-.051-.301-.095-.481-.131-.18-.036-.363-.075-.549-.117-.192-.042-.376-.093-.553-.152-.177-.061-.336-.142-.477-.243-.141-.103-.253-.232-.337-.392-.084-.159-.126-.355-.126-.59,0-.252.061-.463.184-.634.123-.172.279-.31.468-.414.189-.105.399-.179.63-.221s.452-.063.662-.063c.24,0,.469.026.688.077.219.051.416.133.594.247.176.114.324.263.441.445.117.184.189.404.221.662h-1.072c-.047-.246-.16-.411-.337-.495s-.379-.126-.607-.126c-.072,0-.157.006-.256.018-.099.013-.192.035-.279.067-.087.033-.161.081-.221.145-.06.062-.09.146-.09.247,0,.126.043.229.13.307.087.077.201.143.342.193.141.051.301.094.481.13.18.036.366.075.557.117.188.042.369.093.549.153.182.06.342.141.482.243.141.102.256.23.342.387.088.156.131.348.131.576,0,.275-.062.51-.189.702-.125.191-.289.348-.49.468s-.424.207-.67.261c-.246.054-.489.081-.729.081-.294,0-.566-.033-.814-.099-.249-.066-.465-.167-.648-.302-.183-.135-.327-.303-.432-.504s-.161-.439-.167-.716h1.026Z" fill="#221f1f"/><path d="M222.033,17.879h.773v-1.395h1.026v1.395h.927v.766h-.927v2.483c0,.108.005.201.014.279s.029.144.062.198c.033.054.083.095.148.121.066.027.156.041.271.041.072,0,.144-.002.216-.005s.144-.014.216-.031v.792c-.114.012-.225.023-.333.036-.107.012-.219.018-.333.018-.27,0-.487-.025-.652-.076s-.294-.126-.387-.226c-.094-.099-.156-.223-.189-.373s-.053-.321-.059-.513v-2.745h-.773v-.766Z" fill="#221f1f"/><path d="M232.113,22.532h-4.303c.006-.522.132-.978.378-1.368.246-.39.582-.729,1.009-1.017.203-.15.417-.296.639-.437.222-.142.426-.293.612-.455.186-.162.339-.337.459-.526.12-.188.183-.406.188-.652,0-.114-.014-.235-.04-.364-.027-.129-.08-.249-.157-.36-.078-.11-.187-.204-.324-.279-.139-.074-.318-.112-.54-.112-.204,0-.374.041-.509.122s-.243.191-.324.333c-.081.141-.141.308-.18.499-.039.192-.062.399-.067.621h-1.026c0-.348.047-.67.14-.968.093-.297.232-.553.419-.77.186-.216.412-.385.679-.508.268-.123.578-.185.932-.185.384,0,.705.062.963.188s.467.285.626.478c.159.191.271.4.338.625.065.226.099.439.099.644,0,.252-.039.48-.117.685s-.183.392-.314.562c-.133.171-.282.328-.45.472-.168.145-.342.279-.522.405-.18.126-.359.246-.54.36-.18.114-.347.228-.499.342-.153.114-.287.232-.4.355-.114.123-.192.254-.234.392h3.069v.918Z" fill="#221f1f"/></svg>