<?xml version="1.0" encoding="utf-8"?>
<!-- Generator: Adobe Illustrator 21.1.0, SVG Export Plug-In . SVG Version: 6.00 Build 0)  -->
<svg version="1.1" xmlns="http://www.w3.org/2000/svg" xmlns:xlink="http://www.w3.org/1999/xlink" x="0px" y="0px"
	 width="26.537px" height="30.96px" viewBox="0 0 26.537 30.96" enable-background="new 0 0 26.537 30.96" xml:space="preserve">
<g id="Layer_1">
</g>
<g id="Layer_1_copy">
	<g>
		<g>
			<path fill="#0777BE" d="M24.946,0H1.615C0.727,0,0,0.672,0,1.561v27.832c0,0.889,0.727,1.567,1.615,1.567h23.331
				c0.887,0,1.591-0.678,1.591-1.567V1.561C26.537,0.672,25.833,0,24.946,0z M23.635,27.229c0,0.529-0.368,0.967-0.896,0.967H3.716
				c-0.528,0-0.952-0.438-0.952-0.967V3.737c0-0.529,0.424-0.973,0.952-0.973h19.023c0.528,0,0.896,0.444,0.896,0.973V27.229z"/>
		</g>
		<g>
			<path fill="#0777BE" d="M5.179,8.431h15.807c0.305,0,0.553-0.248,0.553-0.553v-2.35c0-0.305-0.248-0.553-0.553-0.553H5.179
				c-0.305,0-0.553,0.248-0.553,0.553v2.35C4.626,8.184,4.874,8.431,5.179,8.431z"/>
			<path fill="#0777BE" d="M19.893,23.263H6.138c-0.749,0-1.356,0.632-1.356,1.382c0,0.75,0.607,1.382,1.356,1.382h13.755
				c0.749,0,1.356-0.632,1.356-1.382C21.248,23.895,20.642,23.263,19.893,23.263z"/>
			<g>
				<path fill="#0777BE" d="M11.454,14.06H5.987c-0.749,0-1.356,0.632-1.356,1.382c0,0.75,0.607,1.382,1.356,1.382h5.466
					c0.749,0,1.356-0.632,1.356-1.382C12.809,14.692,12.203,14.06,11.454,14.06z"/>
				<path fill="#0777BE" d="M11.454,9.929H5.987c-0.749,0-1.356,0.632-1.356,1.382c0,0.75,0.607,1.382,1.356,1.382h5.466
					c0.749,0,1.356-0.632,1.356-1.382C12.809,10.56,12.203,9.929,11.454,9.929z"/>
			</g>
			<path fill="#0777BE" d="M21.539,21.08V10.5c0-0.315-0.248-0.571-0.553-0.571h-6.283c-0.305,0-0.553,0.256-0.553,0.571v10.58
				c0,0.315,0.248,0.571,0.553,0.571h6.283C21.291,21.651,21.539,21.395,21.539,21.08z"/>
		</g>
		<g>
			<circle fill="#0777BE" cx="6.518" cy="19.898" r="1.886"/>
			<circle fill="#0777BE" cx="10.924" cy="19.898" r="1.886"/>
		</g>
	</g>
</g>
</svg>
