<?xml version="1.0" encoding="utf-8"?>
<!-- Generator: Adobe Illustrator 21.1.0, SVG Export Plug-In . SVG Version: 6.00 Build 0)  -->
<svg version="1.1" id="Layer_1" xmlns="http://www.w3.org/2000/svg" xmlns:xlink="http://www.w3.org/1999/xlink" x="0px" y="0px"
	 width="36px" height="30.934px" viewBox="0 0 36 30.934" enable-background="new 0 0 36 30.934" xml:space="preserve">
<g>
	<path fill="#0777BE" d="M35.369,3.135C31.654,0.794,26.847,0,24.336,0c-2.894,0-6.317,2.029-6.334,2.029
		C17.984,2.029,14.559,0,11.664,0C9.153,0,4.346,0.794,0.631,3.135C0.237,3.382,0,3.817,0,4.282v25.975
		c0,0.53,0.58,0.853,1.034,0.578c3.537-2.148,8.211-2.885,10.631-2.885c1.912,0,3.501,0.392,4.693,1.05l0.915,0.581
		c0.444,0.282,1.01,0.282,1.454,0l0.916-0.581c1.159-0.649,2.781-1.05,4.693-1.05c2.42,0,7.093,0.738,10.631,2.885
		C35.42,31.109,36,30.787,36,30.256V4.282C36,3.817,35.763,3.382,35.369,3.135z M15.539,25.304
		c-1.167-0.333-2.467-0.541-3.874-0.541c-1.906,0-5.568,0.36-7.579,1.076c-0.439,0.156-0.9-0.175-0.9-0.641V5.709
		c0-0.245,0.131-0.473,0.346-0.591c2.324-1.284,6.179-1.933,8.134-1.933c2.072,0,3.596,0.802,4.487,1.456
		c0.172,0.126,0.27,0.329,0.27,0.542l0,19.462C16.422,25.104,15.981,25.431,15.539,25.304z M32.815,25.198
		c0,0.466-0.461,0.797-0.9,0.641c-2.011-0.715-5.673-1.076-7.579-1.076c-1.397,0-2.687,0.204-3.847,0.533
		c-0.433,0.123-0.861-0.202-0.861-0.652l0-19.46c0-0.212,0.098-0.414,0.268-0.541c0.883-0.654,2.367-1.458,4.44-1.459h0.001
		c1.954,0,5.809,0.649,8.133,1.933c0.214,0.118,0.346,0.346,0.346,0.591V25.198z"/>
	<path fill="#0777BE" d="M30.795,7.615c-0.211-0.076-5.219-1.849-8.94-0.794c-0.537,0.152-0.848,0.711-0.696,1.247
		c0.152,0.537,0.711,0.849,1.248,0.696c3.091-0.876,7.66,0.735,7.706,0.752c0.113,0.04,0.228,0.06,0.341,0.06
		c0.414,0,0.802-0.257,0.951-0.669C31.592,8.382,31.32,7.804,30.795,7.615z"/>
	<path fill="#0777BE" d="M30.795,12.042c-0.211-0.076-5.219-1.849-8.94-0.794c-0.537,0.152-0.848,0.711-0.696,1.247
		c0.152,0.537,0.711,0.849,1.248,0.696c3.083-0.874,7.633,0.726,7.705,0.751c0.113,0.041,0.228,0.06,0.342,0.06
		c0.414,0,0.803-0.257,0.951-0.669C31.592,12.81,31.32,12.231,30.795,12.042z"/>
	<path fill="#0777BE" d="M30.795,16.47c-0.211-0.076-5.219-1.849-8.94-0.794c-0.537,0.152-0.848,0.711-0.696,1.248
		c0.152,0.536,0.711,0.848,1.248,0.696c3.091-0.877,7.66,0.735,7.706,0.752v0c0.113,0.041,0.228,0.06,0.341,0.06
		c0.414,0,0.802-0.257,0.951-0.669C31.592,17.237,31.32,16.659,30.795,16.47z"/>
	<path fill="#0777BE" d="M30.795,20.897c-0.211-0.076-5.22-1.849-8.94-0.794c-0.537,0.152-0.848,0.711-0.696,1.248
		c0.152,0.536,0.711,0.848,1.248,0.696c3.083-0.875,7.633,0.726,7.705,0.751c0.113,0.041,0.228,0.06,0.342,0.06
		c0.414,0,0.803-0.257,0.951-0.669C31.592,21.665,31.32,21.086,30.795,20.897z"/>
	<path fill="#0777BE" d="M14.06,6.821c-3.72-1.055-8.729,0.718-8.94,0.794C4.595,7.804,4.323,8.382,4.511,8.907
		c0.148,0.412,0.537,0.669,0.951,0.669c0.113,0,0.228-0.019,0.341-0.059c0.046-0.016,4.614-1.629,7.706-0.752
		c0.536,0.153,1.095-0.159,1.247-0.696C14.909,7.532,14.597,6.973,14.06,6.821z"/>
	<path fill="#0777BE" d="M14.06,11.248c-3.72-1.055-8.728,0.718-8.94,0.794c-0.525,0.189-0.798,0.767-0.609,1.292
		c0.148,0.412,0.537,0.669,0.951,0.669c0.113,0,0.229-0.019,0.342-0.06c0.046-0.016,4.603-1.631,7.705-0.751
		c0.536,0.153,1.095-0.159,1.247-0.696C14.909,11.959,14.597,11.401,14.06,11.248z"/>
	<path fill="#0777BE" d="M14.06,15.676c-3.72-1.055-8.729,0.718-8.94,0.794c-0.525,0.189-0.797,0.767-0.609,1.292
		c0.148,0.412,0.537,0.669,0.951,0.669c0.113,0,0.228-0.019,0.341-0.059c0.046-0.016,4.614-1.628,7.706-0.752
		c0.536,0.152,1.095-0.159,1.247-0.696C14.909,16.387,14.597,15.828,14.06,15.676z"/>
	<path fill="#0777BE" d="M14.06,20.103c-3.721-1.055-8.729,0.718-8.94,0.794c-0.525,0.189-0.798,0.767-0.609,1.292
		c0.148,0.412,0.537,0.669,0.951,0.669c0.113,0,0.229-0.019,0.342-0.06c0.046-0.016,4.603-1.631,7.705-0.751
		c0.536,0.152,1.095-0.159,1.247-0.696C14.909,20.814,14.597,20.256,14.06,20.103z"/>
</g>
</svg>
