<?xml version="1.0" encoding="UTF-8"?><svg xmlns="http://www.w3.org/2000/svg" width="4.125in" height="2.933in" viewBox="0 0 297 211.184"><g id="a"><rect x="2.001" y="4.351" width="293.969" height="58.794" fill="none" stroke="#a2aaad" stroke-linecap="round" stroke-linejoin="round" stroke-width="1.199"/><rect x="9.851" y="33.841" width="135.226" height="23.518" fill="#caced0" stroke="#a2aaad" stroke-linecap="round" stroke-linejoin="round" stroke-width="1.225"/><rect x="152.314" y="33.841" width="135.226" height="23.518" fill="#caced0" stroke="#a2aaad" stroke-linecap="round" stroke-linejoin="round" stroke-width="1.225"/><path d="M64.889,15.734h1.125v2.556h2.925v-2.556h1.125v6.426h-1.125v-2.898h-2.925v2.898h-1.125v-6.426Z" fill="#221f1f"/><path d="M73.402,22.286c-.372,0-.703-.062-.994-.185s-.537-.292-.738-.509c-.201-.216-.354-.474-.459-.773-.104-.3-.157-.63-.157-.99,0-.354.053-.681.157-.98.105-.301.258-.559.459-.774s.447-.386.738-.509.622-.185.994-.185.704.062.995.185.537.293.737.509c.201.216.354.474.459.774.105.3.158.627.158.98,0,.36-.053.69-.158.99-.104.3-.258.558-.459.773-.2.217-.446.386-.737.509s-.623.185-.995.185ZM73.402,21.476c.229,0,.427-.049.595-.145s.306-.222.414-.378c.107-.156.188-.331.238-.526s.076-.395.076-.599c0-.198-.025-.396-.076-.594s-.131-.374-.238-.526c-.108-.153-.246-.277-.414-.374-.168-.096-.366-.144-.595-.144s-.426.048-.594.144c-.168.097-.306.221-.414.374-.107.152-.188.328-.238.526s-.076.396-.076.594c0,.204.025.403.076.599s.131.37.238.526c.108.156.246.282.414.378s.366.145.594.145Z" fill="#221f1f"/><path d="M77.381,20.666c.029.3.144.51.342.63s.435.181.711.181c.096,0,.205-.008.328-.022.123-.016.239-.044.347-.086.108-.042.196-.104.266-.185s.101-.188.095-.319-.054-.24-.145-.324c-.09-.084-.205-.151-.346-.202-.142-.051-.302-.095-.481-.131-.181-.036-.363-.075-.55-.117-.191-.042-.376-.093-.553-.152-.178-.061-.337-.142-.478-.243-.141-.103-.253-.232-.337-.392-.085-.159-.126-.355-.126-.59,0-.252.061-.463.184-.634.123-.172.279-.31.469-.414.188-.105.398-.179.63-.221.23-.042.451-.063.661-.063.24,0,.47.026.688.077s.417.133.594.247c.178.114.324.263.441.445.117.184.19.404.221.662h-1.071c-.048-.246-.16-.411-.337-.495-.178-.084-.38-.126-.608-.126-.071,0-.157.006-.256.018-.1.013-.192.035-.279.067-.087.033-.16.081-.221.145-.06.062-.09.146-.09.247,0,.126.044.229.131.307.087.077.201.143.342.193s.302.094.481.13.366.075.558.117c.187.042.369.093.55.153.18.06.34.141.481.243.141.102.255.23.342.387s.131.348.131.576c0,.275-.063.51-.189.702-.126.191-.29.348-.49.468-.201.12-.425.207-.671.261s-.489.081-.729.081c-.294,0-.566-.033-.814-.099-.249-.066-.466-.167-.648-.302s-.327-.303-.432-.504c-.105-.201-.161-.439-.167-.716h1.026Z" fill="#221f1f"/><path d="M80.809,17.507h.774v-1.395h1.025v1.395h.927v.766h-.927v2.483c0,.108.005.201.014.279s.03.144.063.198c.032.054.082.095.148.121.065.027.155.041.27.041.072,0,.145-.002.216-.005.072-.003.145-.014.216-.031v.792c-.113.012-.225.023-.333.036-.107.012-.219.018-.333.018-.27,0-.487-.025-.652-.076s-.294-.126-.387-.226c-.093-.099-.156-.223-.189-.373-.032-.15-.052-.321-.058-.513v-2.745h-.774v-.766Z" fill="#221f1f"/><path d="M86.714,16.904c.216,0,.426-.019.63-.054.204-.036.389-.097.554-.181s.306-.191.423-.324c.117-.132.193-.293.229-.485h.837v6.3h-1.125v-4.446h-1.548v-.81Z" fill="#221f1f"/><path d="M206.516,15.734h1.125v2.556h2.925v-2.556h1.125v6.426h-1.125v-2.898h-2.925v2.898h-1.125v-6.426Z" fill="#221f1f"/><path d="M215.029,22.286c-.372,0-.703-.062-.994-.185s-.537-.292-.738-.509c-.201-.216-.354-.474-.459-.773-.104-.3-.157-.63-.157-.99,0-.354.053-.681.157-.98.105-.301.258-.559.459-.774s.447-.386.738-.509.622-.185.994-.185.704.062.995.185.537.293.737.509c.201.216.354.474.459.774.105.3.158.627.158.98,0,.36-.053.69-.158.99-.104.3-.258.558-.459.773-.2.217-.446.386-.737.509s-.623.185-.995.185ZM215.029,21.476c.229,0,.427-.049.595-.145s.306-.222.414-.378c.107-.156.188-.331.238-.526s.076-.395.076-.599c0-.198-.025-.396-.076-.594s-.131-.374-.238-.526c-.108-.153-.246-.277-.414-.374-.168-.096-.366-.144-.595-.144s-.426.048-.594.144c-.168.097-.306.221-.414.374-.107.152-.188.328-.238.526s-.076.396-.076.594c0,.204.025.403.076.599s.131.37.238.526c.108.156.246.282.414.378s.366.145.594.145Z" fill="#221f1f"/><path d="M219.008,20.666c.029.3.144.51.342.63s.435.181.711.181c.096,0,.205-.008.328-.022.124-.016.239-.044.347-.086.109-.042.197-.104.266-.185s.102-.188.096-.319c-.008-.132-.055-.24-.145-.324s-.205-.151-.347-.202-.302-.095-.481-.131c-.181-.036-.363-.075-.55-.117-.191-.042-.376-.093-.553-.152-.178-.061-.337-.142-.478-.243-.141-.103-.253-.232-.337-.392-.085-.159-.126-.355-.126-.59,0-.252.061-.463.184-.634.123-.172.279-.31.469-.414.188-.105.398-.179.63-.221.23-.042.451-.063.661-.063.24,0,.47.026.689.077.219.051.416.133.594.247.176.114.324.263.441.445.117.184.189.404.221.662h-1.072c-.047-.246-.16-.411-.337-.495-.178-.084-.38-.126-.608-.126-.071,0-.157.006-.256.018-.1.013-.192.035-.279.067-.087.033-.16.081-.221.145-.06.062-.09.146-.09.247,0,.126.044.229.131.307.087.077.201.143.342.193s.302.094.481.13.366.075.558.117c.188.042.369.093.549.153.182.06.342.141.482.243.141.102.256.23.342.387.088.156.131.348.131.576,0,.275-.062.51-.189.702-.125.191-.289.348-.49.468s-.424.207-.67.261-.49.081-.729.081c-.294,0-.566-.033-.814-.099-.249-.066-.466-.167-.648-.302s-.327-.303-.432-.504c-.105-.201-.161-.439-.167-.716h1.026Z" fill="#221f1f"/><path d="M222.436,17.507h.773v-1.395h1.026v1.395h.927v.766h-.927v2.483c0,.108.005.201.014.279s.029.144.062.198c.033.054.083.095.148.121.066.027.156.041.271.041.072,0,.144-.002.216-.005s.144-.014.216-.031v.792c-.114.012-.225.023-.333.036-.107.012-.219.018-.333.018-.27,0-.487-.025-.652-.076s-.294-.126-.387-.226c-.094-.099-.156-.223-.189-.373s-.053-.321-.059-.513v-2.745h-.773v-.766Z" fill="#221f1f"/><path d="M232.517,22.16h-4.303c.006-.522.132-.978.378-1.368.246-.39.582-.729,1.009-1.017.203-.15.417-.296.639-.437.222-.142.426-.293.612-.455.186-.162.339-.337.459-.526.12-.188.183-.406.188-.652,0-.114-.014-.235-.04-.364-.027-.129-.08-.249-.157-.36-.078-.11-.187-.204-.324-.279-.139-.074-.318-.112-.54-.112-.204,0-.374.041-.509.122s-.243.191-.324.333c-.081.141-.141.308-.18.499-.039.192-.062.399-.067.621h-1.026c0-.348.047-.67.14-.968.093-.297.232-.553.419-.77.186-.216.412-.385.679-.508.268-.123.578-.185.932-.185.384,0,.705.062.963.188s.467.285.626.478c.159.191.271.4.338.625.065.226.099.439.099.644,0,.252-.039.48-.117.685s-.183.392-.314.562c-.133.171-.282.328-.45.472-.168.145-.342.279-.522.405-.18.126-.359.246-.54.36-.18.114-.347.228-.499.342-.153.114-.287.232-.4.355-.114.123-.192.254-.234.392h3.069v.918Z" fill="#221f1f"/></g><g id="b"><g id="c"><rect x="4.546" y="93.723" width="65.642" height="108.928" fill="#d0d3d4"/><polygon points="295.568 206.084 1.6 206.084 1.845 90.291 295.813 90.291 295.568 206.084" fill="none" fill-rule="evenodd" stroke="#a2aaad" stroke-linecap="round" stroke-linejoin="round" stroke-width="1.212"/><path d="M68.867,132.536v-21.838c0-1.578-.627-3.091-1.744-4.207l-7.61-7.607c-1.116-1.116-2.63-1.742-4.208-1.742h-21.845c-1.579,0-3.092.627-4.208,1.742l-7.61,7.607c-1.116,1.115-1.743,2.629-1.743,4.207v21.838c0,1.577.626,3.09,1.743,4.205l7.61,7.608c1.116,1.115,2.63,1.742,4.208,1.742h21.845c1.579,0,3.092-.627,4.208-1.742l7.61-7.608c1.116-1.115,1.744-2.629,1.744-4.205Z" fill="#292929" fill-rule="evenodd"/><path d="M59.261,121.617c0-8.214-6.662-14.872-14.878-14.872s-14.878,6.658-14.878,14.872c-.001,8.214,6.661,14.872,14.877,14.872s14.878-6.658,14.879-14.872Z" fill="#d0d3d4" fill-rule="evenodd"/><path d="M44.383,146.043c-6.527,0-12.663-2.541-17.277-7.154-4.615-4.613-7.157-10.747-7.157-17.271,0-13.468,10.962-24.426,24.436-24.426s24.434,10.958,24.434,24.426-10.961,24.426-24.435,24.426ZM44.384,97.574c-13.263,0-24.053,10.786-24.053,24.043,0,6.422,2.501,12.459,7.044,17.001,4.543,4.541,10.584,7.042,17.008,7.042,13.263,0,24.053-10.785,24.053-24.043s-10.79-24.043-24.052-24.043Z" fill="#fff"/><path d="M44.383,97.254c13.438,0,24.372,10.929,24.372,24.363s-10.934,24.363-24.373,24.363c-6.51,0-12.63-2.534-17.234-7.136-4.604-4.602-7.138-10.72-7.138-17.227,0-13.434,10.934-24.363,24.373-24.363M44.382,145.723c13.297,0,24.115-10.814,24.115-24.106s-10.818-24.106-24.114-24.106-24.115,10.814-24.115,24.106c0,6.439,2.508,12.492,7.063,17.045,4.555,4.553,10.61,7.061,17.052,7.061M44.383,97.129c-13.508,0-24.498,10.985-24.498,24.488,0,6.541,2.548,12.69,7.175,17.315,4.627,4.625,10.779,7.173,17.322,7.173,13.508,0,24.498-10.985,24.498-24.488s-10.989-24.488-24.497-24.488h0ZM44.382,145.598c-6.407,0-12.432-2.494-16.963-7.024-4.531-4.53-7.026-10.552-7.026-16.957,0-13.223,10.762-23.981,23.99-23.981s23.989,10.758,23.989,23.981-10.762,23.981-23.99,23.981h0Z" fill="#fff"/><path d="M44.383,141.313c-5.263,0-10.211-2.049-13.933-5.769-3.722-3.721-5.771-8.667-5.771-13.928,0-10.861,8.84-19.697,19.705-19.697,5.264,0,10.212,2.049,13.933,5.769,3.717,3.715,5.766,8.655,5.771,13.909,0,10.88-8.84,19.716-19.704,19.716ZM44.384,102.302c-10.654,0-19.322,8.665-19.322,19.315,0,5.158,2.009,10.008,5.658,13.657,3.649,3.648,8.502,5.657,13.663,5.657,10.644,0,19.312-8.655,19.323-19.295,0-5.178-2.01-10.028-5.659-13.677-3.65-3.648-8.503-5.658-13.663-5.658Z" fill="#fff"/><path d="M44.383,101.982c5.247,0,10.179,2.042,13.889,5.751,3.705,3.704,5.747,8.627,5.752,13.864.001.007.001.013.001.02h-.001.001c-.001,10.826-8.814,19.634-19.643,19.634-5.246,0-10.179-2.043-13.889-5.751-3.71-3.709-5.753-8.639-5.752-13.883,0-10.827,8.812-19.635,19.642-19.635M44.382,140.994c10.681,0,19.374-8.682,19.386-19.358-.001-.007-.002-.013-.002-.019,0-5.176-2.016-10.042-5.676-13.702-3.661-3.66-8.529-5.675-13.707-5.675-10.689,0-19.385,8.692-19.385,19.377,0,5.175,2.016,10.041,5.677,13.701s8.529,5.675,13.707,5.675M64.027,121.617h-.002.002M44.383,101.857c-10.9,0-19.767,8.864-19.767,19.76,0,5.277,2.055,10.239,5.789,13.972,3.734,3.732,8.698,5.787,13.977,5.787,10.899,0,19.767-8.864,19.768-19.759v-.125s-.003,0-.003,0c-.025-5.22-2.079-10.141-5.787-13.847-3.733-3.732-8.697-5.787-13.977-5.787h0ZM44.382,140.869c-5.144,0-9.981-2.003-13.618-5.639-3.638-3.636-5.641-8.471-5.64-13.613,0-10.616,8.64-19.252,19.26-19.252,5.144,0,9.981,2.003,13.618,5.639,3.637,3.636,5.64,8.471,5.64,13.613v.01l.003.029c-.013,10.586-8.654,19.214-19.262,19.214h0Z" fill="#fff"/><path d="M44.383,136.585c-3.999,0-7.76-1.557-10.588-4.385-2.828-2.826-4.386-6.584-4.386-10.583,0-8.254,6.718-14.968,14.975-14.968s14.974,6.714,14.974,14.968c0,8.253-6.719,14.968-14.975,14.968ZM44.384,107.031c-8.046,0-14.592,6.543-14.592,14.586,0,3.896,1.518,7.559,4.272,10.313,2.758,2.755,6.422,4.272,10.318,4.272,8.045,0,14.591-6.543,14.592-14.586,0-8.043-6.546-14.586-14.591-14.586Z" fill="#fff"/><path d="M44.383,106.711c8.222,0,14.911,6.687,14.911,14.906-.001,8.219-6.691,14.905-14.912,14.905-3.983,0-7.727-1.55-10.544-4.366-2.817-2.815-4.367-6.558-4.367-10.54,0-8.219,6.689-14.906,14.911-14.906M44.382,136.265c8.08,0,14.654-6.571,14.655-14.648,0-8.077-6.574-14.648-14.654-14.648s-14.654,6.571-14.654,14.648c0,3.912,1.523,7.591,4.291,10.358,2.768,2.767,6.448,4.29,10.362,4.29M59.166,121.617h.003-.003M44.383,106.586c-8.291,0-15.036,6.743-15.036,15.031,0,4.015,1.563,7.789,4.404,10.628,2.84,2.839,6.616,4.402,10.632,4.402,8.291,0,15.036-6.743,15.037-15.03,0-8.288-6.745-15.031-15.036-15.031h0ZM44.382,136.14c-3.881,0-7.529-1.511-10.273-4.254-2.744-2.743-4.255-6.39-4.255-10.269,0-8.008,6.518-14.524,14.529-14.524s14.529,6.515,14.529,14.523c-.001,8.008-6.519,14.523-14.53,14.523h0Z" fill="#fff"/><path d="M44.383,131.856c-5.648,0-10.243-4.594-10.243-10.239s4.596-10.24,10.244-10.24,10.243,4.593,10.243,10.24c0,5.646-4.597,10.239-10.244,10.239ZM44.384,111.76c-5.438,0-9.861,4.422-9.861,9.857s4.423,9.857,9.86,9.857,9.861-4.422,9.862-9.857c0-5.436-4.424-9.857-9.861-9.857Z" fill="#fff"/><path d="M44.383,111.44c5.614,0,10.181,4.565,10.181,10.177-.001,5.612-4.568,10.177-10.182,10.177s-10.18-4.565-10.18-10.177,4.567-10.177,10.181-10.177M44.382,131.537c5.471,0,9.924-4.45,9.925-9.92,0-5.47-4.452-9.92-9.924-9.92s-9.924,4.45-9.924,9.92,4.451,9.92,9.923,9.92M54.436,121.617h.003-.003M44.383,111.315c-5.683,0-10.306,4.621-10.306,10.302s4.623,10.302,10.305,10.302,10.306-4.621,10.307-10.302c0-5.681-4.623-10.302-10.306-10.302h0ZM44.382,131.412c-5.402,0-9.798-4.394-9.798-9.795s4.396-9.795,9.799-9.795,9.799,4.394,9.799,9.795c-.001,5.401-4.397,9.795-9.8,9.795h0Z" fill="#fff"/><path d="M44.383,127.128c-3.04,0-5.513-2.472-5.513-5.511s2.474-5.512,5.514-5.512,5.513,2.473,5.513,5.512-2.474,5.511-5.514,5.511ZM44.384,116.488c-2.829,0-5.131,2.301-5.131,5.129s2.301,5.128,5.13,5.128,5.131-2.301,5.131-5.128-2.301-5.129-5.13-5.129Z" fill="#fff"/><path d="M44.383,116.168c3.005,0,5.45,2.444,5.45,5.449s-2.445,5.448-5.451,5.448-5.45-2.444-5.45-5.448,2.445-5.449,5.451-5.449M44.382,126.808c2.864,0,5.194-2.329,5.194-5.191s-2.33-5.191-5.193-5.191-5.193,2.329-5.193,5.191,2.329,5.191,5.192,5.191M44.383,116.043c-3.074,0-5.576,2.5-5.576,5.574s2.501,5.573,5.575,5.573,5.576-2.5,5.576-5.573-2.501-5.574-5.575-5.574h0ZM44.382,126.683c-2.794,0-5.067-2.273-5.067-5.066s2.274-5.066,5.068-5.066,5.068,2.273,5.068,5.066-2.274,5.066-5.069,5.066h0Z" fill="#fff"/><path d="M67.059,144.502l-.109-.057-19.716-19.708c-.762-.762-1.774-1.181-2.853-1.181-1.062,0-2.101.431-2.852,1.181l-19.734,19.727-.116.038c-.051,0-.099-.021-.135-.057l-.019-.018-.038-.117c0-.052.021-.1.057-.136l19.716-19.708c.82-.821,1.958-1.292,3.121-1.292,1.181,0,2.289.459,3.122,1.292l19.734,19.727.038.117c0,.052-.021.1-.057.136l-.019.018-.116.038h-.025Z" fill="#fff"/><path d="M44.381,123.237c1.163,0,2.257.452,3.078,1.274l19.716,19.709c.05.05.05.132,0,.182-.025.025-.058.038-.091.038s-.066-.013-.091-.038l-19.716-19.709c-.773-.773-1.801-1.199-2.896-1.199-1.078,0-2.133.437-2.895,1.199l-19.716,19.709c-.025.025-.058.038-.091.038-.033,0-.066-.013-.091-.038-.05-.05-.05-.132,0-.182l19.716-19.709c.809-.809,1.931-1.274,3.077-1.274M44.381,123.112c-1.179,0-2.332.478-3.165,1.311l-19.716,19.709c-.099.099-.099.26,0,.359.048.048.112.074.18.074s.131-.026.179-.074l19.716-19.709c.738-.738,1.761-1.162,2.806-1.162,1.061,0,2.059.413,2.808,1.162l19.716,19.709c.048.048.112.074.179.074s.131-.026.179-.074c.048-.048.074-.112.074-.179s-.026-.131-.074-.179l-19.716-19.709c-.845-.845-1.97-1.311-3.167-1.311h0Z" fill="#fff"/><path d="M44.382,120.059c-1.163,0-2.301-.471-3.121-1.292l-19.734-19.727-.038-.117c0-.051.021-.1.057-.136l.019-.018.116-.037c.051,0,.099.02.135.055l19.716,19.709c.752.75,1.791,1.181,2.852,1.181s2.101-.431,2.853-1.181l19.733-19.727.117-.038c.051,0,.099.02.135.056l.019.019.038.117c0,.051-.021.099-.057.135l-19.716,19.708c-.82.821-1.959,1.292-3.122,1.292Z" fill="#fff"/><path d="M21.679,98.795c.033,0,.066.013.091.038l19.716,19.709c.762.762,1.817,1.199,2.895,1.199s2.134-.437,2.896-1.199l19.716-19.709c.025-.025.058-.038.091-.038.033,0,.066.013.091.038.05.05.05.132,0,.182l-19.716,19.709c-.81.809-1.932,1.274-3.078,1.274s-2.267-.465-3.077-1.274l-19.716-19.709c-.05-.05-.05-.132,0-.182.025-.025.058-.038.091-.038M67.085,98.67h0c-.068,0-.131.026-.179.074l-19.716,19.709c-.739.738-1.762,1.162-2.808,1.162s-2.068-.424-2.806-1.162l-19.716-19.709c-.048-.048-.112-.074-.179-.074s-.131.026-.179.074c-.099.099-.099.26,0,.359l19.716,19.709c.833.833,1.987,1.311,3.165,1.311s2.333-.478,3.167-1.311l19.716-19.709c.048-.048.074-.112.074-.179s-.026-.131-.074-.179c-.048-.048-.112-.074-.18-.074h0Z" fill="#fff"/><path d="M68.867,185.565v-21.838c0-1.578-.627-3.091-1.744-4.207l-7.61-7.607c-1.116-1.116-2.63-1.742-4.208-1.742h-21.845c-1.579,0-3.092.627-4.208,1.742l-7.61,7.607c-1.116,1.115-1.743,2.629-1.743,4.207v21.838c0,1.577.626,3.09,1.743,4.205l7.61,7.608c1.116,1.115,2.63,1.742,4.208,1.742h21.845c1.579,0,3.092-.627,4.208-1.742l7.61-7.608c1.116-1.115,1.744-2.629,1.744-4.205Z" fill="#292929" fill-rule="evenodd"/><path d="M59.261,174.646c0-8.214-6.662-14.872-14.878-14.872s-14.878,6.658-14.878,14.872c-.001,8.214,6.661,14.872,14.877,14.872s14.878-6.658,14.879-14.872Z" fill="#d0d3d4" fill-rule="evenodd"/><path d="M44.383,199.071c-6.527,0-12.663-2.541-17.277-7.154-4.615-4.612-7.157-10.746-7.157-17.271,0-13.469,10.962-24.426,24.436-24.426s24.434,10.957,24.434,24.426-10.961,24.426-24.435,24.426ZM44.384,150.602c-13.263,0-24.053,10.785-24.053,24.043,0,6.422,2.501,12.459,7.044,17.001,4.543,4.541,10.583,7.042,17.008,7.042,13.263,0,24.053-10.785,24.053-24.043s-10.79-24.043-24.052-24.043Z" fill="#fff"/><path d="M44.383,150.283c13.438,0,24.372,10.929,24.372,24.363s-10.934,24.363-24.373,24.363c-6.51,0-12.63-2.534-17.234-7.136-4.604-4.602-7.138-10.72-7.138-17.227,0-13.434,10.934-24.363,24.373-24.363M44.382,198.751c13.297,0,24.115-10.814,24.115-24.106s-10.818-24.106-24.114-24.106-24.115,10.814-24.115,24.106c0,6.439,2.508,12.492,7.063,17.045,4.555,4.553,10.61,7.061,17.052,7.061M44.383,150.158c-13.508,0-24.498,10.985-24.498,24.488,0,6.541,2.548,12.69,7.175,17.315,4.627,4.625,10.779,7.173,17.322,7.173,13.508,0,24.498-10.985,24.498-24.488s-10.989-24.488-24.497-24.488h0ZM44.382,198.626c-6.407,0-12.432-2.494-16.963-7.024-4.531-4.53-7.026-10.552-7.026-16.957,0-13.223,10.762-23.981,23.99-23.981s23.989,10.758,23.989,23.981-10.762,23.981-23.99,23.981h0Z" fill="#fff"/><path d="M44.383,194.343c-5.263,0-10.211-2.049-13.933-5.77s-5.771-8.667-5.771-13.928c0-10.861,8.84-19.697,19.705-19.697,5.264,0,10.212,2.049,13.933,5.77,3.717,3.715,5.766,8.654,5.771,13.908,0,10.881-8.84,19.717-19.704,19.717ZM44.384,155.331c-10.654,0-19.322,8.664-19.322,19.314,0,5.159,2.009,10.009,5.658,13.657s8.502,5.657,13.663,5.657c10.644,0,19.312-8.655,19.323-19.295,0-5.178-2.01-10.028-5.659-13.677-3.65-3.648-8.503-5.657-13.663-5.657Z" fill="#fff"/><path d="M44.383,155.011c5.247,0,10.179,2.042,13.889,5.751,3.705,3.704,5.747,8.627,5.752,13.864.001.007.001.013.001.02h-.001.001c-.001,10.826-8.814,19.634-19.643,19.634-5.246,0-10.179-2.043-13.889-5.751-3.71-3.709-5.753-8.639-5.752-13.883,0-10.827,8.812-19.635,19.642-19.635M44.382,194.022c10.681,0,19.374-8.682,19.386-19.358-.001-.007-.002-.013-.002-.019,0-5.176-2.016-10.042-5.676-13.702-3.661-3.66-8.529-5.675-13.707-5.675-10.689,0-19.385,8.692-19.385,19.377,0,5.175,2.016,10.041,5.677,13.701,3.661,3.66,8.529,5.675,13.707,5.675M64.027,174.646h-.002.002M44.383,154.886c-10.9,0-19.767,8.864-19.767,19.76,0,5.277,2.055,10.239,5.789,13.972,3.734,3.732,8.698,5.787,13.977,5.787,10.899,0,19.767-8.864,19.768-19.759v-.125s-.003,0-.003,0c-.025-5.22-2.079-10.141-5.787-13.847-3.733-3.732-8.697-5.788-13.977-5.788h0ZM44.382,193.897c-5.144,0-9.981-2.003-13.618-5.639-3.638-3.636-5.641-8.471-5.64-13.613,0-10.616,8.64-19.252,19.26-19.252,5.144,0,9.981,2.003,13.618,5.639,3.637,3.636,5.64,8.471,5.64,13.613v.01l.003.029c-.013,10.586-8.654,19.214-19.262,19.214h0Z" fill="#fff"/><path d="M44.383,189.613c-4,0-7.761-1.557-10.588-4.384-2.828-2.827-4.386-6.586-4.386-10.584,0-8.253,6.718-14.968,14.975-14.968s14.974,6.715,14.974,14.968c0,8.253-6.719,14.968-14.975,14.968ZM44.384,160.059c-8.046,0-14.592,6.543-14.592,14.586,0,3.896,1.518,7.559,4.272,10.313,2.758,2.755,6.422,4.272,10.318,4.272,8.045,0,14.591-6.543,14.592-14.586,0-8.043-6.546-14.586-14.591-14.586Z" fill="#fff"/><path d="M44.383,159.74c8.222,0,14.911,6.687,14.911,14.906-.001,8.219-6.691,14.905-14.912,14.905-3.983,0-7.727-1.55-10.544-4.366-2.817-2.815-4.367-6.558-4.367-10.54,0-8.219,6.689-14.906,14.911-14.906M44.382,189.294c8.08,0,14.654-6.571,14.655-14.648,0-8.077-6.574-14.648-14.654-14.648s-14.654,6.571-14.654,14.648c0,3.912,1.523,7.591,4.291,10.358,2.768,2.767,6.448,4.29,10.362,4.29M59.166,174.646h.003-.003M44.383,159.615c-8.291,0-15.036,6.743-15.036,15.031,0,4.015,1.563,7.789,4.404,10.628,2.84,2.839,6.616,4.402,10.632,4.402,8.291,0,15.036-6.743,15.037-15.03,0-8.288-6.745-15.031-15.036-15.031h0ZM44.382,189.169c-3.881,0-7.529-1.511-10.273-4.254-2.744-2.743-4.255-6.39-4.255-10.269,0-8.008,6.518-14.524,14.529-14.524s14.529,6.515,14.529,14.523c-.001,8.008-6.519,14.523-14.53,14.523h0Z" fill="#fff"/><path d="M44.383,184.886c-5.648,0-10.243-4.594-10.243-10.24s4.596-10.239,10.244-10.239,10.243,4.594,10.243,10.239c0,5.646-4.597,10.24-10.244,10.24ZM44.384,164.789c-5.438,0-9.861,4.422-9.861,9.856s4.423,9.857,9.86,9.857,9.861-4.422,9.862-9.857c0-5.435-4.424-9.856-9.861-9.856Z" fill="#fff"/><path d="M44.383,164.469c5.614,0,10.181,4.565,10.181,10.177-.001,5.612-4.568,10.177-10.182,10.177s-10.18-4.565-10.18-10.177,4.567-10.177,10.181-10.177M44.382,184.565c5.471,0,9.924-4.45,9.925-9.92,0-5.47-4.452-9.92-9.924-9.92s-9.924,4.45-9.924,9.92,4.451,9.92,9.923,9.92M54.436,174.646h.003-.003M44.383,164.344c-5.683,0-10.306,4.621-10.306,10.302s4.623,10.302,10.305,10.302,10.306-4.621,10.307-10.302c0-5.681-4.623-10.302-10.306-10.302h0ZM44.382,184.44c-5.402,0-9.798-4.394-9.798-9.795s4.396-9.795,9.799-9.795,9.799,4.394,9.799,9.795c-.001,5.401-4.397,9.795-9.8,9.795h0Z" fill="#fff"/><path d="M44.383,180.156c-3.04,0-5.513-2.472-5.513-5.511s2.474-5.511,5.514-5.511,5.513,2.472,5.513,5.511-2.474,5.511-5.514,5.511ZM44.384,169.516c-2.829,0-5.131,2.301-5.131,5.129s2.301,5.129,5.13,5.129,5.131-2.301,5.131-5.129-2.301-5.129-5.13-5.129Z" fill="#fff"/><path d="M44.383,169.197c3.005,0,5.45,2.444,5.45,5.449s-2.445,5.448-5.451,5.448-5.45-2.444-5.45-5.448,2.445-5.449,5.451-5.449M44.382,179.837c2.864,0,5.194-2.329,5.194-5.191s-2.33-5.191-5.193-5.191-5.193,2.329-5.193,5.191,2.329,5.191,5.192,5.191M44.383,169.072c-3.074,0-5.576,2.5-5.576,5.574s2.501,5.573,5.575,5.573,5.576-2.5,5.576-5.573-2.501-5.574-5.575-5.574h0ZM44.382,179.712c-2.794,0-5.067-2.273-5.067-5.066s2.274-5.066,5.068-5.066,5.068,2.273,5.068,5.066-2.274,5.066-5.069,5.066h0Z" fill="#fff"/><path d="M21.654,197.53l-.109-.055c-.075-.075-.075-.197,0-.271l19.716-19.708c.821-.822,1.959-1.293,3.121-1.293,1.181,0,2.29.459,3.122,1.293l19.716,19.708c.075.074.075.196,0,.271l-.018.019-.117.037c-.05,0-.098-.02-.134-.055l-19.717-19.71c-.762-.761-1.775-1.18-2.853-1.18-1.062,0-2.102.43-2.852,1.18l-19.734,19.728-.115.037h-.026Z" fill="#fff"/><path d="M44.381,176.266c1.163,0,2.257.452,3.078,1.274l19.716,19.709c.05.05.05.132,0,.182-.025.025-.058.038-.091.038s-.066-.013-.091-.038l-19.716-19.709c-.773-.773-1.801-1.199-2.896-1.199-1.078,0-2.133.437-2.895,1.199l-19.716,19.709c-.025.025-.058.038-.091.038-.033,0-.066-.013-.091-.038-.05-.05-.05-.132,0-.182l19.716-19.709c.809-.809,1.931-1.274,3.077-1.274M44.381,176.141c-1.179,0-2.332.478-3.165,1.311l-19.716,19.709c-.099.099-.099.26,0,.359.048.048.112.074.18.074s.131-.026.179-.074l19.716-19.709c.738-.738,1.761-1.162,2.806-1.162,1.061,0,2.059.413,2.808,1.162l19.716,19.709c.048.048.112.074.179.074s.131-.026.179-.074c.048-.048.074-.112.074-.179s-.026-.131-.074-.179l-19.716-19.709c-.845-.845-1.97-1.311-3.167-1.311h0Z" fill="#fff"/><path d="M44.382,173.089c-1.162,0-2.3-.471-3.121-1.293l-19.734-19.727-.038-.117c0-.052.021-.1.057-.136l.019-.018.116-.037c.051,0,.1.02.135.056l19.716,19.709c.751.75,1.79,1.18,2.852,1.18s2.102-.43,2.853-1.18l19.733-19.728.117-.038c.051,0,.099.021.135.057l.019.018.038.117c0,.052-.021.1-.057.136l-19.716,19.708c-.821.822-1.959,1.293-3.122,1.293Z" fill="#fff"/><path d="M21.679,151.824c.033,0,.066.013.091.038l19.716,19.709c.762.762,1.817,1.199,2.895,1.199s2.134-.437,2.896-1.199l19.716-19.709c.025-.025.058-.038.091-.038.033,0,.066.013.091.038.05.05.05.132,0,.182l-19.716,19.709c-.81.809-1.932,1.274-3.078,1.274s-2.267-.465-3.077-1.274l-19.716-19.709c-.05-.05-.05-.132,0-.182.025-.025.058-.038.091-.038M21.679,151.699c-.068,0-.131.026-.179.074-.099.099-.099.26,0,.359l19.716,19.709c.833.833,1.987,1.311,3.165,1.311s2.333-.478,3.167-1.311l19.716-19.709c.048-.048.074-.112.074-.179s-.026-.131-.074-.179c-.048-.048-.112-.074-.18-.074s-.131.026-.179.074l-19.716,19.709c-.739.738-1.762,1.162-2.808,1.162s-2.068-.424-2.806-1.162l-19.716-19.709c-.048-.048-.112-.074-.179-.074h0Z" fill="#fff"/><rect x="73.136" y="93.723" width="151.387" height="108.928" fill="#292929"/><rect x="227.365" y="93.723" width="65.594" height="108.928" fill="#d0d3d4"/><path d="M277.78,132.536v-21.838c0-1.578-.627-3.091-1.744-4.207l-7.61-7.607c-1.116-1.116-2.63-1.742-4.208-1.742h-21.845c-1.579,0-3.092.627-4.208,1.742l-7.61,7.607c-1.116,1.115-1.743,2.629-1.743,4.207v21.838c0,1.577.626,3.09,1.743,4.205l7.61,7.608c1.116,1.115,2.63,1.742,4.208,1.742h21.845c1.579,0,3.092-.627,4.208-1.742l7.61-7.608c1.116-1.115,1.744-2.629,1.744-4.205Z" fill="#292929" fill-rule="evenodd"/><path d="M268.173,121.617c0-8.214-6.662-14.872-14.878-14.872s-14.878,6.658-14.878,14.872c-.001,8.214,6.661,14.872,14.877,14.872s14.878-6.658,14.879-14.872Z" fill="#d0d3d4" fill-rule="evenodd"/><path d="M253.295,146.043c-6.526,0-12.662-2.541-17.277-7.154-4.616-4.614-7.157-10.748-7.156-17.271,0-13.468,10.961-24.426,24.435-24.426s24.435,10.958,24.435,24.426-10.962,24.426-24.436,24.426ZM253.296,97.574c-13.263,0-24.053,10.786-24.053,24.043,0,6.423,2.502,12.46,7.044,17.001,4.544,4.541,10.585,7.042,17.008,7.042,13.263,0,24.053-10.785,24.053-24.043s-10.79-24.043-24.052-24.043Z" fill="#fff"/><path d="M253.296,97.254c13.438,0,24.372,10.929,24.372,24.363s-10.934,24.363-24.373,24.363c-6.51,0-12.63-2.534-17.234-7.136-4.604-4.602-7.138-10.72-7.138-17.227,0-13.434,10.934-24.363,24.373-24.363M253.295,145.723c13.297,0,24.115-10.814,24.115-24.106s-10.818-24.106-24.114-24.106-24.115,10.814-24.115,24.106c0,6.439,2.508,12.492,7.063,17.045,4.555,4.553,10.61,7.061,17.052,7.061M253.296,97.129c-13.508,0-24.498,10.985-24.498,24.488,0,6.541,2.547,12.69,7.175,17.315,4.627,4.625,10.779,7.173,17.322,7.173,13.508,0,24.498-10.985,24.498-24.488s-10.989-24.488-24.497-24.488h0ZM253.295,145.598c-6.407,0-12.432-2.494-16.963-7.024-4.531-4.53-7.026-10.552-7.026-16.957,0-13.223,10.762-23.981,23.99-23.981s23.989,10.758,23.989,23.981-10.762,23.981-23.99,23.981h0Z" fill="#fff"/><path d="M253.295,141.313c-5.263,0-10.211-2.049-13.933-5.769-3.723-3.721-5.771-8.667-5.771-13.928,0-10.861,8.839-19.697,19.704-19.697,5.265,0,10.213,2.049,13.933,5.769,3.718,3.715,5.767,8.655,5.771,13.909,0,10.88-8.84,19.716-19.704,19.716ZM253.296,102.302c-10.654,0-19.322,8.665-19.322,19.315,0,5.159,2.01,10.009,5.658,13.657,3.65,3.648,8.503,5.657,13.663,5.657,10.644,0,19.312-8.655,19.323-19.295,0-5.18-2.011-10.03-5.659-13.677-3.649-3.648-8.502-5.658-13.663-5.658Z" fill="#fff"/><path d="M253.296,101.982c5.247,0,10.179,2.042,13.889,5.751,3.705,3.704,5.747,8.627,5.752,13.864,0,.007.001.013.001.02h-.001.001c-.001,10.826-8.814,19.634-19.643,19.634-5.246,0-10.179-2.043-13.889-5.751-3.71-3.709-5.753-8.639-5.752-13.883,0-10.827,8.812-19.635,19.642-19.635M253.295,140.994c10.681,0,19.374-8.682,19.386-19.358,0-.007-.002-.013-.002-.019,0-5.176-2.016-10.042-5.676-13.702-3.661-3.66-8.529-5.675-13.707-5.675-10.689,0-19.385,8.692-19.385,19.377,0,5.175,2.016,10.041,5.677,13.701s8.529,5.675,13.707,5.675M272.94,121.617h-.002.002M253.296,101.857c-10.9,0-19.767,8.864-19.767,19.76,0,5.277,2.055,10.239,5.789,13.972,3.734,3.732,8.698,5.787,13.977,5.787,10.899,0,19.767-8.864,19.768-19.759v-.125h-.003c-.026-5.22-2.079-10.141-5.787-13.847-3.733-3.732-8.697-5.787-13.977-5.787h0ZM253.295,140.869c-5.144,0-9.981-2.003-13.618-5.639-3.638-3.636-5.641-8.471-5.64-13.613,0-10.616,8.64-19.252,19.26-19.252,5.144,0,9.981,2.003,13.619,5.639,3.637,3.636,5.64,8.471,5.64,13.613v.009l.003.028c-.013,10.586-8.654,19.214-19.262,19.214h0Z" fill="#fff"/><path d="M253.295,136.585c-3.999,0-7.759-1.557-10.587-4.385-2.829-2.826-4.387-6.584-4.386-10.583,0-8.254,6.717-14.968,14.974-14.968s14.975,6.714,14.975,14.968c0,8.253-6.719,14.968-14.976,14.968ZM253.296,107.031c-8.045,0-14.591,6.543-14.591,14.586,0,3.896,1.517,7.559,4.272,10.313,2.757,2.755,6.421,4.272,10.317,4.272,8.046,0,14.592-6.543,14.593-14.586,0-8.043-6.546-14.586-14.592-14.586Z" fill="#fff"/><path d="M253.296,106.711c8.222,0,14.911,6.687,14.911,14.906,0,8.219-6.69,14.905-14.912,14.905-3.983,0-7.727-1.55-10.544-4.366-2.817-2.815-4.367-6.558-4.367-10.54,0-8.219,6.689-14.906,14.911-14.906M253.295,136.265c8.08,0,14.654-6.571,14.655-14.648,0-8.077-6.574-14.648-14.654-14.648s-14.654,6.571-14.654,14.648c0,3.912,1.523,7.591,4.291,10.358,2.768,2.767,6.448,4.29,10.362,4.29M268.079,121.617h.003-.003M253.296,106.586c-8.291,0-15.036,6.743-15.036,15.031,0,4.015,1.563,7.789,4.403,10.628,2.84,2.839,6.616,4.402,10.632,4.402,8.291,0,15.036-6.743,15.037-15.03,0-8.288-6.745-15.031-15.036-15.031h0ZM253.295,136.14c-3.881,0-7.529-1.511-10.273-4.254-2.744-2.743-4.255-6.39-4.255-10.269,0-8.008,6.518-14.524,14.529-14.524s14.529,6.515,14.529,14.523c0,8.008-6.519,14.523-14.53,14.523h0Z" fill="#fff"/><path d="M253.295,131.856c-5.647,0-10.242-4.594-10.242-10.239s4.595-10.24,10.243-10.24,10.244,4.593,10.244,10.24c0,5.646-4.597,10.239-10.245,10.239ZM253.296,111.76c-5.438,0-9.861,4.422-9.861,9.857s4.423,9.857,9.86,9.857,9.861-4.422,9.862-9.857c0-5.436-4.424-9.857-9.861-9.857Z" fill="#fff"/><path d="M253.296,111.44c5.614,0,10.181,4.565,10.181,10.177-.001,5.612-4.568,10.177-10.182,10.177s-10.18-4.565-10.18-10.177,4.567-10.177,10.181-10.177M253.295,131.537c5.471,0,9.924-4.45,9.925-9.92,0-5.47-4.452-9.92-9.924-9.92s-9.924,4.45-9.924,9.92,4.451,9.92,9.923,9.92M263.348,121.617h.003-.003M253.296,111.315c-5.683,0-10.306,4.621-10.306,10.302s4.623,10.302,10.305,10.302,10.306-4.621,10.307-10.302c0-5.681-4.623-10.302-10.306-10.302h0ZM253.295,131.412c-5.402,0-9.798-4.394-9.798-9.795s4.396-9.795,9.799-9.795,9.799,4.394,9.799,9.795c0,5.401-4.397,9.795-9.8,9.795h0Z" fill="#fff"/><path d="M253.295,127.128c-3.039,0-5.512-2.472-5.512-5.511s2.473-5.512,5.513-5.512,5.513,2.473,5.513,5.512-2.474,5.511-5.514,5.511ZM253.296,116.488c-2.829,0-5.131,2.301-5.131,5.129s2.301,5.128,5.13,5.128,5.132-2.301,5.132-5.128-2.302-5.129-5.131-5.129Z" fill="#fff"/><path d="M253.296,116.168c3.005,0,5.45,2.444,5.45,5.449s-2.445,5.448-5.451,5.448-5.45-2.444-5.45-5.448,2.445-5.449,5.451-5.449M253.295,126.808c2.864,0,5.194-2.329,5.194-5.191s-2.33-5.191-5.193-5.191-5.193,2.329-5.193,5.191,2.329,5.191,5.192,5.191M253.296,116.043c-3.074,0-5.576,2.5-5.576,5.574s2.501,5.573,5.575,5.573,5.576-2.5,5.576-5.573-2.501-5.574-5.575-5.574h0ZM253.295,126.683c-2.794,0-5.067-2.273-5.067-5.066s2.274-5.066,5.068-5.066,5.068,2.273,5.068,5.066-2.274,5.066-5.069,5.066h0Z" fill="#fff"/><path d="M275.972,144.502l-.109-.057-19.716-19.708c-.761-.762-1.773-1.181-2.853-1.181-1.061,0-2.1.431-2.851,1.181l-19.734,19.727-.116.038c-.052,0-.1-.021-.136-.057-.074-.074-.074-.195,0-.27l19.717-19.709c.819-.821,1.957-1.292,3.12-1.292,1.181,0,2.289.459,3.122,1.292l19.717,19.709c.074.074.074.195,0,.27l-.018.019-.117.038h-.026Z" fill="#fff"/><path d="M253.294,123.237c1.163,0,2.257.452,3.078,1.274l19.716,19.709c.05.05.05.132,0,.182-.025.025-.058.038-.091.038s-.066-.013-.091-.038l-19.716-19.709c-.773-.773-1.801-1.199-2.896-1.199-1.078,0-2.133.437-2.895,1.199l-19.716,19.709c-.025.025-.058.038-.091.038-.033,0-.066-.013-.091-.038-.05-.05-.05-.132,0-.182l19.716-19.709c.809-.809,1.931-1.274,3.077-1.274M253.294,123.112c-1.179,0-2.332.478-3.165,1.311l-19.716,19.709c-.099.099-.099.26,0,.359.048.048.112.074.18.074s.131-.026.179-.074l19.716-19.709c.738-.738,1.761-1.162,2.806-1.162,1.061,0,2.059.413,2.808,1.162l19.716,19.709c.048.048.111.074.179.074s.131-.026.179-.074c.048-.048.074-.112.074-.179s-.026-.131-.074-.179l-19.716-19.709c-.845-.845-1.97-1.311-3.167-1.311h0Z" fill="#fff"/><path d="M253.294,120.059c-1.162,0-2.3-.471-3.12-1.292l-19.717-19.708c-.074-.075-.074-.196,0-.271l.018-.019.117-.037c.052,0,.1.02.136.055l19.716,19.709c.751.75,1.79,1.181,2.851,1.181s2.102-.431,2.853-1.181l19.734-19.727.116-.038c.052,0,.1.02.136.056.074.075.074.196,0,.271l-19.717,19.709c-.82.821-1.959,1.292-3.122,1.292Z" fill="#fff"/><path d="M230.592,98.795c.033,0,.066.013.091.038l19.716,19.709c.762.762,1.817,1.199,2.895,1.199s2.134-.437,2.896-1.199l19.716-19.709c.025-.025.058-.038.091-.038.033,0,.066.013.091.038.05.05.05.132,0,.182l-19.716,19.709c-.81.809-1.932,1.274-3.078,1.274s-2.267-.465-3.077-1.274l-19.716-19.709c-.05-.05-.05-.132,0-.182.025-.025.058-.038.091-.038M275.997,98.67h0c-.068,0-.131.026-.179.074l-19.716,19.709c-.739.738-1.762,1.162-2.808,1.162s-2.068-.424-2.806-1.162l-19.716-19.709c-.048-.048-.112-.074-.179-.074s-.131.026-.179.074c-.099.099-.099.26,0,.359l19.716,19.709c.833.833,1.987,1.311,3.165,1.311s2.333-.478,3.167-1.311l19.716-19.709c.048-.048.074-.112.074-.179s-.026-.131-.074-.179c-.048-.048-.112-.074-.18-.074h0Z" fill="#fff"/><path d="M277.78,185.565v-21.838c0-1.578-.627-3.091-1.744-4.207l-7.61-7.607c-1.116-1.116-2.63-1.742-4.208-1.742h-21.845c-1.579,0-3.092.627-4.208,1.742l-7.61,7.607c-1.116,1.115-1.743,2.629-1.743,4.207v21.838c0,1.577.626,3.09,1.743,4.205l7.61,7.608c1.116,1.115,2.63,1.742,4.208,1.742h21.845c1.579,0,3.092-.627,4.208-1.742l7.61-7.608c1.116-1.115,1.744-2.629,1.744-4.205Z" fill="#292929" fill-rule="evenodd"/><path d="M268.173,174.646c0-8.214-6.662-14.872-14.878-14.872s-14.878,6.658-14.878,14.872c-.001,8.214,6.661,14.872,14.877,14.872s14.878-6.658,14.879-14.872Z" fill="#d0d3d4" fill-rule="evenodd"/><path d="M253.295,199.071c-6.526,0-12.662-2.541-17.277-7.154-4.616-4.613-7.157-10.747-7.156-17.271,0-13.469,10.961-24.426,24.435-24.426s24.435,10.957,24.435,24.426-10.962,24.426-24.436,24.426ZM253.296,150.602c-13.263,0-24.053,10.785-24.053,24.043,0,6.423,2.502,12.46,7.044,17.001,4.544,4.541,10.584,7.042,17.008,7.042,13.263,0,24.053-10.785,24.053-24.043s-10.79-24.043-24.052-24.043Z" fill="#fff"/><path d="M253.296,150.283c13.438,0,24.372,10.929,24.372,24.363s-10.934,24.363-24.373,24.363c-6.51,0-12.63-2.534-17.234-7.136-4.604-4.602-7.138-10.72-7.138-17.227,0-13.434,10.934-24.363,24.373-24.363M253.295,198.751c13.297,0,24.115-10.814,24.115-24.106s-10.818-24.106-24.114-24.106-24.115,10.814-24.115,24.106c0,6.439,2.508,12.492,7.063,17.045,4.555,4.553,10.61,7.061,17.052,7.061M253.296,150.158c-13.508,0-24.498,10.985-24.498,24.488,0,6.541,2.547,12.69,7.175,17.315,4.627,4.625,10.779,7.173,17.322,7.173,13.508,0,24.498-10.985,24.498-24.488s-10.989-24.488-24.497-24.488h0ZM253.295,198.626c-6.407,0-12.432-2.494-16.963-7.024-4.531-4.53-7.026-10.552-7.026-16.957,0-13.223,10.762-23.981,23.99-23.981s23.989,10.758,23.989,23.981-10.762,23.981-23.99,23.981h0Z" fill="#fff"/><path d="M253.295,194.343c-5.263,0-10.211-2.049-13.933-5.77-3.723-3.721-5.771-8.667-5.771-13.928,0-10.861,8.839-19.697,19.704-19.697,5.265,0,10.213,2.049,13.933,5.77,3.718,3.715,5.767,8.654,5.771,13.908,0,10.881-8.84,19.717-19.704,19.717ZM253.296,155.331c-10.654,0-19.322,8.664-19.322,19.314,0,5.16,2.01,10.01,5.658,13.657,3.65,3.648,8.503,5.657,13.663,5.657,10.644,0,19.312-8.655,19.323-19.295,0-5.18-2.011-10.029-5.659-13.677-3.649-3.648-8.502-5.657-13.663-5.657Z" fill="#fff"/><path d="M253.296,155.011c5.247,0,10.179,2.042,13.889,5.751,3.705,3.704,5.747,8.627,5.752,13.864,0,.007.001.013.001.02h-.001.001c-.001,10.826-8.814,19.634-19.643,19.634-5.246,0-10.179-2.043-13.889-5.751-3.71-3.709-5.753-8.639-5.752-13.883,0-10.827,8.812-19.635,19.642-19.635M253.295,194.022c10.681,0,19.374-8.682,19.386-19.358,0-.007-.002-.013-.002-.019,0-5.176-2.016-10.042-5.676-13.702-3.661-3.66-8.529-5.675-13.707-5.675-10.689,0-19.385,8.692-19.385,19.377,0,5.175,2.016,10.041,5.677,13.701,3.661,3.66,8.529,5.675,13.707,5.675M272.94,174.646h-.002.002M253.296,154.886c-10.9,0-19.767,8.864-19.767,19.76,0,5.277,2.055,10.239,5.789,13.972,3.734,3.732,8.698,5.787,13.977,5.787,10.899,0,19.767-8.864,19.768-19.759v-.125h-.003c-.026-5.22-2.079-10.141-5.787-13.847-3.733-3.732-8.697-5.788-13.977-5.788h0ZM253.295,193.897c-5.144,0-9.981-2.003-13.618-5.639-3.638-3.636-5.641-8.471-5.64-13.613,0-10.616,8.64-19.252,19.26-19.252,5.144,0,9.981,2.003,13.619,5.639,3.637,3.636,5.64,8.471,5.64,13.613v.009l.003.028c-.013,10.586-8.654,19.214-19.262,19.214h0Z" fill="#fff"/><path d="M253.295,189.613c-3.999,0-7.76-1.557-10.587-4.384-2.829-2.827-4.387-6.586-4.386-10.584,0-8.253,6.717-14.968,14.974-14.968s14.975,6.715,14.975,14.968c0,8.253-6.719,14.968-14.976,14.968ZM253.296,160.059c-8.045,0-14.591,6.543-14.591,14.586,0,3.896,1.517,7.559,4.272,10.313,2.757,2.755,6.421,4.272,10.317,4.272,8.046,0,14.592-6.543,14.593-14.586,0-8.043-6.546-14.586-14.592-14.586Z" fill="#fff"/><path d="M253.296,159.74c8.222,0,14.911,6.687,14.911,14.906,0,8.219-6.69,14.905-14.912,14.905-3.983,0-7.727-1.55-10.544-4.366-2.817-2.815-4.367-6.558-4.367-10.54,0-8.219,6.689-14.906,14.911-14.906M253.295,189.294c8.08,0,14.654-6.571,14.655-14.648,0-8.077-6.574-14.648-14.654-14.648s-14.654,6.571-14.654,14.648c0,3.912,1.523,7.591,4.291,10.358,2.768,2.767,6.448,4.29,10.362,4.29M268.079,174.646h.003-.003M253.296,159.615c-8.291,0-15.036,6.743-15.036,15.031,0,4.015,1.563,7.789,4.403,10.628,2.84,2.839,6.616,4.402,10.632,4.402,8.291,0,15.036-6.743,15.037-15.03,0-8.288-6.745-15.031-15.036-15.031h0ZM253.295,189.169c-3.881,0-7.529-1.511-10.273-4.254-2.744-2.743-4.255-6.39-4.255-10.269,0-8.008,6.518-14.524,14.529-14.524s14.529,6.515,14.529,14.523c0,8.008-6.519,14.523-14.53,14.523h0Z" fill="#fff"/><path d="M253.295,184.886c-5.647,0-10.242-4.594-10.242-10.24s4.595-10.239,10.243-10.239,10.244,4.594,10.244,10.239c0,5.646-4.597,10.24-10.245,10.24ZM253.296,164.789c-5.438,0-9.861,4.422-9.861,9.856s4.423,9.857,9.86,9.857,9.861-4.422,9.862-9.857c0-5.435-4.424-9.856-9.861-9.856Z" fill="#fff"/><path d="M253.296,164.469c5.614,0,10.181,4.565,10.181,10.177-.001,5.612-4.568,10.177-10.182,10.177s-10.18-4.565-10.18-10.177,4.567-10.177,10.181-10.177M253.295,184.565c5.471,0,9.924-4.45,9.925-9.92,0-5.47-4.452-9.92-9.924-9.92s-9.924,4.45-9.924,9.92,4.451,9.92,9.923,9.92M263.348,174.646h.003-.003M253.296,164.344c-5.683,0-10.306,4.621-10.306,10.302s4.623,10.302,10.305,10.302,10.306-4.621,10.307-10.302c0-5.681-4.623-10.302-10.306-10.302h0ZM253.295,184.44c-5.402,0-9.798-4.394-9.798-9.795s4.396-9.795,9.799-9.795,9.799,4.394,9.799,9.795c0,5.401-4.397,9.795-9.8,9.795h0Z" fill="#fff"/><path d="M253.295,180.156c-3.039,0-5.512-2.472-5.512-5.511s2.473-5.511,5.513-5.511,5.513,2.472,5.513,5.511-2.474,5.511-5.514,5.511ZM253.296,169.516c-2.829,0-5.131,2.301-5.131,5.129s2.301,5.129,5.13,5.129,5.132-2.301,5.132-5.129-2.302-5.129-5.131-5.129Z" fill="#fff"/><path d="M253.296,169.197c3.005,0,5.45,2.444,5.45,5.449s-2.445,5.448-5.451,5.448-5.45-2.444-5.45-5.448,2.445-5.449,5.451-5.449M253.295,179.837c2.864,0,5.194-2.329,5.194-5.191s-2.33-5.191-5.193-5.191-5.193,2.329-5.193,5.191,2.329,5.191,5.192,5.191M253.296,169.072c-3.074,0-5.576,2.5-5.576,5.574s2.501,5.573,5.575,5.573,5.576-2.5,5.576-5.573-2.501-5.574-5.575-5.574h0ZM253.295,179.712c-2.794,0-5.067-2.273-5.067-5.066s2.274-5.066,5.068-5.066,5.068,2.273,5.068,5.066-2.274,5.066-5.069,5.066h0Z" fill="#fff"/><path d="M230.567,197.53l-.11-.055c-.073-.075-.073-.197,0-.271l19.718-19.708c.82-.821,1.958-1.293,3.12-1.293,1.181,0,2.29.459,3.122,1.293l19.717,19.708c.073.074.073.196,0,.271l-.019.019-.117.037c-.051,0-.099-.02-.135-.055l-19.717-19.71c-.761-.761-1.774-1.18-2.853-1.18-1.062,0-2.101.43-2.851,1.18l-19.734,19.728-.116.037h-.025Z" fill="#fff"/><path d="M253.294,176.266c1.163,0,2.257.452,3.078,1.274l19.716,19.709c.05.05.05.132,0,.182-.025.025-.058.038-.091.038s-.066-.013-.091-.038l-19.716-19.709c-.773-.773-1.801-1.199-2.896-1.199-1.078,0-2.133.437-2.895,1.199l-19.716,19.709c-.025.025-.058.038-.091.038-.033,0-.066-.013-.091-.038-.05-.05-.05-.132,0-.182l19.716-19.709c.809-.809,1.931-1.274,3.077-1.274M253.294,176.141c-1.179,0-2.332.478-3.165,1.311l-19.716,19.709c-.099.099-.099.26,0,.359.048.048.112.074.18.074s.131-.026.179-.074l19.716-19.709c.738-.738,1.761-1.162,2.806-1.162,1.061,0,2.059.413,2.808,1.162l19.716,19.709c.048.048.112.074.179.074s.131-.026.179-.074c.048-.048.074-.112.074-.179s-.026-.131-.074-.179l-19.716-19.709c-.845-.845-1.97-1.311-3.167-1.311h0Z" fill="#fff"/><path d="M253.294,173.089c-1.161,0-2.299-.471-3.12-1.293l-19.717-19.709c-.074-.074-.074-.195,0-.27l.018-.019.117-.037c.052,0,.1.02.136.055l19.716,19.71c.75.75,1.789,1.18,2.851,1.18s2.103-.43,2.853-1.18l19.734-19.728.116-.038c.052,0,.1.021.136.057.074.074.074.195,0,.27l-19.717,19.709c-.821.822-1.959,1.293-3.122,1.293Z" fill="#fff"/><path d="M230.592,151.824c.033,0,.066.013.091.038l19.716,19.709c.762.762,1.817,1.199,2.895,1.199s2.134-.437,2.896-1.199l19.716-19.709c.025-.025.058-.038.091-.038.033,0,.066.013.091.038.05.05.05.132,0,.182l-19.716,19.709c-.81.809-1.932,1.274-3.078,1.274s-2.267-.465-3.077-1.274l-19.716-19.709c-.05-.05-.05-.132,0-.182.025-.025.058-.038.091-.038M230.592,151.699c-.068,0-.131.026-.179.074-.099.099-.099.26,0,.359l19.716,19.709c.833.833,1.987,1.311,3.165,1.311s2.333-.478,3.167-1.311l19.716-19.709c.048-.048.074-.112.074-.179s-.026-.131-.074-.179c-.048-.048-.112-.074-.18-.074s-.131.026-.179.074l-19.716,19.709c-.739.738-1.762,1.162-2.808,1.162s-2.068-.424-2.806-1.162l-19.716-19.709c-.048-.048-.112-.074-.179-.074h0Z" fill="#fff"/><g id="d"><rect x="80.373" y="95.903" width="136.72" height="23.062" rx=".761" ry=".761" fill="#d0d3d4" stroke="#fff" stroke-miterlimit="10" stroke-width=".5"/><path d="M103.99,114.13h8.262c.319,0,.578-.259.578-.578h0v-12.225c0-.319-.259-.578-.578-.578h-8.262c-.319,0-.578.259-.578.578v12.225c0,.319.259.578.578.578Z" fill="#a2aaad"/><path d="M111.592,104.383v-1.817c0-.183-.148-.33-.33-.33h-6.279c-.182,0-.33.148-.33.33v1.817h6.94Z" fill="#101820"/><path d="M111.592,104.383h-6.94v7.764c0,.182.148.33.33.33h6.279c.183,0,.33-.148.33-.33h0v-7.764Z" fill="#333f48"/><path d="M108.106,107.618c.096,0,.191-.064.191-.159v-1.369c0-.096-.096-.159-.191-.159s-.159.064-.159.159v1.369c0,.096.064.159.159.159M108.743,109.975c0-.35-.287-.605-.637-.605-.318,0-.605.255-.605.605s.287.605.605.605c.35,0,.637-.255.637-.605ZM109.093,109.975c0-.541-.446-.955-.987-.955-.51,0-.955.414-.955.955s.446.955.955.955c.541,0,.987-.414.987-.955Z" fill="#fff" fill-rule="evenodd"/><path d="M116.865,117.694h21.201c.313,0,.569-.256.569-.572h0v-19.367c0-.316-.255-.572-.569-.572h-21.201c-.315,0-.569.256-.569.572v19.367c0,.316.254.572.569.572Z" fill="#a2aaad" fill-rule="evenodd"/><circle cx="124.65" cy="115.981" r="1.01" fill="#101820"/><circle cx="130.714" cy="115.981" r="1.01" fill="#101820"/><path d="M130.888,113.798c0-.087-.087-.173-.173-.173s-.173.087-.173.173.087.173.173.173.173-.087.173-.173Z" fill="#101820" fill-rule="evenodd"/><path d="M130.888,112.283c0-.087-.087-.173-.173-.173s-.173.087-.173.173l.087,1.213c.043,0,.043.043.087.043s.087-.043.087-.043l.087-1.213Z" fill="#101820" fill-rule="evenodd"/><path d="M124.65,111.786c-.688,0-1.247.561-1.247,1.254s.557,1.254,1.245,1.254c.688,0,1.248-.561,1.248-1.254s-.558-1.254-1.247-1.254ZM124.521,112.014c.44-.055.866.178,1.056.581l-.702.707-.291-1.092-.954.959c-.071-.567.329-1.084.892-1.155ZM124.773,114.067c-.437.053-.858-.179-1.049-.578l.708-.713.291,1.092.946-.952c.068.567-.334,1.082-.897,1.151Z" fill="#101820" fill-rule="evenodd"/><path d="M82.752,119.136h16.971c.23,0,.417-.187.417-.418h0v-22.097c0-.231-.187-.418-.417-.418h-16.971c-.23,0-.416.187-.416.418v22.097c0,.231.186.418.416.418Z" fill="#a2aaad" fill-rule="evenodd"/><path d="M98.518,115.621v-15.903c0-1.155-.931-2.092-2.08-2.092h-10.399c-1.149,0-2.08.937-2.08,2.092v15.903c0,1.156.931,2.092,2.08,2.092h10.399c1.149,0,2.08-.937,2.08-2.092h0Z" fill="#101820" fill-rule="evenodd"/><rect x="93.332" y="101.402" width="1.359" height="4.282" fill="#fff"/><rect x="87.786" y="105.528" width="1.358" height="4.284" fill="#fff"/><rect x="93.332" y="109.654" width="1.359" height="4.284" fill="#fff"/><rect x="100.141" y="104.095" width="3.271" height="6.687" fill="#101820"/></g><g id="e"><rect x="212.361" y="118.891" width="6.797" height="1.167" fill="#f1f1f2"/><rect x="131.63" y="115.723" width="3.315" height="5.003" fill="#595959"/><rect x="168.017" y="117.391" width="44.343" height="3.335" fill="#595959"/><rect x="166.857" y="117.391" width="1.16" height="3.335" fill="#595959"/><rect x="80.945" y="117.391" width="33.031" height="3.335" fill="#595959"/><rect x="113.975" y="117.391" width="1.16" height="3.335" fill="#595959"/><path d="M148.48,117.391c-.677,0-1.35-.083-2.006-.248l-4.674-1.172c-.656-.165-1.329-.248-2.005-.248h-5.016c-.183,0-.331.149-.331.334v4.336c0,.184.149.334.331.334h32.077v-3.335h-18.377Z" fill="#666" fill-rule="evenodd"/><path d="M137.101,120.226h27.933v-2.335h-16.554c-.716,0-1.43-.088-2.126-.263l-4.674-1.172c-.616-.155-1.25-.233-1.885-.233h-2.694v4.002Z" fill="#f4855c" fill-rule="evenodd"/><polygon points="140.977 118.191 139.543 117.535 139.54 118.914 140.977 118.191" fill="#595959" fill-rule="evenodd"/><path d="M126.789,117.391h-11.653v3.335h16.661c.183,0,.331-.149.331-.334h0v-4.336c0-.184-.149-.334-.331-.334h-2.289c-.183,0-.361.061-.505.173l-1.708,1.322c-.145.112-.322.173-.506.173Z" fill="#666" fill-rule="evenodd"/><rect x="78.501" y="118.475" width="4.973" height="2.251" fill="#666"/><rect x="212.361" y="120.059" width="6.216" height=".667" fill="#ccc"/></g><g id="f"><rect x="80.373" y="175.648" width="136.72" height="23.062" rx=".761" ry=".761" fill="#d0d3d4" stroke="#fff" stroke-miterlimit="10" stroke-width=".5"/><path d="M103.99,193.875h8.262c.319,0,.578-.259.578-.578h0v-12.225c0-.319-.259-.578-.578-.578h-8.262c-.319,0-.578.259-.578.578v12.225c0,.319.259.578.578.578Z" fill="#a2aaad"/><path d="M111.592,184.128v-1.817c0-.183-.148-.33-.33-.33h-6.279c-.182,0-.33.148-.33.33v1.817h6.94Z" fill="#101820"/><path d="M111.592,184.128h-6.94v7.764c0,.182.148.33.33.33h6.279c.183,0,.33-.148.33-.33h0v-7.764Z" fill="#333f48"/><path d="M108.106,187.363c.096,0,.191-.064.191-.159v-1.369c0-.096-.096-.159-.191-.159s-.159.064-.159.159v1.369c0,.096.064.159.159.159M108.743,189.72c0-.35-.287-.605-.637-.605-.318,0-.605.255-.605.605s.287.605.605.605c.35,0,.637-.255.637-.605ZM109.093,189.72c0-.541-.446-.955-.987-.955-.51,0-.955.414-.955.955s.446.955.955.955c.541,0,.987-.414.987-.955Z" fill="#fff" fill-rule="evenodd"/><path d="M116.865,197.439h21.201c.313,0,.569-.256.569-.572h0v-19.367c0-.316-.255-.572-.569-.572h-21.201c-.315,0-.569.256-.569.572v19.367c0,.316.254.572.569.572Z" fill="#a2aaad" fill-rule="evenodd"/><circle cx="124.65" cy="195.726" r="1.01" fill="#101820"/><circle cx="130.714" cy="195.726" r="1.01" fill="#101820"/><path d="M130.888,193.543c0-.087-.087-.173-.173-.173s-.173.087-.173.173.087.173.173.173.173-.087.173-.173Z" fill="#101820" fill-rule="evenodd"/><path d="M130.888,192.028c0-.087-.087-.173-.173-.173s-.173.087-.173.173l.087,1.213c.043,0,.043.043.087.043s.087-.043.087-.043l.087-1.213Z" fill="#101820" fill-rule="evenodd"/><path d="M124.65,191.531c-.688,0-1.247.561-1.247,1.254s.557,1.254,1.245,1.254c.688,0,1.248-.561,1.248-1.254s-.558-1.254-1.247-1.254ZM124.521,191.759c.44-.055.866.178,1.056.581l-.702.707-.291-1.092-.954.959c-.071-.567.329-1.084.892-1.155ZM124.773,193.812c-.437.053-.858-.179-1.049-.578l.708-.713.291,1.092.946-.952c.068.567-.334,1.082-.897,1.151Z" fill="#101820" fill-rule="evenodd"/><path d="M82.752,198.881h16.971c.23,0,.417-.187.417-.418h0v-22.097c0-.231-.187-.418-.417-.418h-16.971c-.23,0-.416.187-.416.418v22.097c0,.231.186.418.416.418Z" fill="#a2aaad" fill-rule="evenodd"/><path d="M98.518,195.366v-15.903c0-1.155-.931-2.092-2.08-2.092h-10.399c-1.149,0-2.08.937-2.08,2.092v15.903c0,1.156.931,2.092,2.08,2.092h10.399c1.149,0,2.08-.937,2.08-2.092h0Z" fill="#101820" fill-rule="evenodd"/><rect x="93.332" y="181.147" width="1.359" height="4.282" fill="#fff"/><rect x="87.786" y="185.273" width="1.358" height="4.284" fill="#fff"/><rect x="93.332" y="189.399" width="1.359" height="4.284" fill="#fff"/><rect x="100.141" y="183.841" width="3.271" height="6.687" fill="#101820"/></g><g id="g"><rect x="212.361" y="198.636" width="6.797" height="1.167" fill="#f1f1f2"/><rect x="131.63" y="195.468" width="3.315" height="5.003" fill="#595959"/><rect x="168.017" y="197.136" width="44.343" height="3.335" fill="#595959"/><rect x="166.857" y="197.136" width="1.16" height="3.335" fill="#595959"/><rect x="80.945" y="197.136" width="33.031" height="3.335" fill="#595959"/><rect x="113.975" y="197.136" width="1.16" height="3.335" fill="#595959"/><path d="M148.48,197.136c-.677,0-1.35-.083-2.006-.248l-4.674-1.172c-.656-.165-1.329-.248-2.005-.248h-5.016c-.183,0-.331.149-.331.334v4.336c0,.184.149.334.331.334h32.077v-3.335h-18.377Z" fill="#666" fill-rule="evenodd"/><path d="M137.101,199.971h27.933v-2.335h-16.554c-.716,0-1.43-.088-2.126-.263l-4.674-1.172c-.616-.155-1.25-.233-1.885-.233h-2.694v4.002Z" fill="#f4855c" fill-rule="evenodd"/><polygon points="140.977 197.936 139.543 197.28 139.54 198.659 140.977 197.936" fill="#595959" fill-rule="evenodd"/><path d="M126.789,197.136h-11.653v3.335h16.661c.183,0,.331-.149.331-.334h0v-4.336c0-.184-.149-.334-.331-.334h-2.289c-.183,0-.361.061-.505.173l-1.708,1.322c-.145.112-.322.173-.506.173Z" fill="#666" fill-rule="evenodd"/><rect x="78.501" y="198.22" width="4.973" height="2.251" fill="#666"/><rect x="212.361" y="199.804" width="6.216" height=".667" fill="#ccc"/></g><path d="M74.413,137.632v-42.22h-2.789c-.326,0-.59-.265-.59-.591h-.001v-1.098h-7.856v2.027h.422v2.195h-.844v100.484h.844v2.195h-.422v2.027h7.856v-1.098c0-.326.265-.591.591-.591h2.789v-42.22h-6.59c-.466,0-.844-.379-.844-.844v-19.421c0-.467.378-.845.844-.845h6.59Z" fill="#595959" fill-rule="evenodd"/><rect x="68.499" y="141.432" width="3.38" height="13.51" fill="#bc674d"/><rect x="71.879" y="141.432" width="2.534" height="13.51" fill="#f4855c"/><path d="M223.266,137.632v-42.22h2.789c.326,0,.59-.265.59-.591h.001v-1.098h7.856v2.027h-.422s0,2.195,0,2.195h.844v100.484h-.844s0,2.195,0,2.195h.422v2.027h-7.856v-1.098c0-.326-.265-.591-.591-.591h-2.789v-42.22h6.59c.466,0,.844-.379.844-.844v-19.421c0-.467-.378-.845-.844-.845h-6.59Z" fill="#595959" fill-rule="evenodd"/><rect x="225.8" y="141.432" width="3.38" height="13.51" fill="#bc674d"/><rect x="223.266" y="141.432" width="2.534" height="13.51" fill="#f4855c"/></g><path d="M216.429,123.226H81.23c-.42,0-.761.335-.761.747v21.161c0,.413.341.747.761.747h135.199c.42,0,.761-.335.761-.747v-21.161c0-.413-.341-.747-.761-.747Z" fill="#d0d3d4" fill-rule="evenodd" stroke="#fff" stroke-miterlimit="10" stroke-width=".5"/><path d="M105.334,135.524h.189v-.191h-.189v.191ZM105.377,135.187h.107l.047-.715v-.302h-.206v.302l.052.715ZM96.078,135.524h.193v-.191h-.193v.191ZM96.121,135.187h.107l.047-.715v-.302h-.206v.302l.051.715Z" fill="#fff" fill-rule="evenodd"/><path d="M105.334,135.524h.189v-.191h-.189v.191ZM105.377,135.187h.107l.047-.715v-.302h-.206v.302l.052.715ZM96.078,135.524h.193v-.191h-.193v.191ZM96.121,135.187h.107l.047-.715v-.302h-.206v.302l.051.715Z" fill="#fff" fill-rule="evenodd"/><rect x="155.315" y="139.446" width="59.35" height="4.43" fill="#404040"/><path d="M83.156,143.897h70.879v-16.437c0-1.399-1.132-2.531-2.531-2.531h-65.817c-1.398,0-2.531,1.132-2.531,2.531v16.437Z" fill="#a2aaad" fill-rule="evenodd"/><rect x="88.025" y="125.65" width="10.757" height="7.819" fill="#eee"/><rect x="101.089" y="125.57" width="10.757" height="7.899" fill="#eee"/><polygon points="89.44 132.74 97.366 132.74 97.366 127.422 95.612 127.422 95.612 126.516 94.918 126.498 94.918 126.179 91.889 126.179 91.889 126.498 91.202 126.498 91.202 127.394 89.44 127.394 89.44 132.74" fill="#262626" fill-rule="evenodd"/><polygon points="102.504 132.74 110.431 132.74 110.431 127.422 108.676 127.422 108.676 126.516 107.982 126.498 107.982 126.179 104.953 126.179 104.953 126.498 104.266 126.498 104.266 127.394 102.504 127.394 102.504 132.74" fill="#262626" fill-rule="evenodd"/><rect x="89.231" y="126.328" width="1.708" height=".854" fill="#404040"/><rect x="95.867" y="126.328" width="1.708" height=".854" fill="#404040"/><path d="M118.467,128.487h5.808c.4,0,.725.325.725.725v3.388c0,.4-.325.726-.726.726h-5.808c-.4,0-.726-.325-.726-.726v-3.388c0-.4.325-.725.725-.725Z" fill="#eee"/><path d="M119.994,131.612h2.753c.389,0,.705-.316.705-.705,0-.392-.316-.708-.705-.708h-2.753c-.389,0-.705.316-.705.708,0,.389.316.705.705.705Z" fill="#262626" fill-rule="evenodd"/><rect x="83.156" y="133.628" width="41.844" height="10.248" fill="#7da9dc"/><path d="M84.631,139.304l.369-.003-.004,1.149h.167l.005-.43h.326v.292h.605v-.802h-.605v.285h-.326v-1.163h.326v.274h.605v-.802h-.605v.305h-.326l-.005-.385h-.167l.004,1.055-.369.003-.004-.326h-.643v.854h.643l.004-.305Z" fill="#fff" fill-rule="evenodd"/><rect x="86.87" y="136.1" width="35.6" height="6.335" fill="#fff"/><path d="M88.706,134.562c0-.219.175-.392.392-.392s.392.174.392.392c0,.215-.175.389-.392.389s-.392-.174-.392-.389Z" fill="#fff"/><path d="M91.624,134.524c0-.215.175-.389.392-.389s.391.174.391.389c0,.219-.175.392-.391.392s-.392-.174-.392-.392Z" fill="#fff"/><path d="M97.459,134.562c0-.219.175-.392.392-.392s.392.174.392.392c0,.215-.175.389-.392.389s-.392-.174-.392-.389Z" fill="#fff"/><path d="M100.377,134.524c0-.215.175-.389.392-.389s.392.174.392.389c0,.219-.175.392-.392.392s-.392-.174-.392-.392Z" fill="#fff"/><path d="M106.213,134.562c0-.219.175-.392.392-.392s.391.174.391.392c0,.215-.175.389-.391.389s-.392-.174-.392-.389Z" fill="#fff"/><path d="M109.129,134.524c0-.215.177-.389.392-.389.219,0,.392.174.392.389,0,.219-.174.392-.392.392-.215,0-.392-.174-.392-.392Z" fill="#fff"/><path d="M114.964,134.562c0-.219.177-.392.392-.392s.392.174.392.392c0,.215-.177.389-.392.389s-.392-.174-.392-.389Z" fill="#fff"/><path d="M117.884,134.524c0-.215.174-.389.392-.389.215,0,.392.174.392.389,0,.219-.177.392-.392.392-.219,0-.392-.174-.392-.392Z" fill="#fff"/><path d="M155.315,143.876h59.35v-15.982c0-1.638-1.326-2.965-2.965-2.965h-53.417c-1.638,0-2.968,1.326-2.968,2.965v15.982Z" fill="#ededed" stroke="#a7a9ac" stroke-miterlimit="10" stroke-width=".25"/><path d="M183.957,136.794v-6.651c0-.215-.177-.389-.389-.389h-13.774c-.215,0-.389.174-.389.389v6.651c0,.212.174.385.389.385h13.774c.212,0,.389-.174.389-.385Z" fill="none" stroke="#a2aaad" stroke-miterlimit="10" stroke-width=".25"/><path d="M170.218,136.1h5.801v-5.186h-5.801v5.186ZM177.344,136.1h5.801v-5.186h-5.801v5.186Z" fill="#262626" fill-rule="evenodd"/><rect x="184.777" y="124.809" width="30.035" height="19.067" fill="#7da9dc"/><rect x="155.315" y="139.446" width="59.493" height="4.571" fill="#a2aaad"/><rect x="185.63" y="129.753" width="18.553" height="6.042" fill="#fff" stroke="#fff" stroke-miterlimit="10" stroke-width=".5"/><rect x="185.745" y="129.868" width="9.012" height="5.812" fill="#005cb9"/><rect x="195.057" y="129.868" width="9.012" height="5.812" fill="#b2292e"/><rect x="205.271" y="124.802" width="9.533" height="19.074" fill="#a2aaad"/><path d="M167.913,136.794v-6.651c0-.215-.087-.389-.194-.389h-6.873c-.104,0-.191.174-.191.389v6.651c0,.212.087.385.191.385h6.873c.108,0,.194-.174.194-.385Z" fill="none" stroke="#a2aaad" stroke-miterlimit="10" stroke-width=".25"/><rect x="161.394" y="130.904" width="5.775" height="5.185" fill="#262626"/><path d="M171.186,127.929c0-.219.174-.392.389-.392.219,0,.392.174.392.392,0,.215-.174.389-.392.389-.215,0-.389-.174-.389-.389Z" fill="#404040"/><path d="M174.199,127.963c0-.215.177-.389.392-.389s.392.174.392.389c0,.219-.177.392-.392.392s-.392-.174-.392-.392Z" fill="#404040"/><path d="M178.351,127.929c0-.219.174-.392.389-.392.219,0,.392.174.392.392,0,.215-.174.389-.392.389-.215,0-.389-.174-.389-.389Z" fill="#404040"/><path d="M181.364,127.963c0-.215.177-.389.392-.389s.392.174.392.389c0,.219-.177.392-.392.392s-.392-.174-.392-.392Z" fill="#404040"/><path d="M162.459,127.929c0-.219.174-.392.389-.392.219,0,.392.174.392.392,0,.215-.174.389-.392.389-.215,0-.389-.174-.389-.389Z" fill="#404040"/><path d="M165.472,127.963c0-.215.177-.389.392-.389s.392.174.392.389c0,.219-.177.392-.392.392s-.392-.174-.392-.392Z" fill="#404040"/><path d="M187.411,127.929c0-.219.174-.392.389-.392.219,0,.392.174.392.392,0,.215-.174.389-.392.389-.215,0-.389-.174-.389-.389Z" fill="#fff"/><path d="M190.424,127.963c0-.215.177-.389.392-.389s.392.174.392.389c0,.219-.177.392-.392.392s-.392-.174-.392-.392Z" fill="#fff"/><path d="M197.044,127.929c0-.219.174-.392.392-.392.215,0,.389.174.389.392,0,.215-.174.389-.389.389-.219,0-.392-.174-.392-.389Z" fill="#fff"/><path d="M200.057,127.963c0-.215.177-.389.392-.389s.392.174.392.389c0,.219-.177.392-.392.392s-.392-.174-.392-.392Z" fill="#fff"/><polygon points="177.344 137.801 177.344 137.416 178.091 138.165 177.344 138.912 177.344 138.527 176.952 138.527 176.952 137.801 177.344 137.801" fill="#262626" fill-rule="evenodd"/><polygon points="176.129 138.527 176.129 138.912 175.383 138.162 176.129 137.416 176.129 137.801 176.525 137.801 176.525 138.527 176.129 138.527" fill="#262626" fill-rule="evenodd"/><path d="M208.902,135.815c0-.292.236-.528.528-.528.288,0,.524.236.524.528s-.236.528-.524.528c-.292,0-.528-.236-.528-.528Z" fill="#262626"/><path d="M208.902,133.795c0-.292.236-.528.528-.528.288,0,.524.236.524.528s-.236.528-.524.528c-.292,0-.528-.236-.528-.528Z" fill="#262626"/><path d="M208.902,130.48c0-.292.236-.528.528-.528.288,0,.524.236.524.528,0,.288-.236.524-.524.524-.292,0-.528-.236-.528-.524Z" fill="#262626"/><path d="M208.902,132.087c0-.292.236-.528.528-.528.288,0,.524.236.524.528s-.236.528-.524.528c-.292,0-.528-.236-.528-.528Z" fill="#262626"/><polygon points="83.448 130.185 84.154 130.185 84.861 129.477 84.154 128.772 83.448 128.772 84.154 129.477 83.448 130.185" fill="#262626" fill-rule="evenodd"/><polygon points="87.665 128.772 86.959 128.772 86.252 129.477 86.959 130.185 87.665 130.185 86.959 129.477 87.665 128.772" fill="#262626" fill-rule="evenodd"/><rect x="84.351" y="129.224" width="2.486" height=".51" fill="#262626"/><path d="M104.565,142.117v-5.478h-8.464v5.478h8.464ZM95.797,142.117v-5.478h-8.504v5.478h8.504ZM113.23,142.117v-5.478h-8.339v5.478h8.339ZM122.027,142.117v-5.478l-8.454-.018v5.478l8.454.018Z" fill="#262626" fill-rule="evenodd"/><path d="M119.169,136.621h-2.951v.312h2.951v-.312ZM110.477,136.621h-2.948v.312h2.948v-.312ZM101.786,136.621h-2.95v.312h2.95v-.312ZM93.097,136.621h-2.95v.312h2.95v-.312Z" fill="#fff" fill-rule="evenodd"/><rect x="206.764" y="145.476" width="12.49" height=".812" fill="#f1f1f2"/><path d="M153.06,143.691v3.247h56.812c.09,0,.163-.073.163-.162h0v-1.786c0-.09-.073-.162-.163-.162h-28.852c-.09,0-.163-.073-.163-.162v-.812c0-.09-.073-.162-.163-.162h-27.634Z" fill="#4d4d4d" fill-rule="evenodd"/><path d="M158.2,143.691h-7.576v3.247h22.797v-3.247h-1.082c-.572,0-1.142-.081-1.698-.241l-3.957-1.141c-.495-.143-1.002-.223-1.511-.238v-.003h-5.206c-.119,0-.234.059-.328.169l-1.11,1.286c-.094.109-.21.169-.328.169Z" fill="#555"/><path d="M152.698,143.691h-38.04v3.247h42.958c.18,0,.326-.145.326-.325h0v-4.221c0-.179-.146-.325-.326-.325h-2.248c-.18,0-.354.059-.497.169l-1.678,1.286c-.142.109-.317.169-.497.169Z" fill="#555"/><path d="M153.06,143.691h-74.492c-.09,0-.163.073-.163.162v2.922c0,.09.073.162.163.162h74.492v-3.247Z" fill="#6a6a6a" fill-rule="evenodd"/><path d="M172.485,144.271h-1.879c-.554,0-1.107-.073-1.645-.216l-3.617-.964c-.477-.127-.967-.192-1.459-.192h-2.085v3.292h10.683v-1.92Z" fill="#f4855c" fill-rule="evenodd"/><polygon points="163.98 144.584 162.554 143.952 162.55 145.282 163.98 144.584" fill="#404040" fill-rule="evenodd"/><rect x="134.24" y="128.944" width="11.886" height="6.089" rx=".572" ry=".572" fill="#ededed"/><path d="M144.11,130.313h-7.897c-.125,0-.219.104-.219.222v2.982c0,.118.094.212.219.212h7.897c.118,0,.212-.094.212-.212v-2.982c0-.118-.094-.222-.212-.222Z" fill="#262626" fill-rule="evenodd"/><path d="M216.429,149.437H81.23c-.42,0-.761.335-.761.747v21.161c0,.413.341.747.761.747h135.199c.42,0,.761-.335.761-.747v-21.161c0-.413-.341-.747-.761-.747Z" fill="#d0d3d4" fill-rule="evenodd" stroke="#fff" stroke-miterlimit="10" stroke-width=".5"/><path d="M105.334,161.735h.189v-.191h-.189v.191ZM105.377,161.398h.107l.047-.715v-.302h-.206v.302l.052.715ZM96.078,161.735h.193v-.191h-.193v.191ZM96.121,161.398h.107l.047-.715v-.302h-.206v.302l.051.715Z" fill="#fff" fill-rule="evenodd"/><path d="M105.334,161.735h.189v-.191h-.189v.191ZM105.377,161.398h.107l.047-.715v-.302h-.206v.302l.052.715ZM96.078,161.735h.193v-.191h-.193v.191ZM96.121,161.398h.107l.047-.715v-.302h-.206v.302l.051.715Z" fill="#fff" fill-rule="evenodd"/><rect x="155.315" y="165.657" width="59.35" height="4.43" fill="#404040"/><path d="M83.156,170.108h70.879v-16.437c0-1.399-1.132-2.531-2.531-2.531h-65.817c-1.398,0-2.531,1.132-2.531,2.531v16.437Z" fill="#a2aaad" fill-rule="evenodd"/><rect x="88.025" y="151.861" width="10.757" height="7.819" fill="#eee"/><rect x="101.089" y="151.781" width="10.757" height="7.899" fill="#eee"/><polygon points="89.44 158.951 97.366 158.951 97.366 153.633 95.612 153.633 95.612 152.727 94.918 152.71 94.918 152.39 91.889 152.39 91.889 152.71 91.202 152.71 91.202 153.605 89.44 153.605 89.44 158.951" fill="#262626" fill-rule="evenodd"/><polygon points="102.504 158.951 110.431 158.951 110.431 153.633 108.676 153.633 108.676 152.727 107.982 152.71 107.982 152.39 104.953 152.39 104.953 152.71 104.266 152.71 104.266 153.605 102.504 153.605 102.504 158.951" fill="#262626" fill-rule="evenodd"/><rect x="89.231" y="152.539" width="1.708" height=".854" fill="#404040"/><rect x="95.867" y="152.539" width="1.708" height=".854" fill="#404040"/><path d="M118.467,154.699h5.808c.4,0,.725.325.725.725v3.388c0,.4-.325.726-.726.726h-5.808c-.4,0-.726-.325-.726-.726v-3.388c0-.4.325-.725.725-.725Z" fill="#eee"/><path d="M119.994,157.823h2.753c.389,0,.705-.316.705-.705,0-.392-.316-.708-.705-.708h-2.753c-.389,0-.705.316-.705.708,0,.389.316.705.705.705Z" fill="#262626" fill-rule="evenodd"/><rect x="83.156" y="159.839" width="41.844" height="10.248" fill="#7da9dc"/><path d="M84.631,165.515l.369-.003-.004,1.149h.167l.005-.43h.326v.292h.605v-.802h-.605v.285h-.326v-1.163h.326v.274h.605v-.802h-.605v.305h-.326l-.005-.385h-.167l.004,1.055-.369.003-.004-.326h-.643v.854h.643l.004-.305Z" fill="#fff" fill-rule="evenodd"/><rect x="86.87" y="162.311" width="35.6" height="6.335" fill="#fff"/><path d="M88.706,160.773c0-.219.175-.392.392-.392s.392.174.392.392c0,.215-.175.389-.392.389s-.392-.174-.392-.389Z" fill="#fff"/><path d="M91.624,160.735c0-.215.175-.389.392-.389s.391.174.391.389c0,.219-.175.392-.391.392s-.392-.174-.392-.392Z" fill="#fff"/><path d="M97.459,160.773c0-.219.175-.392.392-.392s.392.174.392.392c0,.215-.175.389-.392.389s-.392-.174-.392-.389Z" fill="#fff"/><path d="M100.377,160.735c0-.215.175-.389.392-.389s.392.174.392.389c0,.219-.175.392-.392.392s-.392-.174-.392-.392Z" fill="#fff"/><path d="M106.213,160.773c0-.219.175-.392.392-.392s.391.174.391.392c0,.215-.175.389-.391.389s-.392-.174-.392-.389Z" fill="#fff"/><path d="M109.129,160.735c0-.215.177-.389.392-.389.219,0,.392.174.392.389,0,.219-.174.392-.392.392-.215,0-.392-.174-.392-.392Z" fill="#fff"/><path d="M114.964,160.773c0-.219.177-.392.392-.392s.392.174.392.392c0,.215-.177.389-.392.389s-.392-.174-.392-.389Z" fill="#fff"/><path d="M117.884,160.735c0-.215.174-.389.392-.389.215,0,.392.174.392.389,0,.219-.177.392-.392.392-.219,0-.392-.174-.392-.392Z" fill="#fff"/><path d="M155.315,170.087h59.35v-15.982c0-1.638-1.326-2.965-2.965-2.965h-53.417c-1.638,0-2.968,1.326-2.968,2.965v15.982Z" fill="#ededed" stroke="#a7a9ac" stroke-miterlimit="10" stroke-width=".25"/><path d="M183.957,163.006v-6.651c0-.215-.177-.389-.389-.389h-13.774c-.215,0-.389.174-.389.389v6.651c0,.212.174.385.389.385h13.774c.212,0,.389-.174.389-.385Z" fill="none" stroke="#a2aaad" stroke-miterlimit="10" stroke-width=".25"/><path d="M170.218,162.311h5.801v-5.186h-5.801v5.186ZM177.344,162.311h5.801v-5.186h-5.801v5.186Z" fill="#262626" fill-rule="evenodd"/><rect x="184.777" y="151.02" width="30.035" height="19.067" fill="#7da9dc"/><rect x="155.315" y="165.657" width="59.493" height="4.571" fill="#a2aaad"/><rect x="185.63" y="155.964" width="18.553" height="6.042" fill="#fff" stroke="#fff" stroke-miterlimit="10" stroke-width=".5"/><rect x="185.745" y="156.079" width="9.012" height="5.812" fill="#005cb9"/><rect x="195.057" y="156.079" width="9.012" height="5.812" fill="#b2292e"/><rect x="205.271" y="151.013" width="9.533" height="19.074" fill="#a2aaad"/><path d="M167.913,163.006v-6.651c0-.215-.087-.389-.194-.389h-6.873c-.104,0-.191.174-.191.389v6.651c0,.212.087.385.191.385h6.873c.108,0,.194-.174.194-.385Z" fill="none" stroke="#a2aaad" stroke-miterlimit="10" stroke-width=".25"/><rect x="161.394" y="157.116" width="5.775" height="5.185" fill="#262626"/><path d="M171.186,154.14c0-.219.174-.392.389-.392.219,0,.392.174.392.392,0,.215-.174.389-.392.389-.215,0-.389-.174-.389-.389Z" fill="#404040"/><path d="M174.199,154.174c0-.215.177-.389.392-.389s.392.174.392.389c0,.219-.177.392-.392.392s-.392-.174-.392-.392Z" fill="#404040"/><path d="M178.351,154.14c0-.219.174-.392.389-.392.219,0,.392.174.392.392,0,.215-.174.389-.392.389-.215,0-.389-.174-.389-.389Z" fill="#404040"/><path d="M181.364,154.174c0-.215.177-.389.392-.389s.392.174.392.389c0,.219-.177.392-.392.392s-.392-.174-.392-.392Z" fill="#404040"/><path d="M162.459,154.14c0-.219.174-.392.389-.392.219,0,.392.174.392.392,0,.215-.174.389-.392.389-.215,0-.389-.174-.389-.389Z" fill="#404040"/><path d="M165.472,154.174c0-.215.177-.389.392-.389s.392.174.392.389c0,.219-.177.392-.392.392s-.392-.174-.392-.392Z" fill="#404040"/><path d="M187.411,154.14c0-.219.174-.392.389-.392.219,0,.392.174.392.392,0,.215-.174.389-.392.389-.215,0-.389-.174-.389-.389Z" fill="#fff"/><path d="M190.424,154.174c0-.215.177-.389.392-.389s.392.174.392.389c0,.219-.177.392-.392.392s-.392-.174-.392-.392Z" fill="#fff"/><path d="M197.044,154.14c0-.219.174-.392.392-.392.215,0,.389.174.389.392,0,.215-.174.389-.389.389-.219,0-.392-.174-.392-.389Z" fill="#fff"/><path d="M200.057,154.174c0-.215.177-.389.392-.389s.392.174.392.389c0,.219-.177.392-.392.392s-.392-.174-.392-.392Z" fill="#fff"/><polygon points="177.344 164.012 177.344 163.627 178.091 164.377 177.344 165.123 177.344 164.738 176.952 164.738 176.952 164.012 177.344 164.012" fill="#262626" fill-rule="evenodd"/><polygon points="176.129 164.738 176.129 165.123 175.383 164.373 176.129 163.627 176.129 164.012 176.525 164.012 176.525 164.738 176.129 164.738" fill="#262626" fill-rule="evenodd"/><path d="M208.902,162.027c0-.292.236-.528.528-.528.288,0,.524.236.524.528s-.236.528-.524.528c-.292,0-.528-.236-.528-.528Z" fill="#262626"/><path d="M208.902,160.006c0-.292.236-.528.528-.528.288,0,.524.236.524.528s-.236.528-.524.528c-.292,0-.528-.236-.528-.528Z" fill="#262626"/><path d="M208.902,156.691c0-.292.236-.528.528-.528.288,0,.524.236.524.528,0,.288-.236.524-.524.524-.292,0-.528-.236-.528-.524Z" fill="#262626"/><path d="M208.902,158.298c0-.292.236-.528.528-.528.288,0,.524.236.524.528s-.236.528-.524.528c-.292,0-.528-.236-.528-.528Z" fill="#262626"/><polygon points="83.448 156.396 84.154 156.396 84.861 155.688 84.154 154.983 83.448 154.983 84.154 155.688 83.448 156.396" fill="#262626" fill-rule="evenodd"/><polygon points="87.665 154.983 86.959 154.983 86.252 155.688 86.959 156.396 87.665 156.396 86.959 155.688 87.665 154.983" fill="#262626" fill-rule="evenodd"/><rect x="84.351" y="155.435" width="2.486" height=".51" fill="#262626"/><path d="M104.565,168.328v-5.478h-8.464v5.478h8.464ZM95.797,168.328v-5.478h-8.504v5.478h8.504ZM113.23,168.328v-5.478h-8.339v5.478h8.339ZM122.027,168.328v-5.478l-8.454-.018v5.478l8.454.018Z" fill="#262626" fill-rule="evenodd"/><path d="M119.169,162.832h-2.951v.312h2.951v-.312ZM110.477,162.832h-2.948v.312h2.948v-.312ZM101.786,162.832h-2.95v.312h2.95v-.312ZM93.097,162.832h-2.95v.312h2.95v-.312Z" fill="#fff" fill-rule="evenodd"/><rect x="206.764" y="171.687" width="12.49" height=".812" fill="#f1f1f2"/><path d="M153.06,169.902v3.247h56.812c.09,0,.163-.073.163-.162h0v-1.786c0-.09-.073-.162-.163-.162h-28.852c-.09,0-.163-.073-.163-.162v-.812c0-.09-.073-.162-.163-.162h-27.634Z" fill="#4d4d4d" fill-rule="evenodd"/><path d="M158.2,169.902h-7.576v3.247h22.797v-3.247h-1.082c-.572,0-1.142-.081-1.698-.241l-3.957-1.141c-.495-.143-1.002-.223-1.511-.238v-.003h-5.206c-.119,0-.234.059-.328.169l-1.11,1.286c-.094.109-.21.169-.328.169Z" fill="#555"/><path d="M152.698,169.902h-38.04v3.247h42.958c.18,0,.326-.145.326-.325h0v-4.221c0-.179-.146-.325-.326-.325h-2.248c-.18,0-.354.059-.497.169l-1.678,1.286c-.142.109-.317.169-.497.169Z" fill="#555"/><path d="M153.06,169.902h-74.492c-.09,0-.163.073-.163.162v2.922c0,.09.073.162.163.162h74.492v-3.247Z" fill="#6a6a6a" fill-rule="evenodd"/><path d="M172.485,170.482h-1.879c-.554,0-1.107-.073-1.645-.216l-3.617-.964c-.477-.127-.967-.192-1.459-.192h-2.085v3.292h10.683v-1.92Z" fill="#f4855c" fill-rule="evenodd"/><polygon points="163.98 170.795 162.554 170.163 162.55 171.493 163.98 170.795" fill="#404040" fill-rule="evenodd"/><rect x="134.24" y="155.155" width="11.886" height="6.089" rx=".572" ry=".572" fill="#ededed"/><path d="M144.11,156.525h-7.897c-.125,0-.219.104-.219.222v2.982c0,.118.094.212.219.212h7.897c.118,0,.212-.094.212-.212v-2.982c0-.118-.094-.222-.212-.222Z" fill="#262626" fill-rule="evenodd"/></g><g id="h"><rect x="50.102" y="41.193" width="15.124" height="7.384" rx=".406" ry=".406" fill="#f1f1f2" stroke="#d0d3d4" stroke-miterlimit="10" stroke-width=".251"/><rect x="50.745" y="41.837" width="13.84" height="6.097" fill="#101820"/><rect x="87.434" y="41.193" width="15.124" height="7.384" rx=".406" ry=".406" fill="#f1f1f2" stroke="#d0d3d4" stroke-miterlimit="10" stroke-width=".251"/><rect x="88.076" y="41.837" width="13.84" height="6.097" fill="#101820"/><rect x="50.745" y="41.837" width="13.84" height="6.097" fill="#101820"/><rect x="88.076" y="41.837" width="13.84" height="6.097" fill="#101820"/><rect x="50.745" y="41.837" width="13.84" height="6.097" fill="#101820"/><rect x="88.076" y="41.837" width="13.84" height="6.097" fill="#101820"/><rect x="193.725" y="41.193" width="15.124" height="7.384" rx=".406" ry=".406" fill="#f1f1f2" stroke="#d0d3d4" stroke-miterlimit="10" stroke-width=".251"/><rect x="194.367" y="41.837" width="13.84" height="6.097" fill="#101820"/><rect x="231.056" y="41.193" width="15.124" height="7.384" rx=".406" ry=".406" fill="#f1f1f2" stroke="#d0d3d4" stroke-miterlimit="10" stroke-width=".251"/><rect x="231.699" y="41.837" width="13.84" height="6.097" fill="#101820"/><rect x="194.367" y="41.837" width="13.84" height="6.097" fill="#101820"/><rect x="231.699" y="41.837" width="13.84" height="6.097" fill="#101820"/><rect x="194.367" y="41.837" width="13.84" height="6.097" fill="#101820"/><polyline points="199.683 156.079 199.69 144.171 238.703 144.171 238.703 44.885" fill="none" stroke="#fff" stroke-linejoin="round" stroke-width="3.5"/><polyline points="199.683 156.079 199.69 144.171 238.703 144.171 238.703 44.885" fill="none" stroke="#b2292e" stroke-linejoin="round" stroke-width="1.575"/><polyline points="199.606 129.844 199.606 77.063 201.372 77.063 201.372 44.885" fill="none" stroke="#fff" stroke-linejoin="round" stroke-width="3.5"/><polyline points="199.606 129.844 199.606 77.063 201.372 77.063 201.372 44.885" fill="none" stroke="#b2292e" stroke-linejoin="round" stroke-width="1.575"/><polyline points="190.212 156.079 190.219 144.081 94.996 144.171 94.996 44.885" fill="none" stroke="#fff" stroke-linejoin="round" stroke-width="3.5"/><polyline points="190.212 156.079 190.219 144.081 94.996 144.171 94.996 44.885" fill="none" stroke="#005cb9" stroke-linejoin="round" stroke-width="1.575"/><polyline points="190.203 129.844 190.203 76.973 57.665 77.063 57.665 44.885" fill="none" stroke="#fff" stroke-linejoin="round" stroke-width="3.5"/><polyline points="190.203 129.844 190.203 76.973 57.665 77.063 57.665 44.885" fill="none" stroke="#005cb9" stroke-linejoin="round" stroke-width="1.575"/><rect x="50.745" y="41.837" width="13.84" height="6.097" fill="#005cb9"/><rect x="88.076" y="41.837" width="13.84" height="6.097" fill="#005cb9"/><rect x="194.367" y="41.837" width="13.84" height="6.097" fill="#b2292e"/><rect x="231.699" y="41.837" width="13.84" height="6.097" fill="#b2292e"/><rect x="177.346" y="130.91" width="5.801" height="5.186" fill="#262626"/><rect x="170.218" y="130.91" width="5.801" height="5.186" fill="#262626"/><rect x="177.346" y="157.121" width="5.801" height="5.186" fill="#262626"/><rect x="170.218" y="157.121" width="5.801" height="5.186" fill="#262626"/></g></svg>