<?xml version="1.0" encoding="UTF-8"?><!-- Generator: Adobe Illustrator 12.0.0, SVG Export Plug-In . SVG Version: 6.00 Build 51448)  --><!DOCTYPE svg PUBLIC "-//W3C//DTD SVG 1.1//EN" "http://www.w3.org/Graphics/SVG/1.1/DTD/svg11.dtd">
<svg xmlns="http://www.w3.org/2000/svg" xmlns:xlink="http://www.w3.org/1999/xlink" version="1.1" id="outline" width="174.37" height="86.912" viewBox="0 0 174.37 86.912" overflow="visible" enable-background="new 0 0 174.37 86.912" xml:space="preserve" preserveAspectRatio="xMidYMid meet" zoomAndPan="magnify" contentScriptType="application/ecmascript" contentStyleType="text/css">
<path fill="#FFFFFF" stroke="#000000" stroke-width="0.5" stroke-linecap="round" stroke-linejoin="round" d="M173.896,25.246  c0,0-150.123-22.751-172.125-24.996"/>
<polyline fill="none" stroke="#000000" stroke-width="0.5" stroke-linecap="round" stroke-linejoin="round" points="173.896,27.94   38.89,9.23 38.591,10.428 35.896,9.979 36.146,8.731 38.141,9.031 38.241,8.333 151.395,24.497 "/>
<path fill="none" stroke="#000000" stroke-width="0.5" stroke-linecap="round" stroke-linejoin="round" d="M173.746,40.363  l-21.653-3.992c0,0-1.396-0.5-2.693-1.497c-1.297-0.998-9.58-9.778-10.079-11.774"/>
<path fill="none" stroke="#000000" stroke-width="0.5" stroke-linecap="round" stroke-linejoin="round" d="M141.916,29.287  l-3.991-0.3l-1.197-1.297l-1.996,0.998l-93.597-7.883l2.993-6.286l-2.993-0.499l-3.192,6.685l-8.782-0.897  c0,0-2.095,6.685-2.195,10.677c0,0,56.677,2.993,120.938,9.18c0,0,5.587,1.498,1.595-2.195  C149.498,37.469,142.515,29.985,141.916,29.287z"/>
<polyline fill="none" stroke="#000000" stroke-width="0.5" stroke-linecap="round" stroke-linejoin="round" points="116.271,26.992   114.774,25.495 107.29,25.196 107.092,26.194 "/>
<path fill="none" stroke="#000000" stroke-width="0.5" stroke-linecap="round" stroke-linejoin="round" d="M119.464,27.191  l-3.691-2.793l-5.986-0.499c0,0-2.596,0.299-3.194-2.694l-54.88-7.982l-3.293,6.984v1.298"/>
<polyline fill="none" stroke="#000000" stroke-width="0.5" stroke-linecap="round" stroke-linejoin="round" points="55.204,21.903   55.902,20.206 51.611,20.206 51.412,19.708 50.215,19.708 50.215,20.206 48.719,20.206 "/>
<line fill="none" stroke="#000000" stroke-width="0.5" stroke-linecap="round" stroke-linejoin="round" x1="51.412" y1="19.708" x2="52.36" y2="17.986"/>
<line fill="none" stroke="#000000" stroke-width="0.5" stroke-linecap="round" stroke-linejoin="round" x1="50.215" y1="19.708" x2="51.013" y2="17.986"/>
<path fill="none" stroke="#000000" stroke-width="0.5" stroke-linecap="round" stroke-linejoin="round" d="M26.966,30.484  c-0.675,1.201,0.451,1.043,0.474,1.047c0,0,86.287,5.239,121.311,9.28c0,0,2.32,0,2.096-0.973"/>
<polyline fill="none" stroke="#000000" stroke-width="0.5" stroke-linecap="round" stroke-linejoin="round" points="1.621,2.794   32.828,6.985 34.923,15.517 31.182,20.007 "/>
<polyline fill="none" stroke="#000000" stroke-width="0.5" stroke-linecap="round" stroke-linejoin="round" points="36.195,20.606   35.148,16.49 32.304,19.857 "/>
<path fill="none" stroke="#000000" stroke-width="0.5" stroke-linecap="round" stroke-linejoin="round" d="M32.679,7.36  c0,0-4.117,7.633-5.239,9.878l-3.368-0.524l0.374-3.592"/>
<ellipse transform="matrix(0.8462 -0.5328 0.5328 0.8462 -5.7222 14.3584)" fill="none" stroke="#000000" stroke-width="0.5" stroke-linecap="round" stroke-linejoin="round" cx="22.013" cy="17.092" rx="2.023" ry="2.297"/>
<ellipse transform="matrix(0.6316 0.7753 -0.7753 0.6316 21.4016 -10.774)" fill="none" stroke="#000000" stroke-width="0.5" stroke-linecap="round" stroke-linejoin="round" cx="22.038" cy="17.133" rx="1.402" ry="0.995"/>
<line fill="none" stroke="#000000" stroke-width="0.5" stroke-linecap="round" stroke-linejoin="round" x1="20.081" y1="15.866" x2="1.671" y2="12.324"/>
<path fill="none" stroke="#000000" stroke-width="0.5" stroke-linecap="round" stroke-linejoin="round" d="M1.621,18.859  l1.547,2.694c0,0,15.416,3.143,17.063,2.644s2.083-1.272,2.083-1.272l5.239-5.688l6.099-6.735"/>
<path fill="none" stroke="#000000" stroke-width="0.5" stroke-linecap="round" stroke-linejoin="round" d="M1.621,13.222  l16.963,3.144c0,0,0.549,5.239,2.045,7.733"/>
<path fill="none" stroke="#000000" stroke-width="0.5" stroke-linecap="round" stroke-linejoin="round" d="M2.769,21.205  c0,0-0.548,1.047,1.347,1.397c1.896,0.349,15.117,2.345,15.117,2.345s1.198,0.249,1.597,0c0.399-0.25,1.397-0.998,1.397-0.998  l11.35-12.623"/>
<path fill="none" stroke="#000000" stroke-width="0.5" stroke-linecap="round" stroke-linejoin="round" d="M2.868,22.202  c0,0,3.293,10.178,3.643,10.328c0.349,0.15,15.965,2.895,15.965,2.895s1.846,0.049,2.345-0.599c0.499-0.649,2.395-2.994,2.395-2.994  "/>
<path fill="none" stroke="#000000" stroke-width="0.5" stroke-linecap="round" stroke-linejoin="round" d="M20.629,25.196  c0,0,1.996,8.73,3.343,10.229"/>
<ellipse transform="matrix(-0.3243 -0.9459 0.9459 -0.3243 1.9876 76.0896)" fill="none" stroke="#000000" stroke-width="0.5" stroke-linecap="round" stroke-linejoin="round" cx="28.169" cy="37.335" rx="1.32" ry="1.107"/>
<path fill="none" stroke="#000000" stroke-width="0.5" stroke-linecap="round" stroke-linejoin="round" d="M27.115,37.568  c0,0,1.497,1.148,2.096-0.249"/>
<path fill="none" stroke="#000000" stroke-width="0.5" stroke-linecap="round" stroke-linejoin="round" d="M6.66,32.68  c0,0,15.965,3.542,19.308,3.393c0,0,2.595-3.293,4.491,0.848"/>
<path fill="none" stroke="#000000" stroke-width="0.5" stroke-linecap="round" stroke-linejoin="round" d="M31.207,31.832  c1.396,2.893,1.496,5.238,1.496,5.238h-2.095"/>
<path fill="none" stroke="#000000" stroke-width="0.5" stroke-linecap="round" stroke-linejoin="round" d="M6.36,32.58  c0,0-0.233,1.097,1.397,1.347l18.111,3.393c0,0,1.297,4.29,4.69,0.998c0,0,1.546-0.05,2.395,0.349c0,0,0.1-1.946-0.5-3.841"/>
<path fill="none" stroke="#000000" stroke-width="0.5" stroke-linecap="round" stroke-linejoin="round" d="M1.671,36.072  l3.992,0.699c0,0,0.898,0.648,0.748,0.897c-0.149,0.25-0.698,0.5-1.296,0.5c-0.599,0-3.593-0.748-3.593-0.748"/>
<line fill="none" stroke="#000000" stroke-width="0.5" stroke-linecap="round" stroke-linejoin="round" x1="6.41" y1="37.668" x2="11.15" y2="47.647"/>
<path fill="none" stroke="#000000" stroke-width="0.5" stroke-linecap="round" stroke-linejoin="round" d="M29.311,40.774  L8.356,36.671c0,0,0.05,1.247,0.649,1.496c0.598,0.249,18.061,3.617,18.061,3.617"/>
<path fill="none" stroke="#000000" stroke-width="0.5" stroke-linecap="round" stroke-linejoin="round" d="M15.59,46.3  c-1.247,0.498-2.494-0.749-2.494-0.749l-4.091-7.384"/>
<path fill="none" stroke="#000000" stroke-width="0.5" stroke-linecap="round" stroke-linejoin="round" d="M1.721,50.491  c0,0,7.084-2.047,9.579-2.694c0,0,1.497-0.1,3.493-0.999"/>
<path fill="none" stroke="#000000" stroke-width="0.5" stroke-linecap="round" stroke-linejoin="round" d="M34.101,38.417  c0,0,2.045-0.997,7.284-2.493"/>
<path fill="none" stroke="#000000" stroke-width="0.5" stroke-linecap="round" stroke-linejoin="round" d="M41.335,36.422  l-7.334,2.244c-8.981,4.741-19.208,7.983-19.208,7.983"/>
<path fill="none" stroke="#000000" stroke-width="0.5" stroke-linecap="round" stroke-linejoin="round" d="M38.74,37.319  c0,0,1.547,0.2,2.345,1.945"/>
<path fill="none" stroke="#000000" stroke-width="0.5" stroke-linecap="round" stroke-linejoin="round" d="M43.579,45.9  c0.749-0.748-2.345-6.585-2.345-6.585c-0.349-0.699,0.849-6.885,0.849-6.885"/>
<path fill="none" stroke="#000000" stroke-width="0.5" stroke-linecap="round" stroke-linejoin="round" d="M48.469,33.079  c0,0-1.796,7.284-0.648,10.676"/>
<path fill="none" stroke="#000000" stroke-width="0.5" stroke-linecap="round" stroke-linejoin="round" d="M47.87,86.662  c0,0-0.399-1.298,0-2.396c0.399-1.097,2.494-4.591,2.245-5.089c0,0-0.398,0,0.998-2.993"/>
<path fill="none" stroke="#000000" stroke-width="0.5" stroke-linecap="round" stroke-linejoin="round" d="M51.263,76.084  c0,0,8.332-14.219,8.831-15.366"/>
<path fill="none" stroke="#000000" stroke-width="0.5" stroke-linecap="round" stroke-linejoin="round" d="M59.994,60.569  c0,0-4.641,5.338-7.135,8.98"/>
<path fill="none" stroke="#000000" stroke-width="0.5" stroke-linecap="round" stroke-linejoin="round" d="M52.71,69.599  c0,0-6.286-3.842-8.182-6.985c0,0-2.645-4.042,2.095-10.627c0,0,1.547-2.594,2.146-3.342c0.599-0.749,3.342-4.491,8.831-4.141  c0,0,9.578,0.648,6.485,8.98c0,0-2.993,5.987-3.991,6.985"/>
<path fill="none" stroke="#000000" stroke-width="0.5" stroke-linecap="round" stroke-linejoin="round" d="M47.721,50.242  c0,0,18.211-9.929,14.618,6.135"/>
<path fill="none" stroke="#000000" stroke-width="0.5" stroke-linecap="round" stroke-linejoin="round" d="M56.602,44.254"/>
<path fill="none" stroke="#000000" stroke-width="0.5" stroke-linecap="round" stroke-linejoin="round" d="M56.9,44.304  c0,0-8.331-3.393-15.067,3.243c0,0-3.393,4.14-4.49,5.488c-1.098,1.346-7.583,9.329-9.33,10.727  c-1.746,1.397-5.986,6.137-6.885,7.484c0,0-5.238,11.823-5.638,15.316"/>
<path fill="none" stroke="#000000" stroke-width="0.5" stroke-linecap="round" stroke-linejoin="round" d="M20.879,71.844  c0,0-3.293,0.199-4.89,1.396c-1.596,1.198-4.341,4.94-14.369,10.179"/>
<path fill="none" stroke="#000000" stroke-width="0.5" stroke-linecap="round" stroke-linejoin="round" d="M17.187,72.393  c0,0-1.946-9.929-4.291-12.672c-2.344-2.745-4.34-5.138-6.834-6.386"/>
<line fill="none" stroke="#000000" stroke-width="0.5" stroke-linecap="round" stroke-linejoin="round" x1="20.105" y1="15.667" x2="22.201" y2="12.448"/>
<path fill="#FFFFFF" stroke="#000000" stroke-width="0.5" stroke-linecap="round" stroke-linejoin="round" d="M63.586,53.983"/>
<path fill="none" stroke="#000000" stroke-width="0.5" stroke-linecap="round" stroke-linejoin="round" d="M63.586,54.731  c0,0,79.178,7.933,80.376,6.734c1.196-1.197,12.571-4.938,6.136-20.954"/>
<line fill="none" stroke="#000000" stroke-width="0.5" stroke-linecap="round" stroke-linejoin="round" x1="152.193" y1="47.697" x2="173.896" y2="50.689"/>
<path fill="none" stroke="#000000" stroke-width="0.5" stroke-linecap="round" stroke-linejoin="round" d="M61.789,34.076  c0,0-2.095,8.532-0.149,11.376"/>
<path fill="none" stroke="#000000" stroke-width="0.5" stroke-linecap="round" stroke-linejoin="round" d="M93.071,36.322  c0,0-3.441,13.021-0.748,20.207c0,0,50.89,5.238,52.387,4.19"/>
<path fill="none" stroke="#000000" stroke-width="0.5" stroke-linecap="round" stroke-linejoin="round" d="M56.102,67.903"/>
<line fill="none" stroke="#000000" stroke-width="0.5" stroke-linecap="round" stroke-linejoin="round" x1="35.896" y1="9.979" x2="38.44" y2="19.558"/>
<line fill="none" stroke="#000000" stroke-width="0.5" stroke-linecap="round" stroke-linejoin="round" x1="38.591" y1="10.428" x2="39.938" y2="16.116"/>
<line fill="none" stroke="#000000" stroke-width="0.5" stroke-linecap="round" stroke-linejoin="round" x1="38.89" y1="9.23" x2="40.386" y2="15.517"/>
<line fill="none" stroke="#000000" stroke-width="0.5" stroke-linecap="round" stroke-linejoin="round" x1="44.128" y1="14.519" x2="44.877" y2="21.055"/>
<line fill="none" stroke="#000000" stroke-width="0.5" stroke-linecap="round" stroke-linejoin="round" x1="63.138" y1="55.479" x2="143.661" y2="61.917"/>
<path fill="none" stroke="#000000" stroke-width="0.5" stroke-linecap="round" stroke-linejoin="round" d="M65.083,55.779  c0,0-0.599,9.878,2.694,12.125l23.049,3.592c0,0-2.245-9.579-1.047-14.07"/>
<path fill="none" stroke="#000000" stroke-width="0.5" stroke-linecap="round" stroke-linejoin="round" d="M90.826,71.495  l42.059,7.932c0,0,10.776-3.891,4.042-17.66"/>
<path fill="none" stroke="#000000" stroke-width="0.5" stroke-linecap="round" stroke-linejoin="round" d="M140.968,61.767  l25.594,5.388c0,0,2.994-2.095,5.239,0.749l2.245,0.298"/>
<path fill="none" stroke="#000000" stroke-width="0.5" stroke-linecap="round" stroke-linejoin="round" d="M139.172,61.466"/>
<path fill="none" stroke="#000000" stroke-width="0.5" stroke-linecap="round" stroke-linejoin="round" d="M163.568,68.201  c0,0,0.299,11.226-5.688,14.221"/>
<path fill="none" stroke="#000000" stroke-width="0.5" stroke-linecap="round" stroke-linejoin="round" d="M141.117,70.897  c0,0,0,0.297,3.741,1.046c3.742,0.749,17.812,2.246,17.812,2.246"/>
<path fill="none" stroke="#000000" stroke-width="0.5" stroke-linecap="round" stroke-linejoin="round" d="M173.597,69.249  l-1.796-0.298c-2.845,3.741-5.688-0.75-5.688-0.75l-26.94-5.986"/>
<ellipse fill="none" stroke="#000000" stroke-width="0.5" stroke-linecap="round" stroke-linejoin="round" cx="169.181" cy="68.576" rx="1.722" ry="1.123"/>
<ellipse fill="none" stroke="#000000" stroke-width="0.5" stroke-linecap="round" stroke-linejoin="round" cx="172.399" cy="62.665" rx="1.721" ry="1.122"/>
<ellipse fill="none" stroke="#000000" stroke-width="0.5" stroke-linecap="round" stroke-linejoin="round" cx="161.173" cy="83.47" rx="1.722" ry="1.122"/>
<path fill="none" stroke="#000000" stroke-width="0.5" stroke-linecap="round" stroke-linejoin="round" d="M146.655,59.971  l22.9,2.244c0,0,1.945-2.244,4.34-0.749"/>
<path fill="none" stroke="#000000" stroke-width="0.5" stroke-linecap="round" stroke-linejoin="round" d="M145.907,60.269  l23.498,2.396c0,0,2.096,3.442,4.49,1.496"/>
<path fill="none" stroke="#000000" stroke-width="0.5" stroke-linecap="round" stroke-linejoin="round" d="M56.102,67.903  l73.342,14.219c0,0,2.993,1.348,1.496-1.197l-1.496-1.946"/>
<line fill="none" stroke="#000000" stroke-width="0.5" stroke-linecap="round" stroke-linejoin="round" x1="131.389" y1="82.122" x2="132.885" y2="86.612"/>
<path fill="none" stroke="#000000" stroke-width="0.5" stroke-linecap="round" stroke-linejoin="round" d="M131.389,79.128  l1.796,1.797c0,0,1.047,1.646,3.742,1.945c2.693,0.3,19.756,3.592,19.756,3.592"/>
<path fill="none" stroke="#000000" stroke-width="0.5" stroke-linecap="round" stroke-linejoin="round" d="M132.885,79.427  l26.044,3.443c0,0,2.096-3.443,4.64,0.3h3.293l2.544-7.485"/>
<path fill="none" stroke="#000000" stroke-width="0.5" stroke-linecap="round" stroke-linejoin="round" d="M132.137,79.877  l26.192,3.742c0,0,2.993,3.143,4.79,0.599l3.293,0.149l5.239-14.668"/>
<path fill="none" stroke="#000000" stroke-width="0.5" stroke-linecap="round" stroke-linejoin="round" d="M138.722,61.466  c0,0,6.735,13.471-3.292,17.961"/>
<polyline fill="none" stroke="#000000" stroke-width="0.5" stroke-linecap="round" stroke-linejoin="round" points="173.896,84.666   170.603,84.367 169.556,74.937 "/>
<line fill="none" stroke="#000000" stroke-width="0.5" stroke-linecap="round" stroke-linejoin="round" x1="167.609" y1="81.223" x2="168.357" y2="86.612"/>
<path fill="none" stroke="#000000" stroke-width="0.5" stroke-linecap="round" stroke-linejoin="round" d="M90.977,74.937  c0,0-2.545,6.886-0.748,11.676"/>
<line fill="none" stroke="#000000" stroke-width="0.5" stroke-linecap="round" stroke-linejoin="round" x1="50.115" y1="79.178" x2="87.533" y2="86.462"/>
<path fill="none" stroke="#000000" stroke-width="0.5" stroke-linecap="round" stroke-linejoin="round" d="M35.148,78.979  c0,0,6.136,5.239,9.429,5.688"/>
<path fill="none" stroke="#000000" stroke-width="0.5" stroke-linecap="round" stroke-linejoin="round" d="M28.712,79.427  c0,0,4.19,4.642,6.436,5.688"/>
<text transform="matrix(1.0153 0.1385 -0.1352 0.9908 5.9136 28.9199)" font-family="'Helvetica'" font-size="4.6075">6.0TB</text>
<text transform="matrix(1.1766 0.1605 -0.1352 0.9908 143.0068 76.8066)" font-family="'Helvetica'" font-size="4.1908">6.0TB</text>
<text transform="matrix(1.1766 0.1605 -0.1352 0.9908 153.9531 54.5088)" font-family="'Helvetica'" font-size="4.1908">6.0TB</text>
<line fill="none" stroke="#000000" stroke-width="0.5" stroke-linecap="round" stroke-linejoin="round" x1="91.126" y1="50.391" x2="64.185" y2="48.444"/>
<g>
	<polygon stroke="#FFFFFF" stroke-linecap="round" stroke-linejoin="round" points="26.08,33.524 20.698,30.304 20.698,34.14    0.5,34.14 0.5,39.884 20.698,39.884 20.698,43.182 26.08,39.96 31.462,36.742  "/>
</g>
</svg>