<?xml version="1.0" encoding="UTF-8"?><svg id="a" xmlns="http://www.w3.org/2000/svg" width="4.125in" height="1.75in" viewBox="0 0 297 126"><rect x="1.6" y="58.881" width="293.969" height="63.104" fill="none" stroke="#a2aaad" stroke-linecap="round" stroke-linejoin="round" stroke-width="1.199"/><rect x="4.301" y="62.017" width="288.566" height="56.832" fill="#d0d3d4"/><rect x="6.369" y="92.042" width="136.72" height="23.062" rx=".761" ry=".761" fill="#d0d3d4" stroke="#fff" stroke-miterlimit="10" stroke-width=".5"/><path d="M125.717,94.345v17.81c0,.57.462,1.033,1.033,1.033h12.91c.571,0,1.033-.462,1.033-1.033v-17.81c0-.57-.462-1.032-1.033-1.032h-12.91c-.57,0-1.033.462-1.033,1.032h0Z" fill="#a2aaad"/><path d="M113.341,110.268h8.262c.319,0,.578-.259.578-.578h0v-12.225c0-.319-.259-.578-.578-.578h-8.262c-.319,0-.578.259-.578.578v12.225c0,.319.259.578.578.578Z" fill="#a2aaad"/><path d="M120.942,100.521v-1.817c0-.183-.148-.33-.33-.33h-6.279c-.182,0-.33.148-.33.33v1.817h6.94Z" fill="#101820"/><path d="M120.942,100.521h-6.94v7.764c0,.182.148.33.33.33h6.279c.183,0,.33-.148.33-.33h0v-7.764Z" fill="#333f48"/><path d="M127.215,99.562v8.03c0,.451.184.882.51,1.193l3.239,3.099c.308.294.717.459,1.143.459h5.436c.912,0,1.652-.739,1.652-1.652v-14.229c0-.913-.74-1.652-1.652-1.652h-5.436c-.426,0-.835.164-1.143.459l-3.239,3.1c-.325.312-.51.743-.51,1.193Z" fill="#101820"/><rect x="133.314" y="107.816" width="3.305" height=".991" fill="#fff"/><rect x="129.791" y="103.095" width="3.305" height=".991" fill="#fff"/><rect x="133.314" y="98.375" width="3.305" height=".991" fill="#fff"/><path d="M49.482,113.833h21.201c.313,0,.569-.256.569-.572h0v-19.367c0-.316-.255-.572-.569-.572h-21.201c-.315,0-.569.256-.569.572v19.367c0,.316.254.572.569.572Z" fill="#a2aaad" fill-rule="evenodd"/><circle cx="57.267" cy="98.447" r="1.01" fill="#101820"/><circle cx="63.332" cy="98.447" r="1.01" fill="#101820"/><g id="b"><rect x="138.357" y="115.03" width="6.797" height="1.167" fill="#f1f1f2"/><rect x="57.626" y="111.861" width="3.315" height="5.003" fill="#595959"/><rect x="94.013" y="113.529" width="44.343" height="3.335" fill="#595959"/><rect x="92.853" y="113.529" width="1.16" height="3.335" fill="#595959"/><rect x="6.941" y="113.529" width="33.031" height="3.335" fill="#595959"/><rect x="39.971" y="113.529" width="1.16" height="3.335" fill="#595959"/><path d="M74.475,113.529c-.677,0-1.35-.083-2.006-.248l-4.674-1.172c-.656-.165-1.329-.248-2.005-.248h-5.016c-.183,0-.331.149-.331.334v4.336c0,.184.149.334.331.334h32.077v-3.335h-18.377Z" fill="#666" fill-rule="evenodd"/><path d="M63.097,116.364h27.933v-2.335h-16.554c-.716,0-1.43-.088-2.126-.263l-4.674-1.172c-.616-.155-1.25-.233-1.885-.233h-2.694v4.002Z" fill="#f4855c" fill-rule="evenodd"/><polygon points="66.972 114.329 65.539 113.674 65.536 115.052 66.972 114.329" fill="#595959" fill-rule="evenodd"/><path d="M52.785,113.529h-11.653v3.335h16.661c.183,0,.331-.149.331-.334h0v-4.336c0-.184-.149-.334-.331-.334h-2.289c-.183,0-.361.061-.505.173l-1.708,1.322c-.145.112-.322.173-.506.173Z" fill="#666" fill-rule="evenodd"/><rect x="4.497" y="114.613" width="4.973" height="2.251" fill="#666"/><rect x="138.357" y="116.197" width="6.216" height=".667" fill="#ccc"/></g><path d="M117.456,103.757c.096,0,.191-.064.191-.159v-1.369c0-.096-.096-.159-.191-.159s-.159.064-.159.159v1.369c0,.096.064.159.159.159M118.093,106.113c0-.35-.287-.605-.637-.605-.318,0-.605.255-.605.605s.287.605.605.605c.35,0,.637-.255.637-.605ZM118.443,106.113c0-.541-.446-.955-.987-.955-.51,0-.955.414-.955.955s.446.955.955.955c.541,0,.987-.414.987-.955Z" fill="#fff" fill-rule="evenodd"/><path d="M63.505,96.264c0-.087-.087-.173-.173-.173s-.173.087-.173.173.087.173.173.173.173-.087.173-.173Z" fill="#101820" fill-rule="evenodd"/><path d="M63.505,94.748c0-.087-.087-.173-.173-.173s-.173.087-.173.173l.087,1.213c.043,0,.043.043.087.043s.087-.043.087-.043l.087-1.213Z" fill="#101820" fill-rule="evenodd"/><path d="M57.267,94.252c-.688,0-1.247.561-1.247,1.254s.557,1.254,1.245,1.254c.688,0,1.248-.561,1.248-1.254s-.558-1.254-1.247-1.254ZM57.138,94.48c.44-.055.866.178,1.056.581l-.702.707-.291-1.092-.954.959c-.071-.567.329-1.084.892-1.155ZM57.39,96.532c-.437.053-.858-.179-1.049-.578l.708-.713.291,1.092.946-.952c.068.567-.334,1.082-.897,1.151Z" fill="#101820" fill-rule="evenodd"/><rect x="154.278" y="92.042" width="136.72" height="23.062" rx=".761" ry=".761" fill="#d0d3d4" stroke="#fff" stroke-miterlimit="10" stroke-width=".5"/><path d="M273.627,94.345v17.81c0,.57.462,1.033,1.033,1.033h12.91c.571,0,1.033-.462,1.033-1.033v-17.81c0-.57-.462-1.032-1.033-1.032h-12.91c-.57,0-1.033.462-1.033,1.032h0Z" fill="#a2aaad"/><path d="M261.25,110.268h8.262c.319,0,.578-.259.578-.578h0v-12.225c0-.319-.259-.578-.578-.578h-8.262c-.319,0-.578.259-.578.578v12.225c0,.319.259.578.578.578Z" fill="#a2aaad"/><path d="M268.851,100.521v-1.817c0-.183-.148-.33-.33-.33h-6.279c-.182,0-.33.148-.33.33v1.817h6.94Z" fill="#101820"/><path d="M268.851,100.521h-6.94v7.764c0,.182.148.33.33.33h6.279c.183,0,.33-.148.33-.33h0v-7.764Z" fill="#333f48"/><path d="M275.125,99.562v8.03c0,.451.184.882.51,1.193l3.239,3.099c.308.294.717.459,1.143.459h5.436c.912,0,1.652-.739,1.652-1.652v-14.229c0-.913-.74-1.652-1.652-1.652h-5.436c-.426,0-.835.164-1.143.459l-3.239,3.1c-.325.312-.51.743-.51,1.193Z" fill="#101820"/><rect x="281.224" y="107.816" width="3.305" height=".991" fill="#fff"/><rect x="277.7" y="103.095" width="3.305" height=".991" fill="#fff"/><rect x="281.224" y="98.375" width="3.305" height=".991" fill="#fff"/><path d="M197.391,113.833h21.201c.313,0,.569-.256.569-.572h0v-19.367c0-.316-.255-.572-.569-.572h-21.201c-.315,0-.569.256-.569.572v19.367c0,.316.254.572.569.572Z" fill="#a2aaad" fill-rule="evenodd"/><circle cx="205.176" cy="98.447" r="1.01" fill="#101820"/><circle cx="211.241" cy="98.447" r="1.01" fill="#101820"/><g id="c"><rect x="286.266" y="115.03" width="6.797" height="1.167" fill="#f1f1f2"/><rect x="205.535" y="111.861" width="3.315" height="5.003" fill="#595959"/><rect x="241.922" y="113.529" width="44.343" height="3.335" fill="#595959"/><rect x="240.762" y="113.529" width="1.16" height="3.335" fill="#595959"/><rect x="154.85" y="113.529" width="33.031" height="3.335" fill="#595959"/><rect x="187.88" y="113.529" width="1.16" height="3.335" fill="#595959"/><path d="M222.385,113.529c-.677,0-1.35-.083-2.006-.248l-4.674-1.172c-.656-.165-1.329-.248-2.005-.248h-5.016c-.183,0-.331.149-.331.334v4.336c0,.184.149.334.331.334h32.077v-3.335h-18.377Z" fill="#666" fill-rule="evenodd"/><path d="M211.006,116.364h27.933v-2.335h-16.554c-.716,0-1.43-.088-2.126-.263l-4.674-1.172c-.616-.155-1.25-.233-1.885-.233h-2.694v4.002Z" fill="#f4855c" fill-rule="evenodd"/><polygon points="214.882 114.329 213.448 113.674 213.445 115.052 214.882 114.329" fill="#595959" fill-rule="evenodd"/><path d="M200.694,113.529h-11.653v3.335h16.661c.183,0,.331-.149.331-.334h0v-4.336c0-.184-.149-.334-.331-.334h-2.289c-.183,0-.361.061-.505.173l-1.708,1.322c-.145.112-.322.173-.506.173Z" fill="#666" fill-rule="evenodd"/><rect x="152.406" y="114.613" width="4.973" height="2.251" fill="#666"/><rect x="286.266" y="116.197" width="6.216" height=".667" fill="#ccc"/></g><path d="M265.365,103.757c.096,0,.191-.064.191-.159v-1.369c0-.096-.096-.159-.191-.159s-.159.064-.159.159v1.369c0,.096.064.159.159.159M266.002,106.113c0-.35-.287-.605-.637-.605-.318,0-.605.255-.605.605s.287.605.605.605c.35,0,.637-.255.637-.605ZM266.352,106.113c0-.541-.446-.955-.987-.955-.51,0-.955.414-.955.955s.446.955.955.955c.541,0,.987-.414.987-.955Z" fill="#fff" fill-rule="evenodd"/><path d="M211.414,96.264c0-.087-.087-.173-.173-.173s-.173.087-.173.173.087.173.173.173.173-.087.173-.173Z" fill="#101820" fill-rule="evenodd"/><path d="M211.414,94.748c0-.087-.087-.173-.173-.173s-.173.087-.173.173l.087,1.213c.043,0,.043.043.087.043s.087-.043.087-.043l.087-1.213Z" fill="#101820" fill-rule="evenodd"/><path d="M205.176,94.252c-.688,0-1.247.561-1.247,1.254s.557,1.254,1.245,1.254c.688,0,1.248-.561,1.248-1.254s-.558-1.254-1.247-1.254ZM205.047,94.48c.44-.055.866.178,1.056.581l-.702.707-.291-1.092-.954.959c-.071-.567.329-1.084.892-1.155ZM205.299,96.532c-.437.053-.858-.179-1.049-.578l.708-.713.291,1.092.946-.952c.068.567-.334,1.082-.897,1.151Z" fill="#101820" fill-rule="evenodd"/><polygon points="147.657 71.91 151.138 71.91 151.138 67.692 147.657 67.692 146.03 69.801 147.657 71.91" fill="#292929" fill-rule="evenodd"/><polygon points="149.486 85.072 151.138 82.963 149.486 80.879 146.03 80.879 146.03 85.072 149.486 85.072" fill="#292929" fill-rule="evenodd"/><polygon points="147.657 102.324 151.138 102.324 151.138 98.132 147.657 98.132 146.03 100.215 147.657 102.324" fill="#292929" fill-rule="evenodd"/><polygon points="149.486 115.512 151.138 113.403 149.486 111.294 146.03 111.294 146.03 115.512 149.486 115.512" fill="#292929" fill-rule="evenodd"/><path d="M148.266,99.072c-.61,0-1.143.534-1.143,1.143,0,.635.534,1.143,1.143,1.143.635,0,1.143-.508,1.143-1.143,0-.61-.508-1.143-1.143-1.143ZM148.394,99.301c.407.051.737.356.813.762l-.788.457v-1.042l-1.067.61c.051-.508.534-.864,1.042-.788ZM148.139,101.156c-.407-.051-.711-.356-.788-.762l.788-.457v1.042l1.067-.61c-.076.508-.559.864-1.067.788Z" fill="#fff" fill-rule="evenodd"/><path d="M149.067,68.792h.433l.916,2.152h-.492l-.195-.479h-.903l-.195.479h-.479l.916-2.152ZM149.562,70.05l-.284-.693-.284.693h.568Z" fill="#fff"/><path d="M147.096,81.971h.992c.244,0,.437.067.559.189.097.098.146.217.146.364v.006c0,.241-.128.376-.281.461.248.095.4.238.4.525v.006c0,.391-.318.586-.8.586h-1.016v-2.137ZM148.326,82.603c0-.141-.11-.22-.309-.22h-.464v.452h.433c.208,0,.339-.067.339-.226v-.006ZM148.097,83.226h-.544v.47h.558c.208,0,.333-.073.333-.232v-.006c0-.144-.106-.232-.348-.232Z" fill="#fff"/><path d="M149.56,101.181v-.315h.459v-1.078l-.404.15-.092-.317.606-.228h.259v1.474h.414v.315h-1.243Z" fill="#fff"/><path d="M148.816,114.342v-.304l.568-.502c.208-.185.292-.282.292-.424,0-.145-.099-.224-.241-.224-.137,0-.236.074-.365.236l-.257-.228c.17-.231.34-.356.647-.356.373,0,.606.213.606.538v.005c0,.254-.127.398-.317.566l-.411.358h.743v.335h-1.266Z" fill="#fff"/><path d="M147.453,112.259c-.635,0-1.143.508-1.143,1.143s.508,1.143,1.143,1.143c.61,0,1.143-.508,1.143-1.143s-.534-1.143-1.143-1.143ZM147.58,112.463c.381.051.711.356.788.762l-.788.457v-1.042l-1.067.635c.076-.534.534-.889,1.067-.813ZM147.301,114.343c-.381-.076-.711-.381-.788-.762l.788-.457v1.016l1.067-.61c-.076.508-.534.864-1.067.813Z" fill="#fff" fill-rule="evenodd"/><path d="M142.328,65.113H7.13c-.42,0-.761.335-.761.747v21.161c0,.413.341.747.761.747h135.199c.42,0,.761-.335.761-.747v-21.161c0-.413-.341-.747-.761-.747Z" fill="#d0d3d4" fill-rule="evenodd" stroke="#fff" stroke-miterlimit="10" stroke-width=".5"/><path d="M31.234,77.411h.189v-.191h-.189v.191ZM31.277,77.074h.107l.047-.715v-.302h-.206v.302l.052.715ZM21.978,77.411h.193v-.191h-.193v.191ZM22.021,77.074h.107l.047-.715v-.302h-.206v.302l.051.715Z" fill="#fff" fill-rule="evenodd"/><path d="M31.234,77.411h.189v-.191h-.189v.191ZM31.277,77.074h.107l.047-.715v-.302h-.206v.302l.052.715ZM21.978,77.411h.193v-.191h-.193v.191ZM22.021,77.074h.107l.047-.715v-.302h-.206v.302l.051.715Z" fill="#fff" fill-rule="evenodd"/><rect x="81.215" y="81.333" width="59.35" height="4.43" fill="#404040"/><path d="M9.056,85.784h70.879v-16.437c0-1.399-1.132-2.531-2.531-2.531H11.587c-1.398,0-2.531,1.132-2.531,2.531v16.437Z" fill="#a2aaad" fill-rule="evenodd"/><rect x="13.925" y="67.537" width="10.757" height="7.819" fill="#eee"/><rect x="26.989" y="67.457" width="10.757" height="7.899" fill="#eee"/><polygon points="15.34 74.627 23.266 74.627 23.266 69.309 21.512 69.309 21.512 68.403 20.818 68.385 20.818 68.066 17.789 68.066 17.789 68.385 17.102 68.385 17.102 69.281 15.34 69.281 15.34 74.627" fill="#262626" fill-rule="evenodd"/><polygon points="28.404 74.627 36.331 74.627 36.331 69.309 34.576 69.309 34.576 68.403 33.882 68.385 33.882 68.066 30.853 68.066 30.853 68.385 30.166 68.385 30.166 69.281 28.404 69.281 28.404 74.627" fill="#262626" fill-rule="evenodd"/><rect x="15.131" y="68.215" width="1.708" height=".854" fill="#404040"/><rect x="21.767" y="68.215" width="1.708" height=".854" fill="#404040"/><path d="M44.367,70.374h5.808c.4,0,.725.325.725.725v3.388c0,.4-.325.726-.726.726h-5.808c-.4,0-.726-.325-.726-.726v-3.388c0-.4.325-.725.725-.725Z" fill="#eee"/><path d="M45.894,73.499h2.753c.389,0,.705-.316.705-.705,0-.392-.316-.708-.705-.708h-2.753c-.389,0-.705.316-.705.708,0,.389.316.705.705.705Z" fill="#262626" fill-rule="evenodd"/><rect x="9.056" y="75.515" width="41.844" height="10.248" fill="#7da9dc"/><path d="M10.531,81.191l.369-.003-.004,1.149h.167l.005-.43h.326v.292h.605v-.802h-.605v.285h-.326v-1.163h.326v.274h.605v-.802h-.605v.305h-.326l-.005-.385h-.167l.004,1.055-.369.003-.004-.326h-.643v.854h.643l.004-.305Z" fill="#fff" fill-rule="evenodd"/><rect x="12.77" y="77.987" width="35.6" height="6.335" fill="#fff"/><path d="M14.606,76.449c0-.219.175-.392.392-.392s.392.174.392.392c0,.215-.175.389-.392.389s-.392-.174-.392-.389Z" fill="#fff"/><path d="M17.524,76.411c0-.215.175-.389.392-.389s.391.174.391.389c0,.219-.175.392-.391.392s-.392-.174-.392-.392Z" fill="#fff"/><path d="M23.359,76.449c0-.219.175-.392.392-.392s.392.174.392.392c0,.215-.175.389-.392.389s-.392-.174-.392-.389Z" fill="#fff"/><path d="M26.277,76.411c0-.215.175-.389.392-.389s.392.174.392.389c0,.219-.175.392-.392.392s-.392-.174-.392-.392Z" fill="#fff"/><path d="M32.113,76.449c0-.219.175-.392.392-.392s.391.174.391.392c0,.215-.175.389-.391.389s-.392-.174-.392-.389Z" fill="#fff"/><path d="M35.029,76.411c0-.215.177-.389.392-.389.219,0,.392.174.392.389,0,.219-.174.392-.392.392-.215,0-.392-.174-.392-.392Z" fill="#fff"/><path d="M40.864,76.449c0-.219.177-.392.392-.392s.392.174.392.392c0,.215-.177.389-.392.389s-.392-.174-.392-.389Z" fill="#fff"/><path d="M43.784,76.411c0-.215.174-.389.392-.389.215,0,.392.174.392.389,0,.219-.177.392-.392.392-.219,0-.392-.174-.392-.392Z" fill="#fff"/><path d="M81.215,85.763h59.35v-15.982c0-1.638-1.326-2.965-2.965-2.965h-53.417c-1.638,0-2.968,1.326-2.968,2.965v15.982Z" fill="#ededed" stroke="#a7a9ac" stroke-miterlimit="10" stroke-width=".25"/><path d="M109.857,78.681v-6.651c0-.215-.177-.389-.389-.389h-13.774c-.215,0-.389.174-.389.389v6.651c0,.212.174.385.389.385h13.774c.212,0,.389-.174.389-.385Z" fill="none" stroke="#a2aaad" stroke-miterlimit="10" stroke-width=".25"/><rect x="110.676" y="66.696" width="30.035" height="19.067" fill="#7da9dc"/><rect x="81.215" y="81.333" width="59.493" height="4.571" fill="#a2aaad"/><rect x="111.53" y="71.64" width="18.553" height="6.042" fill="#fff" stroke="#fff" stroke-miterlimit="10" stroke-width=".5"/><rect x="111.645" y="71.755" width="9.012" height="5.812" fill="#005cb9"/><rect x="120.956" y="71.755" width="9.012" height="5.812" fill="#b2292e"/><rect x="131.171" y="66.688" width="9.533" height="19.074" fill="#a2aaad"/><path d="M93.813,78.681v-6.651c0-.215-.087-.389-.194-.389h-6.873c-.104,0-.191.174-.191.389v6.651c0,.212.087.385.191.385h6.873c.108,0,.194-.174.194-.385Z" fill="none" stroke="#a2aaad" stroke-miterlimit="10" stroke-width=".25"/><rect x="87.293" y="72.791" width="5.775" height="5.185" fill="#262626"/><path d="M97.086,69.815c0-.219.174-.392.389-.392.219,0,.392.174.392.392,0,.215-.174.389-.392.389-.215,0-.389-.174-.389-.389Z" fill="#404040"/><path d="M100.099,69.85c0-.215.177-.389.392-.389s.392.174.392.389c0,.219-.177.392-.392.392s-.392-.174-.392-.392Z" fill="#404040"/><path d="M104.251,69.815c0-.219.174-.392.389-.392.219,0,.392.174.392.392,0,.215-.174.389-.392.389-.215,0-.389-.174-.389-.389Z" fill="#404040"/><path d="M107.264,69.85c0-.215.177-.389.392-.389s.392.174.392.389c0,.219-.177.392-.392.392s-.392-.174-.392-.392Z" fill="#404040"/><path d="M88.359,69.815c0-.219.174-.392.389-.392.219,0,.392.174.392.392,0,.215-.174.389-.392.389-.215,0-.389-.174-.389-.389Z" fill="#404040"/><path d="M91.372,69.85c0-.215.177-.389.392-.389s.392.174.392.389c0,.219-.177.392-.392.392s-.392-.174-.392-.392Z" fill="#404040"/><path d="M113.311,69.815c0-.219.174-.392.389-.392.219,0,.392.174.392.392,0,.215-.174.389-.392.389-.215,0-.389-.174-.389-.389Z" fill="#fff"/><path d="M116.324,69.85c0-.215.177-.389.392-.389s.392.174.392.389c0,.219-.177.392-.392.392s-.392-.174-.392-.392Z" fill="#fff"/><path d="M122.944,69.815c0-.219.174-.392.392-.392.215,0,.389.174.389.392,0,.215-.174.389-.389.389-.219,0-.392-.174-.392-.389Z" fill="#fff"/><path d="M125.957,69.85c0-.215.177-.389.392-.389s.392.174.392.389c0,.219-.177.392-.392.392s-.392-.174-.392-.392Z" fill="#fff"/><polygon points="103.244 79.688 103.244 79.303 103.991 80.052 103.244 80.799 103.244 80.413 102.852 80.413 102.852 79.688 103.244 79.688" fill="#262626" fill-rule="evenodd"/><polygon points="102.029 80.413 102.029 80.799 101.283 80.049 102.029 79.303 102.029 79.688 102.425 79.688 102.425 80.413 102.029 80.413" fill="#262626" fill-rule="evenodd"/><path d="M134.802,77.702c0-.292.236-.528.528-.528.288,0,.524.236.524.528s-.236.528-.524.528c-.292,0-.528-.236-.528-.528Z" fill="#101820"/><path d="M134.802,75.682c0-.292.236-.528.528-.528.288,0,.524.236.524.528s-.236.528-.524.528c-.292,0-.528-.236-.528-.528Z" fill="#101820"/><path d="M134.802,72.367c0-.292.236-.528.528-.528.288,0,.524.236.524.528,0,.288-.236.524-.524.524-.292,0-.528-.236-.528-.524Z" fill="#101820"/><path d="M134.802,73.974c0-.292.236-.528.528-.528.288,0,.524.236.524.528s-.236.528-.524.528c-.292,0-.528-.236-.528-.528Z" fill="#101820"/><polygon points="9.348 72.072 10.054 72.072 10.761 71.364 10.054 70.659 9.348 70.659 10.054 71.364 9.348 72.072" fill="#262626" fill-rule="evenodd"/><polygon points="13.565 70.659 12.859 70.659 12.152 71.364 12.859 72.072 13.565 72.072 12.859 71.364 13.565 70.659" fill="#262626" fill-rule="evenodd"/><rect x="10.251" y="71.111" width="2.486" height=".51" fill="#262626"/><path d="M30.465,84.004v-5.478h-8.464v5.478h8.464ZM21.697,84.004v-5.478h-8.504v5.478h8.504ZM39.13,84.004v-5.478h-8.339v5.478h8.339ZM47.927,84.004v-5.478l-8.454-.018v5.478l8.454.018Z" fill="#262626" fill-rule="evenodd"/><path d="M45.069,78.508h-2.951v.312h2.951v-.312ZM36.377,78.508h-2.948v.312h2.948v-.312ZM27.686,78.508h-2.95v.312h2.95v-.312ZM18.997,78.508h-2.95v.312h2.95v-.312Z" fill="#fff" fill-rule="evenodd"/><rect x="132.664" y="87.363" width="12.49" height=".812" fill="#f1f1f2"/><path d="M78.96,85.578v3.247h56.812c.09,0,.163-.073.163-.162h0v-1.786c0-.09-.073-.162-.163-.162h-28.852c-.09,0-.163-.073-.163-.162v-.812c0-.09-.073-.162-.163-.162h-27.634Z" fill="#4d4d4d" fill-rule="evenodd"/><path d="M84.1,85.578h-7.576v3.247h22.797v-3.247h-1.082c-.572,0-1.142-.081-1.698-.241l-3.957-1.141c-.495-.143-1.002-.223-1.511-.238v-.003h-5.206c-.119,0-.234.059-.328.169l-1.11,1.286c-.094.109-.21.169-.328.169Z" fill="#555"/><path d="M78.598,85.578h-38.04v3.247h42.958c.18,0,.326-.145.326-.325h0v-4.221c0-.179-.146-.325-.326-.325h-2.248c-.18,0-.354.059-.497.169l-1.678,1.286c-.142.109-.317.169-.497.169Z" fill="#555"/><path d="M78.96,85.578H4.468c-.09,0-.163.073-.163.162v2.922c0,.09.073.162.163.162h74.492v-3.247Z" fill="#6a6a6a" fill-rule="evenodd"/><path d="M98.385,86.158h-1.879c-.554,0-1.107-.073-1.645-.216l-3.617-.964c-.477-.127-.967-.192-1.459-.192h-2.085v3.292h10.683v-1.92Z" fill="#f4855c" fill-rule="evenodd"/><polygon points="89.88 86.471 88.454 85.839 88.45 87.169 89.88 86.471" fill="#404040" fill-rule="evenodd"/><rect x="60.14" y="70.831" width="11.886" height="6.089" rx=".572" ry=".572" fill="#ededed"/><path d="M70.01,72.2h-7.897c-.125,0-.219.104-.219.222v2.982c0,.118.094.212.219.212h7.897c.118,0,.212-.094.212-.212v-2.982c0-.118-.094-.222-.212-.222Z" fill="#262626" fill-rule="evenodd"/><path d="M290.333,65.113h-135.199c-.42,0-.761.335-.761.747v21.161c0,.413.341.747.761.747h135.199c.42,0,.761-.335.761-.747v-21.161c0-.413-.341-.747-.761-.747Z" fill="#d0d3d4" fill-rule="evenodd" stroke="#fff" stroke-miterlimit="10" stroke-width=".5"/><path d="M179.239,77.411h.189v-.191h-.189v.191ZM179.282,77.074h.107l.047-.715v-.302h-.206v.302l.052.715ZM169.983,77.411h.193v-.191h-.193v.191ZM170.026,77.074h.107l.047-.715v-.302h-.206v.302l.051.715Z" fill="#fff" fill-rule="evenodd"/><path d="M179.239,77.411h.189v-.191h-.189v.191ZM179.282,77.074h.107l.047-.715v-.302h-.206v.302l.052.715ZM169.983,77.411h.193v-.191h-.193v.191ZM170.026,77.074h.107l.047-.715v-.302h-.206v.302l.051.715Z" fill="#fff" fill-rule="evenodd"/><rect x="229.22" y="81.333" width="59.35" height="4.43" fill="#404040"/><path d="M157.061,85.784h70.879v-16.437c0-1.399-1.132-2.531-2.531-2.531h-65.817c-1.398,0-2.531,1.132-2.531,2.531v16.437Z" fill="#a2aaad" fill-rule="evenodd"/><rect x="161.93" y="67.537" width="10.757" height="7.819" fill="#eee"/><rect x="174.994" y="67.457" width="10.757" height="7.899" fill="#eee"/><polygon points="163.345 74.627 171.271 74.627 171.271 69.309 169.517 69.309 169.517 68.403 168.823 68.385 168.823 68.066 165.794 68.066 165.794 68.385 165.107 68.385 165.107 69.281 163.345 69.281 163.345 74.627" fill="#262626" fill-rule="evenodd"/><polygon points="176.409 74.627 184.336 74.627 184.336 69.309 182.581 69.309 182.581 68.403 181.887 68.385 181.887 68.066 178.858 68.066 178.858 68.385 178.171 68.385 178.171 69.281 176.409 69.281 176.409 74.627" fill="#262626" fill-rule="evenodd"/><rect x="163.136" y="68.215" width="1.708" height=".854" fill="#404040"/><rect x="169.772" y="68.215" width="1.708" height=".854" fill="#404040"/><path d="M192.372,70.374h5.808c.4,0,.725.325.725.725v3.388c0,.4-.325.726-.726.726h-5.808c-.4,0-.726-.325-.726-.726v-3.388c0-.4.325-.725.725-.725Z" fill="#eee"/><path d="M193.899,73.499h2.753c.389,0,.705-.316.705-.705,0-.392-.316-.708-.705-.708h-2.753c-.389,0-.705.316-.705.708,0,.389.316.705.705.705Z" fill="#262626" fill-rule="evenodd"/><rect x="157.061" y="75.515" width="41.844" height="10.248" fill="#7da9dc"/><path d="M158.536,81.191l.369-.003-.004,1.149h.167l.005-.43h.326v.292h.605v-.802h-.605v.285h-.326v-1.163h.326v.274h.605v-.802h-.605v.305h-.326l-.005-.385h-.167l.004,1.055-.369.003-.004-.326h-.643v.854h.643l.004-.305Z" fill="#fff" fill-rule="evenodd"/><rect x="160.775" y="77.987" width="35.6" height="6.335" fill="#fff"/><path d="M162.611,76.449c0-.219.175-.392.392-.392s.392.174.392.392c0,.215-.175.389-.392.389s-.392-.174-.392-.389Z" fill="#fff"/><path d="M165.529,76.411c0-.215.175-.389.392-.389s.391.174.391.389c0,.219-.175.392-.391.392s-.392-.174-.392-.392Z" fill="#fff"/><path d="M171.364,76.449c0-.219.175-.392.392-.392s.392.174.392.392c0,.215-.175.389-.392.389s-.392-.174-.392-.389Z" fill="#fff"/><path d="M174.282,76.411c0-.215.175-.389.392-.389s.392.174.392.389c0,.219-.175.392-.392.392s-.392-.174-.392-.392Z" fill="#fff"/><path d="M180.118,76.449c0-.219.175-.392.392-.392s.391.174.391.392c0,.215-.175.389-.391.389s-.392-.174-.392-.389Z" fill="#fff"/><path d="M183.034,76.411c0-.215.177-.389.392-.389.219,0,.392.174.392.389,0,.219-.174.392-.392.392-.215,0-.392-.174-.392-.392Z" fill="#fff"/><path d="M188.869,76.449c0-.219.177-.392.392-.392s.392.174.392.392c0,.215-.177.389-.392.389s-.392-.174-.392-.389Z" fill="#fff"/><path d="M191.789,76.411c0-.215.174-.389.392-.389.215,0,.392.174.392.389,0,.219-.177.392-.392.392-.219,0-.392-.174-.392-.392Z" fill="#fff"/><path d="M229.22,85.763h59.35v-15.982c0-1.638-1.326-2.965-2.965-2.965h-53.417c-1.638,0-2.968,1.326-2.968,2.965v15.982Z" fill="#ededed" stroke="#a7a9ac" stroke-miterlimit="10" stroke-width=".25"/><path d="M257.862,78.681v-6.651c0-.215-.177-.389-.389-.389h-13.774c-.215,0-.389.174-.389.389v6.651c0,.212.174.385.389.385h13.774c.212,0,.389-.174.389-.385Z" fill="none" stroke="#a2aaad" stroke-miterlimit="10" stroke-width=".25"/><path d="M244.123,77.987h5.801v-5.186h-5.801v5.186ZM251.249,77.987h5.801v-5.186h-5.801v5.186Z" fill="#262626" fill-rule="evenodd"/><rect x="258.681" y="66.696" width="30.035" height="19.067" fill="#7da9dc"/><rect x="229.22" y="81.333" width="59.493" height="4.571" fill="#a2aaad"/><rect x="259.535" y="71.64" width="18.553" height="6.042" fill="#fff" stroke="#fff" stroke-miterlimit="10" stroke-width=".5"/><rect x="259.65" y="71.755" width="9.012" height="5.812" fill="#005cb9"/><rect x="268.961" y="71.755" width="9.012" height="5.812" fill="#b2292e"/><rect x="279.176" y="66.688" width="9.533" height="19.074" fill="#a2aaad"/><path d="M241.818,78.681v-6.651c0-.215-.087-.389-.194-.389h-6.873c-.104,0-.191.174-.191.389v6.651c0,.212.087.385.191.385h6.873c.108,0,.194-.174.194-.385Z" fill="none" stroke="#a2aaad" stroke-miterlimit="10" stroke-width=".25"/><rect x="235.299" y="72.791" width="5.775" height="5.185" fill="#262626"/><path d="M245.091,69.815c0-.219.174-.392.389-.392.219,0,.392.174.392.392,0,.215-.174.389-.392.389-.215,0-.389-.174-.389-.389Z" fill="#404040"/><path d="M248.104,69.85c0-.215.177-.389.392-.389s.392.174.392.389c0,.219-.177.392-.392.392s-.392-.174-.392-.392Z" fill="#404040"/><path d="M252.256,69.815c0-.219.174-.392.389-.392.219,0,.392.174.392.392,0,.215-.174.389-.392.389-.215,0-.389-.174-.389-.389Z" fill="#404040"/><path d="M255.269,69.85c0-.215.177-.389.392-.389s.392.174.392.389c0,.219-.177.392-.392.392s-.392-.174-.392-.392Z" fill="#404040"/><path d="M236.364,69.815c0-.219.174-.392.389-.392.219,0,.392.174.392.392,0,.215-.174.389-.392.389-.215,0-.389-.174-.389-.389Z" fill="#404040"/><path d="M239.377,69.85c0-.215.177-.389.392-.389s.392.174.392.389c0,.219-.177.392-.392.392s-.392-.174-.392-.392Z" fill="#404040"/><path d="M261.316,69.815c0-.219.174-.392.389-.392.219,0,.392.174.392.392,0,.215-.174.389-.392.389-.215,0-.389-.174-.389-.389Z" fill="#fff"/><path d="M264.329,69.85c0-.215.177-.389.392-.389s.392.174.392.389c0,.219-.177.392-.392.392s-.392-.174-.392-.392Z" fill="#fff"/><path d="M270.949,69.815c0-.219.174-.392.392-.392.215,0,.389.174.389.392,0,.215-.174.389-.389.389-.219,0-.392-.174-.392-.389Z" fill="#fff"/><path d="M273.962,69.85c0-.215.177-.389.392-.389s.392.174.392.389c0,.219-.177.392-.392.392s-.392-.174-.392-.392Z" fill="#fff"/><polygon points="251.249 79.688 251.249 79.303 251.996 80.052 251.249 80.799 251.249 80.413 250.857 80.413 250.857 79.688 251.249 79.688" fill="#262626" fill-rule="evenodd"/><polygon points="250.034 80.413 250.034 80.799 249.288 80.049 250.034 79.303 250.034 79.688 250.43 79.688 250.43 80.413 250.034 80.413" fill="#262626" fill-rule="evenodd"/><path d="M282.807,77.702c0-.292.236-.528.528-.528.288,0,.524.236.524.528s-.236.528-.524.528c-.292,0-.528-.236-.528-.528Z" fill="#262626"/><path d="M282.807,75.682c0-.292.236-.528.528-.528.288,0,.524.236.524.528s-.236.528-.524.528c-.292,0-.528-.236-.528-.528Z" fill="#262626"/><path d="M282.807,72.367c0-.292.236-.528.528-.528.288,0,.524.236.524.528,0,.288-.236.524-.524.524-.292,0-.528-.236-.528-.524Z" fill="#262626"/><path d="M282.807,73.974c0-.292.236-.528.528-.528.288,0,.524.236.524.528s-.236.528-.524.528c-.292,0-.528-.236-.528-.528Z" fill="#262626"/><polygon points="157.353 72.072 158.059 72.072 158.766 71.364 158.059 70.659 157.353 70.659 158.059 71.364 157.353 72.072" fill="#262626" fill-rule="evenodd"/><polygon points="161.57 70.659 160.864 70.659 160.157 71.364 160.864 72.072 161.57 72.072 160.864 71.364 161.57 70.659" fill="#262626" fill-rule="evenodd"/><rect x="158.256" y="71.111" width="2.486" height=".51" fill="#262626"/><path d="M178.47,84.004v-5.478h-8.464v5.478h8.464ZM169.702,84.004v-5.478h-8.504v5.478h8.504ZM187.135,84.004v-5.478h-8.339v5.478h8.339ZM195.932,84.004v-5.478l-8.454-.018v5.478l8.454.018Z" fill="#262626" fill-rule="evenodd"/><path d="M193.074,78.508h-2.951v.312h2.951v-.312ZM184.382,78.508h-2.948v.312h2.948v-.312ZM175.691,78.508h-2.95v.312h2.95v-.312ZM167.002,78.508h-2.95v.312h2.95v-.312Z" fill="#fff" fill-rule="evenodd"/><rect x="280.669" y="87.363" width="12.49" height=".812" fill="#f1f1f2"/><path d="M226.965,85.578v3.247h56.812c.09,0,.163-.073.163-.162h0v-1.786c0-.09-.073-.162-.163-.162h-28.852c-.09,0-.163-.073-.163-.162v-.812c0-.09-.073-.162-.163-.162h-27.634Z" fill="#4d4d4d" fill-rule="evenodd"/><path d="M232.105,85.578h-7.576v3.247h22.797v-3.247h-1.082c-.572,0-1.142-.081-1.698-.241l-3.957-1.141c-.495-.143-1.002-.223-1.511-.238v-.003h-5.206c-.119,0-.234.059-.328.169l-1.11,1.286c-.094.109-.21.169-.328.169Z" fill="#555"/><path d="M226.603,85.578h-38.04v3.247h42.958c.18,0,.326-.145.326-.325h0v-4.221c0-.179-.146-.325-.326-.325h-2.248c-.18,0-.354.059-.497.169l-1.678,1.286c-.142.109-.317.169-.497.169Z" fill="#555"/><path d="M226.965,85.578h-74.492c-.09,0-.163.073-.163.162v2.922c0,.09.073.162.163.162h74.492v-3.247Z" fill="#6a6a6a" fill-rule="evenodd"/><path d="M246.39,86.158h-1.879c-.554,0-1.107-.073-1.645-.216l-3.617-.964c-.477-.127-.967-.192-1.459-.192h-2.085v3.292h10.683v-1.92Z" fill="#f4855c" fill-rule="evenodd"/><polygon points="237.885 86.471 236.459 85.839 236.455 87.169 237.885 86.471" fill="#404040" fill-rule="evenodd"/><rect x="208.145" y="70.831" width="11.886" height="6.089" rx=".572" ry=".572" fill="#ededed"/><path d="M218.015,72.2h-7.897c-.125,0-.219.104-.219.222v2.982c0,.118.094.212.219.212h7.897c.118,0,.212-.094.212-.212v-2.982c0-.118-.094-.222-.212-.222Z" fill="#262626" fill-rule="evenodd"/><path d="M141.965,2.6H6.766c-.42,0-.761.335-.761.747v21.161c0,.413.341.747.761.747h135.199c.42,0,.761-.335.761-.747V3.347c0-.413-.341-.747-.761-.747Z" fill="#caced0" fill-rule="evenodd" stroke="#a2aaad" stroke-miterlimit="10" stroke-width="1.2"/><rect x="50.197" y="7.736" width="15.124" height="7.384" rx=".406" ry=".406" fill="#f1f1f2" stroke="#d0d3d4" stroke-miterlimit="10" stroke-width=".251"/><rect x="50.839" y="8.38" width="13.84" height="6.097" fill="#101820"/><rect x="87.529" y="7.736" width="15.124" height="7.384" rx=".406" ry=".406" fill="#f1f1f2" stroke="#d0d3d4" stroke-miterlimit="10" stroke-width=".251"/><rect x="88.171" y="8.38" width="13.84" height="6.097" fill="#101820"/><path d="M291.082,2.6h-135.199c-.42,0-.761.335-.761.747v21.161c0,.413.341.747.761.747h135.199c.42,0,.761-.335.761-.747V3.347c0-.413-.341-.747-.761-.747Z" fill="#caced0" fill-rule="evenodd" stroke="#a2aaad" stroke-miterlimit="10" stroke-width="1.2"/><rect x="236.646" y="7.736" width="15.124" height="7.384" rx=".406" ry=".406" fill="#f1f1f2" stroke="#d0d3d4" stroke-miterlimit="10" stroke-width=".251"/><rect x="237.288" y="8.38" width="13.84" height="6.097" fill="#101820"/><rect x="199.314" y="7.736" width="15.124" height="7.384" rx=".406" ry=".406" fill="#f1f1f2" stroke="#d0d3d4" stroke-miterlimit="10" stroke-width=".251"/><rect x="199.956" y="8.38" width="13.84" height="6.097" fill="#101820"/><polyline points="57.915 11.428 57.915 50.278 116.079 50.278 116.079 71.749" fill="none" stroke="#fff" stroke-linejoin="round" stroke-width="3.5"/><polyline points="57.915 11.428 57.915 50.278 116.079 50.278 116.079 71.749" fill="none" stroke="#005cb9" stroke-linejoin="round" stroke-width="1.575"/><polyline points="244.208 11.428 244.208 36.696 273.433 36.696 273.433 71.751" fill="none" stroke="#fff" stroke-linejoin="round" stroke-width="3.5"/><polyline points="244.208 11.428 244.208 36.696 273.433 36.696 273.433 71.751" fill="none" stroke="#b2292e" stroke-linejoin="round" stroke-width="1.575"/><polyline points="125.355 71.749 125.355 36.696 206.74 36.696 206.74 11.428" fill="none" stroke="#fff" stroke-linejoin="round" stroke-width="3.5"/><polyline points="125.355 71.749 125.355 36.696 206.74 36.696 206.74 11.428" fill="none" stroke="#b2292e" stroke-linejoin="round" stroke-width="1.575"/><polyline points="264.177 71.751 264.177 44.084 95.091 44.084 95.091 11.428" fill="none" stroke="#fff" stroke-linejoin="round" stroke-width="3.5"/><polyline points="264.177 71.751 264.177 44.084 95.091 44.084 95.091 11.428" fill="none" stroke="#005cb9" stroke-linejoin="round" stroke-width="1.575"/><rect x="50.839" y="8.38" width="13.84" height="6.097" fill="#101820"/><rect x="88.171" y="8.38" width="13.84" height="6.097" fill="#101820"/><rect x="199.956" y="8.38" width="13.84" height="6.097" fill="#101820"/><rect x="50.839" y="8.38" width="13.84" height="6.097" fill="#005cb9"/><rect x="88.171" y="8.38" width="13.84" height="6.097" fill="#005cb9"/><rect x="199.956" y="8.38" width="13.84" height="6.097" fill="#b2292e"/><rect x="237.288" y="8.38" width="13.84" height="6.097" fill="#b2292e"/><rect x="103.217" y="72.801" width="5.801" height="5.186" fill="#262626"/><rect x="96.107" y="72.808" width="5.801" height="5.186" fill="#262626"/><rect x="251.249" y="72.801" width="5.801" height="5.186" fill="#262626"/><rect x="244.15" y="72.802" width="5.801" height="5.186" fill="#262626"/></svg>