<svg xmlns="http://www.w3.org/2000/svg" viewBox="0 0 200 180"><defs><style>.cls-1,.cls-58{fill:#ccc;}.cls-1,.cls-11,.cls-15,.cls-16,.cls-17,.cls-18,.cls-27,.cls-3,.cls-32,.cls-4,.cls-40,.cls-41,.cls-44,.cls-45,.cls-46,.cls-47,.cls-48,.cls-49,.cls-5,.cls-51,.cls-55,.cls-56,.cls-57,.cls-6{fill-rule:evenodd;}.cls-2,.cls-26,.cls-27,.cls-31,.cls-33,.cls-40,.cls-60,.cls-61,.cls-64{fill:none;}.cls-2,.cls-24,.cls-36{stroke:gray;}.cls-2,.cls-24,.cls-31,.cls-33,.cls-36{stroke-linecap:round;}.cls-2,.cls-23,.cls-24,.cls-31,.cls-33,.cls-36,.cls-61{stroke-linejoin:round;}.cls-2{stroke-width:1.27px;}.cls-3,.cls-8{fill:#1a1a1a;}.cls-34,.cls-4{fill:#eee;}.cls-42,.cls-5{fill:silver;}.cls-41,.cls-42,.cls-5,.cls-6{stroke:#59595c;}.cls-37,.cls-38,.cls-39,.cls-41,.cls-42,.cls-5,.cls-6,.cls-60,.cls-62,.cls-64{stroke-miterlimit:10;}.cls-36,.cls-37,.cls-38,.cls-39,.cls-41,.cls-42,.cls-5{stroke-width:0.2px;}.cls-6{fill:#414141;stroke-width:0.12px;}.cls-57,.cls-7{fill:#404040;}.cls-36,.cls-9{fill:#e5e6e6;}.cls-10,.cls-16{fill:#e6e6e6;}.cls-11{fill:#292929;}.cls-12,.cls-48{fill:#ffce07;}.cls-13{fill:#e0d385;}.cls-14,.cls-39,.cls-44{fill:#d9d9d9;}.cls-15,.cls-25{fill:#fff;}.cls-17{fill:#2e2e2e;}.cls-18,.cls-20{fill:#f1f1f1;}.cls-19,.cls-38{fill:#bfbfbf;}.cls-21{fill:#6d6f70;}.cls-22{fill:gray;}.cls-23{fill:#ffcc07;stroke:#e0d385;stroke-width:0.15px;}.cls-24{fill:#d0cfcd;stroke-width:0.01px;}.cls-27,.cls-40{stroke:#fff;stroke-miterlimit:2.61;}.cls-27{stroke-width:0.65px;}.cls-28,.cls-47{fill:#333;}.cls-29{fill:#808083;}.cls-30{fill:#e7e5dd;}.cls-31{stroke:#9a9a9a;}.cls-31,.cls-33{stroke-width:0.01px;}.cls-32,.cls-53{fill:#666;}.cls-33{stroke:#b3b3b3;}.cls-35,.cls-46{fill:#cfd1d2;}.cls-37,.cls-45{fill:#262626;}.cls-37{stroke:#cfd1d2;}.cls-38,.cls-39{stroke:#919395;}.cls-40{stroke-width:0.65px;}.cls-41{fill:#ddd;}.cls-43{fill:#53914c;}.cls-49{fill:#4d4d4d;}.cls-50{fill:#babcbe;}.cls-51{fill:#c8972c;}.cls-52{fill:#ad9e69;}.cls-54{fill:#555;}.cls-55{fill:#6a6a6a;}.cls-56{fill:#f3845c;}.cls-59{fill:#d0d2d3;opacity:0.5;}.cls-60,.cls-61,.cls-64{stroke:#80bb4e;}.cls-60,.cls-61{stroke-width:3px;}.cls-62{fill:#ee4036;stroke:#292929;}.cls-63{fill:#80bb4e;}</style></defs><g id="Rulers"><g id="Sandhawk"><path class="cls-1" d="M140.88,31.81V12a.81.81,0,0,0-.79-.8H9a.81.81,0,0,0-.8.8V31.81H8.8V32a.72.72,0,0,0,.71.73h130a.72.72,0,0,0,.71-.73h0v-.15Z"/><path class="cls-2" d="M140.88,31.81V12a.81.81,0,0,0-.79-.8H9a.81.81,0,0,0-.8.8V31.81H8.8V32a.72.72,0,0,0,.71.73h130a.72.72,0,0,0,.71-.73h0v-.15Z"/><path class="cls-3" d="M9.51,32.14h130a.18.18,0,0,0,.16-.18h0v-2.4h.55V12a.15.15,0,0,0-.15-.15H9A.15.15,0,0,0,8.8,12V29.56h.56V32A.17.17,0,0,0,9.51,32.14Z"/><path class="cls-4" d="M139.28,11.29H9.75v1.13a.31.31,0,0,1-.31.32H8.8V31.93h.64a.32.32,0,0,1,.31.33h0v1.26H139.28V32.26a.32.32,0,0,1,.32-.33h.64V12.74h-.64a.32.32,0,0,1-.32-.32Z"/><path class="cls-2" d="M139.29,11.17H9.76v1.14a.31.31,0,0,1-.32.31H8.8V31.81h.64a.32.32,0,0,1,.32.33h0v1.27H139.29V32.14a.32.32,0,0,1,.31-.33h.64V12.62h-.64a.31.31,0,0,1-.31-.31Z"/><path class="cls-5" d="M81.71,19a1.85,1.85,0,1,0-1.84,1.85A1.84,1.84,0,0,0,81.71,19Z"/><path class="cls-6" d="M80.86,19a1,1,0,0,0-2,0,1,1,0,1,0,2,0Z"/><path class="cls-5" d="M115.1,19a1.85,1.85,0,1,0-1.84,1.85A1.84,1.84,0,0,0,115.1,19Z"/><path class="cls-6" d="M114.25,19a1,1,0,0,0-2,0,1,1,0,1,0,2,0Z"/><path class="cls-7" d="M63.18,32.44v-.93h9.07v-10a.86.86,0,0,1,.86-.86h3.11a.38.38,0,0,0,.39-.39V12.81a.85.85,0,0,1,.2-.55h-66a.58.58,0,0,0-.58.58v19a.58.58,0,0,0,.58.58Zm-31.72-3a.66.66,0,1,1,.66-.66A.66.66,0,0,1,31.46,29.42Zm9.65,0a.66.66,0,1,1,.66-.66A.67.67,0,0,1,41.11,29.42Zm3.73,0a.66.66,0,0,1,0-1.32.66.66,0,0,1,0,1.32Zm8.55,2.19h-5v-5.7h5ZM70.93,17.46a.88.88,0,1,1-.88.88A.88.88,0,0,1,70.93,17.46Zm0,3.16a.88.88,0,1,1-.88.88A.88.88,0,0,1,70.93,20.62ZM54.66,17.48a.54.54,0,0,1,.54-.55H68.8a.55.55,0,0,1,.55.55v6.74a.55.55,0,0,1-.55.55H55.2a.55.55,0,0,1-.54-.55Zm-.32,8.43h5v5.7h-5Zm-1.27-8.45a.88.88,0,1,1-.88.88A.88.88,0,0,1,53.07,17.46Zm0,3.16a.88.88,0,1,1-.88.88A.88.88,0,0,1,53.07,20.62ZM38.83,13.78H49.68v7.93H38.83ZM37.38,28.1a.66.66,0,0,1,0,1.32.66.66,0,0,1,0-1.32ZM34.08,14a.71.71,0,1,1-.71.71A.71.71,0,0,1,34.08,14Zm-4.67,0a.71.71,0,1,1-.71.71A.71.71,0,0,1,29.41,14Zm-4.2,0a.71.71,0,1,1-.71.71A.71.71,0,0,1,25.21,14Zm-4.67,0a.71.71,0,1,1-.71.71A.71.71,0,0,1,20.54,14Zm-2.76,3a.55.55,0,0,1,.55-.55H36.16a.55.55,0,0,1,.55.55v5.82a.55.55,0,0,1-.55.55H18.33a.55.55,0,0,1-.55-.55Z"/><rect class="cls-8" x="38.37" y="13.42" width="11.78" height="8.65"/><path class="cls-9" d="M49.84,13.72v8H38.67v-8H49.84m.6-.6H38.07v9.25H50.44V13.12Z"/><rect class="cls-10" x="39.03" y="14.08" width="10.45" height="7.32"/><polygon class="cls-11" points="40.26 19.28 40.26 21.11 48.25 21.11 48.25 19.28 48.01 19.21 48.01 17.98 48.25 17.91 48.25 15.62 46.48 15.62 46.48 14.7 45.78 14.7 45.78 14.37 42.73 14.37 42.73 14.7 42.03 14.7 42.03 15.62 40.26 15.62 40.26 17.91 40.5 17.98 40.5 19.21 40.26 19.28"/><rect class="cls-12" x="42.45" y="18.67" width="0.39" height="2.43"/><path class="cls-13" d="M42.74,18.77V21h-.19V18.77h.19m.2-.2h-.59V21.2h.59V18.57Z"/><rect class="cls-12" x="43.1" y="18.67" width="0.38" height="2.43"/><path class="cls-13" d="M43.38,18.77V21H43.2V18.77h.18m.2-.2H43V21.2h.58V18.57Z"/><rect class="cls-12" x="43.74" y="18.67" width="0.38" height="2.43"/><path class="cls-13" d="M44,18.77V21h-.18V18.77H44m.2-.2h-.58V21.2h.58V18.57Z"/><rect class="cls-12" x="44.38" y="18.67" width="0.38" height="2.43"/><path class="cls-13" d="M44.67,18.77V21h-.19V18.77h.19m.2-.2h-.59V21.2h.59V18.57Z"/><rect class="cls-12" x="45.03" y="18.67" width="0.38" height="2.43"/><path class="cls-13" d="M45.31,18.77V21h-.18V18.77h.18m.2-.2h-.58V21.2h.58V18.57Z"/><rect class="cls-12" x="45.67" y="18.67" width="0.38" height="2.43"/><path class="cls-13" d="M46,18.77V21h-.18V18.77H46m.2-.2h-.58V21.2h.58V18.57Z"/><rect class="cls-12" x="46.32" y="18.67" width="0.38" height="2.43"/><path class="cls-13" d="M46.6,18.77V21h-.18V18.77h.18m.2-.2h-.58V21.2h.58V18.57Z"/><rect class="cls-12" x="41.81" y="18.67" width="0.38" height="2.43"/><path class="cls-13" d="M42.09,18.77V21h-.18V18.77h.18m.2-.2h-.58V21.2h.58V18.57Z"/><path class="cls-14" d="M51.48,12.26V25.09H72.25V21.53a.88.88,0,0,1,.26-.62V12.26Zm1.59,10.11A.88.88,0,1,1,54,21.5.88.88,0,0,1,53.07,22.37Zm0-3.16a.88.88,0,1,1,.88-.87A.88.88,0,0,1,53.07,19.21Zm16.28,5a.55.55,0,0,1-.55.55H55.2a.55.55,0,0,1-.54-.55V17.48a.54.54,0,0,1,.54-.55H68.8a.55.55,0,0,1,.55.55Zm1.58-1.85a.88.88,0,1,1,.88-.87A.87.87,0,0,1,70.93,22.37Zm0-3.16a.88.88,0,1,1,.88-.87A.87.87,0,0,1,70.93,19.21Z"/><polygon class="cls-15" points="15.6 19.66 15.94 19.66 15.94 19.93 16.65 19.93 16.65 19.29 15.94 19.29 15.94 19.61 15.6 19.61 15.6 17.91 15.94 17.91 15.94 18.22 16.66 18.22 16.66 17.57 15.94 17.57 15.94 17.86 15.6 17.86 15.6 17.57 15.55 17.57 15.55 18.78 15.17 18.78 15.17 18.46 14.46 18.46 14.46 19.11 15.17 19.11 15.17 18.82 15.55 18.82 15.55 19.93 15.6 19.93 15.6 19.66"/><path class="cls-16" d="M55.18,25.09a.79.79,0,0,1-.58-.25.82.82,0,0,1-.25-.59V17.68a.84.84,0,0,1,.84-.84H68.81a.85.85,0,0,1,.59.24.83.83,0,0,1,.25.59v6.58a.85.85,0,0,1-.84.84Z"/><path class="cls-17" d="M68.81,24.74a.5.5,0,0,0,.35-.14.46.46,0,0,0,.14-.35V17.67a.48.48,0,0,0-.14-.34.51.51,0,0,0-.35-.15H55.19a.51.51,0,0,0-.5.5v6.57a.51.51,0,0,0,.15.35.5.5,0,0,0,.35.14Z"/><path class="cls-18" d="M68.81,24.5a.25.25,0,0,0,.25-.25h0V17.67a.25.25,0,0,0-.25-.24H55.19a.25.25,0,0,0-.25.24v6.58a.25.25,0,0,0,.25.25Z"/><path class="cls-11" d="M68.81,17.54a.13.13,0,0,1,.13.13h0v6.58a.13.13,0,0,1-.13.13H62.06V17.54Z"/><path class="cls-11" d="M55.19,17.54a.13.13,0,0,0-.13.13h0v6.58a.13.13,0,0,0,.13.13h6.75V17.54Z"/><rect class="cls-19" x="56.38" y="24.38" width="4.24" height="0.12"/><rect class="cls-19" x="63.38" y="24.38" width="4.24" height="0.12"/><rect class="cls-20" x="64.31" y="24.38" width="2.39" height="0.12"/><rect class="cls-20" x="57.3" y="24.38" width="2.39" height="0.12"/><rect class="cls-21" x="55.66" y="18.41" width="5.67" height="5.1"/><rect class="cls-22" x="55.8" y="19.09" width="5.4" height="1.2"/><rect class="cls-21" x="55.96" y="19.32" width="5.08" height="0.75"/><rect class="cls-23" x="60.34" y="18.85" width="0.12" height="1.68"/><rect class="cls-23" x="58.91" y="18.85" width="0.12" height="1.68"/><rect class="cls-23" x="58.44" y="18.85" width="0.12" height="1.68"/><rect class="cls-23" x="57.49" y="18.85" width="0.12" height="1.68"/><rect class="cls-23" x="57.02" y="18.85" width="0.12" height="1.68"/><rect class="cls-23" x="56.54" y="18.85" width="0.12" height="1.68"/><rect class="cls-23" x="59.86" y="18.85" width="0.12" height="1.68"/><rect class="cls-23" x="59.39" y="18.85" width="0.12" height="1.68"/><rect class="cls-23" x="57.96" y="18.85" width="0.12" height="1.68"/><rect class="cls-8" x="56.1" y="19.47" width="4.8" height="0.45"/><rect class="cls-22" x="55.8" y="21.64" width="5.4" height="1.2"/><rect class="cls-21" x="55.96" y="21.86" width="5.08" height="0.75"/><rect class="cls-23" x="60.34" y="21.4" width="0.12" height="1.68"/><rect class="cls-23" x="58.91" y="21.4" width="0.12" height="1.68"/><rect class="cls-23" x="58.44" y="21.4" width="0.12" height="1.68"/><rect class="cls-23" x="57.49" y="21.4" width="0.12" height="1.68"/><rect class="cls-23" x="57.02" y="21.4" width="0.12" height="1.68"/><rect class="cls-23" x="56.54" y="21.4" width="0.12" height="1.68"/><rect class="cls-23" x="59.86" y="21.4" width="0.12" height="1.68"/><rect class="cls-23" x="59.39" y="21.4" width="0.12" height="1.68"/><rect class="cls-23" x="57.96" y="21.4" width="0.12" height="1.68"/><rect class="cls-8" x="56.1" y="22.01" width="4.8" height="0.45"/><rect class="cls-21" x="62.67" y="18.41" width="5.67" height="5.1"/><rect class="cls-22" x="62.8" y="19.09" width="5.4" height="1.2"/><rect class="cls-21" x="62.96" y="19.32" width="5.08" height="0.75"/><rect class="cls-23" x="67.34" y="18.85" width="0.12" height="1.68"/><rect class="cls-23" x="65.92" y="18.85" width="0.12" height="1.68"/><rect class="cls-23" x="65.44" y="18.85" width="0.12" height="1.68"/><rect class="cls-23" x="64.49" y="18.85" width="0.12" height="1.68"/><rect class="cls-23" x="64.02" y="18.85" width="0.12" height="1.68"/><rect class="cls-23" x="63.54" y="18.85" width="0.12" height="1.68"/><rect class="cls-23" x="66.87" y="18.85" width="0.12" height="1.68"/><rect class="cls-23" x="66.39" y="18.85" width="0.12" height="1.68"/><rect class="cls-23" x="64.97" y="18.85" width="0.12" height="1.68"/><rect class="cls-8" x="63.1" y="19.47" width="4.8" height="0.45"/><rect class="cls-22" x="62.8" y="21.64" width="5.4" height="1.2"/><rect class="cls-21" x="62.96" y="21.86" width="5.08" height="0.75"/><rect class="cls-23" x="67.34" y="21.4" width="0.12" height="1.68"/><rect class="cls-23" x="65.92" y="21.4" width="0.12" height="1.68"/><rect class="cls-23" x="65.44" y="21.4" width="0.12" height="1.68"/><rect class="cls-23" x="64.49" y="21.4" width="0.12" height="1.68"/><rect class="cls-23" x="64.02" y="21.4" width="0.12" height="1.68"/><rect class="cls-23" x="63.54" y="21.4" width="0.12" height="1.68"/><rect class="cls-23" x="66.87" y="21.4" width="0.12" height="1.68"/><rect class="cls-23" x="66.39" y="21.4" width="0.12" height="1.68"/><rect class="cls-23" x="64.97" y="21.4" width="0.12" height="1.68"/><rect class="cls-8" x="63.1" y="22.01" width="4.8" height="0.45"/><path class="cls-24" d="M64.87,24.39l.18-.14a.21.21,0,0,1,.11,0h.69a.21.21,0,0,1,.1,0l.18.14h.32a.13.13,0,0,1-.1,0l-.3-.23a.36.36,0,0,0-.2-.06h-.69a.37.37,0,0,0-.21.06l-.29.23a.15.15,0,0,1-.11,0Z"/><path class="cls-24" d="M57.86,24.39l.19-.14a.18.18,0,0,1,.1,0h.69a.21.21,0,0,1,.11,0l.18.14h.32a.15.15,0,0,1-.11,0l-.3-.23a.32.32,0,0,0-.2-.06h-.69a.36.36,0,0,0-.2.06l-.3.23a.13.13,0,0,1-.1,0Z"/><polyline class="cls-25" points="15.53 21.57 15.85 21.57 15.85 21.93 16.85 21.39 15.53 21.39"/><rect class="cls-25" x="14.26" y="20.64" width="2.65" height="0.21"/><rect class="cls-25" x="14.26" y="22.08" width="2.65" height="0.21"/><polyline class="cls-25" points="15.53 21.39 15.2 21.39 15.2 21.04 14.2 21.57 15.53 21.57"/><path class="cls-25" d="M22.49,15.2c.18,0,.34.11.34.47s-.16.49-.34.49-.34-.12-.34-.49S22.31,15.2,22.49,15.2Zm0,.8c.15,0,.15-.22.15-.33s0-.32-.15-.32-.15.23-.15.32S22.34,16,22.49,16Z"/><path class="cls-25" d="M22.92,15.67c0-.18.16-.23.32-.23s.3,0,.3.19V16a.32.32,0,0,0,0,.15h-.19a.17.17,0,0,1,0-.07.33.33,0,0,1-.23.09A.21.21,0,0,1,22.9,16c0-.15.11-.19.23-.2s.22,0,.22-.09-.06-.1-.12-.1a.12.12,0,0,0-.13.11Zm.43.13s-.1,0-.16,0-.11,0-.11.1.06.09.12.09a.14.14,0,0,0,.15-.16Z"/><path class="cls-25" d="M31.35,15.2c.18,0,.34.11.34.47s-.16.49-.34.49S31,16,31,15.67,31.17,15.2,31.35,15.2Zm0,.8c.15,0,.15-.22.15-.33s0-.32-.15-.32-.15.23-.15.32S31.2,16,31.35,16Z"/><path class="cls-25" d="M31.79,15.2H32v.34h0a.24.24,0,0,1,.21-.1c.14,0,.28.11.28.36s-.14.36-.28.36a.22.22,0,0,1-.22-.11h0v.09h-.17Zm.34.38c-.11,0-.16.1-.16.22s.05.22.16.22.16-.11.16-.22S32.24,15.58,32.13,15.58Z"/><polygon class="cls-25" points="19.67 13.64 19.67 12.89 19.76 12.89 19.76 13.55 20.13 13.55 20.13 13.64 19.67 13.64"/><polygon class="cls-25" points="20.17 13.64 20.17 12.89 20.27 12.89 20.66 13.48 20.66 12.89 20.76 12.89 20.76 13.64 20.66 13.64 20.27 13.05 20.27 13.64 20.17 13.64"/><polygon class="cls-25" points="20.8 13.64 20.8 12.89 20.9 12.89 20.9 13.27 21.27 12.89 21.41 12.89 21.09 13.2 21.42 13.64 21.29 13.64 21.02 13.26 20.9 13.38 20.9 13.64 20.8 13.64"/><path class="cls-25" d="M25.27,13s-.06.51-.06.51-.06-.47-.06-.51a.06.06,0,0,1,.06-.06A.06.06,0,0,1,25.27,13Z"/><path class="cls-25" d="M25.28,13.57a.07.07,0,0,1-.14,0,.07.07,0,0,1,.14,0Z"/><polygon class="cls-25" points="28.53 13.64 28.53 12.89 28.63 12.89 28.63 13.55 29 13.55 29 13.64 28.53 13.64"/><polygon class="cls-25" points="29.04 13.64 29.04 12.89 29.14 12.89 29.53 13.48 29.53 12.89 29.63 12.89 29.63 13.64 29.52 13.64 29.13 13.05 29.13 13.64 29.04 13.64"/><polygon class="cls-25" points="29.67 13.64 29.67 12.89 29.77 12.89 29.77 13.27 30.14 12.89 30.27 12.89 29.96 13.2 30.29 13.64 30.16 13.64 29.89 13.26 29.77 13.38 29.77 13.64 29.67 13.64"/><path class="cls-25" d="M34.14,13s-.06.51-.06.51S34,13,34,13a.06.06,0,0,1,.12,0Z"/><path class="cls-25" d="M34.14,13.57a.07.07,0,0,1-.06.07.07.07,0,0,1-.07-.07.07.07,0,0,1,.07-.06A.06.06,0,0,1,34.14,13.57Z"/><path class="cls-25" d="M44.89,13.46a.45.45,0,1,0-.45-.44.44.44,0,0,0,.45.44m0-.78a.34.34,0,1,1-.34.34.34.34,0,0,1,.34-.34"/><path class="cls-25" d="M43.62,13.46a.45.45,0,1,0-.45-.44.45.45,0,0,0,.45.44m0-.78a.34.34,0,0,1,0,.67.34.34,0,0,1,0-.67"/><rect class="cls-25" x="45.47" y="12.57" width="0.11" height="0.89"/><rect class="cls-25" x="44.2" y="12.57" width="0.11" height="0.89"/><rect class="cls-25" x="42.93" y="12.57" width="0.11" height="0.89"/><polygon class="cls-25" points="44.96 31.41 45.1 30.93 45.63 30.93 45.63 31.07 45.2 31.07 44.91 32.07 44.73 30.6 44.58 31.1 44.06 31.1 44.06 30.96 44.48 30.96 44.77 29.95 44.96 31.41"/><path class="cls-25" d="M37.67,31a.5.5,0,0,0,0-.12.32.32,0,1,0-.63,0,.5.5,0,0,0,0,.12h0l0,0,.27.52.28-.52s0,0,0,0Zm-.13-.14a.17.17,0,0,1-.17.17.17.17,0,0,1,0-.34.17.17,0,0,1,.17.17"/><path class="cls-25" d="M37.37,31.74A.73.73,0,1,1,38.1,31a.73.73,0,0,1-.73.73m.82-.73a.82.82,0,1,0-.82.82.82.82,0,0,0,.82-.82"/><path class="cls-15" d="M30.68,30.75h.18a.64.64,0,0,1,.6-.4.66.66,0,1,1,0,1.32.67.67,0,0,1-.59-.4h-.18a.82.82,0,1,0,0-.52Z"/><path class="cls-15" d="M31.26,30.72v.16h-.32v.22h.32v.16l.21-.27-.21-.27Zm-.74.16v.22h.33v-.22Zm-.31,0v.22h.22v-.22Zm-.25,0v.22h.15v-.22Z"/><path class="cls-25" d="M41.24,30.34c0,.07-.13,1.08-.13,1.08s-.12-1-.12-1.08a.12.12,0,0,1,.12-.12A.12.12,0,0,1,41.24,30.34Z"/><path class="cls-25" d="M41.25,31.66a.14.14,0,0,1-.28,0,.14.14,0,1,1,.28,0Z"/><rect class="cls-26" x="10.97" y="28.19" width="15.81" height="3.48"/><polyline class="cls-27" points="26.78 31.12 26.78 31.67 26.23 31.67"/><polyline class="cls-27" points="10.97 31.11 10.97 31.67 11.53 31.67"/><rect class="cls-26" x="10.97" y="23.85" width="15.81" height="3.48"/><polyline class="cls-27" points="26.78 26.77 26.78 27.32 26.23 27.32"/><polyline class="cls-27" points="10.97 26.77 10.97 27.32 11.53 27.32"/><path class="cls-28" d="M56.69,15.47h.71v.18h-.5v.2h.46V16H56.9v.23h.51v.17h-.72Z"/><path class="cls-28" d="M57.78,15.92l-.31-.45h.24l.19.3.19-.3h.23l-.31.45.33.49H58.1l-.21-.32-.21.32h-.23Z"/><path class="cls-28" d="M58.43,15.47h.42a.31.31,0,1,1,0,.61h-.22v.33h-.2Zm.2.45h.16c.1,0,.18,0,.18-.15s-.08-.14-.18-.14h-.16Z"/><path class="cls-28" d="M59.73,16.41h-.19v-.59h-.23v-.14c.13,0,.25,0,.27-.19h.15Z"/><path class="cls-28" d="M64.15,15.47h.7v.18h-.5v.2h.46V16h-.46v.23h.51v.17h-.71Z"/><path class="cls-28" d="M65.23,15.92l-.3-.45h.24l.18.3.19-.3h.23l-.3.45.32.49h-.24l-.21-.32-.21.32H64.9Z"/><path class="cls-28" d="M65.88,15.47h.42a.31.31,0,1,1,0,.61h-.22v.33h-.2Zm.2.45h.17c.09,0,.18,0,.18-.15s-.09-.14-.18-.14h-.17Z"/><path class="cls-28" d="M66.71,15.85a.34.34,0,0,1,.34-.38.29.29,0,0,1,.31.29.32.32,0,0,1-.16.28,1.39,1.39,0,0,0-.27.21h.44v.16h-.68c0-.21.13-.3.29-.41s.2-.11.2-.22a.14.14,0,0,0-.14-.15c-.11,0-.15.12-.15.22Z"/><path class="cls-28" d="M61.2,13.28h.09a.09.09,0,0,0,0,.07l.06,0,.07,0,0,0s0,0,0,0l0,0-.07,0a.19.19,0,0,1-.1,0,.1.1,0,0,1,0-.09.07.07,0,0,1,0-.06.1.1,0,0,1,0,0l.09,0a.16.16,0,0,1,.12,0,.1.1,0,0,1,0,.09h-.09a.08.08,0,0,0,0,0h-.11l0,0,0,0,.07,0,.1,0a.12.12,0,0,1,0,.05.15.15,0,0,1,0,.07.11.11,0,0,1,0,.07s0,0-.05.05h-.1a.18.18,0,0,1-.13,0,.23.23,0,0,1,0-.11"/><path class="cls-28" d="M61.2,14.66h.09a.06.06,0,0,0,0,.06s0,0,.06,0h.07s0,0,0-.05v0l0,0-.07,0a.19.19,0,0,1-.1,0,.11.11,0,0,1,0-.09.07.07,0,0,1,0-.06.1.1,0,0,1,0,0l.09,0a.16.16,0,0,1,.12,0,.1.1,0,0,1,0,.09h-.09a.06.06,0,0,0,0-.05l0,0-.06,0s0,0,0,0l0,0,.07,0,.1,0a.12.12,0,0,1,0,0s0,0,0,.06a.08.08,0,0,1,0,.07.08.08,0,0,1-.05,0l-.1,0a.18.18,0,0,1-.13,0,.23.23,0,0,1,0-.11"/><path class="cls-28" d="M61.6,14.1h-.1l0-.1h-.17l0,.1h-.09l.17-.43h.09Zm-.16-.17-.06-.16-.06.16Z"/><path class="cls-28" d="M59.68,14.36V13.27H59v.41h.34V14H59v.4Zm.39-1.27.37-.13-.25.3,0-.09-.48.33v.67l.45.31,0-.1.24.3-.36-.13.08-.05-.44-.31v.19H59V14h-.35v-.28H59v-.42h.71v.22l.47-.33Z"/><path class="cls-28" d="M59.92,14s0,0,0,0a0,0,0,0,0-.05,0,0,0,0,0,0,.05,0A0,0,0,0,0,59.92,14Z"/><path class="cls-28" d="M60.09,14.11a0,0,0,0,0,0,0,0,0,0,0,0,0,0,0,0,0,0,0,0,.05A0,0,0,0,0,60.09,14.11Z"/><path class="cls-28" d="M60.26,14.19a0,0,0,0,0,0,0,.05.05,0,0,0-.05,0s0,0,.05,0A0,0,0,0,0,60.26,14.19Z"/><path class="cls-28" d="M60.42,14.27a0,0,0,0,0,0,0,0,0,0,0,0-.05,0,0,0,0,0,0,.05,0A0,0,0,0,0,60.42,14.27Z"/><path class="cls-28" d="M60.59,14.34a0,0,0,0,0-.05,0,0,0,0,0,0,0,0,0,0,0,0,0,0,.05A0,0,0,0,0,60.59,14.34Z"/><path class="cls-28" d="M60.75,14.42a0,0,0,0,0,0-.05,0,0,0,0,0-.05.05.05.05,0,0,0,.05.05S60.75,14.44,60.75,14.42Z"/><path class="cls-28" d="M59.92,13.6s0,0,0,0-.05,0-.05,0a0,0,0,0,0,.05.05S59.92,13.63,59.92,13.6Z"/><path class="cls-28" d="M60.09,13.52a0,0,0,0,0,0,0,0,0,0,0,0,0,0,0,0,0,0,0,0,.05A0,0,0,0,0,60.09,13.52Z"/><path class="cls-28" d="M60.26,13.45a0,0,0,0,0,0,0,.05.05,0,0,0-.05,0s0,0,.05,0A0,0,0,0,0,60.26,13.45Z"/><path class="cls-28" d="M60.42,13.37a0,0,0,0,0,0,0s-.05,0-.05,0a0,0,0,0,0,.05.05A0,0,0,0,0,60.42,13.37Z"/><path class="cls-28" d="M60.59,13.29a0,0,0,0,0-.05,0,0,0,0,0,0,0,0,0,0,0,0,0,0,.05A0,0,0,0,0,60.59,13.29Z"/><path class="cls-28" d="M60.75,13.22a0,0,0,0,0,0-.05,0,0,0,0,0-.05.05,0,0,0,0,0,.05,0A0,0,0,0,0,60.75,13.22Z"/><path class="cls-28" d="M61,13.82a0,0,0,0,0-.05-.05,0,0,0,0,0,0,.05,0,0,0,0,0,0,0A0,0,0,0,0,61,13.82Z"/><path class="cls-28" d="M60.85,13.82a.05.05,0,0,0-.05-.05,0,0,0,0,0,0,.05,0,0,0,0,0,0,0S60.85,13.84,60.85,13.82Z"/><path class="cls-28" d="M60.66,13.82a0,0,0,0,0,0-.05,0,0,0,0,0,0,.05,0,0,0,0,0,0,0A0,0,0,0,0,60.66,13.82Z"/><path class="cls-28" d="M60.48,13.82a0,0,0,0,0,0-.05,0,0,0,0,0,0,.05,0,0,0,0,0,0,0A0,0,0,0,0,60.48,13.82Z"/><path class="cls-28" d="M60.3,13.82a0,0,0,0,0,0-.05,0,0,0,0,0,0,.05,0,0,0,0,0,0,0A0,0,0,0,0,60.3,13.82Z"/><path class="cls-28" d="M60.12,13.82a0,0,0,0,0,0-.05.05.05,0,0,0,0,.05s0,0,0,0A0,0,0,0,0,60.12,13.82Z"/><path class="cls-28" d="M59.93,13.82a0,0,0,0,0,0-.05,0,0,0,0,0,0,.05,0,0,0,0,0,0,0A0,0,0,0,0,59.93,13.82Z"/><polygon class="cls-28" points="63.58 13.61 63.58 13.19 62.82 13.97 63.58 14.76 63.58 14.27 63.98 14.27 63.98 13.61 63.58 13.61"/><polygon class="cls-28" points="64.6 13.61 64.6 13.19 65.36 13.97 64.6 14.76 64.6 14.27 64.2 14.27 64.2 13.61 64.6 13.61"/><path class="cls-28" d="M53.17,16c0,.05-.1.8-.1.8S53,16.09,53,16a.1.1,0,0,1,.09-.1A.1.1,0,0,1,53.17,16Z"/><path class="cls-28" d="M53.18,17a.11.11,0,1,1-.11-.11A.11.11,0,0,1,53.18,17Z"/><polygon class="cls-28" points="51.99 20.29 51.99 19.46 52.1 19.46 52.1 20.19 52.5 20.19 52.5 20.29 51.99 20.29"/><polygon class="cls-28" points="52.63 20.29 52.63 19.46 52.75 19.46 53.18 20.11 53.18 19.46 53.29 19.46 53.29 20.29 53.17 20.29 52.74 19.64 52.74 20.29 52.63 20.29"/><polygon class="cls-28" points="53.47 20.29 53.47 19.46 53.58 19.46 53.58 19.87 53.99 19.46 54.14 19.46 53.79 19.8 54.15 20.29 54.01 20.29 53.71 19.87 53.58 20 53.58 20.29 53.47 20.29"/><path class="cls-28" d="M71,16c0,.05-.1.8-.1.8s-.09-.75-.09-.8a.1.1,0,0,1,.09-.1A.1.1,0,0,1,71,16Z"/><path class="cls-28" d="M71,17a.11.11,0,1,1-.11-.11A.11.11,0,0,1,71,17Z"/><polygon class="cls-28" points="69.84 20.29 69.84 19.46 69.95 19.46 69.95 20.19 70.36 20.19 70.36 20.29 69.84 20.29"/><polygon class="cls-28" points="70.49 20.29 70.49 19.46 70.61 19.46 71.04 20.11 71.04 19.46 71.15 19.46 71.15 20.29 71.03 20.29 70.6 19.64 70.6 20.29 70.49 20.29"/><polygon class="cls-28" points="71.33 20.29 71.33 19.46 71.44 19.46 71.44 19.87 71.85 19.46 72 19.46 71.65 19.8 72.01 20.29 71.87 20.29 71.57 19.87 71.44 20 71.44 20.29 71.33 20.29"/><path class="cls-29" d="M53.82,18.33a.75.75,0,1,0-.75.75A.75.75,0,0,0,53.82,18.33Z"/><path class="cls-29" d="M53.82,21.5a.75.75,0,1,0-.75.74A.75.75,0,0,0,53.82,21.5Z"/><path class="cls-29" d="M71.68,18.33a.75.75,0,1,0-.75.75A.75.75,0,0,0,71.68,18.33Z"/><path class="cls-29" d="M71.68,21.5a.75.75,0,1,0-.75.74A.75.75,0,0,0,71.68,21.5Z"/><rect class="cls-10" x="48.24" y="25.8" width="5.28" height="5.91"/><polygon class="cls-3" points="48.48 31.48 53.27 31.48 53.28 31.47 53.28 31.47 53.28 26.04 53.27 26.04 48.48 26.04 48.48 26.04 48.48 31.47 48.48 31.48"/><rect class="cls-30" x="48.64" y="26.2" width="4.48" height="5.11"/><rect class="cls-31" x="48.64" y="26.2" width="4.48" height="5.11"/><path class="cls-32" d="M51.53,27.62s0,0,0,0l.3-.24a0,0,0,0,0,0-.05h0l-.1-.12H50.54l-.14.13s0,0,0,0h0l.2.25h.93Z"/><path class="cls-32" d="M51.62,28.71l.23-.19s0,0,0,0l.17-.95a0,0,0,0,0,0,0l-.1-.12a0,0,0,0,0-.05,0l-.29.24s0,0,0,0l-.15.84a0,0,0,0,0,0,0l.14.17S51.61,28.72,51.62,28.71Z"/><path class="cls-32" d="M51.56,28.81l-.22.19s0,0,0,0l-.15.84s0,0,0,0l.2.25a0,0,0,0,0,0,0l.14-.12,0,0,.17-1a0,0,0,0,0,0,0l-.15-.18Z"/><path class="cls-32" d="M51.29,29h0l.23-.19a0,0,0,0,0,0-.05h0l-.14-.18h-1l-.22.19s0,0,0,.05h0l.15.17h.93Z"/><path class="cls-32" d="M50.19,28.71l.23-.19s0,0,0,0l.15-.84a0,0,0,0,0,0,0l-.2-.24s0,0,0,0l-.15.12a0,0,0,0,0,0,0l-.17,1a0,0,0,0,0,0,0l.14.17S50.18,28.72,50.19,28.71Z"/><path class="cls-32" d="M51.19,30.33h0l.15-.12a0,0,0,0,0,0-.05h0l-.2-.24h-1l-.29.25a0,0,0,0,0,0,.05h0l.1.12h1.18Z"/><path class="cls-32" d="M50.19,29.85l.15-.83a0,0,0,0,0,0,0l-.15-.18h0l-.23.19s0,0,0,0l-.17.95a0,0,0,0,0,0,0l.1.12h0l.29-.25Z"/><path class="cls-32" d="M52.56,30.08a.25.25,0,0,0-.49,0,.25.25,0,1,0,.49,0Z"/><path class="cls-33" d="M51.53,27.62s0,0,0,0l.3-.24a0,0,0,0,0,0-.05h0l-.1-.12H50.54l-.14.13s0,0,0,0h0l.2.25h.93Z"/><path class="cls-33" d="M51.62,28.71l.23-.19s0,0,0,0l.17-.95a0,0,0,0,0,0,0l-.1-.12a0,0,0,0,0-.05,0l-.29.24s0,0,0,0l-.15.84a0,0,0,0,0,0,0l.14.17S51.61,28.72,51.62,28.71Z"/><path class="cls-33" d="M51.56,28.81l-.22.19s0,0,0,0l-.15.84s0,0,0,0l.2.25a0,0,0,0,0,0,0l.14-.12,0,0,.17-1a0,0,0,0,0,0,0l-.15-.18Z"/><path class="cls-33" d="M51.29,29h0l.23-.19a0,0,0,0,0,0-.05h0l-.14-.18h-1l-.22.19s0,0,0,.05h0l.15.17h.93Z"/><path class="cls-33" d="M50.19,28.71l.23-.19s0,0,0,0l.15-.84a0,0,0,0,0,0,0l-.2-.24s0,0,0,0l-.15.12a0,0,0,0,0,0,0l-.17,1a0,0,0,0,0,0,0l.14.17S50.18,28.72,50.19,28.71Z"/><path class="cls-33" d="M51.19,30.33h0l.15-.12a0,0,0,0,0,0-.05h0l-.2-.24h-1l-.29.25a0,0,0,0,0,0,.05h0l.1.12h1.18Z"/><path class="cls-33" d="M50.19,29.85l.15-.83a0,0,0,0,0,0,0l-.15-.18h0l-.23.19s0,0,0,0l-.17.95a0,0,0,0,0,0,0l.1.12h0l.29-.25Z"/><path class="cls-33" d="M52.56,30.08a.25.25,0,0,0-.49,0,.25.25,0,1,0,.49,0Z"/><rect class="cls-10" x="54.21" y="25.8" width="5.28" height="5.91"/><polygon class="cls-3" points="54.46 31.48 59.25 31.48 59.25 31.47 59.25 31.47 59.25 26.04 59.25 26.04 54.46 26.04 54.45 26.04 54.45 31.47 54.46 31.48"/><rect class="cls-30" x="54.61" y="26.2" width="4.48" height="5.11"/><rect class="cls-31" x="54.61" y="26.2" width="4.48" height="5.11"/><path class="cls-32" d="M56.2,29.9h0l-.3.25a0,0,0,0,0,0,.05h0l.1.12h1.21l.14-.12a0,0,0,0,0,0-.05h0l-.2-.24H56.2Z"/><path class="cls-32" d="M56.11,28.81l-.23.19v0L55.7,30a0,0,0,0,0,0,0l.1.12h0l.29-.25s0,0,0,0l.15-.83a0,0,0,0,0,0,0l-.14-.18Z"/><path class="cls-32" d="M56.17,28.71l.22-.19s0,0,0,0l.15-.84a0,0,0,0,0,0,0l-.2-.24s0,0-.05,0l-.14.12s0,0,0,0l-.17,1a0,0,0,0,0,0,0l.15.17S56.15,28.72,56.17,28.71Z"/><path class="cls-32" d="M56.44,28.54s0,0,0,0l-.23.19a0,0,0,0,0,0,.05h0l.14.17h1l.22-.19a0,0,0,0,0,0-.05h0l-.15-.18h-.93Z"/><path class="cls-32" d="M57.54,28.81l-.23.19v0h0l-.15.84s0,0,0,0l.2.25a0,0,0,0,0,0,0l.15-.12s0,0,0,0l.17-1a0,0,0,0,0,0,0l-.14-.18Z"/><path class="cls-32" d="M56.54,27.19h0l-.15.13a0,0,0,0,0,0,0h0l.2.25h1l.29-.24s0,0,0-.05h0l-.1-.12H56.54Z"/><path class="cls-32" d="M57.54,27.66l-.15.84a0,0,0,0,0,0,0l.15.17s0,0,.05,0l.22-.19s0,0,0,0l.17-.95a0,0,0,0,0,0,0l-.1-.12a0,0,0,0,0,0,0l-.29.24S57.54,27.65,57.54,27.66Z"/><path class="cls-32" d="M55.17,27.43a.25.25,0,1,0,.49,0,.25.25,0,0,0-.49,0Z"/><path class="cls-33" d="M56.2,29.9h0l-.3.25a0,0,0,0,0,0,.05h0l.1.12h1.21l.14-.12a0,0,0,0,0,0-.05h0l-.2-.24H56.2Z"/><path class="cls-33" d="M56.11,28.81l-.23.19v0L55.7,30a0,0,0,0,0,0,0l.1.12h0l.29-.25s0,0,0,0l.15-.83a0,0,0,0,0,0,0l-.14-.18Z"/><path class="cls-33" d="M56.17,28.71l.22-.19s0,0,0,0l.15-.84a0,0,0,0,0,0,0l-.2-.24s0,0-.05,0l-.14.12s0,0,0,0l-.17,1a0,0,0,0,0,0,0l.15.17S56.15,28.72,56.17,28.71Z"/><path class="cls-33" d="M56.44,28.54s0,0,0,0l-.23.19a0,0,0,0,0,0,.05h0l.14.17h1l.22-.19a0,0,0,0,0,0-.05h0l-.15-.18h-.93Z"/><path class="cls-33" d="M57.54,28.81l-.23.19v0h0l-.15.84s0,0,0,0l.2.25a0,0,0,0,0,0,0l.15-.12s0,0,0,0l.17-1a0,0,0,0,0,0,0l-.14-.18Z"/><path class="cls-33" d="M56.54,27.19h0l-.15.13a0,0,0,0,0,0,0h0l.2.25h1l.29-.24s0,0,0-.05h0l-.1-.12H56.54Z"/><path class="cls-33" d="M57.54,27.66l-.15.84a0,0,0,0,0,0,0l.15.17s0,0,.05,0l.22-.19s0,0,0,0l.17-.95a0,0,0,0,0,0,0l-.1-.12a0,0,0,0,0,0,0l-.29.24S57.54,27.65,57.54,27.66Z"/><path class="cls-33" d="M55.17,27.43a.25.25,0,1,0,.49,0,.25.25,0,0,0-.49,0Z"/><path class="cls-29" d="M45.41,28.76a.56.56,0,0,0-.57-.57.57.57,0,0,0-.57.57.58.58,0,0,0,.57.57A.57.57,0,0,0,45.41,28.76Z"/><path class="cls-29" d="M41.68,28.76a.57.57,0,0,0-.57-.57.56.56,0,0,0-.57.57.57.57,0,0,0,.57.57A.58.58,0,0,0,41.68,28.76Z"/><path class="cls-29" d="M37.94,28.76a.57.57,0,1,0-1.13,0,.57.57,0,1,0,1.13,0Z"/><path class="cls-29" d="M32,28.76a.56.56,0,0,0-.57-.57.57.57,0,0,0-.57.57.58.58,0,0,0,.57.57A.57.57,0,0,0,32,28.76Z"/><rect class="cls-34" x="17.63" y="16.37" width="19.24" height="7.13" rx="2.24"/><rect class="cls-21" x="17.81" y="16.63" width="18.86" height="6.6"/><path class="cls-35" d="M36.18,17.13v5.6H18.31v-5.6H36.18m1-1H17.31v7.6H37.18v-7.6Z"/><rect class="cls-36" x="18.44" y="17.26" width="17.62" height="5.35"/><rect class="cls-37" x="18.55" y="17.36" width="8.64" height="5.15"/><rect class="cls-38" x="21.03" y="17.26" width="3.67" height="0.1"/><rect class="cls-39" x="21.38" y="17.26" width="2.97" height="0.29"/><rect class="cls-37" x="27.3" y="17.36" width="8.64" height="5.15"/><rect class="cls-38" x="29.78" y="17.26" width="3.67" height="0.1"/><rect class="cls-39" x="30.14" y="17.26" width="2.97" height="0.29"/><path class="cls-29" d="M34.65,14.72a.58.58,0,0,0-.57-.57.57.57,0,0,0-.57.57.56.56,0,0,0,.57.57A.57.57,0,0,0,34.65,14.72Z"/><path class="cls-29" d="M30,14.72a.57.57,0,0,0-1.14,0,.57.57,0,1,0,1.14,0Z"/><path class="cls-29" d="M25.78,14.72a.57.57,0,0,0-.57-.57.58.58,0,0,0-.57.57.57.57,0,0,0,.57.57A.56.56,0,0,0,25.78,14.72Z"/><path class="cls-29" d="M21.11,14.72a.57.57,0,0,0-.57-.57.58.58,0,0,0-.57.57.57.57,0,0,0,.57.57A.56.56,0,0,0,21.11,14.72Z"/></g><g id="Sandhawk_Blank" data-name="Sandhawk Blank"><path class="cls-7" d="M138.45,12.26h-61a.39.39,0,0,0-.39.39v7.56a.87.87,0,0,1-.87.87H73.05a.39.39,0,0,0-.39.39v11H137a.57.57,0,0,0,.57-.57V25.51h.71a.55.55,0,0,0,.55-.55V12.65A.38.38,0,0,0,138.45,12.26ZM80.19,21a2.05,2.05,0,1,1,1.7-1.7A2.06,2.06,0,0,1,80.19,21ZM94.6,20.8a.5.5,0,0,1-.5.5H84.67a.5.5,0,0,1-.5-.5V14.48a.5.5,0,0,1,.5-.5H94.1a.5.5,0,0,1,.5.5Zm14.18,0a.5.5,0,0,1-.5.5H98.84a.5.5,0,0,1-.5-.5V14.48a.5.5,0,0,1,.5-.5h9.44a.5.5,0,0,1,.5.5Zm4.8.22a2.05,2.05,0,1,1,1.7-1.7A2.06,2.06,0,0,1,113.58,21Zm10.64-1.87a.56.56,0,0,1-.56.56h-6.55a.55.55,0,0,1-.55-.56V15.79a.54.54,0,0,1,.55-.55h6.55a.55.55,0,0,1,.56.55Zm12.1,2.46a.56.56,0,0,1-.56.55h-10.4a.55.55,0,0,1-.55-.55V16.83a.54.54,0,0,1,.55-.55h10.4a.55.55,0,0,1,.56.55Z"/><path class="cls-25" d="M121.14,14.45a.54.54,0,1,0-.53-.54.54.54,0,0,0,.53.54m0-.94a.4.4,0,1,1,0,.8.4.4,0,0,1,0-.8"/><path class="cls-25" d="M119.63,14.45a.54.54,0,0,0,0-1.07.54.54,0,0,0,0,1.07m0-.94a.4.4,0,1,1-.4.4.4.4,0,0,1,.4-.4"/><rect class="cls-25" x="121.84" y="13.38" width="0.13" height="1.07"/><rect class="cls-25" x="120.32" y="13.38" width="0.13" height="1.07"/><rect class="cls-25" x="118.8" y="13.38" width="0.13" height="1.07"/><path class="cls-25" d="M131.83,14.65h-2c.19-.14.32-.48.58-.49h.36a.24.24,0,0,0,.22.17.23.23,0,0,0,.23-.23s0,0,0-.08a.23.23,0,0,0-.21-.15.24.24,0,0,0-.22.17h-.36c-.34,0-.53.56-.87.61h-.13a.36.36,0,0,0-.32-.29.36.36,0,0,0-.32.23.22.22,0,0,0,0,.11.33.33,0,0,0,.34.34.34.34,0,0,0,.31-.28h.72c.31.09.49.56.81.56h.15v.17h.44v-.44h-.44v.16h-.15c-.22,0-.35-.31-.56-.45h1.45V15l.53-.26-.53-.26Z"/><path class="cls-25" d="M88.74,12.55h.32a.23.23,0,1,1,0,.46H88.9v.26h-.16Zm.16.34H89c.07,0,.14,0,.14-.11s-.07-.11-.14-.11H88.9Z"/><path class="cls-25" d="M89.83,13.27h-.14v-.46h-.18V12.7a.17.17,0,0,0,.21-.14h.11Z"/><path class="cls-25" d="M102.92,12.55h.32a.23.23,0,1,1,0,.46h-.17v.26h-.15Zm.15.34h.12c.08,0,.14,0,.14-.11s-.06-.11-.14-.11h-.12Z"/><path class="cls-25" d="M103.65,12.83a.25.25,0,0,1,.25-.28.23.23,0,0,1,.25.22A.25.25,0,0,1,104,13a.78.78,0,0,0-.2.16h.33v.13h-.52a.37.37,0,0,1,.23-.32c.06,0,.14-.08.14-.17a.1.1,0,0,0-.1-.11c-.09,0-.11.09-.11.16Z"/><rect class="cls-26" x="120.98" y="28.32" width="16" height="3.52"/><polyline class="cls-40" points="136.98 31.28 136.98 31.84 136.42 31.84"/><polyline class="cls-40" points="120.97 31.28 120.97 31.84 121.53 31.84"/><path class="cls-25" d="M96.91,15.89l.1-.16h.11v-.05a.25.25,0,0,0-.13,0,.24.24,0,0,0-.23.14H96.1a.29.29,0,0,0-.43-.14v.07h.14l.1.18-.1.18h-.14v.06a.29.29,0,0,0,.16,0,.27.27,0,0,0,.27-.2h.65a.25.25,0,0,0,.24.17.18.18,0,0,0,.13,0v-.06H97Z"/><polygon class="cls-15" points="96.42 19.52 96.61 19.52 96.61 19.68 97.02 19.68 97.02 19.31 96.61 19.31 96.61 19.5 96.42 19.5 96.42 18.54 96.62 18.54 96.62 18.71 97.02 18.71 97.02 18.35 96.62 18.35 96.62 18.51 96.42 18.51 96.42 18.35 96.39 18.35 96.39 19.03 96.18 19.03 96.18 18.85 95.78 18.85 95.78 19.21 96.18 19.21 96.18 19.05 96.39 19.05 96.39 19.68 96.42 19.68 96.42 19.52"/><path class="cls-5" d="M81.71,19a1.85,1.85,0,1,0-1.84,1.85A1.84,1.84,0,0,0,81.71,19Z"/><path class="cls-41" d="M81.55,19a1.69,1.69,0,1,0-1.68,1.69A1.68,1.68,0,0,0,81.55,19Z"/><path class="cls-42" d="M79.19,18.6l.12.12a.4.4,0,0,1,0,.57h0l-.12.12a.14.14,0,0,0,0,.19h0l.08.08a.14.14,0,0,0,.19,0l.12-.12a.4.4,0,0,1,.57,0l.12.12a.12.12,0,0,0,.19,0l.08-.08a.12.12,0,0,0,0-.19h0l-.12-.12a.4.4,0,0,1,0-.57h0l.12-.12a.14.14,0,0,0,0-.19h0l-.08-.08a.14.14,0,0,0-.19,0l-.12.12a.4.4,0,0,1-.57,0l-.12-.12a.12.12,0,0,0-.19,0l-.08.08a.12.12,0,0,0,0,.19Z"/><path class="cls-5" d="M115.1,19a1.85,1.85,0,1,0-1.84,1.85A1.84,1.84,0,0,0,115.1,19Z"/><path class="cls-41" d="M114.94,19a1.69,1.69,0,1,0-1.68,1.69A1.68,1.68,0,0,0,114.94,19Z"/><path class="cls-42" d="M112.58,18.6l.12.12a.4.4,0,0,1,0,.57h0l-.12.12a.14.14,0,0,0,0,.19h0l.08.08a.14.14,0,0,0,.19,0l.12-.12a.4.4,0,0,1,.57,0l.13.12a.12.12,0,0,0,.19,0l.08-.08a.14.14,0,0,0,0-.19h0l-.13-.12a.42.42,0,0,1,0-.57h0l.12-.12a.14.14,0,0,0,0-.19h0l-.08-.08a.14.14,0,0,0-.19,0l-.12.12a.4.4,0,0,1-.57,0l-.12-.12a.12.12,0,0,0-.19,0l-.08.08a.14.14,0,0,0,0,.19Z"/><rect class="cls-8" x="83.49" y="13.32" width="11.78" height="8.65"/><path class="cls-9" d="M95,13.62v8.05H83.79V13.62H95m.6-.6H83.19v9.25H95.57V13Z"/><rect class="cls-10" x="84.16" y="13.98" width="10.45" height="7.32"/><polygon class="cls-11" points="85.38 19.18 85.38 21.01 93.38 21.01 93.38 19.18 93.14 19.11 93.14 17.88 93.38 17.81 93.38 15.52 91.61 15.52 91.61 14.6 90.91 14.6 90.91 14.27 87.86 14.27 87.86 14.6 87.16 14.6 87.16 15.52 85.38 15.52 85.38 17.81 85.62 17.88 85.62 19.11 85.38 19.18"/><rect class="cls-43" x="85.38" y="14.6" width="1.78" height="0.92"/><rect class="cls-43" x="91.61" y="14.6" width="1.77" height="0.92"/><rect class="cls-12" x="87.58" y="18.57" width="0.38" height="2.43"/><path class="cls-13" d="M87.86,18.67V20.9h-.18V18.67h.18m.2-.2h-.58V21.1h.58V18.47Z"/><rect class="cls-12" x="88.23" y="18.57" width="0.38" height="2.43"/><path class="cls-13" d="M88.51,18.67V20.9h-.18V18.67h.18m.2-.2h-.58V21.1h.58V18.47Z"/><rect class="cls-12" x="88.87" y="18.57" width="0.38" height="2.43"/><path class="cls-13" d="M89.15,18.67V20.9H89V18.67h.18m.2-.2h-.58V21.1h.58V18.47Z"/><rect class="cls-12" x="89.51" y="18.57" width="0.38" height="2.43"/><path class="cls-13" d="M89.8,18.67V20.9h-.19V18.67h.19m.2-.2h-.59V21.1H90V18.47Z"/><rect class="cls-12" x="90.16" y="18.57" width="0.38" height="2.43"/><path class="cls-13" d="M90.44,18.67V20.9h-.18V18.67h.18m.2-.2h-.58V21.1h.58V18.47Z"/><rect class="cls-12" x="90.8" y="18.57" width="0.38" height="2.43"/><path class="cls-13" d="M91.09,18.67V20.9H90.9V18.67h.19m.2-.2H90.7V21.1h.59V18.47Z"/><rect class="cls-12" x="91.45" y="18.57" width="0.38" height="2.43"/><path class="cls-13" d="M91.73,18.67V20.9h-.18V18.67h.18m.2-.2h-.58V21.1h.58V18.47Z"/><rect class="cls-12" x="86.94" y="18.57" width="0.38" height="2.43"/><path class="cls-13" d="M87.22,18.67V20.9H87V18.67h.19m.2-.2h-.59V21.1h.59V18.47Z"/><rect class="cls-8" x="97.67" y="13.34" width="11.78" height="8.65"/><path class="cls-9" d="M109.15,13.64v8.05H98v-8h11.18m.6-.6H97.37v9.25h12.38V13Z"/><rect class="cls-10" x="98.34" y="14.01" width="10.45" height="7.32"/><polygon class="cls-11" points="99.56 19.2 99.56 21.04 107.56 21.04 107.56 19.2 107.32 19.14 107.32 17.9 107.56 17.83 107.56 15.55 105.79 15.55 105.79 14.62 105.09 14.62 105.09 14.3 102.03 14.3 102.03 14.62 101.34 14.62 101.34 15.55 99.56 15.55 99.56 17.83 99.8 17.9 99.8 19.14 99.56 19.2"/><rect class="cls-43" x="99.56" y="14.62" width="1.78" height="0.92"/><rect class="cls-43" x="105.79" y="14.62" width="1.77" height="0.92"/><rect class="cls-12" x="101.75" y="18.59" width="0.38" height="2.43"/><path class="cls-13" d="M102,18.69v2.23h-.19V18.69H102m.2-.2h-.59v2.63h.59V18.49Z"/><rect class="cls-12" x="102.4" y="18.59" width="0.38" height="2.43"/><path class="cls-13" d="M102.68,18.69v2.23h-.18V18.69h.18m.2-.2h-.58v2.63h.58V18.49Z"/><rect class="cls-12" x="103.04" y="18.59" width="0.38" height="2.43"/><path class="cls-13" d="M103.33,18.69v2.23h-.18V18.69h.18m.2-.2H103v2.63h.58V18.49Z"/><rect class="cls-12" x="103.69" y="18.59" width="0.38" height="2.43"/><path class="cls-13" d="M104,18.69v2.23h-.18V18.69H104m.2-.2h-.58v2.63h.58V18.49Z"/><rect class="cls-12" x="104.33" y="18.59" width="0.38" height="2.43"/><path class="cls-13" d="M104.62,18.69v2.23h-.19V18.69h.19m.2-.2h-.59v2.63h.59V18.49Z"/><rect class="cls-12" x="104.98" y="18.59" width="0.38" height="2.43"/><path class="cls-13" d="M105.26,18.69v2.23h-.18V18.69h.18m.2-.2h-.58v2.63h.58V18.49Z"/><rect class="cls-12" x="105.62" y="18.59" width="0.38" height="2.43"/><path class="cls-13" d="M105.91,18.69v2.23h-.19V18.69h.19m.2-.2h-.59v2.63h.59V18.49Z"/><rect class="cls-12" x="101.11" y="18.59" width="0.38" height="2.43"/><path class="cls-13" d="M101.39,18.69v2.23h-.18V18.69h.18m.2-.2H101v2.63h.58V18.49Z"/><path class="cls-44" d="M122,16.41a.59.59,0,0,1,.42.17l.38.39a.57.57,0,0,1,.17.41V18a.58.58,0,0,1-.58.59h-4.08a.58.58,0,0,1-.58-.59v-.57a.57.57,0,0,1,.17-.41l.38-.39a.57.57,0,0,1,.41-.17Z"/><path class="cls-45" d="M118,17.38V18a.36.36,0,0,0,.36.36h4.07a.36.36,0,0,0,.36-.36v-.57a.35.35,0,0,0-.1-.26l-.38-.38a.35.35,0,0,0-.26-.1h-3.31a.35.35,0,0,0-.26.1l-.38.38A.4.4,0,0,0,118,17.38Z"/><path class="cls-46" d="M118,17.44v.44a.38.38,0,0,0,.37.38h4a.38.38,0,0,0,.38-.38v-.44a.36.36,0,0,0-.11-.26l-.38-.38a.39.39,0,0,0-.27-.11h-3.21a.39.39,0,0,0-.27.11l-.37.38A.36.36,0,0,0,118,17.44Z"/><path class="cls-47" d="M118.21,17.44v.44a.19.19,0,0,0,.19.19h4a.19.19,0,0,0,.19-.19v-.44a.16.16,0,0,0-.06-.13l-.37-.38a.24.24,0,0,0-.14-.05h-3.21a.19.19,0,0,0-.13.05l-.38.38A.16.16,0,0,0,118.21,17.44Z"/><polygon class="cls-12" points="120.21 17.7 120.21 17.59 120.51 17.54 120.56 17.54 120.56 17.7 120.21 17.7"/><path class="cls-13" d="M120.51,17.59v.06h-.25v-.06h.25m.1-.1h-.45v.26h.45v-.26Z"/><polygon class="cls-12" points="119.8 17.7 119.8 17.59 120.1 17.54 120.15 17.54 120.15 17.7 119.8 17.7"/><path class="cls-13" d="M120.1,17.59v.06h-.25v-.06h.25m.1-.1h-.45v.26h.45v-.26Z"/><polygon class="cls-12" points="119.39 17.7 119.39 17.59 119.69 17.54 119.74 17.54 119.74 17.7 119.39 17.7"/><path class="cls-13" d="M119.69,17.59v.06h-.25v-.06h.25m.1-.1h-.45v.26h.45v-.26Z"/><polygon class="cls-12" points="121.03 17.7 121.03 17.59 121.33 17.54 121.38 17.54 121.38 17.7 121.03 17.7"/><path class="cls-13" d="M121.33,17.59v.06h-.25v-.06h.25m.1-.1H121v.26h.45v-.26Z"/><polygon class="cls-48" points="120.62 17.7 120.62 17.59 120.92 17.54 120.97 17.54 120.97 17.7 120.62 17.7"/><path class="cls-13" d="M120.92,17.59v.06h-.25v-.06h.25m.1-.1h-.45v.26H121v-.26Z"/><path class="cls-18" d="M120.25,16.64H119a.12.12,0,0,0-.07.11v.13h1.49v-.13a.12.12,0,0,0-.07-.11Z"/><path class="cls-18" d="M121.77,16.64h-1.3a.12.12,0,0,0-.07.11v.13h1.5v-.13a.12.12,0,0,0-.08-.11Z"/><path class="cls-18" d="M122.78,17.53a.12.12,0,0,0-.1-.05h-.12v.37h.12a.12.12,0,0,0,.1-.05Z"/><path class="cls-18" d="M118.59,18.31h3.64a.12.12,0,0,0,.08-.11v-.13h-3.84v.13a.12.12,0,0,0,.07.11Z"/><path class="cls-18" d="M118,17.8a.12.12,0,0,0,.1.05h.12v-.37h-.12a.12.12,0,0,0-.1.05Z"/><path class="cls-49" d="M119.85,17.53h-.16v.12h-.25v-.12h0a.09.09,0,0,0-.1.1h0v.15a.1.1,0,0,0,.1.11h2a.11.11,0,0,0,.11-.11v-.15a.1.1,0,0,0-.11-.1h0v.12h-.25v-.12h-.16v.12h-.25v-.12h-.16v.12h-.25v-.12h-.16v.12h-.25Z"/><rect class="cls-8" x="126.27" y="17.24" width="8.59" height="3.97" rx="0.57"/><polygon class="cls-50" points="126.88 17.24 126.88 21.21 129.73 21.21 129.73 20.93 130.49 20.93 130.63 20.93 131.39 20.93 131.39 21.21 134.25 21.21 134.25 17.24 126.88 17.24"/><path class="cls-9" d="M134.29,17.48h-7.45a.33.33,0,0,0-.33.33v2.83a.32.32,0,0,0,.33.32h7.45a.32.32,0,0,0,.32-.32V17.81a.32.32,0,0,0-.32-.33Z"/><path class="cls-47" d="M134.29,17.61h-7.45a.2.2,0,0,0-.2.2h0v2.83a.2.2,0,0,0,.2.2h7.45a.2.2,0,0,0,.2-.2V17.81a.2.2,0,0,0-.2-.2Z"/><polygon class="cls-51" points="128.1 19.25 128.04 18.91 128.59 18.84 128.66 19.18 128.66 19.25 128.1 19.25"/><path class="cls-52" d="M128.59,18.91v.27h-.49v-.27h.49m.14-.14H128v.54h.76v-.54Z"/><polygon class="cls-51" points="132.53 19.25 132.46 18.91 133.02 18.84 133.09 19.18 133.09 19.25 132.53 19.25"/><path class="cls-52" d="M133,18.91v.27h-.49v-.27H133m.13-.14h-.75v.54h.75v-.54Z"/><polygon class="cls-51" points="129.75 19.25 129.68 18.91 130.24 18.84 130.3 19.18 130.3 19.25 129.75 19.25"/><path class="cls-52" d="M130.24,18.91v.27h-.49v-.27h.49m.13-.14h-.75v.54h.75v-.54Z"/><polygon class="cls-51" points="130.89 19.25 130.82 18.91 131.38 18.84 131.44 19.18 131.44 19.25 130.89 19.25"/><path class="cls-52" d="M131.37,18.91v.27h-.48v-.27h.48m.14-.14h-.76v.54h.76v-.54Z"/><polygon class="cls-48" points="128.1 19.43 128.04 19.09 128.59 19.02 128.66 19.36 128.66 19.43 128.1 19.43"/><path class="cls-13" d="M128.59,19.09v.27h-.49v-.27h.49m.14-.14H128v.54h.76V19Z"/><polygon class="cls-48" points="132.53 19.43 132.46 19.09 133.02 19.02 133.09 19.36 133.09 19.43 132.53 19.43"/><path class="cls-13" d="M133,19.09v.27h-.49v-.27H133m.13-.14h-.75v.54h.75V19Z"/><polygon class="cls-48" points="129.75 19.43 129.68 19.09 130.24 19.02 130.3 19.36 130.3 19.43 129.75 19.43"/><path class="cls-13" d="M130.24,19.09v.27h-.49v-.27h.49m.13-.14h-.75v.54h.75V19Z"/><polygon class="cls-48" points="130.89 19.43 130.82 19.09 131.38 19.02 131.44 19.36 131.44 19.43 130.89 19.43"/><path class="cls-13" d="M131.37,19.09v.27h-.48v-.27h.48m.14-.14h-.76v.54h.76V19Z"/><rect class="cls-53" x="127.33" y="19.47" width="6.47" height="0.66"/><path class="cls-21" d="M133.55,19.72v.17h-6v-.17h6m.5-.5h-7v1.17h7V19.22Z"/><rect class="cls-9" x="134.49" y="18.05" width="0.37" height="2.35"/><rect class="cls-9" x="126.27" y="18.05" width="0.37" height="2.35"/></g><g id="E2800_Latch" data-name="E2800 Latch"><rect class="cls-14" x="130.62" y="32.89" width="12.1" height="0.79"/><path class="cls-49" d="M52.87,31.16V34.3h80.76a.16.16,0,0,0,.16-.15h0V32.42a.16.16,0,0,0-.16-.16H79.94a.16.16,0,0,1-.15-.16v-.78a.16.16,0,0,0-.16-.16H52.87Z"/><path class="cls-54" d="M57.84,31.16H50.51V34.3H72.58V31.16h-1a6.14,6.14,0,0,1-1.65-.23l-3.83-1.11a5.63,5.63,0,0,0-1.46-.23h-5a.4.4,0,0,0-.32.16L58.16,31A.43.43,0,0,1,57.84,31.16Z"/><path class="cls-54" d="M52.52,31.16H41.43V34.3H57.28a.31.31,0,0,0,.31-.31h0V29.9a.31.31,0,0,0-.31-.31H55.1a.77.77,0,0,0-.48.16L53,31A.84.84,0,0,1,52.52,31.16Z"/><path class="cls-55" d="M52.87,31.16H6.48a.16.16,0,0,0-.16.16v2.83a.16.16,0,0,0,.16.15H52.87Z"/><path class="cls-56" d="M71.68,31.72H69.86a6.09,6.09,0,0,1-1.59-.21l-3.51-.93a5.57,5.57,0,0,0-1.41-.19h-2v3.19H71.68Z"/><polygon class="cls-57" points="63.98 31.95 62.74 31.34 62.74 32.63 63.98 31.95"/></g><g id="Sandhawk-2" data-name="Sandhawk"><rect class="cls-58" x="42.35" y="71.13" width="151.33" height="91.52"/><rect class="cls-2" x="42.35" y="71.13" width="151.33" height="91.52"/><rect class="cls-8" x="42.35" y="73.87" width="151.33" height="86.42"/><rect class="cls-34" x="42.35" y="71.63" width="151.33" height="94.54"/><rect class="cls-2" x="42.35" y="71.13" width="151.33" height="94.54"/><path class="cls-5" d="M49.16,96.57a7.83,7.83,0,0,0-6.81,4v7.77a7.85,7.85,0,1,0,6.81-11.74Z"/><path class="cls-6" d="M53.4,104.43a4.24,4.24,0,1,0-4.24,4.24A4.24,4.24,0,0,0,53.4,104.43Z"/><path class="cls-5" d="M193.68,97a7.85,7.85,0,1,0,0,14.86Z"/><path class="cls-6" d="M193.68,101a4.23,4.23,0,1,0-2.52,7.63,4.27,4.27,0,0,0,2.52-.85Z"/></g><g id="Sandhawk_Blank-2" data-name="Sandhawk Blank"><path class="cls-7" d="M193.68,112.77a9.1,9.1,0,0,1-1.15.26,8.71,8.71,0,0,1-2.76-17.2,9,9,0,0,1,3.91.27V75.73H42.35V99a8.63,8.63,0,0,1,5.43-3.2,8.71,8.71,0,1,1-5.43,14v51.73H193.68Zm-81.86-.69a2.14,2.14,0,0,1-2.13,2.13H69.58a2.13,2.13,0,0,1-2.13-2.13V85.2a2.13,2.13,0,0,1,2.13-2.13h40.1a2.13,2.13,0,0,1,2.14,2.13Zm60.3,0a2.14,2.14,0,0,1-2.13,2.14H129.84a2.14,2.14,0,0,1-2.14-2.14V85.18a2.13,2.13,0,0,1,2.14-2.13H170a2.13,2.13,0,0,1,2.14,2.13Z"/><path class="cls-25" d="M86.9,77h1.37a1,1,0,1,1,0,2h-.7V80H86.9Zm.67,1.43h.52c.31,0,.58-.07.58-.46s-.27-.45-.58-.45h-.52Z"/><path class="cls-25" d="M91.54,80h-.61V78.09h-.75v-.45c.42,0,.81-.14.88-.59h.48Z"/><path class="cls-25" d="M147.18,77h1.37a1,1,0,1,1,0,2h-.7V80h-.67Zm.67,1.43h.52c.31,0,.58-.07.58-.46s-.27-.45-.58-.45h-.52Z"/><path class="cls-25" d="M150.31,78.19a1,1,0,0,1,1.08-1.2,1,1,0,0,1,1,.93,1,1,0,0,1-.54.9,3.14,3.14,0,0,0-.85.69h1.4V80h-2.18c0-.68.42-1,.94-1.33.26-.18.62-.36.62-.72a.43.43,0,0,0-.44-.46c-.36,0-.48.37-.48.68Z"/><path class="cls-25" d="M121.66,91.19l.39-.67h.5v-.2a1.08,1.08,0,0,0-.57-.16,1.06,1.06,0,0,0-1,.59h-2.84A1.23,1.23,0,0,0,117,90a1.25,1.25,0,0,0-.66.2v.29H117l.44.77L117,92h-.58v.23a1.24,1.24,0,0,0,.66.19,1.22,1.22,0,0,0,1.17-.86H121a1.08,1.08,0,0,0,1,.72,1.06,1.06,0,0,0,.58-.17v-.26h-.51Z"/><polygon class="cls-15" points="119.56 106.64 120.38 106.64 120.38 107.29 122.09 107.29 122.09 105.75 120.38 105.75 120.38 106.53 119.56 106.53 119.56 102.45 120.39 102.45 120.39 103.18 122.1 103.18 122.1 101.63 120.39 101.63 120.39 102.33 119.56 102.33 119.56 101.63 119.45 101.63 119.45 104.53 118.53 104.53 118.53 103.78 116.82 103.78 116.82 105.32 118.53 105.32 118.53 104.64 119.45 104.64 119.45 107.3 119.56 107.3 119.56 106.64"/><path class="cls-5" d="M49.16,96.57a7.83,7.83,0,0,0-6.81,4v7.77a7.85,7.85,0,1,0,6.81-11.74Z"/><path class="cls-41" d="M49.16,97.26a7.16,7.16,0,0,0-6.81,5v4.42a7.17,7.17,0,1,0,6.81-9.38Z"/><path class="cls-42" d="M46.28,102.69l.52.52a1.73,1.73,0,0,1,0,2.44h0l-.5.5a.56.56,0,0,0,0,.81h0l.33.34a.58.58,0,0,0,.81,0l.51-.51a1.72,1.72,0,0,1,2.43,0l.52.52a.56.56,0,0,0,.81,0l.34-.33a.59.59,0,0,0,0-.82h0l-.52-.51a1.73,1.73,0,0,1,0-2.44h0l.5-.5a.56.56,0,0,0,0-.81h0l-.33-.34a.59.59,0,0,0-.82,0l-.5.5a1.7,1.7,0,0,1-2.43,0l-.52-.51a.56.56,0,0,0-.81,0l-.34.33a.58.58,0,0,0,0,.81Z"/><path class="cls-5" d="M193.68,97a7.85,7.85,0,1,0,0,14.86Z"/><path class="cls-41" d="M193.68,97.72a7.31,7.31,0,0,0-2.52-.46,7.17,7.17,0,1,0,0,14.34,7.09,7.09,0,0,0,2.52-.47Z"/><path class="cls-42" d="M193.68,105.8l-.16-.15a1.73,1.73,0,0,1,0-2.44l.16-.16v-1.5a.58.58,0,0,0-.8,0l-.51.5a1.7,1.7,0,0,1-2.43,0l-.52-.51a.56.56,0,0,0-.81,0l-.34.33a.58.58,0,0,0,0,.81l.52.52a1.73,1.73,0,0,1,0,2.44l-.5.5a.56.56,0,0,0,0,.81l.33.34a.59.59,0,0,0,.82,0l.5-.51a1.72,1.72,0,0,1,2.43,0l.52.52a.57.57,0,0,0,.79,0Z"/><rect class="cls-8" x="125.85" y="81.32" width="48.13" height="34.84"/><path class="cls-9" d="M173.68,81.62v34.24H126.15V81.62h47.53m.6-.6H125.55v35.44h48.73V81Z"/><rect class="cls-10" x="127.7" y="83.18" width="44.41" height="31.13"/><polygon class="cls-11" points="132.91 105.28 132.91 113.08 166.92 113.08 166.92 105.28 165.89 104.99 165.89 99.74 166.92 99.45 166.92 89.72 159.38 89.72 159.38 85.8 156.41 85.8 156.41 84.41 143.42 84.41 143.42 85.8 140.46 85.8 140.46 89.72 132.91 89.72 132.91 99.45 133.93 99.74 133.93 104.99 132.91 105.28"/><rect class="cls-43" x="132.91" y="85.8" width="7.55" height="3.92"/><rect class="cls-43" x="159.38" y="85.8" width="7.53" height="3.92"/><rect class="cls-12" x="142.57" y="103" width="0.99" height="9.7"/><path class="cls-13" d="M143.45,103.1v9.49h-.78V103.1h.78m.2-.2h-1.18v9.89h1.18V102.9Z"/><rect class="cls-12" x="145.32" y="103" width="0.98" height="9.7"/><path class="cls-13" d="M146.19,103.1v9.49h-.77V103.1h.77m.2-.2h-1.17v9.89h1.17V102.9Z"/><rect class="cls-12" x="148.05" y="103" width="0.98" height="9.7"/><path class="cls-13" d="M148.93,103.1v9.49h-.78V103.1h.78m.2-.2H148v9.89h1.18V102.9Z"/><rect class="cls-12" x="150.79" y="103" width="0.98" height="9.7"/><path class="cls-13" d="M151.67,103.1v9.49h-.78V103.1h.78m.2-.2h-1.18v9.89h1.18V102.9Z"/><rect class="cls-12" x="153.53" y="103" width="0.98" height="9.7"/><path class="cls-13" d="M154.41,103.1v9.49h-.78V103.1h.78m.2-.2h-1.18v9.89h1.18V102.9Z"/><rect class="cls-12" x="156.28" y="103" width="0.98" height="9.7"/><path class="cls-13" d="M157.16,103.1v9.49h-.78V103.1h.78m.2-.2h-1.18v9.89h1.18V102.9Z"/><rect class="cls-12" x="159.02" y="103" width="0.98" height="9.7"/><path class="cls-13" d="M159.89,103.1v9.49h-.77V103.1h.77m.2-.2h-1.17v9.89h1.17V102.9Z"/><rect class="cls-12" x="139.83" y="103" width="0.98" height="9.7"/><path class="cls-13" d="M140.71,103.1v9.49h-.78V103.1h.78m.2-.2h-1.18v9.89h1.18V102.9Z"/><rect class="cls-8" x="65.57" y="81.32" width="48.13" height="34.84"/><path class="cls-9" d="M113.4,81.62v34.24H65.87V81.62H113.4m.6-.6H65.27v35.44H114V81Z"/><rect class="cls-10" x="67.43" y="83.18" width="44.41" height="31.13"/><polygon class="cls-11" points="72.63 105.28 72.63 113.08 106.64 113.08 106.64 105.28 105.61 104.99 105.61 99.74 106.64 99.45 106.64 89.72 99.1 89.72 99.1 85.8 96.13 85.8 96.13 84.41 83.14 84.41 83.14 85.8 80.18 85.8 80.18 89.72 72.63 89.72 72.63 99.45 73.65 99.74 73.65 104.99 72.63 105.28"/><rect class="cls-43" x="72.63" y="85.8" width="7.55" height="3.92"/><rect class="cls-43" x="99.1" y="85.8" width="7.53" height="3.92"/><rect class="cls-12" x="82.29" y="103" width="0.99" height="9.7"/><path class="cls-13" d="M83.18,103.1v9.49h-.79V103.1h.79m.2-.2H82.19v9.89h1.19V102.9Z"/><rect class="cls-12" x="85.04" y="103" width="0.98" height="9.7"/><path class="cls-13" d="M85.91,103.1v9.49h-.77V103.1h.77m.2-.2H84.94v9.89h1.17V102.9Z"/><rect class="cls-12" x="87.78" y="103" width="0.98" height="9.7"/><path class="cls-13" d="M88.65,103.1v9.49h-.77V103.1h.77m.2-.2H87.68v9.89h1.17V102.9Z"/><rect class="cls-12" x="90.51" y="103" width="0.98" height="9.7"/><path class="cls-13" d="M91.39,103.1v9.49h-.78V103.1h.78m.2-.2H90.41v9.89h1.18V102.9Z"/><rect class="cls-12" x="93.25" y="103" width="0.98" height="9.7"/><path class="cls-13" d="M94.13,103.1v9.49h-.78V103.1h.78m.2-.2H93.15v9.89h1.18V102.9Z"/><rect class="cls-12" x="96" y="103" width="0.98" height="9.7"/><path class="cls-13" d="M96.88,103.1v9.49H96.1V103.1h.78m.2-.2H95.9v9.89h1.18V102.9Z"/><rect class="cls-12" x="98.74" y="103" width="0.98" height="9.7"/><path class="cls-13" d="M99.62,103.1v9.49h-.78V103.1h.78m.2-.2H98.64v9.89h1.18V102.9Z"/><rect class="cls-12" x="79.55" y="103" width="0.98" height="9.7"/><path class="cls-13" d="M80.43,103.1v9.49h-.78V103.1h.78m.2-.2H79.45v9.89h1.18V102.9Z"/></g><g id="E2800_Latch-2" data-name="E2800 Latch"><path class="cls-49" d="M193.68,160.79H49.5a.68.68,0,0,1-.68-.67v-3.34a.67.67,0,0,0-.67-.67h-5.8v13.37H193.68Z"/></g><polyline class="cls-59" points="193.68 71.13 114.52 10.52 78.28 10.52 42.34 71.13"/><rect class="cls-60" x="78.28" y="11.17" width="36.24" height="23.13"/><rect class="cls-61" x="42.28" y="71.48" width="151.4" height="96.63"/><path class="cls-62" d="M149.76,85.89a7.9,7.9,0,1,0,7.9,7.89A7.9,7.9,0,0,0,149.76,85.89Zm0,3a4.82,4.82,0,0,1,2.08.48l-6.49,6.49a4.82,4.82,0,0,1-.48-2.08A4.89,4.89,0,0,1,149.76,88.89Zm0,9.79A4.87,4.87,0,0,1,147.4,98L154,91.42a4.77,4.77,0,0,1,.64,2.36A4.91,4.91,0,0,1,149.76,98.68Z"/><polygon class="cls-63" points="81.73 93.92 84.21 91.45 88.35 95.59 95.86 88.08 98.33 90.56 88.35 100.54 81.73 93.92"/><path class="cls-25" d="M95.86,88.44,98,90.56l-9.63,9.63-6.26-6.27,2.12-2.12,4.14,4.14,7.51-7.5m0-.71-.35.35-7.16,7.16-3.79-3.79-.35-.35-.36.35-2.12,2.12-.35.35.35.36L88,100.54l.35.35.35-.35,9.63-9.63.36-.35-.36-.36-2.12-2.12-.35-.35Z"/><rect class="cls-64" x="65.83" y="81.61" width="47.53" height="34.24"/></g></svg>