<svg id="Layer_1" data-name="Layer 1" xmlns="http://www.w3.org/2000/svg" viewBox="0 0 405.36 126"><defs><style>.cls-1{fill:#ccc;}.cls-1,.cls-17,.cls-23,.cls-25,.cls-28,.cls-29,.cls-3,.cls-31,.cls-33,.cls-35,.cls-39,.cls-4,.cls-41,.cls-42,.cls-43,.cls-44,.cls-46,.cls-47,.cls-48,.cls-5,.cls-54,.cls-57,.cls-6,.cls-63,.cls-64{fill-rule:evenodd;}.cls-2,.cls-33,.cls-38,.cls-40,.cls-65{fill:none;}.cls-11,.cls-2,.cls-52{stroke:gray;}.cls-11,.cls-2,.cls-38,.cls-40,.cls-52{stroke-linecap:round;}.cls-11,.cls-2,.cls-38,.cls-40,.cls-51,.cls-52{stroke-linejoin:round;}.cls-2{stroke-width:0.64px;}.cls-20,.cls-3{fill:#1a1a1a;}.cls-4,.cls-8{fill:#eee;}.cls-5,.cls-55{fill:silver;}.cls-5,.cls-54,.cls-55,.cls-6{stroke:#595a5c;}.cls-12,.cls-13,.cls-14,.cls-5,.cls-54,.cls-55,.cls-6,.cls-65{stroke-miterlimit:10;}.cls-11,.cls-12,.cls-13,.cls-14,.cls-5,.cls-54,.cls-55{stroke-width:0.1px;}.cls-18,.cls-6{fill:#414142;}.cls-6{stroke-width:0.06px;}.cls-41,.cls-7{fill:#404040;}.cls-9{fill:#6e6f71;}.cls-10,.cls-44{fill:#d0d2d3;}.cls-11,.cls-21{fill:#e6e7e7;}.cls-12,.cls-43{fill:#262626;}.cls-12{stroke:#d0d2d3;}.cls-13,.cls-49{fill:#bfbfbf;}.cls-13,.cls-14{stroke:#929497;}.cls-14,.cls-15,.cls-42{fill:#d9d9d9;}.cls-16,.cls-17,.cls-19{fill:#333;}.cls-19{font-size:3.82px;}.cls-19,.cls-61{font-family:Arial-BoldMT, Arial;}.cls-19,.cls-36,.cls-61{font-weight:700;}.cls-22,.cls-47{fill:#e6e6e6;}.cls-23{fill:#292929;}.cls-24{fill:#54924d;}.cls-25,.cls-45{fill:#ffce07;}.cls-26{fill:#e0d385;}.cls-27,.cls-28{fill:#f2f2f2;}.cls-29,.cls-30,.cls-52{fill:#d0cfcd;}.cls-31,.cls-32,.cls-61{fill:#fff;}.cls-33{stroke:#fff;stroke-miterlimit:2.61;stroke-width:0.3px;}.cls-34,.cls-35,.cls-36{fill:#2d2a26;}.cls-36{font-size:2.97px;font-family:HelveticaNeueLTStd-Bd, Helvetica Neue LT Std;letter-spacing:0.02em;}.cls-37{fill:#e8e6de;}.cls-38{stroke:#9a9a9a;}.cls-38,.cls-40{stroke-width:0.01px;}.cls-39,.cls-59{fill:#666;}.cls-40{stroke:#b3b3b3;}.cls-46{fill:#4d4d4d;}.cls-48{fill:#2e2e2e;}.cls-50{fill:gray;}.cls-51{fill:#ffcd0a;stroke:#e0d385;stroke-width:0.08px;}.cls-52{stroke-width:0.01px;}.cls-53{fill:#808184;}.cls-54{fill:#ddd;}.cls-56{fill:#bbbdbf;}.cls-57{fill:#c9992c;}.cls-58{fill:#aea069;}.cls-60{fill:#006db6;}.cls-61{font-size:3.27px;}.cls-62{fill:#565656;}.cls-63{fill:#6a6a6a;}.cls-64{fill:#f4855c;}.cls-65{stroke:#f7941d;stroke-width:1.25px;}.cls-66{fill:#010101;}.cls-67{font-size:12px;fill:#231f20;font-family:ArialMT, Arial;letter-spacing:-0.07em;}</style></defs><title>Artboard 12_Source</title><path class="cls-1" d="M352.21,82.39V38.08a1.81,1.81,0,0,0-1.79-1.79h-293a1.81,1.81,0,0,0-1.79,1.79V82.39H57.1v.35a1.61,1.61,0,0,0,1.59,1.64H349.18a1.62,1.62,0,0,0,1.59-1.64h0v-.35Z"/><path class="cls-2" d="M352.21,82.39V38.08a1.81,1.81,0,0,0-1.79-1.79h-293a1.81,1.81,0,0,0-1.79,1.79V82.39H57.1v.35a1.61,1.61,0,0,0,1.59,1.64H349.18a1.62,1.62,0,0,0,1.59-1.64h0v-.35Z"/><path class="cls-3" d="M58.69,83.14H349.18a.39.39,0,0,0,.35-.4h0V77.38h1.24V38.08a.34.34,0,0,0-.35-.35h-293a.34.34,0,0,0-.35.35v39.3h1.24v5.36A.39.39,0,0,0,58.69,83.14Z"/><path class="cls-4" d="M348.63,36.56H59.23v2.53a.67.67,0,0,1-.69.69H57.1V82.66h1.44a.72.72,0,0,1,.69.74h0v2.83h289.4V83.4a.72.72,0,0,1,.7-.74h1.44V39.78h-1.44a.68.68,0,0,1-.7-.69Z"/><path class="cls-2" d="M348.63,36.29H59.23v2.53a.68.68,0,0,1-.69.7H57.1V82.39h1.44a.72.72,0,0,1,.69.75h0V86h289.4V83.14a.73.73,0,0,1,.7-.75h1.44V39.52h-1.44a.68.68,0,0,1-.7-.7Z"/><path class="cls-5" d="M235.41,54.18a4.13,4.13,0,1,0-4.13,4.13A4.12,4.12,0,0,0,235.41,54.18Z"/><path class="cls-6" d="M233.51,54.18a2.23,2.23,0,1,0-2.23,2.23A2.22,2.22,0,0,0,233.51,54.18Z"/><path class="cls-5" d="M295.6,54.18a4.13,4.13,0,1,0-4.13,4.13A4.12,4.12,0,0,0,295.6,54.18Z"/><path class="cls-6" d="M293.7,54.18a2.23,2.23,0,1,0-2.23,2.23A2.22,2.22,0,0,0,293.7,54.18Z"/><path class="cls-7" d="M61.6,39h0a1.38,1.38,0,0,0-1.38,1.38V81.9a1.38,1.38,0,0,0,1.38,1.38H180.91a1.09,1.09,0,0,0,1.09-1.1v-21H162.6V42.47h25.73v18h4.8v-18h25.63v18h3.6a1.38,1.38,0,0,0,1.38-1.38v-19a1.1,1.1,0,0,0-1.1-1.1Zm95.34,22.15H131.26V42.47h25.68Z"/><rect class="cls-8" x="81.48" y="48.25" width="42.98" height="15.93"/><rect class="cls-9" x="82.77" y="49.71" width="40.41" height="13"/><path class="cls-10" d="M122.92,50V62.47H83V50h39.9m.5-.5H82.52V63h40.9V49.46Z"/><rect class="cls-11" x="83.29" y="50.24" width="39.36" height="11.96"/><rect class="cls-12" x="83.53" y="50.46" width="19.31" height="11.5"/><rect class="cls-13" x="89.09" y="50.24" width="8.21" height="0.23"/><rect class="cls-14" x="89.87" y="50.24" width="6.64" height="0.65"/><rect class="cls-12" x="103.09" y="50.48" width="19.31" height="11.5"/><rect class="cls-13" x="108.64" y="50.25" width="8.21" height="0.23"/><rect class="cls-14" x="109.43" y="50.25" width="6.64" height="0.65"/><path class="cls-15" d="M71.81,39V64.18h9.67V48.25h43V39Z"/><rect class="cls-16" x="73.81" y="57.4" width="5.97" height="0.47"/><rect class="cls-16" x="73.81" y="60.65" width="5.97" height="0.47"/><polyline class="cls-16" points="76.67 59.09 75.92 59.09 75.92 58.3 73.68 59.5 76.67 59.5"/><polyline class="cls-16" points="76.66 59.51 77.39 59.51 77.39 60.3 79.63 59.09 76.66 59.09"/><polygon class="cls-17" points="76.88 56.01 77.66 56.01 77.66 56.62 79.26 56.62 79.26 55.17 77.66 55.17 77.66 55.9 76.88 55.9 76.88 52.08 77.66 52.08 77.66 52.76 79.27 52.76 79.27 51.31 77.66 51.31 77.66 51.97 76.88 51.97 76.88 51.31 76.78 51.31 76.78 54.03 75.92 54.03 75.92 53.32 74.32 53.32 74.32 54.77 75.92 54.77 75.92 54.13 76.78 54.13 76.78 56.63 76.88 56.63 76.88 56.01"/><path class="cls-18" d="M118.36,42.88a1.51,1.51,0,0,1,1.51,1.5h0a1.51,1.51,0,1,1-1.51-1.5Z"/><path class="cls-18" d="M107.77,42.88a1.51,1.51,0,0,1,1.51,1.5h0a1.51,1.51,0,1,1-1.51-1.5Z"/><path class="cls-18" d="M98.07,42.88a1.51,1.51,0,0,1,1.51,1.5h0a1.51,1.51,0,1,1-1.51-1.5Z"/><path class="cls-18" d="M87.57,42.88a1.51,1.51,0,0,1,1.51,1.5h0a1.51,1.51,0,1,1-1.51-1.5Z"/><path class="cls-17" d="M98.32,42.05a.24.24,0,0,0-.24-.24.24.24,0,0,0-.25.24.25.25,0,0,0,.49,0Z"/><path class="cls-17" d="M98.26,40.16a.19.19,0,0,0-.19-.21.2.2,0,0,0-.18.22h0L98,41.6a.11.11,0,0,0,.21,0l.08-1.44Z"/><path class="cls-16" d="M84.92,42.28V40h.39v1.92h1v.4Z"/><path class="cls-16" d="M86.56,42.28V39.94h.37l.79,1.56V39.94h.36v2.34h-.39l-.77-1.53v1.53Z"/><path class="cls-16" d="M88.49,42.28V39.94h.39v1l.79-1h.52l-.73.91.77,1.43h-.5l-.53-1.1-.32.39v.71Z"/><path class="cls-17" d="M118.61,42.05a.24.24,0,0,0-.24-.24.24.24,0,0,0-.25.24.25.25,0,0,0,.49,0Z"/><path class="cls-17" d="M118.55,40.16a.2.2,0,0,0-.19-.21.2.2,0,0,0-.19.22h0l.09,1.42a.12.12,0,0,0,.12.1.13.13,0,0,0,.09-.1l.08-1.44Z"/><path class="cls-16" d="M105.12,42.28V40h.39v1.92h1v.4Z"/><path class="cls-16" d="M106.76,42.28V39.94h.37l.79,1.56V39.94h.36v2.34h-.39l-.77-1.53v1.53Z"/><path class="cls-16" d="M108.69,42.28V39.94h.39v1l.79-1h.52l-.73.91.77,1.43h-.5l-.53-1.1-.32.39v.71Z"/><text class="cls-19" transform="translate(91.07 46.64)">0a</text><text class="cls-19" transform="translate(110.52 46.64)">0b</text><rect class="cls-15" x="131.26" y="39" width="57.07" height="22.15"/><rect class="cls-20" x="131.49" y="42.64" width="25.27" height="18.29"/><path class="cls-21" d="M156.61,42.79v18h-25v-18h25m.3-.3H131.34V61.08h25.57V42.49Z"/><rect class="cls-22" x="132.45" y="43.6" width="23.34" height="16.35"/><polygon class="cls-23" points="135.19 55.22 135.19 59.31 153.06 59.31 153.06 55.22 152.52 55.06 152.52 52.31 153.06 52.15 153.06 47.04 149.1 47.04 149.1 44.98 147.53 44.98 147.53 44.25 140.71 44.25 140.71 44.98 139.16 44.98 139.16 47.04 135.19 47.04 135.19 52.15 135.73 52.31 135.73 55.06 135.19 55.22"/><rect class="cls-24" x="135.19" y="44.98" width="3.97" height="2.06"/><rect class="cls-24" x="149.1" y="44.98" width="3.96" height="2.06"/><polygon class="cls-25" points="140.32 59.11 140.27 54.07 140.73 54.02 140.78 59.11 140.32 59.11"/><path class="cls-26" d="M140.73,54.07v5h-.41v-5h.41m.1-.1h-.61v5.19h.61V54Z"/><polygon class="cls-25" points="141.76 59.11 141.71 54.07 142.17 54.02 142.22 59.11 141.76 59.11"/><path class="cls-26" d="M142.17,54.07v5h-.41v-5h.41m.1-.1h-.61v5.19h.61V54Z"/><polygon class="cls-25" points="143.2 59.11 143.15 54.07 143.61 54.02 143.66 59.11 143.2 59.11"/><path class="cls-26" d="M143.61,54.07v5h-.41v-5h.41m.1-.1h-.61v5.19h.61V54Z"/><polygon class="cls-25" points="144.64 59.11 144.59 54.07 145.05 54.02 145.1 59.11 144.64 59.11"/><path class="cls-26" d="M145.05,54.07v5h-.41v-5h.41m.1-.1h-.61v5.19h.61V54Z"/><polygon class="cls-25" points="146.08 59.11 146.03 54.07 146.48 54.02 146.53 59.11 146.08 59.11"/><path class="cls-26" d="M146.48,54.07v5h-.4v-5h.4m.1-.1H146v5.19h.6V54Z"/><polygon class="cls-25" points="147.52 59.11 147.47 54.07 147.93 54.02 147.98 59.11 147.52 59.11"/><path class="cls-26" d="M147.93,54.07v5h-.41v-5h.41m.1-.1h-.61v5.19H148V54Z"/><polygon class="cls-25" points="148.96 59.11 148.91 54.07 149.37 54.02 149.42 59.11 148.96 59.11"/><path class="cls-26" d="M149.37,54.07v5H149v-5h.41m.1-.1h-.61v5.19h.61V54Z"/><polygon class="cls-25" points="138.88 59.11 138.83 54.07 139.28 54.02 139.34 59.11 138.88 59.11"/><path class="cls-26" d="M139.29,54.07v5h-.41v-5h.41m.1-.1h-.61v5.19h.61V54Z"/><rect class="cls-20" x="162.87" y="42.64" width="25.27" height="18.29"/><path class="cls-21" d="M188,42.79v18H163v-18h25m.3-.3H162.72V61.08h25.57V42.49Z"/><rect class="cls-22" x="163.84" y="43.6" width="23.34" height="16.35"/><polygon class="cls-23" points="166.57 55.22 166.57 59.31 184.44 59.31 184.44 55.22 183.9 55.06 183.9 52.31 184.44 52.15 184.44 47.04 180.48 47.04 180.48 44.98 178.92 44.98 178.92 44.25 172.09 44.25 172.09 44.98 170.54 44.98 170.54 47.04 166.57 47.04 166.57 52.15 167.11 52.31 167.11 55.06 166.57 55.22"/><rect class="cls-24" x="166.57" y="44.98" width="3.97" height="2.06"/><rect class="cls-24" x="180.48" y="44.98" width="3.96" height="2.06"/><polygon class="cls-25" points="171.7 59.11 171.65 54.07 172.11 54.02 172.16 59.11 171.7 59.11"/><path class="cls-26" d="M172.11,54.07v5h-.41v-5h.41m.1-.1h-.61v5.19h.61V54Z"/><polygon class="cls-25" points="173.14 59.11 173.09 54.07 173.55 54.02 173.6 59.11 173.14 59.11"/><path class="cls-26" d="M173.55,54.07v5h-.41v-5h.41m.1-.1H173v5.19h.61V54Z"/><polygon class="cls-25" points="174.58 59.11 174.53 54.07 174.99 54.02 175.04 59.11 174.58 59.11"/><path class="cls-26" d="M175,54.07v5h-.41v-5H175m.1-.1h-.61v5.19h.61V54Z"/><polygon class="cls-25" points="176.02 59.11 175.97 54.07 176.43 54.02 176.48 59.11 176.02 59.11"/><path class="cls-26" d="M176.43,54.07v5H176v-5h.41m.1-.1h-.61v5.19h.61V54Z"/><polygon class="cls-25" points="177.46 59.11 177.41 54.07 177.87 54.02 177.92 59.11 177.46 59.11"/><path class="cls-26" d="M177.87,54.07v5h-.41v-5h.41m.1-.1h-.61v5.19H178V54Z"/><polygon class="cls-25" points="178.9 59.11 178.85 54.07 179.31 54.02 179.36 59.11 178.9 59.11"/><path class="cls-26" d="M179.31,54.07v5h-.41v-5h.41m.1-.1h-.61v5.19h.61V54Z"/><polygon class="cls-25" points="180.34 59.11 180.29 54.07 180.75 54.02 180.8 59.11 180.34 59.11"/><path class="cls-26" d="M180.75,54.07v5h-.41v-5h.41m.1-.1h-.61v5.19h.61V54Z"/><polygon class="cls-25" points="170.26 59.11 170.21 54.07 170.67 54.02 170.72 59.11 170.26 59.11"/><path class="cls-26" d="M170.67,54.07v5h-.41v-5h.41m.1-.1h-.61v5.19h.61V54Z"/><rect class="cls-20" x="193.3" y="42.64" width="25.27" height="18.29"/><path class="cls-21" d="M218.42,42.79v18h-25v-18h25m.3-.3H193.15V61.08h25.57V42.49Z"/><rect class="cls-22" x="194.27" y="43.6" width="23.34" height="16.35"/><polygon class="cls-23" points="197 55.22 197 59.31 214.87 59.31 214.87 55.22 214.33 55.06 214.33 52.31 214.87 52.15 214.87 47.04 210.91 47.04 210.91 44.98 209.35 44.98 209.35 44.25 202.52 44.25 202.52 44.98 200.97 44.98 200.97 47.04 197 47.04 197 52.15 197.54 52.31 197.54 55.06 197 55.22"/><polygon class="cls-25" points="202.13 59.11 202.08 54.07 202.54 54.02 202.59 59.11 202.13 59.11"/><path class="cls-26" d="M202.54,54.07v5h-.41v-5h.41m.1-.1H202v5.19h.61V54Z"/><polygon class="cls-25" points="203.57 59.11 203.52 54.07 203.98 54.02 204.03 59.11 203.57 59.11"/><path class="cls-26" d="M204,54.07v5h-.41v-5H204m.1-.1h-.61v5.19h.61V54Z"/><polygon class="cls-25" points="205.01 59.11 204.96 54.07 205.42 54.02 205.47 59.11 205.01 59.11"/><path class="cls-26" d="M205.42,54.07v5H205v-5h.41m.1-.1h-.61v5.19h.61V54Z"/><polygon class="cls-25" points="206.45 59.11 206.4 54.07 206.86 54.02 206.91 59.11 206.45 59.11"/><path class="cls-26" d="M206.86,54.07v5h-.41v-5h.41m.1-.1h-.61v5.19H207V54Z"/><polygon class="cls-25" points="207.89 59.11 207.84 54.07 208.3 54.02 208.35 59.11 207.89 59.11"/><path class="cls-26" d="M208.3,54.07v5h-.41v-5h.41m.1-.1h-.61v5.19h.61V54Z"/><polygon class="cls-25" points="209.33 59.11 209.28 54.07 209.74 54.02 209.79 59.11 209.33 59.11"/><path class="cls-26" d="M209.74,54.07v5h-.41v-5h.41m.1-.1h-.61v5.19h.61V54Z"/><polygon class="cls-25" points="210.77 59.11 210.72 54.07 211.18 54.02 211.23 59.11 210.77 59.11"/><path class="cls-26" d="M211.18,54.07v5h-.41v-5h.41m.1-.1h-.61v5.19h.61V54Z"/><polygon class="cls-25" points="200.69 59.11 200.64 54.07 201.1 54.02 201.15 59.11 200.69 59.11"/><path class="cls-26" d="M201.1,54.07v5h-.41v-5h.41m.1-.1h-.61v5.19h.61V54Z"/><rect class="cls-27" x="129.24" y="81.11" width="0.46" height="0.45"/><polygon class="cls-28" points="129.34 80.76 129.6 80.76 129.71 79.04 129.71 78.32 129.22 78.32 129.22 79.04 129.34 80.76"/><polygon class="cls-28" points="138.25 81.75 138.74 80.06 139.64 80.06 139.64 79.83 138.57 79.83 138.25 80.95 137.98 78.14 137.83 78.14 137.34 79.83 136.44 79.83 136.44 80.06 137.5 80.06 137.83 78.94 138.1 81.75 138.25 81.75"/><path class="cls-28" d="M120.89,78.08a1.87,1.87,0,1,0,1.87,1.86A1.86,1.86,0,0,0,120.89,78.08Zm0,3.49a1.63,1.63,0,1,1,1.63-1.63A1.63,1.63,0,0,1,120.89,81.57Z"/><path class="cls-28" d="M121.22,79a.7.7,0,0,0-1,.3.68.68,0,0,0,0,.65l.55,1a.08.08,0,0,0,.11,0,.08.08,0,0,0,0,0l.55-1A.71.71,0,0,0,121.22,79Zm-.33.93a.3.3,0,0,1-.3-.31.29.29,0,0,1,.3-.3.3.3,0,0,1,.31.3A.31.31,0,0,1,120.89,79.89Z"/><path class="cls-29" d="M122.32,75.09a1.43,1.43,0,1,0-1.43,1.43A1.43,1.43,0,0,0,122.32,75.09Z"/><path class="cls-30" d="M122.32,75.09a1.43,1.43,0,1,0-1.43,1.43A1.43,1.43,0,0,0,122.32,75.09Z"/><path class="cls-29" d="M130.89,75.09a1.43,1.43,0,1,0-1.43,1.43A1.43,1.43,0,0,0,130.89,75.09Z"/><path class="cls-30" d="M130.89,75.09a1.43,1.43,0,1,0-1.42,1.43A1.43,1.43,0,0,0,130.89,75.09Z"/><path class="cls-29" d="M139.47,75.09A1.43,1.43,0,1,0,138,76.52,1.43,1.43,0,0,0,139.47,75.09Z"/><path class="cls-30" d="M139.47,75.09A1.43,1.43,0,1,0,138,76.52,1.43,1.43,0,0,0,139.47,75.09Z"/><path class="cls-31" d="M106.13,79.57a1.61,1.61,0,1,1,0,.74h-.25a1.86,1.86,0,0,0,3.64-.74,1.86,1.86,0,0,0-3.64,0Z"/><rect class="cls-32" x="103.87" y="79.82" width="0.27" height="0.25"/><rect class="cls-32" x="104.52" y="79.82" width="0.5" height="0.25"/><rect class="cls-32" x="105.41" y="79.82" width="0.7" height="0.25"/><polygon class="cls-31" points="106.49 80.07 107.06 80.07 107.06 80.31 107.7 79.94 107.06 79.57 107.06 79.82 106.49 79.82 106.49 80.07"/><path class="cls-29" d="M109.1,75.09a1.43,1.43,0,1,0-1.43,1.43A1.43,1.43,0,0,0,109.1,75.09Z"/><path class="cls-30" d="M109.1,75.09a1.43,1.43,0,1,0-1.42,1.43A1.43,1.43,0,0,0,109.1,75.09Z"/><polyline class="cls-33" points="103.64 74.1 103.64 75.34 102.39 75.34"/><polyline class="cls-33" points="68.04 74.09 68.04 75.34 69.28 75.34"/><path class="cls-34" d="M160.85,47.89l.2-.36h.27v-.1a.54.54,0,0,0-.31-.09.56.56,0,0,0-.5.31H159a.66.66,0,0,0-.6-.4.67.67,0,0,0-.34.1v.16h.3l.23.4-.23.4h-.3v.12a.59.59,0,0,0,.34.1.66.66,0,0,0,.62-.45h1.43a.57.57,0,0,0,.53.38.54.54,0,0,0,.31-.09v-.13h-.27Z"/><polygon class="cls-35" points="159.75 55.97 160.18 55.97 160.18 56.31 161.08 56.31 161.08 55.5 160.18 55.5 160.18 55.91 159.75 55.91 159.75 53.77 160.19 53.77 160.19 54.16 161.08 54.16 161.08 53.35 160.19 53.35 160.19 53.71 159.75 53.71 159.75 53.35 159.69 53.35 159.69 54.86 159.21 54.86 159.21 54.47 158.32 54.47 158.32 55.28 159.21 55.28 159.21 54.92 159.69 54.92 159.69 56.31 159.75 56.31 159.75 55.97"/><text class="cls-36" transform="translate(142.08 42.1)">P1</text><text class="cls-36" transform="translate(173.48 42.1)">P2</text><rect class="cls-22" x="160.01" y="68.77" width="11.79" height="13.21"/><rect class="cls-22" x="146.54" y="68.77" width="11.79" height="13.21"/><path class="cls-3" d="M147.08,81.45h10.7s0,0,0,0h0V69.32H147.08V81.44Z"/><path class="cls-3" d="M160.56,81.45h10.7a0,0,0,0,0,0,0h0V69.32H160.55V81.44S160.55,81.45,160.56,81.45Z"/><rect class="cls-37" x="147.43" y="69.67" width="10" height="11.43"/><rect class="cls-38" x="147.43" y="69.67" width="10" height="11.43"/><path class="cls-39" d="M153.89,72.84l.05,0,.65-.55a.07.07,0,0,0,0-.11h0l-.22-.26a.06.06,0,0,0-.06,0h-2.58s0,0-.05,0l-.32.27a.06.06,0,0,0,0,.1h0l.45.55a.09.09,0,0,0,.06,0Z"/><path class="cls-39" d="M154.09,75.27l.51-.42s0,0,0,0l.38-2.13a.07.07,0,0,0,0-.06l-.22-.26a.07.07,0,0,0-.11,0l-.65.55s0,0,0,0l-.33,1.87a.08.08,0,0,0,0,.07l.33.39A.07.07,0,0,0,154.09,75.27Z"/><path class="cls-39" d="M154,75.49l-.51.42a.08.08,0,0,0,0,0l-.33,1.87a.06.06,0,0,0,0,.06l.46.55a.09.09,0,0,0,.11,0l.32-.27,0-.05.38-2.17a.08.08,0,0,0,0-.07l-.33-.39A.07.07,0,0,0,154,75.49Z"/><path class="cls-39" d="M153.36,75.86h0l.5-.43a.07.07,0,0,0,0-.1h0l-.33-.4-.06,0h-2.07l-.5.43a.07.07,0,0,0,0,.1h0l.33.4a.08.08,0,0,0,.06,0Z"/><path class="cls-39" d="M150.9,75.27l.51-.42s0,0,0,0l.33-1.87a.09.09,0,0,0,0-.07l-.46-.54a.08.08,0,0,0-.11,0l-.32.27a.05.05,0,0,0,0,0l-.38,2.17a.08.08,0,0,0,0,.07l.33.39A.08.08,0,0,0,150.9,75.27Z"/><path class="cls-39" d="M153.13,78.89l.05,0,.32-.27a.08.08,0,0,0,0-.11h0l-.45-.54a.09.09,0,0,0-.06,0h-2l0,0-.66.55a.09.09,0,0,0,0,.11h0l.23.26a.06.06,0,0,0,.06,0Z"/><path class="cls-39" d="M150.9,77.83l.33-1.87a.08.08,0,0,0,0-.07l-.33-.39a.08.08,0,0,0-.11,0l-.5.42,0,0-.37,2.13a.07.07,0,0,0,0,.06l.22.26a.07.07,0,0,0,.11,0l.65-.55Z"/><path class="cls-39" d="M156.19,78.34a.55.55,0,1,0-.55.55A.55.55,0,0,0,156.19,78.34Z"/><path class="cls-40" d="M153.89,72.84l.05,0,.65-.55a.07.07,0,0,0,0-.11h0l-.22-.26a.06.06,0,0,0-.06,0h-2.58s0,0-.05,0l-.32.27a.06.06,0,0,0,0,.1h0l.45.55a.09.09,0,0,0,.06,0Z"/><path class="cls-40" d="M154.09,75.27l.51-.42s0,0,0,0l.38-2.13a.07.07,0,0,0,0-.06l-.22-.26a.07.07,0,0,0-.11,0l-.65.55s0,0,0,0l-.33,1.87a.08.08,0,0,0,0,.07l.33.39A.07.07,0,0,0,154.09,75.27Z"/><path class="cls-40" d="M154,75.49l-.51.42a.08.08,0,0,0,0,0l-.33,1.87a.06.06,0,0,0,0,.06l.46.55a.09.09,0,0,0,.11,0l.32-.27,0-.05.38-2.17a.08.08,0,0,0,0-.07l-.33-.39A.07.07,0,0,0,154,75.49Z"/><path class="cls-40" d="M153.36,75.86h0l.5-.43a.07.07,0,0,0,0-.1h0l-.33-.4-.06,0h-2.07l-.5.43a.07.07,0,0,0,0,.1h0l.33.4a.08.08,0,0,0,.06,0Z"/><path class="cls-40" d="M150.9,75.27l.51-.42s0,0,0,0l.33-1.87a.09.09,0,0,0,0-.07l-.46-.54a.08.08,0,0,0-.11,0l-.32.27a.05.05,0,0,0,0,0l-.38,2.17a.08.08,0,0,0,0,.07l.33.39A.08.08,0,0,0,150.9,75.27Z"/><path class="cls-40" d="M153.13,78.89l.05,0,.32-.27a.08.08,0,0,0,0-.11h0l-.45-.54a.09.09,0,0,0-.06,0h-2l0,0-.66.55a.09.09,0,0,0,0,.11h0l.23.26a.06.06,0,0,0,.06,0Z"/><path class="cls-40" d="M150.9,77.83l.33-1.87a.08.08,0,0,0,0-.07l-.33-.39a.08.08,0,0,0-.11,0l-.5.42,0,0-.37,2.13a.07.07,0,0,0,0,.06l.22.26a.07.07,0,0,0,.11,0l.65-.55Z"/><path class="cls-40" d="M156.19,78.34a.55.55,0,1,0-.55.55A.55.55,0,0,0,156.19,78.34Z"/><rect class="cls-37" x="160.91" y="69.67" width="10" height="11.43"/><rect class="cls-38" x="160.91" y="69.67" width="10" height="11.43"/><path class="cls-39" d="M164.45,77.92l0,0-.65.55a.07.07,0,0,0,0,.11h0l.22.26a.07.07,0,0,0,.06,0h2.58l.05,0,.33-.27a.08.08,0,0,0,0-.11h0l-.45-.54a.09.09,0,0,0-.06,0Z"/><path class="cls-39" d="M164.25,75.49l-.51.42a.08.08,0,0,0,0,0l-.38,2.13a.07.07,0,0,0,0,.06l.22.26a.07.07,0,0,0,.11,0l.65-.55s0,0,0,0L164.7,76a.06.06,0,0,0,0-.07l-.33-.39A.07.07,0,0,0,164.25,75.49Z"/><path class="cls-39" d="M164.38,75.27l.5-.42s0,0,0,0l.33-1.87a.09.09,0,0,0,0-.07l-.46-.54a.08.08,0,0,0-.11,0l-.32.27,0,0-.38,2.17a.08.08,0,0,0,0,.07l.33.39A.08.08,0,0,0,164.38,75.27Z"/><path class="cls-39" d="M165,74.9h0l-.5.43a.07.07,0,0,0,0,.1h0l.33.4.06,0h2.07l.5-.43a.07.07,0,0,0,0-.1h0l-.33-.4-.06,0Z"/><path class="cls-39" d="M167.44,75.49l-.5.42a.05.05,0,0,0,0,0h0l-.33,1.87s0,0,0,.06l.45.55a.09.09,0,0,0,.11,0l.32-.27s0,0,0-.05l.38-2.17a.08.08,0,0,0,0-.07l-.33-.39A.08.08,0,0,0,167.44,75.49Z"/><path class="cls-39" d="M165.21,71.87a.06.06,0,0,0-.05,0l-.32.27a.07.07,0,0,0,0,.1h0l.46.55a.05.05,0,0,0,.05,0h2l0,0,.66-.55a.09.09,0,0,0,0-.11h0l-.23-.26a.05.05,0,0,0,0,0Z"/><path class="cls-39" d="M167.44,72.93l-.33,1.87a.14.14,0,0,0,0,.07l.33.39a.08.08,0,0,0,.11,0l.5-.42,0,0,.37-2.13a.07.07,0,0,0,0-.06l-.23-.26s-.07,0-.11,0l-.65.55Z"/><path class="cls-39" d="M162.15,72.42a.55.55,0,0,0,.55.55.55.55,0,0,0,.55-.55.55.55,0,0,0-.55-.55A.54.54,0,0,0,162.15,72.42Z"/><path class="cls-40" d="M164.45,77.92l0,0-.65.55a.07.07,0,0,0,0,.11h0l.22.26a.07.07,0,0,0,.06,0h2.58l.05,0,.33-.27a.08.08,0,0,0,0-.11h0l-.45-.54a.09.09,0,0,0-.06,0Z"/><path class="cls-40" d="M164.25,75.49l-.51.42a.08.08,0,0,0,0,0l-.38,2.13a.07.07,0,0,0,0,.06l.22.26a.07.07,0,0,0,.11,0l.65-.55s0,0,0,0L164.7,76a.06.06,0,0,0,0-.07l-.33-.39A.07.07,0,0,0,164.25,75.49Z"/><path class="cls-40" d="M164.38,75.27l.5-.42s0,0,0,0l.33-1.87a.09.09,0,0,0,0-.07l-.46-.54a.08.08,0,0,0-.11,0l-.32.27,0,0-.38,2.17a.08.08,0,0,0,0,.07l.33.39A.08.08,0,0,0,164.38,75.27Z"/><path class="cls-40" d="M165,74.9h0l-.5.43a.07.07,0,0,0,0,.1h0l.33.4.06,0h2.07l.5-.43a.07.07,0,0,0,0-.1h0l-.33-.4-.06,0Z"/><path class="cls-40" d="M167.44,75.49l-.5.42a.05.05,0,0,0,0,0h0l-.33,1.87s0,0,0,.06l.45.55a.09.09,0,0,0,.11,0l.32-.27s0,0,0-.05l.38-2.17a.08.08,0,0,0,0-.07l-.33-.39A.08.08,0,0,0,167.44,75.49Z"/><path class="cls-40" d="M165.21,71.87a.06.06,0,0,0-.05,0l-.32.27a.07.07,0,0,0,0,.1h0l.46.55a.05.05,0,0,0,.05,0h2l0,0,.66-.55a.09.09,0,0,0,0-.11h0l-.23-.26a.05.05,0,0,0,0,0Z"/><path class="cls-40" d="M167.44,72.93l-.33,1.87a.14.14,0,0,0,0,.07l.33.39a.08.08,0,0,0,.11,0l.5-.42,0,0,.37-2.13a.07.07,0,0,0,0-.06l-.23-.26s-.07,0-.11,0l-.65.55Z"/><path class="cls-40" d="M162.15,72.42a.55.55,0,0,0,.55.55.55.55,0,0,0,.55-.55.55.55,0,0,0-.55-.55A.54.54,0,0,0,162.15,72.42Z"/><polyline class="cls-33" points="176.21 67.3 176.21 68.53 174.97 68.54"/><polyline class="cls-33" points="140.61 67.43 140.62 68.68 141.86 68.67"/><rect class="cls-32" x="208.94" y="39.6" width="0.23" height="2.3"/><path class="cls-31" d="M207.51,39.6a1.15,1.15,0,1,0,1.15,1.15A1.14,1.14,0,0,0,207.51,39.6Zm0,2.06a.92.92,0,1,1,.92-.91A.92.92,0,0,1,207.51,41.66Z"/><rect class="cls-32" x="205.84" y="39.6" width="0.23" height="2.3"/><path class="cls-31" d="M204.41,39.6a1.15,1.15,0,1,0,1.15,1.15A1.14,1.14,0,0,0,204.41,39.6Zm0,2.06a.92.92,0,1,1,.92-.91A.92.92,0,0,1,204.41,41.66Z"/><rect class="cls-32" x="202.74" y="39.6" width="0.23" height="2.3"/><path class="cls-41" d="M295.09,83.26H345a.89.89,0,0,0,.89-.89h0V61.13H348a.69.69,0,0,0,.69-.69h0V39.89a.89.89,0,0,0-.9-.89H225.57a1.08,1.08,0,0,0-1.09,1.08V59.33a1.8,1.8,0,0,1-1.8,1.8H182.82v21a1.09,1.09,0,0,0,1.09,1.09Z"/><rect class="cls-8" x="237.42" y="43.89" width="18.72" height="13.68" rx="1.07" ry="1.07"/><path class="cls-42" d="M243.05,53.06a1.3,1.3,0,0,1-.91-.38l-.85-.85a1.29,1.29,0,0,1-.39-.92V49.62a1.3,1.3,0,0,1,1.3-1.3h9.11a1.3,1.3,0,0,1,1.3,1.3v1.29a1.28,1.28,0,0,1-.38.92l-.85.85a1.32,1.32,0,0,1-.92.38Z"/><path class="cls-43" d="M252.12,50.91V49.62a.81.81,0,0,0-.81-.81H242.2a.8.8,0,0,0-.8.81v1.29a.78.78,0,0,0,.24.57l.85.85a.79.79,0,0,0,.57.23h7.4a.81.81,0,0,0,.57-.23l.85-.85A.82.82,0,0,0,252.12,50.91Z"/><path class="cls-44" d="M252,50.76v-1a.85.85,0,0,0-.84-.84h-8.86a.85.85,0,0,0-.85.84v1a.86.86,0,0,0,.25.6l.84.84a.85.85,0,0,0,.6.24h7.18a.81.81,0,0,0,.59-.24l.84-.84A.86.86,0,0,0,252,50.76Z"/><path class="cls-17" d="M251.61,50.76v-1a.42.42,0,0,0-.42-.42h-8.86a.42.42,0,0,0-.42.42v1a.42.42,0,0,0,.12.3l.84.84a.42.42,0,0,0,.3.12h7.18a.42.42,0,0,0,.3-.12l.84-.84A.42.42,0,0,0,251.61,50.76Z"/><polygon class="cls-45" points="246.48 50.46 246.45 50.29 247.04 50.27 247.06 50.44 247.06 50.46 246.48 50.46"/><path class="cls-26" d="M247,50.29v.15h-.56v-.15H247m.05,0h-.66v.25h.66v-.25Z"/><polygon class="cls-45" points="247.39 50.46 247.37 50.29 247.95 50.27 247.98 50.44 247.98 50.46 247.39 50.46"/><path class="cls-26" d="M248,50.29v.15h-.56v-.15H248m.05,0h-.66v.25H248v-.25Z"/><polygon class="cls-45" points="248.31 50.46 248.28 50.29 248.87 50.27 248.89 50.44 248.89 50.46 248.31 50.46"/><path class="cls-26" d="M248.87,50.29v.15h-.56v-.15h.56m0,0h-.66v.25h.66v-.25Z"/><polygon class="cls-45" points="244.65 50.46 244.62 50.29 245.21 50.27 245.24 50.44 245.24 50.46 244.65 50.46"/><path class="cls-26" d="M245.21,50.29v.15h-.56v-.15h.56m0,0h-.66v.25h.66v-.25Z"/><polygon class="cls-25" points="245.56 50.46 245.54 50.29 246.13 50.27 246.15 50.44 246.15 50.46 245.56 50.46"/><path class="cls-26" d="M246.13,50.29v.15h-.57v-.15h.57m.05,0h-.67v.25h.67v-.25Z"/><path class="cls-28" d="M247.07,52.56H250a.26.26,0,0,0,.17-.26V52h-3.34v.28a.26.26,0,0,0,.17.26Z"/><path class="cls-28" d="M243.66,52.56h2.9a.28.28,0,0,0,.17-.26V52h-3.35v.28a.28.28,0,0,0,.17.26Z"/><path class="cls-28" d="M241.4,50.56a.28.28,0,0,0,.22.11h.29v-.81h-.29a.28.28,0,0,0-.22.11Z"/><path class="cls-28" d="M250.77,48.81h-8.13a.3.3,0,0,0-.17.26v.28h8.58v-.28a.3.3,0,0,0-.17-.26Z"/><path class="cls-28" d="M252.12,50a.3.3,0,0,0-.23-.11h-.28v.81h.28a.3.3,0,0,0,.23-.11Z"/><path class="cls-46" d="M248,50.58h.36v-.29h.56v.29H249a.24.24,0,0,0,.24-.24h0V50a.24.24,0,0,0-.24-.24h-4.44a.24.24,0,0,0-.24.24v.34a.24.24,0,0,0,.24.24h.11v-.29h.56v.29h.35v-.29h.57v.29h.35v-.29H247v.29h.35v-.29H248Z"/><rect class="cls-32" x="249.77" y="40.26" width="0.23" height="2.3"/><path class="cls-31" d="M248.33,40.26a1.15,1.15,0,1,0,1.15,1.15A1.16,1.16,0,0,0,248.33,40.26Zm0,2.07a.92.92,0,1,1,.92-.92A.92.92,0,0,1,248.33,42.33Z"/><rect class="cls-32" x="246.67" y="40.26" width="0.23" height="2.3"/><path class="cls-31" d="M245.23,40.26a1.15,1.15,0,1,0,1.15,1.15A1.16,1.16,0,0,0,245.23,40.26Zm0,2.07a.92.92,0,1,1,.92-.92A.92.92,0,0,1,245.23,42.33Z"/><rect class="cls-32" x="243.57" y="40.26" width="0.23" height="2.3"/><rect class="cls-15" x="304.63" y="43.41" width="34.33" height="29.26"/><path class="cls-47" d="M306.49,67.91a1.84,1.84,0,0,1-1.31-.55,1.86,1.86,0,0,1-.55-1.32V51.35a1.86,1.86,0,0,1,1.86-1.86h30.45a1.84,1.84,0,0,1,1.86,1.86V66a1.83,1.83,0,0,1-.54,1.32,1.88,1.88,0,0,1-1.32.55Z"/><path class="cls-48" d="M336.94,67.14a1.12,1.12,0,0,0,.78-.32A1.1,1.1,0,0,0,338,66V51.35a1.1,1.1,0,0,0-.32-.78,1.12,1.12,0,0,0-.78-.32H306.49a1.1,1.1,0,0,0-.77.32,1.08,1.08,0,0,0-.32.78V66a1.09,1.09,0,0,0,1.1,1.1Z"/><path class="cls-28" d="M336.94,66.6a.55.55,0,0,0,.55-.56h0V51.35a.54.54,0,0,0-.55-.55H306.49a.55.55,0,0,0-.55.55V66a.56.56,0,0,0,.55.56Z"/><path class="cls-23" d="M336.94,51.06a.29.29,0,0,1,.29.29h0V66a.29.29,0,0,1-.29.29H321.85V51.06Z"/><path class="cls-23" d="M306.49,51.06a.29.29,0,0,0-.29.29h0V66a.29.29,0,0,0,.29.29h15.1V51.06Z"/><rect class="cls-49" x="309.16" y="66.33" width="9.47" height="0.26"/><rect class="cls-49" x="324.81" y="66.33" width="9.47" height="0.26"/><rect class="cls-27" x="326.87" y="66.33" width="5.34" height="0.26"/><rect class="cls-27" x="311.23" y="66.33" width="5.34" height="0.26"/><rect class="cls-9" x="307.56" y="53" width="12.67" height="11.39"/><rect class="cls-50" x="307.86" y="54.52" width="12.07" height="2.68"/><rect class="cls-9" x="308.22" y="55.02" width="11.35" height="1.68"/><rect class="cls-51" x="318.01" y="53.98" width="0.26" height="3.75"/><rect class="cls-51" x="314.82" y="53.98" width="0.26" height="3.75"/><rect class="cls-51" x="313.76" y="53.98" width="0.26" height="3.75"/><rect class="cls-51" x="311.64" y="53.98" width="0.26" height="3.75"/><rect class="cls-51" x="310.58" y="53.98" width="0.26" height="3.75"/><rect class="cls-51" x="309.52" y="53.98" width="0.26" height="3.75"/><rect class="cls-51" x="316.95" y="53.98" width="0.26" height="3.75"/><rect class="cls-51" x="315.89" y="53.98" width="0.26" height="3.75"/><rect class="cls-51" x="312.7" y="53.98" width="0.26" height="3.75"/><rect class="cls-20" x="308.54" y="55.36" width="10.72" height="1"/><rect class="cls-50" x="307.86" y="60.2" width="12.07" height="2.68"/><rect class="cls-9" x="308.22" y="60.7" width="11.35" height="1.68"/><rect class="cls-51" x="318.01" y="59.67" width="0.26" height="3.75"/><rect class="cls-51" x="314.82" y="59.67" width="0.26" height="3.75"/><rect class="cls-51" x="313.76" y="59.67" width="0.26" height="3.75"/><rect class="cls-51" x="311.64" y="59.67" width="0.26" height="3.75"/><rect class="cls-51" x="310.58" y="59.67" width="0.26" height="3.75"/><rect class="cls-51" x="309.52" y="59.67" width="0.26" height="3.75"/><rect class="cls-51" x="316.95" y="59.67" width="0.26" height="3.75"/><rect class="cls-51" x="315.89" y="59.67" width="0.26" height="3.75"/><rect class="cls-51" x="312.7" y="59.67" width="0.26" height="3.75"/><rect class="cls-20" x="308.54" y="61.05" width="10.72" height="1"/><rect class="cls-9" x="323.21" y="53" width="12.67" height="11.39"/><rect class="cls-50" x="323.5" y="54.52" width="12.07" height="2.68"/><rect class="cls-9" x="323.87" y="55.02" width="11.35" height="1.68"/><rect class="cls-51" x="333.65" y="53.98" width="0.26" height="3.75"/><rect class="cls-51" x="330.47" y="53.98" width="0.26" height="3.75"/><rect class="cls-51" x="329.41" y="53.98" width="0.26" height="3.75"/><rect class="cls-51" x="327.29" y="53.98" width="0.26" height="3.75"/><rect class="cls-51" x="326.23" y="53.98" width="0.26" height="3.75"/><rect class="cls-51" x="325.17" y="53.98" width="0.26" height="3.75"/><rect class="cls-51" x="332.59" y="53.98" width="0.26" height="3.75"/><rect class="cls-51" x="331.53" y="53.98" width="0.26" height="3.75"/><rect class="cls-51" x="328.35" y="53.98" width="0.26" height="3.75"/><rect class="cls-20" x="324.18" y="55.36" width="10.72" height="1"/><rect class="cls-50" x="323.5" y="60.2" width="12.07" height="2.68"/><rect class="cls-9" x="323.87" y="60.7" width="11.35" height="1.68"/><rect class="cls-51" x="333.65" y="59.67" width="0.26" height="3.75"/><rect class="cls-51" x="330.47" y="59.67" width="0.26" height="3.75"/><rect class="cls-51" x="329.41" y="59.67" width="0.26" height="3.75"/><rect class="cls-51" x="327.29" y="59.67" width="0.26" height="3.75"/><rect class="cls-51" x="326.23" y="59.67" width="0.26" height="3.75"/><rect class="cls-51" x="325.17" y="59.67" width="0.26" height="3.75"/><rect class="cls-51" x="332.59" y="59.67" width="0.26" height="3.75"/><rect class="cls-51" x="331.53" y="59.67" width="0.26" height="3.75"/><rect class="cls-51" x="328.35" y="59.67" width="0.26" height="3.75"/><rect class="cls-20" x="324.18" y="61.05" width="10.72" height="1"/><path class="cls-52" d="M328.13,66.35l.4-.31a.35.35,0,0,1,.24-.08h1.54a.35.35,0,0,1,.24.08l.41.31h.71a.41.41,0,0,1-.24-.08l-.67-.51a.75.75,0,0,0-.45-.16h-1.54a.75.75,0,0,0-.45.16l-.67.51a.4.4,0,0,1-.23.08Z"/><path class="cls-52" d="M312.48,66.35l.41-.31a.34.34,0,0,1,.23-.08h1.55a.34.34,0,0,1,.23.08l.41.31H316a.41.41,0,0,1-.24-.08l-.66-.51a.75.75,0,0,0-.45-.16h-1.55a.75.75,0,0,0-.45.16l-.66.51a.41.41,0,0,1-.24.08Z"/><path class="cls-53" d="M302.63,53.73A1.67,1.67,0,1,0,301,55.4,1.68,1.68,0,0,0,302.63,53.73Z"/><path class="cls-53" d="M302.63,60.86A1.67,1.67,0,1,0,301,62.53,1.67,1.67,0,0,0,302.63,60.86Z"/><path class="cls-53" d="M344.15,53.73a1.67,1.67,0,1,0-1.67,1.67A1.68,1.68,0,0,0,344.15,53.73Z"/><path class="cls-53" d="M344.15,60.86a1.67,1.67,0,1,0-1.67,1.67A1.67,1.67,0,0,0,344.15,60.86Z"/><path class="cls-31" d="M301.38,49.83a.41.41,0,0,0-.42-.41.41.41,0,0,0-.42.41.42.42,0,0,0,.42.42A.42.42,0,0,0,301.38,49.83Z"/><path class="cls-31" d="M301.28,46.59a.36.36,0,0,0-.33-.37.37.37,0,0,0-.32.39h0l.15,2.44a.19.19,0,0,0,.2.17.22.22,0,0,0,.16-.17l.14-2.46Z"/><path class="cls-32" d="M298.3,66V63.7h.39v1.93h1V66Z"/><path class="cls-32" d="M299.94,66V63.68h.38l.78,1.57V63.68h.36V66h-.39l-.77-1.53V66Z"/><path class="cls-32" d="M301.88,66V63.68h.38v1.05l.79-1.05h.52l-.72.92.76,1.43h-.5l-.53-1.1-.32.39V66Z"/><path class="cls-31" d="M342.9,49.83a.42.42,0,0,0-.84,0,.42.42,0,0,0,.84,0Z"/><path class="cls-31" d="M342.81,46.59a.36.36,0,0,0-.33-.37.37.37,0,0,0-.33.39h0l.15,2.44a.19.19,0,0,0,.21.17.22.22,0,0,0,.15-.17l.15-2.46Z"/><path class="cls-32" d="M339.83,66V63.7h.38v1.93h1V66Z"/><path class="cls-32" d="M341.46,66V63.68h.38l.78,1.57V63.68H343V66h-.39l-.78-1.53V66Z"/><path class="cls-32" d="M343.4,66V63.68h.39v1.05l.78-1.05h.52l-.72.92.76,1.43h-.5l-.53-1.1-.31.39V66Z"/><text class="cls-19" transform="translate(309.1 71.35)">EXP1</text><text class="cls-19" transform="translate(324.57 71.35)">EXP2</text><rect class="cls-16" x="311.64" y="46.41" width="1.17" height="0.4"/><path class="cls-17" d="M318.32,46.16H318l-.3,1.09H318l0-.23h.31l.05.23h.24Zm-.26.68.11-.49h0l.11.49Z"/><path class="cls-17" d="M314.54,47.2a.12.12,0,1,0-.12.12A.12.12,0,0,0,314.54,47.2Z"/><path class="cls-17" d="M315,47.38a.12.12,0,1,0-.24,0,.12.12,0,0,0,.24,0Z"/><path class="cls-17" d="M315.36,47.56a.12.12,0,0,0-.13-.12.12.12,0,0,0-.12.12.12.12,0,0,0,.12.11A.12.12,0,0,0,315.36,47.56Z"/><path class="cls-17" d="M315.76,47.74a.12.12,0,0,0-.24,0,.12.12,0,0,0,.24,0Z"/><path class="cls-17" d="M316.17,47.92a.12.12,0,0,0-.12-.12.12.12,0,1,0,0,.23A.12.12,0,0,0,316.17,47.92Z"/><path class="cls-17" d="M316.57,48.1a.12.12,0,0,0-.24,0,.12.12,0,0,0,.24,0Z"/><path class="cls-17" d="M314.59,46.71a.12.12,0,0,0-.13-.12.12.12,0,0,0-.12.12.12.12,0,0,0,.12.11A.12.12,0,0,0,314.59,46.71Z"/><path class="cls-17" d="M315,46.71a.12.12,0,1,0-.24,0,.12.12,0,0,0,.24,0Z"/><path class="cls-17" d="M315.48,46.71a.12.12,0,1,0-.24,0,.12.12,0,0,0,.24,0Z"/><path class="cls-17" d="M315.93,46.71a.12.12,0,0,0-.24,0,.12.12,0,0,0,.24,0Z"/><path class="cls-17" d="M316.38,46.71a.12.12,0,0,0-.12-.12.12.12,0,1,0,0,.23A.12.12,0,0,0,316.38,46.71Z"/><path class="cls-17" d="M316.83,46.71a.12.12,0,0,0-.13-.12.12.12,0,0,0-.12.12.12.12,0,0,0,.12.11A.12.12,0,0,0,316.83,46.71Z"/><path class="cls-17" d="M317.27,46.71a.12.12,0,1,0-.24,0,.12.12,0,0,0,.24,0Z"/><path class="cls-17" d="M314.54,46.22a.12.12,0,1,0-.24,0,.12.12,0,0,0,.24,0Z"/><path class="cls-17" d="M315,46a.12.12,0,0,0-.24,0,.12.12,0,0,0,.24,0Z"/><path class="cls-17" d="M315.36,45.86a.12.12,0,0,0-.13-.12.12.12,0,0,0-.12.12.12.12,0,0,0,.12.11A.12.12,0,0,0,315.36,45.86Z"/><path class="cls-17" d="M315.76,45.68a.12.12,0,0,0-.24,0,.12.12,0,0,0,.24,0Z"/><path class="cls-17" d="M316.17,45.5a.12.12,0,0,0-.12-.12.12.12,0,1,0,0,.23A.12.12,0,0,0,316.17,45.5Z"/><path class="cls-17" d="M316.57,45.32a.12.12,0,0,0-.24,0,.12.12,0,0,0,.24,0Z"/><path class="cls-17" d="M318,45.47h-.23v.05c0,.2.11.32.37.32s.4-.11.4-.34,0-.21-.22-.29l-.18-.07c-.1,0-.12-.08-.12-.15a.11.11,0,0,1,.13-.12c.09,0,.13.06.13.16h.22v0c0-.21-.15-.3-.36-.3a.31.31,0,0,0-.35.32c0,.19.09.27.3.33s.21.09.21.19a.13.13,0,0,1-.14.13c-.12,0-.16-.06-.16-.16Z"/><path class="cls-17" d="M318,48.35h-.23v0c0,.21.11.32.37.32s.4-.1.4-.33,0-.22-.22-.29l-.18-.07c-.1,0-.12-.08-.12-.15a.12.12,0,0,1,.13-.13c.09,0,.13.06.13.16h.22v0c0-.21-.15-.29-.36-.29a.31.31,0,0,0-.35.32c0,.18.09.26.3.33s.21.09.21.19a.13.13,0,0,1-.14.13c-.12,0-.16-.07-.16-.17Z"/><path class="cls-17" d="M312.19,47.24v.83H314v-.41l.93.62-.12.08.88.31-.6-.7,0,.13L314,47.4v-.27a.11.11,0,0,0,.1-.13.12.12,0,0,0-.1-.09v-.09a.11.11,0,0,0,.1-.13.13.13,0,0,0-.1-.1v-.08a.12.12,0,0,0,.1-.14.13.13,0,0,0-.1-.09V46l1-.7,0,.14.61-.68-.89.29.11.08-.91.61v-.38h-1.85V46h.17v-.53h1.51v2.4h-1.51v-.67Z"/><polygon class="cls-17" points="326.86 46.29 326.86 45.47 325.24 47.08 326.86 48.7 326.86 47.87 327.71 47.87 327.71 46.29 326.86 46.29"/><polygon class="cls-17" points="329.1 46.29 329.1 45.47 330.72 47.08 329.1 48.7 329.1 47.87 328.25 47.87 328.25 46.29 329.1 46.29"/><path class="cls-5" d="M295.6,54.18a4.13,4.13,0,1,0-4.13,4.13A4.12,4.12,0,0,0,295.6,54.18Z"/><path class="cls-54" d="M295.24,54.18A3.77,3.77,0,1,0,291.47,58,3.76,3.76,0,0,0,295.24,54.18Z"/><path class="cls-55" d="M290,53.27l.27.27a.91.91,0,0,1,0,1.28h0l-.27.27a.31.31,0,0,0,0,.42h0l.18.18a.3.3,0,0,0,.43,0l.26-.26a.89.89,0,0,1,1.28,0l.27.27a.3.3,0,0,0,.43,0l.18-.18a.31.31,0,0,0,0-.42h0l-.28-.28a.91.91,0,0,1,0-1.28h0l.27-.26a.3.3,0,0,0,0-.43h0l-.18-.17a.29.29,0,0,0-.42,0l-.27.26a.91.91,0,0,1-1.28,0l-.27-.27a.3.3,0,0,0-.43,0l-.17.18a.29.29,0,0,0,0,.42Z"/><path class="cls-5" d="M235.41,54.18a4.13,4.13,0,1,0-4.13,4.13A4.12,4.12,0,0,0,235.41,54.18Z"/><path class="cls-54" d="M235.05,54.18A3.77,3.77,0,1,0,231.28,58,3.76,3.76,0,0,0,235.05,54.18Z"/><path class="cls-55" d="M229.77,53.27l.27.27a.91.91,0,0,1,0,1.28h0l-.27.27a.31.31,0,0,0,0,.42h0l.18.18a.3.3,0,0,0,.43,0l.26-.26a.89.89,0,0,1,1.28,0l.27.27a.3.3,0,0,0,.43,0l.18-.18a.31.31,0,0,0,0-.42h0l-.28-.28a.91.91,0,0,1,0-1.28h0l.27-.26a.3.3,0,0,0,0-.43h0l-.18-.17a.3.3,0,0,0-.43,0l-.26.26a.91.91,0,0,1-1.28,0l-.27-.27a.3.3,0,0,0-.43,0l-.17.18a.29.29,0,0,0,0,.42Z"/><path class="cls-28" d="M276.6,44.41h-5.34l1.17-1.16h1.06a.58.58,0,0,0,.76.3.56.56,0,0,0,.3-.75.58.58,0,0,0-.75-.31.59.59,0,0,0-.31.31h-1.25l-1.61,1.61h-.54a.88.88,0,0,0-1.09-.64.9.9,0,0,0-.65,1.09.91.91,0,0,0,1.1.65.9.9,0,0,0,.64-.65h2.06l1.59,1.6h1.05v.37H276V45.64h-1.19V46h-.86l-1.15-1.15h3.82v.4l1.17-.62L276.6,44Z"/><rect class="cls-8" x="259.97" y="47.91" width="25.79" height="13.15" rx="1.07" ry="1.07"/><rect class="cls-20" x="263.28" y="50.05" width="19.18" height="8.86" rx="1.27" ry="1.27"/><polygon class="cls-56" points="264.63 50.05 264.63 58.91 271.02 58.91 271.02 58.29 272.7 58.29 273.03 58.29 274.72 58.29 274.72 58.91 281.1 58.91 281.1 50.05 264.63 50.05"/><path class="cls-21" d="M281.19,50.59H264.54a.73.73,0,0,0-.72.73v6.32a.73.73,0,0,0,.72.73h16.65a.73.73,0,0,0,.72-.73V51.32a.73.73,0,0,0-.72-.73Z"/><path class="cls-17" d="M281.19,50.87H264.54a.45.45,0,0,0-.44.45h0v6.32a.45.45,0,0,0,.44.45h16.65a.45.45,0,0,0,.45-.45V51.32a.45.45,0,0,0-.45-.45Z"/><polygon class="cls-57" points="267.38 54.41 267.34 53.77 268.47 53.74 268.5 54.41 267.38 54.41"/><path class="cls-58" d="M268.47,53.77v.61h-1.09v-.61h1.09m.06-.07h-1.22v.75h1.22V53.7Z"/><polygon class="cls-57" points="277.27 54.41 277.23 53.77 278.36 53.74 278.39 54.41 277.27 54.41"/><path class="cls-58" d="M278.36,53.77v.61h-1.09v-.61h1.09m.07-.07H277.2v.75h1.23V53.7Z"/><polygon class="cls-57" points="271.05 54.41 271.02 53.77 272.14 53.74 272.18 54.41 271.05 54.41"/><path class="cls-58" d="M272.14,53.77v.61h-1.09v-.61h1.09m.07-.07H271v.75h1.22V53.7Z"/><polygon class="cls-57" points="273.59 54.41 273.56 53.77 274.68 53.74 274.72 54.41 273.59 54.41"/><path class="cls-58" d="M274.68,53.77v.61h-1.09v-.61h1.09m.07-.07h-1.22v.75h1.22V53.7Z"/><polygon class="cls-25" points="267.38 54.82 267.34 54.18 268.47 54.14 268.5 54.82 267.38 54.82"/><path class="cls-26" d="M268.47,54.18v.61h-1.09v-.61h1.09m.06-.07h-1.22v.74h1.22v-.74Z"/><polygon class="cls-25" points="277.27 54.82 277.23 54.18 278.36 54.14 278.39 54.82 277.27 54.82"/><path class="cls-26" d="M278.36,54.18v.61h-1.09v-.61h1.09m.07-.07H277.2v.74h1.23v-.74Z"/><polygon class="cls-25" points="271.05 54.82 271.02 54.18 272.14 54.14 272.18 54.82 271.05 54.82"/><path class="cls-26" d="M272.14,54.18v.61h-1.09v-.61h1.09m.07-.07H271v.74h1.22v-.74Z"/><polygon class="cls-25" points="273.59 54.82 273.56 54.18 274.68 54.14 274.72 54.82 273.59 54.82"/><path class="cls-26" d="M274.68,54.18v.61h-1.09v-.61h1.09m.07-.07h-1.22v.74h1.22v-.74Z"/><rect class="cls-59" x="265.2" y="54.61" width="15.33" height="2.35"/><path class="cls-9" d="M280.41,54.73v2.1H265.33v-2.1h15.08m.25-.25H265.08v2.6h15.58v-2.6Z"/><rect class="cls-21" x="281.64" y="51.86" width="0.82" height="5.25"/><rect class="cls-21" x="263.28" y="51.86" width="0.82" height="5.25"/><polyline class="cls-33" points="340.23 80.39 340.23 81.63 338.98 81.63"/><polyline class="cls-33" points="304.63 80.38 304.63 81.63 305.87 81.63"/><rect class="cls-8" x="213.6" y="67.33" width="42.98" height="15.93"/><rect class="cls-9" x="214.89" y="68.79" width="40.41" height="13"/><path class="cls-10" d="M255.05,69V81.55H215.14V69h39.91m.5-.5H214.64V82.05h40.91V68.54Z"/><rect class="cls-11" x="215.41" y="69.32" width="39.36" height="11.96"/><rect class="cls-12" x="215.66" y="69.54" width="19.31" height="11.5"/><rect class="cls-13" x="221.21" y="69.32" width="8.21" height="0.23"/><rect class="cls-14" x="221.99" y="69.32" width="6.64" height="0.65"/><rect class="cls-12" x="235.21" y="69.56" width="19.31" height="11.5"/><rect class="cls-13" x="240.77" y="69.33" width="8.21" height="0.23"/><rect class="cls-14" x="241.55" y="69.33" width="6.64" height="0.65"/><rect class="cls-8" x="255.4" y="67.33" width="42.98" height="15.93"/><rect class="cls-9" x="256.68" y="68.79" width="40.41" height="13"/><path class="cls-10" d="M296.84,69V81.55H256.93V69h39.91m.5-.5H256.43V82.05h40.91V68.54Z"/><rect class="cls-11" x="257.21" y="69.32" width="39.36" height="11.96"/><rect class="cls-12" x="257.45" y="69.54" width="19.31" height="11.5"/><rect class="cls-13" x="263" y="69.32" width="8.21" height="0.23"/><rect class="cls-14" x="263.79" y="69.32" width="6.64" height="0.65"/><rect class="cls-12" x="277.01" y="69.56" width="19.31" height="11.5"/><rect class="cls-13" x="282.56" y="69.33" width="8.21" height="0.23"/><rect class="cls-14" x="283.35" y="69.33" width="6.64" height="0.65"/><rect class="cls-60" x="203.75" y="67.33" width="9.85" height="15.93"/><rect class="cls-32" x="205.76" y="73.43" width="5.97" height="0.47"/><rect class="cls-32" x="205.76" y="76.69" width="5.97" height="0.47"/><polyline class="cls-32" points="208.62 75.12 207.87 75.12 207.87 74.33 205.62 75.54 208.62 75.54"/><polyline class="cls-32" points="208.61 75.54 209.33 75.54 209.33 76.33 211.58 75.13 208.61 75.13"/><path class="cls-31" d="M232.38,65.35a.25.25,0,1,0-.25.25A.25.25,0,0,0,232.38,65.35Z"/><path class="cls-31" d="M232.32,63.47a.21.21,0,0,0-.19-.22.22.22,0,0,0-.19.23h0l.09,1.43a.1.1,0,0,0,.12.09s.08,0,.09-.1l.08-1.43Z"/><path class="cls-32" d="M215.49,65.26V63.59h.28V65h.69v.28Z"/><path class="cls-32" d="M216.66,65.26V63.58h.28l.56,1.12V63.58h.26v1.68h-.28l-.56-1.1v1.1Z"/><path class="cls-32" d="M218.06,65.26V63.58h.28v.75l.56-.75h.38l-.52.65.55,1H219l-.39-.79-.22.28v.51Z"/><text class="cls-61" transform="translate(223.69 66.59)">0c</text><path class="cls-31" d="M251.83,65.35a.25.25,0,0,0-.49,0,.25.25,0,1,0,.49,0Z"/><path class="cls-31" d="M251.77,63.47a.19.19,0,1,0-.37,0h0l.08,1.43a.11.11,0,0,0,.12.09s.08,0,.09-.1l.08-1.43Z"/><path class="cls-32" d="M234.94,65.26V63.59h.28V65h.69v.28Z"/><path class="cls-32" d="M236.12,65.26V63.58h.27L237,64.7V63.58h.26v1.68h-.28l-.55-1.1v1.1Z"/><path class="cls-32" d="M237.51,65.26V63.58h.28v.75l.56-.75h.38l-.52.65.55,1h-.36l-.38-.79-.23.28v.51Z"/><text class="cls-61" transform="translate(242.98 66.59)">0d</text><path class="cls-30" d="M222.37,64.67a1.26,1.26,0,0,1-1,1,1.27,1.27,0,0,1-1.5-1.5,1.26,1.26,0,0,1,1-1A1.27,1.27,0,0,1,222.37,64.67Z"/><path class="cls-30" d="M230.8,64.67a1.26,1.26,0,0,1-1,1,1.27,1.27,0,0,1-1.5-1.5,1.26,1.26,0,0,1,1-1A1.27,1.27,0,0,1,230.8,64.67Z"/><path class="cls-30" d="M241.93,64.67a1.27,1.27,0,1,1-2.5-.5,1.26,1.26,0,0,1,1-1A1.27,1.27,0,0,1,241.93,64.67Z"/><path class="cls-30" d="M250.36,64.67a1.26,1.26,0,0,1-1,1,1.27,1.27,0,0,1-1.5-1.5,1.26,1.26,0,0,1,1-1A1.27,1.27,0,0,1,250.36,64.67Z"/><path class="cls-31" d="M293.73,65.36a.24.24,0,0,0-.48,0,.24.24,0,1,0,.48,0Z"/><path class="cls-31" d="M293.68,63.47a.2.2,0,0,0-.19-.21.2.2,0,0,0-.19.22h0l.08,1.42a.13.13,0,0,0,.13.1.11.11,0,0,0,.08-.11l.09-1.43Z"/><path class="cls-32" d="M276.84,65.27V63.59h.28V65h.7v.29Z"/><path class="cls-32" d="M278,65.27V63.58h.27l.57,1.13V63.58h.26v1.69h-.28l-.56-1.1v1.1Z"/><path class="cls-32" d="M279.42,65.27V63.58h.27v.75l.57-.75h.38l-.53.66.55,1h-.36l-.38-.8-.23.29v.51Z"/><text class="cls-61" transform="translate(285.34 66.59)">0f</text><path class="cls-30" d="M283.83,64.67a1.26,1.26,0,0,1-1,1,1.28,1.28,0,0,1-1.5-1.5,1.3,1.3,0,0,1,1-1A1.27,1.27,0,0,1,283.83,64.67Z"/><path class="cls-30" d="M292.27,64.67a1.28,1.28,0,1,1-1.51-1.5A1.28,1.28,0,0,1,292.27,64.67Z"/><path class="cls-30" d="M263.81,64.67a1.26,1.26,0,0,1-1,1,1.27,1.27,0,0,1-1.5-1.5,1.26,1.26,0,0,1,1-1A1.27,1.27,0,0,1,263.81,64.67Z"/><path class="cls-30" d="M272.24,64.67a1.26,1.26,0,0,1-1,1,1.27,1.27,0,0,1-1.5-1.5,1.26,1.26,0,0,1,1-1A1.27,1.27,0,0,1,272.24,64.67Z"/><path class="cls-30" d="M283.83,64.67a1.26,1.26,0,0,1-1,1,1.27,1.27,0,0,1-1.5-1.5,1.26,1.26,0,0,1,1-1A1.27,1.27,0,0,1,283.83,64.67Z"/><path class="cls-30" d="M292.26,64.67a1.26,1.26,0,0,1-1,1,1.27,1.27,0,1,1,1-1Z"/><path class="cls-31" d="M273.71,65.35a.25.25,0,0,0-.49,0,.25.25,0,1,0,.49,0Z"/><path class="cls-31" d="M273.66,63.47a.19.19,0,1,0-.38,0h0l.08,1.43a.11.11,0,0,0,.12.09s.08,0,.09-.1l.09-1.43Z"/><path class="cls-32" d="M256.82,65.26V63.59h.28V65h.69v.28Z"/><path class="cls-32" d="M258,65.26V63.58h.27l.57,1.12V63.58h.26v1.68h-.29l-.55-1.1v1.1Z"/><path class="cls-32" d="M259.39,65.26V63.58h.28v.75l.57-.75h.37l-.52.65.55,1h-.36l-.38-.79-.23.28v.51Z"/><text class="cls-61" transform="translate(264.96 66.59)">0e</text><path class="cls-30" d="M263.81,64.67a1.27,1.27,0,1,1-2.5-.5,1.27,1.27,0,0,1,2.5.5Z"/><path class="cls-30" d="M272.24,64.67a1.26,1.26,0,0,1-1,1,1.27,1.27,0,0,1-1.5-1.5,1.26,1.26,0,0,1,1-1A1.27,1.27,0,0,1,272.24,64.67Z"/><rect class="cls-15" x="328.03" y="86.55" width="27.02" height="1.76"/><path class="cls-46" d="M154.3,82.69v7H334.76a.35.35,0,0,0,.35-.35h0V85.5a.36.36,0,0,0-.35-.36h-120a.35.35,0,0,1-.36-.35V83a.34.34,0,0,0-.35-.35H154.3Z"/><path class="cls-62" d="M165.42,82.69H149v7h49.33v-7H196a13.13,13.13,0,0,1-3.67-.53l-8.56-2.47a13.5,13.5,0,0,0-3.27-.51H169.25a.93.93,0,0,0-.71.37l-2.41,2.78A.93.93,0,0,1,165.42,82.69Z"/><path class="cls-62" d="M153.52,82.69H128.75v7h35.41a.7.7,0,0,0,.7-.7h0V79.88a.7.7,0,0,0-.7-.71H159.3a1.76,1.76,0,0,0-1.08.37l-3.63,2.78A1.74,1.74,0,0,1,153.52,82.69Z"/><path class="cls-63" d="M154.3,82.69H50.66a.34.34,0,0,0-.35.35v6.32a.35.35,0,0,0,.35.35H154.3Z"/><path class="cls-64" d="M196.33,83.94h-4.06a13.81,13.81,0,0,1-3.56-.47l-7.83-2.08a12,12,0,0,0-3.15-.42h-4.51V88.1h23.11Z"/><polygon class="cls-41" points="179.13 84.46 176.36 83.09 176.36 85.97 179.13 84.46"/><rect class="cls-65" x="72.12" y="38.46" width="52.34" height="26.28" rx="1.44" ry="1.44"/><line class="cls-65" x1="98.29" y1="64.74" x2="98.29" y2="105.23"/><path class="cls-32" d="M98.09,113.47a9,9,0,1,1,9-9A9,9,0,0,1,98.09,113.47Z"/><path class="cls-66" d="M98.09,96.39a8.09,8.09,0,1,0,8.08,8.08,8.09,8.09,0,0,0-8.08-8.08Z"/><path class="cls-32" d="M105.17,104.47a7.09,7.09,0,1,1-7.08-7.08A7.08,7.08,0,0,1,105.17,104.47Z"/><text class="cls-67" transform="translate(94.75 108.82)">1</text><rect class="cls-65" x="202.9" y="61.67" width="95.26" height="22.18" rx="1.44" ry="1.44"/><line class="cls-65" x1="250.73" y1="83.85" x2="250.73" y2="108.26"/><circle class="cls-32" cx="250.73" cy="104.47" r="9"/><path class="cls-66" d="M250.73,96.39a8.09,8.09,0,1,0,8.08,8.08,8.09,8.09,0,0,0-8.08-8.08Z"/><path class="cls-32" d="M257.81,104.47a7.09,7.09,0,1,1-7.08-7.08A7.08,7.08,0,0,1,257.81,104.47Z"/><text class="cls-67" transform="translate(247.39 108.82)">2</text></svg>