<svg id="Layer_1" data-name="Layer 1" xmlns="http://www.w3.org/2000/svg" viewBox="0 0 720 350"><defs><style>.cls-1{fill:#ccc;}.cls-2,.cls-22,.cls-23,.cls-27,.cls-29,.cls-45,.cls-48,.cls-50,.cls-51,.cls-55,.cls-58,.cls-60,.cls-61{fill:none;}.cls-2,.cls-21,.cls-31{stroke:gray;}.cls-2,.cls-21,.cls-27,.cls-29,.cls-31{stroke-linecap:round;}.cls-2,.cls-20,.cls-21,.cls-27,.cls-29,.cls-31{stroke-linejoin:round;}.cls-2{stroke-width:1.27px;}.cls-3{fill:#1a1a1a;}.cls-4{fill:#eee;}.cls-5{fill:silver;}.cls-35,.cls-5,.cls-6{stroke:#58595b;}.cls-32,.cls-33,.cls-34,.cls-35,.cls-45,.cls-48,.cls-49,.cls-5,.cls-50,.cls-51,.cls-52,.cls-55,.cls-56,.cls-57,.cls-58,.cls-59,.cls-6,.cls-60,.cls-61{stroke-miterlimit:10;}.cls-31,.cls-32,.cls-33,.cls-34,.cls-35,.cls-49,.cls-5,.cls-51{stroke-width:0.2px;}.cls-6{fill:#404041;stroke-width:0.12px;}.cls-7{fill:#404040;}.cls-31,.cls-8{fill:#e6e7e8;}.cls-9{fill:#e6e6e6;}.cls-10{fill:#292929;}.cls-11{fill:#ffcd05;}.cls-12{fill:#e0d285;}.cls-13,.cls-34{fill:#d9d9d9;}.cls-14,.cls-46{fill:#fff;}.cls-15{fill:#2e2e2e;}.cls-16{fill:#f1f1f2;}.cls-17,.cls-33{fill:#bfbfbf;}.cls-18{fill:#6d6e70;}.cls-19{fill:gray;}.cls-20{fill:#ffcc05;stroke:#e0d285;stroke-width:0.15px;}.cls-21{fill:#d0cfcd;}.cls-21,.cls-27,.cls-29{stroke-width:0.01px;}.cls-23{stroke:#fff;stroke-miterlimit:2.61;stroke-width:0.65px;}.cls-24,.cls-49,.cls-52,.cls-53,.cls-54,.cls-56,.cls-57,.cls-59{fill:#333;}.cls-25{fill:#808184;}.cls-26{fill:#e8e7de;}.cls-27{stroke:#9a9a9a;}.cls-28{fill:#666;}.cls-29{stroke:#b3b3b3;}.cls-30{fill:#d0d2d3;}.cls-32,.cls-37{fill:#262626;}.cls-32{stroke:#d0d2d3;}.cls-33,.cls-34{stroke:#929497;}.cls-35{fill:#ddd;}.cls-36{fill:#54924d;}.cls-38{fill:#4d4d4d;}.cls-39{fill:#bbbdbf;}.cls-40{fill:#ca992c;}.cls-41{fill:#aea069;}.cls-42{fill:#555;}.cls-43{fill:#6a6a6a;}.cls-44{fill:#f4855c;}.cls-45{stroke:#f7931e;}.cls-46,.cls-53,.cls-54{isolation:isolate;}.cls-46{font-size:10px;font-family:Gotham-Medium, Gotham;}.cls-47{fill:#f7f6f5;}.cls-48,.cls-49,.cls-50,.cls-51,.cls-52,.cls-55,.cls-56,.cls-57,.cls-58,.cls-59,.cls-60,.cls-61{stroke:#333;}.cls-48,.cls-52{stroke-width:0.44px;}.cls-50{stroke-width:0.68px;}.cls-53{font-size:4px;}.cls-53,.cls-54{font-family:ArialMT, Arial;}.cls-54{font-size:5px;}.cls-55,.cls-59{stroke-width:0.59px;}.cls-56,.cls-58{stroke-width:0.27px;}.cls-57,.cls-60{stroke-width:0.91px;}.cls-61{stroke-width:1.23px;}</style></defs><title>Artboard 1_Source</title><g id="Controller_Bases" data-name="Controller Bases"><g id="Sandhawk"><path class="cls-1" d="M656.34,217.23V128.67a3.62,3.62,0,0,0-3.57-3.57H67.23a3.62,3.62,0,0,0-3.57,3.57v88.56h2.88v.69a3.22,3.22,0,0,0,3.16,3.28H650.29a3.22,3.22,0,0,0,3.17-3.27h0v-.69Z"/><path class="cls-2" d="M656.34,217.23V128.67a3.62,3.62,0,0,0-3.57-3.57H67.23a3.62,3.62,0,0,0-3.57,3.57v88.56h2.88v.69a3.22,3.22,0,0,0,3.16,3.28H650.29a3.22,3.22,0,0,0,3.17-3.27h0v-.69Z"/><path class="cls-3" d="M69.71,218.72H650.29a.76.76,0,0,0,.69-.8h0V207.21h2.48V128.67a.67.67,0,0,0-.66-.7H67.23a.67.67,0,0,0-.69.67v78.57H69v10.71A.76.76,0,0,0,69.71,218.72Z"/><path class="cls-4" d="M649.19,125.63H70.8v5.06a1.34,1.34,0,0,1-1.32,1.38h-3v85.69h2.88a1.45,1.45,0,0,1,1.39,1.49h0v5.65H649.19v-5.65a1.45,1.45,0,0,1,1.39-1.49h2.88V132.07h-2.88a1.35,1.35,0,0,1-1.39-1.31v-5.13Z"/><path class="cls-2" d="M649.2,125.1H70.8v5.05a1.35,1.35,0,0,1-1.31,1.39H66.54v85.69h2.87a1.44,1.44,0,0,1,1.39,1.49h0v5.65H649.2v-5.65a1.44,1.44,0,0,1,1.39-1.49h2.87V131.54h-2.87a1.35,1.35,0,0,1-1.39-1.31V125.1Z"/><path class="cls-5" d="M392.11,160.07a8.25,8.25,0,1,0-8.26,8.24h0A8.24,8.24,0,0,0,392.11,160.07Z"/><path class="cls-6" d="M388.32,160.07a4.45,4.45,0,1,0-4.45,4.45A4.45,4.45,0,0,0,388.32,160.07Z"/><path class="cls-5" d="M541.22,160.07a8.25,8.25,0,1,0-8.26,8.24h0A8.26,8.26,0,0,0,541.22,160.07Z"/><path class="cls-6" d="M537.43,160.07a4.46,4.46,0,1,0-4.47,4.45h0A4.46,4.46,0,0,0,537.43,160.07Z"/><path class="cls-7" d="M309.36,220.07V215.9h40.52V171.33a3.82,3.82,0,0,1,3.81-3.83H367.6a1.72,1.72,0,0,0,1.72-1.72h0V132.42a3.87,3.87,0,0,1,.92-2.49H75.39a2.59,2.59,0,0,0-2.6,2.6h0v85a2.59,2.59,0,0,0,2.58,2.58h0ZM167.74,206.56a2.94,2.94,0,1,1,2.94-2.94,2.94,2.94,0,0,1-2.94,2.94Zm43.06,0a2.94,2.94,0,1,1,2.94-2.94,2.94,2.94,0,0,1-2.94,2.94Zm16.68,0a2.94,2.94,0,1,1,2.93-2.95h0a2.94,2.94,0,0,1-2.93,2.94Zm38.15,9.79h-22.4V190.89h22.4ZM344,153.16a3.92,3.92,0,1,1-3.92,3.92,3.93,3.93,0,0,1,3.92-3.92Zm0,14.11a3.92,3.92,0,1,1-3.92,3.92,3.93,3.93,0,0,1,3.92-3.92Zm-72.66-14a2.44,2.44,0,0,1,2.44-2.44h60.71a2.45,2.45,0,0,1,2.45,2.44v30.12a2.45,2.45,0,0,1-2.45,2.45H273.74a2.45,2.45,0,0,1-2.44-2.45ZM270,190.92H292.3v25.46H269.91Zm-5.69-37.73a2.85,2.85,0,1,1-.05,0h0Zm0,14.11a3.92,3.92,0,1,1-3.92,3.92,3.93,3.93,0,0,1,3.92-3.92Zm-63.61-30.53h48.48v35.4H200.61Zm-6.48,63.94a2.94,2.94,0,1,1-2.93,2.95h0a2.93,2.93,0,0,1,2.89-3ZM179.45,137.8a3.17,3.17,0,1,1-3.17,3.17h0a3.15,3.15,0,0,1,3.12-3.2h0Zm-20.84,0a3.17,3.17,0,1,1-3.17,3.17h0a3.15,3.15,0,0,1,3.12-3.2h0Zm-18.76,0a3.17,3.17,0,1,1-3.17,3.17h0a3.16,3.16,0,0,1,3.13-3.2Zm-20.84,0a3.17,3.17,0,1,1-3.17,3.17h0a3.17,3.17,0,0,1,3.14-3.2h0Zm-12.34,13.45a2.45,2.45,0,0,1,2.45-2.45h79.63a2.44,2.44,0,0,1,2.45,2.43h0v26a2.44,2.44,0,0,1-2.44,2.44H109.08a2.45,2.45,0,0,1-2.45-2.44Z"/><rect class="cls-3" x="199.6" y="136.16" width="50.51" height="36.56"/><path class="cls-8" d="M249.81,136.46v36H199.9v-36h49.91m.6-.6H199.3V173h51.11Z"/><rect class="cls-9" x="201.53" y="138.1" width="46.64" height="32.69"/><polygon class="cls-10" points="207 161.3 207 169.49 242.71 169.49 242.71 161.3 241.63 161 241.63 155.49 242.71 155.18 242.71 144.96 234.8 144.96 234.8 140.85 231.67 140.85 231.67 139.39 218.03 139.39 218.03 140.85 214.93 140.85 214.93 144.96 207 144.96 207 155.18 208.07 155.49 208.07 161 207 161.3"/><rect class="cls-11" x="217.14" y="158.91" width="1.03" height="10.17"/><path class="cls-12" d="M218.07,159v10h-.83V159h.83m.2-.2H217v10.37h1.23V158.81Z"/><rect class="cls-11" x="220.03" y="158.91" width="1.02" height="10.17"/><path class="cls-12" d="M221,159v10h-.82V159H221m.2-.2H220v10.37h1.22V158.81Z"/><rect class="cls-11" x="222.91" y="158.91" width="1.02" height="10.17"/><path class="cls-12" d="M223.82,159v10H223V159h.81m.2-.2H222.8v10.37H224V158.81Z"/><rect class="cls-11" x="225.78" y="158.91" width="1.02" height="10.17"/><path class="cls-12" d="M226.7,159v10h-.82V159h.82m.2-.2h-1.22v10.37h1.22V158.81Z"/><rect class="cls-11" x="228.66" y="158.91" width="1.02" height="10.17"/><path class="cls-12" d="M229.57,159v10h-.81V159h.81m.2-.2h-1.21v10.37h1.21V158.81Z"/><rect class="cls-11" x="231.54" y="158.91" width="1.02" height="10.17"/><path class="cls-12" d="M232.46,159v10h-.82V159h.82m.2-.2h-1.22v10.37h1.22V158.81Z"/><rect class="cls-11" x="234.42" y="158.91" width="1.02" height="10.17"/><path class="cls-12" d="M235.33,159v10h-.81V159h.81m.2-.2h-1.21v10.37h1.21V158.81Z"/><rect class="cls-11" x="214.27" y="158.91" width="1.02" height="10.17"/><path class="cls-12" d="M215.18,159v10h-.81V159h.81m.2-.2h-1.21v10.37h1.21V158.81Z"/><path class="cls-13" d="M257.14,129.93v57.29h92.74V171.33a3.83,3.83,0,0,1,1.16-2.75V129.93Zm7.08,45.18a3.92,3.92,0,1,1,3.91-3.93h0a3.91,3.91,0,0,1-3.9,3.92Zm0-14.11a3.92,3.92,0,1,1,3.91-3.93h0a3.92,3.92,0,0,1-3.91,3.92Zm72.68,22.36a2.45,2.45,0,0,1-2.45,2.45H273.74a2.45,2.45,0,0,1-2.44-2.45V153.24a2.44,2.44,0,0,1,2.44-2.44h60.71a2.45,2.45,0,0,1,2.45,2.44Zm7.06-8.25a3.92,3.92,0,1,1,3.92-3.92,3.93,3.93,0,0,1-3.92,3.92ZM344,161a3.92,3.92,0,1,1,3.92-3.92A3.93,3.93,0,0,1,344,161Z"/><polygon class="cls-14" points="96.89 162.98 98.42 162.98 98.42 164.2 101.61 164.2 101.61 161.32 98.42 161.32 98.42 162.77 96.89 162.77 96.89 155.19 98.44 155.19 98.44 156.55 101.62 156.55 101.62 153.67 98.44 153.67 98.44 154.97 96.89 154.97 96.89 153.67 96.69 153.67 96.69 159.06 94.99 159.06 94.99 157.66 91.8 157.66 91.8 160.52 94.99 160.52 94.99 159.26 96.69 159.26 96.69 164.21 96.89 164.21 96.89 162.98"/><path class="cls-9" d="M273.65,187.22a3.72,3.72,0,0,1-3.71-3.72V154.13a3.73,3.73,0,0,1,1.09-2.64,3.79,3.79,0,0,1,2.63-1.09h60.85a3.73,3.73,0,0,1,3.73,3.71v29.38a3.7,3.7,0,0,1-1.1,2.64,3.75,3.75,0,0,1-2.63,1.09Z"/><path class="cls-15" d="M334.51,185.69a2.19,2.19,0,0,0,2.2-2.18V154.13a2.19,2.19,0,0,0-2.18-2.2H273.66a2.2,2.2,0,0,0-1.55.64,2.22,2.22,0,0,0-.64,1.56V183.5a2.2,2.2,0,0,0,.64,1.55,2.22,2.22,0,0,0,1.56.64Z"/><path class="cls-16" d="M334.51,184.6a1.11,1.11,0,0,0,1.11-1.1h0V154.13a1.11,1.11,0,0,0-1.11-1.11H273.66a1.11,1.11,0,0,0-1.1,1.11V183.5a1.1,1.1,0,0,0,1.1,1.1h60.85Z"/><path class="cls-10" d="M334.51,153.55a.58.58,0,0,1,.59.57h0V183.5a.58.58,0,0,1-.58.58H304.35V153.55Z"/><path class="cls-10" d="M273.66,153.55a.58.58,0,0,0-.58.58h0V183.5a.58.58,0,0,0,.58.58h30.17V153.55Z"/><rect class="cls-17" x="278.99" y="184.08" width="18.93" height="0.52"/><rect class="cls-17" x="310.26" y="184.08" width="18.93" height="0.52"/><rect class="cls-16" x="314.39" y="184.08" width="10.66" height="0.52"/><rect class="cls-16" x="283.12" y="184.08" width="10.66" height="0.52"/><rect class="cls-18" x="275.79" y="157.43" width="25.33" height="22.77"/><rect class="cls-19" x="276.39" y="160.46" width="24.13" height="5.36"/><rect class="cls-18" x="277.12" y="161.46" width="22.68" height="3.35"/><rect class="cls-20" x="296.67" y="159.39" width="0.52" height="7.5"/><rect class="cls-20" x="290.31" y="159.39" width="0.52" height="7.5"/><rect class="cls-20" x="288.19" y="159.39" width="0.52" height="7.5"/><rect class="cls-20" x="283.95" y="159.39" width="0.52" height="7.5"/><rect class="cls-20" x="281.83" y="159.39" width="0.52" height="7.5"/><rect class="cls-20" x="279.71" y="159.39" width="0.52" height="7.5"/><rect class="cls-20" x="294.55" y="159.39" width="0.52" height="7.5"/><rect class="cls-20" x="292.43" y="159.39" width="0.52" height="7.5"/><rect class="cls-20" x="286.07" y="159.39" width="0.52" height="7.5"/><rect class="cls-3" x="277.75" y="162.14" width="21.42" height="1.99"/><rect class="cls-19" x="276.39" y="171.82" width="24.13" height="5.36"/><rect class="cls-18" x="277.12" y="172.83" width="22.68" height="3.35"/><rect class="cls-20" x="296.67" y="170.76" width="0.52" height="7.5"/><rect class="cls-20" x="290.31" y="170.76" width="0.52" height="7.5"/><rect class="cls-20" x="288.19" y="170.76" width="0.52" height="7.5"/><rect class="cls-20" x="283.95" y="170.76" width="0.52" height="7.5"/><rect class="cls-20" x="281.83" y="170.76" width="0.52" height="7.5"/><rect class="cls-20" x="279.71" y="170.76" width="0.52" height="7.5"/><rect class="cls-20" x="294.55" y="170.76" width="0.52" height="7.5"/><rect class="cls-20" x="292.43" y="170.76" width="0.52" height="7.5"/><rect class="cls-20" x="286.07" y="170.76" width="0.52" height="7.5"/><rect class="cls-3" x="277.75" y="173.51" width="21.42" height="1.99"/><rect class="cls-18" x="307.06" y="157.43" width="25.33" height="22.77"/><rect class="cls-19" x="307.66" y="160.46" width="24.13" height="5.36"/><rect class="cls-18" x="308.39" y="161.46" width="22.68" height="3.35"/><rect class="cls-20" x="327.94" y="159.39" width="0.52" height="7.5"/><rect class="cls-20" x="321.58" y="159.39" width="0.52" height="7.5"/><rect class="cls-20" x="319.46" y="159.39" width="0.52" height="7.5"/><rect class="cls-20" x="315.22" y="159.39" width="0.52" height="7.5"/><rect class="cls-20" x="313.1" y="159.39" width="0.52" height="7.5"/><rect class="cls-20" x="310.98" y="159.39" width="0.52" height="7.5"/><rect class="cls-20" x="325.82" y="159.39" width="0.52" height="7.5"/><rect class="cls-20" x="323.7" y="159.39" width="0.52" height="7.5"/><rect class="cls-20" x="317.34" y="159.39" width="0.52" height="7.5"/><rect class="cls-3" x="309.02" y="162.14" width="21.42" height="1.99"/><rect class="cls-19" x="307.66" y="171.82" width="24.13" height="5.36"/><rect class="cls-18" x="308.39" y="172.83" width="22.68" height="3.35"/><rect class="cls-20" x="327.94" y="170.76" width="0.52" height="7.5"/><rect class="cls-20" x="321.58" y="170.76" width="0.52" height="7.5"/><rect class="cls-20" x="319.46" y="170.76" width="0.52" height="7.5"/><rect class="cls-20" x="315.22" y="170.76" width="0.52" height="7.5"/><rect class="cls-20" x="313.1" y="170.76" width="0.52" height="7.5"/><rect class="cls-20" x="310.98" y="170.76" width="0.52" height="7.5"/><rect class="cls-20" x="325.82" y="170.76" width="0.52" height="7.5"/><rect class="cls-20" x="323.7" y="170.76" width="0.52" height="7.5"/><rect class="cls-20" x="317.34" y="170.76" width="0.52" height="7.5"/><rect class="cls-3" x="309.02" y="173.51" width="21.42" height="1.99"/><path class="cls-21" d="M316.89,184.11l.82-.63a.81.81,0,0,1,.47-.16h3.08a.84.84,0,0,1,.48.16l.81.63H324a.81.81,0,0,1-.47-.16l-1.34-1a1.47,1.47,0,0,0-.9-.31h-3.08a1.47,1.47,0,0,0-.9.31L316,184a.81.81,0,0,1-.47.16Z"/><path class="cls-21" d="M285.62,184.11l.82-.63a.81.81,0,0,1,.47-.16H290a.81.81,0,0,1,.47.16l.81.63h1.42a.81.81,0,0,1-.47-.16l-1.34-1a1.44,1.44,0,0,0-.89-.31h-3.09a1.47,1.47,0,0,0-.9.31l-1.33,1a.81.81,0,0,1-.47.16Z"/><polyline class="cls-14" points="96.57 171.54 98.01 171.54 98.01 173.11 102.47 170.72 96.57 170.72"/><rect class="cls-14" x="90.92" y="167.36" width="11.85" height="0.93"/><rect class="cls-14" x="90.92" y="173.81" width="11.85" height="0.93"/><polyline class="cls-14" points="96.59 170.71 95.11 170.71 95.11 169.14 90.65 171.53 96.59 171.53"/><path class="cls-14" d="M127.65,143.07c.83,0,1.52.52,1.52,2.12s-.69,2.16-1.52,2.16-1.5-.52-1.5-2.16S126.84,143.07,127.65,143.07Zm0,3.59c.69,0,.69-1,.69-1.47s0-1.43-.69-1.43-.67,1-.67,1.43S127,146.66,127.65,146.66Z"/><path class="cls-14" d="M129.58,145.16c0-.78.74-1,1.43-1s1.33.14,1.33.87v1.58a1.46,1.46,0,0,0,.11.68h-.85a1.59,1.59,0,0,1-.06-.3,1.38,1.38,0,0,1-1,.38.88.88,0,0,1-1-.91c0-.62.52-.85,1-.93s1,0,1-.4-.25-.41-.55-.41a.48.48,0,0,0-.55.4v.06Zm1.93.62a1.72,1.72,0,0,1-.7.17c-.26.06-.49.15-.49.45s.24.39.51.39a.63.63,0,0,0,.68-.57.56.56,0,0,0,0-.13Z"/><path class="cls-14" d="M167.22,143.07c.82,0,1.52.52,1.52,2.12s-.7,2.16-1.52,2.16-1.51-.52-1.51-2.16S166.41,143.07,167.22,143.07Zm0,3.59c.68,0,.68-1,.68-1.47s0-1.43-.68-1.43-.67,1-.67,1.43S166.55,146.66,167.22,146.66Z"/><path class="cls-14" d="M169.18,143.07H170v1.53h0a1.14,1.14,0,0,1,.95-.46c.61,0,1.26.49,1.26,1.6s-.65,1.61-1.26,1.61a1.08,1.08,0,0,1-1-.47h0v.39h-.79Zm1.52,1.7c-.5,0-.72.47-.72,1s.22,1,.72,1,.71-.46.71-1S171.19,144.77,170.7,144.77Z"/><polygon class="cls-14" points="115.06 136.12 115.06 132.78 115.5 132.78 115.5 135.73 117.14 135.73 117.14 136.12 115.06 136.12"/><polygon class="cls-14" points="117.31 136.12 117.31 132.78 117.76 132.78 119.51 135.4 119.51 132.78 119.93 132.78 119.93 136.12 119.48 136.12 117.73 133.5 117.73 136.12 117.31 136.12"/><polygon class="cls-14" points="120.13 136.12 120.13 132.78 120.58 132.78 120.58 134.44 122.23 132.78 122.83 132.78 121.43 134.13 122.89 136.12 122.31 136.12 121.12 134.43 120.58 134.96 120.58 136.12 120.13 136.12"/><path class="cls-14" d="M140.09,133.05c0,.15-.27,2.26-.27,2.26s-.26-2.11-.26-2.26a.27.27,0,1,1,.53-.1A.17.17,0,0,1,140.09,133.05Z"/><path class="cls-14" d="M140.11,135.82a.3.3,0,1,1-.3-.3.29.29,0,0,1,.3.28Z"/><polygon class="cls-14" points="154.65 136.12 154.65 132.78 155.09 132.78 155.09 135.73 156.73 135.73 156.73 136.12 154.65 136.12"/><polygon class="cls-14" points="156.9 136.12 156.9 132.78 157.35 132.78 159.1 135.4 159.1 132.78 159.53 132.78 159.53 136.12 159.08 136.12 157.33 133.5 157.33 136.12 156.9 136.12"/><polygon class="cls-14" points="159.73 136.12 159.73 132.78 160.17 132.78 160.17 134.44 161.83 132.78 162.42 132.78 161.03 134.13 162.48 136.12 161.9 136.12 160.72 134.43 160.17 134.96 160.17 136.12 159.73 136.12"/><path class="cls-14" d="M179.68,133.05c0,.15-.26,2.26-.26,2.26s-.27-2.11-.27-2.26a.27.27,0,1,1,.53-.1A.17.17,0,0,1,179.68,133.05Z"/><path class="cls-14" d="M179.71,135.82a.29.29,0,0,1-.3.3h0a.3.3,0,1,1,.3-.3Z"/><path class="cls-14" d="M227.68,135.33a2,2,0,1,0-2-2,2,2,0,0,0,2,2m0-3.49a1.5,1.5,0,1,1-1.49,1.51v0a1.51,1.51,0,0,1,1.49-1.49"/><path class="cls-14" d="M222,135.33a2,2,0,1,0-2-2,2,2,0,0,0,2,2m0-3.49a1.5,1.5,0,1,1-1.49,1.51v0a1.49,1.49,0,0,1,1.49-1.49h0"/><rect class="cls-14" x="230.27" y="131.34" width="0.5" height="3.98"/><rect class="cls-14" x="224.6" y="131.34" width="0.5" height="3.98"/><rect class="cls-14" x="218.94" y="131.34" width="0.5" height="3.98"/><polygon class="cls-14" points="228 215.47 228.61 213.32 230.99 213.32 230.99 213.96 229.08 213.96 227.78 218.4 226.97 211.83 226.3 214.08 223.97 214.08 223.97 213.45 225.84 213.45 227.17 208.94 228 215.47"/><path class="cls-14" d="M195.43,213.41a1.38,1.38,0,0,0,.12-.56,1.42,1.42,0,0,0-1.42-1.41,1.4,1.4,0,0,0-1.41,1.39v0a1.55,1.55,0,0,0,.11.56h0a.77.77,0,0,0,.07.16l1.22,2.32,1.21-2.32a1.09,1.09,0,0,0,.08-.15Zm-.56-.63a.75.75,0,1,1-.75-.75.76.76,0,0,1,.75.75"/><path class="cls-14" d="M194.13,216.93a3.26,3.26,0,1,1,3.26-3.27,3.26,3.26,0,0,1-3.26,3.27h0m3.65-3.27a3.65,3.65,0,1,0-3.65,3.66,3.64,3.64,0,0,0,3.65-3.66"/><path class="cls-14" d="M164.24,212.49H165a3.11,3.11,0,1,1,.06,2.35h-.82a3.72,3.72,0,1,0,0-2.35Z"/><path class="cls-14" d="M166.81,212.4v.72H165.4v.95h1.41v.74l1-1.23-1-1.18Zm-3.28.72v.95H165v-.95Zm-1.4,0v.95h1v-.95Zm-1.12,0v.95h.69v-.95Z"/><path class="cls-14" d="M211.39,210.7c0,.31-.58,4.79-.58,4.79s-.54-4.48-.54-4.79a.56.56,0,0,1,1.12,0Z"/><path class="cls-14" d="M211.45,216.56a.65.65,0,1,1-.65-.64A.65.65,0,0,1,211.45,216.56Z"/><rect class="cls-22" x="76.24" y="201.09" width="70.58" height="15.53"/><polyline class="cls-23" points="146.82 214.15 146.82 216.61 144.34 216.61"/><polyline class="cls-23" points="76.24 214.14 76.24 216.62 78.7 216.62"/><rect class="cls-22" x="76.24" y="181.68" width="70.58" height="15.53"/><polyline class="cls-23" points="146.82 194.74 146.82 197.2 144.34 197.2"/><polyline class="cls-23" points="76.24 194.73 76.24 197.21 78.7 197.21"/><path class="cls-24" d="M280.4,144.3h3.14v.78h-2.22v.9h2v.71h-2v1h2.26v.78H280.4Z"/><path class="cls-24" d="M285.24,146.3l-1.36-2H285l.83,1.34.85-1.34h1l-1.34,2,1.46,2.19h-1.1l-.92-1.45-.93,1.45h-1Z"/><path class="cls-24" d="M288.13,144.3H290a1.35,1.35,0,1,1,.23,2.69H289v1.51h-.92Zm.92,2h.72c.43,0,.81-.1.81-.63s-.38-.63-.81-.63h-.72Z"/><path class="cls-24" d="M294,148.5h-.83v-2.67h-1v-.63c.58,0,1.12-.19,1.21-.82H294Z"/><path class="cls-24" d="M313.67,144.3h3.14v.78H314.6v.9h2v.71h-2v1h2.26v.78h-3.19Z"/><path class="cls-24" d="M318.51,146.3l-1.35-2h1.07l.82,1.34.86-1.34h1l-1.35,2,1.44,2.2h-1.1l-.92-1.45L318,148.5h-1Z"/><path class="cls-24" d="M321.41,144.3h1.89a1.35,1.35,0,1,1,.23,2.69H322.3v1.51h-.92Zm.92,2h.72c.43,0,.81-.1.81-.63s-.38-.63-.81-.63h-.72Z"/><path class="cls-24" d="M325.14,146a1.46,1.46,0,0,1,1.25-1.65h.25a1.31,1.31,0,0,1,1.41,1.21v.08a1.42,1.42,0,0,1-.74,1.24,4.57,4.57,0,0,0-1.19.95h1.95v.72h-3c0-.95.59-1.36,1.3-1.84.36-.25.86-.5.86-1a.6.6,0,0,0-.57-.63h-.05c-.49,0-.65.51-.65.94Z"/><path class="cls-24" d="M300.53,134.52h.38a.42.42,0,0,0,.14.28.41.41,0,0,0,.28.09.44.44,0,0,0,.29-.08.25.25,0,0,0,.09-.19.21.21,0,0,0,0-.11.65.65,0,0,0-.14-.09l-.31-.08a1,1,0,0,1-.44-.19.53.53,0,0,1-.18-.39.54.54,0,0,1,.08-.28.55.55,0,0,1,.25-.2,1.21,1.21,0,0,1,.38-.06.75.75,0,0,1,.54.16.55.55,0,0,1,.2.43h-.39a.33.33,0,0,0-.11-.21.37.37,0,0,0-.25-.07.42.42,0,0,0-.27.07.16.16,0,0,0,0,.24,1.11,1.11,0,0,0,.36.13,1.48,1.48,0,0,1,.42.14.49.49,0,0,1,.29.5.58.58,0,0,1-.35.53,1,1,0,0,1-.42.07.89.89,0,0,1-.57-.17.75.75,0,0,1-.23-.49"/><path class="cls-24" d="M300.53,140.67h.38a.42.42,0,0,0,.14.28.41.41,0,0,0,.28.09.43.43,0,0,0,.29-.08.25.25,0,0,0,.09-.19.21.21,0,0,0,0-.11.42.42,0,0,0-.14-.09l-.31-.08a1,1,0,0,1-.44-.19.53.53,0,0,1-.18-.39.54.54,0,0,1,.08-.28.53.53,0,0,1,.25-.19.83.83,0,0,1,.38-.07.75.75,0,0,1,.54.16.55.55,0,0,1,.2.43h-.39a.33.33,0,0,0-.11-.21.43.43,0,0,0-.25-.07.52.52,0,0,0-.27.07.16.16,0,0,0,0,.24,1.11,1.11,0,0,0,.36.13,1.48,1.48,0,0,1,.42.14.7.7,0,0,1,.22.2.53.53,0,0,1,.07.3.62.62,0,0,1-.09.32.66.66,0,0,1-.26.21,1,1,0,0,1-.42.07.89.89,0,0,1-.57-.17.75.75,0,0,1-.23-.49"/><path class="cls-24" d="M302.29,138.17h-.42l-.17-.44h-.78l-.16.44h-.41l.75-1.93h.42Zm-.72-.76-.27-.72-.26.72Z"/><path class="cls-24" d="M293.71,139.33v-4.85h-3v1.8h1.5v1.26h-1.5v1.79Zm1.77-5.68,1.65-.57L296,134.4l-.08-.39-2.13,1.49v3l2,1.4.12-.45,1.08,1.36-1.6-.6.37-.23-2-1.38v.85h-3.18v-1.87H289v-1.26h1.55V134.4h3.18v1l2.08-1.45Z"/><path class="cls-24" d="M294.82,137.88a.19.19,0,0,0-.18-.2h0a.2.2,0,0,0-.2.2h0a.22.22,0,0,0,.2.21.2.2,0,0,0,.2-.2Z"/><path class="cls-24" d="M295.57,138.22a.22.22,0,0,0-.21-.2.2.2,0,0,0-.2.2h0a.19.19,0,0,0,.18.2h0a.2.2,0,0,0,.21-.19Z"/><path class="cls-24" d="M296.31,138.57a.21.21,0,0,0-.21-.21.2.2,0,0,0-.2.2h0a.2.2,0,0,0,.2.2h0A.22.22,0,0,0,296.31,138.57Z"/><path class="cls-24" d="M297.05,138.91a.23.23,0,0,0-.21-.21.22.22,0,0,0-.2.21.2.2,0,0,0,.2.2h0A.22.22,0,0,0,297.05,138.91Z"/><path class="cls-24" d="M297.79,139.25a.22.22,0,0,0-.21-.2.2.2,0,0,0-.2.2h0a.19.19,0,0,0,.18.2h0a.2.2,0,0,0,.21-.19Z"/><path class="cls-24" d="M298.52,139.59a.2.2,0,0,0-.2-.2h0a.19.19,0,0,0-.2.18v0a.2.2,0,0,0,.19.21h0A.22.22,0,0,0,298.52,139.59Z"/><path class="cls-24" d="M294.82,135.93a.19.19,0,0,0-.19-.19h0a.19.19,0,0,0-.2.18h0a.2.2,0,0,0,.19.21h0a.2.2,0,0,0,.2-.2Z"/><path class="cls-24" d="M295.57,135.59a.22.22,0,0,0-.21-.2.2.2,0,0,0-.2.2h0a.22.22,0,0,0,.2.21A.23.23,0,0,0,295.57,135.59Z"/><path class="cls-24" d="M296.31,135.25a.23.23,0,0,0-.21-.21.22.22,0,0,0-.2.21.2.2,0,0,0,.2.2h0A.22.22,0,0,0,296.31,135.25Z"/><path class="cls-24" d="M297.05,134.91a.2.2,0,0,0-.2-.2h0a.19.19,0,0,0-.2.18v0a.2.2,0,0,0,.2.2h0A.22.22,0,0,0,297.05,134.91Z"/><path class="cls-24" d="M297.79,134.56a.22.22,0,0,0-.21-.2.2.2,0,0,0-.2.2h0a.2.2,0,0,0,.19.21h0A.21.21,0,0,0,297.79,134.56Z"/><path class="cls-24" d="M298.52,134.22a.2.2,0,0,0-.2-.2h0a.19.19,0,0,0-.2.18v0a.2.2,0,0,0,.19.21h0A.22.22,0,0,0,298.52,134.22Z"/><path class="cls-24" d="M299.75,136.91a.22.22,0,0,0-.2-.21.2.2,0,0,0-.2.2h0a.19.19,0,0,0,.18.2h0a.2.2,0,0,0,.2-.2Z"/><path class="cls-24" d="M298.94,136.91a.22.22,0,0,0-.2-.21.21.21,0,0,0-.21.21.2.2,0,0,0,.2.2h0A.22.22,0,0,0,298.94,136.91Z"/><path class="cls-24" d="M298.12,136.91a.21.21,0,0,0-.21-.21.21.21,0,0,0-.19.21.2.2,0,0,0,.4,0Z"/><path class="cls-24" d="M297.3,136.91a.2.2,0,0,0-.19-.21h0a.22.22,0,0,0-.2.21.2.2,0,0,0,.2.2h0a.19.19,0,0,0,.2-.18Z"/><path class="cls-24" d="M296.49,136.91a.21.21,0,0,0-.16-.25.21.21,0,0,0-.25.16.14.14,0,0,0,0,.09.2.2,0,0,0,.2.2h0a.2.2,0,0,0,.2-.2Z"/><path class="cls-24" d="M295.68,136.91a.21.21,0,0,0-.16-.25.21.21,0,0,0-.25.16.14.14,0,0,0,0,.09.2.2,0,0,0,.2.2h0a.2.2,0,0,0,.21-.19Z"/><path class="cls-24" d="M294.86,136.91a.22.22,0,0,0-.2-.21.2.2,0,0,0-.2.2h0a.19.19,0,0,0,.18.2h0a.2.2,0,0,0,.2-.2Z"/><polygon class="cls-24" points="311.15 135.99 311.15 134.09 307.73 137.6 311.15 141.11 311.15 138.91 312.92 138.91 312.92 135.99 311.15 135.99"/><polygon class="cls-24" points="315.7 135.99 315.7 134.09 319.12 137.6 315.7 141.11 315.7 138.91 313.94 138.91 313.94 135.99 315.7 135.99"/><path class="cls-24" d="M264.66,146.82c0,.23-.43,3.58-.43,3.58s-.42-3.35-.42-3.58a.44.44,0,0,1,.49-.36A.42.42,0,0,1,264.66,146.82Z"/><path class="cls-24" d="M264.69,151.21a.48.48,0,1,1-.48-.48.47.47,0,0,1,.48.48Z"/><polygon class="cls-24" points="259.38 165.81 259.38 162.1 259.87 162.1 259.87 165.37 261.69 165.37 261.69 165.81 259.38 165.81"/><polygon class="cls-24" points="262.27 165.81 262.27 162.1 262.77 162.1 264.72 165.01 264.72 162.1 265.19 162.1 265.19 165.81 264.68 165.81 262.74 162.9 262.74 165.81 262.27 165.81"/><polygon class="cls-24" points="265.99 165.81 265.99 162.1 266.48 162.1 266.48 163.94 268.32 162.1 268.98 162.1 267.43 163.6 269.05 165.81 268.41 165.81 267.09 163.93 266.48 164.52 266.48 165.81 265.99 165.81"/><path class="cls-24" d="M344.4,146.82c0,.23-.42,3.58-.42,3.58s-.42-3.35-.42-3.58a.42.42,0,1,1,.84,0Z"/><path class="cls-24" d="M344.44,151.21a.47.47,0,0,1-.46.48h0a.47.47,0,0,1-.48-.48h0a.5.5,0,0,1,.48-.48.47.47,0,0,1,.48.48Z"/><polygon class="cls-24" points="339.12 165.81 339.12 162.1 339.61 162.1 339.61 165.37 341.44 165.37 341.44 165.81 339.12 165.81"/><polygon class="cls-24" points="342.02 165.81 342.02 162.1 342.52 162.1 344.47 165.01 344.47 162.1 344.94 162.1 344.94 165.81 344.43 165.81 342.49 162.9 342.49 165.81 342.02 165.81"/><polygon class="cls-24" points="345.74 165.81 345.74 162.1 346.23 162.1 346.23 163.94 348.07 162.1 348.73 162.1 347.18 163.6 348.8 165.81 348.15 165.81 346.83 163.93 346.23 164.52 346.23 165.81 345.74 165.81"/><path class="cls-25" d="M267.55,157.08a3.34,3.34,0,1,0-3.34,3.34h0a3.33,3.33,0,0,0,3.34-3.32Z"/><path class="cls-25" d="M267.55,171.19a3.34,3.34,0,1,0-3.34,3.34h0A3.35,3.35,0,0,0,267.55,171.19Z"/><path class="cls-25" d="M347.3,157.08a3.34,3.34,0,1,0-3.34,3.34h0a3.33,3.33,0,0,0,3.34-3.32Z"/><path class="cls-25" d="M347.3,171.19a3.34,3.34,0,1,0-3.34,3.34h0A3.35,3.35,0,0,0,347.3,171.19Z"/><rect class="cls-9" x="242.65" y="190.42" width="23.56" height="26.41"/><path class="cls-3" d="M243.73,215.75h21.41V191.5H243.72v24.24Z"/><rect class="cls-26" x="244.43" y="192.2" width="19.99" height="22.84"/><rect class="cls-27" x="244.43" y="192.2" width="19.99" height="22.84"/><path class="cls-28" d="M257.34,198.54a.17.17,0,0,0,.1,0l1.31-1.1a.17.17,0,0,0,0-.21h0l-.45-.53a.14.14,0,0,0-.12-.06H252.9l-.65.54a.16.16,0,0,0,0,.22h0l.91,1.08a.14.14,0,0,0,.11.06Z"/><path class="cls-28" d="M257.75,203.4l1-.85a.15.15,0,0,0,.06-.09l.75-4.25a.24.24,0,0,0,0-.12l-.44-.53a.15.15,0,0,0-.21,0h0l-1.31,1.1a.26.26,0,0,0,0,.09l-.66,3.74a.15.15,0,0,0,0,.13l.66.78A.17.17,0,0,0,257.75,203.4Z"/><path class="cls-28" d="M257.49,203.84l-1,.85a.15.15,0,0,0-.06.09l-.66,3.74a.15.15,0,0,0,0,.13l.91,1.08a.14.14,0,0,0,.2,0h0l.65-.54a.11.11,0,0,0,0-.09l.77-4.35a.29.29,0,0,0,0-.13l-.66-.78A.17.17,0,0,0,257.49,203.84Z"/><path class="cls-28" d="M256.27,204.59h.1l1-.84a.18.18,0,0,0,0-.22h0l-.66-.78a.14.14,0,0,0-.12-.06H252.5l-1,.84a.18.18,0,0,0,0,.22h0l.66.78a.14.14,0,0,0,.12.06Z"/><path class="cls-28" d="M251.37,203.4l1-.85a.15.15,0,0,0,.06-.09l.66-3.74a.29.29,0,0,0,0-.13l-.91-1.08a.15.15,0,0,0-.21,0h0l-.64.54a.11.11,0,0,0,0,.09l-.77,4.35a.15.15,0,0,0,0,.13l.66.78A.17.17,0,0,0,251.37,203.4Z"/><path class="cls-28" d="M255.82,210.64a.17.17,0,0,0,.1,0l.64-.54a.15.15,0,0,0,0-.21h0l-.91-1.08a.14.14,0,0,0-.12-.06h-4a.17.17,0,0,0-.1,0l-1.31,1.1a.17.17,0,0,0,0,.21h0l.45.53a.14.14,0,0,0,.11.06Z"/><path class="cls-28" d="M251.36,208.51l.66-3.74a.29.29,0,0,0,0-.13l-.66-.78a.18.18,0,0,0-.22,0l-1,.85a.15.15,0,0,0-.06.09l-.78,4.2a.24.24,0,0,0,0,.12l.44.53a.15.15,0,0,0,.21,0h0l1.31-1.09Z"/><path class="cls-28" d="M261.94,209.54a1.1,1.1,0,1,0-1.1,1.1h0a1.09,1.09,0,0,0,1.09-1.09Z"/><path class="cls-29" d="M257.34,198.54a.17.17,0,0,0,.1,0l1.31-1.1a.17.17,0,0,0,0-.21h0l-.45-.53a.14.14,0,0,0-.12-.06H252.9l-.65.54a.16.16,0,0,0,0,.22h0l.91,1.08a.14.14,0,0,0,.11.06Z"/><path class="cls-29" d="M257.75,203.4l1-.85a.15.15,0,0,0,.06-.09l.75-4.25a.24.24,0,0,0,0-.12l-.44-.53a.15.15,0,0,0-.21,0h0l-1.31,1.1a.26.26,0,0,0,0,.09l-.66,3.74a.15.15,0,0,0,0,.13l.66.78A.17.17,0,0,0,257.75,203.4Z"/><path class="cls-29" d="M257.49,203.84l-1,.85a.15.15,0,0,0-.06.09l-.66,3.74a.15.15,0,0,0,0,.13l.91,1.08a.14.14,0,0,0,.2,0h0l.65-.54a.11.11,0,0,0,0-.09l.77-4.35a.29.29,0,0,0,0-.13l-.66-.78A.17.17,0,0,0,257.49,203.84Z"/><path class="cls-29" d="M256.27,204.59h.1l1-.84a.18.18,0,0,0,0-.22h0l-.66-.78a.14.14,0,0,0-.12-.06H252.5l-1,.84a.18.18,0,0,0,0,.22h0l.66.78a.14.14,0,0,0,.12.06Z"/><path class="cls-29" d="M251.37,203.4l1-.85a.15.15,0,0,0,.06-.09l.66-3.74a.29.29,0,0,0,0-.13l-.91-1.08a.15.15,0,0,0-.21,0h0l-.64.54a.11.11,0,0,0,0,.09l-.77,4.35a.15.15,0,0,0,0,.13l.66.78A.17.17,0,0,0,251.37,203.4Z"/><path class="cls-29" d="M255.82,210.64a.17.17,0,0,0,.1,0l.64-.54a.15.15,0,0,0,0-.21h0l-.91-1.08a.14.14,0,0,0-.12-.06h-4a.17.17,0,0,0-.1,0l-1.31,1.1a.17.17,0,0,0,0,.21h0l.45.53a.14.14,0,0,0,.11.06Z"/><path class="cls-29" d="M251.36,208.51l.66-3.74a.29.29,0,0,0,0-.13l-.66-.78a.18.18,0,0,0-.22,0l-1,.85a.15.15,0,0,0-.06.09l-.78,4.2a.24.24,0,0,0,0,.12l.44.53a.15.15,0,0,0,.21,0h0l1.31-1.09Z"/><path class="cls-29" d="M261.94,209.54a1.1,1.1,0,1,0-1.1,1.1h0a1.09,1.09,0,0,0,1.09-1.09Z"/><rect class="cls-9" x="269.32" y="190.42" width="23.56" height="26.41"/><path class="cls-3" d="M270.41,215.75h21.4V191.5H270.4v24.24Z"/><rect class="cls-26" x="271.11" y="192.2" width="19.99" height="22.84"/><rect class="cls-27" x="271.11" y="192.2" width="19.99" height="22.84"/><path class="cls-28" d="M278.19,208.7h-.1l-1.3,1.1a.14.14,0,0,0,0,.2h0l.44.53a.14.14,0,0,0,.12.06h5.17a.14.14,0,0,0,.09,0l.65-.54a.18.18,0,0,0,0-.22h0l-.91-1.08a.14.14,0,0,0-.12-.06Z"/><path class="cls-28" d="M277.79,203.84l-1,.85a.14.14,0,0,0,0,.09L276,209a.13.13,0,0,0,0,.12l.45.53a.14.14,0,0,0,.2,0h0l1.31-1.09a.17.17,0,0,0,0-.1l.66-3.74a.15.15,0,0,0,0-.13l-.66-.78A.15.15,0,0,0,277.79,203.84Z"/><path class="cls-28" d="M278,203.4l1-.85a.11.11,0,0,0,.05-.09l.66-3.74a.15.15,0,0,0,0-.13l-.91-1.08a.15.15,0,0,0-.21,0h0L278,198a.41.41,0,0,0-.05.09l-.77,4.35a.29.29,0,0,0,0,.13l.66.78A.16.16,0,0,0,278,203.4Z"/><path class="cls-28" d="M279.26,202.65a.17.17,0,0,0-.1,0l-1,.84a.16.16,0,0,0,0,.22h0l.65.78a.14.14,0,0,0,.12.06H283l1-.84a.15.15,0,0,0,0-.21h0l-.66-.78a.14.14,0,0,0-.11-.06Z"/><path class="cls-28" d="M284.17,203.84l-1,.85a.11.11,0,0,0-.05.09h0l-.66,3.74a.15.15,0,0,0,0,.13l.91,1.08a.15.15,0,0,0,.21,0h0l.64-.54a.15.15,0,0,0,.06-.09l.76-4.35a.15.15,0,0,0,0-.13l-.66-.78A.16.16,0,0,0,284.17,203.84Z"/><path class="cls-28" d="M279.71,196.6h-.1l-.64.54a.15.15,0,0,0,0,.21h0l.91,1.08a.14.14,0,0,0,.12.06h4.09l1.31-1.1a.14.14,0,0,0,0-.2h0l-.44-.53a.14.14,0,0,0-.12-.06Z"/><path class="cls-28" d="M284.17,198.73l-.66,3.74a.29.29,0,0,0,0,.13l.66.78a.17.17,0,0,0,.21,0l1-.85a.11.11,0,0,0,.05-.09l.75-4.25a.13.13,0,0,0,0-.12l-.45-.53a.14.14,0,0,0-.2,0h0l-1.31,1.1A.15.15,0,0,0,284.17,198.73Z"/><path class="cls-28" d="M273.59,197.7a1.1,1.1,0,1,0,1.1-1.1,1.1,1.1,0,0,0-1.1,1.1Z"/><path class="cls-29" d="M278.19,208.7h-.1l-1.3,1.1a.14.14,0,0,0,0,.2h0l.44.53a.14.14,0,0,0,.12.06h5.17a.14.14,0,0,0,.09,0l.65-.54a.18.18,0,0,0,0-.22h0l-.91-1.08a.14.14,0,0,0-.12-.06Z"/><path class="cls-29" d="M277.79,203.84l-1,.85a.14.14,0,0,0,0,.09L276,209a.13.13,0,0,0,0,.12l.45.53a.14.14,0,0,0,.2,0h0l1.31-1.09a.17.17,0,0,0,0-.1l.66-3.74a.15.15,0,0,0,0-.13l-.66-.78A.15.15,0,0,0,277.79,203.84Z"/><path class="cls-29" d="M278,203.4l1-.85a.11.11,0,0,0,.05-.09l.66-3.74a.15.15,0,0,0,0-.13l-.91-1.08a.15.15,0,0,0-.21,0h0L278,198a.41.41,0,0,0-.05.09l-.77,4.35a.29.29,0,0,0,0,.13l.66.78A.16.16,0,0,0,278,203.4Z"/><path class="cls-29" d="M279.26,202.65a.17.17,0,0,0-.1,0l-1,.84a.16.16,0,0,0,0,.22h0l.65.78a.14.14,0,0,0,.12.06H283l1-.84a.15.15,0,0,0,0-.21h0l-.66-.78a.14.14,0,0,0-.11-.06Z"/><path class="cls-29" d="M284.17,203.84l-1,.85a.11.11,0,0,0-.05.09h0l-.66,3.74a.15.15,0,0,0,0,.13l.91,1.08a.15.15,0,0,0,.21,0h0l.64-.54a.15.15,0,0,0,.06-.09l.76-4.35a.15.15,0,0,0,0-.13l-.66-.78A.16.16,0,0,0,284.17,203.84Z"/><path class="cls-29" d="M279.71,196.6h-.1l-.64.54a.15.15,0,0,0,0,.21h0l.91,1.08a.14.14,0,0,0,.12.06h4.09l1.31-1.1a.14.14,0,0,0,0-.2h0l-.44-.53a.14.14,0,0,0-.12-.06Z"/><path class="cls-29" d="M284.17,198.73l-.66,3.74a.29.29,0,0,0,0,.13l.66.78a.17.17,0,0,0,.21,0l1-.85a.11.11,0,0,0,.05-.09l.75-4.25a.13.13,0,0,0,0-.12l-.45-.53a.14.14,0,0,0-.2,0h0l-1.31,1.1A.15.15,0,0,0,284.17,198.73Z"/><path class="cls-29" d="M273.59,197.7a1.1,1.1,0,1,0,1.1-1.1,1.1,1.1,0,0,0-1.1,1.1Z"/><path class="cls-25" d="M230,203.62a2.55,2.55,0,1,0-2.55,2.55h0A2.56,2.56,0,0,0,230,203.62Z"/><path class="cls-25" d="M213.35,203.62a2.55,2.55,0,1,0-2.55,2.55,2.55,2.55,0,0,0,2.55-2.55Z"/><path class="cls-25" d="M196.68,203.62a2.55,2.55,0,1,0-2.55,2.55,2.55,2.55,0,0,0,2.55-2.55Z"/><path class="cls-25" d="M170.28,203.62a2.55,2.55,0,1,0-2.55,2.55h0A2.56,2.56,0,0,0,170.28,203.62Z"/><rect class="cls-4" x="105.95" y="148.29" width="85.9" height="31.84" rx="2.24" ry="2.24"/><rect class="cls-18" x="108.52" y="151.21" width="80.76" height="25.99"/><path class="cls-30" d="M188.78,151.71v25H109v-25h79.76m1-1H108v27h81.76Z"/><rect class="cls-31" x="109.56" y="152.26" width="78.67" height="23.9"/><rect class="cls-32" x="110.05" y="152.71" width="38.6" height="22.99"/><rect class="cls-33" x="121.15" y="152.26" width="16.4" height="0.46"/><rect class="cls-34" x="122.72" y="152.26" width="13.26" height="1.3"/><rect class="cls-32" x="149.14" y="152.74" width="38.6" height="22.99"/><rect class="cls-33" x="160.24" y="152.29" width="16.4" height="0.46"/><rect class="cls-34" x="161.81" y="152.29" width="13.26" height="1.3"/><path class="cls-25" d="M182,140.94a2.55,2.55,0,1,0-2.56,2.54h0A2.56,2.56,0,0,0,182,140.94Z"/><path class="cls-25" d="M161.11,140.94a2.55,2.55,0,1,0-2.56,2.54h0A2.56,2.56,0,0,0,161.11,140.94Z"/><path class="cls-25" d="M142.37,140.94a2.55,2.55,0,1,0-2.56,2.54h0A2.56,2.56,0,0,0,142.37,140.94Z"/><path class="cls-25" d="M121.52,140.94a2.55,2.55,0,1,0-2.56,2.54h0A2.56,2.56,0,0,0,121.52,140.94Z"/></g></g><g id="HICs"><g id="Sandhawk_Blank" data-name="Sandhawk Blank"><path class="cls-7" d="M645.46,129.93H373.14a1.75,1.75,0,0,0-1.75,1.75v33.75a3.9,3.9,0,0,1-3.88,3.89H353.44a1.74,1.74,0,0,0-1.74,1.74v49H639a2.56,2.56,0,0,0,2.54-2.55v-28.4h3.18a2.45,2.45,0,0,0,2.45-2.45h0v-55A1.75,1.75,0,0,0,645.46,129.93ZM385.31,169.1a9.14,9.14,0,1,1,7.59-7.58A9.15,9.15,0,0,1,385.31,169.1Zm64.35-1a2.24,2.24,0,0,1-2.24,2.24H405.31a2.24,2.24,0,0,1-2.24-2.24V139.87a2.24,2.24,0,0,1,2.24-2.24h42.11a2.24,2.24,0,0,1,2.24,2.24Zm63.32,0a2.24,2.24,0,0,1-2.24,2.24H468.58a2.24,2.24,0,0,1-2.24-2.24V139.86a2.25,2.25,0,0,1,2.24-2.25h42.16a2.24,2.24,0,0,1,2.24,2.24h0Zm21.43,1a9.15,9.15,0,1,1,7.6-10.47,9,9,0,0,1,0,2.89A9.16,9.16,0,0,1,534.41,169.1Zm47.5-8.33a2.49,2.49,0,0,1-2.47,2.47H550.18a2.48,2.48,0,0,1-2.48-2.48v-15a2.48,2.48,0,0,1,2.48-2.47h29.26a2.49,2.49,0,0,1,2.47,2.47Zm54,11a2.49,2.49,0,0,1-2.47,2.47H587a2.48,2.48,0,0,1-2.48-2.47V150.36a2.48,2.48,0,0,1,2.48-2.48h46.45a2.48,2.48,0,0,1,2.47,2.48Z"/><path class="cls-14" d="M568.19,139.71a2.38,2.38,0,1,0-2.38-2.38,2.39,2.39,0,0,0,2.38,2.38h0m0-4.17a1.79,1.79,0,1,1-1.78,1.8h0a1.8,1.8,0,0,1,1.78-1.79"/><path class="cls-14" d="M561.42,139.71a2.38,2.38,0,1,0-2.38-2.38,2.39,2.39,0,0,0,2.38,2.38h0m0-4.17a1.79,1.79,0,1,1-1.78,1.8h0a1.8,1.8,0,0,1,1.78-1.79"/><rect class="cls-14" x="571.28" y="134.95" width="0.59" height="4.76"/><rect class="cls-14" x="564.51" y="134.95" width="0.6" height="4.76"/><rect class="cls-14" x="557.74" y="134.95" width="0.6" height="4.76"/><path class="cls-14" d="M615.89,140.63H607c.87-.65,1.45-2.13,2.61-2.21h1.59a1,1,0,0,0,2-.25c0-.14-.07-.22-.07-.36a1,1,0,0,0-.94-.66,1,1,0,0,0-1,.77H609.6c-1.52,0-2.39,2.5-3.91,2.71h-.58a1.64,1.64,0,0,0-1.41-1.3,1.56,1.56,0,0,0-1.45,1,1.12,1.12,0,0,0-.08.51,1.49,1.49,0,0,0,1.46,1.52h.07a1.52,1.52,0,0,0,1.37-1.27h3.23c1.37.44,2.17,2.54,3.61,2.54h.66v.72h1.95v-2H612.6v.72h-.66c-1-.07-1.59-1.37-2.53-2h6.48V142l2.39-1.16-2.39-1.16Z"/><path class="cls-14" d="M423.49,131.25h1.44a1,1,0,0,1,0,2.05h-.73v1.14h-.71Zm.71,1.5h.54c.33,0,.62-.07.62-.48s-.29-.47-.62-.47h-.54Z"/><path class="cls-14" d="M428.36,134.44h-.63v-2h-.79V132c.44,0,.85-.14.92-.62h.5Z"/><path class="cls-14" d="M486.79,131.25h1.44a1,1,0,1,1,0,2.05h-.73v1.14h-.71Zm.71,1.5h.5c.33,0,.62-.07.62-.48s-.29-.47-.62-.47h-.54Z"/><path class="cls-14" d="M490.08,132.51a1.1,1.1,0,0,1,.93-1.25h.2a1,1,0,0,1,1.07.93v.07a1.09,1.09,0,0,1-.56,1,3.25,3.25,0,0,0-.9.71h1.48v.55H490c0-.72.44-1,1-1.4.28-.19.66-.38.66-.76a.45.45,0,0,0-.42-.48h-.05c-.37,0-.5.38-.5.71Z"/><rect class="cls-22" x="567.44" y="201.67" width="71.46" height="15.72"/><polyline class="cls-23" points="638.89 214.89 638.89 217.37 636.39 217.37"/><polyline class="cls-23" points="567.43 214.88 567.43 217.39 569.93 217.39"/><path class="cls-14" d="M460,146.16l.41-.7h.52v-.21a1.16,1.16,0,0,0-.6-.17,1.12,1.12,0,0,0-1,.62h-3a1.31,1.31,0,0,0-1.7-.7l-.19.1v.31h.61l.46.81-.46.81h-.61v.23a1.29,1.29,0,0,0,1.78-.4,1,1,0,0,0,.14-.3h2.89a1.14,1.14,0,0,0,1.07.76,1.09,1.09,0,0,0,.61-.18v-.27h-.53Z"/><polygon class="cls-14" points="457.79 162.39 458.65 162.39 458.65 163.07 460.45 163.07 460.45 161.45 458.65 161.45 458.65 162.27 457.79 162.27 457.79 157.99 458.66 157.99 458.66 158.76 460.46 158.76 460.46 157.13 458.66 157.13 458.66 157.86 457.79 157.86 457.79 157.13 457.67 157.13 457.67 160.17 456.71 160.17 456.71 159.38 454.92 159.38 454.92 161 456.71 161 456.71 160.28 457.67 160.28 457.67 163.08 457.79 163.08 457.79 162.39"/><path class="cls-5" d="M392.11,160.07a8.25,8.25,0,1,0-8.26,8.24h0A8.24,8.24,0,0,0,392.11,160.07Z"/><path class="cls-35" d="M391.4,160.07a7.53,7.53,0,1,0-7.53,7.53h0A7.53,7.53,0,0,0,391.4,160.07Z"/><path class="cls-5" d="M380.84,158.24l.54.55a1.8,1.8,0,0,1,0,2.53l0,0h0l-.53.53a.62.62,0,0,0,0,.86h0l.36.35a.6.6,0,0,0,.83,0l0,0,.53-.53a1.8,1.8,0,0,1,2.55,0h0l.54.55a.61.61,0,0,0,.85,0l.36-.36a.61.61,0,0,0,0-.85h0l-.55-.55a1.8,1.8,0,0,1,0-2.53l0,0h0l.53-.53a.6.6,0,0,0,0-.83l0,0h0l-.35-.36a.62.62,0,0,0-.86,0l-.52.53a1.8,1.8,0,0,1-2.55,0h0l-.54-.54a.6.6,0,0,0-.85,0h0l-.35.35a.6.6,0,0,0,0,.83l0,0Z"/><path class="cls-5" d="M541.22,160.07a8.25,8.25,0,1,0-8.26,8.24h0A8.26,8.26,0,0,0,541.22,160.07Z"/><path class="cls-35" d="M540.5,160.07A7.53,7.53,0,1,0,533,167.6h0A7.53,7.53,0,0,0,540.5,160.07Z"/><path class="cls-5" d="M530,158.24l.54.55a1.8,1.8,0,0,1,0,2.53l0,0h0l-.53.53a.62.62,0,0,0,0,.86h0l.35.35a.6.6,0,0,0,.85,0h0l.53-.53a1.8,1.8,0,0,1,2.53,0l0,0,.55.55a.61.61,0,0,0,.85,0l.35-.36a.6.6,0,0,0,0-.83l0,0h0l-.54-.55a1.8,1.8,0,0,1,0-2.53l0,0h0l.53-.53a.61.61,0,0,0,0-.85h0l-.36-.36a.61.61,0,0,0-.85,0l-.53.53a1.8,1.8,0,0,1-2.53,0l0,0-.55-.54a.6.6,0,0,0-.83,0l0,0-.35.35a.6.6,0,0,0,0,.83l0,0Z"/><rect class="cls-3" x="401.11" y="135.71" width="50.51" height="36.56"/><path class="cls-8" d="M451.32,136v36H401.41V136h49.91m.6-.6H400.81v37.15h51.11V135.41Z"/><rect class="cls-9" x="403.04" y="137.64" width="46.64" height="32.69"/><polygon class="cls-10" points="408.51 160.85 408.51 169.04 444.22 169.04 444.22 160.85 443.14 160.54 443.14 155.03 444.22 154.73 444.22 144.51 436.31 144.51 436.31 140.39 433.19 140.39 433.19 138.93 419.54 138.93 419.54 140.39 416.44 140.39 416.44 144.51 408.51 144.51 408.51 154.73 409.58 155.03 409.58 160.54 408.51 160.85"/><rect class="cls-36" x="408.51" y="140.39" width="7.93" height="4.12"/><rect class="cls-36" x="436.31" y="140.39" width="7.91" height="4.12"/><rect class="cls-11" x="418.66" y="158.46" width="1.03" height="10.17"/><path class="cls-12" d="M419.58,158.56v10h-.82v-10h.82m.2-.2h-1.22v10.37h1.22Z"/><rect class="cls-11" x="421.54" y="158.46" width="1.02" height="10.17"/><path class="cls-12" d="M422.46,158.56v10h-.82v-10h.82m.2-.2h-1.22v10.37h1.22Z"/><rect class="cls-11" x="424.42" y="158.46" width="1.02" height="10.17"/><path class="cls-12" d="M425.33,158.56v10h-.81v-10h.81m.2-.2h-1.21v10.37h1.21Z"/><rect class="cls-11" x="427.29" y="158.46" width="1.02" height="10.17"/><path class="cls-12" d="M428.21,158.56v10h-.82v-10h.82m.2-.2h-1.22v10.37h1.22Z"/><rect class="cls-11" x="430.17" y="158.46" width="1.02" height="10.17"/><path class="cls-12" d="M431.09,158.56v10h-.82v-10h.82m.2-.2h-1.22v10.37h1.22Z"/><rect class="cls-11" x="433.06" y="158.46" width="1.02" height="10.17"/><path class="cls-12" d="M434,158.56v10h-.81v-10H434m.2-.2H433v10.37h1.21V158.36Z"/><rect class="cls-11" x="435.93" y="158.46" width="1.02" height="10.17"/><path class="cls-12" d="M436.85,158.56v10H436v-10h.82m.2-.2H435.8v10.37H437Z"/><rect class="cls-11" x="415.78" y="158.46" width="1.02" height="10.17"/><path class="cls-12" d="M416.7,158.56v10h-.82v-10h.82m.2-.2h-1.22v10.37h1.22Z"/><rect class="cls-3" x="464.41" y="135.82" width="50.51" height="36.56"/><path class="cls-8" d="M514.62,136.12v35.95H464.71V136.12h49.91m.6-.6H464.11v37.15h51.11V135.52Z"/><rect class="cls-9" x="466.34" y="137.75" width="46.64" height="32.69"/><polygon class="cls-10" points="471.81 160.96 471.81 169.15 507.52 169.15 507.52 160.96 506.44 160.66 506.44 155.15 507.52 154.84 507.52 144.62 499.61 144.62 499.61 140.5 496.48 140.5 496.48 139.04 482.84 139.04 482.84 140.5 479.74 140.5 479.74 144.62 471.81 144.62 471.81 154.84 472.88 155.15 472.88 160.66 471.81 160.96"/><rect class="cls-36" x="471.81" y="140.5" width="7.93" height="4.12"/><rect class="cls-36" x="499.61" y="140.5" width="7.91" height="4.12"/><rect class="cls-11" x="481.96" y="158.57" width="1.03" height="10.17"/><path class="cls-12" d="M482.88,158.67v10h-.82v-10h.82m.2-.2h-1.22v10.37h1.22Z"/><rect class="cls-11" x="484.84" y="158.57" width="1.02" height="10.17"/><path class="cls-12" d="M485.76,158.67v10h-.82v-10h.82m.2-.2h-1.22v10.37H486V158.47Z"/><rect class="cls-11" x="487.72" y="158.57" width="1.02" height="10.17"/><path class="cls-12" d="M488.63,158.67v10h-.81v-10h.81m.2-.2h-1.21v10.37h1.21Z"/><rect class="cls-11" x="490.59" y="158.57" width="1.02" height="10.17"/><path class="cls-12" d="M491.51,158.67v10h-.82v-10h.82m.2-.2h-1.22v10.37h1.22Z"/><rect class="cls-11" x="493.47" y="158.57" width="1.02" height="10.17"/><path class="cls-12" d="M494.39,158.67v10h-.82v-10h.82m.2-.2h-1.22v10.37h1.22Z"/><rect class="cls-11" x="496.35" y="158.57" width="1.02" height="10.17"/><path class="cls-12" d="M497.27,158.67v10h-.82v-10h.82m.2-.2h-1.22v10.37h1.22Z"/><rect class="cls-11" x="499.23" y="158.57" width="1.02" height="10.17"/><path class="cls-12" d="M500.15,158.67v10h-.82v-10h.82m.2-.2h-1.22v10.37h1.22Z"/><rect class="cls-11" x="479.08" y="158.57" width="1.02" height="10.17"/><path class="cls-12" d="M480,158.67v10h-.82v-10H480m.2-.2H479v10.37h1.22V158.47Z"/><path class="cls-13" d="M572.21,148.5a2.56,2.56,0,0,1,1.83.76l1.71,1.7a2.6,2.6,0,0,1,.76,1.84v2.58a2.62,2.62,0,0,1-2.6,2.6H555.7a2.61,2.61,0,0,1-2.59-2.6V152.8a2.6,2.6,0,0,1,.76-1.84l1.7-1.7a2.6,2.6,0,0,1,1.84-.76Z"/><path class="cls-37" d="M554.1,152.8v2.58a1.61,1.61,0,0,0,1.6,1.61h18.21a1.61,1.61,0,0,0,1.61-1.61V152.8a1.61,1.61,0,0,0-.47-1.14l-1.71-1.7a1.61,1.61,0,0,0-1.13-.47h-14.8a1.61,1.61,0,0,0-1.14.47l-1.7,1.7A1.61,1.61,0,0,0,554.1,152.8Z"/><path class="cls-30" d="M554.27,153.09v2a1.68,1.68,0,0,0,1.67,1.69h17.72a1.69,1.69,0,0,0,1.69-1.69h0v-2a1.66,1.66,0,0,0-.5-1.19l-1.68-1.68a1.65,1.65,0,0,0-1.19-.49H557.64a1.69,1.69,0,0,0-1.2.49l-1.68,1.68A1.71,1.71,0,0,0,554.27,153.09Z"/><path class="cls-24" d="M555.11,153.09v2a.85.85,0,0,0,.84.85h17.71a.85.85,0,0,0,.84-.84h0v-2a.87.87,0,0,0-.24-.59l-1.69-1.68a.82.82,0,0,0-.59-.25H557.64a.84.84,0,0,0-.6.25l-1.68,1.68A.83.83,0,0,0,555.11,153.09Z"/><polygon class="cls-11" points="564.25 154.08 564.2 153.75 565.37 153.69 565.42 154.03 565.42 154.08 564.25 154.08"/><path class="cls-12" d="M565.37,153.74V154h-1.13v-.29h1.13m.1-.1h-1.33v.49h1.33Z"/><polygon class="cls-11" points="562.42 154.08 562.37 153.75 563.54 153.69 563.59 154.03 563.59 154.08 562.42 154.08"/><path class="cls-12" d="M563.54,153.74V154h-1.12v-.29h1.12m.1-.1h-1.32v.49h1.32Z"/><polygon class="cls-11" points="560.59 154.08 560.54 153.75 561.72 153.69 561.76 154.03 561.76 154.08 560.59 154.08"/><path class="cls-12" d="M561.72,153.74V154h-1.13v-.29h1.13m.09-.1h-1.32v.49h1.32Z"/><polygon class="cls-11" points="567.9 154.08 567.85 153.75 569.02 153.69 569.07 154.03 569.07 154.08 567.9 154.08"/><path class="cls-12" d="M569,153.74V154h-1.1v-.29H569m.1-.1h-1.3v.49h1.32v-.49Z"/><polygon class="cls-11" points="566.07 154.08 566.02 153.75 567.2 153.69 567.25 154.03 567.25 154.08 566.07 154.08"/><path class="cls-12" d="M567.2,153.74V154h-1.13v-.29h1.13m.1-.1H566v.49h1.33v-.49Z"/><path class="cls-16" d="M564.19,149.49H558.4a.56.56,0,0,0-.34.52v.56h6.69V150a.56.56,0,0,0-.34-.52Z"/><path class="cls-16" d="M571,149.49h-5.8a.56.56,0,0,0-.34.52v.56h6.69V150a.56.56,0,0,0-.34-.52Z"/><path class="cls-16" d="M575.52,153.49a.56.56,0,0,0-.45-.22h-.57v1.63h.57a.6.6,0,0,0,.45-.23Z"/><path class="cls-16" d="M556.8,157H573a.56.56,0,0,0,.34-.52v-.56H556.23v.56a.58.58,0,0,0,.34.52Z"/><path class="cls-16" d="M554.1,154.67a.56.56,0,0,0,.45.23h.56v-1.63h-.56a.56.56,0,0,0-.45.22Z"/><path class="cls-38" d="M562.42,153.46h-.71V154h-1.12v-.57h-.22a.47.47,0,0,0-.48.48h0v.68a.47.47,0,0,0,.47.47h8.89a.48.48,0,0,0,.48-.47v-.68a.5.5,0,0,0-.48-.48H569V154h-1.1v-.57h-.7V154h-1.13v-.57h-.7V154h-1.13v-.57h-.7V154h-1.12Z"/><path class="cls-3" d="M593.61,169.9a2.54,2.54,0,0,1-2.54-2.54V154.73a2.54,2.54,0,0,1,2.54-2.54h33.27a2.54,2.54,0,0,1,2.53,2.54v12.63a2.54,2.54,0,0,1-2.53,2.54Z"/><polygon class="cls-39" points="593.78 152.19 593.78 169.9 606.55 169.9 606.55 168.66 609.92 168.66 610.57 168.66 613.94 168.66 613.94 169.9 626.7 169.9 626.7 152.19 593.78 152.19"/><path class="cls-8" d="M626.88,153.28H593.61a1.43,1.43,0,0,0-1.44,1.44h0v12.63a1.43,1.43,0,0,0,1.43,1.45h33.28a1.45,1.45,0,0,0,1.44-1.45V154.73A1.45,1.45,0,0,0,626.88,153.28Z"/><path class="cls-24" d="M626.88,153.82H593.61a.9.9,0,0,0-.9.9h0v12.63a.9.9,0,0,0,.89.91h33.28a.91.91,0,0,0,.9-.91V154.73a.91.91,0,0,0-.9-.91Z"/><polygon class="cls-40" points="599.27 160.91 599.2 159.63 601.45 159.56 601.52 160.84 601.52 160.91 599.27 160.91"/><path class="cls-41" d="M601.45,159.63v1.21h-2.18v-1.21h2.18m.13-.14h-2.44V161h2.44v-1.51Z"/><polygon class="cls-40" points="619.04 160.91 618.97 159.63 621.22 159.56 621.28 160.84 621.28 160.91 619.04 160.91"/><path class="cls-41" d="M621.22,159.63v1.21H619v-1.21h2.18m.13-.14H618.9V161h2.45v-1.49Z"/><polygon class="cls-40" points="606.61 160.91 606.55 159.63 608.79 159.56 608.86 160.84 608.86 160.91 606.61 160.91"/><path class="cls-41" d="M608.79,159.63v1.21h-2.18v-1.21h2.18m.14-.14h-2.45V161h2.45v-1.51Z"/><polygon class="cls-40" points="611.69 160.91 611.63 159.63 613.87 159.56 613.94 160.84 613.94 160.91 611.69 160.91"/><path class="cls-41" d="M613.87,159.63v1.21h-2.18v-1.21h2.18m.13-.14h-2.44V161H614v-1.51Z"/><polygon class="cls-11" points="599.27 161.72 599.2 160.44 601.45 160.37 601.52 161.65 601.52 161.72 599.27 161.72"/><path class="cls-12" d="M601.45,160.44v1.21h-2.18v-1.21h2.18m.13-.14h-2.44v1.49h2.44Z"/><polygon class="cls-11" points="619.04 161.72 618.97 160.44 621.22 160.37 621.28 161.65 621.28 161.72 619.04 161.72"/><path class="cls-12" d="M621.22,160.44v1.21H619v-1.21h2.18m.13-.14H618.9v1.49h2.45V160.3Z"/><polygon class="cls-11" points="606.61 161.72 606.55 160.44 608.79 160.37 608.86 161.65 608.86 161.72 606.61 161.72"/><path class="cls-12" d="M608.79,160.44v1.21h-2.18v-1.21h2.18m.14-.14h-2.45v1.49h2.45Z"/><polygon class="cls-11" points="611.69 161.72 611.63 160.44 613.87 160.37 613.94 161.65 613.94 161.72 611.69 161.72"/><path class="cls-12" d="M613.87,160.44v1.21h-2.18v-1.21h2.18m.13-.14h-2.44v1.49H614Z"/><rect class="cls-28" x="594.92" y="161.3" width="30.64" height="4.69"/><path class="cls-18" d="M625.31,161.55v4.19H595.17v-4.19h30.14m.5-.5H594.67v5.19h31.14Z"/><rect class="cls-8" x="627.78" y="155.8" width="1.64" height="10.49"/><rect class="cls-8" x="591.07" y="155.8" width="1.64" height="10.49"/></g></g><g id="Latch"><g id="E2800_Latch" data-name="E2800 Latch"><rect class="cls-13" x="610.52" y="225.89" width="54.01" height="3.51"/><path class="cls-38" d="M263.31,218.17v14H624a.71.71,0,0,0,.71-.7h0v-7.73a.71.71,0,0,0-.71-.7H384.22a.7.7,0,0,1-.71-.69h0v-3.51a.7.7,0,0,0-.7-.7H263.31Z"/><path class="cls-42" d="M285.54,218.17H252.78v14h98.58v-14h-4.68a26.42,26.42,0,0,1-7.34-1l-17.11-4.94a26.83,26.83,0,0,0-6.54-1H293.18a1.88,1.88,0,0,0-1.42.73l-4.8,5.56A1.9,1.9,0,0,1,285.54,218.17Z"/><path class="cls-42" d="M261.74,218.17h-49.5v14H283a1.41,1.41,0,0,0,1.41-1.41h0V212.55a1.42,1.42,0,0,0-1.41-1.4h-9.72a3.46,3.46,0,0,0-2.14.73l-7.26,5.56A3.53,3.53,0,0,1,261.74,218.17Z"/><path class="cls-43" d="M263.31,218.17H56.17a.7.7,0,0,0-.7.7v12.64a.7.7,0,0,0,.7.7H263.31Z"/><path class="cls-44" d="M347.31,220.68h-8.12a27.54,27.54,0,0,1-7.11-.94l-15.64-4.16a24.46,24.46,0,0,0-6.31-.83h-9V229h46.2Z"/><polygon class="cls-7" points="312.94 221.72 307.4 218.99 307.39 224.74 312.94 221.72"/></g></g><g id="LED_Callouts" data-name="LED Callouts"><g id="Attention_LED" data-name="Attention LED"><polyline id="Line" class="cls-45" points="38.5 273 38.5 208.5 76 208.5"/><circle class="cls-3" cx="38.47" cy="279.65" r="7"/><text class="cls-46" transform="translate(35.4 282.71)">2</text></g><g id="Attention_LED-2" data-name="Attention LED-2"><polyline id="Line-2" class="cls-45" points="19.5 274 19.5 189.5 77 189.5"/><circle class="cls-3" cx="19.04" cy="279.65" r="7"/><text class="cls-46" transform="translate(17.06 282.71)">1</text></g><rect class="cls-47" x="76.16" y="181.7" width="70.5" height="15.5" rx="2" ry="2"/><line class="cls-48" x1="85.15" y1="195.23" x2="85.15" y2="189.79"/><path class="cls-49" d="M85.75,195.23v-5.44m.71,5.44v-5.44m1.2,5.44v-5.44"/><line class="cls-50" x1="88.61" y1="195.23" x2="88.61" y2="189.79"/><line class="cls-48" x1="89.45" y1="195.23" x2="89.45" y2="189.79"/><line class="cls-51" x1="90.28" y1="195.23" x2="90.28" y2="189.79"/><line class="cls-50" x1="91.24" y1="195.23" x2="91.24" y2="189.79"/><line class="cls-48" x1="92.07" y1="195.23" x2="92.07" y2="189.79"/><line class="cls-50" x1="93.15" y1="195.23" x2="93.15" y2="189.79"/><line class="cls-51" x1="94.1" y1="195.23" x2="94.1" y2="189.79"/><line class="cls-48" x1="94.94" y1="195.23" x2="94.94" y2="189.79"/><line class="cls-51" x1="95.53" y1="195.23" x2="95.53" y2="189.79"/><line class="cls-50" x1="96.49" y1="195.23" x2="96.49" y2="189.79"/><line class="cls-48" x1="97.32" y1="195.23" x2="97.32" y2="189.79"/><line class="cls-51" x1="98.16" y1="195.23" x2="98.16" y2="189.79"/><line class="cls-50" x1="99.11" y1="195.23" x2="99.11" y2="189.79"/><line class="cls-48" x1="99.95" y1="195.23" x2="99.95" y2="189.79"/><line class="cls-50" x1="101.02" y1="195.23" x2="101.02" y2="189.79"/><line class="cls-51" x1="101.98" y1="195.23" x2="101.98" y2="189.79"/><line class="cls-48" x1="102.81" y1="195.23" x2="102.81" y2="189.79"/><line class="cls-51" x1="103.41" y1="195.23" x2="103.41" y2="189.79"/><line class="cls-50" x1="104.37" y1="195.23" x2="104.37" y2="189.79"/><line class="cls-48" x1="105.2" y1="195.23" x2="105.2" y2="189.79"/><line class="cls-51" x1="106.04" y1="195.23" x2="106.04" y2="189.79"/><line class="cls-50" x1="106.99" y1="195.23" x2="106.99" y2="189.79"/><line class="cls-48" x1="107.83" y1="195.23" x2="107.83" y2="189.79"/><line class="cls-50" x1="108.9" y1="195.23" x2="108.9" y2="189.79"/><line class="cls-51" x1="109.86" y1="195.23" x2="109.86" y2="189.79"/><line class="cls-48" x1="110.69" y1="195.23" x2="110.69" y2="189.79"/><line class="cls-51" x1="111.29" y1="195.23" x2="111.29" y2="189.79"/><line class="cls-50" x1="112.24" y1="195.23" x2="112.24" y2="189.79"/><line class="cls-48" x1="113.08" y1="195.23" x2="113.08" y2="189.79"/><line class="cls-51" x1="113.92" y1="195.23" x2="113.92" y2="189.79"/><line class="cls-50" x1="114.87" y1="195.23" x2="114.87" y2="189.79"/><line class="cls-48" x1="115.71" y1="195.23" x2="115.71" y2="189.79"/><line class="cls-50" x1="116.78" y1="195.23" x2="116.78" y2="189.79"/><line class="cls-51" x1="117.74" y1="195.23" x2="117.74" y2="189.79"/><line class="cls-48" x1="118.57" y1="195.23" x2="118.57" y2="189.79"/><line class="cls-51" x1="119.17" y1="195.23" x2="119.17" y2="189.79"/><line class="cls-50" x1="120.12" y1="195.23" x2="120.12" y2="189.79"/><line class="cls-48" x1="120.96" y1="195.23" x2="120.96" y2="189.79"/><line class="cls-51" x1="121.79" y1="195.23" x2="121.79" y2="189.79"/><line class="cls-50" x1="122.75" y1="195.23" x2="122.75" y2="189.79"/><line class="cls-48" x1="123.58" y1="195.23" x2="123.58" y2="189.79"/><line class="cls-50" x1="124.66" y1="195.23" x2="124.66" y2="189.79"/><line class="cls-51" x1="125.61" y1="195.23" x2="125.61" y2="189.79"/><line class="cls-48" x1="126.45" y1="195.23" x2="126.45" y2="189.79"/><line class="cls-51" x1="127.05" y1="195.23" x2="127.05" y2="189.79"/><line class="cls-50" x1="128" y1="195.23" x2="128" y2="189.79"/><line class="cls-48" x1="128.84" y1="195.23" x2="128.84" y2="189.79"/><line class="cls-51" x1="129.67" y1="195.23" x2="129.67" y2="189.79"/><line class="cls-50" x1="130.63" y1="195.23" x2="130.63" y2="189.79"/><line class="cls-48" x1="131.46" y1="195.23" x2="131.46" y2="189.79"/><line class="cls-51" x1="132.3" y1="195.23" x2="132.3" y2="189.79"/><line class="cls-50" x1="133.01" y1="195.23" x2="133.01" y2="189.79"/><path class="cls-52" d="M134.09,195.23v-5.44m.95,5.44v-5.44"/><line class="cls-50" x1="136.36" y1="195.23" x2="136.36" y2="189.79"/><line class="cls-51" x1="137.07" y1="195.23" x2="137.07" y2="189.79"/><line class="cls-48" x1="137.67" y1="195.23" x2="137.67" y2="189.79"/><text class="cls-53" transform="translate(95.28 188.7)">00:00:00:00:00:00</text><text class="cls-54" transform="translate(78.31 187.13)">MAC</text><rect class="cls-47" x="76.16" y="201.11" width="70.5" height="15.5" rx="2" ry="2"/><text class="cls-53" transform="translate(110.76 206.88)">E-X27004A-R5</text><text class="cls-54" transform="translate(78.31 206.88)">FRU PN:</text><line class="cls-55" x1="85.15" y1="214.27" x2="85.15" y2="208.86"/><path class="cls-56" d="M85.94,214.27v-5.41m1,5.41v-5.41m1.59,5.41v-5.41"/><line class="cls-55" x1="89.92" y1="214.27" x2="89.92" y2="208.86"/><path class="cls-56" d="M90.72,214.27v-5.41M92,214.27v-5.41"/><line class="cls-55" x1="93.11" y1="214.27" x2="93.11" y2="208.86"/><path class="cls-57" d="M94.22,214.27v-5.41m1.59,5.41v-5.41"/><line class="cls-58" x1="97.4" y1="214.27" x2="97.4" y2="208.86"/><path class="cls-59" d="M98.2,214.27v-5.41m1,5.41v-5.41"/><line class="cls-60" x1="100.59" y1="214.27" x2="100.59" y2="208.86"/><path class="cls-56" d="M101.86,214.27v-5.41m.64,5.41v-5.41"/><line class="cls-60" x1="103.45" y1="214.27" x2="103.45" y2="208.86"/><line class="cls-61" x1="104.88" y1="214.27" x2="104.88" y2="208.86"/><line class="cls-58" x1="106" y1="214.27" x2="106" y2="208.86"/><line class="cls-55" x1="106.79" y1="214.27" x2="106.79" y2="208.86"/><path class="cls-56" d="M108.54,214.27v-5.41m1,5.41v-5.41m1,5.41v-5.41"/><line class="cls-55" x1="111.89" y1="214.27" x2="111.89" y2="208.86"/><line class="cls-58" x1="113" y1="214.27" x2="113" y2="208.86"/><line class="cls-61" x1="114.11" y1="214.27" x2="114.11" y2="208.86"/><line class="cls-60" x1="115.55" y1="214.27" x2="115.55" y2="208.86"/><path class="cls-56" d="M116.5,214.27v-5.41m.64,5.41v-5.41"/><line class="cls-55" x1="118.57" y1="214.27" x2="118.57" y2="208.86"/><line class="cls-58" x1="120" y1="214.27" x2="120" y2="208.86"/><line class="cls-55" x1="121.12" y1="214.27" x2="121.12" y2="208.86"/><line class="cls-60" x1="122.23" y1="214.27" x2="122.23" y2="208.86"/><line class="cls-55" x1="123.66" y1="214.27" x2="123.66" y2="208.86"/><line class="cls-58" x1="125.1" y1="214.27" x2="125.1" y2="208.86"/><line class="cls-60" x1="126.05" y1="214.27" x2="126.05" y2="208.86"/><line class="cls-55" x1="127.16" y1="214.27" x2="127.16" y2="208.86"/><line class="cls-60" x1="128.28" y1="214.27" x2="128.28" y2="208.86"/><path class="cls-56" d="M129.55,214.27v-5.41m1,5.41v-5.41"/><line class="cls-61" x1="131.62" y1="214.27" x2="131.62" y2="208.86"/><line class="cls-58" x1="133.05" y1="214.27" x2="133.05" y2="208.86"/><line class="cls-55" x1="134.17" y1="214.27" x2="134.17" y2="208.86"/><line class="cls-60" x1="135.92" y1="214.27" x2="135.92" y2="208.86"/><line class="cls-58" x1="136.87" y1="214.27" x2="136.87" y2="208.86"/><line class="cls-55" x1="137.67" y1="214.27" x2="137.67" y2="208.86"/></g></svg>