<svg xmlns="http://www.w3.org/2000/svg" viewBox="0 0 200 180"><defs><style>.cls-1,.cls-65{fill:#ccc;}.cls-1,.cls-17,.cls-23,.cls-25,.cls-28,.cls-29,.cls-3,.cls-31,.cls-33,.cls-35,.cls-39,.cls-4,.cls-41,.cls-42,.cls-43,.cls-44,.cls-46,.cls-47,.cls-48,.cls-49,.cls-5,.cls-56,.cls-59,.cls-6,.cls-63,.cls-64{fill-rule:evenodd;}.cls-2,.cls-33,.cls-38,.cls-40,.cls-73,.cls-74,.cls-75{fill:none;}.cls-11,.cls-2,.cls-54{stroke:gray;}.cls-11,.cls-2,.cls-38,.cls-40,.cls-54{stroke-linecap:round;}.cls-11,.cls-2,.cls-38,.cls-40,.cls-53,.cls-54,.cls-74{stroke-linejoin:round;}.cls-2{stroke-width:0.64px;}.cls-20,.cls-3{fill:#1a1a1a;}.cls-4,.cls-8{fill:#eee;}.cls-5,.cls-57{fill:silver;}.cls-5,.cls-56,.cls-57,.cls-6{stroke:#59595c;}.cls-12,.cls-13,.cls-14,.cls-5,.cls-56,.cls-57,.cls-6,.cls-68,.cls-73,.cls-75{stroke-miterlimit:10;}.cls-11,.cls-12,.cls-13,.cls-14,.cls-5,.cls-56,.cls-57{stroke-width:0.1px;}.cls-18,.cls-6{fill:#414141;}.cls-6{stroke-width:0.06px;}.cls-41,.cls-7{fill:#404040;}.cls-9{fill:#6d6f70;}.cls-10,.cls-44{fill:#cfd1d2;}.cls-11,.cls-21{fill:#e5e6e6;}.cls-12,.cls-43{fill:#262626;}.cls-12{stroke:#cfd1d2;}.cls-13,.cls-50{fill:#bfbfbf;}.cls-13,.cls-14{stroke:#919395;}.cls-14,.cls-15,.cls-42{fill:#d9d9d9;}.cls-16,.cls-17,.cls-19{fill:#333;}.cls-19{font-size:1.71px;font-family:Arial-BoldMT, Arial;font-weight:700;}.cls-22,.cls-48{fill:#e6e6e6;}.cls-23{fill:#292929;}.cls-24{fill:#53914c;}.cls-25,.cls-45{fill:#ffce07;}.cls-26{fill:#e0d385;}.cls-27,.cls-28{fill:#f2f2f2;}.cls-29,.cls-30,.cls-54{fill:#d0cfcd;}.cls-31,.cls-32{fill:#fff;}.cls-33{stroke:#fff;stroke-miterlimit:2.61;stroke-width:0.3px;}.cls-34,.cls-35,.cls-36,.cls-66,.cls-67{fill:#2d2a26;}.cls-36{font-size:1.33px;letter-spacing:0.02em;}.cls-36,.cls-66,.cls-67{font-family:HelveticaNeueLTStd-Bd, Helvetica Neue LT Std;}.cls-37{fill:#e7e5dd;}.cls-38{stroke:#9a9a9a;}.cls-38,.cls-40{stroke-width:0.01px;}.cls-39,.cls-61{fill:#666;}.cls-40{stroke:#b3b3b3;}.cls-46,.cls-51{fill:#f1f1f1;}.cls-47,.cls-70{fill:#4d4d4d;}.cls-49{fill:#2e2e2e;}.cls-52{fill:gray;}.cls-53{fill:#ffcc07;stroke:#e0d385;stroke-width:0.08px;}.cls-54{stroke-width:0.01px;}.cls-55{fill:#808083;}.cls-56{fill:#ddd;}.cls-58{fill:#babcbe;}.cls-59{fill:#c8972c;}.cls-60{fill:#ad9e69;}.cls-62{fill:#555;}.cls-63,.cls-71{fill:#6a6a6a;}.cls-64{fill:#f3845c;}.cls-66,.cls-67{font-size:5.65px;}.cls-66{letter-spacing:0.02em;}.cls-67{letter-spacing:0.02em;}.cls-68{fill:#ee4036;stroke:#292929;}.cls-69{fill:#80bb4e;}.cls-72{fill:#d0d2d3;opacity:0.5;}.cls-73,.cls-74,.cls-75{stroke:#80bb4e;}.cls-73,.cls-74{stroke-width:3px;}</style></defs><g id="Rulers"><g id="Arapaho-S"><path class="cls-1" d="M141.52,30.33V10.5a.81.81,0,0,0-.8-.8H9.59a.81.81,0,0,0-.8.8V30.33h.65v.15a.73.73,0,0,0,.71.74h130a.73.73,0,0,0,.71-.74h0v-.15Z"/><path class="cls-2" d="M141.52,30.33V10.5a.81.81,0,0,0-.8-.8H9.59a.81.81,0,0,0-.8.8V30.33h.65v.15a.73.73,0,0,0,.71.74h130a.73.73,0,0,0,.71-.74h0v-.15Z"/><path class="cls-3" d="M10.15,30.66h130a.18.18,0,0,0,.15-.18h0V28.09h.56V10.5a.16.16,0,0,0-.16-.16H9.59a.15.15,0,0,0-.15.16V28.09H10v2.39A.18.18,0,0,0,10.15,30.66Z"/><path class="cls-4" d="M139.92,9.82H10.39V11a.3.3,0,0,1-.31.31H9.44V30.45h.64a.32.32,0,0,1,.31.33h0v1.27H139.92V30.78a.32.32,0,0,1,.31-.33h.65V11.26h-.65a.3.3,0,0,1-.31-.31Z"/><path class="cls-2" d="M139.92,9.7H10.39v1.13a.3.3,0,0,1-.31.31H9.44V30.33h.64a.32.32,0,0,1,.31.33h0v1.27H139.92V30.66a.32.32,0,0,1,.31-.33h.65V11.14h-.65a.3.3,0,0,1-.31-.31Z"/><path class="cls-5" d="M89.24,17.7a1.85,1.85,0,1,0-1.84,1.85A1.84,1.84,0,0,0,89.24,17.7Z"/><path class="cls-6" d="M88.39,17.7a1,1,0,0,0-2,0,1,1,0,1,0,2,0Z"/><path class="cls-5" d="M116.18,17.7a1.85,1.85,0,1,0-1.84,1.85A1.84,1.84,0,0,0,116.18,17.7Z"/><path class="cls-6" d="M115.33,17.7a1,1,0,0,0-2,0,1,1,0,1,0,2,0Z"/><path class="cls-7" d="M11.45,10.91h0a.61.61,0,0,0-.61.61V30.11a.61.61,0,0,0,.61.62H64.85a.49.49,0,0,0,.49-.49V20.82H56.66V12.46H68.17v8h2.15v-8H81.79v8H83.4a.61.61,0,0,0,.62-.61V11.4a.49.49,0,0,0-.49-.49Zm42.67,9.91H42.63V12.46H54.12Z"/><rect class="cls-8" x="20.35" y="15.05" width="19.24" height="7.13"/><rect class="cls-9" x="20.79" y="15.57" width="18.36" height="6.1"/><path class="cls-10" d="M38.9,15.82v5.59H21V15.82H38.9m.5-.5H20.54v6.59H39.4V15.32Z"/><rect class="cls-11" x="21.16" y="15.94" width="17.62" height="5.35"/><rect class="cls-12" x="21.27" y="16.04" width="8.64" height="5.15"/><rect class="cls-13" x="23.75" y="15.94" width="3.67" height="0.1"/><rect class="cls-14" x="24.1" y="15.94" width="2.97" height="0.29"/><rect class="cls-12" x="30.02" y="16.05" width="8.64" height="5.15"/><rect class="cls-13" x="32.51" y="15.94" width="3.67" height="0.1"/><rect class="cls-14" x="32.86" y="15.94" width="2.97" height="0.29"/><path class="cls-15" d="M16,10.91V22.18h4.33V15.05H39.59V10.91Z"/><rect class="cls-16" x="16.92" y="19.14" width="2.67" height="0.21"/><rect class="cls-16" x="16.92" y="20.6" width="2.67" height="0.21"/><polyline class="cls-16" points="18.2 19.9 17.86 19.9 17.86 19.55 16.86 20.08 18.2 20.08"/><polyline class="cls-16" points="18.19 20.09 18.52 20.09 18.52 20.44 19.52 19.9 18.19 19.9"/><polygon class="cls-17" points="18.29 18.52 18.64 18.52 18.64 18.79 19.36 18.79 19.36 18.15 18.64 18.15 18.64 18.47 18.29 18.47 18.29 16.76 18.64 16.76 18.64 17.07 19.36 17.07 19.36 16.42 18.64 16.42 18.64 16.71 18.29 16.71 18.29 16.42 18.25 16.42 18.25 17.63 17.86 17.63 17.86 17.32 17.14 17.32 17.14 17.96 17.86 17.96 17.86 17.68 18.25 17.68 18.25 18.8 18.29 18.8 18.29 18.52"/><path class="cls-18" d="M36.86,12.64a.68.68,0,0,1,.67.68h0a.67.67,0,1,1-1.34,0A.68.68,0,0,1,36.86,12.64Z"/><path class="cls-18" d="M32.12,12.64a.68.68,0,0,1,.67.68h0a.67.67,0,0,1-1.34,0A.68.68,0,0,1,32.12,12.64Z"/><path class="cls-18" d="M27.78,12.64a.68.68,0,0,1,.67.68h0a.67.67,0,0,1-.67.67.68.68,0,0,1-.68-.67A.69.69,0,0,1,27.78,12.64Z"/><path class="cls-18" d="M23.08,12.64a.68.68,0,0,1,.67.68h0a.67.67,0,0,1-.67.67.68.68,0,0,1-.68-.67A.69.69,0,0,1,23.08,12.64Z"/><path class="cls-17" d="M27.89,12.27a.11.11,0,1,0-.11.11A.11.11,0,0,0,27.89,12.27Z"/><path class="cls-17" d="M27.86,11.43a.09.09,0,0,0-.08-.1.1.1,0,0,0-.09.1h0l0,.63s0,0,.05,0a.07.07,0,0,0,0,0l0-.64Z"/><path class="cls-16" d="M21.89,12.38v-1h.17v.86h.43v.18Z"/><path class="cls-16" d="M22.62,12.38V11.33h.17l.35.7v-.7h.16v1.05h-.17l-.35-.69v.69Z"/><path class="cls-16" d="M23.49,12.38V11.33h.17v.47l.35-.47h.24l-.33.41.34.64H24l-.24-.5-.14.18v.32Z"/><path class="cls-17" d="M37,12.27a.11.11,0,1,0-.11.11A.11.11,0,0,0,37,12.27Z"/><path class="cls-17" d="M36.94,11.43a.09.09,0,0,0-.08-.1.1.1,0,0,0-.09.1h0l0,.63s0,0,0,0a.07.07,0,0,0,0,0l0-.64Z"/><path class="cls-16" d="M30.93,12.38v-1h.17v.86h.44v.18Z"/><path class="cls-16" d="M31.66,12.38V11.33h.17l.35.7v-.7h.16v1.05h-.17l-.35-.69v.69Z"/><path class="cls-16" d="M32.53,12.38V11.33h.17v.47l.35-.47h.24l-.33.41.35.64h-.23l-.24-.5-.14.18v.32Z"/><text class="cls-19" transform="translate(24.64 14.33)">0a</text><text class="cls-19" transform="translate(33.35 14.33)">0b</text><rect class="cls-15" x="42.63" y="10.91" width="25.54" height="9.92"/><rect class="cls-20" x="42.65" y="12.45" width="11.48" height="8.35"/><path class="cls-21" d="M54,12.6v8.06H42.8V12.6H54m.3-.3H42.5V21H54.27V12.3Z"/><rect class="cls-22" x="43.16" y="12.97" width="10.45" height="7.32"/><polygon class="cls-23" points="44.39 18.17 44.39 20 52.38 20 52.38 18.17 52.14 18.1 52.14 16.86 52.38 16.8 52.38 14.51 50.61 14.51 50.61 13.59 49.91 13.59 49.91 13.26 46.86 13.26 46.86 13.59 46.16 13.59 46.16 14.51 44.39 14.51 44.39 16.8 44.63 16.86 44.63 18.1 44.39 18.17"/><rect class="cls-24" x="44.39" y="13.59" width="1.78" height="0.92"/><rect class="cls-24" x="50.61" y="13.59" width="1.77" height="0.92"/><polygon class="cls-25" points="46.68 19.94 46.63 17.65 46.87 17.6 46.92 19.94 46.68 19.94"/><path class="cls-26" d="M46.87,17.65v2.24h-.19V17.65h.19m.1-.1h-.39V20H47V17.55Z"/><polygon class="cls-25" points="47.33 19.94 47.28 17.65 47.51 17.6 47.56 19.94 47.33 19.94"/><path class="cls-26" d="M47.51,17.65v2.24h-.18V17.65h.18m.1-.1h-.38V20h.38V17.55Z"/><polygon class="cls-25" points="47.97 19.94 47.92 17.65 48.16 17.6 48.2 19.94 47.97 19.94"/><path class="cls-26" d="M48.16,17.65v2.24H48V17.65h.19m.1-.1h-.39V20h.39V17.55Z"/><polygon class="cls-25" points="48.62 19.94 48.57 17.65 48.8 17.6 48.85 19.94 48.62 19.94"/><path class="cls-26" d="M48.8,17.65v2.24h-.18V17.65h.18m.1-.1h-.38V20h.38V17.55Z"/><polygon class="cls-25" points="49.26 19.94 49.21 17.65 49.44 17.6 49.49 19.94 49.26 19.94"/><path class="cls-26" d="M49.44,17.65v2.24h-.18V17.65h.18m.1-.1h-.38V20h.38V17.55Z"/><polygon class="cls-25" points="49.91 19.94 49.86 17.65 50.09 17.6 50.14 19.94 49.91 19.94"/><path class="cls-26" d="M50.09,17.65v2.24h-.18V17.65h.18m.1-.1h-.38V20h.38V17.55Z"/><polygon class="cls-25" points="50.55 19.94 50.5 17.65 50.73 17.6 50.78 19.94 50.55 19.94"/><path class="cls-26" d="M50.73,17.65v2.24h-.18V17.65h.18m.1-.1h-.38V20h.38V17.55Z"/><polygon class="cls-25" points="46.04 19.94 45.99 17.65 46.22 17.6 46.27 19.94 46.04 19.94"/><path class="cls-26" d="M46.22,17.65v2.24H46V17.65h.18m.1-.1h-.38V20h.38V17.55Z"/><rect class="cls-20" x="56.69" y="12.45" width="11.48" height="8.35"/><path class="cls-21" d="M68,12.6v8.06H56.84V12.6H68m.3-.3H56.54V21H68.32V12.3Z"/><rect class="cls-22" x="57.21" y="12.97" width="10.45" height="7.32"/><polygon class="cls-23" points="58.43 18.17 58.43 20 66.43 20 66.43 18.17 66.19 18.1 66.19 16.86 66.43 16.8 66.43 14.51 64.66 14.51 64.66 13.59 63.96 13.59 63.96 13.26 60.91 13.26 60.91 13.59 60.21 13.59 60.21 14.51 58.43 14.51 58.43 16.8 58.67 16.86 58.67 18.1 58.43 18.17"/><rect class="cls-24" x="58.43" y="13.59" width="1.78" height="0.92"/><rect class="cls-24" x="64.66" y="13.59" width="1.77" height="0.92"/><polygon class="cls-25" points="60.73 19.94 60.68 17.65 60.91 17.6 60.96 19.94 60.73 19.94"/><path class="cls-26" d="M60.91,17.65v2.24h-.18V17.65h.18m.1-.1h-.38V20H61V17.55Z"/><polygon class="cls-25" points="61.38 19.94 61.33 17.65 61.56 17.6 61.61 19.94 61.38 19.94"/><path class="cls-26" d="M61.56,17.65v2.24h-.18V17.65h.18m.1-.1h-.39V20h.39V17.55Z"/><polygon class="cls-25" points="62.02 19.94 61.97 17.65 62.2 17.6 62.25 19.94 62.02 19.94"/><path class="cls-26" d="M62.2,17.65v2.24H62V17.65h.18m.1-.1h-.38V20h.38V17.55Z"/><polygon class="cls-25" points="62.66 19.94 62.61 17.65 62.85 17.6 62.9 19.94 62.66 19.94"/><path class="cls-26" d="M62.85,17.65v2.24h-.19V17.65h.19m.1-.1h-.39V20H63V17.55Z"/><polygon class="cls-25" points="63.31 19.94 63.26 17.65 63.49 17.6 63.54 19.94 63.31 19.94"/><path class="cls-26" d="M63.49,17.65v2.24h-.18V17.65h.18m.1-.1h-.38V20h.38V17.55Z"/><polygon class="cls-25" points="63.95 19.94 63.9 17.65 64.14 17.6 64.19 19.94 63.95 19.94"/><path class="cls-26" d="M64.14,17.65v2.24H64V17.65h.19m.1-.1h-.39V20h.39V17.55Z"/><polygon class="cls-25" points="64.6 19.94 64.55 17.65 64.78 17.6 64.83 19.94 64.6 19.94"/><path class="cls-26" d="M64.78,17.65v2.24H64.6V17.65h.18m.1-.1H64.5V20h.38V17.55Z"/><polygon class="cls-25" points="60.09 19.94 60.03 17.65 60.27 17.6 60.32 19.94 60.09 19.94"/><path class="cls-26" d="M60.27,17.65v2.24h-.19V17.65h.19m.1-.1H60V20h.39V17.55Z"/><rect class="cls-20" x="70.31" y="12.45" width="11.48" height="8.35"/><path class="cls-21" d="M81.64,12.6v8.06H70.46V12.6H81.64m.3-.3H70.16V21H81.94V12.3Z"/><rect class="cls-22" x="70.83" y="12.97" width="10.45" height="7.32"/><polygon class="cls-23" points="72.05 18.17 72.05 20 80.05 20 80.05 18.17 79.81 18.1 79.81 16.86 80.05 16.8 80.05 14.51 78.28 14.51 78.28 13.59 77.58 13.59 77.58 13.26 74.53 13.26 74.53 13.59 73.83 13.59 73.83 14.51 72.05 14.51 72.05 16.8 72.3 16.86 72.3 18.1 72.05 18.17"/><polygon class="cls-25" points="74.35 19.94 74.3 17.65 74.53 17.6 74.58 19.94 74.35 19.94"/><path class="cls-26" d="M74.53,17.65v2.24h-.18V17.65h.18m.1-.1h-.38V20h.38V17.55Z"/><polygon class="cls-25" points="75 19.94 74.94 17.65 75.18 17.6 75.23 19.94 75 19.94"/><path class="cls-26" d="M75.18,17.65v2.24H75V17.65h.18m.1-.1H74.9V20h.38V17.55Z"/><polygon class="cls-25" points="75.64 19.94 75.59 17.65 75.82 17.6 75.87 19.94 75.64 19.94"/><path class="cls-26" d="M75.82,17.65v2.24h-.18V17.65h.18m.1-.1h-.38V20h.38V17.55Z"/><polygon class="cls-25" points="76.28 19.94 76.23 17.65 76.47 17.6 76.52 19.94 76.28 19.94"/><path class="cls-26" d="M76.47,17.65v2.24h-.19V17.65h.19m.1-.1h-.39V20h.39V17.55Z"/><polygon class="cls-25" points="76.93 19.94 76.88 17.65 77.11 17.6 77.16 19.94 76.93 19.94"/><path class="cls-26" d="M77.11,17.65v2.24h-.18V17.65h.18m.1-.1h-.38V20h.38V17.55Z"/><polygon class="cls-25" points="77.57 19.94 77.52 17.65 77.76 17.6 77.81 19.94 77.57 19.94"/><path class="cls-26" d="M77.76,17.65v2.24h-.19V17.65h.19m.1-.1h-.39V20h.39V17.55Z"/><polygon class="cls-25" points="78.22 19.94 78.17 17.65 78.4 17.6 78.45 19.94 78.22 19.94"/><path class="cls-26" d="M78.4,17.65v2.24h-.18V17.65h.18m.1-.1h-.38V20h.38V17.55Z"/><polygon class="cls-25" points="73.7 19.94 73.66 17.65 73.89 17.6 73.94 19.94 73.7 19.94"/><path class="cls-26" d="M73.89,17.65v2.24h-.18V17.65h.18m.1-.1h-.38V20H74V17.55Z"/><rect class="cls-27" x="41.72" y="29.76" width="0.21" height="0.2"/><polygon class="cls-28" points="41.77 29.6 41.88 29.6 41.94 28.83 41.94 28.51 41.72 28.51 41.72 28.83 41.77 29.6"/><polygon class="cls-28" points="45.76 30.04 45.98 29.28 46.38 29.28 46.38 29.18 45.9 29.18 45.76 29.68 45.64 28.43 45.57 28.43 45.35 29.18 44.95 29.18 44.95 29.28 45.42 29.28 45.57 28.78 45.69 30.04 45.76 30.04"/><path class="cls-28" d="M38,28.4a.84.84,0,0,0-.84.83.85.85,0,0,0,.84.84.84.84,0,0,0,.83-.84A.83.83,0,0,0,38,28.4ZM38,30a.73.73,0,0,1-.73-.73.73.73,0,0,1,1.46,0A.73.73,0,0,1,38,30Z"/><path class="cls-28" d="M38.13,28.79a.31.31,0,0,0-.42.14.3.3,0,0,0,0,.29l.25.47s0,0,0,0,0,0,0,0l.25-.47A.32.32,0,0,0,38.13,28.79Zm-.14.42a.14.14,0,0,1-.14-.14.14.14,0,0,1,.14-.14.15.15,0,0,1,.14.14A.14.14,0,0,1,38,29.21Z"/><path class="cls-29" d="M38.63,27.06a.64.64,0,0,0-1.28,0,.64.64,0,0,0,1.28,0Z"/><path class="cls-30" d="M38.63,27.06a.64.64,0,0,0-1.28,0,.64.64,0,0,0,1.28,0Z"/><path class="cls-29" d="M42.47,27.06a.64.64,0,0,0-.64-.64.64.64,0,1,0,.64.64Z"/><path class="cls-30" d="M42.47,27.06a.64.64,0,0,0-.64-.64.64.64,0,1,0,.64.64Z"/><path class="cls-29" d="M46.3,27.06a.64.64,0,0,0-.64-.64.64.64,0,0,0-.64.64.64.64,0,1,0,1.28,0Z"/><path class="cls-30" d="M46.3,27.06a.64.64,0,0,0-.64-.64.64.64,0,0,0-.64.64.64.64,0,1,0,1.28,0Z"/><path class="cls-31" d="M31.38,29.07a.72.72,0,0,1,.87-.54.72.72,0,0,1-.33,1.4.73.73,0,0,1-.54-.53h-.11a.83.83,0,1,0,0-.33Z"/><rect class="cls-32" x="30.37" y="29.18" width="0.12" height="0.11"/><rect class="cls-32" x="30.66" y="29.18" width="0.23" height="0.11"/><rect class="cls-32" x="31.06" y="29.18" width="0.32" height="0.11"/><polygon class="cls-31" points="31.54 29.29 31.8 29.29 31.8 29.4 32.08 29.23 31.8 29.07 31.8 29.18 31.54 29.18 31.54 29.29"/><path class="cls-29" d="M32.71,27.06a.64.64,0,0,0-.64-.64.64.64,0,0,0-.64.64.64.64,0,0,0,1.28,0Z"/><path class="cls-30" d="M32.71,27.06a.64.64,0,0,0-.64-.64.64.64,0,0,0-.64.64.64.64,0,0,0,1.28,0Z"/><polyline class="cls-33" points="30.27 26.62 30.27 27.17 29.71 27.17"/><polyline class="cls-33" points="14.33 26.61 14.33 27.18 14.89 27.18"/><path class="cls-34" d="M55.87,14.89l.09-.16h.12v-.05a.28.28,0,0,0-.13,0,.26.26,0,0,0-.23.14h-.66a.3.3,0,0,0-.27-.18.25.25,0,0,0-.15.05v.07h.13l.11.18-.11.18h-.13v.05a.25.25,0,0,0,.15,0,.3.3,0,0,0,.28-.21h.64a.25.25,0,0,0,.24.17.2.2,0,0,0,.13,0V15H56Z"/><polygon class="cls-35" points="55.38 18.5 55.57 18.5 55.57 18.66 55.98 18.66 55.98 18.29 55.57 18.29 55.57 18.48 55.38 18.48 55.38 17.52 55.58 17.52 55.58 17.69 55.98 17.69 55.98 17.33 55.58 17.33 55.58 17.49 55.38 17.49 55.38 17.33 55.35 17.33 55.35 18.01 55.14 18.01 55.14 17.83 54.74 17.83 54.74 18.19 55.14 18.19 55.14 18.03 55.35 18.03 55.35 18.66 55.38 18.66 55.38 18.5"/><text class="cls-36" transform="translate(47.47 12.3)">P1</text><text class="cls-36" transform="translate(61.53 12.3)">P2</text><rect class="cls-22" x="55.5" y="24.23" width="5.28" height="5.91"/><rect class="cls-22" x="49.47" y="24.23" width="5.28" height="5.91"/><polygon class="cls-3" points="49.71 29.91 54.5 29.91 54.5 29.91 54.5 29.91 54.5 24.48 54.5 24.47 49.71 24.47 49.71 24.48 49.71 29.91 49.71 29.91"/><polygon class="cls-3" points="55.74 29.91 60.53 29.91 60.53 29.91 60.53 29.91 60.53 24.48 60.53 24.47 55.74 24.47 55.74 24.48 55.74 29.91 55.74 29.91"/><rect class="cls-37" x="49.87" y="24.63" width="4.48" height="5.11"/><rect class="cls-38" x="49.87" y="24.63" width="4.48" height="5.11"/><path class="cls-39" d="M52.76,26.05h0l.29-.24s0,0,0-.05h0l-.1-.12H51.77l-.14.12s0,0,0,.05h0l.21.24s0,0,0,0Z"/><path class="cls-39" d="M52.85,27.14l.22-.19,0,0,.16-.95s0,0,0,0l-.1-.12h0l-.29.24,0,0-.14.84s0,0,0,0l.15.18Z"/><path class="cls-39" d="M52.79,27.24l-.22.19,0,0-.14.84v0l.21.24a0,0,0,0,0,.05,0l.14-.12s0,0,0,0l.18-1v0l-.15-.18Z"/><path class="cls-39" d="M52.52,27.41h0l.23-.19a0,0,0,0,0,0-.05h0L52.62,27l0,0h-.93l-.22.19a0,0,0,0,0,0,0h0l.15.18h.93Z"/><path class="cls-39" d="M51.42,27.14l.23-.19a0,0,0,0,0,0,0l.15-.84a0,0,0,0,0,0,0l-.21-.25a0,0,0,0,0,0,0l-.15.12s0,0,0,0l-.17,1v0l.15.18Z"/><path class="cls-39" d="M52.42,28.76h0l.14-.12s0,0,0-.05h0l-.21-.24s0,0,0,0h-.93l-.29.24s0,0,0,.05h0l.1.12h1.19Z"/><path class="cls-39" d="M51.42,28.29l.15-.84a0,0,0,0,0,0,0l-.15-.18h0l-.22.19s0,0,0,0L51,28.4a0,0,0,0,0,0,0l.1.12s0,0,0,0l.3-.24S51.42,28.3,51.42,28.29Z"/><path class="cls-39" d="M53.79,28.52a.25.25,0,1,0-.49,0,.25.25,0,0,0,.49,0Z"/><path class="cls-40" d="M52.76,26.05h0l.29-.24s0,0,0-.05h0l-.1-.12H51.77l-.14.12s0,0,0,.05h0l.21.24s0,0,0,0Z"/><path class="cls-40" d="M52.85,27.14l.22-.19,0,0,.16-.95s0,0,0,0l-.1-.12h0l-.29.24,0,0-.14.84s0,0,0,0l.15.18Z"/><path class="cls-40" d="M52.79,27.24l-.22.19,0,0-.14.84v0l.21.24a0,0,0,0,0,.05,0l.14-.12s0,0,0,0l.18-1v0l-.15-.18Z"/><path class="cls-40" d="M52.52,27.41h0l.23-.19a0,0,0,0,0,0-.05h0L52.62,27l0,0h-.93l-.22.19a0,0,0,0,0,0,0h0l.15.18h.93Z"/><path class="cls-40" d="M51.42,27.14l.23-.19a0,0,0,0,0,0,0l.15-.84a0,0,0,0,0,0,0l-.21-.25a0,0,0,0,0,0,0l-.15.12s0,0,0,0l-.17,1v0l.15.18Z"/><path class="cls-40" d="M52.42,28.76h0l.14-.12s0,0,0-.05h0l-.21-.24s0,0,0,0h-.93l-.29.24s0,0,0,.05h0l.1.12h1.19Z"/><path class="cls-40" d="M51.42,28.29l.15-.84a0,0,0,0,0,0,0l-.15-.18h0l-.22.19s0,0,0,0L51,28.4a0,0,0,0,0,0,0l.1.12s0,0,0,0l.3-.24S51.42,28.3,51.42,28.29Z"/><path class="cls-40" d="M53.79,28.52a.25.25,0,1,0-.49,0,.25.25,0,0,0,.49,0Z"/><rect class="cls-37" x="55.9" y="24.63" width="4.48" height="5.11"/><rect class="cls-38" x="55.9" y="24.63" width="4.48" height="5.11"/><path class="cls-39" d="M57.48,28.33h0l-.29.24s0,0,0,.05h0l.09.12h1.21l.14-.12s0,0,0-.05h0l-.21-.24s0,0,0,0Z"/><path class="cls-39" d="M57.39,27.24l-.22.19s0,0,0,0L57,28.4a0,0,0,0,0,0,0l.1.12s0,0,0,0l.3-.24s0,0,0,0l.15-.84a0,0,0,0,0,0,0l-.15-.18Z"/><path class="cls-39" d="M57.45,27.14l.23-.19a0,0,0,0,0,0,0l.15-.84a0,0,0,0,0,0,0l-.21-.25a0,0,0,0,0,0,0l-.15.12s0,0,0,0l-.17,1v0l.15.18Z"/><path class="cls-39" d="M57.72,27h0l-.22.19a0,0,0,0,0,0,0h0l.15.18h1l.23-.19a0,0,0,0,0,0-.05h0L58.65,27l0,0Z"/><path class="cls-39" d="M58.82,27.24l-.22.19s0,0,0,0h0l-.15.84v0l.21.24a0,0,0,0,0,.05,0l.14-.12s0,0,0,0l.18-1v0l-.15-.18Z"/><path class="cls-39" d="M57.82,25.62h0l-.14.12s0,0,0,.05h0l.21.24s0,0,0,0h.93l.29-.24s0,0,0-.05h0l-.1-.12H57.82Z"/><path class="cls-39" d="M58.82,26.09l-.14.84s0,0,0,0l.15.18h.05L59.1,27a0,0,0,0,0,0,0l.16-.95s0,0,0,0l-.1-.12h0l-.29.24Z"/><path class="cls-39" d="M56.45,25.86a.25.25,0,1,0,.25-.24A.25.25,0,0,0,56.45,25.86Z"/><path class="cls-40" d="M57.48,28.33h0l-.29.24s0,0,0,.05h0l.09.12h1.21l.14-.12s0,0,0-.05h0l-.21-.24s0,0,0,0Z"/><path class="cls-40" d="M57.39,27.24l-.22.19s0,0,0,0L57,28.4a0,0,0,0,0,0,0l.1.12s0,0,0,0l.3-.24s0,0,0,0l.15-.84a0,0,0,0,0,0,0l-.15-.18Z"/><path class="cls-40" d="M57.45,27.14l.23-.19a0,0,0,0,0,0,0l.15-.84a0,0,0,0,0,0,0l-.21-.25a0,0,0,0,0,0,0l-.15.12s0,0,0,0l-.17,1v0l.15.18Z"/><path class="cls-40" d="M57.72,27h0l-.22.19a0,0,0,0,0,0,0h0l.15.18h1l.23-.19a0,0,0,0,0,0-.05h0L58.65,27l0,0Z"/><path class="cls-40" d="M58.82,27.24l-.22.19s0,0,0,0h0l-.15.84v0l.21.24a0,0,0,0,0,.05,0l.14-.12s0,0,0,0l.18-1v0l-.15-.18Z"/><path class="cls-40" d="M57.82,25.62h0l-.14.12s0,0,0,.05h0l.21.24s0,0,0,0h.93l.29-.24s0,0,0-.05h0l-.1-.12H57.82Z"/><path class="cls-40" d="M58.82,26.09l-.14.84s0,0,0,0l.15.18h.05L59.1,27a0,0,0,0,0,0,0l.16-.95s0,0,0,0l-.1-.12h0l-.29.24Z"/><path class="cls-40" d="M56.45,25.86a.25.25,0,1,0,.25-.24A.25.25,0,0,0,56.45,25.86Z"/><polyline class="cls-33" points="62.75 23.57 62.75 24.13 62.19 24.13"/><polyline class="cls-33" points="46.81 23.63 46.82 24.19 47.37 24.19"/><rect class="cls-32" x="77.4" y="11.18" width="0.1" height="1.03"/><path class="cls-31" d="M76.76,11.18a.51.51,0,1,0,.51.51A.51.51,0,0,0,76.76,11.18Zm0,.92a.41.41,0,1,1,0-.82.41.41,0,1,1,0,.82Z"/><rect class="cls-32" x="76.01" y="11.18" width="0.1" height="1.03"/><path class="cls-31" d="M75.37,11.18a.51.51,0,1,0,.51.51A.51.51,0,0,0,75.37,11.18Zm0,.92a.41.41,0,1,1,.41-.41A.41.41,0,0,1,75.37,12.1Z"/><rect class="cls-32" x="74.62" y="11.18" width="0.1" height="1.03"/></g><g id="BLANK"><path class="cls-41" d="M116,30.72H138.3a.4.4,0,0,0,.4-.4h0V20.81h.93a.31.31,0,0,0,.31-.31h0V11.31a.4.4,0,0,0-.4-.4H84.84a.48.48,0,0,0-.49.48V20a.8.8,0,0,1-.8.8H65.71v9.42a.48.48,0,0,0,.48.49Z"/><rect class="cls-8" x="90.14" y="13.1" width="8.38" height="6.12" rx="0.48"/><path class="cls-42" d="M92.67,17.2a.59.59,0,0,1-.42-.17l-.38-.38a.58.58,0,0,1-.17-.41v-.58a.58.58,0,0,1,.58-.58h4.08a.58.58,0,0,1,.58.58v.58a.58.58,0,0,1-.17.41l-.38.38a.57.57,0,0,1-.41.17Z"/><path class="cls-43" d="M96.72,16.24v-.58a.36.36,0,0,0-.36-.36H92.29a.36.36,0,0,0-.36.36v.58a.33.33,0,0,0,.1.25l.38.38a.36.36,0,0,0,.26.11H96a.36.36,0,0,0,.26-.11l.38-.38A.37.37,0,0,0,96.72,16.24Z"/><path class="cls-44" d="M96.68,16.17v-.44a.38.38,0,0,0-.37-.38h-4a.38.38,0,0,0-.38.38v.44a.39.39,0,0,0,.11.27l.38.38a.39.39,0,0,0,.27.11h3.21a.39.39,0,0,0,.27-.11l.37-.38A.39.39,0,0,0,96.68,16.17Z"/><path class="cls-17" d="M96.5,16.17v-.44a.2.2,0,0,0-.19-.19h-4a.2.2,0,0,0-.19.19v.44a.2.2,0,0,0,.06.14l.37.37a.2.2,0,0,0,.14.06h3.21a.16.16,0,0,0,.13-.06l.38-.37A.2.2,0,0,0,96.5,16.17Z"/><rect class="cls-45" x="94.2" y="15.94" width="0.25" height="0.11"/><path class="cls-26" d="M94.45,16V16H94.2V16h.25m0-.05h-.35v.17h.35v-.17Z"/><rect class="cls-45" x="94.61" y="15.94" width="0.25" height="0.11"/><path class="cls-26" d="M94.86,16V16h-.25V16h.25m0-.05h-.35v.17h.35v-.17Z"/><rect class="cls-45" x="95.02" y="15.94" width="0.25" height="0.11"/><path class="cls-26" d="M95.27,16V16H95V16h.25m0-.05H95v.17h.35v-.17Z"/><rect class="cls-45" x="93.38" y="15.94" width="0.25" height="0.11"/><path class="cls-26" d="M93.63,16V16h-.25V16h.25m.05-.05h-.35v.17h.35v-.17Z"/><rect class="cls-45" x="93.79" y="15.94" width="0.25" height="0.11"/><path class="cls-26" d="M94,16V16h-.25V16H94m0-.05h-.35v.17h.35v-.17Z"/><path class="cls-46" d="M94.46,17h1.3a.14.14,0,0,0,.07-.12v-.12H94.34v.12a.14.14,0,0,0,.07.12Z"/><path class="cls-46" d="M92.94,17h1.3a.14.14,0,0,0,.07-.12v-.12h-1.5v.12a.13.13,0,0,0,.08.12Z"/><path class="cls-46" d="M91.93,16.08a.12.12,0,0,0,.1.05h.12v-.36H92a.12.12,0,0,0-.1.05Z"/><path class="cls-46" d="M96.12,15.3H92.48a.13.13,0,0,0-.08.12v.12h3.84v-.12a.14.14,0,0,0-.07-.12Z"/><path class="cls-46" d="M96.72,15.82a.12.12,0,0,0-.1-.05H96.5v.36h.12a.12.12,0,0,0,.1-.05Z"/><path class="cls-47" d="M94.86,16.09H95V16h.25v.13h0a.11.11,0,0,0,.11-.11h0v-.15a.11.11,0,0,0-.11-.11h-2a.11.11,0,0,0-.11.11V16a.11.11,0,0,0,.11.11h0V16h.25v.13h.16V16H94v.13h.16V16h.25v.13h.16V16h.25Z"/><rect class="cls-32" x="95.67" y="11.47" width="0.1" height="1.03"/><path class="cls-31" d="M95,11.47a.52.52,0,1,0,.51.52A.52.52,0,0,0,95,11.47Zm0,.93a.41.41,0,0,1-.41-.41.41.41,0,0,1,.41-.41.41.41,0,0,1,.41.41A.42.42,0,0,1,95,12.4Z"/><rect class="cls-32" x="94.28" y="11.47" width="0.1" height="1.03"/><path class="cls-31" d="M93.64,11.47a.52.52,0,1,0,.51.52A.51.51,0,0,0,93.64,11.47Zm0,.93a.41.41,0,0,1-.41-.41.41.41,0,1,1,.82,0A.41.41,0,0,1,93.64,12.4Z"/><rect class="cls-32" x="92.89" y="11.47" width="0.1" height="1.03"/><rect class="cls-15" x="120.23" y="12.88" width="15.37" height="13.1"/><path class="cls-48" d="M121.06,23.85a.82.82,0,0,1-.59-.25.85.85,0,0,1-.24-.59V16.44a.77.77,0,0,1,.24-.59.83.83,0,0,1,.59-.25h13.63a.87.87,0,0,1,.59.24.89.89,0,0,1,.24.6V23a.85.85,0,0,1-.24.59.83.83,0,0,1-.59.25Z"/><path class="cls-49" d="M134.69,23.5a.48.48,0,0,0,.34-.14.47.47,0,0,0,.15-.35V16.44a.48.48,0,0,0-.14-.35.53.53,0,0,0-.35-.15H121.06a.51.51,0,0,0-.35.15.48.48,0,0,0-.14.35V23a.5.5,0,0,0,.14.35.46.46,0,0,0,.35.14Z"/><path class="cls-46" d="M134.69,23.26a.25.25,0,0,0,.25-.25h0V16.44a.25.25,0,0,0-.25-.25H121.06a.25.25,0,0,0-.25.25V23a.25.25,0,0,0,.25.25Z"/><path class="cls-23" d="M134.69,16.31a.13.13,0,0,1,.13.13h0V23a.13.13,0,0,1-.13.13h-6.76V16.31Z"/><path class="cls-23" d="M121.06,16.31a.13.13,0,0,0-.13.13h0V23a.13.13,0,0,0,.13.13h6.76V16.31Z"/><rect class="cls-50" x="122.25" y="23.14" width="4.24" height="0.12"/><rect class="cls-50" x="129.26" y="23.14" width="4.24" height="0.12"/><rect class="cls-51" x="130.18" y="23.14" width="2.39" height="0.12"/><rect class="cls-51" x="123.18" y="23.14" width="2.39" height="0.12"/><rect class="cls-9" x="121.54" y="17.17" width="5.67" height="5.1"/><rect class="cls-52" x="121.67" y="17.85" width="5.4" height="1.2"/><rect class="cls-9" x="121.83" y="18.08" width="5.08" height="0.75"/><rect class="cls-53" x="126.21" y="17.61" width="0.12" height="1.68"/><rect class="cls-53" x="124.79" y="17.61" width="0.12" height="1.68"/><rect class="cls-53" x="124.31" y="17.61" width="0.12" height="1.68"/><rect class="cls-53" x="123.36" y="17.61" width="0.12" height="1.68"/><rect class="cls-53" x="122.89" y="17.61" width="0.12" height="1.68"/><rect class="cls-53" x="122.41" y="17.61" width="0.12" height="1.68"/><rect class="cls-53" x="125.74" y="17.61" width="0.12" height="1.68"/><rect class="cls-53" x="125.26" y="17.61" width="0.12" height="1.68"/><rect class="cls-53" x="123.84" y="17.61" width="0.12" height="1.68"/><rect class="cls-20" x="121.97" y="18.23" width="4.8" height="0.45"/><rect class="cls-52" x="121.67" y="20.4" width="5.4" height="1.2"/><rect class="cls-9" x="121.83" y="20.62" width="5.08" height="0.75"/><rect class="cls-53" x="126.21" y="20.16" width="0.12" height="1.68"/><rect class="cls-53" x="124.79" y="20.16" width="0.12" height="1.68"/><rect class="cls-53" x="124.31" y="20.16" width="0.12" height="1.68"/><rect class="cls-53" x="123.36" y="20.16" width="0.12" height="1.68"/><rect class="cls-53" x="122.89" y="20.16" width="0.12" height="1.68"/><rect class="cls-53" x="122.41" y="20.16" width="0.12" height="1.68"/><rect class="cls-53" x="125.74" y="20.16" width="0.12" height="1.68"/><rect class="cls-53" x="125.26" y="20.16" width="0.12" height="1.68"/><rect class="cls-53" x="123.84" y="20.16" width="0.12" height="1.68"/><rect class="cls-20" x="121.97" y="20.78" width="4.8" height="0.45"/><rect class="cls-9" x="128.54" y="17.17" width="5.67" height="5.1"/><rect class="cls-52" x="128.67" y="17.85" width="5.4" height="1.2"/><rect class="cls-9" x="128.84" y="18.08" width="5.08" height="0.75"/><rect class="cls-53" x="133.22" y="17.61" width="0.12" height="1.68"/><rect class="cls-53" x="131.79" y="17.61" width="0.12" height="1.68"/><rect class="cls-53" x="131.32" y="17.61" width="0.12" height="1.68"/><rect class="cls-53" x="130.37" y="17.61" width="0.12" height="1.68"/><rect class="cls-53" x="129.89" y="17.61" width="0.12" height="1.68"/><rect class="cls-53" x="129.42" y="17.61" width="0.12" height="1.68"/><rect class="cls-53" x="132.74" y="17.61" width="0.12" height="1.68"/><rect class="cls-53" x="132.27" y="17.61" width="0.12" height="1.68"/><rect class="cls-53" x="130.84" y="17.61" width="0.12" height="1.68"/><rect class="cls-20" x="128.98" y="18.23" width="4.8" height="0.45"/><rect class="cls-52" x="128.67" y="20.4" width="5.4" height="1.2"/><rect class="cls-9" x="128.84" y="20.62" width="5.08" height="0.75"/><rect class="cls-53" x="133.22" y="20.16" width="0.12" height="1.68"/><rect class="cls-53" x="131.79" y="20.16" width="0.12" height="1.68"/><rect class="cls-53" x="131.32" y="20.16" width="0.12" height="1.68"/><rect class="cls-53" x="130.37" y="20.16" width="0.12" height="1.68"/><rect class="cls-53" x="129.89" y="20.16" width="0.12" height="1.68"/><rect class="cls-53" x="129.42" y="20.16" width="0.12" height="1.68"/><rect class="cls-53" x="132.74" y="20.16" width="0.12" height="1.68"/><rect class="cls-53" x="132.27" y="20.16" width="0.12" height="1.68"/><rect class="cls-53" x="130.84" y="20.16" width="0.12" height="1.68"/><rect class="cls-20" x="128.98" y="20.78" width="4.8" height="0.45"/><path class="cls-54" d="M130.74,23.15l.18-.14a.21.21,0,0,1,.11,0h.69a.21.21,0,0,1,.11,0l.18.14h.32a.15.15,0,0,1-.11,0l-.3-.23a.36.36,0,0,0-.2-.06H131a.36.36,0,0,0-.2.06l-.3.23a.15.15,0,0,1-.11,0Z"/><path class="cls-54" d="M123.74,23.15l.18-.14a.21.21,0,0,1,.11,0h.69a.18.18,0,0,1,.1,0l.19.14h.31a.14.14,0,0,1-.1,0l-.3-.23a.36.36,0,0,0-.2-.06H124a.32.32,0,0,0-.2.06l-.3.23a.15.15,0,0,1-.11,0Z"/><path class="cls-55" d="M119.33,17.5a.75.75,0,1,0-.75.75A.76.76,0,0,0,119.33,17.5Z"/><path class="cls-55" d="M119.33,20.69a.75.75,0,1,0-.75.75A.76.76,0,0,0,119.33,20.69Z"/><path class="cls-55" d="M137.91,17.5a.75.75,0,1,0-.74.75A.75.75,0,0,0,137.91,17.5Z"/><path class="cls-55" d="M137.91,20.69a.75.75,0,1,0-.74.75A.75.75,0,0,0,137.91,20.69Z"/><path class="cls-31" d="M118.77,15.76a.18.18,0,0,0-.19-.19.18.18,0,0,0-.18.19.18.18,0,0,0,.18.18A.18.18,0,0,0,118.77,15.76Z"/><path class="cls-31" d="M118.73,14.31a.16.16,0,0,0-.15-.17.15.15,0,0,0-.14.17h0l.06,1.09c0,.05,0,.09.09.08a.08.08,0,0,0,.07-.08l.07-1.1Z"/><path class="cls-32" d="M117.39,23V22h.18v.87H118V23Z"/><path class="cls-32" d="M118.13,23V22h.16l.36.7V22h.16V23h-.18l-.34-.69V23Z"/><path class="cls-32" d="M119,23V22h.18v.46l.35-.46h.23l-.32.4.34.65h-.23l-.23-.5-.14.18V23Z"/><path class="cls-31" d="M137.35,15.76a.18.18,0,0,0-.18-.19.18.18,0,0,0-.19.19.18.18,0,0,0,.19.18A.18.18,0,0,0,137.35,15.76Z"/><path class="cls-31" d="M137.31,14.31a.15.15,0,1,0-.29,0h0l.07,1.09c0,.05,0,.09.09.08a.11.11,0,0,0,.07-.08l.06-1.1Z"/><path class="cls-32" d="M136,23V22h.17v.87h.43V23Z"/><path class="cls-32" d="M136.71,23V22h.17l.35.7V22h.16V23h-.17l-.35-.69V23Z"/><path class="cls-32" d="M137.58,23V22h.17v.46l.35-.46h.24l-.33.4.34.65h-.22l-.24-.5-.14.18V23Z"/><text class="cls-19" transform="translate(122.23 25.39)">EXP1</text><text class="cls-19" transform="translate(129.15 25.39)">EXP2</text><rect class="cls-16" x="123.36" y="14.23" width="0.53" height="0.18"/><path class="cls-17" d="M126.35,14.11h-.13l-.13.49h.11l0-.1h.14l0,.1h.11Zm-.11.31.05-.22h0l0,.22Z"/><path class="cls-17" d="M124.66,14.58a0,0,0,0,0,0-.05.05.05,0,1,0,0,.1A0,0,0,0,0,124.66,14.58Z"/><path class="cls-17" d="M124.84,14.66a.05.05,0,1,0,0,.05A0,0,0,0,0,124.84,14.66Z"/><path class="cls-17" d="M125,14.74a.06.06,0,0,0-.06-.05,0,0,0,1,0,0,.1A.06.06,0,0,0,125,14.74Z"/><path class="cls-17" d="M125.21,14.82a.06.06,0,0,0-.06-.05,0,0,0,1,0,0,.1A.06.06,0,0,0,125.21,14.82Z"/><path class="cls-17" d="M125.39,14.9s0-.05-.06-.05a0,0,0,1,0,0,.1S125.39,14.93,125.39,14.9Z"/><path class="cls-17" d="M125.57,15a0,0,0,0,0,0-.05.05.05,0,1,0,0,.1A0,0,0,0,0,125.57,15Z"/><path class="cls-17" d="M124.68,14.36a0,0,0,0,0-.05,0,.05.05,0,1,0,0,.1A0,0,0,0,0,124.68,14.36Z"/><path class="cls-17" d="M124.88,14.36a0,0,0,0,0,0,0,.05.05,0,1,0,0,.1A0,0,0,0,0,124.88,14.36Z"/><path class="cls-17" d="M125.08,14.36a0,0,0,0,0,0,0,.05.05,0,1,0,0,.1A0,0,0,0,0,125.08,14.36Z"/><path class="cls-17" d="M125.28,14.36a0,0,0,0,0,0,0,.05.05,0,1,0,0,.1A0,0,0,0,0,125.28,14.36Z"/><path class="cls-17" d="M125.48,14.36a0,0,0,0,0,0,0,.05.05,0,1,0,0,.1A0,0,0,0,0,125.48,14.36Z"/><path class="cls-17" d="M125.68,14.36a0,0,0,0,0-.05,0,.05.05,0,1,0,0,.1A0,0,0,0,0,125.68,14.36Z"/><path class="cls-17" d="M125.88,14.36a0,0,0,0,0,0,0,.05.05,0,1,0,0,.1A0,0,0,0,0,125.88,14.36Z"/><path class="cls-17" d="M124.66,14.14a0,0,0,0,0,0-.05.05.05,0,1,0,0,.1A0,0,0,0,0,124.66,14.14Z"/><path class="cls-17" d="M124.84,14.06a0,0,0,0,0-.1,0,0,0,0,0,0,.1,0A0,0,0,0,0,124.84,14.06Z"/><path class="cls-17" d="M125,14a.06.06,0,0,0-.06-.05,0,0,0,1,0,0,.1A.06.06,0,0,0,125,14Z"/><path class="cls-17" d="M125.21,13.9a.06.06,0,0,0-.06-.05,0,0,0,1,0,0,.1A.06.06,0,0,0,125.21,13.9Z"/><path class="cls-17" d="M125.39,13.82s0-.05-.06-.05a0,0,0,1,0,0,.1S125.39,13.85,125.39,13.82Z"/><path class="cls-17" d="M125.57,13.74a.06.06,0,0,0,0-.06.06.06,0,0,0-.06.06.06.06,0,0,0,.06,0A0,0,0,0,0,125.57,13.74Z"/><path class="cls-17" d="M126.21,13.81h-.11v0c0,.09.05.14.17.14s.18-.05.18-.15,0-.1-.1-.13l-.08,0s-.06,0-.06-.07a.06.06,0,0,1,.06-.06s.06,0,.06.08h.1v0c0-.09-.07-.13-.16-.13s-.16,0-.16.14,0,.12.14.15.09,0,.09.09a.06.06,0,0,1-.06.06c-.06,0-.07,0-.07-.08Z"/><path class="cls-17" d="M126.21,15.09h-.11v0c0,.09.05.15.17.15s.18,0,.18-.15,0-.1-.1-.13l-.08,0s-.06,0-.06-.06a.06.06,0,0,1,.06-.06s.06,0,.06.07h.1c0-.09-.07-.13-.16-.13s-.16.05-.16.14,0,.12.14.15.09,0,.09.08a.06.06,0,0,1-.06.06c-.06,0-.07,0-.07-.07Z"/><path class="cls-17" d="M123.61,14.6V15h.83v-.18l.41.27,0,0,.4.14-.27-.32,0,.06-.47-.31v-.12s0,0,0-.06a0,0,0,0,0,0,0v0s0,0,0-.06a0,0,0,0,0,0,0v0s0,0,0-.06a0,0,0,0,0,0,0V14l.47-.31v0l.27-.3-.4.13.06,0-.41.27v-.17h-.83v.31h.07v-.24h.68V14.9h-.68v-.3Z"/><polygon class="cls-17" points="130.17 14.17 130.17 13.8 129.45 14.53 130.17 15.25 130.17 14.88 130.56 14.88 130.56 14.17 130.17 14.17"/><polygon class="cls-17" points="131.18 14.17 131.18 13.8 131.9 14.53 131.18 15.25 131.18 14.88 130.79 14.88 130.79 14.17 131.18 14.17"/><path class="cls-5" d="M116.18,17.7a1.85,1.85,0,1,0-1.84,1.85A1.84,1.84,0,0,0,116.18,17.7Z"/><path class="cls-56" d="M116,17.7a1.69,1.69,0,1,0-1.68,1.69A1.68,1.68,0,0,0,116,17.7Z"/><path class="cls-57" d="M113.66,17.3l.12.12a.4.4,0,0,1,0,.57h0l-.12.12a.14.14,0,0,0,0,.19h0l.08.08a.14.14,0,0,0,.19,0l.12-.12a.4.4,0,0,1,.57,0l.12.12a.13.13,0,0,0,.2,0l.07-.08a.12.12,0,0,0,0-.19h0l-.12-.12a.4.4,0,0,1,0-.57h0l.12-.12a.14.14,0,0,0,0-.19h0l-.08-.08a.14.14,0,0,0-.19,0l-.12.12a.4.4,0,0,1-.57,0l-.12-.12a.12.12,0,0,0-.19,0l-.08.08a.14.14,0,0,0,0,.19Z"/><path class="cls-5" d="M89.24,17.7a1.85,1.85,0,1,0-1.84,1.85A1.84,1.84,0,0,0,89.24,17.7Z"/><path class="cls-56" d="M89.08,17.7a1.69,1.69,0,1,0-1.68,1.69A1.68,1.68,0,0,0,89.08,17.7Z"/><path class="cls-57" d="M86.72,17.3l.12.12a.4.4,0,0,1,0,.57h0l-.12.12a.14.14,0,0,0,0,.19h0l.08.08a.14.14,0,0,0,.19,0l.12-.12a.4.4,0,0,1,.57,0l.12.12a.13.13,0,0,0,.2,0l.07-.08a.12.12,0,0,0,0-.19h0L88,18a.4.4,0,0,1,0-.57h0l.12-.12a.14.14,0,0,0,0-.19h0L88,17a.14.14,0,0,0-.19,0l-.12.12a.4.4,0,0,1-.57,0L87,17a.12.12,0,0,0-.19,0l-.08.08a.14.14,0,0,0,0,.19Z"/><path class="cls-28" d="M107.68,13.33h-2.39l.52-.52h.48a.27.27,0,0,0,.34.14.26.26,0,0,0-.2-.48.27.27,0,0,0-.14.14h-.56l-.72.72h-.24a.42.42,0,0,0-.49-.29.4.4,0,0,0-.29.49.39.39,0,0,0,.49.29.42.42,0,0,0,.29-.29h.92l.71.72h.47v.16h.53v-.53h-.53v.17h-.38l-.52-.52h1.71v.18l.52-.28-.52-.27Z"/><rect class="cls-8" x="100.24" y="14.89" width="11.54" height="5.89" rx="0.48"/><rect class="cls-20" x="101.72" y="15.85" width="8.59" height="3.97" rx="0.57"/><polygon class="cls-58" points="102.32 15.85 102.32 19.82 105.18 19.82 105.18 19.54 105.94 19.54 106.08 19.54 106.84 19.54 106.84 19.82 109.69 19.82 109.69 15.85 102.32 15.85"/><path class="cls-21" d="M109.74,16.1h-7.46a.32.32,0,0,0-.32.32v2.83a.33.33,0,0,0,.32.33h7.46a.33.33,0,0,0,.32-.33V16.42a.32.32,0,0,0-.32-.32Z"/><path class="cls-17" d="M109.74,16.22h-7.46a.2.2,0,0,0-.2.2h0v2.83a.2.2,0,0,0,.2.2h7.46a.2.2,0,0,0,.2-.2V16.42a.2.2,0,0,0-.2-.2Z"/><polygon class="cls-59" points="103.55 17.82 103.52 17.52 104.04 17.49 104.07 17.79 104.07 17.82 103.55 17.82"/><path class="cls-60" d="M104,17.52v.27h-.49v-.27H104m.07-.07h-.62v.41h.62v-.41Z"/><polygon class="cls-59" points="107.98 17.82 107.94 17.52 108.47 17.49 108.5 17.79 108.5 17.82 107.98 17.82"/><path class="cls-60" d="M108.47,17.52v.27H108v-.27h.49m.06-.07h-.62v.41h.62v-.41Z"/><polygon class="cls-59" points="105.2 17.82 105.16 17.52 105.69 17.49 105.72 17.79 105.72 17.82 105.2 17.82"/><path class="cls-60" d="M105.69,17.52v.27h-.49v-.27h.49m.06-.07h-.62v.41h.62v-.41Z"/><polygon class="cls-59" points="106.33 17.82 106.3 17.52 106.82 17.49 106.86 17.79 106.86 17.82 106.33 17.82"/><path class="cls-60" d="M106.82,17.52v.27h-.49v-.27h.49m.07-.07h-.62v.41h.62v-.41Z"/><polygon class="cls-25" points="103.55 18.01 103.52 17.7 104.04 17.67 104.07 17.97 104.07 18.01 103.55 18.01"/><path class="cls-26" d="M104,17.7V18h-.49V17.7H104m.07-.07h-.62V18h.62v-.41Z"/><polygon class="cls-25" points="107.98 18.01 107.94 17.7 108.47 17.67 108.5 17.97 108.5 18.01 107.98 18.01"/><path class="cls-26" d="M108.47,17.7V18H108V17.7h.49m.06-.07h-.62V18h.62v-.41Z"/><polygon class="cls-25" points="105.2 18.01 105.16 17.7 105.69 17.67 105.72 17.97 105.72 18.01 105.2 18.01"/><path class="cls-26" d="M105.69,17.7V18h-.49V17.7h.49m.06-.07h-.62V18h.62v-.41Z"/><polygon class="cls-25" points="106.33 18.01 106.3 17.7 106.82 17.67 106.86 17.97 106.86 18.01 106.33 18.01"/><path class="cls-26" d="M106.82,17.7V18h-.49V17.7h.49m.07-.07h-.62V18h.62v-.41Z"/><rect class="cls-61" x="102.65" y="17.96" width="6.72" height="0.91"/><path class="cls-9" d="M109.25,18.09v.66h-6.48v-.66h6.48m.25-.25h-7V19h7V17.84Z"/><rect class="cls-21" x="109.94" y="16.66" width="0.37" height="2.35"/><rect class="cls-21" x="101.72" y="16.66" width="0.37" height="2.35"/><polyline class="cls-33" points="136.16 29.43 136.16 29.99 135.6 29.99"/><polyline class="cls-33" points="120.23 29.43 120.23 29.99 120.78 29.99"/></g><g id="E2800_Latch" data-name="E2800 Latch"><rect class="cls-15" x="131.26" y="31.41" width="12.1" height="0.79"/><path class="cls-47" d="M53.5,29.68v3.15h80.77a.16.16,0,0,0,.16-.16h0V30.94a.16.16,0,0,0-.16-.16H80.58a.16.16,0,0,1-.16-.15v-.79a.16.16,0,0,0-.16-.16H53.5Z"/><path class="cls-62" d="M58.48,29.68H51.14v3.15H73.22V29.68h-1a6.13,6.13,0,0,1-1.64-.23L66.7,28.34a6.62,6.62,0,0,0-1.47-.23h-5a.45.45,0,0,0-.32.16L58.8,29.52A.43.43,0,0,1,58.48,29.68Z"/><path class="cls-62" d="M53.15,29.68H42.06v3.15H57.92a.31.31,0,0,0,.31-.32h0V28.42a.31.31,0,0,0-.31-.31H55.74a.81.81,0,0,0-.48.16l-1.63,1.25A.81.81,0,0,1,53.15,29.68Z"/><path class="cls-63" d="M53.5,29.68H7.11a.16.16,0,0,0-.15.16v2.83a.16.16,0,0,0,.15.16H53.5Z"/><path class="cls-64" d="M72.31,30.24H70.5a6.62,6.62,0,0,1-1.6-.2l-3.5-.94A5.62,5.62,0,0,0,64,28.92H62V32.1H72.31Z"/><polygon class="cls-41" points="64.62 30.48 63.38 29.87 63.37 31.15 64.62 30.48"/></g><g id="Arapaho-S-2" data-name="Arapaho-S"><rect class="cls-65" x="42.98" y="71.65" width="151.33" height="91.52"/><rect class="cls-2" x="42.98" y="71.65" width="151.33" height="91.52"/><rect class="cls-20" x="42.98" y="74.39" width="151.33" height="86.42"/><rect class="cls-8" x="42.98" y="72.16" width="151.33" height="94.54"/><rect class="cls-2" x="42.98" y="71.65" width="151.33" height="94.54"/><path class="cls-7" d="M194.31,76.8H43v84.28H156.42a2.08,2.08,0,0,0,2.09-2.09V119H121.59V83.4h49v34.21h9.15V83.4h14.61ZM110.8,119H61.94V83.4H110.8Z"/><rect class="cls-8" x="42.98" y="94.41" width="6.01" height="30.32"/><rect class="cls-9" x="42.73" y="97.42" width="3.59" height="24.3"/><path class="cls-10" d="M46.07,97.67v23.8H43V97.67h3.09m.5-.5H42.48V122h4.09V97.17Z"/><rect class="cls-11" x="42.98" y="98.19" width="2.57" height="22.76"/><rect class="cls-12" x="42.98" y="98.66" width="2.1" height="21.89"/><rect class="cls-15" x="42.98" y="76.8" width="6.01" height="17.61"/><rect class="cls-15" x="61.94" y="76.8" width="108.62" height="42.16"/><rect class="cls-20" x="122.23" y="83.86" width="47.83" height="34.54"/><path class="cls-21" d="M169.91,84v34.24H122.38V84h47.53m.3-.3H122.08v34.84h48.13V83.71Z"/><rect class="cls-22" x="123.94" y="85.57" width="44.41" height="31.13"/><polygon class="cls-23" points="129.14 107.67 129.14 115.47 163.15 115.47 163.15 107.67 162.13 107.38 162.13 102.13 163.15 101.84 163.15 92.11 155.62 92.11 155.62 88.19 152.64 88.19 152.64 86.8 139.65 86.8 139.65 88.19 136.69 88.19 136.69 92.11 129.14 92.11 129.14 101.84 130.16 102.13 130.16 107.38 129.14 107.67"/><rect class="cls-24" x="129.14" y="88.19" width="7.55" height="3.92"/><rect class="cls-24" x="155.62" y="88.19" width="7.53" height="3.92"/><polygon class="cls-25" points="138.9 115.03 138.85 105.49 139.69 105.44 139.74 115.03 138.9 115.03"/><path class="cls-26" d="M139.69,105.49V115h-.79v-9.49h.79m.1-.1h-1v9.69h1v-9.69Z"/><polygon class="cls-25" points="141.65 115.03 141.6 105.49 142.43 105.44 142.47 115.03 141.65 115.03"/><path class="cls-26" d="M142.43,105.49V115h-.78v-9.49h.78m.1-.1h-1v9.69h1v-9.69Z"/><polygon class="cls-25" points="144.39 115.03 144.34 105.49 145.16 105.44 145.21 115.03 144.39 115.03"/><path class="cls-26" d="M145.16,105.49V115h-.77v-9.49h.77m.1-.1h-1v9.69h1v-9.69Z"/><polygon class="cls-25" points="147.13 115.03 147.07 105.49 147.9 105.44 147.95 115.03 147.13 115.03"/><path class="cls-26" d="M147.9,105.49V115h-.77v-9.49h.77m.1-.1h-1v9.69h1v-9.69Z"/><polygon class="cls-25" points="149.86 115.03 149.81 105.49 150.64 105.44 150.69 115.03 149.86 115.03"/><path class="cls-26" d="M150.64,105.49V115h-.78v-9.49h.78m.1-.1h-1v9.69h1v-9.69Z"/><polygon class="cls-25" points="152.61 115.03 152.56 105.49 153.39 105.44 153.44 115.03 152.61 115.03"/><path class="cls-26" d="M153.39,105.49V115h-.78v-9.49h.78m.1-.1h-1v9.69h1v-9.69Z"/><polygon class="cls-25" points="155.35 115.03 155.3 105.49 156.13 105.44 156.18 115.03 155.35 115.03"/><path class="cls-26" d="M156.13,105.49V115h-.78v-9.49h.78m.1-.1h-1v9.69h1v-9.69Z"/><polygon class="cls-25" points="136.16 115.03 136.11 105.49 136.94 105.44 136.99 115.03 136.16 115.03"/><path class="cls-26" d="M136.94,105.49V115h-.78v-9.49h.78m.1-.1h-1v9.69h1v-9.69Z"/><rect class="cls-20" x="180.15" y="83.86" width="14.32" height="34.54"/><path class="cls-21" d="M194.31,84v34.24h-14V84h14m.3-.3H180v34.84h14.61V83.71Z"/><rect class="cls-22" x="181.85" y="85.57" width="12.46" height="31.13"/><polygon class="cls-23" points="194.31 92.11 187.06 92.11 187.06 101.84 188.08 102.13 188.08 107.38 187.06 107.67 187.06 115.47 194.31 115.47 194.31 92.11"/><polygon class="cls-25" points="194.08 115.03 194.03 105.49 194.31 105.44 194.36 115.03 194.08 115.03"/><path class="cls-26" d="M194.31,105.49V115h-.23v-9.49h.23m.1-.1H194v9.69h.43v-9.69Z"/><rect class="cls-27" x="58.08" y="156.95" width="0.87" height="0.86"/><polygon class="cls-28" points="58.28 156.28 58.77 156.28 58.99 153.01 58.99 151.64 58.05 151.64 58.05 153.01 58.28 156.28"/><polygon class="cls-28" points="75.24 158.16 76.17 154.94 77.89 154.94 77.89 154.51 75.85 154.51 75.23 156.65 74.72 151.3 74.43 151.3 73.5 154.51 71.78 154.51 71.78 154.94 73.82 154.94 74.44 152.81 74.95 158.16 75.24 158.16"/><path class="cls-28" d="M43,151.27v.48a3.08,3.08,0,0,1,0,6v.47a3.54,3.54,0,0,0,0-6.91Z"/><path class="cls-29" d="M43,142.91v5.18a2.7,2.7,0,0,0,0-5.18Z"/><path class="cls-30" d="M43,142.91v5.18a2.7,2.7,0,0,0,0-5.18Z"/><path class="cls-29" d="M61.24,145.5a2.72,2.72,0,1,0-2.72,2.72A2.72,2.72,0,0,0,61.24,145.5Z"/><path class="cls-30" d="M61.24,145.5a2.72,2.72,0,1,0-2.72,2.72A2.72,2.72,0,0,0,61.24,145.5Z"/><path class="cls-29" d="M77.56,145.5a2.72,2.72,0,1,0-2.72,2.72A2.72,2.72,0,0,0,77.56,145.5Z"/><path class="cls-30" d="M77.56,145.5a2.72,2.72,0,1,0-2.72,2.72A2.72,2.72,0,0,0,77.56,145.5Z"/><path class="cls-34" d="M118.25,93.72l.39-.67h.5v-.19a1,1,0,0,0-.57-.17,1.08,1.08,0,0,0-1,.59h-2.82a1.23,1.23,0,0,0-1.14-.76,1.27,1.27,0,0,0-.66.19V93h.58l.44.76-.44.77H113v.23a1.21,1.21,0,0,0,.65.19,1.23,1.23,0,0,0,1.17-.86h2.74a1.07,1.07,0,0,0,1,.73,1.09,1.09,0,0,0,.57-.17v-.26h-.5Z"/><polygon class="cls-35" points="116.16 109.1 116.98 109.1 116.98 109.75 118.68 109.75 118.68 108.21 116.98 108.21 116.98 108.99 116.16 108.99 116.16 104.92 116.99 104.92 116.99 105.66 118.69 105.66 118.69 104.11 116.99 104.11 116.99 104.81 116.16 104.81 116.16 104.11 116.05 104.11 116.05 107 115.14 107 115.14 106.25 113.44 106.25 113.44 107.78 115.14 107.78 115.14 107.1 116.05 107.1 116.05 109.76 116.16 109.76 116.16 109.1"/><text class="cls-66" transform="translate(82.53 82.71)">P1</text><text class="cls-67" transform="translate(142.3 82.71)">P2</text><rect class="cls-20" x="62.5" y="83.86" width="47.83" height="34.54"/><path class="cls-21" d="M110.18,84v34.24H62.65V84h47.53m.3-.3H62.35v34.84h48.13V83.71Z"/><rect class="cls-22" x="64.21" y="85.57" width="44.41" height="31.13"/><polygon class="cls-23" points="69.41 107.67 69.41 115.47 103.42 115.47 103.42 107.67 102.4 107.38 102.4 102.13 103.42 101.84 103.42 92.11 95.89 92.11 95.89 88.19 92.91 88.19 92.91 86.8 79.92 86.8 79.92 88.19 76.96 88.19 76.96 92.11 69.41 92.11 69.41 101.84 70.44 102.13 70.44 107.38 69.41 107.67"/><rect class="cls-24" x="69.41" y="88.19" width="7.55" height="3.92"/><rect class="cls-24" x="95.89" y="88.19" width="7.53" height="3.92"/><polygon class="cls-25" points="79.17 115.03 79.12 105.49 79.96 105.44 80.01 115.03 79.17 115.03"/><path class="cls-26" d="M80,105.49V115h-.79v-9.49H80m.1-.1h-1v9.69h1v-9.69Z"/><polygon class="cls-25" points="81.92 115.03 81.87 105.49 82.7 105.44 82.75 115.03 81.92 115.03"/><path class="cls-26" d="M82.7,105.49V115h-.78v-9.49h.78m.1-.1h-1v9.69h1v-9.69Z"/><polygon class="cls-25" points="84.66 115.03 84.61 105.49 85.44 105.44 85.48 115.03 84.66 115.03"/><path class="cls-26" d="M85.44,105.49V115h-.78v-9.49h.78m.1-.1h-1v9.69h1v-9.69Z"/><polygon class="cls-25" points="87.4 115.03 87.35 105.49 88.17 105.44 88.22 115.03 87.4 115.03"/><path class="cls-26" d="M88.17,105.49V115H87.4v-9.49h.77m.1-.1h-1v9.69h1v-9.69Z"/><polygon class="cls-25" points="90.14 115.03 90.08 105.49 90.91 105.44 90.96 115.03 90.14 115.03"/><path class="cls-26" d="M90.91,105.49V115h-.77v-9.49h.77m.1-.1H90v9.69h1v-9.69Z"/><polygon class="cls-25" points="92.88 115.03 92.83 105.49 93.66 105.44 93.71 115.03 92.88 115.03"/><path class="cls-26" d="M93.66,105.49V115h-.78v-9.49h.78m.1-.1h-1v9.69h1v-9.69Z"/><polygon class="cls-25" points="95.62 115.03 95.57 105.49 96.4 105.44 96.45 115.03 95.62 115.03"/><path class="cls-26" d="M96.4,105.49V115h-.78v-9.49h.78m.1-.1h-1v9.69h1v-9.69Z"/><polygon class="cls-25" points="76.43 115.03 76.38 105.49 77.21 105.44 77.26 115.03 76.43 115.03"/><path class="cls-26" d="M77.21,105.49V115h-.78v-9.49h.78m.1-.1h-1v9.69h1v-9.69Z"/><path class="cls-68" d="M146.14,88.65a7.9,7.9,0,1,0,7.9,7.89A7.9,7.9,0,0,0,146.14,88.65Zm0,3a4.82,4.82,0,0,1,2.08.48l-6.49,6.49a4.82,4.82,0,0,1-.48-2.08A4.9,4.9,0,0,1,146.14,91.65Zm0,9.79a4.8,4.8,0,0,1-2.35-.63l6.62-6.62a4.83,4.83,0,0,1,.63,2.35A4.91,4.91,0,0,1,146.14,101.44Z"/><polygon class="cls-69" points="78.12 96.69 80.59 94.21 84.73 98.35 92.24 90.84 94.72 93.32 84.73 103.3 78.12 96.69"/><path class="cls-32" d="M92.24,91.2l2.12,2.12L84.73,103l-6.26-6.26,2.12-2.12,4.14,4.14,7.51-7.51m0-.71-.35.36L84.73,98l-3.79-3.79-.35-.35-.35.35-2.12,2.12-.36.36.36.35,6.26,6.26.35.36.36-.36,9.63-9.63.35-.35L94.72,93,92.6,90.85l-.36-.36Z"/><rect class="cls-22" x="116.66" y="133.47" width="22.44" height="25.15"/><rect class="cls-22" x="91.02" y="133.47" width="22.43" height="25.15"/><path class="cls-3" d="M92.05,157.6h20.37s0,0,0,0h0V134.5H92v23.08S92,157.6,92.05,157.6Z"/><path class="cls-3" d="M117.69,157.6h20.37s0,0,0,0h0V134.5H117.68v23.08S117.68,157.6,117.69,157.6Z"/><rect class="cls-37" x="92.72" y="135.17" width="19.04" height="21.75"/><rect class="cls-38" x="92.72" y="135.17" width="19.04" height="21.75"/><path class="cls-39" d="M105,141.2a.14.14,0,0,0,.09,0l1.25-1a.14.14,0,0,0,0-.2h0l-.43-.51a.16.16,0,0,0-.11,0h-4.92a.14.14,0,0,0-.09,0l-.62.52a.15.15,0,0,0,0,.21h0l.87,1a.16.16,0,0,0,.11,0Z"/><path class="cls-39" d="M105.39,145.83l1-.8a.11.11,0,0,0,.05-.09l.72-4.05a.19.19,0,0,0,0-.12l-.42-.5a.15.15,0,0,0-.21,0l-1.24,1.05a.14.14,0,0,0,0,.08l-.63,3.57a.14.14,0,0,0,0,.12l.63.74A.13.13,0,0,0,105.39,145.83Z"/><path class="cls-39" d="M105.15,146.26l-1,.8a.19.19,0,0,0,0,.09l-.63,3.56a.17.17,0,0,0,0,.12l.86,1a.15.15,0,0,0,.21,0l.61-.51a.14.14,0,0,0,0-.09l.74-4.14a.17.17,0,0,0,0-.12l-.62-.75A.15.15,0,0,0,105.15,146.26Z"/><path class="cls-39" d="M104,147a.12.12,0,0,0,.09,0l1-.8a.16.16,0,0,0,0-.21h0l-.63-.75a.13.13,0,0,0-.11,0h-3.84a.13.13,0,0,0-.1,0l-.95.8a.14.14,0,0,0,0,.21h0l.63.74s.06.05.11.05Z"/><path class="cls-39" d="M99.32,145.83l1-.8a.19.19,0,0,0,0-.09l.63-3.56a.16.16,0,0,0,0-.12l-.86-1a.15.15,0,0,0-.21,0l-.61.51a.11.11,0,0,0,0,.09L98.45,145a.19.19,0,0,0,0,.12l.62.74A.15.15,0,0,0,99.32,145.83Z"/><path class="cls-39" d="M103.56,152.73a.15.15,0,0,0,.09,0l.62-.51a.16.16,0,0,0,0-.21h0l-.87-1a.14.14,0,0,0-.11-.06H99.46a.15.15,0,0,0-.09,0l-1.25,1a.16.16,0,0,0,0,.21h0l.43.5a.14.14,0,0,0,.11.06Z"/><path class="cls-39" d="M99.31,150.7l.63-3.56a.13.13,0,0,0,0-.12l-.63-.75a.14.14,0,0,0-.21,0l-.95.8a.11.11,0,0,0-.05.09l-.72,4a.21.21,0,0,0,0,.12l.43.51a.13.13,0,0,0,.2,0l1.25-1A.13.13,0,0,0,99.31,150.7Z"/><path class="cls-39" d="M109.39,151.68a1,1,0,1,0-1,1A1,1,0,0,0,109.39,151.68Z"/><path class="cls-40" d="M105,141.2a.14.14,0,0,0,.09,0l1.25-1a.14.14,0,0,0,0-.2h0l-.43-.51a.16.16,0,0,0-.11,0h-4.92a.14.14,0,0,0-.09,0l-.62.52a.15.15,0,0,0,0,.21h0l.87,1a.16.16,0,0,0,.11,0Z"/><path class="cls-40" d="M105.39,145.83l1-.8a.11.11,0,0,0,.05-.09l.72-4.05a.19.19,0,0,0,0-.12l-.42-.5a.15.15,0,0,0-.21,0l-1.24,1.05a.14.14,0,0,0,0,.08l-.63,3.57a.14.14,0,0,0,0,.12l.63.74A.13.13,0,0,0,105.39,145.83Z"/><path class="cls-40" d="M105.15,146.26l-1,.8a.19.19,0,0,0,0,.09l-.63,3.56a.17.17,0,0,0,0,.12l.86,1a.15.15,0,0,0,.21,0l.61-.51a.14.14,0,0,0,0-.09l.74-4.14a.17.17,0,0,0,0-.12l-.62-.75A.15.15,0,0,0,105.15,146.26Z"/><path class="cls-40" d="M104,147a.12.12,0,0,0,.09,0l1-.8a.16.16,0,0,0,0-.21h0l-.63-.75a.13.13,0,0,0-.11,0h-3.84a.13.13,0,0,0-.1,0l-.95.8a.14.14,0,0,0,0,.21h0l.63.74s.06.05.11.05Z"/><path class="cls-40" d="M99.32,145.83l1-.8a.19.19,0,0,0,0-.09l.63-3.56a.16.16,0,0,0,0-.12l-.86-1a.15.15,0,0,0-.21,0l-.61.51a.11.11,0,0,0,0,.09L98.45,145a.19.19,0,0,0,0,.12l.62.74A.15.15,0,0,0,99.32,145.83Z"/><path class="cls-40" d="M103.56,152.73a.15.15,0,0,0,.09,0l.62-.51a.16.16,0,0,0,0-.21h0l-.87-1a.14.14,0,0,0-.11-.06H99.46a.15.15,0,0,0-.09,0l-1.25,1a.16.16,0,0,0,0,.21h0l.43.5a.14.14,0,0,0,.11.06Z"/><path class="cls-40" d="M99.31,150.7l.63-3.56a.13.13,0,0,0,0-.12l-.63-.75a.14.14,0,0,0-.21,0l-.95.8a.11.11,0,0,0-.05.09l-.72,4a.21.21,0,0,0,0,.12l.43.51a.13.13,0,0,0,.2,0l1.25-1A.13.13,0,0,0,99.31,150.7Z"/><path class="cls-40" d="M109.39,151.68a1,1,0,1,0-1,1A1,1,0,0,0,109.39,151.68Z"/><rect class="cls-37" x="118.36" y="135.17" width="19.04" height="21.75"/><rect class="cls-38" x="118.36" y="135.17" width="19.04" height="21.75"/><path class="cls-39" d="M125.1,150.88a.18.18,0,0,0-.09,0l-1.25,1a.15.15,0,0,0,0,.21h0l.42.5a.14.14,0,0,0,.11.06h4.92a.18.18,0,0,0,.1,0l.61-.51a.16.16,0,0,0,0-.21h0l-.87-1a.14.14,0,0,0-.11-.06Z"/><path class="cls-39" d="M124.72,146.26l-1,.8a.13.13,0,0,0-.05.09l-.71,4a.12.12,0,0,0,0,.12l.42.51a.14.14,0,0,0,.21,0l1.24-1a.11.11,0,0,0,0-.09l.63-3.56a.13.13,0,0,0,0-.12l-.63-.75A.13.13,0,0,0,124.72,146.26Z"/><path class="cls-39" d="M125,145.83l1-.8a.13.13,0,0,0,0-.09l.63-3.56a.16.16,0,0,0,0-.12l-.87-1a.14.14,0,0,0-.21,0l-.61.51a.11.11,0,0,0,0,.09L124.1,145a.14.14,0,0,0,0,.12l.63.74A.13.13,0,0,0,125,145.83Z"/><path class="cls-39" d="M126.12,145.12a.11.11,0,0,0-.09,0l-1,.8a.15.15,0,0,0,0,.21h0l.63.74a.13.13,0,0,0,.11.05h3.84a.17.17,0,0,0,.1,0l1-.8a.15.15,0,0,0,0-.21h0l-.62-.75a.17.17,0,0,0-.12,0Z"/><path class="cls-39" d="M130.79,146.26l-1,.8a.13.13,0,0,0,0,.09h0l-.62,3.56a.13.13,0,0,0,0,.12l.87,1a.13.13,0,0,0,.2,0l.62-.51a.41.41,0,0,0,.05-.09l.73-4.14a.17.17,0,0,0,0-.12l-.62-.75A.14.14,0,0,0,130.79,146.26Z"/><path class="cls-39" d="M126.55,139.36a.14.14,0,0,0-.09,0l-.62.52a.14.14,0,0,0,0,.21h0l.86,1a.17.17,0,0,0,.12,0h3.84a.14.14,0,0,0,.09,0l1.25-1a.14.14,0,0,0,0-.2h0l-.43-.51a.13.13,0,0,0-.11,0Z"/><path class="cls-39" d="M130.8,141.38l-.63,3.57a.18.18,0,0,0,0,.12l.63.74a.15.15,0,0,0,.21,0l1-.8a.11.11,0,0,0,0-.09l.72-4.05a.18.18,0,0,0,0-.12l-.43-.5a.14.14,0,0,0-.2,0l-1.25,1.05A.14.14,0,0,0,130.8,141.38Z"/><path class="cls-39" d="M120.72,140.4a1,1,0,1,0,1-1A1,1,0,0,0,120.72,140.4Z"/><path class="cls-40" d="M125.1,150.88a.18.18,0,0,0-.09,0l-1.25,1a.15.15,0,0,0,0,.21h0l.42.5a.14.14,0,0,0,.11.06h4.92a.18.18,0,0,0,.1,0l.61-.51a.16.16,0,0,0,0-.21h0l-.87-1a.14.14,0,0,0-.11-.06Z"/><path class="cls-40" d="M124.72,146.26l-1,.8a.13.13,0,0,0-.05.09l-.71,4a.12.12,0,0,0,0,.12l.42.51a.14.14,0,0,0,.21,0l1.24-1a.11.11,0,0,0,0-.09l.63-3.56a.13.13,0,0,0,0-.12l-.63-.75A.13.13,0,0,0,124.72,146.26Z"/><path class="cls-40" d="M125,145.83l1-.8a.13.13,0,0,0,0-.09l.63-3.56a.16.16,0,0,0,0-.12l-.87-1a.14.14,0,0,0-.21,0l-.61.51a.11.11,0,0,0,0,.09L124.1,145a.14.14,0,0,0,0,.12l.63.74A.13.13,0,0,0,125,145.83Z"/><path class="cls-40" d="M126.12,145.12a.11.11,0,0,0-.09,0l-1,.8a.15.15,0,0,0,0,.21h0l.63.74a.13.13,0,0,0,.11.05h3.84a.17.17,0,0,0,.1,0l1-.8a.15.15,0,0,0,0-.21h0l-.62-.75a.17.17,0,0,0-.12,0Z"/><path class="cls-40" d="M130.79,146.26l-1,.8a.13.13,0,0,0,0,.09h0l-.62,3.56a.13.13,0,0,0,0,.12l.87,1a.13.13,0,0,0,.2,0l.62-.51a.41.41,0,0,0,.05-.09l.73-4.14a.17.17,0,0,0,0-.12l-.62-.75A.14.14,0,0,0,130.79,146.26Z"/><path class="cls-40" d="M126.55,139.36a.14.14,0,0,0-.09,0l-.62.52a.14.14,0,0,0,0,.21h0l.86,1a.17.17,0,0,0,.12,0h3.84a.14.14,0,0,0,.09,0l1.25-1a.14.14,0,0,0,0-.2h0l-.43-.51a.13.13,0,0,0-.11,0Z"/><path class="cls-40" d="M130.8,141.38l-.63,3.57a.18.18,0,0,0,0,.12l.63.74a.15.15,0,0,0,.21,0l1-.8a.11.11,0,0,0,0-.09l.72-4.05a.18.18,0,0,0,0-.12l-.43-.5a.14.14,0,0,0-.2,0l-1.25,1.05A.14.14,0,0,0,130.8,141.38Z"/><path class="cls-40" d="M120.72,140.4a1,1,0,1,0,1-1A1,1,0,0,0,120.72,140.4Z"/><polyline class="cls-33" points="147.48 130.66 147.49 133.01 145.12 133.02"/><polyline class="cls-33" points="79.73 130.91 79.74 133.29 82.11 133.28"/></g><g id="BLANK-2" data-name="BLANK"><path class="cls-41" d="M194.31,118.92H160.07V159a2.07,2.07,0,0,0,2.07,2.07h32.17Z"/></g><g id="E2800_Latch-2" data-name="E2800 Latch"><rect class="cls-70" x="108.17" y="156.64" width="86.14" height="13.37"/><path class="cls-62" d="M129.34,156.64H98.14V170H192V156.64h-4.46a25.18,25.18,0,0,1-7-1l-16.29-4.7a25.93,25.93,0,0,0-6.23-1H136.62a1.83,1.83,0,0,0-1.36.7l-4.57,5.29A1.81,1.81,0,0,1,129.34,156.64Z"/><path class="cls-62" d="M106.68,156.64H59.54V170h67.4a1.34,1.34,0,0,0,1.34-1.34h0V151.29a1.34,1.34,0,0,0-1.34-1.34h-9.26a3.34,3.34,0,0,0-2,.7l-6.91,5.29A3.39,3.39,0,0,1,106.68,156.64Z"/><rect class="cls-71" x="42.98" y="156.64" width="65.19" height="13.37"/><path class="cls-64" d="M188.17,159h-7.74a26.27,26.27,0,0,1-6.77-.89l-14.9-4a23,23,0,0,0-6-.79h-8.59v13.55h44Z"/><polygon class="cls-41" points="155.43 160.02 150.16 157.42 150.15 162.89 155.43 160.02"/></g><polygon class="cls-72" points="194.31 71.65 71 11.37 34.86 11.24 34.76 34.5 42.92 168.75 43.02 71.99 194.31 71.65"/><rect class="cls-73" x="34.76" y="9.37" width="36.24" height="23.13"/><rect class="cls-74" x="42.92" y="72.12" width="151.4" height="96.63"/><rect class="cls-75" x="62.61" y="84.06" width="47.53" height="34.24"/></g></svg>