<svg xmlns="http://www.w3.org/2000/svg" viewBox="0 0 302.4 126.46"><defs><style>.cls-1{fill:#ccc;}.cls-1,.cls-11,.cls-12,.cls-15,.cls-16,.cls-17,.cls-18,.cls-27,.cls-3,.cls-32,.cls-4,.cls-40,.cls-41,.cls-44,.cls-45,.cls-46,.cls-47,.cls-49,.cls-5,.cls-51,.cls-55,.cls-56,.cls-57,.cls-6,.cls-62,.cls-63,.cls-71,.cls-72,.cls-74,.cls-75,.cls-81{fill-rule:evenodd;}.cls-2,.cls-26,.cls-27,.cls-31,.cls-33,.cls-40,.cls-58,.cls-61,.cls-74,.cls-77,.cls-78{fill:none;}.cls-2,.cls-24,.cls-36,.cls-61,.cls-64,.cls-80{stroke:gray;}.cls-2,.cls-24,.cls-31,.cls-33,.cls-36,.cls-58,.cls-61,.cls-64,.cls-77,.cls-78,.cls-80{stroke-linecap:round;}.cls-2,.cls-23,.cls-24,.cls-31,.cls-33,.cls-36,.cls-61,.cls-64,.cls-77,.cls-78,.cls-79,.cls-80{stroke-linejoin:round;}.cls-2{stroke-width:0.48px;}.cls-3,.cls-8{fill:#1a1a1a;}.cls-34,.cls-4{fill:#eee;}.cls-42,.cls-5,.cls-62,.cls-82{fill:silver;}.cls-41,.cls-42,.cls-5,.cls-6,.cls-62,.cls-63,.cls-81,.cls-82{stroke:#58595b;}.cls-37,.cls-38,.cls-39,.cls-41,.cls-42,.cls-5,.cls-58,.cls-6,.cls-62,.cls-63,.cls-65,.cls-66,.cls-67,.cls-81,.cls-82{stroke-miterlimit:10;}.cls-36,.cls-37,.cls-38,.cls-39,.cls-41,.cls-42,.cls-5{stroke-width:0.08px;}.cls-6,.cls-63,.cls-68{fill:#404041;}.cls-6{stroke-width:0.04px;}.cls-57,.cls-7{fill:#404040;}.cls-36,.cls-64,.cls-9{fill:#e6e7e8;}.cls-10,.cls-16{fill:#e6e6e6;}.cls-11{fill:#292929;}.cls-12,.cls-48{fill:#ffcd05;}.cls-13{fill:#e0d285;}.cls-14,.cls-39,.cls-44,.cls-67{fill:#d9d9d9;}.cls-15,.cls-25,.cls-59{fill:#fff;}.cls-17{fill:#2e2e2e;}.cls-18,.cls-20{fill:#f1f1f2;}.cls-19,.cls-38,.cls-66{fill:#bfbfbf;}.cls-21{fill:#6d6e70;}.cls-22{fill:gray;}.cls-23,.cls-79{fill:#ffcc05;stroke:#e0d285;}.cls-23{stroke-width:0.06px;}.cls-24,.cls-72,.cls-73,.cls-80{fill:#d0cfcd;}.cls-24{stroke-width:0px;}.cls-27,.cls-40,.cls-74{stroke:#fff;stroke-miterlimit:2.61;}.cls-27{stroke-width:0.25px;}.cls-28,.cls-47,.cls-69{fill:#333;}.cls-29{fill:#808184;}.cls-30{fill:#e8e7de;}.cls-31,.cls-77{stroke:#9a9a9a;}.cls-31,.cls-33{stroke-width:0px;}.cls-32,.cls-53{fill:#666;}.cls-33,.cls-78{stroke:#b3b3b3;}.cls-35,.cls-46{fill:#d0d2d3;}.cls-37,.cls-45,.cls-65{fill:#262626;}.cls-37,.cls-65{stroke:#d0d2d3;}.cls-38,.cls-39,.cls-66,.cls-67{stroke:#929497;}.cls-40{stroke-width:0.25px;}.cls-41,.cls-81{fill:#ddd;}.cls-43{fill:#54924d;}.cls-49{fill:#4d4d4d;}.cls-50{fill:#bbbdbf;}.cls-51{fill:#ca992c;}.cls-52{fill:#aea069;}.cls-54{fill:#555;}.cls-55{fill:#6a6a6a;}.cls-56{fill:#f4855c;}.cls-58{stroke:#f7931e;stroke-width:2px;}.cls-59{font-size:12px;font-family:Gotham-Medium, Gotham;}.cls-60,.cls-75,.cls-76{fill:#2d2a26;}.cls-61{stroke-width:0.24px;}.cls-62,.cls-64,.cls-65,.cls-66,.cls-67,.cls-81,.cls-82{stroke-width:0.04px;}.cls-63{stroke-width:0.02px;}.cls-69{font-size:2.89px;font-family:Arial-BoldMT, Arial;}.cls-69,.cls-76{font-weight:700;}.cls-70,.cls-71{fill:#f2f2f2;}.cls-74{stroke-width:0.11px;}.cls-76{font-size:2.25px;font-family:HelveticaNeueLTStd-Bd, Helvetica Neue LT Std;letter-spacing:0.02em;}.cls-77,.cls-78{stroke-width:0px;}.cls-79{stroke-width:0.03px;}.cls-80{stroke-width:0px;}</style></defs><title>E5700 and E2800_Source</title><g id="Rulers"><g id="Sandhawk"><path class="cls-1" d="M278.26,51.2V17.61a1.37,1.37,0,0,0-1.35-1.35h-222a1.37,1.37,0,0,0-1.35,1.35V51.2h1.09v.26a1.21,1.21,0,0,0,1.2,1.24H276a1.22,1.22,0,0,0,1.2-1.24h0V51.2Z"/><path class="cls-2" d="M278.26,51.2V17.61a1.37,1.37,0,0,0-1.35-1.35h-222a1.37,1.37,0,0,0-1.35,1.35V51.2h1.09v.26a1.21,1.21,0,0,0,1.2,1.24H276a1.22,1.22,0,0,0,1.2-1.24h0V51.2Z"/><path class="cls-3" d="M55.82,51.76H276a.29.29,0,0,0,.26-.3h0V47.4h.94V17.61a.25.25,0,0,0-.26-.26h-222a.25.25,0,0,0-.26.26V47.4h.94v4.06A.29.29,0,0,0,55.82,51.76Z"/><path class="cls-4" d="M275.55,16.46H56.23v1.92a.51.51,0,0,1-.52.53H54.62V51.4h1.09a.54.54,0,0,1,.52.56h0v2.15H275.55V52a.55.55,0,0,1,.53-.56h1.09V18.91h-1.09a.52.52,0,0,1-.53-.53Z"/><path class="cls-2" d="M275.55,16.26H56.23v1.92a.51.51,0,0,1-.52.53H54.62V51.2h1.09a.54.54,0,0,1,.52.56h0V53.9H275.55V51.76a.55.55,0,0,1,.53-.56h1.09V18.71h-1.09a.52.52,0,0,1-.53-.53Z"/><path class="cls-5" d="M178.07,29.52a3.13,3.13,0,1,0-3.13,3.13A3.13,3.13,0,0,0,178.07,29.52Z"/><path class="cls-6" d="M176.63,29.52a1.69,1.69,0,1,0-1.69,1.69A1.69,1.69,0,0,0,176.63,29.52Z"/><path class="cls-5" d="M234.61,29.52a3.13,3.13,0,1,0-3.13,3.13A3.13,3.13,0,0,0,234.61,29.52Z"/><path class="cls-6" d="M233.17,29.52a1.69,1.69,0,1,0-1.69,1.69A1.69,1.69,0,0,0,233.17,29.52Z"/><path class="cls-7" d="M146.69,52.27V50.69h15.36V33.79a1.46,1.46,0,0,1,1.46-1.45h5.27a.65.65,0,0,0,.65-.65V19a1.45,1.45,0,0,1,.35-.95H58a1,1,0,0,0-1,1V51.3a1,1,0,0,0,1,1ZM93,47.15A1.12,1.12,0,1,1,94.1,46,1.11,1.11,0,0,1,93,47.15Zm16.33,0A1.12,1.12,0,1,1,110.43,46,1.11,1.11,0,0,1,109.32,47.15Zm6.32,0A1.12,1.12,0,1,1,116.76,46,1.11,1.11,0,0,1,115.64,47.15Zm14.47,3.71h-8.49V41.21h8.49Zm29.7-24a1.49,1.49,0,1,1,0,3,1.49,1.49,0,0,1,0-3Zm0,5.35a1.49,1.49,0,1,1-1.48,1.49A1.49,1.49,0,0,1,159.81,32.25Zm-27.55-5.32a.92.92,0,0,1,.93-.92h23a.92.92,0,0,1,.92.92V38.36a.92.92,0,0,1-.92.92h-23a.92.92,0,0,1-.93-.92Zm-.53,14.28h8.49v9.65h-8.49ZM129.57,26.9a1.49,1.49,0,1,1,0,3,1.49,1.49,0,0,1,0-3Zm0,5.35a1.49,1.49,0,1,1-1.48,1.49A1.49,1.49,0,0,1,129.57,32.25ZM105.45,20.68h18.39V34.1H105.45ZM103,44.92A1.12,1.12,0,1,1,101.89,46,1.12,1.12,0,0,1,103,44.92ZM97.41,21.07a1.2,1.2,0,1,1-1.2,1.2A1.2,1.2,0,0,1,97.41,21.07Zm-7.9,0a1.2,1.2,0,1,1,0,2.4,1.2,1.2,0,0,1,0-2.4Zm-7.11,0a1.2,1.2,0,1,1-1.2,1.2A1.2,1.2,0,0,1,82.4,21.07Zm-7.9,0a1.2,1.2,0,1,1-1.2,1.2A1.2,1.2,0,0,1,74.5,21.07Zm-4.68,5.1a.93.93,0,0,1,.93-.93h30.19a.92.92,0,0,1,.93.92V36a.92.92,0,0,1-.93.92H70.75a.93.93,0,0,1-.93-.92Z"/><rect class="cls-8" x="105.07" y="20.46" width="19.15" height="13.86"/><path class="cls-9" d="M124.11,20.57V34.2H105.18V20.57h18.93m.23-.23H105V34.43h19.38V20.34Z"/><rect class="cls-10" x="105.8" y="21.19" width="17.69" height="12.39"/><polygon class="cls-11" points="107.88 29.99 107.88 33.09 121.42 33.09 121.42 29.99 121.01 29.87 121.01 27.79 121.42 27.67 121.42 23.8 118.42 23.8 118.42 22.23 117.23 22.23 117.23 21.68 112.06 21.68 112.06 22.23 110.88 22.23 110.88 23.8 107.88 23.8 107.88 27.67 108.28 27.79 108.28 29.87 107.88 29.99"/><polygon class="cls-12" points="111.76 32.94 111.72 29.12 112.08 29.08 112.11 32.94 111.76 32.94"/><path class="cls-13" d="M112.08,29.12V32.9h-.32V29.12h.32m.07-.08h-.46V33h.46V29Z"/><polygon class="cls-12" points="112.86 32.94 112.82 29.12 113.17 29.08 113.2 32.94 112.86 32.94"/><path class="cls-13" d="M113.17,29.12V32.9h-.31V29.12h.31m.07-.08h-.46V33h.46V29Z"/><polygon class="cls-12" points="113.95 32.94 113.91 29.12 114.26 29.08 114.29 32.94 113.95 32.94"/><path class="cls-13" d="M114.26,29.12V32.9H114V29.12h.31m.07-.08h-.46V33h.46V29Z"/><polygon class="cls-12" points="115.04 32.94 115 29.12 115.35 29.08 115.39 32.94 115.04 32.94"/><path class="cls-13" d="M115.35,29.12V32.9H115V29.12h.31m.07-.08H115V33h.46V29Z"/><polygon class="cls-12" points="116.13 32.94 116.09 29.12 116.44 29.08 116.47 32.94 116.13 32.94"/><path class="cls-13" d="M116.44,29.12V32.9h-.31V29.12h.31m.07-.08h-.46V33h.46V29Z"/><polygon class="cls-12" points="117.22 32.94 117.18 29.12 117.53 29.08 117.57 32.94 117.22 32.94"/><path class="cls-13" d="M117.53,29.12V32.9h-.31V29.12h.31m.08-.08h-.46V33h.46V29Z"/><polygon class="cls-12" points="118.31 32.94 118.27 29.12 118.62 29.08 118.66 32.94 118.31 32.94"/><path class="cls-13" d="M118.62,29.12V32.9h-.31V29.12h.31m.08-.08h-.46V33h.46V29Z"/><polygon class="cls-12" points="110.67 32.94 110.63 29.12 110.98 29.08 111.02 32.94 110.67 32.94"/><path class="cls-13" d="M111,29.12V32.9h-.31V29.12H111m.08-.08h-.46V33h.46V29Z"/><path class="cls-14" d="M126.89,18.09V39.82h35.16v-6a1.43,1.43,0,0,1,.45-1V18.09Zm2.68,17.14a1.49,1.49,0,1,1,1.49-1.49A1.49,1.49,0,0,1,129.57,35.23Zm0-5.36a1.49,1.49,0,0,1,0-3,1.49,1.49,0,1,1,0,3Zm27.56,8.49a.92.92,0,0,1-.92.92h-23a.92.92,0,0,1-.93-.92V26.93a.92.92,0,0,1,.93-.92h23a.92.92,0,0,1,.92.92Zm2.68-3.13a1.49,1.49,0,1,1,1.49-1.49A1.49,1.49,0,0,1,159.81,35.23Zm0-5.36a1.49,1.49,0,0,1,0-3,1.49,1.49,0,1,1,0,3Z"/><polygon class="cls-15" points="66.12 30.63 66.71 30.63 66.71 31.09 67.91 31.09 67.91 30 66.71 30 66.71 30.55 66.12 30.55 66.12 27.67 66.71 27.67 66.71 28.19 67.92 28.19 67.92 27.1 66.71 27.1 66.71 27.59 66.12 27.59 66.12 27.1 66.05 27.1 66.05 29.14 65.4 29.14 65.4 28.61 64.2 28.61 64.2 29.7 65.4 29.7 65.4 29.21 66.05 29.21 66.05 31.09 66.12 31.09 66.12 30.63"/><path class="cls-16" d="M133.15,39.82a1.38,1.38,0,0,1-1-.42,1.42,1.42,0,0,1-.42-1V27.27a1.42,1.42,0,0,1,.42-1,1.43,1.43,0,0,1,1-.41h23.07a1.45,1.45,0,0,1,1,.41,1.43,1.43,0,0,1,.41,1V38.4a1.47,1.47,0,0,1-.41,1,1.45,1.45,0,0,1-1,.41Z"/><path class="cls-17" d="M156.23,39.24a.82.82,0,0,0,.83-.84V27.27a.82.82,0,0,0-.83-.83H133.16a.83.83,0,0,0-.59.24.82.82,0,0,0-.25.59V38.41a.79.79,0,0,0,.25.58.82.82,0,0,0,.59.25Z"/><path class="cls-18" d="M156.23,38.82a.41.41,0,0,0,.42-.41h0V27.27a.42.42,0,0,0-.42-.42H133.16a.42.42,0,0,0-.42.42V38.41a.41.41,0,0,0,.42.41Z"/><path class="cls-11" d="M156.23,27.05a.22.22,0,0,1,.22.22h0V38.41a.22.22,0,0,1-.22.22H144.79V27.05Z"/><path class="cls-11" d="M133.16,27.05a.22.22,0,0,0-.22.22h0V38.41a.22.22,0,0,0,.22.22h11.43V27.05Z"/><rect class="cls-19" x="135.18" y="38.63" width="7.18" height="0.2"/><rect class="cls-19" x="147.03" y="38.63" width="7.18" height="0.2"/><rect class="cls-20" x="148.6" y="38.63" width="4.04" height="0.2"/><rect class="cls-20" x="136.74" y="38.63" width="4.04" height="0.2"/><rect class="cls-21" x="133.96" y="28.52" width="9.6" height="8.63"/><rect class="cls-22" x="134.19" y="29.67" width="9.15" height="2.03"/><rect class="cls-21" x="134.47" y="30.05" width="8.6" height="1.27"/><rect class="cls-23" x="141.88" y="29.27" width="0.2" height="2.84"/><rect class="cls-23" x="139.47" y="29.27" width="0.2" height="2.84"/><rect class="cls-23" x="138.67" y="29.27" width="0.2" height="2.84"/><rect class="cls-23" x="137.06" y="29.27" width="0.2" height="2.84"/><rect class="cls-23" x="136.25" y="29.27" width="0.2" height="2.84"/><rect class="cls-23" x="135.45" y="29.27" width="0.2" height="2.84"/><rect class="cls-23" x="141.08" y="29.27" width="0.2" height="2.84"/><rect class="cls-23" x="140.27" y="29.27" width="0.2" height="2.84"/><rect class="cls-23" x="137.86" y="29.27" width="0.2" height="2.84"/><rect class="cls-8" x="134.7" y="30.31" width="8.12" height="0.76"/><rect class="cls-22" x="134.19" y="33.98" width="9.15" height="2.03"/><rect class="cls-21" x="134.47" y="34.36" width="8.6" height="1.27"/><rect class="cls-23" x="141.88" y="33.57" width="0.2" height="2.84"/><rect class="cls-23" x="139.47" y="33.57" width="0.2" height="2.84"/><rect class="cls-23" x="138.67" y="33.57" width="0.2" height="2.84"/><rect class="cls-23" x="137.06" y="33.57" width="0.2" height="2.84"/><rect class="cls-23" x="136.25" y="33.57" width="0.2" height="2.84"/><rect class="cls-23" x="135.45" y="33.57" width="0.2" height="2.84"/><rect class="cls-23" x="141.08" y="33.57" width="0.2" height="2.84"/><rect class="cls-23" x="140.27" y="33.57" width="0.2" height="2.84"/><rect class="cls-23" x="137.86" y="33.57" width="0.2" height="2.84"/><rect class="cls-8" x="134.7" y="34.62" width="8.12" height="0.76"/><rect class="cls-21" x="145.82" y="28.52" width="9.6" height="8.63"/><rect class="cls-22" x="146.05" y="29.67" width="9.15" height="2.03"/><rect class="cls-21" x="146.32" y="30.05" width="8.6" height="1.27"/><rect class="cls-23" x="153.74" y="29.27" width="0.2" height="2.84"/><rect class="cls-23" x="151.33" y="29.27" width="0.2" height="2.84"/><rect class="cls-23" x="150.52" y="29.27" width="0.2" height="2.84"/><rect class="cls-23" x="148.91" y="29.27" width="0.2" height="2.84"/><rect class="cls-23" x="148.11" y="29.27" width="0.2" height="2.84"/><rect class="cls-23" x="147.31" y="29.27" width="0.2" height="2.84"/><rect class="cls-23" x="152.93" y="29.27" width="0.2" height="2.84"/><rect class="cls-23" x="152.13" y="29.27" width="0.2" height="2.84"/><rect class="cls-23" x="149.72" y="29.27" width="0.2" height="2.84"/><rect class="cls-8" x="146.56" y="30.31" width="8.12" height="0.76"/><rect class="cls-22" x="146.05" y="33.98" width="9.15" height="2.03"/><rect class="cls-21" x="146.32" y="34.36" width="8.6" height="1.27"/><rect class="cls-23" x="153.74" y="33.57" width="0.2" height="2.84"/><rect class="cls-23" x="151.33" y="33.57" width="0.2" height="2.84"/><rect class="cls-23" x="150.52" y="33.57" width="0.2" height="2.84"/><rect class="cls-23" x="148.91" y="33.57" width="0.2" height="2.84"/><rect class="cls-23" x="148.11" y="33.57" width="0.2" height="2.84"/><rect class="cls-23" x="147.31" y="33.57" width="0.2" height="2.84"/><rect class="cls-23" x="152.93" y="33.57" width="0.2" height="2.84"/><rect class="cls-23" x="152.13" y="33.57" width="0.2" height="2.84"/><rect class="cls-23" x="149.72" y="33.57" width="0.2" height="2.84"/><rect class="cls-8" x="146.56" y="34.62" width="8.12" height="0.76"/><path class="cls-24" d="M149.55,38.64l.31-.24a.28.28,0,0,1,.18-.06h1.17a.27.27,0,0,1,.17.06l.31.24h.54a.3.3,0,0,1-.18-.06l-.5-.39a.54.54,0,0,0-.34-.12H150a.5.5,0,0,0-.34.12l-.51.39a.28.28,0,0,1-.18.06Z"/><path class="cls-24" d="M137.69,38.64l.31-.24a.3.3,0,0,1,.18-.06h1.17a.3.3,0,0,1,.18.06l.31.24h.53a.27.27,0,0,1-.17-.06l-.51-.39a.54.54,0,0,0-.34-.12h-1.17a.54.54,0,0,0-.34.12l-.51.39a.28.28,0,0,1-.18.06Z"/><polyline class="cls-25" points="66 33.87 66.55 33.87 66.55 34.47 68.24 33.56 66 33.56"/><rect class="cls-25" x="63.86" y="32.29" width="4.49" height="0.35"/><rect class="cls-25" x="63.86" y="34.73" width="4.49" height="0.35"/><polyline class="cls-25" points="66.01 33.56 65.45 33.56 65.45 32.96 63.76 33.87 66.01 33.87"/><path class="cls-25" d="M77.79,23.08c.31,0,.58.19.58.8s-.27.82-.58.82-.57-.2-.57-.82S77.48,23.08,77.79,23.08Zm0,1.36c.26,0,.26-.38.26-.56s0-.54-.26-.54-.25.38-.25.54S77.54,24.44,77.79,24.44Z"/><path class="cls-25" d="M78.52,23.87c0-.3.28-.39.54-.39s.51.06.51.33v.6a.59.59,0,0,0,0,.26h-.32l0-.11a.53.53,0,0,1-.38.14c-.22,0-.4-.11-.4-.35s.2-.32.4-.35.37,0,.37-.15-.09-.15-.2-.15-.2.05-.21.17Zm.73.23s-.16,0-.26.07-.19,0-.19.17.09.15.19.15a.24.24,0,0,0,.26-.27Z"/><path class="cls-25" d="M92.79,23.08c.32,0,.58.19.58.8s-.26.82-.58.82-.57-.2-.57-.82S92.49,23.08,92.79,23.08Zm0,1.36c.26,0,.26-.38.26-.56s0-.54-.26-.54-.25.38-.25.54S92.54,24.44,92.79,24.44Z"/><path class="cls-25" d="M93.54,23.08h.31v.58h0a.43.43,0,0,1,.36-.18c.23,0,.48.19.48.61s-.25.61-.48.61a.4.4,0,0,1-.38-.18h0v.15h-.3Zm.57.64c-.19,0-.27.18-.27.37s.08.37.27.37.27-.18.27-.37S94.3,23.72,94.11,23.72Z"/><polygon class="cls-25" points="73.01 20.44 73.01 19.18 73.18 19.18 73.18 20.29 73.8 20.29 73.8 20.44 73.01 20.44"/><polygon class="cls-25" points="73.87 20.44 73.87 19.18 74.04 19.18 74.7 20.17 74.7 19.18 74.86 19.18 74.86 20.44 74.69 20.44 74.03 19.45 74.03 20.44 73.87 20.44"/><polygon class="cls-25" points="74.94 20.44 74.94 19.18 75.11 19.18 75.11 19.8 75.73 19.18 75.96 19.18 75.43 19.69 75.98 20.44 75.76 20.44 75.31 19.8 75.11 20 75.11 20.44 74.94 20.44"/><path class="cls-25" d="M82.51,19.28s-.1.85-.1.85-.11-.8-.11-.85a.1.1,0,0,1,.11-.1A.1.1,0,0,1,82.51,19.28Z"/><path class="cls-25" d="M82.52,20.33a.12.12,0,0,1-.12.11.11.11,0,0,1-.11-.11.11.11,0,0,1,.11-.12A.12.12,0,0,1,82.52,20.33Z"/><polygon class="cls-25" points="88.03 20.44 88.03 19.18 88.19 19.18 88.19 20.29 88.82 20.29 88.82 20.44 88.03 20.44"/><polygon class="cls-25" points="88.88 20.44 88.88 19.18 89.05 19.18 89.72 20.17 89.72 19.18 89.88 19.18 89.88 20.44 89.71 20.44 89.04 19.45 89.04 20.44 88.88 20.44"/><polygon class="cls-25" points="89.95 20.44 89.95 19.18 90.12 19.18 90.12 19.8 90.75 19.18 90.97 19.18 90.45 19.69 91 20.44 90.78 20.44 90.33 19.8 90.12 20 90.12 20.44 89.95 20.44"/><path class="cls-25" d="M97.52,19.28s-.1.85-.1.85-.1-.8-.1-.85a.09.09,0,0,1,.1-.1A.1.1,0,0,1,97.52,19.28Z"/><path class="cls-25" d="M97.53,20.33a.11.11,0,0,1-.12.11.11.11,0,0,1-.11-.11.11.11,0,0,1,.11-.12A.12.12,0,0,1,97.53,20.33Z"/><path class="cls-25" d="M115.72,20.14a.76.76,0,1,0-.75-.75.75.75,0,0,0,.75.75m0-1.32a.57.57,0,1,1-.57.56.57.57,0,0,1,.57-.56"/><path class="cls-25" d="M113.57,20.14a.76.76,0,1,0-.75-.75.76.76,0,0,0,.75.75m0-1.32a.57.57,0,1,1-.56.56.56.56,0,0,1,.56-.56"/><rect class="cls-25" x="116.7" y="18.63" width="0.19" height="1.51"/><rect class="cls-25" x="114.55" y="18.63" width="0.19" height="1.51"/><rect class="cls-25" x="112.4" y="18.63" width="0.19" height="1.51"/><polygon class="cls-25" points="115.84 50.53 116.07 49.72 116.97 49.72 116.97 49.95 116.25 49.95 115.76 51.64 115.45 49.15 115.19 50 114.31 50 114.31 49.76 115.02 49.76 115.53 48.05 115.84 50.53"/><path class="cls-25" d="M103.49,49.75a.54.54,0,0,0,.05-.21A.54.54,0,0,0,103,49a.54.54,0,0,0-.54.54.78.78,0,0,0,0,.21h0s0,0,0,.06l.46.88.46-.88,0-.05Zm-.21-.24a.29.29,0,0,1-.57,0,.29.29,0,1,1,.57,0"/><path class="cls-25" d="M103,51.08a1.24,1.24,0,1,1,1.23-1.24A1.24,1.24,0,0,1,103,51.08m1.38-1.24A1.39,1.39,0,1,0,103,51.23a1.38,1.38,0,0,0,1.38-1.39"/><path class="cls-15" d="M91.66,49.4H92a1.14,1.14,0,0,1,1-.67,1.12,1.12,0,1,1-1,1.56h-.31a1.39,1.39,0,0,0,1.31,1,1.41,1.41,0,1,0-1.33-1.85Z"/><path class="cls-15" d="M92.64,49.37v.27H92.1V50h.54v.28l.37-.47-.37-.44Zm-1.25.27V50h.55v-.36Zm-.53,0V50h.38v-.36Zm-.42,0V50h.26v-.36Z"/><path class="cls-25" d="M109.54,48.72c0,.12-.22,1.82-.22,1.82s-.2-1.7-.2-1.82a.21.21,0,0,1,.42,0Z"/><path class="cls-25" d="M109.56,50.94a.24.24,0,0,1-.24.25.25.25,0,0,1,0-.49A.24.24,0,0,1,109.56,50.94Z"/><rect class="cls-26" x="58.3" y="45.08" width="26.76" height="5.89"/><polyline class="cls-27" points="85.06 50.03 85.06 50.96 84.12 50.96"/><polyline class="cls-27" points="58.3 50.02 58.3 50.97 59.23 50.97"/><rect class="cls-26" x="58.3" y="37.72" width="26.76" height="5.89"/><polyline class="cls-27" points="85.06 42.67 85.06 43.6 84.12 43.6"/><polyline class="cls-27" points="58.3 42.66 58.3 43.61 59.23 43.61"/><path class="cls-28" d="M135.71,23.54h1.19v.3h-.84v.34h.77v.27h-.77v.39h.86v.29h-1.21Z"/><path class="cls-28" d="M137.54,24.3l-.51-.76h.41l.31.51.32-.51h.39l-.51.76.55.83h-.42l-.34-.55-.36.55H137Z"/><path class="cls-28" d="M138.64,23.54h.72a.51.51,0,1,1,0,1H139v.57h-.35Zm.35.75h.27c.17,0,.31,0,.31-.24s-.14-.23-.31-.23H139Z"/><path class="cls-28" d="M140.85,25.13h-.32v-1h-.39v-.24c.22,0,.42-.07.46-.31h.25Z"/><path class="cls-28" d="M148.33,23.54h1.19v.3h-.84v.34h.77v.27h-.77v.39h.86v.29h-1.21Z"/><path class="cls-28" d="M150.16,24.3l-.51-.76h.41l.31.51.32-.51h.38l-.51.76.56.83h-.42l-.35-.55-.35.55h-.39Z"/><path class="cls-28" d="M151.26,23.54H152a.51.51,0,1,1,0,1h-.37v.57h-.35Zm.35.75h.27c.16,0,.31,0,.31-.24s-.15-.23-.31-.23h-.27Z"/><path class="cls-28" d="M152.68,24.17a.55.55,0,0,1,.56-.63.5.5,0,0,1,.54.49.55.55,0,0,1-.28.47,1.59,1.59,0,0,0-.45.36h.74v.27h-1.15c0-.36.22-.51.49-.69s.33-.19.33-.38a.22.22,0,0,0-.23-.24c-.19,0-.25.19-.25.35Z"/><path class="cls-28" d="M143.34,19.83h.15a.19.19,0,0,0,0,.11.22.22,0,0,0,.22,0,.11.11,0,0,0,0-.12l-.06,0-.12,0a.4.4,0,0,1-.16-.07.18.18,0,0,1-.07-.15.17.17,0,0,1,0-.1.18.18,0,0,1,.09-.08.34.34,0,0,1,.15,0,.33.33,0,0,1,.21.06.22.22,0,0,1,.07.16h-.15a.2.2,0,0,0,0-.08l-.09,0-.11,0s0,0,0,.05a.05.05,0,0,0,0,0,.27.27,0,0,0,.14.05l.16.06a.18.18,0,0,1,.08.07.21.21,0,0,1,0,.12.19.19,0,0,1,0,.12.24.24,0,0,1-.09.08.41.41,0,0,1-.16,0,.34.34,0,0,1-.22-.06.29.29,0,0,1-.09-.19"/><path class="cls-28" d="M143.34,22.17l.15,0a.16.16,0,0,0,0,.11.22.22,0,0,0,.22,0,.09.09,0,0,0,0-.07s0,0,0,0a.09.09,0,0,0-.06,0l-.12,0a.4.4,0,0,1-.16-.07.18.18,0,0,1-.07-.15.19.19,0,0,1,0-.1.24.24,0,0,1,.09-.08l.15,0a.33.33,0,0,1,.21.06.22.22,0,0,1,.07.16h-.15s0-.07,0-.08a.12.12,0,0,0-.09,0,.18.18,0,0,0-.11,0,.05.05,0,0,0,0,0,.08.08,0,0,0,0,0l.14.05a.43.43,0,0,1,.16.05.27.27,0,0,1,.08.07.24.24,0,0,1,0,.12.19.19,0,0,1,0,.12.18.18,0,0,1-.09.08.41.41,0,0,1-.16,0,.29.29,0,0,1-.22-.07.26.26,0,0,1-.09-.18"/><path class="cls-28" d="M144,21.22h-.16l-.06-.17h-.3l-.06.17h-.16l.29-.73h.16Zm-.27-.29-.1-.27-.1.27Z"/><path class="cls-28" d="M140.76,21.66V19.82h-1.14v.68h.56V21h-.56v.68Zm.67-2.16.62-.21-.42.5,0-.15-.8.56v1.13l.76.53,0-.17.41.52-.6-.23.13-.09-.74-.52v.32h-1.21V21H139V20.5h.59v-.71h1.21v.38l.78-.55Z"/><path class="cls-28" d="M141.18,21.11a.08.08,0,0,0-.08-.08.08.08,0,0,0,0,.16A.08.08,0,0,0,141.18,21.11Z"/><path class="cls-28" d="M141.46,21.24a.08.08,0,0,0-.08-.08.07.07,0,0,0-.07.08.07.07,0,0,0,.07.07A.08.08,0,0,0,141.46,21.24Z"/><path class="cls-28" d="M141.74,21.37a.08.08,0,0,0-.08-.08.08.08,0,0,0,0,.16A.08.08,0,0,0,141.74,21.37Z"/><path class="cls-28" d="M142,21.5a.08.08,0,0,0-.08-.08.08.08,0,0,0,0,.16A.08.08,0,0,0,142,21.5Z"/><path class="cls-28" d="M142.3,21.63a.07.07,0,0,0-.08-.08.07.07,0,0,0-.07.08.07.07,0,0,0,.07.07A.07.07,0,0,0,142.3,21.63Z"/><path class="cls-28" d="M142.58,21.76a.08.08,0,0,0-.08-.08.08.08,0,0,0,0,.16A.08.08,0,0,0,142.58,21.76Z"/><path class="cls-28" d="M141.18,20.37a.07.07,0,0,0-.08-.07.07.07,0,0,0-.07.07.07.07,0,0,0,.07.08A.07.07,0,0,0,141.18,20.37Z"/><path class="cls-28" d="M141.46,20.24a.09.09,0,0,0-.08-.08.08.08,0,0,0,0,.16A.09.09,0,0,0,141.46,20.24Z"/><path class="cls-28" d="M141.74,20.11a.08.08,0,0,0-.08-.08.08.08,0,0,0,0,.16A.08.08,0,0,0,141.74,20.11Z"/><path class="cls-28" d="M142,20a.07.07,0,0,0-.08-.07.07.07,0,0,0-.07.07.07.07,0,0,0,.07.08A.07.07,0,0,0,142,20Z"/><path class="cls-28" d="M142.3,19.85a.08.08,0,0,0-.08-.08.08.08,0,0,0,0,.16A.08.08,0,0,0,142.3,19.85Z"/><path class="cls-28" d="M142.58,19.72a.08.08,0,0,0-.08-.08.08.08,0,0,0,0,.16A.08.08,0,0,0,142.58,19.72Z"/><path class="cls-28" d="M143.05,20.74a.08.08,0,1,0-.08.08A.09.09,0,0,0,143.05,20.74Z"/><path class="cls-28" d="M142.74,20.74a.08.08,0,1,0-.08.08A.09.09,0,0,0,142.74,20.74Z"/><path class="cls-28" d="M142.43,20.74a.08.08,0,0,0-.08-.08.08.08,0,0,0,0,.16A.08.08,0,0,0,142.43,20.74Z"/><path class="cls-28" d="M142.12,20.74a.08.08,0,0,0-.08-.08.08.08,0,0,0,0,.16A.08.08,0,0,0,142.12,20.74Z"/><path class="cls-28" d="M141.81,20.74a.08.08,0,0,0-.07-.08.08.08,0,1,0,0,.16A.08.08,0,0,0,141.81,20.74Z"/><path class="cls-28" d="M141.5,20.74a.08.08,0,0,0-.08-.08.08.08,0,0,0,0,.16A.08.08,0,0,0,141.5,20.74Z"/><path class="cls-28" d="M141.19,20.74a.08.08,0,0,0-.07-.08.08.08,0,1,0,0,.16A.08.08,0,0,0,141.19,20.74Z"/><polygon class="cls-28" points="147.37 20.39 147.37 19.67 146.07 21 147.37 22.33 147.37 21.5 148.04 21.5 148.04 20.39 147.37 20.39"/><polygon class="cls-28" points="149.1 20.39 149.1 19.67 150.39 21 149.1 22.33 149.1 21.5 148.43 21.5 148.43 20.39 149.1 20.39"/><path class="cls-28" d="M129.74,24.5c0,.09-.16,1.36-.16,1.36s-.16-1.27-.16-1.36a.16.16,0,0,1,.32,0Z"/><path class="cls-28" d="M129.75,26.16a.18.18,0,1,1-.36,0,.18.18,0,0,1,.36,0Z"/><polygon class="cls-28" points="127.74 31.7 127.74 30.29 127.92 30.29 127.92 31.53 128.62 31.53 128.62 31.7 127.74 31.7"/><polygon class="cls-28" points="128.84 31.7 128.84 30.29 129.03 30.29 129.76 31.4 129.76 30.29 129.94 30.29 129.94 31.7 129.75 31.7 129.01 30.59 129.01 31.7 128.84 31.7"/><polygon class="cls-28" points="130.25 31.7 130.25 30.29 130.43 30.29 130.43 30.99 131.13 30.29 131.38 30.29 130.79 30.86 131.41 31.7 131.16 31.7 130.66 30.99 130.43 31.21 130.43 31.7 130.25 31.7"/><path class="cls-28" d="M160,24.5c0,.09-.16,1.36-.16,1.36s-.16-1.27-.16-1.36a.16.16,0,1,1,.32,0Z"/><path class="cls-28" d="M160,26.16a.18.18,0,1,1-.36,0,.18.18,0,1,1,.36,0Z"/><polygon class="cls-28" points="157.98 31.7 157.98 30.29 158.16 30.29 158.16 31.53 158.85 31.53 158.85 31.7 157.98 31.7"/><polygon class="cls-28" points="159.07 31.7 159.07 30.29 159.26 30.29 160 31.4 160 30.29 160.18 30.29 160.18 31.7 159.99 31.7 159.25 30.59 159.25 31.7 159.07 31.7"/><polygon class="cls-28" points="160.49 31.7 160.49 30.29 160.67 30.29 160.67 30.99 161.37 30.29 161.62 30.29 161.03 30.86 161.65 31.7 161.4 31.7 160.9 30.99 160.67 31.21 160.67 31.7 160.49 31.7"/><path class="cls-29" d="M130.84,28.39a1.27,1.27,0,1,0-1.27,1.27A1.27,1.27,0,0,0,130.84,28.39Z"/><path class="cls-29" d="M130.84,33.74A1.27,1.27,0,1,0,129.57,35,1.27,1.27,0,0,0,130.84,33.74Z"/><path class="cls-29" d="M161.08,28.39a1.27,1.27,0,1,0-1.27,1.27A1.27,1.27,0,0,0,161.08,28.39Z"/><path class="cls-29" d="M161.08,33.74A1.27,1.27,0,1,0,159.81,35,1.27,1.27,0,0,0,161.08,33.74Z"/><rect class="cls-10" x="121.4" y="41.03" width="8.93" height="10.01"/><polygon class="cls-3" points="121.81 50.64 129.92 50.64 129.92 50.63 129.92 50.63 129.92 41.44 129.92 41.44 121.81 41.44 121.8 41.44 121.8 50.63 121.81 50.64"/><rect class="cls-30" x="122.07" y="41.71" width="7.58" height="8.66"/><rect class="cls-31" x="122.07" y="41.71" width="7.58" height="8.66"/><path class="cls-32" d="M127,44.11l0,0,.5-.41a.06.06,0,0,0,0-.08h0l-.17-.2s0,0,0,0h-2l-.25.2a.06.06,0,0,0,0,.09h0l.34.41,0,0Z"/><path class="cls-32" d="M127.12,46l.38-.32,0,0,.29-1.61a.08.08,0,0,0,0-.05l-.17-.2a.05.05,0,0,0-.08,0l-.49.42s0,0,0,0l-.25,1.42s0,0,0,0l.25.29A.05.05,0,0,0,127.12,46Z"/><path class="cls-32" d="M127,46.12l-.38.32,0,0-.25,1.42a.07.07,0,0,0,0,0l.35.41a.05.05,0,0,0,.08,0l.25-.2s0,0,0,0l.29-1.65a.06.06,0,0,0,0,0l-.24-.29A.06.06,0,0,0,127,46.12Z"/><path class="cls-32" d="M126.56,46.4h0l.38-.32a.05.05,0,0,0,0-.08h0l-.25-.3,0,0h-1.56l-.39.32a.07.07,0,0,0,0,.09h0l.25.29s0,0,0,0Z"/><path class="cls-32" d="M124.7,46l.38-.32,0,0,.25-1.42a0,0,0,0,0,0,0l-.35-.41a.05.05,0,0,0-.08,0l-.24.21s0,0,0,0l-.29,1.65s0,0,0,0l.25.29A.05.05,0,0,0,124.7,46Z"/><path class="cls-32" d="M126.39,48.7l0,0,.24-.2a.05.05,0,0,0,0-.08h0l-.35-.42,0,0h-1.53l0,0-.5.41a.07.07,0,0,0,0,.09h0l.17.2a.05.05,0,0,0,0,0Z"/><path class="cls-32" d="M124.7,47.89l.25-1.42a.11.11,0,0,0,0,0l-.25-.29a.06.06,0,0,0-.09,0l-.38.32,0,0-.28,1.62a.06.06,0,0,0,0,0l.17.21a.06.06,0,0,0,.08,0l.5-.41A.05.05,0,0,0,124.7,47.89Z"/><path class="cls-32" d="M128.71,48.28a.41.41,0,0,0-.41-.41.41.41,0,0,0-.42.41.42.42,0,0,0,.42.42A.41.41,0,0,0,128.71,48.28Z"/><path class="cls-33" d="M127,44.11l0,0,.5-.41a.06.06,0,0,0,0-.08h0l-.17-.2s0,0,0,0h-2l-.25.2a.06.06,0,0,0,0,.09h0l.34.41,0,0Z"/><path class="cls-33" d="M127.12,46l.38-.32,0,0,.29-1.61a.08.08,0,0,0,0-.05l-.17-.2a.05.05,0,0,0-.08,0l-.49.42s0,0,0,0l-.25,1.42s0,0,0,0l.25.29A.05.05,0,0,0,127.12,46Z"/><path class="cls-33" d="M127,46.12l-.38.32,0,0-.25,1.42a.07.07,0,0,0,0,0l.35.41a.05.05,0,0,0,.08,0l.25-.2s0,0,0,0l.29-1.65a.06.06,0,0,0,0,0l-.24-.29A.06.06,0,0,0,127,46.12Z"/><path class="cls-33" d="M126.56,46.4h0l.38-.32a.05.05,0,0,0,0-.08h0l-.25-.3,0,0h-1.56l-.39.32a.07.07,0,0,0,0,.09h0l.25.29s0,0,0,0Z"/><path class="cls-33" d="M124.7,46l.38-.32,0,0,.25-1.42a0,0,0,0,0,0,0l-.35-.41a.05.05,0,0,0-.08,0l-.24.21s0,0,0,0l-.29,1.65s0,0,0,0l.25.29A.05.05,0,0,0,124.7,46Z"/><path class="cls-33" d="M126.39,48.7l0,0,.24-.2a.05.05,0,0,0,0-.08h0l-.35-.42,0,0h-1.53l0,0-.5.41a.07.07,0,0,0,0,.09h0l.17.2a.05.05,0,0,0,0,0Z"/><path class="cls-33" d="M124.7,47.89l.25-1.42a.11.11,0,0,0,0,0l-.25-.29a.06.06,0,0,0-.09,0l-.38.32,0,0-.28,1.62a.06.06,0,0,0,0,0l.17.21a.06.06,0,0,0,.08,0l.5-.41A.05.05,0,0,0,124.7,47.89Z"/><path class="cls-33" d="M128.71,48.28a.41.41,0,0,0-.41-.41.41.41,0,0,0-.42.41.42.42,0,0,0,.42.42A.41.41,0,0,0,128.71,48.28Z"/><rect class="cls-10" x="131.51" y="41.03" width="8.93" height="10.01"/><polygon class="cls-3" points="131.92 50.64 140.03 50.64 140.04 50.63 140.04 50.63 140.04 41.44 140.03 41.44 131.92 41.44 131.92 41.44 131.92 50.63 131.92 50.64"/><rect class="cls-30" x="132.19" y="41.71" width="7.58" height="8.66"/><rect class="cls-31" x="132.19" y="41.71" width="7.58" height="8.66"/><path class="cls-32" d="M134.87,48l0,0-.5.41a.06.06,0,0,0,0,.09h0l.17.2.05,0h1.95a.05.05,0,0,0,0,0l.25-.2a.06.06,0,0,0,0-.08h0l-.34-.42,0,0Z"/><path class="cls-32" d="M134.72,46.12l-.38.32,0,0L134,48.09a0,0,0,0,0,0,0l.16.21a.08.08,0,0,0,.09,0l.49-.41a.05.05,0,0,0,0,0l.25-1.42s0,0,0,0l-.25-.29A.05.05,0,0,0,134.72,46.12Z"/><path class="cls-32" d="M134.82,46l.38-.32,0,0,.25-1.42s0,0,0,0l-.34-.41a.05.05,0,0,0-.08,0l-.25.21s0,0,0,0l-.29,1.65a.09.09,0,0,0,0,0l.25.29A.06.06,0,0,0,134.82,46Z"/><path class="cls-32" d="M135.28,45.67h0l-.38.32a.06.06,0,0,0,0,.09h0l.25.29s0,0,.05,0h1.56l.39-.32a.06.06,0,0,0,0-.08h0l-.25-.3a.05.05,0,0,0,0,0Z"/><path class="cls-32" d="M137.14,46.12l-.38.32,0,0h0l-.25,1.42a0,0,0,0,0,0,0l.34.41a.06.06,0,0,0,.09,0l.24-.2a.08.08,0,0,0,0,0l.29-1.65s0,0,0,0l-.25-.29A.05.05,0,0,0,137.14,46.12Z"/><path class="cls-32" d="M135.45,43.38h0l-.24.2a.06.06,0,0,0,0,.09h0l.35.41,0,0h1.53l0,0,.49-.41a.05.05,0,0,0,0-.08h0l-.17-.2s0,0,0,0Z"/><path class="cls-32" d="M137.14,44.18l-.25,1.42a.09.09,0,0,0,0,0l.25.29a.06.06,0,0,0,.09,0l.38-.32,0,0,.28-1.61a.07.07,0,0,0,0-.05l-.17-.2a.05.05,0,0,0-.08,0l-.5.42S137.14,44.17,137.14,44.18Z"/><path class="cls-32" d="M133.13,43.79a.41.41,0,0,0,.41.42.42.42,0,0,0,.42-.42.41.41,0,0,0-.42-.41A.41.41,0,0,0,133.13,43.79Z"/><path class="cls-33" d="M134.87,48l0,0-.5.41a.06.06,0,0,0,0,.09h0l.17.2.05,0h1.95a.05.05,0,0,0,0,0l.25-.2a.06.06,0,0,0,0-.08h0l-.34-.42,0,0Z"/><path class="cls-33" d="M134.72,46.12l-.38.32,0,0L134,48.09a0,0,0,0,0,0,0l.16.21a.08.08,0,0,0,.09,0l.49-.41a.05.05,0,0,0,0,0l.25-1.42s0,0,0,0l-.25-.29A.05.05,0,0,0,134.72,46.12Z"/><path class="cls-33" d="M134.82,46l.38-.32,0,0,.25-1.42s0,0,0,0l-.34-.41a.05.05,0,0,0-.08,0l-.25.21s0,0,0,0l-.29,1.65a.09.09,0,0,0,0,0l.25.29A.06.06,0,0,0,134.82,46Z"/><path class="cls-33" d="M135.28,45.67h0l-.38.32a.06.06,0,0,0,0,.09h0l.25.29s0,0,.05,0h1.56l.39-.32a.06.06,0,0,0,0-.08h0l-.25-.3a.05.05,0,0,0,0,0Z"/><path class="cls-33" d="M137.14,46.12l-.38.32,0,0h0l-.25,1.42a0,0,0,0,0,0,0l.34.41a.06.06,0,0,0,.09,0l.24-.2a.08.08,0,0,0,0,0l.29-1.65s0,0,0,0l-.25-.29A.05.05,0,0,0,137.14,46.12Z"/><path class="cls-33" d="M135.45,43.38h0l-.24.2a.06.06,0,0,0,0,.09h0l.35.41,0,0h1.53l0,0,.49-.41a.05.05,0,0,0,0-.08h0l-.17-.2s0,0,0,0Z"/><path class="cls-33" d="M137.14,44.18l-.25,1.42a.09.09,0,0,0,0,0l.25.29a.06.06,0,0,0,.09,0l.38-.32,0,0,.28-1.61a.07.07,0,0,0,0-.05l-.17-.2a.05.05,0,0,0-.08,0l-.5.42S137.14,44.17,137.14,44.18Z"/><path class="cls-33" d="M133.13,43.79a.41.41,0,0,0,.41.42.42.42,0,0,0,.42-.42.41.41,0,0,0-.42-.41A.41.41,0,0,0,133.13,43.79Z"/><path class="cls-29" d="M116.61,46a1,1,0,1,0-1,1A1,1,0,0,0,116.61,46Z"/><path class="cls-29" d="M110.29,46a1,1,0,1,0-1.93,0,1,1,0,0,0,1.93,0Z"/><path class="cls-29" d="M104,46a1,1,0,1,0-1,1A1,1,0,0,0,104,46Z"/><path class="cls-29" d="M94,46a1,1,0,1,0-1,1A1,1,0,0,0,94,46Z"/><rect class="cls-34" x="69.56" y="25.05" width="32.57" height="12.07" rx="0.85" ry="0.85"/><rect class="cls-21" x="70.54" y="26.16" width="30.62" height="9.85"/><path class="cls-35" d="M101,26.35v9.48H70.73V26.35H101m.38-.38h-31V36.21h31V26Z"/><rect class="cls-36" x="70.93" y="26.56" width="29.83" height="9.06"/><rect class="cls-37" x="71.12" y="26.73" width="14.64" height="8.72"/><rect class="cls-38" x="75.33" y="26.56" width="6.22" height="0.17"/><rect class="cls-39" x="75.92" y="26.56" width="5.03" height="0.49"/><rect class="cls-37" x="85.94" y="26.75" width="14.64" height="8.72"/><rect class="cls-38" x="90.15" y="26.57" width="6.22" height="0.17"/><rect class="cls-39" x="90.74" y="26.57" width="5.03" height="0.49"/><path class="cls-29" d="M98.38,22.27a1,1,0,1,0-1,1A1,1,0,0,0,98.38,22.27Z"/><path class="cls-29" d="M90.48,22.27a1,1,0,1,0-1,1A1,1,0,0,0,90.48,22.27Z"/><path class="cls-29" d="M83.37,22.27a1,1,0,1,0-1,1A1,1,0,0,0,83.37,22.27Z"/><path class="cls-29" d="M75.46,22.27a1,1,0,1,0-1,1A1,1,0,0,0,75.46,22.27Z"/></g><g id="Sandhawk_Blank" data-name="Sandhawk Blank"><path class="cls-7" d="M274.14,18.09H170.87a.67.67,0,0,0-.66.67v12.8A1.47,1.47,0,0,1,168.74,33h-5.33a.66.66,0,0,0-.66.66V52.27h109a1,1,0,0,0,1-1V40.54h1.2a.93.93,0,0,0,.93-.93V18.76A.67.67,0,0,0,274.14,18.09ZM175.49,33a3.47,3.47,0,1,1,2.88-2.88A3.47,3.47,0,0,1,175.49,33Zm24.4-.38a.85.85,0,0,1-.85.85h-16a.85.85,0,0,1-.85-.85V21.86a.85.85,0,0,1,.85-.85h16a.85.85,0,0,1,.85.85Zm24,0a.85.85,0,0,1-.85.85h-16a.85.85,0,0,1-.85-.85V21.86a.85.85,0,0,1,.85-.85h16a.85.85,0,0,1,.85.85ZM232,33a3.47,3.47,0,1,1,2.88-2.88A3.47,3.47,0,0,1,232,33Zm18-3.16a.94.94,0,0,1-.94.93H238a.94.94,0,0,1-.94-.93V24.08a.94.94,0,0,1,.94-.94H249.1a.94.94,0,0,1,.94.94ZM270.53,34a1,1,0,0,1-.94.94H252A1,1,0,0,1,251,34V25.84a.94.94,0,0,1,.94-.94h17.61a.94.94,0,0,1,.94.94Z"/><path class="cls-25" d="M244.84,21.8a.9.9,0,1,0-.91-.9.9.9,0,0,0,.91.9m0-1.58a.68.68,0,1,1-.68.68.68.68,0,0,1,.68-.68"/><path class="cls-25" d="M242.27,21.8a.9.9,0,1,0-.9-.9.9.9,0,0,0,.9.9m0-1.58a.68.68,0,1,1-.68.68.69.69,0,0,1,.68-.68"/><rect class="cls-25" x="246.01" y="20" width="0.22" height="1.81"/><rect class="cls-25" x="243.44" y="20" width="0.23" height="1.81"/><rect class="cls-25" x="240.87" y="20" width="0.23" height="1.81"/><path class="cls-25" d="M262.92,22.15h-3.36c.33-.24.55-.81,1-.84h.6a.37.37,0,0,0,.37.29.38.38,0,0,0,.39-.38c0-.06,0-.08,0-.14a.38.38,0,0,0-.36-.25.38.38,0,0,0-.37.29h-.6c-.58,0-.91.95-1.48,1h-.22a.63.63,0,0,0-.54-.49.59.59,0,0,0-.55.38.46.46,0,0,0,0,.2.57.57,0,0,0,.58.57.57.57,0,0,0,.52-.48h1.22c.53.17.83,1,1.38,1h.24v.28h.75v-.75h-.75v.28h-.24c-.39,0-.61-.52-1-.77h2.45v.34l.91-.43-.91-.44Z"/><path class="cls-25" d="M190,18.59h.55a.37.37,0,0,1,.41.39.37.37,0,0,1-.41.39h-.28v.43H190Zm.27.57h.2c.13,0,.24,0,.24-.18s-.11-.18-.24-.18h-.2Z"/><path class="cls-25" d="M191.82,19.8h-.24V19h-.3v-.19c.16,0,.32-.05.34-.23h.2Z"/><path class="cls-25" d="M214,18.59h.55a.38.38,0,0,1,.42.39.38.38,0,0,1-.42.39h-.28v.43H214Zm.27.57h.2c.13,0,.24,0,.24-.18s-.11-.18-.24-.18h-.2Z"/><path class="cls-25" d="M215.22,19.07a.42.42,0,0,1,.43-.48.38.38,0,0,1,.4.38.4.4,0,0,1-.21.35,1.54,1.54,0,0,0-.34.28h.56v.2h-.87c0-.27.17-.39.37-.53s.25-.14.25-.29a.17.17,0,0,0-.18-.18c-.14,0-.18.15-.18.27Z"/><rect class="cls-26" x="244.55" y="45.3" width="27.1" height="5.96"/><polyline class="cls-40" points="271.65 50.31 271.65 51.25 270.7 51.25"/><polyline class="cls-40" points="244.55 50.3 244.55 51.26 245.5 51.26"/><path class="cls-25" d="M203.81,24.25,204,24h.2V23.9a.48.48,0,0,0-.23-.07.44.44,0,0,0-.39.24h-1.13a.47.47,0,0,0-.45-.3.44.44,0,0,0-.26.07V24h.23l.17.31-.17.3h-.23v.09a.53.53,0,0,0,.26.07.49.49,0,0,0,.47-.34h1.09a.43.43,0,0,0,.41.29.48.48,0,0,0,.23-.07v-.1H204Z"/><polygon class="cls-15" points="202.97 30.4 203.3 30.4 203.3 30.66 203.98 30.66 203.98 30.05 203.3 30.05 203.3 30.36 202.97 30.36 202.97 28.73 203.31 28.73 203.31 29.03 203.99 29.03 203.99 28.41 203.31 28.41 203.31 28.69 202.97 28.69 202.97 28.41 202.93 28.41 202.93 29.56 202.56 29.56 202.56 29.26 201.88 29.26 201.88 29.88 202.56 29.88 202.56 29.6 202.93 29.6 202.93 30.66 202.97 30.66 202.97 30.4"/><path class="cls-5" d="M178.07,29.52a3.13,3.13,0,1,0-3.13,3.13A3.13,3.13,0,0,0,178.07,29.52Z"/><path class="cls-41" d="M177.8,29.52a2.86,2.86,0,1,0-2.86,2.86A2.85,2.85,0,0,0,177.8,29.52Z"/><path class="cls-42" d="M173.8,28.83l.2.21a.68.68,0,0,1,0,1h0l-.2.2a.22.22,0,0,0,0,.32h0l.14.13a.22.22,0,0,0,.32,0l.2-.2a.7.7,0,0,1,1,0l.2.21a.24.24,0,0,0,.33,0l.13-.13a.24.24,0,0,0,0-.33h0l-.2-.2a.68.68,0,0,1,0-1h0l.2-.2a.26.26,0,0,0,0-.33h0l-.14-.13a.22.22,0,0,0-.32,0l-.2.2a.68.68,0,0,1-1,0l-.21-.21a.22.22,0,0,0-.32,0l-.13.14a.22.22,0,0,0,0,.32Z"/><path class="cls-5" d="M234.61,29.52a3.13,3.13,0,1,0-3.13,3.13A3.13,3.13,0,0,0,234.61,29.52Z"/><path class="cls-41" d="M234.34,29.52a2.86,2.86,0,1,0-2.86,2.86A2.85,2.85,0,0,0,234.34,29.52Z"/><path class="cls-42" d="M230.33,28.83l.21.21a.68.68,0,0,1,0,1h0l-.2.2a.22.22,0,0,0,0,.32h0l.13.13a.24.24,0,0,0,.33,0l.2-.2a.7.7,0,0,1,1,0l.2.21a.24.24,0,0,0,.33,0l.13-.13a.24.24,0,0,0,0-.33h0l-.21-.2a.7.7,0,0,1,0-1h0l.2-.2a.24.24,0,0,0,0-.33h0l-.13-.13a.22.22,0,0,0-.32,0l-.2.2a.68.68,0,0,1-1,0l-.21-.21a.22.22,0,0,0-.32,0l-.14.14a.22.22,0,0,0,0,.32Z"/><rect class="cls-8" x="181.48" y="20.28" width="19.15" height="13.86"/><path class="cls-9" d="M200.52,20.4V34H181.59V20.4h18.93m.23-.23H181.37V34.26h19.38V20.17Z"/><rect class="cls-10" x="182.21" y="21.02" width="17.69" height="12.39"/><polygon class="cls-11" points="184.29 29.82 184.29 32.92 197.83 32.92 197.83 29.82 197.42 29.7 197.42 27.61 197.83 27.5 197.83 23.62 194.83 23.62 194.83 22.06 193.64 22.06 193.64 21.51 188.47 21.51 188.47 22.06 187.29 22.06 187.29 23.62 184.29 23.62 184.29 27.5 184.69 27.61 184.69 29.7 184.29 29.82"/><rect class="cls-43" x="184.29" y="22.06" width="3.01" height="1.56"/><rect class="cls-43" x="194.83" y="22.06" width="3" height="1.56"/><polygon class="cls-12" points="188.17 32.77 188.13 28.95 188.49 28.91 188.52 32.77 188.17 32.77"/><path class="cls-13" d="M188.49,29v3.78h-.32V29h.32m.07-.08h-.46v3.94h.46V28.87Z"/><polygon class="cls-12" points="189.27 32.77 189.23 28.95 189.58 28.91 189.62 32.77 189.27 32.77"/><path class="cls-13" d="M189.58,29v3.78h-.31V29h.31m.07-.08h-.46v3.94h.46V28.87Z"/><polygon class="cls-12" points="190.36 32.77 190.32 28.95 190.67 28.91 190.71 32.77 190.36 32.77"/><path class="cls-13" d="M190.67,29v3.78h-.31V29h.31m.07-.08h-.46v3.94h.46V28.87Z"/><polygon class="cls-12" points="191.45 32.77 191.41 28.95 191.76 28.91 191.79 32.77 191.45 32.77"/><path class="cls-13" d="M191.76,29v3.78h-.31V29h.31m.07-.08h-.46v3.94h.46V28.87Z"/><polygon class="cls-12" points="192.54 32.77 192.5 28.95 192.85 28.91 192.89 32.77 192.54 32.77"/><path class="cls-13" d="M192.85,29v3.78h-.31V29h.31m.07-.08h-.46v3.94h.46V28.87Z"/><polygon class="cls-12" points="193.63 32.77 193.59 28.95 193.94 28.91 193.98 32.77 193.63 32.77"/><path class="cls-13" d="M193.94,29v3.78h-.31V29h.31m.08-.08h-.46v3.94H194V28.87Z"/><polygon class="cls-12" points="194.72 32.77 194.69 28.95 195.03 28.91 195.07 32.77 194.72 32.77"/><path class="cls-13" d="M195,29v3.78h-.31V29H195m.08-.08h-.46v3.94h.46V28.87Z"/><polygon class="cls-12" points="187.08 32.77 187.04 28.95 187.39 28.91 187.43 32.77 187.08 32.77"/><path class="cls-13" d="M187.39,29v3.78h-.31V29h.31m.08-.08H187v3.94h.46V28.87Z"/><rect class="cls-8" x="205.48" y="20.33" width="19.15" height="13.86"/><path class="cls-9" d="M224.52,20.44V34.07H205.6V20.44h18.92m.23-.23H205.37V34.3h19.38V20.21Z"/><rect class="cls-10" x="206.22" y="21.06" width="17.69" height="12.39"/><polygon class="cls-11" points="208.29 29.86 208.29 32.97 221.83 32.97 221.83 29.86 221.42 29.75 221.42 27.66 221.83 27.54 221.83 23.66 218.83 23.66 218.83 22.1 217.65 22.1 217.65 21.55 212.47 21.55 212.47 22.1 211.3 22.1 211.3 23.66 208.29 23.66 208.29 27.54 208.7 27.66 208.7 29.75 208.29 29.86"/><rect class="cls-43" x="208.29" y="22.1" width="3.01" height="1.56"/><rect class="cls-43" x="218.83" y="22.1" width="3" height="1.56"/><polygon class="cls-12" points="212.18 32.81 212.14 28.99 212.49 28.95 212.53 32.81 212.18 32.81"/><path class="cls-13" d="M212.49,29v3.78h-.31V29h.31m.07-.07h-.46v3.93h.46V28.92Z"/><polygon class="cls-12" points="213.27 32.81 213.23 28.99 213.58 28.95 213.62 32.81 213.27 32.81"/><path class="cls-13" d="M213.58,29v3.78h-.31V29h.31m.07-.07h-.46v3.93h.46V28.92Z"/><polygon class="cls-12" points="214.36 32.81 214.32 28.99 214.67 28.95 214.71 32.81 214.36 32.81"/><path class="cls-13" d="M214.67,29v3.78h-.31V29h.31m.08-.07h-.47v3.93h.47V28.92Z"/><polygon class="cls-12" points="215.45 32.81 215.41 28.99 215.76 28.95 215.8 32.81 215.45 32.81"/><path class="cls-13" d="M215.76,29v3.78h-.31V29h.31m.08-.07h-.47v3.93h.47V28.92Z"/><polygon class="cls-12" points="216.54 32.81 216.5 28.99 216.85 28.95 216.89 32.81 216.54 32.81"/><path class="cls-13" d="M216.85,29v3.78h-.31V29h.31m.08-.07h-.47v3.93h.47V28.92Z"/><polygon class="cls-12" points="217.63 32.81 217.6 28.99 217.94 28.95 217.98 32.81 217.63 32.81"/><path class="cls-13" d="M217.94,29v3.78h-.31V29h.31m.08-.07h-.46v3.93H218V28.92Z"/><polygon class="cls-12" points="218.73 32.81 218.69 28.99 219.03 28.95 219.07 32.81 218.73 32.81"/><path class="cls-13" d="M219,29v3.78h-.3V29h.3m.08-.07h-.46v3.93h.46V28.92Z"/><polygon class="cls-12" points="211.09 32.81 211.05 28.99 211.39 28.95 211.43 32.81 211.09 32.81"/><path class="cls-13" d="M211.39,29v3.78h-.31V29h.31m.08-.07H211v3.93h.46V28.92Z"/><path class="cls-44" d="M246.36,25.14a1,1,0,0,1,.7.28l.64.65a1,1,0,0,1,.29.7v1a1,1,0,0,1-1,1h-6.9a1,1,0,0,1-1-1v-1a1,1,0,0,1,.29-.7l.64-.65a1,1,0,0,1,.7-.28Z"/><path class="cls-45" d="M239.49,26.77v1a.61.61,0,0,0,.61.61H247a.61.61,0,0,0,.61-.61v-1a.6.6,0,0,0-.17-.43l-.65-.65a.62.62,0,0,0-.43-.18h-5.61a.62.62,0,0,0-.43.18l-.65.65A.6.6,0,0,0,239.49,26.77Z"/><path class="cls-46" d="M239.56,26.88v.74a.63.63,0,0,0,.64.64h6.71a.64.64,0,0,0,.64-.64v-.74a.64.64,0,0,0-.19-.45l-.64-.64a.64.64,0,0,0-.45-.19h-5.44a.64.64,0,0,0-.45.19l-.64.64A.63.63,0,0,0,239.56,26.88Z"/><path class="cls-47" d="M239.88,26.88v.74a.32.32,0,0,0,.32.32h6.71a.32.32,0,0,0,.32-.32v-.74a.32.32,0,0,0-.09-.23L246.5,26a.32.32,0,0,0-.23-.09h-5.44a.31.31,0,0,0-.22.09l-.64.64A.32.32,0,0,0,239.88,26.88Z"/><polygon class="cls-48" points="243.34 27.25 243.32 27.12 243.77 27.11 243.78 27.25 243.34 27.25"/><path class="cls-13" d="M243.77,27.12v.11h-.43v-.11h.43m0,0h-.5v.18h.5v-.18Z"/><polygon class="cls-48" points="242.65 27.25 242.63 27.12 243.07 27.11 243.09 27.25 242.65 27.25"/><path class="cls-13" d="M243.07,27.12v.11h-.42v-.11h.42m0,0h-.5v.18h.5v-.18Z"/><polygon class="cls-48" points="241.96 27.25 241.94 27.12 242.38 27.11 242.4 27.25 241.96 27.25"/><path class="cls-13" d="M242.38,27.12v.11H242v-.11h.43m0,0h-.5v.18h.5v-.18Z"/><polygon class="cls-48" points="244.73 27.25 244.71 27.12 245.15 27.11 245.17 27.25 244.73 27.25"/><path class="cls-13" d="M245.15,27.12v.11h-.42v-.11h.42m0,0h-.5v.18h.5v-.18Z"/><polygon class="cls-12" points="244.03 27.25 244.01 27.12 244.46 27.11 244.48 27.25 244.03 27.25"/><path class="cls-13" d="M244.46,27.12v.11H244v-.11h.43m0,0H244v.18h.51v-.18Z"/><path class="cls-18" d="M243.32,25.51h-2.2a.23.23,0,0,0-.12.2v.21h2.53v-.21a.22.22,0,0,0-.13-.2Z"/><path class="cls-18" d="M245.9,25.51h-2.2a.22.22,0,0,0-.13.2v.21h2.54v-.21a.22.22,0,0,0-.13-.2Z"/><path class="cls-18" d="M247.61,27a.2.2,0,0,0-.17-.09h-.21v.62h.21a.21.21,0,0,0,.17-.08Z"/><path class="cls-18" d="M240.52,28.35h6.16a.21.21,0,0,0,.12-.19v-.22h-6.5v.22a.21.21,0,0,0,.13.19Z"/><path class="cls-18" d="M239.49,27.48a.23.23,0,0,0,.17.08h.22v-.62h-.22a.21.21,0,0,0-.17.09Z"/><path class="cls-49" d="M242.65,27h-.27v.21H242V27h-.08a.18.18,0,0,0-.18.18h0v.25a.19.19,0,0,0,.18.19h3.37a.19.19,0,0,0,.18-.19V27.2a.18.18,0,0,0-.18-.18h-.09v.21h-.42V27h-.27v.21H244V27h-.26v.21h-.43V27h-.27v.21h-.42Z"/><rect class="cls-8" x="253.51" y="26.53" width="14.54" height="6.72" rx="0.96" ry="0.96"/><polygon class="cls-50" points="254.54 26.53 254.54 33.25 259.38 33.25 259.38 32.78 260.66 32.78 260.91 32.78 262.18 32.78 262.18 33.25 267.02 33.25 267.02 26.53 254.54 26.53"/><path class="cls-9" d="M267.09,27H254.47a.54.54,0,0,0-.54.55v4.79a.55.55,0,0,0,.54.55h12.62a.55.55,0,0,0,.55-.55V27.5a.55.55,0,0,0-.55-.55Z"/><path class="cls-47" d="M267.09,27.15H254.47a.35.35,0,0,0-.34.35h0v4.79a.34.34,0,0,0,.34.34h12.62a.34.34,0,0,0,.34-.34V27.5a.35.35,0,0,0-.34-.35Z"/><polygon class="cls-51" points="256.62 29.84 256.6 29.36 257.45 29.33 257.47 29.84 256.62 29.84"/><path class="cls-52" d="M257.45,29.35v.47h-.83v-.47h.83m.05-.05h-.93v.57h.93V29.3Z"/><polygon class="cls-51" points="264.12 29.84 264.09 29.36 264.94 29.33 264.97 29.84 264.12 29.84"/><path class="cls-52" d="M264.94,29.35v.47h-.82v-.47h.82m.05-.05h-.92v.57H265V29.3Z"/><polygon class="cls-51" points="259.41 29.84 259.38 29.36 260.23 29.33 260.26 29.84 259.41 29.84"/><path class="cls-52" d="M260.23,29.35v.47h-.82v-.47h.82m0-.05h-.92v.57h.92V29.3Z"/><polygon class="cls-51" points="261.33 29.84 261.31 29.36 262.16 29.33 262.18 29.84 261.33 29.84"/><path class="cls-52" d="M262.16,29.35v.47h-.83v-.47h.83m0-.05h-.93v.57h.93V29.3Z"/><polygon class="cls-12" points="256.62 30.15 256.6 29.66 257.45 29.64 257.47 30.15 256.62 30.15"/><path class="cls-13" d="M257.45,29.66v.46h-.83v-.46h.83m.05-.05h-.93v.56h.93v-.56Z"/><polygon class="cls-12" points="264.12 30.15 264.09 29.66 264.94 29.64 264.97 30.15 264.12 30.15"/><path class="cls-13" d="M264.94,29.66v.46h-.82v-.46h.82m.05-.05h-.92v.56H265v-.56Z"/><polygon class="cls-12" points="259.41 30.15 259.38 29.66 260.23 29.64 260.26 30.15 259.41 30.15"/><path class="cls-13" d="M260.23,29.66v.46h-.82v-.46h.82m0-.05h-.92v.56h.92v-.56Z"/><polygon class="cls-12" points="261.33 30.15 261.31 29.66 262.16 29.64 262.18 30.15 261.33 30.15"/><path class="cls-13" d="M262.16,29.66v.46h-.83v-.46h.83m0-.05h-.93v.56h.93v-.56Z"/><rect class="cls-53" x="254.97" y="29.99" width="11.62" height="1.78"/><path class="cls-21" d="M266.5,30.08v1.59H255.07V30.08H266.5m.19-.19H254.88v2h11.81v-2Z"/><rect class="cls-9" x="267.43" y="27.9" width="0.62" height="3.98"/><rect class="cls-9" x="253.51" y="27.9" width="0.62" height="3.98"/></g><g id="E2800_Latch" data-name="E2800 Latch"><rect class="cls-14" x="260.89" y="53.34" width="20.48" height="1.33"/><path class="cls-49" d="M129.23,50.42v5.32H266a.27.27,0,0,0,.27-.27h0V52.54a.27.27,0,0,0-.27-.26h-90.9a.27.27,0,0,1-.27-.27V50.68a.26.26,0,0,0-.27-.26H129.23Z"/><path class="cls-54" d="M137.66,50.42H125.24v5.32h37.38V50.42h-1.78a10.1,10.1,0,0,1-2.78-.4l-6.49-1.87a9.51,9.51,0,0,0-2.48-.39h-8.53A.71.71,0,0,0,140,48l-1.82,2.11A.74.74,0,0,1,137.66,50.42Z"/><path class="cls-54" d="M128.64,50.42H109.86v5.32H136.7a.54.54,0,0,0,.54-.53h0V48.29a.54.54,0,0,0-.54-.54H133a1.35,1.35,0,0,0-.82.28l-2.75,2.11A1.33,1.33,0,0,1,128.64,50.42Z"/><path class="cls-55" d="M129.23,50.42H50.69a.26.26,0,0,0-.27.26v4.79a.27.27,0,0,0,.27.27h78.54Z"/><path class="cls-56" d="M161.08,51.37H158a10.2,10.2,0,0,1-2.69-.36l-5.94-1.58a9.17,9.17,0,0,0-2.39-.31h-3.42v5.4h17.52Z"/><polygon class="cls-57" points="148.05 51.76 145.95 50.73 145.94 52.91 148.05 51.76"/></g><g id="Callout_Gizmo" data-name="Callout Gizmo"><line id="Line" class="cls-58" x1="23.41" y1="27.44" x2="179.91" y2="27.44"/><text class="cls-59" transform="translate(21.03 31.69)">1</text><circle class="cls-60" cx="23.41" cy="27.44" r="9"/><text class="cls-59" transform="translate(21.03 31.69)">1</text></g><rect class="cls-58" x="180.19" y="16.68" width="21.48" height="19.44"/><g id="Arapaho-S"><path class="cls-1" d="M278.26,105.51V71.93a1.37,1.37,0,0,0-1.35-1.35h-222a1.37,1.37,0,0,0-1.35,1.35v33.58h1.09v.27a1.22,1.22,0,0,0,1.2,1.24H276a1.23,1.23,0,0,0,1.2-1.24h0v-.27Z"/><path class="cls-61" d="M278.26,105.51V71.93a1.37,1.37,0,0,0-1.35-1.35h-222a1.37,1.37,0,0,0-1.35,1.35v33.58h1.09v.27a1.22,1.22,0,0,0,1.2,1.24H276a1.23,1.23,0,0,0,1.2-1.24h0v-.27Z"/><path class="cls-3" d="M55.82,106.08H276a.29.29,0,0,0,.26-.3h0v-4.06h.94V71.93a.25.25,0,0,0-.26-.26h-222a.25.25,0,0,0-.26.26v29.79h.94v4.06A.29.29,0,0,0,55.82,106.08Z"/><path class="cls-4" d="M275.55,70.78H56.23V72.7a.5.5,0,0,1-.52.52H54.62v32.5h1.09a.54.54,0,0,1,.52.56h0v2.14H275.55v-2.14a.55.55,0,0,1,.53-.56h1.09V73.22h-1.09a.51.51,0,0,1-.53-.52Z"/><path class="cls-61" d="M275.55,70.58H56.23V72.5a.5.5,0,0,1-.52.52H54.62v32.49h1.09a.55.55,0,0,1,.52.57h0v2.14H275.55v-2.14a.56.56,0,0,1,.53-.57h1.09V73h-1.09a.51.51,0,0,1-.53-.52Z"/><path class="cls-62" d="M189.75,84.14a3.13,3.13,0,1,0-3.13,3.12A3.13,3.13,0,0,0,189.75,84.14Z"/><path class="cls-63" d="M188.31,84.14a1.69,1.69,0,1,0-1.69,1.69A1.69,1.69,0,0,0,188.31,84.14Z"/><path class="cls-62" d="M235.36,84.14a3.13,3.13,0,1,0-3.13,3.12A3.13,3.13,0,0,0,235.36,84.14Z"/><path class="cls-63" d="M233.92,84.14a1.69,1.69,0,1,0-1.69,1.69A1.69,1.69,0,0,0,233.92,84.14Z"/><path class="cls-7" d="M58,72.63h0a1,1,0,0,0-1,1v31.47a1,1,0,0,0,1,1h90.44a.83.83,0,0,0,.83-.83V89.42h-14.7V75.26h19.5V88.88h3.64V75.26h19.42V88.88h2.73a1,1,0,0,0,1-1V73.46a.83.83,0,0,0-.83-.83Zm72.25,16.79H110.82V75.26h19.46Z"/><rect class="cls-34" x="73.09" y="79.64" width="32.57" height="12.07"/><rect class="cls-21" x="74.16" y="80.84" width="30.43" height="9.66"/><path class="cls-35" d="M104.5,80.94v9.47H74.26V80.94H104.5m.19-.19H74.07V90.6h30.62V80.75Z"/><rect class="cls-64" x="74.46" y="81.15" width="29.83" height="9.06"/><rect class="cls-65" x="74.65" y="81.32" width="14.64" height="8.72"/><rect class="cls-66" x="78.86" y="81.15" width="6.22" height="0.17"/><rect class="cls-67" x="79.45" y="81.15" width="5.03" height="0.49"/><rect class="cls-65" x="89.47" y="81.33" width="14.64" height="8.72"/><rect class="cls-66" x="93.68" y="81.16" width="6.22" height="0.17"/><rect class="cls-67" x="94.28" y="81.16" width="5.03" height="0.49"/><path class="cls-14" d="M65.76,72.63V91.71H73.1V79.64h32.57v-7Z"/><rect class="cls-28" x="67.28" y="86.57" width="4.53" height="0.35"/><rect class="cls-28" x="67.28" y="89.04" width="4.53" height="0.36"/><polyline class="cls-28" points="69.45 87.86 68.88 87.86 68.88 87.25 67.18 88.17 69.45 88.17"/><polyline class="cls-28" points="69.44 88.17 69.99 88.17 69.99 88.77 71.7 87.86 69.44 87.86"/><polygon class="cls-47" points="69.61 85.52 70.2 85.52 70.2 85.98 71.41 85.98 71.41 84.89 70.2 84.89 70.2 85.44 69.61 85.44 69.61 82.54 70.2 82.54 70.2 83.06 71.42 83.06 71.42 81.96 70.2 81.96 70.2 82.46 69.61 82.46 69.61 81.96 69.53 81.96 69.53 84.02 68.88 84.02 68.88 83.48 67.67 83.48 67.67 84.58 68.88 84.58 68.88 84.1 69.53 84.1 69.53 85.99 69.61 85.99 69.61 85.52"/><path class="cls-68" d="M101.05,75.57a1.14,1.14,0,0,1,1.13,1.14h0a1.14,1.14,0,1,1-1.13-1.14Z"/><path class="cls-68" d="M93,75.57a1.14,1.14,0,0,1,1.14,1.14h0A1.14,1.14,0,1,1,93,75.57Z"/><path class="cls-68" d="M85.67,75.57a1.14,1.14,0,0,1,1.14,1.14h0a1.14,1.14,0,1,1-1.14-1.14Z"/><path class="cls-68" d="M77.71,75.57a1.14,1.14,0,0,1,1.14,1.14h0a1.14,1.14,0,1,1-1.14-1.14Z"/><path class="cls-47" d="M85.85,74.94a.18.18,0,1,0-.36,0,.18.18,0,1,0,.36,0Z"/><path class="cls-47" d="M85.81,73.51a.15.15,0,0,0-.14-.16.15.15,0,0,0-.14.17h0l.06,1.08a.09.09,0,0,0,.09.08.1.1,0,0,0,.07-.08l.06-1.09Z"/><path class="cls-28" d="M75.7,75.12V73.36H76v1.46h.73v.3Z"/><path class="cls-28" d="M76.94,75.12V73.34h.29l.59,1.19V73.34h.28v1.78h-.3L77.21,74v1.16Z"/><path class="cls-28" d="M78.41,75.12V73.34h.29v.79l.6-.79h.39l-.54.69.57,1.09h-.38l-.4-.84-.24.3v.54Z"/><path class="cls-47" d="M101.23,74.94a.18.18,0,0,0-.18-.18.18.18,0,0,0-.19.18.19.19,0,1,0,.37,0Z"/><path class="cls-47" d="M101.19,73.51a.16.16,0,0,0-.15-.16.16.16,0,0,0-.14.17h0L101,74.6a.09.09,0,0,0,.09.08.11.11,0,0,0,.07-.08l.06-1.09Z"/><path class="cls-28" d="M91,75.12V73.36h.29v1.46H92v.3Z"/><path class="cls-28" d="M92.25,75.12V73.34h.28l.6,1.19V73.34h.27v1.78h-.29L92.52,74v1.16Z"/><path class="cls-28" d="M93.72,75.12V73.34H94v.79l.6-.79H95l-.55.69L95,75.12h-.38l-.4-.84-.24.3v.54Z"/><text class="cls-69" transform="translate(80.36 78.42)">0a</text><text class="cls-69" transform="translate(95.1 78.42)">0b</text><rect class="cls-14" x="110.82" y="72.63" width="43.25" height="16.79"/><polygon class="cls-3" points="111.1 89.19 111.05 75.5 130.03 75.44 130.09 89.19 111.1 89.19"/><path class="cls-9" d="M130,75.5V89.13H111.1V75.5H130m.11-.11H111V89.25h19.15V75.39Z"/><rect class="cls-10" x="111.72" y="76.12" width="17.69" height="12.39"/><polygon class="cls-11" points="113.8 84.92 113.8 88.03 127.34 88.03 127.34 84.92 126.93 84.8 126.93 82.72 127.34 82.6 127.34 78.72 124.34 78.72 124.34 77.16 123.15 77.16 123.15 76.61 117.98 76.61 117.98 77.16 116.8 77.16 116.8 78.72 113.8 78.72 113.8 82.6 114.2 82.72 114.2 84.8 113.8 84.92"/><rect class="cls-43" x="113.8" y="77.16" width="3.01" height="1.56"/><rect class="cls-43" x="124.34" y="77.16" width="3" height="1.56"/><polygon class="cls-12" points="117.68 87.85 117.66 84.05 118 84.03 118.02 87.85 117.68 87.85"/><path class="cls-13" d="M118,84.05v3.78h-.32V84.05H118m0,0h-.39v3.86H118V84Z"/><polygon class="cls-12" points="118.78 87.85 118.76 84.05 119.09 84.03 119.11 87.85 118.78 87.85"/><path class="cls-13" d="M119.09,84.05v3.78h-.31V84.05h.31m0,0h-.38v3.86h.38V84Z"/><polygon class="cls-12" points="119.87 87.85 119.85 84.05 120.18 84.03 120.19 87.85 119.87 87.85"/><path class="cls-13" d="M120.18,84.05v3.78h-.31V84.05h.31m0,0h-.38v3.86h.38V84Z"/><polygon class="cls-12" points="120.96 87.85 120.94 84.05 121.27 84.03 121.29 87.85 120.96 87.85"/><path class="cls-13" d="M121.27,84.05v3.78H121V84.05h.31m0,0h-.38v3.86h.38V84Z"/><polygon class="cls-12" points="122.05 87.85 122.03 84.05 122.36 84.03 122.38 87.85 122.05 87.85"/><path class="cls-13" d="M122.36,84.05v3.78h-.31V84.05h.31m0,0H122v3.86h.39V84Z"/><polygon class="cls-12" points="123.14 87.85 123.12 84.05 123.45 84.03 123.47 87.85 123.14 87.85"/><path class="cls-13" d="M123.45,84.05v3.78h-.31V84.05h.31m0,0h-.39v3.86h.39V84Z"/><polygon class="cls-12" points="124.23 87.85 124.21 84.05 124.54 84.03 124.56 87.85 124.23 87.85"/><path class="cls-13" d="M124.54,84.05v3.78h-.31V84.05h.31m0,0h-.39v3.86h.39V84Z"/><polygon class="cls-12" points="116.59 87.85 116.57 84.05 116.9 84.03 116.92 87.85 116.59 87.85"/><path class="cls-13" d="M116.9,84.05v3.78h-.31V84.05h.31m0,0h-.39v3.86h.39V84Z"/><polygon class="cls-3" points="134.89 89.19 134.83 75.5 153.81 75.44 153.87 89.19 134.89 89.19"/><path class="cls-9" d="M153.81,75.5V89.13H134.89V75.5h18.92m.12-.11H134.77V89.25h19.16V75.39Z"/><rect class="cls-10" x="135.51" y="76.12" width="17.69" height="12.39"/><polygon class="cls-11" points="137.58 84.92 137.58 88.03 151.12 88.03 151.12 84.92 150.71 84.8 150.71 82.72 151.12 82.6 151.12 78.72 148.12 78.72 148.12 77.16 146.94 77.16 146.94 76.61 141.76 76.61 141.76 77.16 140.59 77.16 140.59 78.72 137.58 78.72 137.58 82.6 137.99 82.72 137.99 84.8 137.58 84.92"/><rect class="cls-43" x="137.58" y="77.16" width="3.01" height="1.56"/><rect class="cls-43" x="148.12" y="77.16" width="3" height="1.56"/><polygon class="cls-12" points="141.47 87.85 141.45 84.05 141.78 84.03 141.8 87.85 141.47 87.85"/><path class="cls-13" d="M141.78,84.05v3.78h-.31V84.05h.31m0,0h-.39v3.86h.39V84Z"/><polygon class="cls-12" points="142.56 87.85 142.54 84.05 142.87 84.03 142.89 87.85 142.56 87.85"/><path class="cls-13" d="M142.87,84.05v3.78h-.31V84.05h.31m0,0h-.39v3.86h.39V84Z"/><polygon class="cls-12" points="143.65 87.85 143.63 84.05 143.96 84.03 143.98 87.85 143.65 87.85"/><path class="cls-13" d="M144,84.05v3.78h-.31V84.05H144m0,0h-.39v3.86H144V84Z"/><polygon class="cls-12" points="144.74 87.85 144.72 84.05 145.05 84.03 145.07 87.85 144.74 87.85"/><path class="cls-13" d="M145.05,84.05v3.78h-.31V84.05h.31m0,0h-.39v3.86h.39V84Z"/><polygon class="cls-12" points="145.83 87.85 145.81 84.05 146.14 84.03 146.16 87.85 145.83 87.85"/><path class="cls-13" d="M146.14,84.05v3.78h-.31V84.05h.31m0,0h-.39v3.86h.39V84Z"/><polygon class="cls-12" points="146.93 87.85 146.91 84.05 147.23 84.03 147.25 87.85 146.93 87.85"/><path class="cls-13" d="M147.23,84.05v3.78h-.31V84.05h.31m0,0h-.38v3.86h.38V84Z"/><polygon class="cls-12" points="148.02 87.85 148 84.05 148.32 84.03 148.34 87.85 148.02 87.85"/><path class="cls-13" d="M148.32,84.05v3.78H148V84.05h.3m0,0H148v3.86h.38V84Z"/><polygon class="cls-12" points="140.38 87.85 140.36 84.05 140.68 84.03 140.7 87.85 140.38 87.85"/><path class="cls-13" d="M140.68,84.05v3.78h-.31V84.05h.31m0,0h-.38v3.86h.38V84Z"/><polygon class="cls-3" points="157.95 89.19 157.89 75.5 176.87 75.44 176.93 89.19 157.95 89.19"/><path class="cls-9" d="M176.87,75.5V89.13H158V75.5h18.92m.12-.11H157.83V89.25H177V75.39Z"/><rect class="cls-10" x="158.57" y="76.12" width="17.69" height="12.39"/><polygon class="cls-11" points="160.64 84.92 160.64 88.03 174.18 88.03 174.18 84.92 173.78 84.8 173.78 82.72 174.18 82.6 174.18 78.72 171.18 78.72 171.18 77.16 170 77.16 170 76.61 164.82 76.61 164.82 77.16 163.65 77.16 163.65 78.72 160.64 78.72 160.64 82.6 161.05 82.72 161.05 84.8 160.64 84.92"/><polygon class="cls-12" points="164.53 87.85 164.51 84.05 164.84 84.03 164.86 87.85 164.53 87.85"/><path class="cls-13" d="M164.84,84.05v3.78h-.31V84.05h.31m0,0h-.39v3.86h.39V84Z"/><polygon class="cls-12" points="165.62 87.85 165.6 84.05 165.93 84.03 165.95 87.85 165.62 87.85"/><path class="cls-13" d="M165.93,84.05v3.78h-.31V84.05h.31m0,0h-.39v3.86H166V84Z"/><polygon class="cls-12" points="166.71 87.85 166.69 84.05 167.02 84.03 167.04 87.85 166.71 87.85"/><path class="cls-13" d="M167,84.05v3.78h-.31V84.05H167m0,0h-.39v3.86h.39V84Z"/><polygon class="cls-12" points="167.8 87.85 167.78 84.05 168.11 84.03 168.13 87.85 167.8 87.85"/><path class="cls-13" d="M168.11,84.05v3.78h-.31V84.05h.31m0,0h-.39v3.86h.39V84Z"/><polygon class="cls-12" points="168.89 87.85 168.87 84.05 169.2 84.03 169.22 87.85 168.89 87.85"/><path class="cls-13" d="M169.2,84.05v3.78h-.31V84.05h.31m0,0h-.39v3.86h.39V84Z"/><polygon class="cls-12" points="169.99 87.85 169.97 84.05 170.3 84.03 170.31 87.85 169.99 87.85"/><path class="cls-13" d="M170.3,84.05v3.78H170V84.05h.31m0,0H170v3.86h.38V84Z"/><polygon class="cls-12" points="171.08 87.85 171.06 84.05 171.39 84.03 171.41 87.85 171.08 87.85"/><path class="cls-13" d="M171.39,84.05v3.78h-.31V84.05h.31m0,0H171v3.86h.38V84Z"/><polygon class="cls-12" points="163.44 87.85 163.42 84.05 163.75 84.03 163.76 87.85 163.44 87.85"/><path class="cls-13" d="M163.75,84.05v3.78h-.31V84.05h.31m0,0h-.38v3.86h.38V84Z"/><rect class="cls-70" x="109.29" y="104.55" width="0.35" height="0.34"/><polygon class="cls-71" points="109.36 104.28 109.56 104.28 109.65 102.97 109.65 102.43 109.27 102.43 109.27 102.97 109.36 104.28"/><polygon class="cls-71" points="116.12 105.03 116.49 103.74 117.17 103.74 117.17 103.57 116.36 103.57 116.11 104.42 115.91 102.29 115.8 102.29 115.42 103.57 114.74 103.57 114.74 103.74 115.55 103.74 115.8 102.89 116 105.03 116.12 105.03"/><path class="cls-71" d="M103,102.25a1.41,1.41,0,1,0,1.41,1.41A1.41,1.41,0,0,0,103,102.25Zm0,2.64a1.23,1.23,0,1,1,1.23-1.23A1.23,1.23,0,0,1,103,104.89Z"/><path class="cls-71" d="M103.21,102.91a.54.54,0,0,0-.72.23.53.53,0,0,0,0,.49l.42.8a.06.06,0,0,0,.08,0l0,0,.42-.8A.54.54,0,0,0,103.21,102.91Zm-.25.71a.24.24,0,1,1,.23-.23A.23.23,0,0,1,103,103.62Z"/><path class="cls-72" d="M104,100a1.08,1.08,0,1,0-1.08,1.09A1.08,1.08,0,0,0,104,100Z"/><path class="cls-73" d="M104.05,100a1.09,1.09,0,1,0-1.09,1.09A1.09,1.09,0,0,0,104.05,100Z"/><path class="cls-72" d="M110.54,100a1.08,1.08,0,1,0-1.08,1.09A1.08,1.08,0,0,0,110.54,100Z"/><path class="cls-73" d="M110.54,100a1.08,1.08,0,1,0-1.08,1.09A1.08,1.08,0,0,0,110.54,100Z"/><path class="cls-72" d="M117,100a1.09,1.09,0,1,0-1.08,1.09A1.09,1.09,0,0,0,117,100Z"/><path class="cls-73" d="M117,100a1.09,1.09,0,1,0-1.08,1.09A1.09,1.09,0,0,0,117,100Z"/><path class="cls-15" d="M91.78,103.38a1.23,1.23,0,1,1,0,.56h-.2a1.42,1.42,0,0,0,1.66,1.1,1.41,1.41,0,1,0-.56-2.76,1.43,1.43,0,0,0-1.1,1.1Z"/><rect class="cls-25" x="90.06" y="103.57" width="0.2" height="0.19"/><rect class="cls-25" x="90.56" y="103.57" width="0.38" height="0.19"/><rect class="cls-25" x="91.23" y="103.57" width="0.53" height="0.19"/><polygon class="cls-15" points="92.05 103.75 92.48 103.75 92.48 103.94 92.96 103.66 92.48 103.38 92.48 103.56 92.05 103.56 92.05 103.75"/><path class="cls-72" d="M94,100A1.09,1.09,0,1,0,93,101.07,1.09,1.09,0,0,0,94,100Z"/><path class="cls-73" d="M94,100A1.09,1.09,0,1,0,93,101.07,1.09,1.09,0,0,0,94,100Z"/><polyline class="cls-74" points="89.89 99.23 89.89 100.17 88.94 100.17"/><polyline class="cls-74" points="62.91 99.22 62.91 100.17 63.85 100.17"/><path class="cls-60" d="M133.24,79.37l.16-.27h.2V79a.48.48,0,0,0-.23-.07.42.42,0,0,0-.38.24h-1.13a.48.48,0,0,0-.45-.31.5.5,0,0,0-.26.08v.12h.23l.17.3-.17.31h-.23v.09a.5.5,0,0,0,.26.08.51.51,0,0,0,.47-.34H133a.42.42,0,0,0,.4.28.39.39,0,0,0,.23-.07v-.1h-.2Z"/><polygon class="cls-75" points="132.41 85.49 132.74 85.49 132.74 85.75 133.42 85.75 133.42 85.14 132.74 85.14 132.74 85.45 132.41 85.45 132.41 83.83 132.74 83.83 132.74 84.12 133.42 84.12 133.42 83.5 132.74 83.5 132.74 83.78 132.41 83.78 132.41 83.5 132.37 83.5 132.37 84.65 132 84.65 132 84.36 131.32 84.36 131.32 84.97 132 84.97 132 84.69 132.37 84.69 132.37 85.75 132.41 85.75 132.41 85.49"/><text class="cls-76" transform="translate(119.02 74.98)">P1</text><text class="cls-76" transform="translate(142.81 74.98)">P2</text><rect class="cls-10" x="132.61" y="95.19" width="8.93" height="10.01"/><rect class="cls-10" x="122.4" y="95.19" width="8.93" height="10.01"/><polygon class="cls-3" points="122.81 104.8 130.92 104.8 130.93 104.8 130.93 104.8 130.93 95.61 130.92 95.6 122.81 95.6 122.81 95.61 122.81 104.8 122.81 104.8"/><polygon class="cls-3" points="133.02 104.8 141.13 104.8 141.14 104.8 141.14 104.8 141.14 95.61 141.13 95.6 133.02 95.6 133.01 95.61 133.01 104.8 133.02 104.8"/><rect class="cls-30" x="123.08" y="95.87" width="7.58" height="8.66"/><rect class="cls-77" x="123.08" y="95.87" width="7.58" height="8.66"/><path class="cls-32" d="M128,98.27h0l.49-.42a.05.05,0,0,0,0-.08h0l-.17-.2,0,0h-2l-.24.21a.05.05,0,0,0,0,.08h0l.34.41a.06.06,0,0,0,0,0Z"/><path class="cls-32" d="M128.12,100.12l.39-.32s0,0,0,0l.29-1.61a.09.09,0,0,0,0-.05l-.17-.2a.06.06,0,0,0-.08,0l-.5.42s0,0,0,0l-.25,1.42a.07.07,0,0,0,0,0l.25.3A.06.06,0,0,0,128.12,100.12Z"/><path class="cls-32" d="M128,100.28l-.38.32a0,0,0,0,0,0,0l-.26,1.42s0,0,0,0l.34.41a.07.07,0,0,0,.09,0l.24-.21,0,0,.29-1.65a.07.07,0,0,0,0,0l-.25-.3A.06.06,0,0,0,128,100.28Z"/><path class="cls-32" d="M127.57,100.57l0,0,.38-.32a.05.05,0,0,0,0-.08h0l-.25-.3,0,0h-1.53l0,0-.38.32a.05.05,0,0,0,0,.08h0l.25.3,0,0Z"/><path class="cls-32" d="M125.7,100.12l.39-.32,0,0,.25-1.42a.17.17,0,0,0,0,0l-.34-.41a.06.06,0,0,0-.08,0l-.25.2a.05.05,0,0,0,0,0l-.29,1.64a.07.07,0,0,0,0,0l.25.3A.06.06,0,0,0,125.7,100.12Z"/><path class="cls-32" d="M127.39,102.86h0l.25-.21a.06.06,0,0,0,0-.08h0l-.34-.41,0,0h-1.57l-.49.42a.05.05,0,0,0,0,.08h0l.17.2,0,0Z"/><path class="cls-32" d="M125.7,102.06l.25-1.42a.07.07,0,0,0,0,0l-.25-.3a.06.06,0,0,0-.08,0l-.38.32a.08.08,0,0,0,0,0l-.29,1.61a.07.07,0,0,0,0,0l.17.2a.07.07,0,0,0,.09,0l.49-.42Z"/><path class="cls-32" d="M129.71,102.45a.41.41,0,0,0-.41-.42.42.42,0,0,0-.42.42.41.41,0,0,0,.42.41A.41.41,0,0,0,129.71,102.45Z"/><path class="cls-78" d="M128,98.27h0l.49-.42a.05.05,0,0,0,0-.08h0l-.17-.2,0,0h-2l-.24.21a.05.05,0,0,0,0,.08h0l.34.41a.06.06,0,0,0,0,0Z"/><path class="cls-78" d="M128.12,100.12l.39-.32s0,0,0,0l.29-1.61a.09.09,0,0,0,0-.05l-.17-.2a.06.06,0,0,0-.08,0l-.5.42s0,0,0,0l-.25,1.42a.07.07,0,0,0,0,0l.25.3A.06.06,0,0,0,128.12,100.12Z"/><path class="cls-78" d="M128,100.28l-.38.32a0,0,0,0,0,0,0l-.26,1.42s0,0,0,0l.34.41a.07.07,0,0,0,.09,0l.24-.21,0,0,.29-1.65a.07.07,0,0,0,0,0l-.25-.3A.06.06,0,0,0,128,100.28Z"/><path class="cls-78" d="M127.57,100.57l0,0,.38-.32a.05.05,0,0,0,0-.08h0l-.25-.3,0,0h-1.53l0,0-.38.32a.05.05,0,0,0,0,.08h0l.25.3,0,0Z"/><path class="cls-78" d="M125.7,100.12l.39-.32,0,0,.25-1.42a.17.17,0,0,0,0,0l-.34-.41a.06.06,0,0,0-.08,0l-.25.2a.05.05,0,0,0,0,0l-.29,1.64a.07.07,0,0,0,0,0l.25.3A.06.06,0,0,0,125.7,100.12Z"/><path class="cls-78" d="M127.39,102.86h0l.25-.21a.06.06,0,0,0,0-.08h0l-.34-.41,0,0h-1.57l-.49.42a.05.05,0,0,0,0,.08h0l.17.2,0,0Z"/><path class="cls-78" d="M125.7,102.06l.25-1.42a.07.07,0,0,0,0,0l-.25-.3a.06.06,0,0,0-.08,0l-.38.32a.08.08,0,0,0,0,0l-.29,1.61a.07.07,0,0,0,0,0l.17.2a.07.07,0,0,0,.09,0l.49-.42Z"/><path class="cls-78" d="M129.71,102.45a.41.41,0,0,0-.41-.42.42.42,0,0,0-.42.42.41.41,0,0,0,.42.41A.41.41,0,0,0,129.71,102.45Z"/><rect class="cls-30" x="133.29" y="95.87" width="7.58" height="8.66"/><rect class="cls-77" x="133.29" y="95.87" width="7.58" height="8.66"/><path class="cls-32" d="M136,102.13h0l-.49.42a.05.05,0,0,0,0,.08h0l.17.2,0,0h2l.25-.21a.06.06,0,0,0,0-.08h0l-.34-.41-.05,0Z"/><path class="cls-32" d="M135.82,100.28l-.38.32a.08.08,0,0,0,0,0l-.29,1.61a.07.07,0,0,0,0,0l.17.2a.07.07,0,0,0,.09,0l.49-.42,0,0,.25-1.42a.07.07,0,0,0,0,0l-.25-.3A.06.06,0,0,0,135.82,100.28Z"/><path class="cls-32" d="M135.91,100.12l.39-.32s0,0,0,0l.25-1.42a.17.17,0,0,0,0,0l-.34-.41a.06.06,0,0,0-.08,0l-.25.2a.05.05,0,0,0,0,0l-.29,1.64a.07.07,0,0,0,0,0l.25.3A.06.06,0,0,0,135.91,100.12Z"/><path class="cls-32" d="M136.38,99.83l0,0-.38.32a.05.05,0,0,0,0,.08h0l.25.3,0,0h1.54l0,0,.38-.32a.05.05,0,0,0,0-.08h0l-.25-.3,0,0Z"/><path class="cls-32" d="M138.24,100.28l-.38.32a.08.08,0,0,0,0,0h0l-.25,1.42s0,0,0,0l.34.41a.07.07,0,0,0,.09,0l.24-.21,0,0,.29-1.65a.07.07,0,0,0,0,0l-.25-.3A.06.06,0,0,0,138.24,100.28Z"/><path class="cls-32" d="M136.55,97.54h0l-.24.21a.05.05,0,0,0,0,.08h0l.34.41a.06.06,0,0,0,.05,0h1.57l.49-.42a.05.05,0,0,0,0-.08h0l-.17-.2,0,0Z"/><path class="cls-32" d="M138.24,98.34,138,99.76a.07.07,0,0,0,0,0l.25.3a.06.06,0,0,0,.08,0l.39-.32,0,0,.28-1.61a.09.09,0,0,0,0-.05l-.17-.2a.06.06,0,0,0-.08,0l-.5.42S138.24,98.33,138.24,98.34Z"/><path class="cls-32" d="M134.23,98a.41.41,0,0,0,.41.41.42.42,0,1,0,0-.83A.41.41,0,0,0,134.23,98Z"/><path class="cls-78" d="M136,102.13h0l-.49.42a.05.05,0,0,0,0,.08h0l.17.2,0,0h2l.25-.21a.06.06,0,0,0,0-.08h0l-.34-.41-.05,0Z"/><path class="cls-78" d="M135.82,100.28l-.38.32a.08.08,0,0,0,0,0l-.29,1.61a.07.07,0,0,0,0,0l.17.2a.07.07,0,0,0,.09,0l.49-.42,0,0,.25-1.42a.07.07,0,0,0,0,0l-.25-.3A.06.06,0,0,0,135.82,100.28Z"/><path class="cls-78" d="M135.91,100.12l.39-.32s0,0,0,0l.25-1.42a.17.17,0,0,0,0,0l-.34-.41a.06.06,0,0,0-.08,0l-.25.2a.05.05,0,0,0,0,0l-.29,1.64a.07.07,0,0,0,0,0l.25.3A.06.06,0,0,0,135.91,100.12Z"/><path class="cls-78" d="M136.38,99.83l0,0-.38.32a.05.05,0,0,0,0,.08h0l.25.3,0,0h1.54l0,0,.38-.32a.05.05,0,0,0,0-.08h0l-.25-.3,0,0Z"/><path class="cls-78" d="M138.24,100.28l-.38.32a.08.08,0,0,0,0,0h0l-.25,1.42s0,0,0,0l.34.41a.07.07,0,0,0,.09,0l.24-.21,0,0,.29-1.65a.07.07,0,0,0,0,0l-.25-.3A.06.06,0,0,0,138.24,100.28Z"/><path class="cls-78" d="M136.55,97.54h0l-.24.21a.05.05,0,0,0,0,.08h0l.34.41a.06.06,0,0,0,.05,0h1.57l.49-.42a.05.05,0,0,0,0-.08h0l-.17-.2,0,0Z"/><path class="cls-78" d="M138.24,98.34,138,99.76a.07.07,0,0,0,0,0l.25.3a.06.06,0,0,0,.08,0l.39-.32,0,0,.28-1.61a.09.09,0,0,0,0-.05l-.17-.2a.06.06,0,0,0-.08,0l-.5.42S138.24,98.33,138.24,98.34Z"/><path class="cls-78" d="M134.23,98a.41.41,0,0,0,.41.41.42.42,0,1,0,0-.83A.41.41,0,0,0,134.23,98Z"/><polyline class="cls-74" points="144.88 94.07 144.88 95.01 143.94 95.02"/><polyline class="cls-74" points="117.91 94.17 117.91 95.12 118.85 95.12"/><rect class="cls-25" x="169.69" y="73.08" width="0.17" height="1.74"/><path class="cls-15" d="M168.6,73.08a.87.87,0,1,0,.87.87A.87.87,0,0,0,168.6,73.08Zm0,1.57a.7.7,0,1,1,.7-.7A.69.69,0,0,1,168.6,74.65Z"/><rect class="cls-25" x="167.34" y="73.08" width="0.17" height="1.74"/><path class="cls-15" d="M166.25,73.08a.87.87,0,1,0,.87.87A.87.87,0,0,0,166.25,73.08Zm0,1.57a.7.7,0,1,1,.7-.7A.69.69,0,0,1,166.25,74.65Z"/><rect class="cls-25" x="164.99" y="73.08" width="0.17" height="1.74"/></g><g id="BLANK"><path class="cls-57" d="M235,106.17h37.83a.68.68,0,0,0,.68-.67h0V89.4h1.57a.52.52,0,0,0,.53-.52h0V73.3a.68.68,0,0,0-.68-.67H182.29a.82.82,0,0,0-.82.82V88a1.36,1.36,0,0,1-1.37,1.36H149.89v15.95a.83.83,0,0,0,.83.82Z"/><rect class="cls-34" x="191.27" y="76.34" width="14.19" height="10.37" rx="0.81" ry="0.81"/><path class="cls-44" d="M195.54,83.28a1,1,0,0,1-.7-.28l-.64-.65a.94.94,0,0,1-.29-.69v-1a1,1,0,0,1,1-1h6.9a1,1,0,0,1,1,1v1a1,1,0,0,1-.28.69l-.65.65a1,1,0,0,1-.7.28Z"/><path class="cls-45" d="M202.41,81.66v-1a.61.61,0,0,0-.61-.61h-6.9a.61.61,0,0,0-.61.61v1a.6.6,0,0,0,.18.43l.64.64a.62.62,0,0,0,.43.18h5.61a.6.6,0,0,0,.43-.18l.65-.64A.64.64,0,0,0,202.41,81.66Z"/><path class="cls-46" d="M202.34,81.54V80.8a.63.63,0,0,0-.64-.64H195a.64.64,0,0,0-.64.64v.74a.66.66,0,0,0,.19.46l.64.63a.64.64,0,0,0,.45.19h5.44a.64.64,0,0,0,.45-.19l.64-.63A.65.65,0,0,0,202.34,81.54Z"/><path class="cls-47" d="M202,81.54V80.8a.32.32,0,0,0-.32-.32H195a.32.32,0,0,0-.32.32v.74a.32.32,0,0,0,.09.23l.64.64a.32.32,0,0,0,.23.09h5.44a.31.31,0,0,0,.22-.09l.64-.64A.32.32,0,0,0,202,81.54Z"/><polygon class="cls-48" points="198.13 81.31 198.13 81.19 198.56 81.18 198.57 81.31 198.13 81.31"/><path class="cls-13" d="M198.56,81.19v.11h-.43v-.11h.43m0,0h-.46v.15h.46v-.15Z"/><polygon class="cls-48" points="198.83 81.31 198.82 81.19 199.25 81.18 199.26 81.31 198.83 81.31"/><path class="cls-13" d="M199.25,81.19v.11h-.42v-.11h.42m0,0h-.46v.15h.46v-.15Z"/><polygon class="cls-48" points="199.52 81.31 199.51 81.19 199.95 81.18 199.96 81.31 199.52 81.31"/><path class="cls-13" d="M200,81.19v.11h-.43v-.11H200m0,0h-.47v.15H200v-.15Z"/><polygon class="cls-48" points="196.75 81.31 196.74 81.19 197.18 81.18 197.18 81.31 196.75 81.31"/><path class="cls-13" d="M197.18,81.19v.11h-.43v-.11h.43m0,0h-.46v.15h.46v-.15Z"/><polygon class="cls-12" points="197.44 81.31 197.43 81.19 197.87 81.18 197.88 81.31 197.44 81.31"/><path class="cls-13" d="M197.87,81.19v.11h-.43v-.11h.43m0,0h-.47v.15h.47v-.15Z"/><path class="cls-18" d="M198.58,82.91h2.2a.21.21,0,0,0,.13-.2V82.5h-2.54v.21a.21.21,0,0,0,.13.2Z"/><path class="cls-18" d="M196,82.91h2.2a.21.21,0,0,0,.13-.2V82.5h-2.54v.21a.21.21,0,0,0,.13.2Z"/><path class="cls-18" d="M194.29,81.39a.2.2,0,0,0,.17.09h.21v-.62h-.21a.2.2,0,0,0-.17.09Z"/><path class="cls-18" d="M201.38,80.07h-6.15a.21.21,0,0,0-.13.19v.22h6.5v-.22a.21.21,0,0,0-.13-.19Z"/><path class="cls-18" d="M202.41,81a.21.21,0,0,0-.17-.09H202v.62h.22a.21.21,0,0,0,.17-.09Z"/><path class="cls-49" d="M199.25,81.4h.27v-.21H200v.21H200a.18.18,0,0,0,.18-.18h0V81a.18.18,0,0,0-.18-.18h-3.37a.18.18,0,0,0-.18.18v.25a.18.18,0,0,0,.18.18h.09v-.21h.43v.21h.26v-.21h.43v.21h.26v-.21h.43v.21h.27v-.21h.42Z"/><rect class="cls-25" x="200.63" y="73.59" width="0.17" height="1.74"/><path class="cls-15" d="M199.54,73.59a.87.87,0,1,0,.87.87A.87.87,0,0,0,199.54,73.59Zm0,1.56a.7.7,0,1,1,0-1.39.7.7,0,1,1,0,1.39Z"/><rect class="cls-25" x="198.28" y="73.59" width="0.17" height="1.74"/><path class="cls-15" d="M197.19,73.59a.87.87,0,1,0,.87.87A.87.87,0,0,0,197.19,73.59Zm0,1.56a.7.7,0,1,1,.7-.69A.7.7,0,0,1,197.19,75.15Z"/><rect class="cls-25" x="195.93" y="73.59" width="0.17" height="1.74"/><rect class="cls-14" x="242.21" y="75.97" width="26.02" height="22.17"/><path class="cls-16" d="M243.61,94.54a1.38,1.38,0,0,1-1-.42,1.41,1.41,0,0,1-.41-1V82a1.37,1.37,0,0,1,.41-1,1.43,1.43,0,0,1,1-.41h23.07A1.4,1.4,0,0,1,268.1,82V93.12a1.4,1.4,0,0,1-1.41,1.42Z"/><path class="cls-17" d="M266.69,94a.82.82,0,0,0,.59-.25.79.79,0,0,0,.24-.59V82a.85.85,0,0,0-.24-.59.81.81,0,0,0-.59-.24H243.62a.85.85,0,0,0-.59.24.86.86,0,0,0-.25.59V93.13a.83.83,0,0,0,.25.58.82.82,0,0,0,.59.25Z"/><path class="cls-18" d="M266.69,93.54a.41.41,0,0,0,.42-.41h0V82a.42.42,0,0,0-.42-.42H243.62a.42.42,0,0,0-.42.42V93.13a.41.41,0,0,0,.42.41Z"/><path class="cls-11" d="M266.69,81.77a.22.22,0,0,1,.22.22h0V93.13a.22.22,0,0,1-.22.22H255.25V81.77Z"/><path class="cls-11" d="M243.62,81.77a.22.22,0,0,0-.22.22h0V93.13a.22.22,0,0,0,.22.22h11.44V81.77Z"/><rect class="cls-19" x="245.64" y="93.35" width="7.18" height="0.2"/><rect class="cls-19" x="257.49" y="93.35" width="7.18" height="0.2"/><rect class="cls-20" x="259.06" y="93.35" width="4.04" height="0.2"/><rect class="cls-20" x="247.2" y="93.35" width="4.04" height="0.2"/><rect class="cls-21" x="244.42" y="83.24" width="9.6" height="8.63"/><rect class="cls-22" x="244.65" y="84.39" width="9.15" height="2.03"/><rect class="cls-21" x="244.93" y="84.77" width="8.6" height="1.27"/><rect class="cls-79" x="252.34" y="83.99" width="0.2" height="2.84"/><rect class="cls-79" x="249.93" y="83.99" width="0.2" height="2.84"/><rect class="cls-79" x="249.13" y="83.99" width="0.2" height="2.84"/><rect class="cls-79" x="247.52" y="83.99" width="0.2" height="2.84"/><rect class="cls-79" x="246.71" y="83.99" width="0.2" height="2.84"/><rect class="cls-79" x="245.91" y="83.99" width="0.2" height="2.84"/><rect class="cls-79" x="251.54" y="83.99" width="0.2" height="2.84"/><rect class="cls-79" x="250.73" y="83.99" width="0.2" height="2.84"/><rect class="cls-79" x="248.32" y="83.99" width="0.2" height="2.84"/><rect class="cls-8" x="245.17" y="85.03" width="8.12" height="0.76"/><rect class="cls-22" x="244.65" y="88.7" width="9.15" height="2.03"/><rect class="cls-21" x="244.93" y="89.08" width="8.6" height="1.27"/><rect class="cls-79" x="252.34" y="88.29" width="0.2" height="2.84"/><rect class="cls-79" x="249.93" y="88.29" width="0.2" height="2.84"/><rect class="cls-79" x="249.13" y="88.29" width="0.2" height="2.84"/><rect class="cls-79" x="247.52" y="88.29" width="0.2" height="2.84"/><rect class="cls-79" x="246.71" y="88.29" width="0.2" height="2.84"/><rect class="cls-79" x="245.91" y="88.29" width="0.2" height="2.84"/><rect class="cls-79" x="251.54" y="88.29" width="0.2" height="2.84"/><rect class="cls-79" x="250.73" y="88.29" width="0.2" height="2.84"/><rect class="cls-79" x="248.32" y="88.29" width="0.2" height="2.84"/><rect class="cls-8" x="245.17" y="89.34" width="8.12" height="0.76"/><rect class="cls-21" x="256.28" y="83.24" width="9.6" height="8.63"/><rect class="cls-22" x="256.51" y="84.39" width="9.15" height="2.03"/><rect class="cls-21" x="256.78" y="84.77" width="8.6" height="1.27"/><rect class="cls-79" x="264.2" y="83.99" width="0.2" height="2.84"/><rect class="cls-79" x="261.79" y="83.99" width="0.2" height="2.84"/><rect class="cls-79" x="260.98" y="83.99" width="0.2" height="2.84"/><rect class="cls-79" x="259.38" y="83.99" width="0.2" height="2.84"/><rect class="cls-79" x="258.57" y="83.99" width="0.2" height="2.84"/><rect class="cls-79" x="257.77" y="83.99" width="0.2" height="2.84"/><rect class="cls-79" x="263.4" y="83.99" width="0.2" height="2.84"/><rect class="cls-79" x="262.59" y="83.99" width="0.2" height="2.84"/><rect class="cls-79" x="260.18" y="83.99" width="0.2" height="2.84"/><rect class="cls-8" x="257.02" y="85.03" width="8.12" height="0.76"/><rect class="cls-22" x="256.51" y="88.7" width="9.15" height="2.03"/><rect class="cls-21" x="256.78" y="89.08" width="8.6" height="1.27"/><rect class="cls-79" x="264.2" y="88.29" width="0.2" height="2.84"/><rect class="cls-79" x="261.79" y="88.29" width="0.2" height="2.84"/><rect class="cls-79" x="260.98" y="88.29" width="0.2" height="2.84"/><rect class="cls-79" x="259.38" y="88.29" width="0.2" height="2.84"/><rect class="cls-79" x="258.57" y="88.29" width="0.2" height="2.84"/><rect class="cls-79" x="257.77" y="88.29" width="0.2" height="2.84"/><rect class="cls-79" x="263.4" y="88.29" width="0.2" height="2.84"/><rect class="cls-79" x="262.59" y="88.29" width="0.2" height="2.84"/><rect class="cls-79" x="260.18" y="88.29" width="0.2" height="2.84"/><rect class="cls-8" x="257.02" y="89.34" width="8.12" height="0.76"/><path class="cls-80" d="M260,93.36l.31-.24a.28.28,0,0,1,.18-.06h1.17a.32.32,0,0,1,.18.06l.31.24h.53a.32.32,0,0,1-.18-.06l-.5-.39a.54.54,0,0,0-.34-.12H260.5a.54.54,0,0,0-.34.12l-.51.39a.28.28,0,0,1-.18.06Z"/><path class="cls-80" d="M248.15,93.36l.31-.24a.3.3,0,0,1,.18-.06h1.17a.3.3,0,0,1,.18.06l.31.24h.54a.28.28,0,0,1-.18-.06l-.51-.39a.54.54,0,0,0-.34-.12h-1.17a.54.54,0,0,0-.34.12l-.51.39a.27.27,0,0,1-.17.06Z"/><path class="cls-29" d="M240.69,83.79a1.27,1.27,0,1,0-1.27,1.27A1.27,1.27,0,0,0,240.69,83.79Z"/><path class="cls-29" d="M240.69,89.2a1.27,1.27,0,1,0-2.53,0,1.27,1.27,0,0,0,2.53,0Z"/><path class="cls-29" d="M272.15,83.79a1.27,1.27,0,1,0-1.26,1.27A1.26,1.26,0,0,0,272.15,83.79Z"/><path class="cls-29" d="M272.15,89.2a1.27,1.27,0,1,0-1.26,1.26A1.26,1.26,0,0,0,272.15,89.2Z"/><path class="cls-15" d="M239.74,80.84a.32.32,0,0,0-.63,0,.32.32,0,1,0,.63,0Z"/><path class="cls-15" d="M239.67,78.39a.26.26,0,0,0-.25-.28.26.26,0,0,0-.24.29h0l.11,1.85a.13.13,0,0,0,.15.12.15.15,0,0,0,.12-.13l.11-1.86Z"/><path class="cls-25" d="M237.41,93.11V91.35h.29v1.46h.74v.3Z"/><path class="cls-25" d="M238.65,93.11V91.34h.29l.59,1.18V91.34h.28v1.77h-.3L238.92,92v1.16Z"/><path class="cls-25" d="M240.12,93.11V91.34h.29v.79l.6-.79h.39l-.55.69.58,1.08h-.38l-.4-.83-.24.3v.53Z"/><path class="cls-15" d="M271.2,80.84a.31.31,0,0,0-.31-.31.31.31,0,0,0-.32.31.32.32,0,0,0,.32.32A.31.31,0,0,0,271.2,80.84Z"/><path class="cls-15" d="M271.13,78.39a.25.25,0,0,0-.24-.28.27.27,0,0,0-.25.29h0l.11,1.85a.14.14,0,0,0,.16.12.14.14,0,0,0,.11-.13l.11-1.86Z"/><path class="cls-25" d="M268.88,93.11V91.35h.29v1.46h.73v.3Z"/><path class="cls-25" d="M270.12,93.11V91.34h.28l.6,1.18V91.34h.27v1.77H271L270.39,92v1.16Z"/><path class="cls-25" d="M271.59,93.11V91.34h.29v.79l.59-.79h.4l-.55.69.58,1.08h-.38l-.4-.83-.24.3v.53Z"/><text class="cls-69" transform="translate(245.59 97.15)">EXP1</text><text class="cls-69" transform="translate(257.32 97.15)">EXP2</text><rect class="cls-28" x="247.52" y="78.25" width="0.89" height="0.3"/><path class="cls-47" d="M252.58,78.06h-.22l-.23.83h.18l0-.18h.24l0,.18h.18Zm-.2.51.09-.37h0l.09.37Z"/><path class="cls-47" d="M249.72,78.85a.09.09,0,0,0-.09-.09.09.09,0,1,0,0,.17A.09.09,0,0,0,249.72,78.85Z"/><path class="cls-47" d="M250,79a.1.1,0,0,0-.1-.09.09.09,0,1,0,0,.18A.1.1,0,0,0,250,79Z"/><path class="cls-47" d="M250.33,79.12a.09.09,0,0,0-.18,0,.09.09,0,0,0,.18,0Z"/><path class="cls-47" d="M250.64,79.25a.09.09,0,0,0-.18,0,.09.09,0,1,0,.18,0Z"/><path class="cls-47" d="M251,79.39a.09.09,0,0,0-.09-.09.09.09,0,1,0,0,.18A.09.09,0,0,0,251,79.39Z"/><path class="cls-47" d="M251.26,79.52a.1.1,0,0,0-.1-.08.09.09,0,0,0-.09.08.09.09,0,0,0,.09.09A.1.1,0,0,0,251.26,79.52Z"/><path class="cls-47" d="M249.75,78.47a.09.09,0,1,0-.09.09A.09.09,0,0,0,249.75,78.47Z"/><path class="cls-47" d="M250.09,78.47a.09.09,0,0,0-.09-.09.09.09,0,1,0,0,.18A.09.09,0,0,0,250.09,78.47Z"/><path class="cls-47" d="M250.43,78.47a.09.09,0,0,0-.09-.09.09.09,0,1,0,0,.18A.09.09,0,0,0,250.43,78.47Z"/><path class="cls-47" d="M250.77,78.47a.09.09,0,0,0-.09-.09.09.09,0,1,0,0,.18A.09.09,0,0,0,250.77,78.47Z"/><path class="cls-47" d="M251.11,78.47a.09.09,0,0,0-.1-.09.09.09,0,1,0,0,.18A.09.09,0,0,0,251.11,78.47Z"/><path class="cls-47" d="M251.45,78.47a.09.09,0,0,0-.1-.09.09.09,0,0,0,0,.18A.09.09,0,0,0,251.45,78.47Z"/><path class="cls-47" d="M251.79,78.47a.1.1,0,0,0-.1-.09.09.09,0,1,0,0,.18A.1.1,0,0,0,251.79,78.47Z"/><path class="cls-47" d="M249.72,78.1a.09.09,0,0,0-.09-.09.09.09,0,1,0,0,.18A.09.09,0,0,0,249.72,78.1Z"/><path class="cls-47" d="M250,78a.09.09,0,0,0-.1-.08.08.08,0,0,0-.09.08.09.09,0,0,0,.09.09A.1.1,0,0,0,250,78Z"/><path class="cls-47" d="M250.33,77.83a.09.09,0,1,0-.09.09A.09.09,0,0,0,250.33,77.83Z"/><path class="cls-47" d="M250.64,77.69a.09.09,0,1,0-.09.09A.09.09,0,0,0,250.64,77.69Z"/><path class="cls-47" d="M251,77.56a.09.09,0,0,0-.09-.09.09.09,0,1,0,0,.17A.09.09,0,0,0,251,77.56Z"/><path class="cls-47" d="M251.26,77.42a.1.1,0,0,0-.1-.09.09.09,0,0,0,0,.18A.1.1,0,0,0,251.26,77.42Z"/><path class="cls-47" d="M252.33,77.54h-.17v0c0,.15.08.24.27.24s.31-.08.31-.25a.22.22,0,0,0-.17-.22l-.13-.06c-.08,0-.09-.06-.09-.11s0-.09.1-.09.09,0,.09.12h.17v0c0-.16-.11-.23-.27-.23a.24.24,0,0,0-.27.25c0,.13.07.2.23.25s.15.06.15.14a.09.09,0,0,1-.1.1c-.09,0-.12,0-.12-.13Z"/><path class="cls-47" d="M252.33,79.72h-.17v0c0,.15.08.24.27.24s.31-.08.31-.25a.22.22,0,0,0-.17-.22l-.13-.06c-.08,0-.09-.06-.09-.11s0-.09.1-.09.09,0,.09.12h.17v0c0-.15-.11-.22-.27-.22s-.27.08-.27.25.07.19.23.25.15.06.15.14a.09.09,0,0,1-.1.1c-.09,0-.12-.05-.12-.13Z"/><path class="cls-47" d="M247.94,78.88v.62h1.4v-.3l.7.46-.09.06.67.24-.46-.53,0,.1-.8-.53v-.2a.09.09,0,0,0,.07-.11.12.12,0,0,0-.07-.07v-.06a.09.09,0,0,0,.07-.1.08.08,0,0,0-.07-.07v-.07a.08.08,0,0,0,.07-.1.1.1,0,0,0-.07-.07v-.22l.79-.53,0,.1.47-.51-.68.22.09.06-.69.46v-.29h-1.4V78h.12v-.41h1.15v1.82h-1.15v-.5Z"/><polygon class="cls-47" points="259.05 78.16 259.05 77.53 257.82 78.76 259.05 79.98 259.05 79.36 259.7 79.36 259.7 78.16 259.05 78.16"/><polygon class="cls-47" points="260.75 78.16 260.75 77.53 261.98 78.76 260.75 79.98 260.75 79.36 260.1 79.36 260.1 78.16 260.75 78.16"/><path class="cls-62" d="M235.36,84.14a3.13,3.13,0,1,0-3.13,3.12A3.13,3.13,0,0,0,235.36,84.14Z"/><path class="cls-81" d="M235.09,84.14A2.86,2.86,0,1,0,232.23,87,2.86,2.86,0,0,0,235.09,84.14Z"/><path class="cls-82" d="M231.08,83.45l.21.2a.68.68,0,0,1,0,1h0l-.2.2a.24.24,0,0,0,0,.33h0l.13.13a.24.24,0,0,0,.33,0l.2-.2a.68.68,0,0,1,1,0l.2.21a.24.24,0,0,0,.33,0l.13-.14a.22.22,0,0,0,0-.32h0l-.21-.21a.7.7,0,0,1,0-1h0l.21-.2a.24.24,0,0,0,0-.32h0l-.14-.14a.24.24,0,0,0-.32,0l-.2.21a.7.7,0,0,1-1,0l-.21-.21a.22.22,0,0,0-.32,0l-.14.13a.26.26,0,0,0,0,.33Z"/><path class="cls-62" d="M189.75,84.14a3.13,3.13,0,1,0-3.13,3.12A3.13,3.13,0,0,0,189.75,84.14Z"/><path class="cls-81" d="M189.47,84.14A2.86,2.86,0,1,0,186.62,87,2.85,2.85,0,0,0,189.47,84.14Z"/><path class="cls-82" d="M185.47,83.45l.21.2a.7.7,0,0,1,0,1h0l-.2.2a.24.24,0,0,0,0,.33h0l.13.13a.22.22,0,0,0,.32,0l.2-.2a.68.68,0,0,1,1,0l.21.21a.22.22,0,0,0,.32,0l.14-.14a.22.22,0,0,0,0-.32h0l-.21-.21a.68.68,0,0,1,0-1h0l.2-.2a.22.22,0,0,0,0-.32h0l-.13-.14a.26.26,0,0,0-.33,0l-.2.21a.7.7,0,0,1-1,0l-.2-.21a.24.24,0,0,0-.33,0l-.13.13a.24.24,0,0,0,0,.33Z"/><path class="cls-71" d="M221,76.73h-4.05l.88-.88h.81a.44.44,0,0,0,.57.23.43.43,0,1,0-.34-.8.4.4,0,0,0-.23.23h-1l-1.22,1.22H216a.68.68,0,0,0-.83-.49.69.69,0,0,0-.49.83.68.68,0,0,0,1.32,0h1.56l1.2,1.21h.8v.29h.91v-.91h-.91v.28h-.65l-.87-.87H221v.3l.88-.47-.88-.46Z"/><rect class="cls-34" x="208.36" y="79.38" width="19.55" height="9.97" rx="0.81" ry="0.81"/><rect class="cls-8" x="210.87" y="81" width="14.54" height="6.72" rx="0.96" ry="0.96"/><polygon class="cls-50" points="211.89 81 211.89 87.72 216.73 87.72 216.73 87.25 218.01 87.25 218.26 87.25 219.53 87.25 219.53 87.72 224.38 87.72 224.38 81 211.89 81"/><path class="cls-9" d="M224.44,81.42H211.83a.54.54,0,0,0-.55.55v4.79a.55.55,0,0,0,.55.55h12.61a.55.55,0,0,0,.55-.55V82a.55.55,0,0,0-.55-.55Z"/><path class="cls-47" d="M224.44,81.62H211.83a.35.35,0,0,0-.34.35h0v4.79a.34.34,0,0,0,.34.34h12.61a.34.34,0,0,0,.34-.34V82a.35.35,0,0,0-.34-.35Z"/><polygon class="cls-51" points="213.97 84.3 213.96 83.83 214.8 83.81 214.81 84.3 213.97 84.3"/><path class="cls-52" d="M214.8,83.82v.47H214v-.47h.83m0,0H214v.51h.88V83.8Z"/><polygon class="cls-51" points="221.47 84.3 221.46 83.83 222.29 83.81 222.31 84.3 221.47 84.3"/><path class="cls-52" d="M222.3,83.82v.47h-.83v-.47h.83m0,0h-.88v.51h.88V83.8Z"/><polygon class="cls-51" points="216.76 84.3 216.75 83.83 217.59 83.81 217.6 84.3 216.76 84.3"/><path class="cls-52" d="M217.59,83.82v.47h-.83v-.47h.83m0,0h-.88v.51h.88V83.8Z"/><polygon class="cls-51" points="218.68 84.3 218.67 83.83 219.51 83.81 219.52 84.3 218.68 84.3"/><path class="cls-52" d="M219.51,83.82v.47h-.83v-.47h.83m0,0h-.88v.51h.88V83.8Z"/><polygon class="cls-12" points="213.97 84.61 213.96 84.13 214.8 84.12 214.81 84.61 213.97 84.61"/><path class="cls-13" d="M214.8,84.13v.46H214v-.46h.83m0,0H214v.51h.88v-.51Z"/><polygon class="cls-12" points="221.47 84.61 221.46 84.13 222.29 84.12 222.31 84.61 221.47 84.61"/><path class="cls-13" d="M222.3,84.13v.46h-.83v-.46h.83m0,0h-.88v.51h.88v-.51Z"/><polygon class="cls-12" points="216.76 84.61 216.75 84.13 217.59 84.12 217.6 84.61 216.76 84.61"/><path class="cls-13" d="M217.59,84.13v.46h-.83v-.46h.83m0,0h-.88v.51h.88v-.51Z"/><polygon class="cls-12" points="218.68 84.61 218.67 84.13 219.51 84.12 219.52 84.61 218.68 84.61"/><path class="cls-13" d="M219.51,84.13v.46h-.83v-.46h.83m0,0h-.88v.51h.88v-.51Z"/><polygon class="cls-32" points="212.23 86.28 212.28 84.36 224.04 84.41 223.99 86.28 212.23 86.28"/><path class="cls-21" d="M223.94,84.46v1.78H212.33V84.46h11.61m.1-.1H212.23v2H224v-2Z"/><rect class="cls-9" x="224.78" y="82.37" width="0.62" height="3.98"/><rect class="cls-9" x="210.87" y="82.37" width="0.62" height="3.98"/><polyline class="cls-74" points="269.18 104 269.18 104.93 268.24 104.93"/><polyline class="cls-74" points="242.21 103.99 242.21 104.94 243.15 104.94"/></g><g id="E2800_Latch-2" data-name="E2800 Latch"><rect class="cls-14" x="260.89" y="107.66" width="20.48" height="1.33"/><path class="cls-49" d="M129.23,104.73v5.33H266a.27.27,0,0,0,.27-.27h0v-2.93a.26.26,0,0,0-.27-.26h-90.9a.27.27,0,0,1-.27-.27V105a.27.27,0,0,0-.27-.27H129.23Z"/><path class="cls-54" d="M137.66,104.73H125.24v5.33h37.38v-5.33h-1.78a10.09,10.09,0,0,1-2.78-.39l-6.49-1.87a9.51,9.51,0,0,0-2.48-.39h-8.53a.71.71,0,0,0-.54.28l-1.82,2.11A.73.73,0,0,1,137.66,104.73Z"/><path class="cls-54" d="M128.64,104.73H109.86v5.33H136.7a.54.54,0,0,0,.54-.54h0V102.6a.54.54,0,0,0-.54-.53H133a1.35,1.35,0,0,0-.82.28l-2.75,2.11A1.32,1.32,0,0,1,128.64,104.73Z"/><path class="cls-55" d="M129.23,104.73H50.69a.27.27,0,0,0-.27.27v4.79a.27.27,0,0,0,.27.27h78.54Z"/><path class="cls-56" d="M161.08,105.68H158a10.62,10.62,0,0,1-2.69-.35l-5.94-1.58a9.18,9.18,0,0,0-2.39-.32h-3.42v5.4h17.52Z"/><polygon class="cls-57" points="148.05 106.08 145.95 105.04 145.94 107.22 148.05 106.08"/></g><g id="Callout_Gizmo-2" data-name="Callout Gizmo"><line id="Line-2" data-name="Line" class="cls-58" x1="23.41" y1="81.83" x2="109.83" y2="81.83"/><text class="cls-59" transform="translate(19.73 86.09)">2</text><circle class="cls-60" cx="23.41" cy="81.84" r="9"/><text class="cls-59" transform="translate(19.73 86.09)">2</text></g><rect class="cls-58" x="109.83" y="71.07" width="21.48" height="19.44"/></g></svg>