<svg xmlns="http://www.w3.org/2000/svg" viewBox="0 0 302.4 72"><defs><style>.cls-1{fill:#ccc;}.cls-1,.cls-11,.cls-12,.cls-15,.cls-16,.cls-17,.cls-18,.cls-27,.cls-3,.cls-32,.cls-4,.cls-40,.cls-41,.cls-44,.cls-45,.cls-46,.cls-47,.cls-49,.cls-5,.cls-51,.cls-55,.cls-56,.cls-57,.cls-6{fill-rule:evenodd;}.cls-2,.cls-26,.cls-27,.cls-31,.cls-33,.cls-40,.cls-58{fill:none;}.cls-2,.cls-24,.cls-36{stroke:gray;}.cls-2,.cls-24,.cls-31,.cls-33,.cls-36,.cls-58{stroke-linecap:round;}.cls-2,.cls-23,.cls-24,.cls-31,.cls-33,.cls-36{stroke-linejoin:round;}.cls-2{stroke-width:0.48px;}.cls-3,.cls-8{fill:#1a1a1a;}.cls-34,.cls-4{fill:#eee;}.cls-42,.cls-5{fill:silver;}.cls-41,.cls-42,.cls-5,.cls-6{stroke:#58595b;}.cls-37,.cls-38,.cls-39,.cls-41,.cls-42,.cls-5,.cls-58,.cls-6{stroke-miterlimit:10;}.cls-36,.cls-37,.cls-38,.cls-39,.cls-41,.cls-42,.cls-5{stroke-width:0.08px;}.cls-6{fill:#404041;stroke-width:0.04px;}.cls-57,.cls-7{fill:#404040;}.cls-36,.cls-9{fill:#e6e7e8;}.cls-10,.cls-16{fill:#e6e6e6;}.cls-11{fill:#292929;}.cls-12,.cls-48{fill:#ffcd05;}.cls-13{fill:#e0d285;}.cls-14,.cls-39,.cls-44{fill:#d9d9d9;}.cls-15,.cls-25,.cls-59{fill:#fff;}.cls-17{fill:#2e2e2e;}.cls-18,.cls-20{fill:#f1f1f2;}.cls-19,.cls-38{fill:#bfbfbf;}.cls-21{fill:#6d6e70;}.cls-22{fill:gray;}.cls-23{fill:#ffcc05;stroke:#e0d285;stroke-width:0.06px;}.cls-24{fill:#d0cfcd;stroke-width:0px;}.cls-27,.cls-40{stroke:#fff;stroke-miterlimit:2.61;}.cls-27{stroke-width:0.25px;}.cls-28,.cls-47{fill:#333;}.cls-29{fill:#808184;}.cls-30{fill:#e8e7de;}.cls-31{stroke:#9a9a9a;}.cls-31,.cls-33{stroke-width:0px;}.cls-32,.cls-53{fill:#666;}.cls-33{stroke:#b3b3b3;}.cls-35,.cls-46{fill:#d0d2d3;}.cls-37,.cls-45{fill:#262626;}.cls-37{stroke:#d0d2d3;}.cls-38,.cls-39{stroke:#929497;}.cls-40{stroke-width:0.25px;}.cls-41{fill:#ddd;}.cls-43{fill:#54924d;}.cls-49{fill:#4d4d4d;}.cls-50{fill:#bbbdbf;}.cls-51{fill:#ca992c;}.cls-52{fill:#aea069;}.cls-54{fill:#555;}.cls-55{fill:#6a6a6a;}.cls-56{fill:#f4855c;}.cls-58{stroke:#f7931e;stroke-width:2px;}.cls-59{font-size:12px;font-family:Gotham-Medium, Gotham;}.cls-60{fill:#2d2a26;}</style></defs><title>Artboard 11_Source</title><g id="Rulers"><g id="Sandhawk"><path class="cls-1" d="M277.07,51.2V17.61a1.37,1.37,0,0,0-1.35-1.35h-222a1.37,1.37,0,0,0-1.35,1.35V51.2h1.09v.26a1.22,1.22,0,0,0,1.2,1.24H274.78a1.21,1.21,0,0,0,1.2-1.24h0V51.2Z"/><path class="cls-2" d="M277.07,51.2V17.61a1.37,1.37,0,0,0-1.35-1.35h-222a1.37,1.37,0,0,0-1.35,1.35V51.2h1.09v.26a1.22,1.22,0,0,0,1.2,1.24H274.78a1.21,1.21,0,0,0,1.2-1.24h0V51.2Z"/><path class="cls-3" d="M54.63,51.76H274.78a.29.29,0,0,0,.26-.3h0V47.4H276V17.61a.25.25,0,0,0-.26-.26h-222a.25.25,0,0,0-.26.26V47.4h.94v4.06A.29.29,0,0,0,54.63,51.76Z"/><path class="cls-4" d="M274.36,16.46H55v1.92a.51.51,0,0,1-.52.53H53.43V51.4h1.09A.54.54,0,0,1,55,52h0v2.15H274.36V52a.55.55,0,0,1,.53-.56H276V18.91h-1.09a.52.52,0,0,1-.53-.53Z"/><path class="cls-2" d="M274.36,16.26H55.05v1.92a.52.52,0,0,1-.53.53H53.43V51.2h1.09a.55.55,0,0,1,.53.56h0V53.9H274.36V51.76a.55.55,0,0,1,.53-.56H276V18.71h-1.09a.52.52,0,0,1-.53-.53Z"/><path class="cls-5" d="M176.88,29.52a3.13,3.13,0,1,0-3.12,3.13A3.13,3.13,0,0,0,176.88,29.52Z"/><path class="cls-6" d="M175.44,29.52a1.69,1.69,0,1,0-1.68,1.69A1.69,1.69,0,0,0,175.44,29.52Z"/><path class="cls-5" d="M233.42,29.52a3.13,3.13,0,1,0-3.13,3.13A3.13,3.13,0,0,0,233.42,29.52Z"/><path class="cls-6" d="M232,29.52a1.69,1.69,0,1,0-1.69,1.69A1.69,1.69,0,0,0,232,29.52Z"/><path class="cls-7" d="M145.5,52.27V50.69h15.37V33.79a1.45,1.45,0,0,1,1.45-1.45h5.27a.65.65,0,0,0,.65-.65V19a1.45,1.45,0,0,1,.35-.95H56.79a1,1,0,0,0-1,1V51.3a1,1,0,0,0,1,1ZM91.8,47.15A1.12,1.12,0,1,1,92.92,46,1.11,1.11,0,0,1,91.8,47.15Zm16.33,0A1.12,1.12,0,1,1,109.25,46,1.11,1.11,0,0,1,108.13,47.15Zm6.32,0A1.12,1.12,0,1,1,115.57,46,1.11,1.11,0,0,1,114.45,47.15Zm14.47,3.71h-8.49V41.21h8.49Zm29.7-24a1.49,1.49,0,1,1,0,3,1.49,1.49,0,0,1,0-3Zm0,5.35a1.49,1.49,0,1,1-1.48,1.49A1.49,1.49,0,0,1,158.62,32.25Zm-27.55-5.32A.93.93,0,0,1,132,26h23a.93.93,0,0,1,.93.92V38.36a.93.93,0,0,1-.93.92H132a.93.93,0,0,1-.93-.92Zm-.53,14.28H139v9.65h-8.5ZM128.39,26.9a1.49,1.49,0,1,1-1.49,1.49A1.49,1.49,0,0,1,128.39,26.9Zm0,5.35a1.49,1.49,0,1,1-1.49,1.49A1.49,1.49,0,0,1,128.39,32.25ZM104.27,20.68h18.38V34.1H104.27Zm-2.46,24.24A1.12,1.12,0,1,1,100.7,46,1.12,1.12,0,0,1,101.81,44.92ZM96.23,21.07a1.2,1.2,0,1,1-1.2,1.2A1.2,1.2,0,0,1,96.23,21.07Zm-7.9,0a1.2,1.2,0,1,1-1.21,1.2A1.2,1.2,0,0,1,88.33,21.07Zm-7.12,0a1.2,1.2,0,1,1,0,2.4,1.2,1.2,0,0,1,0-2.4Zm-7.9,0a1.2,1.2,0,1,1-1.2,1.2A1.2,1.2,0,0,1,73.31,21.07Zm-4.68,5.1a.93.93,0,0,1,.93-.93h30.2a.92.92,0,0,1,.92.92V36a.92.92,0,0,1-.92.92H69.56a.93.93,0,0,1-.93-.92Z"/><rect class="cls-8" x="103.88" y="20.46" width="19.15" height="13.86"/><path class="cls-9" d="M122.92,20.57V34.2H104V20.57h18.92m.23-.23H103.77V34.43h19.38V20.34Z"/><rect class="cls-10" x="104.62" y="21.19" width="17.69" height="12.39"/><polygon class="cls-11" points="106.69 29.99 106.69 33.09 120.23 33.09 120.23 29.99 119.82 29.87 119.82 27.79 120.23 27.67 120.23 23.8 117.23 23.8 117.23 22.23 116.05 22.23 116.05 21.68 110.87 21.68 110.87 22.23 109.69 22.23 109.69 23.8 106.69 23.8 106.69 27.67 107.1 27.79 107.1 29.87 106.69 29.99"/><polygon class="cls-12" points="110.58 32.94 110.54 29.12 110.89 29.08 110.93 32.94 110.58 32.94"/><path class="cls-13" d="M110.89,29.12V32.9h-.32V29.12h.32M111,29h-.46V33H111V29Z"/><polygon class="cls-12" points="111.67 32.94 111.63 29.12 111.98 29.08 112.02 32.94 111.67 32.94"/><path class="cls-13" d="M112,29.12V32.9h-.31V29.12H112m.07-.08h-.46V33h.46V29Z"/><polygon class="cls-12" points="112.76 32.94 112.72 29.12 113.07 29.08 113.11 32.94 112.76 32.94"/><path class="cls-13" d="M113.07,29.12V32.9h-.31V29.12h.31m.07-.08h-.46V33h.46V29Z"/><polygon class="cls-12" points="113.85 32.94 113.81 29.12 114.16 29.08 114.2 32.94 113.85 32.94"/><path class="cls-13" d="M114.16,29.12V32.9h-.31V29.12h.31m.07-.08h-.46V33h.46V29Z"/><polygon class="cls-12" points="114.94 32.94 114.9 29.12 115.25 29.08 115.29 32.94 114.94 32.94"/><path class="cls-13" d="M115.25,29.12V32.9h-.31V29.12h.31m.08-.08h-.47V33h.47V29Z"/><polygon class="cls-12" points="116.03 32.94 116 29.12 116.34 29.08 116.38 32.94 116.03 32.94"/><path class="cls-13" d="M116.34,29.12V32.9H116V29.12h.31m.08-.08H116V33h.46V29Z"/><polygon class="cls-12" points="117.12 32.94 117.09 29.12 117.43 29.08 117.47 32.94 117.12 32.94"/><path class="cls-13" d="M117.43,29.12V32.9h-.31V29.12h.31m.08-.08h-.46V33h.46V29Z"/><polygon class="cls-12" points="109.48 32.94 109.45 29.12 109.79 29.08 109.83 32.94 109.48 32.94"/><path class="cls-13" d="M109.79,29.12V32.9h-.31V29.12h.31m.08-.08h-.46V33h.46V29Z"/><path class="cls-14" d="M125.7,18.09V39.82h35.17v-6a1.46,1.46,0,0,1,.44-1V18.09Zm2.69,17.14a1.49,1.49,0,1,1,1.48-1.49A1.49,1.49,0,0,1,128.39,35.23Zm0-5.36a1.49,1.49,0,1,1,1.48-1.48A1.48,1.48,0,0,1,128.39,29.87ZM156,38.36a.93.93,0,0,1-.93.92H132a.93.93,0,0,1-.93-.92V26.93A.93.93,0,0,1,132,26h23a.93.93,0,0,1,.93.92Zm2.67-3.13a1.49,1.49,0,1,1,1.49-1.49A1.49,1.49,0,0,1,158.62,35.23Zm0-5.36a1.49,1.49,0,0,1,0-3,1.49,1.49,0,1,1,0,3Z"/><polygon class="cls-15" points="64.94 30.63 65.52 30.63 65.52 31.09 66.73 31.09 66.73 30 65.52 30 65.52 30.55 64.94 30.55 64.94 27.67 65.52 27.67 65.52 28.19 66.73 28.19 66.73 27.1 65.52 27.1 65.52 27.59 64.94 27.59 64.94 27.1 64.86 27.1 64.86 29.14 64.22 29.14 64.22 28.61 63.01 28.61 63.01 29.7 64.22 29.7 64.22 29.21 64.86 29.21 64.86 31.09 64.94 31.09 64.94 30.63"/><path class="cls-16" d="M132,39.82a1.38,1.38,0,0,1-1-.42,1.41,1.41,0,0,1-.41-1V27.27a1.37,1.37,0,0,1,.41-1,1.43,1.43,0,0,1,1-.41H155a1.4,1.4,0,0,1,1.41,1.41V38.4a1.39,1.39,0,0,1-.41,1,1.43,1.43,0,0,1-1,.41Z"/><path class="cls-17" d="M155,39.24a.85.85,0,0,0,.59-.24.83.83,0,0,0,.24-.6V27.27a.82.82,0,0,0-.83-.83H132a.85.85,0,0,0-.59.24.81.81,0,0,0-.24.59V38.41a.83.83,0,0,0,.24.58.82.82,0,0,0,.59.25Z"/><path class="cls-18" d="M155,38.82a.41.41,0,0,0,.42-.41h0V27.27a.42.42,0,0,0-.42-.42H132a.42.42,0,0,0-.42.42V38.41a.41.41,0,0,0,.42.41Z"/><path class="cls-11" d="M155,27.05a.22.22,0,0,1,.22.22h0V38.41a.22.22,0,0,1-.22.22H143.6V27.05Z"/><path class="cls-11" d="M132,27.05a.22.22,0,0,0-.22.22h0V38.41a.22.22,0,0,0,.22.22h11.44V27.05Z"/><rect class="cls-19" x="133.99" y="38.63" width="7.18" height="0.2"/><rect class="cls-19" x="145.85" y="38.63" width="7.18" height="0.2"/><rect class="cls-20" x="147.41" y="38.63" width="4.04" height="0.2"/><rect class="cls-20" x="135.55" y="38.63" width="4.04" height="0.2"/><rect class="cls-21" x="132.77" y="28.52" width="9.6" height="8.63"/><rect class="cls-22" x="133" y="29.67" width="9.15" height="2.03"/><rect class="cls-21" x="133.28" y="30.05" width="8.6" height="1.27"/><rect class="cls-23" x="140.69" y="29.27" width="0.2" height="2.84"/><rect class="cls-23" x="138.28" y="29.27" width="0.2" height="2.84"/><rect class="cls-23" x="137.48" y="29.27" width="0.2" height="2.84"/><rect class="cls-23" x="135.87" y="29.27" width="0.2" height="2.84"/><rect class="cls-23" x="135.07" y="29.27" width="0.2" height="2.84"/><rect class="cls-23" x="134.26" y="29.27" width="0.2" height="2.84"/><rect class="cls-23" x="139.89" y="29.27" width="0.2" height="2.84"/><rect class="cls-23" x="139.09" y="29.27" width="0.2" height="2.84"/><rect class="cls-23" x="136.67" y="29.27" width="0.2" height="2.84"/><rect class="cls-8" x="133.52" y="30.31" width="8.12" height="0.76"/><rect class="cls-22" x="133" y="33.98" width="9.15" height="2.03"/><rect class="cls-21" x="133.28" y="34.36" width="8.6" height="1.27"/><rect class="cls-23" x="140.69" y="33.57" width="0.2" height="2.84"/><rect class="cls-23" x="138.28" y="33.57" width="0.2" height="2.84"/><rect class="cls-23" x="137.48" y="33.57" width="0.2" height="2.84"/><rect class="cls-23" x="135.87" y="33.57" width="0.2" height="2.84"/><rect class="cls-23" x="135.07" y="33.57" width="0.2" height="2.84"/><rect class="cls-23" x="134.26" y="33.57" width="0.2" height="2.84"/><rect class="cls-23" x="139.89" y="33.57" width="0.2" height="2.84"/><rect class="cls-23" x="139.09" y="33.57" width="0.2" height="2.84"/><rect class="cls-23" x="136.67" y="33.57" width="0.2" height="2.84"/><rect class="cls-8" x="133.52" y="34.62" width="8.12" height="0.76"/><rect class="cls-21" x="144.63" y="28.52" width="9.6" height="8.63"/><rect class="cls-22" x="144.86" y="29.67" width="9.15" height="2.03"/><rect class="cls-21" x="145.13" y="30.05" width="8.6" height="1.27"/><rect class="cls-23" x="152.55" y="29.27" width="0.2" height="2.84"/><rect class="cls-23" x="150.14" y="29.27" width="0.2" height="2.84"/><rect class="cls-23" x="149.33" y="29.27" width="0.2" height="2.84"/><rect class="cls-23" x="147.73" y="29.27" width="0.2" height="2.84"/><rect class="cls-23" x="146.92" y="29.27" width="0.2" height="2.84"/><rect class="cls-23" x="146.12" y="29.27" width="0.2" height="2.84"/><rect class="cls-23" x="151.75" y="29.27" width="0.2" height="2.84"/><rect class="cls-23" x="150.94" y="29.27" width="0.2" height="2.84"/><rect class="cls-23" x="148.53" y="29.27" width="0.2" height="2.84"/><rect class="cls-8" x="145.37" y="30.31" width="8.12" height="0.76"/><rect class="cls-22" x="144.86" y="33.98" width="9.15" height="2.03"/><rect class="cls-21" x="145.13" y="34.36" width="8.6" height="1.27"/><rect class="cls-23" x="152.55" y="33.57" width="0.2" height="2.84"/><rect class="cls-23" x="150.14" y="33.57" width="0.2" height="2.84"/><rect class="cls-23" x="149.33" y="33.57" width="0.2" height="2.84"/><rect class="cls-23" x="147.73" y="33.57" width="0.2" height="2.84"/><rect class="cls-23" x="146.92" y="33.57" width="0.2" height="2.84"/><rect class="cls-23" x="146.12" y="33.57" width="0.2" height="2.84"/><rect class="cls-23" x="151.75" y="33.57" width="0.2" height="2.84"/><rect class="cls-23" x="150.94" y="33.57" width="0.2" height="2.84"/><rect class="cls-23" x="148.53" y="33.57" width="0.2" height="2.84"/><rect class="cls-8" x="145.37" y="34.62" width="8.12" height="0.76"/><path class="cls-24" d="M148.36,38.64l.31-.24a.28.28,0,0,1,.18-.06H150a.32.32,0,0,1,.18.06l.31.24H151a.32.32,0,0,1-.18-.06l-.5-.39a.54.54,0,0,0-.34-.12h-1.17a.54.54,0,0,0-.34.12l-.51.39a.28.28,0,0,1-.18.06Z"/><path class="cls-24" d="M136.5,38.64l.31-.24a.3.3,0,0,1,.18-.06h1.17a.28.28,0,0,1,.18.06l.31.24h.54a.28.28,0,0,1-.18-.06l-.51-.39a.54.54,0,0,0-.34-.12H137a.54.54,0,0,0-.34.12l-.51.39a.27.27,0,0,1-.17.06Z"/><polyline class="cls-25" points="64.82 33.87 65.36 33.87 65.36 34.47 67.05 33.56 64.82 33.56"/><rect class="cls-25" x="62.68" y="32.29" width="4.49" height="0.35"/><rect class="cls-25" x="62.68" y="34.73" width="4.49" height="0.35"/><polyline class="cls-25" points="64.83 33.56 64.26 33.56 64.26 32.96 62.57 33.87 64.83 33.87"/><path class="cls-25" d="M76.6,23.08c.32,0,.58.19.58.8s-.26.82-.58.82-.57-.2-.57-.82S76.3,23.08,76.6,23.08Zm0,1.36c.26,0,.26-.38.26-.56s0-.54-.26-.54-.25.38-.25.54S76.35,24.44,76.6,24.44Z"/><path class="cls-25" d="M77.33,23.87c0-.3.29-.39.54-.39s.51.06.51.33v.6a.59.59,0,0,0,0,.26H78.1a.52.52,0,0,1,0-.11.55.55,0,0,1-.39.14.34.34,0,0,1-.39-.35c0-.26.19-.32.39-.35s.37,0,.37-.15-.09-.15-.2-.15-.2.05-.21.17Zm.73.23s-.16,0-.26.07-.19,0-.19.17.09.15.2.15a.24.24,0,0,0,.25-.27Z"/><path class="cls-25" d="M91.61,23.08c.31,0,.57.19.57.8s-.26.82-.57.82-.57-.2-.57-.82S91.3,23.08,91.61,23.08Zm0,1.36c.25,0,.25-.38.25-.56s0-.54-.25-.54-.26.38-.26.54S91.35,24.44,91.61,24.44Z"/><path class="cls-25" d="M92.35,23.08h.32v.58h0a.43.43,0,0,1,.36-.18c.23,0,.48.19.48.61s-.25.61-.48.61a.4.4,0,0,1-.38-.18h0v.15h-.3Zm.57.64c-.18,0-.27.18-.27.37s.09.37.27.37.27-.18.27-.37S93.11,23.72,92.92,23.72Z"/><polygon class="cls-25" points="71.83 20.44 71.83 19.18 71.99 19.18 71.99 20.29 72.62 20.29 72.62 20.44 71.83 20.44"/><polygon class="cls-25" points="72.68 20.44 72.68 19.18 72.85 19.18 73.52 20.17 73.52 19.18 73.68 19.18 73.68 20.44 73.5 20.44 72.84 19.45 72.84 20.44 72.68 20.44"/><polygon class="cls-25" points="73.75 20.44 73.75 19.18 73.92 19.18 73.92 19.8 74.55 19.18 74.77 19.18 74.24 19.69 74.8 20.44 74.58 20.44 74.13 19.8 73.92 20 73.92 20.44 73.75 20.44"/><path class="cls-25" d="M81.32,19.28s-.1.85-.1.85-.1-.8-.1-.85a.09.09,0,0,1,.1-.1A.1.1,0,0,1,81.32,19.28Z"/><path class="cls-25" d="M81.33,20.33a.11.11,0,0,1-.12.11.11.11,0,0,1-.11-.11.11.11,0,0,1,.11-.12A.12.12,0,0,1,81.33,20.33Z"/><polygon class="cls-25" points="86.84 20.44 86.84 19.18 87.01 19.18 87.01 20.29 87.63 20.29 87.63 20.44 86.84 20.44"/><polygon class="cls-25" points="87.69 20.44 87.69 19.18 87.87 19.18 88.53 20.17 88.53 19.18 88.69 19.18 88.69 20.44 88.52 20.44 87.86 19.45 87.86 20.44 87.69 20.44"/><polygon class="cls-25" points="88.77 20.44 88.77 19.18 88.93 19.18 88.93 19.8 89.56 19.18 89.79 19.18 89.26 19.69 89.81 20.44 89.59 20.44 89.14 19.8 88.93 20 88.93 20.44 88.77 20.44"/><path class="cls-25" d="M96.33,19.28s-.1.85-.1.85-.1-.8-.1-.85a.1.1,0,0,1,.1-.1A.09.09,0,0,1,96.33,19.28Z"/><path class="cls-25" d="M96.34,20.33a.11.11,0,0,1-.11.11.11.11,0,0,1-.12-.11.12.12,0,0,1,.12-.12A.11.11,0,0,1,96.34,20.33Z"/><path class="cls-25" d="M114.53,20.14a.76.76,0,1,0-.75-.75.76.76,0,0,0,.75.75m0-1.32a.57.57,0,1,1-.56.56.56.56,0,0,1,.56-.56"/><path class="cls-25" d="M112.39,20.14a.76.76,0,1,0-.76-.75.76.76,0,0,0,.76.75m0-1.32a.57.57,0,1,1-.57.56.56.56,0,0,1,.57-.56"/><rect class="cls-25" x="115.51" y="18.63" width="0.19" height="1.51"/><rect class="cls-25" x="113.36" y="18.63" width="0.19" height="1.51"/><rect class="cls-25" x="111.22" y="18.63" width="0.19" height="1.51"/><polygon class="cls-25" points="114.65 50.53 114.89 49.72 115.78 49.72 115.78 49.95 115.06 49.95 114.57 51.64 114.26 49.15 114.01 50 113.13 50 113.13 49.76 113.83 49.76 114.34 48.05 114.65 50.53"/><path class="cls-25" d="M102.3,49.75a.54.54,0,1,0-1,0h0l0,.06.46.88.46-.88,0-.05Zm-.21-.24a.29.29,0,0,1-.57,0,.29.29,0,1,1,.57,0"/><path class="cls-25" d="M101.81,51.08a1.24,1.24,0,1,1,1.24-1.24,1.23,1.23,0,0,1-1.24,1.24m1.39-1.24a1.39,1.39,0,1,0-1.39,1.39,1.39,1.39,0,0,0,1.39-1.39"/><path class="cls-15" d="M90.48,49.4h.3a1.12,1.12,0,0,1,2.14.44,1.1,1.1,0,0,1-2.12.45h-.31a1.39,1.39,0,1,0,0-.89Z"/><path class="cls-15" d="M91.45,49.37v.27h-.53V50h.53v.28l.37-.47-.37-.44Zm-1.24.27V50h.55v-.36Zm-.54,0V50h.38v-.36Zm-.42,0V50h.26v-.36Z"/><path class="cls-25" d="M108.36,48.72c0,.12-.23,1.82-.23,1.82s-.2-1.7-.2-1.82a.21.21,0,0,1,.21-.21A.21.21,0,0,1,108.36,48.72Z"/><path class="cls-25" d="M108.38,50.94a.25.25,0,1,1-.49,0,.25.25,0,0,1,.49,0Z"/><rect class="cls-26" x="57.11" y="45.08" width="26.76" height="5.89"/><polyline class="cls-27" points="83.87 50.03 83.87 50.96 82.93 50.96"/><polyline class="cls-27" points="57.11 50.02 57.11 50.97 58.04 50.97"/><rect class="cls-26" x="57.11" y="37.72" width="26.76" height="5.89"/><polyline class="cls-27" points="83.87 42.67 83.87 43.6 82.93 43.6"/><polyline class="cls-27" points="57.11 42.66 57.11 43.61 58.04 43.61"/><path class="cls-28" d="M134.52,23.54h1.19v.3h-.84v.34h.77v.27h-.77v.39h.86v.29h-1.21Z"/><path class="cls-28" d="M136.36,24.3l-.52-.76h.41l.31.51.32-.51h.39l-.51.76.55.83h-.41l-.35-.55-.36.55h-.39Z"/><path class="cls-28" d="M137.45,23.54h.72a.51.51,0,1,1,0,1h-.37v.57h-.35Zm.35.75h.28c.16,0,.3,0,.3-.24s-.14-.23-.3-.23h-.28Z"/><path class="cls-28" d="M139.66,25.13h-.32v-1H139v-.24c.22,0,.43-.07.46-.31h.25Z"/><path class="cls-28" d="M147.14,23.54h1.19v.3h-.84v.34h.77v.27h-.77v.39h.86v.29h-1.21Z"/><path class="cls-28" d="M149,24.3l-.51-.76h.41l.31.51.32-.51h.39l-.51.76.55.83h-.42l-.34-.55-.36.55h-.39Z"/><path class="cls-28" d="M150.07,23.54h.72a.51.51,0,1,1,0,1h-.37v.57h-.35Zm.35.75h.27c.17,0,.31,0,.31-.24s-.14-.23-.31-.23h-.27Z"/><path class="cls-28" d="M151.49,24.17a.56.56,0,0,1,.56-.63.5.5,0,0,1,.54.49.55.55,0,0,1-.28.47,1.74,1.74,0,0,0-.45.36h.74v.27h-1.15c0-.36.23-.51.49-.69s.33-.19.33-.38a.22.22,0,0,0-.23-.24c-.19,0-.25.19-.25.35Z"/><path class="cls-28" d="M142.16,19.83h.14a.28.28,0,0,0,0,.11.2.2,0,0,0,.11,0,.18.18,0,0,0,.11,0,.11.11,0,0,0,0-.12l-.05,0-.12,0a.39.39,0,0,1-.17-.07.18.18,0,0,1-.07-.15.17.17,0,0,1,0-.1.25.25,0,0,1,.1-.08.28.28,0,0,1,.14,0,.33.33,0,0,1,.21.06.22.22,0,0,1,.07.16h-.15a.12.12,0,0,0,0-.08l-.09,0-.1,0s0,0,0,.05,0,0,0,0,.06,0,.13.05l.16.06a.14.14,0,0,1,.08.07.21.21,0,0,1,0,.12.27.27,0,0,1,0,.12.39.39,0,0,1-.1.08.41.41,0,0,1-.16,0,.36.36,0,0,1-.22-.06.33.33,0,0,1-.08-.19"/><path class="cls-28" d="M142.16,22.17l.14,0a.23.23,0,0,0,0,.11.2.2,0,0,0,.11,0,.18.18,0,0,0,.11,0,.09.09,0,0,0,0-.07s0,0,0,0a.1.1,0,0,0-.05,0l-.12,0a.39.39,0,0,1-.17-.07.18.18,0,0,1-.07-.15.19.19,0,0,1,0-.1.39.39,0,0,1,.1-.08l.14,0a.33.33,0,0,1,.21.06.22.22,0,0,1,.07.16h-.15a.09.09,0,0,0,0-.08.12.12,0,0,0-.09,0,.15.15,0,0,0-.1,0s0,0,0,0a.05.05,0,0,0,0,0l.13.05a.43.43,0,0,1,.16.05.19.19,0,0,1,.08.07.24.24,0,0,1,0,.12.27.27,0,0,1,0,.12.25.25,0,0,1-.1.08.41.41,0,0,1-.16,0,.31.31,0,0,1-.22-.07.3.3,0,0,1-.08-.18"/><path class="cls-28" d="M142.82,21.22h-.16l-.06-.17h-.3l-.06.17h-.15l.28-.73h.16Zm-.27-.29-.1-.27-.1.27Z"/><path class="cls-28" d="M139.57,21.66V19.82h-1.14v.68H139V21h-.57v.68Zm.67-2.16.62-.21-.42.5,0-.15-.81.56v1.13l.76.53,0-.17.41.52-.6-.23.14-.09-.75-.52v.32h-1.21V21h-.58V20.5h.58v-.71h1.21v.38l.79-.55Z"/><path class="cls-28" d="M140,21.11a.08.08,0,0,0-.07-.08.08.08,0,1,0,0,.16A.08.08,0,0,0,140,21.11Z"/><path class="cls-28" d="M140.27,21.24a.07.07,0,0,0-.07-.08.07.07,0,0,0-.08.08.07.07,0,0,0,.08.07A.07.07,0,0,0,140.27,21.24Z"/><path class="cls-28" d="M140.55,21.37a.08.08,0,0,0-.07-.08.08.08,0,1,0,0,.16A.08.08,0,0,0,140.55,21.37Z"/><path class="cls-28" d="M140.83,21.5a.08.08,0,0,0-.08-.08.08.08,0,0,0,0,.16A.08.08,0,0,0,140.83,21.5Z"/><path class="cls-28" d="M141.11,21.63a.07.07,0,0,0-.07-.08.08.08,0,0,0-.08.08.08.08,0,0,0,.08.07A.07.07,0,0,0,141.11,21.63Z"/><path class="cls-28" d="M141.39,21.76a.08.08,0,0,0-.07-.08.08.08,0,1,0,0,.16A.08.08,0,0,0,141.39,21.76Z"/><path class="cls-28" d="M140,20.37a.07.07,0,0,0-.07-.07.07.07,0,0,0-.08.07.07.07,0,0,0,.08.08A.07.07,0,0,0,140,20.37Z"/><path class="cls-28" d="M140.27,20.24a.08.08,0,0,0-.07-.08.08.08,0,0,0,0,.16A.08.08,0,0,0,140.27,20.24Z"/><path class="cls-28" d="M140.55,20.11a.08.08,0,0,0-.07-.08.08.08,0,1,0,0,.16A.08.08,0,0,0,140.55,20.11Z"/><path class="cls-28" d="M140.83,20a.07.07,0,0,0-.08-.07.07.07,0,0,0-.07.07.07.07,0,0,0,.07.08A.07.07,0,0,0,140.83,20Z"/><path class="cls-28" d="M141.11,19.85a.08.08,0,0,0-.07-.08.08.08,0,1,0,0,.16A.08.08,0,0,0,141.11,19.85Z"/><path class="cls-28" d="M141.39,19.72a.08.08,0,0,0-.07-.08.08.08,0,1,0,0,.16A.08.08,0,0,0,141.39,19.72Z"/><path class="cls-28" d="M141.86,20.74a.08.08,0,0,0-.08-.08.08.08,0,0,0,0,.16A.08.08,0,0,0,141.86,20.74Z"/><path class="cls-28" d="M141.55,20.74a.08.08,0,0,0-.08-.08.08.08,0,0,0,0,.16A.08.08,0,0,0,141.55,20.74Z"/><path class="cls-28" d="M141.24,20.74a.08.08,0,0,0-.08-.08.08.08,0,0,0,0,.16A.08.08,0,0,0,141.24,20.74Z"/><path class="cls-28" d="M140.93,20.74a.08.08,0,0,0-.07-.08.08.08,0,1,0,0,.16A.08.08,0,0,0,140.93,20.74Z"/><path class="cls-28" d="M140.62,20.74a.08.08,0,0,0-.07-.08.08.08,0,1,0,0,.16A.08.08,0,0,0,140.62,20.74Z"/><path class="cls-28" d="M140.32,20.74a.08.08,0,1,0-.08.08A.09.09,0,0,0,140.32,20.74Z"/><path class="cls-28" d="M140,20.74a.08.08,0,0,0-.07-.08.08.08,0,1,0,0,.16A.08.08,0,0,0,140,20.74Z"/><polygon class="cls-28" points="146.18 20.39 146.18 19.67 144.89 21 146.18 22.33 146.18 21.5 146.85 21.5 146.85 20.39 146.18 20.39"/><polygon class="cls-28" points="147.91 20.39 147.91 19.67 149.2 21 147.91 22.33 147.91 21.5 147.24 21.5 147.24 20.39 147.91 20.39"/><path class="cls-28" d="M128.55,24.5c0,.09-.16,1.36-.16,1.36s-.16-1.27-.16-1.36a.16.16,0,0,1,.16-.16A.16.16,0,0,1,128.55,24.5Z"/><path class="cls-28" d="M128.57,26.16a.19.19,0,0,1-.18.19.2.2,0,0,1-.19-.19.19.19,0,0,1,.19-.18A.18.18,0,0,1,128.57,26.16Z"/><polygon class="cls-28" points="126.55 31.7 126.55 30.29 126.74 30.29 126.74 31.53 127.43 31.53 127.43 31.7 126.55 31.7"/><polygon class="cls-28" points="127.65 31.7 127.65 30.29 127.84 30.29 128.58 31.4 128.58 30.29 128.75 30.29 128.75 31.7 128.56 31.7 127.83 30.59 127.83 31.7 127.65 31.7"/><polygon class="cls-28" points="129.06 31.7 129.06 30.29 129.25 30.29 129.25 30.99 129.94 30.29 130.19 30.29 129.61 30.86 130.22 31.7 129.97 31.7 129.47 30.99 129.25 31.21 129.25 31.7 129.06 31.7"/><path class="cls-28" d="M158.79,24.5c0,.09-.16,1.36-.16,1.36s-.16-1.27-.16-1.36a.16.16,0,0,1,.32,0Z"/><path class="cls-28" d="M158.81,26.16a.19.19,0,1,1-.37,0,.18.18,0,0,1,.18-.18A.18.18,0,0,1,158.81,26.16Z"/><polygon class="cls-28" points="156.79 31.7 156.79 30.29 156.98 30.29 156.98 31.53 157.67 31.53 157.67 31.7 156.79 31.7"/><polygon class="cls-28" points="157.89 31.7 157.89 30.29 158.08 30.29 158.81 31.4 158.81 30.29 158.99 30.29 158.99 31.7 158.8 31.7 158.06 30.59 158.06 31.7 157.89 31.7"/><polygon class="cls-28" points="159.3 31.7 159.3 30.29 159.48 30.29 159.48 30.99 160.18 30.29 160.43 30.29 159.84 30.86 160.46 31.7 160.21 31.7 159.71 30.99 159.48 31.21 159.48 31.7 159.3 31.7"/><path class="cls-29" d="M129.65,28.39a1.27,1.27,0,1,0-1.26,1.27A1.27,1.27,0,0,0,129.65,28.39Z"/><path class="cls-29" d="M129.65,33.74A1.27,1.27,0,1,0,128.39,35,1.27,1.27,0,0,0,129.65,33.74Z"/><path class="cls-29" d="M159.89,28.39a1.27,1.27,0,1,0-1.27,1.27A1.27,1.27,0,0,0,159.89,28.39Z"/><path class="cls-29" d="M159.89,33.74A1.27,1.27,0,1,0,158.62,35,1.27,1.27,0,0,0,159.89,33.74Z"/><rect class="cls-10" x="120.21" y="41.03" width="8.93" height="10.01"/><polygon class="cls-3" points="120.62 50.64 128.73 50.64 128.74 50.63 128.74 50.63 128.74 41.44 128.73 41.44 120.62 41.44 120.61 41.44 120.61 50.63 120.62 50.64"/><rect class="cls-30" x="120.88" y="41.71" width="7.58" height="8.66"/><rect class="cls-31" x="120.88" y="41.71" width="7.58" height="8.66"/><path class="cls-32" d="M125.78,44.11l0,0,.49-.41a.05.05,0,0,0,0-.08h0l-.17-.2a0,0,0,0,0,0,0h-2l-.24.2a.06.06,0,0,0,0,.09h0l.34.41,0,0Z"/><path class="cls-32" d="M125.93,46l.38-.32,0,0,.29-1.61a.07.07,0,0,0,0-.05l-.17-.2a.05.05,0,0,0-.08,0l-.5.42s0,0,0,0l-.25,1.42a.09.09,0,0,0,0,0l.25.29A.05.05,0,0,0,125.93,46Z"/><path class="cls-32" d="M125.84,46.12l-.39.32,0,0-.25,1.42a.08.08,0,0,0,0,0l.34.41a.05.05,0,0,0,.08,0l.25-.2a.08.08,0,0,0,0,0l.29-1.65a.11.11,0,0,0,0,0l-.25-.29A.05.05,0,0,0,125.84,46.12Z"/><path class="cls-32" d="M125.37,46.4h0l.38-.32a.05.05,0,0,0,0-.08h0l-.25-.3,0,0h-1.57l-.38.32a.06.06,0,0,0,0,.09h0l.25.29a0,0,0,0,0,0,0Z"/><path class="cls-32" d="M123.51,46l.39-.32a0,0,0,0,0,0,0l.26-1.42a.08.08,0,0,0,0,0l-.34-.41a.06.06,0,0,0-.09,0l-.24.21s0,0,0,0l-.29,1.65a.09.09,0,0,0,0,0l.25.29A.05.05,0,0,0,123.51,46Z"/><path class="cls-32" d="M125.2,48.7a.05.05,0,0,0,0,0l.24-.2a.05.05,0,0,0,0-.08h0l-.34-.42-.05,0h-1.53l0,0-.49.41a.06.06,0,0,0,0,.09h0l.17.2,0,0Z"/><path class="cls-32" d="M123.51,47.89l.25-1.42a.11.11,0,0,0,0,0l-.25-.29a.05.05,0,0,0-.08,0l-.38.32s0,0,0,0l-.29,1.62a.06.06,0,0,0,0,0l.17.21a.06.06,0,0,0,.08,0l.5-.41A.05.05,0,0,0,123.51,47.89Z"/><path class="cls-32" d="M127.52,48.28a.41.41,0,0,0-.41-.41.41.41,0,0,0-.42.41.42.42,0,0,0,.42.42A.41.41,0,0,0,127.52,48.28Z"/><path class="cls-33" d="M125.78,44.11l0,0,.49-.41a.05.05,0,0,0,0-.08h0l-.17-.2a0,0,0,0,0,0,0h-2l-.24.2a.06.06,0,0,0,0,.09h0l.34.41,0,0Z"/><path class="cls-33" d="M125.93,46l.38-.32,0,0,.29-1.61a.07.07,0,0,0,0-.05l-.17-.2a.05.05,0,0,0-.08,0l-.5.42s0,0,0,0l-.25,1.42a.09.09,0,0,0,0,0l.25.29A.05.05,0,0,0,125.93,46Z"/><path class="cls-33" d="M125.84,46.12l-.39.32,0,0-.25,1.42a.08.08,0,0,0,0,0l.34.41a.05.05,0,0,0,.08,0l.25-.2a.08.08,0,0,0,0,0l.29-1.65a.11.11,0,0,0,0,0l-.25-.29A.05.05,0,0,0,125.84,46.12Z"/><path class="cls-33" d="M125.37,46.4h0l.38-.32a.05.05,0,0,0,0-.08h0l-.25-.3,0,0h-1.57l-.38.32a.06.06,0,0,0,0,.09h0l.25.29a0,0,0,0,0,0,0Z"/><path class="cls-33" d="M123.51,46l.39-.32a0,0,0,0,0,0,0l.26-1.42a.08.08,0,0,0,0,0l-.34-.41a.06.06,0,0,0-.09,0l-.24.21s0,0,0,0l-.29,1.65a.09.09,0,0,0,0,0l.25.29A.05.05,0,0,0,123.51,46Z"/><path class="cls-33" d="M125.2,48.7a.05.05,0,0,0,0,0l.24-.2a.05.05,0,0,0,0-.08h0l-.34-.42-.05,0h-1.53l0,0-.49.41a.06.06,0,0,0,0,.09h0l.17.2,0,0Z"/><path class="cls-33" d="M123.51,47.89l.25-1.42a.11.11,0,0,0,0,0l-.25-.29a.05.05,0,0,0-.08,0l-.38.32s0,0,0,0l-.29,1.62a.06.06,0,0,0,0,0l.17.21a.06.06,0,0,0,.08,0l.5-.41A.05.05,0,0,0,123.51,47.89Z"/><path class="cls-33" d="M127.52,48.28a.41.41,0,0,0-.41-.41.41.41,0,0,0-.42.41.42.42,0,0,0,.42.42A.41.41,0,0,0,127.52,48.28Z"/><rect class="cls-10" x="130.32" y="41.03" width="8.93" height="10.01"/><polygon class="cls-3" points="130.73 50.64 138.84 50.64 138.85 50.63 138.85 50.63 138.85 41.44 138.84 41.44 130.73 41.44 130.73 41.44 130.73 50.63 130.73 50.64"/><rect class="cls-30" x="131" y="41.71" width="7.58" height="8.66"/><rect class="cls-31" x="131" y="41.71" width="7.58" height="8.66"/><path class="cls-32" d="M133.69,48a.05.05,0,0,0,0,0l-.5.41a.07.07,0,0,0,0,.09h0l.17.2.05,0h2l0,0,.25-.2a.06.06,0,0,0,0-.08h0l-.35-.42,0,0Z"/><path class="cls-32" d="M133.53,46.12l-.38.32,0,0-.28,1.62s0,0,0,0l.17.21a.06.06,0,0,0,.08,0l.49-.41s0,0,0,0l.26-1.42,0,0-.25-.29A.05.05,0,0,0,133.53,46.12Z"/><path class="cls-32" d="M133.63,46l.38-.32,0,0,.25-1.42a.07.07,0,0,0,0,0l-.35-.41a.05.05,0,0,0-.08,0l-.25.21,0,0-.29,1.65s0,0,0,0l.25.29A.05.05,0,0,0,133.63,46Z"/><path class="cls-32" d="M134.09,45.67h0l-.38.32a.07.07,0,0,0,0,.09h0l.25.29s0,0,.05,0h1.57l.38-.32a.05.05,0,0,0,0-.08h0l-.25-.3,0,0Z"/><path class="cls-32" d="M136,46.12l-.38.32,0,0h0l-.25,1.42a.07.07,0,0,0,0,0l.35.41a.05.05,0,0,0,.08,0l.24-.2a.08.08,0,0,0,0,0l.29-1.65s0,0,0,0l-.25-.29A.05.05,0,0,0,136,46.12Z"/><path class="cls-32" d="M134.26,43.38h0l-.24.2a.06.06,0,0,0,0,.09h0l.35.41,0,0h1.53l0,0,.5-.41a.06.06,0,0,0,0-.08h0l-.17-.2s0,0,0,0Z"/><path class="cls-32" d="M136,44.18l-.25,1.42a.06.06,0,0,0,0,0l.25.29a.05.05,0,0,0,.08,0l.38-.32,0,0,.28-1.61a0,0,0,0,0,0-.05l-.17-.2a.05.05,0,0,0-.08,0l-.5.42S136,44.17,136,44.18Z"/><path class="cls-32" d="M131.94,43.79a.42.42,0,0,0,.42.42.41.41,0,0,0,.41-.42.41.41,0,0,0-.41-.41A.41.41,0,0,0,131.94,43.79Z"/><path class="cls-33" d="M133.69,48a.05.05,0,0,0,0,0l-.5.41a.07.07,0,0,0,0,.09h0l.17.2.05,0h2l0,0,.25-.2a.06.06,0,0,0,0-.08h0l-.35-.42,0,0Z"/><path class="cls-33" d="M133.53,46.12l-.38.32,0,0-.28,1.62s0,0,0,0l.17.21a.06.06,0,0,0,.08,0l.49-.41s0,0,0,0l.26-1.42,0,0-.25-.29A.05.05,0,0,0,133.53,46.12Z"/><path class="cls-33" d="M133.63,46l.38-.32,0,0,.25-1.42a.07.07,0,0,0,0,0l-.35-.41a.05.05,0,0,0-.08,0l-.25.21,0,0-.29,1.65s0,0,0,0l.25.29A.05.05,0,0,0,133.63,46Z"/><path class="cls-33" d="M134.09,45.67h0l-.38.32a.07.07,0,0,0,0,.09h0l.25.29s0,0,.05,0h1.57l.38-.32a.05.05,0,0,0,0-.08h0l-.25-.3,0,0Z"/><path class="cls-33" d="M136,46.12l-.38.32,0,0h0l-.25,1.42a.07.07,0,0,0,0,0l.35.41a.05.05,0,0,0,.08,0l.24-.2a.08.08,0,0,0,0,0l.29-1.65s0,0,0,0l-.25-.29A.05.05,0,0,0,136,46.12Z"/><path class="cls-33" d="M134.26,43.38h0l-.24.2a.06.06,0,0,0,0,.09h0l.35.41,0,0h1.53l0,0,.5-.41a.06.06,0,0,0,0-.08h0l-.17-.2s0,0,0,0Z"/><path class="cls-33" d="M136,44.18l-.25,1.42a.06.06,0,0,0,0,0l.25.29a.05.05,0,0,0,.08,0l.38-.32,0,0,.28-1.61a0,0,0,0,0,0-.05l-.17-.2a.05.05,0,0,0-.08,0l-.5.42S136,44.17,136,44.18Z"/><path class="cls-33" d="M131.94,43.79a.42.42,0,0,0,.42.42.41.41,0,0,0,.41-.42.41.41,0,0,0-.41-.41A.41.41,0,0,0,131.94,43.79Z"/><path class="cls-29" d="M115.42,46a1,1,0,1,0-1,1A1,1,0,0,0,115.42,46Z"/><path class="cls-29" d="M109.1,46a1,1,0,1,0-1,1A1,1,0,0,0,109.1,46Z"/><path class="cls-29" d="M102.78,46a1,1,0,1,0-1.93,0,1,1,0,0,0,1.93,0Z"/><path class="cls-29" d="M92.77,46a1,1,0,1,0-1.93,0,1,1,0,0,0,1.93,0Z"/><rect class="cls-34" x="68.37" y="25.05" width="32.57" height="12.07" rx="0.85" ry="0.85"/><rect class="cls-21" x="69.35" y="26.16" width="30.62" height="9.85"/><path class="cls-35" d="M99.78,26.35v9.48H69.54V26.35H99.78m.38-.38h-31V36.21h31V26Z"/><rect class="cls-36" x="69.74" y="26.56" width="29.83" height="9.06"/><rect class="cls-37" x="69.93" y="26.73" width="14.64" height="8.72"/><rect class="cls-38" x="74.14" y="26.56" width="6.22" height="0.17"/><rect class="cls-39" x="74.73" y="26.56" width="5.03" height="0.49"/><rect class="cls-37" x="84.75" y="26.75" width="14.64" height="8.72"/><rect class="cls-38" x="88.96" y="26.57" width="6.22" height="0.17"/><rect class="cls-39" x="89.55" y="26.57" width="5.03" height="0.49"/><path class="cls-29" d="M97.19,22.27a1,1,0,1,0-1,1A1,1,0,0,0,97.19,22.27Z"/><path class="cls-29" d="M89.29,22.27a1,1,0,1,0-1,1A1,1,0,0,0,89.29,22.27Z"/><path class="cls-29" d="M82.18,22.27a1,1,0,1,0-1,1A1,1,0,0,0,82.18,22.27Z"/><path class="cls-29" d="M74.28,22.27a1,1,0,1,0-1.93,0,1,1,0,0,0,1.93,0Z"/></g><g id="Sandhawk_Blank" data-name="Sandhawk Blank"><path class="cls-7" d="M273,18.09H169.69a.67.67,0,0,0-.67.67v12.8A1.47,1.47,0,0,1,167.55,33h-5.33a.66.66,0,0,0-.66.66V52.27h109a1,1,0,0,0,1-1V40.54h1.2a.93.93,0,0,0,.93-.93V18.76A.67.67,0,0,0,273,18.09ZM174.3,33a3.47,3.47,0,1,1,2.88-2.88A3.47,3.47,0,0,1,174.3,33Zm24.4-.38a.85.85,0,0,1-.85.85h-16a.85.85,0,0,1-.84-.85V21.86a.85.85,0,0,1,.85-.85h16a.85.85,0,0,1,.85.85Zm24,0a.85.85,0,0,1-.84.85h-16a.85.85,0,0,1-.85-.85V21.86a.85.85,0,0,1,.85-.85h16a.85.85,0,0,1,.85.85Zm8.13.38a3.47,3.47,0,1,1,2.88-2.88A3.47,3.47,0,0,1,230.84,33Zm18-3.16a.94.94,0,0,1-.94.93H236.82a.94.94,0,0,1-.94-.93V24.08a.94.94,0,0,1,.94-.94h11.09a.94.94,0,0,1,.94.94ZM269.34,34a1,1,0,0,1-.94.94H250.79a1,1,0,0,1-.94-.94V25.84a.94.94,0,0,1,.94-.94H268.4a.94.94,0,0,1,.94.94Z"/><path class="cls-25" d="M243.65,21.8a.9.9,0,1,0-.9-.9.9.9,0,0,0,.9.9m0-1.58a.68.68,0,1,1-.68.68.69.69,0,0,1,.68-.68"/><path class="cls-25" d="M241.08,21.8a.9.9,0,1,0-.9-.9.9.9,0,0,0,.9.9m0-1.58a.68.68,0,1,1-.67.68.68.68,0,0,1,.67-.68"/><rect class="cls-25" x="244.82" y="20" width="0.22" height="1.81"/><rect class="cls-25" x="242.25" y="20" width="0.23" height="1.81"/><rect class="cls-25" x="239.69" y="20" width="0.23" height="1.81"/><path class="cls-25" d="M261.74,22.15h-3.37c.33-.24.55-.81,1-.84H260a.36.36,0,0,0,.37.29.37.37,0,0,0,.38-.38c0-.06,0-.08,0-.14a.38.38,0,0,0-.35-.25.37.37,0,0,0-.37.29h-.61c-.58,0-.91.95-1.48,1h-.22a.63.63,0,0,0-.54-.49.61.61,0,0,0-.55.38.68.68,0,0,0,0,.2.56.56,0,0,0,.57.57.57.57,0,0,0,.52-.48h1.23c.52.17.82,1,1.37,1h.25v.28h.74v-.75h-.74v.28h-.25c-.39,0-.6-.52-1-.77h2.46v.34l.9-.43-.9-.44Z"/><path class="cls-25" d="M188.78,18.59h.55a.38.38,0,0,1,.42.39.38.38,0,0,1-.42.39h-.28v.43h-.27Zm.27.57h.2c.13,0,.24,0,.24-.18s-.11-.18-.24-.18h-.2Z"/><path class="cls-25" d="M190.63,19.8h-.24V19h-.3v-.19c.17,0,.32-.05.35-.23h.19Z"/><path class="cls-25" d="M212.78,18.59h.55a.38.38,0,0,1,.42.39.38.38,0,0,1-.42.39h-.28v.43h-.27Zm.27.57h.21c.12,0,.23,0,.23-.18s-.11-.18-.23-.18h-.21Z"/><path class="cls-25" d="M214,19.07a.42.42,0,0,1,.43-.48.38.38,0,0,1,.41.38.41.41,0,0,1-.22.35,1.81,1.81,0,0,0-.34.28h.56v.2H214c0-.27.17-.39.38-.53s.24-.14.25-.29a.17.17,0,0,0-.18-.18c-.15,0-.19.15-.19.27Z"/><rect class="cls-26" x="243.36" y="45.3" width="27.1" height="5.96"/><polyline class="cls-40" points="270.46 50.31 270.46 51.25 269.51 51.25"/><polyline class="cls-40" points="243.36 50.3 243.36 51.26 244.31 51.26"/><path class="cls-25" d="M202.62,24.25l.16-.27h.2V23.9a.48.48,0,0,0-.23-.07.42.42,0,0,0-.38.24h-1.13a.49.49,0,0,0-.46-.3.48.48,0,0,0-.26.07V24h.23l.18.31-.18.3h-.23v.09a.59.59,0,0,0,.26.07.49.49,0,0,0,.47-.34h1.09a.43.43,0,0,0,.41.29.48.48,0,0,0,.23-.07v-.1h-.2Z"/><polygon class="cls-15" points="201.78 30.4 202.11 30.4 202.11 30.66 202.79 30.66 202.79 30.05 202.11 30.05 202.11 30.36 201.78 30.36 201.78 28.73 202.12 28.73 202.12 29.03 202.8 29.03 202.8 28.41 202.12 28.41 202.12 28.69 201.78 28.69 201.78 28.41 201.74 28.41 201.74 29.56 201.38 29.56 201.38 29.26 200.7 29.26 200.7 29.88 201.38 29.88 201.38 29.6 201.74 29.6 201.74 30.66 201.78 30.66 201.78 30.4"/><path class="cls-5" d="M176.88,29.52a3.13,3.13,0,1,0-3.12,3.13A3.13,3.13,0,0,0,176.88,29.52Z"/><path class="cls-41" d="M176.61,29.52a2.86,2.86,0,1,0-2.85,2.86A2.85,2.85,0,0,0,176.61,29.52Z"/><path class="cls-42" d="M172.61,28.83l.2.21a.68.68,0,0,1,0,1h0l-.2.2a.22.22,0,0,0,0,.32h0l.14.13a.22.22,0,0,0,.32,0l.2-.2a.7.7,0,0,1,1,0l.21.21a.22.22,0,0,0,.32,0l.13-.13a.24.24,0,0,0,0-.33h0l-.2-.2a.68.68,0,0,1,0-1h0l.2-.2a.24.24,0,0,0,0-.33h0l-.14-.13a.22.22,0,0,0-.32,0l-.2.2a.68.68,0,0,1-1,0l-.21-.21a.22.22,0,0,0-.32,0l-.13.14a.22.22,0,0,0,0,.32Z"/><path class="cls-5" d="M233.42,29.52a3.13,3.13,0,1,0-3.13,3.13A3.13,3.13,0,0,0,233.42,29.52Z"/><path class="cls-41" d="M233.15,29.52a2.86,2.86,0,1,0-2.86,2.86A2.85,2.85,0,0,0,233.15,29.52Z"/><path class="cls-42" d="M229.15,28.83l.2.21a.68.68,0,0,1,0,1h0l-.2.2a.22.22,0,0,0,0,.32h0l.14.13a.22.22,0,0,0,.32,0l.2-.2a.7.7,0,0,1,1,0l.21.21a.22.22,0,0,0,.32,0l.13-.13a.24.24,0,0,0,0-.33h0l-.2-.2a.68.68,0,0,1,0-1h0l.2-.2a.24.24,0,0,0,0-.33h0l-.14-.13a.22.22,0,0,0-.32,0l-.2.2a.68.68,0,0,1-1,0l-.21-.21a.22.22,0,0,0-.32,0l-.13.14a.22.22,0,0,0,0,.32Z"/><rect class="cls-8" x="180.29" y="20.28" width="19.15" height="13.86"/><path class="cls-9" d="M199.33,20.4V34H180.41V20.4h18.92m.23-.23H180.18V34.26h19.38V20.17Z"/><rect class="cls-10" x="181.03" y="21.02" width="17.69" height="12.39"/><polygon class="cls-11" points="183.1 29.82 183.1 32.92 196.64 32.92 196.64 29.82 196.23 29.7 196.23 27.61 196.64 27.5 196.64 23.62 193.64 23.62 193.64 22.06 192.46 22.06 192.46 21.51 187.28 21.51 187.28 22.06 186.11 22.06 186.11 23.62 183.1 23.62 183.1 27.5 183.51 27.61 183.51 29.7 183.1 29.82"/><rect class="cls-43" x="183.1" y="22.06" width="3.01" height="1.56"/><rect class="cls-43" x="193.64" y="22.06" width="3" height="1.56"/><polygon class="cls-12" points="186.99 32.77 186.95 28.95 187.3 28.91 187.34 32.77 186.99 32.77"/><path class="cls-13" d="M187.3,29v3.78H187V29h.31m.07-.08h-.46v3.94h.46V28.87Z"/><polygon class="cls-12" points="188.08 32.77 188.04 28.95 188.39 28.91 188.43 32.77 188.08 32.77"/><path class="cls-13" d="M188.39,29v3.78h-.31V29h.31m.07-.08H188v3.94h.46V28.87Z"/><polygon class="cls-12" points="189.17 32.77 189.13 28.95 189.48 28.91 189.52 32.77 189.17 32.77"/><path class="cls-13" d="M189.48,29v3.78h-.31V29h.31m.07-.08h-.46v3.94h.46V28.87Z"/><polygon class="cls-12" points="190.26 32.77 190.22 28.95 190.57 28.91 190.61 32.77 190.26 32.77"/><path class="cls-13" d="M190.57,29v3.78h-.31V29h.31m.08-.08h-.47v3.94h.47V28.87Z"/><polygon class="cls-12" points="191.35 32.77 191.31 28.95 191.66 28.91 191.7 32.77 191.35 32.77"/><path class="cls-13" d="M191.66,29v3.78h-.31V29h.31m.08-.08h-.47v3.94h.47V28.87Z"/><polygon class="cls-12" points="192.44 32.77 192.41 28.95 192.75 28.91 192.79 32.77 192.44 32.77"/><path class="cls-13" d="M192.75,29v3.78h-.31V29h.31m.08-.08h-.46v3.94h.46V28.87Z"/><polygon class="cls-12" points="193.53 32.77 193.5 28.95 193.84 28.91 193.88 32.77 193.53 32.77"/><path class="cls-13" d="M193.84,29v3.78h-.3V29h.3m.08-.08h-.46v3.94h.46V28.87Z"/><polygon class="cls-12" points="185.9 32.77 185.86 28.95 186.2 28.91 186.24 32.77 185.9 32.77"/><path class="cls-13" d="M186.2,29v3.78h-.31V29h.31m.08-.08h-.46v3.94h.46V28.87Z"/><rect class="cls-8" x="204.3" y="20.33" width="19.15" height="13.86"/><path class="cls-9" d="M223.33,20.44V34.07H204.41V20.44h18.92m.23-.23H204.18V34.3h19.38V20.21Z"/><rect class="cls-10" x="205.03" y="21.06" width="17.69" height="12.39"/><polygon class="cls-11" points="207.1 29.86 207.1 32.97 220.64 32.97 220.64 29.86 220.24 29.75 220.24 27.66 220.64 27.54 220.64 23.66 217.64 23.66 217.64 22.1 216.46 22.1 216.46 21.55 211.29 21.55 211.29 22.1 210.11 22.1 210.11 23.66 207.1 23.66 207.1 27.54 207.51 27.66 207.51 29.75 207.1 29.86"/><rect class="cls-43" x="207.1" y="22.1" width="3.01" height="1.56"/><rect class="cls-43" x="217.64" y="22.1" width="3" height="1.56"/><polygon class="cls-12" points="210.99 32.81 210.95 28.99 211.3 28.95 211.34 32.81 210.99 32.81"/><path class="cls-13" d="M211.3,29v3.78H211V29h.31m.08-.07h-.47v3.93h.47V28.92Z"/><polygon class="cls-12" points="212.08 32.81 212.04 28.99 212.39 28.95 212.43 32.81 212.08 32.81"/><path class="cls-13" d="M212.39,29v3.78h-.31V29h.31m.08-.07H212v3.93h.46V28.92Z"/><polygon class="cls-12" points="213.17 32.81 213.13 28.99 213.48 28.95 213.52 32.81 213.17 32.81"/><path class="cls-13" d="M213.48,29v3.78h-.31V29h.31m.08-.07h-.46v3.93h.46V28.92Z"/><polygon class="cls-12" points="214.26 32.81 214.22 28.99 214.57 28.95 214.61 32.81 214.26 32.81"/><path class="cls-13" d="M214.57,29v3.78h-.31V29h.31m.08-.07h-.46v3.93h.46V28.92Z"/><polygon class="cls-12" points="215.35 32.81 215.31 28.99 215.66 28.95 215.7 32.81 215.35 32.81"/><path class="cls-13" d="M215.66,29v3.78h-.31V29h.31m.08-.07h-.46v3.93h.46V28.92Z"/><polygon class="cls-12" points="216.45 32.81 216.41 28.99 216.76 28.95 216.79 32.81 216.45 32.81"/><path class="cls-13" d="M216.76,29v3.78h-.31V29h.31m.07-.07h-.46v3.93h.46V28.92Z"/><polygon class="cls-12" points="217.54 32.81 217.5 28.99 217.85 28.95 217.88 32.81 217.54 32.81"/><path class="cls-13" d="M217.85,29v3.78h-.31V29h.31m.07-.07h-.46v3.93h.46V28.92Z"/><polygon class="cls-12" points="209.9 32.81 209.86 28.99 210.21 28.95 210.25 32.81 209.9 32.81"/><path class="cls-13" d="M210.21,29v3.78h-.31V29h.31m.07-.07h-.46v3.93h.46V28.92Z"/><path class="cls-44" d="M245.17,25.14a1,1,0,0,1,.7.28l.64.65a1,1,0,0,1,.29.7v1a1,1,0,0,1-1,1h-6.91a1,1,0,0,1-1-1v-1a1,1,0,0,1,.29-.7l.64-.65a1,1,0,0,1,.7-.28Z"/><path class="cls-45" d="M238.3,26.77v1a.61.61,0,0,0,.61.61h6.91a.61.61,0,0,0,.61-.61v-1a.6.6,0,0,0-.18-.43l-.65-.65a.62.62,0,0,0-.43-.18h-5.61a.62.62,0,0,0-.43.18l-.65.65A.6.6,0,0,0,238.3,26.77Z"/><path class="cls-46" d="M238.37,26.88v.74a.63.63,0,0,0,.64.64h6.71a.63.63,0,0,0,.64-.64v-.74a.64.64,0,0,0-.19-.45l-.63-.64a.66.66,0,0,0-.46-.19h-5.43a.66.66,0,0,0-.46.19l-.63.64A.64.64,0,0,0,238.37,26.88Z"/><path class="cls-47" d="M238.69,26.88v.74a.32.32,0,0,0,.32.32h6.71a.32.32,0,0,0,.32-.32v-.74a.32.32,0,0,0-.09-.23l-.64-.64a.32.32,0,0,0-.23-.09h-5.43a.32.32,0,0,0-.23.09l-.64.64A.32.32,0,0,0,238.69,26.88Z"/><polygon class="cls-48" points="242.15 27.25 242.13 27.12 242.58 27.11 242.6 27.25 242.15 27.25"/><path class="cls-13" d="M242.58,27.12v.11h-.43v-.11h.43m0,0h-.51v.18h.51v-.18Z"/><polygon class="cls-48" points="241.46 27.25 241.44 27.12 241.89 27.11 241.91 27.25 241.46 27.25"/><path class="cls-13" d="M241.89,27.12v.11h-.43v-.11h.43m0,0h-.5v.18h.5v-.18Z"/><polygon class="cls-48" points="240.77 27.25 240.75 27.12 241.19 27.11 241.21 27.25 240.77 27.25"/><path class="cls-13" d="M241.19,27.12v.11h-.42v-.11h.42m0,0h-.5v.18h.5v-.18Z"/><polygon class="cls-48" points="243.54 27.25 243.52 27.12 243.96 27.11 243.98 27.25 243.54 27.25"/><path class="cls-13" d="M244,27.12v.11h-.42v-.11H244m0,0h-.5v.18h.5v-.18Z"/><polygon class="cls-12" points="242.84 27.25 242.83 27.12 243.27 27.11 243.29 27.25 242.84 27.25"/><path class="cls-13" d="M243.27,27.12v.11h-.43v-.11h.43m0,0h-.5v.18h.5v-.18Z"/><path class="cls-18" d="M242.13,25.51h-2.19a.22.22,0,0,0-.13.2v.21h2.53v-.21a.23.23,0,0,0-.12-.2Z"/><path class="cls-18" d="M244.71,25.51h-2.2a.23.23,0,0,0-.12.2v.21h2.53v-.21a.22.22,0,0,0-.13-.2Z"/><path class="cls-18" d="M246.43,27a.21.21,0,0,0-.17-.09H246v.62h.22a.23.23,0,0,0,.17-.08Z"/><path class="cls-18" d="M239.33,28.35h6.16a.21.21,0,0,0,.13-.19v-.22h-6.51v.22a.22.22,0,0,0,.13.19Z"/><path class="cls-18" d="M238.3,27.48a.23.23,0,0,0,.18.08h.21v-.62h-.21a.21.21,0,0,0-.18.09Z"/><path class="cls-49" d="M241.46,27h-.27v.21h-.42V27h-.09a.18.18,0,0,0-.18.18h0v.25a.19.19,0,0,0,.18.19h3.37a.19.19,0,0,0,.18-.19V27.2a.18.18,0,0,0-.18-.18H244v.21h-.42V27h-.27v.21h-.43V27h-.26v.21h-.43V27h-.26v.21h-.43Z"/><rect class="cls-8" x="252.33" y="26.53" width="14.54" height="6.72" rx="0.96" ry="0.96"/><polygon class="cls-50" points="253.35 26.53 253.35 33.25 258.19 33.25 258.19 32.78 259.47 32.78 259.72 32.78 261 32.78 261 33.25 265.83 33.25 265.83 26.53 253.35 26.53"/><path class="cls-9" d="M265.9,27H253.29a.54.54,0,0,0-.55.55v4.79a.55.55,0,0,0,.55.55H265.9a.55.55,0,0,0,.55-.55V27.5a.55.55,0,0,0-.55-.55Z"/><path class="cls-47" d="M265.9,27.15H253.29a.35.35,0,0,0-.34.35h0v4.79a.34.34,0,0,0,.34.34H265.9a.34.34,0,0,0,.34-.34V27.5a.35.35,0,0,0-.34-.35Z"/><polygon class="cls-51" points="255.43 29.84 255.41 29.36 256.26 29.33 256.29 29.84 255.43 29.84"/><path class="cls-52" d="M256.26,29.35v.47h-.83v-.47h.83m.05-.05h-.93v.57h.93V29.3Z"/><polygon class="cls-51" points="262.93 29.84 262.9 29.36 263.75 29.33 263.78 29.84 262.93 29.84"/><path class="cls-52" d="M263.75,29.35v.47h-.82v-.47h.82m.06-.05h-.93v.57h.93V29.3Z"/><polygon class="cls-51" points="258.22 29.84 258.19 29.36 259.05 29.33 259.07 29.84 258.22 29.84"/><path class="cls-52" d="M259,29.35v.47h-.82v-.47H259m.06-.05h-.93v.57h.93V29.3Z"/><polygon class="cls-51" points="260.14 29.84 260.12 29.36 260.97 29.33 261 29.84 260.14 29.84"/><path class="cls-52" d="M261,29.35v.47h-.83v-.47H261m0-.05h-.93v.57H261V29.3Z"/><polygon class="cls-12" points="255.43 30.15 255.41 29.66 256.26 29.64 256.29 30.15 255.43 30.15"/><path class="cls-13" d="M256.26,29.66v.46h-.83v-.46h.83m.05-.05h-.93v.56h.93v-.56Z"/><polygon class="cls-12" points="262.93 30.15 262.9 29.66 263.75 29.64 263.78 30.15 262.93 30.15"/><path class="cls-13" d="M263.75,29.66v.46h-.82v-.46h.82m.06-.05h-.93v.56h.93v-.56Z"/><polygon class="cls-12" points="258.22 30.15 258.19 29.66 259.05 29.64 259.07 30.15 258.22 30.15"/><path class="cls-13" d="M259,29.66v.46h-.82v-.46H259m.06-.05h-.93v.56h.93v-.56Z"/><polygon class="cls-12" points="260.14 30.15 260.12 29.66 260.97 29.64 261 30.15 260.14 30.15"/><path class="cls-13" d="M261,29.66v.46h-.83v-.46H261m0-.05h-.93v.56H261v-.56Z"/><rect class="cls-53" x="253.79" y="29.99" width="11.62" height="1.78"/><path class="cls-21" d="M265.31,30.08v1.59H253.88V30.08h11.43m.19-.19H253.69v2H265.5v-2Z"/><rect class="cls-9" x="266.24" y="27.9" width="0.62" height="3.98"/><rect class="cls-9" x="252.33" y="27.9" width="0.62" height="3.98"/></g><g id="E2800_Latch" data-name="E2800 Latch"><rect class="cls-14" x="259.7" y="53.34" width="20.48" height="1.33"/><path class="cls-49" d="M128,50.42v5.32H264.8a.27.27,0,0,0,.26-.27h0V52.54a.26.26,0,0,0-.26-.26H173.89a.27.27,0,0,1-.27-.27V50.68a.26.26,0,0,0-.27-.26H128Z"/><path class="cls-54" d="M136.47,50.42H124.05v5.32h37.38V50.42h-1.78a10.15,10.15,0,0,1-2.78-.4l-6.49-1.87a9.51,9.51,0,0,0-2.48-.39h-8.53a.71.71,0,0,0-.54.28L137,50.14A.74.74,0,0,1,136.47,50.42Z"/><path class="cls-54" d="M127.45,50.42H108.68v5.32h26.83a.54.54,0,0,0,.54-.53h0V48.29a.54.54,0,0,0-.54-.54h-3.68A1.35,1.35,0,0,0,131,48l-2.75,2.11A1.33,1.33,0,0,1,127.45,50.42Z"/><path class="cls-55" d="M128,50.42H49.5a.26.26,0,0,0-.27.26v4.79a.27.27,0,0,0,.27.27H128Z"/><path class="cls-56" d="M159.89,51.37h-3.08a10.2,10.2,0,0,1-2.69-.36l-5.93-1.58a9.28,9.28,0,0,0-2.39-.31h-3.42v5.4h17.51Z"/><polygon class="cls-57" points="146.86 51.76 144.76 50.73 144.76 52.91 146.86 51.76"/></g><g id="Callout_Gizmo" data-name="Callout Gizmo"><line id="Line" class="cls-58" x1="22.22" y1="27.44" x2="178.72" y2="27.44"/><text class="cls-59" transform="translate(19.84 31.69)">1</text><circle class="cls-60" cx="22.22" cy="27.44" r="9"/><text class="cls-59" transform="translate(19.84 31.69)">1</text></g><rect class="cls-58" x="179.01" y="16.68" width="21.48" height="19.44"/></g></svg>