<svg xmlns="http://www.w3.org/2000/svg" viewBox="0 0 321.42 68.29"><defs><style>.cls-1,.cls-13,.cls-5{fill:#e6e7e8;}.cls-1,.cls-5{stroke:#bbbdbf;stroke-width:0.23px;}.cls-1,.cls-15,.cls-5,.cls-9{stroke-miterlimit:10;}.cls-1,.cls-12,.cls-6,.cls-7,.cls-9{fill-rule:evenodd;}.cls-2{fill:#929497;}.cls-3,.cls-7{fill:#202020;}.cls-4{fill:#414042;}.cls-6{fill:#487ec1;}.cls-8{fill:#3d609b;}.cls-9{fill:#282828;stroke:#202020;stroke-width:0.34px;}.cls-10{fill:#333;}.cls-11,.cls-12{fill:#404b5b;}.cls-14{fill:#58595b;}.cls-15{fill:none;stroke:#f69220;stroke-linecap:round;}.cls-16{font-size:8px;fill:#2d2a26;font-family:Gotham-Medium, Gotham;font-weight:500;}.cls-17{fill:#fff;}</style></defs><title>Artboard 11</title><g id="Rulers"><path class="cls-1" d="M315.55,6.91H313a.25.25,0,0,0-.25.25V7.7a.25.25,0,0,1-.25.25h-4.9a.25.25,0,0,1-.25-.25V7.16a.23.23,0,0,0-.23-.25H14.27a.23.23,0,0,0-.23.25V7.7a.25.25,0,0,1-.25.25H8.89a.25.25,0,0,1-.25-.25V7.16a.25.25,0,0,0-.25-.25H5.85a.4.4,0,0,0-.39.4V61.43a.38.38,0,0,0,.39.38H8.39a.24.24,0,0,0,.25-.22V61a.25.25,0,0,1,.25-.25h4.9A.25.25,0,0,1,14,61v.55a.21.21,0,0,0,.23.22H307.15a.21.21,0,0,0,.23-.22V61a.25.25,0,0,1,.25-.25h4.9a.25.25,0,0,1,.25.25v.55a.23.23,0,0,0,.25.22h2.54a.38.38,0,0,0,.39-.38V7.31A.4.4,0,0,0,315.55,6.91ZM12.63,11.83a1.42,1.42,0,1,1-1.43,1.41A1.42,1.42,0,0,1,12.63,11.83Zm.06,45.08A1.42,1.42,0,1,1,14.1,55.5,1.41,1.41,0,0,1,12.69,56.91Zm-1.9-4.7A3.34,3.34,0,1,1,14.1,48.9,3.34,3.34,0,0,1,10.79,52.21Zm299.9,0A3.34,3.34,0,1,1,314,48.9,3.34,3.34,0,0,1,310.69,52.21ZM12,22.32H9.55a2,2,0,1,1,0-4.09H12a2,2,0,0,1,0,4.09ZM308.79,11.83a1.42,1.42,0,1,1-1.41,1.41A1.43,1.43,0,0,1,308.79,11.83Zm-.06,45.08a1.42,1.42,0,0,1,0-2.84,1.42,1.42,0,1,1,0,2.84Zm3.17-34.59h-2.48a2,2,0,0,1,0-4.09h2.48a2,2,0,0,1,0,4.09Z"/><rect class="cls-2" x="16.08" y="8.11" width="289.25" height="52.51"/><rect class="cls-3" x="136.09" y="-108.63" width="49.24" height="285.98" transform="translate(195.07 -126.35) rotate(90)"/><rect class="cls-4" x="17.72" y="9.74" width="2.38" height="49.24"/><rect class="cls-4" x="301.32" y="9.74" width="2.38" height="49.24"/><rect class="cls-5" x="16.06" y="58.85" width="289.28" height="1.8"/><rect class="cls-5" x="16.06" y="6.48" width="289.28" height="2.11"/><path class="cls-6" d="M21.81,9.85v49a.4.4,0,0,0,.41.4h9a.41.41,0,0,0,.41-.4v-49a.41.41,0,0,0-.41-.41h-9A.41.41,0,0,0,21.81,9.85Z"/><path class="cls-7" d="M29.1,50.44l1.45-4.34a.14.14,0,0,0,0-.16l-1.45-1.49a.16.16,0,0,0-.22,0h0l-1.46,1.49a.15.15,0,0,0,0,.16l1.45,4.34a.17.17,0,0,0,.2.1A.24.24,0,0,0,29.1,50.44Z"/><path class="cls-7" d="M24.62,50.44l1.45-4.34a.15.15,0,0,0,0-.16l-1.46-1.49a.16.16,0,0,0-.22,0h0L22.9,45.94a.15.15,0,0,0,0,.16l1.45,4.34a.17.17,0,0,0,.2.1A.24.24,0,0,0,24.62,50.44Z"/><path class="cls-7" d="M29.1,29.12l1.45-4.34a.14.14,0,0,0,0-.16l-1.45-1.48a.16.16,0,0,0-.22,0h0l-1.46,1.48a.15.15,0,0,0,0,.16l1.45,4.34a.16.16,0,0,0,.2.1A.19.19,0,0,0,29.1,29.12Z"/><path class="cls-7" d="M24.62,29.12l1.45-4.34a.15.15,0,0,0,0-.16l-1.46-1.48a.16.16,0,0,0-.22,0h0L22.9,24.62a.15.15,0,0,0,0,.16l1.45,4.34a.16.16,0,0,0,.2.1A.19.19,0,0,0,24.62,29.12Z"/><path class="cls-7" d="M25.14,31.72,26.6,33.2a.16.16,0,0,0,.22,0h0l1.46-1.48a.16.16,0,0,0,0-.16l-1.45-4.35a.16.16,0,0,0-.2-.09.15.15,0,0,0-.1.09l-1.45,4.35A.16.16,0,0,0,25.14,31.72Z"/><path class="cls-7" d="M29.1,39.78l1.45-4.34a.14.14,0,0,0,0-.16l-1.45-1.49a.16.16,0,0,0-.22,0h0l-1.46,1.49a.15.15,0,0,0,0,.16l1.45,4.34a.16.16,0,0,0,.2.1A.19.19,0,0,0,29.1,39.78Z"/><path class="cls-7" d="M25.14,42.37l1.46,1.49a.16.16,0,0,0,.22,0h0l1.46-1.49a.14.14,0,0,0,0-.15l-1.45-4.35a.17.17,0,0,0-.2-.1.19.19,0,0,0-.1.1l-1.45,4.35A.14.14,0,0,0,25.14,42.37Z"/><path class="cls-7" d="M24.62,39.78l1.45-4.34a.15.15,0,0,0,0-.16l-1.46-1.49a.16.16,0,0,0-.22,0h0L22.9,35.28a.15.15,0,0,0,0,.16l1.45,4.34a.16.16,0,0,0,.2.1A.19.19,0,0,0,24.62,39.78Z"/><rect class="cls-8" x="21.81" y="11.69" width="9.8" height="9.1"/><path class="cls-9" d="M23.44,57.75H30a.13.13,0,0,0,.13-.13h0V51.7a.13.13,0,0,0-.13-.13h-6.6a.13.13,0,0,0-.13.13v5.92A.13.13,0,0,0,23.44,57.75Z"/><path class="cls-10" d="M31.61,19.18V16.27a.83.83,0,0,0-.82-.83H22.63a.83.83,0,0,0-.82.83v3.85a.49.49,0,0,0,.49.49h8.82a.49.49,0,0,0,.49-.49h0Z"/><path class="cls-11" d="M27.41,10.27v.53a.24.24,0,0,0,.25.23h1.06A.23.23,0,0,0,29,10.8h0v-.53a.23.23,0,0,0-.24-.22H27.66A.24.24,0,0,0,27.41,10.27Z"/><path class="cls-11" d="M24.45,10.27v.53a.24.24,0,0,0,.25.23h1.06A.23.23,0,0,0,26,10.8h0v-.53a.23.23,0,0,0-.24-.22H24.7a.24.24,0,0,0-.25.22Z"/><path class="cls-12" d="M22.59,16.27a.17.17,0,0,0-.16.17.16.16,0,0,0,.16.16h8.23a.17.17,0,0,0,.17-.16.18.18,0,0,0-.17-.17Z"/><path class="cls-12" d="M22.59,16.91a.16.16,0,0,0-.16.16.16.16,0,0,0,.16.17h8.23a.17.17,0,0,0,.17-.17.17.17,0,0,0-.17-.16Z"/><path class="cls-12" d="M22.59,17.55a.16.16,0,0,0-.16.16.17.17,0,0,0,.16.17h8.23a.18.18,0,0,0,.17-.17.17.17,0,0,0-.17-.16Z"/><path class="cls-6" d="M33.41,9.85v49a.4.4,0,0,0,.4.4h9a.4.4,0,0,0,.4-.4v-49a.4.4,0,0,0-.4-.41h-9A.4.4,0,0,0,33.41,9.85Z"/><path class="cls-7" d="M40.69,50.44l1.46-4.34a.16.16,0,0,0,0-.16l-1.46-1.49a.15.15,0,0,0-.21,0h0L39,45.94a.16.16,0,0,0,0,.16l1.46,4.34a.15.15,0,0,0,.19.1A.16.16,0,0,0,40.69,50.44Z"/><path class="cls-7" d="M36.21,50.44l1.46-4.34a.16.16,0,0,0,0-.16l-1.45-1.49a.16.16,0,0,0-.22,0h0L34.5,45.94a.16.16,0,0,0,0,.16l1.46,4.34a.15.15,0,0,0,.19.1A.16.16,0,0,0,36.21,50.44Z"/><path class="cls-7" d="M40.69,29.12l1.46-4.34a.16.16,0,0,0,0-.16l-1.46-1.48a.15.15,0,0,0-.21,0h0L39,24.62a.16.16,0,0,0,0,.16l1.46,4.34a.15.15,0,0,0,.19.1A.14.14,0,0,0,40.69,29.12Z"/><path class="cls-7" d="M36.21,29.12l1.46-4.34a.16.16,0,0,0,0-.16l-1.45-1.48a.16.16,0,0,0-.22,0h0L34.5,24.62a.16.16,0,0,0,0,.16l1.46,4.34a.15.15,0,0,0,.19.1A.14.14,0,0,0,36.21,29.12Z"/><path class="cls-7" d="M36.74,31.72l1.45,1.48a.16.16,0,0,0,.22,0h0l1.45-1.48a.17.17,0,0,0,0-.16l-1.46-4.35a.15.15,0,0,0-.2-.09.14.14,0,0,0-.09.09L36.7,31.56A.17.17,0,0,0,36.74,31.72Z"/><path class="cls-7" d="M40.69,39.78l1.46-4.34a.16.16,0,0,0,0-.16l-1.46-1.49a.15.15,0,0,0-.21,0h0L39,35.28a.16.16,0,0,0,0,.16l1.46,4.34a.15.15,0,0,0,.19.1A.14.14,0,0,0,40.69,39.78Z"/><path class="cls-7" d="M36.74,42.37l1.45,1.49a.16.16,0,0,0,.22,0h0l1.45-1.49a.14.14,0,0,0,0-.15l-1.46-4.35a.17.17,0,0,0-.2-.1.18.18,0,0,0-.09.1L36.7,42.22A.14.14,0,0,0,36.74,42.37Z"/><path class="cls-7" d="M36.21,39.78l1.46-4.34a.16.16,0,0,0,0-.16l-1.45-1.49a.16.16,0,0,0-.22,0h0L34.5,35.28a.16.16,0,0,0,0,.16l1.46,4.34a.15.15,0,0,0,.19.1A.14.14,0,0,0,36.21,39.78Z"/><rect class="cls-8" x="33.41" y="11.69" width="9.8" height="9.1"/><path class="cls-9" d="M35,57.75h6.61a.12.12,0,0,0,.12-.13h0V51.7a.12.12,0,0,0-.12-.13H35a.12.12,0,0,0-.12.13v5.92A.12.12,0,0,0,35,57.75Z"/><path class="cls-10" d="M43.2,19.18V16.27a.82.82,0,0,0-.81-.83H34.22a.82.82,0,0,0-.81.83v3.85a.48.48,0,0,0,.49.49h8.81a.49.49,0,0,0,.49-.49h0Z"/><path class="cls-11" d="M39,10.27v.53a.23.23,0,0,0,.24.23h1.07a.23.23,0,0,0,.24-.23h0v-.53a.23.23,0,0,0-.24-.22H39.25A.23.23,0,0,0,39,10.27Z"/><path class="cls-11" d="M36.05,10.27v.53a.23.23,0,0,0,.24.23h1.07a.23.23,0,0,0,.24-.23h0v-.53a.23.23,0,0,0-.24-.22H36.29a.23.23,0,0,0-.24.22Z"/><path class="cls-12" d="M34.19,16.27a.17.17,0,0,0-.16.17.16.16,0,0,0,.16.16h8.23a.16.16,0,0,0,.16-.16.17.17,0,0,0-.16-.17Z"/><path class="cls-12" d="M34.19,16.91a.16.16,0,0,0-.16.16.16.16,0,0,0,.16.17h8.23a.16.16,0,0,0,.16-.17.16.16,0,0,0-.16-.16Z"/><path class="cls-12" d="M34.19,17.55a.16.16,0,0,0-.16.16.17.17,0,0,0,.16.17h8.23a.17.17,0,0,0,.16-.17.16.16,0,0,0-.16-.16Z"/><path class="cls-6" d="M45,9.85v49a.4.4,0,0,0,.41.4h9a.4.4,0,0,0,.41-.4v-49a.41.41,0,0,0-.41-.41h-9A.41.41,0,0,0,45,9.85Z"/><path class="cls-7" d="M52.29,50.44l1.45-4.34a.15.15,0,0,0,0-.16l-1.46-1.49a.16.16,0,0,0-.22,0h0l-1.46,1.49a.15.15,0,0,0,0,.16L52,50.44a.17.17,0,0,0,.2.1A.19.19,0,0,0,52.29,50.44Z"/><path class="cls-7" d="M47.81,50.44l1.45-4.34a.15.15,0,0,0,0-.16l-1.46-1.49a.16.16,0,0,0-.22,0h0l-1.46,1.49a.15.15,0,0,0,0,.16l1.45,4.34a.17.17,0,0,0,.2.1A.19.19,0,0,0,47.81,50.44Z"/><path class="cls-7" d="M52.29,29.12l1.45-4.34a.15.15,0,0,0,0-.16l-1.46-1.48a.16.16,0,0,0-.22,0h0l-1.46,1.48a.15.15,0,0,0,0,.16L52,29.12a.16.16,0,0,0,.2.1A.17.17,0,0,0,52.29,29.12Z"/><path class="cls-7" d="M47.81,29.12l1.45-4.34a.15.15,0,0,0,0-.16l-1.46-1.48a.16.16,0,0,0-.22,0h0l-1.46,1.48a.15.15,0,0,0,0,.16l1.45,4.34a.16.16,0,0,0,.2.1A.17.17,0,0,0,47.81,29.12Z"/><path class="cls-7" d="M48.33,31.72l1.46,1.48a.16.16,0,0,0,.22,0h0l1.46-1.48a.16.16,0,0,0,0-.16l-1.45-4.35a.16.16,0,0,0-.2-.09.15.15,0,0,0-.1.09L48.3,31.56A.16.16,0,0,0,48.33,31.72Z"/><path class="cls-7" d="M52.29,39.78l1.45-4.34a.15.15,0,0,0,0-.16l-1.46-1.49a.16.16,0,0,0-.22,0h0l-1.46,1.49a.15.15,0,0,0,0,.16L52,39.78a.16.16,0,0,0,.2.1A.17.17,0,0,0,52.29,39.78Z"/><path class="cls-7" d="M48.33,42.37l1.46,1.49a.16.16,0,0,0,.22,0h0l1.46-1.49a.14.14,0,0,0,0-.15l-1.45-4.35a.17.17,0,0,0-.2-.1.19.19,0,0,0-.1.1L48.3,42.22A.14.14,0,0,0,48.33,42.37Z"/><path class="cls-7" d="M47.81,39.78l1.45-4.34a.15.15,0,0,0,0-.16l-1.46-1.49a.16.16,0,0,0-.22,0h0l-1.46,1.49a.15.15,0,0,0,0,.16l1.45,4.34a.16.16,0,0,0,.2.1A.17.17,0,0,0,47.81,39.78Z"/><rect class="cls-8" x="45" y="11.69" width="9.8" height="9.1"/><path class="cls-9" d="M46.63,57.75h6.6a.13.13,0,0,0,.13-.13h0V51.7a.13.13,0,0,0-.13-.13h-6.6a.13.13,0,0,0-.13.13v5.92A.13.13,0,0,0,46.63,57.75Z"/><path class="cls-10" d="M54.8,19.18V16.27a.83.83,0,0,0-.82-.83H45.82a.83.83,0,0,0-.82.83v3.85a.49.49,0,0,0,.49.49h8.82a.49.49,0,0,0,.49-.49h0Z"/><path class="cls-11" d="M50.6,10.27v.53a.24.24,0,0,0,.25.23h1.06a.24.24,0,0,0,.25-.23h0v-.53a.24.24,0,0,0-.25-.22H50.85A.24.24,0,0,0,50.6,10.27Z"/><path class="cls-11" d="M47.64,10.27v.53a.24.24,0,0,0,.25.23H49a.24.24,0,0,0,.25-.23h0v-.53a.24.24,0,0,0-.25-.22H47.89a.24.24,0,0,0-.25.22Z"/><path class="cls-12" d="M45.78,16.27a.17.17,0,0,0-.16.17.16.16,0,0,0,.16.16H54a.16.16,0,0,0,.17-.16.17.17,0,0,0-.17-.17Z"/><path class="cls-12" d="M45.78,16.91a.16.16,0,0,0-.16.16.16.16,0,0,0,.16.17H54a.16.16,0,0,0,.17-.17.16.16,0,0,0-.17-.16Z"/><path class="cls-12" d="M45.78,17.55a.16.16,0,0,0-.16.16.17.17,0,0,0,.16.17H54a.17.17,0,0,0,.17-.17.16.16,0,0,0-.17-.16Z"/><path class="cls-6" d="M56.6,9.85v49a.4.4,0,0,0,.4.4h9a.4.4,0,0,0,.4-.4v-49a.4.4,0,0,0-.4-.41H57A.4.4,0,0,0,56.6,9.85Z"/><path class="cls-7" d="M63.88,50.44l1.46-4.34a.16.16,0,0,0,0-.16l-1.45-1.49a.16.16,0,0,0-.22,0h0l-1.45,1.49a.16.16,0,0,0,0,.16l1.46,4.34a.16.16,0,0,0,.19.1A.16.16,0,0,0,63.88,50.44Z"/><path class="cls-7" d="M59.4,50.44l1.46-4.34a.16.16,0,0,0,0-.16l-1.45-1.49a.16.16,0,0,0-.22,0h0l-1.46,1.49a.16.16,0,0,0,0,.16l1.46,4.34a.17.17,0,0,0,.2.1A.18.18,0,0,0,59.4,50.44Z"/><path class="cls-7" d="M63.88,29.12l1.46-4.34a.16.16,0,0,0,0-.16l-1.45-1.48a.16.16,0,0,0-.22,0h0l-1.45,1.48a.16.16,0,0,0,0,.16l1.46,4.34a.15.15,0,0,0,.19.1A.14.14,0,0,0,63.88,29.12Z"/><path class="cls-7" d="M59.4,29.12l1.46-4.34a.16.16,0,0,0,0-.16l-1.45-1.48a.16.16,0,0,0-.22,0h0l-1.46,1.48a.16.16,0,0,0,0,.16l1.46,4.34a.16.16,0,0,0,.2.1A.15.15,0,0,0,59.4,29.12Z"/><path class="cls-7" d="M59.93,31.72l1.45,1.48a.16.16,0,0,0,.22,0h0l1.45-1.48a.17.17,0,0,0,0-.16l-1.46-4.35a.14.14,0,0,0-.19-.09.13.13,0,0,0-.1.09l-1.46,4.35A.17.17,0,0,0,59.93,31.72Z"/><path class="cls-7" d="M63.88,39.78l1.46-4.34a.16.16,0,0,0,0-.16l-1.45-1.49a.16.16,0,0,0-.22,0h0l-1.45,1.49a.16.16,0,0,0,0,.16l1.46,4.34a.15.15,0,0,0,.19.1A.14.14,0,0,0,63.88,39.78Z"/><path class="cls-7" d="M59.93,42.37l1.45,1.49a.16.16,0,0,0,.22,0h0l1.45-1.49a.14.14,0,0,0,0-.15l-1.46-4.35a.15.15,0,0,0-.19-.1.16.16,0,0,0-.1.1l-1.46,4.35A.14.14,0,0,0,59.93,42.37Z"/><path class="cls-7" d="M59.4,39.78l1.46-4.34a.16.16,0,0,0,0-.16l-1.45-1.49a.16.16,0,0,0-.22,0h0l-1.46,1.49a.16.16,0,0,0,0,.16l1.46,4.34a.16.16,0,0,0,.2.1A.15.15,0,0,0,59.4,39.78Z"/><rect class="cls-8" x="56.6" y="11.69" width="9.8" height="9.1"/><path class="cls-9" d="M58.23,57.75h6.6a.13.13,0,0,0,.13-.13h0V51.7a.13.13,0,0,0-.13-.13h-6.6a.13.13,0,0,0-.13.13v5.92A.13.13,0,0,0,58.23,57.75Z"/><path class="cls-10" d="M66.39,19.18V16.27a.82.82,0,0,0-.81-.83H57.41a.82.82,0,0,0-.81.83v3.85a.49.49,0,0,0,.49.49H65.9a.48.48,0,0,0,.49-.49h0Z"/><path class="cls-11" d="M62.2,10.27v.53a.23.23,0,0,0,.24.23h1.07a.23.23,0,0,0,.24-.23h0v-.53a.23.23,0,0,0-.24-.22H62.44A.23.23,0,0,0,62.2,10.27Z"/><path class="cls-11" d="M59.24,10.27v.53a.23.23,0,0,0,.24.23h1.07a.23.23,0,0,0,.24-.23h0v-.53a.23.23,0,0,0-.24-.22H59.49a.24.24,0,0,0-.25.22Z"/><path class="cls-12" d="M57.38,16.27a.17.17,0,0,0-.16.17.16.16,0,0,0,.16.16h8.23a.16.16,0,0,0,.16-.16.17.17,0,0,0-.16-.17Z"/><path class="cls-12" d="M57.38,16.91a.16.16,0,0,0-.16.16.16.16,0,0,0,.16.17h8.23a.16.16,0,0,0,.16-.17.16.16,0,0,0-.16-.16Z"/><path class="cls-12" d="M57.38,17.55a.16.16,0,0,0-.16.16.17.17,0,0,0,.16.17h8.23a.17.17,0,0,0,.16-.17.16.16,0,0,0-.16-.16Z"/><path class="cls-6" d="M68.19,9.85v49a.41.41,0,0,0,.41.4h9a.4.4,0,0,0,.41-.4v-49a.41.41,0,0,0-.41-.41h-9A.41.41,0,0,0,68.19,9.85Z"/><path class="cls-7" d="M75.48,50.44l1.45-4.34a.15.15,0,0,0,0-.16l-1.46-1.49a.16.16,0,0,0-.22,0h0l-1.46,1.49a.15.15,0,0,0,0,.16l1.45,4.34a.17.17,0,0,0,.2.1A.19.19,0,0,0,75.48,50.44Z"/><path class="cls-7" d="M71,50.44l1.45-4.34a.15.15,0,0,0,0-.16L71,44.45a.16.16,0,0,0-.22,0h0l-1.45,1.49a.14.14,0,0,0,0,.16l1.45,4.34a.17.17,0,0,0,.2.1A.19.19,0,0,0,71,50.44Z"/><path class="cls-7" d="M75.48,29.12l1.45-4.34a.15.15,0,0,0,0-.16l-1.46-1.48a.16.16,0,0,0-.22,0h0l-1.46,1.48a.15.15,0,0,0,0,.16l1.45,4.34a.16.16,0,0,0,.2.1A.17.17,0,0,0,75.48,29.12Z"/><path class="cls-7" d="M71,29.12l1.45-4.34a.15.15,0,0,0,0-.16L71,23.14a.16.16,0,0,0-.22,0h0l-1.45,1.48a.14.14,0,0,0,0,.16l1.45,4.34a.16.16,0,0,0,.2.1A.17.17,0,0,0,71,29.12Z"/><path class="cls-7" d="M71.52,31.72,73,33.2a.16.16,0,0,0,.22,0h0l1.46-1.48a.16.16,0,0,0,0-.16l-1.45-4.35a.16.16,0,0,0-.2-.09.18.18,0,0,0-.1.09l-1.45,4.35A.16.16,0,0,0,71.52,31.72Z"/><path class="cls-7" d="M75.48,39.78l1.45-4.34a.15.15,0,0,0,0-.16l-1.46-1.49a.16.16,0,0,0-.22,0h0l-1.46,1.49a.15.15,0,0,0,0,.16l1.45,4.34a.16.16,0,0,0,.2.1A.17.17,0,0,0,75.48,39.78Z"/><path class="cls-7" d="M71.52,42.37,73,43.86a.16.16,0,0,0,.22,0h0l1.46-1.49a.14.14,0,0,0,0-.15l-1.45-4.35a.17.17,0,0,0-.2-.1.24.24,0,0,0-.1.1l-1.45,4.35A.14.14,0,0,0,71.52,42.37Z"/><path class="cls-7" d="M71,39.78l1.45-4.34a.15.15,0,0,0,0-.16L71,33.79a.16.16,0,0,0-.22,0h0l-1.45,1.49a.14.14,0,0,0,0,.16l1.45,4.34a.16.16,0,0,0,.2.1A.17.17,0,0,0,71,39.78Z"/><rect class="cls-8" x="68.19" y="11.69" width="9.8" height="9.1"/><path class="cls-9" d="M69.82,57.75h6.6a.13.13,0,0,0,.13-.13h0V51.7a.13.13,0,0,0-.13-.13h-6.6a.13.13,0,0,0-.13.13v5.92A.13.13,0,0,0,69.82,57.75Z"/><path class="cls-10" d="M78,19.18V16.27a.83.83,0,0,0-.82-.83H69a.83.83,0,0,0-.82.83v3.85a.49.49,0,0,0,.49.49H77.5a.49.49,0,0,0,.49-.49h0Z"/><path class="cls-11" d="M73.8,10.27v.53A.23.23,0,0,0,74,11H75.1a.24.24,0,0,0,.25-.23h0v-.53a.24.24,0,0,0-.25-.22H74A.23.23,0,0,0,73.8,10.27Z"/><path class="cls-11" d="M70.84,10.27v.53a.23.23,0,0,0,.24.23h1.06a.24.24,0,0,0,.25-.23h0v-.53a.24.24,0,0,0-.25-.22H71.08a.23.23,0,0,0-.24.22Z"/><path class="cls-12" d="M69,16.27a.18.18,0,0,0-.17.17.17.17,0,0,0,.17.16h8.23a.16.16,0,0,0,.16-.16.17.17,0,0,0-.16-.17Z"/><path class="cls-12" d="M69,16.91a.17.17,0,0,0-.17.16.17.17,0,0,0,.17.17h8.23a.16.16,0,0,0,.16-.17.16.16,0,0,0-.16-.16Z"/><path class="cls-12" d="M69,17.55a.17.17,0,0,0-.17.16.18.18,0,0,0,.17.17h8.23a.17.17,0,0,0,.16-.17.16.16,0,0,0-.16-.16Z"/><path class="cls-6" d="M79.79,9.85v49a.4.4,0,0,0,.41.4h9a.41.41,0,0,0,.41-.4v-49a.41.41,0,0,0-.41-.41h-9A.41.41,0,0,0,79.79,9.85Z"/><path class="cls-7" d="M87.07,50.44l1.46-4.34a.16.16,0,0,0,0-.16L87,44.45a.16.16,0,0,0-.22,0h0l-1.46,1.49a.18.18,0,0,0,0,.16l1.46,4.34a.17.17,0,0,0,.2.1A.18.18,0,0,0,87.07,50.44Z"/><path class="cls-7" d="M82.59,50.44l1.46-4.34a.16.16,0,0,0,0-.16l-1.45-1.49a.16.16,0,0,0-.22,0h0l-1.46,1.49a.18.18,0,0,0,0,.16l1.46,4.34a.17.17,0,0,0,.2.1A.18.18,0,0,0,82.59,50.44Z"/><path class="cls-7" d="M87.07,29.12l1.46-4.34a.16.16,0,0,0,0-.16L87,23.14a.16.16,0,0,0-.22,0h0l-1.46,1.48a.18.18,0,0,0,0,.16l1.46,4.34a.16.16,0,0,0,.2.1A.15.15,0,0,0,87.07,29.12Z"/><path class="cls-7" d="M82.59,29.12l1.46-4.34a.16.16,0,0,0,0-.16l-1.45-1.48a.16.16,0,0,0-.22,0h0l-1.46,1.48a.18.18,0,0,0,0,.16l1.46,4.34a.16.16,0,0,0,.2.1A.15.15,0,0,0,82.59,29.12Z"/><path class="cls-7" d="M83.12,31.72l1.46,1.48a.16.16,0,0,0,.22,0h0l1.45-1.48a.17.17,0,0,0,0-.16l-1.46-4.35a.14.14,0,0,0-.19-.09.15.15,0,0,0-.1.09l-1.46,4.35A.2.2,0,0,0,83.12,31.72Z"/><path class="cls-7" d="M87.07,39.78l1.46-4.34a.16.16,0,0,0,0-.16L87,33.79a.16.16,0,0,0-.22,0h0l-1.46,1.49a.18.18,0,0,0,0,.16l1.46,4.34a.16.16,0,0,0,.2.1A.15.15,0,0,0,87.07,39.78Z"/><path class="cls-7" d="M83.12,42.37l1.46,1.49a.16.16,0,0,0,.22,0h0l1.45-1.49a.14.14,0,0,0,0-.15l-1.46-4.35a.15.15,0,0,0-.19-.1.19.19,0,0,0-.1.1l-1.46,4.35A.17.17,0,0,0,83.12,42.37Z"/><path class="cls-7" d="M82.59,39.78l1.46-4.34a.16.16,0,0,0,0-.16l-1.45-1.49a.16.16,0,0,0-.22,0h0l-1.46,1.49a.18.18,0,0,0,0,.16l1.46,4.34a.16.16,0,0,0,.2.1A.15.15,0,0,0,82.59,39.78Z"/><rect class="cls-8" x="79.79" y="11.69" width="9.8" height="9.1"/><path class="cls-9" d="M81.42,57.75H88a.13.13,0,0,0,.13-.13h0V51.7a.13.13,0,0,0-.13-.13h-6.6a.13.13,0,0,0-.13.13v5.92A.13.13,0,0,0,81.42,57.75Z"/><path class="cls-10" d="M89.59,19.18V16.27a.83.83,0,0,0-.82-.83H80.6a.82.82,0,0,0-.81.83v3.85a.49.49,0,0,0,.49.49H89.1a.49.49,0,0,0,.49-.49h0Z"/><path class="cls-11" d="M85.39,10.27v.53a.24.24,0,0,0,.25.23H86.7a.23.23,0,0,0,.24-.23h0v-.53a.23.23,0,0,0-.24-.22H85.64A.24.24,0,0,0,85.39,10.27Z"/><path class="cls-11" d="M82.43,10.27v.53a.24.24,0,0,0,.25.23h1.06A.23.23,0,0,0,84,10.8h0v-.53a.23.23,0,0,0-.24-.22H82.68a.24.24,0,0,0-.25.22Z"/><path class="cls-12" d="M80.57,16.27a.17.17,0,0,0-.16.17.16.16,0,0,0,.16.16H88.8a.17.17,0,0,0,.17-.16.18.18,0,0,0-.17-.17Z"/><path class="cls-12" d="M80.57,16.91a.16.16,0,0,0-.16.16.16.16,0,0,0,.16.17H88.8a.17.17,0,0,0,.17-.17.17.17,0,0,0-.17-.16Z"/><path class="cls-12" d="M80.57,17.55a.16.16,0,0,0-.16.16.17.17,0,0,0,.16.17H88.8a.18.18,0,0,0,.17-.17.17.17,0,0,0-.17-.16Z"/><path class="cls-6" d="M91.38,9.85v49a.41.41,0,0,0,.41.4h9a.4.4,0,0,0,.41-.4v-49a.41.41,0,0,0-.41-.41h-9A.41.41,0,0,0,91.38,9.85Z"/><path class="cls-7" d="M98.67,50.44l1.45-4.34a.15.15,0,0,0,0-.16l-1.46-1.49a.16.16,0,0,0-.22,0h0L97,45.94a.16.16,0,0,0,0,.16l1.46,4.34a.15.15,0,0,0,.19.1A.19.19,0,0,0,98.67,50.44Z"/><path class="cls-7" d="M94.19,50.44l1.46-4.34a.18.18,0,0,0,0-.16l-1.46-1.49a.16.16,0,0,0-.22,0h0l-1.45,1.49a.16.16,0,0,0,0,.16l1.46,4.34a.15.15,0,0,0,.19.1A.19.19,0,0,0,94.19,50.44Z"/><path class="cls-7" d="M98.67,29.12l1.45-4.34a.15.15,0,0,0,0-.16l-1.46-1.48a.16.16,0,0,0-.22,0h0L97,24.62a.16.16,0,0,0,0,.16l1.46,4.34a.15.15,0,0,0,.19.1A.17.17,0,0,0,98.67,29.12Z"/><path class="cls-7" d="M94.19,29.12l1.46-4.34a.18.18,0,0,0,0-.16l-1.46-1.48a.16.16,0,0,0-.22,0h0l-1.45,1.48a.16.16,0,0,0,0,.16l1.46,4.34a.15.15,0,0,0,.19.1A.17.17,0,0,0,94.19,29.12Z"/><path class="cls-7" d="M94.72,31.72l1.45,1.48a.16.16,0,0,0,.22,0h0l1.46-1.48a.2.2,0,0,0,0-.16l-1.46-4.35a.16.16,0,0,0-.2-.09.14.14,0,0,0-.09.09l-1.46,4.35A.17.17,0,0,0,94.72,31.72Z"/><path class="cls-7" d="M98.67,39.78l1.45-4.34a.15.15,0,0,0,0-.16l-1.46-1.49a.16.16,0,0,0-.22,0h0L97,35.28a.16.16,0,0,0,0,.16l1.46,4.34a.15.15,0,0,0,.19.1A.17.17,0,0,0,98.67,39.78Z"/><path class="cls-7" d="M94.72,42.37l1.45,1.49a.16.16,0,0,0,.22,0h0l1.46-1.49a.17.17,0,0,0,0-.15l-1.46-4.35a.17.17,0,0,0-.2-.1.18.18,0,0,0-.09.1l-1.46,4.35A.14.14,0,0,0,94.72,42.37Z"/><path class="cls-7" d="M94.19,39.78l1.46-4.34a.18.18,0,0,0,0-.16l-1.46-1.49a.16.16,0,0,0-.22,0h0l-1.45,1.49a.16.16,0,0,0,0,.16l1.46,4.34a.15.15,0,0,0,.19.1A.17.17,0,0,0,94.19,39.78Z"/><rect class="cls-8" x="91.38" y="11.69" width="9.8" height="9.1"/><path class="cls-9" d="M93,57.75h6.6a.13.13,0,0,0,.13-.13h0V51.7a.13.13,0,0,0-.13-.13H93a.13.13,0,0,0-.13.13v5.92A.13.13,0,0,0,93,57.75Z"/><path class="cls-10" d="M101.18,19.18V16.27a.82.82,0,0,0-.82-.83H92.2a.83.83,0,0,0-.82.83v3.85a.49.49,0,0,0,.49.49h8.82a.49.49,0,0,0,.49-.49h0Z"/><path class="cls-11" d="M97,10.27v.53a.23.23,0,0,0,.24.23h1.06a.24.24,0,0,0,.25-.23h0v-.53a.24.24,0,0,0-.25-.22H97.23A.23.23,0,0,0,97,10.27Z"/><path class="cls-11" d="M94,10.27v.53a.23.23,0,0,0,.24.23h1.06a.24.24,0,0,0,.25-.23h0v-.53a.24.24,0,0,0-.25-.22H94.27a.23.23,0,0,0-.24.22Z"/><path class="cls-12" d="M92.17,16.27a.18.18,0,0,0-.17.17.17.17,0,0,0,.17.16h8.23a.16.16,0,0,0,.16-.16.17.17,0,0,0-.16-.17Z"/><path class="cls-12" d="M92.17,16.91a.17.17,0,0,0-.17.16.17.17,0,0,0,.17.17h8.23a.16.16,0,0,0,.16-.17.16.16,0,0,0-.16-.16Z"/><path class="cls-12" d="M92.17,17.55a.17.17,0,0,0-.17.16.18.18,0,0,0,.17.17h8.23a.17.17,0,0,0,.16-.17.16.16,0,0,0-.16-.16Z"/><path class="cls-6" d="M103,9.85v49a.4.4,0,0,0,.41.4h9a.41.41,0,0,0,.41-.4v-49a.41.41,0,0,0-.41-.41h-9A.41.41,0,0,0,103,9.85Z"/><path class="cls-7" d="M110.26,50.44l1.46-4.34a.14.14,0,0,0,0-.16l-1.45-1.49a.16.16,0,0,0-.22,0h0l-1.46,1.49a.15.15,0,0,0,0,.16L110,50.44a.17.17,0,0,0,.2.1A.18.18,0,0,0,110.26,50.44Z"/><path class="cls-7" d="M105.79,50.44l1.45-4.34a.14.14,0,0,0,0-.16l-1.45-1.49a.16.16,0,0,0-.22,0h0l-1.46,1.49a.15.15,0,0,0,0,.16l1.45,4.34a.17.17,0,0,0,.2.1A.24.24,0,0,0,105.79,50.44Z"/><path class="cls-7" d="M110.26,29.12l1.46-4.34a.14.14,0,0,0,0-.16l-1.45-1.48a.16.16,0,0,0-.22,0h0l-1.46,1.48a.15.15,0,0,0,0,.16L110,29.12a.16.16,0,0,0,.2.1A.15.15,0,0,0,110.26,29.12Z"/><path class="cls-7" d="M105.79,29.12l1.45-4.34a.14.14,0,0,0,0-.16l-1.45-1.48a.16.16,0,0,0-.22,0h0l-1.46,1.48a.15.15,0,0,0,0,.16l1.45,4.34a.16.16,0,0,0,.2.1A.19.19,0,0,0,105.79,29.12Z"/><path class="cls-7" d="M106.31,31.72l1.46,1.48a.16.16,0,0,0,.22,0h0l1.45-1.48a.15.15,0,0,0,0-.16L108,27.21a.16.16,0,0,0-.2-.09.15.15,0,0,0-.1.09l-1.45,4.35A.16.16,0,0,0,106.31,31.72Z"/><path class="cls-7" d="M110.26,39.78l1.46-4.34a.14.14,0,0,0,0-.16l-1.45-1.49a.16.16,0,0,0-.22,0h0l-1.46,1.49a.15.15,0,0,0,0,.16L110,39.78a.16.16,0,0,0,.2.1A.15.15,0,0,0,110.26,39.78Z"/><path class="cls-7" d="M106.31,42.37l1.46,1.49a.16.16,0,0,0,.22,0h0l1.45-1.49a.13.13,0,0,0,0-.15L108,37.87a.17.17,0,0,0-.2-.1.19.19,0,0,0-.1.1l-1.45,4.35A.14.14,0,0,0,106.31,42.37Z"/><path class="cls-7" d="M105.79,39.78l1.45-4.34a.14.14,0,0,0,0-.16l-1.45-1.49a.16.16,0,0,0-.22,0h0l-1.46,1.49a.15.15,0,0,0,0,.16l1.45,4.34a.16.16,0,0,0,.2.1A.19.19,0,0,0,105.79,39.78Z"/><rect class="cls-8" x="102.98" y="11.69" width="9.8" height="9.1"/><path class="cls-9" d="M104.61,57.75h6.6a.13.13,0,0,0,.13-.13h0V51.7a.13.13,0,0,0-.13-.13h-6.6a.13.13,0,0,0-.13.13v5.92A.13.13,0,0,0,104.61,57.75Z"/><path class="cls-10" d="M112.78,19.18V16.27a.83.83,0,0,0-.82-.83H103.8a.82.82,0,0,0-.82.83v3.85a.49.49,0,0,0,.49.49h8.82a.49.49,0,0,0,.49-.49h0Z"/><path class="cls-11" d="M108.58,10.27v.53a.24.24,0,0,0,.25.23h1.06a.23.23,0,0,0,.24-.23h0v-.53a.23.23,0,0,0-.24-.22h-1.06A.24.24,0,0,0,108.58,10.27Z"/><path class="cls-11" d="M105.62,10.27v.53a.24.24,0,0,0,.25.23h1.06a.23.23,0,0,0,.24-.23h0v-.53a.23.23,0,0,0-.24-.22h-1.06a.24.24,0,0,0-.25.22Z"/><path class="cls-12" d="M103.76,16.27a.17.17,0,0,0-.16.17.16.16,0,0,0,.16.16H112a.17.17,0,0,0,.17-.16.18.18,0,0,0-.17-.17Z"/><path class="cls-12" d="M103.76,16.91a.16.16,0,0,0-.16.16.16.16,0,0,0,.16.17H112a.17.17,0,0,0,.17-.17.17.17,0,0,0-.17-.16Z"/><path class="cls-12" d="M103.76,17.55a.16.16,0,0,0-.16.16.17.17,0,0,0,.16.17H112a.18.18,0,0,0,.17-.17.17.17,0,0,0-.17-.16Z"/><path class="cls-6" d="M115.23,9.85v49a.4.4,0,0,0,.4.4h9a.4.4,0,0,0,.4-.4v-49a.4.4,0,0,0-.4-.41h-9A.4.4,0,0,0,115.23,9.85Z"/><path class="cls-7" d="M122.51,50.44,124,46.1a.16.16,0,0,0,0-.16l-1.45-1.49a.16.16,0,0,0-.22,0h0l-1.45,1.49a.16.16,0,0,0,0,.16l1.46,4.34a.15.15,0,0,0,.19.1A.16.16,0,0,0,122.51,50.44Z"/><path class="cls-7" d="M118,50.44l1.46-4.34a.16.16,0,0,0,0-.16L118,44.45a.16.16,0,0,0-.22,0h0l-1.45,1.49a.16.16,0,0,0,0,.16l1.46,4.34a.15.15,0,0,0,.19.1A.16.16,0,0,0,118,50.44Z"/><path class="cls-7" d="M122.51,29.12,124,24.78a.16.16,0,0,0,0-.16l-1.45-1.48a.16.16,0,0,0-.22,0h0l-1.45,1.48a.16.16,0,0,0,0,.16l1.46,4.34a.15.15,0,0,0,.19.1A.14.14,0,0,0,122.51,29.12Z"/><path class="cls-7" d="M118,29.12l1.46-4.34a.16.16,0,0,0,0-.16L118,23.14a.16.16,0,0,0-.22,0h0l-1.45,1.48a.16.16,0,0,0,0,.16l1.46,4.34a.15.15,0,0,0,.19.1A.14.14,0,0,0,118,29.12Z"/><path class="cls-7" d="M118.56,31.72,120,33.2a.16.16,0,0,0,.22,0h0l1.45-1.48a.17.17,0,0,0,0-.16l-1.46-4.35a.14.14,0,0,0-.19-.09.13.13,0,0,0-.1.09l-1.46,4.35A.17.17,0,0,0,118.56,31.72Z"/><path class="cls-7" d="M122.51,39.78,124,35.44a.16.16,0,0,0,0-.16l-1.45-1.49a.16.16,0,0,0-.22,0h0l-1.45,1.49a.16.16,0,0,0,0,.16l1.46,4.34a.15.15,0,0,0,.19.1A.14.14,0,0,0,122.51,39.78Z"/><path class="cls-7" d="M118.56,42.37,120,43.86a.16.16,0,0,0,.22,0h0l1.45-1.49a.14.14,0,0,0,0-.15l-1.46-4.35a.16.16,0,0,0-.19-.1.16.16,0,0,0-.1.1l-1.46,4.35A.14.14,0,0,0,118.56,42.37Z"/><path class="cls-7" d="M118,39.78l1.46-4.34a.16.16,0,0,0,0-.16L118,33.79a.16.16,0,0,0-.22,0h0l-1.45,1.49a.16.16,0,0,0,0,.16l1.46,4.34a.15.15,0,0,0,.19.1A.14.14,0,0,0,118,39.78Z"/><rect class="cls-8" x="115.23" y="11.69" width="9.8" height="9.1"/><path class="cls-9" d="M116.85,57.75h6.61a.12.12,0,0,0,.12-.13h0V51.7a.12.12,0,0,0-.12-.13h-6.61a.12.12,0,0,0-.12.13v5.92A.12.12,0,0,0,116.85,57.75Z"/><path class="cls-10" d="M125,19.18V16.27a.82.82,0,0,0-.81-.83H116a.82.82,0,0,0-.81.83v3.85a.48.48,0,0,0,.49.49h8.81a.49.49,0,0,0,.49-.49h0Z"/><path class="cls-11" d="M120.83,10.27v.53a.23.23,0,0,0,.24.23h1.07a.23.23,0,0,0,.24-.23h0v-.53a.23.23,0,0,0-.24-.22h-1.07A.23.23,0,0,0,120.83,10.27Z"/><path class="cls-11" d="M117.87,10.27v.53a.23.23,0,0,0,.24.23h1.07a.23.23,0,0,0,.24-.23h0v-.53a.23.23,0,0,0-.24-.22h-1.07a.23.23,0,0,0-.24.22Z"/><path class="cls-12" d="M116,16.27a.17.17,0,0,0-.16.17.16.16,0,0,0,.16.16h8.23a.16.16,0,0,0,.16-.16.17.17,0,0,0-.16-.17Z"/><path class="cls-12" d="M116,16.91a.16.16,0,0,0-.16.16.16.16,0,0,0,.16.17h8.23a.16.16,0,0,0,.16-.17.16.16,0,0,0-.16-.16Z"/><path class="cls-12" d="M116,17.55a.16.16,0,0,0-.16.16.17.17,0,0,0,.16.17h8.23a.17.17,0,0,0,.16-.17.16.16,0,0,0-.16-.16Z"/><path class="cls-6" d="M126.82,9.85v49a.4.4,0,0,0,.41.4h9a.4.4,0,0,0,.41-.4v-49a.41.41,0,0,0-.41-.41h-9A.41.41,0,0,0,126.82,9.85Z"/><path class="cls-7" d="M134.11,50.44l1.45-4.34a.15.15,0,0,0,0-.16l-1.46-1.49a.16.16,0,0,0-.22,0h0l-1.46,1.49a.15.15,0,0,0,0,.16l1.45,4.34a.17.17,0,0,0,.2.1A.19.19,0,0,0,134.11,50.44Z"/><path class="cls-7" d="M129.63,50.44l1.45-4.34a.15.15,0,0,0,0-.16l-1.46-1.49a.16.16,0,0,0-.22,0h0l-1.46,1.49a.15.15,0,0,0,0,.16l1.45,4.34a.17.17,0,0,0,.2.1A.19.19,0,0,0,129.63,50.44Z"/><path class="cls-7" d="M134.11,29.12l1.45-4.34a.15.15,0,0,0,0-.16l-1.46-1.48a.16.16,0,0,0-.22,0h0l-1.46,1.48a.15.15,0,0,0,0,.16l1.45,4.34a.16.16,0,0,0,.2.1A.17.17,0,0,0,134.11,29.12Z"/><path class="cls-7" d="M129.63,29.12l1.45-4.34a.15.15,0,0,0,0-.16l-1.46-1.48a.16.16,0,0,0-.22,0h0l-1.46,1.48a.15.15,0,0,0,0,.16l1.45,4.34a.16.16,0,0,0,.2.1A.17.17,0,0,0,129.63,29.12Z"/><path class="cls-7" d="M130.15,31.72l1.46,1.48a.16.16,0,0,0,.22,0h0l1.46-1.48a.16.16,0,0,0,0-.16l-1.45-4.35a.16.16,0,0,0-.2-.09.15.15,0,0,0-.1.09l-1.45,4.35A.16.16,0,0,0,130.15,31.72Z"/><path class="cls-7" d="M134.11,39.78l1.45-4.34a.15.15,0,0,0,0-.16l-1.46-1.49a.16.16,0,0,0-.22,0h0l-1.46,1.49a.15.15,0,0,0,0,.16l1.45,4.34a.16.16,0,0,0,.2.1A.17.17,0,0,0,134.11,39.78Z"/><path class="cls-7" d="M130.15,42.37l1.46,1.49a.16.16,0,0,0,.22,0h0l1.46-1.49a.14.14,0,0,0,0-.15l-1.45-4.35a.17.17,0,0,0-.2-.1.19.19,0,0,0-.1.1l-1.45,4.35A.14.14,0,0,0,130.15,42.37Z"/><path class="cls-7" d="M129.63,39.78l1.45-4.34a.15.15,0,0,0,0-.16l-1.46-1.49a.16.16,0,0,0-.22,0h0l-1.46,1.49a.15.15,0,0,0,0,.16l1.45,4.34a.16.16,0,0,0,.2.1A.17.17,0,0,0,129.63,39.78Z"/><rect class="cls-8" x="126.82" y="11.69" width="9.8" height="9.1"/><path class="cls-9" d="M128.45,57.75h6.6a.13.13,0,0,0,.13-.13h0V51.7a.13.13,0,0,0-.13-.13h-6.6a.13.13,0,0,0-.13.13v5.92A.13.13,0,0,0,128.45,57.75Z"/><path class="cls-10" d="M136.62,19.18V16.27a.83.83,0,0,0-.82-.83h-8.16a.83.83,0,0,0-.82.83v3.85a.49.49,0,0,0,.49.49h8.82a.49.49,0,0,0,.49-.49h0Z"/><path class="cls-11" d="M132.42,10.27v.53a.24.24,0,0,0,.25.23h1.06a.24.24,0,0,0,.25-.23h0v-.53a.24.24,0,0,0-.25-.22h-1.06A.24.24,0,0,0,132.42,10.27Z"/><path class="cls-11" d="M129.46,10.27v.53a.24.24,0,0,0,.25.23h1.06a.24.24,0,0,0,.25-.23h0v-.53a.24.24,0,0,0-.25-.22h-1.06a.24.24,0,0,0-.25.22Z"/><path class="cls-12" d="M127.61,16.27a.17.17,0,0,0-.17.17.16.16,0,0,0,.17.16h8.23a.16.16,0,0,0,.16-.16.17.17,0,0,0-.16-.17Z"/><path class="cls-12" d="M127.61,16.91a.16.16,0,0,0-.17.16.16.16,0,0,0,.17.17h8.23a.16.16,0,0,0,.16-.17.16.16,0,0,0-.16-.16Z"/><path class="cls-12" d="M127.61,17.55a.16.16,0,0,0-.17.16.17.17,0,0,0,.17.17h8.23a.17.17,0,0,0,.16-.17.16.16,0,0,0-.16-.16Z"/><path class="cls-6" d="M138.42,9.85v49a.4.4,0,0,0,.41.4h9a.4.4,0,0,0,.4-.4v-49a.4.4,0,0,0-.4-.41h-9A.41.41,0,0,0,138.42,9.85Z"/><path class="cls-7" d="M145.7,50.44l1.46-4.34a.16.16,0,0,0,0-.16l-1.45-1.49a.16.16,0,0,0-.22,0h0L144,45.94a.16.16,0,0,0,0,.16l1.46,4.34a.16.16,0,0,0,.19.1A.16.16,0,0,0,145.7,50.44Z"/><path class="cls-7" d="M141.22,50.44l1.46-4.34a.16.16,0,0,0,0-.16l-1.45-1.49a.16.16,0,0,0-.22,0h0l-1.46,1.49a.16.16,0,0,0,0,.16l1.46,4.34a.17.17,0,0,0,.2.1A.18.18,0,0,0,141.22,50.44Z"/><path class="cls-7" d="M145.7,29.12l1.46-4.34a.16.16,0,0,0,0-.16l-1.45-1.48a.16.16,0,0,0-.22,0h0L144,24.62a.16.16,0,0,0,0,.16l1.46,4.34a.15.15,0,0,0,.19.1A.14.14,0,0,0,145.7,29.12Z"/><path class="cls-7" d="M141.22,29.12l1.46-4.34a.16.16,0,0,0,0-.16l-1.45-1.48a.16.16,0,0,0-.22,0h0l-1.46,1.48a.16.16,0,0,0,0,.16l1.46,4.34a.16.16,0,0,0,.2.1A.15.15,0,0,0,141.22,29.12Z"/><path class="cls-7" d="M141.75,31.72l1.46,1.48a.14.14,0,0,0,.21,0h0l1.45-1.48a.17.17,0,0,0,0-.16l-1.46-4.35a.14.14,0,0,0-.19-.09.13.13,0,0,0-.1.09l-1.46,4.35A.17.17,0,0,0,141.75,31.72Z"/><path class="cls-7" d="M145.7,39.78l1.46-4.34a.16.16,0,0,0,0-.16l-1.45-1.49a.16.16,0,0,0-.22,0h0L144,35.28a.16.16,0,0,0,0,.16l1.46,4.34a.15.15,0,0,0,.19.1A.14.14,0,0,0,145.7,39.78Z"/><path class="cls-7" d="M141.75,42.37l1.46,1.49a.14.14,0,0,0,.21,0h0l1.45-1.49a.14.14,0,0,0,0-.15l-1.46-4.35a.15.15,0,0,0-.19-.1.16.16,0,0,0-.1.1l-1.46,4.35A.14.14,0,0,0,141.75,42.37Z"/><path class="cls-7" d="M141.22,39.78l1.46-4.34a.16.16,0,0,0,0-.16l-1.45-1.49a.16.16,0,0,0-.22,0h0l-1.46,1.49a.16.16,0,0,0,0,.16l1.46,4.34a.16.16,0,0,0,.2.1A.15.15,0,0,0,141.22,39.78Z"/><rect class="cls-8" x="138.42" y="11.69" width="9.8" height="9.1"/><path class="cls-9" d="M140.05,57.75h6.6a.13.13,0,0,0,.13-.13h0V51.7a.13.13,0,0,0-.13-.13h-6.6a.13.13,0,0,0-.13.13v5.92A.13.13,0,0,0,140.05,57.75Z"/><path class="cls-10" d="M148.21,19.18V16.27a.82.82,0,0,0-.81-.83h-8.17a.82.82,0,0,0-.81.83v3.85a.49.49,0,0,0,.49.49h8.81a.48.48,0,0,0,.49-.49h0Z"/><path class="cls-11" d="M144,10.27v.53a.23.23,0,0,0,.24.23h1.07a.23.23,0,0,0,.24-.23h0v-.53a.23.23,0,0,0-.24-.22h-1.07A.23.23,0,0,0,144,10.27Z"/><path class="cls-11" d="M141.06,10.27v.53a.24.24,0,0,0,.25.23h1.06a.23.23,0,0,0,.24-.23h0v-.53a.23.23,0,0,0-.24-.22h-1.06a.24.24,0,0,0-.25.22Z"/><path class="cls-12" d="M139.2,16.27a.17.17,0,0,0-.16.17.16.16,0,0,0,.16.16h8.23a.16.16,0,0,0,.16-.16.17.17,0,0,0-.16-.17Z"/><path class="cls-12" d="M139.2,16.91a.16.16,0,0,0-.16.16.16.16,0,0,0,.16.17h8.23a.16.16,0,0,0,.16-.17.16.16,0,0,0-.16-.16Z"/><path class="cls-12" d="M139.2,17.55a.16.16,0,0,0-.16.16.17.17,0,0,0,.16.17h8.23a.17.17,0,0,0,.16-.17.16.16,0,0,0-.16-.16Z"/><path class="cls-6" d="M150,9.85v49a.41.41,0,0,0,.41.4h9a.4.4,0,0,0,.41-.4v-49a.41.41,0,0,0-.41-.41h-9A.41.41,0,0,0,150,9.85Z"/><path class="cls-7" d="M157.3,50.44l1.45-4.34a.15.15,0,0,0,0-.16l-1.46-1.49a.16.16,0,0,0-.22,0h0l-1.46,1.49a.15.15,0,0,0,0,.16L157,50.44a.17.17,0,0,0,.2.1A.19.19,0,0,0,157.3,50.44Z"/><path class="cls-7" d="M152.82,50.44l1.45-4.34a.15.15,0,0,0,0-.16l-1.46-1.49a.16.16,0,0,0-.22,0h0l-1.45,1.49a.14.14,0,0,0,0,.16l1.45,4.34a.17.17,0,0,0,.2.1A.19.19,0,0,0,152.82,50.44Z"/><path class="cls-7" d="M157.3,29.12l1.45-4.34a.15.15,0,0,0,0-.16l-1.46-1.48a.16.16,0,0,0-.22,0h0l-1.46,1.48a.15.15,0,0,0,0,.16L157,29.12a.16.16,0,0,0,.2.1A.17.17,0,0,0,157.3,29.12Z"/><path class="cls-7" d="M152.82,29.12l1.45-4.34a.15.15,0,0,0,0-.16l-1.46-1.48a.16.16,0,0,0-.22,0h0l-1.45,1.48a.14.14,0,0,0,0,.16l1.45,4.34a.16.16,0,0,0,.2.1A.17.17,0,0,0,152.82,29.12Z"/><path class="cls-7" d="M153.35,31.72l1.45,1.48a.16.16,0,0,0,.22,0h0l1.46-1.48a.16.16,0,0,0,0-.16l-1.45-4.35a.16.16,0,0,0-.2-.09.18.18,0,0,0-.1.09l-1.45,4.35A.15.15,0,0,0,153.35,31.72Z"/><path class="cls-7" d="M157.3,39.78l1.45-4.34a.15.15,0,0,0,0-.16l-1.46-1.49a.16.16,0,0,0-.22,0h0l-1.46,1.49a.15.15,0,0,0,0,.16L157,39.78a.16.16,0,0,0,.2.1A.17.17,0,0,0,157.3,39.78Z"/><path class="cls-7" d="M153.35,42.37l1.45,1.49a.16.16,0,0,0,.22,0h0l1.46-1.49a.14.14,0,0,0,0-.15l-1.45-4.35a.17.17,0,0,0-.2-.1.24.24,0,0,0-.1.1l-1.45,4.35A.13.13,0,0,0,153.35,42.37Z"/><path class="cls-7" d="M152.82,39.78l1.45-4.34a.15.15,0,0,0,0-.16l-1.46-1.49a.16.16,0,0,0-.22,0h0l-1.45,1.49a.14.14,0,0,0,0,.16l1.45,4.34a.16.16,0,0,0,.2.1A.17.17,0,0,0,152.82,39.78Z"/><rect class="cls-8" x="150.01" y="11.69" width="9.8" height="9.1"/><path class="cls-9" d="M151.64,57.75h6.6a.13.13,0,0,0,.13-.13h0V51.7a.13.13,0,0,0-.13-.13h-6.6a.13.13,0,0,0-.13.13v5.92A.13.13,0,0,0,151.64,57.75Z"/><path class="cls-10" d="M159.81,19.18V16.27a.83.83,0,0,0-.82-.83h-8.16a.83.83,0,0,0-.82.83v3.85a.49.49,0,0,0,.49.49h8.82a.49.49,0,0,0,.49-.49h0Z"/><path class="cls-11" d="M155.62,10.27v.53a.23.23,0,0,0,.24.23h1.06a.24.24,0,0,0,.25-.23h0v-.53a.24.24,0,0,0-.25-.22h-1.06A.23.23,0,0,0,155.62,10.27Z"/><path class="cls-11" d="M152.66,10.27v.53a.23.23,0,0,0,.24.23H154a.24.24,0,0,0,.25-.23h0v-.53a.24.24,0,0,0-.25-.22H152.9a.23.23,0,0,0-.24.22Z"/><path class="cls-12" d="M150.8,16.27a.18.18,0,0,0-.17.17.17.17,0,0,0,.17.16H159a.16.16,0,0,0,.16-.16.17.17,0,0,0-.16-.17Z"/><path class="cls-12" d="M150.8,16.91a.17.17,0,0,0-.17.16.17.17,0,0,0,.17.17H159a.16.16,0,0,0,.16-.17.16.16,0,0,0-.16-.16Z"/><path class="cls-12" d="M150.8,17.55a.17.17,0,0,0-.17.16.18.18,0,0,0,.17.17H159a.17.17,0,0,0,.16-.17.16.16,0,0,0-.16-.16Z"/><path class="cls-6" d="M161.61,9.85v49a.4.4,0,0,0,.41.4h9a.41.41,0,0,0,.41-.4v-49a.41.41,0,0,0-.41-.41h-9A.41.41,0,0,0,161.61,9.85Z"/><path class="cls-7" d="M168.89,50.44l1.46-4.34a.16.16,0,0,0,0-.16l-1.45-1.49a.16.16,0,0,0-.22,0h0l-1.46,1.49a.18.18,0,0,0,0,.16l1.46,4.34a.17.17,0,0,0,.2.1A.18.18,0,0,0,168.89,50.44Z"/><path class="cls-7" d="M164.41,50.44l1.46-4.34a.16.16,0,0,0,0-.16l-1.45-1.49a.16.16,0,0,0-.22,0h0l-1.46,1.49a.18.18,0,0,0,0,.16l1.46,4.34a.17.17,0,0,0,.2.1A.18.18,0,0,0,164.41,50.44Z"/><path class="cls-7" d="M168.89,29.12l1.46-4.34a.16.16,0,0,0,0-.16l-1.45-1.48a.16.16,0,0,0-.22,0h0l-1.46,1.48a.18.18,0,0,0,0,.16l1.46,4.34a.16.16,0,0,0,.2.1A.15.15,0,0,0,168.89,29.12Z"/><path class="cls-7" d="M164.41,29.12l1.46-4.34a.16.16,0,0,0,0-.16l-1.45-1.48a.16.16,0,0,0-.22,0h0l-1.46,1.48a.18.18,0,0,0,0,.16l1.46,4.34a.16.16,0,0,0,.2.1A.15.15,0,0,0,164.41,29.12Z"/><path class="cls-7" d="M164.94,31.72l1.46,1.48a.16.16,0,0,0,.22,0h0l1.45-1.48a.17.17,0,0,0,0-.16l-1.46-4.35a.14.14,0,0,0-.19-.09.15.15,0,0,0-.1.09l-1.46,4.35A.2.2,0,0,0,164.94,31.72Z"/><path class="cls-7" d="M168.89,39.78l1.46-4.34a.16.16,0,0,0,0-.16l-1.45-1.49a.16.16,0,0,0-.22,0h0l-1.46,1.49a.18.18,0,0,0,0,.16l1.46,4.34a.16.16,0,0,0,.2.1A.15.15,0,0,0,168.89,39.78Z"/><path class="cls-7" d="M164.94,42.37l1.46,1.49a.16.16,0,0,0,.22,0h0l1.45-1.49a.14.14,0,0,0,0-.15l-1.46-4.35a.15.15,0,0,0-.19-.1.19.19,0,0,0-.1.1l-1.46,4.35A.17.17,0,0,0,164.94,42.37Z"/><path class="cls-7" d="M164.41,39.78l1.46-4.34a.16.16,0,0,0,0-.16l-1.45-1.49a.16.16,0,0,0-.22,0h0l-1.46,1.49a.18.18,0,0,0,0,.16l1.46,4.34a.16.16,0,0,0,.2.1A.15.15,0,0,0,164.41,39.78Z"/><rect class="cls-8" x="161.61" y="11.69" width="9.8" height="9.1"/><path class="cls-9" d="M163.24,57.75h6.6a.13.13,0,0,0,.13-.13h0V51.7a.13.13,0,0,0-.13-.13h-6.6a.13.13,0,0,0-.13.13v5.92A.13.13,0,0,0,163.24,57.75Z"/><path class="cls-10" d="M171.41,19.18V16.27a.83.83,0,0,0-.82-.83h-8.17a.82.82,0,0,0-.81.83v3.85a.49.49,0,0,0,.49.49h8.82a.49.49,0,0,0,.49-.49h0Z"/><path class="cls-11" d="M167.21,10.27v.53a.24.24,0,0,0,.25.23h1.06a.23.23,0,0,0,.24-.23h0v-.53a.23.23,0,0,0-.24-.22h-1.06A.24.24,0,0,0,167.21,10.27Z"/><path class="cls-11" d="M164.25,10.27v.53a.24.24,0,0,0,.25.23h1.06a.23.23,0,0,0,.24-.23h0v-.53a.23.23,0,0,0-.24-.22H164.5a.24.24,0,0,0-.25.22Z"/><path class="cls-12" d="M162.39,16.27a.17.17,0,0,0-.16.17.16.16,0,0,0,.16.16h8.23a.17.17,0,0,0,.17-.16.18.18,0,0,0-.17-.17Z"/><path class="cls-12" d="M162.39,16.91a.16.16,0,0,0-.16.16.16.16,0,0,0,.16.17h8.23a.17.17,0,0,0,.17-.17.17.17,0,0,0-.17-.16Z"/><path class="cls-12" d="M162.39,17.55a.16.16,0,0,0-.16.16.17.17,0,0,0,.16.17h8.23a.18.18,0,0,0,.17-.17.17.17,0,0,0-.17-.16Z"/><path class="cls-6" d="M173.2,9.85v49a.41.41,0,0,0,.41.4h9a.4.4,0,0,0,.41-.4v-49a.41.41,0,0,0-.41-.41h-9A.41.41,0,0,0,173.2,9.85Z"/><path class="cls-7" d="M180.49,50.44,182,46.1a.18.18,0,0,0,0-.16l-1.46-1.49a.16.16,0,0,0-.22,0h0l-1.45,1.49a.16.16,0,0,0,0,.16l1.46,4.34a.15.15,0,0,0,.19.1A.19.19,0,0,0,180.49,50.44Z"/><path class="cls-7" d="M176,50.44l1.46-4.34a.18.18,0,0,0,0-.16L176,44.45a.16.16,0,0,0-.22,0h0l-1.45,1.49a.16.16,0,0,0,0,.16l1.46,4.34a.15.15,0,0,0,.19.1A.19.19,0,0,0,176,50.44Z"/><path class="cls-7" d="M180.49,29.12,182,24.78a.18.18,0,0,0,0-.16l-1.46-1.48a.16.16,0,0,0-.22,0h0l-1.45,1.48a.16.16,0,0,0,0,.16l1.46,4.34a.15.15,0,0,0,.19.1A.17.17,0,0,0,180.49,29.12Z"/><path class="cls-7" d="M176,29.12l1.46-4.34a.18.18,0,0,0,0-.16L176,23.14a.16.16,0,0,0-.22,0h0l-1.45,1.48a.16.16,0,0,0,0,.16l1.46,4.34a.15.15,0,0,0,.19.1A.17.17,0,0,0,176,29.12Z"/><path class="cls-7" d="M176.54,31.72,178,33.2a.16.16,0,0,0,.22,0h0l1.46-1.48a.2.2,0,0,0,0-.16l-1.46-4.35a.16.16,0,0,0-.2-.09.14.14,0,0,0-.09.09l-1.46,4.35A.17.17,0,0,0,176.54,31.72Z"/><path class="cls-7" d="M180.49,39.78,182,35.44a.18.18,0,0,0,0-.16l-1.46-1.49a.16.16,0,0,0-.22,0h0l-1.45,1.49a.16.16,0,0,0,0,.16l1.46,4.34a.15.15,0,0,0,.19.1A.17.17,0,0,0,180.49,39.78Z"/><path class="cls-7" d="M176.54,42.37,178,43.86a.16.16,0,0,0,.22,0h0l1.46-1.49a.17.17,0,0,0,0-.15l-1.46-4.35a.17.17,0,0,0-.2-.1.18.18,0,0,0-.09.1l-1.46,4.35A.14.14,0,0,0,176.54,42.37Z"/><path class="cls-7" d="M176,39.78l1.46-4.34a.18.18,0,0,0,0-.16L176,33.79a.16.16,0,0,0-.22,0h0l-1.45,1.49a.16.16,0,0,0,0,.16l1.46,4.34a.15.15,0,0,0,.19.1A.17.17,0,0,0,176,39.78Z"/><rect class="cls-8" x="173.2" y="11.69" width="9.8" height="9.1"/><path class="cls-9" d="M174.83,57.75h6.6a.13.13,0,0,0,.13-.13h0V51.7a.13.13,0,0,0-.13-.13h-6.6a.13.13,0,0,0-.13.13v5.92A.13.13,0,0,0,174.83,57.75Z"/><path class="cls-10" d="M183,19.18V16.27a.82.82,0,0,0-.81-.83H174a.83.83,0,0,0-.82.83v3.85a.49.49,0,0,0,.49.49h8.82a.49.49,0,0,0,.49-.49h0Z"/><path class="cls-11" d="M178.81,10.27v.53a.23.23,0,0,0,.24.23h1.06a.24.24,0,0,0,.25-.23h0v-.53a.24.24,0,0,0-.25-.22h-1.06A.23.23,0,0,0,178.81,10.27Z"/><path class="cls-11" d="M175.85,10.27v.53a.23.23,0,0,0,.24.23h1.06a.24.24,0,0,0,.25-.23h0v-.53a.24.24,0,0,0-.25-.22h-1.06a.23.23,0,0,0-.24.22Z"/><path class="cls-12" d="M174,16.27a.18.18,0,0,0-.17.17.17.17,0,0,0,.17.16h8.23a.16.16,0,0,0,.16-.16.17.17,0,0,0-.16-.17Z"/><path class="cls-12" d="M174,16.91a.17.17,0,0,0-.17.16.17.17,0,0,0,.17.17h8.23a.16.16,0,0,0,.16-.17.16.16,0,0,0-.16-.16Z"/><path class="cls-12" d="M174,17.55a.17.17,0,0,0-.17.16.18.18,0,0,0,.17.17h8.23a.17.17,0,0,0,.16-.17.16.16,0,0,0-.16-.16Z"/><path class="cls-6" d="M184.8,9.85v49a.4.4,0,0,0,.41.4h9a.41.41,0,0,0,.41-.4v-49a.41.41,0,0,0-.41-.41h-9A.41.41,0,0,0,184.8,9.85Z"/><path class="cls-7" d="M192.09,50.44l1.45-4.34a.14.14,0,0,0,0-.16l-1.45-1.49a.16.16,0,0,0-.22,0h0l-1.46,1.49a.15.15,0,0,0,0,.16l1.45,4.34a.17.17,0,0,0,.2.1A.24.24,0,0,0,192.09,50.44Z"/><path class="cls-7" d="M187.61,50.44l1.45-4.34a.14.14,0,0,0,0-.16l-1.45-1.49a.16.16,0,0,0-.22,0h0l-1.46,1.49a.15.15,0,0,0,0,.16l1.45,4.34a.17.17,0,0,0,.2.1A.24.24,0,0,0,187.61,50.44Z"/><path class="cls-7" d="M192.09,29.12l1.45-4.34a.14.14,0,0,0,0-.16l-1.45-1.48a.16.16,0,0,0-.22,0h0l-1.46,1.48a.15.15,0,0,0,0,.16l1.45,4.34a.16.16,0,0,0,.2.1A.19.19,0,0,0,192.09,29.12Z"/><path class="cls-7" d="M187.61,29.12l1.45-4.34a.14.14,0,0,0,0-.16l-1.45-1.48a.16.16,0,0,0-.22,0h0l-1.46,1.48a.15.15,0,0,0,0,.16l1.45,4.34a.16.16,0,0,0,.2.1A.19.19,0,0,0,187.61,29.12Z"/><path class="cls-7" d="M188.13,31.72l1.46,1.48a.16.16,0,0,0,.22,0h0l1.45-1.48a.15.15,0,0,0,0-.16l-1.45-4.35a.16.16,0,0,0-.2-.09.15.15,0,0,0-.1.09l-1.45,4.35A.16.16,0,0,0,188.13,31.72Z"/><path class="cls-7" d="M192.09,39.78l1.45-4.34a.14.14,0,0,0,0-.16l-1.45-1.49a.16.16,0,0,0-.22,0h0l-1.46,1.49a.15.15,0,0,0,0,.16l1.45,4.34a.16.16,0,0,0,.2.1A.19.19,0,0,0,192.09,39.78Z"/><path class="cls-7" d="M188.13,42.37l1.46,1.49a.16.16,0,0,0,.22,0h0l1.45-1.49a.13.13,0,0,0,0-.15l-1.45-4.35a.17.17,0,0,0-.2-.1.19.19,0,0,0-.1.1l-1.45,4.35A.14.14,0,0,0,188.13,42.37Z"/><path class="cls-7" d="M187.61,39.78l1.45-4.34a.14.14,0,0,0,0-.16l-1.45-1.49a.16.16,0,0,0-.22,0h0l-1.46,1.49a.15.15,0,0,0,0,.16l1.45,4.34a.16.16,0,0,0,.2.1A.19.19,0,0,0,187.61,39.78Z"/><rect class="cls-8" x="184.8" y="11.69" width="9.8" height="9.1"/><path class="cls-9" d="M186.43,57.75H193a.13.13,0,0,0,.13-.13h0V51.7a.13.13,0,0,0-.13-.13h-6.6a.13.13,0,0,0-.13.13v5.92A.13.13,0,0,0,186.43,57.75Z"/><path class="cls-10" d="M194.6,19.18V16.27a.83.83,0,0,0-.82-.83h-8.16a.82.82,0,0,0-.82.83v3.85a.49.49,0,0,0,.49.49h8.82a.49.49,0,0,0,.49-.49h0Z"/><path class="cls-11" d="M190.4,10.27v.53a.24.24,0,0,0,.25.23h1.06a.23.23,0,0,0,.24-.23h0v-.53a.23.23,0,0,0-.24-.22h-1.06A.24.24,0,0,0,190.4,10.27Z"/><path class="cls-11" d="M187.44,10.27v.53a.24.24,0,0,0,.25.23h1.06a.23.23,0,0,0,.24-.23h0v-.53a.23.23,0,0,0-.24-.22h-1.06a.24.24,0,0,0-.25.22Z"/><path class="cls-12" d="M185.58,16.27a.17.17,0,0,0-.16.17.16.16,0,0,0,.16.16h8.23a.17.17,0,0,0,.17-.16.18.18,0,0,0-.17-.17Z"/><path class="cls-12" d="M185.58,16.91a.16.16,0,0,0-.16.16.16.16,0,0,0,.16.17h8.23a.17.17,0,0,0,.17-.17.17.17,0,0,0-.17-.16Z"/><path class="cls-12" d="M185.58,17.55a.16.16,0,0,0-.16.16.17.17,0,0,0,.16.17h8.23a.18.18,0,0,0,.17-.17.17.17,0,0,0-.17-.16Z"/><path class="cls-6" d="M196.39,9.85v49a.41.41,0,0,0,.41.4h9a.4.4,0,0,0,.41-.4v-49a.41.41,0,0,0-.41-.41h-9A.41.41,0,0,0,196.39,9.85Z"/><path class="cls-7" d="M203.68,50.44l1.46-4.34a.18.18,0,0,0,0-.16l-1.46-1.49a.15.15,0,0,0-.21,0h0L202,45.94a.16.16,0,0,0,0,.16l1.46,4.34a.15.15,0,0,0,.19.1A.16.16,0,0,0,203.68,50.44Z"/><path class="cls-7" d="M199.2,50.44l1.46-4.34a.16.16,0,0,0,0-.16l-1.46-1.49a.15.15,0,0,0-.21,0h0l-1.45,1.49a.16.16,0,0,0,0,.16l1.46,4.34a.15.15,0,0,0,.19.1A.16.16,0,0,0,199.2,50.44Z"/><path class="cls-7" d="M203.68,29.12l1.46-4.34a.18.18,0,0,0,0-.16l-1.46-1.48a.15.15,0,0,0-.21,0h0L202,24.62a.16.16,0,0,0,0,.16l1.46,4.34a.15.15,0,0,0,.19.1A.14.14,0,0,0,203.68,29.12Z"/><path class="cls-7" d="M199.2,29.12l1.46-4.34a.16.16,0,0,0,0-.16l-1.46-1.48a.15.15,0,0,0-.21,0h0l-1.45,1.48a.16.16,0,0,0,0,.16l1.46,4.34a.15.15,0,0,0,.19.1A.14.14,0,0,0,199.2,29.12Z"/><path class="cls-7" d="M199.73,31.72l1.45,1.48a.16.16,0,0,0,.22,0h0l1.46-1.48a.17.17,0,0,0,0-.16l-1.46-4.35a.15.15,0,0,0-.2-.09.14.14,0,0,0-.09.09l-1.46,4.35A.17.17,0,0,0,199.73,31.72Z"/><path class="cls-7" d="M203.68,39.78l1.46-4.34a.18.18,0,0,0,0-.16l-1.46-1.49a.15.15,0,0,0-.21,0h0L202,35.28a.16.16,0,0,0,0,.16l1.46,4.34a.15.15,0,0,0,.19.1A.14.14,0,0,0,203.68,39.78Z"/><path class="cls-7" d="M199.73,42.37l1.45,1.49a.16.16,0,0,0,.22,0h0l1.46-1.49a.14.14,0,0,0,0-.15l-1.46-4.35a.17.17,0,0,0-.2-.1.18.18,0,0,0-.09.1l-1.46,4.35A.14.14,0,0,0,199.73,42.37Z"/><path class="cls-7" d="M199.2,39.78l1.46-4.34a.16.16,0,0,0,0-.16l-1.46-1.49a.15.15,0,0,0-.21,0h0l-1.45,1.49a.16.16,0,0,0,0,.16l1.46,4.34a.15.15,0,0,0,.19.1A.14.14,0,0,0,199.2,39.78Z"/><rect class="cls-8" x="196.39" y="11.69" width="9.8" height="9.1"/><path class="cls-9" d="M198,57.75h6.61a.12.12,0,0,0,.12-.13h0V51.7a.12.12,0,0,0-.12-.13H198a.12.12,0,0,0-.12.13v5.92A.12.12,0,0,0,198,57.75Z"/><path class="cls-10" d="M206.19,19.18V16.27a.82.82,0,0,0-.81-.83h-8.17a.83.83,0,0,0-.82.83v3.85a.49.49,0,0,0,.49.49h8.82a.49.49,0,0,0,.49-.49h0Z"/><path class="cls-11" d="M202,10.27v.53a.23.23,0,0,0,.24.23h1.06a.24.24,0,0,0,.25-.23h0v-.53a.24.24,0,0,0-.25-.22h-1.06A.23.23,0,0,0,202,10.27Z"/><path class="cls-11" d="M199,10.27v.53a.23.23,0,0,0,.24.23h1.06a.24.24,0,0,0,.25-.23h0v-.53a.24.24,0,0,0-.25-.22h-1.06a.23.23,0,0,0-.24.22Z"/><path class="cls-12" d="M197.18,16.27a.17.17,0,0,0-.16.17.16.16,0,0,0,.16.16h8.23a.16.16,0,0,0,.16-.16.17.17,0,0,0-.16-.17Z"/><path class="cls-12" d="M197.18,16.91a.16.16,0,0,0-.16.16.16.16,0,0,0,.16.17h8.23a.16.16,0,0,0,.16-.17.16.16,0,0,0-.16-.16Z"/><path class="cls-12" d="M197.18,17.55a.16.16,0,0,0-.16.16.17.17,0,0,0,.16.17h8.23a.17.17,0,0,0,.16-.17.16.16,0,0,0-.16-.16Z"/><path class="cls-6" d="M208.64,9.85v49a.4.4,0,0,0,.41.4h9a.4.4,0,0,0,.41-.4v-49a.41.41,0,0,0-.41-.41h-9A.41.41,0,0,0,208.64,9.85Z"/><path class="cls-7" d="M215.93,50.44l1.45-4.34a.15.15,0,0,0,0-.16l-1.46-1.49a.16.16,0,0,0-.22,0h0l-1.46,1.49a.15.15,0,0,0,0,.16l1.45,4.34a.17.17,0,0,0,.2.1A.19.19,0,0,0,215.93,50.44Z"/><path class="cls-7" d="M211.45,50.44l1.45-4.34a.15.15,0,0,0,0-.16l-1.46-1.49a.16.16,0,0,0-.22,0h0l-1.46,1.49a.15.15,0,0,0,0,.16l1.45,4.34a.17.17,0,0,0,.2.1A.19.19,0,0,0,211.45,50.44Z"/><path class="cls-7" d="M215.93,29.12l1.45-4.34a.15.15,0,0,0,0-.16l-1.46-1.48a.16.16,0,0,0-.22,0h0l-1.46,1.48a.15.15,0,0,0,0,.16l1.45,4.34a.16.16,0,0,0,.2.1A.17.17,0,0,0,215.93,29.12Z"/><path class="cls-7" d="M211.45,29.12l1.45-4.34a.15.15,0,0,0,0-.16l-1.46-1.48a.16.16,0,0,0-.22,0h0l-1.46,1.48a.15.15,0,0,0,0,.16l1.45,4.34a.16.16,0,0,0,.2.1A.17.17,0,0,0,211.45,29.12Z"/><path class="cls-7" d="M212,31.72l1.46,1.48a.16.16,0,0,0,.22,0h0l1.46-1.48a.16.16,0,0,0,0-.16l-1.45-4.35a.16.16,0,0,0-.2-.09.15.15,0,0,0-.1.09l-1.45,4.35A.16.16,0,0,0,212,31.72Z"/><path class="cls-7" d="M215.93,39.78l1.45-4.34a.15.15,0,0,0,0-.16l-1.46-1.49a.16.16,0,0,0-.22,0h0l-1.46,1.49a.15.15,0,0,0,0,.16l1.45,4.34a.16.16,0,0,0,.2.1A.17.17,0,0,0,215.93,39.78Z"/><path class="cls-7" d="M212,42.37l1.46,1.49a.16.16,0,0,0,.22,0h0l1.46-1.49a.14.14,0,0,0,0-.15l-1.45-4.35a.17.17,0,0,0-.2-.1.19.19,0,0,0-.1.1l-1.45,4.35A.14.14,0,0,0,212,42.37Z"/><path class="cls-7" d="M211.45,39.78l1.45-4.34a.15.15,0,0,0,0-.16l-1.46-1.49a.16.16,0,0,0-.22,0h0l-1.46,1.49a.15.15,0,0,0,0,.16l1.45,4.34a.16.16,0,0,0,.2.1A.17.17,0,0,0,211.45,39.78Z"/><rect class="cls-8" x="208.64" y="11.69" width="9.8" height="9.1"/><path class="cls-9" d="M210.27,57.75h6.6a.13.13,0,0,0,.13-.13h0V51.7a.13.13,0,0,0-.13-.13h-6.6a.13.13,0,0,0-.13.13v5.92A.13.13,0,0,0,210.27,57.75Z"/><path class="cls-10" d="M218.44,19.18V16.27a.83.83,0,0,0-.82-.83h-8.16a.83.83,0,0,0-.82.83v3.85a.49.49,0,0,0,.49.49H218a.49.49,0,0,0,.49-.49h0Z"/><path class="cls-11" d="M214.24,10.27v.53a.24.24,0,0,0,.25.23h1.06a.24.24,0,0,0,.25-.23h0v-.53a.24.24,0,0,0-.25-.22h-1.06A.24.24,0,0,0,214.24,10.27Z"/><path class="cls-11" d="M211.28,10.27v.53a.24.24,0,0,0,.25.23h1.06a.24.24,0,0,0,.25-.23h0v-.53a.24.24,0,0,0-.25-.22h-1.06a.24.24,0,0,0-.25.22Z"/><path class="cls-12" d="M209.43,16.27a.18.18,0,0,0-.17.17.17.17,0,0,0,.17.16h8.23a.16.16,0,0,0,.16-.16.17.17,0,0,0-.16-.17Z"/><path class="cls-12" d="M209.43,16.91a.17.17,0,0,0-.17.16.17.17,0,0,0,.17.17h8.23a.16.16,0,0,0,.16-.17.16.16,0,0,0-.16-.16Z"/><path class="cls-12" d="M209.43,17.55a.17.17,0,0,0-.17.16.18.18,0,0,0,.17.17h8.23a.17.17,0,0,0,.16-.17.16.16,0,0,0-.16-.16Z"/><path class="cls-6" d="M220.24,9.85v49a.4.4,0,0,0,.41.4h9a.4.4,0,0,0,.4-.4v-49a.4.4,0,0,0-.4-.41h-9A.41.41,0,0,0,220.24,9.85Z"/><path class="cls-7" d="M227.52,50.44,229,46.1a.16.16,0,0,0,0-.16l-1.45-1.49a.16.16,0,0,0-.22,0h0l-1.46,1.49a.16.16,0,0,0,0,.16l1.46,4.34a.17.17,0,0,0,.2.1A.18.18,0,0,0,227.52,50.44Z"/><path class="cls-7" d="M223,50.44l1.46-4.34a.16.16,0,0,0,0-.16L223,44.45a.16.16,0,0,0-.22,0h0l-1.46,1.49a.16.16,0,0,0,0,.16l1.46,4.34a.17.17,0,0,0,.2.1A.18.18,0,0,0,223,50.44Z"/><path class="cls-7" d="M227.52,29.12,229,24.78a.16.16,0,0,0,0-.16l-1.45-1.48a.16.16,0,0,0-.22,0h0l-1.46,1.48a.16.16,0,0,0,0,.16l1.46,4.34a.16.16,0,0,0,.2.1A.15.15,0,0,0,227.52,29.12Z"/><path class="cls-7" d="M223,29.12l1.46-4.34a.16.16,0,0,0,0-.16L223,23.14a.16.16,0,0,0-.22,0h0l-1.46,1.48a.16.16,0,0,0,0,.16l1.46,4.34a.16.16,0,0,0,.2.1A.15.15,0,0,0,223,29.12Z"/><path class="cls-7" d="M223.57,31.72,225,33.2a.14.14,0,0,0,.21,0h0l1.45-1.48a.17.17,0,0,0,0-.16l-1.46-4.35a.14.14,0,0,0-.19-.09.13.13,0,0,0-.1.09l-1.46,4.35A.17.17,0,0,0,223.57,31.72Z"/><path class="cls-7" d="M227.52,39.78,229,35.44a.16.16,0,0,0,0-.16l-1.45-1.49a.16.16,0,0,0-.22,0h0l-1.46,1.49a.16.16,0,0,0,0,.16l1.46,4.34a.16.16,0,0,0,.2.1A.15.15,0,0,0,227.52,39.78Z"/><path class="cls-7" d="M223.57,42.37,225,43.86a.14.14,0,0,0,.21,0h0l1.45-1.49a.14.14,0,0,0,0-.15l-1.46-4.35a.15.15,0,0,0-.19-.1.16.16,0,0,0-.1.1l-1.46,4.35A.14.14,0,0,0,223.57,42.37Z"/><path class="cls-7" d="M223,39.78l1.46-4.34a.16.16,0,0,0,0-.16L223,33.79a.16.16,0,0,0-.22,0h0l-1.46,1.49a.16.16,0,0,0,0,.16l1.46,4.34a.16.16,0,0,0,.2.1A.15.15,0,0,0,223,39.78Z"/><rect class="cls-8" x="220.24" y="11.69" width="9.8" height="9.1"/><path class="cls-9" d="M221.87,57.75h6.6a.13.13,0,0,0,.13-.13h0V51.7a.13.13,0,0,0-.13-.13h-6.6a.13.13,0,0,0-.13.13v5.92A.13.13,0,0,0,221.87,57.75Z"/><path class="cls-10" d="M230,19.18V16.27a.82.82,0,0,0-.81-.83h-8.17a.82.82,0,0,0-.81.83v3.85a.49.49,0,0,0,.49.49h8.82a.48.48,0,0,0,.48-.49h0Z"/><path class="cls-11" d="M225.84,10.27v.53a.24.24,0,0,0,.25.23h1.06a.23.23,0,0,0,.24-.23h0v-.53a.23.23,0,0,0-.24-.22h-1.06A.24.24,0,0,0,225.84,10.27Z"/><path class="cls-11" d="M222.88,10.27v.53a.24.24,0,0,0,.25.23h1.06a.23.23,0,0,0,.24-.23h0v-.53a.23.23,0,0,0-.24-.22h-1.06a.24.24,0,0,0-.25.22Z"/><path class="cls-12" d="M221,16.27a.17.17,0,0,0-.16.17.16.16,0,0,0,.16.16h8.23a.16.16,0,0,0,.16-.16.17.17,0,0,0-.16-.17Z"/><path class="cls-12" d="M221,16.91a.16.16,0,0,0-.16.16.16.16,0,0,0,.16.17h8.23a.16.16,0,0,0,.16-.17.16.16,0,0,0-.16-.16Z"/><path class="cls-12" d="M221,17.55a.16.16,0,0,0-.16.16.17.17,0,0,0,.16.17h8.23a.17.17,0,0,0,.16-.17.16.16,0,0,0-.16-.16Z"/><path class="cls-6" d="M231.83,9.85v49a.41.41,0,0,0,.41.4h9a.4.4,0,0,0,.41-.4v-49a.41.41,0,0,0-.41-.41h-9A.41.41,0,0,0,231.83,9.85Z"/><path class="cls-7" d="M239.12,50.44l1.45-4.34a.15.15,0,0,0,0-.16l-1.46-1.49a.16.16,0,0,0-.22,0h0l-1.45,1.49a.14.14,0,0,0,0,.16l1.45,4.34a.17.17,0,0,0,.2.1A.19.19,0,0,0,239.12,50.44Z"/><path class="cls-7" d="M234.64,50.44l1.45-4.34a.15.15,0,0,0,0-.16l-1.46-1.49a.16.16,0,0,0-.22,0h0l-1.45,1.49a.14.14,0,0,0,0,.16l1.45,4.34a.17.17,0,0,0,.2.1A.19.19,0,0,0,234.64,50.44Z"/><path class="cls-7" d="M239.12,29.12l1.45-4.34a.15.15,0,0,0,0-.16l-1.46-1.48a.16.16,0,0,0-.22,0h0l-1.45,1.48a.14.14,0,0,0,0,.16l1.45,4.34a.16.16,0,0,0,.2.1A.17.17,0,0,0,239.12,29.12Z"/><path class="cls-7" d="M234.64,29.12l1.45-4.34a.15.15,0,0,0,0-.16l-1.46-1.48a.16.16,0,0,0-.22,0h0l-1.45,1.48a.14.14,0,0,0,0,.16l1.45,4.34a.16.16,0,0,0,.2.1A.17.17,0,0,0,234.64,29.12Z"/><path class="cls-7" d="M235.17,31.72l1.45,1.48a.16.16,0,0,0,.22,0h0l1.46-1.48a.16.16,0,0,0,0-.16l-1.45-4.35a.16.16,0,0,0-.2-.09.18.18,0,0,0-.1.09l-1.45,4.35A.15.15,0,0,0,235.17,31.72Z"/><path class="cls-7" d="M239.12,39.78l1.45-4.34a.15.15,0,0,0,0-.16l-1.46-1.49a.16.16,0,0,0-.22,0h0l-1.45,1.49a.14.14,0,0,0,0,.16l1.45,4.34a.16.16,0,0,0,.2.1A.17.17,0,0,0,239.12,39.78Z"/><path class="cls-7" d="M235.17,42.37l1.45,1.49a.16.16,0,0,0,.22,0h0l1.46-1.49a.14.14,0,0,0,0-.15l-1.45-4.35a.17.17,0,0,0-.2-.1.24.24,0,0,0-.1.1l-1.45,4.35A.13.13,0,0,0,235.17,42.37Z"/><path class="cls-7" d="M234.64,39.78l1.45-4.34a.15.15,0,0,0,0-.16l-1.46-1.49a.16.16,0,0,0-.22,0h0l-1.45,1.49a.14.14,0,0,0,0,.16l1.45,4.34a.16.16,0,0,0,.2.1A.17.17,0,0,0,234.64,39.78Z"/><rect class="cls-8" x="231.83" y="11.69" width="9.8" height="9.1"/><path class="cls-9" d="M233.46,57.75h6.6a.13.13,0,0,0,.13-.13h0V51.7a.13.13,0,0,0-.13-.13h-6.6a.13.13,0,0,0-.13.13v5.92A.13.13,0,0,0,233.46,57.75Z"/><path class="cls-10" d="M241.63,19.18V16.27a.83.83,0,0,0-.82-.83h-8.16a.83.83,0,0,0-.82.83v3.85a.49.49,0,0,0,.49.49h8.82a.49.49,0,0,0,.49-.49h0Z"/><path class="cls-11" d="M237.44,10.27v.53a.23.23,0,0,0,.24.23h1.06a.24.24,0,0,0,.25-.23h0v-.53a.24.24,0,0,0-.25-.22h-1.06A.23.23,0,0,0,237.44,10.27Z"/><path class="cls-11" d="M234.48,10.27v.53a.23.23,0,0,0,.24.23h1.06a.24.24,0,0,0,.25-.23h0v-.53a.24.24,0,0,0-.25-.22h-1.06a.23.23,0,0,0-.24.22Z"/><path class="cls-12" d="M232.62,16.27a.18.18,0,0,0-.17.17.17.17,0,0,0,.17.16h8.23a.16.16,0,0,0,.16-.16.17.17,0,0,0-.16-.17Z"/><path class="cls-12" d="M232.62,16.91a.17.17,0,0,0-.17.16.17.17,0,0,0,.17.17h8.23a.16.16,0,0,0,.16-.17.16.16,0,0,0-.16-.16Z"/><path class="cls-12" d="M232.62,17.55a.17.17,0,0,0-.17.16.18.18,0,0,0,.17.17h8.23a.17.17,0,0,0,.16-.17.16.16,0,0,0-.16-.16Z"/><path class="cls-6" d="M243.43,9.85v49a.4.4,0,0,0,.41.4h9a.41.41,0,0,0,.41-.4v-49a.41.41,0,0,0-.41-.41h-9A.41.41,0,0,0,243.43,9.85Z"/><path class="cls-7" d="M250.71,50.44l1.46-4.34a.16.16,0,0,0,0-.16l-1.45-1.49a.16.16,0,0,0-.22,0h0L249,45.94a.18.18,0,0,0,0,.16l1.46,4.34a.17.17,0,0,0,.2.1A.18.18,0,0,0,250.71,50.44Z"/><path class="cls-7" d="M246.23,50.44l1.46-4.34a.16.16,0,0,0,0-.16l-1.45-1.49a.16.16,0,0,0-.22,0h0l-1.46,1.49a.18.18,0,0,0,0,.16l1.46,4.34a.17.17,0,0,0,.2.1A.18.18,0,0,0,246.23,50.44Z"/><path class="cls-7" d="M250.71,29.12l1.46-4.34a.16.16,0,0,0,0-.16l-1.45-1.48a.16.16,0,0,0-.22,0h0L249,24.62a.18.18,0,0,0,0,.16l1.46,4.34a.16.16,0,0,0,.2.1A.15.15,0,0,0,250.71,29.12Z"/><path class="cls-7" d="M246.23,29.12l1.46-4.34a.16.16,0,0,0,0-.16l-1.45-1.48a.16.16,0,0,0-.22,0h0l-1.46,1.48a.18.18,0,0,0,0,.16l1.46,4.34a.16.16,0,0,0,.2.1A.15.15,0,0,0,246.23,29.12Z"/><path class="cls-7" d="M246.76,31.72l1.46,1.48a.16.16,0,0,0,.22,0h0l1.45-1.48a.17.17,0,0,0,0-.16l-1.46-4.35a.14.14,0,0,0-.19-.09.15.15,0,0,0-.1.09l-1.46,4.35A.2.2,0,0,0,246.76,31.72Z"/><path class="cls-7" d="M250.71,39.78l1.46-4.34a.16.16,0,0,0,0-.16l-1.45-1.49a.16.16,0,0,0-.22,0h0L249,35.28a.18.18,0,0,0,0,.16l1.46,4.34a.16.16,0,0,0,.2.1A.15.15,0,0,0,250.71,39.78Z"/><path class="cls-7" d="M246.76,42.37l1.46,1.49a.16.16,0,0,0,.22,0h0l1.45-1.49a.14.14,0,0,0,0-.15l-1.46-4.35a.15.15,0,0,0-.19-.1.19.19,0,0,0-.1.1l-1.46,4.35A.17.17,0,0,0,246.76,42.37Z"/><path class="cls-7" d="M246.23,39.78l1.46-4.34a.16.16,0,0,0,0-.16l-1.45-1.49a.16.16,0,0,0-.22,0h0l-1.46,1.49a.18.18,0,0,0,0,.16l1.46,4.34a.16.16,0,0,0,.2.1A.15.15,0,0,0,246.23,39.78Z"/><rect class="cls-8" x="243.43" y="11.69" width="9.8" height="9.1"/><path class="cls-9" d="M245.06,57.75h6.6a.13.13,0,0,0,.13-.13h0V51.7a.13.13,0,0,0-.13-.13h-6.6a.13.13,0,0,0-.13.13v5.92A.13.13,0,0,0,245.06,57.75Z"/><path class="cls-10" d="M253.23,19.18V16.27a.83.83,0,0,0-.82-.83h-8.17a.82.82,0,0,0-.81.83v3.85a.49.49,0,0,0,.49.49h8.82a.49.49,0,0,0,.49-.49h0Z"/><path class="cls-11" d="M249,10.27v.53a.24.24,0,0,0,.25.23h1.06a.23.23,0,0,0,.24-.23h0v-.53a.23.23,0,0,0-.24-.22h-1.06A.24.24,0,0,0,249,10.27Z"/><path class="cls-11" d="M246.07,10.27v.53a.24.24,0,0,0,.25.23h1.06a.23.23,0,0,0,.24-.23h0v-.53a.23.23,0,0,0-.24-.22h-1.06a.24.24,0,0,0-.25.22Z"/><path class="cls-12" d="M244.21,16.27a.17.17,0,0,0-.16.17.16.16,0,0,0,.16.16h8.23a.17.17,0,0,0,.17-.16.18.18,0,0,0-.17-.17Z"/><path class="cls-12" d="M244.21,16.91a.16.16,0,0,0-.16.16.16.16,0,0,0,.16.17h8.23a.17.17,0,0,0,.17-.17.17.17,0,0,0-.17-.16Z"/><path class="cls-12" d="M244.21,17.55a.16.16,0,0,0-.16.16.17.17,0,0,0,.16.17h8.23a.18.18,0,0,0,.17-.17.17.17,0,0,0-.17-.16Z"/><path class="cls-6" d="M255,9.85v49a.41.41,0,0,0,.41.4h9a.4.4,0,0,0,.41-.4v-49a.41.41,0,0,0-.41-.41h-9A.41.41,0,0,0,255,9.85Z"/><path class="cls-7" d="M262.31,50.44l1.46-4.34a.18.18,0,0,0,0-.16l-1.46-1.49a.16.16,0,0,0-.22,0h0l-1.45,1.49a.16.16,0,0,0,0,.16L262,50.44a.15.15,0,0,0,.19.1A.19.19,0,0,0,262.31,50.44Z"/><path class="cls-7" d="M257.83,50.44l1.46-4.34a.18.18,0,0,0,0-.16l-1.46-1.49a.16.16,0,0,0-.22,0h0l-1.45,1.49a.16.16,0,0,0,0,.16l1.46,4.34a.15.15,0,0,0,.19.1A.19.19,0,0,0,257.83,50.44Z"/><path class="cls-7" d="M262.31,29.12l1.46-4.34a.18.18,0,0,0,0-.16l-1.46-1.48a.16.16,0,0,0-.22,0h0l-1.45,1.48a.16.16,0,0,0,0,.16L262,29.12a.15.15,0,0,0,.19.1A.17.17,0,0,0,262.31,29.12Z"/><path class="cls-7" d="M257.83,29.12l1.46-4.34a.18.18,0,0,0,0-.16l-1.46-1.48a.16.16,0,0,0-.22,0h0l-1.45,1.48a.16.16,0,0,0,0,.16l1.46,4.34a.15.15,0,0,0,.19.1A.17.17,0,0,0,257.83,29.12Z"/><path class="cls-7" d="M258.36,31.72l1.45,1.48a.16.16,0,0,0,.22,0h0l1.46-1.48a.2.2,0,0,0,0-.16l-1.46-4.35a.16.16,0,0,0-.2-.09.14.14,0,0,0-.09.09l-1.46,4.35A.17.17,0,0,0,258.36,31.72Z"/><path class="cls-7" d="M262.31,39.78l1.46-4.34a.18.18,0,0,0,0-.16l-1.46-1.49a.16.16,0,0,0-.22,0h0l-1.45,1.49a.16.16,0,0,0,0,.16L262,39.78a.15.15,0,0,0,.19.1A.17.17,0,0,0,262.31,39.78Z"/><path class="cls-7" d="M258.36,42.37l1.45,1.49a.16.16,0,0,0,.22,0h0l1.46-1.49a.17.17,0,0,0,0-.15l-1.46-4.35a.17.17,0,0,0-.2-.1.18.18,0,0,0-.09.1l-1.46,4.35A.14.14,0,0,0,258.36,42.37Z"/><path class="cls-7" d="M257.83,39.78l1.46-4.34a.18.18,0,0,0,0-.16l-1.46-1.49a.16.16,0,0,0-.22,0h0l-1.45,1.49a.16.16,0,0,0,0,.16l1.46,4.34a.15.15,0,0,0,.19.1A.17.17,0,0,0,257.83,39.78Z"/><rect class="cls-8" x="255.02" y="11.69" width="9.8" height="9.1"/><path class="cls-9" d="M256.65,57.75h6.6a.13.13,0,0,0,.13-.13h0V51.7a.13.13,0,0,0-.13-.13h-6.6a.13.13,0,0,0-.13.13v5.92A.13.13,0,0,0,256.65,57.75Z"/><path class="cls-10" d="M264.82,19.18V16.27a.82.82,0,0,0-.81-.83h-8.17a.83.83,0,0,0-.82.83v3.85a.49.49,0,0,0,.49.49h8.82a.49.49,0,0,0,.49-.49h0Z"/><path class="cls-11" d="M260.63,10.27v.53a.23.23,0,0,0,.24.23h1.06a.24.24,0,0,0,.25-.23h0v-.53a.24.24,0,0,0-.25-.22h-1.06A.23.23,0,0,0,260.63,10.27Z"/><path class="cls-11" d="M257.67,10.27v.53a.23.23,0,0,0,.24.23H259a.24.24,0,0,0,.25-.23h0v-.53a.24.24,0,0,0-.25-.22h-1.06a.23.23,0,0,0-.24.22Z"/><path class="cls-12" d="M255.81,16.27a.18.18,0,0,0-.17.17.17.17,0,0,0,.17.16H264a.16.16,0,0,0,.16-.16.17.17,0,0,0-.16-.17Z"/><path class="cls-12" d="M255.81,16.91a.17.17,0,0,0-.17.16.17.17,0,0,0,.17.17H264a.16.16,0,0,0,.16-.17.16.16,0,0,0-.16-.16Z"/><path class="cls-12" d="M255.81,17.55a.17.17,0,0,0-.17.16.18.18,0,0,0,.17.17H264a.17.17,0,0,0,.16-.17.16.16,0,0,0-.16-.16Z"/><path class="cls-6" d="M266.62,9.85v49a.4.4,0,0,0,.41.4h9a.41.41,0,0,0,.41-.4v-49a.41.41,0,0,0-.41-.41h-9A.41.41,0,0,0,266.62,9.85Z"/><path class="cls-7" d="M273.91,50.44l1.45-4.34a.14.14,0,0,0,0-.16l-1.45-1.49a.16.16,0,0,0-.22,0h0l-1.46,1.49a.15.15,0,0,0,0,.16l1.45,4.34a.17.17,0,0,0,.2.1A.24.24,0,0,0,273.91,50.44Z"/><path class="cls-7" d="M269.43,50.44l1.45-4.34a.15.15,0,0,0,0-.16l-1.46-1.49a.16.16,0,0,0-.22,0h0l-1.46,1.49a.15.15,0,0,0,0,.16l1.45,4.34a.17.17,0,0,0,.2.1A.24.24,0,0,0,269.43,50.44Z"/><path class="cls-7" d="M273.91,29.12l1.45-4.34a.14.14,0,0,0,0-.16l-1.45-1.48a.16.16,0,0,0-.22,0h0l-1.46,1.48a.15.15,0,0,0,0,.16l1.45,4.34a.16.16,0,0,0,.2.1A.19.19,0,0,0,273.91,29.12Z"/><path class="cls-7" d="M269.43,29.12l1.45-4.34a.15.15,0,0,0,0-.16l-1.46-1.48a.16.16,0,0,0-.22,0h0l-1.46,1.48a.15.15,0,0,0,0,.16l1.45,4.34a.16.16,0,0,0,.2.1A.19.19,0,0,0,269.43,29.12Z"/><path class="cls-7" d="M270,31.72l1.46,1.48a.16.16,0,0,0,.22,0h0l1.45-1.48a.15.15,0,0,0,0-.16l-1.45-4.35a.16.16,0,0,0-.2-.09.15.15,0,0,0-.1.09l-1.45,4.35A.16.16,0,0,0,270,31.72Z"/><path class="cls-7" d="M273.91,39.78l1.45-4.34a.14.14,0,0,0,0-.16l-1.45-1.49a.16.16,0,0,0-.22,0h0l-1.46,1.49a.15.15,0,0,0,0,.16l1.45,4.34a.16.16,0,0,0,.2.1A.19.19,0,0,0,273.91,39.78Z"/><path class="cls-7" d="M270,42.37l1.46,1.49a.16.16,0,0,0,.22,0h0l1.45-1.49a.13.13,0,0,0,0-.15l-1.45-4.35a.17.17,0,0,0-.2-.1.19.19,0,0,0-.1.1l-1.45,4.35A.14.14,0,0,0,270,42.37Z"/><path class="cls-7" d="M269.43,39.78l1.45-4.34a.15.15,0,0,0,0-.16l-1.46-1.49a.16.16,0,0,0-.22,0h0l-1.46,1.49a.15.15,0,0,0,0,.16l1.45,4.34a.16.16,0,0,0,.2.1A.19.19,0,0,0,269.43,39.78Z"/><rect class="cls-8" x="266.62" y="11.69" width="9.8" height="9.1"/><path class="cls-9" d="M268.25,57.75h6.6a.13.13,0,0,0,.13-.13h0V51.7a.13.13,0,0,0-.13-.13h-6.6a.13.13,0,0,0-.13.13v5.92A.13.13,0,0,0,268.25,57.75Z"/><path class="cls-10" d="M276.42,19.18V16.27a.83.83,0,0,0-.82-.83h-8.16a.83.83,0,0,0-.82.83v3.85a.49.49,0,0,0,.49.49h8.82a.49.49,0,0,0,.49-.49h0Z"/><path class="cls-11" d="M272.22,10.27v.53a.24.24,0,0,0,.25.23h1.06a.23.23,0,0,0,.24-.23h0v-.53a.23.23,0,0,0-.24-.22h-1.06A.24.24,0,0,0,272.22,10.27Z"/><path class="cls-11" d="M269.26,10.27v.53a.24.24,0,0,0,.25.23h1.06a.23.23,0,0,0,.24-.23h0v-.53a.23.23,0,0,0-.24-.22h-1.06a.24.24,0,0,0-.25.22Z"/><path class="cls-12" d="M267.4,16.27a.17.17,0,0,0-.16.17.16.16,0,0,0,.16.16h8.23a.17.17,0,0,0,.17-.16.18.18,0,0,0-.17-.17Z"/><path class="cls-12" d="M267.4,16.91a.16.16,0,0,0-.16.16.16.16,0,0,0,.16.17h8.23a.17.17,0,0,0,.17-.17.17.17,0,0,0-.17-.16Z"/><path class="cls-12" d="M267.4,17.55a.16.16,0,0,0-.16.16.17.17,0,0,0,.16.17h8.23a.18.18,0,0,0,.17-.17.17.17,0,0,0-.17-.16Z"/><path class="cls-6" d="M278.22,9.85v49a.4.4,0,0,0,.4.4h9a.4.4,0,0,0,.41-.4v-49a.41.41,0,0,0-.41-.41h-9A.4.4,0,0,0,278.22,9.85Z"/><path class="cls-7" d="M285.5,50.44,287,46.1a.16.16,0,0,0,0-.16l-1.46-1.49a.14.14,0,0,0-.21,0h0l-1.45,1.49a.16.16,0,0,0,0,.16l1.46,4.34a.15.15,0,0,0,.19.1A.16.16,0,0,0,285.5,50.44Z"/><path class="cls-7" d="M281,50.44l1.46-4.34a.16.16,0,0,0,0-.16L281,44.45a.14.14,0,0,0-.21,0h0l-1.45,1.49a.16.16,0,0,0,0,.16l1.46,4.34a.15.15,0,0,0,.19.1A.16.16,0,0,0,281,50.44Z"/><path class="cls-7" d="M285.5,29.12,287,24.78a.16.16,0,0,0,0-.16l-1.46-1.48a.15.15,0,0,0-.21,0h0l-1.45,1.48a.16.16,0,0,0,0,.16l1.46,4.34a.15.15,0,0,0,.19.1A.14.14,0,0,0,285.5,29.12Z"/><path class="cls-7" d="M281,29.12l1.46-4.34a.16.16,0,0,0,0-.16L281,23.14a.15.15,0,0,0-.21,0h0l-1.45,1.48a.16.16,0,0,0,0,.16l1.46,4.34a.15.15,0,0,0,.19.1A.14.14,0,0,0,281,29.12Z"/><path class="cls-7" d="M281.55,31.72,283,33.2a.16.16,0,0,0,.22,0h0l1.46-1.48a.17.17,0,0,0,0-.16l-1.46-4.35a.15.15,0,0,0-.2-.09.14.14,0,0,0-.09.09l-1.46,4.35A.17.17,0,0,0,281.55,31.72Z"/><path class="cls-7" d="M285.5,39.78,287,35.44a.16.16,0,0,0,0-.16l-1.46-1.49a.14.14,0,0,0-.21,0h0l-1.45,1.49a.16.16,0,0,0,0,.16l1.46,4.34a.15.15,0,0,0,.19.1A.14.14,0,0,0,285.5,39.78Z"/><path class="cls-7" d="M281.55,42.37,283,43.86a.16.16,0,0,0,.22,0h0l1.46-1.49a.14.14,0,0,0,0-.15l-1.46-4.35a.17.17,0,0,0-.2-.1.18.18,0,0,0-.09.1l-1.46,4.35A.14.14,0,0,0,281.55,42.37Z"/><path class="cls-7" d="M281,39.78l1.46-4.34a.16.16,0,0,0,0-.16L281,33.79a.14.14,0,0,0-.21,0h0l-1.45,1.49a.16.16,0,0,0,0,.16l1.46,4.34a.15.15,0,0,0,.19.1A.14.14,0,0,0,281,39.78Z"/><rect class="cls-8" x="278.22" y="11.69" width="9.8" height="9.1"/><path class="cls-9" d="M279.84,57.75h6.61a.12.12,0,0,0,.12-.13h0V51.7a.12.12,0,0,0-.12-.13h-6.61a.12.12,0,0,0-.12.13v5.92A.12.12,0,0,0,279.84,57.75Z"/><path class="cls-10" d="M288,19.18V16.27a.82.82,0,0,0-.81-.83H279a.82.82,0,0,0-.81.83v3.85a.48.48,0,0,0,.49.49h8.81a.49.49,0,0,0,.49-.49h0Z"/><path class="cls-11" d="M283.82,10.27v.53a.23.23,0,0,0,.24.23h1.06a.24.24,0,0,0,.25-.23h0v-.53a.24.24,0,0,0-.25-.22h-1.06A.23.23,0,0,0,283.82,10.27Z"/><path class="cls-11" d="M280.86,10.27v.53a.23.23,0,0,0,.24.23h1.06a.24.24,0,0,0,.25-.23h0v-.53a.24.24,0,0,0-.25-.22H281.1a.23.23,0,0,0-.24.22Z"/><path class="cls-12" d="M279,16.27a.17.17,0,0,0-.16.17.16.16,0,0,0,.16.16h8.23a.16.16,0,0,0,.16-.16.17.17,0,0,0-.16-.17Z"/><path class="cls-12" d="M279,16.91a.16.16,0,0,0-.16.16.16.16,0,0,0,.16.17h8.23a.16.16,0,0,0,.16-.17.16.16,0,0,0-.16-.16Z"/><path class="cls-12" d="M279,17.55a.16.16,0,0,0-.16.16.17.17,0,0,0,.16.17h8.23a.17.17,0,0,0,.16-.17.16.16,0,0,0-.16-.16Z"/><path class="cls-6" d="M289.81,9.85v49a.4.4,0,0,0,.41.4h9a.4.4,0,0,0,.41-.4v-49a.41.41,0,0,0-.41-.41h-9A.41.41,0,0,0,289.81,9.85Z"/><path class="cls-7" d="M297.1,50.44l1.45-4.34a.15.15,0,0,0,0-.16l-1.46-1.49a.16.16,0,0,0-.22,0h0l-1.46,1.49a.15.15,0,0,0,0,.16l1.45,4.34a.17.17,0,0,0,.2.1A.24.24,0,0,0,297.1,50.44Z"/><path class="cls-7" d="M292.62,50.44l1.45-4.34a.15.15,0,0,0,0-.16l-1.46-1.49a.16.16,0,0,0-.22,0h0l-1.46,1.49a.15.15,0,0,0,0,.16l1.45,4.34a.17.17,0,0,0,.2.1A.19.19,0,0,0,292.62,50.44Z"/><path class="cls-7" d="M297.1,29.12l1.45-4.34a.15.15,0,0,0,0-.16l-1.46-1.48a.16.16,0,0,0-.22,0h0l-1.46,1.48a.15.15,0,0,0,0,.16l1.45,4.34a.16.16,0,0,0,.2.1A.19.19,0,0,0,297.1,29.12Z"/><path class="cls-7" d="M292.62,29.12l1.45-4.34a.15.15,0,0,0,0-.16l-1.46-1.48a.16.16,0,0,0-.22,0h0l-1.46,1.48a.15.15,0,0,0,0,.16l1.45,4.34a.16.16,0,0,0,.2.1A.17.17,0,0,0,292.62,29.12Z"/><path class="cls-7" d="M293.14,31.72l1.46,1.48a.16.16,0,0,0,.22,0h0l1.46-1.48a.16.16,0,0,0,0-.16l-1.45-4.35a.16.16,0,0,0-.2-.09.15.15,0,0,0-.1.09l-1.45,4.35A.16.16,0,0,0,293.14,31.72Z"/><path class="cls-7" d="M297.1,39.78l1.45-4.34a.15.15,0,0,0,0-.16l-1.46-1.49a.16.16,0,0,0-.22,0h0l-1.46,1.49a.15.15,0,0,0,0,.16l1.45,4.34a.16.16,0,0,0,.2.1A.19.19,0,0,0,297.1,39.78Z"/><path class="cls-7" d="M293.14,42.37l1.46,1.49a.16.16,0,0,0,.22,0h0l1.46-1.49a.14.14,0,0,0,0-.15l-1.45-4.35a.17.17,0,0,0-.2-.1.19.19,0,0,0-.1.1l-1.45,4.35A.14.14,0,0,0,293.14,42.37Z"/><path class="cls-7" d="M292.62,39.78l1.45-4.34a.15.15,0,0,0,0-.16l-1.46-1.49a.16.16,0,0,0-.22,0h0l-1.46,1.49a.15.15,0,0,0,0,.16l1.45,4.34a.16.16,0,0,0,.2.1A.17.17,0,0,0,292.62,39.78Z"/><rect class="cls-8" x="289.81" y="11.69" width="9.8" height="9.1"/><path class="cls-9" d="M291.44,57.75H298a.13.13,0,0,0,.13-.13h0V51.7a.13.13,0,0,0-.13-.13h-6.6a.13.13,0,0,0-.13.13v5.92A.13.13,0,0,0,291.44,57.75Z"/><path class="cls-10" d="M299.61,19.18V16.27a.83.83,0,0,0-.82-.83h-8.16a.83.83,0,0,0-.82.83v3.85a.49.49,0,0,0,.49.49h8.82a.49.49,0,0,0,.49-.49h0Z"/><path class="cls-11" d="M295.41,10.27v.53a.24.24,0,0,0,.25.23h1.06a.24.24,0,0,0,.25-.23h0v-.53a.24.24,0,0,0-.25-.22h-1.06A.24.24,0,0,0,295.41,10.27Z"/><path class="cls-11" d="M292.45,10.27v.53a.24.24,0,0,0,.25.23h1.06a.24.24,0,0,0,.25-.23h0v-.53a.24.24,0,0,0-.25-.22H292.7a.24.24,0,0,0-.25.22Z"/><path class="cls-12" d="M290.59,16.27a.17.17,0,0,0-.16.17.16.16,0,0,0,.16.16h8.23a.17.17,0,0,0,.17-.16.18.18,0,0,0-.17-.17Z"/><path class="cls-12" d="M290.59,16.91a.16.16,0,0,0-.16.16.16.16,0,0,0,.16.17h8.23a.17.17,0,0,0,.17-.17.17.17,0,0,0-.17-.16Z"/><path class="cls-12" d="M290.59,17.55a.16.16,0,0,0-.16.16.17.17,0,0,0,.16.17h8.23a.18.18,0,0,0,.17-.17.17.17,0,0,0-.17-.16Z"/><rect class="cls-13" x="113.51" y="9.44" width="0.98" height="49.85"/><rect class="cls-13" x="206.93" y="9.44" width="0.98" height="49.85"/><rect class="cls-3" x="5.46" y="23.63" width="13.09" height="22.06" rx="0.65"/><circle class="cls-14" cx="7.99" cy="26.51" r="1.03"/><circle class="cls-14" cx="7.99" cy="29.59" r="1.03"/><circle class="cls-14" cx="7.99" cy="32.68" r="1.03"/><rect class="cls-14" x="6.85" y="37.34" width="4.87" height="6.27" rx="0.06"/><polygon class="cls-3" points="7.96 38.29 7.93 38.29 7.68 38.54 7.53 40.23 7.71 40.41 7.75 40.41 8 40.16 8.14 38.48 7.96 38.29"/><polygon class="cls-3" points="10.41 38.25 10.38 38.25 10.13 38.5 9.99 40.19 10.17 40.37 10.2 40.37 10.45 40.13 10.6 38.44 10.41 38.25"/><polygon class="cls-3" points="7.75 40.51 7.72 40.51 7.47 40.76 7.33 42.44 7.51 42.63 7.54 42.63 7.79 42.38 7.93 40.7 7.75 40.51"/><polygon class="cls-3" points="10.21 40.47 10.18 40.47 9.93 40.72 9.79 42.4 9.96 42.59 10 42.59 10.25 42.34 10.39 40.66 10.21 40.47"/><polygon class="cls-3" points="8.02 40.2 7.78 40.45 7.78 40.48 7.99 40.68 9.89 40.68 10.13 40.44 10.13 40.41 9.93 40.2 8.02 40.2"/><polygon class="cls-3" points="7.83 42.43 7.59 42.67 7.59 42.7 7.79 42.9 9.7 42.9 9.94 42.66 9.94 42.63 9.73 42.43 7.83 42.43"/><polygon class="cls-3" points="8.23 37.98 7.99 38.23 7.99 38.26 8.2 38.45 10.1 38.46 10.34 38.22 10.34 38.19 10.14 37.98 8.23 37.98"/><circle class="cls-3" cx="10.94" cy="42.62" r="0.31"/><rect class="cls-14" x="12.28" y="37.34" width="4.87" height="6.27" rx="0.06"/><polygon class="cls-3" points="13.38 38.29 13.35 38.29 13.11 38.54 12.96 40.23 13.14 40.41 13.17 40.41 13.42 40.16 13.57 38.48 13.38 38.29"/><polygon class="cls-3" points="15.84 38.25 15.81 38.25 15.56 38.5 15.42 40.19 15.6 40.37 15.63 40.37 15.88 40.13 16.02 38.44 15.84 38.25"/><polygon class="cls-3" points="13.18 40.51 13.15 40.51 12.9 40.76 12.76 42.44 12.94 42.63 12.97 42.63 13.22 42.38 13.36 40.7 13.18 40.51"/><polygon class="cls-3" points="15.63 40.47 15.61 40.47 15.36 40.72 15.21 42.4 15.39 42.59 15.43 42.59 15.68 42.34 15.82 40.66 15.63 40.47"/><polygon class="cls-3" points="13.45 40.2 13.21 40.45 13.21 40.48 13.42 40.68 15.32 40.68 15.56 40.44 15.56 40.41 15.36 40.2 13.45 40.2"/><polygon class="cls-3" points="13.26 42.43 13.02 42.67 13.02 42.7 13.22 42.9 15.13 42.9 15.36 42.66 15.36 42.63 15.16 42.43 13.26 42.43"/><polygon class="cls-3" points="13.66 37.98 13.42 38.23 13.42 38.26 13.63 38.45 15.53 38.46 15.77 38.22 15.77 38.19 15.57 37.98 13.66 37.98"/><circle class="cls-3" cx="16.37" cy="42.62" r="0.31"/><g id="Callout_Gizmo" data-name="Callout Gizmo"><line id="Line" class="cls-15" x1="38.28" y1="33.58" x2="38.33" y2="34.98"/><text class="cls-16" transform="translate(36.74 36.45)">1</text><circle class="cls-17" cx="38.33" cy="33.66" r="5.1"/><text class="cls-16" transform="translate(36.74 36.45)">1</text></g><g id="Callout_Gizmo-2" data-name="Callout Gizmo"><line id="Line-2" data-name="Line" class="cls-15" x1="49.88" y1="33.58" x2="49.92" y2="34.98"/><text class="cls-16" transform="translate(47.47 36.45)">2</text><circle class="cls-17" cx="49.92" cy="33.66" r="5.1"/><text class="cls-16" transform="translate(47.47 36.45)">2</text></g><g id="Callout_Gizmo-3" data-name="Callout Gizmo"><line id="Line-3" data-name="Line" class="cls-15" x1="61.47" y1="33.58" x2="61.52" y2="34.98"/><text class="cls-16" transform="translate(59.05 36.45)">3</text><circle class="cls-17" cx="61.52" cy="33.66" r="5.1"/><text class="cls-16" transform="translate(59.05 36.45)">3</text></g><g id="Callout_Gizmo-4" data-name="Callout Gizmo"><line id="Line-4" data-name="Line" class="cls-15" x1="73.07" y1="33.58" x2="73.12" y2="34.98"/><text class="cls-16" transform="translate(70.39 36.45)">4</text><circle class="cls-17" cx="73.12" cy="33.66" r="5.1"/><text class="cls-16" transform="translate(70.39 36.45)">4</text></g><g id="Callout_Gizmo-5" data-name="Callout Gizmo"><line id="Line-5" data-name="Line" class="cls-15" x1="84.66" y1="33.58" x2="84.71" y2="34.98"/><text class="cls-16" transform="translate(82.22 36.45)">5</text><circle class="cls-17" cx="84.71" cy="33.66" r="5.1"/><text class="cls-16" transform="translate(82.22 36.45)">5</text></g><g id="Callout_Gizmo-6" data-name="Callout Gizmo"><line id="Line-6" data-name="Line" class="cls-15" x1="96.26" y1="33.58" x2="96.31" y2="34.98"/><text class="cls-16" transform="translate(93.68 36.45)">6</text><circle class="cls-17" cx="96.31" cy="33.66" r="5.1"/><text class="cls-16" transform="translate(93.68 36.45)">6</text></g><g id="Callout_Gizmo-7" data-name="Callout Gizmo"><line id="Line-7" data-name="Line" class="cls-15" x1="107.85" y1="33.58" x2="107.9" y2="34.98"/><text class="cls-16" transform="translate(105.47 36.45)">7</text><circle class="cls-17" cx="107.9" cy="33.66" r="5.1"/><text class="cls-16" transform="translate(105.47 36.45)">7</text></g><g id="Callout_Gizmo-8" data-name="Callout Gizmo"><line id="Line-8" data-name="Line" class="cls-15" x1="120.1" y1="33.58" x2="120.15" y2="34.98"/><text class="cls-16" transform="translate(117.63 36.45)">8</text><circle class="cls-17" cx="120.15" cy="33.66" r="5.1"/><text class="cls-16" transform="translate(117.63 36.45)">8</text></g><g id="Callout_Gizmo-9" data-name="Callout Gizmo"><line id="Line-9" data-name="Line" class="cls-15" x1="131.7" y1="33.58" x2="131.74" y2="34.98"/><text class="cls-16" transform="translate(129.12 36.45)">9</text><circle class="cls-17" cx="131.74" cy="33.66" r="5.1"/><text class="cls-16" transform="translate(129.12 36.45)">9</text></g><g id="Callout_Gizmo-10" data-name="Callout Gizmo"><line id="Line-10" data-name="Line" class="cls-15" x1="143.29" y1="33.58" x2="143.34" y2="34.98"/><text class="cls-16" transform="translate(138.86 36.45)">10</text><circle class="cls-17" cx="143.34" cy="33.66" r="5.1"/><text class="cls-16" transform="translate(138.86 36.45)">10</text></g><g id="Callout_Gizmo-11" data-name="Callout Gizmo"><line id="Line-11" data-name="Line" class="cls-15" x1="154.89" y1="33.58" x2="154.94" y2="34.98"/><text class="cls-16" transform="translate(151.77 36.45)">11</text><circle class="cls-17" cx="154.94" cy="33.66" r="5.1"/><text class="cls-16" transform="translate(151.77 36.45)">11</text></g><g id="Callout_Gizmo-12" data-name="Callout Gizmo"><line id="Line-12" data-name="Line" class="cls-15" x1="166.48" y1="33.58" x2="166.53" y2="34.98"/><text class="cls-16" transform="translate(162.5 36.45)">12</text><circle class="cls-17" cx="166.53" cy="33.66" r="5.1"/><text class="cls-16" transform="translate(162.5 36.45)">12</text></g><g id="Callout_Gizmo-13" data-name="Callout Gizmo"><line id="Line-13" data-name="Line" class="cls-15" x1="178.08" y1="33.58" x2="178.13" y2="34.98"/><text class="cls-16" transform="translate(174.07 36.45)">13</text><circle class="cls-17" cx="178.13" cy="33.66" r="5.1"/><text class="cls-16" transform="translate(174.07 36.45)">13</text></g><g id="Callout_Gizmo-14" data-name="Callout Gizmo"><line id="Line-14" data-name="Line" class="cls-15" x1="189.67" y1="33.58" x2="189.72" y2="34.98"/><text class="cls-16" transform="translate(185.41 36.45)">14</text><circle class="cls-17" cx="189.72" cy="33.66" r="5.1"/><text class="cls-16" transform="translate(185.41 36.45)">14</text></g><g id="Callout_Gizmo-15" data-name="Callout Gizmo"><line id="Line-15" data-name="Line" class="cls-15" x1="201.27" y1="33.58" x2="201.32" y2="34.98"/><text class="cls-16" transform="translate(197.24 36.45)">15</text><circle class="cls-17" cx="201.32" cy="33.66" r="5.1"/><text class="cls-16" transform="translate(197.24 36.45)">15</text><text class="cls-16" transform="translate(209.32 36.45)">16</text><circle class="cls-17" cx="213.53" cy="33.66" r="5.1"/><text class="cls-16" transform="translate(209.32 36.45)">16</text><text class="cls-16" transform="translate(221.22 36.45)">17</text><circle class="cls-17" cx="225.24" cy="33.66" r="5.1"/><text class="cls-16" transform="translate(221.22 36.45)">17</text><text class="cls-16" transform="translate(232.86 36.45)">18</text><circle class="cls-17" cx="236.96" cy="33.66" r="5.1"/><text class="cls-16" transform="translate(232.86 36.45)">18</text><text class="cls-16" transform="translate(244.12 36.45)">19</text><circle class="cls-17" cx="248.33" cy="33.66" r="5.1"/><text class="cls-16" transform="translate(244.12 36.45)">19</text><text class="cls-16" transform="translate(254.57 36.45)">20</text><circle class="cls-17" cx="259.92" cy="33.66" r="5.1"/><text class="cls-16" transform="translate(254.57 36.45)">20</text><text class="cls-16" transform="translate(267.51 36.45)">21</text><circle class="cls-17" cx="271.55" cy="33.66" r="5.1"/><text class="cls-16" transform="translate(267.51 36.45)">21</text><text class="cls-16" transform="translate(278.27 36.45)">22</text><circle class="cls-17" cx="283.17" cy="33.66" r="5.1"/><text class="cls-16" transform="translate(278.27 36.45)">22</text><text class="cls-16" transform="translate(289.79 36.45)">23</text><circle class="cls-17" cx="294.71" cy="33.66" r="5.1"/><text class="cls-16" transform="translate(289.79 36.45)">23</text></g><g id="Callout_Gizmo-16" data-name="Callout Gizmo"><line id="Line-16" data-name="Line" class="cls-15" x1="26.6" y1="33.58" x2="26.65" y2="34.98"/><text class="cls-16" transform="translate(23.75 36.45)">0</text><circle class="cls-17" cx="26.65" cy="33.66" r="5.1"/><text class="cls-16" transform="translate(23.75 36.45)">0</text></g></g></svg>