<svg xmlns="http://www.w3.org/2000/svg" viewBox="0 0 321.42 95.54"><defs><style>.cls-1,.cls-13,.cls-5{fill:#e6e7e8;}.cls-1,.cls-5{stroke:#bbbdbf;stroke-width:0.23px;}.cls-1,.cls-15,.cls-5,.cls-9{stroke-miterlimit:10;}.cls-1,.cls-12,.cls-6,.cls-7,.cls-9{fill-rule:evenodd;}.cls-2{fill:#929497;}.cls-3,.cls-7{fill:#202020;}.cls-4{fill:#414042;}.cls-6{fill:#487ec1;}.cls-8{fill:#3d609b;}.cls-9{fill:#282828;stroke:#202020;stroke-width:0.34px;}.cls-10{fill:#333;}.cls-11,.cls-12{fill:#404b5b;}.cls-14{fill:#58595b;}.cls-15{fill:none;stroke:#f69220;stroke-linecap:round;}.cls-16{font-size:8px;fill:#fff;font-family:Gotham-Medium, Gotham;font-weight:500;}.cls-17{fill:#2d2a26;}</style></defs><title>Artboard_Filename</title><g id="Rulers"><path class="cls-1" d="M315.55,20.66H313a.25.25,0,0,0-.25.25v.54a.25.25,0,0,1-.25.25h-4.9a.25.25,0,0,1-.25-.25v-.54a.23.23,0,0,0-.23-.25H14.27a.23.23,0,0,0-.23.25v.54a.25.25,0,0,1-.25.25H8.89a.25.25,0,0,1-.25-.25v-.54a.25.25,0,0,0-.25-.25H5.85a.4.4,0,0,0-.39.41V75.18a.38.38,0,0,0,.39.39H8.39a.24.24,0,0,0,.25-.23v-.55a.25.25,0,0,1,.25-.24h4.9a.25.25,0,0,1,.25.24v.55a.22.22,0,0,0,.23.23H307.15a.22.22,0,0,0,.23-.23v-.55a.25.25,0,0,1,.25-.24h4.9a.25.25,0,0,1,.25.24v.55a.23.23,0,0,0,.25.23h2.54a.38.38,0,0,0,.39-.39V21.07A.41.41,0,0,0,315.55,20.66ZM12.63,25.58A1.42,1.42,0,1,1,11.2,27,1.42,1.42,0,0,1,12.63,25.58Zm.06,45.08a1.42,1.42,0,1,1,1.41-1.4A1.41,1.41,0,0,1,12.69,70.66ZM10.79,66a3.34,3.34,0,1,1,3.31-3.32A3.35,3.35,0,0,1,10.79,66Zm299.9,0A3.34,3.34,0,1,1,314,62.65,3.35,3.35,0,0,1,310.69,66ZM12,36.07H9.55a2,2,0,1,1,0-4.09H12a2,2,0,0,1,0,4.09ZM308.79,25.58A1.42,1.42,0,1,1,307.38,27,1.43,1.43,0,0,1,308.79,25.58Zm-.06,45.08a1.42,1.42,0,1,1,1.43-1.4A1.41,1.41,0,0,1,308.73,70.66Zm3.17-34.59h-2.48a2,2,0,0,1,0-4.09h2.48a2,2,0,0,1,0,4.09Z"/><rect class="cls-2" x="16.08" y="21.86" width="289.25" height="52.51"/><rect class="cls-3" x="136.09" y="-94.88" width="49.24" height="285.98" transform="translate(208.82 -112.6) rotate(90)"/><rect class="cls-4" x="17.72" y="23.49" width="2.38" height="49.24"/><rect class="cls-4" x="301.32" y="23.49" width="2.38" height="49.24"/><rect class="cls-5" x="16.06" y="72.6" width="289.28" height="1.8"/><rect class="cls-5" x="16.06" y="20.23" width="289.28" height="2.11"/><path class="cls-6" d="M21.81,23.6v49a.41.41,0,0,0,.41.41h9a.42.42,0,0,0,.41-.41v-49a.41.41,0,0,0-.41-.41h-9A.41.41,0,0,0,21.81,23.6Z"/><path class="cls-7" d="M29.1,64.19l1.45-4.34a.14.14,0,0,0,0-.16L29.06,58.2a.16.16,0,0,0-.22,0h0l-1.46,1.49a.15.15,0,0,0,0,.16l1.45,4.34a.16.16,0,0,0,.2.1A.19.19,0,0,0,29.1,64.19Z"/><path class="cls-7" d="M24.62,64.19l1.45-4.34a.15.15,0,0,0,0-.16L24.58,58.2a.16.16,0,0,0-.22,0h0L22.9,59.69a.15.15,0,0,0,0,.16l1.45,4.34a.16.16,0,0,0,.2.1A.19.19,0,0,0,24.62,64.19Z"/><path class="cls-7" d="M29.1,42.87l1.45-4.34a.14.14,0,0,0,0-.16l-1.45-1.48a.16.16,0,0,0-.22,0h0l-1.46,1.48a.15.15,0,0,0,0,.16l1.45,4.34a.16.16,0,0,0,.2.1A.16.16,0,0,0,29.1,42.87Z"/><path class="cls-7" d="M24.62,42.87l1.45-4.34a.15.15,0,0,0,0-.16l-1.46-1.48a.16.16,0,0,0-.22,0h0L22.9,38.37a.15.15,0,0,0,0,.16l1.45,4.34a.16.16,0,0,0,.2.1A.16.16,0,0,0,24.62,42.87Z"/><path class="cls-7" d="M25.14,45.47,26.6,47a.16.16,0,0,0,.22,0h0l1.46-1.48a.16.16,0,0,0,0-.16L26.86,41a.15.15,0,0,0-.2-.1.14.14,0,0,0-.1.1l-1.45,4.34A.16.16,0,0,0,25.14,45.47Z"/><path class="cls-7" d="M29.1,53.53l1.45-4.34a.14.14,0,0,0,0-.16l-1.45-1.48a.16.16,0,0,0-.22,0h0L27.38,49a.15.15,0,0,0,0,.16l1.45,4.34a.16.16,0,0,0,.2.1A.19.19,0,0,0,29.1,53.53Z"/><path class="cls-7" d="M25.14,56.13l1.46,1.48a.16.16,0,0,0,.22,0h0l1.46-1.48a.16.16,0,0,0,0-.16l-1.45-4.35a.16.16,0,0,0-.2-.09.15.15,0,0,0-.1.09L25.11,56A.16.16,0,0,0,25.14,56.13Z"/><path class="cls-7" d="M24.62,53.53l1.45-4.34A.15.15,0,0,0,26,49l-1.46-1.48a.16.16,0,0,0-.22,0h0L22.9,49a.15.15,0,0,0,0,.16l1.45,4.34a.16.16,0,0,0,.2.1A.19.19,0,0,0,24.62,53.53Z"/><rect class="cls-8" x="21.81" y="25.44" width="9.8" height="9.1"/><path class="cls-9" d="M23.44,71.5H30a.13.13,0,0,0,.13-.13h0V65.45a.12.12,0,0,0-.13-.12h-6.6a.12.12,0,0,0-.13.12v5.92A.13.13,0,0,0,23.44,71.5Z"/><path class="cls-10" d="M31.61,32.93V30a.83.83,0,0,0-.82-.83H22.63a.83.83,0,0,0-.82.83v3.85a.49.49,0,0,0,.49.49h8.82a.49.49,0,0,0,.49-.49h0Z"/><path class="cls-11" d="M27.41,24v.52a.24.24,0,0,0,.25.23h1.06a.23.23,0,0,0,.24-.23h0V24a.23.23,0,0,0-.24-.23H27.66A.24.24,0,0,0,27.41,24Z"/><path class="cls-11" d="M24.45,24v.52a.24.24,0,0,0,.25.23h1.06a.23.23,0,0,0,.24-.23h0V24a.23.23,0,0,0-.24-.23H24.7a.24.24,0,0,0-.25.23Z"/><path class="cls-12" d="M22.59,30a.17.17,0,0,0,0,.34h8.23a.17.17,0,1,0,0-.34Z"/><path class="cls-12" d="M22.59,30.66a.16.16,0,0,0-.16.17.16.16,0,0,0,.16.16h8.23a.17.17,0,0,0,.17-.16.17.17,0,0,0-.17-.17Z"/><path class="cls-12" d="M22.59,31.3a.16.16,0,0,0-.16.16.17.17,0,0,0,.16.17h8.23a.18.18,0,0,0,.17-.17.17.17,0,0,0-.17-.16Z"/><path class="cls-6" d="M33.41,23.6v49a.41.41,0,0,0,.4.41h9a.41.41,0,0,0,.4-.41v-49a.4.4,0,0,0-.4-.41h-9A.4.4,0,0,0,33.41,23.6Z"/><path class="cls-7" d="M40.69,64.19l1.46-4.34a.16.16,0,0,0,0-.16L40.65,58.2a.15.15,0,0,0-.21,0h0L39,59.69a.16.16,0,0,0,0,.16l1.46,4.34a.15.15,0,0,0,.19.1A.14.14,0,0,0,40.69,64.19Z"/><path class="cls-7" d="M36.21,64.19l1.46-4.34a.16.16,0,0,0,0-.16L36.18,58.2a.16.16,0,0,0-.22,0h0L34.5,59.69a.16.16,0,0,0,0,.16l1.46,4.34a.15.15,0,0,0,.19.1A.14.14,0,0,0,36.21,64.19Z"/><path class="cls-7" d="M40.69,42.87l1.46-4.34a.16.16,0,0,0,0-.16l-1.46-1.48a.15.15,0,0,0-.21,0h0L39,38.37a.16.16,0,0,0,0,.16l1.46,4.34a.15.15,0,0,0,.19.1A.13.13,0,0,0,40.69,42.87Z"/><path class="cls-7" d="M36.21,42.87l1.46-4.34a.16.16,0,0,0,0-.16l-1.45-1.48a.16.16,0,0,0-.22,0h0L34.5,38.37a.16.16,0,0,0,0,.16l1.46,4.34a.15.15,0,0,0,.19.1A.13.13,0,0,0,36.21,42.87Z"/><path class="cls-7" d="M36.74,45.47,38.19,47a.16.16,0,0,0,.22,0h0l1.45-1.48a.16.16,0,0,0,0-.16L38.45,41a.15.15,0,0,0-.2-.1.13.13,0,0,0-.09.1L36.7,45.31A.16.16,0,0,0,36.74,45.47Z"/><path class="cls-7" d="M40.69,53.53l1.46-4.34a.16.16,0,0,0,0-.16l-1.46-1.48a.15.15,0,0,0-.21,0h0L39,49a.16.16,0,0,0,0,.16l1.46,4.34a.15.15,0,0,0,.19.1A.14.14,0,0,0,40.69,53.53Z"/><path class="cls-7" d="M36.74,56.13l1.45,1.48a.16.16,0,0,0,.22,0h0l1.45-1.48a.17.17,0,0,0,0-.16l-1.46-4.35a.15.15,0,0,0-.2-.09.14.14,0,0,0-.09.09L36.7,56A.17.17,0,0,0,36.74,56.13Z"/><path class="cls-7" d="M36.21,53.53l1.46-4.34a.16.16,0,0,0,0-.16l-1.45-1.48a.16.16,0,0,0-.22,0h0L34.5,49a.16.16,0,0,0,0,.16l1.46,4.34a.15.15,0,0,0,.19.1A.14.14,0,0,0,36.21,53.53Z"/><rect class="cls-8" x="33.41" y="25.44" width="9.8" height="9.1"/><path class="cls-9" d="M35,71.5h6.61a.12.12,0,0,0,.12-.13h0V65.45a.12.12,0,0,0-.12-.12H35a.12.12,0,0,0-.12.12v5.92A.12.12,0,0,0,35,71.5Z"/><path class="cls-10" d="M43.2,32.93V30a.82.82,0,0,0-.81-.83H34.22a.82.82,0,0,0-.81.83v3.85a.48.48,0,0,0,.49.49h8.81a.49.49,0,0,0,.49-.49h0Z"/><path class="cls-11" d="M39,24v.52a.23.23,0,0,0,.24.23h1.07a.23.23,0,0,0,.24-.23h0V24a.23.23,0,0,0-.24-.23H39.25A.23.23,0,0,0,39,24Z"/><path class="cls-11" d="M36.05,24v.52a.23.23,0,0,0,.24.23h1.07a.23.23,0,0,0,.24-.23h0V24a.23.23,0,0,0-.24-.23H36.29a.23.23,0,0,0-.24.23Z"/><path class="cls-12" d="M34.19,30a.17.17,0,0,0,0,.34h8.23a.17.17,0,0,0,0-.34Z"/><path class="cls-12" d="M34.19,30.66a.16.16,0,0,0-.16.17.16.16,0,0,0,.16.16h8.23a.16.16,0,0,0,.16-.16.16.16,0,0,0-.16-.17Z"/><path class="cls-12" d="M34.19,31.3a.16.16,0,0,0-.16.16.17.17,0,0,0,.16.17h8.23a.17.17,0,0,0,.16-.17.16.16,0,0,0-.16-.16Z"/><path class="cls-6" d="M45,23.6v49a.41.41,0,0,0,.41.41h9a.41.41,0,0,0,.41-.41v-49a.41.41,0,0,0-.41-.41h-9A.41.41,0,0,0,45,23.6Z"/><path class="cls-7" d="M52.29,64.19l1.45-4.34a.15.15,0,0,0,0-.16L52.25,58.2a.16.16,0,0,0-.22,0h0l-1.46,1.49a.15.15,0,0,0,0,.16L52,64.19a.16.16,0,0,0,.2.1A.17.17,0,0,0,52.29,64.19Z"/><path class="cls-7" d="M47.81,64.19l1.45-4.34a.15.15,0,0,0,0-.16L47.77,58.2a.16.16,0,0,0-.22,0h0l-1.46,1.49a.15.15,0,0,0,0,.16l1.45,4.34a.16.16,0,0,0,.2.1A.17.17,0,0,0,47.81,64.19Z"/><path class="cls-7" d="M52.29,42.87l1.45-4.34a.15.15,0,0,0,0-.16l-1.46-1.48a.16.16,0,0,0-.22,0h0l-1.46,1.48a.15.15,0,0,0,0,.16L52,42.87a.16.16,0,0,0,.2.1A.14.14,0,0,0,52.29,42.87Z"/><path class="cls-7" d="M47.81,42.87l1.45-4.34a.15.15,0,0,0,0-.16l-1.46-1.48a.16.16,0,0,0-.22,0h0l-1.46,1.48a.15.15,0,0,0,0,.16l1.45,4.34a.16.16,0,0,0,.2.1A.14.14,0,0,0,47.81,42.87Z"/><path class="cls-7" d="M48.33,45.47,49.79,47A.16.16,0,0,0,50,47h0l1.46-1.48a.16.16,0,0,0,0-.16L50.05,41a.15.15,0,0,0-.2-.1.14.14,0,0,0-.1.1L48.3,45.31A.16.16,0,0,0,48.33,45.47Z"/><path class="cls-7" d="M52.29,53.53l1.45-4.34a.15.15,0,0,0,0-.16l-1.46-1.48a.16.16,0,0,0-.22,0h0L50.57,49a.15.15,0,0,0,0,.16L52,53.53a.16.16,0,0,0,.2.1A.17.17,0,0,0,52.29,53.53Z"/><path class="cls-7" d="M48.33,56.13l1.46,1.48a.16.16,0,0,0,.22,0h0l1.46-1.48a.16.16,0,0,0,0-.16l-1.45-4.35a.16.16,0,0,0-.2-.09.15.15,0,0,0-.1.09L48.3,56A.16.16,0,0,0,48.33,56.13Z"/><path class="cls-7" d="M47.81,53.53l1.45-4.34a.15.15,0,0,0,0-.16l-1.46-1.48a.16.16,0,0,0-.22,0h0L46.09,49a.15.15,0,0,0,0,.16l1.45,4.34a.16.16,0,0,0,.2.1A.17.17,0,0,0,47.81,53.53Z"/><rect class="cls-8" x="45" y="25.44" width="9.8" height="9.1"/><path class="cls-9" d="M46.63,71.5h6.6a.13.13,0,0,0,.13-.13h0V65.45a.12.12,0,0,0-.13-.12h-6.6a.12.12,0,0,0-.13.12v5.92A.13.13,0,0,0,46.63,71.5Z"/><path class="cls-10" d="M54.8,32.93V30a.83.83,0,0,0-.82-.83H45.82A.83.83,0,0,0,45,30v3.85a.49.49,0,0,0,.49.49h8.82a.49.49,0,0,0,.49-.49h0Z"/><path class="cls-11" d="M50.6,24v.52a.24.24,0,0,0,.25.23h1.06a.24.24,0,0,0,.25-.23h0V24a.24.24,0,0,0-.25-.23H50.85A.24.24,0,0,0,50.6,24Z"/><path class="cls-11" d="M47.64,24v.52a.24.24,0,0,0,.25.23H49a.24.24,0,0,0,.25-.23h0V24A.24.24,0,0,0,49,23.8H47.89a.24.24,0,0,0-.25.23Z"/><path class="cls-12" d="M45.78,30a.17.17,0,0,0,0,.34H54A.17.17,0,0,0,54,30Z"/><path class="cls-12" d="M45.78,30.66a.16.16,0,0,0-.16.17.16.16,0,0,0,.16.16H54a.16.16,0,0,0,.17-.16.16.16,0,0,0-.17-.17Z"/><path class="cls-12" d="M45.78,31.3a.16.16,0,0,0-.16.16.17.17,0,0,0,.16.17H54a.17.17,0,0,0,.17-.17A.16.16,0,0,0,54,31.3Z"/><path class="cls-6" d="M56.6,23.6v49A.41.41,0,0,0,57,73h9a.41.41,0,0,0,.4-.41v-49a.4.4,0,0,0-.4-.41H57A.4.4,0,0,0,56.6,23.6Z"/><path class="cls-7" d="M63.88,64.19l1.46-4.34a.16.16,0,0,0,0-.16L63.85,58.2a.16.16,0,0,0-.22,0h0l-1.45,1.49a.16.16,0,0,0,0,.16l1.46,4.34a.15.15,0,0,0,.19.1A.14.14,0,0,0,63.88,64.19Z"/><path class="cls-7" d="M59.4,64.19l1.46-4.34a.16.16,0,0,0,0-.16L59.37,58.2a.16.16,0,0,0-.22,0h0l-1.46,1.49a.16.16,0,0,0,0,.16l1.46,4.34a.16.16,0,0,0,.2.1A.15.15,0,0,0,59.4,64.19Z"/><path class="cls-7" d="M63.88,42.87l1.46-4.34a.16.16,0,0,0,0-.16l-1.45-1.48a.16.16,0,0,0-.22,0h0l-1.45,1.48a.16.16,0,0,0,0,.16l1.46,4.34a.15.15,0,0,0,.19.1A.13.13,0,0,0,63.88,42.87Z"/><path class="cls-7" d="M59.4,42.87l1.46-4.34a.16.16,0,0,0,0-.16l-1.45-1.48a.16.16,0,0,0-.22,0h0l-1.46,1.48a.16.16,0,0,0,0,.16l1.46,4.34a.16.16,0,0,0,.2.1A.13.13,0,0,0,59.4,42.87Z"/><path class="cls-7" d="M59.93,45.47,61.38,47a.16.16,0,0,0,.22,0h0l1.45-1.48a.16.16,0,0,0,0-.16L61.64,41a.14.14,0,0,0-.19-.1.13.13,0,0,0-.1.1l-1.46,4.34A.16.16,0,0,0,59.93,45.47Z"/><path class="cls-7" d="M63.88,53.53l1.46-4.34a.16.16,0,0,0,0-.16l-1.45-1.48a.16.16,0,0,0-.22,0h0L62.17,49a.16.16,0,0,0,0,.16l1.46,4.34a.15.15,0,0,0,.19.1A.14.14,0,0,0,63.88,53.53Z"/><path class="cls-7" d="M59.93,56.13l1.45,1.48a.16.16,0,0,0,.22,0h0l1.45-1.48a.17.17,0,0,0,0-.16l-1.46-4.35a.14.14,0,0,0-.19-.09.13.13,0,0,0-.1.09L59.89,56A.17.17,0,0,0,59.93,56.13Z"/><path class="cls-7" d="M59.4,53.53l1.46-4.34a.16.16,0,0,0,0-.16l-1.45-1.48a.16.16,0,0,0-.22,0h0L57.69,49a.16.16,0,0,0,0,.16l1.46,4.34a.16.16,0,0,0,.2.1A.15.15,0,0,0,59.4,53.53Z"/><rect class="cls-8" x="56.6" y="25.44" width="9.8" height="9.1"/><path class="cls-9" d="M58.23,71.5h6.6a.13.13,0,0,0,.13-.13h0V65.45a.12.12,0,0,0-.13-.12h-6.6a.12.12,0,0,0-.13.12v5.92A.13.13,0,0,0,58.23,71.5Z"/><path class="cls-10" d="M66.39,32.93V30a.82.82,0,0,0-.81-.83H57.41a.82.82,0,0,0-.81.83v3.85a.49.49,0,0,0,.49.49H65.9a.48.48,0,0,0,.49-.49h0Z"/><path class="cls-11" d="M62.2,24v.52a.23.23,0,0,0,.24.23h1.07a.23.23,0,0,0,.24-.23h0V24a.23.23,0,0,0-.24-.23H62.44A.23.23,0,0,0,62.2,24Z"/><path class="cls-11" d="M59.24,24v.52a.23.23,0,0,0,.24.23h1.07a.23.23,0,0,0,.24-.23h0V24a.23.23,0,0,0-.24-.23H59.49a.24.24,0,0,0-.25.23Z"/><path class="cls-12" d="M57.38,30a.17.17,0,0,0,0,.34h8.23a.17.17,0,0,0,0-.34Z"/><path class="cls-12" d="M57.38,30.66a.16.16,0,0,0-.16.17.16.16,0,0,0,.16.16h8.23a.16.16,0,0,0,.16-.16.16.16,0,0,0-.16-.17Z"/><path class="cls-12" d="M57.38,31.3a.16.16,0,0,0-.16.16.17.17,0,0,0,.16.17h8.23a.17.17,0,0,0,.16-.17.16.16,0,0,0-.16-.16Z"/><path class="cls-6" d="M68.19,23.6v49a.42.42,0,0,0,.41.41h9a.41.41,0,0,0,.41-.41v-49a.41.41,0,0,0-.41-.41h-9A.41.41,0,0,0,68.19,23.6Z"/><path class="cls-7" d="M75.48,64.19l1.45-4.34a.15.15,0,0,0,0-.16L75.44,58.2a.16.16,0,0,0-.22,0h0l-1.46,1.49a.15.15,0,0,0,0,.16l1.45,4.34a.16.16,0,0,0,.2.1A.17.17,0,0,0,75.48,64.19Z"/><path class="cls-7" d="M71,64.19l1.45-4.34a.15.15,0,0,0,0-.16L71,58.2a.16.16,0,0,0-.22,0h0l-1.45,1.49a.14.14,0,0,0,0,.16l1.45,4.34a.16.16,0,0,0,.2.1A.17.17,0,0,0,71,64.19Z"/><path class="cls-7" d="M75.48,42.87l1.45-4.34a.15.15,0,0,0,0-.16l-1.46-1.48a.16.16,0,0,0-.22,0h0l-1.46,1.48a.15.15,0,0,0,0,.16l1.45,4.34a.16.16,0,0,0,.2.1A.14.14,0,0,0,75.48,42.87Z"/><path class="cls-7" d="M71,42.87l1.45-4.34a.15.15,0,0,0,0-.16L71,36.89a.16.16,0,0,0-.22,0h0l-1.45,1.48a.14.14,0,0,0,0,.16l1.45,4.34a.16.16,0,0,0,.2.1A.14.14,0,0,0,71,42.87Z"/><path class="cls-7" d="M71.52,45.47,73,47a.16.16,0,0,0,.22,0h0l1.46-1.48a.16.16,0,0,0,0-.16L73.24,41a.15.15,0,0,0-.2-.1.16.16,0,0,0-.1.1l-1.45,4.34A.16.16,0,0,0,71.52,45.47Z"/><path class="cls-7" d="M75.48,53.53l1.45-4.34a.15.15,0,0,0,0-.16l-1.46-1.48a.16.16,0,0,0-.22,0h0L73.76,49a.15.15,0,0,0,0,.16l1.45,4.34a.16.16,0,0,0,.2.1A.17.17,0,0,0,75.48,53.53Z"/><path class="cls-7" d="M71.52,56.13,73,57.61a.16.16,0,0,0,.22,0h0l1.46-1.48a.16.16,0,0,0,0-.16l-1.45-4.35a.16.16,0,0,0-.2-.09.18.18,0,0,0-.1.09L71.49,56A.16.16,0,0,0,71.52,56.13Z"/><path class="cls-7" d="M71,53.53l1.45-4.34a.15.15,0,0,0,0-.16L71,47.55a.16.16,0,0,0-.22,0h0L69.29,49a.14.14,0,0,0,0,.16l1.45,4.34a.16.16,0,0,0,.2.1A.17.17,0,0,0,71,53.53Z"/><rect class="cls-8" x="68.19" y="25.44" width="9.8" height="9.1"/><path class="cls-9" d="M69.82,71.5h6.6a.13.13,0,0,0,.13-.13h0V65.45a.12.12,0,0,0-.13-.12h-6.6a.12.12,0,0,0-.13.12v5.92A.13.13,0,0,0,69.82,71.5Z"/><path class="cls-10" d="M78,32.93V30a.83.83,0,0,0-.82-.83H69a.83.83,0,0,0-.82.83v3.85a.49.49,0,0,0,.49.49H77.5a.49.49,0,0,0,.49-.49h0Z"/><path class="cls-11" d="M73.8,24v.52a.23.23,0,0,0,.24.23H75.1a.24.24,0,0,0,.25-.23h0V24a.24.24,0,0,0-.25-.23H74A.23.23,0,0,0,73.8,24Z"/><path class="cls-11" d="M70.84,24v.52a.23.23,0,0,0,.24.23h1.06a.24.24,0,0,0,.25-.23h0V24a.24.24,0,0,0-.25-.23H71.08a.23.23,0,0,0-.24.23Z"/><path class="cls-12" d="M69,30a.17.17,0,0,0,0,.34h8.23a.17.17,0,0,0,0-.34Z"/><path class="cls-12" d="M69,30.66a.17.17,0,0,0-.17.17A.17.17,0,0,0,69,31h8.23a.16.16,0,0,0,.16-.16.16.16,0,0,0-.16-.17Z"/><path class="cls-12" d="M69,31.3a.17.17,0,0,0-.17.16.18.18,0,0,0,.17.17h8.23a.17.17,0,0,0,.16-.17.16.16,0,0,0-.16-.16Z"/><path class="cls-6" d="M79.79,23.6v49a.41.41,0,0,0,.41.41h9a.42.42,0,0,0,.41-.41v-49a.41.41,0,0,0-.41-.41h-9A.41.41,0,0,0,79.79,23.6Z"/><path class="cls-7" d="M87.07,64.19l1.46-4.34a.16.16,0,0,0,0-.16L87,58.2a.16.16,0,0,0-.22,0h0l-1.46,1.49a.18.18,0,0,0,0,.16l1.46,4.34a.16.16,0,0,0,.2.1A.15.15,0,0,0,87.07,64.19Z"/><path class="cls-7" d="M82.59,64.19l1.46-4.34a.16.16,0,0,0,0-.16L82.56,58.2a.16.16,0,0,0-.22,0h0l-1.46,1.49a.18.18,0,0,0,0,.16l1.46,4.34a.16.16,0,0,0,.2.1A.15.15,0,0,0,82.59,64.19Z"/><path class="cls-7" d="M87.07,42.87l1.46-4.34a.16.16,0,0,0,0-.16L87,36.89a.16.16,0,0,0-.22,0h0l-1.46,1.48a.18.18,0,0,0,0,.16l1.46,4.34a.16.16,0,0,0,.2.1A.13.13,0,0,0,87.07,42.87Z"/><path class="cls-7" d="M82.59,42.87l1.46-4.34a.16.16,0,0,0,0-.16l-1.45-1.48a.16.16,0,0,0-.22,0h0l-1.46,1.48a.18.18,0,0,0,0,.16l1.46,4.34a.16.16,0,0,0,.2.1A.13.13,0,0,0,82.59,42.87Z"/><path class="cls-7" d="M83.12,45.47,84.58,47a.16.16,0,0,0,.22,0h0l1.45-1.48a.16.16,0,0,0,0-.16L84.83,41a.14.14,0,0,0-.19-.1.14.14,0,0,0-.1.1l-1.46,4.34A.19.19,0,0,0,83.12,45.47Z"/><path class="cls-7" d="M87.07,53.53l1.46-4.34a.16.16,0,0,0,0-.16L87,47.55a.16.16,0,0,0-.22,0h0L85.36,49a.18.18,0,0,0,0,.16l1.46,4.34a.16.16,0,0,0,.2.1A.15.15,0,0,0,87.07,53.53Z"/><path class="cls-7" d="M83.12,56.13l1.46,1.48a.16.16,0,0,0,.22,0h0l1.45-1.48a.17.17,0,0,0,0-.16l-1.46-4.35a.14.14,0,0,0-.19-.09.15.15,0,0,0-.1.09L83.08,56A.2.2,0,0,0,83.12,56.13Z"/><path class="cls-7" d="M82.59,53.53l1.46-4.34A.16.16,0,0,0,84,49l-1.45-1.48a.16.16,0,0,0-.22,0h0L80.88,49a.18.18,0,0,0,0,.16l1.46,4.34a.16.16,0,0,0,.2.1A.15.15,0,0,0,82.59,53.53Z"/><rect class="cls-8" x="79.79" y="25.44" width="9.8" height="9.1"/><path class="cls-9" d="M81.42,71.5H88a.13.13,0,0,0,.13-.13h0V65.45a.12.12,0,0,0-.13-.12h-6.6a.12.12,0,0,0-.13.12v5.92A.13.13,0,0,0,81.42,71.5Z"/><path class="cls-10" d="M89.59,32.93V30a.83.83,0,0,0-.82-.83H80.6a.82.82,0,0,0-.81.83v3.85a.49.49,0,0,0,.49.49H89.1a.49.49,0,0,0,.49-.49h0Z"/><path class="cls-11" d="M85.39,24v.52a.24.24,0,0,0,.25.23H86.7a.23.23,0,0,0,.24-.23h0V24a.23.23,0,0,0-.24-.23H85.64A.24.24,0,0,0,85.39,24Z"/><path class="cls-11" d="M82.43,24v.52a.24.24,0,0,0,.25.23h1.06a.23.23,0,0,0,.24-.23h0V24a.23.23,0,0,0-.24-.23H82.68a.24.24,0,0,0-.25.23Z"/><path class="cls-12" d="M80.57,30a.17.17,0,0,0,0,.34H88.8a.17.17,0,0,0,0-.34Z"/><path class="cls-12" d="M80.57,30.66a.16.16,0,0,0-.16.17.16.16,0,0,0,.16.16H88.8a.17.17,0,0,0,.17-.16.17.17,0,0,0-.17-.17Z"/><path class="cls-12" d="M80.57,31.3a.16.16,0,0,0-.16.16.17.17,0,0,0,.16.17H88.8a.18.18,0,0,0,.17-.17.17.17,0,0,0-.17-.16Z"/><path class="cls-6" d="M91.38,23.6v49a.42.42,0,0,0,.41.41h9a.41.41,0,0,0,.41-.41v-49a.41.41,0,0,0-.41-.41h-9A.41.41,0,0,0,91.38,23.6Z"/><path class="cls-7" d="M98.67,64.19l1.45-4.34a.15.15,0,0,0,0-.16L98.63,58.2a.16.16,0,0,0-.22,0h0L97,59.69a.16.16,0,0,0,0,.16l1.46,4.34a.15.15,0,0,0,.19.1A.17.17,0,0,0,98.67,64.19Z"/><path class="cls-7" d="M94.19,64.19l1.46-4.34a.18.18,0,0,0,0-.16L94.15,58.2a.16.16,0,0,0-.22,0h0l-1.45,1.49a.16.16,0,0,0,0,.16l1.46,4.34a.15.15,0,0,0,.19.1A.17.17,0,0,0,94.19,64.19Z"/><path class="cls-7" d="M98.67,42.87l1.45-4.34a.15.15,0,0,0,0-.16l-1.46-1.48a.16.16,0,0,0-.22,0h0L97,38.37a.16.16,0,0,0,0,.16l1.46,4.34a.15.15,0,0,0,.19.1A.14.14,0,0,0,98.67,42.87Z"/><path class="cls-7" d="M94.19,42.87l1.46-4.34a.18.18,0,0,0,0-.16l-1.46-1.48a.16.16,0,0,0-.22,0h0l-1.45,1.48a.16.16,0,0,0,0,.16l1.46,4.34a.15.15,0,0,0,.19.1A.14.14,0,0,0,94.19,42.87Z"/><path class="cls-7" d="M94.72,45.47,96.17,47a.16.16,0,0,0,.22,0h0l1.46-1.48a.19.19,0,0,0,0-.16L96.43,41a.15.15,0,0,0-.2-.1.13.13,0,0,0-.09.1l-1.46,4.34A.16.16,0,0,0,94.72,45.47Z"/><path class="cls-7" d="M98.67,53.53l1.45-4.34a.15.15,0,0,0,0-.16l-1.46-1.48a.16.16,0,0,0-.22,0h0L97,49a.16.16,0,0,0,0,.16l1.46,4.34a.15.15,0,0,0,.19.1A.17.17,0,0,0,98.67,53.53Z"/><path class="cls-7" d="M94.72,56.13l1.45,1.48a.16.16,0,0,0,.22,0h0l1.46-1.48a.2.2,0,0,0,0-.16l-1.46-4.35a.16.16,0,0,0-.2-.09.14.14,0,0,0-.09.09L94.68,56A.17.17,0,0,0,94.72,56.13Z"/><path class="cls-7" d="M94.19,53.53l1.46-4.34a.18.18,0,0,0,0-.16l-1.46-1.48a.16.16,0,0,0-.22,0h0L92.48,49a.16.16,0,0,0,0,.16l1.46,4.34a.15.15,0,0,0,.19.1A.17.17,0,0,0,94.19,53.53Z"/><rect class="cls-8" x="91.38" y="25.44" width="9.8" height="9.1"/><path class="cls-9" d="M93,71.5h6.6a.12.12,0,0,0,.13-.13h0V65.45a.12.12,0,0,0-.13-.12H93a.12.12,0,0,0-.13.12v5.92A.13.13,0,0,0,93,71.5Z"/><path class="cls-10" d="M101.18,32.93V30a.82.82,0,0,0-.82-.83H92.2a.83.83,0,0,0-.82.83v3.85a.49.49,0,0,0,.49.49h8.82a.49.49,0,0,0,.49-.49h0Z"/><path class="cls-11" d="M97,24v.52a.23.23,0,0,0,.24.23h1.06a.24.24,0,0,0,.25-.23h0V24a.24.24,0,0,0-.25-.23H97.23A.23.23,0,0,0,97,24Z"/><path class="cls-11" d="M94,24v.52a.23.23,0,0,0,.24.23h1.06a.24.24,0,0,0,.25-.23h0V24a.24.24,0,0,0-.25-.23H94.27A.23.23,0,0,0,94,24Z"/><path class="cls-12" d="M92.17,30a.17.17,0,0,0,0,.34h8.23a.17.17,0,0,0,0-.34Z"/><path class="cls-12" d="M92.17,30.66a.17.17,0,0,0-.17.17.17.17,0,0,0,.17.16h8.23a.16.16,0,0,0,.16-.16.16.16,0,0,0-.16-.17Z"/><path class="cls-12" d="M92.17,31.3a.17.17,0,0,0-.17.16.18.18,0,0,0,.17.17h8.23a.17.17,0,0,0,.16-.17.16.16,0,0,0-.16-.16Z"/><path class="cls-6" d="M103,23.6v49a.41.41,0,0,0,.41.41h9a.42.42,0,0,0,.41-.41v-49a.41.41,0,0,0-.41-.41h-9A.41.41,0,0,0,103,23.6Z"/><path class="cls-7" d="M110.26,64.19l1.46-4.34a.14.14,0,0,0,0-.16l-1.45-1.49a.16.16,0,0,0-.22,0h0l-1.46,1.49a.15.15,0,0,0,0,.16L110,64.19a.16.16,0,0,0,.2.1A.15.15,0,0,0,110.26,64.19Z"/><path class="cls-7" d="M105.79,64.19l1.45-4.34a.14.14,0,0,0,0-.16l-1.45-1.49a.16.16,0,0,0-.22,0h0l-1.46,1.49a.15.15,0,0,0,0,.16l1.45,4.34a.16.16,0,0,0,.2.1A.19.19,0,0,0,105.79,64.19Z"/><path class="cls-7" d="M110.26,42.87l1.46-4.34a.14.14,0,0,0,0-.16l-1.45-1.48a.16.16,0,0,0-.22,0h0l-1.46,1.48a.15.15,0,0,0,0,.16L110,42.87a.16.16,0,0,0,.2.1A.13.13,0,0,0,110.26,42.87Z"/><path class="cls-7" d="M105.79,42.87l1.45-4.34a.14.14,0,0,0,0-.16l-1.45-1.48a.16.16,0,0,0-.22,0h0l-1.46,1.48a.15.15,0,0,0,0,.16l1.45,4.34a.16.16,0,0,0,.2.1A.16.16,0,0,0,105.79,42.87Z"/><path class="cls-7" d="M106.31,45.47,107.77,47a.16.16,0,0,0,.22,0h0l1.45-1.48a.14.14,0,0,0,0-.16L108,41a.15.15,0,0,0-.2-.1.14.14,0,0,0-.1.1l-1.45,4.34A.16.16,0,0,0,106.31,45.47Z"/><path class="cls-7" d="M110.26,53.53l1.46-4.34a.14.14,0,0,0,0-.16l-1.45-1.48a.16.16,0,0,0-.22,0h0L108.55,49a.15.15,0,0,0,0,.16L110,53.53a.16.16,0,0,0,.2.1A.15.15,0,0,0,110.26,53.53Z"/><path class="cls-7" d="M106.31,56.13l1.46,1.48a.16.16,0,0,0,.22,0h0l1.45-1.48a.15.15,0,0,0,0-.16L108,51.62a.16.16,0,0,0-.2-.09.15.15,0,0,0-.1.09L106.28,56A.16.16,0,0,0,106.31,56.13Z"/><path class="cls-7" d="M105.79,53.53l1.45-4.34a.14.14,0,0,0,0-.16l-1.45-1.48a.16.16,0,0,0-.22,0h0L104.07,49a.15.15,0,0,0,0,.16l1.45,4.34a.16.16,0,0,0,.2.1A.19.19,0,0,0,105.79,53.53Z"/><rect class="cls-8" x="102.98" y="25.44" width="9.8" height="9.1"/><path class="cls-9" d="M104.61,71.5h6.6a.13.13,0,0,0,.13-.13h0V65.45a.12.12,0,0,0-.13-.12h-6.6a.12.12,0,0,0-.13.12v5.92A.13.13,0,0,0,104.61,71.5Z"/><path class="cls-10" d="M112.78,32.93V30a.83.83,0,0,0-.82-.83H103.8A.82.82,0,0,0,103,30v3.85a.49.49,0,0,0,.49.49h8.82a.49.49,0,0,0,.49-.49h0Z"/><path class="cls-11" d="M108.58,24v.52a.24.24,0,0,0,.25.23h1.06a.23.23,0,0,0,.24-.23h0V24a.23.23,0,0,0-.24-.23h-1.06A.24.24,0,0,0,108.58,24Z"/><path class="cls-11" d="M105.62,24v.52a.24.24,0,0,0,.25.23h1.06a.23.23,0,0,0,.24-.23h0V24a.23.23,0,0,0-.24-.23h-1.06a.24.24,0,0,0-.25.23Z"/><path class="cls-12" d="M103.76,30a.17.17,0,0,0,0,.34H112a.17.17,0,1,0,0-.34Z"/><path class="cls-12" d="M103.76,30.66a.16.16,0,0,0-.16.17.16.16,0,0,0,.16.16H112a.17.17,0,0,0,.17-.16.17.17,0,0,0-.17-.17Z"/><path class="cls-12" d="M103.76,31.3a.16.16,0,0,0-.16.16.17.17,0,0,0,.16.17H112a.18.18,0,0,0,.17-.17.17.17,0,0,0-.17-.16Z"/><path class="cls-6" d="M115.23,23.6v49a.41.41,0,0,0,.4.41h9a.41.41,0,0,0,.4-.41v-49a.4.4,0,0,0-.4-.41h-9A.4.4,0,0,0,115.23,23.6Z"/><path class="cls-7" d="M122.51,64.19,124,59.85a.16.16,0,0,0,0-.16l-1.45-1.49a.16.16,0,0,0-.22,0h0l-1.45,1.49a.16.16,0,0,0,0,.16l1.46,4.34a.15.15,0,0,0,.19.1A.14.14,0,0,0,122.51,64.19Z"/><path class="cls-7" d="M118,64.19l1.46-4.34a.16.16,0,0,0,0-.16L118,58.2a.16.16,0,0,0-.22,0h0l-1.45,1.49a.16.16,0,0,0,0,.16l1.46,4.34a.15.15,0,0,0,.19.1A.14.14,0,0,0,118,64.19Z"/><path class="cls-7" d="M122.51,42.87,124,38.53a.16.16,0,0,0,0-.16l-1.45-1.48a.16.16,0,0,0-.22,0h0l-1.45,1.48a.16.16,0,0,0,0,.16l1.46,4.34a.15.15,0,0,0,.19.1A.13.13,0,0,0,122.51,42.87Z"/><path class="cls-7" d="M118,42.87l1.46-4.34a.16.16,0,0,0,0-.16L118,36.89a.16.16,0,0,0-.22,0h0l-1.45,1.48a.16.16,0,0,0,0,.16l1.46,4.34a.15.15,0,0,0,.19.1A.13.13,0,0,0,118,42.87Z"/><path class="cls-7" d="M118.56,45.47,120,47a.16.16,0,0,0,.22,0h0l1.45-1.48a.16.16,0,0,0,0-.16L120.27,41a.14.14,0,0,0-.19-.1.13.13,0,0,0-.1.1l-1.46,4.34A.16.16,0,0,0,118.56,45.47Z"/><path class="cls-7" d="M122.51,53.53,124,49.19a.16.16,0,0,0,0-.16l-1.45-1.48a.16.16,0,0,0-.22,0h0L120.8,49a.16.16,0,0,0,0,.16l1.46,4.34a.15.15,0,0,0,.19.1A.14.14,0,0,0,122.51,53.53Z"/><path class="cls-7" d="M118.56,56.13,120,57.61a.16.16,0,0,0,.22,0h0l1.45-1.48a.17.17,0,0,0,0-.16l-1.46-4.35a.14.14,0,0,0-.19-.09.13.13,0,0,0-.1.09L118.52,56A.17.17,0,0,0,118.56,56.13Z"/><path class="cls-7" d="M118,53.53l1.46-4.34a.16.16,0,0,0,0-.16L118,47.55a.16.16,0,0,0-.22,0h0L116.32,49a.16.16,0,0,0,0,.16l1.46,4.34a.15.15,0,0,0,.19.1A.14.14,0,0,0,118,53.53Z"/><rect class="cls-8" x="115.23" y="25.44" width="9.8" height="9.1"/><path class="cls-9" d="M116.85,71.5h6.61a.12.12,0,0,0,.12-.13h0V65.45a.12.12,0,0,0-.12-.12h-6.61a.12.12,0,0,0-.12.12v5.92A.12.12,0,0,0,116.85,71.5Z"/><path class="cls-10" d="M125,32.93V30a.82.82,0,0,0-.81-.83H116a.82.82,0,0,0-.81.83v3.85a.48.48,0,0,0,.49.49h8.81a.49.49,0,0,0,.49-.49h0Z"/><path class="cls-11" d="M120.83,24v.52a.23.23,0,0,0,.24.23h1.07a.23.23,0,0,0,.24-.23h0V24a.23.23,0,0,0-.24-.23h-1.07A.23.23,0,0,0,120.83,24Z"/><path class="cls-11" d="M117.87,24v.52a.23.23,0,0,0,.24.23h1.07a.23.23,0,0,0,.24-.23h0V24a.23.23,0,0,0-.24-.23h-1.07a.23.23,0,0,0-.24.23Z"/><path class="cls-12" d="M116,30a.17.17,0,0,0,0,.34h8.23a.17.17,0,0,0,0-.34Z"/><path class="cls-12" d="M116,30.66a.16.16,0,0,0-.16.17A.16.16,0,0,0,116,31h8.23a.16.16,0,0,0,.16-.16.16.16,0,0,0-.16-.17Z"/><path class="cls-12" d="M116,31.3a.16.16,0,0,0-.16.16.17.17,0,0,0,.16.17h8.23a.17.17,0,0,0,.16-.17.16.16,0,0,0-.16-.16Z"/><path class="cls-6" d="M126.82,23.6v49a.41.41,0,0,0,.41.41h9a.41.41,0,0,0,.41-.41v-49a.41.41,0,0,0-.41-.41h-9A.41.41,0,0,0,126.82,23.6Z"/><path class="cls-7" d="M134.11,64.19l1.45-4.34a.15.15,0,0,0,0-.16l-1.46-1.49a.16.16,0,0,0-.22,0h0l-1.46,1.49a.15.15,0,0,0,0,.16l1.45,4.34a.16.16,0,0,0,.2.1A.17.17,0,0,0,134.11,64.19Z"/><path class="cls-7" d="M129.63,64.19l1.45-4.34a.15.15,0,0,0,0-.16l-1.46-1.49a.16.16,0,0,0-.22,0h0l-1.46,1.49a.15.15,0,0,0,0,.16l1.45,4.34a.16.16,0,0,0,.2.1A.17.17,0,0,0,129.63,64.19Z"/><path class="cls-7" d="M134.11,42.87l1.45-4.34a.15.15,0,0,0,0-.16l-1.46-1.48a.16.16,0,0,0-.22,0h0l-1.46,1.48a.15.15,0,0,0,0,.16l1.45,4.34a.16.16,0,0,0,.2.1A.14.14,0,0,0,134.11,42.87Z"/><path class="cls-7" d="M129.63,42.87l1.45-4.34a.15.15,0,0,0,0-.16l-1.46-1.48a.16.16,0,0,0-.22,0h0l-1.46,1.48a.15.15,0,0,0,0,.16l1.45,4.34a.16.16,0,0,0,.2.1A.14.14,0,0,0,129.63,42.87Z"/><path class="cls-7" d="M130.15,45.47,131.61,47a.16.16,0,0,0,.22,0h0l1.46-1.48a.16.16,0,0,0,0-.16L131.87,41a.15.15,0,0,0-.2-.1.14.14,0,0,0-.1.1l-1.45,4.34A.16.16,0,0,0,130.15,45.47Z"/><path class="cls-7" d="M134.11,53.53l1.45-4.34a.15.15,0,0,0,0-.16l-1.46-1.48a.16.16,0,0,0-.22,0h0L132.39,49a.15.15,0,0,0,0,.16l1.45,4.34a.16.16,0,0,0,.2.1A.17.17,0,0,0,134.11,53.53Z"/><path class="cls-7" d="M130.15,56.13l1.46,1.48a.16.16,0,0,0,.22,0h0l1.46-1.48a.16.16,0,0,0,0-.16l-1.45-4.35a.16.16,0,0,0-.2-.09.15.15,0,0,0-.1.09L130.12,56A.16.16,0,0,0,130.15,56.13Z"/><path class="cls-7" d="M129.63,53.53l1.45-4.34a.15.15,0,0,0,0-.16l-1.46-1.48a.16.16,0,0,0-.22,0h0L127.91,49a.15.15,0,0,0,0,.16l1.45,4.34a.16.16,0,0,0,.2.1A.17.17,0,0,0,129.63,53.53Z"/><rect class="cls-8" x="126.82" y="25.44" width="9.8" height="9.1"/><path class="cls-9" d="M128.45,71.5h6.6a.13.13,0,0,0,.13-.13h0V65.45a.12.12,0,0,0-.13-.12h-6.6a.12.12,0,0,0-.13.12v5.92A.13.13,0,0,0,128.45,71.5Z"/><path class="cls-10" d="M136.62,32.93V30a.83.83,0,0,0-.82-.83h-8.16a.83.83,0,0,0-.82.83v3.85a.49.49,0,0,0,.49.49h8.82a.49.49,0,0,0,.49-.49h0Z"/><path class="cls-11" d="M132.42,24v.52a.24.24,0,0,0,.25.23h1.06a.24.24,0,0,0,.25-.23h0V24a.24.24,0,0,0-.25-.23h-1.06A.24.24,0,0,0,132.42,24Z"/><path class="cls-11" d="M129.46,24v.52a.24.24,0,0,0,.25.23h1.06a.24.24,0,0,0,.25-.23h0V24a.24.24,0,0,0-.25-.23h-1.06a.24.24,0,0,0-.25.23Z"/><path class="cls-12" d="M127.61,30a.17.17,0,1,0,0,.34h8.23a.17.17,0,0,0,0-.34Z"/><path class="cls-12" d="M127.61,30.66a.16.16,0,0,0-.17.17.16.16,0,0,0,.17.16h8.23a.16.16,0,0,0,.16-.16.16.16,0,0,0-.16-.17Z"/><path class="cls-12" d="M127.61,31.3a.16.16,0,0,0-.17.16.17.17,0,0,0,.17.17h8.23a.17.17,0,0,0,.16-.17.16.16,0,0,0-.16-.16Z"/><path class="cls-6" d="M138.42,23.6v49a.41.41,0,0,0,.41.41h9a.41.41,0,0,0,.4-.41v-49a.4.4,0,0,0-.4-.41h-9A.41.41,0,0,0,138.42,23.6Z"/><path class="cls-7" d="M145.7,64.19l1.46-4.34a.16.16,0,0,0,0-.16l-1.45-1.49a.16.16,0,0,0-.22,0h0L144,59.69a.16.16,0,0,0,0,.16l1.46,4.34a.15.15,0,0,0,.19.1A.14.14,0,0,0,145.7,64.19Z"/><path class="cls-7" d="M141.22,64.19l1.46-4.34a.16.16,0,0,0,0-.16l-1.45-1.49a.16.16,0,0,0-.22,0h0l-1.46,1.49a.16.16,0,0,0,0,.16l1.46,4.34a.16.16,0,0,0,.2.1A.15.15,0,0,0,141.22,64.19Z"/><path class="cls-7" d="M145.7,42.87l1.46-4.34a.16.16,0,0,0,0-.16l-1.45-1.48a.16.16,0,0,0-.22,0h0L144,38.37a.16.16,0,0,0,0,.16l1.46,4.34a.15.15,0,0,0,.19.1A.13.13,0,0,0,145.7,42.87Z"/><path class="cls-7" d="M141.22,42.87l1.46-4.34a.16.16,0,0,0,0-.16l-1.45-1.48a.16.16,0,0,0-.22,0h0l-1.46,1.48a.16.16,0,0,0,0,.16l1.46,4.34a.16.16,0,0,0,.2.1A.13.13,0,0,0,141.22,42.87Z"/><path class="cls-7" d="M141.75,45.47,143.21,47a.14.14,0,0,0,.21,0h0l1.45-1.48a.16.16,0,0,0,0-.16L143.46,41a.14.14,0,0,0-.19-.1.13.13,0,0,0-.1.1l-1.46,4.34A.16.16,0,0,0,141.75,45.47Z"/><path class="cls-7" d="M145.7,53.53l1.46-4.34a.16.16,0,0,0,0-.16l-1.45-1.48a.16.16,0,0,0-.22,0h0L144,49a.16.16,0,0,0,0,.16l1.46,4.34a.15.15,0,0,0,.19.1A.14.14,0,0,0,145.7,53.53Z"/><path class="cls-7" d="M141.75,56.13l1.46,1.48a.14.14,0,0,0,.21,0h0l1.45-1.48a.17.17,0,0,0,0-.16l-1.46-4.35a.14.14,0,0,0-.19-.09.13.13,0,0,0-.1.09L141.71,56A.17.17,0,0,0,141.75,56.13Z"/><path class="cls-7" d="M141.22,53.53l1.46-4.34a.16.16,0,0,0,0-.16l-1.45-1.48a.16.16,0,0,0-.22,0h0L139.51,49a.16.16,0,0,0,0,.16l1.46,4.34a.16.16,0,0,0,.2.1A.15.15,0,0,0,141.22,53.53Z"/><rect class="cls-8" x="138.42" y="25.44" width="9.8" height="9.1"/><path class="cls-9" d="M140.05,71.5h6.6a.13.13,0,0,0,.13-.13h0V65.45a.12.12,0,0,0-.13-.12h-6.6a.12.12,0,0,0-.13.12v5.92A.13.13,0,0,0,140.05,71.5Z"/><path class="cls-10" d="M148.21,32.93V30a.82.82,0,0,0-.81-.83h-8.17a.82.82,0,0,0-.81.83v3.85a.49.49,0,0,0,.49.49h8.81a.48.48,0,0,0,.49-.49h0Z"/><path class="cls-11" d="M144,24v.52a.23.23,0,0,0,.24.23h1.07a.23.23,0,0,0,.24-.23h0V24a.23.23,0,0,0-.24-.23h-1.07A.23.23,0,0,0,144,24Z"/><path class="cls-11" d="M141.06,24v.52a.24.24,0,0,0,.25.23h1.06a.23.23,0,0,0,.24-.23h0V24a.23.23,0,0,0-.24-.23h-1.06a.24.24,0,0,0-.25.23Z"/><path class="cls-12" d="M139.2,30a.17.17,0,0,0,0,.34h8.23a.17.17,0,0,0,0-.34Z"/><path class="cls-12" d="M139.2,30.66a.16.16,0,0,0-.16.17.16.16,0,0,0,.16.16h8.23a.16.16,0,0,0,.16-.16.16.16,0,0,0-.16-.17Z"/><path class="cls-12" d="M139.2,31.3a.16.16,0,0,0-.16.16.17.17,0,0,0,.16.17h8.23a.17.17,0,0,0,.16-.17.16.16,0,0,0-.16-.16Z"/><path class="cls-6" d="M150,23.6v49a.42.42,0,0,0,.41.41h9a.41.41,0,0,0,.41-.41v-49a.41.41,0,0,0-.41-.41h-9A.41.41,0,0,0,150,23.6Z"/><path class="cls-7" d="M157.3,64.19l1.45-4.34a.15.15,0,0,0,0-.16l-1.46-1.49a.16.16,0,0,0-.22,0h0l-1.46,1.49a.15.15,0,0,0,0,.16L157,64.19a.16.16,0,0,0,.2.1A.17.17,0,0,0,157.3,64.19Z"/><path class="cls-7" d="M152.82,64.19l1.45-4.34a.15.15,0,0,0,0-.16l-1.46-1.49a.16.16,0,0,0-.22,0h0l-1.45,1.49a.14.14,0,0,0,0,.16l1.45,4.34a.16.16,0,0,0,.2.1A.17.17,0,0,0,152.82,64.19Z"/><path class="cls-7" d="M157.3,42.87l1.45-4.34a.15.15,0,0,0,0-.16l-1.46-1.48a.16.16,0,0,0-.22,0h0l-1.46,1.48a.15.15,0,0,0,0,.16L157,42.87a.16.16,0,0,0,.2.1A.14.14,0,0,0,157.3,42.87Z"/><path class="cls-7" d="M152.82,42.87l1.45-4.34a.15.15,0,0,0,0-.16l-1.46-1.48a.16.16,0,0,0-.22,0h0l-1.45,1.48a.14.14,0,0,0,0,.16l1.45,4.34a.16.16,0,0,0,.2.1A.14.14,0,0,0,152.82,42.87Z"/><path class="cls-7" d="M153.35,45.47,154.8,47a.16.16,0,0,0,.22,0h0l1.46-1.48a.16.16,0,0,0,0-.16L155.06,41a.15.15,0,0,0-.2-.1.16.16,0,0,0-.1.1l-1.45,4.34A.14.14,0,0,0,153.35,45.47Z"/><path class="cls-7" d="M157.3,53.53l1.45-4.34a.15.15,0,0,0,0-.16l-1.46-1.48a.16.16,0,0,0-.22,0h0L155.58,49a.15.15,0,0,0,0,.16L157,53.53a.16.16,0,0,0,.2.1A.17.17,0,0,0,157.3,53.53Z"/><path class="cls-7" d="M153.35,56.13l1.45,1.48a.16.16,0,0,0,.22,0h0l1.46-1.48a.16.16,0,0,0,0-.16l-1.45-4.35a.16.16,0,0,0-.2-.09.18.18,0,0,0-.1.09L153.31,56A.15.15,0,0,0,153.35,56.13Z"/><path class="cls-7" d="M152.82,53.53l1.45-4.34a.15.15,0,0,0,0-.16l-1.46-1.48a.16.16,0,0,0-.22,0h0L151.11,49a.14.14,0,0,0,0,.16l1.45,4.34a.16.16,0,0,0,.2.1A.17.17,0,0,0,152.82,53.53Z"/><rect class="cls-8" x="150.01" y="25.44" width="9.8" height="9.1"/><path class="cls-9" d="M151.64,71.5h6.6a.13.13,0,0,0,.13-.13h0V65.45a.12.12,0,0,0-.13-.12h-6.6a.12.12,0,0,0-.13.12v5.92A.13.13,0,0,0,151.64,71.5Z"/><path class="cls-10" d="M159.81,32.93V30a.83.83,0,0,0-.82-.83h-8.16A.83.83,0,0,0,150,30v3.85a.49.49,0,0,0,.49.49h8.82a.49.49,0,0,0,.49-.49h0Z"/><path class="cls-11" d="M155.62,24v.52a.23.23,0,0,0,.24.23h1.06a.24.24,0,0,0,.25-.23h0V24a.24.24,0,0,0-.25-.23h-1.06A.23.23,0,0,0,155.62,24Z"/><path class="cls-11" d="M152.66,24v.52a.23.23,0,0,0,.24.23H154a.24.24,0,0,0,.25-.23h0V24a.24.24,0,0,0-.25-.23H152.9a.23.23,0,0,0-.24.23Z"/><path class="cls-12" d="M150.8,30a.17.17,0,1,0,0,.34H159a.17.17,0,0,0,0-.34Z"/><path class="cls-12" d="M150.8,30.66a.17.17,0,0,0-.17.17.17.17,0,0,0,.17.16H159a.16.16,0,0,0,.16-.16.16.16,0,0,0-.16-.17Z"/><path class="cls-12" d="M150.8,31.3a.17.17,0,0,0-.17.16.18.18,0,0,0,.17.17H159a.17.17,0,0,0,.16-.17.16.16,0,0,0-.16-.16Z"/><path class="cls-6" d="M161.61,23.6v49A.41.41,0,0,0,162,73h9a.42.42,0,0,0,.41-.41v-49a.41.41,0,0,0-.41-.41h-9A.41.41,0,0,0,161.61,23.6Z"/><path class="cls-7" d="M168.89,64.19l1.46-4.34a.16.16,0,0,0,0-.16l-1.45-1.49a.16.16,0,0,0-.22,0h0l-1.46,1.49a.18.18,0,0,0,0,.16l1.46,4.34a.16.16,0,0,0,.2.1A.15.15,0,0,0,168.89,64.19Z"/><path class="cls-7" d="M164.41,64.19l1.46-4.34a.16.16,0,0,0,0-.16l-1.45-1.49a.16.16,0,0,0-.22,0h0l-1.46,1.49a.18.18,0,0,0,0,.16l1.46,4.34a.16.16,0,0,0,.2.1A.15.15,0,0,0,164.41,64.19Z"/><path class="cls-7" d="M168.89,42.87l1.46-4.34a.16.16,0,0,0,0-.16l-1.45-1.48a.16.16,0,0,0-.22,0h0l-1.46,1.48a.18.18,0,0,0,0,.16l1.46,4.34a.16.16,0,0,0,.2.1A.13.13,0,0,0,168.89,42.87Z"/><path class="cls-7" d="M164.41,42.87l1.46-4.34a.16.16,0,0,0,0-.16l-1.45-1.48a.16.16,0,0,0-.22,0h0l-1.46,1.48a.18.18,0,0,0,0,.16l1.46,4.34a.16.16,0,0,0,.2.1A.13.13,0,0,0,164.41,42.87Z"/><path class="cls-7" d="M164.94,45.47,166.4,47a.16.16,0,0,0,.22,0h0l1.45-1.48a.16.16,0,0,0,0-.16L166.65,41a.14.14,0,0,0-.19-.1.14.14,0,0,0-.1.1l-1.46,4.34A.19.19,0,0,0,164.94,45.47Z"/><path class="cls-7" d="M168.89,53.53l1.46-4.34a.16.16,0,0,0,0-.16l-1.45-1.48a.16.16,0,0,0-.22,0h0L167.18,49a.18.18,0,0,0,0,.16l1.46,4.34a.16.16,0,0,0,.2.1A.15.15,0,0,0,168.89,53.53Z"/><path class="cls-7" d="M164.94,56.13l1.46,1.48a.16.16,0,0,0,.22,0h0l1.45-1.48a.17.17,0,0,0,0-.16l-1.46-4.35a.14.14,0,0,0-.19-.09.15.15,0,0,0-.1.09L164.9,56A.2.2,0,0,0,164.94,56.13Z"/><path class="cls-7" d="M164.41,53.53l1.46-4.34a.16.16,0,0,0,0-.16l-1.45-1.48a.16.16,0,0,0-.22,0h0L162.7,49a.18.18,0,0,0,0,.16l1.46,4.34a.16.16,0,0,0,.2.1A.15.15,0,0,0,164.41,53.53Z"/><rect class="cls-8" x="161.61" y="25.44" width="9.8" height="9.1"/><path class="cls-9" d="M163.24,71.5h6.6a.13.13,0,0,0,.13-.13h0V65.45a.12.12,0,0,0-.13-.12h-6.6a.12.12,0,0,0-.13.12v5.92A.13.13,0,0,0,163.24,71.5Z"/><path class="cls-10" d="M171.41,32.93V30a.83.83,0,0,0-.82-.83h-8.17a.82.82,0,0,0-.81.83v3.85a.49.49,0,0,0,.49.49h8.82a.49.49,0,0,0,.49-.49h0Z"/><path class="cls-11" d="M167.21,24v.52a.24.24,0,0,0,.25.23h1.06a.23.23,0,0,0,.24-.23h0V24a.23.23,0,0,0-.24-.23h-1.06A.24.24,0,0,0,167.21,24Z"/><path class="cls-11" d="M164.25,24v.52a.24.24,0,0,0,.25.23h1.06a.23.23,0,0,0,.24-.23h0V24a.23.23,0,0,0-.24-.23H164.5a.24.24,0,0,0-.25.23Z"/><path class="cls-12" d="M162.39,30a.17.17,0,0,0,0,.34h8.23a.17.17,0,0,0,0-.34Z"/><path class="cls-12" d="M162.39,30.66a.16.16,0,0,0-.16.17.16.16,0,0,0,.16.16h8.23a.17.17,0,0,0,.17-.16.17.17,0,0,0-.17-.17Z"/><path class="cls-12" d="M162.39,31.3a.16.16,0,0,0-.16.16.17.17,0,0,0,.16.17h8.23a.18.18,0,0,0,.17-.17.17.17,0,0,0-.17-.16Z"/><path class="cls-6" d="M173.2,23.6v49a.42.42,0,0,0,.41.41h9a.41.41,0,0,0,.41-.41v-49a.41.41,0,0,0-.41-.41h-9A.41.41,0,0,0,173.2,23.6Z"/><path class="cls-7" d="M180.49,64.19,182,59.85a.18.18,0,0,0,0-.16l-1.46-1.49a.16.16,0,0,0-.22,0h0l-1.45,1.49a.16.16,0,0,0,0,.16l1.46,4.34a.15.15,0,0,0,.19.1A.17.17,0,0,0,180.49,64.19Z"/><path class="cls-7" d="M176,64.19l1.46-4.34a.18.18,0,0,0,0-.16L176,58.2a.16.16,0,0,0-.22,0h0l-1.45,1.49a.16.16,0,0,0,0,.16l1.46,4.34a.15.15,0,0,0,.19.1A.17.17,0,0,0,176,64.19Z"/><path class="cls-7" d="M180.49,42.87,182,38.53a.18.18,0,0,0,0-.16l-1.46-1.48a.16.16,0,0,0-.22,0h0l-1.45,1.48a.16.16,0,0,0,0,.16l1.46,4.34a.15.15,0,0,0,.19.1A.14.14,0,0,0,180.49,42.87Z"/><path class="cls-7" d="M176,42.87l1.46-4.34a.18.18,0,0,0,0-.16L176,36.89a.16.16,0,0,0-.22,0h0l-1.45,1.48a.16.16,0,0,0,0,.16l1.46,4.34a.15.15,0,0,0,.19.1A.14.14,0,0,0,176,42.87Z"/><path class="cls-7" d="M176.54,45.47,178,47a.16.16,0,0,0,.22,0h0l1.46-1.48a.19.19,0,0,0,0-.16L178.25,41a.15.15,0,0,0-.2-.1.13.13,0,0,0-.09.1l-1.46,4.34A.16.16,0,0,0,176.54,45.47Z"/><path class="cls-7" d="M180.49,53.53,182,49.19a.18.18,0,0,0,0-.16l-1.46-1.48a.16.16,0,0,0-.22,0h0L178.78,49a.16.16,0,0,0,0,.16l1.46,4.34a.15.15,0,0,0,.19.1A.17.17,0,0,0,180.49,53.53Z"/><path class="cls-7" d="M176.54,56.13,178,57.61a.16.16,0,0,0,.22,0h0l1.46-1.48a.2.2,0,0,0,0-.16l-1.46-4.35a.16.16,0,0,0-.2-.09.14.14,0,0,0-.09.09L176.5,56A.17.17,0,0,0,176.54,56.13Z"/><path class="cls-7" d="M176,53.53l1.46-4.34a.18.18,0,0,0,0-.16L176,47.55a.16.16,0,0,0-.22,0h0L174.3,49a.16.16,0,0,0,0,.16l1.46,4.34a.15.15,0,0,0,.19.1A.17.17,0,0,0,176,53.53Z"/><rect class="cls-8" x="173.2" y="25.44" width="9.8" height="9.1"/><path class="cls-9" d="M174.83,71.5h6.6a.12.12,0,0,0,.13-.13h0V65.45a.12.12,0,0,0-.13-.12h-6.6a.12.12,0,0,0-.13.12v5.92A.13.13,0,0,0,174.83,71.5Z"/><path class="cls-10" d="M183,32.93V30a.82.82,0,0,0-.81-.83H174a.83.83,0,0,0-.82.83v3.85a.49.49,0,0,0,.49.49h8.82a.49.49,0,0,0,.49-.49h0Z"/><path class="cls-11" d="M178.81,24v.52a.23.23,0,0,0,.24.23h1.06a.24.24,0,0,0,.25-.23h0V24a.24.24,0,0,0-.25-.23h-1.06A.23.23,0,0,0,178.81,24Z"/><path class="cls-11" d="M175.85,24v.52a.23.23,0,0,0,.24.23h1.06a.24.24,0,0,0,.25-.23h0V24a.24.24,0,0,0-.25-.23h-1.06a.23.23,0,0,0-.24.23Z"/><path class="cls-12" d="M174,30a.17.17,0,1,0,0,.34h8.23a.17.17,0,0,0,0-.34Z"/><path class="cls-12" d="M174,30.66a.17.17,0,0,0-.17.17A.17.17,0,0,0,174,31h8.23a.16.16,0,0,0,.16-.16.16.16,0,0,0-.16-.17Z"/><path class="cls-12" d="M174,31.3a.17.17,0,0,0-.17.16.18.18,0,0,0,.17.17h8.23a.17.17,0,0,0,.16-.17.16.16,0,0,0-.16-.16Z"/><path class="cls-6" d="M184.8,23.6v49a.41.41,0,0,0,.41.41h9a.42.42,0,0,0,.41-.41v-49a.41.41,0,0,0-.41-.41h-9A.41.41,0,0,0,184.8,23.6Z"/><path class="cls-7" d="M192.09,64.19l1.45-4.34a.14.14,0,0,0,0-.16l-1.45-1.49a.16.16,0,0,0-.22,0h0l-1.46,1.49a.15.15,0,0,0,0,.16l1.45,4.34a.16.16,0,0,0,.2.1A.19.19,0,0,0,192.09,64.19Z"/><path class="cls-7" d="M187.61,64.19l1.45-4.34a.14.14,0,0,0,0-.16l-1.45-1.49a.16.16,0,0,0-.22,0h0l-1.46,1.49a.15.15,0,0,0,0,.16l1.45,4.34a.16.16,0,0,0,.2.1A.19.19,0,0,0,187.61,64.19Z"/><path class="cls-7" d="M192.09,42.87l1.45-4.34a.14.14,0,0,0,0-.16l-1.45-1.48a.16.16,0,0,0-.22,0h0l-1.46,1.48a.15.15,0,0,0,0,.16l1.45,4.34a.16.16,0,0,0,.2.1A.16.16,0,0,0,192.09,42.87Z"/><path class="cls-7" d="M187.61,42.87l1.45-4.34a.14.14,0,0,0,0-.16l-1.45-1.48a.16.16,0,0,0-.22,0h0l-1.46,1.48a.15.15,0,0,0,0,.16l1.45,4.34a.16.16,0,0,0,.2.1A.16.16,0,0,0,187.61,42.87Z"/><path class="cls-7" d="M188.13,45.47,189.59,47a.16.16,0,0,0,.22,0h0l1.45-1.48a.14.14,0,0,0,0-.16L189.85,41a.15.15,0,0,0-.2-.1.14.14,0,0,0-.1.1l-1.45,4.34A.16.16,0,0,0,188.13,45.47Z"/><path class="cls-7" d="M192.09,53.53l1.45-4.34a.14.14,0,0,0,0-.16l-1.45-1.48a.16.16,0,0,0-.22,0h0L190.37,49a.15.15,0,0,0,0,.16l1.45,4.34a.16.16,0,0,0,.2.1A.19.19,0,0,0,192.09,53.53Z"/><path class="cls-7" d="M188.13,56.13l1.46,1.48a.16.16,0,0,0,.22,0h0l1.45-1.48a.15.15,0,0,0,0-.16l-1.45-4.35a.16.16,0,0,0-.2-.09.15.15,0,0,0-.1.09L188.1,56A.16.16,0,0,0,188.13,56.13Z"/><path class="cls-7" d="M187.61,53.53l1.45-4.34a.14.14,0,0,0,0-.16l-1.45-1.48a.16.16,0,0,0-.22,0h0L185.89,49a.15.15,0,0,0,0,.16l1.45,4.34a.16.16,0,0,0,.2.1A.19.19,0,0,0,187.61,53.53Z"/><rect class="cls-8" x="184.8" y="25.44" width="9.8" height="9.1"/><path class="cls-9" d="M186.43,71.5H193a.13.13,0,0,0,.13-.13h0V65.45a.12.12,0,0,0-.13-.12h-6.6a.12.12,0,0,0-.13.12v5.92A.13.13,0,0,0,186.43,71.5Z"/><path class="cls-10" d="M194.6,32.93V30a.83.83,0,0,0-.82-.83h-8.16a.82.82,0,0,0-.82.83v3.85a.49.49,0,0,0,.49.49h8.82a.49.49,0,0,0,.49-.49h0Z"/><path class="cls-11" d="M190.4,24v.52a.24.24,0,0,0,.25.23h1.06a.23.23,0,0,0,.24-.23h0V24a.23.23,0,0,0-.24-.23h-1.06A.24.24,0,0,0,190.4,24Z"/><path class="cls-11" d="M187.44,24v.52a.24.24,0,0,0,.25.23h1.06a.23.23,0,0,0,.24-.23h0V24a.23.23,0,0,0-.24-.23h-1.06a.24.24,0,0,0-.25.23Z"/><path class="cls-12" d="M185.58,30a.17.17,0,0,0,0,.34h8.23a.17.17,0,0,0,0-.34Z"/><path class="cls-12" d="M185.58,30.66a.16.16,0,0,0-.16.17.16.16,0,0,0,.16.16h8.23a.17.17,0,0,0,.17-.16.17.17,0,0,0-.17-.17Z"/><path class="cls-12" d="M185.58,31.3a.16.16,0,0,0-.16.16.17.17,0,0,0,.16.17h8.23a.18.18,0,0,0,.17-.17.17.17,0,0,0-.17-.16Z"/><path class="cls-6" d="M196.39,23.6v49a.42.42,0,0,0,.41.41h9a.41.41,0,0,0,.41-.41v-49a.41.41,0,0,0-.41-.41h-9A.41.41,0,0,0,196.39,23.6Z"/><path class="cls-7" d="M203.68,64.19l1.46-4.34a.18.18,0,0,0,0-.16l-1.46-1.49a.15.15,0,0,0-.21,0h0L202,59.69a.16.16,0,0,0,0,.16l1.46,4.34a.15.15,0,0,0,.19.1A.14.14,0,0,0,203.68,64.19Z"/><path class="cls-7" d="M199.2,64.19l1.46-4.34a.16.16,0,0,0,0-.16l-1.46-1.49a.15.15,0,0,0-.21,0h0l-1.45,1.49a.16.16,0,0,0,0,.16l1.46,4.34a.15.15,0,0,0,.19.1A.14.14,0,0,0,199.2,64.19Z"/><path class="cls-7" d="M203.68,42.87l1.46-4.34a.18.18,0,0,0,0-.16l-1.46-1.48a.15.15,0,0,0-.21,0h0L202,38.37a.16.16,0,0,0,0,.16l1.46,4.34a.15.15,0,0,0,.19.1A.13.13,0,0,0,203.68,42.87Z"/><path class="cls-7" d="M199.2,42.87l1.46-4.34a.16.16,0,0,0,0-.16l-1.46-1.48a.15.15,0,0,0-.21,0h0l-1.45,1.48a.16.16,0,0,0,0,.16l1.46,4.34a.15.15,0,0,0,.19.1A.13.13,0,0,0,199.2,42.87Z"/><path class="cls-7" d="M199.73,45.47,201.18,47a.16.16,0,0,0,.22,0h0l1.46-1.48a.16.16,0,0,0,0-.16L201.44,41a.15.15,0,0,0-.2-.1.13.13,0,0,0-.09.1l-1.46,4.34A.16.16,0,0,0,199.73,45.47Z"/><path class="cls-7" d="M203.68,53.53l1.46-4.34a.18.18,0,0,0,0-.16l-1.46-1.48a.15.15,0,0,0-.21,0h0L202,49a.16.16,0,0,0,0,.16l1.46,4.34a.15.15,0,0,0,.19.1A.14.14,0,0,0,203.68,53.53Z"/><path class="cls-7" d="M199.73,56.13l1.45,1.48a.16.16,0,0,0,.22,0h0l1.46-1.48a.17.17,0,0,0,0-.16l-1.46-4.35a.15.15,0,0,0-.2-.09.14.14,0,0,0-.09.09L199.69,56A.17.17,0,0,0,199.73,56.13Z"/><path class="cls-7" d="M199.2,53.53l1.46-4.34a.16.16,0,0,0,0-.16l-1.46-1.48a.15.15,0,0,0-.21,0h0L197.49,49a.16.16,0,0,0,0,.16l1.46,4.34a.15.15,0,0,0,.19.1A.14.14,0,0,0,199.2,53.53Z"/><rect class="cls-8" x="196.39" y="25.44" width="9.8" height="9.1"/><path class="cls-9" d="M198,71.5h6.61a.12.12,0,0,0,.12-.13h0V65.45a.12.12,0,0,0-.12-.12H198a.12.12,0,0,0-.12.12v5.92A.12.12,0,0,0,198,71.5Z"/><path class="cls-10" d="M206.19,32.93V30a.82.82,0,0,0-.81-.83h-8.17a.83.83,0,0,0-.82.83v3.85a.49.49,0,0,0,.49.49h8.82a.49.49,0,0,0,.49-.49h0Z"/><path class="cls-11" d="M202,24v.52a.23.23,0,0,0,.24.23h1.06a.24.24,0,0,0,.25-.23h0V24a.24.24,0,0,0-.25-.23h-1.06A.23.23,0,0,0,202,24Z"/><path class="cls-11" d="M199,24v.52a.23.23,0,0,0,.24.23h1.06a.24.24,0,0,0,.25-.23h0V24a.24.24,0,0,0-.25-.23h-1.06A.23.23,0,0,0,199,24Z"/><path class="cls-12" d="M197.18,30a.17.17,0,0,0,0,.34h8.23a.17.17,0,0,0,0-.34Z"/><path class="cls-12" d="M197.18,30.66a.16.16,0,0,0-.16.17.16.16,0,0,0,.16.16h8.23a.16.16,0,0,0,.16-.16.16.16,0,0,0-.16-.17Z"/><path class="cls-12" d="M197.18,31.3a.16.16,0,0,0-.16.16.17.17,0,0,0,.16.17h8.23a.17.17,0,0,0,.16-.17.16.16,0,0,0-.16-.16Z"/><path class="cls-6" d="M208.64,23.6v49a.41.41,0,0,0,.41.41h9a.41.41,0,0,0,.41-.41v-49a.41.41,0,0,0-.41-.41h-9A.41.41,0,0,0,208.64,23.6Z"/><path class="cls-7" d="M215.93,64.19l1.45-4.34a.15.15,0,0,0,0-.16l-1.46-1.49a.16.16,0,0,0-.22,0h0l-1.46,1.49a.15.15,0,0,0,0,.16l1.45,4.34a.16.16,0,0,0,.2.1A.17.17,0,0,0,215.93,64.19Z"/><path class="cls-7" d="M211.45,64.19l1.45-4.34a.15.15,0,0,0,0-.16l-1.46-1.49a.16.16,0,0,0-.22,0h0l-1.46,1.49a.15.15,0,0,0,0,.16l1.45,4.34a.16.16,0,0,0,.2.1A.17.17,0,0,0,211.45,64.19Z"/><path class="cls-7" d="M215.93,42.87l1.45-4.34a.15.15,0,0,0,0-.16l-1.46-1.48a.16.16,0,0,0-.22,0h0l-1.46,1.48a.15.15,0,0,0,0,.16l1.45,4.34a.16.16,0,0,0,.2.1A.14.14,0,0,0,215.93,42.87Z"/><path class="cls-7" d="M211.45,42.87l1.45-4.34a.15.15,0,0,0,0-.16l-1.46-1.48a.16.16,0,0,0-.22,0h0l-1.46,1.48a.15.15,0,0,0,0,.16l1.45,4.34a.16.16,0,0,0,.2.1A.14.14,0,0,0,211.45,42.87Z"/><path class="cls-7" d="M212,45.47,213.43,47a.16.16,0,0,0,.22,0h0l1.46-1.48a.16.16,0,0,0,0-.16L213.69,41a.15.15,0,0,0-.2-.1.14.14,0,0,0-.1.1l-1.45,4.34A.16.16,0,0,0,212,45.47Z"/><path class="cls-7" d="M215.93,53.53l1.45-4.34a.15.15,0,0,0,0-.16l-1.46-1.48a.16.16,0,0,0-.22,0h0L214.21,49a.15.15,0,0,0,0,.16l1.45,4.34a.16.16,0,0,0,.2.1A.17.17,0,0,0,215.93,53.53Z"/><path class="cls-7" d="M212,56.13l1.46,1.48a.16.16,0,0,0,.22,0h0l1.46-1.48a.16.16,0,0,0,0-.16l-1.45-4.35a.16.16,0,0,0-.2-.09.15.15,0,0,0-.1.09L211.94,56A.16.16,0,0,0,212,56.13Z"/><path class="cls-7" d="M211.45,53.53l1.45-4.34a.15.15,0,0,0,0-.16l-1.46-1.48a.16.16,0,0,0-.22,0h0L209.73,49a.15.15,0,0,0,0,.16l1.45,4.34a.16.16,0,0,0,.2.1A.17.17,0,0,0,211.45,53.53Z"/><rect class="cls-8" x="208.64" y="25.44" width="9.8" height="9.1"/><path class="cls-9" d="M210.27,71.5h6.6a.13.13,0,0,0,.13-.13h0V65.45a.12.12,0,0,0-.13-.12h-6.6a.12.12,0,0,0-.13.12v5.92A.13.13,0,0,0,210.27,71.5Z"/><path class="cls-10" d="M218.44,32.93V30a.83.83,0,0,0-.82-.83h-8.16a.83.83,0,0,0-.82.83v3.85a.49.49,0,0,0,.49.49H218a.49.49,0,0,0,.49-.49h0Z"/><path class="cls-11" d="M214.24,24v.52a.24.24,0,0,0,.25.23h1.06a.24.24,0,0,0,.25-.23h0V24a.24.24,0,0,0-.25-.23h-1.06A.24.24,0,0,0,214.24,24Z"/><path class="cls-11" d="M211.28,24v.52a.24.24,0,0,0,.25.23h1.06a.24.24,0,0,0,.25-.23h0V24a.24.24,0,0,0-.25-.23h-1.06a.24.24,0,0,0-.25.23Z"/><path class="cls-12" d="M209.43,30a.17.17,0,1,0,0,.34h8.23a.17.17,0,0,0,0-.34Z"/><path class="cls-12" d="M209.43,30.66a.17.17,0,0,0-.17.17.17.17,0,0,0,.17.16h8.23a.16.16,0,0,0,.16-.16.16.16,0,0,0-.16-.17Z"/><path class="cls-12" d="M209.43,31.3a.17.17,0,0,0-.17.16.18.18,0,0,0,.17.17h8.23a.17.17,0,0,0,.16-.17.16.16,0,0,0-.16-.16Z"/><path class="cls-6" d="M220.24,23.6v49a.41.41,0,0,0,.41.41h9a.41.41,0,0,0,.4-.41v-49a.4.4,0,0,0-.4-.41h-9A.41.41,0,0,0,220.24,23.6Z"/><path class="cls-7" d="M227.52,64.19,229,59.85a.16.16,0,0,0,0-.16l-1.45-1.49a.16.16,0,0,0-.22,0h0l-1.46,1.49a.16.16,0,0,0,0,.16l1.46,4.34a.16.16,0,0,0,.2.1A.15.15,0,0,0,227.52,64.19Z"/><path class="cls-7" d="M223,64.19l1.46-4.34a.16.16,0,0,0,0-.16L223,58.2a.16.16,0,0,0-.22,0h0l-1.46,1.49a.16.16,0,0,0,0,.16l1.46,4.34a.16.16,0,0,0,.2.1A.15.15,0,0,0,223,64.19Z"/><path class="cls-7" d="M227.52,42.87,229,38.53a.16.16,0,0,0,0-.16l-1.45-1.48a.16.16,0,0,0-.22,0h0l-1.46,1.48a.16.16,0,0,0,0,.16l1.46,4.34a.16.16,0,0,0,.2.1A.13.13,0,0,0,227.52,42.87Z"/><path class="cls-7" d="M223,42.87l1.46-4.34a.16.16,0,0,0,0-.16L223,36.89a.16.16,0,0,0-.22,0h0l-1.46,1.48a.16.16,0,0,0,0,.16l1.46,4.34a.16.16,0,0,0,.2.1A.13.13,0,0,0,223,42.87Z"/><path class="cls-7" d="M223.57,45.47,225,47a.15.15,0,0,0,.21,0h0l1.45-1.48a.16.16,0,0,0,0-.16L225.28,41a.14.14,0,0,0-.19-.1.13.13,0,0,0-.1.1l-1.46,4.34A.16.16,0,0,0,223.57,45.47Z"/><path class="cls-7" d="M227.52,53.53,229,49.19a.16.16,0,0,0,0-.16l-1.45-1.48a.16.16,0,0,0-.22,0h0L225.81,49a.16.16,0,0,0,0,.16l1.46,4.34a.16.16,0,0,0,.2.1A.15.15,0,0,0,227.52,53.53Z"/><path class="cls-7" d="M223.57,56.13,225,57.61a.14.14,0,0,0,.21,0h0l1.45-1.48a.17.17,0,0,0,0-.16l-1.46-4.35a.14.14,0,0,0-.19-.09.13.13,0,0,0-.1.09L223.53,56A.17.17,0,0,0,223.57,56.13Z"/><path class="cls-7" d="M223,53.53l1.46-4.34a.16.16,0,0,0,0-.16L223,47.55a.16.16,0,0,0-.22,0h0L221.33,49a.16.16,0,0,0,0,.16l1.46,4.34a.16.16,0,0,0,.2.1A.15.15,0,0,0,223,53.53Z"/><rect class="cls-8" x="220.24" y="25.44" width="9.8" height="9.1"/><path class="cls-9" d="M221.87,71.5h6.6a.13.13,0,0,0,.13-.13h0V65.45a.12.12,0,0,0-.13-.12h-6.6a.12.12,0,0,0-.13.12v5.92A.13.13,0,0,0,221.87,71.5Z"/><path class="cls-10" d="M230,32.93V30a.82.82,0,0,0-.81-.83h-8.17a.82.82,0,0,0-.81.83v3.85a.49.49,0,0,0,.49.49h8.82a.48.48,0,0,0,.48-.49h0Z"/><path class="cls-11" d="M225.84,24v.52a.24.24,0,0,0,.25.23h1.06a.23.23,0,0,0,.24-.23h0V24a.23.23,0,0,0-.24-.23h-1.06A.24.24,0,0,0,225.84,24Z"/><path class="cls-11" d="M222.88,24v.52a.24.24,0,0,0,.25.23h1.06a.23.23,0,0,0,.24-.23h0V24a.23.23,0,0,0-.24-.23h-1.06a.24.24,0,0,0-.25.23Z"/><path class="cls-12" d="M221,30a.17.17,0,0,0,0,.34h8.23a.17.17,0,0,0,0-.34Z"/><path class="cls-12" d="M221,30.66a.16.16,0,0,0-.16.17A.16.16,0,0,0,221,31h8.23a.16.16,0,0,0,.16-.16.16.16,0,0,0-.16-.17Z"/><path class="cls-12" d="M221,31.3a.16.16,0,0,0-.16.16.17.17,0,0,0,.16.17h8.23a.17.17,0,0,0,.16-.17.16.16,0,0,0-.16-.16Z"/><path class="cls-6" d="M231.83,23.6v49a.42.42,0,0,0,.41.41h9a.41.41,0,0,0,.41-.41v-49a.41.41,0,0,0-.41-.41h-9A.41.41,0,0,0,231.83,23.6Z"/><path class="cls-7" d="M239.12,64.19l1.45-4.34a.15.15,0,0,0,0-.16l-1.46-1.49a.16.16,0,0,0-.22,0h0l-1.45,1.49a.14.14,0,0,0,0,.16l1.45,4.34a.16.16,0,0,0,.2.1A.17.17,0,0,0,239.12,64.19Z"/><path class="cls-7" d="M234.64,64.19l1.45-4.34a.15.15,0,0,0,0-.16L234.6,58.2a.16.16,0,0,0-.22,0h0l-1.45,1.49a.14.14,0,0,0,0,.16l1.45,4.34a.16.16,0,0,0,.2.1A.17.17,0,0,0,234.64,64.19Z"/><path class="cls-7" d="M239.12,42.87l1.45-4.34a.15.15,0,0,0,0-.16l-1.46-1.48a.16.16,0,0,0-.22,0h0l-1.45,1.48a.14.14,0,0,0,0,.16l1.45,4.34a.16.16,0,0,0,.2.1A.14.14,0,0,0,239.12,42.87Z"/><path class="cls-7" d="M234.64,42.87l1.45-4.34a.15.15,0,0,0,0-.16l-1.46-1.48a.16.16,0,0,0-.22,0h0l-1.45,1.48a.14.14,0,0,0,0,.16l1.45,4.34a.16.16,0,0,0,.2.1A.14.14,0,0,0,234.64,42.87Z"/><path class="cls-7" d="M235.17,45.47,236.62,47a.16.16,0,0,0,.22,0h0l1.46-1.48a.16.16,0,0,0,0-.16L236.88,41a.15.15,0,0,0-.2-.1.16.16,0,0,0-.1.1l-1.45,4.34A.14.14,0,0,0,235.17,45.47Z"/><path class="cls-7" d="M239.12,53.53l1.45-4.34a.15.15,0,0,0,0-.16l-1.46-1.48a.16.16,0,0,0-.22,0h0L237.41,49a.14.14,0,0,0,0,.16l1.45,4.34a.16.16,0,0,0,.2.1A.17.17,0,0,0,239.12,53.53Z"/><path class="cls-7" d="M235.17,56.13l1.45,1.48a.16.16,0,0,0,.22,0h0l1.46-1.48a.16.16,0,0,0,0-.16l-1.45-4.35a.16.16,0,0,0-.2-.09.18.18,0,0,0-.1.09L235.13,56A.15.15,0,0,0,235.17,56.13Z"/><path class="cls-7" d="M234.64,53.53l1.45-4.34a.15.15,0,0,0,0-.16l-1.46-1.48a.16.16,0,0,0-.22,0h0L232.93,49a.14.14,0,0,0,0,.16l1.45,4.34a.16.16,0,0,0,.2.1A.17.17,0,0,0,234.64,53.53Z"/><rect class="cls-8" x="231.83" y="25.44" width="9.8" height="9.1"/><path class="cls-9" d="M233.46,71.5h6.6a.13.13,0,0,0,.13-.13h0V65.45a.12.12,0,0,0-.13-.12h-6.6a.12.12,0,0,0-.13.12v5.92A.13.13,0,0,0,233.46,71.5Z"/><path class="cls-10" d="M241.63,32.93V30a.83.83,0,0,0-.82-.83h-8.16a.83.83,0,0,0-.82.83v3.85a.49.49,0,0,0,.49.49h8.82a.49.49,0,0,0,.49-.49h0Z"/><path class="cls-11" d="M237.44,24v.52a.23.23,0,0,0,.24.23h1.06a.24.24,0,0,0,.25-.23h0V24a.24.24,0,0,0-.25-.23h-1.06A.23.23,0,0,0,237.44,24Z"/><path class="cls-11" d="M234.48,24v.52a.23.23,0,0,0,.24.23h1.06a.24.24,0,0,0,.25-.23h0V24a.24.24,0,0,0-.25-.23h-1.06a.23.23,0,0,0-.24.23Z"/><path class="cls-12" d="M232.62,30a.17.17,0,1,0,0,.34h8.23a.17.17,0,0,0,0-.34Z"/><path class="cls-12" d="M232.62,30.66a.17.17,0,0,0-.17.17.17.17,0,0,0,.17.16h8.23a.16.16,0,0,0,.16-.16.16.16,0,0,0-.16-.17Z"/><path class="cls-12" d="M232.62,31.3a.17.17,0,0,0-.17.16.18.18,0,0,0,.17.17h8.23a.17.17,0,0,0,.16-.17.16.16,0,0,0-.16-.16Z"/><path class="cls-6" d="M243.43,23.6v49a.41.41,0,0,0,.41.41h9a.42.42,0,0,0,.41-.41v-49a.41.41,0,0,0-.41-.41h-9A.41.41,0,0,0,243.43,23.6Z"/><path class="cls-7" d="M250.71,64.19l1.46-4.34a.16.16,0,0,0,0-.16l-1.45-1.49a.16.16,0,0,0-.22,0h0L249,59.69a.18.18,0,0,0,0,.16l1.46,4.34a.16.16,0,0,0,.2.1A.15.15,0,0,0,250.71,64.19Z"/><path class="cls-7" d="M246.23,64.19l1.46-4.34a.16.16,0,0,0,0-.16L246.2,58.2a.16.16,0,0,0-.22,0h0l-1.46,1.49a.18.18,0,0,0,0,.16l1.46,4.34a.16.16,0,0,0,.2.1A.15.15,0,0,0,246.23,64.19Z"/><path class="cls-7" d="M250.71,42.87l1.46-4.34a.16.16,0,0,0,0-.16l-1.45-1.48a.16.16,0,0,0-.22,0h0L249,38.37a.18.18,0,0,0,0,.16l1.46,4.34a.16.16,0,0,0,.2.1A.13.13,0,0,0,250.71,42.87Z"/><path class="cls-7" d="M246.23,42.87l1.46-4.34a.16.16,0,0,0,0-.16l-1.45-1.48a.16.16,0,0,0-.22,0h0l-1.46,1.48a.18.18,0,0,0,0,.16l1.46,4.34a.16.16,0,0,0,.2.1A.13.13,0,0,0,246.23,42.87Z"/><path class="cls-7" d="M246.76,45.47,248.22,47a.16.16,0,0,0,.22,0h0l1.45-1.48a.16.16,0,0,0,0-.16L248.47,41a.14.14,0,0,0-.19-.1.14.14,0,0,0-.1.1l-1.46,4.34A.19.19,0,0,0,246.76,45.47Z"/><path class="cls-7" d="M250.71,53.53l1.46-4.34a.16.16,0,0,0,0-.16l-1.45-1.48a.16.16,0,0,0-.22,0h0L249,49a.18.18,0,0,0,0,.16l1.46,4.34a.16.16,0,0,0,.2.1A.15.15,0,0,0,250.71,53.53Z"/><path class="cls-7" d="M246.76,56.13l1.46,1.48a.16.16,0,0,0,.22,0h0l1.45-1.48a.17.17,0,0,0,0-.16l-1.46-4.35a.14.14,0,0,0-.19-.09.15.15,0,0,0-.1.09L246.72,56A.2.2,0,0,0,246.76,56.13Z"/><path class="cls-7" d="M246.23,53.53l1.46-4.34a.16.16,0,0,0,0-.16l-1.45-1.48a.16.16,0,0,0-.22,0h0L244.52,49a.18.18,0,0,0,0,.16l1.46,4.34a.16.16,0,0,0,.2.1A.15.15,0,0,0,246.23,53.53Z"/><rect class="cls-8" x="243.43" y="25.44" width="9.8" height="9.1"/><path class="cls-9" d="M245.06,71.5h6.6a.13.13,0,0,0,.13-.13h0V65.45a.12.12,0,0,0-.13-.12h-6.6a.12.12,0,0,0-.13.12v5.92A.13.13,0,0,0,245.06,71.5Z"/><path class="cls-10" d="M253.23,32.93V30a.83.83,0,0,0-.82-.83h-8.17a.82.82,0,0,0-.81.83v3.85a.49.49,0,0,0,.49.49h8.82a.49.49,0,0,0,.49-.49h0Z"/><path class="cls-11" d="M249,24v.52a.24.24,0,0,0,.25.23h1.06a.23.23,0,0,0,.24-.23h0V24a.23.23,0,0,0-.24-.23h-1.06A.24.24,0,0,0,249,24Z"/><path class="cls-11" d="M246.07,24v.52a.24.24,0,0,0,.25.23h1.06a.23.23,0,0,0,.24-.23h0V24a.23.23,0,0,0-.24-.23h-1.06a.24.24,0,0,0-.25.23Z"/><path class="cls-12" d="M244.21,30a.17.17,0,0,0,0,.34h8.23a.17.17,0,1,0,0-.34Z"/><path class="cls-12" d="M244.21,30.66a.16.16,0,0,0-.16.17.16.16,0,0,0,.16.16h8.23a.17.17,0,0,0,.17-.16.17.17,0,0,0-.17-.17Z"/><path class="cls-12" d="M244.21,31.3a.16.16,0,0,0-.16.16.17.17,0,0,0,.16.17h8.23a.18.18,0,0,0,.17-.17.17.17,0,0,0-.17-.16Z"/><path class="cls-6" d="M255,23.6v49a.42.42,0,0,0,.41.41h9a.41.41,0,0,0,.41-.41v-49a.41.41,0,0,0-.41-.41h-9A.41.41,0,0,0,255,23.6Z"/><path class="cls-7" d="M262.31,64.19l1.46-4.34a.18.18,0,0,0,0-.16l-1.46-1.49a.16.16,0,0,0-.22,0h0l-1.45,1.49a.16.16,0,0,0,0,.16L262,64.19a.15.15,0,0,0,.19.1A.17.17,0,0,0,262.31,64.19Z"/><path class="cls-7" d="M257.83,64.19l1.46-4.34a.18.18,0,0,0,0-.16l-1.46-1.49a.16.16,0,0,0-.22,0h0l-1.45,1.49a.16.16,0,0,0,0,.16l1.46,4.34a.15.15,0,0,0,.19.1A.17.17,0,0,0,257.83,64.19Z"/><path class="cls-7" d="M262.31,42.87l1.46-4.34a.18.18,0,0,0,0-.16l-1.46-1.48a.16.16,0,0,0-.22,0h0l-1.45,1.48a.16.16,0,0,0,0,.16L262,42.87a.15.15,0,0,0,.19.1A.14.14,0,0,0,262.31,42.87Z"/><path class="cls-7" d="M257.83,42.87l1.46-4.34a.18.18,0,0,0,0-.16l-1.46-1.48a.16.16,0,0,0-.22,0h0l-1.45,1.48a.16.16,0,0,0,0,.16l1.46,4.34a.15.15,0,0,0,.19.1A.14.14,0,0,0,257.83,42.87Z"/><path class="cls-7" d="M258.36,45.47,259.81,47a.16.16,0,0,0,.22,0h0l1.46-1.48a.19.19,0,0,0,0-.16L260.07,41a.15.15,0,0,0-.2-.1.13.13,0,0,0-.09.1l-1.46,4.34A.16.16,0,0,0,258.36,45.47Z"/><path class="cls-7" d="M262.31,53.53l1.46-4.34a.18.18,0,0,0,0-.16l-1.46-1.48a.16.16,0,0,0-.22,0h0L260.6,49a.16.16,0,0,0,0,.16L262,53.53a.15.15,0,0,0,.19.1A.17.17,0,0,0,262.31,53.53Z"/><path class="cls-7" d="M258.36,56.13l1.45,1.48a.16.16,0,0,0,.22,0h0l1.46-1.48a.2.2,0,0,0,0-.16l-1.46-4.35a.16.16,0,0,0-.2-.09.14.14,0,0,0-.09.09L258.32,56A.17.17,0,0,0,258.36,56.13Z"/><path class="cls-7" d="M257.83,53.53l1.46-4.34a.18.18,0,0,0,0-.16l-1.46-1.48a.16.16,0,0,0-.22,0h0L256.12,49a.16.16,0,0,0,0,.16l1.46,4.34a.15.15,0,0,0,.19.1A.17.17,0,0,0,257.83,53.53Z"/><rect class="cls-8" x="255.02" y="25.44" width="9.8" height="9.1"/><path class="cls-9" d="M256.65,71.5h6.6a.12.12,0,0,0,.13-.13h0V65.45a.12.12,0,0,0-.13-.12h-6.6a.12.12,0,0,0-.13.12v5.92A.13.13,0,0,0,256.65,71.5Z"/><path class="cls-10" d="M264.82,32.93V30a.82.82,0,0,0-.81-.83h-8.17A.83.83,0,0,0,255,30v3.85a.49.49,0,0,0,.49.49h8.82a.49.49,0,0,0,.49-.49h0Z"/><path class="cls-11" d="M260.63,24v.52a.23.23,0,0,0,.24.23h1.06a.24.24,0,0,0,.25-.23h0V24a.24.24,0,0,0-.25-.23h-1.06A.23.23,0,0,0,260.63,24Z"/><path class="cls-11" d="M257.67,24v.52a.23.23,0,0,0,.24.23H259a.24.24,0,0,0,.25-.23h0V24a.24.24,0,0,0-.25-.23h-1.06a.23.23,0,0,0-.24.23Z"/><path class="cls-12" d="M255.81,30a.17.17,0,1,0,0,.34H264a.17.17,0,0,0,0-.34Z"/><path class="cls-12" d="M255.81,30.66a.17.17,0,0,0-.17.17.17.17,0,0,0,.17.16H264a.16.16,0,0,0,.16-.16.16.16,0,0,0-.16-.17Z"/><path class="cls-12" d="M255.81,31.3a.17.17,0,0,0-.17.16.18.18,0,0,0,.17.17H264a.17.17,0,0,0,.16-.17.16.16,0,0,0-.16-.16Z"/><path class="cls-6" d="M266.62,23.6v49A.41.41,0,0,0,267,73h9a.42.42,0,0,0,.41-.41v-49a.41.41,0,0,0-.41-.41h-9A.41.41,0,0,0,266.62,23.6Z"/><path class="cls-7" d="M273.91,64.19l1.45-4.34a.14.14,0,0,0,0-.16l-1.45-1.49a.16.16,0,0,0-.22,0h0l-1.46,1.49a.15.15,0,0,0,0,.16l1.45,4.34a.16.16,0,0,0,.2.1A.19.19,0,0,0,273.91,64.19Z"/><path class="cls-7" d="M269.43,64.19l1.45-4.34a.15.15,0,0,0,0-.16l-1.46-1.49a.16.16,0,0,0-.22,0h0l-1.46,1.49a.15.15,0,0,0,0,.16l1.45,4.34a.16.16,0,0,0,.2.1A.19.19,0,0,0,269.43,64.19Z"/><path class="cls-7" d="M273.91,42.87l1.45-4.34a.14.14,0,0,0,0-.16l-1.45-1.48a.16.16,0,0,0-.22,0h0l-1.46,1.48a.15.15,0,0,0,0,.16l1.45,4.34a.16.16,0,0,0,.2.1A.16.16,0,0,0,273.91,42.87Z"/><path class="cls-7" d="M269.43,42.87l1.45-4.34a.15.15,0,0,0,0-.16l-1.46-1.48a.16.16,0,0,0-.22,0h0l-1.46,1.48a.15.15,0,0,0,0,.16l1.45,4.34a.16.16,0,0,0,.2.1A.16.16,0,0,0,269.43,42.87Z"/><path class="cls-7" d="M270,45.47,271.41,47a.16.16,0,0,0,.22,0h0l1.45-1.48a.14.14,0,0,0,0-.16L271.67,41a.15.15,0,0,0-.2-.1.14.14,0,0,0-.1.1l-1.45,4.34A.16.16,0,0,0,270,45.47Z"/><path class="cls-7" d="M273.91,53.53l1.45-4.34a.14.14,0,0,0,0-.16l-1.45-1.48a.16.16,0,0,0-.22,0h0L272.19,49a.15.15,0,0,0,0,.16l1.45,4.34a.16.16,0,0,0,.2.1A.19.19,0,0,0,273.91,53.53Z"/><path class="cls-7" d="M270,56.13l1.46,1.48a.16.16,0,0,0,.22,0h0l1.45-1.48a.15.15,0,0,0,0-.16l-1.45-4.35a.16.16,0,0,0-.2-.09.15.15,0,0,0-.1.09L269.92,56A.16.16,0,0,0,270,56.13Z"/><path class="cls-7" d="M269.43,53.53l1.45-4.34a.15.15,0,0,0,0-.16l-1.46-1.48a.16.16,0,0,0-.22,0h0L267.71,49a.15.15,0,0,0,0,.16l1.45,4.34a.16.16,0,0,0,.2.1A.19.19,0,0,0,269.43,53.53Z"/><rect class="cls-8" x="266.62" y="25.44" width="9.8" height="9.1"/><path class="cls-9" d="M268.25,71.5h6.6a.13.13,0,0,0,.13-.13h0V65.45a.12.12,0,0,0-.13-.12h-6.6a.12.12,0,0,0-.13.12v5.92A.13.13,0,0,0,268.25,71.5Z"/><path class="cls-10" d="M276.42,32.93V30a.83.83,0,0,0-.82-.83h-8.16a.83.83,0,0,0-.82.83v3.85a.49.49,0,0,0,.49.49h8.82a.49.49,0,0,0,.49-.49h0Z"/><path class="cls-11" d="M272.22,24v.52a.24.24,0,0,0,.25.23h1.06a.23.23,0,0,0,.24-.23h0V24a.23.23,0,0,0-.24-.23h-1.06A.24.24,0,0,0,272.22,24Z"/><path class="cls-11" d="M269.26,24v.52a.24.24,0,0,0,.25.23h1.06a.23.23,0,0,0,.24-.23h0V24a.23.23,0,0,0-.24-.23h-1.06a.24.24,0,0,0-.25.23Z"/><path class="cls-12" d="M267.4,30a.17.17,0,0,0,0,.34h8.23a.17.17,0,1,0,0-.34Z"/><path class="cls-12" d="M267.4,30.66a.16.16,0,0,0-.16.17.16.16,0,0,0,.16.16h8.23a.17.17,0,0,0,.17-.16.17.17,0,0,0-.17-.17Z"/><path class="cls-12" d="M267.4,31.3a.16.16,0,0,0-.16.16.17.17,0,0,0,.16.17h8.23a.18.18,0,0,0,.17-.17.17.17,0,0,0-.17-.16Z"/><path class="cls-6" d="M278.22,23.6v49a.41.41,0,0,0,.4.41h9a.41.41,0,0,0,.41-.41v-49a.41.41,0,0,0-.41-.41h-9A.4.4,0,0,0,278.22,23.6Z"/><path class="cls-7" d="M285.5,64.19,287,59.85a.16.16,0,0,0,0-.16l-1.46-1.49a.14.14,0,0,0-.21,0h0l-1.45,1.49a.16.16,0,0,0,0,.16l1.46,4.34a.15.15,0,0,0,.19.1A.14.14,0,0,0,285.5,64.19Z"/><path class="cls-7" d="M281,64.19l1.46-4.34a.16.16,0,0,0,0-.16L281,58.2a.14.14,0,0,0-.21,0h0l-1.45,1.49a.16.16,0,0,0,0,.16l1.46,4.34a.15.15,0,0,0,.19.1A.14.14,0,0,0,281,64.19Z"/><path class="cls-7" d="M285.5,42.87,287,38.53a.16.16,0,0,0,0-.16l-1.46-1.48a.14.14,0,0,0-.21,0h0l-1.45,1.48a.16.16,0,0,0,0,.16l1.46,4.34a.15.15,0,0,0,.19.1A.13.13,0,0,0,285.5,42.87Z"/><path class="cls-7" d="M281,42.87l1.46-4.34a.16.16,0,0,0,0-.16L281,36.89a.14.14,0,0,0-.21,0h0l-1.45,1.48a.16.16,0,0,0,0,.16l1.46,4.34a.15.15,0,0,0,.19.1A.13.13,0,0,0,281,42.87Z"/><path class="cls-7" d="M281.55,45.47,283,47a.16.16,0,0,0,.22,0h0l1.46-1.48a.16.16,0,0,0,0-.16L283.26,41a.15.15,0,0,0-.2-.1.13.13,0,0,0-.09.1l-1.46,4.34A.16.16,0,0,0,281.55,45.47Z"/><path class="cls-7" d="M285.5,53.53,287,49.19a.16.16,0,0,0,0-.16l-1.46-1.48a.15.15,0,0,0-.21,0h0L283.79,49a.16.16,0,0,0,0,.16l1.46,4.34a.15.15,0,0,0,.19.1A.14.14,0,0,0,285.5,53.53Z"/><path class="cls-7" d="M281.55,56.13,283,57.61a.16.16,0,0,0,.22,0h0l1.46-1.48a.17.17,0,0,0,0-.16l-1.46-4.35a.15.15,0,0,0-.2-.09.14.14,0,0,0-.09.09L281.51,56A.17.17,0,0,0,281.55,56.13Z"/><path class="cls-7" d="M281,53.53l1.46-4.34a.16.16,0,0,0,0-.16L281,47.55a.15.15,0,0,0-.21,0h0L279.31,49a.16.16,0,0,0,0,.16l1.46,4.34a.15.15,0,0,0,.19.1A.14.14,0,0,0,281,53.53Z"/><rect class="cls-8" x="278.22" y="25.44" width="9.8" height="9.1"/><path class="cls-9" d="M279.84,71.5h6.61a.12.12,0,0,0,.12-.13h0V65.45a.12.12,0,0,0-.12-.12h-6.61a.12.12,0,0,0-.12.12v5.92A.12.12,0,0,0,279.84,71.5Z"/><path class="cls-10" d="M288,32.93V30a.82.82,0,0,0-.81-.83H279a.82.82,0,0,0-.81.83v3.85a.48.48,0,0,0,.49.49h8.81a.49.49,0,0,0,.49-.49h0Z"/><path class="cls-11" d="M283.82,24v.52a.23.23,0,0,0,.24.23h1.06a.24.24,0,0,0,.25-.23h0V24a.24.24,0,0,0-.25-.23h-1.06A.23.23,0,0,0,283.82,24Z"/><path class="cls-11" d="M280.86,24v.52a.23.23,0,0,0,.24.23h1.06a.24.24,0,0,0,.25-.23h0V24a.24.24,0,0,0-.25-.23H281.1a.23.23,0,0,0-.24.23Z"/><path class="cls-12" d="M279,30a.17.17,0,0,0,0,.34h8.23a.17.17,0,0,0,0-.34Z"/><path class="cls-12" d="M279,30.66a.16.16,0,0,0-.16.17A.16.16,0,0,0,279,31h8.23a.16.16,0,0,0,.16-.16.16.16,0,0,0-.16-.17Z"/><path class="cls-12" d="M279,31.3a.16.16,0,0,0-.16.16.17.17,0,0,0,.16.17h8.23a.17.17,0,0,0,.16-.17.16.16,0,0,0-.16-.16Z"/><path class="cls-6" d="M289.81,23.6v49a.41.41,0,0,0,.41.41h9a.41.41,0,0,0,.41-.41v-49a.41.41,0,0,0-.41-.41h-9A.41.41,0,0,0,289.81,23.6Z"/><path class="cls-7" d="M297.1,64.19l1.45-4.34a.15.15,0,0,0,0-.16l-1.46-1.49a.16.16,0,0,0-.22,0h0l-1.46,1.49a.15.15,0,0,0,0,.16l1.45,4.34a.16.16,0,0,0,.2.1A.19.19,0,0,0,297.1,64.19Z"/><path class="cls-7" d="M292.62,64.19l1.45-4.34a.15.15,0,0,0,0-.16l-1.46-1.49a.16.16,0,0,0-.22,0h0l-1.46,1.49a.15.15,0,0,0,0,.16l1.45,4.34a.16.16,0,0,0,.2.1A.17.17,0,0,0,292.62,64.19Z"/><path class="cls-7" d="M297.1,42.87l1.45-4.34a.15.15,0,0,0,0-.16l-1.46-1.48a.16.16,0,0,0-.22,0h0l-1.46,1.48a.15.15,0,0,0,0,.16l1.45,4.34a.16.16,0,0,0,.2.1A.16.16,0,0,0,297.1,42.87Z"/><path class="cls-7" d="M292.62,42.87l1.45-4.34a.15.15,0,0,0,0-.16l-1.46-1.48a.16.16,0,0,0-.22,0h0l-1.46,1.48a.15.15,0,0,0,0,.16l1.45,4.34a.16.16,0,0,0,.2.1A.14.14,0,0,0,292.62,42.87Z"/><path class="cls-7" d="M293.14,45.47,294.6,47a.16.16,0,0,0,.22,0h0l1.46-1.48a.16.16,0,0,0,0-.16L294.86,41a.15.15,0,0,0-.2-.1.14.14,0,0,0-.1.1l-1.45,4.34A.16.16,0,0,0,293.14,45.47Z"/><path class="cls-7" d="M297.1,53.53l1.45-4.34a.15.15,0,0,0,0-.16l-1.46-1.48a.16.16,0,0,0-.22,0h0L295.38,49a.15.15,0,0,0,0,.16l1.45,4.34a.16.16,0,0,0,.2.1A.19.19,0,0,0,297.1,53.53Z"/><path class="cls-7" d="M293.14,56.13l1.46,1.48a.16.16,0,0,0,.22,0h0l1.46-1.48a.16.16,0,0,0,0-.16l-1.45-4.35a.16.16,0,0,0-.2-.09.15.15,0,0,0-.1.09L293.11,56A.16.16,0,0,0,293.14,56.13Z"/><path class="cls-7" d="M292.62,53.53l1.45-4.34a.15.15,0,0,0,0-.16l-1.46-1.48a.16.16,0,0,0-.22,0h0L290.9,49a.15.15,0,0,0,0,.16l1.45,4.34a.16.16,0,0,0,.2.1A.17.17,0,0,0,292.62,53.53Z"/><rect class="cls-8" x="289.81" y="25.44" width="9.8" height="9.1"/><path class="cls-9" d="M291.44,71.5H298a.13.13,0,0,0,.13-.13h0V65.45a.12.12,0,0,0-.13-.12h-6.6a.12.12,0,0,0-.13.12v5.92A.13.13,0,0,0,291.44,71.5Z"/><path class="cls-10" d="M299.61,32.93V30a.83.83,0,0,0-.82-.83h-8.16a.83.83,0,0,0-.82.83v3.85a.49.49,0,0,0,.49.49h8.82a.49.49,0,0,0,.49-.49h0Z"/><path class="cls-11" d="M295.41,24v.52a.24.24,0,0,0,.25.23h1.06a.24.24,0,0,0,.25-.23h0V24a.24.24,0,0,0-.25-.23h-1.06A.24.24,0,0,0,295.41,24Z"/><path class="cls-11" d="M292.45,24v.52a.24.24,0,0,0,.25.23h1.06a.24.24,0,0,0,.25-.23h0V24a.24.24,0,0,0-.25-.23H292.7a.24.24,0,0,0-.25.23Z"/><path class="cls-12" d="M290.59,30a.17.17,0,0,0,0,.34h8.23a.17.17,0,1,0,0-.34Z"/><path class="cls-12" d="M290.59,30.66a.16.16,0,0,0-.16.17.16.16,0,0,0,.16.16h8.23a.17.17,0,0,0,.17-.16.17.17,0,0,0-.17-.17Z"/><path class="cls-12" d="M290.59,31.3a.16.16,0,0,0-.16.16.17.17,0,0,0,.16.17h8.23a.18.18,0,0,0,.17-.17.17.17,0,0,0-.17-.16Z"/><rect class="cls-13" x="113.51" y="23.19" width="0.98" height="49.85"/><rect class="cls-13" x="206.93" y="23.19" width="0.98" height="49.85"/><rect class="cls-3" x="5.46" y="37.38" width="13.09" height="22.06" rx="0.65"/><circle class="cls-14" cx="7.99" cy="40.26" r="1.03"/><circle class="cls-14" cx="7.99" cy="43.34" r="1.03"/><circle class="cls-14" cx="7.99" cy="46.43" r="1.03"/><rect class="cls-14" x="6.85" y="51.09" width="4.87" height="6.27" rx="0.06"/><polygon class="cls-3" points="7.96 52.04 7.93 52.04 7.68 52.29 7.53 53.98 7.71 54.16 7.75 54.16 8 53.92 8.14 52.23 7.96 52.04"/><polygon class="cls-3" points="10.41 52 10.38 52 10.13 52.25 9.99 53.94 10.17 54.12 10.2 54.12 10.45 53.88 10.6 52.19 10.41 52"/><polygon class="cls-3" points="7.75 54.26 7.72 54.26 7.47 54.51 7.33 56.2 7.51 56.38 7.54 56.38 7.79 56.14 7.93 54.45 7.75 54.26"/><polygon class="cls-3" points="10.21 54.22 10.18 54.22 9.93 54.47 9.79 56.16 9.96 56.34 10 56.34 10.25 56.1 10.39 54.41 10.21 54.22"/><polygon class="cls-3" points="8.02 53.96 7.78 54.2 7.78 54.23 7.99 54.43 9.89 54.43 10.13 54.19 10.13 54.16 9.93 53.96 8.02 53.96"/><polygon class="cls-3" points="7.83 56.18 7.59 56.42 7.59 56.45 7.79 56.65 9.7 56.65 9.94 56.41 9.94 56.38 9.73 56.18 7.83 56.18"/><polygon class="cls-3" points="8.23 51.74 7.99 51.98 7.99 52.01 8.2 52.21 10.1 52.21 10.34 51.97 10.34 51.94 10.14 51.74 8.23 51.74"/><circle class="cls-3" cx="10.94" cy="56.37" r="0.31"/><rect class="cls-14" x="12.28" y="51.09" width="4.87" height="6.27" rx="0.06"/><polygon class="cls-3" points="13.38 52.04 13.35 52.04 13.11 52.29 12.96 53.98 13.14 54.16 13.17 54.16 13.42 53.92 13.57 52.23 13.38 52.04"/><polygon class="cls-3" points="15.84 52 15.81 52 15.56 52.25 15.42 53.94 15.6 54.12 15.63 54.12 15.88 53.88 16.02 52.19 15.84 52"/><polygon class="cls-3" points="13.18 54.26 13.15 54.26 12.9 54.51 12.76 56.2 12.94 56.38 12.97 56.38 13.22 56.14 13.36 54.45 13.18 54.26"/><polygon class="cls-3" points="15.63 54.22 15.61 54.22 15.36 54.47 15.21 56.16 15.39 56.34 15.43 56.34 15.68 56.1 15.82 54.41 15.63 54.22"/><polygon class="cls-3" points="13.45 53.96 13.21 54.2 13.21 54.23 13.42 54.43 15.32 54.43 15.56 54.19 15.56 54.16 15.36 53.96 13.45 53.96"/><polygon class="cls-3" points="13.26 56.18 13.02 56.42 13.02 56.45 13.22 56.65 15.13 56.65 15.36 56.41 15.36 56.38 15.16 56.18 13.26 56.18"/><polygon class="cls-3" points="13.66 51.74 13.42 51.98 13.42 52.01 13.63 52.21 15.53 52.21 15.77 51.97 15.77 51.94 15.57 51.74 13.66 51.74"/><circle class="cls-3" cx="16.37" cy="56.37" r="0.31"/><g id="Callout_Gizmo" data-name="Callout Gizmo"><line id="Line" class="cls-15" x1="26.72" y1="11.18" x2="26.76" y2="27"/><text class="cls-16" transform="translate(24.36 14.04)">1</text><circle class="cls-17" cx="26.76" cy="11.26" r="5.67"/><text class="cls-16" transform="translate(24.36 14.04)">1</text></g><g id="Callout_Gizmo-2" data-name="Callout Gizmo"><line id="Line-2" data-name="Line" class="cls-15" x1="38.31" y1="83.23" x2="38.36" y2="68.41"/><text class="cls-16" transform="translate(35.89 86.1)">3</text><circle class="cls-17" cx="38.36" cy="83.31" r="5.67"/><text class="cls-16" transform="translate(35.89 86.1)">3</text></g><g id="Callout_Gizmo-3" data-name="Callout Gizmo"><line id="Line-3" data-name="Line" class="cls-15" x1="283.12" y1="83.23" x2="283.17" y2="68.41"/><text class="cls-16" transform="translate(280.44 86.1)">4</text><circle class="cls-17" cx="283.17" cy="83.31" r="5.67"/><text class="cls-16" transform="translate(280.44 86.1)">4</text></g><g id="Callout_Gizmo-4" data-name="Callout Gizmo"><line id="Line-4" data-name="Line" class="cls-15" x1="294.68" y1="11.18" x2="294.73" y2="27"/><text class="cls-16" transform="translate(292.28 14.04)">2</text><circle class="cls-17" cx="294.73" cy="11.26" r="5.67"/><text class="cls-16" transform="translate(292.28 14.04)">2</text></g></g></svg>