<svg id="Layer_1" data-name="Layer 1" xmlns="http://www.w3.org/2000/svg" xmlns:xlink="http://www.w3.org/1999/xlink" viewBox="0 0 464.88 839.06"><defs><style>.cls-1,.cls-11,.cls-16,.cls-18,.cls-20,.cls-26,.cls-27,.cls-29,.cls-33,.cls-35,.cls-36,.cls-40,.cls-41,.cls-42,.cls-49{stroke:#26a9e0;}.cls-1,.cls-11,.cls-16,.cls-17,.cls-18,.cls-20,.cls-26,.cls-27,.cls-29,.cls-33,.cls-34,.cls-35,.cls-36,.cls-40,.cls-41,.cls-42,.cls-46,.cls-49{stroke-linecap:round;stroke-linejoin:round;}.cls-1{fill:url(#linear-gradient);}.cls-19,.cls-2,.cls-44{font-size:10px;fill:#231f20;}.cls-19,.cls-2{font-family:GothamNarrow-Light, Gotham Narrow;font-weight:300;}.cls-3{letter-spacing:-0.02em;}.cls-4{letter-spacing:0em;}.cls-5{letter-spacing:0em;}.cls-6{letter-spacing:0em;}.cls-7{letter-spacing:0em;}.cls-8{letter-spacing:0em;}.cls-19,.cls-9{letter-spacing:-0.02em;}.cls-10{letter-spacing:-0.02em;}.cls-11{fill:url(#linear-gradient-2);}.cls-12{letter-spacing:-0.01em;}.cls-13{letter-spacing:-0.01em;}.cls-14{letter-spacing:-0.01em;}.cls-15{letter-spacing:-0.01em;}.cls-16{fill:url(#linear-gradient-3);}.cls-17,.cls-34,.cls-46{stroke:#60af46;}.cls-17{fill:url(#linear-gradient-4);}.cls-18{fill:url(#linear-gradient-5);}.cls-20{fill:url(#linear-gradient-6);}.cls-21{letter-spacing:0em;}.cls-22{letter-spacing:-0.02em;}.cls-23{letter-spacing:0em;}.cls-24{letter-spacing:-0.02em;}.cls-25{letter-spacing:-0.01em;}.cls-26{fill:url(#linear-gradient-7);}.cls-27{fill:url(#linear-gradient-8);}.cls-28{letter-spacing:-0.01em;}.cls-29,.cls-46{fill:none;}.cls-30{fill:#26a9e0;}.cls-31{letter-spacing:-0.01em;}.cls-32{letter-spacing:-0.02em;}.cls-33{fill:url(#linear-gradient-9);}.cls-34{fill:url(#linear-gradient-10);}.cls-35{fill:url(#linear-gradient-11);}.cls-36{fill:url(#linear-gradient-12);}.cls-37{letter-spacing:-0.03em;}.cls-38{letter-spacing:-0.01em;}.cls-39{letter-spacing:-0.02em;}.cls-40{fill:url(#linear-gradient-13);}.cls-41{fill:url(#linear-gradient-14);}.cls-42{fill:url(#linear-gradient-15);}.cls-43{letter-spacing:0em;}.cls-44{font-family:Gotham-Medium, Gotham;font-weight:500;}.cls-45{letter-spacing:-0.11em;}.cls-47{fill:#60af46;}.cls-48{letter-spacing:-0.03em;}.cls-49{fill:url(#linear-gradient-16);}</style><linearGradient id="linear-gradient" x1="385.62" y1="444.77" x2="343.7" y2="207.03" gradientUnits="userSpaceOnUse"><stop offset="0" stop-color="#fff"/><stop offset="1" stop-color="#5ac0ed"/></linearGradient><linearGradient id="linear-gradient-2" x1="385.62" y1="654.53" x2="343.7" y2="416.79" xlink:href="#linear-gradient"/><linearGradient id="linear-gradient-3" x1="383.85" y1="542.45" x2="348.41" y2="341.46" xlink:href="#linear-gradient"/><linearGradient id="linear-gradient-4" x1="242.12" y1="842.92" x2="206.68" y2="641.93" gradientUnits="userSpaceOnUse"><stop offset="0" stop-color="#fff"/><stop offset="1" stop-color="#a2ce60"/></linearGradient><linearGradient id="linear-gradient-5" x1="242.12" y1="542.45" x2="206.68" y2="341.46" xlink:href="#linear-gradient"/><linearGradient id="linear-gradient-6" x1="383.85" y1="757.88" x2="348.41" y2="556.89" xlink:href="#linear-gradient"/><linearGradient id="linear-gradient-7" x1="242.12" y1="757.88" x2="206.68" y2="556.89" xlink:href="#linear-gradient"/><linearGradient id="linear-gradient-8" x1="242.12" y1="644.5" x2="206.68" y2="443.51" xlink:href="#linear-gradient"/><linearGradient id="linear-gradient-9" x1="100.39" y1="202.29" x2="64.95" y2="1.3" xlink:href="#linear-gradient"/><linearGradient id="linear-gradient-10" x1="100.39" y1="117.25" x2="64.95" y2="-83.74" xlink:href="#linear-gradient-4"/><linearGradient id="linear-gradient-11" x1="383.85" y1="202.29" x2="348.41" y2="1.3" xlink:href="#linear-gradient"/><linearGradient id="linear-gradient-12" x1="243.89" y1="212.33" x2="201.97" y2="-25.41" xlink:href="#linear-gradient"/><linearGradient id="linear-gradient-13" x1="242.12" y1="327.02" x2="206.68" y2="126.03" xlink:href="#linear-gradient"/><linearGradient id="linear-gradient-14" x1="100.39" y1="327.02" x2="64.95" y2="126.03" xlink:href="#linear-gradient"/><linearGradient id="linear-gradient-15" x1="242.12" y1="434.73" x2="206.68" y2="233.74" xlink:href="#linear-gradient"/><linearGradient id="linear-gradient-16" x1="383.85" y1="327.02" x2="348.41" y2="126.03" xlink:href="#linear-gradient"/></defs><title>ISI Workflow revised_Source</title><polygon class="cls-1" points="430.87 379.84 374.17 425.2 317.48 379.84 374.17 334.49 430.87 379.84"/><text class="cls-2" transform="translate(346.37 370.5)">Di<tspan class="cls-3" x="8.84" y="0">r</tspan><tspan class="cls-4" x="12.06" y="0">e</tspan><tspan class="cls-5" x="17.11" y="0">c</tspan><tspan class="cls-6" x="21.83" y="0">t</tspan><tspan class="cls-7" x="25.2" y="0">-</tspan><tspan class="cls-6" x="28.83" y="0">a</tspan><tspan class="cls-8" x="33.75" y="0">t</tspan><tspan x="37.15" y="0">tach</tspan><tspan x="23.34" y="12">or</tspan><tspan class="cls-9"><tspan x="12.44" y="24">F</tspan><tspan class="cls-4" x="17.71" y="24">abri</tspan><tspan class="cls-10" x="33.96" y="24">c</tspan><tspan class="cls-4" x="38.53" y="24">?</tspan></tspan></text><polygon class="cls-11" points="430.87 589.61 374.17 634.96 317.48 589.61 374.17 544.25 430.87 589.61"/><text class="cls-2" transform="translate(353.68 580.27)"><tspan class="cls-12">C</tspan><tspan class="cls-4" x="6.03" y="0">ompl</tspan><tspan class="cls-7" x="27.61" y="0">e</tspan><tspan class="cls-13" x="32.64" y="0">t</tspan><tspan x="35.93" y="0">e</tspan><tspan class="cls-14" x="-17.78" y="12">sy</tspan><tspan class="cls-15" x="-8.77" y="12">s</tspan><tspan class="cls-13" x="-4.61" y="12">t</tspan><tspan x="-1.32" y="12">em s</tspan><tspan class="cls-7" x="18.62" y="12">e</tspan><tspan x="23.65" y="12">tup and </tspan><tspan class="cls-13" x="-7.63" y="24">c</tspan><tspan x="-3.02" y="24">o</tspan><tspan class="cls-7" x="2.45" y="24">n</tspan><tspan x="7.76" y="24">figu</tspan><tspan class="cls-3" x="24.06" y="24">r</tspan><tspan class="cls-6" x="27.28" y="24">a</tspan><tspan x="32.2" y="24">tion</tspan></text><rect class="cls-16" x="317.48" y="459.21" width="113.39" height="56.69"/><rect class="cls-17" x="175.75" y="759.69" width="113.39" height="56.69"/><text class="cls-2" transform="translate(346.37 483.89)">Di<tspan class="cls-3" x="8.84" y="0">r</tspan><tspan class="cls-4" x="12.06" y="0">e</tspan><tspan class="cls-5" x="17.11" y="0">c</tspan><tspan class="cls-6" x="21.83" y="0">t</tspan><tspan class="cls-7" x="25.2" y="0">-</tspan><tspan class="cls-6" x="28.83" y="0">a</tspan><tspan class="cls-8" x="33.75" y="0">t</tspan><tspan x="37.15" y="0">tach</tspan><tspan class="cls-13" x="8.67" y="12">t</tspan><tspan x="11.96" y="12">opology</tspan></text><rect class="cls-18" x="175.75" y="459.21" width="113.39" height="56.69"/><text class="cls-19" transform="translate(198.99 489.56)">F<tspan class="cls-4" x="5.27" y="0">abric </tspan><tspan class="cls-13" x="28.65" y="0">t</tspan><tspan class="cls-4" x="31.94" y="0">opology</tspan></text><rect class="cls-20" x="317.48" y="674.65" width="113.39" height="56.69"/><text class="cls-2" transform="translate(345.23 693.65)">Manageme<tspan class="cls-7" x="46.78" y="0">n</tspan><tspan x="52.09" y="0">t </tspan><tspan class="cls-6" x="-11.29" y="12">P</tspan><tspan class="cls-21" x="-5.58" y="12">ort </tspan><tspan class="cls-12" x="9.13" y="12">C</tspan><tspan x="15.16" y="12">o</tspan><tspan class="cls-5" x="20.63" y="12">n</tspan><tspan class="cls-4" x="25.94" y="12">figu</tspan><tspan class="cls-22" x="42.24" y="12">r</tspan><tspan class="cls-6" x="45.46" y="12">a</tspan><tspan x="50.38" y="12">tion </tspan><tspan x="-17.25" y="24">with </tspan><tspan class="cls-23" x="3.57" y="24">S</tspan><tspan x="9" y="24">t</tspan><tspan class="cls-6" x="12.42" y="24">a</tspan><tspan x="17.34" y="24">tic IP </tspan><tspan class="cls-24" x="40.62" y="24">A</tspan><tspan x="47.16" y="24">dd</tspan><tspan class="cls-3" x="58.46" y="24">r</tspan><tspan x="61.68" y="24">e</tspan><tspan class="cls-25" x="66.73" y="24">s</tspan><tspan class="cls-4" x="70.9" y="24">s</tspan></text><rect class="cls-26" x="175.75" y="674.65" width="113.39" height="56.69"/><text class="cls-2" transform="translate(194.5 699.32)">Manageme<tspan class="cls-7" x="46.78" y="0">n</tspan><tspan x="52.09" y="0">t port</tspan><tspan class="cls-13" x="-14.32" y="12">c</tspan><tspan x="-9.71" y="12">o</tspan><tspan class="cls-7" x="-4.24" y="12">n</tspan><tspan x="1.07" y="12">figu</tspan><tspan class="cls-3" x="17.37" y="12">r</tspan><tspan class="cls-6" x="20.58" y="12">a</tspan><tspan x="25.5" y="12">tion with DHCP</tspan></text><rect class="cls-27" x="175.75" y="561.26" width="113.39" height="56.69"/><text class="cls-2" transform="translate(184.43 580.27)"><tspan class="cls-12">C</tspan><tspan class="cls-4" x="6.03" y="0">onne</tspan><tspan class="cls-7" x="27.21" y="0">c</tspan><tspan x="31.93" y="0">t and </tspan><tspan class="cls-28" x="56.06" y="0">c</tspan><tspan x="60.67" y="0">o</tspan><tspan class="cls-7" x="66.14" y="0">n</tspan><tspan x="71.45" y="0">figu</tspan><tspan class="cls-3" x="87.75" y="0">r</tspan><tspan x="90.97" y="0">e</tspan><tspan x="11.77" y="12">the manageme</tspan><tspan class="cls-7" x="75.51" y="12">n</tspan><tspan x="80.82" y="12">t</tspan><tspan class="cls-28" x="24.55" y="24">c</tspan><tspan x="29.16" y="24">onne</tspan><tspan class="cls-7" x="50.34" y="24">c</tspan><tspan x="55.06" y="24">tion</tspan></text><polyline class="cls-29" points="345.83 402.52 345.83 430.87 232.44 430.87 232.44 452.34"/><path class="cls-30" d="M227.64,445.51a.5.5,0,0,1,.69.15l4.11,6.45,4.11-6.45a.5.5,0,1,1,.84.54l-4.53,7.11a.5.5,0,0,1-.84,0l-4.53-7.11a.56.56,0,0,1-.08-.27A.48.48,0,0,1,227.64,445.51Z"/><line class="cls-29" x1="402.52" y1="402.52" x2="402.52" y2="452.34"/><path class="cls-30" d="M397.72,445.51a.5.5,0,0,1,.69.15l4.11,6.45,4.11-6.45a.5.5,0,0,1,.84.54l-4.53,7.11a.5.5,0,0,1-.84,0l-4.53-7.11a.47.47,0,0,1-.08-.27A.48.48,0,0,1,397.72,445.51Z"/><polyline class="cls-29" points="345.83 612.28 345.83 646.3 232.44 646.3 232.44 667.77"/><path class="cls-30" d="M227.64,660.94a.5.5,0,0,1,.69.15l4.11,6.46,4.11-6.46a.5.5,0,0,1,.84.54l-4.53,7.11a.49.49,0,0,1-.84,0l-4.53-7.11a.53.53,0,0,1-.08-.27A.51.51,0,0,1,227.64,660.94Z"/><line class="cls-29" x1="402.52" y1="612.28" x2="402.52" y2="667.77"/><path class="cls-30" d="M397.72,660.94a.5.5,0,0,1,.69.15l4.11,6.46,4.11-6.46a.5.5,0,0,1,.84.54l-4.53,7.11a.49.49,0,0,1-.84,0l-4.53-7.11a.45.45,0,0,1-.08-.27A.51.51,0,0,1,397.72,660.94Z"/><polyline class="cls-29" points="374.17 731.34 374.17 788.03 296 788.03"/><path class="cls-30" d="M302.84,783.23a.5.5,0,0,1-.15.69L296.23,788l6.46,4.11a.5.5,0,1,1-.54.84L295,788.45a.5.5,0,0,1,0-.84l7.12-4.53a.53.53,0,0,1,.27-.08A.51.51,0,0,1,302.84,783.23Z"/><polyline class="cls-29" points="396.85 515.9 396.85 532.91 260.79 532.91 260.79 554.39"/><path class="cls-30" d="M256,547.55a.5.5,0,0,1,.69.16l4.11,6.45,4.11-6.45a.5.5,0,1,1,.84.53l-4.53,7.12a.5.5,0,0,1-.84,0l-4.54-7.12a.48.48,0,0,1-.07-.26A.51.51,0,0,1,256,547.55Z"/><polyline class="cls-29" points="374.17 300.47 374.17 323.15 232.44 323.15 232.44 344.62"/><path class="cls-30" d="M227.64,337.79a.5.5,0,0,1,.69.15l4.11,6.46,4.11-6.46a.5.5,0,1,1,.84.54l-4.53,7.12a.5.5,0,0,1-.84,0l-4.53-7.12a.53.53,0,0,1-.08-.27A.51.51,0,0,1,227.64,337.79Z"/><line class="cls-29" x1="232.44" y1="515.91" x2="232.44" y2="554.39"/><path class="cls-30" d="M227.64,547.55a.5.5,0,0,1,.69.16l4.11,6.45,4.11-6.45a.5.5,0,1,1,.84.53l-4.53,7.12a.5.5,0,0,1-.84,0l-4.53-7.12a.5.5,0,0,1-.08-.26A.51.51,0,0,1,227.64,547.55Z"/><line class="cls-29" x1="232.44" y1="731.34" x2="232.44" y2="752.81"/><path class="cls-30" d="M227.64,746a.5.5,0,0,1,.69.15l4.11,6.46,4.11-6.46a.5.5,0,0,1,.84.54l-4.53,7.11a.49.49,0,0,1-.84,0l-4.53-7.11a.53.53,0,0,1-.08-.27A.49.49,0,0,1,227.64,746Z"/><text class="cls-2" transform="translate(193.59 784.36)"><tspan class="cls-13">A</tspan><tspan x="6.61" y="0">f</tspan><tspan class="cls-28" x="9.74" y="0">t</tspan><tspan x="13.03" y="0">er in</tspan><tspan class="cls-31" x="31.43" y="0">s</tspan><tspan class="cls-4" x="35.59" y="0">talling the</tspan><tspan x="18.98" y="12">ha</tspan><tspan class="cls-3" x="29.28" y="12">r</tspan><tspan x="32.5" y="12">d</tspan><tspan class="cls-32" x="38.15" y="12">w</tspan><tspan class="cls-4" x="45.48" y="12">a</tspan><tspan class="cls-3" x="50.45" y="12">r</tspan><tspan x="53.67" y="12">e</tspan></text><rect class="cls-33" x="34.02" y="119.06" width="113.39" height="56.69"/><rect class="cls-34" x="34.02" y="34.02" width="113.39" height="56.69"/><rect class="cls-35" x="317.48" y="119.06" width="113.39" height="56.69"/><text class="cls-2" transform="translate(43.01 64.36)">P<tspan class="cls-3" x="5.75" y="0">r</tspan><tspan class="cls-4" x="8.97" y="0">epa</tspan><tspan class="cls-3" x="24.64" y="0">r</tspan><tspan x="27.86" y="0">e </tspan><tspan class="cls-12" x="35.29" y="0">f</tspan><tspan x="38.32" y="0">or in</tspan><tspan class="cls-15" x="57.14" y="0">s</tspan><tspan x="61.3" y="0">tall</tspan><tspan class="cls-6" x="74.07" y="0">a</tspan><tspan x="78.99" y="0">tion</tspan></text><polygon class="cls-36" points="289.13 147.4 232.44 192.76 175.75 147.4 232.44 102.05 289.13 147.4"/><text class="cls-2" transform="translate(46.51 143.73)"><tspan class="cls-12">R</tspan><tspan x="6.09" y="0">e</tspan><tspan class="cls-13" x="11.14" y="0">c</tspan><tspan x="15.75" y="0">ei</tspan><tspan class="cls-37" x="22.99" y="0">v</tspan><tspan class="cls-38" x="27.76" y="0">e</tspan><tspan x="32.71" y="0">, unpack, and</tspan><tspan x="0.17" y="12">i</tspan><tspan class="cls-39" x="2.36" y="12">n</tspan><tspan class="cls-37" x="7.52" y="12">v</tspan><tspan x="12.29" y="12">e</tspan><tspan class="cls-5" x="17.34" y="12">n</tspan><tspan class="cls-28" x="22.65" y="12">t</tspan><tspan x="25.94" y="12">ory equipme</tspan><tspan class="cls-7" x="79.49" y="12">n</tspan><tspan x="84.8" y="12">t</tspan></text><rect class="cls-40" x="175.75" y="243.78" width="113.39" height="56.69"/><rect class="cls-41" x="34.02" y="243.78" width="113.39" height="56.69"/><rect class="cls-42" x="175.75" y="351.5" width="113.39" height="56.69"/><text class="cls-2" transform="translate(336.45 138.06)"><tspan class="cls-12">C</tspan><tspan x="6.03" y="0">o</tspan><tspan class="cls-7" x="11.5" y="0">n</tspan><tspan x="16.81" y="0">ta</tspan><tspan class="cls-7" x="25.2" y="0">c</tspan><tspan x="29.92" y="0">t </tspan><tspan class="cls-43" x="35.72" y="0">c</tspan><tspan x="40.43" y="0">u</tspan><tspan class="cls-31" x="45.76" y="0">s</tspan><tspan class="cls-13" x="49.92" y="0">t</tspan><tspan x="53.21" y="0">omer</tspan><tspan x="-0.61" y="12">support </tspan><tspan class="cls-13" x="34.98" y="12">t</tspan><tspan x="38.27" y="12">o </tspan><tspan class="cls-3" x="46.12" y="12">r</tspan><tspan x="49.34" y="12">e</tspan><tspan class="cls-28" x="54.39" y="12">c</tspan><tspan x="59" y="12">ei</tspan><tspan class="cls-37" x="66.24" y="12">v</tspan><tspan x="71.01" y="12">e</tspan><tspan x="9" y="24">mi</tspan><tspan class="cls-25" x="19.46" y="24">s</tspan><tspan class="cls-4" x="23.63" y="24">sing i</tspan><tspan class="cls-13" x="45.6" y="24">t</tspan><tspan class="cls-4" x="48.89" y="24">ems</tspan></text><text class="cls-2" transform="translate(212.82 138.06)">Do I h<tspan class="cls-32" x="24.63" y="0">a</tspan><tspan class="cls-37" x="29.42" y="0">v</tspan><tspan x="34.19" y="0">e</tspan><tspan class="cls-3" x="-6.51" y="12">e</tspan><tspan class="cls-37" x="-1.69" y="12">v</tspan><tspan x="3.08" y="12">erything I </tspan><tspan x="0.65" y="24">o</tspan><tspan class="cls-3" x="6.12" y="24">r</tspan><tspan x="9.33" y="24">de</tspan><tspan class="cls-3" x="20.03" y="24">r</tspan><tspan class="cls-4" x="23.25" y="24">ed?</tspan></text><text class="cls-44" transform="translate(287.57 138.06)">No</text><text class="cls-44" transform="translate(206.88 200.43)"><tspan class="cls-45">Y</tspan><tspan x="6.06" y="0">es</tspan></text><line class="cls-46" x1="90.71" y1="90.71" x2="90.71" y2="112.18"/><path class="cls-47" d="M85.91,105.35a.5.5,0,0,1,.69.15L90.71,112l4.11-6.46a.5.5,0,1,1,.84.54l-4.53,7.11a.49.49,0,0,1-.84,0L85.76,106a.45.45,0,0,1-.08-.27A.49.49,0,0,1,85.91,105.35Z"/><line class="cls-29" x1="147.4" y1="147.4" x2="168.88" y2="147.4"/><path class="cls-30" d="M162,152.2a.49.49,0,0,1,.16-.69l6.45-4.11-6.45-4.11a.49.49,0,0,1-.16-.69.5.5,0,0,1,.69-.15l7.12,4.53a.5.5,0,0,1,0,.84l-7.12,4.53a.43.43,0,0,1-.27.08A.51.51,0,0,1,162,152.2Z"/><line class="cls-29" x1="289.13" y1="147.4" x2="310.61" y2="147.4"/><path class="cls-30" d="M303.77,152.2a.5.5,0,0,1,.16-.69l6.45-4.11-6.45-4.11a.5.5,0,1,1,.53-.84l7.12,4.53a.5.5,0,0,1,0,.84l-7.12,4.53a.42.42,0,0,1-.26.08A.51.51,0,0,1,303.77,152.2Z"/><polyline class="cls-29" points="232.44 192.76 232.44 215.43 90.71 215.43 90.71 236.91"/><path class="cls-30" d="M85.91,230.07a.5.5,0,0,1,.69.16l4.11,6.45,4.11-6.45a.5.5,0,1,1,.84.53l-4.53,7.12a.5.5,0,0,1-.84,0l-4.53-7.12a.42.42,0,0,1-.08-.26A.51.51,0,0,1,85.91,230.07Z"/><polyline class="cls-29" points="374.17 175.75 374.17 215.43 239.31 215.43"/><path class="cls-30" d="M246.15,210.63a.49.49,0,0,1-.16.69l-6.45,4.11,6.45,4.11a.49.49,0,0,1,.16.69.5.5,0,0,1-.69.16l-7.12-4.54a.5.5,0,0,1,0-.84l7.12-4.53a.5.5,0,0,1,.26-.08A.51.51,0,0,1,246.15,210.63Z"/><text class="cls-2" transform="translate(57.31 274.13)">In<tspan class="cls-31" x="7.75" y="0">s</tspan><tspan x="11.91" y="0">tall ha</tspan><tspan class="cls-3" x="37.36" y="0">r</tspan><tspan x="40.58" y="0">d</tspan><tspan class="cls-32" x="46.23" y="0">w</tspan><tspan x="53.56" y="0">a</tspan><tspan class="cls-22" x="58.53" y="0">r</tspan><tspan x="61.75" y="0">e</tspan></text><text class="cls-2" transform="translate(189.19 370.5)">Cable the d<tspan class="cls-6" x="48.2" y="0">a</tspan><tspan x="53.12" y="0">ta ho</tspan><tspan class="cls-15" x="74.69" y="0">s</tspan><tspan x="78.85" y="0">ts</tspan><tspan x="11.98" y="12">based on </tspan><tspan class="cls-48" x="53.1" y="12">y</tspan><tspan class="cls-21" x="57.9" y="12">our </tspan><tspan x="15.1" y="24">n</tspan><tspan class="cls-7" x="20.43" y="24">e</tspan><tspan class="cls-23" x="25.46" y="24">t</tspan><tspan class="cls-3" x="28.85" y="24">w</tspan><tspan class="cls-4" x="36.13" y="24">ork </tspan><tspan class="cls-23" x="52.25" y="24">t</tspan><tspan x="55.64" y="24">ype</tspan></text><text class="cls-2" transform="translate(210.99 268.46)"><tspan class="cls-6">P</tspan><tspan class="cls-3" x="5.7" y="0">ow</tspan><tspan x="18.22" y="0">er the</tspan><tspan class="cls-28" x="-15.36" y="12">c</tspan><tspan x="-10.75" y="12">o</tspan><tspan class="cls-7" x="-5.28" y="12">n</tspan><tspan x="0.03" y="12">t</tspan><tspan class="cls-3" x="3.45" y="12">r</tspan><tspan x="6.67" y="12">oller shel</tspan><tspan class="cls-48" x="44.2" y="12">v</tspan><tspan x="48.97" y="12">es</tspan></text><rect class="cls-49" x="317.48" y="243.78" width="113.39" height="56.69"/><text class="cls-2" transform="translate(336.59 262.79)"><tspan class="cls-12">C</tspan><tspan class="cls-4" x="6.03" y="0">ompl</tspan><tspan class="cls-7" x="27.61" y="0">e</tspan><tspan class="cls-13" x="32.64" y="0">t</tspan><tspan x="35.93" y="0">e </tspan><tspan class="cls-15" x="43.36" y="0">s</tspan><tspan class="cls-13" x="47.52" y="0">t</tspan><tspan class="cls-4" x="50.81" y="0">o</tspan><tspan class="cls-3" x="56.28" y="0">r</tspan><tspan x="59.5" y="0">age</tspan><tspan class="cls-14" x="0.5" y="12">sy</tspan><tspan class="cls-15" x="9.51" y="12">s</tspan><tspan class="cls-13" x="13.67" y="12">t</tspan><tspan x="16.96" y="12">em s</tspan><tspan class="cls-7" x="36.9" y="12">e</tspan><tspan x="41.93" y="12">tup and</tspan><tspan class="cls-13" x="9.46" y="24">c</tspan><tspan x="14.08" y="24">o</tspan><tspan class="cls-7" x="19.54" y="24">n</tspan><tspan x="24.85" y="24">figu</tspan><tspan class="cls-3" x="41.15" y="24">r</tspan><tspan class="cls-6" x="44.37" y="24">a</tspan><tspan x="49.29" y="24">tion</tspan></text><line class="cls-29" x1="147.4" y1="272.13" x2="168.88" y2="272.13"/><path class="cls-30" d="M162,276.93a.49.49,0,0,1,.16-.69l6.45-4.11L162.2,268a.49.49,0,0,1-.16-.69.5.5,0,0,1,.69-.16l7.12,4.53a.54.54,0,0,1,.23.43.5.5,0,0,1-.23.42l-7.12,4.53a.5.5,0,0,1-.69-.15Z"/><line class="cls-29" x1="289.13" y1="272.13" x2="310.61" y2="272.13"/><path class="cls-30" d="M303.77,276.93a.5.5,0,0,1,.16-.69l6.45-4.11L303.93,268a.5.5,0,1,1,.53-.85l7.12,4.53a.54.54,0,0,1,.23.43.5.5,0,0,1-.23.42l-7.12,4.53a.5.5,0,0,1-.26.08A.51.51,0,0,1,303.77,276.93Z"/><line class="cls-29" x1="289.13" y1="589.61" x2="310.61" y2="589.61"/><path class="cls-30" d="M303.77,594.41a.5.5,0,0,1,.16-.69l6.45-4.11-6.45-4.11a.5.5,0,0,1,.53-.85l7.12,4.53a.54.54,0,0,1,.23.43.5.5,0,0,1-.23.42l-7.12,4.53a.5.5,0,0,1-.26.08A.51.51,0,0,1,303.77,594.41Z"/><line class="cls-29" x1="289.13" y1="379.84" x2="310.61" y2="379.84"/><path class="cls-30" d="M303.77,384.64a.5.5,0,0,1,.16-.69l6.45-4.11-6.45-4.11a.5.5,0,1,1,.53-.84l7.12,4.53a.5.5,0,0,1,0,.84l-7.12,4.54a.48.48,0,0,1-.26.07A.51.51,0,0,1,303.77,384.64Z"/></svg>