<svg xmlns="http://www.w3.org/2000/svg" viewBox="0 0 216 124.84"><defs><style>.cls-1{fill:#1a1a1a;}.cls-1,.cls-8{fill-rule:evenodd;}.cls-2{fill:#f2f2f2;}.cls-3{fill:#a6a7aa;}.cls-4,.cls-8{fill:#fff;}.cls-5{fill:#a5a6a9;}.cls-6{fill:#cfd1d2;}.cls-7{fill:#808184;}.cls-9{fill:#262626;}.cls-10{fill:#59595c;}.cls-11,.cls-12,.cls-13,.cls-14,.cls-15{fill:none;stroke-miterlimit:10;}.cls-11{stroke:#fff;stroke-width:5px;}.cls-11,.cls-12,.cls-14{stroke-linecap:round;}.cls-12{stroke:#80bb4e;}.cls-12,.cls-13,.cls-14,.cls-15{stroke-width:3px;}.cls-13{stroke:#6b9d41;}.cls-13,.cls-15{stroke-dasharray:6 6;}.cls-14{stroke:#26a7df;}.cls-15{stroke:#0d72b9;}.cls-16{fill:#80bb4e;}.cls-17{fill:#26a7df;}</style></defs><title>Fabric Topo_Source</title><g id="Rulers"><path class="cls-1" d="M46.58,116.19h156.2a.92.92,0,0,0,.92-.93V87a.93.93,0,0,0-.92-.93H46.58a.93.93,0,0,0-.92.93v28.23A.92.92,0,0,0,46.58,116.19Z"/><rect class="cls-2" x="202.63" y="86.49" width="2.55" height="29.73"/><path class="cls-3" d="M205.17,116.29h-2.54a.06.06,0,0,1-.06-.06V86.49a.06.06,0,0,1,.06-.06h2.54a.07.07,0,0,1,.07.06v29.74A.07.07,0,0,1,205.17,116.29Zm-2.48-.13h2.42V86.56h-2.42Z"/><rect class="cls-2" x="44.42" y="86.49" width="2.55" height="29.73"/><path class="cls-3" d="M47,116.29H44.42a.06.06,0,0,1-.06-.06V86.49a.06.06,0,0,1,.06-.06H47a.06.06,0,0,1,.06.06v29.74A.06.06,0,0,1,47,116.29Zm-2.48-.13h2.42V86.56H44.49Z"/><rect class="cls-2" x="43.59" y="115.95" width="162.41" height="0.64"/><path class="cls-3" d="M206.07,116.66H43.53v-.77H206.07Zm-162.41-.13H205.94V116H43.66Z"/><path class="cls-2" d="M44.1,86.49H205.49a.36.36,0,0,0,.37-.37h0a.36.36,0,0,0-.37-.35H44.1a.36.36,0,0,0-.36.35A.36.36,0,0,0,44.1,86.49Z"/><path class="cls-3" d="M205.49,86.56H44.1a.43.43,0,1,1,0-.86H205.49a.43.43,0,1,1,0,.86ZM44.1,85.83a.31.31,0,0,0-.3.29.31.31,0,0,0,.3.31H205.49a.31.31,0,0,0,.31-.31.31.31,0,0,0-.31-.29Z"/><rect class="cls-4" x="43.59" y="85.77" width="0.83" height="30.83"/><path class="cls-3" d="M44.42,116.66h-.83a.06.06,0,0,1-.06-.06V85.77a.07.07,0,0,1,.06-.07h.83a.07.07,0,0,1,.07.07V116.6A.07.07,0,0,1,44.42,116.66Zm-.76-.13h.7V85.83h-.7"/><rect class="cls-4" x="205.17" y="85.77" width="0.83" height="30.83"/><path class="cls-3" d="M206,116.66h-.83a.06.06,0,0,1-.06-.06V85.77a.07.07,0,0,1,.06-.07H206a.07.07,0,0,1,.07.07V116.6A.07.07,0,0,1,206,116.66Zm-.06-30.83h-.7v30.7h.7"/><rect class="cls-4" x="47.36" y="87.51" width="155.13" height="13.49"/><path class="cls-5" d="M202.59,101.1H47.25V87.41H202.59Zm-155.13-.2H202.38V87.62H47.46Z"/><g id="Canister_Chassis" data-name="Canister Chassis"><rect class="cls-6" x="49.32" y="86.75" width="151.21" height="14.25" rx="0.42"/><path class="cls-7" d="M200.11,101.1H49.73a.51.51,0,0,1-.52-.51V87.17a.52.52,0,0,1,.52-.52H200.11a.52.52,0,0,1,.52.52v13.42A.51.51,0,0,1,200.11,101.1ZM49.73,86.86a.31.31,0,0,0-.31.31v13.42a.31.31,0,0,0,.31.31H200.11a.31.31,0,0,0,.32-.31V87.17a.31.31,0,0,0-.32-.31Z"/></g><rect class="cls-4" x="49.94" y="87.29" width="27.7" height="13.18"/><path class="cls-5" d="M77.75,100.57H49.84V87.18H77.75Zm-27.7-.2H77.54v-13H50.05Z"/><path class="cls-8" d="M199.26,89H138.93a1.24,1.24,0,0,0-.82.3l-3,2.53a1.29,1.29,0,0,1-.82.3h-4.94a1.29,1.29,0,0,1-.82-.3l-3-2.53a1.24,1.24,0,0,0-.82-.3H79.19a.75.75,0,0,1-.75-.76V86.86H200V88.2A.76.76,0,0,1,199.26,89Z"/><path class="cls-5" d="M134.33,92.19h-4.94a1.38,1.38,0,0,1-.89-.33l-3-2.52a1.14,1.14,0,0,0-.75-.28H79.19a.86.86,0,0,1-.86-.86V86.76H200.11V88.2a.85.85,0,0,1-.85.86H138.93a1.14,1.14,0,0,0-.75.28l-3,2.52A1.35,1.35,0,0,1,134.33,92.19ZM78.54,87V88.2a.65.65,0,0,0,.65.65h45.6a1.35,1.35,0,0,1,.88.33l3,2.53a1.19,1.19,0,0,0,.75.27h4.94a1.21,1.21,0,0,0,.75-.27l3-2.53a1.38,1.38,0,0,1,.89-.33h60.33a.66.66,0,0,0,.65-.65V87Z"/><circle class="cls-4" cx="131.77" cy="89.63" r="0.9"/><path class="cls-5" d="M131.77,90.63a1,1,0,1,1,1-1A1,1,0,0,1,131.77,90.63Zm0-1.79a.8.8,0,0,0,0,1.59.8.8,0,1,0,0-1.59Z"/><circle class="cls-4" cx="131.77" cy="89.63" r="1.7"/><path class="cls-5" d="M131.77,91.44a1.81,1.81,0,1,1,1.81-1.81A1.81,1.81,0,0,1,131.77,91.44Zm0-3.4a1.6,1.6,0,1,0,1.6,1.59A1.6,1.6,0,0,0,131.77,88Z"/><polygon class="cls-8" points="132.55 89.82 132.55 89.44 132.09 89.44 131.96 89.31 131.96 88.85 131.58 88.85 131.58 89.31 131.45 89.44 130.99 89.44 130.99 89.82 131.45 89.82 131.58 89.96 131.58 90.41 131.96 90.41 131.96 89.96 132.09 89.82 132.55 89.82"/><path class="cls-5" d="M132.06,90.52h-.58V90l-.07-.08h-.52v-.58h.52l.07-.07v-.52h.58v.52l.08.07h.52v.58h-.52l-.08.08Zm-.37-.21h.17v-.4l.19-.19h.4v-.17h-.4l-.19-.2V89h-.17v.39l-.2.2h-.4v.17h.4l.2.19Z"/><rect class="cls-9" x="139.88" y="89.64" width="4.85" height="2.89"/><path class="cls-6" d="M144.75,92.55h-4.89V89.62h4.89Zm-4.85,0h4.81V89.66H139.9Z"/><rect class="cls-9" x="144.79" y="89.65" width="4.85" height="2.89"/><path class="cls-6" d="M149.66,92.55h-4.89V89.62h4.89Zm-4.85,0h4.81V89.67h-4.81Z"/><rect class="cls-9" x="149.7" y="89.65" width="4.85" height="2.89"/><path class="cls-6" d="M154.57,92.55h-4.89V89.62h4.89Zm-4.85,0h4.8V89.67h-4.8Z"/><rect class="cls-9" x="154.61" y="89.65" width="4.85" height="2.89"/><path class="cls-6" d="M159.48,92.55h-4.89V89.62h4.89Zm-4.85,0h4.8V89.67h-4.8Z"/><rect class="cls-4" x="200.77" y="88.08" width="1.47" height="2.95"/><path class="cls-5" d="M202.34,91.14h-1.67V88h1.67Zm-1.46-.21h1.26V88.18h-1.26Z"/><rect class="cls-4" x="201.22" y="86.86" width="0.57" height="3.76"/><path class="cls-5" d="M201.89,90.72h-.77v-4h.77Zm-.56-.2h.36V87h-.36Z"/><rect class="cls-4" x="200.77" y="91.8" width="1.47" height="2.17"/><path class="cls-5" d="M202.34,94.07h-1.67V91.7h1.67Zm-1.46-.2h1.26v-2h-1.26Z"/><rect class="cls-4" x="200.53" y="90.49" width="1.96" height="2.12"/><path class="cls-5" d="M202.59,92.71h-2.17V90.39h2.17Zm-2-.2h1.75V90.59h-1.75Z"/><polygon class="cls-8" points="202.49 101 200.53 101 200.53 95.67 200.77 93.78 202.24 93.78 202.49 95.67 202.49 101"/><path class="cls-5" d="M202.59,101.1h-2.17V95.67l.26-2h1.65l.26,2Zm-2-.2h1.75V95.67l-.23-1.78h-1.29l-.23,1.79Z"/><path class="cls-8" d="M200.93,96.12l.36-1.53a.25.25,0,0,1,.24-.2h0a.26.26,0,0,1,.25.2l.35,1.53a.13.13,0,0,1,0,.06v2.07a.25.25,0,0,1-.25.25h-.71a.25.25,0,0,1-.25-.25V96.12Z"/><path class="cls-5" d="M201.89,98.61h-.71a.36.36,0,0,1-.36-.36V96.18s0-.06,0-.08l.36-1.54a.35.35,0,0,1,.34-.28.36.36,0,0,1,.35.28l.35,1.54a.22.22,0,0,1,0,.08v2.07A.36.36,0,0,1,201.89,98.61Zm-.36-4.12a.14.14,0,0,0-.14.12L201,96.14v2.11a.15.15,0,0,0,.15.15h.71a.15.15,0,0,0,.15-.15V96.18a.08.08,0,0,0,0,0l-.35-1.53A.16.16,0,0,0,201.53,94.49Z"/><rect class="cls-4" x="47.61" y="88.08" width="1.47" height="2.95"/><path class="cls-5" d="M49.17,91.14H47.5V88h1.67Zm-1.46-.21H49V88.18H47.71Z"/><rect class="cls-4" x="48.06" y="86.86" width="0.57" height="3.76"/><path class="cls-5" d="M48.73,90.72H48v-4h.78Zm-.57-.2h.36V87h-.36Z"/><rect class="cls-4" x="47.61" y="91.8" width="1.47" height="2.17"/><path class="cls-5" d="M49.17,94.07H47.5V91.7h1.67Zm-1.46-.2H49v-2H47.71Z"/><rect class="cls-4" x="47.36" y="90.49" width="1.96" height="2.12"/><path class="cls-5" d="M49.42,92.71H47.25V90.39h2.17Zm-2-.2h1.76V90.59H47.46Z"/><polygon class="cls-8" points="49.32 101 47.36 101 47.36 95.67 47.61 93.78 49.07 93.78 49.32 95.67 49.32 101"/><path class="cls-5" d="M49.42,101.1H47.25V95.67l.27-2h1.64l.26,2Zm-2-.2h1.76V95.67L49,93.89H47.7l-.24,1.79Z"/><path class="cls-8" d="M47.76,96.12l.36-1.53a.25.25,0,0,1,.25-.2h0a.25.25,0,0,1,.24.2L49,96.12v2.13a.25.25,0,0,1-.25.25H48a.25.25,0,0,1-.25-.25V96.12Z"/><path class="cls-5" d="M48.72,98.61H48a.36.36,0,0,1-.36-.36V96.18s0-.05,0-.08h0L48,94.56a.35.35,0,0,1,.69,0l.36,1.54s0,.05,0,.08v2.07A.36.36,0,0,1,48.72,98.61Zm-.85-2.47a.08.08,0,0,0,0,0v2.07a.15.15,0,0,0,.15.15h.71a.15.15,0,0,0,.15-.15V96.14l-.36-1.53a.14.14,0,0,0-.14-.12.14.14,0,0,0-.15.12Z"/><path class="cls-4" d="M49.94,87.36H77.37a.28.28,0,0,1,.28.28v13.08a0,0,0,0,1,0,0H49.94a0,0,0,0,1,0,0V87.36A0,0,0,0,1,49.94,87.36Z"/><path class="cls-5" d="M77.75,100.83H49.84V87.25H77.37a.39.39,0,0,1,.38.39ZM50,100.62H77.55v-13a.18.18,0,0,0-.18-.18H50Z"/><path class="cls-4" d="M73.81,92.5h3.7a0,0,0,0,1,0,0v7.67a.55.55,0,0,1-.55.55H73.81a0,0,0,0,1,0,0V92.5A0,0,0,0,1,73.81,92.5Z"/><path class="cls-5" d="M77,100.83H73.71V92.4h3.9v7.77A.66.66,0,0,1,77,100.83Zm-3-.21h3a.45.45,0,0,0,.45-.45V92.6H73.92Z"/><rect class="cls-4" x="64.56" y="87.6" width="9.47" height="11.23" rx="0.44"/><path class="cls-5" d="M73.59,98.93H65a.55.55,0,0,1-.54-.55V88a.55.55,0,0,1,.54-.55h8.59a.55.55,0,0,1,.55.55V98.38A.55.55,0,0,1,73.59,98.93ZM65,87.7a.34.34,0,0,0-.34.34V98.38a.34.34,0,0,0,.34.34h8.59a.34.34,0,0,0,.34-.34V88a.34.34,0,0,0-.34-.34Z"/><rect class="cls-4" x="50.59" y="86.75" width="13.97" height="13.97" rx="0.45"/><path class="cls-5" d="M64.11,100.83H51a.55.55,0,0,1-.55-.55V87.2a.55.55,0,0,1,.55-.55H64.11a.55.55,0,0,1,.55.55v13.08A.55.55,0,0,1,64.11,100.83ZM51,86.86a.34.34,0,0,0-.34.34v13.08a.34.34,0,0,0,.34.34H64.11a.35.35,0,0,0,.35-.34V87.2a.35.35,0,0,0-.35-.34Z"/><path class="cls-4" d="M63.94,91.67a6.73,6.73,0,0,0-4.35-4.31h-4a6.68,6.68,0,0,0-4.35,4.31v4.14a6.69,6.69,0,0,0,12.72,0Z"/><path class="cls-5" d="M57.58,100.53a6.78,6.78,0,0,1-6.46-4.69v-4.2a6.81,6.81,0,0,1,4.41-4.38h4.09A6.77,6.77,0,0,1,64,91.64v4.2A6.76,6.76,0,0,1,57.58,100.53Zm-6.26-4.74a6.58,6.58,0,0,0,12.51,0v-4.1a6.61,6.61,0,0,0-4.26-4.23h-4a6.61,6.61,0,0,0-4.26,4.23Z"/><path class="cls-4" d="M62.76,98.2a.25.25,0,0,0-.31-.18,5.57,5.57,0,0,1-4.94-.84h.07a3.44,3.44,0,0,0,3.3-2.47.21.21,0,0,0,.12-.07,6.15,6.15,0,0,0,1.34-5.9.25.25,0,1,0-.48.13A5.58,5.58,0,0,1,61,93.8v-.06a3.43,3.43,0,0,0-2.47-3.3.24.24,0,0,0-.07-.12A6.17,6.17,0,0,0,52.57,89a.25.25,0,0,0,.13.49,5.54,5.54,0,0,1,4.94.84h-.06a3.44,3.44,0,0,0-3.31,2.47.25.25,0,0,0-.12.07,6.15,6.15,0,0,0-1.34,5.9.26.26,0,0,0,.24.19h.07a.26.26,0,0,0,.18-.31,5.51,5.51,0,0,1,.84-4.93s0,0,0,.06A3.45,3.45,0,0,0,56.6,97a.32.32,0,0,0,.08.12,6.13,6.13,0,0,0,4.09,1.59,6.86,6.86,0,0,0,1.81-.25A.25.25,0,0,0,62.76,98.2Z"/><path class="cls-5" d="M53.05,99a.35.35,0,0,1-.34-.26,6.24,6.24,0,0,1,1.37-6,.31.31,0,0,1,.11-.08,3.57,3.57,0,0,1,3.12-2.49,5.42,5.42,0,0,0-4.58-.64.36.36,0,0,1-.27,0,.34.34,0,0,1-.16-.21.32.32,0,0,1,0-.27.38.38,0,0,1,.22-.17,6.25,6.25,0,0,1,6,1.37.31.31,0,0,1,.09.11,3.57,3.57,0,0,1,2.48,3.13,5.48,5.48,0,0,0,.65-4.59.35.35,0,0,1,.25-.43.32.32,0,0,1,.27,0,.36.36,0,0,1,.16.22,6.24,6.24,0,0,1-1.36,6,.27.27,0,0,1-.12.09,3.54,3.54,0,0,1-3.12,2.48,5.46,5.46,0,0,0,4.58.65.36.36,0,0,1,.27,0,.41.41,0,0,1,.17.22.35.35,0,0,1-.25.43,6.26,6.26,0,0,1-6-1.36.25.25,0,0,1-.08-.12A3.56,3.56,0,0,1,54,94a5.42,5.42,0,0,0-.64,4.58.36.36,0,0,1,0,.27.34.34,0,0,1-.22.17Zm4.53-8.63a3.36,3.36,0,0,0-3.21,2.4v0l-.06,0a.1.1,0,0,0-.07,0,6.06,6.06,0,0,0-1.32,5.8.15.15,0,0,0,.18.11.16.16,0,0,0,.09-.07.14.14,0,0,0,0-.11,5.61,5.61,0,0,1,.85-5l.2-.27v.36a3.35,3.35,0,0,0,2.39,3.23l.06,0V97a.21.21,0,0,0,0,.07,6.08,6.08,0,0,0,5.81,1.32.15.15,0,0,0,.11-.18h0a.2.2,0,0,0-.07-.09.14.14,0,0,0-.11,0,5.66,5.66,0,0,1-5-.86l-.27-.19h.4a3.36,3.36,0,0,0,3.2-2.4v-.05l.06,0s.06,0,.07,0a6.05,6.05,0,0,0,1.32-5.81.13.13,0,0,0-.07-.09.14.14,0,0,0-.11,0,.14.14,0,0,0-.1.18,5.65,5.65,0,0,1-.86,5l-.19.27v-.37a3.34,3.34,0,0,0-2.39-3.22l-.06,0v0a.15.15,0,0,0,0-.08,6.08,6.08,0,0,0-5.81-1.32.16.16,0,0,0-.09.07.14.14,0,0,0,0,.11.15.15,0,0,0,.06.09.17.17,0,0,0,.12,0,5.67,5.67,0,0,1,5,.85l.27.2Z"/><circle class="cls-4" cx="57.58" cy="93.74" r="2.37"/><path class="cls-5" d="M57.58,96.21a2.47,2.47,0,1,1,2.47-2.47A2.48,2.48,0,0,1,57.58,96.21Zm0-4.74a2.27,2.27,0,1,0,2.26,2.27A2.27,2.27,0,0,0,57.58,91.47Z"/><path class="cls-4" d="M62.7,89.48h0a.85.85,0,0,1-.84-.84v-1.3a.45.45,0,0,1,.45-.45h1.8a.35.35,0,0,1,.35.34V98h0v2.25a.34.34,0,0,1-.34.34h-1.8a.45.45,0,0,1-.45-.45V98.83a.84.84,0,0,1,.84-.83h0a.47.47,0,0,0,.36-.18,6.9,6.9,0,0,0,.65-1.1,3.45,3.45,0,0,0,.34-1.48v-3a3.59,3.59,0,0,0-.36-1.5A6.5,6.5,0,0,0,63,89.68.44.44,0,0,0,62.7,89.48Z"/><path class="cls-5" d="M64.12,100.69h-1.8a.55.55,0,0,1-.55-.55V98.83a1,1,0,0,1,.94-.94.36.36,0,0,0,.29-.14,6.28,6.28,0,0,0,.64-1.08A3.36,3.36,0,0,0,64,95.24v-3a3.37,3.37,0,0,0-.35-1.46A5.6,5.6,0,0,0,63,89.74c-.09-.11-.16-.16-.25-.16a.94.94,0,0,1-.94-.94v-1.3a.56.56,0,0,1,.55-.56h1.8a.45.45,0,0,1,.45.45v13A.45.45,0,0,1,64.12,100.69ZM62.31,87a.34.34,0,0,0-.34.35v1.3a.74.74,0,0,0,.73.74.53.53,0,0,1,.41.23,6.41,6.41,0,0,1,.69,1.11,3.63,3.63,0,0,1,.37,1.55v3a3.46,3.46,0,0,1-.35,1.52,6.13,6.13,0,0,1-.66,1.12.54.54,0,0,1-.44.22.74.74,0,0,0-.75.73v1.31a.35.35,0,0,0,.35.35h1.8a.24.24,0,0,0,.24-.24v-13a.24.24,0,0,0-.24-.24Z"/><path class="cls-4" d="M52.47,89.48h0a.85.85,0,0,0,.84-.84V87.33a.45.45,0,0,0-.45-.45h-1.8a.35.35,0,0,0-.35.34V98h0v2.25a.35.35,0,0,0,.35.35h1.8a.45.45,0,0,0,.45-.45V98.83a.85.85,0,0,0-.84-.84h0a.43.43,0,0,1-.36-.18,6.48,6.48,0,0,1-.65-1.1,3.28,3.28,0,0,1-.34-1.48v-3a3.53,3.53,0,0,1,.34-1.49,8.11,8.11,0,0,1,.72-1.18C52.25,89.48,52.33,89.48,52.47,89.48Z"/><path class="cls-5" d="M52.85,100.69h-1.8a.45.45,0,0,1-.45-.45v-13a.45.45,0,0,1,.45-.44h1.8a.55.55,0,0,1,.55.55v1.31a.94.94,0,0,1-.94.94c-.13,0-.17,0-.23.08a7,7,0,0,0-.71,1.16,3.38,3.38,0,0,0-.33,1.44v3a3.38,3.38,0,0,0,.33,1.44,6.69,6.69,0,0,0,.64,1.08.35.35,0,0,0,.28.14.94.94,0,0,1,.95.94v1.31A.55.55,0,0,1,52.85,100.69Zm-2-2.59v2.14a.24.24,0,0,0,.24.24h1.8a.35.35,0,0,0,.35-.34V98.83a.74.74,0,0,0-.74-.73.55.55,0,0,1-.45-.22,6.5,6.5,0,0,1-.66-1.12A3.5,3.5,0,0,1,51,95.23v-3a3.5,3.5,0,0,1,.35-1.53,7.14,7.14,0,0,1,.73-1.2.41.41,0,0,1,.39-.16.73.73,0,0,0,.73-.73V87.33a.35.35,0,0,0-.34-.35h-1.8a.24.24,0,0,0-.24.24Z"/><circle class="cls-4" cx="63.16" cy="99.33" r="1.1"/><path class="cls-5" d="M63.16,100.53a1.21,1.21,0,1,1,1.21-1.2A1.2,1.2,0,0,1,63.16,100.53Zm0-2.2a1,1,0,1,0,1,1A1,1,0,0,0,63.16,98.33Z"/><circle class="cls-4" cx="51.99" cy="88.15" r="1.1"/><path class="cls-5" d="M52,89.36a1.21,1.21,0,1,1,1.2-1.21A1.21,1.21,0,0,1,52,89.36Zm0-2.21a1,1,0,1,0,1,1A1,1,0,0,0,52,87.15Z"/><circle class="cls-4" cx="63.16" cy="88.15" r="1.1"/><path class="cls-5" d="M63.16,89.36a1.21,1.21,0,1,1,1.21-1.21A1.21,1.21,0,0,1,63.16,89.36Zm0-2.21a1,1,0,1,0,1,1A1,1,0,0,0,63.16,87.15Z"/><polygon class="cls-4" points="63.71 88.28 63.71 88.03 63.4 88.03 63.29 87.92 63.29 87.61 63.04 87.61 63.04 87.92 62.93 88.03 62.62 88.03 62.62 88.28 62.93 88.28 63.04 88.39 63.04 88.69 63.29 88.69 63.29 88.39 63.4 88.28 63.71 88.28"/><path class="cls-5" d="M63.39,88.8h-.46v-.37l0-.05h-.37v-.46h.37l0,0V87.5h.46v.37l0,0h.37v.46h-.37l0,.05Zm-.25-.21h0v-.25l.16-.17h.25v0h-.25L63.19,88v-.25h0V88l-.17.17h-.25v0H63l.17.17Z"/><polygon class="cls-4" points="52.53 88.28 52.53 88.03 52.22 88.03 52.12 87.92 52.12 87.61 51.86 87.61 51.86 87.92 51.76 88.03 51.45 88.03 51.45 88.28 51.76 88.28 51.86 88.39 51.86 88.69 52.12 88.69 52.12 88.39 52.22 88.28 52.53 88.28"/><path class="cls-5" d="M52.22,88.8h-.46v-.37l0-.05h-.37v-.46h.37l0,0V87.5h.46v.37l.05,0h.37v.46h-.37l-.05.05ZM52,88.59h0v-.25l.17-.17h.25v0h-.25L52,88v-.25h0V88l-.17.17h-.25v0h.25l.17.17Z"/><circle class="cls-4" cx="51.99" cy="99.33" r="1.1"/><path class="cls-5" d="M52,100.53a1.21,1.21,0,1,1,1.2-1.2A1.2,1.2,0,0,1,52,100.53Zm0-2.2a1,1,0,1,0,1,1A1,1,0,0,0,52,98.33Z"/><path class="cls-4" d="M63.67,97.84a.27.27,0,0,1-.27-.27V96.15a.14.14,0,0,0-.13-.15.68.68,0,0,1-.67-.69v-2a.27.27,0,1,1,.54,0v2a.14.14,0,0,0,.13.15.68.68,0,0,1,.67.69v1.42A.28.28,0,0,1,63.67,97.84Z"/><path class="cls-5" d="M63.67,98a.38.38,0,0,1-.38-.38V96.15a.08.08,0,0,0,0-.05.77.77,0,0,1-.77-.79v-2a.37.37,0,1,1,.74,0v2s0,0,0,0a.78.78,0,0,1,.77.79v1.42A.38.38,0,0,1,63.67,98Zm-.8-4.79a.17.17,0,0,0-.17.17v2a.59.59,0,0,0,.57.59.24.24,0,0,1,.23.25v1.42a.17.17,0,0,0,.17.17.17.17,0,0,0,.16-.17V96.15a.58.58,0,0,0-.56-.59.24.24,0,0,1-.23-.25v-2A.17.17,0,0,0,62.87,93.16Z"/><path class="cls-4" d="M63.67,95.33a.27.27,0,0,1-.27-.27V92.42a.27.27,0,0,1,.27-.27.28.28,0,0,1,.27.27v2.64A.28.28,0,0,1,63.67,95.33Z"/><path class="cls-5" d="M63.67,95.43a.38.38,0,0,1-.38-.37V92.42a.38.38,0,0,1,.75,0v2.64A.38.38,0,0,1,63.67,95.43Zm0-3.18a.17.17,0,0,0-.17.17v2.64a.16.16,0,0,0,.17.16.16.16,0,0,0,.16-.16V92.42A.17.17,0,0,0,63.67,92.25Z"/><path class="cls-4" d="M51.49,97.83a.27.27,0,0,0,.27-.27V96.14a.14.14,0,0,1,.12-.15.68.68,0,0,0,.67-.69v-2a.27.27,0,0,0-.54,0v2a.14.14,0,0,1-.13.15.68.68,0,0,0-.66.69v1.42A.27.27,0,0,0,51.49,97.83Z"/><path class="cls-5" d="M51.49,97.94a.38.38,0,0,1-.38-.38V96.14a.78.78,0,0,1,.77-.79s0,0,0,0v-2a.38.38,0,1,1,.75,0v2a.78.78,0,0,1-.78.79.08.08,0,0,0,0,0v1.42A.38.38,0,0,1,51.49,97.94Zm.79-4.79a.16.16,0,0,0-.16.17v2a.25.25,0,0,1-.24.25.58.58,0,0,0-.56.59v1.42a.18.18,0,0,0,.17.17.17.17,0,0,0,.16-.17V96.14a.24.24,0,0,1,.23-.25.58.58,0,0,0,.57-.59v-2A.17.17,0,0,0,52.28,93.15Z"/><path class="cls-4" d="M51.49,95.33a.27.27,0,0,0,.27-.27V92.42a.27.27,0,0,0-.54,0v2.64A.27.27,0,0,0,51.49,95.33Z"/><path class="cls-5" d="M51.49,95.43a.38.38,0,0,1-.38-.37V92.42a.38.38,0,0,1,.75,0v2.64A.38.38,0,0,1,51.49,95.43Zm0-3.18a.18.18,0,0,0-.17.17v2.64a.17.17,0,0,0,.17.16.16.16,0,0,0,.16-.16V92.42A.17.17,0,0,0,51.49,92.25Z"/><path class="cls-8" d="M67.59,88.84l-1.2,1.41a.67.67,0,0,0-.16.43v5.06a.69.69,0,0,0,.16.43l1.2,1.41a.68.68,0,0,0,.51.23H72a.67.67,0,0,0,.67-.67V89.27a.67.67,0,0,0-.67-.66H68.1A.68.68,0,0,0,67.59,88.84Z"/><path class="cls-5" d="M72,97.91H68.1a.73.73,0,0,1-.58-.27l-1.21-1.4a.78.78,0,0,1-.18-.51v-5a.77.77,0,0,1,.18-.5l1.21-1.41a.76.76,0,0,1,.58-.27H72a.78.78,0,0,1,.77.77v7.87A.77.77,0,0,1,72,97.91Zm-4.29-9-1.2,1.41a.54.54,0,0,0-.14.36v5a.55.55,0,0,0,.14.37l1.2,1.41a.57.57,0,0,0,.43.2H72a.57.57,0,0,0,.56-.57V89.27a.56.56,0,0,0-.56-.56H68.1a.57.57,0,0,0-.43.2Z"/><rect class="cls-5" x="69.74" y="90.49" width="1.46" height="0.21"/><rect class="cls-5" x="69.74" y="95.72" width="1.46" height="0.21"/><rect class="cls-5" x="67.9" y="93.11" width="1.46" height="0.21"/><circle class="cls-4" cx="75.83" cy="90.35" r="1.01"/><path class="cls-5" d="M75.83,91.46a1.11,1.11,0,1,1,1.11-1.11A1.11,1.11,0,0,1,75.83,91.46Zm0-2a.91.91,0,0,0,0,1.81.91.91,0,1,0,0-1.81Z"/><polygon class="cls-4" points="76.06 89.96 75.61 89.96 75.38 90.35 75.61 90.75 76.06 90.75 76.28 90.35 76.06 89.96"/><path class="cls-5" d="M76.12,90.85h-.57l-.29-.5.29-.49h.57l.28.49Zm-.45-.21H76l.17-.29L76,90.07h-.33l-.17.28Z"/><rect class="cls-4" x="66.24" y="99.09" width="6.4" height="1.5"/><path class="cls-5" d="M72.74,100.69H66.13V99h6.61Zm-6.4-.21h6.19V99.19H66.34Z"/><rect class="cls-4" x="68.23" y="99.09" width="2.42" height="1.5"/><path class="cls-5" d="M70.75,100.69H68.12V99h2.63Zm-2.42-.21h2.21V99.19H68.33Z"/><path class="cls-4" d="M77.21,93.34v2.13H74.76v5.25H77a.51.51,0,0,0,.52-.51h0V93.34Z"/><path class="cls-5" d="M77,100.83H74.66V95.37h2.45V93.24h.5v7A.62.62,0,0,1,77,100.83Zm-2.12-.21H77a.42.42,0,0,0,.42-.41V93.45h-.1v2.12H74.87Z"/><rect class="cls-4" x="73.64" y="94.67" width="1.82" height="6.45" rx="0.58"/><path class="cls-5" d="M74.88,101.22h-.66a.67.67,0,0,1-.68-.68V95.25a.68.68,0,0,1,.68-.68h.66a.68.68,0,0,1,.68.68v5.29A.67.67,0,0,1,74.88,101.22Zm-.66-6.44a.48.48,0,0,0-.48.47v5.29a.49.49,0,0,0,.48.48h.66a.48.48,0,0,0,.47-.48V95.25a.47.47,0,0,0-.47-.47Z"/><path class="cls-4" d="M64,96.94h-.48a.53.53,0,0,0-.53.53v1.19a.52.52,0,0,1-.52.53H52.74a.54.54,0,0,1-.53-.54V97.46a.53.53,0,0,0-.53-.53h-.47a.53.53,0,0,0-.53.53V99.1a1.62,1.62,0,0,0,1.61,1.62H62.86a1.62,1.62,0,0,0,1.62-1.61V97.47A.53.53,0,0,0,64,96.94Z"/><path class="cls-5" d="M62.86,100.83H52.29a1.73,1.73,0,0,1-1.72-1.73V97.46a.64.64,0,0,1,.64-.63h.47a.63.63,0,0,1,.63.63v1.19a.44.44,0,0,0,.43.44h9.68a.42.42,0,0,0,.42-.43V97.47a.63.63,0,0,1,.63-.63H64a.63.63,0,0,1,.63.63v1.64A1.72,1.72,0,0,1,62.86,100.83ZM51.21,97a.42.42,0,0,0-.43.42V99.1a1.52,1.52,0,0,0,1.51,1.52H62.86a1.51,1.51,0,0,0,1.51-1.51V97.47a.42.42,0,0,0-.42-.42h-.48a.42.42,0,0,0-.42.42v1.19a.63.63,0,0,1-.63.63H52.74a.63.63,0,0,1-.63-.64V97.46a.42.42,0,0,0-.43-.42Z"/><rect class="cls-9" x="177.12" y="89.64" width="4.85" height="2.89"/><path class="cls-6" d="M182,92.55H177.1V89.62H182Zm-4.85,0h4.8V89.66h-4.8Z"/><rect class="cls-9" x="182.03" y="89.65" width="4.85" height="2.89"/><path class="cls-6" d="M186.89,92.55H182V89.62h4.88Zm-4.84,0h4.8V89.67h-4.8Z"/><rect class="cls-9" x="186.94" y="89.65" width="4.85" height="2.89"/><path class="cls-6" d="M191.8,92.55h-4.89V89.62h4.89Zm-4.84,0h4.8V89.67H187Z"/><rect class="cls-9" x="191.84" y="89.65" width="4.85" height="2.89"/><path class="cls-6" d="M196.71,92.55h-4.89V89.62h4.89Zm-4.84,0h4.8V89.67h-4.8Z"/><rect class="cls-4" x="47.36" y="102.17" width="155.13" height="13.49"/><path class="cls-5" d="M202.59,115.76H47.25v-13.7H202.59Zm-155.13-.21H202.38V102.27H47.46Z"/><g id="Canister_Chassis-2" data-name="Canister Chassis"><rect class="cls-6" x="49.32" y="101.41" width="151.21" height="14.25" rx="0.42"/><path class="cls-7" d="M200.11,115.76H49.73a.52.52,0,0,1-.52-.52V101.82a.52.52,0,0,1,.52-.52H200.11a.52.52,0,0,1,.52.52v13.42A.52.52,0,0,1,200.11,115.76ZM49.73,101.51a.31.31,0,0,0-.31.31v13.42a.31.31,0,0,0,.31.31H200.11a.31.31,0,0,0,.32-.31V101.82a.31.31,0,0,0-.32-.31Z"/></g><rect class="cls-4" x="49.94" y="101.94" width="27.7" height="13.18"/><path class="cls-5" d="M77.75,115.22H49.84V101.83H77.75Zm-27.7-.2H77.54V102H50.05Z"/><path class="cls-8" d="M199.26,103.61H138.93a1.29,1.29,0,0,0-.82.3l-3,2.53a1.29,1.29,0,0,1-.82.3h-4.94a1.29,1.29,0,0,1-.82-.3l-3-2.53a1.29,1.29,0,0,0-.82-.3H79.19a.75.75,0,0,1-.75-.75v-1.35H200v1.35A.76.76,0,0,1,199.26,103.61Z"/><path class="cls-5" d="M134.33,106.84h-4.94a1.37,1.37,0,0,1-.89-.32l-3-2.53a1.14,1.14,0,0,0-.75-.28H79.19a.86.86,0,0,1-.86-.86v-1.44H200.11v1.44a.85.85,0,0,1-.85.86H138.93a1.14,1.14,0,0,0-.75.28l-3,2.53A1.34,1.34,0,0,1,134.33,106.84Zm-55.79-5.22v1.23a.66.66,0,0,0,.65.66h45.6a1.34,1.34,0,0,1,.88.32l3,2.53a1.14,1.14,0,0,0,.75.28h4.94a1.16,1.16,0,0,0,.75-.28l3-2.53a1.37,1.37,0,0,1,.89-.32h60.33a.66.66,0,0,0,.65-.66v-1.23Z"/><circle class="cls-4" cx="131.77" cy="104.29" r="0.9"/><path class="cls-5" d="M131.77,105.28a1,1,0,1,1,1-1A1,1,0,0,1,131.77,105.28Zm0-1.79a.8.8,0,1,0,.8.8A.8.8,0,0,0,131.77,103.49Z"/><circle class="cls-4" cx="131.77" cy="104.29" r="1.7"/><path class="cls-5" d="M131.77,106.09a1.81,1.81,0,1,1,1.81-1.8A1.81,1.81,0,0,1,131.77,106.09Zm0-3.4a1.6,1.6,0,1,0,1.6,1.6A1.6,1.6,0,0,0,131.77,102.69Z"/><polygon class="cls-8" points="132.55 104.47 132.55 104.1 132.09 104.1 131.96 103.96 131.96 103.5 131.58 103.5 131.58 103.96 131.45 104.1 130.99 104.1 130.99 104.47 131.45 104.47 131.58 104.61 131.58 105.07 131.96 105.07 131.96 104.61 132.09 104.47 132.55 104.47"/><path class="cls-5" d="M132.06,105.17h-.58v-.52l-.07-.07h-.52V104h.52l.07-.07v-.52h.58v.52l.08.07h.52v.59h-.52l-.08.07Zm-.37-.21h.17v-.39l.19-.2h.4v-.17h-.4l-.19-.19v-.4h-.17v.4l-.2.19h-.4v.17h.4l.2.2Z"/><rect class="cls-9" x="139.88" y="104.29" width="4.85" height="2.89"/><path class="cls-6" d="M144.75,107.2h-4.89v-2.93h4.89Zm-4.85,0h4.81v-2.85H139.9Z"/><rect class="cls-9" x="144.79" y="104.3" width="4.85" height="2.89"/><path class="cls-6" d="M149.66,107.2h-4.89v-2.92h4.89Zm-4.85,0h4.81v-2.84h-4.81Z"/><rect class="cls-9" x="149.7" y="104.3" width="4.85" height="2.89"/><path class="cls-6" d="M154.57,107.2h-4.89v-2.92h4.89Zm-4.85,0h4.8v-2.84h-4.8Z"/><rect class="cls-9" x="154.61" y="104.3" width="4.85" height="2.89"/><path class="cls-6" d="M159.48,107.2h-4.89v-2.92h4.89Zm-4.85,0h4.8v-2.84h-4.8Z"/><rect class="cls-4" x="200.77" y="102.73" width="1.47" height="2.95"/><path class="cls-5" d="M202.34,105.79h-1.67v-3.16h1.67Zm-1.46-.21h1.26v-2.74h-1.26Z"/><rect class="cls-4" x="201.22" y="101.51" width="0.57" height="3.76"/><path class="cls-5" d="M201.89,105.38h-.77v-4h.77Zm-.56-.21h.36v-3.55h-.36Z"/><rect class="cls-4" x="200.77" y="106.45" width="1.47" height="2.17"/><path class="cls-5" d="M202.34,108.73h-1.67v-2.38h1.67Zm-1.46-.21h1.26v-2h-1.26Z"/><rect class="cls-4" x="200.53" y="105.14" width="1.96" height="2.12"/><path class="cls-5" d="M202.59,107.37h-2.17V105h2.17Zm-2-.21h1.75v-1.91h-1.75Z"/><polygon class="cls-8" points="202.49 115.65 200.53 115.65 200.53 110.32 200.77 108.44 202.24 108.44 202.49 110.32 202.49 115.65"/><path class="cls-5" d="M202.59,115.76h-2.17v-5.44l.26-2h1.65l.26,2Zm-2-.21h1.75v-5.23l-.23-1.78h-1.29l-.23,1.8Z"/><path class="cls-8" d="M200.93,110.77l.36-1.53a.25.25,0,0,1,.24-.2h0a.26.26,0,0,1,.25.2l.35,1.53a.13.13,0,0,1,0,.06v2.07a.25.25,0,0,1-.25.25h-.71a.25.25,0,0,1-.25-.25v-2.13Z"/><path class="cls-5" d="M201.89,113.26h-.71a.36.36,0,0,1-.36-.36v-2.07s0,0,0-.08l.36-1.54a.34.34,0,0,1,.34-.27.35.35,0,0,1,.35.27l.35,1.54a.22.22,0,0,1,0,.08v2.07A.36.36,0,0,1,201.89,113.26Zm-.36-4.12a.14.14,0,0,0-.14.12L201,110.8v2.1a.15.15,0,0,0,.15.15h.71a.15.15,0,0,0,.15-.15v-2.07a0,0,0,0,0,0,0l-.35-1.54A.16.16,0,0,0,201.53,109.14Z"/><rect class="cls-4" x="47.61" y="102.73" width="1.47" height="2.95"/><path class="cls-5" d="M49.17,105.79H47.5v-3.16h1.67Zm-1.46-.21H49v-2.74H47.71Z"/><rect class="cls-4" x="48.06" y="101.51" width="0.57" height="3.76"/><path class="cls-5" d="M48.73,105.38H48v-4h.78Zm-.57-.21h.36v-3.55h-.36Z"/><rect class="cls-4" x="47.61" y="106.45" width="1.47" height="2.17"/><path class="cls-5" d="M49.17,108.73H47.5v-2.38h1.67Zm-1.46-.21H49v-2H47.71Z"/><rect class="cls-4" x="47.36" y="105.14" width="1.96" height="2.12"/><path class="cls-5" d="M49.42,107.37H47.25V105h2.17Zm-2-.21h1.76v-1.91H47.46Z"/><polygon class="cls-8" points="49.32 115.65 47.36 115.65 47.36 110.32 47.61 108.44 49.07 108.44 49.32 110.32 49.32 115.65"/><path class="cls-5" d="M49.42,115.76H47.25v-5.44l.27-2h1.64l.26,2Zm-2-.21h1.76v-5.23L49,108.54H47.7l-.24,1.8Z"/><path class="cls-8" d="M47.76,110.77l.36-1.53a.25.25,0,0,1,.25-.2h0a.25.25,0,0,1,.24.2l.36,1.53v2.13a.25.25,0,0,1-.25.25H48a.25.25,0,0,1-.25-.25v-2.13Z"/><path class="cls-5" d="M48.72,113.26H48a.36.36,0,0,1-.36-.36v-2.07s0,0,0-.08h0l.36-1.54a.36.36,0,0,1,.69,0l.36,1.54s0,0,0,.08v2.07A.36.36,0,0,1,48.72,113.26Zm-.85-2.46a0,0,0,0,0,0,0v2.07a.15.15,0,0,0,.15.15h.71a.15.15,0,0,0,.15-.15v-2.1l-.36-1.54a.14.14,0,0,0-.14-.12.14.14,0,0,0-.15.12Z"/><path class="cls-4" d="M49.94,102H77.37a.28.28,0,0,1,.28.28v13.08a0,0,0,0,1,0,0H49.94a0,0,0,0,1,0,0V102A0,0,0,0,1,49.94,102Z"/><path class="cls-5" d="M77.75,115.48H49.84V101.91H77.37a.38.38,0,0,1,.38.38ZM50,115.27H77.55v-13a.18.18,0,0,0-.18-.18H50Z"/><path class="cls-4" d="M73.81,107.15h3.7a0,0,0,0,1,0,0v7.67a.55.55,0,0,1-.55.55H73.81a0,0,0,0,1,0,0v-8.22A0,0,0,0,1,73.81,107.15Z"/><path class="cls-5" d="M77,115.48H73.71v-8.43h3.9v7.77A.66.66,0,0,1,77,115.48Zm-3-.21h3a.45.45,0,0,0,.45-.45v-7.56H73.92Z"/><rect class="cls-4" x="64.56" y="102.25" width="9.47" height="11.23" rx="0.44"/><path class="cls-5" d="M73.59,113.58H65a.55.55,0,0,1-.54-.55V102.69a.54.54,0,0,1,.54-.54h8.59a.55.55,0,0,1,.55.54V113A.55.55,0,0,1,73.59,113.58ZM65,102.35a.34.34,0,0,0-.34.34V113a.34.34,0,0,0,.34.34h8.59a.34.34,0,0,0,.34-.34V102.69a.34.34,0,0,0-.34-.34Z"/><rect class="cls-4" x="50.59" y="101.41" width="13.97" height="13.97" rx="0.45"/><path class="cls-5" d="M64.11,115.48H51a.55.55,0,0,1-.55-.55V101.85a.55.55,0,0,1,.55-.55H64.11a.55.55,0,0,1,.55.55v13.08A.55.55,0,0,1,64.11,115.48ZM51,101.51a.34.34,0,0,0-.34.34v13.08a.34.34,0,0,0,.34.34H64.11a.35.35,0,0,0,.35-.34V101.85a.35.35,0,0,0-.35-.34Z"/><path class="cls-4" d="M63.94,106.32A6.73,6.73,0,0,0,59.59,102h-4a6.7,6.7,0,0,0-4.35,4.32v4.13a6.69,6.69,0,0,0,12.72,0Z"/><path class="cls-5" d="M57.58,115.18a6.77,6.77,0,0,1-6.46-4.69v-4.2a6.81,6.81,0,0,1,4.41-4.38h4.09A6.79,6.79,0,0,1,64,106.29v4.2A6.76,6.76,0,0,1,57.58,115.18Zm-6.26-4.74a6.58,6.58,0,0,0,12.51,0v-4.11a6.61,6.61,0,0,0-4.26-4.23h-4a6.61,6.61,0,0,0-4.26,4.23Z"/><path class="cls-4" d="M62.76,112.85a.25.25,0,0,0-.31-.18,5.57,5.57,0,0,1-4.94-.84h.07a3.44,3.44,0,0,0,3.3-2.47.21.21,0,0,0,.12-.07,6.15,6.15,0,0,0,1.34-5.9.24.24,0,0,0-.31-.18.25.25,0,0,0-.17.31,5.57,5.57,0,0,1-.84,4.93v-.06a3.44,3.44,0,0,0-2.47-3.3.24.24,0,0,0-.07-.12,6.19,6.19,0,0,0-5.91-1.35.25.25,0,0,0-.17.31.24.24,0,0,0,.3.18,5.57,5.57,0,0,1,4.94.84h-.06a3.44,3.44,0,0,0-3.31,2.47.25.25,0,0,0-.12.07,6.15,6.15,0,0,0-1.34,5.9.24.24,0,0,0,.24.19h.07a.26.26,0,0,0,.18-.31,5.51,5.51,0,0,1,.84-4.93s0,0,0,.06a3.45,3.45,0,0,0,2.47,3.3.25.25,0,0,0,.08.12,6.14,6.14,0,0,0,4.09,1.6,7.3,7.3,0,0,0,1.81-.25A.27.27,0,0,0,62.76,112.85Z"/><path class="cls-5" d="M53.05,113.68a.35.35,0,0,1-.34-.26,6.24,6.24,0,0,1,1.37-6,.31.31,0,0,1,.11-.08,3.57,3.57,0,0,1,3.12-2.49,5.42,5.42,0,0,0-4.58-.64.36.36,0,0,1-.27,0,.31.31,0,0,1-.16-.21.32.32,0,0,1,0-.27.38.38,0,0,1,.22-.17,6.27,6.27,0,0,1,6,1.37.31.31,0,0,1,.09.11,3.58,3.58,0,0,1,2.48,3.13,5.48,5.48,0,0,0,.65-4.59.35.35,0,0,1,.25-.43.37.37,0,0,1,.27,0,.36.36,0,0,1,.16.22,6.26,6.26,0,0,1-1.36,6,.36.36,0,0,1-.12.08,3.56,3.56,0,0,1-3.12,2.49,5.42,5.42,0,0,0,4.58.64.36.36,0,0,1,.27,0,.36.36,0,0,1,.17.21.36.36,0,0,1-.25.44,6.29,6.29,0,0,1-6-1.37.28.28,0,0,1-.08-.11A3.59,3.59,0,0,1,54,108.65a5.44,5.44,0,0,0-.64,4.59.37.37,0,0,1,0,.27.33.33,0,0,1-.22.16Zm4.53-8.63a3.38,3.38,0,0,0-3.21,2.4v0l-.06,0-.07,0a6.07,6.07,0,0,0-1.32,5.81.15.15,0,0,0,.18.1.13.13,0,0,0,.09-.07.14.14,0,0,0,0-.11,5.61,5.61,0,0,1,.85-5l.2-.27v.36a3.35,3.35,0,0,0,2.39,3.23l.06,0v0a.14.14,0,0,0,0,.07,6.08,6.08,0,0,0,5.81,1.33.15.15,0,0,0,.11-.18h0a.13.13,0,0,0-.07-.09.15.15,0,0,0-.11,0,5.66,5.66,0,0,1-5-.86l-.27-.19h.4a3.36,3.36,0,0,0,3.2-2.4v0l.06,0s.06,0,.07,0a6,6,0,0,0,1.32-5.81.15.15,0,0,0-.07-.09.14.14,0,0,0-.11,0,.14.14,0,0,0-.1.18,5.64,5.64,0,0,1-.86,5l-.19.27v-.36a3.34,3.34,0,0,0-2.39-3.23l-.06,0v0s0-.06,0-.07a6.05,6.05,0,0,0-5.81-1.33.16.16,0,0,0-.09.07.17.17,0,0,0,0,.12.18.18,0,0,0,.06.09.25.25,0,0,0,.12,0,5.65,5.65,0,0,1,5,.86l.27.19Z"/><circle class="cls-4" cx="57.58" cy="108.39" r="2.37"/><path class="cls-5" d="M57.58,110.86a2.47,2.47,0,1,1,2.47-2.47A2.48,2.48,0,0,1,57.58,110.86Zm0-4.73a2.26,2.26,0,1,0,2.26,2.26A2.27,2.27,0,0,0,57.58,106.13Z"/><path class="cls-4" d="M62.7,104.13h0a.84.84,0,0,1-.84-.84V102a.45.45,0,0,1,.45-.45h1.8a.35.35,0,0,1,.35.34v10.77h0v2.25a.34.34,0,0,1-.34.34h-1.8a.45.45,0,0,1-.45-.45v-1.3a.84.84,0,0,1,.84-.84h0a.47.47,0,0,0,.36-.18,6.48,6.48,0,0,0,.65-1.1,3.45,3.45,0,0,0,.34-1.48v-3a3.52,3.52,0,0,0-.36-1.5,6.19,6.19,0,0,0-.68-1.09A.44.44,0,0,0,62.7,104.13Z"/><path class="cls-5" d="M64.12,115.35h-1.8a.56.56,0,0,1-.55-.56v-1.3a.94.94,0,0,1,.94-.94.36.36,0,0,0,.29-.14,7.16,7.16,0,0,0,.64-1.08,3.4,3.4,0,0,0,.32-1.44v-3a3.4,3.4,0,0,0-.35-1.46,6.3,6.3,0,0,0-.66-1.07.31.31,0,0,0-.25-.15,1,1,0,0,1-.94-.95V102a.56.56,0,0,1,.55-.56h1.8a.45.45,0,0,1,.45.45v13A.45.45,0,0,1,64.12,115.35Zm-1.81-13.71A.35.35,0,0,0,62,102v1.3a.74.74,0,0,0,.73.74.51.51,0,0,1,.41.24,6,6,0,0,1,.69,1.1,3.63,3.63,0,0,1,.37,1.55v3a3.5,3.5,0,0,1-.35,1.53,6.37,6.37,0,0,1-.66,1.11.54.54,0,0,1-.44.22.74.74,0,0,0-.75.74v1.3a.35.35,0,0,0,.35.35h1.8a.24.24,0,0,0,.24-.24v-13a.24.24,0,0,0-.24-.24Z"/><path class="cls-4" d="M52.47,104.13h0a.85.85,0,0,0,.84-.84V102a.46.46,0,0,0-.45-.45h-1.8a.35.35,0,0,0-.35.35v10.76h0v2.26a.35.35,0,0,0,.35.34h1.8a.45.45,0,0,0,.45-.45v-1.31a.85.85,0,0,0-.84-.84h0a.45.45,0,0,1-.36-.17,6.9,6.9,0,0,1-.65-1.1,3.35,3.35,0,0,1-.34-1.49v-3a3.45,3.45,0,0,1,.34-1.48,7.16,7.16,0,0,1,.72-1.18A.33.33,0,0,1,52.47,104.13Z"/><path class="cls-5" d="M52.85,115.34h-1.8a.45.45,0,0,1-.45-.44v-13a.45.45,0,0,1,.45-.45h1.8a.55.55,0,0,1,.55.55v1.31a.94.94,0,0,1-.94.94c-.13,0-.17,0-.23.08a7,7,0,0,0-.71,1.16,3.41,3.41,0,0,0-.33,1.44v3a3.38,3.38,0,0,0,.33,1.44,6.28,6.28,0,0,0,.64,1.08.35.35,0,0,0,.28.14.94.94,0,0,1,.95.94v1.31A.55.55,0,0,1,52.85,115.34Zm-2-2.59v2.15a.24.24,0,0,0,.24.24h1.8a.35.35,0,0,0,.35-.35v-1.31a.74.74,0,0,0-.74-.73.55.55,0,0,1-.45-.22,6.5,6.5,0,0,1-.66-1.12,3.5,3.5,0,0,1-.35-1.53v-3a3.5,3.5,0,0,1,.35-1.53,7.14,7.14,0,0,1,.73-1.2.44.44,0,0,1,.39-.16.73.73,0,0,0,.73-.73V102a.34.34,0,0,0-.34-.34h-1.8a.23.23,0,0,0-.24.24Z"/><circle class="cls-4" cx="63.16" cy="113.98" r="1.1"/><path class="cls-5" d="M63.16,115.18a1.21,1.21,0,1,1,1.21-1.2A1.2,1.2,0,0,1,63.16,115.18Zm0-2.2a1,1,0,1,0,1,1A1,1,0,0,0,63.16,113Z"/><circle class="cls-4" cx="51.99" cy="102.8" r="1.1"/><path class="cls-5" d="M52,104a1.21,1.21,0,1,1,1.2-1.21A1.21,1.21,0,0,1,52,104Zm0-2.2a1,1,0,1,0,1,1A1,1,0,0,0,52,101.81Z"/><circle class="cls-4" cx="63.16" cy="102.8" r="1.1"/><path class="cls-5" d="M63.16,104a1.21,1.21,0,1,1,1.21-1.21A1.21,1.21,0,0,1,63.16,104Zm0-2.2a1,1,0,0,0,0,2,1,1,0,1,0,0-2Z"/><polygon class="cls-4" points="63.71 102.93 63.71 102.68 63.4 102.68 63.29 102.57 63.29 102.26 63.04 102.26 63.04 102.57 62.93 102.68 62.62 102.68 62.62 102.93 62.93 102.93 63.04 103.04 63.04 103.35 63.29 103.35 63.29 103.04 63.4 102.93 63.71 102.93"/><path class="cls-5" d="M63.39,103.45h-.46v-.37l0,0h-.37v-.46h.37l0,0v-.37h.46v.37l0,0h.37V103h-.37l0,0Zm-.25-.21h0V103l.16-.16h.25v0h-.25l-.16-.17v-.25h0v.25l-.17.17h-.25v0H63l.17.16Z"/><polygon class="cls-4" points="52.53 102.93 52.53 102.68 52.22 102.68 52.12 102.57 52.12 102.26 51.86 102.26 51.86 102.57 51.76 102.68 51.45 102.68 51.45 102.93 51.76 102.93 51.86 103.04 51.86 103.35 52.12 103.35 52.12 103.04 52.22 102.93 52.53 102.93"/><path class="cls-5" d="M52.22,103.45h-.46v-.37l0,0h-.37v-.46h.37l0,0v-.37h.46v.37l.05,0h.37V103h-.37l-.05,0Zm-.25-.21h0V103l.17-.16h.25v0h-.25l-.17-.17v-.25h0v.25l-.17.17h-.25v0h.25L52,103Z"/><circle class="cls-4" cx="51.99" cy="113.98" r="1.1"/><path class="cls-5" d="M52,115.18a1.21,1.21,0,1,1,1.2-1.2A1.2,1.2,0,0,1,52,115.18Zm0-2.2a1,1,0,1,0,1,1A1,1,0,0,0,52,113Z"/><path class="cls-4" d="M63.67,112.49a.27.27,0,0,1-.27-.27V110.8a.14.14,0,0,0-.13-.15.68.68,0,0,1-.67-.69v-2a.27.27,0,0,1,.54,0v2a.14.14,0,0,0,.13.15.68.68,0,0,1,.67.69v1.42A.28.28,0,0,1,63.67,112.49Z"/><path class="cls-5" d="M63.67,112.6a.38.38,0,0,1-.38-.38V110.8a.08.08,0,0,0,0,0,.77.77,0,0,1-.77-.79v-2a.37.37,0,1,1,.74,0v2s0,.05,0,.05a.78.78,0,0,1,.77.79v1.42A.38.38,0,0,1,63.67,112.6Zm-.8-4.79a.18.18,0,0,0-.17.17v2a.59.59,0,0,0,.57.59.24.24,0,0,1,.23.25v1.42a.16.16,0,0,0,.17.17.16.16,0,0,0,.16-.17V110.8a.58.58,0,0,0-.56-.59A.24.24,0,0,1,63,110v-2A.18.18,0,0,0,62.87,107.81Z"/><path class="cls-4" d="M63.67,110a.27.27,0,0,1-.27-.27v-2.64a.27.27,0,0,1,.27-.27.28.28,0,0,1,.27.27v2.64A.28.28,0,0,1,63.67,110Z"/><path class="cls-5" d="M63.67,110.08a.38.38,0,0,1-.38-.37v-2.64a.38.38,0,0,1,.75,0v2.64A.38.38,0,0,1,63.67,110.08Zm0-3.17a.16.16,0,0,0-.17.16v2.64a.17.17,0,0,0,.17.17.17.17,0,0,0,.16-.17v-2.64A.16.16,0,0,0,63.67,106.91Z"/><path class="cls-4" d="M51.49,112.48a.27.27,0,0,0,.27-.26v-1.43a.14.14,0,0,1,.12-.15.68.68,0,0,0,.67-.69v-2a.27.27,0,0,0-.54,0v2a.14.14,0,0,1-.13.15.68.68,0,0,0-.66.69v1.43A.27.27,0,0,0,51.49,112.48Z"/><path class="cls-5" d="M51.49,112.59a.38.38,0,0,1-.38-.38v-1.42a.79.79,0,0,1,.77-.79s0,0,0,0v-2a.38.38,0,0,1,.75,0v2a.78.78,0,0,1-.78.79.08.08,0,0,0,0,.05v1.42A.38.38,0,0,1,51.49,112.59Zm.79-4.79a.17.17,0,0,0-.16.17v2a.25.25,0,0,1-.24.26.57.57,0,0,0-.56.58v1.42a.17.17,0,0,0,.17.17.16.16,0,0,0,.16-.17v-1.42a.24.24,0,0,1,.23-.25.58.58,0,0,0,.57-.59v-2A.18.18,0,0,0,52.28,107.8Z"/><path class="cls-4" d="M51.49,110a.27.27,0,0,0,.27-.27v-2.64a.27.27,0,0,0-.54,0v2.64A.27.27,0,0,0,51.49,110Z"/><path class="cls-5" d="M51.49,110.08a.38.38,0,0,1-.38-.37v-2.64a.38.38,0,0,1,.75,0v2.64A.38.38,0,0,1,51.49,110.08Zm0-3.17a.17.17,0,0,0-.17.16v2.64a.18.18,0,0,0,.17.17.17.17,0,0,0,.16-.17v-2.64A.16.16,0,0,0,51.49,106.91Z"/><path class="cls-8" d="M67.59,103.49l-1.2,1.41a.7.7,0,0,0-.16.44v5a.67.67,0,0,0,.16.43l1.2,1.41a.68.68,0,0,0,.51.23H72a.67.67,0,0,0,.67-.66v-7.87a.67.67,0,0,0-.67-.67H68.1A.71.71,0,0,0,67.59,103.49Z"/><path class="cls-5" d="M72,112.57H68.1a.76.76,0,0,1-.58-.27l-1.21-1.41a.77.77,0,0,1-.18-.5v-5.06a.77.77,0,0,1,.18-.5l1.21-1.4a.73.73,0,0,1,.58-.27H72a.77.77,0,0,1,.77.77v7.87A.78.78,0,0,1,72,112.57Zm-4.29-9L66.47,105a.54.54,0,0,0-.14.36v5.06a.54.54,0,0,0,.14.36l1.2,1.41a.57.57,0,0,0,.43.2H72a.56.56,0,0,0,.56-.56v-7.87a.57.57,0,0,0-.56-.57H68.1a.57.57,0,0,0-.43.2Z"/><rect class="cls-5" x="69.74" y="105.14" width="1.46" height="0.21"/><rect class="cls-5" x="69.74" y="110.37" width="1.46" height="0.21"/><rect class="cls-5" x="67.9" y="107.76" width="1.46" height="0.21"/><circle class="cls-4" cx="75.83" cy="105.01" r="1.01"/><path class="cls-5" d="M75.83,106.12A1.11,1.11,0,1,1,76.94,105,1.11,1.11,0,0,1,75.83,106.12Zm0-2a.91.91,0,1,0,.91.91A.9.9,0,0,0,75.83,104.1Z"/><polygon class="cls-4" points="76.06 104.61 75.61 104.61 75.38 105.01 75.61 105.4 76.06 105.4 76.28 105.01 76.06 104.61"/><path class="cls-5" d="M76.12,105.5h-.57l-.29-.49.29-.5h.57l.28.5Zm-.45-.21H76l.17-.28-.17-.29h-.33l-.17.29Z"/><rect class="cls-4" x="66.24" y="113.74" width="6.4" height="1.5"/><path class="cls-5" d="M72.74,115.34H66.13v-1.7h6.61Zm-6.4-.2h6.19v-1.3H66.34Z"/><rect class="cls-4" x="68.23" y="113.74" width="2.42" height="1.5"/><path class="cls-5" d="M70.75,115.34H68.12v-1.7h2.63Zm-2.42-.2h2.21v-1.3H68.33Z"/><path class="cls-4" d="M77.21,108v2.12H74.76v5.25H77a.51.51,0,0,0,.52-.51h0V108Z"/><path class="cls-5" d="M77,115.48H74.66V110h2.45v-2.13h.5v7A.62.62,0,0,1,77,115.48Zm-2.12-.21H77a.41.41,0,0,0,.42-.41V108.1h-.1v2.13H74.87Z"/><rect class="cls-4" x="73.64" y="109.33" width="1.82" height="6.45" rx="0.58"/><path class="cls-5" d="M74.88,115.88h-.66a.68.68,0,0,1-.68-.68v-5.3a.68.68,0,0,1,.68-.68h.66a.68.68,0,0,1,.68.68v5.3A.68.68,0,0,1,74.88,115.88Zm-.66-6.45a.48.48,0,0,0-.48.47v5.3a.48.48,0,0,0,.48.47h.66a.47.47,0,0,0,.47-.47v-5.3a.47.47,0,0,0-.47-.47Z"/><path class="cls-4" d="M64,111.59h-.48a.53.53,0,0,0-.53.53v1.2a.52.52,0,0,1-.52.52H52.74a.53.53,0,0,1-.53-.53v-1.2a.53.53,0,0,0-.53-.53h-.47a.53.53,0,0,0-.53.53v1.64a1.62,1.62,0,0,0,1.61,1.62H62.86a1.62,1.62,0,0,0,1.62-1.61v-1.64A.53.53,0,0,0,64,111.59Z"/><path class="cls-5" d="M62.86,115.48H52.29a1.73,1.73,0,0,1-1.72-1.73v-1.64a.64.64,0,0,1,.64-.63h.47a.63.63,0,0,1,.63.63v1.2a.44.44,0,0,0,.43.43h9.68a.42.42,0,0,0,.42-.42v-1.2a.63.63,0,0,1,.63-.63H64a.63.63,0,0,1,.63.63v1.64A1.72,1.72,0,0,1,62.86,115.48Zm-11.65-3.79a.42.42,0,0,0-.43.42v1.64a1.52,1.52,0,0,0,1.51,1.52H62.86a1.51,1.51,0,0,0,1.51-1.51v-1.64a.42.42,0,0,0-.42-.42h-.48a.42.42,0,0,0-.42.42v1.2a.64.64,0,0,1-.63.63H52.74a.64.64,0,0,1-.63-.64v-1.2a.42.42,0,0,0-.43-.42Z"/><rect class="cls-9" x="177.12" y="104.29" width="4.85" height="2.89"/><path class="cls-6" d="M182,107.2H177.1v-2.93H182Zm-4.85,0h4.8v-2.85h-4.8Z"/><rect class="cls-9" x="182.03" y="104.3" width="4.85" height="2.89"/><path class="cls-6" d="M186.89,107.2H182v-2.92h4.88Zm-4.84,0h4.8v-2.84h-4.8Z"/><rect class="cls-9" x="186.94" y="104.3" width="4.85" height="2.89"/><path class="cls-6" d="M191.8,107.2h-4.89v-2.92h4.89Zm-4.84,0h4.8v-2.84H187Z"/><rect class="cls-9" x="191.84" y="104.3" width="4.85" height="2.89"/><path class="cls-6" d="M196.71,107.2h-4.89v-2.92h4.89Zm-4.84,0h4.8v-2.84h-4.8Z"/><rect class="cls-6" x="44" y="8.18" width="71.29" height="18"/><rect class="cls-10" x="54.59" y="13.13" width="13.3" height="8.08"/><rect class="cls-10" x="82.14" y="13.13" width="13.3" height="8.08"/><rect class="cls-6" x="134.27" y="8.18" width="71.29" height="18"/><rect class="cls-10" x="144.86" y="13.13" width="13.3" height="8.08"/><rect class="cls-10" x="172.42" y="13.13" width="13.3" height="8.08"/><rect class="cls-10" x="49.44" y="42.87" width="65.33" height="27.9"/><rect class="cls-6" x="53.66" y="46.71" width="13.3" height="8.08"/><rect class="cls-6" x="68.21" y="46.71" width="13.3" height="8.08"/><rect class="cls-6" x="82.75" y="46.71" width="13.3" height="8.08"/><rect class="cls-6" x="97.29" y="46.71" width="13.3" height="8.08"/><rect class="cls-6" x="53.66" y="58.84" width="13.3" height="8.08"/><rect class="cls-6" x="68.21" y="58.84" width="13.3" height="8.08"/><rect class="cls-6" x="82.75" y="58.84" width="13.3" height="8.08"/><rect class="cls-6" x="97.29" y="58.84" width="13.3" height="8.08"/><rect class="cls-10" x="133.14" y="42.87" width="65.33" height="27.9"/><rect class="cls-6" x="137.36" y="46.71" width="13.3" height="8.08"/><rect class="cls-6" x="151.91" y="46.71" width="13.3" height="8.08"/><rect class="cls-6" x="166.45" y="46.71" width="13.3" height="8.08"/><rect class="cls-6" x="180.99" y="46.71" width="13.3" height="8.08"/><rect class="cls-6" x="137.36" y="58.84" width="13.3" height="8.08"/><rect class="cls-6" x="151.91" y="58.84" width="13.3" height="8.08"/><rect class="cls-6" x="166.45" y="58.84" width="13.3" height="8.08"/><rect class="cls-6" x="180.99" y="58.84" width="13.3" height="8.08"/><path class="cls-11" d="M61.24,17.18c0,25.46-.93,9.7-.93,33.57"/><path class="cls-12" d="M61.24,17.18c0,25.46-.93,9.7-.93,33.57"/><path class="cls-13" d="M61.24,17.18c0,25.46-.93,9.7-.93,33.57"/><path class="cls-11" d="M88.79,17.18c0,19.83,55.22,8,55.22,33.57"/><path class="cls-12" d="M88.79,17.18c0,19.83,55.22,8,55.22,33.57"/><path class="cls-13" d="M88.79,17.18c0,19.83,55.22,8,55.22,33.57"/><path class="cls-11" d="M151.51,17.18c2.34,21.13-73,8.19-76.65,33.57"/><path class="cls-12" d="M151.51,17.18c2.34,21.13-73,8.19-76.65,33.57"/><path class="cls-11" d="M179.07,17.18c0,15-20.51,16.2-20.51,33.57"/><path class="cls-12" d="M179.07,17.18c0,15-20.51,16.2-20.51,33.57"/><path class="cls-11" d="M60.31,62.88c0,20.58,82,15.38,82,28"/><path class="cls-14" d="M60.31,62.88c0,20.58,82,15.38,82,28"/><path class="cls-15" d="M60.31,62.88c0,20.58,82,15.38,82,28"/><path class="cls-11" d="M179.36,89.51C172.42,74.16,149.72,76.86,144,62.88"/><path class="cls-14" d="M179.36,89.51C172.42,74.16,149.72,76.86,144,62.88"/><path class="cls-15" d="M179.36,89.51C172.42,74.16,149.72,76.86,144,62.88"/><path class="cls-11" d="M158.56,62.88c3.13,10.14,44.13,14,21.57,41.68"/><path class="cls-14" d="M158.56,62.88c3.13,10.14,44.13,14,21.57,41.68"/><path class="cls-11" d="M74.86,62.88c-2.34,38.51,63.63,20,67.44,42.62"/><path class="cls-14" d="M74.86,62.88c-2.34,38.51,63.63,20,67.44,42.62"/><rect class="cls-16" x="9.93" y="10.4" width="25.74" height="13.89"/><path class="cls-4" d="M19.6,22.6V20.85H22V14.32l-2.13.84-.37-1.84L22.6,12.1h1.45v8.75h2.08V22.6Z"/><rect class="cls-17" x="9.93" y="48.84" width="25.74" height="13.89"/><path class="cls-4" d="M19.42,59.33l3.07-3.16c1.1-1.13,1.5-1.7,1.5-2.46a1.16,1.16,0,0,0-1.25-1.23c-.73,0-1.24.41-1.91,1.23l-1.4-1.32a4.06,4.06,0,0,1,3.47-1.9,3,3,0,0,1,3.28,3v0c0,1.46-.67,2.3-2.22,3.8l-1.74,1.77h4v1.94H19.42Z"/></g></svg>