<svg xmlns="http://www.w3.org/2000/svg" viewBox="0 0 86.66 60.03"><defs><style>.cls-1{fill:#749dd2;}.cls-2{fill:#1b75bb;}.cls-3{fill:#2868b1;}.cls-4{fill:#404041;}.cls-5{fill:#d9d9d9;}.cls-6{fill:#fff;}.cls-7{fill:#2d2a26;}.cls-8{fill:#58595b;}.cls-9{fill:#a6a8ab;}</style></defs><title>Flashlight_Source</title><g id="Rulers"><path class="cls-1" d="M71.73,5.24a4.64,4.64,0,0,0-2.25-.72,2.07,2.07,0,0,0-1,.25h0L31.93,25.87h0a2,2,0,0,1,1-.25,4.64,4.64,0,0,1,2.25.71,13.3,13.3,0,0,1,5.91,10.24c0,.8-.14,2.44-1.23,3.06h0l36.54-21.1h0c1.09-.63,1.23-2.26,1.23-3.06A13.28,13.28,0,0,0,71.73,5.24Z"/><path class="cls-2" d="M35.2,26.33A4.64,4.64,0,0,0,33,25.62a2,2,0,0,0-1,.25c-1.09.62-1.23,2.26-1.23,3.06a13.3,13.3,0,0,0,5.91,10.24,4.67,4.67,0,0,0,2.25.72,2,2,0,0,0,1-.26c1.09-.62,1.23-2.26,1.23-3.06A13.3,13.3,0,0,0,35.2,26.33Z"/><path class="cls-3" d="M68.28,7.23A4.67,4.67,0,0,0,66,6.51a1.94,1.94,0,0,0-1,.26h0L28.48,27.86h0a2,2,0,0,1,1-.25,4.75,4.75,0,0,1,2.25.71,13.32,13.32,0,0,1,5.91,10.25c0,.79-.14,2.43-1.23,3.06h0L73,20.53h0c1.1-.62,1.24-2.26,1.24-3.06A13.28,13.28,0,0,0,68.28,7.23Z"/><path class="cls-4" d="M31.75,28.32a4.75,4.75,0,0,0-2.25-.71,2,2,0,0,0-1,.25c-1.09.63-1.23,2.27-1.23,3.06a13.3,13.3,0,0,0,5.91,10.24,4.67,4.67,0,0,0,2.25.72,2.11,2.11,0,0,0,1-.25c1.09-.63,1.23-2.27,1.23-3.06A13.32,13.32,0,0,0,31.75,28.32Z"/><path class="cls-3" d="M29.25,24.89c-2.79-1.61-5.33-1.77-7.16-.71L12,30,26.31,54.84,36.42,49h0c1.83-1.06,3-3.33,3-6.56C39.39,36,34.85,28.12,29.25,24.89Z"/><ellipse class="cls-1" cx="19.14" cy="42.43" rx="8.27" ry="14.33" transform="translate(-18.65 15.26) rotate(-30)"/><path class="cls-5" d="M25.48,41.27a4.78,4.78,0,0,1-2.17-3.75c0-.83.36-1.37.91-1.51a18.1,18.1,0,0,0-5.09-4.65,8.21,8.21,0,0,0-4-1.23c-2.83,0-4.52,2.3-4.52,6.15a19.51,19.51,0,0,0,2.82,9.44,19.51,19.51,0,0,0,6.77,7.17,8.2,8.2,0,0,0,4,1.24c2.84,0,4.53-2.3,4.53-6.15a17.87,17.87,0,0,0-1.48-6.74A1.38,1.38,0,0,1,25.48,41.27Z"/><path class="cls-6" d="M24.22,36c-.55.14-.91.68-.91,1.51a4.78,4.78,0,0,0,2.17,3.75,1.38,1.38,0,0,0,1.76,0,22.79,22.79,0,0,0-1.35-2.71A23.41,23.41,0,0,0,24.22,36Z"/><path class="cls-1" d="M44.33,19.56a18.44,18.44,0,0,0-8.44,4.87c-1.88,2.11-1.17,3.35,1.6,2.76a12.52,12.52,0,0,0,2.37-.77l-.37,0c-1.77,0-2.48-1.24-1.6-2.76a6.08,6.08,0,0,1,4.78-2.76c1.76,0,2.48,1.23,1.6,2.76-.06.1-.13.21-.21.32a13.49,13.49,0,0,0,1.86-1.67C47.81,20.22,47.1,19,44.33,19.56Z"/><path class="cls-7" d="M39.7,26.18h-.21a1.71,1.71,0,0,1-1.58-.69,1.72,1.72,0,0,1,.2-1.7,5.84,5.84,0,0,1,4.56-2.63,1.7,1.7,0,0,1,1.57.68,1.69,1.69,0,0,1-.19,1.7c-.06.1-.12.2-.19.3a21,21,0,0,1-4.09,2.34Z"/><path class="cls-8" d="M42.67,21.42A1.52,1.52,0,0,1,44,22a1.54,1.54,0,0,1-.19,1.46l-.14.21a20,20,0,0,1-4,2.29h-.25a1.52,1.52,0,0,1-1.36-.56,1.52,1.52,0,0,1,.19-1.45,5.66,5.66,0,0,1,4.35-2.51m0-.5a6.08,6.08,0,0,0-4.78,2.76c-.88,1.52-.17,2.76,1.6,2.76l.37,0A20.84,20.84,0,0,0,44.06,24c.08-.11.15-.22.21-.32.88-1.53.16-2.76-1.6-2.76Z"/><path class="cls-9" d="M38.45,24.72c-.46,0-.78-.11-.88-.31s0-.66.33-1.13a7.08,7.08,0,0,1,4.42-2.55h.28c.46,0,.78.11.88.31s0,.66-.33,1.13a7.06,7.06,0,0,1-4.42,2.55Z"/><path class="cls-4" d="M42.6,21.22a1,1,0,0,1,.42.06,1.43,1.43,0,0,1-.28.59,6.48,6.48,0,0,1-4.06,2.34h-.23a1.26,1.26,0,0,1-.42-.06,1.52,1.52,0,0,1,.28-.59,6.46,6.46,0,0,1,4.06-2.34h.23m0-1h-.32A7.46,7.46,0,0,0,37.5,23c-.91,1.28-.47,2.23,1,2.23h.32a7.49,7.49,0,0,0,4.79-2.77c.9-1.28.46-2.22-1-2.22Z"/><ellipse class="cls-5" cx="40.34" cy="22.39" rx="3.32" ry="1.54" transform="translate(-5.79 23.17) rotate(-30)"/></g></svg>