<svg xmlns="http://www.w3.org/2000/svg" viewBox="0 0 200 87"><defs><style>.cls-1{fill:#bbbdbf;}.cls-1,.cls-2,.cls-3,.cls-4,.cls-5,.cls-6,.cls-7{stroke:#6d6e70;stroke-linejoin:round;stroke-width:0.28px;}.cls-2{fill:#b3b3b3;}.cls-3{fill:#a6a8ab;}.cls-4{fill:#e6e7e8;}.cls-5{fill:#d0d2d3;}.cls-6{fill:#f1f1f2;}.cls-7{fill:#b6b6b7;}.cls-8{font-size:11.93px;fill:#404041;font-family:HelveticaNeueLTStd-Roman, Helvetica Neue LT Std;}</style></defs><g id="Rulers"><polygon class="cls-1" points="114.79 54.42 103.09 47.63 103.09 10 114.79 16.79 114.79 54.42"/><polygon class="cls-2" points="90.05 17.58 89.23 17.1 92.68 15.1 93.5 15.57 90.05 17.58"/><polygon class="cls-2" points="75.55 26 74.73 25.52 71.28 27.53 72.09 28 75.55 26"/><path class="cls-3" d="M74.79,64.07,62.5,71.21V33.58l13-7.58V62.61A1.83,1.83,0,0,1,74.79,64.07Z"/><path class="cls-3" d="M74.73,25.52l-3.45,2V25.25a1,1,0,0,1,.42-.82l2.61-1.51c.23-.14.42,0,.42.32Z"/><path class="cls-3" d="M90.8,54.77l12.3-7.14V10l-13,7.58V54.19C90.05,54.76,90.39,55,90.8,54.77Z"/><polygon class="cls-4" points="76.27 59.98 89.32 52.4 89.32 17.86 76.27 25.44 76.27 59.98"/><polygon class="cls-5" points="69.02 56.61 69.02 64.19 96.57 48.19 96.57 40.62 69.02 56.61"/><path class="cls-3" d="M89.23,17.1l3.45-2V12.82c0-.32-.19-.46-.42-.33L89.65,14a1.05,1.05,0,0,0-.42.82Z"/><polygon class="cls-6" points="89.32 17.86 76.27 25.44 78.73 26.87 91.78 19.29 89.32 17.86"/><polygon class="cls-1" points="75.55 47.77 75.55 33.83 78 35.25 78 49.19 75.55 47.77"/><polygon class="cls-7" points="90.05 39.27 90.05 25.34 92.5 26.76 92.5 40.7 90.05 39.27"/><polygon class="cls-1" points="78 49.19 92.5 40.77 92.5 26.76 78 35.18 78 49.19"/><polygon class="cls-1" points="74.2 78 62.5 71.21 62.5 33.58 74.2 40.37 74.2 78"/><polygon class="cls-4" points="114.79 54.42 74.2 78 74.2 69.98 114.79 46.4 114.79 54.42"/><path class="cls-4" d="M94.49,28.58,74.2,40.37V50.62c2.59-1.51,2.87.1,2.87.1L94.49,40.6l17.42-10.11s.28-1.94,2.88-3.45V16.79Z"/><text class="cls-8" transform="translate(118.72 47.38) scale(0.99 1)">× 4</text></g></svg>