<svg xmlns="http://www.w3.org/2000/svg" viewBox="0 0 324 234"><defs><style>.cls-1,.cls-26,.cls-27,.cls-31,.cls-32,.cls-33,.cls-34,.cls-35,.cls-36,.cls-37,.cls-39,.cls-40,.cls-41,.cls-42,.cls-43,.cls-44,.cls-45,.cls-46,.cls-47,.cls-48{fill:none;}.cls-1,.cls-31{stroke:#a2aaad;}.cls-1,.cls-31,.cls-32{stroke-linecap:round;}.cls-1,.cls-31,.cls-32,.cls-34,.cls-35,.cls-36,.cls-37,.cls-39,.cls-40,.cls-41,.cls-42,.cls-43,.cls-44,.cls-45,.cls-46,.cls-47,.cls-48{stroke-linejoin:round;}.cls-1{stroke-width:1.2px;}.cls-2,.cls-25,.cls-3{fill:#d0d3d4;}.cls-19,.cls-3,.cls-33{stroke:#fff;}.cls-19,.cls-21,.cls-26,.cls-27,.cls-3,.cls-33{stroke-miterlimit:10;}.cls-19,.cls-3{stroke-width:0.5px;}.cls-4,.cls-8{fill:#a2aaad;}.cls-17,.cls-5{fill:#101820;}.cls-6{fill:#333f48;}.cls-16,.cls-7{fill:#fff;}.cls-11,.cls-12,.cls-13,.cls-16,.cls-17,.cls-18,.cls-19,.cls-25,.cls-27,.cls-28,.cls-30,.cls-8{fill-rule:evenodd;}.cls-21,.cls-9{fill:#f1f1f2;}.cls-10,.cls-13{fill:#595959;}.cls-11,.cls-14{fill:#666;}.cls-12{fill:#f4855c;}.cls-15{fill:#ccc;}.cls-18{fill:#292929;}.cls-19,.cls-22{fill:#ededed;}.cls-20{fill:#e8e7de;}.cls-21{stroke:#d0d3d4;stroke-width:0.25px;}.cls-23{fill:#999;}.cls-24{fill:#eee;}.cls-26,.cls-27{stroke:#ededed;stroke-width:0.46px;}.cls-28{fill:#4d4d4d;}.cls-29{fill:#555;}.cls-30{fill:#6a6a6a;}.cls-31,.cls-32{stroke-width:1.2px;}.cls-32{stroke:#ff7500;}.cls-33{stroke-width:3.5px;}.cls-34{stroke:#005cb9;}.cls-34,.cls-35,.cls-36,.cls-37,.cls-39,.cls-40,.cls-41,.cls-42,.cls-43,.cls-44,.cls-45,.cls-46,.cls-47,.cls-48{stroke-width:1.58px;}.cls-35,.cls-36,.cls-37,.cls-39,.cls-40,.cls-41,.cls-42,.cls-43,.cls-44,.cls-45,.cls-46,.cls-47,.cls-48{stroke:#b2292e;}.cls-36{stroke-dasharray:2.99 2.99;}.cls-37{stroke-dasharray:3 3;}.cls-38{fill:#005cb9;}.cls-39{stroke-dasharray:3.16 3.16;}.cls-40{stroke-dasharray:2.99 2.99;}.cls-41{stroke-dasharray:3 3;}.cls-42{stroke-dasharray:3.13 3.13;}.cls-43{stroke-dasharray:2.02 2.02;}.cls-44{stroke-dasharray:2.92 2.92;}.cls-45{stroke-dasharray:3.01 3.01;}.cls-46{stroke-dasharray:2.96 2.96;}.cls-47{stroke-dasharray:3.16 3.16;}.cls-48{stroke-dasharray:2.68 2.68;}.cls-49{fill:#b2292e;}</style></defs><g id="Rulers"><rect class="cls-1" x="15.02" y="14.34" width="293.97" height="63.1"/><rect class="cls-2" x="17.72" y="17.48" width="288.57" height="56.83"/><rect class="cls-3" x="19.78" y="47.5" width="136.72" height="23.06" rx="0.76"/><path class="cls-4" d="M139.13,49.81V67.62a1,1,0,0,0,1,1h12.91a1,1,0,0,0,1-1V49.81a1,1,0,0,0-1-1H140.17a1,1,0,0,0-1,1Z"/><path class="cls-4" d="M126.76,65.73H135a.58.58,0,0,0,.58-.58h0V52.93a.58.58,0,0,0-.58-.58h-8.26a.58.58,0,0,0-.58.58V65.15A.58.58,0,0,0,126.76,65.73Z"/><path class="cls-5" d="M134.36,56V54.17a.33.33,0,0,0-.33-.33h-6.28a.33.33,0,0,0-.33.33V56Z"/><path class="cls-6" d="M134.36,56h-6.94v7.77a.33.33,0,0,0,.33.33H134a.33.33,0,0,0,.33-.33h0Z"/><path class="cls-5" d="M140.63,55v8a1.67,1.67,0,0,0,.51,1.19l3.24,3.1a1.68,1.68,0,0,0,1.14.46H151a1.65,1.65,0,0,0,1.65-1.66V51.93A1.65,1.65,0,0,0,151,50.27h-5.44a1.68,1.68,0,0,0-1.14.46l-3.24,3.1A1.67,1.67,0,0,0,140.63,55Z"/><rect class="cls-7" x="146.73" y="63.28" width="3.3" height="0.99"/><rect class="cls-7" x="143.21" y="58.56" width="3.3" height="0.99"/><rect class="cls-7" x="146.73" y="53.84" width="3.3" height="0.99"/><path class="cls-8" d="M62.9,69.3H84.1a.58.58,0,0,0,.57-.58h0V49.36a.57.57,0,0,0-.57-.57H62.9a.56.56,0,0,0-.57.57V68.72A.57.57,0,0,0,62.9,69.3Z"/><circle class="cls-5" cx="70.68" cy="53.91" r="1.01"/><circle class="cls-5" cx="76.75" cy="53.91" r="1.01"/><g id="Latch_PSU" data-name="Latch/PSU"><rect class="cls-9" x="151.77" y="70.49" width="6.8" height="1.17"/><rect class="cls-10" x="71.04" y="67.32" width="3.32" height="5"/><rect class="cls-10" x="107.43" y="68.99" width="44.34" height="3.34"/><rect class="cls-10" x="106.27" y="68.99" width="1.16" height="3.34"/><rect class="cls-10" x="20.36" y="68.99" width="33.03" height="3.34"/><rect class="cls-10" x="53.39" y="68.99" width="1.16" height="3.34"/><path class="cls-11" d="M87.89,69a7.89,7.89,0,0,1-2-.25l-4.68-1.17a8.43,8.43,0,0,0-2-.25h-5a.34.34,0,0,0-.33.34V72a.34.34,0,0,0,.33.34h32.08V69Z"/><path class="cls-12" d="M76.51,71.83h27.94V69.49H87.89a8.92,8.92,0,0,1-2.12-.26l-4.68-1.17a7.46,7.46,0,0,0-1.88-.24h-2.7Z"/><polygon class="cls-13" points="80.39 69.79 78.95 69.14 78.95 70.52 80.39 69.79"/><path class="cls-11" d="M66.2,69H54.55v3.34H71.21a.34.34,0,0,0,.33-.34h0V67.66a.34.34,0,0,0-.33-.34H68.92a.83.83,0,0,0-.5.18l-1.71,1.32A.87.87,0,0,1,66.2,69Z"/><rect class="cls-14" x="17.91" y="70.08" width="4.97" height="2.25"/><rect class="cls-15" x="151.77" y="71.66" width="6.22" height="0.67"/></g><path class="cls-16" d="M130.87,59.22a.17.17,0,0,0,.19-.16V57.69a.18.18,0,0,0-.19-.16.16.16,0,0,0-.16.16v1.37a.15.15,0,0,0,.16.16m.64,2.36a.62.62,0,0,0-.64-.61.6.6,0,0,0-.6.61.6.6,0,0,0,.6.6A.61.61,0,0,0,131.51,61.58Zm.35,0a1,1,0,0,0-1-1,1,1,0,0,0,0,1.91A1,1,0,0,0,131.86,61.58Z"/><path class="cls-17" d="M76.92,51.73a.18.18,0,1,0-.17.17A.19.19,0,0,0,76.92,51.73Z"/><path class="cls-17" d="M76.92,50.21a.18.18,0,0,0-.35,0l.09,1.21s0,0,.09,0,.08,0,.08,0Z"/><path class="cls-17" d="M70.68,49.71A1.26,1.26,0,1,0,71.93,51,1.25,1.25,0,0,0,70.68,49.71Zm-.13.23a1,1,0,0,1,1.06.58l-.7.71-.29-1.09-1,1A1,1,0,0,1,70.55,49.94ZM70.81,52a1,1,0,0,1-1-.58l.7-.72.3,1.1.94-1A1,1,0,0,1,70.81,52Z"/><rect class="cls-3" x="167.69" y="47.5" width="136.72" height="23.06" rx="0.76"/><path class="cls-4" d="M287,49.81V67.62a1,1,0,0,0,1,1H301a1,1,0,0,0,1-1V49.81a1,1,0,0,0-1-1H288.08a1,1,0,0,0-1,1Z"/><path class="cls-4" d="M274.67,65.73h8.26a.58.58,0,0,0,.58-.58h0V52.93a.58.58,0,0,0-.58-.58h-8.26a.58.58,0,0,0-.58.58V65.15A.58.58,0,0,0,274.67,65.73Z"/><path class="cls-5" d="M282.27,56V54.17a.33.33,0,0,0-.33-.33h-6.28a.32.32,0,0,0-.33.33V56Z"/><path class="cls-6" d="M282.27,56h-6.94v7.77a.33.33,0,0,0,.33.33h6.28a.33.33,0,0,0,.33-.33h0Z"/><path class="cls-5" d="M288.54,55v8a1.63,1.63,0,0,0,.51,1.19l3.24,3.1a1.68,1.68,0,0,0,1.14.46h5.44a1.65,1.65,0,0,0,1.65-1.66V51.93a1.65,1.65,0,0,0-1.65-1.66h-5.44a1.68,1.68,0,0,0-1.14.46l-3.24,3.1A1.63,1.63,0,0,0,288.54,55Z"/><rect class="cls-7" x="294.64" y="63.28" width="3.3" height="0.99"/><rect class="cls-7" x="291.12" y="58.56" width="3.3" height="0.99"/><rect class="cls-7" x="294.64" y="53.84" width="3.3" height="0.99"/><path class="cls-8" d="M210.81,69.3H232a.58.58,0,0,0,.57-.58h0V49.36a.57.57,0,0,0-.57-.57h-21.2a.56.56,0,0,0-.57.57V68.72A.57.57,0,0,0,210.81,69.3Z"/><circle class="cls-5" cx="218.59" cy="53.91" r="1.01"/><circle class="cls-5" cx="224.66" cy="53.91" r="1.01"/><g id="Latch_PSU-2" data-name="Latch/PSU"><rect class="cls-9" x="299.68" y="70.49" width="6.8" height="1.17"/><rect class="cls-10" x="218.95" y="67.32" width="3.32" height="5"/><rect class="cls-10" x="255.34" y="68.99" width="44.34" height="3.34"/><rect class="cls-10" x="254.18" y="68.99" width="1.16" height="3.34"/><rect class="cls-10" x="168.27" y="68.99" width="33.03" height="3.34"/><rect class="cls-10" x="201.3" y="68.99" width="1.16" height="3.34"/><path class="cls-11" d="M235.8,69a8,8,0,0,1-2-.25l-4.67-1.17a8.43,8.43,0,0,0-2-.25h-5a.34.34,0,0,0-.33.34V72a.34.34,0,0,0,.33.34h32.08V69Z"/><path class="cls-12" d="M224.42,71.83h27.93V69.49H235.8a9,9,0,0,1-2.13-.26L229,68.06a7.51,7.51,0,0,0-1.88-.24h-2.7Z"/><polygon class="cls-13" points="228.3 69.79 226.86 69.14 226.86 70.52 228.3 69.79"/><path class="cls-11" d="M214.11,69H202.46v3.34h16.66a.34.34,0,0,0,.33-.34h0V67.66a.34.34,0,0,0-.33-.34h-2.29a.88.88,0,0,0-.51.18l-1.7,1.32A.87.87,0,0,1,214.11,69Z"/><rect class="cls-14" x="165.82" y="70.08" width="4.97" height="2.25"/><rect class="cls-15" x="299.68" y="71.66" width="6.22" height="0.67"/></g><path class="cls-16" d="M278.78,59.22a.17.17,0,0,0,.19-.16V57.69a.18.18,0,0,0-.19-.16.16.16,0,0,0-.16.16v1.37a.15.15,0,0,0,.16.16m.64,2.36a.62.62,0,0,0-.64-.61.6.6,0,0,0-.6.61.6.6,0,0,0,.6.6A.61.61,0,0,0,279.42,61.58Zm.35,0a1,1,0,0,0-1-1,1,1,0,0,0,0,1.91A1,1,0,0,0,279.77,61.58Z"/><path class="cls-17" d="M224.83,51.73a.18.18,0,1,0-.17.17A.19.19,0,0,0,224.83,51.73Z"/><path class="cls-17" d="M224.83,50.21a.18.18,0,0,0-.35,0l.09,1.21s0,0,.09,0,.08,0,.08,0Z"/><path class="cls-17" d="M218.59,49.71A1.26,1.26,0,1,0,219.84,51,1.25,1.25,0,0,0,218.59,49.71Zm-.13.23a1,1,0,0,1,1.06.58l-.7.71-.29-1.09-1,1A1,1,0,0,1,218.46,49.94Zm.26,2.06a1,1,0,0,1-1.05-.58l.7-.72.3,1.1.94-1A1,1,0,0,1,218.72,52Z"/><polygon class="cls-18" points="161.07 27.37 164.55 27.37 164.55 23.16 161.07 23.16 159.45 25.26 161.07 27.37"/><polygon class="cls-18" points="162.9 40.53 164.55 38.43 162.9 36.34 159.45 36.34 159.45 40.53 162.9 40.53"/><polygon class="cls-18" points="161.07 57.79 164.55 57.79 164.55 53.59 161.07 53.59 159.45 55.68 161.07 57.79"/><polygon class="cls-18" points="162.9 70.97 164.55 68.86 162.9 66.76 159.45 66.76 159.45 70.97 162.9 70.97"/><path class="cls-16" d="M161.68,54.53a1.17,1.17,0,0,0-1.14,1.15,1.15,1.15,0,1,0,1.14-1.15Zm.13.23a.93.93,0,0,1,.81.77l-.79.45v-1l-1.06.61A.91.91,0,0,1,161.81,54.76Zm-.25,1.86a.91.91,0,0,1-.79-.76l.79-.46v1l1.06-.61A.94.94,0,0,1,161.56,56.62Z"/><path class="cls-7" d="M162.48,24.26h.44l.91,2.15h-.49l-.19-.48h-.91l-.19.48h-.48Zm.5,1.25-.29-.69-.28.69Z"/><path class="cls-7" d="M160.51,37.43h1a.77.77,0,0,1,.56.19.5.5,0,0,1,.15.37h0a.49.49,0,0,1-.28.46.53.53,0,0,1,.4.53h0c0,.4-.32.59-.8.59h-1Zm1.23.64c0-.14-.11-.22-.31-.22H161v.45h.43c.21,0,.34-.07.34-.23Zm-.23.62H161v.47h.56c.21,0,.33-.07.33-.23h0C161.86,38.78,161.75,38.69,161.51,38.69Z"/><path class="cls-7" d="M163,56.64v-.31h.46V55.25l-.41.15-.09-.32.61-.22h.26v1.47h.41v.31Z"/><path class="cls-7" d="M162.23,69.81V69.5l.57-.5c.21-.19.29-.28.29-.42a.22.22,0,0,0-.24-.23c-.14,0-.24.08-.36.24l-.26-.23a.73.73,0,0,1,.65-.36.54.54,0,0,1,.6.54h0a.69.69,0,0,1-.31.56l-.42.36h.75v.34Z"/><path class="cls-16" d="M160.87,67.72a1.15,1.15,0,0,0,0,2.29,1.15,1.15,0,0,0,0-2.29Zm.13.21a.92.92,0,0,1,.78.76l-.78.46V68.1l-1.07.64A.92.92,0,0,1,161,67.93Zm-.28,1.88a1,1,0,0,1-.79-.77l.79-.45v1l1.06-.61A1,1,0,0,1,160.72,69.81Z"/><path class="cls-19" d="M155.74,20.58H20.55a.76.76,0,0,0-.77.74V42.48a.76.76,0,0,0,.77.75H155.74a.76.76,0,0,0,.77-.75V21.32A.76.76,0,0,0,155.74,20.58Z"/><path class="cls-8" d="M22.7,42.25H153.59a.41.41,0,0,0,.41-.4h0V22.36a.39.39,0,0,0-.4-.4H22.7a.4.4,0,0,0-.41.4V41.85A.4.4,0,0,0,22.7,42.25Z"/><rect class="cls-20" x="60.38" y="36.24" width="4.62" height="5.28"/><path class="cls-11" d="M63.37,37.7h0l.3-.25a0,0,0,0,0,0,0h0l-.11-.12a0,0,0,0,0,0,0H62.35l-.15.13s0,0,0,0h0l.21.25s0,0,0,0Z"/><path class="cls-11" d="M63.46,38.83l.23-.2s0,0,0,0l.17-1a0,0,0,0,0,0,0l-.1-.13h-.05l-.3.25,0,0-.15.86a0,0,0,0,0,0,0l.15.18A0,0,0,0,0,63.46,38.83Z"/><path class="cls-11" d="M63.4,38.93l-.23.19v0L63,40a0,0,0,0,0,0,0l.21.25s0,0,.05,0l.15-.12v0l.18-1a0,0,0,0,0,0,0l-.15-.18Z"/><path class="cls-11" d="M63.12,39.1h0l.24-.19a0,0,0,0,0,0,0h0l-.15-.18,0,0h-1l-.23.2a0,0,0,0,0,0,0h0l.15.18h1Z"/><path class="cls-11" d="M62,38.83l.23-.2v0l.15-.87a0,0,0,0,0,0,0l-.21-.25h0l-.15.12s0,0,0,0l-.17,1s0,0,0,0l.16.18S62,38.84,62,38.83Z"/><path class="cls-11" d="M63,40.5h0l.15-.12a0,0,0,0,0,0,0h0L63,40.07l0,0H62l-.31.25a0,0,0,0,0,0,0h0l.1.13H63Z"/><path class="cls-11" d="M62,40l.16-.87v0L62,38.93h0l-.24.19a0,0,0,0,1,0,0l-.17,1a0,0,0,0,0,0,0l.1.12a0,0,0,0,0,.05,0L62,40S62,40,62,40Z"/><path class="cls-11" d="M64.43,40.25a.26.26,0,0,0-.25-.26.26.26,0,0,0-.26.26.26.26,0,0,0,.26.25A.25.25,0,0,0,64.43,40.25Z"/><rect class="cls-21" x="60.38" y="36.24" width="4.62" height="5.28"/><path class="cls-8" d="M63.37,37.7h0l.3-.25a0,0,0,0,0,0,0h0l-.11-.12a0,0,0,0,0,0,0H62.35l-.15.13s0,0,0,0h0l.21.25s0,0,0,0Z"/><path class="cls-8" d="M63.46,38.83l.23-.2s0,0,0,0l.17-1a0,0,0,0,0,0,0l-.1-.13h-.05l-.3.25,0,0-.15.86a0,0,0,0,0,0,0l.15.18A0,0,0,0,0,63.46,38.83Z"/><path class="cls-8" d="M63.4,38.93l-.23.19v0L63,40a0,0,0,0,0,0,0l.21.25s0,0,.05,0l.15-.12v0l.18-1a0,0,0,0,0,0,0l-.15-.18Z"/><path class="cls-8" d="M63.12,39.1h0l.24-.19a0,0,0,0,0,0,0h0l-.15-.18,0,0h-1l-.23.2a0,0,0,0,0,0,0h0l.15.18h1Z"/><path class="cls-8" d="M62,38.83l.23-.2v0l.15-.87a0,0,0,0,0,0,0l-.21-.25h0l-.15.12s0,0,0,0l-.17,1s0,0,0,0l.16.18S62,38.84,62,38.83Z"/><path class="cls-8" d="M63,40.5h0l.15-.12a0,0,0,0,0,0,0h0L63,40.07l0,0H62l-.31.25a0,0,0,0,0,0,0h0l.1.13H63Z"/><path class="cls-8" d="M62,40l.16-.87v0L62,38.93h0l-.24.19a0,0,0,0,1,0,0l-.17,1a0,0,0,0,0,0,0l.1.12a0,0,0,0,0,.05,0L62,40S62,40,62,40Z"/><path class="cls-8" d="M64.43,40.25a.26.26,0,0,0-.25-.26.26.26,0,0,0-.26.26.26.26,0,0,0,.26.25A.25.25,0,0,0,64.43,40.25Z"/><rect class="cls-21" x="66.55" y="36.24" width="4.62" height="5.28"/><path class="cls-8" d="M68.18,40.06h0l-.3.26s0,0,0,0h0l.1.12H69.2l.15-.12a0,0,0,0,0,0,0h0l-.21-.25h-1Z"/><path class="cls-8" d="M68.09,38.93l-.23.2s0,0,0,0l-.18,1a0,0,0,0,0,0,0l.1.12s0,0,0,0l.31-.26a0,0,0,0,0,0,0l.15-.86a0,0,0,0,0,0,0l-.15-.18S68.11,38.92,68.09,38.93Z"/><path class="cls-8" d="M68.15,38.83l.24-.2v0l.15-.87a0,0,0,0,0,0,0l-.21-.25h0l-.15.12s0,0,0,0l-.18,1a0,0,0,0,0,0,0l.15.18S68.14,38.84,68.15,38.83Z"/><path class="cls-8" d="M68.44,38.65h0l-.23.2s0,0,0,0h0l.15.18h1l.23-.19s0,0,0,0h0l-.15-.18,0,0Z"/><path class="cls-8" d="M69.57,38.93l-.23.19v0h0l-.16.87a0,0,0,0,0,0,0l.21.25a0,0,0,0,0,0,0l.15-.12v0l.18-1a0,0,0,0,0,0,0l-.15-.18Z"/><path class="cls-8" d="M68.54,37.25h0l-.15.13s0,0,0,0h0l.21.25h1l.3-.25a0,0,0,0,0,0,0h0l-.1-.12s0,0,0,0Z"/><path class="cls-8" d="M67.12,37.51a.26.26,0,0,0,.26.25.25.25,0,0,0,.25-.25.26.26,0,0,0-.25-.26A.26.26,0,0,0,67.12,37.51Z"/><path class="cls-4" d="M69.57,37.75l-.15.86s0,0,0,0l.16.18s0,0,0,0l.23-.2v0l.18-1s0,0,0,0l-.11-.12s0,0-.05,0l-.3.26S69.57,37.74,69.57,37.75Z"/><rect class="cls-22" x="63.94" y="21.22" width="21.94" height="14.07"/><rect class="cls-21" x="67.31" y="27.21" width="15.12" height="7.38" rx="0.41"/><path class="cls-5" d="M66.38,28.68a.82.82,0,0,0-1.64,0,.82.82,0,0,0,1.64,0Z"/><path class="cls-5" d="M85,28.68a.82.82,0,1,0-.82.82A.82.82,0,0,0,85,28.68Z"/><path class="cls-5" d="M66.38,32.18a.82.82,0,1,0-.82.82A.82.82,0,0,0,66.38,32.18Z"/><path class="cls-5" d="M85,32.18a.82.82,0,1,0-.82.82A.82.82,0,0,0,85,32.18Z"/><rect class="cls-23" x="74.78" y="27.21" width="0.18" height="7.38"/><rect class="cls-5" x="67.95" y="27.86" width="6.08" height="6.1"/><rect class="cls-5" x="75.71" y="27.86" width="6.08" height="6.1"/><path class="cls-17" d="M76.85,24h.2l0,.16h.16l-.2-.75h-.19l-.2.75h.16Zm.1-.46h0l.07.34h-.15Z"/><path class="cls-17" d="M74.47,24.19a.09.09,0,0,0,.08-.08.08.08,0,0,0-.08-.08.07.07,0,0,0-.08.08A.08.08,0,0,0,74.47,24.19Z"/><path class="cls-17" d="M74.74,24.31a.08.08,0,0,0,.08-.08.09.09,0,0,0-.08-.08.08.08,0,0,0-.08.08A.07.07,0,0,0,74.74,24.31Z"/><path class="cls-17" d="M75,24.44a.08.08,0,0,0,.07-.08.08.08,0,0,0-.07-.09.09.09,0,0,0-.09.09A.09.09,0,0,0,75,24.44Z"/><path class="cls-17" d="M75.27,24.4a.08.08,0,1,0,0,.16.08.08,0,0,0,0-.16Z"/><path class="cls-17" d="M75.54,24.52a.08.08,0,0,0-.08.08.08.08,0,0,0,.16,0A.08.08,0,0,0,75.54,24.52Z"/><path class="cls-17" d="M75.81,24.65a.07.07,0,0,0-.08.08.08.08,0,0,0,.08.08.09.09,0,0,0,.08-.08A.08.08,0,0,0,75.81,24.65Z"/><path class="cls-17" d="M74.58,23.77a.08.08,0,0,0-.08-.08.07.07,0,0,0-.08.08.08.08,0,0,0,.08.08A.09.09,0,0,0,74.58,23.77Z"/><path class="cls-17" d="M74.87,23.77a.07.07,0,0,0-.08-.08.08.08,0,0,0-.08.08.09.09,0,0,0,.08.08A.08.08,0,0,0,74.87,23.77Z"/><path class="cls-17" d="M75.17,23.77a.08.08,0,0,0-.08-.08.07.07,0,0,0-.08.08.08.08,0,0,0,.08.08A.09.09,0,0,0,75.17,23.77Z"/><path class="cls-17" d="M75.38,23.69a.08.08,0,0,0-.08.08.09.09,0,0,0,.08.08.08.08,0,0,0,.08-.08A.07.07,0,0,0,75.38,23.69Z"/><path class="cls-17" d="M75.76,23.77a.08.08,0,0,0-.08-.08.07.07,0,0,0-.08.08.08.08,0,0,0,.08.08A.09.09,0,0,0,75.76,23.77Z"/><path class="cls-17" d="M76,23.69a.08.08,0,0,0-.08.08.09.09,0,0,0,.08.08.09.09,0,0,0,.09-.08A.08.08,0,0,0,76,23.69Z"/><path class="cls-17" d="M76.27,23.69a.08.08,0,0,0-.08.08.09.09,0,0,0,.08.08.08.08,0,0,0,.08-.08A.07.07,0,0,0,76.27,23.69Z"/><path class="cls-17" d="M74.47,23.51a.09.09,0,0,0,.08-.08.09.09,0,0,0-.08-.09.08.08,0,0,0-.08.09A.08.08,0,0,0,74.47,23.51Z"/><path class="cls-17" d="M74.74,23.38a.08.08,0,0,0,.08-.08.09.09,0,0,0-.08-.08.08.08,0,0,0-.08.08A.07.07,0,0,0,74.74,23.38Z"/><path class="cls-17" d="M75,23.26a.08.08,0,0,0,.07-.08A.07.07,0,0,0,75,23.1a.08.08,0,0,0-.09.08A.09.09,0,0,0,75,23.26Z"/><path class="cls-17" d="M75.27,23a.09.09,0,0,0-.08.08.08.08,0,0,0,.08.08.07.07,0,0,0,.08-.08A.08.08,0,0,0,75.27,23Z"/><path class="cls-17" d="M75.54,23a.08.08,0,0,0,.08-.08.08.08,0,0,0-.16,0A.08.08,0,0,0,75.54,23Z"/><path class="cls-17" d="M75.81,22.72a.08.08,0,0,0-.08.08.07.07,0,0,0,.08.08.08.08,0,0,0,.08-.08A.09.09,0,0,0,75.81,22.72Z"/><path class="cls-17" d="M76.92,23.16c.16,0,.26-.07.26-.23a.2.2,0,0,0-.14-.2l-.12-.05c-.07,0-.08-.06-.08-.1a.08.08,0,0,1,.09-.09s.08,0,.08.11h.15v0c0-.14-.1-.2-.24-.2a.21.21,0,0,0-.24.22c0,.13.07.18.2.23s.14.06.14.13a.08.08,0,0,1-.09.09c-.08,0-.1-.05-.1-.12v0h-.15v0C76.68,23.08,76.74,23.16,76.92,23.16Z"/><path class="cls-17" d="M77,24.72l-.12,0c-.07,0-.08-.05-.08-.1a.08.08,0,0,1,.09-.09s.08,0,.08.11h.15v0c0-.14-.1-.2-.24-.2a.21.21,0,0,0-.24.22c0,.13.07.18.2.23s.14.06.14.13a.08.08,0,0,1-.09.09c-.08,0-.1,0-.1-.11v0h-.15v0c0,.14.06.22.24.22s.26-.07.26-.23A.2.2,0,0,0,77,24.72Z"/><path class="cls-17" d="M74.91,24.73l-.69-.48v-.19a.08.08,0,0,0,.06-.09.09.09,0,0,0-.06-.07v0a.09.09,0,0,0,.06-.1s0-.06-.06-.06v-.06a.08.08,0,0,0,.06-.1.09.09,0,0,0-.06-.06v-.2l.69-.48,0,.09.4-.47-.59.2.08.06-.6.42v-.26H73v.73h-.5V24H73v.73h1.23v-.28l.61.43-.08.05.58.21-.39-.48Zm-.8-.13h-1V24h.5v-.42h-.5v-.62h1Z"/><rect class="cls-22" x="50.77" y="23.51" width="11.54" height="8.94"/><polygon class="cls-17" points="52.42 29.56 52.42 31.46 60.67 31.46 60.67 29.56 60.43 29.49 60.43 28.22 60.67 28.15 60.67 25.79 58.84 25.79 58.84 24.83 58.12 24.83 58.12 24.5 54.97 24.5 54.97 24.83 54.25 24.83 54.25 25.79 52.42 25.79 52.42 28.15 52.66 28.22 52.66 29.49 52.42 29.56"/><rect class="cls-22" x="97.6" y="23.51" width="11.54" height="8.94"/><polygon class="cls-17" points="99.25 29.56 99.25 31.46 107.5 31.46 107.5 29.56 107.26 29.49 107.26 28.22 107.5 28.15 107.5 25.79 105.67 25.79 105.67 24.83 104.95 24.83 104.95 24.5 101.8 24.5 101.8 24.83 101.08 24.83 101.08 25.79 99.25 25.79 99.25 28.15 99.5 28.22 99.5 29.49 99.25 29.56"/><rect class="cls-22" x="112.24" y="23.51" width="11.54" height="8.94"/><polygon class="cls-17" points="113.88 29.56 113.88 31.46 122.14 31.46 122.14 29.56 121.89 29.49 121.89 28.22 122.14 28.15 122.14 25.79 120.31 25.79 120.31 24.83 119.59 24.83 119.59 24.5 116.44 24.5 116.44 24.83 115.72 24.83 115.72 25.79 113.88 25.79 113.88 28.15 114.13 28.22 114.13 29.49 113.88 29.56"/><rect class="cls-24" x="28.41" y="25.83" width="19.87" height="7.36"/><rect class="cls-4" x="29.25" y="26.75" width="18.19" height="5.53"/><rect class="cls-5" x="29.36" y="26.86" width="8.93" height="5.32"/><polygon class="cls-25" points="35.72 26.75 35.35 26.75 32.29 26.75 31.93 26.75 31.93 26.86 32.29 26.86 32.29 27.05 35.35 27.05 35.35 26.86 35.72 26.86 35.72 26.75"/><rect class="cls-5" x="38.4" y="26.86" width="8.93" height="5.32"/><polygon class="cls-25" points="44.76 26.76 44.4 26.76 41.33 26.76 40.97 26.76 40.97 26.86 41.33 26.86 41.33 27.06 44.4 27.06 44.4 26.86 44.76 26.86 44.76 26.76"/><line class="cls-26" x1="38.34" y1="26.75" x2="38.34" y2="32.28"/><path class="cls-5" d="M57.51,38.06a.82.82,0,1,0-.82.82A.82.82,0,0,0,57.51,38.06Z"/><path class="cls-5" d="M53.65,38.06a.82.82,0,1,0-.82.82A.82.82,0,0,0,53.65,38.06Z"/><path class="cls-5" d="M49.8,38.06a.82.82,0,1,0-.82.82A.82.82,0,0,0,49.8,38.06Z"/><path class="cls-5" d="M43.69,38.06a.82.82,0,1,0-.82.82A.82.82,0,0,0,43.69,38.06Z"/><path class="cls-27" d="M92.55,21.36H91.1a.7.7,0,0,0-.7.7v7.86a.69.69,0,0,1-.69.7h-3a.69.69,0,0,0-.7.69V43.54"/><g id="Latch_Controller_IOM" data-name="Latch/Controller/IOM"><rect class="cls-9" x="146.08" y="42.83" width="12.49" height="0.81"/><path class="cls-28" d="M65.79,41v3.25h83.4a.17.17,0,0,0,.16-.17h0V42.34a.16.16,0,0,0-.16-.16H93.74a.17.17,0,0,1-.16-.17V41.2a.16.16,0,0,0-.16-.16H65.79Z"/><path class="cls-29" d="M70.92,41H63.35v3.25h22.8V41H85.06a6.05,6.05,0,0,1-1.69-.24l-4-1.14a6.51,6.51,0,0,0-1.51-.24H72.69a.45.45,0,0,0-.33.17l-1.11,1.28A.43.43,0,0,1,70.92,41Z"/><path class="cls-29" d="M65.42,41H54v3.25H70.34a.33.33,0,0,0,.33-.33h0V39.74a.32.32,0,0,0-.33-.32H68.09a.79.79,0,0,0-.49.17l-1.68,1.28A.82.82,0,0,1,65.42,41Z"/><path class="cls-30" d="M65.79,41H17.88a.16.16,0,0,0-.16.16v2.92a.17.17,0,0,0,.16.17H65.79Z"/><path class="cls-12" d="M85.21,41.62H83.33a6.11,6.11,0,0,1-1.64-.22l-3.62-1a5.57,5.57,0,0,0-1.46-.19H74.53v3.29H85.21Z"/><polygon class="cls-13" points="77.26 41.86 75.98 41.23 75.98 42.56 77.26 41.86"/></g><path class="cls-25" d="M95.29,28.68a1.74,1.74,0,1,0-1.74,1.74A1.74,1.74,0,0,0,95.29,28.68Z"/><path class="cls-22" d="M92.85,28.26l.12.12A.41.41,0,0,1,93,29h0l-.12.12a.15.15,0,0,0,0,.2h0l.08.08a.13.13,0,0,0,.2,0l.12-.12a.42.42,0,0,1,.59,0l.13.13a.15.15,0,0,0,.2,0l.08-.08a.15.15,0,0,0,0-.2h0L94.12,29a.42.42,0,0,1,0-.59h0l.12-.12a.13.13,0,0,0,0-.2h0L94.16,28A.14.14,0,0,0,94,28l-.13.12a.4.4,0,0,1-.59,0L93.13,28a.13.13,0,0,0-.2,0l-.08.08a.13.13,0,0,0,0,.2Z"/><path class="cls-25" d="M129.83,28.68a1.75,1.75,0,1,0-1.74,1.74A1.74,1.74,0,0,0,129.83,28.68Z"/><path class="cls-22" d="M127.39,28.26l.12.12a.42.42,0,0,1,0,.59h0l-.12.12a.13.13,0,0,0,0,.2h0l.08.08a.13.13,0,0,0,.2,0l.12-.12a.42.42,0,0,1,.59,0l.13.13a.14.14,0,0,0,.19,0l.09-.08a.15.15,0,0,0,0-.2h0l-.13-.13a.42.42,0,0,1,0-.59h0l.12-.12a.13.13,0,0,0,0-.2h0L128.7,28a.15.15,0,0,0-.2,0l-.12.12a.41.41,0,0,1-.59,0l-.13-.12a.12.12,0,0,0-.19,0l-.08.08a.13.13,0,0,0,0,.2Z"/><rect class="cls-22" x="131.44" y="25.23" width="7.91" height="4.63" rx="0.57"/><rect class="cls-22" x="139.95" y="26.3" width="11.89" height="6.09" rx="0.57"/><path class="cls-17" d="M138,27.18a.42.42,0,0,1,.11.29v.9a.36.36,0,0,1-.36.36H133a.36.36,0,0,1-.36-.36v-.9a.42.42,0,0,1,.11-.29h0l.76-.72a.32.32,0,0,1,.25-.1H137a.41.41,0,0,1,.26.1Z"/><path class="cls-5" d="M142,31h7.8a.21.21,0,0,0,.23-.19v-3a.24.24,0,0,0-.23-.19H142a.21.21,0,0,0-.2.19v3A.18.18,0,0,0,142,31Z"/><path class="cls-19" d="M303.75,20.58H168.55a.75.75,0,0,0-.76.74V42.48a.75.75,0,0,0,.76.75h135.2a.75.75,0,0,0,.76-.75V21.32A.75.75,0,0,0,303.75,20.58Z"/><path class="cls-8" d="M170.7,42.25H301.6a.4.4,0,0,0,.4-.4h0V22.36a.4.4,0,0,0-.4-.4H170.7a.4.4,0,0,0-.4.4V41.85A.4.4,0,0,0,170.7,42.25Z"/><rect class="cls-20" x="208.38" y="36.24" width="4.62" height="5.28"/><path class="cls-11" d="M211.37,37.7s0,0,0,0l.31-.25a0,0,0,0,0,0,0h0l-.1-.12,0,0h-1.22l-.15.13a0,0,0,0,0,0,0h0l.21.25h1Z"/><path class="cls-11" d="M211.47,38.83l.23-.2v0l.17-1s0,0,0,0l-.11-.13h-.05l-.3.25a0,0,0,0,0,0,0l-.15.86s0,0,0,0l.16.18S211.45,38.84,211.47,38.83Z"/><path class="cls-11" d="M211.41,38.93l-.24.19a0,0,0,0,1,0,0L211,40a0,0,0,0,0,0,0l.21.25s0,0,.05,0l.15-.12s0,0,0,0l.18-1a0,0,0,0,0,0,0l-.15-.18Z"/><path class="cls-11" d="M211.12,39.1h0l.23-.19s0,0,0,0h0l-.15-.18a0,0,0,0,0,0,0h-1l-.23.2s0,0,0,0h0l.15.18h1Z"/><path class="cls-11" d="M210,38.83l.23-.2s0,0,0,0l.16-.87a0,0,0,0,0,0,0l-.21-.25h0l-.15.12a0,0,0,0,0,0,0l-.18,1a0,0,0,0,0,0,0l.15.18A0,0,0,0,0,210,38.83Z"/><path class="cls-11" d="M211,40.5h0l.15-.12s0,0,0,0h0l-.21-.25,0,0h-1l-.3.25s0,0,0,0h0l.1.13H211Z"/><path class="cls-11" d="M210,40l.15-.87a0,0,0,0,0,0,0l-.15-.18h0l-.23.19v0l-.18,1a0,0,0,0,0,0,0l.1.12s0,0,0,0L210,40S210,40,210,40Z"/><path class="cls-11" d="M212.44,40.25a.26.26,0,0,0-.26-.26.26.26,0,0,0-.25.26.25.25,0,0,0,.25.25A.26.26,0,0,0,212.44,40.25Z"/><rect class="cls-21" x="208.38" y="36.24" width="4.62" height="5.28"/><path class="cls-8" d="M211.37,37.7s0,0,0,0l.31-.25a0,0,0,0,0,0,0h0l-.1-.12,0,0h-1.22l-.15.13a0,0,0,0,0,0,0h0l.21.25h1Z"/><path class="cls-8" d="M211.47,38.83l.23-.2v0l.17-1s0,0,0,0l-.11-.13h-.05l-.3.25a0,0,0,0,0,0,0l-.15.86s0,0,0,0l.16.18S211.45,38.84,211.47,38.83Z"/><path class="cls-8" d="M211.41,38.93l-.24.19a0,0,0,0,1,0,0L211,40a0,0,0,0,0,0,0l.21.25s0,0,.05,0l.15-.12s0,0,0,0l.18-1a0,0,0,0,0,0,0l-.15-.18Z"/><path class="cls-8" d="M211.12,39.1h0l.23-.19s0,0,0,0h0l-.15-.18a0,0,0,0,0,0,0h-1l-.23.2s0,0,0,0h0l.15.18h1Z"/><path class="cls-8" d="M210,38.83l.23-.2s0,0,0,0l.16-.87a0,0,0,0,0,0,0l-.21-.25h0l-.15.12a0,0,0,0,0,0,0l-.18,1a0,0,0,0,0,0,0l.15.18A0,0,0,0,0,210,38.83Z"/><path class="cls-8" d="M211,40.5h0l.15-.12s0,0,0,0h0l-.21-.25,0,0h-1l-.3.25s0,0,0,0h0l.1.13H211Z"/><path class="cls-8" d="M210,40l.15-.87a0,0,0,0,0,0,0l-.15-.18h0l-.23.19v0l-.18,1a0,0,0,0,0,0,0l.1.12s0,0,0,0L210,40S210,40,210,40Z"/><path class="cls-8" d="M212.44,40.25a.26.26,0,0,0-.26-.26.26.26,0,0,0-.25.26.25.25,0,0,0,.25.25A.26.26,0,0,0,212.44,40.25Z"/><rect class="cls-21" x="214.55" y="36.24" width="4.62" height="5.28"/><path class="cls-8" d="M216.19,40.06h0l-.31.26a0,0,0,0,0,0,0h0l.1.12h1.25l.15-.12a0,0,0,0,0,0,0h0l-.21-.25h-1Z"/><path class="cls-8" d="M216.1,38.93l-.24.2v0l-.17,1a0,0,0,0,0,0,0l.1.12s0,0,.05,0l.3-.26s0,0,0,0l.16-.86s0,0,0,0l-.15-.18S216.11,38.92,216.1,38.93Z"/><path class="cls-8" d="M216.16,38.83l.23-.2s0,0,0,0l.16-.87a0,0,0,0,0,0,0l-.21-.25h-.05l-.15.12a0,0,0,0,0,0,0l-.18,1a0,0,0,0,0,0,0l.15.18S216.14,38.84,216.16,38.83Z"/><path class="cls-8" d="M216.44,38.65h0l-.24.2a0,0,0,0,0,0,0h0l.15.18h1l.23-.19s0,0,0,0h0l-.15-.18,0,0Z"/><path class="cls-8" d="M217.57,38.93l-.23.19a0,0,0,0,1,0,0h0l-.15.87a0,0,0,0,0,0,0l.21.25s0,0,0,0l.15-.12s0,0,0,0l.17-1s0,0,0,0l-.16-.18Z"/><path class="cls-8" d="M216.54,37.25h0l-.15.13a0,0,0,0,0,0,0h0l.21.25h1s0,0,0,0l.31-.25a0,0,0,0,0,0,0h0l-.1-.12,0,0Z"/><path class="cls-8" d="M215.13,37.51a.25.25,0,0,0,.25.25.26.26,0,0,0,.26-.25.26.26,0,0,0-.26-.26A.26.26,0,0,0,215.13,37.51Z"/><path class="cls-4" d="M217.57,37.75l-.15.86s0,0,0,0l.15.18a0,0,0,0,0,0,0l.23-.2,0,0,.17-1a0,0,0,0,0,0,0l-.1-.12a0,0,0,0,0-.05,0l-.3.26Z"/><rect class="cls-22" x="211.95" y="21.22" width="21.94" height="14.07"/><rect class="cls-21" x="215.31" y="27.21" width="15.12" height="7.38" rx="0.41"/><path class="cls-5" d="M214.39,28.68a.82.82,0,1,0-.82.82A.82.82,0,0,0,214.39,28.68Z"/><path class="cls-5" d="M233,28.68a.82.82,0,1,0-.82.82A.82.82,0,0,0,233,28.68Z"/><path class="cls-5" d="M214.39,32.18a.82.82,0,1,0-.82.82A.82.82,0,0,0,214.39,32.18Z"/><path class="cls-5" d="M233,32.18a.82.82,0,1,0-.82.82A.82.82,0,0,0,233,32.18Z"/><rect class="cls-23" x="222.79" y="27.21" width="0.18" height="7.38"/><rect class="cls-5" x="215.95" y="27.86" width="6.08" height="6.1"/><rect class="cls-5" x="223.71" y="27.86" width="6.08" height="6.1"/><path class="cls-17" d="M224.85,24h.2l0,.16h.16l-.2-.75h-.19l-.2.75h.16Zm.1-.46h0l.08.34h-.15Z"/><path class="cls-17" d="M222.47,24.19a.08.08,0,0,0,.08-.08.07.07,0,0,0-.08-.08.08.08,0,0,0-.08.08A.09.09,0,0,0,222.47,24.19Z"/><path class="cls-17" d="M222.74,24.31a.07.07,0,0,0,.08-.08.08.08,0,0,0-.08-.08.09.09,0,0,0-.08.08A.08.08,0,0,0,222.74,24.31Z"/><path class="cls-17" d="M223,24.44a.09.09,0,0,0,.08-.08.09.09,0,0,0-.08-.09.08.08,0,0,0-.08.09A.08.08,0,0,0,223,24.44Z"/><path class="cls-17" d="M223.28,24.4a.08.08,0,1,0,0,.16.08.08,0,0,0,0-.16Z"/><path class="cls-17" d="M223.55,24.52a.09.09,0,0,0-.09.08.08.08,0,0,0,.09.08.08.08,0,0,0,.08-.08A.09.09,0,0,0,223.55,24.52Z"/><path class="cls-17" d="M223.81,24.65a.08.08,0,0,0-.08.08.09.09,0,0,0,.08.08.08.08,0,0,0,.08-.08A.07.07,0,0,0,223.81,24.65Z"/><path class="cls-17" d="M222.58,23.77a.07.07,0,0,0-.08-.08.08.08,0,0,0-.08.08.09.09,0,0,0,.08.08A.08.08,0,0,0,222.58,23.77Z"/><path class="cls-17" d="M222.88,23.77a.08.08,0,0,0-.08-.08.07.07,0,0,0-.08.08.08.08,0,0,0,.08.08A.09.09,0,0,0,222.88,23.77Z"/><path class="cls-17" d="M223.17,23.77a.07.07,0,0,0-.08-.08.08.08,0,0,0-.08.08.09.09,0,0,0,.08.08A.08.08,0,0,0,223.17,23.77Z"/><path class="cls-17" d="M223.39,23.69a.07.07,0,0,0-.08.08.08.08,0,0,0,.08.08.09.09,0,0,0,.08-.08A.08.08,0,0,0,223.39,23.69Z"/><path class="cls-17" d="M223.77,23.77a.08.08,0,0,0-.09-.08.08.08,0,0,0-.08.08.09.09,0,0,0,.08.08A.09.09,0,0,0,223.77,23.77Z"/><path class="cls-17" d="M224,23.69a.07.07,0,0,0-.08.08.08.08,0,1,0,.16,0A.07.07,0,0,0,224,23.69Z"/><path class="cls-17" d="M224.27,23.69a.07.07,0,0,0-.07.08.08.08,0,0,0,.07.08.09.09,0,0,0,.09-.08A.08.08,0,0,0,224.27,23.69Z"/><path class="cls-17" d="M222.47,23.51a.08.08,0,0,0,.08-.08.08.08,0,0,0-.08-.09.09.09,0,0,0-.08.09A.09.09,0,0,0,222.47,23.51Z"/><path class="cls-17" d="M222.74,23.38a.07.07,0,0,0,.08-.08.08.08,0,0,0-.08-.08.09.09,0,0,0-.08.08A.08.08,0,0,0,222.74,23.38Z"/><path class="cls-17" d="M223,23.26a.09.09,0,0,0,.08-.08.08.08,0,0,0-.08-.08.07.07,0,0,0-.08.08A.08.08,0,0,0,223,23.26Z"/><path class="cls-17" d="M223.28,23a.08.08,0,0,0-.08.08.07.07,0,0,0,.08.08.08.08,0,0,0,.08-.08A.09.09,0,0,0,223.28,23Z"/><path class="cls-17" d="M223.55,23a.09.09,0,0,0,.08-.08.08.08,0,0,0-.08-.08.08.08,0,0,0-.09.08A.09.09,0,0,0,223.55,23Z"/><path class="cls-17" d="M223.81,22.72a.09.09,0,0,0-.08.08.08.08,0,0,0,.08.08.07.07,0,0,0,.08-.08A.08.08,0,0,0,223.81,22.72Z"/><path class="cls-17" d="M224.92,23.16c.17,0,.27-.07.27-.23s0-.15-.15-.2l-.12-.05c-.06,0-.08-.06-.08-.1a.08.08,0,0,1,.09-.09c.06,0,.08,0,.08.11h.15v0c0-.14-.1-.2-.23-.2s-.24.07-.24.22.06.18.2.23.14.06.14.13a.09.09,0,0,1-.1.09c-.08,0-.1-.05-.1-.12v0h-.15v0C224.68,23.08,224.75,23.16,224.92,23.16Z"/><path class="cls-17" d="M225,24.72l-.12,0c-.06,0-.08-.05-.08-.1a.08.08,0,0,1,.09-.09c.06,0,.08,0,.08.11h.15v0c0-.14-.1-.2-.23-.2s-.24.07-.24.22.06.18.2.23.14.06.14.13a.09.09,0,0,1-.1.09c-.08,0-.1,0-.1-.11v0h-.15v0c0,.14.07.22.24.22s.27-.07.27-.23S225.16,24.77,225,24.72Z"/><path class="cls-17" d="M222.92,24.73l-.7-.48v-.19a.08.08,0,0,0,.06-.09.07.07,0,0,0-.06-.07v0a.11.11,0,0,0,.07-.1.09.09,0,0,0-.07-.06v-.06a.08.08,0,0,0,.06-.1s0-.05-.06-.06v-.2l.69-.48,0,.09.41-.47-.59.2.07.06-.6.42v-.26H221v.73h-.5V24h.5v.73h1.22v-.28l.62.43-.08.05.58.21-.4-.48Zm-.81-.13h-1V24h.5v-.42h-.5v-.62h1Z"/><rect class="cls-22" x="198.78" y="23.51" width="11.54" height="8.94"/><polygon class="cls-17" points="200.42 29.56 200.42 31.46 208.68 31.46 208.68 29.56 208.43 29.49 208.43 28.22 208.68 28.15 208.68 25.79 206.85 25.79 206.85 24.83 206.13 24.83 206.13 24.5 202.97 24.5 202.97 24.83 202.25 24.83 202.25 25.79 200.42 25.79 200.42 28.15 200.67 28.22 200.67 29.49 200.42 29.56"/><rect class="cls-22" x="245.61" y="23.51" width="11.54" height="8.94"/><polygon class="cls-17" points="247.25 29.56 247.25 31.46 255.51 31.46 255.51 29.56 255.26 29.49 255.26 28.22 255.51 28.15 255.51 25.79 253.68 25.79 253.68 24.83 252.96 24.83 252.96 24.5 249.8 24.5 249.8 24.83 249.09 24.83 249.09 25.79 247.25 25.79 247.25 28.15 247.5 28.22 247.5 29.49 247.25 29.56"/><rect class="cls-22" x="260.25" y="23.51" width="11.54" height="8.94"/><polygon class="cls-17" points="261.89 29.56 261.89 31.46 270.15 31.46 270.15 29.56 269.9 29.49 269.9 28.22 270.15 28.15 270.15 25.79 268.32 25.79 268.32 24.83 267.6 24.83 267.6 24.5 264.44 24.5 264.44 24.83 263.72 24.83 263.72 25.79 261.89 25.79 261.89 28.15 262.14 28.22 262.14 29.49 261.89 29.56"/><rect class="cls-24" x="176.41" y="25.83" width="19.87" height="7.36"/><rect class="cls-4" x="177.25" y="26.75" width="18.19" height="5.53"/><rect class="cls-5" x="177.36" y="26.86" width="8.93" height="5.32"/><polygon class="cls-25" points="183.72 26.75 183.36 26.75 180.29 26.75 179.93 26.75 179.93 26.86 180.29 26.86 180.29 27.05 183.36 27.05 183.36 26.86 183.72 26.86 183.72 26.75"/><rect class="cls-5" x="186.4" y="26.86" width="8.93" height="5.32"/><polygon class="cls-25" points="192.76 26.76 192.4 26.76 189.33 26.76 188.97 26.76 188.97 26.86 189.33 26.86 189.33 27.06 192.4 27.06 192.4 26.86 192.76 26.86 192.76 26.76"/><line class="cls-26" x1="186.35" y1="26.75" x2="186.35" y2="32.28"/><path class="cls-5" d="M205.51,38.06a.82.82,0,1,0-.82.82A.82.82,0,0,0,205.51,38.06Z"/><path class="cls-5" d="M201.66,38.06a.82.82,0,1,0-.82.82A.82.82,0,0,0,201.66,38.06Z"/><path class="cls-5" d="M197.8,38.06a.82.82,0,1,0-.82.82A.82.82,0,0,0,197.8,38.06Z"/><path class="cls-5" d="M191.7,38.06a.82.82,0,1,0-.82.82A.82.82,0,0,0,191.7,38.06Z"/><path class="cls-27" d="M240.56,21.36H239.1a.69.69,0,0,0-.69.7v7.86a.7.7,0,0,1-.7.7h-3.05a.69.69,0,0,0-.69.69V43.54"/><g id="Latch_Controller_IOM-2" data-name="Latch/Controller/IOM"><rect class="cls-9" x="294.08" y="42.83" width="12.49" height="0.81"/><path class="cls-28" d="M213.79,41v3.25h83.4a.18.18,0,0,0,.17-.17h0V42.34a.17.17,0,0,0-.17-.16H241.75a.17.17,0,0,1-.16-.17V41.2a.17.17,0,0,0-.17-.16H213.79Z"/><path class="cls-29" d="M218.93,41h-7.58v3.25h22.8V41h-1.08a6.18,6.18,0,0,1-1.7-.24l-4-1.14a6.43,6.43,0,0,0-1.51-.24h-5.2a.43.43,0,0,0-.33.17l-1.11,1.28A.45.45,0,0,1,218.93,41Z"/><path class="cls-29" d="M213.43,41H202v3.25h16.37a.32.32,0,0,0,.32-.33h0V39.74a.32.32,0,0,0-.32-.32H216.1a.84.84,0,0,0-.5.17l-1.68,1.28A.79.79,0,0,1,213.43,41Z"/><path class="cls-30" d="M213.79,41h-47.9a.16.16,0,0,0-.16.16v2.92a.17.17,0,0,0,.16.17h47.9Z"/><path class="cls-12" d="M233.22,41.62h-1.88a6.13,6.13,0,0,1-1.65-.22l-3.61-1a5.57,5.57,0,0,0-1.46-.19h-2.09v3.29h10.69Z"/><polygon class="cls-13" points="225.27 41.86 223.99 41.23 223.98 42.56 225.27 41.86"/></g><path class="cls-25" d="M243.29,28.68a1.74,1.74,0,1,0-1.74,1.74A1.74,1.74,0,0,0,243.29,28.68Z"/><path class="cls-22" d="M240.85,28.26l.13.12a.42.42,0,0,1,0,.59h0l-.12.12a.13.13,0,0,0,0,.2h0l.08.08a.13.13,0,0,0,.2,0l.12-.12a.42.42,0,0,1,.59,0l.12.13a.15.15,0,0,0,.2,0l.08-.08a.13.13,0,0,0,0-.2h0l-.12-.13a.41.41,0,0,1,0-.59h0l.12-.12a.15.15,0,0,0,0-.2h0l-.08-.08a.15.15,0,0,0-.2,0l-.12.12a.41.41,0,0,1-.59,0l-.13-.12a.13.13,0,0,0-.2,0l-.08.08a.15.15,0,0,0,0,.2Z"/><path class="cls-25" d="M277.83,28.68a1.74,1.74,0,1,0-1.74,1.74A1.74,1.74,0,0,0,277.83,28.68Z"/><path class="cls-22" d="M275.39,28.26l.13.12a.42.42,0,0,1,0,.59h0l-.13.12a.15.15,0,0,0,0,.2h0l.09.08a.12.12,0,0,0,.19,0l.12-.12a.43.43,0,0,1,.6,0l.12.13a.15.15,0,0,0,.2,0l.08-.08a.13.13,0,0,0,0-.2h0l-.13-.13a.42.42,0,0,1,0-.59h0l.13-.12a.15.15,0,0,0,0-.2h0l-.08-.08a.15.15,0,0,0-.2,0l-.12.12a.42.42,0,0,1-.6,0l-.12-.12a.13.13,0,0,0-.2,0l-.08.08a.15.15,0,0,0,0,.2Z"/><rect class="cls-22" x="279.44" y="25.23" width="7.91" height="4.63" rx="0.57"/><rect class="cls-22" x="287.96" y="26.3" width="11.89" height="6.09" rx="0.57"/><path class="cls-17" d="M286,27.18a.41.41,0,0,1,.1.29v.9a.36.36,0,0,1-.36.36H281a.36.36,0,0,1-.36-.36v-.9a.38.38,0,0,1,.11-.29h0l.75-.72a.32.32,0,0,1,.25-.1H285a.38.38,0,0,1,.25.1Z"/><path class="cls-5" d="M290,31h7.81a.21.21,0,0,0,.23-.19v-3a.25.25,0,0,0-.23-.19H290a.2.2,0,0,0-.19.19v3A.18.18,0,0,0,290,31Z"/><rect class="cls-31" x="15.02" y="85.45" width="293.97" height="63.1"/><rect class="cls-2" x="17.72" y="88.58" width="288.57" height="56.83"/><path class="cls-19" d="M155.74,91.68H20.55a.76.76,0,0,0-.77.75v21.16a.77.77,0,0,0,.77.75H155.74a.77.77,0,0,0,.77-.75V92.43A.76.76,0,0,0,155.74,91.68Z"/><path class="cls-8" d="M22.7,113.36H153.59A.41.41,0,0,0,154,113h0V93.47a.4.4,0,0,0-.4-.41H22.7a.41.41,0,0,0-.41.41V113A.41.41,0,0,0,22.7,113.36Z"/><rect class="cls-22" x="68.03" y="92.37" width="65.65" height="14.92"/><g id="Latch_Controller_IOM-3" data-name="Latch/Controller/IOM"><rect class="cls-9" x="146.08" y="113.93" width="12.49" height="0.81"/><path class="cls-28" d="M65.79,112.14v3.25h83.4a.16.16,0,0,0,.16-.16h0v-1.79a.16.16,0,0,0-.16-.16H93.74a.16.16,0,0,1-.16-.16v-.81a.17.17,0,0,0-.16-.17H65.79Z"/><path class="cls-29" d="M70.92,112.14H63.35v3.25h22.8v-3.25H85.06a6.05,6.05,0,0,1-1.69-.24l-4-1.14a6.51,6.51,0,0,0-1.51-.24H72.69a.45.45,0,0,0-.33.17L71.25,112A.42.42,0,0,1,70.92,112.14Z"/><path class="cls-29" d="M65.42,112.14H54v3.25H70.34a.32.32,0,0,0,.33-.32h0v-4.22a.33.33,0,0,0-.33-.33H68.09a.79.79,0,0,0-.49.17L65.92,112A.81.81,0,0,1,65.42,112.14Z"/><path class="cls-30" d="M65.79,112.14H17.88a.17.17,0,0,0-.16.17v2.92a.16.16,0,0,0,.16.16H65.79Z"/><path class="cls-12" d="M85.21,112.72H83.33a6.53,6.53,0,0,1-1.64-.21l-3.62-1a6,6,0,0,0-1.46-.19H74.53v3.29H85.21Z"/><polygon class="cls-13" points="77.26 112.97 75.98 112.33 75.98 113.66 77.26 112.97"/></g><path class="cls-5" d="M73.85,99.84a.76.76,0,1,0-.75.75A.76.76,0,0,0,73.85,99.84Z"/><path class="cls-5" d="M96.48,99.84a.76.76,0,1,0-.75.75A.76.76,0,0,0,96.48,99.84Z"/><path class="cls-5" d="M73.85,103.06a.76.76,0,1,0-.75.75A.75.75,0,0,0,73.85,103.06Z"/><path class="cls-5" d="M96.53,103.06a.76.76,0,1,0-1.51,0,.76.76,0,0,0,1.51,0Z"/><path class="cls-5" d="M105.23,99.84a.76.76,0,1,0-.76.75A.76.76,0,0,0,105.23,99.84Z"/><path class="cls-5" d="M127.91,99.84a.76.76,0,0,0-.76-.76.76.76,0,1,0,.76.76Z"/><path class="cls-5" d="M105.23,103.06a.76.76,0,1,0-1.51,0,.76.76,0,0,0,1.51,0Z"/><path class="cls-5" d="M127.91,103.06a.76.76,0,0,0-.76-.76.75.75,0,0,0-.75.76.74.74,0,0,0,.75.75A.75.75,0,0,0,127.91,103.06Z"/><rect class="cls-9" x="77.48" y="98.91" width="13.92" height="6.79" rx="0.41"/><path class="cls-5" d="M139.23,99.84a.75.75,0,0,0-.75-.76.76.76,0,1,0,0,1.51A.75.75,0,0,0,139.23,99.84Z"/><path class="cls-5" d="M139.23,103.06a.75.75,0,0,0-.75-.76.76.76,0,0,0-.76.76.75.75,0,0,0,.76.75A.74.74,0,0,0,139.23,103.06Z"/><rect class="cls-23" x="84.35" y="92.37" width="0.16" height="13.33"/><rect class="cls-9" x="108.86" y="98.91" width="13.92" height="6.79" rx="0.41"/><rect class="cls-23" x="115.73" y="92.37" width="0.16" height="13.33"/><path class="cls-17" d="M102,95.09h.2l0,.16h.16l-.2-.76H102l-.2.76h.16Zm.1-.47h0l.07.34H102Z"/><path class="cls-17" d="M99.6,95.29a.08.08,0,0,0,.08-.08.09.09,0,0,0-.08-.08.08.08,0,0,0-.08.08A.07.07,0,0,0,99.6,95.29Z"/><path class="cls-17" d="M99.87,95.42a.09.09,0,0,0,.08-.08.09.09,0,0,0-.08-.09.08.08,0,0,0-.08.09A.08.08,0,0,0,99.87,95.42Z"/><path class="cls-17" d="M100.14,95.54a.08.08,0,0,0,0-.16.08.08,0,1,0,0,.16Z"/><path class="cls-17" d="M100.4,95.5a.09.09,0,0,0-.08.08.08.08,0,0,0,.08.08.07.07,0,0,0,.08-.08A.08.08,0,0,0,100.4,95.5Z"/><path class="cls-17" d="M100.67,95.63a.07.07,0,0,0-.08.08.08.08,0,0,0,.16,0A.07.07,0,0,0,100.67,95.63Z"/><path class="cls-17" d="M100.94,95.75a.08.08,0,0,0-.08.08.07.07,0,0,0,.08.08.08.08,0,0,0,.08-.08A.09.09,0,0,0,100.94,95.75Z"/><path class="cls-17" d="M99.71,94.87a.09.09,0,0,0-.08-.08.08.08,0,0,0,0,.16A.09.09,0,0,0,99.71,94.87Z"/><path class="cls-17" d="M100,94.87a.08.08,0,0,0-.08-.08.08.08,0,1,0,0,.16A.08.08,0,0,0,100,94.87Z"/><path class="cls-17" d="M100.3,94.87a.09.09,0,0,0-.08-.08.08.08,0,0,0,0,.16A.09.09,0,0,0,100.3,94.87Z"/><path class="cls-17" d="M100.51,94.79a.08.08,0,1,0,0,.16.08.08,0,1,0,0-.16Z"/><path class="cls-17" d="M100.89,94.87a.09.09,0,0,0-.08-.08.08.08,0,0,0,0,.16A.09.09,0,0,0,100.89,94.87Z"/><path class="cls-17" d="M101.1,94.79a.08.08,0,0,0,0,.16.08.08,0,1,0,0-.16Z"/><path class="cls-17" d="M101.4,94.79a.08.08,0,0,0,0,.16.08.08,0,0,0,0-.16Z"/><path class="cls-17" d="M99.6,94.61a.09.09,0,0,0,.08-.08.08.08,0,0,0-.08-.08.07.07,0,0,0-.08.08A.08.08,0,0,0,99.6,94.61Z"/><path class="cls-17" d="M99.87,94.49a.09.09,0,0,0,.08-.08.09.09,0,0,0-.08-.09.08.08,0,0,0-.08.09A.08.08,0,0,0,99.87,94.49Z"/><path class="cls-17" d="M100.14,94.36a.07.07,0,0,0,.07-.08.08.08,0,0,0-.07-.08.09.09,0,0,0-.09.08A.08.08,0,0,0,100.14,94.36Z"/><path class="cls-17" d="M100.4,94.08a.08.08,0,0,0-.08.08.09.09,0,0,0,.08.08.08.08,0,0,0,.08-.08A.07.07,0,0,0,100.4,94.08Z"/><path class="cls-17" d="M100.67,94.11a.07.07,0,0,0,.08-.08.08.08,0,0,0-.16,0A.07.07,0,0,0,100.67,94.11Z"/><path class="cls-17" d="M100.94,93.83a.07.07,0,0,0-.08.08.08.08,0,0,0,.08.08.09.09,0,0,0,.08-.08A.08.08,0,0,0,100.94,93.83Z"/><path class="cls-17" d="M102.05,94.27c.16,0,.26-.08.26-.24a.18.18,0,0,0-.14-.19l-.12-.06c-.07,0-.08,0-.08-.1a.08.08,0,0,1,.09-.09s.08,0,.08.12h.15v0c0-.14-.1-.2-.24-.2a.22.22,0,0,0-.24.22c0,.13.07.19.2.23s.14.06.14.13a.08.08,0,0,1-.09.09c-.08,0-.1,0-.1-.11v0h-.15v0C101.81,94.19,101.87,94.27,102.05,94.27Z"/><path class="cls-17" d="M102.17,95.83l-.12,0c-.07,0-.08-.06-.08-.11s0-.08.09-.08.08,0,.08.11h.15v0c0-.15-.1-.21-.24-.21a.22.22,0,0,0-.24.23c0,.12.07.18.2.22s.14.06.14.13a.09.09,0,0,1-.09.1c-.08,0-.1-.05-.1-.12v0h-.15v0c0,.14.06.22.24.22s.26-.07.26-.23A.19.19,0,0,0,102.17,95.83Z"/><path class="cls-17" d="M100,95.84l-.69-.49v-.18a.09.09,0,0,0,.06-.1s0-.06-.06-.06V95a.08.08,0,0,0,.06-.1.09.09,0,0,0-.06-.06v-.06a.08.08,0,0,0,.06-.09.11.11,0,0,0-.06-.07v-.2l.69-.48,0,.09.4-.47-.59.21.08,0-.6.42v-.26H98.12v.73h-.5v.42h.5v.73h1.23v-.28L100,96l-.08.05.58.22-.39-.48Zm-.8-.14h-1v-.62h.5v-.42h-.5V94h1Z"/><rect class="cls-3" x="19.78" y="118.61" width="136.72" height="23.06" rx="0.76"/><path class="cls-4" d="M139.13,120.91v17.81a1,1,0,0,0,1,1h12.91a1,1,0,0,0,1-1V120.91a1,1,0,0,0-1-1H140.17a1,1,0,0,0-1,1Z"/><path class="cls-4" d="M126.76,136.83H135a.57.57,0,0,0,.58-.57h0V124a.58.58,0,0,0-.58-.58h-8.26a.58.58,0,0,0-.58.58v12.23A.57.57,0,0,0,126.76,136.83Z"/><path class="cls-5" d="M134.36,127.09v-1.82a.33.33,0,0,0-.33-.33h-6.28a.33.33,0,0,0-.33.33v1.82Z"/><path class="cls-6" d="M134.36,127.09h-6.94v7.76a.33.33,0,0,0,.33.33H134a.33.33,0,0,0,.33-.33h0Z"/><path class="cls-5" d="M140.63,126.13v8a1.67,1.67,0,0,0,.51,1.19l3.24,3.1a1.64,1.64,0,0,0,1.14.46H151a1.65,1.65,0,0,0,1.65-1.65V123a1.65,1.65,0,0,0-1.65-1.65h-5.44a1.64,1.64,0,0,0-1.14.46l-3.24,3.1A1.67,1.67,0,0,0,140.63,126.13Z"/><rect class="cls-7" x="146.73" y="134.38" width="3.3" height="0.99"/><rect class="cls-7" x="143.21" y="129.66" width="3.3" height="0.99"/><rect class="cls-7" x="146.73" y="124.94" width="3.3" height="0.99"/><path class="cls-8" d="M62.9,140.4H84.1a.58.58,0,0,0,.57-.57h0V120.46a.58.58,0,0,0-.57-.57H62.9a.57.57,0,0,0-.57.57v19.37A.57.57,0,0,0,62.9,140.4Z"/><circle class="cls-5" cx="70.68" cy="125.01" r="1.01"/><circle class="cls-5" cx="76.75" cy="125.01" r="1.01"/><g id="Latch_PSU-3" data-name="Latch/PSU"><rect class="cls-9" x="151.77" y="141.6" width="6.8" height="1.17"/><rect class="cls-10" x="71.04" y="138.43" width="3.32" height="5"/><rect class="cls-10" x="107.43" y="140.1" width="44.34" height="3.34"/><rect class="cls-10" x="106.27" y="140.1" width="1.16" height="3.34"/><rect class="cls-10" x="20.36" y="140.1" width="33.03" height="3.34"/><rect class="cls-10" x="53.39" y="140.1" width="1.16" height="3.34"/><path class="cls-11" d="M87.89,140.1a8.36,8.36,0,0,1-2-.25l-4.68-1.17a7.94,7.94,0,0,0-2-.25h-5a.33.33,0,0,0-.33.33v4.34a.33.33,0,0,0,.33.33h32.08V140.1Z"/><path class="cls-12" d="M76.51,142.93h27.94V140.6H87.89a8.44,8.44,0,0,1-2.12-.27l-4.68-1.17a7.93,7.93,0,0,0-1.88-.23h-2.7Z"/><polygon class="cls-13" points="80.39 140.9 78.95 140.24 78.95 141.62 80.39 140.9"/><path class="cls-11" d="M66.2,140.1H54.55v3.33H71.21a.33.33,0,0,0,.33-.33h0v-4.34a.33.33,0,0,0-.33-.33H68.92a.82.82,0,0,0-.5.17l-1.71,1.32A.81.81,0,0,1,66.2,140.1Z"/><rect class="cls-14" x="17.91" y="141.18" width="4.97" height="2.25"/><rect class="cls-15" x="151.77" y="142.76" width="6.22" height="0.67"/></g><path class="cls-16" d="M130.87,130.32a.17.17,0,0,0,.19-.16v-1.37a.17.17,0,0,0-.19-.15.15.15,0,0,0-.16.15v1.37a.15.15,0,0,0,.16.16m.64,2.36a.61.61,0,0,0-.64-.6.6.6,0,0,0-.6.6.6.6,0,0,0,.6.61A.62.62,0,0,0,131.51,132.68Zm.35,0a1,1,0,0,0-1-1,1,1,0,0,0,0,1.92A1,1,0,0,0,131.86,132.68Z"/><path class="cls-17" d="M76.92,122.83a.18.18,0,1,0-.17.17A.18.18,0,0,0,76.92,122.83Z"/><path class="cls-17" d="M76.92,121.31a.18.18,0,0,0-.35,0l.09,1.22s0,0,.09,0a.14.14,0,0,0,.08,0Z"/><path class="cls-17" d="M70.68,120.82a1.26,1.26,0,1,0,1.25,1.25A1.24,1.24,0,0,0,70.68,120.82Zm-.13.23a1,1,0,0,1,1.06.58l-.7.7-.29-1.09-1,1A1,1,0,0,1,70.55,121.05Zm.26,2a1,1,0,0,1-1-.58l.7-.71.3,1.09.94-1A1,1,0,0,1,70.81,123.1Z"/><path class="cls-19" d="M303.65,91.68H168.45a.75.75,0,0,0-.76.75v21.16a.76.76,0,0,0,.76.75h135.2a.76.76,0,0,0,.76-.75V92.43A.75.75,0,0,0,303.65,91.68Z"/><path class="cls-8" d="M170.61,113.36H301.5a.41.41,0,0,0,.41-.41h0V93.47a.4.4,0,0,0-.4-.41H170.61a.41.41,0,0,0-.41.41V113A.41.41,0,0,0,170.61,113.36Z"/><rect class="cls-22" x="215.94" y="92.37" width="65.65" height="14.92"/><g id="Latch_Controller_IOM-4" data-name="Latch/Controller/IOM"><rect class="cls-9" x="293.99" y="113.93" width="12.49" height="0.81"/><path class="cls-28" d="M213.69,112.14v3.25H297.1a.16.16,0,0,0,.16-.16h0v-1.79a.16.16,0,0,0-.16-.16H241.65a.16.16,0,0,1-.16-.16v-.81a.17.17,0,0,0-.16-.17H213.69Z"/><path class="cls-29" d="M218.83,112.14h-7.57v3.25h22.8v-3.25H233a6.05,6.05,0,0,1-1.69-.24l-4-1.14a6.51,6.51,0,0,0-1.51-.24H220.6a.45.45,0,0,0-.33.17L219.16,112A.42.42,0,0,1,218.83,112.14Z"/><path class="cls-29" d="M213.33,112.14H201.88v3.25h16.37a.32.32,0,0,0,.33-.32h0v-4.22a.33.33,0,0,0-.33-.33H216a.79.79,0,0,0-.49.17L213.83,112A.81.81,0,0,1,213.33,112.14Z"/><path class="cls-30" d="M213.69,112.14h-47.9a.17.17,0,0,0-.16.17v2.92a.16.16,0,0,0,.16.16h47.9Z"/><path class="cls-12" d="M233.12,112.72h-1.88a6.47,6.47,0,0,1-1.64-.21l-3.62-1a6,6,0,0,0-1.46-.19h-2.08v3.29h10.68Z"/><polygon class="cls-13" points="225.17 112.97 223.89 112.33 223.89 113.66 225.17 112.97"/></g><path class="cls-5" d="M221.76,99.84a.76.76,0,1,0-.76.75A.76.76,0,0,0,221.76,99.84Z"/><path class="cls-5" d="M244.39,99.84a.76.76,0,1,0-.75.75A.76.76,0,0,0,244.39,99.84Z"/><path class="cls-5" d="M221.76,103.06a.76.76,0,1,0-1.51,0,.76.76,0,0,0,1.51,0Z"/><path class="cls-5" d="M244.44,103.06a.76.76,0,0,0-.76-.76.75.75,0,0,0-.75.76.74.74,0,0,0,.75.75A.75.75,0,0,0,244.44,103.06Z"/><path class="cls-5" d="M253.14,99.84a.76.76,0,1,0-.76.75A.76.76,0,0,0,253.14,99.84Z"/><path class="cls-5" d="M275.82,99.84a.76.76,0,0,0-.76-.76.76.76,0,1,0,.76.76Z"/><path class="cls-5" d="M253.14,103.06a.76.76,0,1,0-1.51,0,.76.76,0,0,0,1.51,0Z"/><path class="cls-5" d="M275.82,103.06a.76.76,0,0,0-.76-.76.75.75,0,0,0-.75.76.74.74,0,0,0,.75.75A.75.75,0,0,0,275.82,103.06Z"/><rect class="cls-9" x="225.39" y="98.91" width="13.92" height="6.79" rx="0.41"/><path class="cls-5" d="M287.14,99.84a.76.76,0,1,0-.75.75A.76.76,0,0,0,287.14,99.84Z"/><path class="cls-5" d="M287.14,103.06a.76.76,0,1,0-.75.75A.75.75,0,0,0,287.14,103.06Z"/><rect class="cls-23" x="232.26" y="92.37" width="0.16" height="13.33"/><rect class="cls-9" x="256.76" y="98.91" width="13.92" height="6.79" rx="0.41"/><rect class="cls-23" x="263.64" y="92.37" width="0.16" height="13.33"/><path class="cls-17" d="M249.88,95.09h.21l0,.16h.16l-.2-.76h-.19l-.2.76h.16Zm.11-.47h0l.07.34h-.15Z"/><path class="cls-17" d="M247.51,95.29a.08.08,0,0,0,.08-.08.09.09,0,0,0-.08-.08.08.08,0,0,0-.08.08A.07.07,0,0,0,247.51,95.29Z"/><path class="cls-17" d="M247.78,95.42a.09.09,0,0,0,.08-.08.09.09,0,0,0-.08-.09.09.09,0,0,0-.09.09A.09.09,0,0,0,247.78,95.42Z"/><path class="cls-17" d="M248,95.54a.08.08,0,1,0,0-.16.08.08,0,1,0,0,.16Z"/><path class="cls-17" d="M248.31,95.5a.09.09,0,0,0-.08.08.08.08,0,0,0,.08.08.07.07,0,0,0,.08-.08A.08.08,0,0,0,248.31,95.5Z"/><path class="cls-17" d="M248.58,95.63a.07.07,0,0,0-.08.08.08.08,0,1,0,.16,0A.07.07,0,0,0,248.58,95.63Z"/><path class="cls-17" d="M248.85,95.75a.08.08,0,0,0-.08.08.07.07,0,0,0,.08.08.08.08,0,0,0,.08-.08A.09.09,0,0,0,248.85,95.75Z"/><path class="cls-17" d="M247.62,94.87a.09.09,0,0,0-.08-.08.08.08,0,1,0,0,.16A.09.09,0,0,0,247.62,94.87Z"/><path class="cls-17" d="M247.91,94.87a.08.08,0,0,0-.08-.08.08.08,0,0,0,0,.16A.08.08,0,0,0,247.91,94.87Z"/><path class="cls-17" d="M248.21,94.87a.09.09,0,0,0-.08-.08.08.08,0,1,0,0,.16A.09.09,0,0,0,248.21,94.87Z"/><path class="cls-17" d="M248.42,94.79a.08.08,0,1,0,0,.16.08.08,0,1,0,0-.16Z"/><path class="cls-17" d="M248.8,94.87a.09.09,0,0,0-.08-.08.08.08,0,0,0,0,.16A.09.09,0,0,0,248.8,94.87Z"/><path class="cls-17" d="M249,94.79a.08.08,0,1,0,0,.16.08.08,0,1,0,0-.16Z"/><path class="cls-17" d="M249.31,94.79a.08.08,0,1,0,.08.08A.09.09,0,0,0,249.31,94.79Z"/><path class="cls-17" d="M247.51,94.61a.09.09,0,0,0,.08-.08.08.08,0,0,0-.08-.08.07.07,0,0,0-.08.08A.08.08,0,0,0,247.51,94.61Z"/><path class="cls-17" d="M247.78,94.49a.09.09,0,0,0,.08-.08.09.09,0,0,0-.08-.09.09.09,0,0,0-.09.09A.09.09,0,0,0,247.78,94.49Z"/><path class="cls-17" d="M248,94.36a.07.07,0,0,0,.08-.08.08.08,0,0,0-.08-.08.09.09,0,0,0-.08.08A.08.08,0,0,0,248,94.36Z"/><path class="cls-17" d="M248.31,94.08a.08.08,0,0,0-.08.08.09.09,0,0,0,.08.08.08.08,0,0,0,.08-.08A.07.07,0,0,0,248.31,94.08Z"/><path class="cls-17" d="M248.58,94.11a.07.07,0,0,0,.08-.08.08.08,0,1,0-.16,0A.07.07,0,0,0,248.58,94.11Z"/><path class="cls-17" d="M248.85,93.83a.07.07,0,0,0-.08.08.08.08,0,0,0,.08.08.09.09,0,0,0,.08-.08A.08.08,0,0,0,248.85,93.83Z"/><path class="cls-17" d="M250,94.27c.16,0,.26-.08.26-.24s0-.15-.15-.19l-.11-.06c-.07,0-.08,0-.08-.1a.08.08,0,0,1,.09-.09c.05,0,.08,0,.08.12h.14v0c0-.14-.09-.2-.23-.2a.22.22,0,0,0-.24.22c0,.13.07.19.2.23s.14.06.14.13a.08.08,0,0,1-.09.09c-.08,0-.1,0-.1-.11v0h-.16v0C249.71,94.19,249.78,94.27,250,94.27Z"/><path class="cls-17" d="M250.07,95.83l-.11,0c-.07,0-.08-.06-.08-.11s0-.08.09-.08.08,0,.08.11h.14v0c0-.15-.09-.21-.23-.21a.22.22,0,0,0-.24.23c0,.12.07.18.2.22s.14.06.14.13a.09.09,0,0,1-.09.1c-.08,0-.1-.05-.1-.12v0h-.16v0c0,.14.07.22.25.22s.26-.07.26-.23S250.19,95.88,250.07,95.83Z"/><path class="cls-17" d="M248,95.84l-.69-.49v-.18a.09.09,0,0,0,.06-.1s0-.06-.06-.06V95a.08.08,0,0,0,.06-.1.09.09,0,0,0-.06-.06v-.06a.08.08,0,0,0,.06-.09.11.11,0,0,0-.06-.07v-.2l.69-.48,0,.09.4-.47-.59.21.08,0-.6.42v-.26H246v.73h-.5v.42h.5v.73h1.23v-.28l.61.43-.08.05.58.22-.39-.48Zm-.81-.14h-1v-.62h.5v-.42h-.5V94h1Z"/><rect class="cls-3" x="167.69" y="118.61" width="136.72" height="23.06" rx="0.76"/><path class="cls-4" d="M287,120.91v17.81a1,1,0,0,0,1,1H301a1,1,0,0,0,1-1V120.91a1,1,0,0,0-1-1H288.08a1,1,0,0,0-1,1Z"/><path class="cls-4" d="M274.67,136.83h8.26a.57.57,0,0,0,.58-.57h0V124a.58.58,0,0,0-.58-.58h-8.26a.58.58,0,0,0-.58.58v12.23A.57.57,0,0,0,274.67,136.83Z"/><path class="cls-5" d="M282.27,127.09v-1.82a.33.33,0,0,0-.33-.33h-6.28a.33.33,0,0,0-.33.33v1.82Z"/><path class="cls-6" d="M282.27,127.09h-6.94v7.76a.32.32,0,0,0,.33.33h6.28a.33.33,0,0,0,.33-.33h0Z"/><path class="cls-5" d="M288.54,126.13v8a1.63,1.63,0,0,0,.51,1.19l3.24,3.1a1.64,1.64,0,0,0,1.14.46h5.44a1.65,1.65,0,0,0,1.65-1.65V123a1.65,1.65,0,0,0-1.65-1.65h-5.44a1.64,1.64,0,0,0-1.14.46l-3.24,3.1A1.63,1.63,0,0,0,288.54,126.13Z"/><rect class="cls-7" x="294.64" y="134.38" width="3.3" height="0.99"/><rect class="cls-7" x="291.12" y="129.66" width="3.3" height="0.99"/><rect class="cls-7" x="294.64" y="124.94" width="3.3" height="0.99"/><path class="cls-8" d="M210.81,140.4H232a.58.58,0,0,0,.57-.57h0V120.46a.58.58,0,0,0-.57-.57h-21.2a.57.57,0,0,0-.57.57v19.37A.57.57,0,0,0,210.81,140.4Z"/><circle class="cls-5" cx="218.59" cy="125.01" r="1.01"/><circle class="cls-5" cx="224.66" cy="125.01" r="1.01"/><g id="Latch_PSU-4" data-name="Latch/PSU"><rect class="cls-9" x="299.68" y="141.6" width="6.8" height="1.17"/><rect class="cls-10" x="218.95" y="138.43" width="3.32" height="5"/><rect class="cls-10" x="255.34" y="140.1" width="44.34" height="3.34"/><rect class="cls-10" x="254.18" y="140.1" width="1.16" height="3.34"/><rect class="cls-10" x="168.27" y="140.1" width="33.03" height="3.34"/><rect class="cls-10" x="201.3" y="140.1" width="1.16" height="3.34"/><path class="cls-11" d="M235.8,140.1a8.51,8.51,0,0,1-2-.25l-4.67-1.17a7.94,7.94,0,0,0-2-.25h-5a.33.33,0,0,0-.33.33v4.34a.33.33,0,0,0,.33.33h32.08V140.1Z"/><path class="cls-12" d="M224.42,142.93h27.93V140.6H235.8a8.52,8.52,0,0,1-2.13-.27L229,139.16a8,8,0,0,0-1.88-.23h-2.7Z"/><polygon class="cls-13" points="228.3 140.9 226.86 140.24 226.86 141.62 228.3 140.9"/><path class="cls-11" d="M214.11,140.1H202.46v3.33h16.66a.33.33,0,0,0,.33-.33h0v-4.34a.33.33,0,0,0-.33-.33h-2.29a.87.87,0,0,0-.51.17l-1.7,1.32A.81.81,0,0,1,214.11,140.1Z"/><rect class="cls-14" x="165.82" y="141.18" width="4.97" height="2.25"/><rect class="cls-15" x="299.68" y="142.76" width="6.22" height="0.67"/></g><path class="cls-16" d="M278.78,130.32a.17.17,0,0,0,.19-.16v-1.37a.17.17,0,0,0-.19-.15.15.15,0,0,0-.16.15v1.37a.15.15,0,0,0,.16.16m.64,2.36a.61.61,0,0,0-.64-.6.6.6,0,0,0-.6.6.6.6,0,0,0,.6.61A.62.62,0,0,0,279.42,132.68Zm.35,0a1,1,0,0,0-1-1,1,1,0,0,0,0,1.92A1,1,0,0,0,279.77,132.68Z"/><path class="cls-17" d="M224.83,122.83a.18.18,0,1,0-.17.17A.18.18,0,0,0,224.83,122.83Z"/><path class="cls-17" d="M224.83,121.31a.18.18,0,0,0-.35,0l.09,1.22s0,0,.09,0a.14.14,0,0,0,.08,0Z"/><path class="cls-17" d="M218.59,120.82a1.26,1.26,0,1,0,1.25,1.25A1.24,1.24,0,0,0,218.59,120.82Zm-.13.23a1,1,0,0,1,1.06.58l-.7.7-.29-1.09-1,1A1,1,0,0,1,218.46,121.05Zm.26,2a1,1,0,0,1-1.05-.58l.7-.71.3,1.09.94-1A1,1,0,0,1,218.72,123.1Z"/><polygon class="cls-18" points="161.07 98.48 164.55 98.48 164.55 94.26 161.07 94.26 159.45 96.37 161.07 98.48"/><polygon class="cls-18" points="162.9 111.64 164.55 109.53 162.9 107.45 159.45 107.45 159.45 111.64 162.9 111.64"/><polygon class="cls-18" points="161.07 128.89 164.55 128.89 164.55 124.7 161.07 124.7 159.45 126.78 161.07 128.89"/><polygon class="cls-18" points="162.9 142.08 164.55 139.97 162.9 137.86 159.45 137.86 159.45 142.08 162.9 142.08"/><path class="cls-16" d="M161.68,125.64a1.15,1.15,0,0,0,0,2.29,1.15,1.15,0,1,0,0-2.29Zm.13.23a.92.92,0,0,1,.81.76l-.79.46v-1l-1.06.61A.9.9,0,0,1,161.81,125.87Zm-.25,1.85a.9.9,0,0,1-.79-.76l.79-.46v1l1.06-.61A.93.93,0,0,1,161.56,127.72Z"/><path class="cls-7" d="M162.48,95.36h.44l.91,2.15h-.49l-.19-.48h-.91l-.19.48h-.48Zm.5,1.26-.29-.7-.28.7Z"/><path class="cls-7" d="M160.51,108.54h1a.77.77,0,0,1,.56.19.48.48,0,0,1,.15.36h0a.51.51,0,0,1-.28.46.52.52,0,0,1,.4.52h0c0,.39-.32.59-.8.59h-1Zm1.23.63c0-.14-.11-.22-.31-.22H161v.45h.43c.21,0,.34-.06.34-.22Zm-.23.62H161v.47h.56c.21,0,.33-.07.33-.23h0C161.86,109.88,161.75,109.79,161.51,109.79Z"/><path class="cls-7" d="M163,127.75v-.32h.46v-1.07l-.41.15-.09-.32.61-.23h.26v1.47h.41v.32Z"/><path class="cls-7" d="M162.23,140.91v-.31l.57-.5c.21-.18.29-.28.29-.42a.21.21,0,0,0-.24-.22c-.14,0-.24.07-.36.23l-.26-.23a.73.73,0,0,1,.65-.35.53.53,0,0,1,.6.54h0a.72.72,0,0,1-.31.57l-.42.35h.75v.34Z"/><path class="cls-16" d="M160.87,138.83a1.14,1.14,0,0,0,0,2.28,1.14,1.14,0,0,0,0-2.28Zm.13.2a.93.93,0,0,1,.78.76l-.78.46v-1l-1.07.63A.93.93,0,0,1,161,139Zm-.28,1.88a1,1,0,0,1-.79-.76l.79-.46v1l1.06-.61A1,1,0,0,1,160.72,140.91Z"/><rect class="cls-5" x="257.36" y="99.5" width="5.6" height="5.61"/><rect class="cls-5" x="264.49" y="99.5" width="5.6" height="5.61"/><rect class="cls-5" x="225.98" y="99.5" width="5.6" height="5.61"/><rect class="cls-5" x="233.11" y="99.5" width="5.6" height="5.61"/><rect class="cls-5" x="109.45" y="99.5" width="5.6" height="5.61"/><rect class="cls-5" x="116.58" y="99.5" width="5.6" height="5.61"/><rect class="cls-5" x="78.07" y="99.5" width="5.6" height="5.61"/><rect class="cls-5" x="85.2" y="99.5" width="5.6" height="5.61"/><rect class="cls-32" x="15.02" y="156.55" width="293.97" height="63.1"/><rect class="cls-2" x="17.72" y="159.69" width="288.57" height="56.83"/><path class="cls-19" d="M155.74,162.78H20.55a.77.77,0,0,0-.77.75v21.16a.76.76,0,0,0,.77.75H155.74a.76.76,0,0,0,.77-.75V163.53A.77.77,0,0,0,155.74,162.78Z"/><path class="cls-8" d="M22.7,184.46H153.59a.41.41,0,0,0,.41-.4h0V164.57a.39.39,0,0,0-.4-.4H22.7a.4.4,0,0,0-.41.4v19.49A.4.4,0,0,0,22.7,184.46Z"/><rect class="cls-22" x="68.03" y="163.48" width="65.65" height="14.92"/><g id="Latch_Controller_IOM-5" data-name="Latch/Controller/IOM"><rect class="cls-9" x="146.08" y="185.03" width="12.49" height="0.81"/><path class="cls-28" d="M65.79,183.25v3.25h83.4a.17.17,0,0,0,.16-.17h0v-1.78a.17.17,0,0,0-.16-.17H93.74a.16.16,0,0,1-.16-.16v-.81a.16.16,0,0,0-.16-.16H65.79Z"/><path class="cls-29" d="M70.92,183.25H63.35v3.25h22.8v-3.25H85.06a6.05,6.05,0,0,1-1.69-.24l-4-1.14a5.6,5.6,0,0,0-1.51-.24H72.69a.44.44,0,0,0-.33.16l-1.11,1.29A.43.43,0,0,1,70.92,183.25Z"/><path class="cls-29" d="M65.42,183.25H54v3.25H70.34a.33.33,0,0,0,.33-.33h0V182a.32.32,0,0,0-.33-.32H68.09a.78.78,0,0,0-.49.16l-1.68,1.29A.82.82,0,0,1,65.42,183.25Z"/><path class="cls-30" d="M65.79,183.25H17.88a.16.16,0,0,0-.16.16v2.92a.17.17,0,0,0,.16.17H65.79Z"/><path class="cls-12" d="M85.21,183.83H83.33a6.11,6.11,0,0,1-1.64-.22l-3.62-1a5.57,5.57,0,0,0-1.46-.19H74.53v3.29H85.21Z"/><polygon class="cls-13" points="77.26 184.07 75.98 183.44 75.98 184.77 77.26 184.07"/></g><path class="cls-5" d="M73.85,170.94a.76.76,0,1,0-.75.75A.75.75,0,0,0,73.85,170.94Z"/><path class="cls-5" d="M96.48,170.94a.76.76,0,1,0-.75.75A.75.75,0,0,0,96.48,170.94Z"/><path class="cls-5" d="M73.85,174.16a.76.76,0,1,0-.75.76A.76.76,0,0,0,73.85,174.16Z"/><path class="cls-5" d="M96.53,174.16a.76.76,0,1,0-.76.76A.76.76,0,0,0,96.53,174.16Z"/><path class="cls-5" d="M105.23,170.94a.76.76,0,1,0-1.51,0,.76.76,0,0,0,1.51,0Z"/><path class="cls-5" d="M127.91,170.94a.76.76,0,0,0-.76-.76.75.75,0,0,0-.75.76.74.74,0,0,0,.75.75A.75.75,0,0,0,127.91,170.94Z"/><path class="cls-5" d="M105.23,174.16a.76.76,0,1,0-.76.76A.76.76,0,0,0,105.23,174.16Z"/><path class="cls-5" d="M127.91,174.16a.76.76,0,0,0-.76-.75.76.76,0,0,0,0,1.51A.76.76,0,0,0,127.91,174.16Z"/><rect class="cls-9" x="77.48" y="170.01" width="13.92" height="6.79" rx="0.41"/><path class="cls-5" d="M139.23,170.94a.75.75,0,0,0-.75-.76.76.76,0,0,0-.76.76.75.75,0,0,0,.76.75A.74.74,0,0,0,139.23,170.94Z"/><path class="cls-5" d="M139.23,174.16a.75.75,0,0,0-.75-.75.76.76,0,1,0,.75.75Z"/><rect class="cls-23" x="84.35" y="163.48" width="0.16" height="13.33"/><rect class="cls-9" x="108.86" y="170.01" width="13.92" height="6.79" rx="0.41"/><rect class="cls-23" x="115.73" y="163.48" width="0.16" height="13.33"/><path class="cls-17" d="M102,166.19h.2l0,.16h.16l-.2-.75H102l-.2.75h.16Zm.1-.46h0l.07.34H102Z"/><path class="cls-17" d="M99.6,166.4a.09.09,0,0,0,.08-.08.09.09,0,0,0-.08-.09.08.08,0,0,0-.08.09A.08.08,0,0,0,99.6,166.4Z"/><path class="cls-17" d="M99.87,166.52a.09.09,0,0,0,.08-.08.08.08,0,0,0-.08-.08.07.07,0,0,0-.08.08A.08.08,0,0,0,99.87,166.52Z"/><path class="cls-17" d="M100.14,166.64a.07.07,0,0,0,.07-.08.08.08,0,0,0-.07-.08.09.09,0,0,0-.09.08A.08.08,0,0,0,100.14,166.64Z"/><path class="cls-17" d="M100.4,166.61a.08.08,0,0,0-.08.08.09.09,0,0,0,.08.08.08.08,0,0,0,.08-.08A.07.07,0,0,0,100.4,166.61Z"/><path class="cls-17" d="M100.67,166.73a.08.08,0,0,0-.08.08.08.08,0,1,0,.16,0A.08.08,0,0,0,100.67,166.73Z"/><path class="cls-17" d="M100.94,166.86a.07.07,0,0,0-.08.08.08.08,0,0,0,.08.08.09.09,0,0,0,.08-.08A.08.08,0,0,0,100.94,166.86Z"/><path class="cls-17" d="M99.71,166a.09.09,0,0,0-.08-.08.08.08,0,0,0-.08.08.07.07,0,0,0,.08.08A.08.08,0,0,0,99.71,166Z"/><path class="cls-17" d="M100,166a.08.08,0,0,0-.08-.08.09.09,0,0,0-.08.08.08.08,0,0,0,.08.08A.07.07,0,0,0,100,166Z"/><path class="cls-17" d="M100.3,166a.09.09,0,0,0-.08-.08.08.08,0,0,0-.08.08.07.07,0,0,0,.08.08A.08.08,0,0,0,100.3,166Z"/><path class="cls-17" d="M100.51,165.89a.09.09,0,0,0-.08.08.08.08,0,0,0,.08.08.07.07,0,0,0,.08-.08A.08.08,0,0,0,100.51,165.89Z"/><path class="cls-17" d="M100.89,166a.09.09,0,0,0-.08-.08.08.08,0,0,0-.08.08.07.07,0,0,0,.08.08A.08.08,0,0,0,100.89,166Z"/><path class="cls-17" d="M101.1,165.89a.09.09,0,0,0-.08.08.08.08,0,0,0,.08.08.08.08,0,0,0,.09-.08A.09.09,0,0,0,101.1,165.89Z"/><path class="cls-17" d="M101.4,165.89a.09.09,0,0,0-.08.08.08.08,0,0,0,.08.08.07.07,0,0,0,.08-.08A.08.08,0,0,0,101.4,165.89Z"/><path class="cls-17" d="M99.6,165.71a.08.08,0,0,0,.08-.08.09.09,0,0,0-.08-.08.08.08,0,0,0-.08.08A.07.07,0,0,0,99.6,165.71Z"/><path class="cls-17" d="M99.87,165.59a.09.09,0,0,0,.08-.08.08.08,0,0,0-.08-.08.07.07,0,0,0-.08.08A.08.08,0,0,0,99.87,165.59Z"/><path class="cls-17" d="M100.14,165.47a.08.08,0,0,0,.07-.09.08.08,0,0,0-.07-.08.09.09,0,0,0-.09.08A.09.09,0,0,0,100.14,165.47Z"/><path class="cls-17" d="M100.4,165.18a.09.09,0,0,0-.08.08.08.08,0,0,0,.08.08.07.07,0,0,0,.08-.08A.08.08,0,0,0,100.4,165.18Z"/><path class="cls-17" d="M100.67,165.22a.08.08,0,0,0,.08-.08.08.08,0,0,0-.16,0A.08.08,0,0,0,100.67,165.22Z"/><path class="cls-17" d="M100.94,164.93a.08.08,0,0,0-.08.08.07.07,0,0,0,.08.08A.08.08,0,0,0,101,165,.09.09,0,0,0,100.94,164.93Z"/><path class="cls-17" d="M102.05,165.37c.16,0,.26-.07.26-.23a.2.2,0,0,0-.14-.2l-.12-.05c-.07,0-.08-.06-.08-.1a.08.08,0,0,1,.09-.09s.08,0,.08.11h.15v0c0-.15-.1-.2-.24-.2a.21.21,0,0,0-.24.22c0,.12.07.18.2.23s.14.06.14.13a.08.08,0,0,1-.09.09c-.08,0-.1,0-.1-.12v0h-.15v0C101.81,165.29,101.87,165.37,102.05,165.37Z"/><path class="cls-17" d="M102.17,166.93l-.12-.05c-.07,0-.08-.06-.08-.1a.08.08,0,0,1,.09-.09s.08,0,.08.11h.15v0c0-.14-.1-.2-.24-.2a.21.21,0,0,0-.24.22c0,.13.07.18.2.23s.14.06.14.13a.08.08,0,0,1-.09.09c-.08,0-.1,0-.1-.12v0h-.15v0c0,.14.06.22.24.22s.26-.07.26-.23A.2.2,0,0,0,102.17,166.93Z"/><path class="cls-17" d="M100,166.94l-.69-.48v-.19a.08.08,0,0,0,.06-.1.09.09,0,0,0-.06-.06v-.06a.08.08,0,0,0,.06-.09s0-.06-.06-.06v-.06a.08.08,0,0,0,.06-.1.09.09,0,0,0-.06-.06v-.2L100,165l0,.09.4-.47-.59.2.08.06-.6.42V165H98.12v.73h-.5v.42h.5v.73h1.23v-.27l.61.42-.08.06.58.21-.39-.48Zm-.8-.13h-1v-.63h.5v-.42h-.5v-.62h1Z"/><rect class="cls-3" x="19.78" y="189.71" width="136.72" height="23.06" rx="0.76"/><path class="cls-4" d="M139.13,192v17.81a1,1,0,0,0,1,1h12.91a1,1,0,0,0,1-1V192a1,1,0,0,0-1-1H140.17a1,1,0,0,0-1,1Z"/><path class="cls-4" d="M126.76,207.94H135a.58.58,0,0,0,.58-.58h0V195.14a.58.58,0,0,0-.58-.58h-8.26a.58.58,0,0,0-.58.58v12.22A.58.58,0,0,0,126.76,207.94Z"/><path class="cls-5" d="M134.36,198.19v-1.81A.34.34,0,0,0,134,196h-6.28a.34.34,0,0,0-.33.34v1.81Z"/><path class="cls-6" d="M134.36,198.19h-6.94V206a.33.33,0,0,0,.33.33H134a.33.33,0,0,0,.33-.33h0Z"/><path class="cls-5" d="M140.63,197.23v8a1.69,1.69,0,0,0,.51,1.2l3.24,3.1a1.68,1.68,0,0,0,1.14.46H151a1.65,1.65,0,0,0,1.65-1.66V194.13a1.65,1.65,0,0,0-1.65-1.65h-5.44a1.68,1.68,0,0,0-1.14.46l-3.24,3.1A1.67,1.67,0,0,0,140.63,197.23Z"/><rect class="cls-7" x="146.73" y="205.49" width="3.3" height="0.99"/><rect class="cls-7" x="143.21" y="200.77" width="3.3" height="0.99"/><rect class="cls-7" x="146.73" y="196.05" width="3.3" height="0.99"/><path class="cls-8" d="M62.9,211.5H84.1a.57.57,0,0,0,.57-.57h0V191.57a.58.58,0,0,0-.57-.58H62.9a.57.57,0,0,0-.57.58v19.36A.56.56,0,0,0,62.9,211.5Z"/><circle class="cls-5" cx="70.68" cy="196.12" r="1.01"/><circle class="cls-5" cx="76.75" cy="196.12" r="1.01"/><g id="Latch_PSU-5" data-name="Latch/PSU"><rect class="cls-9" x="151.77" y="212.7" width="6.8" height="1.17"/><rect class="cls-10" x="71.04" y="209.53" width="3.32" height="5"/><rect class="cls-10" x="107.43" y="211.2" width="44.34" height="3.34"/><rect class="cls-10" x="106.27" y="211.2" width="1.16" height="3.34"/><rect class="cls-10" x="20.36" y="211.2" width="33.03" height="3.34"/><rect class="cls-10" x="53.39" y="211.2" width="1.16" height="3.34"/><path class="cls-11" d="M87.89,211.2a7.89,7.89,0,0,1-2-.25l-4.68-1.17a8.43,8.43,0,0,0-2-.25h-5a.34.34,0,0,0-.33.34v4.33a.34.34,0,0,0,.33.34h32.08V211.2Z"/><path class="cls-12" d="M76.51,214h27.94V211.7H87.89a8.92,8.92,0,0,1-2.12-.26l-4.68-1.17a7.46,7.46,0,0,0-1.88-.24h-2.7Z"/><polygon class="cls-13" points="80.39 212 78.95 211.34 78.95 212.72 80.39 212"/><path class="cls-11" d="M66.2,211.2H54.55v3.34H71.21a.34.34,0,0,0,.33-.34h0v-4.33a.34.34,0,0,0-.33-.34H68.92a.77.77,0,0,0-.5.18L66.71,211A.87.87,0,0,1,66.2,211.2Z"/><rect class="cls-14" x="17.91" y="212.28" width="4.97" height="2.25"/><rect class="cls-15" x="151.77" y="213.87" width="6.22" height="0.67"/></g><path class="cls-16" d="M130.87,201.43a.18.18,0,0,0,.19-.16V199.9a.17.17,0,0,0-.19-.16.15.15,0,0,0-.16.16v1.37a.16.16,0,0,0,.16.16m.64,2.35a.61.61,0,0,0-.64-.6.6.6,0,0,0-.6.6.6.6,0,0,0,.6.61A.62.62,0,0,0,131.51,203.78Zm.35,0a1,1,0,0,0-1-.95,1,1,0,0,0,0,1.91A1,1,0,0,0,131.86,203.78Z"/><path class="cls-17" d="M76.92,193.93a.18.18,0,0,0-.35,0,.18.18,0,1,0,.35,0Z"/><path class="cls-17" d="M76.92,192.42a.18.18,0,0,0-.35,0l.09,1.21s0,0,.09,0a.14.14,0,0,0,.08,0Z"/><path class="cls-17" d="M70.68,191.92a1.26,1.26,0,1,0,1.25,1.26A1.24,1.24,0,0,0,70.68,191.92Zm-.13.23a1,1,0,0,1,1.06.58l-.7.71-.29-1.09-1,1A1,1,0,0,1,70.55,192.15Zm.26,2a1,1,0,0,1-1-.57l.7-.72.3,1.1.94-1A1,1,0,0,1,70.81,194.2Z"/><path class="cls-19" d="M303.65,162.78H168.45a.76.76,0,0,0-.76.75v21.16a.75.75,0,0,0,.76.75h135.2a.75.75,0,0,0,.76-.75V163.53A.76.76,0,0,0,303.65,162.78Z"/><path class="cls-8" d="M170.61,184.46H301.5a.41.41,0,0,0,.41-.4h0V164.57a.39.39,0,0,0-.4-.4H170.61a.4.4,0,0,0-.41.4v19.49A.4.4,0,0,0,170.61,184.46Z"/><rect class="cls-22" x="215.94" y="163.48" width="65.65" height="14.92"/><g id="Latch_Controller_IOM-6" data-name="Latch/Controller/IOM"><rect class="cls-9" x="293.99" y="185.03" width="12.49" height="0.81"/><path class="cls-28" d="M213.69,183.25v3.25H297.1a.17.17,0,0,0,.16-.17h0v-1.78a.17.17,0,0,0-.16-.17H241.65a.16.16,0,0,1-.16-.16v-.81a.16.16,0,0,0-.16-.16H213.69Z"/><path class="cls-29" d="M218.83,183.25h-7.57v3.25h22.8v-3.25H233a6.05,6.05,0,0,1-1.69-.24l-4-1.14a5.6,5.6,0,0,0-1.51-.24H220.6a.44.44,0,0,0-.33.16l-1.11,1.29A.43.43,0,0,1,218.83,183.25Z"/><path class="cls-29" d="M213.33,183.25H201.88v3.25h16.37a.33.33,0,0,0,.33-.33h0V182a.32.32,0,0,0-.33-.32H216a.78.78,0,0,0-.49.16l-1.68,1.29A.82.82,0,0,1,213.33,183.25Z"/><path class="cls-30" d="M213.69,183.25h-47.9a.16.16,0,0,0-.16.16v2.92a.17.17,0,0,0,.16.17h47.9Z"/><path class="cls-12" d="M233.12,183.83h-1.88a6.06,6.06,0,0,1-1.64-.22l-3.62-1a5.57,5.57,0,0,0-1.46-.19h-2.08v3.29h10.68Z"/><polygon class="cls-13" points="225.17 184.07 223.89 183.44 223.89 184.77 225.17 184.07"/></g><path class="cls-5" d="M221.76,170.94a.76.76,0,1,0-1.51,0,.76.76,0,0,0,1.51,0Z"/><path class="cls-5" d="M244.39,170.94a.76.76,0,1,0-.75.75A.75.75,0,0,0,244.39,170.94Z"/><path class="cls-5" d="M221.76,174.16a.76.76,0,1,0-.76.76A.76.76,0,0,0,221.76,174.16Z"/><path class="cls-5" d="M244.44,174.16a.76.76,0,0,0-.76-.75.76.76,0,0,0,0,1.51A.76.76,0,0,0,244.44,174.16Z"/><path class="cls-5" d="M253.14,170.94a.76.76,0,1,0-1.51,0,.76.76,0,0,0,1.51,0Z"/><path class="cls-5" d="M275.82,170.94a.76.76,0,0,0-.76-.76.75.75,0,0,0-.75.76.74.74,0,0,0,.75.75A.75.75,0,0,0,275.82,170.94Z"/><path class="cls-5" d="M253.14,174.16a.76.76,0,1,0-.76.76A.76.76,0,0,0,253.14,174.16Z"/><path class="cls-5" d="M275.82,174.16a.76.76,0,0,0-.76-.75.76.76,0,0,0,0,1.51A.76.76,0,0,0,275.82,174.16Z"/><rect class="cls-9" x="225.39" y="170.01" width="13.92" height="6.79" rx="0.41"/><path class="cls-5" d="M287.14,170.94a.76.76,0,1,0-.75.75A.75.75,0,0,0,287.14,170.94Z"/><path class="cls-5" d="M287.14,174.16a.76.76,0,1,0-.75.76A.76.76,0,0,0,287.14,174.16Z"/><rect class="cls-23" x="232.26" y="163.48" width="0.16" height="13.33"/><rect class="cls-9" x="256.76" y="170.01" width="13.92" height="6.79" rx="0.41"/><rect class="cls-23" x="263.64" y="163.48" width="0.16" height="13.33"/><path class="cls-17" d="M249.88,166.19h.21l0,.16h.16l-.2-.75h-.19l-.2.75h.16Zm.11-.46h0l.07.34h-.15Z"/><path class="cls-17" d="M247.51,166.4a.09.09,0,0,0,.08-.08.09.09,0,0,0-.08-.09.08.08,0,0,0-.08.09A.08.08,0,0,0,247.51,166.4Z"/><path class="cls-17" d="M247.78,166.52a.09.09,0,0,0,.08-.08.08.08,0,0,0-.08-.08.08.08,0,0,0-.09.08A.09.09,0,0,0,247.78,166.52Z"/><path class="cls-17" d="M248,166.64a.07.07,0,0,0,.08-.08.08.08,0,0,0-.08-.08.09.09,0,0,0-.08.08A.08.08,0,0,0,248,166.64Z"/><path class="cls-17" d="M248.31,166.61a.08.08,0,0,0-.08.08.09.09,0,0,0,.08.08.08.08,0,0,0,.08-.08A.07.07,0,0,0,248.31,166.61Z"/><path class="cls-17" d="M248.58,166.73a.08.08,0,0,0-.08.08.08.08,0,1,0,.16,0A.08.08,0,0,0,248.58,166.73Z"/><path class="cls-17" d="M248.85,166.86a.07.07,0,0,0-.08.08.08.08,0,0,0,.08.08.09.09,0,0,0,.08-.08A.08.08,0,0,0,248.85,166.86Z"/><path class="cls-17" d="M247.62,166a.09.09,0,0,0-.08-.08.09.09,0,0,0-.09.08.08.08,0,0,0,.09.08A.08.08,0,0,0,247.62,166Z"/><path class="cls-17" d="M247.91,166a.08.08,0,0,0-.08-.08.09.09,0,0,0-.08.08.08.08,0,0,0,.08.08A.07.07,0,0,0,247.91,166Z"/><path class="cls-17" d="M248.21,166a.09.09,0,0,0-.08-.08.08.08,0,0,0-.08.08.07.07,0,0,0,.08.08A.08.08,0,0,0,248.21,166Z"/><path class="cls-17" d="M248.42,165.89a.09.09,0,0,0-.08.08.08.08,0,0,0,.08.08.07.07,0,0,0,.08-.08A.08.08,0,0,0,248.42,165.89Z"/><path class="cls-17" d="M248.8,166a.09.09,0,0,0-.08-.08.08.08,0,0,0-.08.08.07.07,0,0,0,.08.08A.08.08,0,0,0,248.8,166Z"/><path class="cls-17" d="M249,165.89a.09.09,0,0,0-.08.08.08.08,0,0,0,.08.08.08.08,0,0,0,.09-.08A.09.09,0,0,0,249,165.89Z"/><path class="cls-17" d="M249.31,165.89a.09.09,0,0,0-.08.08.08.08,0,0,0,.16,0A.09.09,0,0,0,249.31,165.89Z"/><path class="cls-17" d="M247.51,165.71a.08.08,0,0,0,.08-.08.09.09,0,0,0-.08-.08.08.08,0,0,0-.08.08A.07.07,0,0,0,247.51,165.71Z"/><path class="cls-17" d="M247.78,165.59a.09.09,0,0,0,.08-.08.08.08,0,0,0-.08-.08.08.08,0,0,0-.09.08A.09.09,0,0,0,247.78,165.59Z"/><path class="cls-17" d="M248,165.47a.08.08,0,0,0,.08-.09.08.08,0,0,0-.08-.08.09.09,0,0,0-.08.08A.09.09,0,0,0,248,165.47Z"/><path class="cls-17" d="M248.31,165.18a.09.09,0,0,0-.08.08.08.08,0,0,0,.08.08.07.07,0,0,0,.08-.08A.08.08,0,0,0,248.31,165.18Z"/><path class="cls-17" d="M248.58,165.22a.08.08,0,0,0,.08-.08.08.08,0,0,0-.16,0A.08.08,0,0,0,248.58,165.22Z"/><path class="cls-17" d="M248.85,164.93a.08.08,0,0,0-.08.08.07.07,0,0,0,.08.08.08.08,0,0,0,.08-.08A.09.09,0,0,0,248.85,164.93Z"/><path class="cls-17" d="M250,165.37c.16,0,.26-.07.26-.23s0-.15-.15-.2l-.11-.05c-.07,0-.08-.06-.08-.1a.08.08,0,0,1,.09-.09c.05,0,.08,0,.08.11h.14v0c0-.15-.09-.2-.23-.2a.21.21,0,0,0-.24.22c0,.12.07.18.2.23s.14.06.14.13a.09.09,0,0,1-.09.09c-.08,0-.1,0-.1-.12v0h-.16v0C249.71,165.29,249.78,165.37,250,165.37Z"/><path class="cls-17" d="M250.07,166.93l-.11-.05c-.07,0-.08-.06-.08-.1a.08.08,0,0,1,.09-.09c.05,0,.08,0,.08.11h.14v0c0-.14-.09-.2-.23-.2a.21.21,0,0,0-.24.22c0,.13.07.18.2.23s.14.06.14.13a.09.09,0,0,1-.09.09c-.08,0-.1,0-.1-.12v0h-.16v0c0,.14.07.22.25.22s.26-.07.26-.23S250.19,167,250.07,166.93Z"/><path class="cls-17" d="M248,166.94l-.69-.48v-.19a.08.08,0,0,0,.06-.1.09.09,0,0,0-.06-.06v-.06a.08.08,0,0,0,.06-.09s0-.06-.06-.06v-.06a.08.08,0,0,0,.06-.1.09.09,0,0,0-.06-.06v-.2L248,165l0,.09.4-.47-.59.2.08.06-.6.42V165H246v.73h-.5v.42h.5v.73h1.23v-.27l.61.42-.08.06.58.21-.39-.48Zm-.81-.13h-1v-.63h.5v-.42h-.5v-.62h1Z"/><rect class="cls-3" x="167.69" y="189.71" width="136.72" height="23.06" rx="0.76"/><path class="cls-4" d="M287,192v17.81a1,1,0,0,0,1,1H301a1,1,0,0,0,1-1V192a1,1,0,0,0-1-1H288.08a1,1,0,0,0-1,1Z"/><path class="cls-4" d="M274.67,207.94h8.26a.58.58,0,0,0,.58-.58h0V195.14a.58.58,0,0,0-.58-.58h-8.26a.58.58,0,0,0-.58.58v12.22A.58.58,0,0,0,274.67,207.94Z"/><path class="cls-5" d="M282.27,198.19v-1.81a.34.34,0,0,0-.33-.34h-6.28a.33.33,0,0,0-.33.34v1.81Z"/><path class="cls-6" d="M282.27,198.19h-6.94V206a.33.33,0,0,0,.33.33h6.28a.33.33,0,0,0,.33-.33h0Z"/><path class="cls-5" d="M288.54,197.23v8a1.65,1.65,0,0,0,.51,1.2l3.24,3.1a1.68,1.68,0,0,0,1.14.46h5.44a1.65,1.65,0,0,0,1.65-1.66V194.13a1.65,1.65,0,0,0-1.65-1.65h-5.44a1.68,1.68,0,0,0-1.14.46l-3.24,3.1A1.63,1.63,0,0,0,288.54,197.23Z"/><rect class="cls-7" x="294.64" y="205.49" width="3.3" height="0.99"/><rect class="cls-7" x="291.12" y="200.77" width="3.3" height="0.99"/><rect class="cls-7" x="294.64" y="196.05" width="3.3" height="0.99"/><path class="cls-8" d="M210.81,211.5H232a.57.57,0,0,0,.57-.57h0V191.57A.58.58,0,0,0,232,191h-21.2a.57.57,0,0,0-.57.58v19.36A.56.56,0,0,0,210.81,211.5Z"/><circle class="cls-5" cx="218.59" cy="196.12" r="1.01"/><circle class="cls-5" cx="224.66" cy="196.12" r="1.01"/><g id="Latch_PSU-6" data-name="Latch/PSU"><rect class="cls-9" x="299.68" y="212.7" width="6.8" height="1.17"/><rect class="cls-10" x="218.95" y="209.53" width="3.32" height="5"/><rect class="cls-10" x="255.34" y="211.2" width="44.34" height="3.34"/><rect class="cls-10" x="254.18" y="211.2" width="1.16" height="3.34"/><rect class="cls-10" x="168.27" y="211.2" width="33.03" height="3.34"/><rect class="cls-10" x="201.3" y="211.2" width="1.16" height="3.34"/><path class="cls-11" d="M235.8,211.2a8,8,0,0,1-2-.25l-4.67-1.17a8.43,8.43,0,0,0-2-.25h-5a.34.34,0,0,0-.33.34v4.33a.34.34,0,0,0,.33.34h32.08V211.2Z"/><path class="cls-12" d="M224.42,214h27.93V211.7H235.8a9,9,0,0,1-2.13-.26L229,210.27a7.51,7.51,0,0,0-1.88-.24h-2.7Z"/><polygon class="cls-13" points="228.3 212 226.86 211.34 226.86 212.72 228.3 212"/><path class="cls-11" d="M214.11,211.2H202.46v3.34h16.66a.34.34,0,0,0,.33-.34h0v-4.33a.34.34,0,0,0-.33-.34h-2.29a.81.81,0,0,0-.51.18l-1.7,1.32A.87.87,0,0,1,214.11,211.2Z"/><rect class="cls-14" x="165.82" y="212.28" width="4.97" height="2.25"/><rect class="cls-15" x="299.68" y="213.87" width="6.22" height="0.67"/></g><path class="cls-16" d="M278.78,201.43a.18.18,0,0,0,.19-.16V199.9a.17.17,0,0,0-.19-.16.15.15,0,0,0-.16.16v1.37a.16.16,0,0,0,.16.16m.64,2.35a.61.61,0,0,0-.64-.6.6.6,0,0,0-.6.6.6.6,0,0,0,.6.61A.62.62,0,0,0,279.42,203.78Zm.35,0a1,1,0,0,0-1-.95,1,1,0,0,0,0,1.91A1,1,0,0,0,279.77,203.78Z"/><path class="cls-17" d="M224.83,193.93a.18.18,0,0,0-.35,0,.18.18,0,1,0,.35,0Z"/><path class="cls-17" d="M224.83,192.42a.18.18,0,0,0-.35,0l.09,1.21s0,0,.09,0a.14.14,0,0,0,.08,0Z"/><path class="cls-17" d="M218.59,191.92a1.26,1.26,0,1,0,1.25,1.26A1.24,1.24,0,0,0,218.59,191.92Zm-.13.23a1,1,0,0,1,1.06.58l-.7.71-.29-1.09-1,1A1,1,0,0,1,218.46,192.15Zm.26,2a1,1,0,0,1-1.05-.57l.7-.72.3,1.1.94-1A1,1,0,0,1,218.72,194.2Z"/><polygon class="cls-18" points="161.07 169.58 164.55 169.58 164.55 165.36 161.07 165.36 159.45 167.47 161.07 169.58"/><polygon class="cls-18" points="162.9 182.74 164.55 180.63 162.9 178.55 159.45 178.55 159.45 182.74 162.9 182.74"/><polygon class="cls-18" points="161.07 200 164.55 200 164.55 195.8 161.07 195.8 159.45 197.89 161.07 200"/><polygon class="cls-18" points="162.9 213.18 164.55 211.07 162.9 208.97 159.45 208.97 159.45 213.18 162.9 213.18"/><path class="cls-16" d="M161.68,196.74a1.17,1.17,0,0,0-1.14,1.15,1.15,1.15,0,1,0,1.14-1.15Zm.13.23a.93.93,0,0,1,.81.76l-.79.46v-1l-1.06.61A.91.91,0,0,1,161.81,197Zm-.25,1.86a.91.91,0,0,1-.79-.77l.79-.45v1l1.06-.61A.94.94,0,0,1,161.56,198.83Z"/><path class="cls-7" d="M162.48,166.46h.44l.91,2.16h-.49l-.19-.48h-.91l-.19.48h-.48Zm.5,1.26-.29-.69-.28.69Z"/><path class="cls-7" d="M160.51,179.64h1a.77.77,0,0,1,.56.19.49.49,0,0,1,.15.36h0a.49.49,0,0,1-.28.46.53.53,0,0,1,.4.53h0c0,.39-.32.59-.8.59h-1Zm1.23.63c0-.14-.11-.22-.31-.22H161v.46h.43c.21,0,.34-.07.34-.23Zm-.23.63H161v.47h.56c.21,0,.33-.08.33-.24h0C161.86,181,161.75,180.9,161.51,180.9Z"/><path class="cls-7" d="M163,198.85v-.31h.46v-1.08l-.41.15-.09-.32.61-.23h.26v1.48h.41v.31Z"/><path class="cls-7" d="M162.23,212v-.3l.57-.5c.21-.19.29-.28.29-.43a.22.22,0,0,0-.24-.22c-.14,0-.24.07-.36.24l-.26-.23a.73.73,0,0,1,.65-.36.54.54,0,0,1,.6.54h0a.7.7,0,0,1-.31.56l-.42.36h.75V212Z"/><path class="cls-16" d="M160.87,209.93a1.15,1.15,0,0,0,0,2.29,1.15,1.15,0,0,0,0-2.29Zm.13.2a.93.93,0,0,1,.78.77l-.78.45v-1l-1.07.64A.94.94,0,0,1,161,210.13Zm-.28,1.88a1,1,0,0,1-.79-.76l.79-.46v1l1.06-.61A1,1,0,0,1,160.72,212Z"/><rect class="cls-5" x="78.07" y="170.6" width="5.6" height="5.61"/><rect class="cls-5" x="85.2" y="170.6" width="5.6" height="5.61"/><rect class="cls-5" x="109.45" y="170.6" width="5.6" height="5.61"/><rect class="cls-5" x="116.58" y="170.6" width="5.6" height="5.61"/><rect class="cls-5" x="225.98" y="170.6" width="5.6" height="5.61"/><rect class="cls-5" x="233.11" y="170.6" width="5.6" height="5.61"/><rect class="cls-5" x="257.36" y="170.6" width="5.6" height="5.61"/><rect class="cls-5" x="264.49" y="170.6" width="5.6" height="5.61"/><line class="cls-33" x1="80.87" y1="102.3" x2="71.06" y2="30.9"/><line class="cls-34" x1="80.87" y1="102.3" x2="71.06" y2="30.9"/><line class="cls-33" x1="88.14" y1="102.3" x2="78.75" y2="30.9"/><line class="cls-34" x1="88.14" y1="102.3" x2="78.75" y2="30.9"/><line class="cls-33" x1="80.88" y1="173.56" x2="112.25" y2="102.16"/><line class="cls-34" x1="80.88" y1="173.56" x2="112.25" y2="102.16"/><line class="cls-33" x1="88.15" y1="173.56" x2="119.93" y2="102.16"/><line class="cls-34" x1="88.15" y1="173.56" x2="119.93" y2="102.16"/><line class="cls-33" x1="267.29" y1="173.41" x2="235.85" y2="102.16"/><line class="cls-35" x1="267.29" y1="173.41" x2="266.69" y2="172.03"/><line class="cls-36" x1="265.48" y1="169.29" x2="237.06" y2="104.9"/><line class="cls-35" x1="236.46" y1="103.53" x2="235.85" y2="102.16"/><line class="cls-33" x1="260.15" y1="173.41" x2="228.59" y2="102.16"/><line class="cls-35" x1="260.15" y1="173.41" x2="259.55" y2="172.04"/><line class="cls-37" x1="258.33" y1="169.3" x2="229.8" y2="104.9"/><line class="cls-35" x1="229.19" y1="103.53" x2="228.59" y2="102.16"/><rect class="cls-38" x="67.95" y="27.86" width="6.08" height="6.1"/><rect class="cls-38" x="75.71" y="27.86" width="6.08" height="6.1"/><polyline class="cls-33" points="219.06 30.9 219.06 62.35 284.91 62.35 284.91 182.46 228.78 182.46 228.78 173.41"/><line class="cls-35" x1="219.06" y1="30.9" x2="219.06" y2="32.4"/><line class="cls-39" x1="219.06" y1="35.56" x2="219.06" y2="59.27"/><polyline class="cls-35" points="219.06 60.85 219.06 62.35 220.56 62.35"/><line class="cls-40" x1="223.56" y1="62.35" x2="281.92" y2="62.35"/><polyline class="cls-35" points="283.41 62.35 284.91 62.35 284.91 63.85"/><line class="cls-41" x1="284.91" y1="66.85" x2="284.91" y2="179.46"/><polyline class="cls-35" points="284.91 180.96 284.91 182.46 283.41 182.46"/><line class="cls-42" x1="280.29" y1="182.46" x2="231.84" y2="182.46"/><polyline class="cls-35" points="230.28 182.46 228.78 182.46 228.78 180.96"/><line class="cls-43" x1="228.77" y1="178.94" x2="228.77" y2="175.92"/><line class="cls-35" x1="228.77" y1="174.91" x2="228.77" y2="173.41"/><polyline class="cls-33" points="226.75 30.9 226.75 54.31 292.95 54.31 292.95 190.51 236.15 190.51 236.15 174.11"/><line class="cls-35" x1="226.75" y1="30.9" x2="226.75" y2="32.4"/><line class="cls-44" x1="226.75" y1="35.32" x2="226.75" y2="51.35"/><polyline class="cls-35" points="226.75 52.81 226.75 54.31 228.25 54.31"/><line class="cls-45" x1="231.26" y1="54.31" x2="289.94" y2="54.31"/><polyline class="cls-35" points="291.45 54.31 292.95 54.31 292.95 55.81"/><line class="cls-46" x1="292.95" y1="58.77" x2="292.95" y2="187.53"/><polyline class="cls-35" points="292.95 189.01 292.95 190.51 291.45 190.51"/><line class="cls-47" x1="288.28" y1="190.51" x2="239.23" y2="190.51"/><polyline class="cls-35" points="237.65 190.51 236.15 190.51 236.15 189.01"/><line class="cls-48" x1="236.15" y1="186.33" x2="236.15" y2="176.95"/><line class="cls-35" x1="236.15" y1="175.61" x2="236.15" y2="174.11"/><rect class="cls-49" x="215.95" y="27.86" width="6.08" height="6.1"/><rect class="cls-49" x="223.71" y="27.86" width="6.08" height="6.1"/><rect class="cls-49" x="225.98" y="99.5" width="5.6" height="5.61"/><rect class="cls-49" x="233.11" y="99.5" width="5.6" height="5.61"/><rect class="cls-38" x="78.07" y="99.5" width="5.6" height="5.61"/><rect class="cls-38" x="85.2" y="99.5" width="5.6" height="5.61"/><rect class="cls-38" x="109.45" y="99.5" width="5.6" height="5.61"/><rect class="cls-38" x="116.58" y="99.5" width="5.6" height="5.61"/><rect class="cls-38" x="78.07" y="170.6" width="5.6" height="5.61"/><rect class="cls-38" x="85.2" y="170.6" width="5.6" height="5.61"/><rect class="cls-49" x="257.36" y="99.5" width="5.6" height="5.61"/><rect class="cls-49" x="264.49" y="99.5" width="5.6" height="5.61"/><rect class="cls-49" x="225.98" y="170.6" width="5.6" height="5.61"/><rect class="cls-49" x="233.11" y="170.6" width="5.6" height="5.61"/><rect class="cls-49" x="257.36" y="170.6" width="5.6" height="5.61"/><rect class="cls-49" x="264.49" y="170.6" width="5.6" height="5.61"/></g></svg>