<svg xmlns="http://www.w3.org/2000/svg" xmlns:xlink="http://www.w3.org/1999/xlink" viewBox="0 0 241.47 166"><defs><style>.cls-1{fill:#f7941d;}.cls-2{fill:#fff;}.cls-24,.cls-3{fill:#f3dfcc;}.cls-3,.cls-4,.cls-5{fill-rule:evenodd;}.cls-17,.cls-19,.cls-25,.cls-26,.cls-4,.cls-5{fill:none;}.cls-25,.cls-26,.cls-4,.cls-5{stroke:#000;}.cls-4,.cls-5{stroke-linecap:round;stroke-linejoin:round;}.cls-4{stroke-width:0.18px;}.cls-5{stroke-width:0.06px;}.cls-6{fill:#232326;}.cls-7{fill:#3a3c3f;}.cls-8{fill:#a6a8ab;}.cls-9{fill:#6d6f70;}.cls-10{fill:#bbbdbf;}.cls-11{fill:#d0d2d3;}.cls-12{fill:#808184;}.cls-13{fill:#e7e7e8;}.cls-14{fill:#a7a8ab;}.cls-15{fill:#59595b;}.cls-16{fill:#929497;}.cls-17{font-size:4.85px;}.cls-17,.cls-19{stroke:#929497;stroke-width:0.5px;font-family:Helvetica;}.cls-18{letter-spacing:-0.02em;}.cls-19{font-size:4.96px;}.cls-20{letter-spacing:-0.02em;}.cls-21{fill:#c1986c;}.cls-22{fill:#ef4036;}.cls-23{fill:url(#New_Gradient_Swatch_copy);}.cls-25{stroke-width:0.21px;}.cls-26{stroke-width:0.07px;}.cls-27{fill:url(#New_Gradient_Swatch_copy-2);}</style><linearGradient id="New_Gradient_Swatch_copy" x1="-450.22" y1="-689.68" x2="-453.13" y2="-689.68" gradientTransform="matrix(1, 0, 0, 1.3, 642.66, 947.38)" gradientUnits="userSpaceOnUse"><stop offset="0" stop-color="#fff"/><stop offset="1" stop-color="#fff" stop-opacity="0"/></linearGradient><linearGradient id="New_Gradient_Swatch_copy-2" x1="-371.06" y1="139.56" x2="-373.86" y2="139.56" gradientTransform="matrix(-1, 0, 0, -0.87, -353.99, 236.92)" xlink:href="#New_Gradient_Swatch_copy"/></defs><title>1, Install Rails_Source</title><g id="Rulers"><polygon class="cls-1" points="124.51 22.41 124.47 16.59 133.22 21.57 124.61 36.74 124.57 30.66 103.35 38.97 124.51 22.41"/><path class="cls-2" d="M124.72,17l8.16,4.64-8,14.15,0-5.51-20,7.82,19.91-15.59,0-5.51m-.51-.86V17l0,5.26L104.54,37.73l-2.69,2.1L105,38.58,124.32,31l0,4.78,0,1.87.92-1.63,8-14.14.25-.44-.44-.24L125,16.59l-.76-.43Z"/><path class="cls-3" d="M189.5,36.34c-5.46,1.1-12.3,2.28-15.12,2.64s-8,.92-9.56,1a3.74,3.74,0,0,1-3-.73c-.82-.64-2.46-2.37-4.46-2.46s-3.18-.11-4.07-.08a2.91,2.91,0,0,1-1.42-.2,6.19,6.19,0,0,0-1.21-.35,2.82,2.82,0,0,1-1.35-.84,3.78,3.78,0,0,0-1-.86,12.35,12.35,0,0,1-1.73-1.3,2.14,2.14,0,0,0-2.54-.69,1.71,1.71,0,0,0-1,1.53,1.19,1.19,0,0,0-1.55,1,19.16,19.16,0,0,0-.23,3.23,5.18,5.18,0,0,1,0,1.12c0,.35,0,1.61,0,2a6.27,6.27,0,0,0,.23,1.87c.23.78.43,1.7.6,2.28.35,1.15.84,1.7,1.1,2.53a31.84,31.84,0,0,1,.95,3.09c.26,1.21,1.1,2,3.08,2.07.44,0,.84-.17,1.19.55a2.27,2.27,0,0,0,2.59,1,30.86,30.86,0,0,1,3.31-.84,32.73,32.73,0,0,0,5-1.3c.52-.26,3.46-1.86,5.91-1.67s5.47,2,8.84,3.46,12.48,3.6,23.82,5.51Z"/><path class="cls-4" d="M143.07,34a1.19,1.19,0,0,0-1.55,1,19.16,19.16,0,0,0-.23,3.23,5.18,5.18,0,0,1,0,1.12c0,.35,0,1.61,0,2a6.27,6.27,0,0,0,.23,1.87c.23.78.43,1.7.6,2.28.35,1.15.84,1.7,1.1,2.53a31.84,31.84,0,0,1,.95,3.09c.26,1.21,1.1,2,3.08,2.07.44,0,.84-.17,1.19.55a2.27,2.27,0,0,0,2.59,1,30.86,30.86,0,0,1,3.31-.84,32.73,32.73,0,0,0,5-1.3c.52-.26,3.46-1.86,5.91-1.67s5.47,2,8.84,3.46,12.48,3.6,23.82,5.51"/><path class="cls-5" d="M146.71,44a4.91,4.91,0,0,0-.41.33c-.45.39-1.31,1-2,3.87"/><path class="cls-4" d="M161.81,39.26a3.74,3.74,0,0,0,3,.73c1.55-.09,6.74-.64,9.56-1s9.66-1.54,15.12-2.64"/><path class="cls-4" d="M145,37.8a4.71,4.71,0,0,1-.12.82,26.61,26.61,0,0,1,.73,3.42,17.51,17.51,0,0,1,1.07,2c.38-.28.83-.6,1.29-1"/><path class="cls-5" d="M146.24,44.35a3,3,0,0,0-2.31,1.39"/><path class="cls-5" d="M145.64,42a3.55,3.55,0,0,0-3.35,0"/><path class="cls-5" d="M144.91,38.54c-.51-.37-1.74-1.06-2.66-.51"/><path class="cls-6" d="M148.6,30.41v8l5.51,3.18v-8l-.38-.22v1.71l-1.48-.85V32.52Zm5.13,7.51-1.48-.85V35.36l1.48.85Zm-1.48-.28,1.48.86v1.71l-1.48-.86Z"/><polygon class="cls-7" points="154.11 41.57 154.63 41.27 154.63 33.29 154.11 33.59 154.11 41.57"/><path class="cls-7" d="M153.73,40.21V39.6l-1-.55V37.94l-.52-.3v1.71Z"/><path class="cls-7" d="M153.73,37.92v-.6l-1-.55V35.66l-.52-.3v1.71Z"/><path class="cls-7" d="M153.73,35.08v-.6l-1-.56v-1.1l-.52-.3v1.71Z"/><path class="cls-6" d="M148.6,22.42v8l5.51,3.18v-8l-.38-.21V27.1l-1.48-.86V24.53Zm5.13,7.52-1.48-.86V27.37l1.48.86Zm-1.48-.28,1.48.85v1.71l-1.48-.85Z"/><polygon class="cls-7" points="154.11 33.59 154.63 33.29 154.63 25.3 154.11 25.61 154.11 33.59"/><path class="cls-7" d="M153.73,32.22v-.6l-1-.55V30l-.52-.3v1.71Z"/><path class="cls-7" d="M153.73,29.94v-.61l-1-.55v-1.1l-.52-.31v1.71Z"/><path class="cls-7" d="M153.73,27.1v-.61l-1-.55V24.83l-.52-.3v1.71Z"/><path class="cls-6" d="M148.6,14.44v8l5.51,3.18v-8l-.38-.22v1.71l-1.48-.85V16.55ZM153.73,22l-1.48-.85V19.39l1.48.85Zm-1.48-.28,1.48.86v1.71l-1.48-.86Z"/><polygon class="cls-7" points="154.11 25.61 154.63 25.3 154.63 17.32 154.11 17.62 154.11 25.61"/><path class="cls-7" d="M153.73,24.24v-.61l-1-.55V22l-.52-.31v1.71Z"/><path class="cls-7" d="M153.73,22v-.6l-1-.55V19.69l-.52-.3V21.1Z"/><path class="cls-7" d="M153.73,19.11v-.6l-1-.55V16.85l-.52-.3v1.71Z"/><path class="cls-6" d="M148.6,6.45v8l5.51,3.18v-8l-.38-.22v1.71l-1.48-.86V8.56ZM153.73,14l-1.48-.86V11.4l1.48.86Zm-1.48-.28,1.48.85v1.71l-1.48-.85Z"/><polygon class="cls-7" points="154.11 17.62 154.63 17.32 154.63 9.33 154.11 9.64 154.11 17.62"/><path class="cls-7" d="M153.73,16.25v-.6l-1-.55V14l-.52-.3V15.4Z"/><path class="cls-7" d="M153.73,14v-.61l-1-.55v-1.1l-.52-.31v1.71Z"/><path class="cls-7" d="M153.73,11.13v-.61l-1-.55V8.87l-.52-.31v1.71Z"/><path class="cls-6" d="M226.4,75.32v8l5.51,3.18v-8l-3.65-2.11V78.1l-1.48-.85V75.54Zm1.86,5.62-1.48-.85V78.38l1.48.85Zm-1.48-.28,1.48.86v1.71l-1.48-.86Z"/><polygon class="cls-7" points="231.91 86.49 232.44 86.19 232.44 78.2 231.91 78.5 231.91 86.49"/><path class="cls-7" d="M228.26,83.23v-.61l-1-.55V81l-.52-.31v1.71Z"/><path class="cls-7" d="M228.26,80.94v-.6l-1-.55V78.68l-.52-.3v1.71Z"/><path class="cls-7" d="M228.26,78.1v-.6l-1-.55V75.84l-.52-.3v1.71Z"/><path class="cls-6" d="M226.4,67.34v8l5.51,3.18v-8l-3.65-2.11v1.71l-1.48-.86V67.55ZM228.26,73l-1.48-.86V70.4l1.48.85Zm-1.48-.28,1.48.85v1.71l-1.48-.85Z"/><polygon class="cls-7" points="231.91 78.5 232.44 78.2 232.44 70.22 231.91 70.52 231.91 78.5"/><path class="cls-7" d="M228.26,75.24v-.6l-1-.55V73l-.52-.3v1.71Z"/><path class="cls-7" d="M228.26,73v-.6l-1-.56V70.7l-.52-.3v1.7Z"/><path class="cls-7" d="M228.26,70.12v-.61l-1-.55v-1.1l-.52-.31v1.71Z"/><path class="cls-6" d="M226.4,59.35v8l5.51,3.18v-8l-3.65-2.11v1.71l-1.48-.85V59.57ZM228.26,65l-1.48-.85V62.41l1.48.86Zm-1.48-.27,1.48.85v1.71l-1.48-.86Z"/><polygon class="cls-7" points="231.91 70.52 232.44 70.22 232.44 62.23 231.91 62.53 231.91 70.52"/><path class="cls-7" d="M228.26,67.26v-.6l-1-.56V65l-.52-.3v1.7Z"/><path class="cls-7" d="M228.26,65v-.6l-1-.55V62.71l-.52-.3v1.71Z"/><path class="cls-7" d="M228.26,62.13v-.6l-1-.55V59.87l-.52-.3v1.71Z"/><path class="cls-6" d="M226.4,51.37v8l5.51,3.18v-8l-3.65-2.11v1.71l-1.48-.86v-1.7ZM228.26,57l-1.48-.85V54.43l1.48.85Zm-1.48-.28,1.48.86v1.7l-1.48-.85Z"/><polygon class="cls-7" points="231.91 62.53 232.44 62.23 232.44 54.25 231.91 54.55 231.91 62.53"/><path class="cls-7" d="M228.26,59.27v-.6l-1-.55V57l-.52-.3v1.71Z"/><path class="cls-7" d="M228.26,57v-.6l-1-.56v-1.1l-.52-.3v1.71Z"/><path class="cls-7" d="M228.26,54.15v-.6l-1-.56v-1.1l-.52-.3v1.7Z"/><path class="cls-8" d="M118.33,39.64V51.28l32.9-19V20.46Zm18.07-5c-.25.14-.45,0-.45-.26a1,1,0,0,1,.45-.78c.25-.14.45,0,.45.26A1,1,0,0,1,136.4,34.63Zm7.76.12c-.22.12-.39,0-.39-.23a.88.88,0,0,1,.39-.69c.22-.12.4,0,.4.23A.89.89,0,0,1,144.16,34.75Zm0-7.65c-.22.12-.39,0-.39-.23a.87.87,0,0,1,.39-.69c.22-.13.4,0,.4.23A.89.89,0,0,1,144.16,27.1Zm6,4.19c-.22.13-.4,0-.4-.23a.86.86,0,0,1,.4-.68c.22-.13.4,0,.4.23A.86.86,0,0,1,150.14,31.29Zm0-7.65c-.22.13-.4,0-.4-.23a.86.86,0,0,1,.4-.68c.22-.13.4,0,.4.22A.88.88,0,0,1,150.14,23.64Z"/><polygon class="cls-9" points="153.99 19.27 153.2 18.87 153.33 18.3 154.13 18.74 153.99 19.27"/><path class="cls-10" d="M118.33,43.34v3.52l26.2-15.14V28.15Zm18.07-8.71c-.25.14-.45,0-.45-.26a1,1,0,0,1,.45-.78c.25-.14.45,0,.45.26A1,1,0,0,1,136.4,34.63Z"/><polygon class="cls-10" points="118.14 39.46 151.08 20.26 150.47 19.91 117.53 39.11 118.14 39.46"/><path class="cls-11" d="M118.14,39.46a.34.34,0,0,1,.19.18l32.9-19.18a.24.24,0,0,0-.15-.2Z"/><polygon class="cls-12" points="144.53 28.15 144.81 27.97 144.81 32.21 144.53 31.72 144.53 28.15"/><polygon class="cls-11" points="144.81 32.21 118.33 47.52 118.33 46.86 144.53 31.72 144.81 32.21"/><polygon class="cls-9" points="144.81 27.9 118.33 43.3 118.33 43.34 144.53 28.15 144.81 27.97 144.81 27.9"/><path class="cls-12" d="M150.32,22.67a.34.34,0,0,1,0,.18.87.87,0,0,1-.39.69.35.35,0,0,1-.18.05c.06.11.2.14.35.05a.88.88,0,0,0,.4-.69C150.54,22.78,150.45,22.67,150.32,22.67Z"/><path class="cls-12" d="M152.61,32.14h-.35a.46.46,0,0,1-.23-.06l-.68-.42V21.06h1.26Z"/><path class="cls-8" d="M152.84,21s1-.44,1-.83v4.59a.25.25,0,0,1-.11.19l-.26.16a.7.7,0,0,0-.32.59v2a.21.21,0,0,0,.31.18s.38-.21.38-.35v3.92a.1.1,0,0,1-.06.09l-.92.58Z"/><path class="cls-10" d="M152.61,32.14a.51.51,0,0,0,.23,0V21a.55.55,0,0,1-.23.06Z"/><path class="cls-13" d="M153.55,27.16h-.09L153.2,27v.16a.3.3,0,0,0,.12.24l.05,0a0,0,0,0,1,0,.08l-.25.14s0,.19.27.18a1.34,1.34,0,0,0,.31-.17.23.23,0,0,0,0-.39l-.13-.09Z"/><path class="cls-14" d="M153.73,24.94h0a.66.66,0,0,1,.3.54v1.26a.33.33,0,0,1-.17.28l-.23.13.05-.11a.57.57,0,0,0,0-.18V25.65a.7.7,0,0,0-.27-.55h0Z"/><path class="cls-12" d="M153.44,25.1a.65.65,0,0,1,.27.55v1.27s0,.21-.08.23a.53.53,0,0,1-.17,0l-.34-.16V25.64A.78.78,0,0,1,153.44,25.1Z"/><path class="cls-15" d="M153.2,27l-.08,0v.7l.25-.14a0,0,0,0,0,0-.08h0a.32.32,0,0,1-.16-.29Z"/><polygon class="cls-16" points="151.35 31.66 151.23 31.73 151.23 21.13 151.35 21.06 151.35 31.66"/><path class="cls-8" d="M154.27,18.39l-1.2-.69a.36.36,0,0,0-.32,0l-.31.18a.74.74,0,0,0-.37.65v.15a.17.17,0,0,1-.09.14l-.67.41a.11.11,0,0,0-.06.11l0,1.49,1.32,0,1-.58-.06-.92.16-.58.58-.19.12.24V18.6C154.35,18.49,154.36,18.44,154.27,18.39Z"/><path class="cls-13" d="M151.23,20.83h1.14a.65.65,0,0,0,.31-.08l.51-.29a.38.38,0,0,0,.2-.44,2.51,2.51,0,0,1-.07-.77.72.72,0,0,1,.37-.63l.4-.22a.19.19,0,0,1,.29.17v.25a.38.38,0,0,1-.14.28l-.25.17v-.41s0-.05-.07,0l-.21.11a.22.22,0,0,0-.09.16v.37a.29.29,0,0,0,0,.09l.14.3a.59.59,0,0,1-.18.69,4.12,4.12,0,0,1-.81.5.59.59,0,0,1-.34.1h-1.22Z"/><path class="cls-12" d="M136.6,33.53a.39.39,0,0,1,.05.2,1,1,0,0,1-.45.79.31.31,0,0,1-.2,0c.07.13.22.16.4.06a1,1,0,0,0,.45-.78C136.85,33.65,136.75,33.53,136.6,33.53Z"/><path class="cls-11" d="M149.73,23.45c0,.28.2.39.44.25a1,1,0,0,0,.43-.75c0-.28-.19-.39-.43-.25a.87.87,0,0,0-.31.32.78.78,0,0,1,.28-.29c.22-.13.4,0,.4.22a.88.88,0,0,1-.4.69c-.22.13-.4,0-.4-.23a.77.77,0,0,1,.07-.29A.8.8,0,0,0,149.73,23.45Z"/><path class="cls-12" d="M150.32,30.32a.36.36,0,0,1,0,.19.85.85,0,0,1-.39.68.35.35,0,0,1-.18,0c.06.12.2.14.35.05a.86.86,0,0,0,.4-.68C150.54,30.43,150.45,30.33,150.32,30.32Z"/><path class="cls-11" d="M149.73,31.1c0,.28.2.39.44.25a1,1,0,0,0,.43-.75c0-.28-.19-.39-.43-.25a1,1,0,0,0-.31.32.78.78,0,0,1,.28-.29c.22-.13.4,0,.4.23a.86.86,0,0,1-.4.68c-.22.13-.4,0-.4-.23a.82.82,0,0,1,.07-.29A.8.8,0,0,0,149.73,31.1Z"/><path class="cls-12" d="M144.34,33.78a.35.35,0,0,1,0,.18.89.89,0,0,1-.4.69.49.49,0,0,1-.18.05.24.24,0,0,0,.35,0,.89.89,0,0,0,.4-.69C144.56,33.88,144.47,33.78,144.34,33.78Z"/><path class="cls-11" d="M143.76,34.56c0,.28.19.39.43.25a1,1,0,0,0,.44-.76.27.27,0,0,0-.44-.25.9.9,0,0,0-.31.33.81.81,0,0,1,.28-.3c.22-.12.4,0,.4.23a.89.89,0,0,1-.4.69c-.22.12-.39,0-.39-.23a.8.8,0,0,1,.06-.3A.83.83,0,0,0,143.76,34.56Z"/><path class="cls-12" d="M144.34,26.13a.32.32,0,0,1,0,.18A.88.88,0,0,1,144,27a.49.49,0,0,1-.18.05c.06.11.2.14.35.05a.89.89,0,0,0,.4-.69C144.56,26.23,144.47,26.13,144.34,26.13Z"/><path class="cls-11" d="M143.75,26.91a.27.27,0,0,0,.44.25,1,1,0,0,0,.43-.76c0-.27-.19-.39-.43-.25a.9.9,0,0,0-.31.33.74.74,0,0,1,.28-.3c.22-.13.4,0,.4.23a.89.89,0,0,1-.4.69c-.22.12-.4,0-.4-.23a.82.82,0,0,1,.07-.3A.84.84,0,0,0,143.75,26.91Z"/><rect class="cls-9" x="33.11" y="87.56" width="0.69" height="1.52"/><path class="cls-8" d="M33.5,87.32a.41.41,0,0,1-.17-.37l-.1,0a.26.26,0,0,0-.12.21v.35a.36.36,0,0,0,.17.31l.16.1h.25l-.08.12a.19.19,0,0,0,0,.07v.4l-1.15.67-.08,0h-.15v-.11a.28.28,0,0,0-.13-.23l-1.27-.73a.16.16,0,0,0-.15,0l-.3.16a.91.91,0,0,0-.48.8V100a.49.49,0,0,0,.23.41l.53.31v.53a.2.2,0,0,1-.09.16l-.34.19a.7.7,0,0,0-.33.59v.11a.36.36,0,0,0,.17.3l1.08.65.35-.18v-.31a.16.16,0,0,1,.07-.13l.2-.1a.85.85,0,0,0,.46-.76v-.2a.55.55,0,0,0,.45,0l1.24-.73a.23.23,0,0,0,.11-.2V88.18l.3-.37Zm-2.39,6.29a.71.71,0,0,1-.34-.58c0-.21.15-.3.34-.19a.76.76,0,0,1,.33.58C31.44,93.64,31.29,93.72,31.11,93.61Zm.36,5.16a.68.68,0,0,1-.29-.51c0-.19.13-.27.29-.17a.65.65,0,0,1,.3.51A.19.19,0,0,1,31.47,98.77Zm0-2.78a.68.68,0,0,1-.29-.51c0-.19.13-.27.29-.17a.65.65,0,0,1,.3.51A.19.19,0,0,1,31.47,96Zm0-4.95a.64.64,0,0,1-.29-.51c0-.19.13-.26.29-.17a.67.67,0,0,1,.3.51C31.77,91.06,31.63,91.14,31.47,91ZM33,99.36a.58.58,0,0,1-.29.51l-.27.16a.15.15,0,0,1-.16,0l-.1-.07v0l.33-.16a.22.22,0,0,0,.12-.2V98.7a.84.84,0,0,0-.35-.68l-.07,0-.09,0h0a.8.8,0,0,0,.57-.06l.28-.15Zm0-3a.6.6,0,0,1-.29.51L32.4,97a.14.14,0,0,1-.16,0l-.1-.07v0l.33-.16a.22.22,0,0,0,.12-.2V95.7a.81.81,0,0,0-.35-.67l-.07,0-.09,0h0a.8.8,0,0,0,.57-.06l.28-.14Zm0-4.82a.58.58,0,0,1-.29.51l-.27.16a.15.15,0,0,1-.16,0l-.1-.07v0l.33-.17a.2.2,0,0,0,.12-.19v-.84a.83.83,0,0,0-.35-.68l-.07,0-.09,0h0a.83.83,0,0,0,.58-.06l.27-.15Z"/><path class="cls-10" d="M31.72,98.38a.59.59,0,0,1,.05.22.19.19,0,0,1-.3.17.68.68,0,0,1-.29-.51c0-.19.13-.27.29-.17a.59.59,0,0,1,.17.15,1.11,1.11,0,0,0-.33-.32c-.29-.17-.52,0-.52.3a1.17,1.17,0,0,0,.52.91c.29.16.52,0,.52-.31A1,1,0,0,0,31.72,98.38Z"/><path class="cls-10" d="M31.7,98.34a.56.56,0,0,1-.05-.08Z"/><path class="cls-10" d="M31.72,90.65a.59.59,0,0,1,.05.22c0,.19-.14.27-.3.17a.64.64,0,0,1-.29-.51c0-.19.13-.26.29-.17a.8.8,0,0,1,.17.15,1.11,1.11,0,0,0-.33-.32.49.49,0,0,0-.24-.07.33.33,0,0,1-.21.11.4.4,0,0,0-.07.26,1.15,1.15,0,0,0,.52.91c.29.17.52,0,.52-.3A1.06,1.06,0,0,0,31.72,90.65Z"/><path class="cls-10" d="M31.72,95.6a.54.54,0,0,1,.05.22.19.19,0,0,1-.3.17.68.68,0,0,1-.29-.51c0-.19.13-.27.29-.17a.47.47,0,0,1,.17.15,1.15,1.15,0,0,0-.33-.33c-.29-.16-.52,0-.52.31a1.13,1.13,0,0,0,.52.9c.29.17.52,0,.52-.3A1,1,0,0,0,31.72,95.6Z"/><path class="cls-10" d="M31.71,95.58l-.06-.1Z"/><path class="cls-10" d="M34.61,88.1v13.16L119.8,52.12V39ZM36,98.3c-.2.11-.36,0-.36-.22a.81.81,0,0,1,.36-.63c.21-.12.37,0,.37.21A.81.81,0,0,1,36,98.3Zm0-8.65c-.2.12-.36,0-.36-.21a.8.8,0,0,1,.36-.63c.21-.12.37,0,.37.21A.78.78,0,0,1,36,89.65Zm4.53,2.64c-.25.14-.45,0-.45-.26a1,1,0,0,1,.45-.78c.25-.14.45,0,.45.26A1,1,0,0,1,40.53,92.29Zm10.59-2.72a.23.23,0,0,1-.37-.21.82.82,0,0,1,.37-.64c.2-.11.37,0,.37.21A.82.82,0,0,1,51.12,89.57Zm0-8.64c-.2.11-.37,0-.37-.21a.82.82,0,0,1,.37-.64.23.23,0,0,1,.37.21A.82.82,0,0,1,51.12,80.93ZM68,79.81c-.21.11-.37,0-.37-.21A.8.8,0,0,1,68,79c.2-.11.36,0,.36.21A.81.81,0,0,1,68,79.81Zm0-8.64c-.21.11-.37,0-.37-.22a.8.8,0,0,1,.37-.63c.2-.12.36,0,.36.21A.81.81,0,0,1,68,71.17Zm9.16-.91c-.25.14-.45,0-.45-.26a1,1,0,0,1,.45-.78c.25-.14.45,0,.45.26A1,1,0,0,1,77.2,70.26Zm9.24-1.09c-.2.12-.36,0-.36-.21a.8.8,0,0,1,.36-.63c.2-.12.37,0,.37.21A.81.81,0,0,1,86.44,69.17Zm0-8.64c-.2.12-.36,0-.36-.21a.81.81,0,0,1,.36-.64c.2-.11.37,0,.37.22A.82.82,0,0,1,86.44,60.53Zm16.92-1.13a.23.23,0,0,1-.37-.21.82.82,0,0,1,.37-.64c.2-.11.37,0,.37.21A.82.82,0,0,1,103.36,59.4Zm0-8.64c-.2.11-.37,0-.37-.21a.82.82,0,0,1,.37-.64.23.23,0,0,1,.37.21A.82.82,0,0,1,103.36,50.76Zm10.52-1.66c-.25.14-.45,0-.45-.26a1,1,0,0,1,.45-.78c.25-.14.45,0,.45.26A1,1,0,0,1,113.88,49.1Zm4.56,1.59c-.2.12-.36,0-.36-.21a.81.81,0,0,1,.36-.64c.2-.11.37,0,.37.21A.82.82,0,0,1,118.44,50.69Zm0-8.64c-.2.11-.36,0-.36-.21a.81.81,0,0,1,.36-.64.23.23,0,0,1,.37.21A.82.82,0,0,1,118.44,42.05Z"/><path class="cls-10" d="M121.2,54.58,39,102a3.49,3.49,0,0,1-3.12,0l-1.25-.72h0v.32l1.25.72a3.49,3.49,0,0,0,3.12,0L121.2,54.9a1,1,0,0,0,.48-.77h0v-.38A1,1,0,0,1,121.2,54.58Z"/><path class="cls-11" d="M121.68,53.69v0Z"/><path class="cls-11" d="M121.68,53.69a.94.94,0,0,0-.48-.76l-1.4-.82L34.61,101.26h0l1.25.72A3.49,3.49,0,0,0,39,102l82.22-47.4a1,1,0,0,0,.48-.83Z"/><path class="cls-10" d="M119.31,38.12,34,87.31l-.57-.39s-.14,0-.14-.29l84.91-48.85h0a1.68,1.68,0,0,1,.79.2Z"/><path class="cls-11" d="M34.07,87.29a.83.83,0,0,1,.54.81L119.8,39a.9.9,0,0,0-.49-.84Z"/><path class="cls-16" d="M118.41,49.43l-.11.08c.22-.08.39.05.39.33a1.1,1.1,0,0,1-.5.86c-.25.14-.47,0-.49-.24a1.13,1.13,0,0,0,0,.25c0,.47.33.66.74.42a1.61,1.61,0,0,0,.74-1.28C119.15,49.38,118.82,49.19,118.41,49.43Z"/><path class="cls-9" d="M118.79,49.66h0l-.24-.14h0a.3.3,0,0,0-.23,0,1.68,1.68,0,0,0-.6,1,.31.31,0,0,0,.16.28h0l.2.11a.33.33,0,0,0,.38,0,1.11,1.11,0,0,0,.5-.86A.34.34,0,0,0,118.79,49.66Zm-.35,1c-.2.12-.36,0-.36-.21a.81.81,0,0,1,.36-.64c.2-.11.37,0,.37.21A.82.82,0,0,1,118.44,50.69Z"/><path class="cls-15" d="M118.44,49.84l-.1.08a.82.82,0,0,1-.25.43.62.62,0,0,0,0,.13c0,.23.16.33.36.21a.82.82,0,0,0,.37-.64C118.81,49.82,118.64,49.73,118.44,49.84Z"/><path class="cls-10" d="M118.44,49.69a1.12,1.12,0,0,0-.49.86c0,.32.22.45.49.29a1.08,1.08,0,0,0,.5-.86C118.94,49.67,118.72,49.54,118.44,49.69Zm0,1c-.2.12-.36,0-.36-.21a.81.81,0,0,1,.36-.64c.2-.11.37,0,.37.21A.82.82,0,0,1,118.44,50.69Z"/><path class="cls-16" d="M118.41,40.67l-.11.08c.22-.08.39.06.39.33a1.08,1.08,0,0,1-.5.86c-.25.15-.47,0-.49-.24a1.13,1.13,0,0,0,0,.25c0,.47.33.66.74.42a1.6,1.6,0,0,0,.74-1.27C119.15,40.63,118.82,40.43,118.41,40.67Z"/><path class="cls-9" d="M118.79,40.9h0l-.24-.13,0,0h0a.3.3,0,0,0-.23,0,1.68,1.68,0,0,0-.6,1,.31.31,0,0,0,.16.28h0l.2.12a.33.33,0,0,0,.38,0,1.11,1.11,0,0,0,.5-.86A.36.36,0,0,0,118.79,40.9Zm-.35,1c-.2.12-.36,0-.36-.21a.83.83,0,0,1,.36-.64c.2-.11.37,0,.37.22A.82.82,0,0,1,118.44,41.93Z"/><path class="cls-15" d="M118.44,41.08l-.1.08a.82.82,0,0,1-.25.43.62.62,0,0,0,0,.13c0,.23.16.33.36.21a.82.82,0,0,0,.37-.63C118.81,41.06,118.64,41,118.44,41.08Z"/><path class="cls-10" d="M118.44,40.94a1.08,1.08,0,0,0-.49.85c0,.32.22.45.49.29a1.08,1.08,0,0,0,.5-.86C118.94,40.91,118.72,40.78,118.44,40.94Zm0,1c-.2.12-.36,0-.36-.21a.83.83,0,0,1,.36-.64c.2-.11.37,0,.37.22A.82.82,0,0,1,118.44,41.93Z"/><path class="cls-16" d="M103.33,58.14l-.11.07c.22-.07.39.06.39.34a1.13,1.13,0,0,1-.5.86c-.26.14-.47,0-.49-.24a1.13,1.13,0,0,0,0,.25c0,.47.33.66.74.42a1.62,1.62,0,0,0,.74-1.28C104.07,58.09,103.74,57.9,103.33,58.14Z"/><path class="cls-9" d="M103.71,58.37h0l-.24-.14h0a.33.33,0,0,0-.22,0,1.74,1.74,0,0,0-.6,1,.31.31,0,0,0,.16.28h0l.2.11a.35.35,0,0,0,.38,0,1.1,1.1,0,0,0,.49-.86A.34.34,0,0,0,103.71,58.37Zm-.35,1a.23.23,0,0,1-.37-.21.82.82,0,0,1,.37-.64c.2-.11.37,0,.37.21A.82.82,0,0,1,103.36,59.4Z"/><path class="cls-15" d="M103.36,58.55a.39.39,0,0,0-.1.08.89.89,0,0,1-.25.43.59.59,0,0,0,0,.13.23.23,0,0,0,.37.21.82.82,0,0,0,.37-.64C103.73,58.53,103.56,58.44,103.36,58.55Z"/><path class="cls-10" d="M103.36,58.4a1.13,1.13,0,0,0-.5.86c0,.32.23.45.5.29a1.1,1.1,0,0,0,.49-.86C103.85,58.37,103.63,58.25,103.36,58.4Zm0,1a.23.23,0,0,1-.37-.21.82.82,0,0,1,.37-.64c.2-.11.37,0,.37.21A.82.82,0,0,1,103.36,59.4Z"/><path class="cls-16" d="M103.33,49.5a.41.41,0,0,0-.11.07c.22-.07.39.06.39.34a1.09,1.09,0,0,1-.5.85c-.26.15-.47.05-.49-.23a1.05,1.05,0,0,0,0,.24c0,.47.33.67.74.43a1.62,1.62,0,0,0,.74-1.28C104.07,49.45,103.74,49.26,103.33,49.5Z"/><path class="cls-9" d="M103.71,49.73h0l-.24-.14h0a.28.28,0,0,0-.22,0,1.74,1.74,0,0,0-.6,1,.32.32,0,0,0,.16.28h0l.2.11a.35.35,0,0,0,.38,0,1.12,1.12,0,0,0,.49-.86A.34.34,0,0,0,103.71,49.73Zm-.35,1c-.2.11-.37,0-.37-.21a.82.82,0,0,1,.37-.64.23.23,0,0,1,.37.21A.82.82,0,0,1,103.36,50.76Z"/><path class="cls-15" d="M103.36,49.91a.39.39,0,0,0-.1.08.89.89,0,0,1-.25.43.59.59,0,0,0,0,.13c0,.23.17.32.37.21a.82.82,0,0,0,.37-.64A.23.23,0,0,0,103.36,49.91Z"/><path class="cls-10" d="M103.36,49.76a1.11,1.11,0,0,0-.5.86c0,.32.23.44.5.29a1.12,1.12,0,0,0,.49-.86C103.85,49.73,103.63,49.6,103.36,49.76Zm0,1c-.2.11-.37,0-.37-.21a.82.82,0,0,1,.37-.64.23.23,0,0,1,.37.21A.82.82,0,0,1,103.36,50.76Z"/><path class="cls-16" d="M86.41,67.91,86.3,68c.22-.08.39.06.39.33a1.08,1.08,0,0,1-.5.86c-.25.15-.47,0-.49-.23a1,1,0,0,0,0,.24c0,.47.33.66.74.43a1.64,1.64,0,0,0,.74-1.28C87.15,67.87,86.82,67.68,86.41,67.91Z"/><path class="cls-9" d="M86.79,68.14h0L86.55,68l0,0h0a.3.3,0,0,0-.23,0,1.72,1.72,0,0,0-.6,1,.31.31,0,0,0,.16.28h0l.2.12a.33.33,0,0,0,.38,0,1.11,1.11,0,0,0,.5-.86A.37.37,0,0,0,86.79,68.14Zm-.35,1c-.2.12-.36,0-.36-.21a.8.8,0,0,1,.36-.63c.2-.12.37,0,.37.21A.81.81,0,0,1,86.44,69.17Z"/><path class="cls-15" d="M86.44,68.33l-.1.07a.85.85,0,0,1-.25.44.49.49,0,0,0,0,.12c0,.23.16.33.36.21a.81.81,0,0,0,.37-.63C86.81,68.3,86.64,68.21,86.44,68.33Z"/><path class="cls-10" d="M86.44,68.18A1.1,1.1,0,0,0,86,69c0,.32.22.45.49.29a1.11,1.11,0,0,0,.5-.86C86.94,68.15,86.71,68,86.44,68.18Zm0,1c-.2.12-.36,0-.36-.21a.8.8,0,0,1,.36-.63c.2-.12.37,0,.37.21A.81.81,0,0,1,86.44,69.17Z"/><path class="cls-16" d="M86.41,59.27l-.11.08c.22-.08.39,0,.39.33a1.1,1.1,0,0,1-.5.86c-.25.14-.47,0-.49-.24a1.13,1.13,0,0,0,0,.25c0,.47.33.66.74.42a1.61,1.61,0,0,0,.74-1.28C87.15,59.22,86.82,59,86.41,59.27Z"/><path class="cls-9" d="M86.79,59.5h0l-.24-.14h0a.3.3,0,0,0-.23,0,1.68,1.68,0,0,0-.6.95.31.31,0,0,0,.16.28h0l.2.12a.33.33,0,0,0,.38,0,1.11,1.11,0,0,0,.5-.86A.34.34,0,0,0,86.79,59.5Zm-.35,1c-.2.12-.36,0-.36-.21a.81.81,0,0,1,.36-.64c.2-.11.37,0,.37.22A.82.82,0,0,1,86.44,60.53Z"/><path class="cls-15" d="M86.44,59.68l-.1.08a.82.82,0,0,1-.25.43.62.62,0,0,0,0,.13c0,.23.16.33.36.21a.82.82,0,0,0,.37-.63C86.81,59.66,86.64,59.57,86.44,59.68Z"/><path class="cls-10" d="M86.44,59.54a1.08,1.08,0,0,0-.49.85c0,.32.22.45.49.29a1.11,1.11,0,0,0,.5-.86C86.94,59.51,86.71,59.38,86.44,59.54Zm0,1c-.2.12-.36,0-.36-.21a.81.81,0,0,1,.36-.64c.2-.11.37,0,.37.22A.82.82,0,0,1,86.44,60.53Z"/><path class="cls-16" d="M68,78.55l-.12.07c.23-.07.39.06.39.34a1.08,1.08,0,0,1-.49.85c-.26.15-.47,0-.5-.23a2.11,2.11,0,0,0,0,.25c0,.47.33.66.74.42A1.64,1.64,0,0,0,68.74,79C68.74,78.5,68.41,78.31,68,78.55Z"/><path class="cls-9" d="M68.39,78.78h0l-.24-.14h0a.3.3,0,0,0-.23,0,1.67,1.67,0,0,0-.59,1,.31.31,0,0,0,.16.28h0l.2.11A.33.33,0,0,0,68,80a1.1,1.1,0,0,0,.5-.86A.36.36,0,0,0,68.39,78.78Zm-.35,1c-.21.11-.37,0-.37-.21A.8.8,0,0,1,68,79c.2-.11.36,0,.36.21A.81.81,0,0,1,68,79.81Z"/><path class="cls-15" d="M68,79a.39.39,0,0,0-.1.08.89.89,0,0,1-.25.43.59.59,0,0,0,0,.13c0,.23.16.32.37.21a.81.81,0,0,0,.36-.64C68.4,78.94,68.24,78.85,68,79Z"/><path class="cls-10" d="M68,78.81a1.1,1.1,0,0,0-.5.86c0,.32.22.44.5.29a1.12,1.12,0,0,0,.49-.86C68.53,78.78,68.31,78.66,68,78.81Zm0,1c-.21.11-.37,0-.37-.21A.8.8,0,0,1,68,79c.2-.11.36,0,.36.21A.81.81,0,0,1,68,79.81Z"/><path class="cls-16" d="M68,69.9l-.12.08c.23-.07.39.06.39.33a1.1,1.1,0,0,1-.49.86c-.26.15-.47,0-.5-.23a1.94,1.94,0,0,0,0,.24c0,.47.33.66.74.43a1.66,1.66,0,0,0,.73-1.28C68.74,69.86,68.41,69.67,68,69.9Z"/><path class="cls-9" d="M68.39,70.14h0L68.15,70h0a.3.3,0,0,0-.23,0,1.67,1.67,0,0,0-.59,1,.32.32,0,0,0,.16.28h0l.2.11a.32.32,0,0,0,.37,0,1.07,1.07,0,0,0,.5-.85A.36.36,0,0,0,68.39,70.14Zm-.35,1c-.21.11-.37,0-.37-.22a.8.8,0,0,1,.37-.63c.2-.12.36,0,.36.21A.81.81,0,0,1,68,71.17Z"/><path class="cls-15" d="M68,70.32a.39.39,0,0,0-.1.08.89.89,0,0,1-.25.43.5.5,0,0,0,0,.12c0,.24.16.33.37.22a.81.81,0,0,0,.36-.64C68.4,70.3,68.24,70.2,68,70.32Z"/><path class="cls-10" d="M68,70.17a1.08,1.08,0,0,0-.5.86c0,.31.22.44.5.28a1.08,1.08,0,0,0,.49-.85C68.53,70.14,68.31,70,68,70.17Zm0,1c-.21.11-.37,0-.37-.22a.8.8,0,0,1,.37-.63c.2-.12.36,0,.36.21A.81.81,0,0,1,68,71.17Z"/><path class="cls-16" d="M51.09,88.31l-.11.07c.22-.07.39.06.39.34a1.07,1.07,0,0,1-.5.85c-.25.15-.47.05-.49-.23a1.13,1.13,0,0,0,0,.25c0,.47.33.66.74.42a1.62,1.62,0,0,0,.74-1.28C51.83,88.26,51.5,88.07,51.09,88.31Z"/><path class="cls-9" d="M51.47,88.54h0l-.24-.14h0a.36.36,0,0,0-.23,0,1.74,1.74,0,0,0-.6,1,.31.31,0,0,0,.16.28h0l.2.11a.35.35,0,0,0,.38,0,1.1,1.1,0,0,0,.49-.86A.34.34,0,0,0,51.47,88.54Zm-.35,1a.23.23,0,0,1-.37-.21.82.82,0,0,1,.37-.64c.2-.11.37,0,.37.21A.82.82,0,0,1,51.12,89.57Z"/><path class="cls-15" d="M51.12,88.72l-.1.08a.82.82,0,0,1-.25.43.59.59,0,0,0,0,.13.23.23,0,0,0,.37.21.82.82,0,0,0,.37-.64C51.49,88.7,51.32,88.61,51.12,88.72Z"/><path class="cls-10" d="M51.12,88.57a1.12,1.12,0,0,0-.49.86c0,.32.22.45.49.29a1.11,1.11,0,0,0,.5-.86C51.62,88.54,51.39,88.42,51.12,88.57Zm0,1a.23.23,0,0,1-.37-.21.82.82,0,0,1,.37-.64c.2-.11.37,0,.37.21A.82.82,0,0,1,51.12,89.57Z"/><path class="cls-16" d="M51.09,79.67a.41.41,0,0,0-.11.07c.22-.07.39.06.39.34a1.07,1.07,0,0,1-.5.85c-.25.15-.47,0-.49-.23a1.05,1.05,0,0,0,0,.24c0,.47.33.67.74.43a1.64,1.64,0,0,0,.74-1.28C51.83,79.62,51.5,79.43,51.09,79.67Z"/><path class="cls-9" d="M51.47,79.9h0l-.24-.14h0a.3.3,0,0,0-.23,0,1.74,1.74,0,0,0-.6,1,.32.32,0,0,0,.16.28h0l.2.11a.35.35,0,0,0,.38,0,1.12,1.12,0,0,0,.49-.86A.34.34,0,0,0,51.47,79.9Zm-.35,1c-.2.11-.37,0-.37-.21a.82.82,0,0,1,.37-.64.23.23,0,0,1,.37.21A.82.82,0,0,1,51.12,80.93Z"/><path class="cls-15" d="M51.12,80.08l-.1.08a.82.82,0,0,1-.25.43.59.59,0,0,0,0,.13c0,.23.17.32.37.21a.82.82,0,0,0,.37-.64A.23.23,0,0,0,51.12,80.08Z"/><path class="cls-10" d="M51.12,79.93a1.1,1.1,0,0,0-.49.86c0,.32.22.44.49.29a1.13,1.13,0,0,0,.5-.86C51.62,79.9,51.39,79.77,51.12,79.93Zm0,1c-.2.11-.37,0-.37-.21a.82.82,0,0,1,.37-.64.23.23,0,0,1,.37.21A.82.82,0,0,1,51.12,80.93Z"/><path class="cls-16" d="M36,97l-.11.08c.22-.07.39.06.39.33a1.08,1.08,0,0,1-.5.86c-.25.15-.46,0-.49-.23a1,1,0,0,0,0,.24c0,.47.33.66.74.43a1.64,1.64,0,0,0,.74-1.28C36.71,97,36.38,96.8,36,97Z"/><path class="cls-9" d="M36.35,97.27h0l-.24-.14h0a.3.3,0,0,0-.23,0,1.74,1.74,0,0,0-.6,1,.29.29,0,0,0,.16.27h0l.21.11a.32.32,0,0,0,.37,0,1.09,1.09,0,0,0,.5-.85A.34.34,0,0,0,36.35,97.27Zm-.35,1c-.2.11-.36,0-.36-.22a.81.81,0,0,1,.36-.63c.21-.12.37,0,.37.21A.81.81,0,0,1,36,98.3Z"/><path class="cls-15" d="M36,97.45l-.1.08a.82.82,0,0,1-.25.43.49.49,0,0,0,0,.12c0,.24.16.33.36.22a.81.81,0,0,0,.37-.64C36.37,97.43,36.21,97.33,36,97.45Z"/><path class="cls-10" d="M36,97.3a1.1,1.1,0,0,0-.49.86c0,.31.22.44.49.28a1.07,1.07,0,0,0,.5-.85C36.5,97.27,36.28,97.14,36,97.3Zm0,1c-.2.11-.36,0-.36-.22a.81.81,0,0,1,.36-.63c.21-.12.37,0,.37.21A.81.81,0,0,1,36,98.3Z"/><path class="cls-16" d="M36,88.39l-.11.08c.22-.07.39.06.39.33a1.08,1.08,0,0,1-.5.86.29.29,0,0,1-.49-.23,1,1,0,0,0,0,.24c0,.47.33.66.74.43a1.64,1.64,0,0,0,.74-1.28C36.71,88.35,36.38,88.16,36,88.39Z"/><path class="cls-9" d="M36.35,88.63h0l-.24-.13h0a.3.3,0,0,0-.23,0,1.71,1.71,0,0,0-.6,1,.29.29,0,0,0,.16.27h0l.21.12a.32.32,0,0,0,.37,0,1.11,1.11,0,0,0,.5-.85A.34.34,0,0,0,36.35,88.63Zm-.35,1c-.2.12-.36,0-.36-.21a.8.8,0,0,1,.36-.63c.21-.12.37,0,.37.21A.78.78,0,0,1,36,89.65Z"/><path class="cls-15" d="M36,88.81l-.1.07a.85.85,0,0,1-.25.44.49.49,0,0,0,0,.12c0,.24.16.33.36.21a.78.78,0,0,0,.37-.63C36.37,88.79,36.21,88.69,36,88.81Z"/><path class="cls-10" d="M36,88.66a1.1,1.1,0,0,0-.49.86c0,.31.22.44.49.28a1.08,1.08,0,0,0,.5-.85C36.5,88.63,36.28,88.5,36,88.66Zm0,1c-.2.12-.36,0-.36-.21a.8.8,0,0,1,.36-.63c.21-.12.37,0,.37.21A.78.78,0,0,1,36,89.65Z"/><text class="cls-17" transform="matrix(0.87, -0.5, 0, 1, 104.16, 52.68)">RIGH<tspan class="cls-18" x="12.12" y="0">T</tspan></text><text class="cls-19" transform="matrix(0.87, -0.5, 0, 1, 38.18, 90.8)">LEF<tspan class="cls-20" x="9.1" y="0">T</tspan></text><polygon class="cls-9" points="33.99 100.68 34.35 100.91 34.35 87.82 33.99 87.53 33.99 100.68"/><path class="cls-10" d="M32.21,89.25v-.13a.21.21,0,0,0-.31-.19l-.28.15a.82.82,0,0,0-.45.74v.05a.37.37,0,0,1-.31.36h0a1.7,1.7,0,0,0,.29-.09.5.5,0,0,0,.32-.47v-.12s0,0,0-.06l.4-.21v.13Z"/><path class="cls-16" d="M33.59,88.56l.32.17-1.16.67a.89.89,0,0,1-.84,0h0l.3-.16h0a.25.25,0,0,0,.24,0Z"/><path class="cls-10" d="M33,89.93v1.52c0,.44-.21.57-.21.57l.31.18a.79.79,0,0,0,.21-.57V90.06a.2.2,0,0,0-.19-.19Z"/><path class="cls-16" d="M32.75,92l-.34.2a.15.15,0,0,1-.17,0l-.1-.07v0H32L31.8,92v.15a.22.22,0,0,0,.1.19l.06,0a.93.93,0,0,0,.73,0l.37-.21Z"/><path class="cls-10" d="M33,94.74v1.52c0,.44-.21.57-.21.57l.31.18a.79.79,0,0,0,.21-.57V94.87a.19.19,0,0,0-.19-.18Z"/><path class="cls-16" d="M32.75,96.83l-.34.2a.15.15,0,0,1-.17,0l-.1-.07v0H32l-.21-.07V97a.21.21,0,0,0,.1.19l.06,0a.93.93,0,0,0,.73,0l.37-.21Z"/><path class="cls-10" d="M33,97.73v1.53c0,.44-.21.56-.21.56l.31.18a.75.75,0,0,0,.21-.56V97.87a.2.2,0,0,0-.19-.19Z"/><path class="cls-16" d="M32.75,99.82l-.34.21a.17.17,0,0,1-.17,0l-.1-.07v0H32l-.21-.08V100a.22.22,0,0,0,.1.19l.06,0a.93.93,0,0,0,.73,0l.37-.22Z"/><path class="cls-12" d="M31.72,98.38a.59.59,0,0,1,.05.22.19.19,0,0,1-.3.17.68.68,0,0,1-.29-.51c0-.19.13-.27.29-.17a.59.59,0,0,1,.17.15A.75.75,0,0,0,31.4,98c-.22-.12-.4,0-.4.23a.89.89,0,0,0,.4.69c.22.12.4,0,.4-.23A.72.72,0,0,0,31.72,98.38Z"/><path class="cls-21" d="M31.69,98.34l0-.06Z"/><path class="cls-12" d="M31.72,95.6a.54.54,0,0,1,.05.22.19.19,0,0,1-.3.17.68.68,0,0,1-.29-.51c0-.19.13-.27.29-.17a.57.57,0,0,1,.22.24.82.82,0,0,0-.29-.32c-.22-.13-.4,0-.4.23a.86.86,0,0,0,.4.68c.22.13.4,0,.4-.22A.72.72,0,0,0,31.72,95.6Z"/><path class="cls-12" d="M31.72,90.65a.63.63,0,0,1,.05.22c0,.19-.14.27-.3.17a.64.64,0,0,1-.29-.51c0-.19.13-.26.29-.17a.6.6,0,0,1,.22.25.7.7,0,0,0-.29-.32c-.22-.13-.4,0-.4.22a.88.88,0,0,0,.4.69c.22.13.4,0,.4-.23A.79.79,0,0,0,31.72,90.65Z"/><path class="cls-16" d="M31,92.79a.25.25,0,0,0,0,.16.74.74,0,0,0,.34.58.21.21,0,0,0,.15,0c-.06.1-.17.12-.3.05a.75.75,0,0,1-.34-.59C30.77,92.88,30.85,92.79,31,92.79Z"/><path class="cls-10" d="M31.92,101.42l.29.1v.37a.59.59,0,0,1-.32.53l-.34.17a.12.12,0,0,0-.07.11V103l-.35.18v-.34a.71.71,0,0,1,.38-.62l.33-.16a.16.16,0,0,0,.08-.14Z"/><path class="cls-10" d="M32.07,99.88s.23,0,.23-.16V98.8a.61.61,0,0,0-.28-.5l-.15-.1a.17.17,0,0,1-.07-.14v-.18a0,0,0,0,1,.06,0l.23.09.1.06a.8.8,0,0,1,.4.7v.85a.25.25,0,0,1-.12.22A.68.68,0,0,1,32.07,99.88Z"/><path class="cls-10" d="M32.07,96.86s.23,0,.23-.15v-.92a.58.58,0,0,0-.28-.5l-.15-.1a.17.17,0,0,1-.07-.14v-.18a0,0,0,0,1,.06,0l.23.09.1.06a.8.8,0,0,1,.4.7v.85a.22.22,0,0,1-.12.21A.56.56,0,0,1,32.07,96.86Z"/><path class="cls-10" d="M32.07,92.05s.23,0,.23-.15V91a.61.61,0,0,0-.28-.5l-.15-.09a.17.17,0,0,1-.07-.14v-.18a0,0,0,0,1,.06,0l.23.09.1,0a.83.83,0,0,1,.4.71v.85a.22.22,0,0,1-.12.21A.56.56,0,0,1,32.07,92.05Z"/><path class="cls-16" d="M33.32,86.63V87a.39.39,0,0,0,.19.34l.59.37a.44.44,0,0,1,.21.38v13a.6.6,0,0,0,.31.52h0V88.05a1,1,0,0,0-.25-.57l-.09-.07-.82-.49a.3.3,0,0,1-.14-.22Z"/><path class="cls-16" d="M40.73,91.19a.41.41,0,0,1,.05.21,1,1,0,0,1-.45.78.41.41,0,0,1-.2.06c.07.12.23.15.4.05a1,1,0,0,0,.45-.78C41,91.31,40.88,91.19,40.73,91.19Z"/><path class="cls-16" d="M77.4,69.16a.39.39,0,0,1,0,.2,1,1,0,0,1-.45.78.33.33,0,0,1-.2.06c.07.13.23.16.4.06a1,1,0,0,0,.45-.78C77.65,69.27,77.55,69.16,77.4,69.16Z"/><path class="cls-16" d="M114.08,48a.39.39,0,0,1,0,.2,1,1,0,0,1-.45.78.33.33,0,0,1-.2.06c.07.13.22.16.4.06a1,1,0,0,0,.45-.78C114.33,48.11,114.23,48,114.08,48Z"/><polygon class="cls-16" points="108.76 142.45 193.69 93.09 192.08 92.17 107.15 141.52 108.76 142.45"/><polygon class="cls-8" points="107.15 141.52 192.08 92.17 192.11 80.43 107.18 129.79 107.15 141.52"/><path d="M124,130.82a.23.23,0,0,1-.37-.21A.82.82,0,0,1,124,130c.2-.11.37,0,.37.21A.82.82,0,0,1,124,130.82Z"/><path class="cls-15" d="M124,130l-.1.08a.82.82,0,0,1-.25.43.59.59,0,0,0,0,.13.23.23,0,0,0,.37.21.82.82,0,0,0,.37-.64C124.39,130,124.22,129.86,124,130Z"/><path d="M140.89,121.06c-.2.12-.37,0-.37-.21a.82.82,0,0,1,.37-.63.23.23,0,0,1,.37.21A.81.81,0,0,1,140.89,121.06Z"/><path class="cls-15" d="M140.89,120.22l-.1.07a.85.85,0,0,1-.25.44.5.5,0,0,0,0,.12c0,.24.17.33.37.21a.81.81,0,0,0,.37-.63A.23.23,0,0,0,140.89,120.22Z"/><path class="cls-9" d="M148.18,108.54l-.23.16v1.68a.24.24,0,0,0,0,.15l.28.37a.3.3,0,0,1,0,.15v3.16a.24.24,0,0,1-.1.19l-.15.1a.22.22,0,0,0-.1.18v3.77l.21-.12v-3.62l.34-.33v-3.52l-.34-.47Z"/><polygon class="cls-10" points="227.87 75.05 228.16 74.88 228.16 74.08 227.87 74.25 227.87 75.05"/><path class="cls-12" d="M226.53,61.65,224.26,63V74.48l2.27-1.32.31-3.55h-.61a.5.5,0,0,1-.49-.49V67.28a.69.69,0,0,1,.77-.68h0Z"/><path class="cls-8" d="M226.53,62l-2.27,1.31V74.78l2.27-1.31,0-3.57h-.32a.49.49,0,0,1-.49-.49V67.58a.67.67,0,0,1,.77-.67h0Z"/><path class="cls-10" d="M228.86,63.64l-.68-1.19a.56.56,0,0,1-.08-.3h0a.26.26,0,0,1,.13-.24l.22-.15a0,0,0,0,1,.06,0v.41l.33-.27V61.6a.23.23,0,0,0-.36-.2l-.3.19a.88.88,0,0,0-.41.75v.06a.5.5,0,0,0,.06.24l.71,1.18V74.39a.17.17,0,0,1,0,.1l0,.07.13-.06a1,1,0,0,0,.21-.14h0a.14.14,0,0,0,.06-.12Z"/><path class="cls-16" d="M227.83,62l.42-.46.54-.09-1.29-.77a.28.28,0,0,0-.28,0l-.27.15a.91.91,0,0,0-.46.77,8.57,8.57,0,0,1,0,.91s0,4.38,0,4.38l.26.06v.2l-.25,0a.31.31,0,0,0-.36.31V69a.32.32,0,0,0,.21.3l.24.1h0a.11.11,0,0,1,.06.1v.12a.07.07,0,0,1,0,.06h0a.1.1,0,0,0-.07.09V74a.42.42,0,0,0,.21.36l1.17.65V74.5a.12.12,0,0,1,.18-.11l.27.17h.16l.05-.17V63.82l-.76-1.3Zm-1,7.18a.71.71,0,0,1-.31-.55c0-.2.14-.28.31-.18a.71.71,0,0,1,.32.55C227.15,69.19,227,69.28,226.84,69.18Zm.49-2.42a.82.82,0,0,1-.37-.64c0-.24.17-.33.37-.21a.78.78,0,0,1,.37.64C227.7,66.78,227.54,66.88,227.33,66.76Z"/><path class="cls-15" d="M227.27,65.88v.06a.81.81,0,0,0,.37.64l.06,0c0,.2-.18.27-.37.16a.82.82,0,0,1-.37-.64C227,65.91,227.1,65.81,227.27,65.88Z"/><path class="cls-15" d="M226.84,68.45a.31.31,0,0,1,.11.09.85.85,0,0,0,.18.32.31.31,0,0,1,0,.13c0,.21-.15.29-.32.19a.71.71,0,0,1-.31-.55C226.53,68.43,226.67,68.35,226.84,68.45Z"/><path class="cls-8" d="M227.16,69a.7.7,0,0,0-.32-.54.21.21,0,0,0-.25,0h0l-.19-.34.29-.18.09,0h0a.44.44,0,0,1,.39.06.38.38,0,0,1,.13.09h0a1.34,1.34,0,0,1,.47.94.43.43,0,0,1-.15.37h0l0,0-.32.2H227l-.14-.35C227,69.26,227.16,69.18,227.16,69Z"/><path class="cls-16" d="M226.23,68.49a1.35,1.35,0,0,0,.6,1c.33.19.6,0,.6-.35a1.33,1.33,0,0,0-.6-1C226.5,68,226.23,68.11,226.23,68.49Zm.3.14c0-.2.14-.28.31-.18a.7.7,0,0,1,.32.54c0,.21-.15.29-.32.19A.71.71,0,0,1,226.53,68.63Z"/><path class="cls-8" d="M148.18,108.54v1.85l.34.47v3.52l-.34.33v3.62l76.26-44.06v-10Z"/><path class="cls-12" d="M216.29,68.07V70l.46.29.89-.49a.35.35,0,0,1,.53.29v3.86a1.26,1.26,0,0,1-.63,1.09l-.76.43-.49.79V77.7l.44.22,7.53-4.33V63.44Z"/><path class="cls-10" d="M216.62,68.24v2l.47.29L218,70a.34.34,0,0,1,.52.3V74.1a1.26,1.26,0,0,1-.62,1.09l-.76.44-.5.79v1.45l.45.21,8.06-4.63V63.3Z"/><path class="cls-16" d="M217.67,75.73l-.11.08c.22-.08.39,0,.39.33a1.12,1.12,0,0,1-.49.86c-.26.14-.47,0-.5-.24a2.29,2.29,0,0,0,0,.25c0,.47.33.66.73.42a1.61,1.61,0,0,0,.74-1.28C218.41,75.68,218.08,75.49,217.67,75.73Z"/><path class="cls-9" d="M218.05,76h0l-.23-.14h0a.3.3,0,0,0-.23,0,1.68,1.68,0,0,0-.6,1,.34.34,0,0,0,.17.28h0l.2.11a.3.3,0,0,0,.37,0,1.08,1.08,0,0,0,.5-.86A.34.34,0,0,0,218.05,76Zm-.35,1c-.2.12-.36,0-.36-.21a.81.81,0,0,1,.36-.64c.21-.11.37,0,.37.22A.8.8,0,0,1,217.7,77Z"/><path class="cls-15" d="M217.7,76.14l-.1.08a.82.82,0,0,1-.25.43.62.62,0,0,0,0,.13c0,.23.16.33.36.21a.8.8,0,0,0,.37-.63C218.07,76.12,217.91,76,217.7,76.14Z"/><path class="cls-10" d="M217.7,76a1.08,1.08,0,0,0-.49.85c0,.32.22.45.49.29a1.08,1.08,0,0,0,.5-.86C218.2,76,218,75.84,217.7,76Zm0,1c-.2.12-.36,0-.36-.21a.81.81,0,0,1,.36-.64c.21-.11.37,0,.37.22A.8.8,0,0,1,217.7,77Z"/><path class="cls-16" d="M217.67,68.08l-.11.07c.22-.07.39.06.39.33a1.1,1.1,0,0,1-.49.86c-.26.15-.47,0-.5-.23a1.94,1.94,0,0,0,0,.24c0,.47.33.66.73.43a1.64,1.64,0,0,0,.74-1.28C218.41,68,218.08,67.84,217.67,68.08Z"/><path class="cls-9" d="M218.05,68.31h0l-.23-.14h0a.3.3,0,0,0-.23,0,1.74,1.74,0,0,0-.6,1,.35.35,0,0,0,.17.28h0l.2.11a.32.32,0,0,0,.37,0,1.07,1.07,0,0,0,.5-.85A.34.34,0,0,0,218.05,68.31Zm-.35,1c-.2.11-.36,0-.36-.22a.81.81,0,0,1,.36-.63c.21-.12.37,0,.37.21A.8.8,0,0,1,217.7,69.34Z"/><path class="cls-15" d="M217.7,68.49l-.1.08a.82.82,0,0,1-.25.43.49.49,0,0,0,0,.12c0,.24.16.33.36.22a.8.8,0,0,0,.37-.64C218.07,68.47,217.91,68.37,217.7,68.49Z"/><path class="cls-10" d="M217.7,68.34a1.1,1.1,0,0,0-.49.86c0,.31.22.44.49.28a1.07,1.07,0,0,0,.5-.85C218.2,68.31,218,68.18,217.7,68.34Zm0,1c-.2.11-.36,0-.36-.22a.81.81,0,0,1,.36-.63c.21-.12.37,0,.37.21A.8.8,0,0,1,217.7,69.34Z"/><path class="cls-16" d="M223.65,72.28l-.12.08c.23-.07.39.06.39.33a1.1,1.1,0,0,1-.49.86c-.26.15-.47,0-.49-.23a1,1,0,0,0,0,.24c0,.47.33.66.74.43a1.67,1.67,0,0,0,.74-1.28C224.39,72.24,224.05,72.05,223.65,72.28Z"/><path class="cls-9" d="M224,72.51h0l-.24-.13h0a.3.3,0,0,0-.23,0,1.69,1.69,0,0,0-.59,1,.31.31,0,0,0,.16.27h0l.2.12a.33.33,0,0,0,.38,0,1.1,1.1,0,0,0,.49-.86A.36.36,0,0,0,224,72.51Zm-.35,1c-.2.12-.37,0-.37-.21a.81.81,0,0,1,.37-.63c.2-.12.36,0,.36.21A.8.8,0,0,1,223.68,73.54Z"/><path class="cls-15" d="M223.68,72.7l-.1.07a.92.92,0,0,1-.25.44.5.5,0,0,0,0,.12c0,.24.17.33.37.21a.8.8,0,0,0,.36-.63C224,72.67,223.88,72.58,223.68,72.7Z"/><path class="cls-10" d="M223.68,72.55a1.08,1.08,0,0,0-.5.86c0,.31.22.44.5.28a1.1,1.1,0,0,0,.49-.86C224.17,72.52,224,72.39,223.68,72.55Zm0,1c-.2.12-.37,0-.37-.21a.81.81,0,0,1,.37-.63c.2-.12.36,0,.36.21A.8.8,0,0,1,223.68,73.54Z"/><path class="cls-16" d="M223.65,64.63l-.12.08c.23-.07.39.06.39.33a1.1,1.1,0,0,1-.49.86c-.26.15-.47,0-.49-.23a1,1,0,0,0,0,.24c0,.47.33.66.74.43a1.67,1.67,0,0,0,.74-1.28C224.39,64.59,224.05,64.4,223.65,64.63Z"/><path class="cls-9" d="M224,64.87h0l-.24-.14h0a.3.3,0,0,0-.23,0,1.69,1.69,0,0,0-.59,1,.29.29,0,0,0,.16.27h0l.2.12a.33.33,0,0,0,.38,0,1.1,1.1,0,0,0,.49-.85A.34.34,0,0,0,224,64.87Zm-.35,1c-.2.12-.37,0-.37-.21a.81.81,0,0,1,.37-.63c.2-.12.36,0,.36.21A.8.8,0,0,1,223.68,65.89Z"/><path class="cls-15" d="M223.68,65.05l-.1.07a.92.92,0,0,1-.25.44.5.5,0,0,0,0,.12c0,.24.17.33.37.21a.8.8,0,0,0,.36-.63C224,65,223.88,64.93,223.68,65.05Z"/><path class="cls-10" d="M223.68,64.9a1.08,1.08,0,0,0-.5.86c0,.31.22.44.5.28a1.1,1.1,0,0,0,.49-.85C224.17,64.87,224,64.74,223.68,64.9Zm0,1c-.2.12-.37,0-.37-.21a.81.81,0,0,1,.37-.63c.2-.12.36,0,.36.21A.8.8,0,0,1,223.68,65.89Z"/><polygon class="cls-10" points="148.97 106.95 224.98 62.8 224.36 62.45 148.36 106.6 148.97 106.95"/><path class="cls-11" d="M149,107a.35.35,0,0,1,.19.19l76-44.13a.24.24,0,0,0-.15-.21Z"/><path class="cls-10" d="M148.52,110.86v3.52L218.3,74V70.44Z"/><polygon class="cls-11" points="218.3 70.44 148.52 110.86 148.18 110.39 218.03 69.95 218.3 70.44"/><polygon class="cls-9" points="218.3 74.01 148.52 114.38 148.18 114.71 218.28 74.12 218.3 74.01"/><path class="cls-9" d="M225,74.12a.37.37,0,0,0-.56-.32l-75.15,43.44a.76.76,0,0,0-.38.67v.66L225,74.39Z"/><path class="cls-10" d="M149.16,108.05l75.58-43.9a.79.79,0,0,0,.39-.68V63l-76,44.13Z"/><path class="cls-10" d="M225.16,74.23a.37.37,0,0,0-.55-.32l-75.15,43.45a.77.77,0,0,0-.39.67v.66l76.09-44.18Z"/><path class="cls-8" d="M104.51,145v.11a.36.36,0,0,0,.17.31l1.08.64.34-.18v-.31a.13.13,0,0,1,.08-.12l.19-.1a.86.86,0,0,0,.47-.76v-.1l.22.11a.17.17,0,0,0,.25-.15V134.39a.17.17,0,0,0,0-.1l-.76-1.41v-.74l-.42.25-.07.49-.5.26-.64-.29v.88a.36.36,0,0,0,.2.34l.08.05-.12.08v2.64l.28.23-.46.32v1.12l.27.38-.08.14v.83l.29.2-.5.29v1.24l.32.32h-.12v1.51l.21.1v.54a.18.18,0,0,1-.08.15l-.34.19A.69.69,0,0,0,104.51,145Zm1.84-11.24c0,.19-.13.26-.29.17a.64.64,0,0,1-.29-.5c0-.19.13-.26.29-.17A.64.64,0,0,1,106.35,133.75Zm-.58,7.34c0-.18.13-.26.29-.16a.62.62,0,0,1,.29.49c0,.19-.13.26-.29.17A.63.63,0,0,1,105.77,141.09Zm0-2.75c0-.18.13-.25.29-.16a.63.63,0,0,1,.29.5c0,.18-.13.26-.29.16A.63.63,0,0,1,105.77,138.34Zm-.06-2.19c0-.23.16-.33.37-.21a.81.81,0,0,1,.36.64c0,.23-.16.32-.36.21A.8.8,0,0,1,105.71,136.15Z"/><path class="cls-16" d="M107.62,130.58v3.71l-.81-1.62V132a.34.34,0,0,0-.08-.21l-.09-.08-1-.54s0,0,0-.05l.92-.54a.29.29,0,0,1,.16,0Z"/><path class="cls-10" d="M107.62,142.61l7.69-4.43a2,2,0,0,0,1-1.72v-10a.54.54,0,0,0-.81-.46l-7.88,4.62Z"/><path class="cls-16" d="M115.24,127.38l-.11.07c.22-.07.39.06.39.34a1.09,1.09,0,0,1-.5.85c-.26.15-.47.05-.49-.23a1.07,1.07,0,0,0,0,.25c0,.47.33.66.74.42a1.62,1.62,0,0,0,.74-1.28C116,127.33,115.65,127.14,115.24,127.38Z"/><path class="cls-9" d="M115.62,127.61h0l-.24-.14h0a.33.33,0,0,0-.22,0,1.74,1.74,0,0,0-.6,1,.31.31,0,0,0,.16.28h0l.2.11a.35.35,0,0,0,.38,0,1.1,1.1,0,0,0,.49-.86A.34.34,0,0,0,115.62,127.61Zm-.35,1a.23.23,0,0,1-.37-.21.82.82,0,0,1,.37-.64c.2-.11.37,0,.37.21A.82.82,0,0,1,115.27,128.64Z"/><path class="cls-15" d="M115.27,127.79a.39.39,0,0,0-.1.08.89.89,0,0,1-.25.43.59.59,0,0,0,0,.13.23.23,0,0,0,.37.21.82.82,0,0,0,.37-.64C115.64,127.77,115.47,127.68,115.27,127.79Z"/><path class="cls-10" d="M115.27,127.64a1.13,1.13,0,0,0-.5.86c0,.32.23.44.5.29a1.1,1.1,0,0,0,.49-.86C115.76,127.61,115.54,127.49,115.27,127.64Zm0,1a.23.23,0,0,1-.37-.21.82.82,0,0,1,.37-.64c.2-.11.37,0,.37.21A.82.82,0,0,1,115.27,128.64Z"/><path class="cls-16" d="M115.23,135.34l-.11.07c.22-.07.39.06.39.34a1.07,1.07,0,0,1-.5.85c-.26.15-.47.05-.49-.23a1.07,1.07,0,0,0,0,.25c0,.47.33.66.74.42a1.62,1.62,0,0,0,.74-1.28C116,135.29,115.64,135.1,115.23,135.34Z"/><path class="cls-9" d="M115.61,135.57h0l-.24-.14h0a.3.3,0,0,0-.23,0,1.74,1.74,0,0,0-.6,1,.31.31,0,0,0,.16.28h0l.2.11a.35.35,0,0,0,.38,0,1.12,1.12,0,0,0,.49-.86A.34.34,0,0,0,115.61,135.57Zm-.35,1a.23.23,0,0,1-.37-.21.82.82,0,0,1,.37-.64c.2-.11.37,0,.37.21A.82.82,0,0,1,115.26,136.6Z"/><path class="cls-15" d="M115.26,135.75l-.1.08a.82.82,0,0,1-.25.43.59.59,0,0,0,0,.13.23.23,0,0,0,.37.21.82.82,0,0,0,.37-.64C115.63,135.73,115.46,135.64,115.26,135.75Z"/><path class="cls-10" d="M115.26,135.6a1.12,1.12,0,0,0-.49.86c0,.32.22.44.49.29a1.13,1.13,0,0,0,.5-.86C115.76,135.57,115.53,135.45,115.26,135.6Zm0,1a.23.23,0,0,1-.37-.21.82.82,0,0,1,.37-.64c.2-.11.37,0,.37.21A.82.82,0,0,1,115.26,136.6Z"/><path class="cls-16" d="M109.28,137.41l-.11.08c.22-.08.39.06.39.33a1.08,1.08,0,0,1-.5.86.29.29,0,0,1-.49-.23,1,1,0,0,0,0,.24c0,.47.34.66.74.43a1.64,1.64,0,0,0,.74-1.28C110,137.37,109.69,137.18,109.28,137.41Z"/><path class="cls-9" d="M109.66,137.64h0l-.24-.13,0,0h0a.3.3,0,0,0-.23,0,1.72,1.72,0,0,0-.6.95.33.33,0,0,0,.16.28h0l.21.12a.32.32,0,0,0,.37,0,1.08,1.08,0,0,0,.5-.86A.37.37,0,0,0,109.66,137.64Zm-.35,1c-.2.12-.36,0-.36-.21a.8.8,0,0,1,.36-.63c.21-.12.37,0,.37.21A.78.78,0,0,1,109.31,138.67Z"/><path class="cls-15" d="M109.31,137.83l-.1.07a.85.85,0,0,1-.25.44.49.49,0,0,0,0,.12c0,.23.16.33.36.21a.78.78,0,0,0,.37-.63C109.68,137.8,109.52,137.71,109.31,137.83Z"/><path class="cls-10" d="M109.31,137.68a1.1,1.1,0,0,0-.49.85c0,.32.22.45.49.29a1.08,1.08,0,0,0,.5-.86C109.81,137.65,109.59,137.52,109.31,137.68Zm0,1c-.2.12-.36,0-.36-.21a.8.8,0,0,1,.36-.63c.21-.12.37,0,.37.21A.78.78,0,0,1,109.31,138.67Z"/><path class="cls-16" d="M109.27,132.24l-.11.08c.22-.07.39.06.39.33a1.08,1.08,0,0,1-.5.86c-.25.15-.47,0-.49-.23a1,1,0,0,0,0,.24c0,.47.33.66.74.43a1.64,1.64,0,0,0,.74-1.28C110,132.2,109.68,132,109.27,132.24Z"/><path class="cls-9" d="M109.65,132.47h0l-.24-.13h0a.3.3,0,0,0-.23,0,1.71,1.71,0,0,0-.6,1,.31.31,0,0,0,.16.27h0l.2.12a.33.33,0,0,0,.38,0,1.1,1.1,0,0,0,.49-.86A.36.36,0,0,0,109.65,132.47Zm-.35,1c-.2.12-.37,0-.37-.21a.81.81,0,0,1,.37-.63c.2-.12.37,0,.37.21A.81.81,0,0,1,109.3,133.5Z"/><path class="cls-15" d="M109.3,132.66l-.1.07a.85.85,0,0,1-.25.44.5.5,0,0,0,0,.12c0,.24.17.33.37.21a.81.81,0,0,0,.37-.63C109.67,132.63,109.5,132.54,109.3,132.66Z"/><path class="cls-10" d="M109.3,132.51a1.1,1.1,0,0,0-.49.86c0,.31.22.44.49.28a1.11,1.11,0,0,0,.5-.86C109.8,132.48,109.57,132.35,109.3,132.51Zm0,1c-.2.12-.37,0-.37-.21a.81.81,0,0,1,.37-.63c.2-.12.37,0,.37.21A.81.81,0,0,1,109.3,133.5Z"/><path d="M109.25,140.38c-.2.11-.36,0-.36-.22a.81.81,0,0,1,.36-.63c.21-.12.37,0,.37.21A.81.81,0,0,1,109.25,140.38Z"/><path class="cls-15" d="M109.25,139.53l-.1.08a.76.76,0,0,1-.25.43.49.49,0,0,0,0,.12c0,.24.16.33.36.22a.81.81,0,0,0,.37-.64C109.62,139.51,109.46,139.41,109.25,139.53Z"/><path d="M109.3,131.71a.23.23,0,0,1-.37-.21.82.82,0,0,1,.37-.64c.2-.11.37,0,.37.21A.82.82,0,0,1,109.3,131.71Z"/><path class="cls-15" d="M109.3,130.86l-.1.08a.82.82,0,0,1-.25.43.59.59,0,0,0,0,.13.23.23,0,0,0,.37.21.82.82,0,0,0,.37-.64C109.67,130.84,109.5,130.75,109.3,130.86Z"/><path class="cls-10" d="M106.3,138.47a.54.54,0,0,1,0,.21c0,.19-.13.27-.3.17a.64.64,0,0,1-.29-.51.18.18,0,0,1,.29-.17.52.52,0,0,1,.17.16,1,1,0,0,0-.33-.33c-.29-.16-.52,0-.52.31a1.13,1.13,0,0,0,.52.9c.29.17.53,0,.53-.3A1,1,0,0,0,106.3,138.47Z"/><path class="cls-10" d="M106.29,138.45l-.06-.1A.33.33,0,0,1,106.29,138.45Z"/><path class="cls-16" d="M106,138.14s0,0,0,0a.69.69,0,0,0,.31.53l0,0c0,.17-.15.23-.31.14a.69.69,0,0,1-.31-.54C105.75,138.15,105.87,138.07,106,138.14Z"/><path class="cls-16" d="M106,140.88a.08.08,0,0,0,0,0,.69.69,0,0,0,.31.54h0c0,.17-.15.24-.31.14a.66.66,0,0,1-.31-.53A.19.19,0,0,1,106,140.88Z"/><path class="cls-16" d="M106,133.21a.06.06,0,0,0,0,0,.69.69,0,0,0,.31.54h0c0,.17-.15.23-.31.14a.69.69,0,0,1-.31-.53C105.75,133.22,105.87,133.14,106,133.21Z"/><path class="cls-12" d="M106.3,138.47a.54.54,0,0,1,0,.21c0,.19-.13.27-.3.17a.64.64,0,0,1-.29-.51.18.18,0,0,1,.29-.17.79.79,0,0,1,.23.25.93.93,0,0,0-.3-.32c-.22-.13-.39,0-.39.23a.85.85,0,0,0,.39.68c.22.13.4,0,.4-.23A.71.71,0,0,0,106.3,138.47Z"/><path class="cls-16" d="M106,135.92V136a.78.78,0,0,0,.37.63l0,0a.22.22,0,0,1-.36.17.8.8,0,0,1-.37-.64C105.71,135.93,105.85,135.84,106,135.92Z"/><path class="cls-10" d="M106.3,141.22a.54.54,0,0,1,0,.21c0,.19-.13.27-.3.17a.64.64,0,0,1-.29-.51.18.18,0,0,1,.29-.17.64.64,0,0,1,.17.16,1,1,0,0,0-.33-.33c-.29-.16-.52,0-.52.31a1.13,1.13,0,0,0,.52.9c.29.17.52,0,.52-.3A1,1,0,0,0,106.3,141.22Z"/><path class="cls-10" d="M106.28,141.18a.35.35,0,0,0,0-.08A.35.35,0,0,1,106.28,141.18Z"/><path class="cls-12" d="M106.3,141.22a.54.54,0,0,1,0,.21c0,.19-.13.27-.3.17a.64.64,0,0,1-.29-.51.18.18,0,0,1,.29-.17.64.64,0,0,1,.17.16.75.75,0,0,0-.24-.23c-.22-.13-.39,0-.39.23a.85.85,0,0,0,.39.68c.22.13.4,0,.4-.23A.71.71,0,0,0,106.3,141.22Z"/><path class="cls-21" d="M106.28,141.17l0-.06Z"/><path class="cls-10" d="M106.3,133.54a.59.59,0,0,1,0,.22c0,.19-.13.26-.29.17a.63.63,0,0,1-.3-.51c0-.19.13-.26.3-.17a.56.56,0,0,1,.16.15,1,1,0,0,0-.33-.32c-.28-.17-.52,0-.52.3a1.2,1.2,0,0,0,.52.91c.29.16.53,0,.53-.3A1.08,1.08,0,0,0,106.3,133.54Z"/><path class="cls-10" d="M106.29,133.52l-.05-.09A.41.41,0,0,1,106.29,133.52Z"/><path class="cls-12" d="M106.3,133.54a.59.59,0,0,1,0,.22c0,.19-.13.26-.29.17a.63.63,0,0,1-.3-.51c0-.19.13-.26.3-.17a.54.54,0,0,1,.22.25.8.8,0,0,0-.3-.33c-.21-.12-.39,0-.39.23a.91.91,0,0,0,.39.69c.22.12.4,0,.4-.23A.79.79,0,0,0,106.3,133.54Z"/><path class="cls-11" d="M104.68,131.38l1.29.76-.07.15a1,1,0,0,0-.11.45v.08a.28.28,0,0,1-.39.26l-.62-.27a.55.55,0,0,1-.32-.49v-.16a1.53,1.53,0,0,1,.2-.75Z"/><path class="cls-11" d="M105.59,133.09l.34-.11a.15.15,0,0,0,.1-.13l.07-.45s0,0,0,0l.38-.22s0,0,0,0v.58a.68.68,0,0,0,.08.31l.71,1.26h0v10.12s0,0,0,0l.26-.12,0,0V134.2a.27.27,0,0,0,0-.12l-.71-1.27a.42.42,0,0,1,0-.15V132a.17.17,0,0,0-.25-.15l-.59.32a.39.39,0,0,0-.21.34v.29a.32.32,0,0,1-.08.21Z"/><path class="cls-11" d="M108,130l.32.16-.69.42h-.84a.35.35,0,0,0-.18,0l-.9.52s0,0,0,0l1.06.62-.79.32-1.29-.76,1.62-.94a.92.92,0,0,1,.45-.12h.68Z"/><path class="cls-22" d="M193.5,81.31l-1.6-1,.15-.08,1.6,1-.15.08Z"/><path class="cls-22" d="M193.67,81.55a.3.3,0,0,0-.17-.24l.15-.08a.28.28,0,0,1,.17.24l-.15.08Z"/><polygon class="cls-11" points="108.96 141.65 193.89 92.29 193.69 92.17 108.76 141.53 108.96 141.65"/><polygon class="cls-10" points="108.96 142.8 193.89 93.44 193.89 92.29 108.96 141.65 108.96 142.8"/><polygon class="cls-10" points="108.99 131.76 193.92 82.4 193.92 81.25 108.99 130.6 108.99 131.76"/><polygon class="cls-11" points="108.99 130.6 193.92 81.25 191.91 80.08 106.98 129.44 108.99 130.6"/><polygon class="cls-16" points="108.79 130.72 107.18 129.79 107.18 130.32 106.98 130.32 106.98 129.44 108.99 130.6 108.99 131.76 108.79 131.64 108.79 130.72"/><polygon class="cls-16" points="108.32 142.2 108.76 142.45 108.76 141.53 108.96 141.65 108.96 142.8 108.12 142.32 108.32 142.2"/><path class="cls-6" d="M26.56,103.4v8l5.51,3.18v-8l-.38-.21v1.7l-1.48-.85v-1.71Zm5.13,7.52-1.48-.86v-1.71l1.48.86Zm-1.48-.28,1.48.85v1.71l-1.48-.85Z"/><polygon class="cls-7" points="32.07 114.57 32.59 114.27 32.59 106.28 32.07 106.58 32.07 114.57"/><path class="cls-7" d="M31.69,113.2v-.6l-1-.56v-1.1l-.52-.3v1.71Z"/><path class="cls-7" d="M31.69,110.92v-.61l-1-.55v-1.11l-.52-.3v1.71Z"/><path class="cls-7" d="M31.69,108.07v-.6l-1-.55v-1.11l-.52-.3v1.71Z"/><path class="cls-6" d="M26.56,95.42v8l5.51,3.18v-8l-.38-.22v1.71l-1.48-.85V97.53Zm5.13,7.51-1.48-.85v-1.71l1.48.85Zm-1.48-.28,1.48.86v1.71l-1.48-.86Z"/><polygon class="cls-7" points="32.07 106.58 32.59 106.28 32.59 98.3 32.07 98.6 32.07 106.58"/><path class="cls-7" d="M31.69,105.22v-.61l-1-.55V103l-.52-.3v1.71Z"/><path class="cls-7" d="M31.69,102.93v-.6l-1-.56v-1.1l-.52-.3v1.71Z"/><path class="cls-7" d="M31.69,100.09v-.6l-1-.56v-1.1l-.52-.3v1.71Z"/><path class="cls-6" d="M26.56,87.43v8l5.51,3.18v-8l-.38-.21v1.71l-1.48-.86V89.54ZM31.69,95l-1.48-.86V92.38l1.48.86Zm-1.48-.28,1.48.85v1.71l-1.48-.85Z"/><polygon class="cls-7" points="32.07 98.6 32.59 98.3 32.59 90.31 32.07 90.61 32.07 98.6"/><path class="cls-7" d="M31.69,97.23v-.6l-1-.56V95l-.52-.3v1.71Z"/><path class="cls-7" d="M31.69,95v-.61l-1-.55V92.68l-.52-.3v1.71Z"/><path class="cls-7" d="M31.69,92.11V91.5l-1-.55V89.84l-.52-.3v1.71Z"/><path class="cls-6" d="M26.56,79.45v8l5.51,3.18v-8l-.38-.22v1.71l-1.48-.85V81.56ZM31.69,87l-1.48-.85V84.4l1.48.85Zm-1.48-.28,1.48.86v1.71l-1.48-.86Z"/><polygon class="cls-7" points="32.07 90.61 32.59 90.31 32.59 82.33 32.07 82.63 32.07 90.61"/><path class="cls-7" d="M31.69,89.25v-.61l-1-.55V87l-.52-.31v1.71Z"/><path class="cls-7" d="M31.69,87v-.6l-1-.55V84.7l-.52-.3v1.71Z"/><path class="cls-7" d="M31.69,84.12v-.6l-1-.56v-1.1l-.52-.3v1.71Z"/><path class="cls-6" d="M104.46,148.38v8l5.51,3.19v-8l-3.65-2.11v1.71l-1.48-.85V148.6Zm1.86,5.62-1.48-.85v-1.71l1.48.85Zm-1.48-.28,1.48.86v1.71l-1.48-.86Z"/><polygon class="cls-7" points="109.97 159.55 110.5 159.25 110.5 151.26 109.97 151.56 109.97 159.55"/><path class="cls-7" d="M106.32,156.29v-.61l-1-.55V154l-.52-.31v1.71Z"/><path class="cls-7" d="M106.32,154v-.6l-1-.55v-1.11l-.52-.3v1.71Z"/><path class="cls-7" d="M106.32,151.16v-.6l-1-.55V148.9l-.52-.3v1.71Z"/><path class="cls-6" d="M104.46,140.4v8l5.51,3.18v-8l-3.65-2.11v1.71l-1.48-.86v-1.71Zm1.86,5.62-1.48-.86v-1.71l1.48.86Zm-1.48-.28,1.48.85v1.71l-1.48-.85Z"/><polygon class="cls-7" points="109.97 151.56 110.5 151.26 110.5 143.28 109.97 143.58 109.97 151.56"/><path class="cls-7" d="M106.32,148.3v-.6l-1-.55V146l-.52-.3v1.71Z"/><path class="cls-7" d="M106.32,146v-.61l-1-.55v-1.1l-.52-.31v1.71Z"/><path class="cls-7" d="M106.32,143.18v-.61l-1-.55v-1.1l-.52-.31v1.71Z"/><path class="cls-6" d="M104.46,132.41v8l5.51,3.18v-8l-3.65-2.11v1.71l-1.48-.85v-1.71Zm1.86,5.62-1.48-.85v-1.71l1.48.85Zm-1.48-.28,1.48.86v1.71l-1.48-.86Z"/><polygon class="cls-7" points="109.97 143.58 110.5 143.28 110.5 135.29 109.97 135.59 109.97 143.58"/><path class="cls-7" d="M106.32,140.32v-.61l-1-.55v-1.1l-.52-.31v1.71Z"/><path class="cls-7" d="M106.32,138v-.6l-1-.55v-1.11l-.52-.3v1.71Z"/><path class="cls-7" d="M106.32,135.19v-.6l-1-.55v-1.11l-.52-.3v1.71Z"/><path class="cls-6" d="M104.46,124.43v8l5.51,3.18v-8l-3.65-2.11v1.71l-1.48-.86v-1.71Zm1.86,5.62-1.48-.86v-1.7l1.48.85Zm-1.48-.28,1.48.85v1.71l-1.48-.85Z"/><polygon class="cls-7" points="109.97 135.59 110.5 135.29 110.5 127.31 109.97 127.61 109.97 135.59"/><path class="cls-7" d="M106.32,132.33v-.6l-1-.55v-1.11l-.52-.3v1.71Z"/><path class="cls-7" d="M106.32,130.05v-.6l-1-.56v-1.1l-.52-.3v1.7Z"/><path class="cls-7" d="M106.32,127.21v-.61l-1-.55V125l-.52-.31v1.71Z"/><rect class="cls-23" x="189.58" y="34.64" width="6.14" height="28" transform="translate(-4.26 75.19) rotate(-21.85)"/><path class="cls-3" d="M161.81,39.26c-.82-.64-2.46-2.37-4.46-2.46s-3.18-.11-4.07-.08a2.91,2.91,0,0,1-1.42-.2,6.19,6.19,0,0,0-1.21-.35,2.82,2.82,0,0,1-1.35-.84,3.78,3.78,0,0,0-1-.86,12.35,12.35,0,0,1-1.73-1.3,2.14,2.14,0,0,0-2.54-.69,1.71,1.71,0,0,0-1,1.53,5.53,5.53,0,0,0,1.16,2.85,15,15,0,0,0,2.48,2.6,2,2,0,0,1,.74,1.15c.15.63,0,.81.15,1.3a7.83,7.83,0,0,1,.4,1.14h0a7.89,7.89,0,0,1,0,2.9Z"/><path class="cls-4" d="M161.81,39.26c-.82-.64-2.46-2.37-4.46-2.46s-3.18-.11-4.07-.08a2.91,2.91,0,0,1-1.42-.2,6.19,6.19,0,0,0-1.21-.35,2.82,2.82,0,0,1-1.35-.84,3.78,3.78,0,0,0-1-.86,12.35,12.35,0,0,1-1.73-1.3,2.14,2.14,0,0,0-2.54-.69,1.71,1.71,0,0,0-1,1.53,5.53,5.53,0,0,0,1.16,2.85,15,15,0,0,0,2.48,2.6,2,2,0,0,1,.74,1.15c.15.63,0,.81.15,1.3a7.83,7.83,0,0,1,.4,1.14h0a7.89,7.89,0,0,1,0,2.9"/><path class="cls-5" d="M146.69,33.46a.15.15,0,0,1,0,.22,4.93,4.93,0,0,0-1.73,1c-.15.14-.48.29-.69.09s-.88-.71-.73-1.37"/><path class="cls-5" d="M146.91,35.3a6.78,6.78,0,0,1,.89-.39"/><path class="cls-5" d="M147,35.69a7,7,0,0,1,1.39-.49"/><path class="cls-24" d="M10.51,109.14a25.59,25.59,0,0,0,6.59-2.91c3.13-2.61,5.56-5.36,9.49-7.39C29.15,98,32.1,97,34.66,96.16c1.12-.18,3.41.44,4.83.25,1.72-.5,3.56-.65,3.91-.36a3,3,0,0,1,.85,1.39,1.73,1.73,0,0,1-.77,1.81h.12c2.33.66,3.74,1.94,4.2,3.17a1.86,1.86,0,0,1,0,1.12c-.18,1.24-1.3,2.79-1.55,2.54,1.53,3.2-2.9,4.49-3.5,4.55a3,3,0,0,1,.23,1.63c-.18,1.58-1.75,2.39-3.13,2.61-1,2.57-1,2.25-3.47,3.16-1.18.43-2.1,1.46-3.68,1.78-3.51.2-9.56,2.21-13.52,2.26Z"/><path class="cls-25" d="M43.6,99.25c2.33.66,3.74,1.94,4.2,3.17a1.86,1.86,0,0,1,0,1.12c-.18,1.24-1.3,2.79-1.55,2.54,1.53,3.2-2.9,4.49-3.5,4.55a3,3,0,0,1,.23,1.63c-.18,1.58-1.75,2.39-3.13,2.61-1,2.57-1,2.25-3.47,3.16-1.18.43-2.11,1.46-3.68,1.78-3.51.2-9.56,2.21-13.52,2.26"/><path class="cls-26" d="M44.51,100.77c-2.25-1-1.45-.76-4.36-.38-2.38-1-5.2-.39-7.81,0"/><path class="cls-26" d="M46.26,106.08a17.88,17.88,0,0,1-4.15-.34l-.46-.39"/><path class="cls-26" d="M42.76,110.63c-1.46,1-2,.92-2,.92"/><path class="cls-26" d="M39.86,114.87c-1.63.74-2.15.55-2.15.55"/><path class="cls-26" d="M36.39,118c-2,.77-2.72-.21-2.72-.21"/><path class="cls-25" d="M40.4,100.28c2.7-.13,4.23-1.66,3.85-2.84a3,3,0,0,0-.85-1.39c-.35-.29-2.19-.14-3.91.36-1.42.19-3.71-.43-4.83-.25C32.1,97,29.15,98,26.59,98.84c-3.93,2-6.36,4.78-9.49,7.39a25.59,25.59,0,0,1-6.59,2.91"/><path class="cls-26" d="M34.61,96.18a2,2,0,0,1,1.89,1"/><path class="cls-26" d="M39.49,96.41c.7.39,1.38.71,1.38.71A9.47,9.47,0,0,0,41.94,97a7,7,0,0,0,1.33-.55.22.22,0,0,0,.07-.27"/><path class="cls-26" d="M46.05,105a6.46,6.46,0,0,0,.8-2.53"/><line class="cls-26" x1="33.77" y1="100.14" x2="32.55" y2="100.98"/><rect class="cls-27" x="13.72" y="106.16" width="5.91" height="18.01" transform="translate(-63.83 31.14) rotate(-35.54)"/><path class="cls-26" d="M33.34,115.17a2,2,0,0,0,1.39-.51"/><path class="cls-26" d="M35.19,112.77c.84-.4,1.7-.77,2.55-1.17"/><path class="cls-26" d="M38.33,108.71a2.3,2.3,0,0,1,.87-1.1"/></g></svg>