<svg xmlns="http://www.w3.org/2000/svg" viewBox="0 0 414.44 178.42"><defs><style>.cls-1,.cls-17{font-size:12px;fill:#231f20;}.cls-1{font-family:MyriadPro-Regular, Myriad Pro;}.cls-2{letter-spacing:-0.01em;}.cls-3{letter-spacing:0em;}.cls-4{letter-spacing:0em;}.cls-5{letter-spacing:0.01em;}.cls-6{letter-spacing:0em;}.cls-7,.cls-8{fill:none;stroke-miterlimit:10;}.cls-7{stroke:#fff;stroke-width:2px;}.cls-8{stroke:#231f20;}.cls-9{letter-spacing:0.52em;}.cls-10{letter-spacing:2.79em;}.cls-11{letter-spacing:0.37em;}.cls-12{letter-spacing:0.01em;}.cls-13{letter-spacing:2.7em;}.cls-14{letter-spacing:-0.01em;}.cls-15{fill:#fff;}.cls-16{fill:#010101;}.cls-17{font-family:ArialMT, Arial;letter-spacing:-0.07em;}</style></defs><title>Artboard 1</title><g id="Layer_2" data-name="Layer 2"><text class="cls-1" transform="translate(6.44 70.92)"><tspan xml:space="preserve"> /dev/</tspan><tspan class="cls-2" x="29.33" y="0">n</tspan><tspan class="cls-3" x="35.83" y="0" xml:space="preserve">vme1n1     021648023072         Net</tspan><tspan class="cls-4" x="203.96" y="0">A</tspan><tspan x="211.27" y="0">pp E-</tspan><tspan class="cls-5" x="237.05" y="0">S</tspan><tspan x="243.04" y="0">e</tspan><tspan class="cls-6" x="249.05" y="0">r</tspan><tspan class="cls-3" x="253.03" y="0" xml:space="preserve">ies                               10</tspan><tspan x="0" y="14.4" xml:space="preserve"> /dev/</tspan><tspan class="cls-2" x="29.33" y="14.4">n</tspan><tspan class="cls-3" x="35.83" y="14.4" xml:space="preserve">vme1n2     021648023072         Net</tspan><tspan class="cls-4" x="203.96" y="14.4">A</tspan><tspan x="211.27" y="14.4">pp E-</tspan><tspan class="cls-5" x="237.05" y="14.4">S</tspan><tspan x="243.04" y="14.4">e</tspan><tspan class="cls-6" x="249.05" y="14.4">r</tspan><tspan class="cls-3" x="253.03" y="14.4" xml:space="preserve">ies                               11</tspan><tspan x="0" y="28.8" xml:space="preserve"> /dev/</tspan><tspan class="cls-2" x="29.33" y="28.8">n</tspan><tspan class="cls-3" x="35.83" y="28.8" xml:space="preserve">vme1n3     021648023072         Net</tspan><tspan class="cls-4" x="203.96" y="28.8">A</tspan><tspan x="211.27" y="28.8">pp E-</tspan><tspan class="cls-5" x="237.05" y="28.8">S</tspan><tspan x="243.04" y="28.8">e</tspan><tspan class="cls-6" x="249.05" y="28.8">r</tspan><tspan class="cls-3" x="253.03" y="28.8" xml:space="preserve">ies                               12</tspan><tspan x="0" y="43.2" xml:space="preserve"> /dev/</tspan><tspan class="cls-2" x="29.33" y="43.2">n</tspan><tspan class="cls-3" x="35.83" y="43.2" xml:space="preserve">vme1n4     021648023072         Net</tspan><tspan class="cls-4" x="203.96" y="43.2">A</tspan><tspan x="211.27" y="43.2">pp E-</tspan><tspan class="cls-5" x="237.05" y="43.2">S</tspan><tspan x="243.04" y="43.2">e</tspan><tspan class="cls-6" x="249.05" y="43.2">r</tspan><tspan class="cls-3" x="253.03" y="43.2" xml:space="preserve">ies                               13</tspan><tspan x="0" y="57.6" xml:space="preserve"> /dev/</tspan><tspan class="cls-2" x="29.33" y="57.6">n</tspan><tspan class="cls-3" x="35.83" y="57.6" xml:space="preserve">vme2n1     021648023151         Net</tspan><tspan class="cls-4" x="203.96" y="57.6">A</tspan><tspan x="211.27" y="57.6">pp E-</tspan><tspan class="cls-5" x="237.05" y="57.6">S</tspan><tspan x="243.04" y="57.6">e</tspan><tspan class="cls-6" x="249.05" y="57.6">r</tspan><tspan class="cls-3" x="253.03" y="57.6" xml:space="preserve">ies                               10</tspan><tspan x="0" y="72" xml:space="preserve"> /dev/</tspan><tspan class="cls-2" x="29.33" y="72">n</tspan><tspan class="cls-3" x="35.83" y="72" xml:space="preserve">vme2n2     021648023151         Net</tspan><tspan class="cls-4" x="203.96" y="72">A</tspan><tspan x="211.27" y="72">pp E-</tspan><tspan class="cls-5" x="237.05" y="72">S</tspan><tspan x="243.04" y="72">e</tspan><tspan class="cls-6" x="249.05" y="72">r</tspan><tspan class="cls-3" x="253.03" y="72" xml:space="preserve">ies                               11</tspan><tspan x="0" y="86.4" xml:space="preserve"> /dev/</tspan><tspan class="cls-2" x="29.33" y="86.4">n</tspan><tspan class="cls-3" x="35.83" y="86.4" xml:space="preserve">vme2n3     021648023151         Net</tspan><tspan class="cls-4" x="203.96" y="86.4">A</tspan><tspan x="211.27" y="86.4">pp E-</tspan><tspan class="cls-5" x="237.05" y="86.4">S</tspan><tspan x="243.04" y="86.4">e</tspan><tspan class="cls-6" x="249.05" y="86.4">r</tspan><tspan class="cls-3" x="253.03" y="86.4" xml:space="preserve">ies                               12</tspan><tspan x="0" y="100.8" xml:space="preserve"> /dev/</tspan><tspan class="cls-2" x="29.33" y="100.8">n</tspan><tspan class="cls-3" x="35.83" y="100.8" xml:space="preserve">vme2n4     021648023151         Net</tspan><tspan class="cls-4" x="203.96" y="100.8">A</tspan><tspan x="211.27" y="100.8">pp E-</tspan><tspan class="cls-5" x="237.05" y="100.8">S</tspan><tspan x="243.04" y="100.8">e</tspan><tspan class="cls-6" x="249.05" y="100.8">r</tspan><tspan class="cls-3" x="253.03" y="100.8" xml:space="preserve">ies                               13</tspan></text><line class="cls-7" x1="55.94" y1="28.06" x2="55.94" y2="59.72"/><line class="cls-8" x1="55.94" y1="28.06" x2="55.94" y2="59.72"/><text class="cls-1" transform="translate(9.19 47.67)">Node<tspan class="cls-9" x="27.26" y="0">	</tspan><tspan class="cls-10" x="36" y="0">	</tspan><tspan x="72" y="0" xml:space="preserve">      SN</tspan><tspan class="cls-11" x="101.08" y="0">	</tspan><tspan class="cls-10" x="108" y="0" xml:space="preserve">		</tspan><tspan x="180" y="0" xml:space="preserve">  </tspan><tspan class="cls-12" x="185.09" y="0">M</tspan><tspan x="194.81" y="0">odel</tspan><tspan class="cls-13" x="217.01" y="0">	</tspan><tspan class="cls-10" x="252" y="0">	</tspan><tspan x="288" y="0" xml:space="preserve">          Namespa</tspan><tspan class="cls-14" x="360.5" y="0">c</tspan><tspan x="365.81" y="0">e</tspan></text><line class="cls-7" x1="395.1" y1="65.97" x2="368.69" y2="65.97"/><path class="cls-7" d="M395.1,65l-27.66,1Z"/><path class="cls-8" d="M395.1,65l-27.66,1Z"/></g><g id="Layer_1" data-name="Layer 1"><path class="cls-15" d="M55.52,28.32a9,9,0,1,1,9-9A9,9,0,0,1,55.52,28.32Z"/><path class="cls-16" d="M55.52,11.24a8.09,8.09,0,1,0,8.09,8.08,8.08,8.08,0,0,0-8.09-8.08Z"/><path class="cls-15" d="M62.61,19.32a7.09,7.09,0,1,1-7.09-7.08A7.08,7.08,0,0,1,62.61,19.32Z"/><text class="cls-17" transform="translate(52.18 23.67)">1</text><path class="cls-15" d="M403.19,74a9,9,0,1,1,9-9A9,9,0,0,1,403.19,74Z"/><path class="cls-16" d="M403.19,56.88A8.09,8.09,0,1,0,411.28,65a8.1,8.1,0,0,0-8.09-8.09Z"/><path class="cls-15" d="M410.28,65a7.09,7.09,0,1,1-7.09-7.09A7.1,7.1,0,0,1,410.28,65Z"/><text class="cls-17" transform="translate(399.85 69.31)">2</text></g></svg>