<svg xmlns="http://www.w3.org/2000/svg" viewBox="0 0 137.52 92.5"><defs><style>.cls-1{fill:#404041;}.cls-2{fill:#d0d2d3;}.cls-3{fill:#f1f1f2;}.cls-4{fill:#fff;}.cls-5{fill:#2668b1;}.cls-6{fill:#e0e1e1;}.cls-7{fill:#bbbdbf;}.cls-8{fill:#231f20;}.cls-9{fill:#323233;}.cls-10{fill:#999;}</style></defs><title>Management Station_Source</title><g id="Rulers"><path class="cls-1" d="M114.58,7.68H22.94A1.33,1.33,0,0,0,21.61,9V64.34h94.3V9A1.33,1.33,0,0,0,114.58,7.68ZM112.32,58H25.2V11.26h87.12Z"/><polygon class="cls-2" points="115.91 64.34 21.61 64.34 9.4 82.24 128.12 82.24 115.91 64.34"/><rect class="cls-3" x="25.2" y="11.26" width="87.12" height="46.69"/><rect class="cls-4" x="39.35" y="24.15" width="58.74" height="33.8"/><polygon class="cls-5" points="39.34 24.15 39.34 40.49 46.97 40.49 46.97 30.69 51.33 30.69 51.33 40.49 58.95 40.49 58.95 24.15 39.34 24.15"/><rect class="cls-6" x="58.95" y="24.15" width="39.22" height="16.34"/><path class="cls-7" d="M68.76,82.24H9.4V83.5a1.32,1.32,0,0,0,1.32,1.32H126.8a1.32,1.32,0,0,0,1.32-1.32V82.24Z"/><path class="cls-8" d="M32.74,67.24c-.15,0-.24-.06-.21-.12l1-1.63a.41.41,0,0,1,.33-.12h3.65c.14,0,.23,0,.2.12l-.83,1.63a.44.44,0,0,1-.33.12Z"/><path class="cls-8" d="M90.91,67.24c-.15,0-.29-.06-.31-.12L90,65.49c0-.07.07-.12.21-.12h3.66c.14,0,.28,0,.31.12l.77,1.63c0,.06-.07.12-.22.12Z"/><path class="cls-8" d="M86.06,67.24c-.14,0-.28-.06-.3-.12l-.52-1.63c0-.07.08-.12.23-.12h3.65c.14,0,.28,0,.31.12l.63,1.63c0,.06-.08.12-.23.12Z"/><path class="cls-8" d="M81.22,67.24c-.15,0-.29-.06-.3-.12l-.38-1.63c0-.07.09-.12.23-.12h3.65c.15,0,.28,0,.3.12l.5,1.63c0,.06-.08.12-.23.12Z"/><path class="cls-8" d="M76.37,67.24c-.15,0-.28-.06-.29-.12l-.25-1.63c0-.07.1-.12.25-.12h3.65c.14,0,.27,0,.29.12l.36,1.63c0,.06-.09.12-.24.12Z"/><path class="cls-8" d="M71.52,67.24c-.15,0-.27-.06-.28-.12l-.11-1.63c0-.07.11-.12.25-.12H75c.15,0,.27,0,.28.12l.23,1.63c0,.06-.1.12-.25.12Z"/><path class="cls-8" d="M66.67,67.24c-.15,0-.27-.06-.27-.12l0-1.63c0-.07.12-.12.27-.12h3.65c.14,0,.26,0,.27.12l.1,1.63c0,.06-.12.12-.27.12Z"/><path class="cls-8" d="M61.82,67.24c-.14,0-.26-.06-.25-.12l.15-1.63c0-.07.13-.12.27-.12h3.65c.15,0,.26,0,.26.12l0,1.63c0,.06-.13.12-.28.12Z"/><path class="cls-8" d="M57,67.24c-.15,0-.26-.06-.25-.12L57,65.49c0-.07.14-.12.28-.12H61c.14,0,.25,0,.25.12L61,67.12c0,.06-.13.12-.28.12Z"/><path class="cls-8" d="M52.13,67.24c-.15,0-.26-.06-.24-.12l.42-1.63c0-.07.15-.12.29-.12h3.65c.15,0,.25,0,.24.12l-.3,1.63c0,.06-.14.12-.29.12Z"/><path class="cls-8" d="M47.28,67.24c-.15,0-.25-.06-.23-.12l.55-1.63c0-.07.16-.12.3-.12h3.66c.14,0,.24,0,.23.12l-.44,1.63c0,.06-.15.12-.3.12Z"/><path class="cls-8" d="M42.43,67.24c-.15,0-.25-.06-.22-.12l.69-1.63c0-.07.16-.12.31-.12h3.65c.14,0,.24,0,.22.12l-.57,1.63c0,.06-.16.12-.31.12Z"/><path class="cls-8" d="M37.58,67.24c-.14,0-.24-.06-.21-.12l.82-1.63a.4.4,0,0,1,.32-.12h3.65c.15,0,.24,0,.22.12l-.71,1.63c0,.06-.17.12-.32.12Z"/><path class="cls-8" d="M95.76,67.24a.4.4,0,0,1-.32-.12l-.79-1.63c0-.07.07-.12.21-.12h8.35a.42.42,0,0,1,.33.12l1,1.63c.05.06,0,.12-.19.12Z"/><path class="cls-8" d="M27.87,75.65c-.17,0-.28-.06-.24-.12l1-1.64c0-.06.2-.11.36-.11h5.53c.17,0,.28,0,.25.11l-.81,1.64a.47.47,0,0,1-.36.12Z"/><path class="cls-8" d="M34.79,75.65c-.17,0-.28-.06-.25-.12l.78-1.64a.49.49,0,0,1,.36-.11h5.53c.17,0,.28,0,.25.11l-.63,1.64a.44.44,0,0,1-.35.12Z"/><path class="cls-8" d="M41.71,75.65c-.17,0-.29-.06-.27-.12l.62-1.64c0-.06.18-.11.35-.11h5.53c.16,0,.28,0,.26.11l-.47,1.64c0,.06-.17.12-.34.12Z"/><path class="cls-8" d="M83.21,75.65c-.17,0-.32-.06-.33-.12l-.38-1.64c0-.06.1-.11.27-.11H88.3c.16,0,.32,0,.34.11l.53,1.64c0,.06-.1.12-.27.12Z"/><path class="cls-8" d="M90.13,75.65c-.17,0-.33-.06-.35-.12l-.54-1.64c0-.06.09-.11.26-.11H95c.16,0,.32,0,.35.11l.69,1.64c0,.06-.08.12-.25.12Z"/><path class="cls-8" d="M97.05,75.65a.47.47,0,0,1-.36-.12L96,73.89c0-.06.09-.11.25-.11h5.53c.17,0,.33,0,.36.11l.87,1.64c0,.06-.08.12-.25.12Z"/><path class="cls-8" d="M104,75.65a.54.54,0,0,1-.37-.12l-.88-1.64c0-.06.07-.11.24-.11h5.53a.52.52,0,0,1,.37.11l1,1.64c0,.06-.07.12-.24.12Z"/><path class="cls-8" d="M48.62,75.65c-.17,0-.29-.06-.27-.12l.45-1.64c0-.06.17-.11.33-.11H81.57c.17,0,.31,0,.33.11l.36,1.64c0,.06-.11.12-.28.12Z"/><path class="cls-8" d="M89.24,69.34c-.15,0-.29,0-.32-.12l-.58-1.63c0-.07.08-.12.23-.12h3.79c.15,0,.29,0,.32.12l.7,1.63c0,.07-.08.12-.23.12Z"/><path class="cls-8" d="M94.26,69.34c-.15,0-.3,0-.33-.12l-.71-1.63c0-.07.07-.12.22-.12h3.78c.15,0,.3,0,.33.12l.84,1.63c0,.07-.07.12-.22.12Z"/><path class="cls-8" d="M84.22,69.34c-.15,0-.29,0-.31-.12l-.44-1.63c0-.07.09-.12.24-.12h3.78c.15,0,.29,0,.31.12l.57,1.63c0,.07-.09.12-.24.12Z"/><path class="cls-8" d="M79.21,69.34c-.16,0-.29,0-.31-.12l-.31-1.63c0-.07.1-.12.25-.12h3.78c.15,0,.29,0,.3.12l.44,1.63c0,.07-.1.12-.25.12Z"/><path class="cls-8" d="M74.19,69.34c-.16,0-.29,0-.3-.12l-.18-1.63c0-.07.11-.12.26-.12h3.79c.15,0,.28,0,.29.12l.3,1.63c0,.07-.11.12-.26.12Z"/><path class="cls-8" d="M69.17,69.34c-.16,0-.28,0-.29-.12l0-1.63c0-.07.11-.12.26-.12h3.79c.15,0,.28,0,.28.12l.17,1.63c0,.07-.12.12-.27.12Z"/><path class="cls-8" d="M64.15,69.34c-.16,0-.28,0-.28-.12L64,67.59c0-.07.13-.12.28-.12H68c.15,0,.27,0,.28.12l0,1.63c0,.07-.13.12-.28.12Z"/><path class="cls-8" d="M59.13,69.34c-.16,0-.27,0-.27-.12l.22-1.63c0-.07.14-.12.29-.12h3.79c.14,0,.26,0,.26.12l-.1,1.63c0,.07-.13.12-.29.12Z"/><path class="cls-8" d="M54.11,69.34c-.16,0-.27,0-.26-.12l.36-1.63c0-.07.14-.12.29-.12h3.79c.15,0,.26,0,.25.12l-.23,1.63c0,.07-.14.12-.3.12Z"/><path class="cls-8" d="M49.09,69.34c-.16,0-.27,0-.25-.12l.49-1.63c0-.07.16-.12.31-.12h3.78c.15,0,.26,0,.25.12l-.37,1.63c0,.07-.15.12-.31.12Z"/><path class="cls-8" d="M44.07,69.34c-.16,0-.26,0-.24-.12l.62-1.63c0-.07.17-.12.32-.12h3.78c.15,0,.26,0,.24.12l-.5,1.63c0,.07-.16.12-.32.12Z"/><path class="cls-8" d="M39.05,69.34c-.15,0-.26,0-.23-.12l.76-1.63c0-.07.17-.12.32-.12h3.79c.15,0,.25,0,.22.12l-.63,1.63c0,.07-.17.12-.33.12Z"/><path class="cls-8" d="M99.28,69.34a.43.43,0,0,1-.34-.12l-.84-1.63c0-.07.06-.12.21-.12h6.22a.45.45,0,0,1,.34.12l1,1.63c0,.07-.05.12-.2.12Z"/><path class="cls-8" d="M31.52,69.34c-.15,0-.25,0-.21-.12l.95-1.63a.43.43,0,0,1,.34-.12h6.22c.15,0,.25,0,.22.12l-.77,1.63c0,.07-.18.12-.34.12Z"/><path class="cls-8" d="M91.3,71.44c-.16,0-.31,0-.33-.12l-.62-1.63c0-.06.08-.12.24-.12h3.92a.43.43,0,0,1,.33.12l.73,1.63c0,.07-.08.12-.23.12Z"/><path class="cls-8" d="M86.11,71.44c-.16,0-.31,0-.33-.12l-.48-1.63c0-.06.1-.12.25-.12h3.92c.15,0,.3.06.32.12l.6,1.63c0,.07-.09.12-.25.12Z"/><path class="cls-8" d="M80.92,71.44c-.16,0-.3,0-.32-.12l-.34-1.63c0-.06.1-.12.25-.12h3.92c.15,0,.29.06.31.12l.47,1.63c0,.07-.1.12-.26.12Z"/><path class="cls-8" d="M75.73,71.44c-.16,0-.3,0-.31-.12l-.21-1.63c0-.06.11-.12.26-.12h3.92c.16,0,.29.06.3.12L80,71.32c0,.07-.11.12-.27.12Z"/><path class="cls-8" d="M70.53,71.44c-.15,0-.29,0-.29-.12l-.08-1.63c0-.06.12-.12.27-.12h3.92c.16,0,.29.06.3.12l.2,1.63c0,.07-.12.12-.28.12Z"/><path class="cls-8" d="M65.34,71.44c-.16,0-.28,0-.28-.12l0-1.63c0-.06.13-.12.29-.12h3.91c.16,0,.29.06.29.12l.06,1.63c0,.07-.12.12-.28.12Z"/><path class="cls-8" d="M60.15,71.44c-.16,0-.28,0-.27-.12l.18-1.63c0-.06.14-.12.3-.12h3.92c.15,0,.27.06.27.12l-.07,1.63c0,.07-.13.12-.29.12Z"/><path class="cls-8" d="M55,71.44c-.16,0-.28,0-.26-.12L55,69.69c0-.06.14-.12.3-.12h3.92c.15,0,.27.06.26.12l-.2,1.63c0,.07-.14.12-.3.12Z"/><path class="cls-8" d="M49.77,71.44c-.16,0-.27,0-.26-.12L50,69.69c0-.06.16-.12.31-.12H54.2c.15,0,.27.06.25.12l-.33,1.63c0,.07-.15.12-.31.12Z"/><path class="cls-8" d="M44.58,71.44c-.16,0-.27,0-.25-.12l.59-1.63c0-.06.17-.12.32-.12h3.92c.15,0,.26.06.25.12l-.47,1.63c0,.07-.16.12-.32.12Z"/><path class="cls-8" d="M39.39,71.44c-.16,0-.27,0-.24-.12l.72-1.63a.43.43,0,0,1,.33-.12h3.92c.16,0,.26.06.24.12l-.6,1.63c0,.07-.18.12-.33.12Z"/><path class="cls-8" d="M96.49,71.44c-.16,0-.31,0-.34-.12l-.75-1.63c0-.06.07-.12.23-.12h10.21a.51.51,0,0,1,.36.12l1,1.63c0,.07-.06.12-.21.12Z"/><path class="cls-8" d="M30.3,71.44c-.16,0-.25,0-.22-.12l1-1.63a.45.45,0,0,1,.34-.12h7.7c.16,0,.26.06.23.12l-.73,1.63c0,.07-.19.12-.35.12Z"/><path class="cls-8" d="M89.42,73.54c-.17,0-.32-.05-.34-.11l-.55-1.64c0-.06.09-.12.25-.12h4c.16,0,.32.06.34.12l.67,1.64c0,.06-.09.11-.25.11Z"/><path class="cls-8" d="M84.05,73.54c-.16,0-.31-.05-.32-.11l-.42-1.64c0-.06.1-.12.26-.12h4.05c.16,0,.31.06.33.12l.53,1.64c0,.06-.09.11-.26.11Z"/><path class="cls-8" d="M78.69,73.54c-.16,0-.31-.05-.32-.11l-.28-1.64c0-.06.11-.12.27-.12h4c.16,0,.31.06.32.12l.4,1.64c0,.06-.1.11-.27.11Z"/><path class="cls-8" d="M73.33,73.54c-.17,0-.3-.05-.31-.11l-.15-1.64c0-.06.12-.12.28-.12h4c.16,0,.3.06.31.12l.27,1.64c0,.06-.12.11-.28.11Z"/><path class="cls-8" d="M68,73.54c-.17,0-.3-.05-.3-.11l0-1.64c0-.06.13-.12.29-.12h4c.16,0,.3.06.3.12l.14,1.64c0,.06-.13.11-.29.11Z"/><path class="cls-8" d="M62.6,73.54c-.16,0-.29-.05-.29-.11l.12-1.64c0-.06.14-.12.3-.12h4.05c.16,0,.29.06.29.12v1.64c0,.06-.13.11-.3.11Z"/><path class="cls-8" d="M57.24,73.54c-.16,0-.29-.05-.28-.11l.25-1.64c0-.06.15-.12.31-.12h4c.16,0,.29.06.28.12l-.13,1.64c0,.06-.14.11-.31.11Z"/><path class="cls-8" d="M51.88,73.54c-.17,0-.29-.05-.27-.11L52,71.79c0-.06.16-.12.32-.12h4c.16,0,.28.06.27.12l-.26,1.64c0,.06-.16.11-.32.11Z"/><path class="cls-8" d="M46.52,73.54c-.17,0-.29-.05-.27-.11l.52-1.64a.41.41,0,0,1,.33-.12h4c.16,0,.28.06.26.12L51,73.43c0,.06-.16.11-.32.11Z"/><path class="cls-8" d="M41.15,73.54c-.16,0-.27-.05-.25-.11l.66-1.64c0-.06.17-.12.33-.12h4c.16,0,.28.06.25.12l-.53,1.64c0,.06-.17.11-.34.11Z"/><path class="cls-8" d="M94.78,73.54c-.17,0-.32-.05-.35-.11l-.68-1.64c0-.06.08-.12.24-.12h13.17a.56.56,0,0,1,.37.12l1,1.64c0,.06-.06.11-.23.11Z"/><path class="cls-8" d="M29.09,73.54c-.17,0-.27-.05-.23-.11l.95-1.64a.51.51,0,0,1,.36-.12H40.73c.16,0,.27.06.25.12l-.67,1.64c0,.06-.18.11-.35.11Z"/><path class="cls-9" d="M32.74,67c-.15,0-.24,0-.21-.11l1-1.64a.44.44,0,0,1,.33-.11h3.65c.14,0,.23,0,.2.11l-.83,1.64a.44.44,0,0,1-.33.11Z"/><path class="cls-9" d="M90.91,67c-.15,0-.29,0-.31-.11L90,65.28c0-.06.07-.11.21-.11h3.66a.39.39,0,0,1,.31.11l.77,1.64c0,.06-.07.11-.22.11Z"/><path class="cls-9" d="M86.06,67c-.14,0-.28,0-.3-.11l-.52-1.64c0-.06.08-.11.23-.11h3.65a.39.39,0,0,1,.31.11l.63,1.64c0,.06-.08.11-.23.11Z"/><path class="cls-9" d="M81.22,67c-.15,0-.29,0-.3-.11l-.38-1.64c0-.06.09-.11.23-.11h3.65c.15,0,.28,0,.3.11l.5,1.64c0,.06-.08.11-.23.11Z"/><path class="cls-9" d="M76.37,67c-.15,0-.28,0-.29-.11l-.25-1.64c0-.06.1-.11.25-.11h3.65c.14,0,.27,0,.29.11l.36,1.64c0,.06-.09.11-.24.11Z"/><path class="cls-9" d="M71.52,67c-.15,0-.27,0-.28-.11l-.11-1.64c0-.06.11-.11.25-.11H75c.15,0,.27,0,.28.11l.23,1.64c0,.06-.1.11-.25.11Z"/><path class="cls-9" d="M66.67,67c-.15,0-.27,0-.27-.11l0-1.64c0-.06.12-.11.27-.11h3.65c.14,0,.26,0,.27.11l.1,1.64c0,.06-.12.11-.27.11Z"/><path class="cls-9" d="M61.82,67c-.14,0-.26,0-.25-.11l.15-1.64c0-.06.13-.11.27-.11h3.65c.15,0,.26,0,.26.11l0,1.64c0,.06-.13.11-.28.11Z"/><path class="cls-9" d="M57,67c-.15,0-.26,0-.25-.11L57,65.28c0-.06.14-.11.28-.11H61c.14,0,.25,0,.25.11L61,66.92c0,.06-.13.11-.28.11Z"/><path class="cls-9" d="M52.13,67c-.15,0-.26,0-.24-.11l.42-1.64c0-.06.15-.11.29-.11h3.65c.15,0,.25,0,.24.11l-.3,1.64c0,.06-.14.11-.29.11Z"/><path class="cls-9" d="M47.28,67c-.15,0-.25,0-.23-.11l.55-1.64a.37.37,0,0,1,.3-.11h3.66c.14,0,.24,0,.23.11l-.44,1.64c0,.06-.15.11-.3.11Z"/><path class="cls-9" d="M42.43,67c-.15,0-.25,0-.22-.11l.69-1.64a.38.38,0,0,1,.31-.11h3.65c.14,0,.24,0,.22.11l-.57,1.64c0,.06-.16.11-.31.11Z"/><path class="cls-9" d="M37.58,67c-.14,0-.24,0-.21-.11l.82-1.64a.43.43,0,0,1,.32-.11h3.65c.15,0,.24,0,.22.11l-.71,1.64c0,.06-.17.11-.32.11Z"/><path class="cls-9" d="M95.76,67a.4.4,0,0,1-.32-.11l-.79-1.64c0-.06.07-.11.21-.11h8.35a.46.46,0,0,1,.33.11l1,1.64c.05.06,0,.11-.19.11Z"/><path class="cls-9" d="M27.87,75.44c-.17,0-.28,0-.24-.11l1-1.64a.49.49,0,0,1,.36-.12h5.53c.17,0,.28.06.25.12l-.81,1.64c0,.06-.19.11-.36.11Z"/><path class="cls-9" d="M34.79,75.44c-.17,0-.28,0-.25-.11l.78-1.64a.49.49,0,0,1,.36-.12h5.53c.17,0,.28.06.25.12l-.63,1.64c0,.06-.18.11-.35.11Z"/><path class="cls-9" d="M41.71,75.44c-.17,0-.29,0-.27-.11l.62-1.64a.44.44,0,0,1,.35-.12h5.53c.16,0,.28.06.26.12l-.47,1.64c0,.06-.17.11-.34.11Z"/><path class="cls-9" d="M83.21,75.44c-.17,0-.32,0-.33-.11l-.38-1.64c0-.06.1-.12.27-.12H88.3c.16,0,.32.06.34.12l.53,1.64c0,.06-.1.11-.27.11Z"/><path class="cls-9" d="M90.13,75.44c-.17,0-.33,0-.35-.11l-.54-1.64c0-.06.09-.12.26-.12H95a.46.46,0,0,1,.35.12l.69,1.64c0,.06-.08.11-.25.11Z"/><path class="cls-9" d="M97.05,75.44c-.17,0-.33,0-.36-.11L96,73.69c0-.06.09-.12.25-.12h5.53a.47.47,0,0,1,.36.12l.87,1.64c0,.06-.08.11-.25.11Z"/><path class="cls-9" d="M104,75.44a.54.54,0,0,1-.37-.11l-.88-1.64c0-.06.07-.12.24-.12h5.53a.52.52,0,0,1,.37.12l1,1.64c0,.06-.07.11-.24.11Z"/><path class="cls-9" d="M48.62,75.44c-.17,0-.29,0-.27-.11l.45-1.64c0-.06.17-.12.33-.12H81.57c.17,0,.31.06.33.12l.36,1.64c0,.06-.11.11-.28.11Z"/><path class="cls-9" d="M89.24,69.14a.4.4,0,0,1-.32-.12l-.58-1.64c0-.06.08-.11.23-.11h3.79a.4.4,0,0,1,.32.11l.7,1.64c0,.06-.08.12-.23.12Z"/><path class="cls-9" d="M94.26,69.14a.43.43,0,0,1-.33-.12l-.71-1.64c0-.06.07-.11.22-.11h3.78c.15,0,.3,0,.33.11L98.39,69c0,.06-.07.12-.22.12Z"/><path class="cls-9" d="M84.22,69.14c-.15,0-.29-.06-.31-.12l-.44-1.64c0-.06.09-.11.24-.11h3.78c.15,0,.29,0,.31.11L88.37,69c0,.06-.09.12-.24.12Z"/><path class="cls-9" d="M79.21,69.14c-.16,0-.29-.06-.31-.12l-.31-1.64c0-.06.1-.11.25-.11h3.78c.15,0,.29,0,.3.11L83.36,69c0,.06-.1.12-.25.12Z"/><path class="cls-9" d="M74.19,69.14c-.16,0-.29-.06-.3-.12l-.18-1.64c0-.06.11-.11.26-.11h3.79c.15,0,.28,0,.29.11l.3,1.64c0,.06-.11.12-.26.12Z"/><path class="cls-9" d="M69.17,69.14c-.16,0-.28-.06-.29-.12l0-1.64c0-.06.11-.11.26-.11h3.79c.15,0,.28,0,.28.11L73.34,69c0,.06-.12.12-.27.12Z"/><path class="cls-9" d="M64.15,69.14c-.16,0-.28-.06-.28-.12L64,67.38c0-.06.13-.11.28-.11H68c.15,0,.27,0,.28.11l0,1.64c0,.06-.13.12-.28.12Z"/><path class="cls-9" d="M59.13,69.14c-.16,0-.27-.06-.27-.12l.22-1.64c0-.06.14-.11.29-.11h3.79c.14,0,.26,0,.26.11L63.32,69c0,.06-.13.12-.29.12Z"/><path class="cls-9" d="M54.11,69.14c-.16,0-.27-.06-.26-.12l.36-1.64c0-.06.14-.11.29-.11h3.79c.15,0,.26,0,.25.11L58.31,69c0,.06-.14.12-.3.12Z"/><path class="cls-9" d="M49.09,69.14c-.16,0-.27-.06-.25-.12l.49-1.64c0-.06.16-.11.31-.11h3.78c.15,0,.26,0,.25.11L53.3,69c0,.06-.15.12-.31.12Z"/><path class="cls-9" d="M44.07,69.14c-.16,0-.26-.06-.24-.12l.62-1.64a.4.4,0,0,1,.32-.11h3.78c.15,0,.26,0,.24.11L48.29,69c0,.06-.16.12-.32.12Z"/><path class="cls-9" d="M39.05,69.14c-.15,0-.26-.06-.23-.12l.76-1.64a.4.4,0,0,1,.32-.11h3.79c.15,0,.25,0,.22.11L43.28,69a.41.41,0,0,1-.33.12Z"/><path class="cls-9" d="M99.28,69.14a.47.47,0,0,1-.34-.12l-.84-1.64c0-.06.06-.11.21-.11h6.22a.49.49,0,0,1,.34.11l1,1.64c0,.06-.05.12-.2.12Z"/><path class="cls-9" d="M31.52,69.14c-.15,0-.25-.06-.21-.12l.95-1.64a.47.47,0,0,1,.34-.11h6.22c.15,0,.25,0,.22.11L38.27,69a.43.43,0,0,1-.34.12Z"/><path class="cls-9" d="M91.3,71.24c-.16,0-.31,0-.33-.12l-.62-1.63c0-.07.08-.12.24-.12h3.92c.15,0,.3,0,.33.12l.73,1.63c0,.07-.08.12-.23.12Z"/><path class="cls-9" d="M86.11,71.24c-.16,0-.31,0-.33-.12l-.48-1.63c0-.07.1-.12.25-.12h3.92c.15,0,.3,0,.32.12l.6,1.63c0,.07-.09.12-.25.12Z"/><path class="cls-9" d="M80.92,71.24c-.16,0-.3,0-.32-.12l-.34-1.63c0-.07.1-.12.25-.12h3.92c.15,0,.29,0,.31.12l.47,1.63c0,.07-.1.12-.26.12Z"/><path class="cls-9" d="M75.73,71.24c-.16,0-.3,0-.31-.12l-.21-1.63c0-.07.11-.12.26-.12h3.92c.16,0,.29,0,.3.12L80,71.12c0,.07-.11.12-.27.12Z"/><path class="cls-9" d="M70.53,71.24c-.15,0-.29,0-.29-.12l-.08-1.63c0-.07.12-.12.27-.12h3.92c.16,0,.29,0,.3.12l.2,1.63c0,.07-.12.12-.28.12Z"/><path class="cls-9" d="M65.34,71.24c-.16,0-.28,0-.28-.12l0-1.63c0-.07.13-.12.29-.12h3.91c.16,0,.29,0,.29.12l.06,1.63c0,.07-.12.12-.28.12Z"/><path class="cls-9" d="M60.15,71.24c-.16,0-.28,0-.27-.12l.18-1.63c0-.07.14-.12.3-.12h3.92c.15,0,.27,0,.27.12l-.07,1.63c0,.07-.13.12-.29.12Z"/><path class="cls-9" d="M55,71.24c-.16,0-.28,0-.26-.12L55,69.49c0-.07.14-.12.3-.12h3.92c.15,0,.27,0,.26.12l-.2,1.63c0,.07-.14.12-.3.12Z"/><path class="cls-9" d="M49.77,71.24c-.16,0-.27,0-.26-.12L50,69.49c0-.07.16-.12.31-.12H54.2c.15,0,.27,0,.25.12l-.33,1.63c0,.07-.15.12-.31.12Z"/><path class="cls-9" d="M44.58,71.24c-.16,0-.27,0-.25-.12l.59-1.63c0-.07.17-.12.32-.12h3.92c.15,0,.26,0,.25.12l-.47,1.63c0,.07-.16.12-.32.12Z"/><path class="cls-9" d="M39.39,71.24c-.16,0-.27,0-.24-.12l.72-1.63c0-.07.18-.12.33-.12h3.92c.16,0,.26,0,.24.12l-.6,1.63c0,.07-.18.12-.33.12Z"/><path class="cls-9" d="M96.49,71.24c-.16,0-.31,0-.34-.12l-.75-1.63c0-.07.07-.12.23-.12h10.21a.47.47,0,0,1,.36.12l1,1.63c0,.07-.06.12-.21.12Z"/><path class="cls-9" d="M30.3,71.24c-.16,0-.25,0-.22-.12l1-1.63c0-.07.19-.12.34-.12h7.7c.16,0,.26,0,.23.12l-.73,1.63c0,.07-.19.12-.35.12Z"/><path class="cls-9" d="M89.42,73.34c-.17,0-.32,0-.34-.12l-.55-1.63c0-.07.09-.12.25-.12h4c.16,0,.32,0,.34.12l.67,1.63c0,.07-.09.12-.25.12Z"/><path class="cls-9" d="M84.05,73.34c-.16,0-.31,0-.32-.12l-.42-1.63c0-.07.1-.12.26-.12h4.05c.16,0,.31,0,.33.12l.53,1.63c0,.07-.09.12-.26.12Z"/><path class="cls-9" d="M78.69,73.34c-.16,0-.31,0-.32-.12l-.28-1.63c0-.07.11-.12.27-.12h4c.16,0,.31,0,.32.12l.4,1.63c0,.07-.1.12-.27.12Z"/><path class="cls-9" d="M73.33,73.34c-.17,0-.3,0-.31-.12l-.15-1.63c0-.07.12-.12.28-.12h4c.16,0,.3,0,.31.12l.27,1.63c0,.07-.12.12-.28.12Z"/><path class="cls-9" d="M68,73.34c-.17,0-.3,0-.3-.12l0-1.63c0-.07.13-.12.29-.12h4c.16,0,.3,0,.3.12l.14,1.63c0,.07-.13.12-.29.12Z"/><path class="cls-9" d="M62.6,73.34c-.16,0-.29,0-.29-.12l.12-1.63c0-.07.14-.12.3-.12h4.05c.16,0,.29,0,.29.12v1.63c0,.07-.13.12-.3.12Z"/><path class="cls-9" d="M57.24,73.34c-.16,0-.29,0-.28-.12l.25-1.63c0-.07.15-.12.31-.12h4c.16,0,.29,0,.28.12l-.13,1.63c0,.07-.14.12-.31.12Z"/><path class="cls-9" d="M51.88,73.34c-.17,0-.29,0-.27-.12L52,71.59c0-.07.16-.12.32-.12h4c.16,0,.28,0,.27.12l-.26,1.63c0,.07-.16.12-.32.12Z"/><path class="cls-9" d="M46.52,73.34c-.17,0-.29,0-.27-.12l.52-1.63c0-.07.17-.12.33-.12h4c.16,0,.28,0,.26.12L51,73.22c0,.07-.16.12-.32.12Z"/><path class="cls-9" d="M41.15,73.34c-.16,0-.27,0-.25-.12l.66-1.63c0-.07.17-.12.33-.12h4c.16,0,.28,0,.25.12l-.53,1.63c0,.07-.17.12-.34.12Z"/><path class="cls-9" d="M94.78,73.34c-.17,0-.32,0-.35-.12l-.68-1.63c0-.07.08-.12.24-.12h13.17a.51.51,0,0,1,.37.12l1,1.63c0,.07-.06.12-.23.12Z"/><path class="cls-9" d="M29.09,73.34c-.17,0-.27,0-.23-.12l.95-1.63a.47.47,0,0,1,.36-.12H40.73c.16,0,.27,0,.25.12l-.67,1.63c0,.07-.18.12-.35.12Z"/><path class="cls-10" d="M82.18,76.62a.34.34,0,0,0-.34-.29H55.68a.36.36,0,0,0-.35.29l-.66,4.3a.35.35,0,0,0,.34.4H82.5a.35.35,0,0,0,.35-.4Z"/><rect class="cls-2" x="25.2" y="11.26" width="87.12" height="5.43"/><rect class="cls-4" x="67.72" y="-11.79" width="2.07" height="53.83" transform="translate(83.88 -53.64) rotate(90)"/><rect class="cls-1" x="75.4" y="-24.07" width="3.89" height="70.99" transform="translate(88.77 -65.92) rotate(90)"/></g></svg>