<svg id="Layer_1" data-name="Layer 1" xmlns="http://www.w3.org/2000/svg" viewBox="0 0 128.64 85.26"><defs><style>.cls-1{fill:#414042;}.cls-2{fill:#d1d3d4;}.cls-3{fill:#f1f2f2;}.cls-4{fill:#feffff;}.cls-5{fill:#2768b2;}.cls-6{fill:#e0e1e2;}.cls-7{fill:#bcbec0;}.cls-8{fill:#231f20;}.cls-9{fill:#323233;}.cls-10{fill:#999;}</style></defs><title>ManagementStation_Source</title><path class="cls-1" d="M109.94,4.19H18.3A1.32,1.32,0,0,0,17,5.51V60.85h94.29V5.51A1.32,1.32,0,0,0,109.94,4.19Zm-2.26,50.27H20.56V7.77h87.12Z"/><polygon class="cls-2" points="111.27 60.85 16.98 60.85 4.76 78.75 123.48 78.75 111.27 60.85"/><rect class="cls-3" x="20.56" y="7.77" width="87.12" height="46.69"/><rect class="cls-4" x="34.71" y="20.66" width="58.74" height="33.8"/><polygon class="cls-5" points="34.71 20.66 34.71 37 42.33 37 42.33 27.2 46.69 27.2 46.69 37 54.32 37 54.32 20.66 34.71 20.66"/><rect class="cls-6" x="54.32" y="20.66" width="39.22" height="16.34"/><path class="cls-7" d="M64.12,78.75H4.76V80a1.32,1.32,0,0,0,1.33,1.32H122.16A1.32,1.32,0,0,0,123.48,80V78.75Z"/><path class="cls-8" d="M28.1,63.75c-.15,0-.24-.06-.2-.12l1-1.64a.46.46,0,0,1,.33-.11h3.65c.15,0,.24,0,.2.11l-.83,1.64a.43.43,0,0,1-.33.12Z"/><path class="cls-8" d="M86.28,63.75a.4.4,0,0,1-.32-.12L85.31,62c0-.06.07-.11.22-.11h3.65a.43.43,0,0,1,.32.11l.76,1.64c0,.06-.06.12-.21.12Z"/><path class="cls-8" d="M81.43,63.75c-.15,0-.29-.06-.31-.12L80.61,62c0-.06.08-.11.22-.11h3.65c.15,0,.29,0,.31.11l.63,1.64c0,.06-.07.12-.22.12Z"/><path class="cls-8" d="M76.58,63.75c-.15,0-.28-.06-.3-.12L75.9,62c0-.06.09-.11.24-.11h3.65c.14,0,.28,0,.29.11l.5,1.64c0,.06-.08.12-.23.12Z"/><path class="cls-8" d="M71.73,63.75c-.15,0-.28-.06-.29-.12L71.2,62c0-.06.1-.11.24-.11h3.65c.15,0,.28,0,.29.11l.37,1.64c0,.06-.1.12-.25.12Z"/><path class="cls-8" d="M66.88,63.75c-.14,0-.27-.06-.27-.12L66.49,62c0-.06.11-.11.26-.11H70.4c.14,0,.27,0,.27.11l.24,1.64c0,.06-.11.12-.26.12Z"/><path class="cls-8" d="M62,63.75c-.15,0-.27-.06-.27-.12l0-1.64c0-.06.12-.11.26-.11H65.7c.15,0,.27,0,.27.11l.1,1.64c0,.06-.12.12-.26.12Z"/><path class="cls-8" d="M57.19,63.75c-.15,0-.27-.06-.26-.12L57.08,62c0-.06.13-.11.27-.11H61c.14,0,.26,0,.25.11l0,1.64c0,.06-.12.12-.27.12Z"/><path class="cls-8" d="M52.34,63.75c-.15,0-.26-.06-.25-.12L52.38,62c0-.06.13-.11.28-.11h3.65c.14,0,.26,0,.25.11l-.17,1.64c0,.06-.13.12-.28.12Z"/><path class="cls-8" d="M47.49,63.75c-.15,0-.25-.06-.24-.12L47.67,62c0-.06.15-.11.29-.11h3.65c.15,0,.26,0,.24.11l-.3,1.64c0,.06-.14.12-.29.12Z"/><path class="cls-8" d="M42.64,63.75c-.14,0-.25-.06-.23-.12L43,62c0-.06.15-.11.3-.11h3.65c.14,0,.25,0,.23.11l-.44,1.64c0,.06-.15.12-.3.12Z"/><path class="cls-8" d="M37.8,63.75c-.15,0-.25-.06-.22-.12L38.26,62a.39.39,0,0,1,.31-.11h3.65c.15,0,.25,0,.22.11l-.56,1.64a.39.39,0,0,1-.31.12Z"/><path class="cls-8" d="M33,63.75c-.15,0-.25-.06-.21-.12L33.56,62a.4.4,0,0,1,.32-.11h3.65c.14,0,.24,0,.21.11L37,63.63a.4.4,0,0,1-.32.12Z"/><path class="cls-8" d="M91.12,63.75a.42.42,0,0,1-.32-.12L90,62c0-.06.06-.11.2-.11h8.35a.51.51,0,0,1,.34.11l1,1.64c0,.06,0,.12-.2.12Z"/><path class="cls-8" d="M23.23,72.15c-.16,0-.27-.05-.23-.11L24,70.4a.52.52,0,0,1,.37-.12h5.53c.16,0,.27.06.24.12L29.29,72c0,.06-.2.11-.37.11Z"/><path class="cls-8" d="M30.15,72.15c-.17,0-.28-.05-.25-.11l.79-1.64a.46.46,0,0,1,.35-.12h5.53c.17,0,.28.06.26.12L36.19,72c0,.06-.18.11-.35.11Z"/><path class="cls-8" d="M37.07,72.15c-.17,0-.29-.05-.26-.11l.62-1.64c0-.06.17-.12.34-.12H43.3c.17,0,.28.06.27.12L43.1,72c0,.06-.17.11-.34.11Z"/><path class="cls-8" d="M78.58,72.15c-.17,0-.32-.05-.34-.11l-.38-1.64c0-.06.11-.12.27-.12h5.53c.17,0,.32.06.34.12L84.53,72c0,.06-.1.11-.27.11Z"/><path class="cls-8" d="M85.49,72.15c-.17,0-.32-.05-.34-.11L84.6,70.4c0-.06.09-.12.26-.12h5.53a.46.46,0,0,1,.35.12l.7,1.64c0,.06-.09.11-.26.11Z"/><path class="cls-8" d="M92.41,72.15c-.17,0-.33-.05-.36-.11l-.71-1.64c0-.06.08-.12.25-.12h5.53a.51.51,0,0,1,.36.12L98.34,72c0,.06-.07.11-.24.11Z"/><path class="cls-8" d="M99.33,72.15c-.17,0-.34-.05-.37-.11l-.88-1.64c0-.06.07-.12.23-.12h5.53a.55.55,0,0,1,.38.12l1,1.64c0,.06-.06.11-.23.11Z"/><path class="cls-8" d="M44,72.15c-.17,0-.3-.05-.28-.11l.46-1.64c0-.06.16-.12.33-.12H76.94c.16,0,.31.06.32.12L77.63,72c0,.06-.11.11-.28.11Z"/><path class="cls-8" d="M84.61,65.85c-.16,0-.3-.06-.32-.12l-.58-1.63c0-.07.08-.12.23-.12h3.78c.15,0,.29.05.32.12l.7,1.63c0,.06-.07.12-.23.12Z"/><path class="cls-8" d="M89.63,65.85a.41.41,0,0,1-.33-.12l-.72-1.63c0-.07.07-.12.22-.12h3.79c.15,0,.3.05.33.12l.83,1.63c0,.06-.06.12-.22.12Z"/><path class="cls-8" d="M79.59,65.85c-.16,0-.29-.06-.31-.12l-.45-1.63c0-.07.09-.12.24-.12h3.78c.15,0,.29.05.32.12l.56,1.63c0,.06-.08.12-.24.12Z"/><path class="cls-8" d="M74.57,65.85c-.15,0-.29-.06-.3-.12L74,64.1c0-.07.1-.12.25-.12H78c.15,0,.28.05.3.12l.43,1.63c0,.06-.09.12-.25.12Z"/><path class="cls-8" d="M69.55,65.85c-.15,0-.29-.06-.29-.12l-.18-1.63c0-.07.11-.12.25-.12h3.79c.15,0,.28.05.29.12l.3,1.63c0,.06-.1.12-.26.12Z"/><path class="cls-8" d="M64.53,65.85c-.15,0-.28-.06-.28-.12l0-1.63c0-.07.12-.12.27-.12h3.78c.15,0,.28.05.29.12l.16,1.63c0,.06-.11.12-.27.12Z"/><path class="cls-8" d="M59.51,65.85c-.15,0-.28-.06-.27-.12l.08-1.63c0-.07.13-.12.28-.12h3.79c.15,0,.27.05.27.12l0,1.63c0,.06-.12.12-.28.12Z"/><path class="cls-8" d="M54.49,65.85c-.15,0-.27-.06-.26-.12l.22-1.63c0-.07.13-.12.28-.12h3.79c.15,0,.27.05.26.12l-.1,1.63c0,.06-.13.12-.29.12Z"/><path class="cls-8" d="M49.47,65.85c-.15,0-.27-.06-.25-.12l.35-1.63c0-.07.15-.12.3-.12h3.78c.15,0,.26.05.26.12l-.24,1.63c0,.06-.14.12-.29.12Z"/><path class="cls-8" d="M44.45,65.85c-.15,0-.26-.06-.24-.12l.48-1.63c0-.07.16-.12.31-.12h3.78c.15,0,.26.05.25.12l-.37,1.63c0,.06-.15.12-.3.12Z"/><path class="cls-8" d="M39.43,65.85c-.15,0-.26-.06-.23-.12l.62-1.63c0-.07.16-.12.31-.12h3.79c.15,0,.25.05.23.12l-.5,1.63c0,.06-.16.12-.31.12Z"/><path class="cls-8" d="M34.41,65.85c-.15,0-.25-.06-.22-.12l.75-1.63c0-.07.18-.12.32-.12h3.79c.15,0,.25.05.23.12l-.64,1.63c0,.06-.17.12-.32.12Z"/><path class="cls-8" d="M94.65,65.85a.43.43,0,0,1-.34-.12l-.85-1.63c0-.07.06-.12.21-.12h6.22a.43.43,0,0,1,.34.12l1,1.63c0,.06-.06.12-.21.12Z"/><path class="cls-8" d="M26.88,65.85c-.15,0-.25-.06-.21-.12l1-1.63c0-.07.19-.12.33-.12h6.22c.15,0,.25.05.22.12l-.77,1.63a.43.43,0,0,1-.33.12Z"/><path class="cls-8" d="M86.66,68c-.16,0-.31,0-.33-.12l-.61-1.63c0-.07.08-.12.23-.12h3.92c.15,0,.3,0,.33.12l.74,1.63c0,.07-.08.12-.24.12Z"/><path class="cls-8" d="M81.47,68c-.16,0-.3,0-.32-.12l-.48-1.63c0-.07.09-.12.24-.12h3.92c.16,0,.3,0,.32.12l.6,1.63c0,.07-.08.12-.24.12Z"/><path class="cls-8" d="M76.28,68c-.16,0-.3,0-.31-.12l-.35-1.63c0-.07.1-.12.25-.12h3.92c.16,0,.3,0,.32.12l.46,1.63c0,.07-.09.12-.25.12Z"/><path class="cls-8" d="M71.09,68c-.16,0-.3,0-.3-.12l-.22-1.63c0-.07.11-.12.27-.12h3.91c.16,0,.3,0,.31.12l.33,1.63c0,.07-.1.12-.26.12Z"/><path class="cls-8" d="M65.9,68c-.16,0-.29,0-.3-.12l-.08-1.63c0-.07.12-.12.28-.12h3.92c.15,0,.28,0,.29.12l.2,1.63c0,.07-.12.12-.27.12Z"/><path class="cls-8" d="M60.71,68c-.16,0-.29,0-.29-.12l0-1.63c0-.07.13-.12.29-.12h3.92c.15,0,.28,0,.28.12L65,67.83c0,.07-.13.12-.29.12Z"/><path class="cls-8" d="M55.52,68c-.16,0-.29,0-.28-.12l.19-1.63c0-.07.14-.12.29-.12h3.92c.15,0,.28,0,.27.12l-.06,1.63c0,.07-.14.12-.3.12Z"/><path class="cls-8" d="M50.32,68c-.15,0-.27,0-.26-.12l.32-1.63c0-.07.15-.12.3-.12H54.6c.15,0,.27,0,.27.12l-.21,1.63c0,.07-.14.12-.3.12Z"/><path class="cls-8" d="M45.13,68c-.16,0-.27,0-.25-.12l.45-1.63c0-.07.16-.12.31-.12h3.92c.16,0,.27,0,.26.12l-.34,1.63c0,.07-.15.12-.31.12Z"/><path class="cls-8" d="M39.94,68c-.16,0-.27,0-.24-.12l.58-1.63c0-.07.17-.12.32-.12h3.92c.16,0,.27,0,.25.12l-.47,1.63c0,.07-.16.12-.32.12Z"/><path class="cls-8" d="M34.75,68c-.16,0-.26,0-.24-.12l.72-1.63c0-.07.18-.12.34-.12h3.91c.16,0,.27,0,.24.12l-.6,1.63c0,.07-.17.12-.33.12Z"/><path class="cls-8" d="M91.85,68c-.16,0-.31,0-.34-.12l-.75-1.63c0-.07.08-.12.23-.12h10.22a.46.46,0,0,1,.35.12l1,1.63c0,.07,0,.12-.21.12Z"/><path class="cls-8" d="M25.67,68c-.16,0-.26,0-.22-.12l.95-1.63a.44.44,0,0,1,.35-.12h7.7c.15,0,.25,0,.22.12l-.73,1.63c0,.07-.18.12-.34.12Z"/><path class="cls-8" d="M84.78,70.05c-.16,0-.32,0-.34-.12L83.9,68.3c0-.06.09-.12.25-.12h4c.16,0,.31.06.33.12l.67,1.63c0,.07-.09.12-.25.12Z"/><path class="cls-8" d="M79.42,70.05c-.17,0-.31,0-.33-.12l-.41-1.63c0-.06.1-.12.26-.12h4a.41.41,0,0,1,.33.12l.53,1.63c0,.07-.1.12-.26.12Z"/><path class="cls-8" d="M74.05,70.05c-.16,0-.3,0-.31-.12l-.28-1.63c0-.06.11-.12.27-.12h4c.16,0,.3.06.32.12l.39,1.63c0,.07-.1.12-.26.12Z"/><path class="cls-8" d="M68.69,70.05c-.16,0-.3,0-.31-.12l-.14-1.63c0-.06.12-.12.28-.12h4c.16,0,.3.06.31.12l.26,1.63c0,.07-.11.12-.28.12Z"/><path class="cls-8" d="M63.33,70.05c-.16,0-.3,0-.3-.12V68.3c0-.06.13-.12.29-.12h4c.16,0,.29.06.3.12l.13,1.63c0,.07-.13.12-.29.12Z"/><path class="cls-8" d="M58,70.05c-.17,0-.3,0-.29-.12l.12-1.63c0-.06.14-.12.3-.12h4c.16,0,.29.06.29.12v1.63c0,.07-.14.12-.3.12Z"/><path class="cls-8" d="M52.6,70.05c-.16,0-.29,0-.28-.12l.26-1.63c0-.06.15-.12.31-.12h4c.16,0,.28.06.28.12l-.14,1.63c0,.07-.14.12-.3.12Z"/><path class="cls-8" d="M47.24,70.05c-.16,0-.28,0-.27-.12l.39-1.63c0-.06.16-.12.31-.12h4.06c.16,0,.28.06.27.12l-.27,1.63c0,.07-.15.12-.32.12Z"/><path class="cls-8" d="M41.88,70.05c-.17,0-.28,0-.26-.12l.52-1.63c0-.06.17-.12.32-.12h4.06c.16,0,.27.06.26.12l-.4,1.63c0,.07-.17.12-.33.12Z"/><path class="cls-8" d="M36.52,70.05c-.17,0-.28,0-.25-.12l.65-1.63c0-.06.18-.12.33-.12h4.06c.16,0,.27.06.25.12L41,69.93c0,.07-.17.12-.33.12Z"/><path class="cls-8" d="M90.14,70.05c-.16,0-.32,0-.34-.12l-.69-1.63c0-.06.09-.12.25-.12h13.17a.51.51,0,0,1,.36.12l1,1.63c0,.07-.06.12-.22.12Z"/><path class="cls-8" d="M24.45,70.05c-.16,0-.27,0-.23-.12l1-1.63a.51.51,0,0,1,.36-.12H36.1c.16,0,.26.06.24.12l-.67,1.63c0,.07-.18.12-.35.12Z"/><path class="cls-9" d="M28.1,63.54c-.15,0-.24,0-.2-.11l1-1.64a.46.46,0,0,1,.33-.12h3.65c.15,0,.24.06.2.12l-.83,1.64c0,.06-.18.11-.33.11Z"/><path class="cls-9" d="M86.28,63.54a.4.4,0,0,1-.32-.11l-.65-1.64c0-.06.07-.12.22-.12h3.65a.43.43,0,0,1,.32.12l.76,1.64c0,.06-.06.11-.21.11Z"/><path class="cls-9" d="M81.43,63.54c-.15,0-.29,0-.31-.11l-.51-1.64c0-.06.08-.12.22-.12h3.65c.15,0,.29.06.31.12l.63,1.64c0,.06-.07.11-.22.11Z"/><path class="cls-9" d="M76.58,63.54c-.15,0-.28,0-.3-.11l-.38-1.64c0-.06.09-.12.24-.12h3.65c.14,0,.28.06.29.12l.5,1.64c0,.06-.08.11-.23.11Z"/><path class="cls-9" d="M71.73,63.54c-.15,0-.28,0-.29-.11l-.24-1.64c0-.06.1-.12.24-.12h3.65c.15,0,.28.06.29.12l.37,1.64c0,.06-.1.11-.25.11Z"/><path class="cls-9" d="M66.88,63.54c-.14,0-.27,0-.27-.11l-.12-1.64c0-.06.11-.12.26-.12H70.4c.14,0,.27.06.27.12l.24,1.64c0,.06-.11.11-.26.11Z"/><path class="cls-9" d="M62,63.54c-.15,0-.27,0-.27-.11l0-1.64c0-.06.12-.12.26-.12H65.7c.15,0,.27.06.27.12l.1,1.64c0,.06-.12.11-.26.11Z"/><path class="cls-9" d="M57.19,63.54c-.15,0-.27,0-.26-.11l.15-1.64c0-.06.13-.12.27-.12H61c.14,0,.26.06.25.12l0,1.64c0,.06-.12.11-.27.11Z"/><path class="cls-9" d="M52.34,63.54c-.15,0-.26,0-.25-.11l.29-1.64c0-.06.13-.12.28-.12h3.65c.14,0,.26.06.25.12l-.17,1.64c0,.06-.13.11-.28.11Z"/><path class="cls-9" d="M47.49,63.54c-.15,0-.25,0-.24-.11l.42-1.64c0-.06.15-.12.29-.12h3.65c.15,0,.26.06.24.12l-.3,1.64c0,.06-.14.11-.29.11Z"/><path class="cls-9" d="M42.64,63.54c-.14,0-.25,0-.23-.11L43,61.79c0-.06.15-.12.3-.12h3.65c.14,0,.25.06.23.12l-.44,1.64c0,.06-.15.11-.3.11Z"/><path class="cls-9" d="M37.8,63.54c-.15,0-.25,0-.22-.11l.68-1.64a.39.39,0,0,1,.31-.12h3.65c.15,0,.25.06.22.12l-.56,1.64a.39.39,0,0,1-.31.11Z"/><path class="cls-9" d="M33,63.54c-.15,0-.25,0-.21-.11l.82-1.64a.4.4,0,0,1,.32-.12h3.65c.14,0,.24.06.21.12L37,63.43a.4.4,0,0,1-.32.11Z"/><path class="cls-9" d="M91.12,63.54c-.14,0-.29,0-.32-.11L90,61.79c0-.06.06-.12.2-.12h8.35a.51.51,0,0,1,.34.12l1,1.64c0,.06,0,.11-.2.11Z"/><path class="cls-9" d="M23.23,72c-.16,0-.27,0-.23-.12L24,70.2a.48.48,0,0,1,.37-.12h5.53c.16,0,.27,0,.24.12l-.8,1.63c0,.07-.2.12-.37.12Z"/><path class="cls-9" d="M30.15,72c-.17,0-.28,0-.25-.12l.79-1.63c0-.07.19-.12.35-.12h5.53c.17,0,.28,0,.26.12l-.64,1.63c0,.07-.18.12-.35.12Z"/><path class="cls-9" d="M37.07,72c-.17,0-.29,0-.26-.12l.62-1.63c0-.07.17-.12.34-.12H43.3c.17,0,.28,0,.27.12l-.47,1.63c0,.07-.17.12-.34.12Z"/><path class="cls-9" d="M78.58,72c-.17,0-.32,0-.34-.12l-.38-1.63c0-.07.11-.12.27-.12h5.53c.17,0,.32,0,.34.12l.53,1.63c0,.07-.1.12-.27.12Z"/><path class="cls-9" d="M85.49,72c-.17,0-.32,0-.34-.12L84.6,70.2c0-.07.09-.12.26-.12h5.53c.16,0,.32,0,.35.12l.7,1.63c0,.07-.09.12-.26.12Z"/><path class="cls-9" d="M92.41,72c-.17,0-.33,0-.36-.12l-.71-1.63c0-.07.08-.12.25-.12h5.53a.47.47,0,0,1,.36.12l.86,1.63c0,.07-.07.12-.24.12Z"/><path class="cls-9" d="M99.33,72c-.17,0-.34,0-.37-.12l-.88-1.63c0-.07.07-.12.23-.12h5.53a.5.5,0,0,1,.38.12l1,1.63c0,.07-.06.12-.23.12Z"/><path class="cls-9" d="M44,72c-.17,0-.3,0-.28-.12l.46-1.63c0-.07.16-.12.33-.12H76.94c.16,0,.31,0,.32.12l.37,1.63c0,.07-.11.12-.28.12Z"/><path class="cls-9" d="M84.61,65.64c-.16,0-.3,0-.32-.11l-.58-1.64c0-.06.08-.11.23-.11h3.78a.4.4,0,0,1,.32.11l.7,1.64c0,.06-.07.11-.23.11Z"/><path class="cls-9" d="M89.63,65.64a.41.41,0,0,1-.33-.11l-.72-1.64c0-.06.07-.11.22-.11h3.79c.15,0,.3,0,.33.11l.83,1.64c0,.06-.06.11-.22.11Z"/><path class="cls-9" d="M79.59,65.64c-.16,0-.29,0-.31-.11l-.45-1.64c0-.06.09-.11.24-.11h3.78a.4.4,0,0,1,.32.11l.56,1.64c0,.06-.08.11-.24.11Z"/><path class="cls-9" d="M74.57,65.64c-.15,0-.29,0-.3-.11L74,63.89c0-.06.1-.11.25-.11H78c.15,0,.28,0,.3.11l.43,1.64c0,.06-.09.11-.25.11Z"/><path class="cls-9" d="M69.55,65.64c-.15,0-.29,0-.29-.11l-.18-1.64c0-.06.11-.11.25-.11h3.79c.15,0,.28,0,.29.11l.3,1.64c0,.06-.1.11-.26.11Z"/><path class="cls-9" d="M64.53,65.64c-.15,0-.28,0-.28-.11l0-1.64c0-.06.12-.11.27-.11h3.78c.15,0,.28,0,.29.11l.16,1.64c0,.06-.11.11-.27.11Z"/><path class="cls-9" d="M59.51,65.64c-.15,0-.28,0-.27-.11l.08-1.64c0-.06.13-.11.28-.11h3.79c.15,0,.27,0,.27.11l0,1.64c0,.06-.12.11-.28.11Z"/><path class="cls-9" d="M54.49,65.64c-.15,0-.27,0-.26-.11l.22-1.64c0-.06.13-.11.28-.11h3.79c.15,0,.27,0,.26.11l-.1,1.64c0,.06-.13.11-.29.11Z"/><path class="cls-9" d="M49.47,65.64c-.15,0-.27,0-.25-.11l.35-1.64c0-.06.15-.11.3-.11h3.78c.15,0,.26,0,.26.11l-.24,1.64c0,.06-.14.11-.29.11Z"/><path class="cls-9" d="M44.45,65.64c-.15,0-.26,0-.24-.11l.48-1.64c0-.06.16-.11.31-.11h3.78c.15,0,.26,0,.25.11l-.37,1.64c0,.06-.15.11-.3.11Z"/><path class="cls-9" d="M39.43,65.64c-.15,0-.26,0-.23-.11l.62-1.64c0-.06.16-.11.31-.11h3.79c.15,0,.25,0,.23.11l-.5,1.64c0,.06-.16.11-.31.11Z"/><path class="cls-9" d="M34.41,65.64c-.15,0-.25,0-.22-.11l.75-1.64c0-.06.18-.11.32-.11h3.79c.15,0,.25,0,.23.11l-.64,1.64c0,.06-.17.11-.32.11Z"/><path class="cls-9" d="M94.65,65.64c-.16,0-.31,0-.34-.11l-.85-1.64c0-.06.06-.11.21-.11h6.22a.47.47,0,0,1,.34.11l1,1.64c0,.06-.06.11-.21.11Z"/><path class="cls-9" d="M26.88,65.64c-.15,0-.25,0-.21-.11l1-1.64c0-.06.19-.11.33-.11h6.22c.15,0,.25,0,.22.11l-.77,1.64c0,.06-.18.11-.33.11Z"/><path class="cls-9" d="M86.66,67.75c-.16,0-.31-.06-.33-.12L85.72,66c0-.06.08-.11.23-.11h3.92c.15,0,.3.05.33.11l.74,1.64c0,.06-.08.12-.24.12Z"/><path class="cls-9" d="M81.47,67.75c-.16,0-.3-.06-.32-.12L80.67,66c0-.06.09-.11.24-.11h3.92c.16,0,.3.05.32.11l.6,1.64c0,.06-.08.12-.24.12Z"/><path class="cls-9" d="M76.28,67.75c-.16,0-.3-.06-.31-.12L75.62,66c0-.06.1-.11.25-.11h3.92c.16,0,.3.05.32.11l.46,1.64c0,.06-.09.12-.25.12Z"/><path class="cls-9" d="M71.09,67.75c-.16,0-.3-.06-.3-.12L70.57,66c0-.06.11-.11.27-.11h3.91c.16,0,.3.05.31.11l.33,1.64c0,.06-.1.12-.26.12Z"/><path class="cls-9" d="M65.9,67.75c-.16,0-.29-.06-.3-.12L65.52,66c0-.06.12-.11.28-.11h3.92c.15,0,.28.05.29.11l.2,1.64c0,.06-.12.12-.27.12Z"/><path class="cls-9" d="M60.71,67.75c-.16,0-.29-.06-.29-.12l0-1.64c0-.06.13-.11.29-.11h3.92c.15,0,.28.05.28.11L65,67.63c0,.06-.13.12-.29.12Z"/><path class="cls-9" d="M55.52,67.75c-.16,0-.29-.06-.28-.12L55.43,66c0-.06.14-.11.29-.11h3.92c.15,0,.28.05.27.11l-.06,1.64c0,.06-.14.12-.3.12Z"/><path class="cls-9" d="M50.32,67.75c-.15,0-.27-.06-.26-.12L50.38,66c0-.06.15-.11.3-.11H54.6c.15,0,.27.05.27.11l-.21,1.64c0,.06-.14.12-.3.12Z"/><path class="cls-9" d="M45.13,67.75c-.16,0-.27-.06-.25-.12L45.33,66c0-.06.16-.11.31-.11h3.92c.16,0,.27.05.26.11l-.34,1.64c0,.06-.15.12-.31.12Z"/><path class="cls-9" d="M39.94,67.75c-.16,0-.27-.06-.24-.12L40.28,66a.4.4,0,0,1,.32-.11h3.92c.16,0,.27.05.25.11l-.47,1.64c0,.06-.16.12-.32.12Z"/><path class="cls-9" d="M34.75,67.75c-.16,0-.26-.06-.24-.12L35.23,66c0-.06.18-.11.34-.11h3.91c.16,0,.27.05.24.11l-.6,1.64c0,.06-.17.12-.33.12Z"/><path class="cls-9" d="M91.85,67.75a.43.43,0,0,1-.34-.12L90.76,66c0-.06.08-.11.23-.11h10.22a.5.5,0,0,1,.35.11l1,1.64c0,.06,0,.12-.21.12Z"/><path class="cls-9" d="M25.67,67.75c-.16,0-.26-.06-.22-.12L26.4,66a.48.48,0,0,1,.35-.11h7.7c.15,0,.25.05.22.11l-.73,1.64a.43.43,0,0,1-.34.12Z"/><path class="cls-9" d="M84.78,69.85c-.16,0-.32,0-.34-.12L83.9,68.1c0-.07.09-.12.25-.12h4c.16,0,.31,0,.33.12l.67,1.63c0,.07-.09.12-.25.12Z"/><path class="cls-9" d="M79.42,69.85c-.17,0-.31,0-.33-.12l-.41-1.63c0-.07.1-.12.26-.12h4c.16,0,.3,0,.33.12l.53,1.63c0,.07-.1.12-.26.12Z"/><path class="cls-9" d="M74.05,69.85c-.16,0-.3,0-.31-.12l-.28-1.63c0-.07.11-.12.27-.12h4c.16,0,.3,0,.32.12l.39,1.63c0,.07-.1.12-.26.12Z"/><path class="cls-9" d="M68.69,69.85c-.16,0-.3,0-.31-.12l-.14-1.63c0-.07.12-.12.28-.12h4c.16,0,.3,0,.31.12l.26,1.63c0,.07-.11.12-.28.12Z"/><path class="cls-9" d="M63.33,69.85c-.16,0-.3,0-.3-.12V68.1c0-.07.13-.12.29-.12h4c.16,0,.29,0,.3.12l.13,1.63c0,.07-.13.12-.29.12Z"/><path class="cls-9" d="M58,69.85c-.17,0-.3,0-.29-.12l.12-1.63c0-.07.14-.12.3-.12h4c.16,0,.29,0,.29.12v1.63c0,.07-.14.12-.3.12Z"/><path class="cls-9" d="M52.6,69.85c-.16,0-.29,0-.28-.12l.26-1.63c0-.07.15-.12.31-.12h4c.16,0,.28,0,.28.12l-.14,1.63c0,.07-.14.12-.3.12Z"/><path class="cls-9" d="M47.24,69.85c-.16,0-.28,0-.27-.12l.39-1.63c0-.07.16-.12.31-.12h4.06c.16,0,.28,0,.27.12l-.27,1.63c0,.07-.15.12-.32.12Z"/><path class="cls-9" d="M41.88,69.85c-.17,0-.28,0-.26-.12l.52-1.63c0-.07.17-.12.32-.12h4.06c.16,0,.27,0,.26.12l-.4,1.63c0,.07-.17.12-.33.12Z"/><path class="cls-9" d="M36.52,69.85c-.17,0-.28,0-.25-.12l.65-1.63c0-.07.18-.12.33-.12h4.06c.16,0,.27,0,.25.12L41,69.73c0,.07-.17.12-.33.12Z"/><path class="cls-9" d="M90.14,69.85c-.16,0-.32,0-.34-.12l-.69-1.63c0-.07.09-.12.25-.12h13.17a.47.47,0,0,1,.36.12l1,1.63c0,.07-.06.12-.22.12Z"/><path class="cls-9" d="M24.45,69.85c-.16,0-.27,0-.23-.12l1-1.63a.47.47,0,0,1,.36-.12H36.1c.16,0,.26,0,.24.12l-.67,1.63c0,.07-.18.12-.35.12Z"/><path class="cls-10" d="M77.55,73.13a.34.34,0,0,0-.34-.29H51a.34.34,0,0,0-.34.29L50,77.43a.34.34,0,0,0,.34.4H77.87a.35.35,0,0,0,.34-.4Z"/><rect class="cls-2" x="20.56" y="7.77" width="87.12" height="5.43"/><rect class="cls-4" x="63.09" y="-15.28" width="2.07" height="53.83" transform="translate(75.75 -52.49) rotate(90)"/><rect class="cls-1" x="70.76" y="-27.56" width="3.89" height="70.99" transform="translate(80.64 -64.77) rotate(90)"/></svg>