<svg id="Layer_1" data-name="Layer 1" xmlns="http://www.w3.org/2000/svg" viewBox="0 0 177.56 168.93"><defs><style>.cls-1{fill:#d0d2d3;}.cls-2{fill:#e6e7e8;}.cls-13,.cls-14,.cls-16,.cls-19,.cls-3,.cls-9{fill:#333841;}.cls-4{fill:#a6a8ab;}.cls-5,.cls-6,.cls-7{fill:none;stroke-linecap:round;stroke-miterlimit:10;}.cls-5{stroke:#fff;stroke-width:5px;}.cls-6{stroke:#26a7df;}.cls-6,.cls-7{stroke-width:3px;}.cls-7{stroke:#81bc50;}.cls-8{fill:#404b5b;}.cls-9{font-size:12px;}.cls-19,.cls-9{font-family:Gotham-Light, Gotham;font-weight:300;}.cls-10{letter-spacing:-0.03em;}.cls-11{letter-spacing:0em;}.cls-12{letter-spacing:-0.13em;}.cls-13{font-size:6px;}.cls-13,.cls-14,.cls-16{font-family:Gotham-Book, Gotham;}.cls-14,.cls-16{font-size:10px;}.cls-14{letter-spacing:-0.03em;}.cls-15{letter-spacing:0em;}.cls-17{letter-spacing:-0.01em;}.cls-18{letter-spacing:-0.02em;}.cls-19{font-size:8px;}.cls-20{letter-spacing:-0.01em;}.cls-21{letter-spacing:0em;}.cls-22{letter-spacing:-0.01em;}.cls-23{letter-spacing:0em;}</style></defs><title>Fabric Topology_Source</title><rect class="cls-1" x="8" y="40.92" width="71.29" height="18"/><rect class="cls-2" x="17.52" y="44.87" width="15.45" height="12.1"/><rect class="cls-2" x="45.07" y="44.87" width="15.45" height="12.1"/><rect class="cls-3" x="18.59" y="45.88" width="13.3" height="8.08"/><rect class="cls-3" x="46.14" y="45.88" width="13.3" height="8.08"/><rect class="cls-1" x="98.27" y="40.92" width="71.29" height="18"/><rect class="cls-2" x="107.79" y="44.87" width="15.45" height="12.1"/><rect class="cls-2" x="135.34" y="44.87" width="15.45" height="12.1"/><rect class="cls-3" x="108.86" y="45.88" width="13.3" height="8.08"/><rect class="cls-3" x="136.41" y="45.88" width="13.3" height="8.08"/><rect class="cls-4" x="8" y="122.85" width="71.29" height="24.87"/><rect class="cls-1" x="10.62" y="126.25" width="66.05" height="11.2"/><rect class="cls-3" x="11.84" y="127.38" width="15.01" height="8.94"/><rect class="cls-3" x="28.04" y="127.39" width="15.01" height="8.94"/><rect class="cls-3" x="44.24" y="127.39" width="15.01" height="8.94"/><rect class="cls-3" x="60.44" y="127.39" width="15.01" height="8.94"/><rect class="cls-4" x="98.27" y="122.85" width="71.29" height="24.87"/><rect class="cls-1" x="100.89" y="126.25" width="66.05" height="11.2"/><rect class="cls-3" x="102.12" y="127.38" width="15.01" height="8.94"/><rect class="cls-3" x="118.32" y="127.39" width="15.01" height="8.94"/><rect class="cls-3" x="134.51" y="127.39" width="15.01" height="8.94"/><rect class="cls-3" x="150.71" y="127.39" width="15.01" height="8.94"/><line class="cls-5" x1="25.24" y1="49.92" x2="21.86" y2="84.82"/><line class="cls-6" x1="25.24" y1="49.92" x2="21.86" y2="84.82"/><line class="cls-5" x1="52.63" y1="49.92" x2="112.13" y2="84.82"/><line class="cls-6" x1="52.63" y1="49.92" x2="112.13" y2="84.82"/><line class="cls-5" x1="21.86" y1="96.95" x2="19.35" y2="131.84"/><line class="cls-6" x1="21.86" y1="96.95" x2="19.35" y2="131.84"/><line class="cls-5" x1="36.4" y1="96.95" x2="51.74" y2="131.86"/><line class="cls-6" x1="36.4" y1="96.95" x2="51.74" y2="131.86"/><line class="cls-5" x1="50.94" y1="96.95" x2="109.62" y2="131.84"/><line class="cls-6" x1="50.94" y1="96.95" x2="109.62" y2="131.84"/><line class="cls-5" x1="65.48" y1="96.95" x2="142.02" y2="131.86"/><line class="cls-6" x1="65.48" y1="96.95" x2="142.02" y2="131.86"/><line class="cls-5" x1="112.13" y1="96.95" x2="35.55" y2="131.86"/><line class="cls-7" x1="112.13" y1="96.95" x2="35.55" y2="131.86"/><line class="cls-5" x1="126.67" y1="96.95" x2="67.94" y2="131.86"/><line class="cls-7" x1="126.67" y1="96.95" x2="67.94" y2="131.86"/><line class="cls-5" x1="141.21" y1="96.95" x2="125.82" y2="131.86"/><line class="cls-7" x1="141.21" y1="96.95" x2="125.82" y2="131.86"/><line class="cls-5" x1="155.76" y1="96.95" x2="158.21" y2="131.84"/><line class="cls-7" x1="155.76" y1="96.95" x2="158.21" y2="131.84"/><line class="cls-5" x1="143.06" y1="49.92" x2="126.67" y2="84.82"/><line class="cls-7" x1="143.06" y1="49.92" x2="126.67" y2="84.82"/><line class="cls-5" x1="115.98" y1="49.92" x2="36.4" y2="84.82"/><line class="cls-7" x1="115.98" y1="49.92" x2="36.4" y2="84.82"/><rect class="cls-3" x="10.98" y="76.94" width="65.33" height="27.9"/><rect class="cls-1" x="15.2" y="80.78" width="13.3" height="8.08"/><rect class="cls-1" x="29.75" y="80.78" width="13.3" height="8.08"/><rect class="cls-1" x="44.29" y="80.78" width="13.3" height="8.08"/><rect class="cls-1" x="58.83" y="80.78" width="13.3" height="8.08"/><rect class="cls-1" x="15.2" y="92.91" width="13.3" height="8.08"/><rect class="cls-8" x="15.2" y="88.86" width="13.3" height="4.04"/><rect class="cls-8" x="29.75" y="88.86" width="13.3" height="4.04"/><rect class="cls-8" x="44.29" y="88.86" width="13.3" height="4.04"/><rect class="cls-8" x="58.83" y="88.86" width="13.3" height="4.04"/><rect class="cls-1" x="29.75" y="92.91" width="13.3" height="8.08"/><rect class="cls-1" x="44.29" y="92.91" width="13.3" height="8.08"/><rect class="cls-1" x="58.83" y="92.91" width="13.3" height="8.08"/><rect class="cls-3" x="101.25" y="76.94" width="65.33" height="27.9"/><rect class="cls-1" x="105.48" y="80.78" width="13.3" height="8.08"/><rect class="cls-1" x="120.02" y="80.78" width="13.3" height="8.08"/><rect class="cls-1" x="134.56" y="80.78" width="13.3" height="8.08"/><rect class="cls-1" x="149.11" y="80.78" width="13.3" height="8.08"/><rect class="cls-1" x="105.48" y="92.91" width="13.3" height="8.08"/><rect class="cls-8" x="105.48" y="88.86" width="13.3" height="4.04"/><rect class="cls-8" x="120.02" y="88.86" width="13.3" height="4.04"/><rect class="cls-8" x="134.56" y="88.86" width="13.3" height="4.04"/><rect class="cls-8" x="149.11" y="88.86" width="13.3" height="4.04"/><rect class="cls-1" x="120.02" y="92.91" width="13.3" height="8.08"/><rect class="cls-1" x="134.56" y="92.91" width="13.3" height="8.08"/><rect class="cls-1" x="149.11" y="92.91" width="13.3" height="8.08"/><text class="cls-9" transform="translate(8 16.69)"><tspan class="cls-10">F</tspan><tspan class="cls-11" x="7.57" y="0">abric </tspan><tspan class="cls-12" x="40.62" y="0">T</tspan><tspan x="46.72" y="0">opology</tspan></text><text class="cls-13" transform="translate(19.88 38.92)">HP1</text><text class="cls-14" transform="translate(26 74.94)">S<tspan class="cls-15" x="6.15" y="0">W1</tspan></text><text class="cls-14" transform="translate(103.91 74.94)">S<tspan class="cls-15" x="6.15" y="0">W2</tspan></text><text class="cls-16" transform="translate(13.45 156.94)"><tspan class="cls-17">C</tspan><tspan x="7.32" y="0">ont</tspan><tspan class="cls-18" x="23.98" y="0">r</tspan><tspan x="27.81" y="0">oller A</tspan></text><text class="cls-16" transform="translate(104.06 156.94)"><tspan class="cls-17">C</tspan><tspan x="7.32" y="0">ont</tspan><tspan class="cls-18" x="23.98" y="0">r</tspan><tspan x="27.81" y="0">oller B</tspan></text><text class="cls-13" transform="translate(46.71 38.92)">HP2</text><text class="cls-19" transform="translate(27.5 30.92)">Ho<tspan class="cls-20" x="11.2" y="0">s</tspan><tspan class="cls-21" x="15.1" y="0">t 1</tspan></text><text class="cls-19" transform="translate(119.08 30.92)">Ho<tspan class="cls-22" x="11.2" y="0">s</tspan><tspan class="cls-23" x="15.1" y="0">t 2</tspan></text><text class="cls-13" transform="translate(111.27 38.92)">HP1</text><text class="cls-13" transform="translate(138.1 38.92)">HP2</text></svg>