<svg id="Layer_1" data-name="Layer 1" xmlns="http://www.w3.org/2000/svg" viewBox="0 0 299.6 112"><defs><style>.cls-1{fill:#d0d2d3;}.cls-2{fill:#e6e7e8;}.cls-13,.cls-15,.cls-16,.cls-3,.cls-8{fill:#333841;}.cls-4{fill:#a6a8ab;}.cls-5,.cls-6,.cls-7{fill:none;stroke-linecap:round;stroke-miterlimit:10;}.cls-5{stroke:#fff;stroke-width:5px;}.cls-6{stroke:#00b4ef;}.cls-6,.cls-7{stroke-width:3px;}.cls-7{stroke:#81bc50;}.cls-8{font-size:12px;}.cls-16,.cls-8{font-family:Gotham-Light, Gotham;font-weight:300;}.cls-9{letter-spacing:-0.02em;}.cls-10{letter-spacing:-0.01em;}.cls-11{letter-spacing:0em;}.cls-12{letter-spacing:-0.13em;}.cls-13{font-size:10px;}.cls-13,.cls-15{font-family:Gotham-Book, Gotham;}.cls-14{letter-spacing:-0.02em;}.cls-15{font-size:6px;}.cls-16{font-size:8px;}.cls-17{letter-spacing:-0.01em;}.cls-18{letter-spacing:0em;}.cls-19{letter-spacing:-0.01em;}.cls-20{letter-spacing:0em;}</style></defs><title>Direct Topology_Source</title><rect class="cls-1" x="6.02" y="33.34" width="71.29" height="18"/><rect class="cls-2" x="15.53" y="37.29" width="15.45" height="12.1"/><rect class="cls-2" x="43.08" y="37.29" width="15.45" height="12.1"/><rect class="cls-3" x="16.6" y="38.3" width="13.3" height="8.08"/><rect class="cls-3" x="44.16" y="38.3" width="13.3" height="8.08"/><rect class="cls-1" x="150.34" y="33.34" width="71.29" height="18"/><rect class="cls-2" x="159.86" y="37.29" width="15.45" height="12.1"/><rect class="cls-2" x="187.41" y="37.29" width="15.45" height="12.1"/><rect class="cls-3" x="160.93" y="38.3" width="13.3" height="8.08"/><rect class="cls-3" x="188.48" y="38.3" width="13.3" height="8.08"/><rect class="cls-1" x="78.18" y="33.34" width="71.29" height="18"/><rect class="cls-2" x="87.69" y="37.29" width="15.45" height="12.1"/><rect class="cls-2" x="115.25" y="37.29" width="15.45" height="12.1"/><rect class="cls-3" x="88.77" y="38.3" width="13.3" height="8.08"/><rect class="cls-3" x="116.32" y="38.3" width="13.3" height="8.08"/><rect class="cls-1" x="222.29" y="33.34" width="71.29" height="18"/><rect class="cls-2" x="231.81" y="37.29" width="15.45" height="12.1"/><rect class="cls-2" x="259.36" y="37.29" width="15.45" height="12.1"/><rect class="cls-3" x="232.88" y="38.3" width="13.3" height="8.08"/><rect class="cls-3" x="260.43" y="38.3" width="13.3" height="8.08"/><rect class="cls-4" x="40.95" y="69.88" width="71.29" height="24.87"/><rect class="cls-1" x="43.57" y="73.28" width="66.05" height="11.2"/><rect class="cls-3" x="44.8" y="74.41" width="15.01" height="8.94"/><rect class="cls-3" x="60.99" y="74.42" width="15.01" height="8.94"/><rect class="cls-3" x="77.19" y="74.42" width="15.01" height="8.94"/><rect class="cls-3" x="93.39" y="74.42" width="15.01" height="8.94"/><rect class="cls-4" x="185.99" y="69.35" width="71.29" height="24.87"/><rect class="cls-1" x="188.61" y="72.75" width="66.05" height="11.2"/><rect class="cls-3" x="189.83" y="73.88" width="15.01" height="8.94"/><rect class="cls-3" x="206.03" y="73.89" width="15.01" height="8.94"/><rect class="cls-3" x="222.23" y="73.89" width="15.01" height="8.94"/><rect class="cls-3" x="238.43" y="73.89" width="15.01" height="8.94"/><line class="cls-5" x1="23.26" y1="42.34" x2="53.72" y2="78.88"/><line class="cls-6" x1="23.26" y1="42.34" x2="53.72" y2="78.88"/><line class="cls-5" x1="167.58" y1="42.34" x2="86.12" y2="78.89"/><line class="cls-6" x1="167.58" y1="42.34" x2="86.12" y2="78.89"/><line class="cls-5" x1="50.81" y1="42.34" x2="197.34" y2="78.35"/><line class="cls-7" x1="50.81" y1="42.34" x2="197.34" y2="78.35"/><line class="cls-5" x1="195.13" y1="42.34" x2="229.73" y2="78.36"/><line class="cls-7" x1="195.13" y1="42.34" x2="229.73" y2="78.36"/><line class="cls-5" x1="95.42" y1="42.34" x2="69.92" y2="78.89"/><line class="cls-6" x1="95.42" y1="42.34" x2="69.92" y2="78.89"/><line class="cls-5" x1="239.53" y1="42.34" x2="102.32" y2="78.89"/><line class="cls-6" x1="239.53" y1="42.34" x2="102.32" y2="78.89"/><line class="cls-5" x1="122.97" y1="42.34" x2="213.53" y2="78.36"/><line class="cls-7" x1="122.97" y1="42.34" x2="213.53" y2="78.36"/><line class="cls-5" x1="267.08" y1="42.34" x2="245.93" y2="78.35"/><line class="cls-7" x1="267.08" y1="42.34" x2="245.93" y2="78.35"/><text class="cls-8" transform="translate(6.25 14.47)">Di<tspan class="cls-9" x="12.37" y="0">r</tspan><tspan x="16.87" y="0">ect </tspan><tspan class="cls-10" x="39.13" y="0">C</tspan><tspan class="cls-11" x="47.93" y="0">onnect </tspan><tspan class="cls-12" x="92.58" y="0">T</tspan><tspan class="cls-11" x="98.68" y="0">opology</tspan></text><text class="cls-13" transform="translate(46.4 105.29)"><tspan class="cls-10">C</tspan><tspan x="7.32" y="0">ont</tspan><tspan class="cls-14" x="23.98" y="0">r</tspan><tspan x="27.81" y="0">oller A</tspan></text><text class="cls-13" transform="translate(191.18 105.29)"><tspan class="cls-10">C</tspan><tspan x="7.32" y="0">ont</tspan><tspan class="cls-14" x="23.98" y="0">r</tspan><tspan x="27.81" y="0">oller B</tspan></text><text class="cls-15" transform="translate(17.9 32.09)">HP1</text><text class="cls-15" transform="translate(44.73 32.09)">HP2</text><text class="cls-16" transform="translate(24.98 24.91)">Ho<tspan class="cls-17" x="11.2" y="0">s</tspan><tspan class="cls-18" x="15.1" y="0">t 1</tspan></text><text class="cls-15" transform="translate(90.49 32.09)">HP1</text><text class="cls-15" transform="translate(117.32 32.09)">HP2</text><text class="cls-16" transform="translate(96.55 24.91)">Ho<tspan class="cls-19" x="11.2" y="0">s</tspan><tspan class="cls-20" x="15.1" y="0">t 2</tspan></text><text class="cls-15" transform="translate(162.22 32.09)">HP1</text><text class="cls-15" transform="translate(189.05 32.09)">HP2</text><text class="cls-16" transform="translate(168.21 24.91)">Ho<tspan class="cls-17" x="11.2" y="0">s</tspan><tspan class="cls-18" x="15.1" y="0">t 3</tspan></text><text class="cls-15" transform="translate(234.3 32.09)">HP1</text><text class="cls-15" transform="translate(261.13 32.09)">HP2</text><text class="cls-16" transform="translate(240.07 24.91)">Ho<tspan class="cls-19" x="11.2" y="0">s</tspan><tspan class="cls-20" x="15.1" y="0">t 4</tspan></text></svg>