<svg id="Layer_1" data-name="Layer 1" xmlns="http://www.w3.org/2000/svg" viewBox="0 0 87.27 39.39"><defs><style>.cls-1{fill:#2968b2;}.cls-1,.cls-3{fill-rule:evenodd;}.cls-2{fill:none;stroke:#759ed3;stroke-linecap:round;stroke-linejoin:round;stroke-width:0.05px;}.cls-3{fill:#4174ba;}</style></defs><title>SFP_Link_Cable_Source</title><path class="cls-1" d="M3.46,19.69a4.42,4.42,0,0,0-.9,2.47,1.88,1.88,0,0,0,2.1,2c1.79,0,1.7-1.45-.51-3.65A5.73,5.73,0,0,1,3.46,19.69Zm-.9-2.46a4.42,4.42,0,0,0,.9,2.46,5.73,5.73,0,0,0,.69.8c2.21,2.2,2.3,3.65.51,3.65H18.34V15.25H4.66A1.88,1.88,0,0,0,2.56,17.23Zm15.78-3.71V25.86L40.22,27V12.37ZM60.52,7.14H43.37a3.15,3.15,0,0,0-3.15,3.14V29.11a3.14,3.14,0,0,0,3.15,3.13H60.52ZM84.71,28H60.52v4.7a2.09,2.09,0,0,0,2.1,2.09H84.71Zm0,0V11.43H60.52V28Zm0-16.53V4.63H62.62a2.1,2.1,0,0,0-2.1,2.09v4.71Z"/><path class="cls-2" d="M3.46,19.69a4.42,4.42,0,0,0-.9,2.47,1.88,1.88,0,0,0,2.1,2c1.79,0,1.7-1.45-.51-3.65A5.73,5.73,0,0,1,3.46,19.69Zm-.9-2.46a4.42,4.42,0,0,0,.9,2.46,5.73,5.73,0,0,0,.69.8c2.21,2.2,2.3,3.65.51,3.65H18.34V15.25H4.66A1.88,1.88,0,0,0,2.56,17.23Zm15.78-3.71V25.86L40.22,27V12.37ZM60.52,7.14H43.37a3.15,3.15,0,0,0-3.15,3.14V29.11a3.14,3.14,0,0,0,3.15,3.13H60.52ZM84.71,28H60.52v4.7a2.09,2.09,0,0,0,2.1,2.09H84.71Zm0,0V11.43H60.52V28Zm0-16.53V4.63H62.62a2.1,2.1,0,0,0-2.1,2.09v4.71Z"/><path class="cls-3" d="M21.29,13.47v7.47a.94.94,0,0,0,.94.94h0a1,1,0,0,0,.95-.94h0V13.37Zm7.57-.4v7.87a.94.94,0,0,0,.94.94h0a.94.94,0,0,0,.95-.94V13Zm7.57-.4v8.27a.94.94,0,0,0,1,.94h0a.94.94,0,0,0,.94-.94h0V12.57ZM34.54,26.82V18.64a1,1,0,0,0-1.9,0v8.08ZM27,26.42V18.64a.95.95,0,0,0-1.89,0v7.68Z"/></svg>