<svg id="Layer_1" data-name="Layer 1" xmlns="http://www.w3.org/2000/svg" viewBox="0 0 475 270"><defs><style>.cls-1{font-size:16px;}.cls-1,.cls-3{fill:#101820;font-family:HelveticaNeueLTStd-Roman, Helvetica Neue LT Std;}.cls-2{fill:#fff;stroke:#333f48;}.cls-14,.cls-2,.cls-4,.cls-6,.cls-8{stroke-miterlimit:10;}.cls-3{font-size:10px;}.cls-14,.cls-4{fill:none;}.cls-4,.cls-8{stroke:#5cc4ff;}.cls-5{fill:#5cc4ff;}.cls-6{fill:#ededed;stroke:#a2aaad;}.cls-7,.cls-9{font-size:9px;fill:#333f48;font-family:HelveticaNeueLTStd-Bd, Helvetica Neue LT Std;}.cls-7{letter-spacing:0.01em;}.cls-8{fill:#bbe5ff;}.cls-9{letter-spacing:0.01em;}.cls-10{fill:#939396;}.cls-11{fill:#66696d;}.cls-12{fill:#808283;}.cls-13{fill:#dfe1df;}.cls-14{stroke:#000;stroke-width:0.95px;}</style></defs><text class="cls-1" transform="translate(122.42 25.75)">Fabric Connection - Use Case 1</text><rect class="cls-2" x="318.7" y="121.39" width="135.1" height="83.84" rx="3.57"/><rect class="cls-2" x="21.2" y="121.39" width="135.1" height="83.84" rx="3.57"/><text class="cls-3" transform="translate(58.39 109.65)">New E-Series</text><text class="cls-3" transform="translate(358.1 109.65)">Old E-Series</text><text class="cls-3" transform="translate(208.03 56.55)">iSCSI Switch</text><line class="cls-4" x1="228.77" y1="233.18" x2="228.77" y2="82.02"/><polygon class="cls-5" points="233.76 83.48 228.77 74.84 223.79 83.48 233.76 83.48"/><line class="cls-4" x1="245.42" y1="233.18" x2="245.42" y2="82.02"/><polygon class="cls-5" points="250.41 83.48 245.42 74.84 240.43 83.48 250.41 83.48"/><rect class="cls-6" x="188.4" y="233.18" width="97.38" height="24.35" rx="1.06"/><text class="cls-7" transform="translate(218.9 248.42)">I/O Host</text><polyline class="cls-4" points="337.56 178.87 263.86 178.87 263.86 82.02"/><polygon class="cls-5" points="268.85 83.48 263.86 74.84 258.88 83.48 268.85 83.48"/><polyline class="cls-4" points="337.56 147.75 295.51 147.75 295.51 82.02"/><polygon class="cls-5" points="300.5 83.48 295.51 74.84 290.52 83.48 300.5 83.48"/><polyline class="cls-4" points="137.44 178.87 211.14 178.87 211.14 82.02"/><polygon class="cls-5" points="216.12 83.48 211.14 74.84 206.15 83.48 216.12 83.48"/><polyline class="cls-4" points="137.44 147.75 179.49 147.75 179.49 82.02"/><polygon class="cls-5" points="184.48 83.48 179.49 74.84 174.5 83.48 184.48 83.48"/><rect class="cls-8" x="337.56" y="135.58" width="97.38" height="24.35" rx="1.06"/><text class="cls-9" transform="translate(383.15 150.81)">A</text><rect class="cls-8" x="337.56" y="166.69" width="97.38" height="24.35" rx="1.06"/><text class="cls-9" transform="translate(383.03 181.92)">B</text><rect class="cls-8" x="40.06" y="135.58" width="97.38" height="24.35" rx="1.06"/><text class="cls-9" transform="translate(85.65 150.81)">A</text><rect class="cls-8" x="40.06" y="166.69" width="97.38" height="24.35" rx="1.06"/><text class="cls-9" transform="translate(85.53 181.92)">B</text><rect class="cls-10" x="156.3" y="60.65" width="161.6" height="13.69"/><rect class="cls-11" x="164.24" y="61.41" width="145.71" height="12.18"/><path d="M317.28,61.57V73.42H156.91V61.57H317.28m1.42-1.42H155.49V74.84H318.7V60.15Z"/><path d="M180,63.53v6.82h-9.62V63.53H180m.53-.52H169.82v7.86h10.67V63Z"/><path d="M178.62,65.52l-1.21-1H173.2l-1.52,1v3.34a.7.7,0,0,0,.71.7h5.53a.7.7,0,0,0,.7-.7Z"/><rect class="cls-12" x="174.81" y="65.28" width="0.68" height="2.38" rx="0.29"/><rect class="cls-12" x="172.67" y="66.22" width="0.68" height="2.38" rx="0.29"/><rect class="cls-12" x="176.95" y="66.22" width="0.68" height="2.38" rx="0.29"/><path d="M304.29,63.53v6.82h-9.62V63.53h9.62m.52-.52H294.15v7.86h10.66V63Z"/><path d="M303,65.52l-1.22-1h-4.2l-1.52,1v3.34a.7.7,0,0,0,.71.7h5.52a.7.7,0,0,0,.71-.7Z"/><rect class="cls-12" x="299.14" y="65.28" width="0.68" height="2.38" rx="0.29"/><rect class="cls-12" x="297" y="66.22" width="0.68" height="2.38" rx="0.29"/><rect class="cls-12" x="301.27" y="66.22" width="0.68" height="2.38" rx="0.29"/><rect class="cls-13" x="188.27" y="68.18" width="5.92" height="3.79"/><rect x="189.62" y="66.94" width="3.22" height="3.65"/><rect class="cls-13" x="196.75" y="68.2" width="20.05" height="3.79"/><rect x="197.6" y="69.12" width="3.68" height="1.95"/><rect x="202.49" y="69.12" width="3.68" height="1.95"/><rect x="207.38" y="69.12" width="3.68" height="1.95"/><rect x="212.27" y="69.12" width="3.68" height="1.95"/><rect class="cls-13" x="218.29" y="68.2" width="20.05" height="3.79"/><rect x="219.14" y="69.12" width="3.68" height="1.95"/><rect x="224.03" y="69.12" width="3.68" height="1.95"/><rect x="228.91" y="69.12" width="3.68" height="1.95"/><rect x="233.8" y="69.12" width="3.68" height="1.95"/><rect class="cls-13" x="239.82" y="68.2" width="20.05" height="3.79"/><rect x="240.67" y="69.12" width="3.68" height="1.95"/><rect x="245.56" y="69.12" width="3.68" height="1.95"/><rect x="250.45" y="69.12" width="3.68" height="1.95"/><rect x="255.34" y="69.12" width="3.68" height="1.95"/><rect class="cls-13" x="261.36" y="68.2" width="20.05" height="3.79"/><rect x="262.21" y="69.12" width="3.68" height="1.95"/><rect x="267.1" y="69.12" width="3.68" height="1.95"/><rect x="271.99" y="69.12" width="3.68" height="1.95"/><rect x="276.87" y="69.12" width="3.68" height="1.95"/><rect class="cls-13" x="284.23" y="68.2" width="5.92" height="3.79"/><rect x="286.06" y="68.38" width="2.26" height="3.28" transform="translate(217.17 357.21) rotate(-90)"/><rect x="286.43" y="71.04" width="1.52" height="0.59"/><line class="cls-14" x1="195.25" y1="65.91" x2="195.25" y2="60.65"/><line class="cls-14" x1="197.6" y1="65.91" x2="197.6" y2="60.65"/><line class="cls-14" x1="199.95" y1="65.91" x2="199.95" y2="60.65"/><line class="cls-14" x1="202.3" y1="65.91" x2="202.3" y2="60.65"/><line class="cls-14" x1="204.65" y1="65.91" x2="204.65" y2="60.65"/><line class="cls-14" x1="207" y1="65.91" x2="207" y2="60.65"/><line class="cls-14" x1="209.35" y1="65.91" x2="209.35" y2="60.65"/><line class="cls-14" x1="211.7" y1="65.91" x2="211.7" y2="60.65"/><line class="cls-14" x1="214.05" y1="65.91" x2="214.05" y2="60.65"/><line class="cls-14" x1="216.4" y1="65.91" x2="216.4" y2="60.65"/><line class="cls-14" x1="218.75" y1="65.91" x2="218.75" y2="60.65"/><line class="cls-14" x1="221.1" y1="65.91" x2="221.1" y2="60.65"/><line class="cls-14" x1="223.45" y1="65.91" x2="223.45" y2="60.65"/><line class="cls-14" x1="225.8" y1="65.91" x2="225.8" y2="60.65"/><line class="cls-14" x1="228.15" y1="65.91" x2="228.15" y2="60.65"/><line class="cls-14" x1="230.5" y1="65.91" x2="230.5" y2="60.65"/><line class="cls-14" x1="232.85" y1="65.91" x2="232.85" y2="60.65"/><line class="cls-14" x1="235.19" y1="65.91" x2="235.19" y2="60.65"/><line class="cls-14" x1="237.54" y1="65.91" x2="237.54" y2="60.65"/><line class="cls-14" x1="239.89" y1="65.91" x2="239.89" y2="60.65"/><line class="cls-14" x1="242.24" y1="65.91" x2="242.24" y2="60.65"/><line class="cls-14" x1="244.59" y1="65.91" x2="244.59" y2="60.65"/><line class="cls-14" x1="246.94" y1="65.91" x2="246.94" y2="60.65"/><line class="cls-14" x1="249.29" y1="65.91" x2="249.29" y2="60.65"/><line class="cls-14" x1="251.64" y1="65.91" x2="251.64" y2="60.65"/><line class="cls-14" x1="253.99" y1="65.91" x2="253.99" y2="60.65"/><line class="cls-14" x1="256.34" y1="65.91" x2="256.34" y2="60.65"/><line class="cls-14" x1="258.69" y1="65.91" x2="258.69" y2="60.65"/><line class="cls-14" x1="261.04" y1="65.91" x2="261.04" y2="60.65"/><line class="cls-14" x1="263.39" y1="65.91" x2="263.39" y2="60.65"/><line class="cls-14" x1="265.74" y1="65.91" x2="265.74" y2="60.65"/><line class="cls-14" x1="268.09" y1="65.91" x2="268.09" y2="60.65"/><line class="cls-14" x1="270.44" y1="65.91" x2="270.44" y2="60.65"/><line class="cls-14" x1="272.79" y1="65.91" x2="272.79" y2="60.65"/><line class="cls-14" x1="275.14" y1="65.91" x2="275.14" y2="60.65"/><line class="cls-14" x1="277.49" y1="65.91" x2="277.49" y2="60.65"/><line class="cls-14" x1="279.84" y1="65.91" x2="279.84" y2="60.65"/><line class="cls-14" x1="282.19" y1="65.91" x2="282.19" y2="60.65"/></svg>