<svg xmlns="http://www.w3.org/2000/svg" viewBox="0 0 378 232"><defs><style>.cls-1{font-size:13.83px;}.cls-1,.cls-3{fill:#101820;font-family:HelveticaNeueLTStd-Roman, Helvetica Neue LT Std;}.cls-2{fill:#fff;stroke:#333f48;}.cls-10,.cls-16,.cls-2,.cls-4,.cls-6,.cls-8{stroke-miterlimit:10;}.cls-3{font-size:8.65px;}.cls-16,.cls-4,.cls-8{fill:none;}.cls-4{stroke:#ffbca3;}.cls-5{fill:#ffbca3;}.cls-6{fill:#ededed;stroke:#a2aaad;}.cls-11,.cls-7{font-size:7.78px;fill:#333f48;font-family:HelveticaNeueLTStd-Bd, Helvetica Neue LT Std;}.cls-7{letter-spacing:0.01em;}.cls-10,.cls-8{stroke:#5cc4ff;}.cls-9{fill:#5cc4ff;}.cls-10{fill:#bbe5ff;}.cls-11{letter-spacing:0.01em;}.cls-12{fill:#939396;}.cls-13{fill:#66696d;}.cls-14{fill:#808283;}.cls-15{fill:#dfe1df;}.cls-16{stroke:#000;stroke-width:0.95px;}</style></defs><g id="Rulers"><text class="cls-1" transform="translate(89.51 21.55)">Fabric Connection - Use Case 2</text><rect class="cls-2" x="259.2" y="104.23" width="116.8" height="72.48" rx="3.57"/><rect class="cls-2" x="2" y="104.23" width="116.8" height="72.48" rx="3.57"/><text class="cls-3" transform="translate(34.15 94.08)">New E-Series</text><text class="cls-3" transform="translate(293.27 94.08)">Old E-Series</text><text class="cls-3" transform="translate(163.52 48.18)">iSCSI Switch</text><line class="cls-4" x1="181.45" y1="200.88" x2="181.45" y2="71.17"/><polygon class="cls-5" points="186.44 72.63 181.45 63.99 176.47 72.63 186.44 72.63"/><line class="cls-4" x1="195.85" y1="200.88" x2="195.85" y2="71.17"/><polygon class="cls-5" points="200.83 72.63 195.85 63.99 190.86 72.63 200.83 72.63"/><rect class="cls-6" x="146.56" y="200.88" width="84.19" height="21.05" rx="1.06"/><text class="cls-7" transform="translate(172.92 214.05)">I/O Host</text><polyline class="cls-8" points="275.51 159.11 211.79 159.11 211.79 71.17"/><polygon class="cls-9" points="216.78 72.63 211.79 63.99 206.81 72.63 216.78 72.63"/><polyline class="cls-8" points="275.51 132.21 239.15 132.21 239.15 71.17"/><polygon class="cls-9" points="244.14 72.63 239.15 63.99 234.17 72.63 244.14 72.63"/><polyline class="cls-4" points="275.51 147.81 223.31 147.81 223.31 71.17"/><polygon class="cls-5" points="228.3 72.63 223.31 63.99 218.32 72.63 228.3 72.63"/><polyline class="cls-4" points="275.51 120.91 250.67 120.91 250.67 71.17"/><polygon class="cls-5" points="255.66 72.63 250.67 63.99 245.69 72.63 255.66 72.63"/><polyline class="cls-8" points="102.49 159.11 166.21 159.11 166.21 71.17"/><polygon class="cls-9" points="171.19 72.63 166.21 63.99 161.22 72.63 171.19 72.63"/><polyline class="cls-8" points="102.49 132.21 138.85 132.21 138.85 71.17"/><polygon class="cls-9" points="143.83 72.63 138.85 63.99 133.86 72.63 143.83 72.63"/><polyline class="cls-4" points="102.49 147.81 154.69 147.81 154.69 71.17"/><polygon class="cls-5" points="159.68 72.63 154.69 63.99 149.7 72.63 159.68 72.63"/><polyline class="cls-4" points="102.49 120.91 127.33 120.91 127.33 71.17"/><polygon class="cls-5" points="132.31 72.63 127.33 63.99 122.34 72.63 132.31 72.63"/><rect class="cls-10" x="275.51" y="116.5" width="84.19" height="21.05" rx="1.06"/><text class="cls-11" transform="translate(314.92 129.67)">A</text><rect class="cls-10" x="275.51" y="143.4" width="84.19" height="21.05" rx="1.06"/><text class="cls-7" transform="translate(314.82 156.57)">B</text><rect class="cls-10" x="18.3" y="116.5" width="84.19" height="21.05" rx="1.06"/><text class="cls-11" transform="translate(57.72 129.67)">A</text><rect class="cls-10" x="18.3" y="143.4" width="84.19" height="21.05" rx="1.06"/><text class="cls-7" transform="translate(57.62 156.57)">B</text><rect class="cls-12" x="118.8" y="51.72" width="139.71" height="11.84"/><rect class="cls-13" x="125.66" y="52.38" width="125.98" height="10.53"/><path d="M257.78,52.71v9.86H119.52V52.71H257.78m1.42-1.42H118.1V64H259.2V51.29Z"/><path d="M139.19,54.28V60H131V54.28h8.18m.52-.52h-9.22v6.8h9.22v-6.8Z"/><path d="M138.1,55.93l-1-.85h-3.64l-1.31.85v2.89a.61.61,0,0,0,.61.61h4.78a.62.62,0,0,0,.61-.61Z"/><rect class="cls-14" x="134.8" y="55.72" width="0.59" height="2.06" rx="0.26"/><rect class="cls-14" x="132.95" y="56.54" width="0.59" height="2.06" rx="0.26"/><rect class="cls-14" x="136.65" y="56.54" width="0.59" height="2.06" rx="0.26"/><path d="M246.67,54.28V60h-8.18V54.28h8.18m.53-.52H238v6.8h9.23v-6.8Z"/><path d="M245.58,55.93l-1.05-.85H240.9l-1.32.85v2.89a.62.62,0,0,0,.61.61H245a.61.61,0,0,0,.61-.61Z"/><rect class="cls-14" x="242.29" y="55.72" width="0.59" height="2.06" rx="0.26"/><rect class="cls-14" x="240.44" y="56.54" width="0.59" height="2.06" rx="0.26"/><rect class="cls-14" x="244.14" y="56.54" width="0.59" height="2.06" rx="0.26"/><rect class="cls-15" x="146.43" y="58.23" width="5.12" height="3.28"/><rect x="147.6" y="57.16" width="2.78" height="3.15"/><rect class="cls-15" x="153.77" y="58.25" width="17.33" height="3.28"/><rect x="154.51" y="59.04" width="3.18" height="1.68"/><rect x="158.73" y="59.04" width="3.18" height="1.68"/><rect x="162.96" y="59.04" width="3.18" height="1.68"/><rect x="167.18" y="59.04" width="3.18" height="1.68"/><rect class="cls-15" x="172.39" y="58.25" width="17.33" height="3.28"/><rect x="173.13" y="59.04" width="3.18" height="1.68"/><rect x="177.35" y="59.04" width="3.18" height="1.68"/><rect x="181.58" y="59.04" width="3.18" height="1.68"/><rect x="185.8" y="59.04" width="3.18" height="1.68"/><rect class="cls-15" x="191.01" y="58.25" width="17.33" height="3.28"/><rect x="191.74" y="59.04" width="3.18" height="1.68"/><rect x="195.97" y="59.04" width="3.18" height="1.68"/><rect x="200.2" y="59.04" width="3.18" height="1.68"/><rect x="204.42" y="59.04" width="3.18" height="1.68"/><rect class="cls-15" x="209.63" y="58.25" width="17.33" height="3.28"/><rect x="210.36" y="59.04" width="3.18" height="1.68"/><rect x="214.59" y="59.04" width="3.18" height="1.68"/><rect x="218.81" y="59.04" width="3.18" height="1.68"/><rect x="223.04" y="59.04" width="3.18" height="1.68"/><rect class="cls-15" x="229.4" y="58.25" width="5.12" height="3.28"/><rect x="230.98" y="58.41" width="1.96" height="2.84" transform="translate(172.13 291.78) rotate(-90)"/><rect x="231.3" y="60.7" width="1.31" height="0.51"/><line class="cls-16" x1="152.48" y1="56.27" x2="152.48" y2="51.72"/><line class="cls-16" x1="154.51" y1="56.27" x2="154.51" y2="51.72"/><line class="cls-16" x1="156.54" y1="56.27" x2="156.54" y2="51.72"/><line class="cls-16" x1="158.57" y1="56.27" x2="158.57" y2="51.72"/><line class="cls-16" x1="160.6" y1="56.27" x2="160.6" y2="51.72"/><line class="cls-16" x1="162.63" y1="56.27" x2="162.63" y2="51.72"/><line class="cls-16" x1="164.66" y1="56.27" x2="164.66" y2="51.72"/><line class="cls-16" x1="166.69" y1="56.27" x2="166.69" y2="51.72"/><line class="cls-16" x1="168.73" y1="56.27" x2="168.73" y2="51.72"/><line class="cls-16" x1="170.76" y1="56.27" x2="170.76" y2="51.72"/><line class="cls-16" x1="172.79" y1="56.27" x2="172.79" y2="51.72"/><line class="cls-16" x1="174.82" y1="56.27" x2="174.82" y2="51.72"/><line class="cls-16" x1="176.85" y1="56.27" x2="176.85" y2="51.72"/><line class="cls-16" x1="178.88" y1="56.27" x2="178.88" y2="51.72"/><line class="cls-16" x1="180.91" y1="56.27" x2="180.91" y2="51.72"/><line class="cls-16" x1="182.94" y1="56.27" x2="182.94" y2="51.72"/><line class="cls-16" x1="184.98" y1="56.27" x2="184.98" y2="51.72"/><line class="cls-16" x1="187.01" y1="56.27" x2="187.01" y2="51.72"/><line class="cls-16" x1="189.04" y1="56.27" x2="189.04" y2="51.72"/><line class="cls-16" x1="191.07" y1="56.27" x2="191.07" y2="51.72"/><line class="cls-16" x1="193.1" y1="56.27" x2="193.1" y2="51.72"/><line class="cls-16" x1="195.13" y1="56.27" x2="195.13" y2="51.72"/><line class="cls-16" x1="197.16" y1="56.27" x2="197.16" y2="51.72"/><line class="cls-16" x1="199.19" y1="56.27" x2="199.19" y2="51.72"/><line class="cls-16" x1="201.23" y1="56.27" x2="201.23" y2="51.72"/><line class="cls-16" x1="203.26" y1="56.27" x2="203.26" y2="51.72"/><line class="cls-16" x1="205.29" y1="56.27" x2="205.29" y2="51.72"/><line class="cls-16" x1="207.32" y1="56.27" x2="207.32" y2="51.72"/><line class="cls-16" x1="209.35" y1="56.27" x2="209.35" y2="51.72"/><line class="cls-16" x1="211.38" y1="56.27" x2="211.38" y2="51.72"/><line class="cls-16" x1="213.41" y1="56.27" x2="213.41" y2="51.72"/><line class="cls-16" x1="215.45" y1="56.27" x2="215.45" y2="51.72"/><line class="cls-16" x1="217.48" y1="56.27" x2="217.48" y2="51.72"/><line class="cls-16" x1="219.51" y1="56.27" x2="219.51" y2="51.72"/><line class="cls-16" x1="221.54" y1="56.27" x2="221.54" y2="51.72"/><line class="cls-16" x1="223.57" y1="56.27" x2="223.57" y2="51.72"/><line class="cls-16" x1="225.6" y1="56.27" x2="225.6" y2="51.72"/><line class="cls-16" x1="227.63" y1="56.27" x2="227.63" y2="51.72"/></g></svg>