<?xml version="1.0" encoding="utf-8"?>
<!-- Generator: Adobe Illustrator 16.0.0, SVG Export Plug-In . SVG Version: 6.00 Build 0)  -->
<!DOCTYPE svg PUBLIC "-//W3C//DTD SVG 1.1//EN" "http://www.w3.org/Graphics/SVG/1.1/DTD/svg11.dtd">
<svg version="1.1" id="Layer_2" xmlns="http://www.w3.org/2000/svg" xmlns:xlink="http://www.w3.org/1999/xlink" x="0px" y="0px"
	 width="94px" height="94px" viewBox="0 0 94 94" enable-background="new 0 0 94 94" xml:space="preserve">
<rect x="0.392" y="4.209" fill="#C3DCED" width="93.487" height="72.282"/>
<rect x="3.657" y="16.072" fill="#FFFFFF" width="86.956" height="57.102"/>
<polygon fill="#F3F8FB" points="3.657,16.072 90.612,73.174 3.657,73.174 "/>
<g>
	<rect x="12.405" y="29.219" fill="#67A1D3" width="69.459" height="3.498"/>
	<rect x="12.405" y="38.812" fill="#67A1D3" width="69.459" height="3.498"/>
	<rect x="12.405" y="56.934" fill="#67A1D3" width="22.951" height="3.496"/>
</g>
<circle fill="#699FCC" cx="7.828" cy="10.271" r="2.351"/>
<circle fill="#FFFFFF" cx="15.925" cy="10.271" r="2.35"/>
<circle fill="#FFFFFF" cx="24.021" cy="10.271" r="2.351"/>
<polygon fill="#67A1D3" points="68.677,52.007 73.395,49.514 75.751,54.304 81.033,55.062 80.124,60.322 83.951,64.042 
	80.124,67.761 81.033,73.021 75.751,73.783 73.395,78.572 68.677,76.08 63.957,78.572 61.601,73.783 56.318,73.021 57.229,67.761 
	53.398,64.042 57.229,60.322 56.318,55.062 61.601,54.304 63.957,49.514 "/>
<path fill="#C3DCED" d="M86.875,64.042l-1.503-1.462l-3.057-2.97l0.726-4.201l0.357-2.065l-2.075-0.299l-4.218-0.605l-1.882-3.825
	l-0.927-1.883l-1.854,0.98l-3.766,1.99l-3.768-1.99l-1.854-0.98l-0.927,1.882l-1.882,3.825l-4.218,0.605l-2.076,0.299l0.358,2.066
	l0.727,4.199l-3.059,2.971l-1.506,1.462l1.506,1.462l3.059,2.97l-0.727,4.199l-0.357,2.065l2.074,0.299l3.646,0.526v16.111
	l9.633-5.782l9.511,5.782V75.399l2.508-0.362l2.074-0.299l-0.357-2.064l-0.726-4.201l3.056-2.969L86.875,64.042z M80.124,67.761
	l0.909,5.26l-5.282,0.763l-2.239,4.55l-4.265-2.253l-0.285,0.15l-0.285-0.15l-4.267,2.253l-2.239-4.55l-2.498-0.36v0.082
	l-3.354-0.484l0.91-5.26l-3.83-3.719l3.83-3.72l-0.91-5.26l5.282-0.759l2.356-4.79l4.72,2.493l4.718-2.493l2.356,4.79l5.282,0.759
	l-0.909,5.26l3.827,3.72L80.124,67.761z"/>
</svg>
