<svg xmlns="http://www.w3.org/2000/svg" viewBox="0 0 200 30"><defs><style>.cls-1{fill:#2868b1;}.cls-1,.cls-3,.cls-5{fill-rule:evenodd;}.cls-2,.cls-4{fill:none;stroke-linecap:round;stroke-linejoin:round;}.cls-2{stroke:#749dd2;stroke-width:0.05px;}.cls-3{fill:#d9d9d9;}.cls-4{stroke:#999;stroke-width:0.05px;}.cls-5{fill:#4174b8;}</style></defs><g id="Rulers"><path class="cls-1" d="M117.19,9.39v11h20.42v-11ZM65,11.51v6.81h41.59V11.51Zm-3,6a.84.84,0,0,0,.08-.38v-4.4a.84.84,0,0,0-.08-.38H54.55v5.16Zm.19-2.75v2.37a1,1,0,0,1-1.05,1H61l-6.57-.39V12.08l6.57-.4a1.06,1.06,0,0,1,1.12,1v2.09ZM65,11.51v-.09a.51.51,0,0,0-.3-.46L61.29,9.41a.57.57,0,0,0-.22,0H57.45L51.09,10.5a.53.53,0,0,0-.44.51v8a.53.53,0,0,0,.44.51l6.36,1.13h3.62a.57.57,0,0,0,.22,0L64.67,19a.51.51,0,0,0,.3-.46Zm-21,3.4a2.51,2.51,0,0,0-.53,1.43,1.1,1.1,0,0,0,1.24,1.15c1,0,1-.84-.31-2.11A4.33,4.33,0,0,1,43.92,14.91Zm0,0a4.33,4.33,0,0,0,.4.47c1.31,1.27,1.36,2.11.31,2.11h5.92V12.33H44.63a1.1,1.1,0,0,0-1.24,1.15A2.51,2.51,0,0,0,43.92,14.91Z"/><path class="cls-2" d="M117.19,9.39v11h20.42v-11ZM65,11.51v6.81h41.59V11.51Zm-3,6a.84.84,0,0,0,.08-.38v-4.4a.84.84,0,0,0-.08-.38H54.55v5.16Zm.19-2.75v2.37a1,1,0,0,1-1.05,1H61l-6.57-.39V12.08l6.57-.4a1.06,1.06,0,0,1,1.12,1v2.09ZM65,11.51v-.09a.51.51,0,0,0-.3-.46L61.29,9.41a.57.57,0,0,0-.22,0H57.45L51.09,10.5a.53.53,0,0,0-.44.51v8a.53.53,0,0,0,.44.51l6.36,1.13h3.62a.57.57,0,0,0,.22,0L64.67,19a.51.51,0,0,0,.3-.46Zm-21,3.4a2.51,2.51,0,0,0-.53,1.43,1.1,1.1,0,0,0,1.24,1.15c1,0,1-.84-.31-2.11A4.33,4.33,0,0,1,43.92,14.91Zm0,0a4.33,4.33,0,0,0,.4.47c1.31,1.27,1.36,2.11.31,2.11h5.92V12.33H44.63a1.1,1.1,0,0,0-1.24,1.15A2.51,2.51,0,0,0,43.92,14.91Z"/><path class="cls-3" d="M142.6,10h-5v9.85h5Zm15.54,4.92H142.6V20.3h15.54Zm0,0V9.52H142.6v5.39Z"/><path class="cls-4" d="M142.6,10h-5v9.85h5Zm15.54,4.92H142.6V20.3h15.54Zm0,0V9.52H142.6v5.39Z"/><path class="cls-5" d="M120.56,18.78V20h17.05V18.78ZM137.61,11V9.8H120.56V11ZM106.56,9.83V20l10.63.43V18.37h21.08V17.7a.52.52,0,0,1,.52-.52.52.52,0,0,1,.53.52v2h1.31a.27.27,0,0,0,.27-.26v-9a.26.26,0,0,0-.27-.25h-1.31v2a.52.52,0,0,1-.53.51h0a.51.51,0,0,1-.52-.51v-.67H117.19V9.39Zm10.63,3.25a.26.26,0,0,1,.26-.26h19.9a.26.26,0,0,1,.26.26V16.9a.26.26,0,0,1-.26.26h-19.9a.26.26,0,0,1-.26-.26Z"/><path class="cls-2" d="M120.56,18.78V20h17.05V18.78ZM137.61,11V9.8H120.56V11ZM106.56,9.83V20l10.63.43V18.37h21.08V17.7a.52.52,0,0,1,.52-.52.52.52,0,0,1,.53.52v2h1.31a.27.27,0,0,0,.27-.26v-9a.26.26,0,0,0-.27-.25h-1.31v2a.52.52,0,0,1-.53.51h0a.51.51,0,0,1-.52-.51v-.67H117.19V9.39Zm10.63,3.25a.26.26,0,0,1,.26-.26h19.9a.26.26,0,0,1,.26.26V16.9a.26.26,0,0,1-.26.26h-19.9a.26.26,0,0,1-.26-.26Z"/></g></svg>