<svg xmlns="http://www.w3.org/2000/svg" viewBox="0 0 54.32 81.74"><defs><style>.cls-1{fill:#d9d9d9;stroke:#808184;stroke-width:0.04px;}.cls-1,.cls-5{stroke-miterlimit:10;}.cls-2{fill:#749dd2;}.cls-3{fill:#2868b1;}.cls-4{fill:#f6921e;}.cls-5{fill:none;stroke:#404041;}.cls-6{fill:#404041;}</style></defs><title>Screwdriver_Source</title><g id="Rulers"><path class="cls-1" d="M28.85,41.54l-1.38-.86a.4.4,0,0,1-.12-.54L48.09,6.8a.13.13,0,0,1,.06-.07l2-1.34a.18.18,0,0,1,.28.18L50.15,8l0,.08L29.38,41.4A.38.38,0,0,1,28.85,41.54Z"/><polygon class="cls-2" points="32.54 43.2 29.64 40.42 27.99 39.4 24.17 38 20.36 44.13 28.72 49.34 32.54 43.2"/><ellipse class="cls-2" cx="9.15" cy="71.58" rx="4.58" ry="5.33" transform="translate(-56.47 41.55) rotate(-58.13)"/><ellipse class="cls-2" cx="24.46" cy="46.95" rx="4.73" ry="5.14" transform="translate(-28.33 42.93) rotate(-58.13)"/><rect class="cls-3" x="16.2" y="45.82" width="3.06" height="29.91" transform="matrix(0.85, 0.53, -0.53, 0.85, 34.77, -0.2)"/><path class="cls-3" d="M18.8,47.44h1.67a1.39,1.39,0,0,1,1.39,1.39V76a1.39,1.39,0,0,1-1.39,1.39H18.8a0,0,0,0,1,0,0V47.44A0,0,0,0,1,18.8,47.44Z" transform="translate(36.01 -1.33) rotate(31.87)"/><path class="cls-3" d="M12.39,42.59h1.67a0,0,0,0,1,0,0V72.5a0,0,0,0,1,0,0H12.39A1.39,1.39,0,0,1,11,71.11V44a1.39,1.39,0,0,1,1.39-1.39Z" transform="translate(32.28 2.06) rotate(31.87)"/><rect class="cls-3" x="13.6" y="44.21" width="3.06" height="29.91" transform="translate(33.52 0.93) rotate(31.87)"/><rect class="cls-3" x="26.33" y="41.46" width="3.06" height="6.06" transform="matrix(0.85, 0.53, -0.53, 0.85, 27.69, -8)"/><path class="cls-3" d="M32.56,43.85l-1.8-1.12-3.2,5.14L29.36,49a1.12,1.12,0,0,0,1.45-.57l1.89-3A1.12,1.12,0,0,0,32.56,43.85Z"/><path class="cls-3" d="M25.56,39.49l-1.81-1.12a1.13,1.13,0,0,0-1.45.56l-1.88,3a1.11,1.11,0,0,0,.13,1.55l1.81,1.12Z"/><rect class="cls-3" x="23.73" y="39.85" width="3.06" height="6.06" transform="matrix(0.85, 0.53, -0.53, 0.85, 26.45, -6.87)"/><path class="cls-4" d="M25.56,11.34a17.62,17.62,0,0,1,3.6-2.93,24,24,0,0,1,4.2-2.13A25.73,25.73,0,0,1,37.94,5c.78-.18,1.58-.24,2.37-.35s1.6-.11,2.4-.16L42.6,7c-.73,0-1.47-.14-2.21-.16s-1.48,0-2.22,0a23.85,23.85,0,0,0-4.43.61A22.66,22.66,0,0,0,29.47,9,17.59,17.59,0,0,0,25.56,11.34Z"/><polygon class="cls-4" points="42.48 2.12 41.87 9.38 45.8 6.05 42.48 2.12"/><circle class="cls-5" cx="19.4" cy="16.75" r="6.15"/><path class="cls-6" d="M22.45,16.13H20.84L20,15.31V13.7a.61.61,0,0,0-.62-.61h0a.61.61,0,0,0-.62.61v1.61l-.82.82h-1.6a.62.62,0,1,0,0,1.24H18l.82.82v1.6a.62.62,0,0,0,.62.62.62.62,0,0,0,.62-.62v-1.6l.82-.82h1.61a.62.62,0,0,0,0-1.24Z"/></g></svg>