<svg xmlns="http://www.w3.org/2000/svg" viewBox="0 0 95.5 72.08"><defs><style>.cls-1{fill:#a6a8ab;}.cls-2{fill:#6d6f70;}.cls-3{fill:#bbbdbf;}.cls-4{fill:#d0d2d3;}.cls-5{fill:#808184;}.cls-6{fill:#e7e7e8;}.cls-7{fill:#a7a8ab;}.cls-8{fill:#59595b;}.cls-9{fill:#929497;}.cls-10{font-size:3.94px;}.cls-10,.cls-12{fill:none;stroke:#929497;stroke-width:0.5px;font-family:Helvetica;}.cls-11{letter-spacing:-0.02em;}.cls-12{font-size:4.04px;}.cls-13{letter-spacing:-0.02em;}.cls-14{fill:#c1986c;}.cls-15{fill:#ef4036;}</style></defs><title>SuperRail Kit_Source</title><g id="Rulers"><path class="cls-1" d="M52.71,20.65v9.47L79.47,14.68V5.05ZM67.4,16.57c-.2.12-.36,0-.36-.21a.81.81,0,0,1,.36-.63c.21-.11.37,0,.37.21A.8.8,0,0,1,67.4,16.57Zm6.32.1c-.18.1-.32,0-.32-.19a.69.69,0,0,1,.32-.55c.18-.11.32,0,.32.18A.7.7,0,0,1,73.72,16.67Zm0-6.22c-.18.1-.32,0-.32-.19a.7.7,0,0,1,.32-.56c.18-.1.32,0,.32.19A.73.73,0,0,1,73.72,10.45Zm4.86,3.41c-.18.1-.32,0-.32-.19a.73.73,0,0,1,.32-.56c.18-.1.32,0,.32.19A.7.7,0,0,1,78.58,13.86Zm0-6.22c-.18.1-.32,0-.32-.19a.7.7,0,0,1,.32-.56c.18-.1.32,0,.32.19A.73.73,0,0,1,78.58,7.64Z"/><polygon class="cls-2" points="81.71 4.08 81.07 3.76 81.17 3.29 81.82 3.65 81.71 4.08"/><path class="cls-3" d="M52.71,23.66v2.86L74,14.21V11.3ZM67.4,16.57c-.2.12-.36,0-.36-.21a.81.81,0,0,1,.36-.63c.21-.12.37,0,.37.21A.78.78,0,0,1,67.4,16.57Z"/><polygon class="cls-3" points="52.55 20.5 79.35 4.88 78.85 4.6 52.06 20.22 52.55 20.5"/><path class="cls-4" d="M52.55,20.5a.26.26,0,0,1,.16.15L79.47,5.05a.22.22,0,0,0-.12-.17Z"/><polygon class="cls-5" points="74.02 11.3 74.25 11.16 74.25 14.6 74.02 14.21 74.02 11.3"/><polygon class="cls-4" points="74.25 14.6 52.7 27.06 52.7 26.52 74.02 14.21 74.25 14.6"/><polygon class="cls-2" points="74.25 11.1 52.7 23.63 52.7 23.66 74.02 11.3 74.25 11.16 74.25 11.1"/><path class="cls-5" d="M78.73,6.85a.31.31,0,0,1,0,.15.69.69,0,0,1-.32.55.3.3,0,0,1-.14,0c0,.09.16.11.28,0a.73.73,0,0,0,.32-.56C78.9,6.93,78.83,6.85,78.73,6.85Z"/><path class="cls-5" d="M80.59,14.55H80.3a.41.41,0,0,1-.18-.05l-.55-.34V5.53h1Z"/><path class="cls-1" d="M80.78,5.48s.79-.35.79-.67V8.54a.17.17,0,0,1-.09.16l-.2.13a.55.55,0,0,0-.27.48v1.6a.17.17,0,0,0,.25.15s.31-.17.31-.28V14a.09.09,0,0,1,0,.08l-.75.46Z"/><path class="cls-3" d="M80.59,14.55a.39.39,0,0,0,.19-.05v-9a.44.44,0,0,1-.19,0Z"/><path class="cls-6" d="M81.36,10.5h-.07l-.22-.1v.13a.24.24,0,0,0,.1.19l0,0a0,0,0,0,1,0,.06l-.21.12s0,.15.23.14a.89.89,0,0,0,.25-.14.18.18,0,0,0,0-.31l-.1-.07Z"/><path class="cls-7" d="M81.5,8.69h0a.52.52,0,0,1,.24.44v1a.25.25,0,0,1-.13.22l-.19.11,0-.09a.32.32,0,0,0,0-.14v-1a.59.59,0,0,0-.23-.45h0Z"/><path class="cls-5" d="M81.26,8.82c.07,0,.23.22.23.45v1s0,.17-.07.19a.36.36,0,0,1-.14,0L81,10.37V9.26A.66.66,0,0,1,81.26,8.82Z"/><path class="cls-8" d="M81.07,10.4l-.07,0v.57l.21-.12a0,0,0,0,0,0-.06h0a.28.28,0,0,1-.13-.24Z"/><polygon class="cls-9" points="79.57 14.16 79.47 14.22 79.47 5.59 79.57 5.54 79.57 14.16"/><path class="cls-1" d="M81.94,3.36l-1-.55a.27.27,0,0,0-.26,0L80.45,3a.6.6,0,0,0-.3.52V3.6a.15.15,0,0,1-.07.12L79.54,4a.11.11,0,0,0-.06.1V5.35l1.07,0,.81-.47,0-.75.12-.47.48-.15.09.19,0-.2C82,3.45,82,3.41,81.94,3.36Z"/><path class="cls-6" d="M79.47,5.35h.92a.48.48,0,0,0,.26-.07l.41-.23a.32.32,0,0,0,.17-.36,1.84,1.84,0,0,1-.06-.63.61.61,0,0,1,.3-.51l.32-.18a.16.16,0,0,1,.24.14v.21a.26.26,0,0,1-.12.22l-.2.14V3.75s0,0,0,0l-.17.09a.13.13,0,0,0-.08.12v.31a.14.14,0,0,0,0,.06l.11.25a.48.48,0,0,1-.14.57,4.2,4.2,0,0,1-.66.4.54.54,0,0,1-.28.08h-1Z"/><path class="cls-5" d="M67.57,15.68a.39.39,0,0,1,0,.17.82.82,0,0,1-.37.63.27.27,0,0,1-.16.05c.06.1.18.13.32,0a.78.78,0,0,0,.37-.63C67.77,15.77,67.69,15.68,67.57,15.68Z"/><path class="cls-4" d="M78.25,7.48c0,.23.16.32.35.21A.79.79,0,0,0,79,7.07c0-.22-.16-.32-.36-.2a.78.78,0,0,0-.25.26.66.66,0,0,1,.23-.24c.18-.1.32,0,.32.19a.73.73,0,0,1-.32.56c-.18.1-.32,0-.32-.19a.69.69,0,0,1,0-.24A.66.66,0,0,0,78.25,7.48Z"/><path class="cls-5" d="M78.73,13.07a.33.33,0,0,1,0,.15.7.7,0,0,1-.32.56.27.27,0,0,1-.14,0c0,.09.16.11.28,0a.7.7,0,0,0,.32-.56C78.9,13.16,78.83,13.07,78.73,13.07Z"/><path class="cls-4" d="M78.25,13.71c0,.22.16.31.35.2A.78.78,0,0,0,79,13.3c0-.23-.16-.32-.36-.21a.82.82,0,0,0-.25.27.7.7,0,0,1,.23-.25c.18-.1.32,0,.32.19a.7.7,0,0,1-.32.56c-.18.1-.32,0-.32-.19a.74.74,0,0,1,0-.24A.71.71,0,0,0,78.25,13.71Z"/><path class="cls-5" d="M73.87,15.88a.33.33,0,0,1,0,.15.7.7,0,0,1-.32.56.28.28,0,0,1-.15,0c.06.09.16.11.29,0a.7.7,0,0,0,.32-.56C74,16,74,15.88,73.87,15.88Z"/><path class="cls-4" d="M73.39,16.52c0,.22.16.31.35.2a.78.78,0,0,0,.36-.61c0-.23-.16-.32-.36-.21a.93.93,0,0,0-.25.27.66.66,0,0,1,.23-.24c.18-.11.32,0,.32.18a.7.7,0,0,1-.32.56c-.18.1-.32,0-.32-.19a.74.74,0,0,1,0-.24A.71.71,0,0,0,73.39,16.52Z"/><path class="cls-5" d="M73.86,9.66a.24.24,0,0,1,0,.15.69.69,0,0,1-.32.55.24.24,0,0,1-.15.05c.06.09.16.11.29,0A.73.73,0,0,0,74,9.89C74,9.74,74,9.66,73.86,9.66Z"/><path class="cls-4" d="M73.39,10.29c0,.23.16.32.35.21a.79.79,0,0,0,.36-.62c0-.22-.16-.32-.36-.2a.63.63,0,0,0-.25.26.66.66,0,0,1,.23-.24c.18-.1.32,0,.32.19a.73.73,0,0,1-.32.56c-.18.1-.32,0-.32-.19a.69.69,0,0,1,0-.24A.66.66,0,0,0,73.39,10.29Z"/><rect class="cls-2" x="5.37" y="46.82" width="0.56" height="1.24"/><path class="cls-1" d="M5.7,46.62a.34.34,0,0,1-.14-.3l-.08,0a.18.18,0,0,0-.11.17v.29a.29.29,0,0,0,.14.24l.14.08h.2l-.06.1a.07.07,0,0,0,0,.06v.32l-.94.55-.07,0H4.64V48.1a.23.23,0,0,0-.1-.19l-1-.6a.15.15,0,0,0-.13,0l-.24.13a.74.74,0,0,0-.39.65v8.8a.37.37,0,0,0,.19.33l.42.25v.44a.12.12,0,0,1-.07.12L3,58.19a.55.55,0,0,0-.27.48v.09a.29.29,0,0,0,.14.25l.88.52.28-.14v-.26a.11.11,0,0,1,.06-.1L4.27,59a.71.71,0,0,0,.38-.62v-.16a.45.45,0,0,0,.36,0l1-.6a.16.16,0,0,0,.09-.15V47.32l.24-.3ZM3.75,51.74a.61.61,0,0,1-.27-.48c0-.17.12-.24.27-.15a.59.59,0,0,1,.27.47C4,51.75,3.9,51.83,3.75,51.74Zm.3,4.19a.51.51,0,0,1-.24-.42c0-.15.1-.21.24-.13a.51.51,0,0,1,.23.41C4.28,55.94,4.18,56,4.05,55.93Zm0-2.26a.53.53,0,0,1-.24-.42c0-.15.1-.21.24-.14a.55.55,0,0,1,.23.42C4.28,53.68,4.18,53.74,4.05,53.67Zm0-4a.5.5,0,0,1-.24-.41c0-.15.1-.21.24-.14a.53.53,0,0,1,.23.42C4.28,49.66,4.18,49.72,4.05,49.64Zm1.21,6.77a.48.48,0,0,1-.24.42L4.8,57a.11.11,0,0,1-.13,0l-.08-.06v0l.27-.13a.19.19,0,0,0,.1-.16v-.68a.65.65,0,0,0-.29-.56l0,0-.08,0h0a.67.67,0,0,0,.46,0l.23-.12Zm0-2.43a.46.46,0,0,1-.24.41l-.22.13a.12.12,0,0,1-.13,0l-.08-.06v0l.27-.13a.18.18,0,0,0,.1-.16v-.68a.62.62,0,0,0-.29-.55l0,0-.08,0h0a.67.67,0,0,0,.46,0l.23-.12Zm0-3.92a.49.49,0,0,1-.24.42l-.22.12a.12.12,0,0,1-.13,0l-.08-.06v0l.27-.14A.18.18,0,0,0,5,50.2v-.68A.62.62,0,0,0,4.67,49l0,0-.08,0h0a.62.62,0,0,0,.46,0l.23-.12Z"/><path class="cls-3" d="M4.24,55.61a.39.39,0,0,1,0,.18c0,.15-.1.22-.23.14a.51.51,0,0,1-.24-.42c0-.15.1-.21.24-.13a.37.37,0,0,1,.13.12.83.83,0,0,0-.27-.26c-.23-.14-.42,0-.42.24a1,1,0,0,0,.42.74c.24.14.43,0,.43-.25A.85.85,0,0,0,4.24,55.61Z"/><path class="cls-3" d="M4.23,55.58l0-.06Z"/><path class="cls-3" d="M4.24,49.33a.39.39,0,0,1,0,.18c0,.15-.1.21-.23.13a.5.5,0,0,1-.24-.41c0-.15.1-.21.24-.14a.4.4,0,0,1,.13.13A.87.87,0,0,0,3.91,49a.38.38,0,0,0-.19-.06.28.28,0,0,1-.17.09.36.36,0,0,0-.06.22,1,1,0,0,0,.42.74c.24.13.43,0,.43-.25A.81.81,0,0,0,4.24,49.33Z"/><path class="cls-3" d="M4.24,53.35a.39.39,0,0,1,0,.18c0,.15-.1.21-.23.14a.53.53,0,0,1-.24-.42c0-.15.1-.21.24-.14a.53.53,0,0,1,.13.13A.87.87,0,0,0,3.91,53c-.23-.13-.42,0-.42.25a1,1,0,0,0,.42.74c.24.13.43,0,.43-.25A.81.81,0,0,0,4.24,53.35Z"/><path class="cls-3" d="M4.24,53.33l0-.07Z"/><path class="cls-3" d="M6.6,47.25V58L75.89,18V7.28Zm1.13,8.3a.19.19,0,0,1-.3-.18.65.65,0,0,1,.3-.51c.17-.1.3,0,.3.17A.66.66,0,0,1,7.73,55.55Zm0-7a.19.19,0,0,1-.3-.18.65.65,0,0,1,.3-.51c.17-.1.3,0,.3.17A.66.66,0,0,1,7.73,48.52Zm3.68,2.14c-.2.12-.36,0-.36-.21a.8.8,0,0,1,.36-.63c.21-.12.37,0,.37.21A.8.8,0,0,1,11.41,50.66ZM20,48.45c-.17.09-.3,0-.3-.18a.63.63,0,0,1,.3-.51c.16-.1.3,0,.3.17A.69.69,0,0,1,20,48.45Zm0-7c-.17.09-.3,0-.3-.17a.63.63,0,0,1,.3-.52c.16-.1.3,0,.3.17A.69.69,0,0,1,20,41.42Zm13.76-.91c-.17.09-.3,0-.3-.18a.63.63,0,0,1,.3-.51c.16-.1.29,0,.29.17A.68.68,0,0,1,33.79,40.51Zm0-7c-.17.09-.3,0-.3-.18a.63.63,0,0,1,.3-.51c.16-.1.29,0,.29.17A.68.68,0,0,1,33.79,33.48Zm7.45-.74c-.2.11-.36,0-.36-.21a.81.81,0,0,1,.36-.64c.2-.11.37,0,.37.21A.82.82,0,0,1,41.24,32.74Zm7.52-.89c-.17.1-.3,0-.3-.17a.63.63,0,0,1,.3-.51c.16-.1.3,0,.3.17A.65.65,0,0,1,48.76,31.85Zm0-7c-.17.09-.3,0-.3-.18a.63.63,0,0,1,.3-.51c.16-.1.3,0,.3.17A.69.69,0,0,1,48.76,24.83Zm13.76-.92c-.17.09-.3,0-.3-.18a.63.63,0,0,1,.3-.51c.16-.1.3,0,.3.17A.69.69,0,0,1,62.52,23.91Zm0-7c-.17.09-.3,0-.3-.18a.63.63,0,0,1,.3-.51c.16-.1.3,0,.3.17A.69.69,0,0,1,62.52,16.88Zm8.56-1.36c-.21.12-.37,0-.37-.21a.8.8,0,0,1,.37-.63c.2-.12.36,0,.36.21A.8.8,0,0,1,71.08,15.52Zm3.71,1.3c-.17.1-.3,0-.3-.17a.66.66,0,0,1,.3-.52c.16-.09.3,0,.3.17A.67.67,0,0,1,74.79,16.82Zm0-7c-.17.1-.3,0-.3-.17a.66.66,0,0,1,.3-.52c.16-.09.3,0,.3.17A.67.67,0,0,1,74.79,9.79Z"/><path class="cls-3" d="M77,20,10.15,58.54a2.82,2.82,0,0,1-2.53,0L6.6,58h0v.25l1,.59a2.82,2.82,0,0,0,2.53,0L77,20.24a.75.75,0,0,0,.39-.62h0v-.31A.77.77,0,0,1,77,20Z"/><path class="cls-4" d="M77.42,19.26v0Z"/><path class="cls-4" d="M77.42,19.26a.77.77,0,0,0-.39-.62L75.89,18,6.6,58h0l1,.58a2.82,2.82,0,0,0,2.53,0L77,20a.77.77,0,0,0,.39-.67Z"/><path class="cls-3" d="M75.49,6.6l-69.36,40-.47-.32s-.12,0-.12-.23L74.61,6.32h0a1.33,1.33,0,0,1,.65.16Z"/><path class="cls-4" d="M6.15,46.6a.66.66,0,0,1,.45.65l69.29-40a.71.71,0,0,0-.4-.68Z"/><path class="cls-9" d="M74.76,15.79l-.09.07c.18-.06.32,0,.32.27a.91.91,0,0,1-.4.7c-.21.12-.39,0-.41-.19a1.23,1.23,0,0,0,0,.19c0,.39.27.54.6.35a1.33,1.33,0,0,0,.6-1C75.36,15.76,75.09,15.6,74.76,15.79Z"/><path class="cls-2" d="M75.07,16h0l-.19-.11h0a.25.25,0,0,0-.19,0,1.35,1.35,0,0,0-.48.78.23.23,0,0,0,.13.22h0l.16.09a.27.27,0,0,0,.31,0,.9.9,0,0,0,.4-.7A.31.31,0,0,0,75.07,16Zm-.28.84c-.17.1-.3,0-.3-.17a.66.66,0,0,1,.3-.52c.16-.09.3,0,.3.17A.67.67,0,0,1,74.79,16.82Z"/><path class="cls-8" d="M74.79,16.13l-.08.06a.73.73,0,0,1-.21.36.34.34,0,0,0,0,.1c0,.19.13.27.3.17a.67.67,0,0,0,.3-.52C75.09,16.11,75,16,74.79,16.13Z"/><path class="cls-3" d="M74.79,16a.91.91,0,0,0-.41.7c0,.26.19.36.41.23a.9.9,0,0,0,.4-.7C75.19,16,75,15.88,74.79,16Zm0,.81c-.17.1-.3,0-.3-.17a.66.66,0,0,1,.3-.52c.16-.09.3,0,.3.17A.67.67,0,0,1,74.79,16.82Z"/><path class="cls-9" d="M74.76,8.67l-.09.06c.18-.06.32,0,.32.27a.9.9,0,0,1-.4.7c-.21.12-.39,0-.41-.19a1.5,1.5,0,0,0,0,.2c0,.38.27.54.6.35a1.35,1.35,0,0,0,.6-1C75.36,8.63,75.09,8.48,74.76,8.67Z"/><path class="cls-2" d="M75.07,8.86h0l-.19-.11h0a.25.25,0,0,0-.19,0,1.42,1.42,0,0,0-.48.78.26.26,0,0,0,.13.23h0l.16.09a.27.27,0,0,0,.31,0,.9.9,0,0,0,.4-.7A.28.28,0,0,0,75.07,8.86Zm-.28.84c-.17.09-.3,0-.3-.18a.63.63,0,0,1,.3-.51c.16-.1.3,0,.3.17A.69.69,0,0,1,74.79,9.7Z"/><path class="cls-8" d="M74.79,9a.24.24,0,0,0-.08.06.7.7,0,0,1-.21.35.38.38,0,0,0,0,.1c0,.19.13.27.3.18a.69.69,0,0,0,.3-.52C75.09,9,75,8.91,74.79,9Z"/><path class="cls-3" d="M74.79,8.89a.9.9,0,0,0-.41.69c0,.26.19.36.41.24a.9.9,0,0,0,.4-.7C75.19,8.86,75,8.76,74.79,8.89Zm0,.81c-.17.09-.3,0-.3-.18a.63.63,0,0,1,.3-.51c.16-.1.3,0,.3.17A.69.69,0,0,1,74.79,9.7Z"/><path class="cls-9" d="M62.49,22.88l-.09.06c.18-.06.32,0,.32.27a.9.9,0,0,1-.4.7c-.21.12-.38,0-.4-.19a.69.69,0,0,0,0,.2c0,.38.27.54.6.35a1.32,1.32,0,0,0,.6-1C63.09,22.84,62.83,22.69,62.49,22.88Z"/><path class="cls-2" d="M62.8,23.07h0L62.61,23h0a.31.31,0,0,0-.19,0,1.42,1.42,0,0,0-.48.78.28.28,0,0,0,.13.23h0l.16.09a.27.27,0,0,0,.31,0,.9.9,0,0,0,.4-.7A.27.27,0,0,0,62.8,23.07Zm-.28.84c-.17.09-.3,0-.3-.18a.63.63,0,0,1,.3-.51c.16-.1.3,0,.3.17A.69.69,0,0,1,62.52,23.91Z"/><path class="cls-8" d="M62.52,23.22a.24.24,0,0,0-.08.06.7.7,0,0,1-.21.35s0,.07,0,.1c0,.19.13.27.3.18a.69.69,0,0,0,.3-.52C62.82,23.2,62.68,23.12,62.52,23.22Z"/><path class="cls-3" d="M62.52,23.1a.88.88,0,0,0-.4.69c0,.26.18.36.4.24a.9.9,0,0,0,.4-.7C62.92,23.07,62.74,23,62.52,23.1Zm0,.81c-.17.09-.3,0-.3-.18a.63.63,0,0,1,.3-.51c.16-.1.3,0,.3.17A.69.69,0,0,1,62.52,23.91Z"/><path class="cls-9" d="M62.49,15.85l-.09.06c.18-.06.32.05.32.27a.9.9,0,0,1-.4.7c-.21.12-.38,0-.4-.19a.75.75,0,0,0,0,.2c0,.38.27.54.6.35a1.32,1.32,0,0,0,.6-1C63.09,15.81,62.83,15.66,62.49,15.85Z"/><path class="cls-2" d="M62.8,16h0l-.19-.11h0a.25.25,0,0,0-.19,0,1.42,1.42,0,0,0-.48.78.28.28,0,0,0,.13.23h0l.16.09a.27.27,0,0,0,.31,0,.9.9,0,0,0,.4-.7A.27.27,0,0,0,62.8,16Zm-.28.84c-.17.09-.3,0-.3-.18a.63.63,0,0,1,.3-.51c.16-.1.3,0,.3.17A.69.69,0,0,1,62.52,16.88Z"/><path class="cls-8" d="M62.52,16.19a.24.24,0,0,0-.08.06.7.7,0,0,1-.21.35s0,.07,0,.1c0,.19.13.27.3.18a.69.69,0,0,0,.3-.52C62.82,16.17,62.68,16.09,62.52,16.19Z"/><path class="cls-3" d="M62.52,16.07a.88.88,0,0,0-.4.69c0,.26.18.36.4.24a.9.9,0,0,0,.4-.7C62.92,16,62.74,15.94,62.52,16.07Zm0,.81c-.17.09-.3,0-.3-.18a.63.63,0,0,1,.3-.51c.16-.1.3,0,.3.17A.69.69,0,0,1,62.52,16.88Z"/><path class="cls-9" d="M48.73,30.83l-.09.06c.18-.06.32.05.32.27a.9.9,0,0,1-.4.7c-.21.12-.39,0-.4-.19a.69.69,0,0,0,0,.2c0,.38.27.54.6.35a1.35,1.35,0,0,0,.6-1C49.33,30.79,49.06,30.64,48.73,30.83Z"/><path class="cls-2" d="M49,31h0l-.19-.11h0a.31.31,0,0,0-.19,0,1.39,1.39,0,0,0-.48.78.23.23,0,0,0,.13.22h0l.16.09a.27.27,0,0,0,.31,0,.9.9,0,0,0,.4-.7A.28.28,0,0,0,49,31Zm-.28.83c-.17.1-.3,0-.3-.17a.63.63,0,0,1,.3-.51c.16-.1.3,0,.3.17A.65.65,0,0,1,48.76,31.85Z"/><path class="cls-8" d="M48.76,31.17a.16.16,0,0,0-.08.06.7.7,0,0,1-.21.35s0,.07,0,.1c0,.19.13.27.3.17a.65.65,0,0,0,.3-.51C49.06,31.15,48.92,31.07,48.76,31.17Z"/><path class="cls-3" d="M48.76,31.05a.88.88,0,0,0-.4.69c0,.26.18.36.4.24a.9.9,0,0,0,.4-.7C49.16,31,49,30.92,48.76,31.05Zm0,.8c-.17.1-.3,0-.3-.17a.63.63,0,0,1,.3-.51c.16-.1.3,0,.3.17A.65.65,0,0,1,48.76,31.85Z"/><path class="cls-9" d="M48.73,23.8l-.09.06c.18-.06.32.05.32.27a.9.9,0,0,1-.4.7c-.21.12-.39,0-.4-.19a.69.69,0,0,0,0,.2c0,.38.27.54.6.35a1.35,1.35,0,0,0,.6-1C49.33,23.76,49.06,23.61,48.73,23.8Z"/><path class="cls-2" d="M49,24h0l-.19-.11h0a.31.31,0,0,0-.19,0,1.39,1.39,0,0,0-.48.78.23.23,0,0,0,.13.22h0l.16.09a.27.27,0,0,0,.31,0,.9.9,0,0,0,.4-.7A.28.28,0,0,0,49,24Zm-.28.84c-.17.09-.3,0-.3-.18a.63.63,0,0,1,.3-.51c.16-.1.3,0,.3.17A.69.69,0,0,1,48.76,24.83Z"/><path class="cls-8" d="M48.76,24.14a.16.16,0,0,0-.08.06.7.7,0,0,1-.21.35s0,.07,0,.1c0,.19.13.27.3.18a.69.69,0,0,0,.3-.52C49.06,24.12,48.92,24,48.76,24.14Z"/><path class="cls-3" d="M48.76,24a.88.88,0,0,0-.4.69c0,.26.18.36.4.24a.9.9,0,0,0,.4-.7C49.16,24,49,23.89,48.76,24Zm0,.81c-.17.09-.3,0-.3-.18a.63.63,0,0,1,.3-.51c.16-.1.3,0,.3.17A.69.69,0,0,1,48.76,24.83Z"/><path class="cls-9" d="M33.76,39.48l-.09.06c.18-.06.32.05.32.27a.88.88,0,0,1-.41.7c-.2.12-.38,0-.4-.19a1.5,1.5,0,0,0,0,.2c0,.38.27.54.6.35a1.33,1.33,0,0,0,.6-1C34.36,39.44,34.09,39.29,33.76,39.48Z"/><path class="cls-2" d="M34.07,39.67h0l-.19-.11h0a.25.25,0,0,0-.19,0,1.49,1.49,0,0,0-.49.78.26.26,0,0,0,.14.23h0l.16.09a.27.27,0,0,0,.31,0,.9.9,0,0,0,.4-.7A.28.28,0,0,0,34.07,39.67Zm-.28.84c-.17.09-.3,0-.3-.18a.63.63,0,0,1,.3-.51c.16-.1.29,0,.29.17A.68.68,0,0,1,33.79,40.51Z"/><path class="cls-8" d="M33.79,39.82a.24.24,0,0,0-.08.06.7.7,0,0,1-.21.35.38.38,0,0,0,0,.1c0,.19.13.27.3.18a.68.68,0,0,0,.29-.52C34.08,39.8,34,39.72,33.79,39.82Z"/><path class="cls-3" d="M33.79,39.7a.88.88,0,0,0-.41.7c0,.25.18.36.41.23a.9.9,0,0,0,.4-.7C34.19,39.67,34,39.57,33.79,39.7Zm0,.81c-.17.09-.3,0-.3-.18a.63.63,0,0,1,.3-.51c.16-.1.29,0,.29.17A.68.68,0,0,1,33.79,40.51Z"/><path class="cls-9" d="M33.76,32.45l-.09.06c.18-.06.32.05.32.27a.88.88,0,0,1-.41.7c-.2.12-.38,0-.4-.19a1.5,1.5,0,0,0,0,.2c0,.38.27.54.6.35a1.33,1.33,0,0,0,.6-1C34.36,32.41,34.09,32.26,33.76,32.45Z"/><path class="cls-2" d="M34.07,32.64h0l-.19-.11h0a.25.25,0,0,0-.19,0,1.49,1.49,0,0,0-.49.78.26.26,0,0,0,.14.23h0l.16.09a.27.27,0,0,0,.31,0,.9.9,0,0,0,.4-.7A.28.28,0,0,0,34.07,32.64Zm-.28.84c-.17.09-.3,0-.3-.18a.63.63,0,0,1,.3-.51c.16-.1.29,0,.29.17A.68.68,0,0,1,33.79,33.48Z"/><path class="cls-8" d="M33.79,32.79l-.08.06a.7.7,0,0,1-.21.35.38.38,0,0,0,0,.1c0,.2.13.27.3.18a.68.68,0,0,0,.29-.52C34.08,32.77,34,32.69,33.79,32.79Z"/><path class="cls-3" d="M33.79,32.67a.88.88,0,0,0-.41.7c0,.25.18.36.41.23a.9.9,0,0,0,.4-.7C34.19,32.64,34,32.54,33.79,32.67Zm0,.81c-.17.09-.3,0-.3-.18a.63.63,0,0,1,.3-.51c.16-.1.29,0,.29.17A.68.68,0,0,1,33.79,33.48Z"/><path class="cls-9" d="M20,47.42l-.09.06c.18-.06.32.05.32.27a.9.9,0,0,1-.4.7c-.21.12-.39,0-.4-.19a.75.75,0,0,0,0,.2c0,.38.27.54.6.35a1.33,1.33,0,0,0,.6-1C20.6,47.38,20.33,47.23,20,47.42Z"/><path class="cls-2" d="M20.31,47.61h0l-.19-.11h0a.25.25,0,0,0-.19,0,1.42,1.42,0,0,0-.48.78.25.25,0,0,0,.13.23h0l.16.09a.27.27,0,0,0,.31,0,.9.9,0,0,0,.4-.7A.28.28,0,0,0,20.31,47.61Zm-.28.84c-.17.09-.3,0-.3-.18a.63.63,0,0,1,.3-.51c.16-.1.3,0,.3.17A.69.69,0,0,1,20,48.45Z"/><path class="cls-8" d="M20,47.76l-.08.06a.7.7,0,0,1-.21.35s0,.07,0,.1c0,.19.13.27.3.18a.69.69,0,0,0,.3-.52C20.33,47.74,20.19,47.66,20,47.76Z"/><path class="cls-3" d="M20,47.64a.9.9,0,0,0-.4.7c0,.25.18.36.4.23a.9.9,0,0,0,.4-.7C20.43,47.61,20.25,47.51,20,47.64Zm0,.81c-.17.09-.3,0-.3-.18a.63.63,0,0,1,.3-.51c.16-.1.3,0,.3.17A.69.69,0,0,1,20,48.45Z"/><path class="cls-9" d="M20,40.39l-.09.06c.18-.06.32,0,.32.27a.9.9,0,0,1-.4.7c-.21.12-.39,0-.4-.19a.75.75,0,0,0,0,.2c0,.38.27.54.6.35a1.33,1.33,0,0,0,.6-1C20.6,40.36,20.33,40.2,20,40.39Z"/><path class="cls-2" d="M20.31,40.58h0l-.19-.11h0a.25.25,0,0,0-.19,0,1.42,1.42,0,0,0-.48.78.25.25,0,0,0,.13.23h0l.16.09a.27.27,0,0,0,.31,0,.9.9,0,0,0,.4-.7A.28.28,0,0,0,20.31,40.58Zm-.28.84c-.17.09-.3,0-.3-.17a.63.63,0,0,1,.3-.52c.16-.1.3,0,.3.17A.69.69,0,0,1,20,41.42Z"/><path class="cls-8" d="M20,40.73l-.08.06a.7.7,0,0,1-.21.35s0,.07,0,.11.13.26.3.17a.69.69,0,0,0,.3-.52C20.33,40.71,20.19,40.63,20,40.73Z"/><path class="cls-3" d="M20,40.61a.9.9,0,0,0-.4.7c0,.25.18.36.4.23a.9.9,0,0,0,.4-.7C20.43,40.58,20.25,40.48,20,40.61Zm0,.81c-.17.09-.3,0-.3-.17a.63.63,0,0,1,.3-.52c.16-.1.3,0,.3.17A.69.69,0,0,1,20,41.42Z"/><path class="cls-9" d="M7.71,54.52l-.1.06c.19-.06.32.05.32.27a.9.9,0,0,1-.4.7c-.21.12-.38,0-.4-.19a.71.71,0,0,0,0,.2c0,.38.26.54.6.35a1.35,1.35,0,0,0,.6-1C8.31,54.48,8,54.33,7.71,54.52Z"/><path class="cls-2" d="M8,54.71H8l-.2-.11h0a.25.25,0,0,0-.19,0,1.42,1.42,0,0,0-.48.78.28.28,0,0,0,.13.23h0l.16.09a.27.27,0,0,0,.31,0,.9.9,0,0,0,.4-.7A.28.28,0,0,0,8,54.71Zm-.29.84a.19.19,0,0,1-.3-.18.65.65,0,0,1,.3-.51c.17-.1.3,0,.3.17A.66.66,0,0,1,7.73,55.55Z"/><path class="cls-8" d="M7.73,54.86s-.05,0-.08.06a.77.77,0,0,1-.2.35.44.44,0,0,0,0,.1.19.19,0,0,0,.3.18A.66.66,0,0,0,8,55C8,54.84,7.9,54.76,7.73,54.86Z"/><path class="cls-3" d="M7.73,54.74a.89.89,0,0,0-.4.69c0,.26.18.37.4.24a.9.9,0,0,0,.4-.7C8.13,54.71,8,54.61,7.73,54.74Zm0,.81a.19.19,0,0,1-.3-.18.65.65,0,0,1,.3-.51c.17-.1.3,0,.3.17A.66.66,0,0,1,7.73,55.55Z"/><path class="cls-9" d="M7.71,47.49l-.1.06c.19-.06.32.05.32.27a.9.9,0,0,1-.4.7c-.21.12-.38,0-.4-.19a.71.71,0,0,0,0,.2c0,.38.26.54.6.35a1.33,1.33,0,0,0,.6-1C8.31,47.45,8,47.3,7.71,47.49Z"/><path class="cls-2" d="M8,47.68H8l-.2-.11h0a.25.25,0,0,0-.19,0,1.42,1.42,0,0,0-.48.78.28.28,0,0,0,.13.23h0l.16.09a.27.27,0,0,0,.31,0,.9.9,0,0,0,.4-.7A.28.28,0,0,0,8,47.68Zm-.29.84a.19.19,0,0,1-.3-.18.65.65,0,0,1,.3-.51c.17-.1.3,0,.3.17A.66.66,0,0,1,7.73,48.52Z"/><path class="cls-8" d="M7.73,47.83s-.05,0-.08.06a.77.77,0,0,1-.2.35.44.44,0,0,0,0,.1.19.19,0,0,0,.3.18A.66.66,0,0,0,8,48C8,47.81,7.9,47.73,7.73,47.83Z"/><path class="cls-3" d="M7.73,47.71a.89.89,0,0,0-.4.69c0,.26.18.37.4.24a.9.9,0,0,0,.4-.7C8.13,47.68,8,47.58,7.73,47.71Zm0,.81a.19.19,0,0,1-.3-.18.65.65,0,0,1,.3-.51c.17-.1.3,0,.3.17A.66.66,0,0,1,7.73,48.52Z"/><text class="cls-10" transform="matrix(0.87, -0.5, 0, 1, 63.17, 18.43)">RIGH<tspan class="cls-11" x="9.86" y="0">T</tspan></text><text class="cls-12" transform="matrix(0.87, -0.5, 0, 1, 9.51, 49.44)">LEF<tspan class="cls-13" x="7.41" y="0">T</tspan></text><polygon class="cls-2" points="6.09 57.48 6.39 57.67 6.39 47.02 6.09 46.79 6.09 57.48"/><path class="cls-3" d="M4.64,48.19v-.11a.17.17,0,0,0-.25-.15l-.23.12a.69.69,0,0,0-.36.6v0a.29.29,0,0,1-.25.29c-.06,0,0,0,0,0a.75.75,0,0,0,.24-.07A.4.4,0,0,0,4,48.53v-.09s0,0,0-.06l.33-.17v.11Z"/><path class="cls-9" d="M5.77,47.62l.26.14-.94.55a.73.73,0,0,1-.69,0h0l.24-.13h0a.23.23,0,0,0,.2,0Z"/><path class="cls-3" d="M5.26,48.74V50a.52.52,0,0,1-.18.46l.26.14a.65.65,0,0,0,.16-.46V48.85a.14.14,0,0,0-.15-.15Z"/><path class="cls-9" d="M5.08,50.44l-.27.16a.12.12,0,0,1-.14,0l-.08-.05v0H4.48l-.17-.06v.12a.21.21,0,0,0,.08.16l.05,0a.78.78,0,0,0,.6,0l.3-.18Z"/><path class="cls-3" d="M5.26,52.65v1.24c0,.36-.18.46-.18.46l.26.15A.65.65,0,0,0,5.5,54V52.76a.15.15,0,0,0-.15-.15Z"/><path class="cls-9" d="M5.08,54.35l-.27.16a.12.12,0,0,1-.14,0l-.08-.06v0H4.48l-.17-.06v.12a.18.18,0,0,0,.08.16l.05,0a.78.78,0,0,0,.6,0l.3-.17Z"/><path class="cls-3" d="M5.26,55.09v1.24a.52.52,0,0,1-.18.46l.26.15a.69.69,0,0,0,.16-.47V55.2a.14.14,0,0,0-.15-.15Z"/><path class="cls-9" d="M5.08,56.79,4.81,57a.12.12,0,0,1-.14,0l-.08-.06v0H4.48l-.17-.06v.12a.21.21,0,0,0,.08.16l.05,0a.78.78,0,0,0,.6,0l.3-.17Z"/><path class="cls-5" d="M4.24,55.61a.39.39,0,0,1,0,.18c0,.15-.1.22-.23.14a.51.51,0,0,1-.24-.42c0-.15.1-.21.24-.13a.37.37,0,0,1,.13.12A.69.69,0,0,0,4,55.31c-.18-.1-.33,0-.33.19a.71.71,0,0,0,.33.56c.17.1.32,0,.32-.19A.68.68,0,0,0,4.24,55.61Z"/><path class="cls-14" d="M4.23,55.58l0,0Z"/><path class="cls-5" d="M4.24,53.35a.39.39,0,0,1,0,.18c0,.15-.1.21-.23.14a.53.53,0,0,1-.24-.42c0-.15.1-.21.24-.14a.63.63,0,0,1,.18.21A.71.71,0,0,0,4,53.05c-.18-.1-.33,0-.33.19A.74.74,0,0,0,4,53.8c.17.1.32,0,.32-.19A.68.68,0,0,0,4.24,53.35Z"/><path class="cls-5" d="M4.24,49.33a.39.39,0,0,1,0,.18c0,.15-.1.21-.23.13a.5.5,0,0,1-.24-.41c0-.15.1-.21.24-.14a.59.59,0,0,1,.18.2A.76.76,0,0,0,4,49c-.18-.1-.33,0-.33.19a.7.7,0,0,0,.33.55c.17.11.32,0,.32-.18A.59.59,0,0,0,4.24,49.33Z"/><path class="cls-9" d="M3.63,51.07a.21.21,0,0,0,0,.12.61.61,0,0,0,.27.48.21.21,0,0,0,.12,0c0,.07-.13.09-.24,0a.62.62,0,0,1-.28-.48C3.47,51.14,3.54,51.07,3.63,51.07Z"/><path class="cls-3" d="M4.41,58.09l.24.08v.3a.49.49,0,0,1-.27.43L4.11,59a.1.1,0,0,0-.06.09v.26l-.28.14v-.27a.56.56,0,0,1,.31-.5l.26-.14a.11.11,0,0,0,.07-.11Z"/><path class="cls-3" d="M4.53,56.83s.19,0,.19-.13V56a.48.48,0,0,0-.23-.4l-.12-.08a.14.14,0,0,1-.06-.11v-.15a0,0,0,0,1,.05,0l.18.07.09,0a.65.65,0,0,1,.33.57v.69a.19.19,0,0,1-.1.17A.47.47,0,0,1,4.53,56.83Z"/><path class="cls-3" d="M4.53,54.38s.19,0,.19-.13V53.5a.48.48,0,0,0-.23-.4L4.37,53a.14.14,0,0,1-.06-.11v-.15a0,0,0,0,1,.05,0l.18.07.09.05a.65.65,0,0,1,.33.57v.69a.19.19,0,0,1-.1.17A.47.47,0,0,1,4.53,54.38Z"/><path class="cls-3" d="M4.53,50.47s.19,0,.19-.13v-.75a.5.5,0,0,0-.23-.41l-.12-.08A.11.11,0,0,1,4.31,49v-.14s0-.05.05,0l.18.07.09,0a.68.68,0,0,1,.33.58v.69a.21.21,0,0,1-.1.17A.52.52,0,0,1,4.53,50.47Z"/><path class="cls-9" d="M5.54,46.06v.29a.33.33,0,0,0,.16.28l.48.29a.38.38,0,0,1,.18.32V57.79a.48.48,0,0,0,.25.43h0v-11a.82.82,0,0,0-.21-.46.19.19,0,0,0-.07-.06l-.67-.4a.21.21,0,0,1-.11-.18Z"/><path class="cls-9" d="M11.58,49.77a.34.34,0,0,1,0,.16.8.8,0,0,1-.37.64.37.37,0,0,1-.16,0c.06.1.18.12.32,0a.8.8,0,0,0,.37-.63C11.78,49.86,11.7,49.77,11.58,49.77Z"/><path class="cls-9" d="M41.41,31.84a.43.43,0,0,1,0,.17.84.84,0,0,1-.37.64.34.34,0,0,1-.16,0c.06.11.18.13.32.05a.82.82,0,0,0,.37-.64C41.61,31.94,41.53,31.84,41.41,31.84Z"/><path class="cls-9" d="M71.24,14.63a.39.39,0,0,1,0,.17.78.78,0,0,1-.37.63.27.27,0,0,1-.16.05.22.22,0,0,0,.32,0,.81.81,0,0,0,.37-.64C71.44,14.73,71.36,14.63,71.24,14.63Z"/><polygon class="cls-9" points="20.86 66.39 89.94 26.24 88.64 25.48 19.55 65.63 20.86 66.39"/><polygon class="cls-1" points="19.55 65.63 88.64 25.48 88.67 15.94 19.58 56.09 19.55 65.63"/><path d="M33.28,56.92c-.17.1-.3,0-.3-.17a.63.63,0,0,1,.3-.51c.16-.1.3,0,.3.17A.65.65,0,0,1,33.28,56.92Z"/><path class="cls-8" d="M33.28,56.24a.16.16,0,0,0-.08.06.7.7,0,0,1-.21.35s0,.07,0,.1c0,.19.13.27.3.17a.65.65,0,0,0,.3-.51C33.58,56.22,33.44,56.14,33.28,56.24Z"/><path d="M47,49c-.16.09-.3,0-.3-.17a.69.69,0,0,1,.3-.52c.17-.09.3,0,.3.17A.66.66,0,0,1,47,49Z"/><path class="cls-8" d="M47,48.3l-.08.06a.8.8,0,0,1-.2.36.3.3,0,0,0,0,.1c0,.19.14.26.3.17a.66.66,0,0,0,.3-.52C47.3,48.28,47.17,48.21,47,48.3Z"/><path class="cls-2" d="M27.11,53.8l-.19.13V55.3a.19.19,0,0,0,0,.12l.22.3a.19.19,0,0,1,0,.12v2.57a.18.18,0,0,1-.08.15l-.12.09a.16.16,0,0,0-.08.14v3.07l.17-.1V58.82l.28-.27V55.69l-.28-.38Z"/><polygon class="cls-3" points="91.93 26.56 92.17 26.42 92.17 25.77 91.93 25.9 91.93 26.56"/><path class="cls-5" d="M90.84,15.65,89,16.72v9.37L90.84,25l.25-2.89h-.5a.4.4,0,0,1-.39-.4V20.24a.55.55,0,0,1,.63-.55h0Z"/><path class="cls-1" d="M90.84,15.9,89,17v9.37l1.85-1.07,0-2.9h-.27a.4.4,0,0,1-.39-.4V20.48a.56.56,0,0,1,.63-.55h0Z"/><path class="cls-3" d="M92.74,17.28l-.56-1a.55.55,0,0,1-.07-.25h0a.21.21,0,0,1,.11-.19l.18-.12a0,0,0,0,1,0,0v.33l.27-.21v-.27a.19.19,0,0,0-.29-.16l-.25.15a.7.7,0,0,0-.33.6v.06a.41.41,0,0,0,.05.19l.57,1V26a.11.11,0,0,1,0,.08l0,.06.1-.05.18-.11h0a.18.18,0,0,0,0-.1Z"/><path class="cls-9" d="M91.9,15.94l.34-.37.44-.07-1.05-.63a.24.24,0,0,0-.23,0l-.22.12a.74.74,0,0,0-.37.63c0,.33,0,.74,0,.73s0,3.57,0,3.57l.2,0v.16l-.2,0a.26.26,0,0,0-.29.26v1.23a.27.27,0,0,0,.17.25.59.59,0,0,1,.19.08h0a.1.1,0,0,1,0,.08v.1a.05.05,0,0,1,0,.05h0a.08.08,0,0,0,0,.07v3.5A.32.32,0,0,0,91,26l1,.53v-.45a.1.1,0,0,1,.15-.09l.22.14h.13l0-.14v-8.6l-.62-1.06Zm-.81,5.84a.56.56,0,0,1-.25-.44c0-.17.11-.23.25-.15a.57.57,0,0,1,.26.44A.16.16,0,0,1,91.09,21.78Zm.4-2a.69.69,0,0,1-.3-.53c0-.19.14-.27.3-.17a.66.66,0,0,1,.3.52C91.79,19.83,91.66,19.91,91.49,19.82Z"/><path class="cls-8" d="M91.44,19.1v0a.63.63,0,0,0,.3.52l.05,0c0,.15-.14.21-.3.13a.69.69,0,0,1-.3-.53C91.19,19.12,91.3,19,91.44,19.1Z"/><path class="cls-8" d="M91.09,21.19l.09.07a.68.68,0,0,0,.15.26.52.52,0,0,1,0,.11c0,.17-.11.23-.26.15a.56.56,0,0,1-.25-.44C90.84,21.17,91,21.11,91.09,21.19Z"/><path class="cls-1" d="M91.35,21.63a.54.54,0,0,0-.26-.44.16.16,0,0,0-.2,0h0l-.15-.27.23-.15.08,0h0a.33.33,0,0,1,.31,0l.11.08h0a1.08,1.08,0,0,1,.38.77.38.38,0,0,1-.12.3h0s0,0,0,0l-.26.16h-.19l-.12-.28C91.26,21.85,91.35,21.78,91.35,21.63Z"/><path class="cls-9" d="M90.6,21.22a1.05,1.05,0,0,0,.48.84c.27.16.49,0,.49-.28a1.06,1.06,0,0,0-.49-.84C90.81,20.78,90.6,20.91,90.6,21.22Zm.24.12c0-.17.11-.23.25-.15a.54.54,0,0,1,.26.44c0,.17-.11.23-.26.15A.56.56,0,0,1,90.84,21.34Z"/><path class="cls-1" d="M27.11,53.8v1.51l.28.38v2.86l-.28.27v2.94l62-35.84V17.8Z"/><path class="cls-5" d="M82.51,20.88v1.56l.38.24.72-.4a.28.28,0,0,1,.43.24v3.13a1,1,0,0,1-.51.89l-.62.35-.4.65v1.18l.36.17L89,25.37V17.11Z"/><path class="cls-3" d="M82.78,21v1.59l.38.24.73-.44a.28.28,0,0,1,.42.24v3.14a1,1,0,0,1-.51.88l-.61.36-.41.64v1.18l.36.17,6.56-3.76V17Z"/><path class="cls-9" d="M83.64,27.11l-.1.06c.19-.06.32,0,.32.27a.9.9,0,0,1-.4.7c-.21.12-.38,0-.4-.19a.71.71,0,0,0,0,.2c0,.38.27.54.6.35a1.35,1.35,0,0,0,.6-1C84.24,27.07,84,26.92,83.64,27.11Z"/><path class="cls-2" d="M84,27.3h0l-.2-.11h0a.24.24,0,0,0-.19,0,1.42,1.42,0,0,0-.48.78.28.28,0,0,0,.13.23h0l.16.09a.27.27,0,0,0,.31,0,.9.9,0,0,0,.4-.7A.28.28,0,0,0,84,27.3Zm-.29.84a.19.19,0,0,1-.3-.18.65.65,0,0,1,.3-.51c.17-.1.3,0,.3.17A.66.66,0,0,1,83.66,28.14Z"/><path class="cls-8" d="M83.66,27.45s0,0-.08.06a.69.69,0,0,1-.2.35.44.44,0,0,0,0,.1.19.19,0,0,0,.3.18.66.66,0,0,0,.3-.52C84,27.43,83.83,27.35,83.66,27.45Z"/><path class="cls-3" d="M83.66,27.33a.88.88,0,0,0-.4.69c0,.26.18.36.4.24a.9.9,0,0,0,.4-.7C84.06,27.3,83.88,27.2,83.66,27.33Zm0,.81a.19.19,0,0,1-.3-.18.65.65,0,0,1,.3-.51c.17-.1.3,0,.3.17A.66.66,0,0,1,83.66,28.14Z"/><path class="cls-9" d="M83.64,20.88l-.1.07c.19-.06.32,0,.32.27a.88.88,0,0,1-.4.69c-.21.13-.38,0-.4-.18a.62.62,0,0,0,0,.19c0,.39.27.54.6.35a1.33,1.33,0,0,0,.6-1C84.24,20.85,84,20.69,83.64,20.88Z"/><path class="cls-2" d="M84,21.07h0l-.2-.11h0a.25.25,0,0,0-.19,0,1.36,1.36,0,0,0-.48.77.26.26,0,0,0,.13.23h0l.16.09a.27.27,0,0,0,.31,0,.9.9,0,0,0,.4-.7A.3.3,0,0,0,84,21.07Zm-.29.84c-.16.09-.3,0-.3-.17a.69.69,0,0,1,.3-.52c.17-.09.3,0,.3.17A.66.66,0,0,1,83.66,21.91Z"/><path class="cls-8" d="M83.66,21.22l-.08.06a.72.72,0,0,1-.2.36.3.3,0,0,0,0,.1c0,.19.14.26.3.17a.66.66,0,0,0,.3-.52C84,21.2,83.83,21.13,83.66,21.22Z"/><path class="cls-3" d="M83.66,21.1a.9.9,0,0,0-.4.7c0,.26.18.36.4.23a.9.9,0,0,0,.4-.7C84.06,21.08,83.88,21,83.66,21.1Zm0,.81c-.16.09-.3,0-.3-.17a.69.69,0,0,1,.3-.52c.17-.09.3,0,.3.17A.66.66,0,0,1,83.66,21.91Z"/><path class="cls-9" d="M88.5,24.31a.33.33,0,0,0-.1.06c.19-.06.32.05.32.27a.9.9,0,0,1-.4.7c-.21.12-.38,0-.4-.19a.65.65,0,0,0,0,.2c0,.38.26.53.6.34a1.32,1.32,0,0,0,.6-1C89.1,24.27,88.83,24.11,88.5,24.31Z"/><path class="cls-2" d="M88.81,24.5h0l-.2-.11h0a.31.31,0,0,0-.19,0,1.39,1.39,0,0,0-.48.78.25.25,0,0,0,.13.22h0l.16.1a.29.29,0,0,0,.31,0,.89.89,0,0,0,.4-.69A.28.28,0,0,0,88.81,24.5Zm-.29.83c-.16.1-.3,0-.3-.17a.69.69,0,0,1,.3-.52c.17-.09.3,0,.3.18A.63.63,0,0,1,88.52,25.33Z"/><path class="cls-8" d="M88.52,24.64l-.08.07a.77.77,0,0,1-.2.35.36.36,0,0,0,0,.1c0,.19.14.27.3.17a.63.63,0,0,0,.3-.51C88.82,24.63,88.69,24.55,88.52,24.64Z"/><path class="cls-3" d="M88.52,24.52a.9.9,0,0,0-.4.7c0,.26.18.36.4.23a.89.89,0,0,0,.4-.69C88.92,24.5,88.74,24.39,88.52,24.52Zm0,.81c-.16.1-.3,0-.3-.17a.69.69,0,0,1,.3-.52c.17-.09.3,0,.3.18A.63.63,0,0,1,88.52,25.33Z"/><path class="cls-9" d="M88.5,18.08l-.1.07c.19-.06.32,0,.32.27a.88.88,0,0,1-.4.69c-.21.13-.38,0-.4-.18a.62.62,0,0,0,0,.19c0,.39.26.54.6.35a1.33,1.33,0,0,0,.6-1C89.1,18.05,88.83,17.89,88.5,18.08Z"/><path class="cls-2" d="M88.81,18.27h0l-.2-.11h0a.25.25,0,0,0-.19,0,1.36,1.36,0,0,0-.48.77.26.26,0,0,0,.13.23h0l.16.09a.27.27,0,0,0,.31,0,.9.9,0,0,0,.4-.7A.3.3,0,0,0,88.81,18.27Zm-.29.84c-.16.1-.3,0-.3-.17a.69.69,0,0,1,.3-.52c.17-.09.3,0,.3.17A.65.65,0,0,1,88.52,19.11Z"/><path class="cls-8" d="M88.52,18.42l-.08.06a.8.8,0,0,1-.2.36.36.36,0,0,0,0,.1c0,.19.14.27.3.17a.65.65,0,0,0,.3-.52C88.82,18.4,88.69,18.33,88.52,18.42Z"/><path class="cls-3" d="M88.52,18.3a.9.9,0,0,0-.4.7c0,.26.18.36.4.23a.9.9,0,0,0,.4-.7C88.92,18.28,88.74,18.17,88.52,18.3Zm0,.81c-.16.1-.3,0-.3-.17a.69.69,0,0,1,.3-.52c.17-.09.3,0,.3.17A.65.65,0,0,1,88.52,19.11Z"/><polygon class="cls-3" points="27.75 52.51 89.58 16.59 89.08 16.31 27.26 52.22 27.75 52.51"/><path class="cls-4" d="M27.75,52.51a.22.22,0,0,1,.15.15l61.8-35.9a.22.22,0,0,0-.12-.17Z"/><path class="cls-3" d="M27.39,55.69v2.86L84.15,25.71v-2.9Z"/><polygon class="cls-4" points="84.15 22.81 27.39 55.69 27.11 55.31 83.92 22.41 84.15 22.81"/><polygon class="cls-2" points="84.15 25.71 27.39 58.55 27.11 58.82 84.13 25.8 84.15 25.71"/><path class="cls-2" d="M89.59,25.8a.3.3,0,0,0-.45-.26L28,60.88a.62.62,0,0,0-.32.54V62L89.59,26Z"/><path class="cls-3" d="M27.9,53.4,89.39,17.69a.65.65,0,0,0,.31-.55v-.38L27.9,52.66Z"/><path class="cls-3" d="M89.73,25.89a.3.3,0,0,0-.45-.26L28.15,61a.63.63,0,0,0-.31.55v.54L89.73,26.12Z"/><path class="cls-1" d="M17.41,68.45v.09a.29.29,0,0,0,.14.25l.87.52.28-.14v-.26a.12.12,0,0,1,.07-.1l.15-.08a.68.68,0,0,0,.38-.62V68l.19.09a.14.14,0,0,0,.2-.13V59.83a.16.16,0,0,0,0-.09l-.61-1.14V58l-.35.2-.06.4-.4.21-.53-.23v.72a.31.31,0,0,0,.17.27l.06,0-.09.07v2.14l.23.19-.38.26v.91l.22.31-.07.12v.67l.24.16-.4.24v1L18,66h-.1v1.23l.17.08v.43a.17.17,0,0,1-.07.13l-.27.16A.53.53,0,0,0,17.41,68.45Zm1.49-9.14c0,.15-.1.21-.23.14a.54.54,0,0,1-.24-.41c0-.15.11-.21.24-.14A.53.53,0,0,1,18.9,59.31Zm-.47,6c0-.15.11-.21.24-.13a.49.49,0,0,1,.23.4c0,.15-.1.21-.23.14A.54.54,0,0,1,18.43,65.28Zm0-2.23c0-.15.11-.21.24-.14a.53.53,0,0,1,.23.41c0,.15-.1.21-.23.13A.5.5,0,0,1,18.43,63.05Zm-.05-1.79c0-.19.14-.26.3-.17a.66.66,0,0,1,.3.52c0,.19-.13.26-.3.17A.69.69,0,0,1,18.38,61.26Z"/><path class="cls-9" d="M19.94,56.73v3l-.66-1.32v-.51a.23.23,0,0,0-.07-.17l-.07-.07-.77-.44a0,0,0,0,1,0,0l.75-.44a.28.28,0,0,1,.13,0Z"/><path class="cls-3" d="M19.94,66.51l6.26-3.6A1.6,1.6,0,0,0,27,61.52V53.35a.44.44,0,0,0-.66-.38l-6.41,3.76Z"/><path class="cls-9" d="M26.14,54.12l-.1.07c.19-.06.32,0,.32.27a.91.91,0,0,1-.4.7c-.21.12-.38,0-.4-.19a.62.62,0,0,0,0,.19c0,.39.26.54.6.35a1.33,1.33,0,0,0,.6-1C26.74,54.09,26.47,53.93,26.14,54.12Z"/><path class="cls-2" d="M26.45,54.31h0l-.2-.11h0a.25.25,0,0,0-.19,0,1.35,1.35,0,0,0-.48.78.25.25,0,0,0,.13.22h0l.16.09a.27.27,0,0,0,.31,0,.9.9,0,0,0,.4-.7A.3.3,0,0,0,26.45,54.31Zm-.29.84c-.16.1-.3,0-.3-.17a.69.69,0,0,1,.3-.52c.17-.09.3,0,.3.17A.65.65,0,0,1,26.16,55.15Z"/><path class="cls-8" d="M26.16,54.46l-.08.06a.8.8,0,0,1-.2.36.36.36,0,0,0,0,.1c0,.19.14.27.3.17a.65.65,0,0,0,.3-.52C26.46,54.44,26.33,54.37,26.16,54.46Z"/><path class="cls-3" d="M26.16,54.34a.9.9,0,0,0-.4.7c0,.26.18.36.4.23a.9.9,0,0,0,.4-.7C26.56,54.32,26.38,54.21,26.16,54.34Zm0,.81c-.16.1-.3,0-.3-.17a.69.69,0,0,1,.3-.52c.17-.09.3,0,.3.17A.65.65,0,0,1,26.16,55.15Z"/><path class="cls-9" d="M26.13,60.6l-.09.06c.18-.06.31.05.31.27a.9.9,0,0,1-.4.7c-.21.12-.38,0-.4-.19a1.5,1.5,0,0,0,0,.2c0,.38.27.54.6.35a1.35,1.35,0,0,0,.6-1C26.73,60.56,26.46,60.41,26.13,60.6Z"/><path class="cls-2" d="M26.44,60.79h0l-.2-.11h0a.22.22,0,0,0-.18,0,1.38,1.38,0,0,0-.49.78.28.28,0,0,0,.13.23h0l.17.09a.25.25,0,0,0,.3,0,.9.9,0,0,0,.4-.7A.28.28,0,0,0,26.44,60.79Zm-.29.84c-.16.09-.29,0-.29-.18a.64.64,0,0,1,.29-.51c.17-.1.3,0,.3.17A.66.66,0,0,1,26.15,61.63Z"/><path class="cls-8" d="M26.15,60.94s0,0-.08.06a.69.69,0,0,1-.2.35.38.38,0,0,0,0,.1c0,.19.13.27.29.18a.66.66,0,0,0,.3-.52C26.45,60.92,26.32,60.84,26.15,60.94Z"/><path class="cls-3" d="M26.15,60.82a.88.88,0,0,0-.4.69c0,.26.18.36.4.24a.88.88,0,0,0,.41-.7C26.56,60.79,26.38,60.69,26.15,60.82Zm0,.81c-.16.09-.29,0-.29-.18a.64.64,0,0,1,.29-.51c.17-.1.3,0,.3.17A.66.66,0,0,1,26.15,61.63Z"/><path class="cls-9" d="M21.29,62.29l-.09.06c.18-.06.32,0,.32.27a.88.88,0,0,1-.41.7c-.21.12-.38,0-.4-.19a1.36,1.36,0,0,0,0,.2c0,.38.27.53.6.34a1.32,1.32,0,0,0,.6-1C21.89,62.25,21.62,62.1,21.29,62.29Z"/><path class="cls-2" d="M21.6,62.48h0l-.19-.12h0a.31.31,0,0,0-.19,0,1.4,1.4,0,0,0-.49.78.25.25,0,0,0,.13.22h0l.17.1a.28.28,0,0,0,.3,0,.88.88,0,0,0,.41-.69A.28.28,0,0,0,21.6,62.48Zm-.28.83c-.17.1-.3,0-.3-.17a.66.66,0,0,1,.3-.52c.16-.09.29,0,.29.18A.64.64,0,0,1,21.32,63.31Z"/><path class="cls-8" d="M21.32,62.62l-.09.07A.62.62,0,0,1,21,63a.34.34,0,0,0,0,.1c0,.19.13.27.3.17a.64.64,0,0,0,.29-.51C21.61,62.61,21.48,62.53,21.32,62.62Z"/><path class="cls-3" d="M21.32,62.5a.88.88,0,0,0-.41.7c0,.26.18.36.41.23a.89.89,0,0,0,.4-.69C21.72,62.48,21.54,62.37,21.32,62.5Zm0,.81c-.17.1-.3,0-.3-.17a.66.66,0,0,1,.3-.52c.16-.09.29,0,.29.18A.64.64,0,0,1,21.32,63.31Z"/><path class="cls-9" d="M21.28,58.08l-.09.06c.18-.06.32,0,.32.28a.88.88,0,0,1-.41.69c-.21.12-.38,0-.4-.19a1.5,1.5,0,0,0,0,.2c0,.38.27.54.6.35a1.33,1.33,0,0,0,.6-1C21.88,58.05,21.61,57.89,21.28,58.08Z"/><path class="cls-2" d="M21.59,58.27h0l-.19-.11h0a.25.25,0,0,0-.19,0,1.43,1.43,0,0,0-.49.78.27.27,0,0,0,.13.23h0l.17.09a.25.25,0,0,0,.3,0,.88.88,0,0,0,.41-.7A.28.28,0,0,0,21.59,58.27Zm-.28.84c-.17.09-.3,0-.3-.17a.65.65,0,0,1,.3-.52c.16-.1.29,0,.29.17A.68.68,0,0,1,21.31,59.11Z"/><path class="cls-8" d="M21.31,58.42l-.09.06a.62.62,0,0,1-.2.35.41.41,0,0,0,0,.11c0,.19.13.26.3.17a.68.68,0,0,0,.29-.52C21.6,58.4,21.47,58.32,21.31,58.42Z"/><path class="cls-3" d="M21.31,58.3a.88.88,0,0,0-.41.7c0,.25.18.36.41.23a.9.9,0,0,0,.4-.7C21.71,58.27,21.53,58.17,21.31,58.3Zm0,.81c-.17.09-.3,0-.3-.17a.65.65,0,0,1,.3-.52c.16-.1.29,0,.29.17A.68.68,0,0,1,21.31,59.11Z"/><path d="M21.27,64.7c-.17.09-.3,0-.3-.17a.66.66,0,0,1,.3-.52c.16-.09.3,0,.3.17A.69.69,0,0,1,21.27,64.7Z"/><path class="cls-8" d="M21.27,64l-.08.06a.66.66,0,0,1-.21.35s0,.07,0,.11.13.26.3.17a.69.69,0,0,0,.3-.52C21.57,64,21.43,63.92,21.27,64Z"/><path d="M21.31,57.65c-.17.09-.3,0-.3-.17a.65.65,0,0,1,.3-.52c.16-.1.29,0,.29.17A.68.68,0,0,1,21.31,57.65Z"/><path class="cls-8" d="M21.31,57l-.09.06a.62.62,0,0,1-.2.35.41.41,0,0,0,0,.11c0,.19.13.26.3.17a.68.68,0,0,0,.29-.52C21.6,56.94,21.47,56.86,21.31,57Z"/><path class="cls-3" d="M18.86,63.14a.42.42,0,0,1,0,.18c0,.16-.1.22-.23.14a.51.51,0,0,1-.24-.41c0-.16.1-.22.24-.14a.71.71,0,0,1,.13.12.83.83,0,0,0-.27-.26c-.23-.14-.42,0-.42.24a.93.93,0,0,0,.42.74c.24.14.43,0,.43-.24A.86.86,0,0,0,18.86,63.14Z"/><path class="cls-3" d="M18.86,63.13l-.05-.08Z"/><path class="cls-9" d="M18.64,62.88v0a.54.54,0,0,0,.25.43l0,0a.15.15,0,0,1-.25.11.54.54,0,0,1-.25-.43C18.42,62.89,18.52,62.82,18.64,62.88Z"/><path class="cls-9" d="M18.64,65.11v0a.56.56,0,0,0,.25.44h0c0,.14-.12.19-.25.12a.56.56,0,0,1-.25-.44C18.42,65.12,18.52,65.06,18.64,65.11Z"/><path class="cls-9" d="M18.64,58.87v0a.56.56,0,0,0,.25.44h0c0,.14-.12.19-.25.11a.54.54,0,0,1-.25-.43C18.42,58.88,18.52,58.81,18.64,58.87Z"/><path class="cls-5" d="M18.86,63.14a.42.42,0,0,1,0,.18c0,.16-.1.22-.23.14a.51.51,0,0,1-.24-.41c0-.16.1-.22.24-.14a.59.59,0,0,1,.18.2.68.68,0,0,0-.24-.26c-.18-.11-.33,0-.33.18a.71.71,0,0,0,.33.56c.17.1.32,0,.32-.19A.68.68,0,0,0,18.86,63.14Z"/><path class="cls-9" d="M18.65,61.08v0a.68.68,0,0,0,.29.52h0c0,.17-.14.23-.3.14a.69.69,0,0,1-.3-.52C18.38,61.09,18.5,61,18.65,61.08Z"/><path class="cls-3" d="M18.86,65.38a.39.39,0,0,1,0,.18c0,.15-.1.21-.24.14a.54.54,0,0,1-.24-.42c0-.15.11-.21.24-.14a.57.57,0,0,1,.14.13.83.83,0,0,0-.27-.26c-.23-.14-.42,0-.42.24a1,1,0,0,0,.42.74c.24.13.43,0,.43-.25A.85.85,0,0,0,18.86,65.38Z"/><path class="cls-3" d="M18.85,65.35l0-.06Z"/><path class="cls-5" d="M18.86,65.38a.39.39,0,0,1,0,.18c0,.15-.1.21-.24.14a.54.54,0,0,1-.24-.42c0-.15.11-.21.24-.14a.57.57,0,0,1,.14.13.68.68,0,0,0-.19-.19c-.18-.1-.33,0-.33.19a.74.74,0,0,0,.33.56c.17.1.32,0,.32-.19A.68.68,0,0,0,18.86,65.38Z"/><path class="cls-14" d="M18.84,65.35a.08.08,0,0,0,0,0A.08.08,0,0,1,18.84,65.35Z"/><path class="cls-3" d="M18.87,59.14a.58.58,0,0,1,0,.18c0,.15-.11.21-.24.13a.5.5,0,0,1-.24-.41c0-.15.1-.21.24-.14a.4.4,0,0,1,.13.13.78.78,0,0,0-.27-.27c-.23-.13-.42,0-.42.25a1,1,0,0,0,.42.74c.24.13.43,0,.43-.25A1,1,0,0,0,18.87,59.14Z"/><path class="cls-3" d="M18.86,59.12a.56.56,0,0,1-.05-.08A.56.56,0,0,0,18.86,59.12Z"/><path class="cls-5" d="M18.87,59.14a.58.58,0,0,1,0,.18c0,.15-.11.21-.24.13a.5.5,0,0,1-.24-.41c0-.15.1-.21.24-.14a.59.59,0,0,1,.18.2.68.68,0,0,0-.24-.26c-.18-.1-.32,0-.32.19a.69.69,0,0,0,.32.55c.18.11.32,0,.32-.18A.58.58,0,0,0,18.87,59.14Z"/><path class="cls-4" d="M17.55,57.38,18.6,58l-.06.12a.81.81,0,0,0-.09.37v.06a.23.23,0,0,1-.32.21l-.5-.22a.43.43,0,0,1-.26-.4V58a1.25,1.25,0,0,1,.16-.6Z"/><path class="cls-4" d="M18.28,58.77l.28-.09a.15.15,0,0,0,.09-.1l.05-.37h0L19,58a0,0,0,0,1,0,0v.47a.58.58,0,0,0,.06.26l.57,1h0V68s0,0,0,0l.21-.1a0,0,0,0,0,0,0V59.68a.17.17,0,0,0,0-.1l-.57-1a.27.27,0,0,1,0-.12v-.57a.14.14,0,0,0-.21-.12l-.48.26a.33.33,0,0,0-.17.28v.24a.29.29,0,0,1-.07.16Z"/><path class="cls-4" d="M20.24,56.26l.26.13-.56.34h-.69a.23.23,0,0,0-.14,0l-.74.43a0,0,0,0,0,0,0l.87.5L18.6,58l-1.05-.62,1.32-.77a.74.74,0,0,1,.36-.09h.56Z"/><polygon class="cls-15" points="89.79 16.65 88.5 15.88 88.61 15.81 89.91 16.59 89.8 16.65 89.79 16.65"/><path class="cls-15" d="M89.93,16.84c0-.11-.11-.17-.13-.19l.11-.06a.23.23,0,0,1,.14.19l-.12.07Z"/><polygon class="cls-4" points="21.03 65.73 90.11 25.58 89.95 25.49 20.86 65.64 21.03 65.73"/><polygon class="cls-3" points="21.03 66.67 90.11 26.52 90.11 25.58 21.03 65.73 21.03 66.67"/><polygon class="cls-3" points="21.05 57.69 90.14 17.54 90.14 16.6 21.05 56.75 21.05 57.69"/><polygon class="cls-4" points="21.05 56.75 90.14 16.6 88.5 15.65 19.42 55.8 21.05 56.75"/><polygon class="cls-9" points="20.89 56.84 19.58 56.09 19.58 56.52 19.42 56.52 19.42 55.8 21.05 56.75 21.05 57.69 20.89 57.59 20.89 56.84"/><polygon class="cls-9" points="20.51 66.18 20.86 66.39 20.86 65.64 21.03 65.73 21.03 66.67 20.34 66.28 20.51 66.18"/></g></svg>