<?xml version="1.0" encoding="UTF-8"?><svg xmlns="http://www.w3.org/2000/svg" width="4.125in" height="3.083in" viewBox="0 0 297 222.007"><g id="a"><rect x="1.6" y="4.189" width="293.969" height="58.794" fill="none" stroke="#a2aaad" stroke-linecap="round" stroke-linejoin="round" stroke-width="1.199"/><rect x="9.45" y="33.68" width="135.226" height="23.518" fill="#caced0" stroke="#a2aaad" stroke-linecap="round" stroke-linejoin="round" stroke-width="1.225"/><rect x="151.912" y="33.68" width="135.226" height="23.518" fill="#caced0" stroke="#a2aaad" stroke-linecap="round" stroke-linejoin="round" stroke-width="1.225"/><path d="M64.488,15.573h1.125v2.556h2.925v-2.556h1.125v6.426h-1.125v-2.898h-2.925v2.898h-1.125v-6.426Z" fill="#221f1f"/><path d="M73.001,22.124c-.372,0-.704-.062-.994-.185-.292-.123-.537-.292-.738-.509-.201-.216-.354-.474-.459-.773s-.157-.63-.157-.99c0-.354.052-.681.157-.98.105-.301.258-.559.459-.774s.447-.386.738-.509c.291-.123.622-.185.994-.185s.704.062.995.185.537.293.738.509c.201.216.354.474.459.774.105.3.158.627.158.98,0,.36-.053.69-.158.99s-.258.558-.459.773c-.201.217-.447.386-.738.509s-.623.185-.995.185ZM73.001,21.315c.228,0,.426-.049.594-.145s.306-.222.414-.378.188-.331.238-.526.077-.395.077-.599c0-.198-.026-.396-.077-.594s-.13-.374-.238-.526c-.108-.153-.246-.277-.414-.374-.168-.096-.366-.144-.594-.144s-.426.048-.594.144c-.168.097-.306.221-.414.374-.108.152-.188.328-.239.526-.051.198-.076.396-.076.594,0,.204.025.403.076.599.051.195.131.37.239.526s.246.282.414.378.366.145.594.145Z" fill="#221f1f"/><path d="M76.979,20.504c.03.3.144.51.342.63.198.12.435.181.711.181.096,0,.205-.008.328-.022.123-.016.239-.044.347-.086s.196-.104.266-.185c.069-.081.1-.188.094-.319s-.054-.24-.144-.324c-.09-.084-.206-.151-.346-.202-.141-.051-.302-.095-.481-.131-.18-.036-.363-.075-.549-.117-.192-.042-.376-.093-.553-.152-.177-.061-.336-.142-.477-.243-.141-.103-.253-.232-.337-.392-.084-.159-.126-.355-.126-.59,0-.252.061-.463.184-.634.123-.172.279-.31.468-.414.189-.105.399-.179.63-.221s.452-.063.662-.063c.24,0,.469.026.688.077.219.051.417.133.594.247.177.114.324.263.441.445.117.184.19.404.22.662h-1.071c-.048-.246-.161-.411-.337-.495-.177-.084-.38-.126-.608-.126-.072,0-.157.006-.256.018-.099.013-.192.035-.279.067-.087.033-.161.081-.221.145-.06.062-.09.146-.09.247,0,.126.043.229.13.307.087.077.201.143.342.193.141.051.301.094.481.13.18.036.366.075.558.117.186.042.369.093.549.153.18.06.34.141.481.243.141.102.255.23.342.387s.131.348.131.576c0,.275-.063.51-.189.702-.126.191-.29.348-.49.468-.201.12-.425.207-.67.261-.246.054-.489.081-.729.081-.294,0-.566-.033-.814-.099-.249-.066-.465-.167-.648-.302-.183-.135-.327-.303-.432-.504s-.161-.439-.167-.716h1.026Z" fill="#221f1f"/><path d="M80.408,17.345h.774v-1.395h1.026v1.395h.927v.766h-.927v2.483c0,.108.004.201.014.279.009.078.03.144.063.198.033.054.082.095.148.121.066.027.156.041.27.041.072,0,.144-.002.216-.005s.144-.014.216-.031v.792c-.114.012-.225.023-.333.036-.108.012-.219.018-.333.018-.27,0-.487-.025-.652-.076s-.294-.126-.387-.226c-.093-.099-.156-.223-.189-.373-.033-.15-.052-.321-.058-.513v-2.745h-.774v-.766Z" fill="#221f1f"/><path d="M86.312,16.743c.216,0,.426-.019.63-.054.204-.036.389-.097.554-.181s.306-.191.423-.324c.117-.132.193-.293.229-.485h.837v6.3h-1.125v-4.446h-1.548v-.81Z" fill="#221f1f"/><path d="M206.115,15.573h1.125v2.556h2.925v-2.556h1.125v6.426h-1.125v-2.898h-2.925v2.898h-1.125v-6.426Z" fill="#221f1f"/><path d="M214.628,22.124c-.372,0-.704-.062-.994-.185-.292-.123-.537-.292-.738-.509-.201-.216-.354-.474-.459-.773s-.157-.63-.157-.99c0-.354.052-.681.157-.98.105-.301.258-.559.459-.774s.447-.386.738-.509c.291-.123.622-.185.994-.185s.704.062.995.185.537.293.738.509c.201.216.354.474.459.774.105.3.158.627.158.98,0,.36-.053.69-.158.99s-.258.558-.459.773c-.201.217-.447.386-.738.509s-.623.185-.995.185ZM214.628,21.315c.228,0,.426-.049.594-.145s.306-.222.414-.378.188-.331.238-.526.077-.395.077-.599c0-.198-.026-.396-.077-.594s-.13-.374-.238-.526c-.108-.153-.246-.277-.414-.374-.168-.096-.366-.144-.594-.144s-.426.048-.594.144c-.168.097-.306.221-.414.374-.108.152-.188.328-.239.526-.051.198-.076.396-.076.594,0,.204.025.403.076.599.051.195.131.37.239.526s.246.282.414.378.366.145.594.145Z" fill="#221f1f"/><path d="M218.606,20.504c.03.3.144.51.342.63.198.12.435.181.711.181.096,0,.205-.008.328-.022.124-.016.239-.044.346-.086.109-.042.197-.104.266-.185s.102-.188.096-.319c-.008-.132-.055-.24-.145-.324s-.205-.151-.347-.202-.302-.095-.481-.131c-.18-.036-.363-.075-.549-.117-.192-.042-.376-.093-.553-.152-.177-.061-.336-.142-.477-.243-.141-.103-.253-.232-.337-.392-.084-.159-.126-.355-.126-.59,0-.252.061-.463.184-.634.123-.172.279-.31.468-.414.189-.105.399-.179.63-.221s.452-.063.662-.063c.24,0,.469.026.689.077.219.051.416.133.594.247.176.114.324.263.441.445.117.184.189.404.221.662h-1.072c-.047-.246-.16-.411-.337-.495-.177-.084-.38-.126-.608-.126-.072,0-.157.006-.256.018-.099.013-.192.035-.279.067-.087.033-.161.081-.221.145-.06.062-.09.146-.09.247,0,.126.043.229.13.307.087.077.201.143.342.193.141.051.301.094.481.13.18.036.366.075.557.117.188.042.369.093.549.153.182.06.342.141.482.243.141.102.256.23.342.387.088.156.131.348.131.576,0,.275-.062.51-.189.702-.125.191-.289.348-.49.468s-.424.207-.67.261-.49.081-.729.081c-.294,0-.566-.033-.814-.099-.249-.066-.465-.167-.648-.302-.183-.135-.327-.303-.432-.504s-.161-.439-.167-.716h1.026Z" fill="#221f1f"/><path d="M222.035,17.345h.773v-1.395h1.026v1.395h.927v.766h-.927v2.483c0,.108.005.201.014.279s.029.144.062.198c.033.054.083.095.148.121.066.027.156.041.271.041.072,0,.144-.002.216-.005s.144-.014.216-.031v.792c-.114.012-.225.023-.333.036-.107.012-.219.018-.333.018-.27,0-.487-.025-.652-.076s-.294-.126-.387-.226c-.094-.099-.156-.223-.189-.373s-.053-.321-.059-.513v-2.745h-.773v-.766Z" fill="#221f1f"/><path d="M232.115,21.999h-4.303c.006-.522.132-.978.378-1.368.246-.39.582-.729,1.009-1.017.203-.15.417-.296.639-.437.222-.142.426-.293.612-.455.186-.162.339-.337.459-.526.12-.188.183-.406.188-.652,0-.114-.014-.235-.04-.364-.027-.129-.08-.249-.157-.36-.078-.11-.187-.204-.324-.279-.139-.074-.318-.112-.54-.112-.204,0-.374.041-.509.122s-.243.191-.324.333c-.081.141-.141.308-.18.499-.039.192-.062.399-.067.621h-1.026c0-.348.047-.67.14-.968.093-.297.232-.553.419-.77.186-.216.412-.385.679-.508.268-.123.578-.185.932-.185.384,0,.705.062.963.188s.467.285.626.478c.159.191.271.4.338.625.065.226.099.439.099.644,0,.252-.039.48-.117.685s-.183.392-.314.562c-.133.171-.282.328-.45.472-.168.145-.342.279-.522.405-.18.126-.359.246-.54.36-.18.114-.347.228-.499.342-.153.114-.287.232-.4.355-.114.123-.192.254-.234.392h3.069v.918Z" fill="#221f1f"/></g><g id="b"><path d="M119.463,206.239h4.626v.972h-3.501v1.683h3.24v.919h-3.24v1.881h3.564v.972h-4.689v-6.426Z" fill="#221f1f"/><path d="M124.89,209.731h2.619v.972h-2.619v-.972Z" fill="#221f1f"/><path d="M129.372,210.523c0,.246.042.456.126.63s.201.316.351.427c.15.111.323.192.518.243.195.052.406.077.634.077.246,0,.456-.028.63-.086.174-.057.315-.131.423-.221s.186-.193.234-.311c.048-.116.072-.235.072-.355,0-.246-.056-.427-.167-.544-.111-.117-.233-.199-.365-.248-.228-.084-.494-.163-.796-.238-.303-.075-.677-.172-1.121-.292-.276-.072-.505-.167-.688-.284s-.329-.247-.437-.392c-.108-.144-.185-.297-.229-.459s-.067-.326-.067-.495c0-.323.067-.604.203-.841.135-.237.313-.434.535-.59.222-.156.474-.271.756-.347.282-.074.567-.112.855-.112.336,0,.652.044.949.131.297.087.558.218.783.392s.403.389.536.644c.132.255.198.55.198.886h-1.125c-.03-.414-.171-.706-.423-.877s-.573-.257-.963-.257c-.132,0-.267.014-.405.041-.138.026-.264.071-.378.135-.114.062-.208.148-.284.257-.075.107-.112.242-.112.404,0,.229.07.407.211.536s.326.227.554.292c.024.006.118.031.283.076.165.046.35.095.554.148.204.055.403.107.599.158.195.051.334.088.418.112.21.066.393.156.549.27.156.114.287.245.392.392.105.147.183.305.234.473.051.168.077.336.077.504,0,.36-.074.668-.221.923s-.34.464-.581.625c-.24.162-.513.281-.819.355-.306.075-.618.113-.936.113-.366,0-.711-.045-1.035-.136-.324-.09-.606-.228-.846-.414-.24-.186-.432-.424-.576-.715s-.219-.635-.225-1.03h1.125Z" fill="#221f1f"/><path d="M135.122,210.604c0,.18.025.354.077.521.051.168.127.315.229.441s.231.227.387.301c.156.075.342.113.558.113.3,0,.542-.064.725-.194.183-.129.32-.322.41-.58h.972c-.054.252-.147.477-.279.675s-.291.364-.477.5c-.186.135-.395.236-.625.306s-.472.104-.725.104c-.366,0-.69-.06-.972-.18-.282-.12-.521-.288-.716-.504-.195-.217-.342-.475-.441-.774s-.148-.63-.148-.99c0-.33.053-.644.158-.94s.255-.558.45-.783c.195-.225.431-.403.707-.535s.588-.198.936-.198c.366,0,.694.077.985.229.291.153.533.355.725.607s.332.542.418.869.109.664.068,1.013h-3.42ZM137.517,209.928c-.012-.162-.046-.317-.104-.468-.057-.149-.135-.28-.234-.392-.099-.11-.219-.201-.36-.27-.141-.069-.299-.104-.473-.104-.18,0-.343.031-.49.095-.147.062-.273.149-.378.261s-.189.241-.252.392c-.063.149-.098.312-.104.485h2.394Z" fill="#221f1f"/><path d="M139.326,208.011h.963v.9h.018c.03-.126.088-.249.175-.369s.192-.229.315-.328c.123-.1.259-.179.409-.239.15-.06.303-.09.459-.09.12,0,.203.003.248.01.045.006.091.012.14.018v.99c-.072-.013-.146-.022-.221-.032-.075-.009-.148-.013-.22-.013-.174,0-.338.034-.491.104-.153.068-.287.171-.4.306-.114.135-.204.302-.27.499-.066.198-.099.427-.099.685v2.214h-1.026v-4.653Z" fill="#221f1f"/><path d="M142.52,206.239h1.026v.972h-1.026v-.972ZM142.52,208.011h1.026v4.653h-1.026v-4.653Z" fill="#221f1f"/><path d="M145.463,210.604c0,.18.025.354.077.521.051.168.127.315.229.441s.231.227.387.301c.156.075.342.113.558.113.3,0,.542-.064.725-.194.183-.129.32-.322.41-.58h.972c-.054.252-.147.477-.279.675s-.291.364-.477.5c-.186.135-.395.236-.625.306s-.472.104-.725.104c-.366,0-.69-.06-.972-.18-.282-.12-.521-.288-.716-.504-.195-.217-.342-.475-.441-.774s-.148-.63-.148-.99c0-.33.053-.644.158-.94s.255-.558.45-.783c.195-.225.431-.403.707-.535s.588-.198.936-.198c.366,0,.694.077.985.229.291.153.533.355.725.607s.332.542.418.869.109.664.068,1.013h-3.42ZM147.857,209.928c-.012-.162-.046-.317-.104-.468-.057-.149-.135-.28-.234-.392-.099-.11-.219-.201-.36-.27-.141-.069-.299-.104-.473-.104-.18,0-.343.031-.49.095-.147.062-.273.149-.378.261s-.189.241-.252.392c-.063.149-.098.312-.104.485h2.394Z" fill="#221f1f"/><path d="M150.44,211.17c.03.3.144.51.342.63.198.12.435.181.711.181.096,0,.205-.008.328-.022.123-.016.239-.044.347-.086s.196-.104.266-.185c.069-.081.1-.188.094-.319s-.054-.24-.144-.324c-.09-.084-.206-.151-.346-.202-.141-.051-.302-.095-.481-.131-.18-.036-.363-.075-.549-.117-.192-.042-.376-.093-.553-.152-.177-.061-.336-.142-.477-.243-.141-.103-.253-.232-.337-.392-.084-.159-.126-.355-.126-.59,0-.252.061-.463.184-.634.123-.172.279-.31.468-.414.189-.105.399-.179.63-.221s.452-.063.662-.063c.24,0,.469.026.688.077.219.051.417.133.594.247.177.114.324.263.441.445.117.184.19.404.22.662h-1.071c-.048-.246-.161-.411-.337-.495-.177-.084-.38-.126-.608-.126-.072,0-.157.006-.256.018-.099.013-.192.035-.279.067-.087.033-.161.081-.221.145-.06.062-.09.146-.09.247,0,.126.043.229.13.307.087.077.201.143.342.193.141.051.301.094.481.13.18.036.366.075.558.117.186.042.369.093.549.153.18.06.34.141.481.243.141.102.255.23.342.387s.131.348.131.576c0,.275-.063.51-.189.702-.126.191-.29.348-.49.468-.201.12-.425.207-.67.261-.246.054-.489.081-.729.081-.294,0-.566-.033-.814-.099-.249-.066-.465-.167-.648-.302-.183-.135-.327-.303-.432-.504s-.161-.439-.167-.716h1.026Z" fill="#221f1f"/><path d="M158.702,206.239h1.197l2.475,6.426h-1.206l-.603-1.701h-2.565l-.603,1.701h-1.161l2.466-6.426ZM158.306,210.109h1.962l-.963-2.764h-.027l-.972,2.764Z" fill="#221f1f"/><path d="M162.842,208.011h.963v.9h.018c.03-.126.088-.249.175-.369s.192-.229.315-.328c.123-.1.259-.179.409-.239.15-.06.303-.09.459-.09.12,0,.203.003.248.01.045.006.091.012.14.018v.99c-.072-.013-.146-.022-.221-.032-.075-.009-.148-.013-.22-.013-.174,0-.338.034-.491.104-.153.068-.287.171-.4.306-.114.135-.204.302-.27.499-.066.198-.099.427-.099.685v2.214h-1.026v-4.653Z" fill="#221f1f"/><path d="M166.01,208.011h.963v.9h.018c.03-.126.088-.249.175-.369s.192-.229.315-.328c.123-.1.259-.179.409-.239.15-.06.303-.09.459-.09.12,0,.203.003.248.01.045.006.091.012.14.018v.99c-.072-.013-.146-.022-.221-.032-.075-.009-.148-.013-.22-.013-.174,0-.338.034-.491.104-.153.068-.287.171-.4.306-.114.135-.204.302-.27.499-.066.198-.099.427-.099.685v2.214h-1.026v-4.653Z" fill="#221f1f"/><path d="M173.075,211.629c0,.126.017.216.049.271.033.054.098.081.194.081h.108c.042,0,.09-.006.144-.019v.711c-.036.012-.083.025-.14.041-.057.015-.116.028-.175.04-.06.012-.12.021-.18.027s-.111.009-.153.009c-.21,0-.384-.042-.522-.126-.138-.084-.229-.23-.27-.441-.204.198-.455.343-.751.433-.297.09-.584.135-.86.135-.21,0-.411-.028-.603-.086-.192-.057-.361-.141-.508-.252-.147-.11-.264-.252-.351-.423s-.13-.37-.13-.599c0-.288.052-.521.157-.701.105-.181.243-.321.414-.424.171-.102.363-.175.576-.22s.427-.08.644-.104c.186-.036.363-.062.531-.077.168-.015.316-.04.446-.076.129-.036.231-.092.306-.167.075-.074.113-.187.113-.337,0-.132-.032-.24-.095-.324s-.141-.148-.234-.193c-.093-.045-.197-.075-.311-.09s-.222-.022-.324-.022c-.288,0-.525.06-.711.18s-.291.306-.315.558h-1.026c.018-.3.09-.549.216-.746.126-.198.287-.357.482-.478.195-.12.415-.204.661-.252s.498-.072.756-.072c.228,0,.453.024.675.072.222.048.421.126.599.234.177.107.319.247.427.418s.162.38.162.626v2.394ZM172.049,210.333c-.156.103-.348.164-.576.185-.228.021-.456.053-.684.095-.108.018-.213.043-.315.076s-.192.078-.27.135c-.078.058-.14.133-.185.226s-.067.205-.067.337c0,.114.033.21.099.288.066.078.146.14.238.185.093.045.195.077.306.095.111.018.211.027.301.027.114,0,.237-.016.369-.045.132-.03.256-.081.374-.153s.214-.163.292-.274.117-.248.117-.41v-.765Z" fill="#221f1f"/><path d="M173.669,208.011h1.125l1.215,3.475h.018l1.179-3.475h1.071l-1.809,4.905c-.084.21-.167.411-.248.604-.081.191-.18.361-.297.508-.117.147-.263.265-.437.352-.174.087-.396.13-.666.13-.24,0-.477-.018-.711-.054v-.864c.084.012.165.025.243.041.078.015.159.022.243.022.12,0,.219-.016.297-.045.078-.03.143-.074.193-.131.051-.057.095-.125.131-.202.036-.078.069-.168.099-.271l.117-.359-1.764-4.636Z" fill="#221f1f"/><rect x="1.6" y="140.143" width="293.871" height="58.774" fill="none" stroke="#a2aaad" stroke-linecap="round" stroke-linejoin="round" stroke-width="1.037"/><rect x="4.538" y="142.889" width="287.994" height="53.281" fill="#d0d3d4"/><rect x="9.45" y="146.662" width="135.181" height="23.51" fill="#ededed"/><rect x="151.862" y="146.662" width="135.181" height="23.51" fill="#ededed"/><path d="M56.791,178.38c-.048-.187-.114-.357-.198-.514-.084-.155-.192-.29-.324-.404s-.287-.203-.463-.266c-.177-.063-.383-.095-.617-.095-.342,0-.638.069-.886.207-.249.139-.452.322-.608.554-.156.23-.271.493-.346.787-.075.294-.113.595-.113.9s.038.606.113.899c.075.295.19.557.346.788.156.23.359.415.608.554.249.138.544.207.886.207.252,0,.474-.044.666-.131s.357-.207.495-.36c.138-.152.246-.331.324-.535.078-.204.129-.423.153-.657h1.098c-.024.385-.106.735-.247,1.054-.141.317-.332.592-.572.823-.24.23-.522.409-.846.535-.324.126-.681.189-1.071.189-.48,0-.911-.089-1.292-.266s-.704-.419-.967-.725c-.264-.306-.467-.663-.607-1.071-.141-.408-.212-.843-.212-1.305,0-.456.071-.888.212-1.296.141-.408.343-.766.607-1.071.264-.306.586-.549.967-.729.381-.181.812-.271,1.292-.271.36,0,.699.05,1.017.148.318.1.599.243.841.433.243.188.439.418.59.688.15.27.243.579.279.927h-1.125Z" fill="#221f1f"/><path d="M60.94,182.889c-.372,0-.704-.062-.994-.185-.292-.123-.537-.292-.738-.509-.201-.216-.354-.474-.459-.773s-.157-.63-.157-.99c0-.354.052-.681.157-.98.105-.301.258-.559.459-.774s.447-.386.738-.509c.291-.123.622-.185.994-.185s.704.062.995.185.537.293.738.509c.201.216.354.474.459.774.105.3.158.627.158.98,0,.36-.053.69-.158.99s-.258.558-.459.773c-.201.217-.447.386-.738.509s-.623.185-.995.185ZM60.94,182.08c.228,0,.426-.049.594-.145s.306-.222.414-.378.188-.331.238-.526.077-.395.077-.599c0-.198-.026-.396-.077-.594s-.13-.374-.238-.526c-.108-.153-.246-.277-.414-.374-.168-.096-.366-.144-.594-.144s-.426.048-.594.144c-.168.097-.306.221-.414.374-.108.152-.188.328-.239.526-.051.198-.076.396-.076.594,0,.204.025.403.076.599.051.195.131.37.239.526s.246.282.414.378.366.145.594.145Z" fill="#221f1f"/><path d="M64.144,178.11h.972v.685l.018.018c.156-.258.36-.46.612-.607.252-.146.531-.221.837-.221.51,0,.912.133,1.206.396s.441.66.441,1.188v3.195h-1.026v-2.925c-.012-.366-.09-.632-.234-.797-.144-.165-.369-.247-.675-.247-.174,0-.33.031-.468.095-.138.062-.255.149-.351.261-.096.111-.171.241-.225.392-.054.149-.081.309-.081.477v2.745h-1.026v-4.653Z" fill="#221f1f"/><path d="M68.842,178.11h.774v-1.395h1.026v1.395h.927v.766h-.927v2.483c0,.108.004.201.014.279.009.078.03.144.063.198.033.054.082.095.148.121.066.027.156.041.27.041.072,0,.144-.002.216-.005s.144-.014.216-.031v.792c-.114.012-.225.023-.333.036-.108.012-.219.018-.333.018-.27,0-.487-.025-.652-.076s-.294-.126-.387-.226c-.093-.099-.156-.223-.189-.373-.033-.15-.052-.321-.058-.513v-2.745h-.774v-.766Z" fill="#221f1f"/><path d="M72.307,178.11h.963v.9h.018c.03-.126.088-.249.175-.369s.192-.229.315-.328c.123-.1.259-.179.409-.239.15-.06.303-.09.459-.09.12,0,.203.003.248.01.045.006.091.012.14.018v.99c-.072-.013-.146-.022-.221-.032-.075-.009-.148-.013-.22-.013-.174,0-.338.034-.491.104-.153.068-.287.171-.4.306-.114.135-.204.302-.27.499-.066.198-.099.427-.099.685v2.214h-1.026v-4.653Z" fill="#221f1f"/><path d="M77.446,182.889c-.372,0-.704-.062-.994-.185-.292-.123-.537-.292-.738-.509-.201-.216-.354-.474-.459-.773s-.157-.63-.157-.99c0-.354.052-.681.157-.98.105-.301.258-.559.459-.774s.447-.386.738-.509c.291-.123.622-.185.994-.185s.704.062.995.185.537.293.738.509c.201.216.354.474.459.774.105.3.158.627.158.98,0,.36-.053.69-.158.99s-.258.558-.459.773c-.201.217-.447.386-.738.509s-.623.185-.995.185ZM77.446,182.08c.228,0,.426-.049.594-.145s.306-.222.414-.378.188-.331.238-.526.077-.395.077-.599c0-.198-.026-.396-.077-.594s-.13-.374-.238-.526c-.108-.153-.246-.277-.414-.374-.168-.096-.366-.144-.594-.144s-.426.048-.594.144c-.168.097-.306.221-.414.374-.108.152-.188.328-.239.526-.051.198-.076.396-.076.594,0,.204.025.403.076.599.051.195.131.37.239.526s.246.282.414.378.366.145.594.145Z" fill="#221f1f"/><path d="M80.677,176.337h1.026v6.426h-1.026v-6.426Z" fill="#221f1f"/><path d="M82.846,176.337h1.026v6.426h-1.026v-6.426Z" fill="#221f1f"/><path d="M85.788,180.703c0,.18.025.354.077.521.051.168.127.315.229.441s.231.227.387.301c.156.075.342.113.558.113.3,0,.542-.064.725-.194.183-.129.32-.322.41-.58h.972c-.054.252-.147.477-.279.675s-.291.364-.477.5c-.186.135-.395.236-.625.306s-.472.104-.725.104c-.366,0-.69-.06-.972-.18-.282-.12-.521-.288-.716-.504-.195-.217-.342-.475-.441-.774s-.148-.63-.148-.99c0-.33.053-.644.158-.94s.255-.558.45-.783c.195-.225.431-.403.707-.535s.588-.198.936-.198c.366,0,.694.077.985.229.291.153.533.355.725.607s.332.542.418.869.109.664.068,1.013h-3.42ZM88.183,180.027c-.012-.162-.046-.317-.104-.468-.057-.149-.135-.28-.234-.392-.099-.11-.219-.201-.36-.27-.141-.069-.299-.104-.473-.104-.18,0-.343.031-.49.095-.147.062-.273.149-.378.261s-.189.241-.252.392c-.063.149-.098.312-.104.485h2.394Z" fill="#221f1f"/><path d="M89.992,178.11h.963v.9h.018c.03-.126.088-.249.175-.369s.192-.229.315-.328c.123-.1.259-.179.409-.239.15-.06.303-.09.459-.09.12,0,.203.003.248.01.045.006.091.012.14.018v.99c-.072-.013-.146-.022-.221-.032-.075-.009-.148-.013-.22-.013-.174,0-.338.034-.491.104-.153.068-.287.171-.4.306-.114.135-.204.302-.27.499-.066.198-.099.427-.099.685v2.214h-1.026v-4.653Z" fill="#221f1f"/><path d="M97.525,176.337h1.197l2.475,6.426h-1.206l-.603-1.701h-2.565l-.603,1.701h-1.161l2.466-6.426ZM97.129,180.207h1.962l-.963-2.764h-.027l-.972,2.764Z" fill="#221f1f"/><path d="M199.252,178.38c-.048-.187-.114-.357-.198-.514-.084-.155-.192-.29-.324-.404s-.287-.203-.463-.266c-.177-.063-.383-.095-.617-.095-.342,0-.638.069-.886.207-.249.139-.452.322-.608.554-.156.23-.271.493-.346.787-.075.294-.113.595-.113.9s.038.606.113.899c.075.295.19.557.346.788.156.23.359.415.608.554.249.138.544.207.886.207.252,0,.474-.044.666-.131s.357-.207.495-.36c.138-.152.246-.331.324-.535.078-.204.129-.423.153-.657h1.098c-.024.385-.106.735-.247,1.054-.141.317-.332.592-.572.823-.24.23-.522.409-.846.535-.324.126-.681.189-1.071.189-.48,0-.911-.089-1.292-.266s-.704-.419-.967-.725c-.264-.306-.467-.663-.607-1.071-.141-.408-.212-.843-.212-1.305,0-.456.071-.888.212-1.296.141-.408.343-.766.607-1.071.264-.306.586-.549.967-.729.381-.181.812-.271,1.292-.271.36,0,.699.05,1.017.148.318.1.599.243.841.433.243.188.439.418.59.688.15.27.243.579.279.927h-1.125Z" fill="#221f1f"/><path d="M203.401,182.889c-.372,0-.704-.062-.994-.185-.292-.123-.537-.292-.738-.509-.201-.216-.354-.474-.459-.773s-.157-.63-.157-.99c0-.354.052-.681.157-.98.105-.301.258-.559.459-.774s.447-.386.738-.509c.291-.123.622-.185.994-.185s.704.062.995.185.537.293.738.509c.201.216.354.474.459.774.105.3.158.627.158.98,0,.36-.053.69-.158.99s-.258.558-.459.773c-.201.217-.447.386-.738.509s-.623.185-.995.185ZM203.401,182.08c.228,0,.426-.049.594-.145s.306-.222.414-.378.188-.331.238-.526.077-.395.077-.599c0-.198-.026-.396-.077-.594s-.13-.374-.238-.526c-.108-.153-.246-.277-.414-.374-.168-.096-.366-.144-.594-.144s-.426.048-.594.144c-.168.097-.306.221-.414.374-.108.152-.188.328-.239.526-.051.198-.076.396-.076.594,0,.204.025.403.076.599.051.195.131.37.239.526s.246.282.414.378.366.145.594.145Z" fill="#221f1f"/><path d="M206.605,178.11h.972v.685l.018.018c.156-.258.36-.46.612-.607.252-.146.531-.221.837-.221.51,0,.912.133,1.206.396s.441.66.441,1.188v3.195h-1.026v-2.925c-.012-.366-.09-.632-.234-.797-.144-.165-.369-.247-.675-.247-.174,0-.33.031-.468.095-.138.062-.255.149-.351.261-.096.111-.171.241-.225.392-.054.149-.081.309-.081.477v2.745h-1.026v-4.653Z" fill="#221f1f"/><path d="M211.302,178.11h.774v-1.395h1.026v1.395h.927v.766h-.927v2.483c0,.108.004.201.014.279.009.078.03.144.063.198.033.054.082.095.148.121.066.027.156.041.27.041.072,0,.144-.002.216-.005s.144-.014.216-.031v.792c-.114.012-.225.023-.333.036-.108.012-.219.018-.333.018-.27,0-.487-.025-.652-.076s-.294-.126-.387-.226c-.093-.099-.156-.223-.189-.373-.033-.15-.052-.321-.058-.513v-2.745h-.774v-.766Z" fill="#221f1f"/><path d="M214.768,178.11h.963v.9h.018c.03-.126.088-.249.175-.369s.192-.229.315-.328c.123-.1.259-.179.409-.239.15-.06.303-.09.459-.09.12,0,.203.003.248.01.045.006.091.012.14.018v.99c-.072-.013-.146-.022-.221-.032-.075-.009-.148-.013-.22-.013-.174,0-.338.034-.491.104-.153.068-.287.171-.4.306-.114.135-.204.302-.27.499-.066.198-.099.427-.099.685v2.214h-1.026v-4.653Z" fill="#221f1f"/><path d="M219.906,182.889c-.372,0-.704-.062-.994-.185-.292-.123-.537-.292-.738-.509-.201-.216-.354-.474-.459-.773s-.157-.63-.157-.99c0-.354.052-.681.157-.98.105-.301.258-.559.459-.774s.447-.386.738-.509c.291-.123.622-.185.994-.185s.703.062.995.185c.29.123.536.293.737.509s.354.474.459.774c.105.3.158.627.158.98,0,.36-.053.69-.158.99-.104.3-.258.558-.459.773-.201.217-.447.386-.737.509-.292.123-.623.185-.995.185ZM219.906,182.08c.228,0,.426-.049.594-.145s.307-.222.414-.378c.108-.156.188-.331.239-.526.051-.195.076-.395.076-.599,0-.198-.025-.396-.076-.594-.052-.198-.131-.374-.239-.526-.107-.153-.246-.277-.414-.374-.168-.096-.366-.144-.594-.144s-.426.048-.594.144c-.168.097-.306.221-.414.374-.108.152-.188.328-.239.526-.051.198-.076.396-.076.594,0,.204.025.403.076.599.051.195.131.37.239.526s.246.282.414.378.366.145.594.145Z" fill="#221f1f"/><path d="M223.138,176.337h1.025v6.426h-1.025v-6.426Z" fill="#221f1f"/><path d="M225.307,176.337h1.025v6.426h-1.025v-6.426Z" fill="#221f1f"/><path d="M228.249,180.703c0,.18.025.354.077.521.051.168.127.315.229.441.102.126.23.227.387.301.156.075.342.113.558.113.3,0,.542-.064.725-.194.183-.129.319-.322.409-.58h.973c-.055.252-.147.477-.279.675s-.291.364-.477.5c-.187.135-.395.236-.626.306-.23.069-.473.104-.725.104-.366,0-.689-.06-.972-.18s-.521-.288-.716-.504c-.195-.217-.342-.475-.44-.774-.1-.3-.148-.63-.148-.99,0-.33.052-.644.157-.94.104-.297.255-.558.45-.783.194-.225.43-.403.706-.535s.588-.198.937-.198c.365,0,.694.077.985.229.291.153.532.355.725.607.191.252.331.542.418.869s.109.664.067,1.013h-3.42ZM230.643,180.027c-.013-.162-.047-.317-.104-.468-.058-.149-.136-.28-.234-.392-.099-.11-.219-.201-.36-.27-.141-.069-.298-.104-.472-.104-.181,0-.344.031-.491.095-.146.062-.272.149-.378.261-.104.111-.188.241-.252.392-.062.149-.098.312-.104.485h2.395Z" fill="#221f1f"/><path d="M232.452,178.11h.963v.9h.019c.029-.126.088-.249.175-.369s.192-.229.315-.328c.123-.1.259-.179.409-.239.15-.06.303-.09.459-.09.12,0,.202.003.248.01.045.006.091.012.139.018v.99c-.071-.013-.146-.022-.22-.032-.075-.009-.148-.013-.221-.013-.174,0-.338.034-.49.104-.153.068-.287.171-.401.306-.113.135-.204.302-.27.499-.066.198-.099.427-.099.685v2.214h-1.026v-4.653Z" fill="#221f1f"/><path d="M238.266,176.337h3.123c.576,0,1.038.132,1.387.396.348.265.521.663.521,1.197,0,.324-.079.602-.238.832-.159.231-.386.41-.68.536v.018c.396.084.696.271.9.562s.306.656.306,1.094c0,.252-.045.487-.135.706-.09.22-.231.408-.423.567-.192.159-.438.285-.738.378s-.657.14-1.071.14h-2.952v-6.426ZM239.391,179.028h1.836c.271,0,.495-.076.676-.229.18-.152.27-.373.27-.661,0-.324-.081-.552-.243-.684-.162-.133-.396-.198-.702-.198h-1.836v1.772ZM239.391,181.845h1.989c.342,0,.607-.089.797-.266.188-.177.283-.428.283-.751,0-.318-.095-.562-.283-.734-.189-.171-.455-.256-.797-.256h-1.989v2.007Z" fill="#221f1f"/><rect x="50.197" y="41.045" width="15.124" height="7.384" rx=".406" ry=".406" fill="#f1f1f2" stroke="#d0d3d4" stroke-miterlimit="10" stroke-width=".251"/><rect x="50.839" y="41.689" width="13.84" height="6.097" fill="#101820"/><rect x="87.529" y="41.045" width="15.124" height="7.384" rx=".406" ry=".406" fill="#f1f1f2" stroke="#d0d3d4" stroke-miterlimit="10" stroke-width=".251"/><rect x="88.171" y="41.689" width="13.84" height="6.097" fill="#101820"/><rect x="230.646" y="41.045" width="15.124" height="7.384" rx=".406" ry=".406" fill="#f1f1f2" stroke="#d0d3d4" stroke-miterlimit="10" stroke-width=".251"/><rect x="231.288" y="41.689" width="13.84" height="6.097" fill="#101820"/><rect x="193.314" y="41.045" width="15.124" height="7.384" rx=".406" ry=".406" fill="#f1f1f2" stroke="#d0d3d4" stroke-miterlimit="10" stroke-width=".251"/><rect x="193.956" y="41.689" width="13.84" height="6.097" fill="#101820"/><line x1="57.915" y1="91.709" x2="57.915" y2="44.737" fill="none" stroke="#fff" stroke-linejoin="round" stroke-width="3.5"/><line x1="57.915" y1="91.709" x2="57.915" y2="44.737" fill="none" stroke="#005cb9" stroke-linejoin="round" stroke-width="1.575"/><line x1="238.304" y1="91.213" x2="238.304" y2="44.737" fill="none" stroke="#fff" stroke-linejoin="round" stroke-width="3.5"/><line x1="238.304" y1="91.213" x2="238.304" y2="44.737" fill="none" stroke="#5cc4ff" stroke-linejoin="round" stroke-width="1.575"/><polyline points="67.671 90.965 67.671 71.154 201.19 71.154 201.19 44.737" fill="none" stroke="#fff" stroke-linejoin="round" stroke-width="3.5"/><polyline points="67.671 90.965 67.671 71.154 201.19 71.154 201.19 44.737" fill="none" stroke="#5cc4ff" stroke-linejoin="round" stroke-width="1.575"/><polyline points="231.319 90.717 231.319 78.393 95.091 78.393 95.091 44.737" fill="none" stroke="#fff" stroke-linejoin="round" stroke-width="3.5"/><polyline points="231.319 90.717 231.319 78.393 95.091 78.393 95.091 44.737" fill="none" stroke="#005cb9" stroke-linejoin="round" stroke-width="1.575"/><line x1="57.744" y1="154.05" x2="57.744" y2="108.946" fill="none" stroke="#fff" stroke-linejoin="round" stroke-width="3.5"/><line x1="57.744" y1="154.05" x2="57.744" y2="108.946" fill="none" stroke="#b2292e" stroke-linejoin="round" stroke-width="1.575"/><polyline points="212.872 154.071 212.88 129.001 238.099 129.001 238.099 106.339" fill="none" stroke="#fff" stroke-linejoin="round" stroke-width="3.5"/><polyline points="212.872 154.071 212.88 129.001 238.099 129.001 238.099 106.339" fill="none" stroke="#f2616f" stroke-linejoin="round" stroke-width="1.575"/><polyline points="64.789 154.05 64.789 119.113 207.905 119.113 207.905 109.832" fill="none" stroke="#fff" stroke-linejoin="round" stroke-width="3.5"/><polyline points="64.789 154.05 64.789 119.113 207.905 119.113 207.905 109.832" fill="none" stroke="#f2616f" stroke-linejoin="round" stroke-width="1.575"/><polyline points="205.808 154.071 205.816 129.001 98.8 129.001 98.8 109.832" fill="none" stroke="#fff" stroke-linejoin="round" stroke-width="3.5"/><polyline points="205.808 154.071 205.816 129.001 98.8 129.001 98.8 109.832" fill="none" stroke="#b2292e" stroke-linejoin="round" stroke-width="1.575"/><rect x="50.839" y="41.689" width="13.84" height="6.097" fill="#101820"/><rect x="88.171" y="41.689" width="13.84" height="6.097" fill="#101820"/><rect x="193.956" y="41.689" width="13.84" height="6.097" fill="#101820"/><rect x="50.839" y="41.689" width="13.84" height="6.097" fill="#005cb9"/><rect x="88.171" y="41.689" width="13.84" height="6.097" fill="#005cb9"/><rect x="193.956" y="41.689" width="13.84" height="6.097" fill="#5cc4ff"/><rect x="231.288" y="41.689" width="13.84" height="6.097" fill="#5cc4ff"/><polygon points="291.671 95.594 159.294 95.594 166.425 89.467 284.985 89.467 291.671 95.594 291.671 95.594 291.671 95.594" fill="#59595c" fill-rule="evenodd"/><polygon points="159.294 97.603 291.671 97.603 291.671 110.063 159.294 110.063 159.294 97.603 159.294 97.603" fill="#59595c" fill-rule="evenodd"/><path d="M254.085,107.637h-4.347v-2.713h4.347v2.713h0ZM254.085,102.964h-4.347v-2.711h4.347v2.711h0ZM259.168,107.637h-4.349v-2.713h4.349v2.713h0ZM259.168,102.964h-4.349v-2.711h4.349v2.711h0ZM264.249,107.637h-4.347v-2.713h4.347v2.713h0ZM264.249,102.964h-4.347v-2.711h4.347v2.711h0ZM269.33,107.637h-4.347v-2.713h4.347v2.713h0ZM269.33,102.964h-4.347v-2.711h4.347v2.711h0ZM249.005,102.964h-4.347v-2.711h4.347v2.711h0ZM243.925,107.637h-4.348v-2.713h4.348v2.713h0ZM243.925,102.964h-4.348v-2.711h4.348v2.711h0ZM249.005,107.637h-4.347v-2.713h4.347v2.713h0Z" fill="#fff" fill-rule="evenodd"/><path d="M220.212,107.637h-4.347v-2.713h4.347v2.713h0ZM220.212,102.964h-4.347v-2.711h4.347v2.711h0ZM225.293,107.637h-4.348v-2.713h4.348v2.713h0ZM225.293,102.964h-4.348v-2.711h4.348v2.711h0ZM230.375,107.637h-4.349v-2.713h4.349v2.713h0ZM230.375,102.964h-4.349v-2.711h4.349v2.711h0ZM235.456,107.637h-4.348v-2.713h4.348v2.713h0ZM235.456,102.964h-4.348v-2.711h4.348v2.711h0ZM215.131,102.964h-4.348v-2.711h4.348v2.711h0ZM210.05,107.637h-4.347v-2.713h4.347v2.713h0ZM210.05,102.964h-4.347v-2.711h4.347v2.711h0ZM215.131,107.637h-4.348v-2.713h4.348v2.713h0Z" fill="#fff" fill-rule="evenodd"/><path d="M174.806,107.404h-11.412v-3.584h11.412v3.584h0ZM189.291,107.404h-11.411v-3.584h11.411v3.584h0Z" fill="#fff" fill-rule="evenodd"/><polygon points="138.468 95.594 6.091 95.594 13.223 89.467 131.782 89.467 138.468 95.594 138.468 95.594 138.468 95.594" fill="#59595c" fill-rule="evenodd"/><polygon points="6.091 97.603 138.468 97.603 138.468 110.063 6.091 110.063 6.091 97.603 6.091 97.603" fill="#59595c" fill-rule="evenodd"/><path d="M100.883,107.637h-4.347v-2.713h4.347v2.713h0ZM100.883,102.964h-4.347v-2.711h4.347v2.711h0ZM105.966,107.637h-4.349v-2.713h4.349v2.713h0ZM105.966,102.964h-4.349v-2.711h4.349v2.711h0ZM111.046,107.637h-4.347v-2.713h4.347v2.713h0ZM111.046,102.964h-4.347v-2.711h4.347v2.711h0ZM116.127,107.637h-4.347v-2.713h4.347v2.713h0ZM116.127,102.964h-4.347v-2.711h4.347v2.711h0ZM95.802,102.964h-4.347v-2.711h4.347v2.711h0ZM90.722,107.637h-4.348v-2.713h4.348v2.713h0ZM90.722,102.964h-4.348v-2.711h4.348v2.711h0ZM95.802,107.637h-4.347v-2.713h4.347v2.713h0Z" fill="#fff" fill-rule="evenodd"/><path d="M67.009,107.637h-4.347v-2.713h4.347v2.713h0ZM67.009,102.964h-4.347v-2.711h4.347v2.711h0ZM72.09,107.637h-4.348v-2.713h4.348v2.713h0ZM72.09,102.964h-4.348v-2.711h4.348v2.711h0ZM77.173,107.637h-4.349v-2.713h4.349v2.713h0ZM77.173,102.964h-4.349v-2.711h4.349v2.711h0ZM82.253,107.637h-4.348v-2.713h4.348v2.713h0ZM82.253,102.964h-4.348v-2.711h4.348v2.711h0ZM61.928,102.964h-4.348v-2.711h4.348v2.711h0ZM56.848,107.637h-4.347v-2.713h4.347v2.713h0ZM56.848,102.964h-4.347v-2.711h4.347v2.711h0ZM61.928,107.637h-4.348v-2.713h4.348v2.713h0Z" fill="#fff" fill-rule="evenodd"/><path d="M21.603,107.404h-11.412v-3.584h11.412v3.584h0ZM36.088,107.404h-11.411v-3.584h11.411v3.584h0Z" fill="#fff" fill-rule="evenodd"/><rect x="61.861" y="154.063" width="5.801" height="5.186" fill="#f2616f"/><rect x="54.751" y="154.07" width="5.801" height="5.186" fill="#b2292e"/><rect x="209.893" y="154.063" width="5.801" height="5.186" fill="#f2616f"/><rect x="202.795" y="154.064" width="5.801" height="5.186" fill="#b2292e"/></g></svg>