<svg xmlns="http://www.w3.org/2000/svg" viewBox="0 0 324 180"><defs><style>.cls-1,.cls-10,.cls-11,.cls-7,.cls-8,.cls-9{fill:none;stroke-linejoin:round;}.cls-1,.cls-4{stroke:#a2aaad;}.cls-1{stroke-linecap:round;stroke-width:1.2px;}.cls-2{fill:#d0d3d4;}.cls-3{fill:#ededed;stroke-width:0.5px;}.cls-3,.cls-7{stroke:#fff;}.cls-3,.cls-4,.cls-5{stroke-miterlimit:10;}.cls-16,.cls-17,.cls-3,.cls-4{fill-rule:evenodd;}.cls-4{fill:#caced0;stroke-width:1.2px;}.cls-5{fill:#f1f1f2;stroke:#d0d3d4;stroke-width:0.25px;}.cls-6{fill:#101820;}.cls-7{stroke-width:3.5px;}.cls-8{stroke:#005cb9;}.cls-10,.cls-11,.cls-8,.cls-9{stroke-width:1.58px;}.cls-9{stroke:#5cc4ff;}.cls-10{stroke:#b2292e;}.cls-11{stroke:#f2616f;}.cls-12{fill:#005cb9;}.cls-13{fill:#5cc4ff;}.cls-14{fill:#b2292e;}.cls-15{fill:#f2616f;}.cls-16{fill:#59595c;}.cls-17{fill:#fff;}</style></defs><g id="Rulers"><rect class="cls-1" x="15.02" y="110.56" width="293.97" height="63.1"/><rect class="cls-2" x="17.72" y="113.7" width="288.57" height="56.83"/><path class="cls-3" d="M155.74,116.8H20.55a.76.76,0,0,0-.77.74v21.17a.76.76,0,0,0,.77.74H155.74a.76.76,0,0,0,.77-.74V117.54A.76.76,0,0,0,155.74,116.8Z"/><path class="cls-3" d="M303.75,116.8H168.55a.75.75,0,0,0-.76.74v21.17a.75.75,0,0,0,.76.74h135.2a.75.75,0,0,0,.76-.74V117.54A.75.75,0,0,0,303.75,116.8Z"/><path class="cls-4" d="M155,6.33H19.84a.76.76,0,0,0-.76.75V28.24a.76.76,0,0,0,.76.75H155a.76.76,0,0,0,.76-.75V7.08A.76.76,0,0,0,155,6.33Z"/><rect class="cls-5" x="63.27" y="11.47" width="15.12" height="7.38" rx="0.41"/><rect class="cls-6" x="63.92" y="12.11" width="13.84" height="6.1"/><rect class="cls-5" x="100.61" y="11.47" width="15.12" height="7.38" rx="0.41"/><rect class="cls-6" x="101.25" y="12.11" width="13.84" height="6.1"/><path class="cls-4" d="M304.16,6.33H169a.76.76,0,0,0-.76.75V28.24A.76.76,0,0,0,169,29h135.2a.76.76,0,0,0,.76-.75V7.08A.76.76,0,0,0,304.16,6.33Z"/><rect class="cls-5" x="249.72" y="11.47" width="15.12" height="7.38" rx="0.41"/><rect class="cls-6" x="250.36" y="12.11" width="13.84" height="6.1"/><rect class="cls-5" x="212.39" y="11.47" width="15.12" height="7.38" rx="0.41"/><rect class="cls-6" x="213.03" y="12.11" width="13.84" height="6.1"/><line class="cls-7" x1="70.99" y1="59.26" x2="70.99" y2="15.16"/><line class="cls-8" x1="70.99" y1="59.26" x2="70.99" y2="15.16"/><line class="cls-7" x1="257.28" y1="62.95" x2="257.28" y2="15.16"/><line class="cls-9" x1="257.28" y1="62.95" x2="257.28" y2="15.16"/><polyline class="cls-7" points="78.75 59.26 78.75 37.58 219.82 37.58 219.82 15.16"/><polyline class="cls-9" points="78.75 59.26 78.75 37.58 219.82 37.58 219.82 15.16"/><polyline class="cls-7" points="219.52 59.26 219.52 51.81 108.17 51.81 108.17 15.16"/><polyline class="cls-8" points="219.52 59.26 219.52 51.81 108.17 51.81 108.17 15.16"/><line class="cls-7" x1="70.99" y1="126.64" x2="70.99" y2="80.25"/><line class="cls-10" x1="70.99" y1="126.64" x2="70.99" y2="80.25"/><polyline class="cls-7" points="226.75 127.19 226.75 103.14 257.28 103.14 257.28 80.25"/><polyline class="cls-11" points="226.75 127.19 226.75 103.14 257.28 103.14 257.28 80.25"/><polyline class="cls-7" points="78.75 127.19 78.75 88.91 219.82 88.91 219.82 80.25"/><polyline class="cls-11" points="78.75 127.19 78.75 88.91 219.82 88.91 219.82 80.25"/><polyline class="cls-7" points="218.95 127.19 218.95 103.14 108.17 103.14 108.17 80.25"/><polyline class="cls-10" points="218.95 127.19 218.95 103.14 108.17 103.14 108.17 80.25"/><rect class="cls-6" x="63.92" y="12.11" width="13.84" height="6.1"/><rect class="cls-6" x="101.25" y="12.11" width="13.84" height="6.1"/><rect class="cls-6" x="213.03" y="12.11" width="13.84" height="6.1"/><rect class="cls-12" x="63.92" y="12.11" width="13.84" height="6.1"/><rect class="cls-12" x="101.25" y="12.11" width="13.84" height="6.1"/><rect class="cls-13" x="213.03" y="12.11" width="13.84" height="6.1"/><rect class="cls-13" x="250.36" y="12.11" width="13.84" height="6.1"/><rect class="cls-14" x="67.95" y="124.08" width="6.08" height="6.1"/><rect class="cls-15" x="75.71" y="124.08" width="6.08" height="6.1"/><rect class="cls-14" x="215.95" y="124.08" width="6.08" height="6.1"/><rect class="cls-15" x="223.71" y="124.08" width="6.08" height="6.1"/><polygon class="cls-16" points="302.75 66.02 170.37 66.02 177.5 59.89 296.06 59.89 302.75 66.02 302.75 66.02 302.75 66.02"/><polygon class="cls-16" points="170.37 68.03 302.75 68.03 302.75 80.48 170.37 80.48 170.37 68.03 170.37 68.03"/><path class="cls-17" d="M265.16,78.06h-4.35V75.35h4.35v2.71Zm0-4.67h-4.35V70.67h4.35v2.72Zm5.08,4.67H265.9V75.35h4.34v2.71Zm0-4.67H265.9V70.67h4.34v2.72Zm5.08,4.67H271V75.35h4.34v2.71Zm0-4.67H271V70.67h4.34v2.72Zm5.09,4.67h-4.35V75.35h4.35v2.71Zm0-4.67h-4.35V70.67h4.35v2.72Zm-20.33,0h-4.35V70.67h4.35v2.72ZM255,78.06h-4.35V75.35H255v2.71Zm0-4.67h-4.35V70.67H255v2.72Zm5.08,4.67h-4.35V75.35h4.35v2.71Z"/><path class="cls-17" d="M231.29,78.06h-4.35V75.35h4.35v2.71Zm0-4.67h-4.35V70.67h4.35v2.72Zm5.08,4.67H232V75.35h4.35v2.71Zm0-4.67H232V70.67h4.35v2.72Zm5.08,4.67H237.1V75.35h4.35v2.71Zm0-4.67H237.1V70.67h4.35v2.72Zm5.08,4.67h-4.35V75.35h4.35v2.71Zm0-4.67h-4.35V70.67h4.35v2.72Zm-20.32,0h-4.35V70.67h4.35v2.72Zm-5.08,4.67h-4.35V75.35h4.35v2.71Zm0-4.67h-4.35V70.67h4.35v2.72Zm5.08,4.67h-4.35V75.35h4.35v2.71Z"/><path class="cls-17" d="M185.88,77.83H174.47V74.24h11.41v3.59Zm14.49,0H189V74.24h11.41v3.59Z"/><polygon class="cls-16" points="149.54 66.02 17.17 66.02 24.3 59.89 142.86 59.89 149.54 66.02 149.54 66.02 149.54 66.02"/><polygon class="cls-16" points="17.17 68.03 149.54 68.03 149.54 80.48 17.17 80.48 17.17 68.03 17.17 68.03"/><path class="cls-17" d="M112,78.06h-4.35V75.35H112v2.71Zm0-4.67h-4.35V70.67H112v2.72ZM117,78.06h-4.35V75.35H117v2.71Zm0-4.67h-4.35V70.67H117v2.72Zm5.08,4.67h-4.34V75.35h4.34v2.71Zm0-4.67h-4.34V70.67h4.34v2.72Zm5.08,4.67h-4.34V75.35h4.34v2.71Zm0-4.67h-4.34V70.67h4.34v2.72Zm-20.32,0h-4.35V70.67h4.35v2.72Zm-5.08,4.67H97.45V75.35h4.35v2.71Zm0-4.67H97.45V70.67h4.35v2.72Zm5.08,4.67h-4.35V75.35h4.35v2.71Z"/><path class="cls-17" d="M78.09,78.06H73.74V75.35h4.35v2.71Zm0-4.67H73.74V70.67h4.35v2.72Zm5.08,4.67H78.82V75.35h4.35v2.71Zm0-4.67H78.82V70.67h4.35v2.72Zm5.08,4.67H83.9V75.35h4.35v2.71Zm0-4.67H83.9V70.67h4.35v2.72Zm5.08,4.67H89V75.35h4.35v2.71Zm0-4.67H89V70.67h4.35v2.72ZM73,73.39H68.66V70.67H73v2.72Zm-5.08,4.67H63.58V75.35h4.34v2.71Zm0-4.67H63.58V70.67h4.34v2.72ZM73,78.06H68.66V75.35H73v2.71Z"/><path class="cls-17" d="M32.68,77.83H21.27V74.24H32.68v3.59Zm14.48,0H35.75V74.24H47.16v3.59Z"/></g></svg>