<svg xmlns="http://www.w3.org/2000/svg" viewBox="0 0 324 144"><defs><style>.cls-1,.cls-7,.cls-8,.cls-9{fill:none;stroke-linejoin:round;}.cls-1,.cls-4{stroke:#a2aaad;}.cls-1{stroke-linecap:round;stroke-width:1.2px;}.cls-2{fill:#d0d3d4;}.cls-3{fill:#ededed;stroke-width:0.5px;}.cls-3,.cls-7{stroke:#fff;}.cls-3,.cls-4,.cls-5{stroke-miterlimit:10;}.cls-3,.cls-4{fill-rule:evenodd;}.cls-4{fill:#caced0;stroke-width:1.2px;}.cls-5{fill:#f1f1f2;stroke:#d0d3d4;stroke-width:0.25px;}.cls-6{fill:#101820;}.cls-7{stroke-width:3.5px;}.cls-8{stroke:#005cb9;}.cls-8,.cls-9{stroke-width:1.58px;}.cls-9{stroke:#b2292e;}.cls-10{fill:#005cb9;}.cls-11{fill:#b2292e;}</style></defs><g id="Rulers"><rect class="cls-1" x="15.02" y="67.56" width="293.97" height="63.1"/><rect class="cls-2" x="17.72" y="70.7" width="288.57" height="56.83"/><path class="cls-3" d="M155.74,73.8H20.55a.76.76,0,0,0-.77.74V95.71a.76.76,0,0,0,.77.74H155.74a.76.76,0,0,0,.77-.74V74.54A.76.76,0,0,0,155.74,73.8Z"/><path class="cls-3" d="M303.75,73.8H168.55a.75.75,0,0,0-.76.74V95.71a.75.75,0,0,0,.76.74h135.2a.75.75,0,0,0,.76-.74V74.54A.75.75,0,0,0,303.75,73.8Z"/><path class="cls-4" d="M155,13.33H19.84a.76.76,0,0,0-.76.75V35.24a.76.76,0,0,0,.76.75H155a.76.76,0,0,0,.76-.75V14.08A.76.76,0,0,0,155,13.33Z"/><rect class="cls-5" x="63.27" y="18.47" width="15.12" height="7.38" rx="0.41"/><rect class="cls-6" x="63.92" y="19.11" width="13.84" height="6.1"/><rect class="cls-5" x="100.61" y="18.47" width="15.12" height="7.38" rx="0.41"/><rect class="cls-6" x="101.25" y="19.11" width="13.84" height="6.1"/><rect class="cls-6" x="63.92" y="19.11" width="13.84" height="6.1"/><rect class="cls-6" x="101.25" y="19.11" width="13.84" height="6.1"/><rect class="cls-6" x="63.92" y="19.11" width="13.84" height="6.1"/><rect class="cls-6" x="101.25" y="19.11" width="13.84" height="6.1"/><path class="cls-4" d="M304.16,13.33H169a.76.76,0,0,0-.76.75V35.24A.76.76,0,0,0,169,36h135.2a.76.76,0,0,0,.76-.75V14.08A.76.76,0,0,0,304.16,13.33Z"/><rect class="cls-5" x="212.39" y="18.47" width="15.12" height="7.38" rx="0.41"/><rect class="cls-6" x="213.03" y="19.11" width="13.84" height="6.1"/><rect class="cls-5" x="249.72" y="18.47" width="15.12" height="7.38" rx="0.41"/><rect class="cls-6" x="250.36" y="19.11" width="13.84" height="6.1"/><rect class="cls-6" x="67.95" y="81.08" width="6.08" height="6.1"/><rect class="cls-6" x="75.71" y="81.08" width="6.08" height="6.1"/><rect class="cls-6" x="215.95" y="81.08" width="6.08" height="6.1"/><rect class="cls-6" x="223.71" y="81.08" width="6.08" height="6.1"/><rect class="cls-6" x="213.03" y="19.11" width="13.84" height="6.1"/><rect class="cls-6" x="250.36" y="19.11" width="13.84" height="6.1"/><line class="cls-7" x1="70.99" y1="84.13" x2="70.99" y2="22.16"/><line class="cls-8" x1="70.99" y1="84.13" x2="70.99" y2="22.16"/><polyline class="cls-7" points="226.75 84.26 226.75 59.03 257.28 59.03 257.28 22.16"/><polyline class="cls-9" points="226.75 84.26 226.75 59.03 257.28 59.03 257.28 22.16"/><polyline class="cls-7" points="78.75 84.26 78.75 44.79 219.82 44.79 219.82 22.16"/><polyline class="cls-9" points="78.75 84.26 78.75 44.79 219.82 44.79 219.82 22.16"/><polyline class="cls-7" points="218.95 84.26 218.95 59.03 108.17 59.03 108.17 22.16"/><polyline class="cls-8" points="218.95 84.26 218.95 59.03 108.17 59.03 108.17 22.16"/><rect class="cls-6" x="67.95" y="81.08" width="6.08" height="6.1"/><rect class="cls-6" x="75.71" y="81.08" width="6.08" height="6.1"/><rect class="cls-6" x="215.95" y="81.08" width="6.08" height="6.1"/><rect class="cls-6" x="223.71" y="81.08" width="6.08" height="6.1"/><rect class="cls-6" x="213.03" y="19.11" width="13.84" height="6.1"/><rect class="cls-10" x="67.95" y="81.08" width="6.08" height="6.1"/><rect class="cls-11" x="75.71" y="81.08" width="6.08" height="6.1"/><rect class="cls-10" x="215.95" y="81.08" width="6.08" height="6.1"/><rect class="cls-11" x="223.71" y="81.08" width="6.08" height="6.1"/><rect class="cls-10" x="63.92" y="19.11" width="13.84" height="6.1"/><rect class="cls-10" x="101.25" y="19.11" width="13.84" height="6.1"/><rect class="cls-11" x="213.03" y="19.11" width="13.84" height="6.1"/><rect class="cls-11" x="250.36" y="19.11" width="13.84" height="6.1"/></g></svg>