<svg xmlns="http://www.w3.org/2000/svg" xmlns:xlink="http://www.w3.org/1999/xlink" viewBox="0 0 168.26 162"><defs><style>.cls-1{fill:#464749;}.cls-2{fill:#cfd1d2;}.cls-3{fill:#e0e0e0;}.cls-4{fill:#969796;}.cls-5{fill:#b3b3b3;}.cls-6{fill:#8c8c8c;}.cls-7{fill:#333;}.cls-8{fill:#ec6125;}.cls-9{fill:#c4c4c6;}.cls-10{fill:#cbcac9;}.cls-11{fill:#e5e5e4;}.cls-12,.cls-26{fill:none;}.cls-12{stroke:#9b9c9f;stroke-linejoin:bevel;stroke-width:0.38px;}.cls-13{fill:url(#linear-gradient);}.cls-14{fill:url(#linear-gradient-2);}.cls-15{fill:url(#linear-gradient-3);}.cls-16{fill:url(#linear-gradient-4);}.cls-17{fill:#bbbdbf;}.cls-18,.cls-23,.cls-24{fill:#fff;}.cls-18{stroke:#a7a7aa;stroke-linejoin:round;stroke-width:0.1px;}.cls-18,.cls-26{stroke-linecap:round;}.cls-19{fill:#2d2a26;}.cls-20{fill:#929497;}.cls-21{fill:#a6a8ab;}.cls-22{fill:#f7941d;}.cls-24{stroke:#f7941d;stroke-width:2px;}.cls-24,.cls-26{stroke-miterlimit:10;}.cls-25{fill:#e6e7e8;}.cls-26{stroke:#d0d2d3;}.cls-27{fill:#d0d2d3;}</style><linearGradient id="linear-gradient" x1="5292.16" y1="23.93" x2="5300.25" y2="30.36" gradientTransform="matrix(-0.78, 0, 0, 0.78, 4231.36, 87.97)" gradientUnits="userSpaceOnUse"><stop offset="0.3" stop-color="#ededed"/><stop offset="0.7" stop-color="#afadad"/><stop offset="1" stop-color="#c4c4c4"/></linearGradient><linearGradient id="linear-gradient-2" x1="114.31" y1="96.61" x2="118.2" y2="96.61" gradientUnits="userSpaceOnUse"><stop offset="0" stop-color="#626061"/><stop offset="0.15" stop-color="#797576"/><stop offset="0.33" stop-color="#7d797a"/><stop offset="0.93" stop-color="#898485"/></linearGradient><linearGradient id="linear-gradient-3" x1="114.31" y1="116.88" x2="118.2" y2="116.88" xlink:href="#linear-gradient-2"/><linearGradient id="linear-gradient-4" x1="5292.16" y1="50.09" x2="5300.24" y2="56.51" xlink:href="#linear-gradient"/></defs><g id="Rulers"><polygon class="cls-1" points="159.26 88.62 104.23 120.39 62.79 96.47 62.79 119.01 104.23 142.94 159.26 111.16 159.26 88.62"/><polygon class="cls-2" points="62.79 9 62.79 114.94 104.23 138.87 159.26 107.08 159.26 9 62.79 9"/><polygon class="cls-3" points="62.79 9 62.79 24.68 63.13 24.88 90.64 9 62.79 9"/><polygon class="cls-2" points="62.79 9 62.79 16.58 64.06 17.31 64.06 9 62.79 9"/><polygon class="cls-4" points="64.06 9 64.06 17.31 78.46 9 64.06 9"/><polygon class="cls-5" points="64.73 9 63.13 9.93 63.13 24.88 90.64 9 64.73 9"/><polygon class="cls-6" points="62.79 9.72 62.79 24.68 63.13 24.88 63.13 9.93 62.79 9.72"/><polygon class="cls-5" points="62.79 10.12 62.79 25.08 63.13 24.88 63.13 9.93 62.79 10.12"/><polygon class="cls-3" points="90.64 9 63.13 24.88 122.76 59.31 159.26 38.24 159.26 9 90.64 9"/><polygon class="cls-3" points="72.98 9 123.69 38.28 159.26 17.74 159.26 9 72.98 9"/><polygon class="cls-2" points="70.02 9 70.02 20.76 123.69 51.74 123.69 38.28 72.98 9 70.02 9"/><polygon class="cls-4" points="159.26 17.74 123.69 38.28 123.69 51.74 159.26 31.2 159.26 17.74"/><polygon class="cls-5" points="159.26 23.28 122.76 44.35 122.76 59.31 159.26 38.24 159.26 23.28"/><polygon class="cls-6" points="63.13 9.93 63.13 14.91 63.13 19.9 63.13 24.88 122.76 59.31 122.76 54.33 122.76 49.34 122.76 44.35 63.13 9.93"/><polygon class="cls-3" points="62.79 93.94 122.76 59.31 63.13 24.88 62.79 25.08 62.79 93.94"/><polygon class="cls-3" points="62.79 12.14 62.79 73.44 115.87 42.79 62.79 12.14"/><polygon class="cls-4" points="62.79 73.44 62.79 86.9 115.87 56.25 115.87 42.79 62.79 73.44"/><polygon class="cls-5" points="62.79 78.98 62.79 93.94 122.76 59.31 122.76 44.35 62.79 78.98"/><polygon class="cls-3" points="159.26 38.24 122.76 59.31 159.26 80.39 159.26 38.24"/><polygon class="cls-3" points="159.26 24.62 129.65 41.72 159.26 58.82 159.26 24.62"/><polygon class="cls-2" points="159.26 58.82 129.65 41.72 129.65 55.18 159.26 72.28 159.26 58.82"/><polygon class="cls-6" points="159.26 65.43 122.76 44.35 122.76 59.31 159.26 80.39 159.26 65.43"/><polygon class="cls-3" points="159.26 80.39 122.76 59.31 62.79 93.94 62.79 114.94 104.23 138.87 159.26 107.09 159.26 80.39"/><polygon class="cls-3" points="159.26 67.84 121.83 46.23 62.79 80.33 62.79 93.37 105.16 117.83 159.26 86.59 159.26 67.84"/><polygon class="cls-2" points="62.79 93.37 62.79 106.83 105.16 131.29 105.16 117.83 62.79 93.37"/><polygon class="cls-4" points="159.26 86.59 105.16 117.83 105.16 131.29 159.26 100.06 159.26 86.59"/><polygon class="cls-5" points="159.26 92.13 104.23 123.91 104.23 138.87 159.26 107.09 159.26 92.13"/><polygon class="cls-7" points="62.79 99.98 62.79 114.94 104.23 138.87 104.23 123.91 62.79 99.98"/><path class="cls-8" d="M70.19,118.47h0v-2H67.45v.47l-3.86-2.23a1.86,1.86,0,0,0-.8-.21v8l.32.18,7.12-4.11Z"/><path d="M83.17,124.93l-8.89-5.13a1.39,1.39,0,0,0-.93-.14,2.51,2.51,0,0,1-1.81-.3l-4.82-2.79a1.44,1.44,0,0,0-1.31,0l-2.62,1.51v3.3l4.85,2.8a5.3,5.3,0,0,1,2.89,1.35,3.81,3.81,0,0,1,.37.43,14.47,14.47,0,0,0,12.24-.26C83.54,125.5,83.54,125.14,83.17,124.93Z"/><path class="cls-8" d="M63.59,112.55a2,2,0,0,0-.8-.21v8l.32.19,7.12-4.11Z"/><polygon class="cls-2" points="62.79 9 62.79 92.39 104.23 116.32 159.26 84.54 159.26 9 62.79 9"/><polygon class="cls-3" points="74.67 9 122.76 36.77 159.26 15.69 159.26 9 74.67 9"/><polygon class="cls-3" points="112.03 9 123.69 15.73 135.35 9 112.03 9"/><polygon class="cls-2" points="88.71 9 123.69 29.2 123.69 15.73 112.03 9 88.71 9"/><polygon class="cls-4" points="135.35 9 123.69 15.73 123.69 29.2 158.67 9 135.35 9"/><polygon class="cls-5" points="144.94 9 122.76 21.81 122.76 36.77 159.26 15.69 159.26 9 144.94 9"/><polygon class="cls-6" points="74.67 9 122.76 36.77 122.76 21.81 100.58 9 74.67 9"/><polygon class="cls-3" points="62.79 9 62.79 71.39 122.76 36.77 74.67 9 62.79 9"/><polygon class="cls-3" points="62.79 9 62.79 50.9 115.87 20.25 96.39 9 62.79 9"/><polygon class="cls-4" points="62.79 50.9 62.79 64.36 115.87 33.71 115.87 20.25 62.79 50.9"/><polygon class="cls-5" points="62.79 56.43 62.79 71.39 122.76 36.77 122.76 21.81 62.79 56.43"/><polygon class="cls-3" points="159.26 15.69 122.76 36.77 159.26 57.84 159.26 15.69"/><polygon class="cls-3" points="147.28 9 129.65 19.18 159.26 36.27 159.26 9 147.28 9"/><polygon class="cls-2" points="159.26 36.27 129.65 19.18 129.65 32.64 159.26 49.74 159.26 36.27"/><polygon class="cls-6" points="159.26 42.88 122.76 21.81 122.76 36.77 159.26 57.84 159.26 42.88"/><polygon class="cls-3" points="159.26 57.84 122.76 36.77 62.79 71.39 62.79 92.39 104.23 116.32 159.26 84.55 159.26 57.84"/><polygon class="cls-3" points="159.26 45.3 121.83 23.69 62.79 57.78 62.79 70.83 105.16 95.29 159.26 64.05 159.26 45.3"/><polygon class="cls-2" points="62.79 70.83 62.79 84.29 105.16 108.75 105.16 95.29 62.79 70.83"/><polygon class="cls-4" points="159.26 64.05 105.16 95.29 105.16 108.75 159.26 77.51 159.26 64.05"/><polygon class="cls-5" points="159.26 69.59 104.23 101.36 104.23 116.32 159.26 84.55 159.26 69.59"/><polygon class="cls-7" points="62.79 77.43 62.79 92.39 104.23 116.32 104.23 101.36 62.79 77.43"/><path class="cls-8" d="M70.19,95.92h0v-2H67.45v.48l-3.86-2.23a1.73,1.73,0,0,0-.8-.21v8l.32.19L70.23,96Z"/><path d="M83.17,102.39l-8.89-5.13a1.39,1.39,0,0,0-.93-.14,2.52,2.52,0,0,1-1.81-.31L66.72,94a1.44,1.44,0,0,0-1.31,0l-2.62,1.51v3.31l6.8,3.93a14.71,14.71,0,0,0,13.55.38C83.54,103,83.54,102.6,83.17,102.39Z"/><path class="cls-8" d="M63.59,90a1.86,1.86,0,0,0-.8-.21v8l.32.18,7.12-4.11Z"/><polygon class="cls-2" points="62.79 9 62.79 69.85 104.23 93.78 159.26 61.99 159.26 9 62.79 9"/><polygon class="cls-3" points="113.72 9 122.76 14.22 131.8 9 113.72 9"/><polygon class="cls-5" points="122.76 9 122.76 14.22 131.8 9 122.76 9"/><polygon class="cls-6" points="113.72 9 122.76 14.22 122.76 9 113.72 9"/><polygon class="cls-3" points="62.79 9 62.79 48.85 122.76 14.22 113.72 9 62.79 9"/><polygon class="cls-3" points="62.79 9 62.79 28.35 96.3 9 62.79 9"/><polygon class="cls-4" points="96.3 9 62.79 28.35 62.79 41.81 115.87 11.16 115.87 9 96.3 9"/><polygon class="cls-5" points="105.89 9 62.79 33.89 62.79 48.85 122.76 14.22 122.76 9 105.89 9"/><polygon class="cls-3" points="131.8 9 122.76 14.22 159.26 35.3 159.26 9 131.8 9"/><polygon class="cls-3" points="151.07 9 159.26 13.73 159.26 9 151.07 9"/><polygon class="cls-2" points="129.65 9 129.65 10.09 159.26 27.19 159.26 13.73 151.07 9 129.65 9"/><polygon class="cls-6" points="122.76 9 122.76 14.22 159.26 35.3 159.26 20.34 139.63 9 122.76 9"/><polygon class="cls-3" points="159.26 35.3 122.76 14.22 62.79 48.85 62.79 69.85 104.23 93.78 159.26 62 159.26 35.3"/><polygon class="cls-3" points="108.23 9 62.79 35.23 62.79 48.28 105.16 72.74 159.26 41.5 159.26 22.75 135.44 9 108.23 9"/><polygon class="cls-2" points="62.79 48.28 62.79 61.74 105.16 86.21 105.16 72.74 62.79 48.28"/><polygon class="cls-4" points="159.26 41.5 105.16 72.74 105.16 86.21 159.26 54.97 159.26 41.5"/><polygon class="cls-5" points="159.26 47.04 104.23 78.82 104.23 93.78 159.26 62 159.26 47.04"/><polygon class="cls-7" points="62.79 54.89 62.79 69.85 104.23 93.78 104.23 78.82 62.79 54.89"/><path class="cls-8" d="M70.19,73.38h0v-2H67.45v.47l-3.86-2.23a1.86,1.86,0,0,0-.8-.21v8l.32.19,7.12-4.12Z"/><path d="M83.17,79.84l-8.89-5.13a1.39,1.39,0,0,0-.93-.14,2.51,2.51,0,0,1-1.81-.3l-4.82-2.79a1.44,1.44,0,0,0-1.31,0L62.79,73v3.3l6.8,3.93a14.69,14.69,0,0,0,13.55.39C83.54,80.42,83.54,80.06,83.17,79.84Z"/><path class="cls-8" d="M63.59,67.46a2,2,0,0,0-.8-.21v8l.32.19,7.12-4.11Z"/><polygon class="cls-2" points="62.79 9 62.79 47.3 104.23 71.23 159.26 39.45 159.26 9 62.79 9"/><polygon class="cls-3" points="62.79 9 62.79 26.3 92.76 9 62.79 9"/><polygon class="cls-4" points="62.79 9 62.79 19.27 80.57 9 62.79 9"/><polygon class="cls-5" points="66.85 9 62.79 11.34 62.79 26.3 92.76 9 66.85 9"/><polygon class="cls-3" points="152.77 9 159.26 12.75 159.26 9 152.77 9"/><polygon class="cls-6" points="152.76 9 159.26 12.75 159.26 9 152.76 9"/><polygon class="cls-3" points="92.76 9 62.79 26.3 62.79 47.3 104.23 71.23 159.26 39.46 159.26 12.75 152.76 9 92.76 9"/><polygon class="cls-3" points="69.18 9 62.79 12.69 62.79 25.74 105.16 50.2 159.26 18.96 159.26 9 69.18 9"/><polygon class="cls-2" points="62.79 25.74 62.79 39.2 105.16 63.66 105.16 50.2 62.79 25.74"/><polygon class="cls-4" points="159.26 18.96 105.16 50.2 105.16 63.66 159.26 32.42 159.26 18.96"/><polygon class="cls-5" points="159.26 24.5 104.23 56.27 104.23 71.23 159.26 39.46 159.26 24.5"/><polygon class="cls-7" points="62.79 32.34 62.79 47.3 104.23 71.23 104.23 56.27 62.79 32.34"/><path class="cls-8" d="M70.19,50.83h0v-2H67.45v.48L63.59,47a1.73,1.73,0,0,0-.8-.21v8l.32.19,7.12-4.11Z"/><path d="M83.17,57.3l-8.89-5.13a1.39,1.39,0,0,0-.93-.14,2.52,2.52,0,0,1-1.81-.31l-4.82-2.78a1.44,1.44,0,0,0-1.31,0l-2.62,1.51v3.31l6.8,3.93a14.71,14.71,0,0,0,13.55.38C83.54,57.87,83.54,57.51,83.17,57.3Z"/><path class="cls-8" d="M63.59,44.92a1.86,1.86,0,0,0-.8-.21v8l.32.18,7.12-4.11Z"/><polygon class="cls-2" points="62.79 9 62.79 24.76 104.23 48.69 159.26 16.9 159.26 9 62.79 9"/><polygon class="cls-3" points="62.79 9 62.79 24.76 104.23 48.69 159.26 16.91 159.26 9 62.79 9"/><polygon class="cls-3" points="72.85 9 105.16 27.65 137.46 9 72.85 9"/><polygon class="cls-2" points="62.79 9 62.79 16.65 105.16 41.12 105.16 27.65 72.85 9 62.79 9"/><polygon class="cls-4" points="137.46 9 105.16 27.65 105.16 41.12 159.26 9.88 159.26 9 137.46 9"/><polygon class="cls-5" points="147.06 9 104.23 33.73 104.23 48.69 159.26 16.91 159.26 9 147.06 9"/><polygon class="cls-7" points="62.79 9.8 62.79 24.76 104.23 48.69 104.23 33.73 62.79 9.8"/><path class="cls-8" d="M70.19,28.29h0V26.24H67.45v.47l-3.86-2.23a1.86,1.86,0,0,0-.8-.21v8l.32.19,7.12-4.12Z"/><path d="M83.17,34.75l-8.89-5.13a1.39,1.39,0,0,0-.93-.14,2.51,2.51,0,0,1-1.81-.3l-4.82-2.79a1.44,1.44,0,0,0-1.31,0l-2.62,1.51v3.3l6.8,3.93a14.69,14.69,0,0,0,13.55.39C83.54,35.33,83.54,35,83.17,34.75Z"/><path class="cls-8" d="M63.59,22.37a1.85,1.85,0,0,0-.8-.2v8l.32.19,7.12-4.11Z"/><polygon class="cls-4" points="140.97 9 104.23 30.21 104.23 142.94 159.26 111.18 159.26 9 140.97 9"/><polygon class="cls-9" points="67.49 9 104.23 30.21 140.97 9 67.49 9"/><path class="cls-10" d="M159.26,71.44h-.5l-5.35-8.1-2.2-1.68s-38.83,22-39.25,22,.11,54,.11,54-.22.94,0,1c.61.32,2.53-.83,2.53-.83l44.71-25Z"/><polyline class="cls-11" points="113.23 84.42 120.37 88.62 122.35 92.06 122.35 142.23 119.61 143.77 112.47 139.56"/><path class="cls-11" d="M112.17,120.11s-3.26,1.94-3.58,2,0,2.09,0,2.09l3.73,2.42-.16-6.41"/><polyline class="cls-12" points="117.76 97.34 117.73 96.96 117.64 96.59 117.5 96.21 117.31 95.81 117.08 95.46 116.81 95.14 116.52 94.87 116.22 94.64 115.91 94.5 115.63 94.43 115.36 94.44 115.12 94.52 114.94 94.68 114.79 94.9 114.7 95.18 114.67 95.52"/><polyline class="cls-12" points="117.76 117.73 117.73 117.37 117.64 116.98 117.5 116.59 117.31 116.21 117.08 115.85 116.81 115.52 116.52 115.27 116.22 115.04 115.91 114.89 115.63 114.83 115.36 114.83 115.12 114.92 114.94 115.07 114.79 115.3 114.7 115.58 114.67 115.92"/><polyline class="cls-12" points="114.67 95.52 114.7 95.88 114.79 96.27 114.93 96.66 115.12 97.04 115.36 97.4 115.63 97.73 115.91 98 116.22 98.22 116.51 98.36 116.8 98.43 117.06 98.41 117.31 98.33 117.5 98.18 117.64 97.96 117.73 97.67 117.76 97.34"/><polyline class="cls-12" points="114.67 115.92 114.7 116.28 114.79 116.66 114.93 117.06 115.12 117.45 115.36 117.8 115.63 118.13 115.91 118.4 116.22 118.6 116.51 118.75 116.8 118.82 117.06 118.82 117.31 118.73 117.5 118.57 117.64 118.35 117.73 118.07 117.76 117.73"/><polyline class="cls-12" points="115.58 131.39 115.78 131.41 116 131.4 116.2 131.35 116.38 131.27 116.53 131.14 116.66 130.97 116.77 130.79 116.84 130.56 116.9 130.3 116.91 130.03"/><polyline class="cls-12" points="112.92 139.45 112.8 139.37 112.7 139.29 112.6 139.2 112.51 139.11 112.44 139.02 112.38 138.92 112.35 138.82 112.31 138.73 112.3 138.62 112.3 138.57"/><polyline class="cls-12" points="114.95 126.61 115.07 126.68 115.31 126.86 115.56 127.07 115.78 127.31 116 127.58 116.2 127.86 116.38 128.16 116.53 128.47 116.66 128.8 116.77 129.11 116.84 129.43 116.9 129.73 116.91 130.03"/><line class="cls-12" x1="112.3" y1="126.88" x2="109" y2="124.93"/><line class="cls-12" x1="123.48" y1="133.46" x2="122.74" y2="133.02"/><line class="cls-12" x1="112.92" y1="139.45" x2="120.02" y2="143.63"/><line class="cls-12" x1="114.92" y1="110.72" x2="115.12" y2="110.84"/><line class="cls-12" x1="114.92" y1="131.12" x2="115.12" y2="131.23"/><line class="cls-12" x1="114.95" y1="110.68" x2="115.15" y2="110.78"/><line class="cls-12" x1="115.12" y1="131.23" x2="115.58" y2="131.39"/><polyline class="cls-12" points="115.58 131.39 115.79 131.45 116.2 131.48 116.55 131.4 116.63 131.36"/><polyline class="cls-12" points="114.95 106.21 115.07 106.29 115.31 106.47 115.56 106.68 115.78 106.93 116 107.18 116.2 107.48 116.38 107.77 116.53 108.08 116.66 108.4 116.77 108.72 116.84 109.03 116.9 109.34 116.91 109.62"/><line class="cls-12" x1="120.77" y1="88.8" x2="112.48" y2="83.93"/><line class="cls-12" x1="115.12" y1="110.84" x2="115.58" y2="110.99"/><polyline class="cls-12" points="115.15 110.8 115.54 110.93 115.91 110.95 116.24 110.87 116.51 110.68 116.71 110.4 116.82 110.02 116.86 109.61"/><polyline class="cls-12" points="115.58 110.99 115.79 111.06 116.2 111.08 116.55 111 116.63 110.96"/><polyline class="cls-12" points="115.58 110.99 115.78 111.02 116 111.01 116.2 110.96 116.38 110.87 116.53 110.75 116.66 110.58 116.77 110.4 116.84 110.16 116.9 109.91 116.91 109.62"/><line class="cls-12" x1="122.74" y1="92.23" x2="120.77" y2="88.8"/><line class="cls-12" x1="152.43" y1="62.5" x2="151.67" y2="62.05"/><polyline class="cls-12" points="151.67 62.05 151.58 62.01 151.46 61.95 151.33 61.93 151.19 61.92 151.05 61.92 150.91 61.94 150.75 61.98 150.6 62.02 150.45 62.1 150.28 62.18"/><polyline class="cls-12" points="114.95 106.33 115.14 106.46 115.53 106.77 115.88 107.17 116.2 107.63 116.47 108.13 116.66 108.64 116.77 109.13 116.81 109.57"/><polyline class="cls-12" points="112.98 127.71 113 128 113.05 128.31 113.12 128.63 113.23 128.95 113.36 129.27 113.52 129.57 113.69 129.88 113.9 130.16 114.11 130.43 114.34 130.67 114.58 130.88"/><polyline class="cls-12" points="108.18 123.79 108.19 123.91 108.22 124.05 108.26 124.17 108.32 124.28 108.39 124.41 108.48 124.52 108.59 124.63 108.72 124.74 108.85 124.83 109 124.94"/><polyline class="cls-12" points="113.04 107.35 113.07 107.82 113.18 108.32 113.39 108.84 113.66 109.35 113.99 109.83 114.35 110.23 114.75 110.56 114.95 110.68"/><polyline class="cls-12" points="118.17 109.09 118.11 108.51 117.96 107.91 117.71 107.3 117.38 106.72 116.98 106.2 116.53 105.76 116.06 105.42 115.59 105.19 115.15 105.12 114.75 105.18 114.57 105.25"/><polyline class="cls-12" points="118.17 129.47 118.11 128.91 117.96 128.3 117.71 127.7 117.38 127.11 116.98 126.59 116.53 126.14 116.06 125.81 115.59 125.6 115.15 125.51 114.75 125.57 114.57 125.65"/><line class="cls-12" x1="152.74" y1="62.8" x2="158.97" y2="71.73"/><line class="cls-12" x1="152.43" y1="62.5" x2="152.74" y2="62.8"/><polyline class="cls-12" points="112.98 107.33 113 107.61 113.05 107.93 113.12 108.23 113.23 108.56 113.36 108.88 113.52 109.18 113.69 109.49 113.9 109.78 114.11 110.03 114.34 110.27 114.58 110.49 114.82 110.67 114.92 110.72"/><polyline class="cls-12" points="114.58 130.88 114.82 131.06 114.92 131.12"/><line class="cls-12" x1="113.07" y1="106.93" x2="113.04" y2="107.35"/><polyline class="cls-12" points="113.09 107.39 113.12 106.98 113.24 106.62 113.44 106.34 113.69 106.15 114.02 106.07 114.37 106.1 114.76 106.23 114.95 106.33"/><polyline class="cls-12" points="108.18 122.93 108.19 122.78 108.22 122.67 108.26 122.55 108.32 122.42 108.39 122.32 108.48 122.2 108.59 122.08 108.72 121.98 108.85 121.89 109 121.79"/><polyline class="cls-12" points="112.98 127.71 113 127.44 113.05 127.19"/><polyline class="cls-12" points="112.98 107.33 113 107.04 113.05 106.8"/><polyline class="cls-12" points="112.3 84.19 112.3 84.14 112.31 84.03 112.35 83.93 112.38 83.83 112.44 83.73 112.51 83.64 112.6 83.55 112.7 83.48 112.8 83.4 112.92 83.32"/><line class="cls-12" x1="122.74" y1="142.09" x2="122.74" y2="92.23"/><line class="cls-12" x1="112.3" y1="84.19" x2="112.3" y2="138.57"/><line class="cls-12" x1="108.18" y1="123.79" x2="108.18" y2="122.93"/><polyline class="cls-12" points="116.81 109.57 116.77 109.98 116.66 110.34 116.47 110.62 116.2 110.8 115.88 110.89 115.52 110.86 115.14 110.72 114.75 110.5 114.37 110.18 114.02 109.79 113.69 109.33 113.44 108.83 113.24 108.32 113.12 107.83 113.09 107.39"/><polyline class="cls-12" points="113.05 127.19 113.12 126.96 113.23 126.76 113.36 126.61 113.52 126.48 113.69 126.39 113.9 126.34 114.11 126.33 114.34 126.36 114.58 126.43 114.82 126.54 114.95 126.61"/><polyline class="cls-12" points="113.05 106.8 113.12 106.58 113.23 106.38 113.36 106.21 113.52 106.08 113.69 105.99 113.9 105.94 114.11 105.93 114.34 105.97 114.58 106.03 114.82 106.15 114.95 106.21"/><line class="cls-12" x1="150.28" y1="62.18" x2="112.92" y2="83.32"/><polyline class="cls-12" points="117.55 110.44 117.71 110.33 117.96 110.02 118.11 109.59 118.17 109.09"/><polyline class="cls-12" points="113.65 126.17 113.42 126.35 113.21 126.67 113.07 127.06 113.07 127.12"/><polyline class="cls-12" points="113.65 105.78 113.42 105.95 113.21 106.27 113.07 106.67 113.07 106.73"/><line class="cls-12" x1="117.55" y1="130.84" x2="116.63" y2="131.36"/><line class="cls-12" x1="114.57" y1="125.65" x2="113.65" y2="126.17"/><line class="cls-12" x1="112.3" y1="119.93" x2="109" y2="121.79"/><line class="cls-12" x1="117.55" y1="110.44" x2="116.63" y2="110.96"/><line class="cls-12" x1="114.57" y1="105.25" x2="113.65" y2="105.79"/><polyline class="cls-12" points="117.55 130.84 117.71 130.73 117.96 130.41 118.11 129.99 118.17 129.47"/><polyline class="cls-12" points="124.34 133.56 124.3 133.58 124.21 133.61 124.11 133.63 124.02 133.63 123.92 133.63 123.81 133.6 123.7 133.57 123.58 133.53 123.48 133.46"/><line class="cls-12" x1="119.4" y1="143.53" x2="122.89" y2="141.57"/><path class="cls-13" d="M117.06,111.26c-1.09.65-2.79-.23-3.8-1.94s-.92-3.65.18-4.3,2.81.22,3.8,1.94.93,3.66-.18,4.3Z"/><path class="cls-14" d="M117.57,98.92c-.79.48-2-.17-2.74-1.45s-.68-2.69.12-3.16,2,.16,2.75,1.44.66,2.69-.13,3.17Z"/><path class="cls-15" d="M117.57,119.18c-.79.48-2-.17-2.74-1.44s-.68-2.69.12-3.17,2,.16,2.75,1.44.66,2.69-.13,3.17Z"/><path class="cls-16" d="M117.06,131.59c-1.09.66-2.79-.22-3.8-2s-.92-3.64.18-4.28,2.81.21,3.8,1.94.93,3.65-.18,4.29Z"/><path class="cls-12" d="M117.06,131.43c-1.09.64-2.79-.23-3.8-2s-.92-3.64.18-4.29,2.81.23,3.8,1.94.93,3.67-.18,4.31Z"/><path class="cls-12" d="M117.06,111.23c-1.09.66-2.79-.22-3.8-1.94s-.92-3.65.18-4.29,2.81.23,3.8,2,.93,3.64-.18,4.28Z"/><path class="cls-17" d="M121.81,152.73l-4.79-.35-.11-.09a2.13,2.13,0,0,0-1-.31,1.27,1.27,0,0,0-.78.27c-.82-.07-1.67-.13-2.53-.18l0-4.73Z"/><path class="cls-17" d="M112.68,147.51l8.91,5.15-4.54-.33,0,0-.08-.06a2.15,2.15,0,0,0-1-.32,1.26,1.26,0,0,0-.78.26l-2.43-.16v-4.52m-.1-.17v4.78l2.56.17a1.16,1.16,0,0,1,.75-.26,2,2,0,0,1,1,.31l.12.09,5,.36-9.44-5.45Z"/><path class="cls-17" d="M125.42,153c-1.13-.06-2.27-.13-3.4-.21l-9.42-5.45,0-33.55,12.82,7.49Zm-9.55-11.24c-.79,0-1.3.66-1.3,1.67a5.1,5.1,0,0,0,2.29,4,2.14,2.14,0,0,0,1,.32c.8,0,1.31-.66,1.31-1.68a5.06,5.06,0,0,0-2.3-4A2.08,2.08,0,0,0,115.87,141.71Zm0-11.67c-.79,0-1.3.66-1.3,1.68a5.08,5.08,0,0,0,2.29,4,2.14,2.14,0,0,0,1,.32c.8,0,1.31-.66,1.31-1.67a5.08,5.08,0,0,0-2.3-4A2.08,2.08,0,0,0,115.87,130Zm0-11.66c-.79,0-1.3.66-1.3,1.67a5.1,5.1,0,0,0,2.29,4,2.12,2.12,0,0,0,1,.31c.8,0,1.31-.65,1.31-1.67a5.06,5.06,0,0,0-2.3-4A2.08,2.08,0,0,0,115.87,118.38Z"/><path class="cls-17" d="M112.68,113.91l12.69,7.33v31.65c-1.17-.06-2.26-.13-3.32-.2l-9.37-5.41V113.91m5.22,10.48c.83,0,1.36-.67,1.36-1.72a5.15,5.15,0,0,0-2.32-4,2.22,2.22,0,0,0-1.07-.32c-.82,0-1.35.68-1.35,1.72a5.13,5.13,0,0,0,2.32,4,2.08,2.08,0,0,0,1.06.32m0,11.67c.83,0,1.36-.68,1.36-1.72a5.13,5.13,0,0,0-2.32-4,2.13,2.13,0,0,0-1.07-.33c-.82,0-1.35.68-1.35,1.73a5.15,5.15,0,0,0,2.32,4,2.18,2.18,0,0,0,1.06.32m0,11.67c.83,0,1.36-.68,1.36-1.73a5.15,5.15,0,0,0-2.32-4,2.22,2.22,0,0,0-1.07-.32c-.82,0-1.35.68-1.35,1.72a5.13,5.13,0,0,0,2.32,4,2.1,2.1,0,0,0,1.06.33m-5.32-34v33.6l9.44,5.45q1.73.12,3.45.21V121.18l-12.89-7.44Zm5.32,10.55a2.05,2.05,0,0,1-1-.31,5,5,0,0,1-2.27-3.93c0-1,.51-1.62,1.25-1.62a2.09,2.09,0,0,1,1,.31,5,5,0,0,1,2.27,3.93c0,1-.51,1.62-1.26,1.62Zm0,11.67a2.05,2.05,0,0,1-1-.31,5,5,0,0,1-2.27-3.93c0-1,.51-1.63,1.25-1.63a2,2,0,0,1,1,.32,5,5,0,0,1,2.27,3.93c0,1-.51,1.62-1.26,1.62Zm0,11.67a2.05,2.05,0,0,1-1-.31,5,5,0,0,1-2.27-3.94c0-1,.51-1.62,1.25-1.62a2.09,2.09,0,0,1,1,.31,5,5,0,0,1,2.27,3.93c0,1-.51,1.63-1.26,1.63Z"/><polygon class="cls-17" points="113.08 147.66 113.08 147.6 114.95 148.68 114.95 148.74 113.08 147.66"/><polygon class="cls-17" points="112.58 146.73 112.58 147.94 115.45 149.6 115.45 148.39 112.58 146.73 112.58 146.73"/><polygon class="cls-17" points="119.79 150.5 119.82 149.96 120.47 150.43 120.55 148.41 119.86 148.26 119.76 147.63 120.67 147.83 121.06 148.06 121.04 150.72 121.72 151.15 121.7 151.6 119.79 150.5"/><path class="cls-17" d="M119.84,147.76l.8.12.35.2v2.64a.11.11,0,0,0,.05.09l.6.35v.35l-1.77-1v-.34l.58.33h.1a.11.11,0,0,0,0-.09v-2a.1.1,0,0,0-.09-.1l-.57-.09-.1-.46m-.13-.11.15.66.64.1v2l-.73-.42v.58l2,1.14v-.58l-.65-.38V148l-.41-.24-1-.13Z"/><path class="cls-17" d="M124.06,152.86a1.3,1.3,0,0,1-.62-.21,2.34,2.34,0,0,1-1.2-2.11v-1.86l.55.4,0,1.8a1.32,1.32,0,0,0,.64,1.2.68.68,0,0,0,.33.11c.16,0,.35-.1.35-.58v-1.87l.55.4,0,1.8C124.6,152.55,124.42,152.86,124.06,152.86Z"/><path class="cls-17" d="M122.29,148.85l.42.25v1.78a1.4,1.4,0,0,0,.66,1.25.78.78,0,0,0,.36.11c.15,0,.4-.08.4-.63v-1.69l.42.24v1.78c0,.58-.16.87-.49.87a1.35,1.35,0,0,1-.6-.2,2.31,2.31,0,0,1-1.17-2.07v-1.69m-.1-.17v1.86a2.43,2.43,0,0,0,1.22,2.16,1.39,1.39,0,0,0,.65.21c.37,0,.59-.31.59-1V150.1l-.62-.36v1.87c0,.36-.11.53-.3.53a.62.62,0,0,1-.31-.1,1.28,1.28,0,0,1-.61-1.16V149l-.62-.36Z"/><path class="cls-17" d="M112.6,113.7l0-33.56,12.82,7.49,0,33.47Zm3.27-5.59c-.79,0-1.3.66-1.3,1.67a5.1,5.1,0,0,0,2.29,4,2.14,2.14,0,0,0,1,.32c.8,0,1.31-.66,1.31-1.67a5.07,5.07,0,0,0-2.3-4A2.08,2.08,0,0,0,115.87,108.11Zm0-11.66c-.79,0-1.3.65-1.3,1.67a5.08,5.08,0,0,0,2.29,4,2.14,2.14,0,0,0,1,.32c.8,0,1.31-.65,1.31-1.67a5.08,5.08,0,0,0-2.3-4A2.07,2.07,0,0,0,115.87,96.45Zm0-11.67c-.79,0-1.3.66-1.3,1.67a5.1,5.1,0,0,0,2.29,4,2.14,2.14,0,0,0,1,.32c.8,0,1.31-.66,1.31-1.68a5.06,5.06,0,0,0-2.3-4A2.08,2.08,0,0,0,115.87,84.78Z"/><path class="cls-17" d="M112.68,80.31l12.69,7.33V121l-12.69-7.33V80.31M117.9,90.8c.83,0,1.36-.68,1.36-1.73a5.15,5.15,0,0,0-2.32-4,2.22,2.22,0,0,0-1.07-.32c-.82,0-1.35.68-1.35,1.72a5.13,5.13,0,0,0,2.32,4,2.1,2.1,0,0,0,1.06.33m0,11.66c.83,0,1.36-.67,1.36-1.72a5.13,5.13,0,0,0-2.32-4,2.11,2.11,0,0,0-1.07-.32c-.82,0-1.35.67-1.35,1.72a5.13,5.13,0,0,0,2.32,4,2.18,2.18,0,0,0,1.06.32m0,11.67c.83,0,1.36-.68,1.36-1.72a5.12,5.12,0,0,0-2.32-4,2.13,2.13,0,0,0-1.07-.33c-.82,0-1.35.68-1.35,1.72a5.13,5.13,0,0,0,2.32,4,2.1,2.1,0,0,0,1.06.33m-5.32-34v33.6l12.89,7.44V87.59l-12.89-7.45ZM117.9,90.7a2.05,2.05,0,0,1-1-.31,5,5,0,0,1-2.27-3.94c0-1,.51-1.62,1.25-1.62a2.09,2.09,0,0,1,1,.31,5,5,0,0,1,2.27,3.93c0,1-.51,1.63-1.26,1.63Zm0,11.66a2.05,2.05,0,0,1-1-.31,5,5,0,0,1-2.27-3.93c0-1,.51-1.62,1.25-1.62a2.09,2.09,0,0,1,1,.31,5,5,0,0,1,2.27,3.93c0,1-.51,1.62-1.26,1.62Zm0,11.67a2.05,2.05,0,0,1-1-.31,5,5,0,0,1-2.27-3.94c0-1,.51-1.62,1.25-1.62a2.09,2.09,0,0,1,1,.31,5,5,0,0,1,2.27,3.94c0,1-.51,1.62-1.26,1.62Z"/><polygon class="cls-17" points="113.08 114.06 113.08 114 114.95 115.08 114.95 115.14 113.08 114.06"/><polygon class="cls-17" points="112.58 113.13 112.58 114.35 115.45 116 115.45 114.79 112.58 113.13 112.58 113.13"/><polygon class="cls-17" points="119.79 116.9 119.82 116.36 120.47 116.83 120.55 114.81 119.86 114.66 119.76 114.04 120.67 114.23 121.06 114.46 121.04 117.13 121.72 117.55 121.7 118 119.79 116.9"/><path class="cls-17" d="M119.84,114.17l.8.11.35.2v2.65a.1.1,0,0,0,.05.08l.6.35v.35l-1.77-1v-.34l.58.33,0,0,0,0a.1.1,0,0,0,0-.08v-2a.11.11,0,0,0-.09-.1l-.57-.09-.1-.45m-.13-.12.15.66.64.1v2l-.73-.43v.58l2,1.14v-.58l-.65-.37v-2.71l-.41-.24-1-.13Z"/><path class="cls-17" d="M124.06,119.26a1.3,1.3,0,0,1-.62-.21,2.34,2.34,0,0,1-1.2-2.11v-1.86l.55.4,0,1.8a1.32,1.32,0,0,0,.64,1.2.59.59,0,0,0,.33.11c.16,0,.35-.1.35-.58v-1.87l.55.41,0,1.79C124.6,119,124.42,119.26,124.06,119.26Z"/><path class="cls-17" d="M122.29,115.26l.42.24v1.78a1.39,1.39,0,0,0,.66,1.25.78.78,0,0,0,.36.11c.15,0,.4-.08.4-.63v-1.69l.42.24v1.78c0,.58-.16.87-.49.87a1.24,1.24,0,0,1-.6-.2,2.31,2.31,0,0,1-1.17-2.07v-1.68m-.1-.18v1.86a2.43,2.43,0,0,0,1.22,2.16,1.39,1.39,0,0,0,.65.21c.37,0,.59-.31.59-1V116.5l-.62-.36V118c0,.36-.11.53-.3.53a.62.62,0,0,1-.31-.1,1.28,1.28,0,0,1-.61-1.16v-1.84l-.62-.36Z"/><path class="cls-17" d="M112.6,80.1l0-33.56L125.45,54l0,33.47Zm3.27-5.59c-.79,0-1.3.66-1.3,1.67a5.08,5.08,0,0,0,2.29,4,2.14,2.14,0,0,0,1,.32c.8,0,1.31-.66,1.31-1.67a5.07,5.07,0,0,0-2.3-4A2.08,2.08,0,0,0,115.87,74.51Zm0-11.66c-.79,0-1.3.65-1.3,1.67a5.12,5.12,0,0,0,2.29,4,2.12,2.12,0,0,0,1,.31c.8,0,1.31-.65,1.31-1.67a5.1,5.1,0,0,0-2.3-4A2.07,2.07,0,0,0,115.87,62.85Zm0-11.67c-.79,0-1.3.66-1.3,1.67a5.1,5.1,0,0,0,2.29,4,2.14,2.14,0,0,0,1,.32c.8,0,1.31-.66,1.31-1.67a5.07,5.07,0,0,0-2.3-4A2.08,2.08,0,0,0,115.87,51.18Z"/><path class="cls-17" d="M112.68,46.71,125.37,54V87.41l-12.69-7.33V46.71M117.9,57.2c.83,0,1.36-.68,1.36-1.72a5.12,5.12,0,0,0-2.32-4,2.13,2.13,0,0,0-1.07-.33c-.82,0-1.35.68-1.35,1.72a5.13,5.13,0,0,0,2.32,4,2.1,2.1,0,0,0,1.06.33m0,11.66c.83,0,1.36-.67,1.36-1.72a5.13,5.13,0,0,0-2.32-4,2.22,2.22,0,0,0-1.07-.32c-.82,0-1.35.67-1.35,1.72a5.13,5.13,0,0,0,2.32,4,2.18,2.18,0,0,0,1.06.32m0,11.67c.83,0,1.36-.68,1.36-1.72a5.13,5.13,0,0,0-2.32-4,2.13,2.13,0,0,0-1.07-.33c-.82,0-1.35.68-1.35,1.72a5.12,5.12,0,0,0,2.32,4,2.1,2.1,0,0,0,1.06.33m-5.32-34v33.6l12.89,7.45V54l-12.89-7.45ZM117.9,57.1a2.05,2.05,0,0,1-1-.31,5,5,0,0,1-2.27-3.94c0-1,.51-1.62,1.25-1.62a2.09,2.09,0,0,1,1,.31,5,5,0,0,1,2.27,3.94c0,1-.51,1.62-1.26,1.62Zm0,11.66a2.05,2.05,0,0,1-1-.31,5,5,0,0,1-2.27-3.93c0-1,.51-1.62,1.25-1.62a2.09,2.09,0,0,1,1,.31,5,5,0,0,1,2.27,3.93c0,1-.51,1.62-1.26,1.62Zm0,11.67a2.05,2.05,0,0,1-1-.31,5,5,0,0,1-2.27-3.94c0-1,.51-1.62,1.25-1.62a2.09,2.09,0,0,1,1,.31,5,5,0,0,1,2.27,3.94c0,1-.51,1.62-1.26,1.62Z"/><polygon class="cls-17" points="113.08 80.46 113.08 80.4 114.95 81.48 114.95 81.54 113.08 80.46"/><polygon class="cls-17" points="112.58 79.53 112.58 80.75 115.45 82.4 115.45 81.19 112.58 79.53 112.58 79.53"/><polygon class="cls-17" points="119.79 83.3 119.82 82.77 120.47 83.23 120.55 81.21 119.86 81.06 119.76 80.44 120.67 80.63 121.06 80.86 121.04 83.53 121.72 83.95 121.7 84.4 119.79 83.3"/><path class="cls-17" d="M119.84,80.57l.8.11.35.2v2.65a.09.09,0,0,0,.05.08l.6.35v.35l-1.77-1v-.34l.58.33,0,0,0,0a.09.09,0,0,0,0-.08v-2a.11.11,0,0,0-.09-.1l-.57-.09-.1-.45m-.13-.12.15.66.64.1v2l-.73-.42v.57l2,1.14v-.57l-.65-.38V80.82l-.41-.24-1-.13Z"/><path class="cls-17" d="M124.06,85.67a1.33,1.33,0,0,1-.62-.22,2.33,2.33,0,0,1-1.2-2.1V81.48l.55.41,0,1.8a1.3,1.3,0,0,0,.64,1.19.59.59,0,0,0,.33.11c.16,0,.35-.1.35-.58V82.54l.55.41,0,1.79C124.6,85.35,124.42,85.67,124.06,85.67Z"/><path class="cls-17" d="M122.29,81.66l.42.24v1.78a1.39,1.39,0,0,0,.66,1.25.78.78,0,0,0,.36.11c.15,0,.4-.08.4-.63V82.72l.42.24v1.78c0,.58-.16.88-.49.88a1.27,1.27,0,0,1-.6-.21,2.29,2.29,0,0,1-1.17-2.06V81.66m-.1-.18v1.87a2.42,2.42,0,0,0,1.22,2.15,1.43,1.43,0,0,0,.65.22c.37,0,.59-.32.59-1V82.9l-.62-.36v1.87c0,.36-.11.53-.3.53a.62.62,0,0,1-.31-.1,1.27,1.27,0,0,1-.61-1.16V81.84l-.62-.36Z"/><path class="cls-17" d="M112.6,46.5l0-33.56,12.82,7.49,0,33.47Zm3.27-5.59c-.79,0-1.3.66-1.3,1.68a5.08,5.08,0,0,0,2.29,4,2.14,2.14,0,0,0,1,.32c.8,0,1.31-.66,1.31-1.67a5.08,5.08,0,0,0-2.3-4A2.08,2.08,0,0,0,115.87,40.91Zm0-11.66c-.79,0-1.3.65-1.3,1.67a5.1,5.1,0,0,0,2.29,4,2.12,2.12,0,0,0,1,.31c.8,0,1.31-.65,1.31-1.67a5.06,5.06,0,0,0-2.3-4A2,2,0,0,0,115.87,29.25Zm0-11.67c-.79,0-1.3.66-1.3,1.67a5.08,5.08,0,0,0,2.29,4,2.14,2.14,0,0,0,1,.32c.8,0,1.31-.66,1.31-1.67a5.08,5.08,0,0,0-2.3-4A2.08,2.08,0,0,0,115.87,17.58Z"/><path class="cls-17" d="M112.68,13.12l12.69,7.33V53.81l-12.69-7.33V13.12M117.9,23.6c.83,0,1.36-.68,1.36-1.72a5.13,5.13,0,0,0-2.32-4,2.13,2.13,0,0,0-1.07-.33c-.82,0-1.35.68-1.35,1.72a5.12,5.12,0,0,0,2.32,4,2.1,2.1,0,0,0,1.06.33m0,11.66c.83,0,1.36-.67,1.36-1.72a5.13,5.13,0,0,0-2.32-4,2.22,2.22,0,0,0-1.07-.32c-.82,0-1.35.67-1.35,1.72a5.13,5.13,0,0,0,2.32,4,2.18,2.18,0,0,0,1.06.32m0,11.67c.83,0,1.36-.68,1.36-1.72a5.13,5.13,0,0,0-2.32-4,2.13,2.13,0,0,0-1.07-.33c-.82,0-1.35.68-1.35,1.73a5.15,5.15,0,0,0,2.32,4,2.18,2.18,0,0,0,1.06.32m-5.32-34v33.6L125.47,54V20.39l-12.89-7.45ZM117.9,23.5a2.05,2.05,0,0,1-1-.31,5,5,0,0,1-2.27-3.94c0-1,.51-1.62,1.25-1.62a2.09,2.09,0,0,1,1,.31,5,5,0,0,1,2.27,3.94c0,1-.51,1.62-1.26,1.62Zm0,11.66a2.05,2.05,0,0,1-1-.31,5,5,0,0,1-2.27-3.93c0-1,.51-1.62,1.25-1.62a2.09,2.09,0,0,1,1,.31,5,5,0,0,1,2.27,3.93c0,1-.51,1.62-1.26,1.62Zm0,11.67a2.05,2.05,0,0,1-1-.31,5,5,0,0,1-2.27-3.93c0-1,.51-1.63,1.25-1.63a2.09,2.09,0,0,1,1,.31,5,5,0,0,1,2.27,3.94c0,1-.51,1.62-1.26,1.62Z"/><polygon class="cls-17" points="113.08 46.86 113.08 46.8 114.95 47.88 114.95 47.94 113.08 46.86"/><polygon class="cls-17" points="112.58 45.94 112.58 47.15 115.45 48.8 115.45 47.59 112.58 45.94 112.58 45.94"/><polygon class="cls-17" points="119.79 49.7 119.82 49.17 120.47 49.63 120.55 47.61 119.86 47.47 119.76 46.84 120.67 47.03 121.06 47.27 121.04 49.93 121.72 50.35 121.7 50.8 119.79 49.7"/><path class="cls-17" d="M119.84,47l.8.11.35.2v2.65A.09.09,0,0,0,121,50l.6.35v.35l-1.77-1v-.35l.58.33,0,0,0,0a.09.09,0,0,0,0-.08v-2a.11.11,0,0,0-.09-.1l-.57-.08-.1-.46m-.13-.12.15.66.64.1v2l-.73-.42v.57l2,1.14v-.57l-.65-.38V47.22l-.41-.23-1-.14Z"/><path class="cls-17" d="M124.06,52.07a1.3,1.3,0,0,1-.62-.21,2.36,2.36,0,0,1-1.2-2.11V47.88l.55.41,0,1.8a1.33,1.33,0,0,0,.64,1.2.65.65,0,0,0,.33.1c.16,0,.35-.1.35-.58V49l.55.4,0,1.79Q124.6,52.07,124.06,52.07Z"/><path class="cls-17" d="M122.29,48.06l.42.24v1.79a1.38,1.38,0,0,0,.66,1.24.68.68,0,0,0,.36.11c.15,0,.4-.08.4-.63V49.12l.42.24v1.78c0,.58-.16.88-.49.88a1.27,1.27,0,0,1-.6-.21,2.29,2.29,0,0,1-1.17-2.06V48.06m-.1-.18v1.87a2.41,2.41,0,0,0,1.22,2.15,1.43,1.43,0,0,0,.65.22c.37,0,.59-.31.59-1V49.3L124,49v1.86c0,.36-.11.53-.3.53a.62.62,0,0,1-.31-.1,1.26,1.26,0,0,1-.61-1.15V48.24l-.62-.36Z"/><path class="cls-17" d="M112.6,12.9l0-3.9,2,.05A4.85,4.85,0,0,0,116.86,13a2.14,2.14,0,0,0,1,.32c.8,0,1.31-.66,1.31-1.67A4.9,4.9,0,0,0,118.29,9l7.18.08,0,11.25Z"/><path class="cls-17" d="M125.37,9.1V20.21l-12.69-7.32V9.1h1.84A5.17,5.17,0,0,0,116.84,13a2.18,2.18,0,0,0,1.06.32c.83,0,1.36-.68,1.36-1.72a4.84,4.84,0,0,0-.82-2.51h6.93m.1-.1h-7.22a4.82,4.82,0,0,1,.91,2.61c0,1-.51,1.62-1.26,1.62a2.05,2.05,0,0,1-1-.31A5,5,0,0,1,114.62,9h-2v3.94l12.89,7.45V9Z"/><polygon class="cls-17" points="113.08 13.26 113.08 13.2 114.95 14.28 114.95 14.34 113.08 13.26"/><polygon class="cls-17" points="112.58 12.34 112.58 13.55 115.45 15.21 115.45 13.99 112.58 12.34 112.58 12.34"/><polygon class="cls-17" points="119.79 16.1 119.82 15.57 120.47 16.03 120.55 14.01 119.86 13.87 119.76 13.24 120.67 13.44 121.06 13.67 121.04 16.33 121.72 16.75 121.7 17.2 119.79 16.1"/><path class="cls-17" d="M119.84,13.37l.8.11.35.2v2.65a.12.12,0,0,0,.05.09l.6.35v.34l-1.77-1v-.35l.58.34h.1a.12.12,0,0,0,0-.09V14a.11.11,0,0,0-.09-.1l-.57-.08-.1-.46m-.13-.12.15.67.64.09v2l-.73-.42v.57l2,1.15v-.58l-.65-.38V13.62l-.41-.23-1-.14Z"/><path class="cls-17" d="M124.06,18.47a1.3,1.3,0,0,1-.62-.21,2.36,2.36,0,0,1-1.2-2.11V14.29l.55.4,0,1.8a1.33,1.33,0,0,0,.64,1.2.68.68,0,0,0,.33.11c.16,0,.35-.11.35-.59V15.35l.55.4,0,1.79Q124.6,18.47,124.06,18.47Z"/><path class="cls-17" d="M122.29,14.46l.42.24v1.79a1.37,1.37,0,0,0,.66,1.24.7.7,0,0,0,.36.12c.15,0,.4-.09.4-.64V15.52l.42.24v1.78c0,.58-.16.88-.49.88a1.27,1.27,0,0,1-.6-.21,2.29,2.29,0,0,1-1.17-2.06V14.46m-.1-.17v1.86a2.41,2.41,0,0,0,1.22,2.15,1.43,1.43,0,0,0,.65.22c.37,0,.59-.31.59-1V15.71l-.62-.36v1.86c0,.36-.11.54-.3.54a.65.65,0,0,1-.31-.11,1.25,1.25,0,0,1-.61-1.15V14.64l-.62-.35Z"/><path class="cls-18" d="M120,152.65l-8.41-4.86v4.27C114.4,152.23,117.21,152.44,120,152.65Z"/><path class="cls-18" d="M124.49,153V121.64l-12.89-7.45v33.6l8.41,4.86C121.5,152.76,123,152.86,124.49,153Zm-8.58-33.76a5,5,0,0,1,2.27,3.94c0,1.45-1,2-2.27,1.31a5,5,0,0,1-2.27-3.93C113.64,119.06,114.65,118.47,115.91,119.19Zm0,28.58a5,5,0,0,1-2.27-3.93c0-1.45,1-2,2.27-1.31a5,5,0,0,1,2.27,3.93C118.18,147.91,117.16,148.49,115.91,147.77Zm0-11.67a5,5,0,0,1-2.27-3.93c0-1.45,1-2,2.27-1.31a5,5,0,0,1,2.27,3.93C118.18,136.24,117.16,136.83,115.91,136.1Z"/><path class="cls-18" d="M111.6,80.6v33.59l12.89,7.45V88Zm2,29.64c0-1.45,1-2,2.27-1.31a5,5,0,0,1,2.27,3.93c0,1.45-1,2-2.27,1.31A5,5,0,0,1,113.64,110.24Zm0-11.67c0-1.45,1-2,2.27-1.31a5,5,0,0,1,2.27,3.93c0,1.45-1,2-2.27,1.32A5,5,0,0,1,113.64,98.57Zm0-11.66c0-1.45,1-2,2.27-1.31a5,5,0,0,1,2.27,3.93c0,1.45-1,2-2.27,1.31A5,5,0,0,1,113.64,86.91Z"/><polygon class="cls-19" points="111.6 114.8 114.47 116.46 114.47 115.24 111.6 113.59 111.6 114.8"/><path class="cls-18" d="M111.6,47V80.6L124.49,88V54.44Zm2,29.64c0-1.45,1-2,2.27-1.31a5,5,0,0,1,2.27,3.93c0,1.45-1,2-2.27,1.31A5,5,0,0,1,113.64,76.64Zm0-11.67c0-1.44,1-2,2.27-1.31a5,5,0,0,1,2.27,3.94c0,1.44-1,2-2.27,1.31A5,5,0,0,1,113.64,65Zm0-11.66c0-1.45,1-2,2.27-1.31a5,5,0,0,1,2.27,3.93c0,1.45-1,2-2.27,1.31A5,5,0,0,1,113.64,53.31Z"/><polygon class="cls-19" points="111.6 81.2 114.47 82.86 114.47 81.65 111.6 79.99 111.6 81.2"/><path class="cls-18" d="M111.6,13.4V47l12.89,7.44V20.84Zm2,29.64c0-1.45,1-2,2.27-1.31a5,5,0,0,1,2.27,3.93c0,1.45-1,2-2.27,1.31A5,5,0,0,1,113.64,43Zm0-11.67c0-1.44,1-2,2.27-1.31A5,5,0,0,1,118.18,34c0,1.45-1,2-2.27,1.31A5,5,0,0,1,113.64,31.37Zm0-11.66c0-1.45,1-2,2.27-1.31a5,5,0,0,1,2.27,3.93c0,1.45-1,2-2.27,1.31A5,5,0,0,1,113.64,19.71Z"/><polygon class="cls-19" points="111.6 47.6 114.47 49.26 114.47 48.05 111.6 46.39 111.6 47.6"/><path class="cls-18" d="M116.92,9a5,5,0,0,1,1.26,3.06c0,1.45-1,2-2.27,1.32a5,5,0,0,1-2.27-3.94,2.06,2.06,0,0,1,0-.44H111.6v4.4l12.89,7.44V9Z"/><path class="cls-20" d="M116.12,51.9a4.73,4.73,0,0,1,2.13,3.69c0,1.35-1,1.9-2.13,1.22A4.71,4.71,0,0,1,114,53.13C114,51.78,115,51.23,116.12,51.9Zm0,28.63A4.69,4.69,0,0,1,114,76.85c0-1.35,1-1.9,2.13-1.22a4.69,4.69,0,0,1,2.13,3.68C118.25,80.66,117.29,81.21,116.12,80.53Zm0-10.18a7.91,7.91,0,0,1-3.58-6.2c0-2.28,1.6-3.2,3.58-2.06a7.89,7.89,0,0,1,3.58,6.19C119.7,70.57,118.1,71.49,116.12,70.35Zm0,63.77a7.91,7.91,0,0,1-3.58-6.2c0-2.28,1.6-3.21,3.58-2.07a7.92,7.92,0,0,1,3.58,6.2C119.7,134.33,118.1,135.26,116.12,134.12ZM118.43,30l-6.91-4V138.75l6.91,4c1.26.73,2.29.14,2.29-1.32V34A5.08,5.08,0,0,0,118.43,30Z"/><ellipse class="cls-20" cx="116.12" cy="36.7" rx="1.11" ry="1.93" transform="translate(-2.79 62.98) rotate(-30)"/><ellipse class="cls-20" cx="116.12" cy="137.18" rx="1.11" ry="1.93" transform="translate(-53.03 76.44) rotate(-30)"/><path class="cls-17" d="M115.25,52.48a4.68,4.68,0,0,1,2.13,3.68c0,1.36-.95,1.91-2.13,1.23a4.71,4.71,0,0,1-2.12-3.68C113.13,52.35,114.08,51.8,115.25,52.48Zm0,28.63a4.71,4.71,0,0,1-2.12-3.68c0-1.36,1-1.91,2.12-1.23a4.7,4.7,0,0,1,2.13,3.68C117.38,81.24,116.43,81.79,115.25,81.11Zm0-10.18a7.94,7.94,0,0,1-3.57-6.2c0-2.28,1.6-3.21,3.57-2.07a7.91,7.91,0,0,1,3.58,6.2C118.83,71.14,117.23,72.07,115.25,70.93Zm0,63.76a7.91,7.91,0,0,1-3.57-6.2c0-2.28,1.6-3.2,3.57-2.06a7.89,7.89,0,0,1,3.58,6.2C118.83,134.91,117.23,135.83,115.25,134.69Zm2.31-104.11-6.9-4V139.33l6.9,4c1.27.73,2.29.14,2.29-1.32V34.55A5.05,5.05,0,0,0,117.56,30.58Z"/><ellipse class="cls-21" cx="115.25" cy="37.28" rx="1.11" ry="1.93" transform="translate(-3.2 62.62) rotate(-30)"/><ellipse class="cls-21" cx="115.25" cy="137.75" rx="1.11" ry="1.93" transform="matrix(0.87, -0.5, 0.5, 0.87, -53.44, 76.09)"/><path class="cls-22" d="M116.74,65.53a7,7,0,0,1-3.49-1,16.26,16.26,0,0,1-7.35-12.72c0-2.43.87-4.27,2.43-5.18a4.44,4.44,0,0,1,2.2-.56,7.06,7.06,0,0,1,3.5,1,16.25,16.25,0,0,1,7.34,12.72c0,2.43-.86,4.27-2.43,5.17A4.29,4.29,0,0,1,116.74,65.53Zm-4.27-16.88a2.16,2.16,0,0,0-1.08.27,3.21,3.21,0,0,0-1.25,2.93,11.31,11.31,0,0,0,5.12,8.86,4.29,4.29,0,0,0,2.09.66h0a2.1,2.1,0,0,0,1.07-.27,3.2,3.2,0,0,0,1.26-2.94,11.34,11.34,0,0,0-5.12-8.86A4.3,4.3,0,0,0,112.47,48.65Z"/><path class="cls-23" d="M110.53,46.39a6.7,6.7,0,0,1,3.31,1A15.8,15.8,0,0,1,121,59.79c0,2.29-.79,4-2.23,4.85a4,4,0,0,1-2,.52,6.73,6.73,0,0,1-3.31-1,15.82,15.82,0,0,1-7.15-12.39c0-2.29.79-4,2.24-4.85a3.94,3.94,0,0,1,2-.52m6.82,15.36a2.44,2.44,0,0,0,1.26-.33,3.53,3.53,0,0,0,1.44-3.26,11.75,11.75,0,0,0-5.3-9.18,4.65,4.65,0,0,0-2.28-.71,2.51,2.51,0,0,0-1.26.32,3.55,3.55,0,0,0-1.44,3.26,11.73,11.73,0,0,0,5.3,9.19,4.65,4.65,0,0,0,2.28.71m-6.82-16.11h0a4.76,4.76,0,0,0-2.39.62c-1.68,1-2.61,2.93-2.61,5.5a16.65,16.65,0,0,0,7.53,13,7.35,7.35,0,0,0,3.68,1.11,4.73,4.73,0,0,0,2.39-.62c1.69-1,2.61-2.93,2.61-5.5a16.64,16.64,0,0,0-7.52-13,7.41,7.41,0,0,0-3.69-1.11ZM117.35,61a4,4,0,0,1-1.91-.61,11.07,11.07,0,0,1-4.92-8.54,2.86,2.86,0,0,1,1.06-2.61,1.86,1.86,0,0,1,.89-.22,3.89,3.89,0,0,1,1.9.61,11,11,0,0,1,4.93,8.53,2.86,2.86,0,0,1-1.06,2.61,1.76,1.76,0,0,1-.89.23Z"/><path class="cls-22" d="M116.74,89.75a7,7,0,0,1-3.49-1.06A16.25,16.25,0,0,1,105.9,76c0-2.44.87-4.28,2.43-5.18a4.35,4.35,0,0,1,2.2-.57,7.08,7.08,0,0,1,3.5,1.06A16.23,16.23,0,0,1,121.37,84c0,2.44-.86,4.27-2.43,5.18A4.29,4.29,0,0,1,116.74,89.75Zm-4.27-16.89a2.16,2.16,0,0,0-1.08.27,3.22,3.22,0,0,0-1.25,2.94,11.33,11.33,0,0,0,5.12,8.86,4.27,4.27,0,0,0,2.09.65h0a2.1,2.1,0,0,0,1.07-.27,3.18,3.18,0,0,0,1.26-2.93,11.33,11.33,0,0,0-5.12-8.86A4.32,4.32,0,0,0,112.47,72.86Z"/><path class="cls-23" d="M110.53,70.6a6.7,6.7,0,0,1,3.31,1A15.83,15.83,0,0,1,121,84c0,2.3-.79,4-2.23,4.85a4,4,0,0,1-2,.52,6.71,6.71,0,0,1-3.31-1A15.85,15.85,0,0,1,106.28,76c0-2.3.79-4,2.24-4.86a4,4,0,0,1,2-.52M117.35,86a2.54,2.54,0,0,0,1.26-.32,3.55,3.55,0,0,0,1.44-3.26,11.75,11.75,0,0,0-5.3-9.19,4.63,4.63,0,0,0-2.28-.7,2.41,2.41,0,0,0-1.26.32,3.54,3.54,0,0,0-1.44,3.26,11.69,11.69,0,0,0,5.3,9.18,4.65,4.65,0,0,0,2.28.71m-6.82-16.11h0a4.76,4.76,0,0,0-2.39.62c-1.68,1-2.61,2.93-2.61,5.51a16.68,16.68,0,0,0,7.53,13,7.43,7.43,0,0,0,3.68,1.1,4.73,4.73,0,0,0,2.39-.62c1.69-1,2.61-2.92,2.61-5.5a16.67,16.67,0,0,0-7.52-13,7.51,7.51,0,0,0-3.69-1.11Zm6.82,15.36a4,4,0,0,1-1.91-.61,11.06,11.06,0,0,1-4.92-8.53,2.84,2.84,0,0,1,1.06-2.61,1.75,1.75,0,0,1,.89-.22,4,4,0,0,1,1.9.6,11,11,0,0,1,4.93,8.54A2.88,2.88,0,0,1,118.24,85a1.75,1.75,0,0,1-.89.22Z"/><path class="cls-22" d="M101.85,90.74a40.47,40.47,0,0,1-5.65.44h-.53a39.7,39.7,0,0,1-6.86-.7A45.92,45.92,0,0,1,76.54,86.2a61.75,61.75,0,0,1-10.38-6.73,63.6,63.6,0,0,1-8.73-8.34L56.1,69.58l1.66,1.19A63.63,63.63,0,0,0,68,76.62a59.15,59.15,0,0,0,10.93,3.81,42.31,42.31,0,0,0,9.48,1.14q.81,0,1.62,0a31.42,31.42,0,0,0,5.31-.71,24.88,24.88,0,0,0,2.55-.7l-2-5.48L111,80.8l-7,15.53Z"/><path class="cls-23" d="M57.62,71a63.13,63.13,0,0,0,10.27,5.87,58.51,58.51,0,0,0,11,3.83,42.06,42.06,0,0,0,9.52,1.15c.55,0,1.1,0,1.64,0a32.35,32.35,0,0,0,5.35-.71,26.76,26.76,0,0,0,2.82-.8L96.27,75.1l14.37,5.83L104,95.68,102,90.47a41.22,41.22,0,0,1-5.82.46h-.53a40,40,0,0,1-6.81-.69A46.31,46.31,0,0,1,76.65,86a61.55,61.55,0,0,1-10.34-6.71A64.49,64.49,0,0,1,57.62,71m-3-2.78,2.66,3.1A64,64,0,0,0,66,79.66a61.63,61.63,0,0,0,10.42,6.76,46.65,46.65,0,0,0,12.35,4.3,40,40,0,0,0,6.89.7h.54a41,41,0,0,0,5.49-.41l1.81,4.83.42,1.14.5-1.11,6.67-14.74.22-.48-.49-.19L96.46,74.63l-1-.43.39,1.07L97.56,80c-.81.26-1.56.46-2.28.62a30.67,30.67,0,0,1-5.26.7q-.8,0-1.62,0A41.78,41.78,0,0,1,79,80.18,58,58,0,0,1,68.1,76.39a62.29,62.29,0,0,1-10.19-5.83l-3.33-2.37Z"/><path class="cls-22" d="M101.17,66.24a40.59,40.59,0,0,1-5.65.43H95a40.59,40.59,0,0,1-6.85-.7A46.69,46.69,0,0,1,75.85,61.7,61.81,61.81,0,0,1,65.47,55a64.75,64.75,0,0,1-8.73-8.33l-1.32-1.55,1.66,1.18a62.77,62.77,0,0,0,10.23,5.85,58.27,58.27,0,0,0,10.94,3.81,42.26,42.26,0,0,0,9.47,1.15c.54,0,1.08,0,1.62,0a31.2,31.2,0,0,0,5.31-.7c.8-.18,1.64-.41,2.55-.71l-2-5.47,15.13,6.14-7,15.54Z"/><path class="cls-23" d="M56.93,46.46a64,64,0,0,0,10.28,5.88,58.37,58.37,0,0,0,11,3.82,42.23,42.23,0,0,0,9.53,1.16c.55,0,1.09,0,1.63,0a32.35,32.35,0,0,0,5.35-.71,26.24,26.24,0,0,0,2.83-.79l-1.94-5.19L110,56.43l-6.67,14.74-2-5.21a41.08,41.08,0,0,1-5.81.46H95a40.11,40.11,0,0,1-6.82-.7A46.24,46.24,0,0,1,76,61.47a60.7,60.7,0,0,1-10.34-6.7,64.64,64.64,0,0,1-8.7-8.31m-3-2.77,2.65,3.1a64.63,64.63,0,0,0,8.76,8.37,62.33,62.33,0,0,0,10.43,6.76,46.43,46.43,0,0,0,12.34,4.29,41,41,0,0,0,6.9.71h.54a39.17,39.17,0,0,0,5.48-.41l1.81,4.84.42,1.13.5-1.1,6.67-14.75.22-.47-.48-.2L95.78,50.13l-1.06-.43.4,1.07,1.76,4.7c-.82.25-1.57.46-2.28.62a31.73,31.73,0,0,1-5.26.69c-.54,0-1.08,0-1.62,0a42.38,42.38,0,0,1-9.42-1.14,57.93,57.93,0,0,1-10.88-3.8,62.38,62.38,0,0,1-10.2-5.82L53.9,43.69Z"/><circle class="cls-24" cx="42.94" cy="56.89" r="33.94"/><path class="cls-7" d="M37.83,78a11.37,11.37,0,0,1-5.64-1.72c-6.91-4-12.54-13.73-12.54-21.71,0-4.63,1.86-7.83,5.1-8.8a6.45,6.45,0,0,1,4.52-1.73,11.44,11.44,0,0,1,5.65,1.72,19.74,19.74,0,0,1,2.78,2,8.47,8.47,0,0,1,2.51-.62.78.78,0,0,1,0-.5.73.73,0,0,1,.36-.45,8.92,8.92,0,0,1,3.16-1,.74.74,0,0,1,.32-1,8.51,8.51,0,0,1,3.7-1.06l.61-.33a3.54,3.54,0,0,1,1.78-.45,5.37,5.37,0,0,1,1.75.32L54,41.53a3,3,0,0,1,1.54-.4,5.1,5.1,0,0,1,2.55.78,12.3,12.3,0,0,1,5.56,9.63c0,1.84-.69,3.23-1.89,3.82l0,0L59.3,56.65A3.73,3.73,0,0,1,57.42,59l0,0-.32.16,0,0a1.51,1.51,0,0,1-.21.23.71.71,0,0,1-.53.22.5.5,0,0,1-.17,0L53.92,60.8a8.43,8.43,0,0,1-.57.64.76.76,0,0,1-.91.12l-2.22,1.15a7,7,0,0,1-.62.72.75.75,0,0,1-.53.22.72.72,0,0,1-.42-.13l-1.48.77a19.32,19.32,0,0,1,.28,3.19c0,4.62-1.85,7.83-5.09,8.8A6.48,6.48,0,0,1,37.83,78Z"/><path class="cls-17" d="M55.56,41.38a4.93,4.93,0,0,1,2.42.74,12,12,0,0,1,5.44,9.42c0,1.85-.69,3.11-1.8,3.62h0L59.1,56.47a3.55,3.55,0,0,1-1.84,2.31h0l-.32.16-.28.33a.54.54,0,0,1-.36.14.41.41,0,0,1-.19,0L53.75,60.6a5.86,5.86,0,0,1-.57.66.51.51,0,0,1-.36.15.47.47,0,0,1-.35-.14h0l-2.42,1.25a7,7,0,0,1-.62.73.51.51,0,0,1-.36.15.52.52,0,0,1-.35-.14s0,0,0,0l-1.81.94a19,19,0,0,1,.31,3.32c0,4.68-2,7.7-5,8.58a6.19,6.19,0,0,1-4.4,1.7,11.19,11.19,0,0,1-5.52-1.69C25.46,72.12,19.9,62.49,19.9,54.58c0-4.69,2-7.7,5-8.58a6.17,6.17,0,0,1,4.39-1.7A11.13,11.13,0,0,1,34.79,46a19.63,19.63,0,0,1,2.87,2,8.13,8.13,0,0,1,2.77-.67l.21-.11a.49.49,0,0,1-.17-.18.51.51,0,0,1,.2-.68,8.25,8.25,0,0,1,3.43-1l.12-.07a.47.47,0,0,1-.27-.23.49.49,0,0,1,.2-.67,8.21,8.21,0,0,1,3.65-1l.64-.34h0a3.24,3.24,0,0,1,1.68-.44,5,5,0,0,1,1.77.35l2.22-1.2h0a2.8,2.8,0,0,1,1.45-.38m0-.5a3.3,3.3,0,0,0-1.66.42l0,0-2,1.09a5.48,5.48,0,0,0-1.73-.3,3.77,3.77,0,0,0-1.89.48l0,0-.54.29A8.75,8.75,0,0,0,43.91,44a.94.94,0,0,0-.48.59,1,1,0,0,0,0,.39,9,9,0,0,0-3,1,1,1,0,0,0-.48.6.84.84,0,0,0,0,.35,8.79,8.79,0,0,0-2.16.55A19,19,0,0,0,35,45.55a11.64,11.64,0,0,0-5.77-1.75,6.71,6.71,0,0,0-4.65,1.76c-3.27,1-5.22,4.37-5.22,9,0,8.06,5.68,17.9,12.66,21.93a11.7,11.7,0,0,0,5.77,1.75,6.73,6.73,0,0,0,4.66-1.76c3.26-1,5.21-4.37,5.21-9a19.56,19.56,0,0,0-.25-3l1.2-.62a1,1,0,0,0,.42.09,1,1,0,0,0,.71-.3,7.08,7.08,0,0,0,.6-.69l2.07-1.07a.9.9,0,0,0,.37.07,1,1,0,0,0,.71-.29c.19-.2.37-.4.55-.62l2.09-1.08h.13a1,1,0,0,0,.71-.29c.08-.08.15-.17.22-.25l0,0,.23-.12.06,0a4,4,0,0,0,2-2.37l2.35-1.21,0,0c1.28-.64,2-2.11,2-4a12.58,12.58,0,0,0-5.69-9.85,5.3,5.3,0,0,0-2.67-.81Z"/><path class="cls-25" d="M63.42,51.54A12,12,0,0,0,58,42.12a3.8,3.8,0,0,0-3.87-.36h0L35.13,52l4.54,14.53,22-11.38h0C62.73,54.65,63.42,53.39,63.42,51.54Z"/><path class="cls-25" d="M59.37,54.53A14.12,14.12,0,0,0,53,43.47c-1.78-1-3.39-1.11-4.54-.42h0l-22.29,12,5.33,17.06L57.26,58.79h0C58.55,58.18,59.37,56.7,59.37,54.53Z"/><path class="cls-26" d="M37.16,48.83C45.53,44.29,55,56.92,49.07,62.9"/><path class="cls-26" d="M33.3,50.82c8.38-4.55,17.82,8.09,11.92,14.07"/><path class="cls-26" d="M40.91,46.84c8.37-4.54,17.81,8.09,11.91,14.07"/><path class="cls-26" d="M44.39,44.86c8.37-4.55,17.81,8.08,11.91,14.06"/><ellipse class="cls-25" cx="34.79" cy="60.31" rx="10.13" ry="17.55" transform="translate(-25.5 25.48) rotate(-30)"/><ellipse class="cls-27" cx="32.31" cy="61.75" rx="10.13" ry="17.55" transform="translate(-26.54 24.43) rotate(-30)"/><path d="M36.61,64.35,33.7,62.67l-1.5-2.59V56.72a2.47,2.47,0,0,0-1.12-1.95h0c-.62-.36-1.13-.07-1.13.65v3.36l-1.49.86L25.54,58c-.62-.36-1.12-.07-1.12.65a2.49,2.49,0,0,0,1.12,2l2.92,1.69L30,64.83V68.2a2.5,2.5,0,0,0,1.13,2c.62.36,1.12.07,1.12-.65V66.13l1.5-.86L36.61,67c.63.36,1.13.07,1.13-.65A2.48,2.48,0,0,0,36.61,64.35Z"/><path class="cls-7" d="M31,55.08l.1,0a1.83,1.83,0,0,1,.78,1.36V60l.1.16,1.49,2.59.09.16.16.09,2.91,1.68a1.81,1.81,0,0,1,.79,1.36.34.34,0,0,1,0,.11.28.28,0,0,1-.09-.05l-2.92-1.68-.34-.2-.34.2-1.5.86-.34.2v3.87l-.1,0A1.84,1.84,0,0,1,31,68V64.42l-.09-.16-1.49-2.59-.09-.15-.16-.1-2.92-1.68a1.83,1.83,0,0,1-.78-1.36.37.37,0,0,1,0-.11l.09,0L28.52,60l.34.2.34-.2,1.49-.86.34-.2V55.18s0-.08,0-.1m-.46-.47c-.37,0-.63.3-.63.81v3.36l-1.49.86L25.54,58a1.05,1.05,0,0,0-.5-.15c-.37,0-.62.29-.62.8a2.49,2.49,0,0,0,1.12,2l2.92,1.69L30,64.83V68.2a2.5,2.5,0,0,0,1.13,2,1.05,1.05,0,0,0,.5.15c.37,0,.62-.29.62-.8V66.13l1.5-.86L36.61,67a1,1,0,0,0,.51.16c.37,0,.62-.3.62-.81a2.48,2.48,0,0,0-1.13-2L33.7,62.67l-1.5-2.59V56.72a2.47,2.47,0,0,0-1.12-1.95h0a1,1,0,0,0-.5-.16Z"/></g></svg>