<svg xmlns="http://www.w3.org/2000/svg" viewBox="0 0 200 96"><defs><style>.cls-1,.cls-2{fill:#fff;}.cls-2,.cls-4,.cls-6{fill-rule:evenodd;}.cls-3{fill:#a6a7aa;}.cls-4,.cls-5{fill:#a5a6a9;}.cls-6,.cls-7{fill:#d0d2d3;}.cls-8{fill:#58595b;}.cls-10,.cls-11,.cls-9{fill:none;stroke-miterlimit:10;}.cls-9{stroke:#fff;stroke-width:4px;}.cls-10,.cls-9{stroke-linecap:round;}.cls-10{stroke:#81bc4f;}.cls-10,.cls-11{stroke-width:2.4px;}.cls-11{stroke:#6b9d41;stroke-dasharray:4.8 4.8;}</style></defs><g id="Rulers"><rect class="cls-1" width="200" height="96"/><path class="cls-2" d="M164.37,86.38V36.66H35.57V86.38a.11.11,0,0,0,.11.11H164.26a.11.11,0,0,0,.11-.11Z"/><path class="cls-3" d="M164.37,36.55V86.27h0a.11.11,0,0,1-.11.11H35.68a.11.11,0,0,1-.11-.11V36.55h128.8m.45-.45H35.12V86.27a.56.56,0,0,0,.56.56H164.26a.55.55,0,0,0,.33-.11h.23V36.1Z"/><path class="cls-4" d="M130.8,59.37v-9a.38.38,0,0,0-.37-.37h-60a.37.37,0,0,0-.36.37v9h.29v.07a.33.33,0,0,0,.33.33h59.49a.33.33,0,0,0,.33-.33h0v-.07Z"/><path class="cls-2" d="M130.43,50h-60v1a.15.15,0,0,1-.15.15h-.06v8.23h.06a.15.15,0,0,1,.15.15h0v.58h59.82v-.58a.15.15,0,0,1,.15-.15h.29V51.14h-.12a.15.15,0,0,1-.15-.15Z"/><path class="cls-5" d="M130.32,60.16H70.38v-.64a.09.09,0,0,0-.09-.09h-.12V51.08h.12a.09.09,0,0,0,.09-.09V49.91h60.11V51a.09.09,0,0,0,.09.09h.18v8.35h-.35a.09.09,0,0,0-.09.09ZM70.5,60h59.71v-.52a.2.2,0,0,1,.2-.21h.24V51.19h-.07a.21.21,0,0,1-.21-.2V50H70.5v1a.2.2,0,0,1-.21.2h0v8.12h0a.21.21,0,0,1,.21.21Z"/><path class="cls-6" d="M70.79,59.52h59.27a.19.19,0,0,0,.19-.19h0v-9a.18.18,0,0,0-.19-.18H70.79a.19.19,0,0,0-.19.18v9A.2.2,0,0,0,70.79,59.52Z"/><path class="cls-5" d="M130.06,59.57H70.79a.24.24,0,0,1-.24-.24v-9a.23.23,0,0,1,.24-.23h59.27a.23.23,0,0,1,.24.23v9A.24.24,0,0,1,130.06,59.57ZM70.79,50.24a.13.13,0,0,0-.13.12v9a.13.13,0,0,0,.13.13h59.27a.13.13,0,0,0,.13-.13v-9a.13.13,0,0,0-.13-.12Z"/><rect class="cls-1" x="126.91" y="60.26" width="4.01" height="0.34"/><path class="cls-5" d="M131,60.66h-4.12V60.2H131Zm-4-.11h3.9v-.23H127Z"/><rect class="cls-1" x="93.58" y="58.74" width="2.12" height="2.16"/><path class="cls-5" d="M95.75,61H93.52V58.69h2.23Zm-2.12-.11h2V58.8h-2Z"/><path class="cls-2" d="M100.37,59.46a2.57,2.57,0,0,1-.73-.1L98,58.85a2.64,2.64,0,0,0-.73-.11H95.4a.14.14,0,0,0-.12.15v1.87a.13.13,0,0,0,.12.14H107V59.46Z"/><path class="cls-5" d="M107.08,61H95.4a.18.18,0,0,1-.17-.2V58.89a.18.18,0,0,1,.17-.2h1.82a2.33,2.33,0,0,1,.74.11l1.7.5a2.45,2.45,0,0,0,.71.11h6.71ZM95.4,58.8s-.06,0-.06.09v1.87c0,.05,0,.09.06.09H107V59.52h-6.6a2.78,2.78,0,0,1-.75-.11l-1.69-.51a2.44,2.44,0,0,0-.71-.1Z"/><path class="cls-1" d="M92.41,59.46V60.9h1.51s.09-.06.09-.14h0V58.89c0-.08,0-.15-.09-.15h-.65a.19.19,0,0,0-.15.08l-.48.57a.21.21,0,0,1-.15.07Z"/><path class="cls-5" d="M93.92,61H92.36V59.41h.13a.12.12,0,0,0,.1-.06l.49-.57a.25.25,0,0,1,.19-.09h.65c.08,0,.15.08.15.2v1.87C94.07,60.87,94,61,93.92,61Zm-1.45-.11h1.45a.11.11,0,0,0,0-.09V58.89c0-.06,0-.09,0-.09h-.65a.14.14,0,0,0-.1.05l-.49.57a.26.26,0,0,1-.19.1h0Z"/><rect class="cls-1" x="106.98" y="59.46" width="20.32" height="1.44"/><path class="cls-5" d="M127.36,61H106.93V59.41h20.43ZM107,60.85h20.2V59.52H107Z"/><rect class="cls-1" x="70.06" y="59.46" width="15.75" height="1.44"/><path class="cls-5" d="M85.86,61H70V59.41H85.86Zm-15.75-.11H85.75V59.52H70.11Z"/><path class="cls-2" d="M96.23,60.71h10v-1h-5.94a2.87,2.87,0,0,1-.77-.11L97.88,59a2.25,2.25,0,0,0-.68-.11h-1Z"/><path class="cls-5" d="M106.31,60.77H96.18V58.88h1a2.3,2.3,0,0,1,.69.1l1.68.52a2.4,2.4,0,0,0,.75.12h6Zm-10-.12h9.91v-.92h-5.88a2.54,2.54,0,0,1-.78-.12l-1.68-.52a2.16,2.16,0,0,0-.66-.1h-.91Z"/><rect class="cls-1" x="69.01" y="59.93" width="2.17" height="0.97"/><path class="cls-5" d="M71.23,61H69V59.87h2.27Zm-2.16-.11h2.05V60H69.07Z"/><polygon class="cls-2" points="97.85 59.86 97.04 59.46 97.04 60.29 97.85 59.86"/><path class="cls-5" d="M97,60.39v-1l1,.48Zm.11-.84v.65l.64-.34Z"/><rect class="cls-1" x="85.72" y="59.46" width="5.66" height="1.44"/><path class="cls-5" d="M91.44,61H85.66V59.41h5.78Zm-5.67-.11h5.55V59.52H85.77Z"/><rect class="cls-1" x="91.38" y="59.46" width="1.03" height="1.44"/><path class="cls-5" d="M92.47,61H91.32V59.41h1.15Zm-1-.11h.92V59.52h-.92Z"/><path class="cls-4" d="M130.8,70.86v-9a.37.37,0,0,0-.37-.36h-60a.36.36,0,0,0-.36.36v9h.29v.08a.32.32,0,0,0,.33.32h59.49a.32.32,0,0,0,.33-.32h0v-.08Z"/><path class="cls-2" d="M130.43,61.46h-60v1a.15.15,0,0,1-.15.14h-.06v8.23h.06a.15.15,0,0,1,.15.15h0v.58h59.82V71a.15.15,0,0,1,.15-.15h.29V62.63h-.12a.15.15,0,0,1-.15-.14Z"/><path class="cls-5" d="M130.32,71.65H70.38V71a.09.09,0,0,0-.09-.09h-.12V62.58h.12a.09.09,0,0,0,.09-.09V61.4h60.11v1.09a.09.09,0,0,0,.09.09h.18v8.34h-.35a.09.09,0,0,0-.09.09ZM70.5,71.54h59.71V71a.2.2,0,0,1,.2-.2h.24V62.69h-.07a.21.21,0,0,1-.21-.2v-1H70.5v1a.2.2,0,0,1-.21.2h0v8.12h0a.2.2,0,0,1,.21.2Z"/><path class="cls-6" d="M70.79,71h59.27a.18.18,0,0,0,.19-.18h0v-9a.18.18,0,0,0-.19-.18H70.79a.19.19,0,0,0-.19.18v9A.19.19,0,0,0,70.79,71Z"/><path class="cls-5" d="M130.06,71.07H70.79a.24.24,0,0,1-.24-.24v-9a.24.24,0,0,1,.24-.24h59.27a.24.24,0,0,1,.24.24v9A.24.24,0,0,1,130.06,71.07ZM70.79,61.73a.13.13,0,0,0-.13.13v9a.12.12,0,0,0,.13.12h59.27a.12.12,0,0,0,.13-.12v-9a.13.13,0,0,0-.13-.13Z"/><rect class="cls-1" x="126.91" y="71.75" width="4.01" height="0.34"/><path class="cls-5" d="M131,72.15h-4.12V71.7H131ZM127,72h3.9v-.23H127Z"/><rect class="cls-1" x="93.58" y="70.24" width="2.12" height="2.16"/><path class="cls-5" d="M95.75,72.45H93.52V70.18h2.23Zm-2.12-.11h2v-2h-2Z"/><path class="cls-2" d="M100.37,71a2.58,2.58,0,0,1-.73-.11L98,70.34a2.62,2.62,0,0,0-.73-.1H95.4a.13.13,0,0,0-.12.14v1.87a.14.14,0,0,0,.12.15H107V71Z"/><path class="cls-5" d="M107.08,72.45H95.4a.18.18,0,0,1-.17-.2V70.38a.18.18,0,0,1,.17-.2h1.82a2.65,2.65,0,0,1,.74.11l1.7.51a2.83,2.83,0,0,0,.71.1h6.71ZM95.4,70.29s-.06,0-.06.09v1.87s0,.09.06.09H107V71h-6.6a2.78,2.78,0,0,1-.75-.11l-1.69-.5a2.45,2.45,0,0,0-.71-.11Z"/><path class="cls-1" d="M92.41,71V72.4h1.51s.09-.07.09-.15h0V70.38c0-.08,0-.14-.09-.14h-.65a.18.18,0,0,0-.15.07l-.48.57a.22.22,0,0,1-.15.08Z"/><path class="cls-5" d="M93.92,72.45H92.36V70.9h.13a.12.12,0,0,0,.1-.06l.49-.57a.25.25,0,0,1,.19-.09h.65c.08,0,.15.09.15.2v1.87C94.07,72.36,94,72.45,93.92,72.45Zm-1.45-.11h1.45s0,0,0-.09V70.38c0-.06,0-.09,0-.09h-.65a.12.12,0,0,0-.1.06l-.49.57a.25.25,0,0,1-.19.09h0Z"/><rect class="cls-1" x="106.98" y="70.96" width="20.32" height="1.44"/><path class="cls-5" d="M127.36,72.45H106.93V70.9h20.43ZM107,72.34h20.2V71H107Z"/><rect class="cls-1" x="70.06" y="70.96" width="15.75" height="1.44"/><path class="cls-5" d="M85.86,72.45H70V70.9H85.86Zm-15.75-.11H85.75V71H70.11Z"/><path class="cls-2" d="M96.23,72.2h10v-1h-5.94a2.53,2.53,0,0,1-.77-.12l-1.67-.52a2.24,2.24,0,0,0-.68-.1h-1Z"/><path class="cls-5" d="M106.31,72.26H96.18V70.37h1a2.31,2.31,0,0,1,.69.11l1.68.52a2.72,2.72,0,0,0,.75.11h6Zm-10-.11h9.91v-.93h-5.88a2.54,2.54,0,0,1-.78-.12l-1.68-.52a2.51,2.51,0,0,0-.66-.1h-.91Z"/><rect class="cls-1" x="69.01" y="71.42" width="2.17" height="0.97"/><path class="cls-5" d="M71.23,72.45H69V71.37h2.27Zm-2.16-.11h2.05v-.86H69.07Z"/><polygon class="cls-2" points="97.85 71.35 97.04 70.95 97.04 71.79 97.85 71.35"/><path class="cls-5" d="M97,71.88v-1l1,.49Zm.11-.84v.65l.64-.34Z"/><rect class="cls-1" x="85.72" y="70.96" width="5.66" height="1.44"/><path class="cls-5" d="M91.44,72.45H85.66V70.9h5.78Zm-5.67-.11h5.55V71H85.77Z"/><rect class="cls-1" x="91.38" y="70.96" width="1.03" height="1.44"/><path class="cls-5" d="M92.47,72.45H91.32V70.9h1.15Zm-1-.11h.92V71h-.92Z"/><path class="cls-4" d="M130.8,82.36v-9a.37.37,0,0,0-.37-.37h-60a.36.36,0,0,0-.36.37v9h.29v.07a.33.33,0,0,0,.33.33h59.49a.33.33,0,0,0,.33-.33h0v-.07Z"/><path class="cls-2" d="M130.43,73h-60v1a.15.15,0,0,1-.15.15h-.06v8.23h.06a.15.15,0,0,1,.15.14h0v.59h59.82V82.5a.15.15,0,0,1,.15-.14h.29V74.13h-.12a.15.15,0,0,1-.15-.15Z"/><path class="cls-5" d="M130.32,83.14H70.38V82.5a.09.09,0,0,0-.09-.09h-.12V74.07h.12a.09.09,0,0,0,.09-.09V72.9h60.11V74a.09.09,0,0,0,.09.09h.18v8.34h-.35a.09.09,0,0,0-.09.09ZM70.5,83h59.71V82.5a.2.2,0,0,1,.2-.2h.24V74.18h-.07a.21.21,0,0,1-.21-.2V73H70.5v1a.2.2,0,0,1-.21.2h0V82.3h0a.2.2,0,0,1,.21.2Z"/><path class="cls-2" d="M70.79,82.5h59.27a.18.18,0,0,0,.19-.18h0v-9a.18.18,0,0,0-.19-.18H70.79a.19.19,0,0,0-.19.18v9A.19.19,0,0,0,70.79,82.5Z"/><path class="cls-5" d="M130.06,82.56H70.79a.24.24,0,0,1-.24-.24v-9a.24.24,0,0,1,.24-.24h59.27a.24.24,0,0,1,.24.24v9A.24.24,0,0,1,130.06,82.56ZM70.79,73.23a.12.12,0,0,0-.13.12v9a.13.13,0,0,0,.13.13h59.27a.13.13,0,0,0,.13-.13v-9a.12.12,0,0,0-.13-.12Z"/><rect class="cls-1" x="126.91" y="83.25" width="4.01" height="0.34"/><path class="cls-5" d="M131,83.65h-4.12v-.46H131Zm-4-.12h3.9V83.3H127Z"/><rect class="cls-1" x="93.58" y="81.73" width="2.12" height="2.16"/><path class="cls-5" d="M95.75,83.94H93.52V81.67h2.23Zm-2.12-.11h2v-2h-2Z"/><path class="cls-2" d="M100.37,82.45a2.58,2.58,0,0,1-.73-.11L98,81.84a2.64,2.64,0,0,0-.73-.11H95.4a.13.13,0,0,0-.12.14v1.87a.14.14,0,0,0,.12.15H107V82.45Z"/><path class="cls-5" d="M107.08,83.94H95.4a.18.18,0,0,1-.17-.2V81.87a.18.18,0,0,1,.17-.2h1.82a2.65,2.65,0,0,1,.74.11l1.7.51a2.44,2.44,0,0,0,.71.1h6.71ZM95.4,81.79s-.06,0-.06.08v1.87c0,.05,0,.09.06.09H107V82.51h-6.6a2.78,2.78,0,0,1-.75-.11l-1.69-.51a2.44,2.44,0,0,0-.71-.1Z"/><path class="cls-1" d="M92.41,82.45v1.44h1.51s.09-.07.09-.15h0V81.87c0-.08,0-.14-.09-.14h-.65a.21.21,0,0,0-.15.07l-.48.57a.22.22,0,0,1-.15.08Z"/><path class="cls-5" d="M93.92,83.94H92.36V82.39h.13a.14.14,0,0,0,.1,0l.49-.57a.26.26,0,0,1,.19-.1h.65c.08,0,.15.09.15.2v1.87C94.07,83.86,94,83.94,93.92,83.94Zm-1.45-.11h1.45s0,0,0-.09V81.87a.08.08,0,0,0,0-.08h-.65a.14.14,0,0,0-.1,0l-.49.57a.26.26,0,0,1-.19.1h0Z"/><rect class="cls-1" x="106.98" y="82.45" width="20.32" height="1.44"/><path class="cls-5" d="M127.36,83.94H106.93V82.39h20.43ZM107,83.83h20.2V82.51H107Z"/><rect class="cls-1" x="70.06" y="82.45" width="15.75" height="1.44"/><path class="cls-5" d="M85.86,83.94H70V82.39H85.86Zm-15.75-.11H85.75V82.51H70.11Z"/><path class="cls-2" d="M96.23,83.7h10v-1h-5.94a2.53,2.53,0,0,1-.77-.12L97.88,82a2.24,2.24,0,0,0-.68-.1h-1Z"/><path class="cls-5" d="M106.31,83.75H96.18V81.86h1a2.31,2.31,0,0,1,.69.11l1.68.52a2.39,2.39,0,0,0,.75.11h6Zm-10-.11h9.91v-.92h-5.88a2.54,2.54,0,0,1-.78-.12l-1.68-.52a2.16,2.16,0,0,0-.66-.1h-.91Z"/><rect class="cls-1" x="69.01" y="82.92" width="2.17" height="0.97"/><path class="cls-5" d="M71.23,83.94H69V82.86h2.27Zm-2.16-.11h2.05V83H69.07Z"/><polygon class="cls-2" points="97.85 82.84 97.04 82.45 97.04 83.28 97.85 82.84"/><path class="cls-5" d="M97,83.37v-1l1,.48Zm.11-.83v.65l.64-.34Z"/><rect class="cls-1" x="85.72" y="82.45" width="5.66" height="1.44"/><path class="cls-5" d="M91.44,83.94H85.66V82.39h5.78Zm-5.67-.11h5.55V82.51H85.77Z"/><rect class="cls-1" x="91.38" y="82.45" width="1.03" height="1.44"/><path class="cls-5" d="M92.47,83.94H91.32V82.39h1.15Zm-1-.11h.92V82.51h-.92Z"/><path class="cls-4" d="M130.8,47.88V38.83a.37.37,0,0,0-.37-.36h-60a.36.36,0,0,0-.36.36v9.05h.29V48a.33.33,0,0,0,.33.33h59.49a.33.33,0,0,0,.33-.33h0v-.07Z"/><path class="cls-2" d="M130.43,38.47h-60v1a.15.15,0,0,1-.15.14h-.06v8.24h.06a.15.15,0,0,1,.15.14h0v.59h59.82V48a.15.15,0,0,1,.15-.14h.29V39.64h-.12a.15.15,0,0,1-.15-.14Z"/><path class="cls-5" d="M130.32,48.66H70.38V48a.09.09,0,0,0-.09-.09h-.12V39.59h.12a.09.09,0,0,0,.09-.09V38.41h60.11V39.5a.09.09,0,0,0,.09.09h.18v8.34h-.35a.09.09,0,0,0-.09.09ZM70.5,48.55h59.71V48a.2.2,0,0,1,.2-.2h.24V39.7h-.07a.21.21,0,0,1-.21-.2v-1H70.5v1a.2.2,0,0,1-.21.2h0v8.12h0a.2.2,0,0,1,.21.2Z"/><path class="cls-2" d="M70.79,48h59.27a.18.18,0,0,0,.19-.18h0v-9a.18.18,0,0,0-.19-.18H70.79a.19.19,0,0,0-.19.18v9A.19.19,0,0,0,70.79,48Z"/><path class="cls-5" d="M130.06,48.08H70.79a.24.24,0,0,1-.24-.24v-9a.24.24,0,0,1,.24-.24h59.27a.24.24,0,0,1,.24.24v9A.24.24,0,0,1,130.06,48.08ZM70.79,38.74a.13.13,0,0,0-.13.13v9a.13.13,0,0,0,.13.13h59.27a.13.13,0,0,0,.13-.13v-9a.13.13,0,0,0-.13-.13Z"/><rect class="cls-1" x="126.91" y="48.77" width="4.01" height="0.34"/><path class="cls-5" d="M131,49.16h-4.12v-.45H131Zm-4-.11h3.9v-.23H127Z"/><rect class="cls-1" x="93.58" y="47.25" width="2.12" height="2.16"/><path class="cls-5" d="M95.75,49.46H93.52V47.19h2.23Zm-2.12-.11h2V47.3h-2Z"/><path class="cls-2" d="M100.37,48a2.58,2.58,0,0,1-.73-.11L98,47.36a2.31,2.31,0,0,0-.73-.11H95.4a.13.13,0,0,0-.12.14v1.87a.14.14,0,0,0,.12.15H107V48Z"/><path class="cls-5" d="M107.08,49.46H95.4a.18.18,0,0,1-.17-.2V47.39a.18.18,0,0,1,.17-.2h1.82a2.65,2.65,0,0,1,.74.11l1.7.51a2.44,2.44,0,0,0,.71.1h6.71ZM95.4,47.3s-.06,0-.06.09v1.87c0,.05,0,.09.06.09H107V48h-6.6a2.43,2.43,0,0,1-.75-.11l-1.69-.5a2.45,2.45,0,0,0-.71-.11Z"/><path class="cls-1" d="M92.41,48v1.44h1.51s.09-.07.09-.15h0V47.39c0-.08,0-.14-.09-.14h-.65a.18.18,0,0,0-.15.07l-.48.57a.22.22,0,0,1-.15.08Z"/><path class="cls-5" d="M93.92,49.46H92.36V47.91h.13a.14.14,0,0,0,.1,0l.49-.57a.26.26,0,0,1,.19-.1h.65c.08,0,.15.09.15.2v1.87C94.07,49.38,94,49.46,93.92,49.46Zm-1.45-.11h1.45s0,0,0-.09V47.39a.11.11,0,0,0,0-.09h-.65a.12.12,0,0,0-.1.06l-.49.57a.25.25,0,0,1-.19.09h0Z"/><rect class="cls-1" x="106.98" y="47.97" width="20.32" height="1.44"/><path class="cls-5" d="M127.36,49.46H106.93V47.91h20.43ZM107,49.35h20.2V48H107Z"/><rect class="cls-1" x="70.06" y="47.97" width="15.75" height="1.44"/><path class="cls-5" d="M85.86,49.46H70V47.91H85.86Zm-15.75-.11H85.75V48H70.11Z"/><path class="cls-2" d="M96.23,49.22h10v-1h-5.94a2.53,2.53,0,0,1-.77-.12l-1.67-.52a2.24,2.24,0,0,0-.68-.1h-1Z"/><path class="cls-5" d="M106.31,49.27H96.18V47.38h1a2.31,2.31,0,0,1,.69.11l1.68.52a2.39,2.39,0,0,0,.75.11h6Zm-10-.11h9.91v-.92h-5.88a2.54,2.54,0,0,1-.78-.12l-1.68-.52a2.17,2.17,0,0,0-.66-.11h-.91Z"/><rect class="cls-1" x="69.01" y="48.44" width="2.17" height="0.97"/><path class="cls-5" d="M71.23,49.46H69V48.38h2.27Zm-2.16-.11h2.05v-.86H69.07Z"/><polygon class="cls-2" points="97.85 48.36 97.04 47.97 97.04 48.8 97.85 48.36"/><path class="cls-5" d="M97,48.89v-1l1,.48Zm.11-.83v.65l.64-.34Z"/><rect class="cls-1" x="85.72" y="47.97" width="5.66" height="1.44"/><path class="cls-5" d="M91.44,49.46H85.66V47.91h5.78Zm-5.67-.11h5.55V48H85.77Z"/><rect class="cls-1" x="91.38" y="47.97" width="1.03" height="1.44"/><path class="cls-5" d="M92.47,49.46H91.32V47.91h1.15Zm-1-.11h.92V48h-.92Z"/><path class="cls-3" d="M67.18,85.38H36.31a.24.24,0,0,1-.24-.24V37.79a.25.25,0,0,1,.24-.25H67.18a.25.25,0,0,1,.24.25V85.14A.24.24,0,0,1,67.18,85.38ZM36.31,37.66a.13.13,0,0,0-.13.13V85.14a.13.13,0,0,0,.13.13H67.18a.13.13,0,0,0,.13-.13V37.79a.13.13,0,0,0-.13-.13Z"/><path class="cls-3" d="M54.2,60.52A10.68,10.68,0,1,1,64.88,49.85,10.64,10.64,0,0,1,54.2,60.52Zm0-21.23A10.56,10.56,0,1,0,64.77,49.85,10.57,10.57,0,0,0,54.2,39.29Z"/><path class="cls-3" d="M54.2,58.45a8.61,8.61,0,1,1,8.61-8.61h0A8.61,8.61,0,0,1,54.2,58.45Zm0-17.09a8.5,8.5,0,0,0-8.49,8.49,8.5,8.5,0,0,0,8.49,8.49,8.51,8.51,0,0,0,8.5-8.48h0a8.48,8.48,0,0,0-8.5-8.49Zm8.61,8.49Z"/><path class="cls-3" d="M54.2,56.38a6.53,6.53,0,1,1,6.54-6.53h0A6.54,6.54,0,0,1,54.2,56.38Zm0-13a6.42,6.42,0,1,0,6.43,6.42A6.43,6.43,0,0,0,54.2,43.43Zm6.48,6.42Z"/><path class="cls-3" d="M54.2,54.31a4.46,4.46,0,1,1,4.47-4.46h0A4.47,4.47,0,0,1,54.2,54.31Zm0-8.81a4.35,4.35,0,1,0,4.35,4.35A4.35,4.35,0,0,0,54.2,45.5Zm4.41,4.35Z"/><path class="cls-3" d="M54.2,52.23a2.39,2.39,0,1,1,2.39-2.38A2.39,2.39,0,0,1,54.2,52.23Zm0-4.66a2.28,2.28,0,1,0,2.28,2.28A2.28,2.28,0,0,0,54.2,47.57Z"/><path class="cls-3" d="M64.15,59.85l0,0-8.64-8.64a1.8,1.8,0,0,0-2.53,0L44.3,59.83a.06.06,0,0,1-.08-.08l8.64-8.64a1.92,1.92,0,0,1,2.69,0l8.64,8.64a.06.06,0,0,1,0,.08Z"/><path class="cls-3" d="M54.2,49.14a1.92,1.92,0,0,1-1.34-.56l-8.64-8.64a.06.06,0,0,1,.08-.08l8.64,8.64A1.8,1.8,0,0,0,54.2,49a1.78,1.78,0,0,0,1.27-.52l8.64-8.64a.06.06,0,1,1,.08.08l-8.64,8.64A1.9,1.9,0,0,1,54.2,49.14Z"/><path class="cls-3" d="M54.2,83.76A10.68,10.68,0,1,1,64.88,73.08,10.61,10.61,0,0,1,54.2,83.76Zm0-21.24A10.56,10.56,0,1,0,64.77,73.08,10.58,10.58,0,0,0,54.2,62.52Z"/><path class="cls-3" d="M54.2,81.68a8.6,8.6,0,0,1-8.6-8.6,8.61,8.61,0,0,1,17.21,0h0A8.61,8.61,0,0,1,54.2,81.68Zm0-17.09a8.5,8.5,0,0,0-8.49,8.49,8.5,8.5,0,0,0,8.49,8.49,8.51,8.51,0,0,0,8.5-8.48h0a8.5,8.5,0,0,0-8.5-8.49Zm8.61,8.49Z"/><path class="cls-3" d="M54.2,79.61a6.53,6.53,0,1,1,6.54-6.53h0A6.54,6.54,0,0,1,54.2,79.61Zm0-13a6.42,6.42,0,1,0,6.43,6.42A6.43,6.43,0,0,0,54.2,66.66Zm6.48,6.42Z"/><path class="cls-3" d="M54.2,77.54a4.46,4.46,0,1,1,4.47-4.46h0A4.47,4.47,0,0,1,54.2,77.54Zm0-8.8a4.35,4.35,0,1,0,4.35,4.34A4.34,4.34,0,0,0,54.2,68.74Zm4.41,4.34Z"/><path class="cls-3" d="M54.2,75.47a2.39,2.39,0,1,1,2.39-2.39A2.39,2.39,0,0,1,54.2,75.47Zm0-4.66a2.28,2.28,0,1,0,2.28,2.27A2.27,2.27,0,0,0,54.2,70.81Z"/><path class="cls-3" d="M64.15,83.08a0,0,0,0,1,0,0l-8.64-8.63a1.79,1.79,0,0,0-1.27-.53,1.8,1.8,0,0,0-1.26.53L44.3,83.06s-.06,0-.08,0a.06.06,0,0,1,0-.08l8.64-8.63a1.88,1.88,0,0,1,1.34-.56,1.9,1.9,0,0,1,1.35.56L64.19,83a.06.06,0,0,1,0,.08S64.17,83.08,64.15,83.08Z"/><path class="cls-3" d="M54.2,72.37a1.88,1.88,0,0,1-1.34-.56l-8.64-8.63a.06.06,0,0,1,.08-.08l8.64,8.63a1.77,1.77,0,0,0,2.53,0l8.64-8.63a.06.06,0,1,1,.08.08l-8.64,8.63A1.88,1.88,0,0,1,54.2,72.37Z"/><rect class="cls-1" x="34.83" y="37.08" width="27.43" height="0.52"/><path class="cls-3" d="M62.31,37.66H34.77V37H62.31Zm-27.42-.12H62.2v-.4H34.89Z"/><rect class="cls-1" x="34.83" y="85.33" width="27.43" height="0.52"/><path class="cls-3" d="M62.31,85.9H34.77v-.63H62.31Zm-27.42-.11H62.2v-.41H34.89Z"/><path class="cls-2" d="M66.66,37.08H62.25v.52h4.41a.18.18,0,0,1,.18.19h0V85.14a.19.19,0,0,1-.18.19H62.25v.52h4.41a.7.7,0,0,0,.7-.71h0V37.79a.7.7,0,0,0-.7-.71Z"/><path class="cls-3" d="M66.66,85.9H62.2v-.63h4.46a.13.13,0,0,0,.13-.13V37.79a.13.13,0,0,0-.13-.13H62.2V37h4.46a.76.76,0,0,1,.76.76V85.14A.76.76,0,0,1,66.66,85.9Zm-4.35-.11h4.35a.65.65,0,0,0,.65-.65V37.79a.65.65,0,0,0-.65-.65H62.31v.4h4.35a.25.25,0,0,1,.24.25V85.14a.24.24,0,0,1-.24.24H62.31Z"/><path class="cls-2" d="M67.36,56.84V38.34H66.14a.26.26,0,0,1-.26-.26h0V37.6H62.44v.89h.18v1h-.37v44h.37v1h-.18v.89h3.44v-.48a.26.26,0,0,1,.26-.26h1.22V66.09H64.47a.37.37,0,0,1-.36-.37V57.21a.37.37,0,0,1,.36-.37Z"/><path class="cls-3" d="M65.94,85.38H62.38v-1h.19v-.85H62.2V39.39h.37v-.84h-.19v-1h3.56v.54a.2.2,0,0,0,.2.2h1.28V56.9h-3a.31.31,0,0,0-.31.31v8.51a.31.31,0,0,0,.31.31h3V84.64H66.14a.2.2,0,0,0-.2.21Zm-3.44-.11h3.32v-.42a.32.32,0,0,1,.32-.32h1.17V66.15H64.47a.43.43,0,0,1-.42-.43V57.21a.42.42,0,0,1,.42-.43h2.84V38.4H66.14a.32.32,0,0,1-.31-.26h0v-.48H62.5v.77h.18v1.08h-.37V83.42h.37V84.5H62.5Z"/><rect class="cls-1" x="64.77" y="58.5" width="1.48" height="5.92"/><path class="cls-3" d="M66.31,64.48h-1.6v-6h1.6Zm-1.48-.11H66.2V58.56H64.83Z"/><rect class="cls-1" x="66.25" y="58.5" width="1.11" height="5.92"/><path class="cls-3" d="M67.42,64.48H66.2v-6h1.22Zm-1.11-.11h1V58.56h-1Z"/><path class="cls-3" d="M132.58,85.14V37.79a.25.25,0,0,1,.24-.25h30.87a.25.25,0,0,1,.24.25V85.14a.24.24,0,0,1-.24.24H132.82A.24.24,0,0,1,132.58,85.14Zm.24-47.48a.13.13,0,0,0-.13.13V85.14a.13.13,0,0,0,.13.13h30.87a.13.13,0,0,0,.13-.13V37.79a.13.13,0,0,0-.13-.13Z"/><path class="cls-3" d="M135.12,49.85A10.68,10.68,0,1,1,145.8,60.52,10.69,10.69,0,0,1,135.12,49.85Zm.11,0A10.57,10.57,0,1,0,145.8,39.29,10.58,10.58,0,0,0,135.23,49.85Z"/><path class="cls-3" d="M137.19,49.85h0a8.61,8.61,0,1,1,8.61,8.61A8.57,8.57,0,0,1,137.19,49.84Zm2.6-6a8.48,8.48,0,0,0-2.49,6h0a8.49,8.49,0,0,0,14.5,6,8.41,8.41,0,0,0,2.49-6,8.5,8.5,0,0,0-14.5-6Zm-2.6,6Z"/><path class="cls-3" d="M139.26,49.85h0a6.54,6.54,0,1,1,6.54,6.53A6.54,6.54,0,0,1,139.26,49.85Zm.11,0a6.43,6.43,0,1,0,6.43-6.42A6.44,6.44,0,0,0,139.37,49.85Zm-.05,0Z"/><path class="cls-3" d="M141.33,49.85h0a4.47,4.47,0,1,1,4.47,4.46A4.47,4.47,0,0,1,141.33,49.85Zm.12,0a4.35,4.35,0,1,0,4.35-4.35A4.35,4.35,0,0,0,141.45,49.85Zm-.06,0Z"/><path class="cls-3" d="M143.41,49.85a2.39,2.39,0,1,1,2.39,2.38A2.39,2.39,0,0,1,143.41,49.85Zm.11,0a2.28,2.28,0,1,0,2.28-2.28A2.28,2.28,0,0,0,143.52,49.85Z"/><path class="cls-3" d="M135.85,59.85l0,0,8.64-8.64a1.8,1.8,0,0,1,2.53,0l8.64,8.64a.06.06,0,1,0,.08-.08l-8.64-8.64a1.92,1.92,0,0,0-2.69,0l-8.64,8.64a.06.06,0,0,0,0,.08Z"/><path class="cls-3" d="M145.8,49.14a1.92,1.92,0,0,0,1.34-.56l8.64-8.64a.06.06,0,1,0-.08-.08l-8.64,8.64a1.8,1.8,0,0,1-1.26.52,1.78,1.78,0,0,1-1.27-.52l-8.64-8.64a.06.06,0,0,0-.08.08l8.64,8.64A1.9,1.9,0,0,0,145.8,49.14Z"/><path class="cls-3" d="M135.12,73.08A10.68,10.68,0,1,1,145.8,83.76,10.69,10.69,0,0,1,135.12,73.08Zm.11,0A10.57,10.57,0,1,0,145.8,62.52,10.57,10.57,0,0,0,135.23,73.08Z"/><path class="cls-3" d="M137.19,73.08h0a8.61,8.61,0,1,1,8.61,8.61A8.54,8.54,0,0,1,137.19,73.07Zm2.6-6a8.43,8.43,0,0,0-2.49,6h0a8.51,8.51,0,0,0,8.5,8.48,8.5,8.5,0,0,0,8.49-8.49,8.5,8.5,0,0,0-8.49-8.49A8.42,8.42,0,0,0,139.79,67.08Zm-2.6,6Z"/><path class="cls-3" d="M139.26,73.08h0a6.54,6.54,0,1,1,6.54,6.53A6.54,6.54,0,0,1,139.26,73.08Zm.11,0a6.43,6.43,0,1,0,6.43-6.42A6.44,6.44,0,0,0,139.37,73.08Zm-.05,0Z"/><path class="cls-3" d="M141.33,73.08h0a4.47,4.47,0,1,1,4.47,4.46A4.47,4.47,0,0,1,141.33,73.08Zm.12,0a4.35,4.35,0,1,0,4.35-4.34A4.35,4.35,0,0,0,141.45,73.08Zm-.06,0Z"/><path class="cls-3" d="M143.41,73.08a2.39,2.39,0,1,1,2.39,2.39A2.39,2.39,0,0,1,143.41,73.08Zm.11,0a2.28,2.28,0,1,0,2.28-2.27A2.28,2.28,0,0,0,143.52,73.08Z"/><path class="cls-3" d="M135.85,83.08a0,0,0,0,0,0,0l8.64-8.63a1.79,1.79,0,0,1,1.27-.53,1.8,1.8,0,0,1,1.26.53l8.64,8.63s.06,0,.08,0a.06.06,0,0,0,0-.08l-8.64-8.63a1.88,1.88,0,0,0-1.34-.56,1.9,1.9,0,0,0-1.35.56L135.81,83a.06.06,0,0,0,0,.08S135.83,83.08,135.85,83.08Z"/><path class="cls-3" d="M145.8,72.37a1.88,1.88,0,0,0,1.34-.56l8.64-8.63a.06.06,0,1,0-.08-.08l-8.64,8.63a1.77,1.77,0,0,1-2.53,0l-8.64-8.63a.06.06,0,0,0-.08.08l8.64,8.63A1.88,1.88,0,0,0,145.8,72.37Z"/><rect class="cls-1" x="137.75" y="37.08" width="27.43" height="0.52"/><path class="cls-3" d="M137.69,37h27.54v.63H137.69Zm27.42.11H137.8v.4h27.31Z"/><rect class="cls-1" x="137.75" y="85.33" width="27.43" height="0.52"/><path class="cls-3" d="M137.69,85.27h27.54v.63H137.69Zm27.42.11H137.8v.41h27.31Z"/><path class="cls-2" d="M133.34,37.08h4.41v.52h-4.41a.18.18,0,0,0-.18.19h0V85.14a.19.19,0,0,0,.18.19h4.41v.52h-4.41a.7.7,0,0,1-.7-.71h0V37.79a.7.7,0,0,1,.7-.71Z"/><path class="cls-3" d="M132.58,85.14V37.79a.76.76,0,0,1,.76-.76h4.46v.63h-4.46a.13.13,0,0,0-.13.13V85.14a.13.13,0,0,0,.13.13h4.46v.63h-4.46A.76.76,0,0,1,132.58,85.14Zm5.11.24h-4.35a.24.24,0,0,1-.24-.24V37.79a.25.25,0,0,1,.24-.25h4.35v-.4h-4.35a.65.65,0,0,0-.65.65V85.14a.65.65,0,0,0,.65.65h4.35Z"/><path class="cls-2" d="M132.64,56.84V38.34h1.22a.26.26,0,0,0,.26-.26h0V37.6h3.44v.89h-.18v1h.37v44h-.37v1h.18v.89h-3.44v-.48a.26.26,0,0,0-.26-.26h-1.22V66.09h2.89a.37.37,0,0,0,.36-.37V57.21a.37.37,0,0,0-.36-.37Z"/><path class="cls-3" d="M134.06,84.85a.2.2,0,0,0-.2-.21h-1.28V66h2.95a.31.31,0,0,0,.31-.31V57.21a.31.31,0,0,0-.31-.31h-2.95V38.28h1.28a.2.2,0,0,0,.2-.2v-.54h3.56v1h-.19v.84h.37V83.53h-.37v.85h.19v1h-3.56Zm3.44-.35h-.18V83.42h.37V39.51h-.37V38.43h.18v-.77h-3.32v.48h0a.32.32,0,0,1-.31.26h-1.17V56.78h2.84a.42.42,0,0,1,.42.43v8.51a.43.43,0,0,1-.42.43h-2.84V84.53h1.17a.32.32,0,0,1,.32.32v.42h3.32Z"/><rect class="cls-1" x="133.75" y="58.5" width="1.48" height="5.92"/><path class="cls-3" d="M133.69,58.45h1.6v6h-1.6Zm1.48.11H133.8v5.81h1.37Z"/><rect class="cls-1" x="132.64" y="58.5" width="1.11" height="5.92"/><path class="cls-3" d="M132.58,58.45h1.22v6h-1.22Zm1.11.11h-1v5.81h1Z"/><rect class="cls-7" x="35.37" y="9.53" width="57.03" height="14.4"/><rect class="cls-8" x="43.85" y="13.5" width="10.64" height="6.47"/><rect class="cls-8" x="65.89" y="13.5" width="10.64" height="6.47"/><rect class="cls-7" x="107.59" y="9.53" width="57.03" height="14.4"/><rect class="cls-8" x="116.06" y="13.5" width="10.64" height="6.47"/><rect class="cls-8" x="138.11" y="13.5" width="10.64" height="6.47"/><rect class="cls-8" x="75.84" y="51.66" width="5.7" height="5.7"/><rect class="cls-8" x="84.26" y="51.66" width="5.7" height="5.7"/><rect class="cls-8" x="75.84" y="63.47" width="5.7" height="5.7"/><rect class="cls-8" x="84.26" y="63.47" width="5.7" height="5.7"/><path class="cls-9" d="M48.94,16.73c-.47,33,10.86,42.81,29.75,37.78"/><path class="cls-10" d="M48.94,16.73c-.47,33,10.86,42.81,29.75,37.78"/><path class="cls-11" d="M48.94,16.73c-.47,33,10.86,42.81,29.75,37.78"/><path class="cls-9" d="M71,16.73c-5.41,41-1.93,54.77,7.71,49.59"/><path class="cls-10" d="M71,16.73c-5.41,41-1.93,54.77,7.71,49.59"/><path class="cls-11" d="M71,16.73c-5.41,41-1.93,54.77,7.71,49.59"/><path class="cls-9" d="M121.16,16.73c-.56,38.93-15.28,43.29-34,37.78"/><path class="cls-10" d="M121.16,16.73c-.56,38.93-15.28,43.29-34,37.78"/><path class="cls-9" d="M144,16.73c-1.24,36.56-20.44,52.81-56.84,49.59"/><path class="cls-10" d="M144,16.73c-1.24,36.56-20.44,52.81-56.84,49.59"/></g></svg>