<svg xmlns="http://www.w3.org/2000/svg" xmlns:xlink="http://www.w3.org/1999/xlink" viewBox="0 0 268 127"><defs><style>.cls-1,.cls-19,.cls-28,.cls-31,.cls-33{fill:none;}.cls-2{clip-path:url(#clip-path);}.cls-3,.cls-7{fill:#fff;}.cls-10,.cls-11,.cls-12,.cls-16,.cls-17,.cls-18,.cls-22,.cls-23,.cls-24,.cls-25,.cls-27,.cls-3,.cls-5,.cls-9{fill-rule:evenodd;}.cls-27,.cls-4{fill:#a6a7aa;}.cls-5,.cls-6{fill:#a5a6a9;}.cls-8,.cls-9{fill:#ccc;}.cls-10{fill:#e6e6e6;}.cls-11{fill:#535353;}.cls-12{fill:#292929;}.cls-13{fill:#b3b3b3;}.cls-14{fill:#1a1a1a;}.cls-15,.cls-22{fill:#666;}.cls-16{fill:#cdcdcd;}.cls-17{fill:#333;}.cls-18{fill:#8c8c8c;}.cls-19{stroke:#f6e96a;stroke-width:0.1px;}.cls-19,.cls-31,.cls-32{stroke-miterlimit:10;}.cls-20{fill:#d9d9d9;}.cls-21{fill:#595959;}.cls-23{fill:#d66927;}.cls-24,.cls-29,.cls-32{fill:#404040;}.cls-25,.cls-26{fill:#f6e96a;}.cls-28{stroke:#404040;}.cls-28,.cls-33{stroke-linejoin:round;}.cls-30{fill:#4d4d4d;}.cls-31{stroke:#4d4d4d;stroke-linecap:round;stroke-width:6px;}.cls-32{stroke:#404041;stroke-width:0.5px;}.cls-33{stroke:#2e2e2e;stroke-width:0.25px;}</style><clipPath id="clip-path"><rect class="cls-1" x="6.25" y="9" width="255.5" height="109"/></clipPath></defs><g id="Rulers"><g class="cls-2"><path class="cls-3" d="M257.52,54.89h1V19.27a2,2,0,0,0-2-2H12.05a2,2,0,0,0-2,2V54.89h1a.33.33,0,0,1,.33.33v7.19a.33.33,0,0,1-.33.33h-1V98.36a2,2,0,0,0,2,2H256.54a2,2,0,0,0,2-2V62.74h-1a.33.33,0,0,1-.33-.33V55.22A.33.33,0,0,1,257.52,54.89ZM254,21.46a1.31,1.31,0,1,1-1.31,1.31A1.31,1.31,0,0,1,254,21.46Zm0,15.66a1.63,1.63,0,1,1,0,3.26,1.63,1.63,0,1,1,0-3.26ZM14.58,21.46a1.31,1.31,0,1,1-1.3,1.31A1.3,1.3,0,0,1,14.58,21.46Zm0,15.66A1.63,1.63,0,1,1,13,38.75,1.63,1.63,0,0,1,14.58,37.12Zm0,62.62a1.31,1.31,0,1,1,1.31-1.3A1.3,1.3,0,0,1,14.58,99.74Zm0-4.32a2.74,2.74,0,1,1,2.75-2.74A2.74,2.74,0,0,1,14.58,95.42ZM13,55.09a1.64,1.64,0,1,1,1.63,1.64A1.63,1.63,0,0,1,13,55.09Zm1.63-5.43a2.74,2.74,0,1,1,2.75-2.74A2.74,2.74,0,0,1,14.58,49.66ZM254,99.74a1.31,1.31,0,1,1,1.31-1.3A1.31,1.31,0,0,1,254,99.74Zm0-4.32a2.74,2.74,0,1,1,2.74-2.74A2.75,2.75,0,0,1,254,95.42Zm-1.63-40.33A1.62,1.62,0,0,1,254,53.46a1.64,1.64,0,1,1,0,3.27A1.63,1.63,0,0,1,252.38,55.09ZM254,49.66a2.74,2.74,0,1,1,2.74-2.74A2.75,2.75,0,0,1,254,49.66Z"/><path class="cls-4" d="M256.54,17.31a2,2,0,0,1,2,2V54.89h-1a.33.33,0,0,0-.33.33v7.19a.33.33,0,0,0,.33.33h1V98.36a2,2,0,0,1-2,2H12.05a2,2,0,0,1-2-2V62.74h1a.33.33,0,0,0,.33-.33V55.22a.33.33,0,0,0-.33-.33h-1V19.27a2,2,0,0,1,2-2H256.54M254,24.08a1.31,1.31,0,1,0,0-2.62,1.31,1.31,0,0,0,0,2.62m-239.43,0a1.31,1.31,0,1,0,0-2.62,1.31,1.31,0,0,0,0,2.62M254,40.38a1.63,1.63,0,1,0,0-3.26,1.63,1.63,0,1,0,0,3.26m-239.43,0A1.63,1.63,0,1,0,13,38.75a1.63,1.63,0,0,0,1.63,1.63M254,49.66a2.74,2.74,0,1,0-2.76-2.74A2.74,2.74,0,0,0,254,49.66m-239.43,0a2.74,2.74,0,1,0-2.74-2.74,2.75,2.75,0,0,0,2.74,2.74M254,56.73a1.64,1.64,0,1,0,0-3.27,1.64,1.64,0,0,0,0,3.27m-239.43,0A1.64,1.64,0,1,0,13,55.09a1.63,1.63,0,0,0,1.63,1.64M254,95.42a2.74,2.74,0,1,0-2.76-2.74A2.74,2.74,0,0,0,254,95.42m-239.43,0a2.74,2.74,0,1,0-2.74-2.74,2.75,2.75,0,0,0,2.74,2.74M254,99.74a1.31,1.31,0,1,0,0-2.61,1.31,1.31,0,1,0,0,2.61m-239.43,0a1.31,1.31,0,1,0-1.3-1.3,1.31,1.31,0,0,0,1.3,1.3m242-83.23H12.05a2.77,2.77,0,0,0-2.76,2.76V55.69H10.6v6.25H9.29V98.36a2.76,2.76,0,0,0,2.76,2.76H256.54a2.75,2.75,0,0,0,2.75-2.76V61.94H258V55.69h1.3V19.27a2.76,2.76,0,0,0-2.75-2.76ZM254,23.28a.51.51,0,0,1-.51-.51.5.5,0,0,1,.51-.51.51.51,0,0,1,.51.51.53.53,0,0,1-.51.51Zm-239.43,0a.52.52,0,0,1-.51-.51.51.51,0,0,1,.51-.51.5.5,0,0,1,.51.51.51.51,0,0,1-.51.51ZM254,39.59a.84.84,0,0,1,0-1.68.84.84,0,0,1,0,1.68Zm-239.43,0a.84.84,0,1,1,.84-.84.84.84,0,0,1-.84.84ZM254,48.87a1.95,1.95,0,1,1,2-1.95,2,2,0,0,1-2,1.95Zm-239.43,0a1.95,1.95,0,1,1,2-1.95,2,2,0,0,1-2,1.95ZM254,55.93a.83.83,0,0,1-.84-.84.82.82,0,0,1,.84-.83.84.84,0,1,1,0,1.67Zm-239.43,0a.84.84,0,1,1,.84-.84.83.83,0,0,1-.84.84ZM254,94.63a1.95,1.95,0,1,1,2-1.95,2,2,0,0,1-2,1.95Zm-239.43,0a1.95,1.95,0,1,1,2-1.95,2,2,0,0,1-2,1.95ZM254,99a.52.52,0,0,1-.51-.51.5.5,0,0,1,.51-.51.51.51,0,0,1,.51.51A.53.53,0,0,1,254,99ZM14.58,99a.53.53,0,0,1-.51-.51.51.51,0,0,1,.51-.51.5.5,0,0,1,.51.51.52.52,0,0,1-.51.51Z"/><path class="cls-3" d="M248,102.62V14.82H20.58v87.8a.2.2,0,0,0,.2.19h227a.19.19,0,0,0,.19-.19Z"/><path class="cls-4" d="M248,14.82v87.8h0a.19.19,0,0,1-.19.19h-227a.2.2,0,0,1-.2-.19V14.82H248m.8-.8h-229v88.6a1,1,0,0,0,1,1h227a1,1,0,0,0,.59-.2h.4V14Z"/><path class="cls-5" d="M188.73,55.12v-16a.65.65,0,0,0-.65-.64h-106a.64.64,0,0,0-.64.64v16H82v.13a.58.58,0,0,0,.58.58H187.63a.58.58,0,0,0,.58-.58h0v-.13Z"/><path class="cls-3" d="M188.08,38.51H82.16v1.82a.26.26,0,0,1-.26.25h-.12V55.12h.12a.26.26,0,0,1,.26.26h0v1H187.78v-1a.26.26,0,0,1,.26-.26h.53V40.58h-.23a.26.26,0,0,1-.26-.25Z"/><path class="cls-6" d="M187.88,56.5H82.06V55.38a.16.16,0,0,0-.16-.16h-.22V40.48h.22a.16.16,0,0,0,.16-.15V38.41H188.18v1.92a.16.16,0,0,0,.16.15h.32V55.22H188a.16.16,0,0,0-.16.16ZM82.26,56.31H187.68v-.93A.36.36,0,0,1,188,55h.43V40.68h-.13a.36.36,0,0,1-.36-.35V38.61H82.26v1.72a.36.36,0,0,1-.36.35h0V55h0a.36.36,0,0,1,.36.36Z"/><path class="cls-3" d="M82.77,55.38H187.44a.33.33,0,0,0,.32-.33h0V39.22a.32.32,0,0,0-.32-.32H82.77a.32.32,0,0,0-.32.32V55.05A.32.32,0,0,0,82.77,55.38Z"/><path class="cls-6" d="M187.44,55.47H82.77a.42.42,0,0,1-.42-.42V39.22a.42.42,0,0,1,.42-.42H187.44a.42.42,0,0,1,.42.42V55.05A.42.42,0,0,1,187.44,55.47ZM82.77,39a.22.22,0,0,0-.22.23V55.05a.22.22,0,0,0,.22.23H187.44a.22.22,0,0,0,.22-.23V39.22a.22.22,0,0,0-.22-.23Z"/><rect class="cls-7" x="181.87" y="56.69" width="7.08" height="0.61"/><path class="cls-6" d="M189.05,57.39h-7.28v-.8h7.28Zm-7.08-.2h6.88v-.4H182Z"/><rect class="cls-7" x="123.01" y="54.01" width="3.75" height="3.81"/><path class="cls-6" d="M126.85,57.92h-3.94v-4h3.94Zm-3.74-.2h3.55V54.11h-3.55Z"/><path class="cls-3" d="M135,55.28a4.38,4.38,0,0,1-1.29-.19l-3-.89a4.32,4.32,0,0,0-1.28-.19h-3.21a.23.23,0,0,0-.21.25v3.31a.23.23,0,0,0,.21.25h20.53V55.28Z"/><path class="cls-6" d="M146.86,57.92H126.23a.33.33,0,0,1-.31-.35V54.26a.33.33,0,0,1,.31-.35h3.21a4.88,4.88,0,0,1,1.31.19l3,.9a4.46,4.46,0,0,0,1.26.18h11.86Zm-20.63-3.81c-.06,0-.11.07-.11.15v3.31c0,.08,0,.15.11.15h20.43V55.38H135a4.82,4.82,0,0,1-1.31-.19l-3-.9a4.51,4.51,0,0,0-1.26-.18Z"/><path class="cls-7" d="M121,55.28v2.54h2.66c.09,0,.17-.11.17-.25h0V54.26c0-.14-.08-.25-.17-.25h-1.15a.34.34,0,0,0-.25.13l-.86,1a.35.35,0,0,1-.26.13Z"/><path class="cls-6" d="M123.61,57.92h-2.76V55.18h.24a.21.21,0,0,0,.18-.1l.86-1a.43.43,0,0,1,.33-.17h1.15a.32.32,0,0,1,.27.35v3.31C123.88,57.77,123.76,57.92,123.61,57.92Zm-2.56-.2h2.56s.07,0,.07-.15V54.26c0-.1-.05-.15-.07-.15h-1.15a.24.24,0,0,0-.18.1l-.86,1a.42.42,0,0,1-.33.17h0Z"/><rect class="cls-7" x="146.68" y="55.28" width="35.87" height="2.54"/><path class="cls-6" d="M182.65,57.92H146.58V55.18h36.07Zm-35.87-.2h35.68V55.38H146.78Z"/><rect class="cls-7" x="81.48" y="55.28" width="27.81" height="2.54"/><path class="cls-6" d="M109.38,57.92h-28V55.18h28Zm-27.8-.2h27.61V55.38H81.58Z"/><path class="cls-3" d="M127.7,57.48h17.7V55.65H134.91a4.8,4.8,0,0,1-1.35-.2l-3-.92a4,4,0,0,0-1.19-.18H127.7Z"/><path class="cls-6" d="M145.5,57.58H127.6V54.25h1.81a4.24,4.24,0,0,1,1.22.18l3,.92a4.27,4.27,0,0,0,1.32.2H145.5Zm-17.7-.2h17.5V55.75H134.91a4.67,4.67,0,0,1-1.38-.21l-3-.92a3.85,3.85,0,0,0-1.16-.18H127.8Z"/><rect class="cls-7" x="79.63" y="56.11" width="3.83" height="1.72"/><path class="cls-6" d="M83.56,57.92h-4V56h4Zm-3.83-.2h3.63V56.21H79.73Z"/><polygon class="cls-3" points="130.56 55.98 129.12 55.28 129.12 56.75 130.56 55.98"/><path class="cls-6" d="M129,56.91V55.12l1.76.85Zm.2-1.47v1.14l1.12-.6Z"/><rect class="cls-7" x="109.13" y="55.28" width="10" height="2.54"/><path class="cls-6" d="M119.23,57.92H109V55.18h10.2Zm-10-.2H119V55.38h-9.8Z"/><rect class="cls-7" x="119.13" y="55.28" width="1.82" height="2.54"/><path class="cls-6" d="M121.05,57.92h-2V55.18h2Zm-1.82-.2h1.62V55.38h-1.62Z"/><path class="cls-5" d="M188.73,75.41v-16a.65.65,0,0,0-.65-.65h-106a.65.65,0,0,0-.64.65v16H82v.13a.58.58,0,0,0,.58.58H187.63a.58.58,0,0,0,.58-.58h0v-.13Z"/><path class="cls-3" d="M188.08,58.8H82.16v1.82a.26.26,0,0,1-.26.26h-.12V75.41h.12a.26.26,0,0,1,.26.26h0v1H187.78v-1a.26.26,0,0,1,.26-.26h.53V60.88h-.23a.26.26,0,0,1-.26-.26Z"/><path class="cls-6" d="M187.88,76.8H82.06V75.67a.16.16,0,0,0-.16-.16h-.22V60.78h.22a.16.16,0,0,0,.16-.16V58.7H188.18v1.92a.16.16,0,0,0,.16.16h.32V75.51H188a.16.16,0,0,0-.16.16ZM82.26,76.6H187.68v-.93a.36.36,0,0,1,.36-.36h.43V61h-.13a.36.36,0,0,1-.36-.36V58.9H82.26v1.72a.36.36,0,0,1-.36.36h0V75.31h0a.36.36,0,0,1,.36.36Z"/><path class="cls-3" d="M84.06,77.16H188.72a.32.32,0,0,0,.32-.32h0V61a.32.32,0,0,0-.32-.32H84.06a.32.32,0,0,0-.33.32V76.84A.32.32,0,0,0,84.06,77.16Z"/><path class="cls-6" d="M187.44,75.77H82.77a.42.42,0,0,1-.42-.42V59.51a.42.42,0,0,1,.42-.42H187.44a.42.42,0,0,1,.42.42V75.35A.42.42,0,0,1,187.44,75.77ZM82.77,59.29a.22.22,0,0,0-.22.22V75.35a.22.22,0,0,0,.22.22H187.44a.22.22,0,0,0,.22-.22V59.51a.22.22,0,0,0-.22-.22Z"/><rect class="cls-7" x="181.87" y="76.98" width="7.08" height="0.61"/><path class="cls-6" d="M189.05,77.69h-7.28v-.81h7.28Zm-7.08-.2h6.88v-.41H182Z"/><rect class="cls-7" x="123.01" y="74.3" width="3.75" height="3.81"/><path class="cls-6" d="M126.85,78.22h-3.94v-4h3.94Zm-3.74-.2h3.55V74.4h-3.55Z"/><path class="cls-3" d="M135,75.57a4.73,4.73,0,0,1-1.29-.18l-3-.9a4.67,4.67,0,0,0-1.28-.19h-3.21a.24.24,0,0,0-.21.26v3.3a.24.24,0,0,0,.21.26h20.53V75.57Z"/><path class="cls-6" d="M146.86,78.22H126.23a.34.34,0,0,1-.31-.36v-3.3a.33.33,0,0,1,.31-.35h3.21a4.51,4.51,0,0,1,1.31.19l3,.89a4.47,4.47,0,0,0,1.26.19h11.86ZM126.23,74.4c-.06,0-.11.07-.11.16v3.3c0,.09,0,.16.11.16h20.43V75.67H135a4.47,4.47,0,0,1-1.31-.19l-3-.89a4.53,4.53,0,0,0-1.26-.19Z"/><path class="cls-7" d="M121,75.57v2.55h2.66c.09,0,.17-.12.17-.26h0v-3.3c0-.14-.08-.26-.17-.26h-1.15a.33.33,0,0,0-.25.14l-.86,1a.32.32,0,0,1-.26.13Z"/><path class="cls-6" d="M123.61,78.22h-2.76V75.48h.24a.24.24,0,0,0,.18-.1l.86-1a.42.42,0,0,1,.33-.16h1.15c.15,0,.27.15.27.35v3.3C123.88,78.06,123.76,78.22,123.61,78.22Zm-2.56-.2h2.56s.07-.06.07-.16v-3.3c0-.1-.05-.16-.07-.16h-1.15a.27.27,0,0,0-.18.1l-.86,1a.44.44,0,0,1-.33.16h0Z"/><rect class="cls-7" x="146.68" y="75.57" width="35.87" height="2.54"/><path class="cls-6" d="M182.65,78.22H146.58V75.48h36.07ZM146.78,78h35.68V75.67H146.78Z"/><rect class="cls-7" x="81.48" y="75.57" width="27.81" height="2.54"/><path class="cls-6" d="M109.38,78.22h-28V75.48h28ZM81.58,78h27.61V75.67H81.58Z"/><path class="cls-3" d="M127.7,77.78h17.7V76H134.91a4.47,4.47,0,0,1-1.35-.21l-3-.92a4,4,0,0,0-1.19-.18H127.7Z"/><path class="cls-6" d="M145.5,77.88H127.6V74.54h1.81a3.93,3.93,0,0,1,1.22.19l3,.92a4.59,4.59,0,0,0,1.32.2H145.5Zm-17.7-.2h17.5V76.05H134.91a4.67,4.67,0,0,1-1.38-.21l-3-.92a3.85,3.85,0,0,0-1.16-.18H127.8Z"/><rect class="cls-7" x="79.63" y="76.4" width="3.83" height="1.72"/><path class="cls-6" d="M83.56,78.22h-4V76.3h4ZM79.73,78h3.63V76.5H79.73Z"/><polygon class="cls-3" points="130.56 76.27 129.12 75.57 129.12 77.04 130.56 76.27"/><path class="cls-6" d="M129,77.21v-1.8l1.76.86Zm.2-1.48v1.15l1.12-.6Z"/><rect class="cls-7" x="109.13" y="75.57" width="10" height="2.54"/><path class="cls-6" d="M119.23,78.22H109V75.48h10.2Zm-10-.2H119V75.67h-9.8Z"/><rect class="cls-7" x="119.13" y="75.57" width="1.82" height="2.54"/><path class="cls-6" d="M121.05,78.22h-2V75.48h2Zm-1.82-.2h1.62V75.67h-1.62Z"/><rect class="cls-8" x="80.79" y="17.52" width="0.45" height="18.64"/><rect class="cls-8" x="188.8" y="17.52" width="0.45" height="18.64"/><path class="cls-9" d="M81.64,36.81H188.41a.38.38,0,0,0,.39-.39h0V17.65a.38.38,0,0,0-.39-.39H81.64a.38.38,0,0,0-.39.39V36.42A.38.38,0,0,0,81.64,36.81Z"/><rect class="cls-8" x="188.8" y="17.52" width="0.45" height="18.64"/><polygon class="cls-10" points="81.57 36.81 188.47 36.81 188.47 35.25 188.8 35.25 188.8 17.91 188.47 17.91 188.47 17.26 81.57 17.26 81.57 17.91 81.25 17.91 81.25 35.25 81.57 35.25 81.57 36.81"/><path class="cls-11" d="M99.69,31.6h6.09a.65.65,0,0,0,.64-.65h0V21.69a.65.65,0,0,0-.64-.65H99.69a.65.65,0,0,0-.65.65V31A.65.65,0,0,0,99.69,31.6Z"/><path class="cls-11" d="M83.29,35.57H96.51a.32.32,0,0,0,.33-.32h0V18a.33.33,0,0,0-.33-.33H83.29A.32.32,0,0,0,83,18V35.25A.32.32,0,0,0,83.29,35.57Z"/><path class="cls-12" d="M95.57,32.84V20.45A1.62,1.62,0,0,0,94,18.82h-8.1a1.63,1.63,0,0,0-1.62,1.63V32.84a1.62,1.62,0,0,0,1.62,1.62H94a1.61,1.61,0,0,0,1.62-1.62Z"/><rect class="cls-13" x="91.53" y="21.76" width="1.06" height="3.33"/><rect class="cls-13" x="87.21" y="24.98" width="1.06" height="3.34"/><rect class="cls-13" x="91.53" y="28.19" width="1.06" height="3.34"/><rect class="cls-14" x="96.83" y="22.15" width="2.2" height="7.69"/><rect class="cls-15" x="96.83" y="24.43" width="2.2" height="3.13"/><rect class="cls-14" x="100.14" y="22.41" width="5.18" height="7.82"/><path class="cls-16" d="M102.73,24.33a.16.16,0,0,1,.16.16h0V25.8a.16.16,0,0,1-.32,0V24.49A.16.16,0,0,1,102.73,24.33Z"/><path class="cls-17" d="M108.39,35.3H125.3a.45.45,0,0,0,.45-.45h0V19.4a.46.46,0,0,0-.45-.46H108.39a.46.46,0,0,0-.45.46V34.85A.45.45,0,0,0,108.39,35.3Z"/><path class="cls-18" d="M119.61,31.4a.17.17,0,0,0-.18-.17.18.18,0,0,0-.17.18h0l.11,1.14a.06.06,0,0,0,.08.05,0,0,0,0,0,0-.05l.11-1.15Z"/><path class="cls-18" d="M119.64,33a.2.2,0,1,0-.2.2A.2.2,0,0,0,119.64,33Z"/><path class="cls-18" d="M114.6,31.36a.92.92,0,1,0,.91.92A.91.91,0,0,0,114.6,31.36Zm-.1.17a.76.76,0,0,1,.78.42l-.52.52-.21-.8-.7.7A.75.75,0,0,1,114.5,31.53Zm.19,1.5a.75.75,0,0,1-.77-.42l.52-.53.21.81.7-.7A.76.76,0,0,1,114.69,33Z"/><line class="cls-19" x1="109.85" y1="25.84" x2="109.99" y2="25.84"/><line class="cls-19" x1="109.85" y1="25.84" x2="109.85" y2="28"/><path class="cls-19" d="M109.85,28c.85,0,1.42-.25,1.7,0V25.84"/><path class="cls-19" d="M112.84,25.71c-.52-.11-1-.23-1.29.13-.28-.36-.76-.24-1.29-.13v1.71c.53-.11,1-.24,1.29.13.29-.37.77-.24,1.29-.13Z"/><line class="cls-19" x1="113.26" y1="25.84" x2="113.11" y2="25.84"/><path class="cls-19" d="M110.26,25.75H110v2c.63,0,1.2-.27,1.56.08.37-.35.93-.1,1.56-.08v-2h-.27"/><line class="cls-19" x1="113.26" y1="25.84" x2="113.26" y2="28"/><path class="cls-19" d="M113.26,28c-.86,0-1.42-.25-1.71,0V25.84"/><rect class="cls-20" x="183.95" y="36.19" width="5.31" height="0.91"/><rect class="cls-21" x="120.85" y="33.72" width="2.59" height="3.91"/><rect class="cls-21" x="149.29" y="35.02" width="34.66" height="2.61"/><rect class="cls-21" x="148.38" y="35.02" width="0.91" height="2.61"/><rect class="cls-21" x="81.26" y="35.02" width="25.79" height="2.61"/><rect class="cls-21" x="107.05" y="35.02" width="0.91" height="2.61"/><path class="cls-22" d="M134,35a6.88,6.88,0,0,1-1.57-.19l-3.65-.92a6.42,6.42,0,0,0-1.57-.19h-3.92a.26.26,0,0,0-.26.26v3.39a.26.26,0,0,0,.26.26h25.07V35Z"/><path class="cls-23" d="M125.12,37.24H147V35.41H134a6.63,6.63,0,0,1-1.66-.21l-3.66-.91a6,6,0,0,0-1.47-.18h-2.11Z"/><polygon class="cls-24" points="128.15 35.65 127.03 35.13 127.03 36.21 128.15 35.65"/><path class="cls-22" d="M117.06,35H108v2.61h13a.26.26,0,0,0,.26-.26h0V34a.26.26,0,0,0-.26-.26h-1.79a.66.66,0,0,0-.4.13l-1.33,1A.63.63,0,0,1,117.06,35Z"/><rect class="cls-15" x="79.32" y="35.87" width="3.89" height="1.76"/><rect class="cls-8" x="183.95" y="37.1" width="4.86" height="0.52"/><path class="cls-16" d="M102.73,27a.92.92,0,1,0,.91.92A.92.92,0,0,0,102.73,27Zm0,1.51a.59.59,0,0,1,0-1.18.59.59,0,1,1,0,1.18Z"/><path class="cls-25" d="M113.29,23.32l-1.61-2.8a.31.31,0,0,0-.42-.12.43.43,0,0,0-.11.12l-1.61,2.8a.32.32,0,0,0,.11.42.29.29,0,0,0,.16,0H113a.3.3,0,0,0,.3-.31A.28.28,0,0,0,113.29,23.32Zm-.23.22h-3.25a.08.08,0,0,1-.08-.08.08.08,0,0,1,0,0l1.61-2.8a.08.08,0,0,1,.11,0l0,0,1.61,2.8A.08.08,0,0,1,113.06,23.54Z"/><path class="cls-25" d="M111.59,21.57a.18.18,0,0,0-.18-.19.19.19,0,0,0-.17.19h0l.08,1.23a.1.1,0,0,0,.11.08.1.1,0,0,0,.08-.09l.08-1.23Z"/><path class="cls-25" d="M111.59,23.19a.18.18,0,0,0-.17-.17.17.17,0,0,0-.17.17.17.17,0,0,0,.17.18A.18.18,0,0,0,111.59,23.19Z"/><path class="cls-25" d="M124.5,23.32l-1.61-2.8a.31.31,0,0,0-.42-.12.25.25,0,0,0-.11.12l-1.61,2.8a.3.3,0,0,0,.11.42.28.28,0,0,0,.15,0h3.22a.31.31,0,0,0,.31-.31A.42.42,0,0,0,124.5,23.32Zm-.23.22H121a.07.07,0,0,1-.07-.08.08.08,0,0,1,0,0l1.6-2.8a.08.08,0,0,1,.11,0l0,0,1.61,2.8A.08.08,0,0,1,124.27,23.54Z"/><path class="cls-25" d="M122.8,21.57a.18.18,0,0,0-.18-.19.17.17,0,0,0-.17.19h0l.08,1.23a.09.09,0,0,0,.11.08.11.11,0,0,0,.08-.09l.08-1.23Z"/><path class="cls-25" d="M122.79,23.19a.17.17,0,0,0-.17-.17.18.18,0,0,0-.17.17.18.18,0,0,0,.17.18A.17.17,0,0,0,122.79,23.19Z"/><path class="cls-25" d="M122.36,26.69a.5.5,0,0,0-.67-.38.65.65,0,0,0-.32.8.51.51,0,0,0,.67.38.59.59,0,0,0,.32-.38l-.24-.05a.34.34,0,0,1-.06.12.24.24,0,0,1-.12.09.17.17,0,0,1-.12,0,.21.21,0,0,1-.12-.07.33.33,0,0,1-.1-.15.55.55,0,0,1,0-.22.53.53,0,0,1,.06-.19.25.25,0,0,1,.12-.11.27.27,0,0,1,.12,0,.21.21,0,0,1,.12,0,.27.27,0,0,1,.1.13s0,0,0,0Z"/><path class="cls-25" d="M121.33,25.86a.23.23,0,1,0,0,.46.23.23,0,0,0,0-.46Zm0,.39a.16.16,0,1,1,.16-.16A.16.16,0,0,1,121.33,26.25Z"/><rect class="cls-26" x="120.83" y="25.84" width="0.09" height="0.07"/><polygon class="cls-25" points="120.78 25.72 120.81 25.79 120.92 25.72 120.88 25.66 120.78 25.72"/><polygon class="cls-25" points="120.66 25.64 120.72 25.68 120.8 25.53 120.74 25.49 120.66 25.64"/><rect class="cls-26" x="120.51" y="25.39" width="0.07" height="0.24"/><rect class="cls-26" x="120.32" y="25.5" width="0.07" height="0.17" transform="translate(4.31 66.48) rotate(-31.41)"/><polygon class="cls-25" points="120.31 25.72 120.27 25.79 120.16 25.72 120.2 25.66 120.31 25.72"/><rect class="cls-26" x="120.15" y="25.84" width="0.09" height="0.07"/><path class="cls-25" d="M124.08,25.71a1.11,1.11,0,1,0,1.1,1.11A1.11,1.11,0,0,0,124.08,25.71Zm-.3,2a1,1,0,0,1-.63-1.23,1,1,0,0,1,.93-.68v1l.3-.93a1,1,0,0,1-.6,1.86Z"/><rect class="cls-26" x="124.86" y="26.78" width="0.12" height="0.07"/><rect class="cls-26" x="124.05" y="27.6" width="0.07" height="0.12"/><rect class="cls-26" x="123.18" y="26.78" width="0.12" height="0.07"/><path class="cls-26" d="M124.22,27.35v.09h-.31a.12.12,0,0,1,0-.09.32.32,0,0,1,.1-.11l.07-.08a.17.17,0,0,0,0-.05.08.08,0,0,0,0-.05.05.05,0,0,0,0,0l0,0s0,0,0,.06h-.08a.13.13,0,0,1,0-.11.15.15,0,0,1,.1,0,.14.14,0,0,1,.11,0,.13.13,0,0,1,0,.09s0,0,0,.06a.21.21,0,0,1,0,.06l-.06.06a.23.23,0,0,0,0,0l0,0Z"/><path class="cls-25" d="M120.81,27.49a.13.13,0,0,0-.06-.07v-.17h-.16V27.2h.16V27h-.16v0h.16v-.21h-.16v0h.16v-.2h-.16v0h.16v-.5a.21.21,0,1,0-.42,0v1.48a.35.35,0,0,0-.06.49.34.34,0,0,0,.48.07A.35.35,0,0,0,120.81,27.49Zm-.41-1.28v-.27a.14.14,0,1,1,.28,0v.27Z"/><path class="cls-25" d="M117.18,22.74l.22-1.08s0,0,0,0,0,0,0,0l-.51.28.35-1h-.32l-.3,1.23,0,0h0l.44-.27-.08.77h-.08l.09.47.29-.43Z"/><path class="cls-25" d="M118.76,23.37l-1.69-2.95a.05.05,0,0,0-.08,0s0,0,0,0l-1.69,2.95a.05.05,0,0,0,0,.08h3.41a.06.06,0,0,0,.06-.06A0,0,0,0,0,118.76,23.37Zm-3.33,0L117,20.57l1.58,2.77Z"/><path class="cls-26" d="M116.65,27.65l.18-.28-.16-.26h.12l.11.17.1-.17h.13l-.17.26.18.28H117l-.11-.19-.12.19Z"/><path class="cls-26" d="M117.52,27.55v.1h-.36a.49.49,0,0,1,0-.11l.11-.12.09-.09a.14.14,0,0,0,0-.06.11.11,0,0,0,0-.06h-.05s0,0,0,0a.08.08,0,0,0,0,.06h-.1a.14.14,0,0,1,0-.12.19.19,0,0,1,.12,0,.22.22,0,0,1,.13,0,.15.15,0,0,1,0,.11.17.17,0,0,1,0,.07l0,.07-.07.06-.06.06,0,0Z"/><path class="cls-25" d="M114.48,19.72v8.36h5.08V19.72Zm4.82,8.1h-4.56V24h4.56Zm0-4.05h-4.56V20h4.56Z"/><path class="cls-25" d="M117.76,25.57a.24.24,0,0,0-.24-.23h-.07v-.05h0v.16h-.24v0h.24v.21h-.24v0h.24v.15h0v-.05h.07a.24.24,0,0,0,.24-.22h.38v0Zm-.24.22h-.07v-.41h.07a.21.21,0,0,1,.21.21A.2.2,0,0,1,117.52,25.79Z"/><path class="cls-25" d="M117,24.22a1.37,1.37,0,1,0,1.36,1.37A1.37,1.37,0,0,0,117,24.22Zm0,2.55a1.18,1.18,0,1,1,0-2.36,1.18,1.18,0,0,1,0,2.36Z"/><polygon class="cls-25" points="117.02 24.98 117.02 25.02 117.5 25.02 117.5 25.12 117.69 24.98 117.5 24.85 117.5 24.94 117.02 24.94 117.02 24.98"/><path class="cls-25" d="M116.53,25.29a.29.29,0,0,0-.3.3.3.3,0,0,0,.6,0A.29.29,0,0,0,116.53,25.29Zm0,.56a.27.27,0,1,1,.26-.26A.26.26,0,0,1,116.53,25.85Z"/><path class="cls-25" d="M116.57,25.47a0,0,0,0,0-.08,0,0,0,0,0,0,.08,0A0,0,0,0,0,116.57,25.47Z"/><path class="cls-25" d="M116.57,25.71a0,0,0,1,0-.08,0,0,0,0,0,0,.08,0Z"/><path class="cls-25" d="M116.15,25.2V26h.76V25.2Zm.72.73h-.68v-.69h.68Z"/><rect class="cls-8" x="80.79" y="79.26" width="0.45" height="18.64"/><rect class="cls-8" x="188.8" y="79.26" width="0.45" height="18.64"/><path class="cls-9" d="M81.64,98.55H188.41a.38.38,0,0,0,.39-.39h0V79.39a.38.38,0,0,0-.39-.39H81.64a.38.38,0,0,0-.39.39V98.16A.38.38,0,0,0,81.64,98.55Z"/><rect class="cls-8" x="188.8" y="79.26" width="0.45" height="18.64"/><polygon class="cls-10" points="81.57 98.55 188.47 98.55 188.47 96.99 188.8 96.99 188.8 79.65 188.47 79.65 188.47 79 81.57 79 81.57 79.65 81.25 79.65 81.25 96.99 81.57 96.99 81.57 98.55"/><path class="cls-11" d="M99.69,93.34h6.09a.65.65,0,0,0,.64-.65h0V83.43a.65.65,0,0,0-.64-.65H99.69a.65.65,0,0,0-.65.65v9.26A.65.65,0,0,0,99.69,93.34Z"/><path class="cls-11" d="M83.29,97.32H96.51a.33.33,0,0,0,.33-.33h0V79.78a.32.32,0,0,0-.33-.32H83.29a.32.32,0,0,0-.32.32V97A.32.32,0,0,0,83.29,97.32Z"/><path class="cls-12" d="M95.57,94.58V82.19A1.62,1.62,0,0,0,94,80.56h-8.1a1.63,1.63,0,0,0-1.62,1.63V94.58a1.63,1.63,0,0,0,1.62,1.63H94a1.62,1.62,0,0,0,1.62-1.63Z"/><rect class="cls-13" x="91.53" y="83.5" width="1.06" height="3.33"/><rect class="cls-13" x="87.21" y="86.72" width="1.06" height="3.34"/><rect class="cls-13" x="91.53" y="89.93" width="1.06" height="3.34"/><rect class="cls-14" x="96.83" y="83.89" width="2.2" height="7.69"/><rect class="cls-15" x="96.83" y="86.17" width="2.2" height="3.13"/><rect class="cls-14" x="100.14" y="84.15" width="5.18" height="7.82"/><path class="cls-16" d="M102.73,86.07a.16.16,0,0,1,.16.16h0v1.31a.16.16,0,1,1-.32,0V86.23A.16.16,0,0,1,102.73,86.07Z"/><path class="cls-17" d="M108.39,97.05H125.3a.46.46,0,0,0,.45-.46h0V81.14a.45.45,0,0,0-.45-.45H108.39a.45.45,0,0,0-.45.45V96.59A.46.46,0,0,0,108.39,97.05Z"/><path class="cls-18" d="M119.61,93.14a.18.18,0,1,0-.35,0h0l.11,1.13s0,.06.08.06a.06.06,0,0,0,0-.06l.11-1.14Z"/><path class="cls-18" d="M119.64,94.75a.2.2,0,1,0-.2.2A.2.2,0,0,0,119.64,94.75Z"/><path class="cls-18" d="M114.6,93.1a.92.92,0,1,0,.91.92A.91.91,0,0,0,114.6,93.1Zm-.1.17a.76.76,0,0,1,.78.42l-.52.52-.21-.8-.7.7A.75.75,0,0,1,114.5,93.27Zm.19,1.5a.75.75,0,0,1-.77-.42l.52-.52.21.8.7-.7A.76.76,0,0,1,114.69,94.77Z"/><line class="cls-19" x1="109.85" y1="87.58" x2="109.99" y2="87.58"/><line class="cls-19" x1="109.85" y1="87.58" x2="109.85" y2="89.74"/><path class="cls-19" d="M109.85,89.74c.85,0,1.42-.25,1.7,0V87.58"/><path class="cls-19" d="M112.84,87.45c-.52-.1-1-.23-1.29.13-.28-.36-.76-.23-1.29-.13v1.71c.53-.11,1-.24,1.29.13.29-.37.77-.24,1.29-.13Z"/><line class="cls-19" x1="113.26" y1="87.58" x2="113.11" y2="87.58"/><path class="cls-19" d="M110.26,87.49H110v2c.63,0,1.2-.28,1.56.07.37-.35.93-.09,1.56-.07v-2h-.27"/><line class="cls-19" x1="113.26" y1="87.58" x2="113.26" y2="89.74"/><path class="cls-19" d="M113.26,89.74c-.86,0-1.42-.25-1.71,0V87.58"/><rect class="cls-20" x="183.95" y="97.93" width="5.31" height="0.91"/><rect class="cls-21" x="120.85" y="95.46" width="2.59" height="3.91"/><rect class="cls-21" x="149.29" y="96.76" width="34.66" height="2.61"/><rect class="cls-21" x="148.38" y="96.76" width="0.91" height="2.61"/><rect class="cls-21" x="81.26" y="96.76" width="25.79" height="2.61"/><rect class="cls-21" x="107.05" y="96.76" width="0.91" height="2.61"/><path class="cls-22" d="M134,96.76a6.37,6.37,0,0,1-1.57-.19l-3.65-.92a6.42,6.42,0,0,0-1.57-.19h-3.92a.26.26,0,0,0-.26.26v3.39a.26.26,0,0,0,.26.26h25.07V96.76Z"/><path class="cls-23" d="M125.12,99H147V97.15H134a7.11,7.11,0,0,1-1.66-.2L128.7,96a6,6,0,0,0-1.47-.18h-2.11Z"/><polygon class="cls-24" points="128.15 97.39 127.03 96.87 127.03 97.95 128.15 97.39"/><path class="cls-22" d="M117.06,96.76H108v2.61h13a.26.26,0,0,0,.26-.26h0V95.72a.26.26,0,0,0-.26-.26h-1.79a.73.73,0,0,0-.4.13l-1.33,1A.68.68,0,0,1,117.06,96.76Z"/><rect class="cls-15" x="79.32" y="97.61" width="3.89" height="1.76"/><rect class="cls-8" x="183.95" y="98.85" width="4.86" height="0.52"/><path class="cls-16" d="M102.73,88.74a.92.92,0,1,0,.91.91A.91.91,0,0,0,102.73,88.74Zm0,1.5a.59.59,0,0,1-.59-.59.6.6,0,0,1,.59-.59.59.59,0,0,1,.59.59A.58.58,0,0,1,102.73,90.24Z"/><path class="cls-25" d="M113.29,85.06l-1.61-2.8a.31.31,0,0,0-.42-.12.43.43,0,0,0-.11.12l-1.61,2.8a.32.32,0,0,0,.11.42.3.3,0,0,0,.16,0H113a.3.3,0,0,0,.3-.31A.29.29,0,0,0,113.29,85.06Zm-.23.22h-3.25a.08.08,0,0,1-.08-.07s0,0,0,0l1.61-2.81a.08.08,0,0,1,.11,0,0,0,0,0,1,0,0l1.61,2.81A.07.07,0,0,1,113.06,85.28Z"/><path class="cls-25" d="M111.59,83.31a.18.18,0,0,0-.18-.19.19.19,0,0,0-.17.2h0l.08,1.23a.09.09,0,0,0,.11.08.09.09,0,0,0,.08-.08l.08-1.24Z"/><path class="cls-25" d="M111.59,84.94a.17.17,0,0,0-.17-.17.16.16,0,0,0-.17.17.17.17,0,0,0,.17.17A.18.18,0,0,0,111.59,84.94Z"/><path class="cls-25" d="M124.5,85.06l-1.61-2.8a.31.31,0,0,0-.42-.12.25.25,0,0,0-.11.12l-1.61,2.8a.32.32,0,0,0,.26.47h3.22a.31.31,0,0,0,.31-.31A.42.42,0,0,0,124.5,85.06Zm-.23.22H121a.07.07,0,0,1-.07-.07s0,0,0,0l1.6-2.81a.08.08,0,0,1,.11,0l0,0,1.61,2.81A.07.07,0,0,1,124.27,85.28Z"/><path class="cls-25" d="M122.8,83.31a.18.18,0,0,0-.18-.19.18.18,0,0,0-.17.2h0l.08,1.23a.09.09,0,0,0,.11.08s.07,0,.08-.08l.08-1.24Z"/><path class="cls-25" d="M122.79,84.94a.16.16,0,0,0-.17-.17.17.17,0,0,0-.17.17.18.18,0,0,0,.17.17A.17.17,0,0,0,122.79,84.94Z"/><path class="cls-25" d="M122.36,88.43a.52.52,0,0,0-.67-.38.65.65,0,0,0-.32.8.5.5,0,0,0,.67.38.59.59,0,0,0,.32-.38l-.24,0a.52.52,0,0,1-.06.13.47.47,0,0,1-.12.09.25.25,0,0,1-.12,0,.29.29,0,0,1-.12-.07.44.44,0,0,1-.1-.16.55.55,0,0,1,0-.22.53.53,0,0,1,.06-.19.25.25,0,0,1,.12-.11.27.27,0,0,1,.12,0,.31.31,0,0,1,.12,0,.32.32,0,0,1,.1.13s0,0,0,0Z"/><path class="cls-25" d="M121.33,87.6a.23.23,0,0,0,0,.46.23.23,0,0,0,0-.46Zm0,.39a.16.16,0,1,1,.16-.16A.16.16,0,0,1,121.33,88Z"/><rect class="cls-26" x="120.83" y="87.58" width="0.09" height="0.07"/><polygon class="cls-25" points="120.78 87.47 120.81 87.53 120.92 87.47 120.88 87.41 120.78 87.47"/><polygon class="cls-25" points="120.66 87.38 120.72 87.42 120.8 87.27 120.74 87.23 120.66 87.38"/><rect class="cls-26" x="120.51" y="87.13" width="0.07" height="0.24"/><rect class="cls-26" x="120.32" y="87.24" width="0.07" height="0.17" transform="translate(-27.87 75.53) rotate(-31.41)"/><polygon class="cls-25" points="120.31 87.47 120.27 87.53 120.16 87.47 120.2 87.41 120.31 87.47"/><rect class="cls-26" x="120.15" y="87.58" width="0.09" height="0.07"/><path class="cls-25" d="M124.08,87.45a1.11,1.11,0,1,0,1.1,1.11A1.11,1.11,0,0,0,124.08,87.45Zm-.3,2a1,1,0,0,1,.3-1.91v1l.3-.93a1,1,0,0,1-.6,1.86Z"/><rect class="cls-26" x="124.86" y="88.53" width="0.12" height="0.07"/><rect class="cls-26" x="124.05" y="89.34" width="0.07" height="0.12"/><rect class="cls-26" x="123.18" y="88.53" width="0.12" height="0.07"/><path class="cls-26" d="M124.22,89.1v.08h-.31a.16.16,0,0,1,0-.09A.32.32,0,0,1,124,89l.07-.08s0,0,0-.05a.08.08,0,0,0,0,0H124s0,0,0,.06h-.08a.14.14,0,0,1,0-.11.15.15,0,0,1,.1,0,.14.14,0,0,1,.11,0,.13.13,0,0,1,0,.09s0,0,0,.06l0,.06-.06.06,0,0,0,0Z"/><path class="cls-25" d="M120.81,89.23a.12.12,0,0,0-.06-.06V89h-.16v0h.16v-.2h-.16v0h.16v-.21h-.16v0h.16v-.2h-.16v0h.16v-.5a.21.21,0,1,0-.42,0v1.49a.35.35,0,0,0-.06.49.34.34,0,0,0,.48.06A.35.35,0,0,0,120.81,89.23ZM120.4,88v-.27a.14.14,0,0,1,.28,0V88Z"/><path class="cls-25" d="M117.18,84.48l.22-1.08s0,0,0,0h0l-.51.28.35-1h-.32l-.3,1.23s0,0,0,0h0l.44-.27-.08.77h-.08l.09.46.29-.43Z"/><path class="cls-25" d="M118.76,85.11l-1.69-2.94a.06.06,0,0,0-.08,0s0,0,0,0l-1.69,2.94a.05.05,0,0,0,0,.08h3.41a.06.06,0,0,0,.06-.06A0,0,0,0,0,118.76,85.11Zm-3.33,0L117,82.32l1.58,2.76Z"/><path class="cls-26" d="M116.65,89.39l.18-.28-.16-.25h.12l.11.17.1-.17h.13l-.17.25.18.28H117l-.11-.19-.12.19Z"/><path class="cls-26" d="M117.52,89.29v.1h-.36a.3.3,0,0,1,0-.1.58.58,0,0,1,.11-.13.36.36,0,0,0,.09-.09.14.14,0,0,0,0-.06.08.08,0,0,0,0-.05s0,0-.05,0l0,0a.08.08,0,0,0,0,.06h-.1a.17.17,0,0,1,0-.12.28.28,0,0,1,.12,0,.17.17,0,0,1,.13.05.12.12,0,0,1,0,.1.15.15,0,0,1,0,.07l0,.07-.07.07-.06.06s0,0,0,0Z"/><path class="cls-25" d="M114.48,81.46v8.37h5.08V81.46Zm4.82,8.11h-4.56v-3.8h4.56Zm0-4.06h-4.56V81.72h4.56Z"/><path class="cls-25" d="M117.76,87.31a.23.23,0,0,0-.24-.22h-.07v0h0v.15h-.24v0h.24v.2h-.24v0h.24v.15h0v-.05h.07a.23.23,0,0,0,.24-.22h.38v0Zm-.24.23h-.07v-.42h.07a.21.21,0,1,1,0,.42Z"/><path class="cls-25" d="M117,86a1.37,1.37,0,1,0,1.36,1.37A1.37,1.37,0,0,0,117,86Zm0,2.55a1.18,1.18,0,1,1,1.17-1.18A1.18,1.18,0,0,1,117,88.51Z"/><polygon class="cls-25" points="117.02 86.73 117.02 86.77 117.5 86.77 117.5 86.86 117.69 86.73 117.5 86.59 117.5 86.69 117.02 86.69 117.02 86.73"/><path class="cls-25" d="M116.53,87a.3.3,0,1,0,.3.3A.29.29,0,0,0,116.53,87Zm0,.56a.26.26,0,1,1,.26-.26A.26.26,0,0,1,116.53,87.59Z"/><path class="cls-25" d="M116.57,87.21a0,0,0,0,0-.08,0,0,0,0,0,0,.08,0A0,0,0,0,0,116.57,87.21Z"/><path class="cls-25" d="M116.57,87.45a0,0,0,1,0-.08,0,0,0,0,0,0,.08,0A0,0,0,0,0,116.57,87.45Z"/><path class="cls-25" d="M116.15,87v.76h.76V87Zm.72.73h-.68V87h.68Z"/><path class="cls-4" d="M76.4,101.05H21.89a.42.42,0,0,1-.42-.43V17a.42.42,0,0,1,.42-.43H76.4a.42.42,0,0,1,.42.43v83.61A.42.42,0,0,1,76.4,101.05ZM21.89,16.78a.22.22,0,0,0-.22.23v83.61a.22.22,0,0,0,.22.23H76.4a.22.22,0,0,0,.22-.23V17a.22.22,0,0,0-.22-.23Z"/><path class="cls-27" d="M26.22,60.2h2.87a.09.09,0,0,0,.08-.08h0V57.51a.09.09,0,0,0-.08-.08H26.22a.08.08,0,0,0-.08.08v2.61A.08.08,0,0,0,26.22,60.2Z"/><path class="cls-3" d="M26.91,58.62a.2.2,0,0,0-.18.2.19.19,0,0,0,.19.19h0l1.21-.09a.1.1,0,0,0,.09-.12.11.11,0,0,0-.09-.09l-1.22-.09Z"/><circle class="cls-7" cx="28.53" cy="58.82" r="0.21"/><path class="cls-4" d="M31.5,57.51a1.31,1.31,0,1,1-1.31,1.31,1.31,1.31,0,0,1,1.31-1.31m0-.2A1.52,1.52,0,0,0,30,58.82a1.5,1.5,0,0,0,.44,1.06,1.54,1.54,0,0,0,1.07.44,1.51,1.51,0,1,0,0-3Z"/><path class="cls-4" d="M53.49,57.15A18.85,18.85,0,1,1,72.34,38.3,18.72,18.72,0,0,1,53.49,57.15Zm0-37.5A18.65,18.65,0,1,0,72.15,38.3,18.68,18.68,0,0,0,53.49,19.65Z"/><path class="cls-4" d="M53.49,53.49a15.19,15.19,0,1,1,15.19-15.2h0A15.22,15.22,0,0,1,53.49,53.49Zm0-30.18a15,15,0,0,0-15,15,15,15,0,0,0,15,15,15,15,0,0,0,15-15v0a15,15,0,0,0-15-15Zm15.19,15h0Z"/><path class="cls-4" d="M53.49,49.83A11.53,11.53,0,1,1,65,38.3h0A11.55,11.55,0,0,1,53.49,49.83Zm0-22.86A11.34,11.34,0,1,0,64.83,38.3,11.35,11.35,0,0,0,53.49,27ZM64.93,38.3Z"/><path class="cls-4" d="M53.49,46.18a7.88,7.88,0,1,1,7.88-7.88h0A7.9,7.9,0,0,1,53.49,46.18Zm0-15.55a7.68,7.68,0,1,0,7.68,7.67A7.69,7.69,0,0,0,53.49,30.63Zm7.78,7.67Z"/><path class="cls-4" d="M53.49,42.52a4.22,4.22,0,1,1,4.22-4.22A4.22,4.22,0,0,1,53.49,42.52Zm0-8.23a4,4,0,1,0,4,4A4,4,0,0,0,53.49,34.29Z"/><path class="cls-4" d="M71.05,56a.11.11,0,0,1-.07,0L55.73,40.68a3.19,3.19,0,0,0-4.48,0L36,55.93a.1.1,0,0,1-.14-.14L51.11,40.54a3.38,3.38,0,0,1,4.76,0L71.12,55.79a.1.1,0,0,1,0,.14A.09.09,0,0,1,71.05,56Z"/><path class="cls-4" d="M53.49,37.05a3.36,3.36,0,0,1-2.38-1L35.86,20.82a.1.1,0,0,1,.14-.14L51.25,35.92a3.18,3.18,0,0,0,2.24.93,3.14,3.14,0,0,0,2.24-.93L71,20.68a.1.1,0,1,1,.14.14L55.87,36.06A3.34,3.34,0,0,1,53.49,37.05Z"/><path class="cls-4" d="M53.49,98.18A18.85,18.85,0,1,1,72.34,79.33,18.72,18.72,0,0,1,53.49,98.18Zm0-37.5A18.67,18.67,0,0,0,34.83,79.33,18.68,18.68,0,0,0,53.49,98a18.65,18.65,0,1,0,0-37.3Z"/><path class="cls-4" d="M53.49,94.52A15.19,15.19,0,1,1,68.68,79.31v0A15.22,15.22,0,0,1,53.49,94.52Zm0-30.18a15,15,0,1,0,15,15h0a15,15,0,0,0-15-15Zm15.19,15h0Z"/><path class="cls-4" d="M53.49,90.86A11.53,11.53,0,1,1,65,79.33h0A11.55,11.55,0,0,1,53.49,90.86Zm0-22.86A11.33,11.33,0,1,0,64.83,79.33,11.35,11.35,0,0,0,53.49,68ZM64.93,79.33Z"/><path class="cls-4" d="M53.49,87.2a7.88,7.88,0,1,1,7.88-7.87h0A7.89,7.89,0,0,1,53.49,87.2Zm0-15.55a7.68,7.68,0,1,0,7.68,7.68A7.69,7.69,0,0,0,53.49,71.65Zm7.78,7.68Z"/><path class="cls-4" d="M53.49,83.54a4.22,4.22,0,1,1,4.22-4.21A4.22,4.22,0,0,1,53.49,83.54Zm0-8.23a4,4,0,1,0,4,4A4,4,0,0,0,53.49,75.31Z"/><path class="cls-4" d="M71.05,97A.11.11,0,0,1,71,97L55.73,81.71a3.14,3.14,0,0,0-2.24-.93,3.18,3.18,0,0,0-2.24.93L36,97a.1.1,0,0,1-.14-.14L51.11,81.57a3.36,3.36,0,0,1,4.76,0L71.12,96.81a.1.1,0,0,1,0,.14A.09.09,0,0,1,71.05,97Z"/><path class="cls-4" d="M53.49,78.07a3.35,3.35,0,0,1-2.38-1L35.86,61.84A.1.1,0,0,1,36,61.7L51.25,77a3.16,3.16,0,0,0,4.48,0L71,61.7a.1.1,0,1,1,.14.14L55.87,77.09A3.37,3.37,0,0,1,53.49,78.07Z"/><rect class="cls-7" x="19.28" y="15.77" width="48.43" height="0.91"/><path class="cls-4" d="M67.8,16.78H19.18V15.67H67.8Zm-48.42-.2H67.6v-.71H19.38Z"/><rect class="cls-7" x="19.28" y="100.95" width="48.43" height="0.91"/><path class="cls-4" d="M67.8,102H19.18v-1.12H67.8Zm-48.42-.2H67.6v-.72H19.38Z"/><path class="cls-3" d="M75.48,15.77H67.7v.91h7.78a.33.33,0,0,1,.33.33h0v83.61a.33.33,0,0,1-.33.33H67.7v.92h7.78a1.24,1.24,0,0,0,1.24-1.25h0V17a1.23,1.23,0,0,0-1.24-1.24Z"/><path class="cls-4" d="M75.48,102H67.6v-1.12h7.88a.23.23,0,0,0,.23-.23V17a.23.23,0,0,0-.23-.23H67.6V15.67h7.88A1.34,1.34,0,0,1,76.82,17v83.61A1.35,1.35,0,0,1,75.48,102Zm-7.68-.2h7.68a1.15,1.15,0,0,0,1.14-1.15V17a1.14,1.14,0,0,0-1.14-1.14H67.8v.71h7.68a.43.43,0,0,1,.43.43v83.61a.43.43,0,0,1-.43.43H67.8Z"/><path class="cls-3" d="M76.72,50.65V18H74.56a.46.46,0,0,1-.45-.46h0v-.85H68v1.57h.33V20H67.7V97.68h.66v1.7H68V101h6.08v-.85a.46.46,0,0,1,.45-.46h2.16V67h-5.1a.65.65,0,0,1-.65-.65v-15a.65.65,0,0,1,.65-.65Z"/><path class="cls-4" d="M74.21,101.05H67.93V99.28h.33v-1.5H67.6V19.85h.66v-1.5h-.33V16.58h6.28v1a.36.36,0,0,0,.35.36h2.26V50.75h-5.2a.55.55,0,0,0-.55.55v15a.55.55,0,0,0,.55.55h5.2V99.74H74.56a.36.36,0,0,0-.35.36Zm-6.08-.2H74v-.75a.56.56,0,0,1,.55-.56h2.06V67.08h-5a.76.76,0,0,1-.75-.75v-15a.76.76,0,0,1,.75-.75h5V18.09H74.56a.55.55,0,0,1-.54-.46h0v-.85H68.13v1.37h.33v1.9H67.8V97.58h.66v1.9h-.33Z"/><rect class="cls-7" x="72.15" y="53.59" width="2.61" height="10.45"/><path class="cls-4" d="M74.86,64.14H72.05V53.49h2.81Zm-2.61-.2h2.41V53.69H72.25Z"/><rect class="cls-7" x="74.76" y="53.59" width="1.96" height="10.45"/><path class="cls-4" d="M76.82,64.14H74.66V53.49h2.16Zm-2-.2h1.76V53.69H74.86Z"/><path class="cls-4" d="M191.88,100.62V17a.42.42,0,0,1,.42-.43h54.51a.42.42,0,0,1,.42.43v83.61a.42.42,0,0,1-.42.43H192.3A.42.42,0,0,1,191.88,100.62Zm.42-83.84a.22.22,0,0,0-.22.23v83.61a.22.22,0,0,0,.22.23h54.51a.23.23,0,0,0,.23-.23V17a.23.23,0,0,0-.23-.23Z"/><path class="cls-27" d="M242.48,60.2h-2.87a.09.09,0,0,1-.08-.08h0V57.51a.09.09,0,0,1,.08-.08h2.87a.08.08,0,0,1,.08.08v2.61A.08.08,0,0,1,242.48,60.2Z"/><path class="cls-3" d="M241.79,58.62a.2.2,0,0,1,.18.2.19.19,0,0,1-.19.19h0l-1.21-.09a.1.1,0,0,1-.09-.12.12.12,0,0,1,.09-.09l1.22-.09Z"/><circle class="cls-7" cx="240.17" cy="58.82" r="0.21"/><path class="cls-4" d="M237.2,57.51a1.31,1.31,0,1,1-1.31,1.31,1.31,1.31,0,0,1,1.31-1.31m0-.2a1.51,1.51,0,0,0,0,3,1.54,1.54,0,0,0,1.07-.44,1.5,1.5,0,0,0,.44-1.06,1.52,1.52,0,0,0-1.51-1.51Z"/><path class="cls-4" d="M196.36,38.3a18.85,18.85,0,1,1,18.85,18.85A18.86,18.86,0,0,1,196.36,38.3Zm.2,0a18.66,18.66,0,1,0,18.65-18.65A18.66,18.66,0,0,0,196.56,38.3Z"/><path class="cls-4" d="M200,38.3h0a15.2,15.2,0,1,1,15.19,15.2A15.08,15.08,0,0,1,200,38.29Zm4.6-10.6a14.82,14.82,0,0,0-4.39,10.6v0a15,15,0,1,0,4.4-10.62ZM200,38.3h0Z"/><path class="cls-4" d="M203.67,38.3h0a11.55,11.55,0,1,1,11.54,11.53A11.55,11.55,0,0,1,203.67,38.3Zm.2,0A11.34,11.34,0,1,0,215.21,27,11.36,11.36,0,0,0,203.87,38.3Zm-.1,0Z"/><path class="cls-4" d="M207.33,38.3h0a7.88,7.88,0,1,1,7.88,7.88A7.89,7.89,0,0,1,207.33,38.3Zm.2,0a7.68,7.68,0,1,0,7.68-7.67A7.69,7.69,0,0,0,207.53,38.3Zm-.1,0Z"/><path class="cls-4" d="M211,38.3a4.22,4.22,0,1,1,4.22,4.22A4.23,4.23,0,0,1,211,38.3Zm.2,0a4,4,0,1,0,4-4A4,4,0,0,0,211.19,38.3Z"/><path class="cls-4" d="M197.65,56a.11.11,0,0,0,.07,0L213,40.68a3.19,3.19,0,0,1,4.48,0L232.7,55.93a.11.11,0,0,0,.15,0,.12.12,0,0,0,0-.14L217.59,40.54a3.39,3.39,0,0,0-2.38-1,3.43,3.43,0,0,0-2.38,1L197.58,55.79a.1.1,0,0,0,0,.14A.09.09,0,0,0,197.65,56Z"/><path class="cls-4" d="M215.21,37.05a3.36,3.36,0,0,0,2.38-1l15.26-15.24a.12.12,0,0,0,0-.14.11.11,0,0,0-.15,0L217.45,35.92a3.16,3.16,0,0,1-4.48,0L197.72,20.68a.1.1,0,0,0-.14.14l15.25,15.24A3.34,3.34,0,0,0,215.21,37.05Z"/><path class="cls-4" d="M196.36,79.33a18.85,18.85,0,1,1,18.85,18.85A18.87,18.87,0,0,1,196.36,79.33Zm.2,0a18.66,18.66,0,1,0,18.65-18.65A18.67,18.67,0,0,0,196.56,79.33Z"/><path class="cls-4" d="M200,79.33v0a15.19,15.19,0,0,1,15.19-15.17A15.19,15.19,0,1,1,200,79.33Zm4.6-10.6a14.8,14.8,0,0,0-4.39,10.6h0a15,15,0,1,0,4.4-10.61ZM200,79.33h0Z"/><path class="cls-4" d="M203.67,79.33h0a11.54,11.54,0,1,1,11.54,11.53A11.55,11.55,0,0,1,203.67,79.33Zm.2,0A11.34,11.34,0,1,0,215.21,68,11.35,11.35,0,0,0,203.87,79.33Zm-.1,0Z"/><path class="cls-4" d="M207.33,79.33h0a7.88,7.88,0,1,1,7.88,7.87A7.9,7.9,0,0,1,207.33,79.33Zm.2,0a7.68,7.68,0,1,0,7.68-7.68A7.69,7.69,0,0,0,207.53,79.33Zm-.1,0Z"/><path class="cls-4" d="M211,79.33a4.22,4.22,0,1,1,4.22,4.21A4.23,4.23,0,0,1,211,79.33Zm.2,0a4,4,0,1,0,4-4A4,4,0,0,0,211.19,79.33Z"/><path class="cls-4" d="M197.65,97a.11.11,0,0,0,.07,0L213,81.71a3.16,3.16,0,0,1,4.48,0L232.7,97a.11.11,0,0,0,.15,0,.12.12,0,0,0,0-.14L217.59,81.57a3.36,3.36,0,0,0-4.76,0L197.58,96.81a.1.1,0,0,0,0,.14A.09.09,0,0,0,197.65,97Z"/><path class="cls-4" d="M215.21,78.07a3.35,3.35,0,0,0,2.38-1l15.26-15.25a.12.12,0,0,0,0-.14.11.11,0,0,0-.15,0L217.45,77A3.16,3.16,0,0,1,213,77L197.72,61.7a.1.1,0,0,0-.14.14l15.25,15.25A3.39,3.39,0,0,0,215.21,78.07Z"/><rect class="cls-7" x="201" y="15.77" width="48.43" height="0.91"/><path class="cls-4" d="M200.9,15.67h48.62v1.11H200.9Zm48.42.2H201.1v.71h48.22Z"/><rect class="cls-7" x="201" y="100.95" width="48.43" height="0.91"/><path class="cls-4" d="M200.9,100.85h48.62V102H200.9Zm48.42.2H201.1v.72h48.22Z"/><path class="cls-3" d="M193.22,15.77H201v.91h-7.78a.33.33,0,0,0-.33.33h0v83.61a.33.33,0,0,0,.33.33H201v.92h-7.78a1.25,1.25,0,0,1-1.24-1.25h0V17a1.24,1.24,0,0,1,1.24-1.24Z"/><path class="cls-4" d="M191.88,100.62V17a1.34,1.34,0,0,1,1.34-1.34h7.88v1.11h-7.88A.23.23,0,0,0,193,17v83.61a.23.23,0,0,0,.23.23h7.88V102h-7.88A1.35,1.35,0,0,1,191.88,100.62Zm9,.43h-7.68a.42.42,0,0,1-.42-.43V17a.42.42,0,0,1,.42-.43h7.68v-.71h-7.68A1.14,1.14,0,0,0,192.08,17v83.61a1.15,1.15,0,0,0,1.14,1.15h7.68Z"/><path class="cls-3" d="M192,50.65V18h2.16a.46.46,0,0,0,.45-.46h0v-.85h6.08v1.57h-.33V20H201V97.68h-.66v1.7h.33V101h-6.08v-.85a.46.46,0,0,0-.45-.46H192V67h5.1a.65.65,0,0,0,.65-.65v-15a.65.65,0,0,0-.65-.65Z"/><path class="cls-4" d="M194.49,100.1a.36.36,0,0,0-.35-.36h-2.26V66.88h5.2a.55.55,0,0,0,.55-.55v-15a.55.55,0,0,0-.55-.55h-5.2V17.89h2.26a.36.36,0,0,0,.35-.36v-1h6.28v1.77h-.33v1.5h.66V97.78h-.66v1.5h.33v1.77h-6.28Zm6.08-.62h-.32v-1.9h.65V20.05h-.65v-1.9h.32V16.78h-5.88v.85h0a.55.55,0,0,1-.54.46h-2.06V50.55h5a.76.76,0,0,1,.75.75v15a.76.76,0,0,1-.75.75h-5V99.54h2.06a.56.56,0,0,1,.55.56v.75h5.88Z"/><rect class="cls-7" x="193.94" y="53.59" width="2.61" height="10.45"/><path class="cls-4" d="M193.84,53.49h2.81V64.14h-2.81Zm2.61.2H194V63.94h2.41Z"/><rect class="cls-7" x="191.98" y="53.59" width="1.96" height="10.45"/><path class="cls-4" d="M191.88,53.49H194V64.14h-2.16Zm2,.2h-1.76V63.94h1.76Z"/><path class="cls-28" d="M101.19,35.1h0l-.07-.09a1.63,1.63,0,0,0-.11-.17l-2.25-3.39V25.31a1.56,1.56,0,0,0-.29-.93h0l-3.14-4.75h0A1.61,1.61,0,0,0,94,18.82h-8.1a1.55,1.55,0,0,0-.31,0l-.13,0-.16.05a.8.8,0,0,0-.16.08l-.11.06-.17.13s0,0,0,.05a1,1,0,0,0-.17.19l0,0a1.58,1.58,0,0,0-.15.24h0a1.62,1.62,0,0,0-.17.58h0l0,0V32.84a1.6,1.6,0,0,0,.32,1h0l3.14,4.76h0a1.6,1.6,0,0,0,1.37.77H92.8l.46.72h0a4.68,4.68,0,0,0,1.2,1.27h5.48a4.68,4.68,0,0,0,1.94-3.79A4.55,4.55,0,0,0,101.19,35.1Z"/><path class="cls-29" d="M98.48,24.38h0l-3.14-4.75h0A1.61,1.61,0,0,0,94,18.82h-8.1a1.63,1.63,0,0,0-1.62,1.63V32.84a1.6,1.6,0,0,0,.32,1h0l3.14,4.76h0a1.6,1.6,0,0,0,1.37.77h8.09a1.62,1.62,0,0,0,1.62-1.63V25.31A1.56,1.56,0,0,0,98.48,24.38Z"/><path class="cls-30" d="M94,18.82h-8.1a1.62,1.62,0,0,0-1.6,1.47l0,0V32.84l3.21,4.85V25.31a1.62,1.62,0,0,1,1.62-1.63h8.09Z"/><path class="cls-30" d="M93.26,40l7.94-4.95-3.11-4.68h0a4.74,4.74,0,0,0-1.35-1.53H91.25a4.68,4.68,0,0,0-1.94,3.79,4.81,4.81,0,0,0,.28,1.58h0a4.69,4.69,0,0,0,1.05,1.67Z"/><path class="cls-29" d="M92.52,37.52a4.65,4.65,0,0,0,1.94,3.79h5.48a4.67,4.67,0,0,0,0-7.58H94.46A4.65,4.65,0,0,0,92.52,37.52Z"/><path class="cls-31" d="M98,38.42c11,5.8,11.61,63.39,15.91,80.12,3.32,12.92,16.3,10.6,16.3,10.6"/><path class="cls-32" d="M95.26,30C92.36,30,90,31.75,90,33.89L91.33,36c0-2.14,2.35-3.88,5.25-3.88a6.14,6.14,0,0,1,3.86,1.27C100.08,31.47,97.9,30,95.26,30Z"/><path class="cls-29" d="M91.81,30.09a.14.14,0,0,0,0-.06h0a.19.19,0,0,0,0-.08v0a.36.36,0,0,0,0-.09h0l-.06-.09h0a.23.23,0,0,0-.07-.07h0l.14,0h0l-.25-.34-1.07-1.48h0l0,0h0l0,0h0l-.06,0h0a.17.17,0,0,0-.1,0h0a.28.28,0,0,0-.13,0h-.2l-.17.06h0a1.38,1.38,0,0,0-.24.25.55.55,0,0,0-.1.25h0L90.7,30l-1.5-1.65h0l.19,3.12.25.21a.85.85,0,0,0-.17-.1.88.88,0,0,0-.43-.11h0l-.61-.83L88,30,87,29.46l-.18-.11h0l-.05,0h0l-.09,0h-.15l-.07,0h0l0,.05v0a.31.31,0,0,0,0,.11l.06,1.68h0c.08,0,.37.17.42.3h-.53l-.1,0h0l-.06,0,0,0a.1.1,0,0,0,0,.05s0,0,0,0a.2.2,0,0,0,0,.11h0l.12,2.65,0,.44.06.27.39,1.75s-.07.51.81.51l2.16,0h.75a4.55,4.55,0,0,1,.07.45c0,.23.19,1.11.32,2.76a62,62,0,0,1-.24,10.91h0l.61-.18a6.59,6.59,0,0,0,.78-1.81h.06l-.13-.28s1.14-8.34-.2-13.14l-.9-1.79-.08,0,0-.11a.35.35,0,0,0,0-.1l0,0,.09-.67a.28.28,0,0,0,0-.06v0a0,0,0,0,1,0,0,.41.41,0,0,0,0-.09l0-.18.1.12,0-3.05a.8.8,0,0,1,.57-.4h0l0,0-.08,0,0,0L91,29.8l0,0-.16.15-.09,4.11h0l1,1.88.16-5.85h0v0Z"/><path class="cls-33" d="M89.52,27.77a.87.87,0,0,0-.34.5L90.7,30a.75.75,0,0,1,1-.34l-1.32-1.82a.59.59,0,0,0-.58-.17.9.9,0,0,0-.25.08"/><polygon class="cls-33" points="89.39 31.49 89.69 31.75 90.68 33.08 90.7 30.02 89.2 28.36 89.39 31.49"/><path class="cls-33" d="M90.75,30l-.09,4.11,1,1.88.16-5.85s-.09-.59-.5-.51a1.17,1.17,0,0,0-.56.37"/><path class="cls-33" d="M90.75,30l-.09,4.11,1,1.88.16-5.85S91.65,29.05,90.75,30Z"/><path class="cls-33" d="M86.67,34h0"/><polyline class="cls-33" points="86.67 33.96 86.67 33.96 86.67 33.96"/><path class="cls-33" d="M86.67,34a.34.34,0,0,0,0-.09.31.31,0,0,1,0,.09"/><polyline class="cls-33" points="86.66 33.87 86.66 33.87 86.66 33.87"/><path class="cls-33" d="M86.66,33.86v0"/><polyline class="cls-33" points="86.66 33.84 86.66 33.84 86.66 33.84"/><polyline class="cls-33" points="86.66 33.84 86.66 33.84 86.66 33.84"/><polyline class="cls-33" points="86.66 33.84 86.66 33.83 86.66 33.84"/><polyline class="cls-33" points="86.66 33.83 86.66 33.82 86.66 33.83"/><polyline class="cls-33" points="86.66 33.82 86.66 33.82 86.66 33.82"/><polyline class="cls-33" points="86.66 33.82 86.66 33.81 86.66 33.82"/><path class="cls-33" d="M86.66,33.81h0"/><polyline class="cls-33" points="86.66 33.8 86.66 33.79 86.66 33.8"/><polyline class="cls-33" points="86.66 33.79 86.66 33.79 86.66 33.79"/><path class="cls-33" d="M86.65,33.79v0"/><polyline class="cls-33" points="86.65 33.77 86.65 33.77 86.65 33.77"/><polyline class="cls-33" points="86.65 33.77 86.65 33.77 86.65 33.77"/><polyline class="cls-33" points="86.65 33.77 86.65 33.76 86.65 33.77"/><polyline class="cls-33" points="86.65 33.76 86.65 33.76 86.65 33.76"/><path class="cls-33" d="M86.65,33.76v0"/><path class="cls-33" d="M86.65,33.74v0"/><polyline class="cls-33" points="86.65 33.72 86.65 33.71 86.65 33.72"/><path class="cls-33" d="M86.65,33.71v0"/><polyline class="cls-33" points="86.64 33.69 86.64 33.69 86.64 33.69"/><path class="cls-33" d="M86.65,33.69v0"/><polyline class="cls-33" points="86.64 33.67 86.64 33.67 86.64 33.67"/><path class="cls-33" d="M86.64,33.67v0"/><polyline class="cls-33" points="86.64 33.65 86.64 33.65 86.64 33.65"/><path class="cls-33" d="M86,31.79l.14,3.09.45,2v-.19l.07-3.07h0c-.07-.76.44-.73.44-.73h2.86c.49,0,.62.25.62.25l0-.24-.9-1.18a1,1,0,0,0-.65-.25H86.27c-.14,0-.32.1-.3.3"/><path class="cls-33" d="M90.16,37.4l-2.87,0a.61.61,0,0,1-.71-.37"/><path class="cls-33" d="M86.64,33.64l-.08,3.26s-.07.51.81.51l2.93,0L90,36.72l-2.33,0c-.51,0-.41-.31-.41-.31l0-2.06c0-.55.35-.58.35-.58l2.45,0a.36.36,0,0,1,.4.33l.1-.8a.46.46,0,0,0-.5-.42l-3.06,0h0c-.1,0-.46.13-.4.72"/><path class="cls-33" d="M86.3,29.49l.06,1.68s.42.17.45.33H89L88,30l-1.12-.68a.75.75,0,0,0-.38-.08c-.09,0-.16.07-.16.22"/><path class="cls-33" d="M91.21,49.6l-.78,1.91.61-.18s.86-1.44.77-1.92a.75.75,0,0,1-.6.19"/><path class="cls-33" d="M91.79,41.58l0,.56-.61,7.46.67-.09-.13-.28s1.14-8.34-.2-13.14l-.9-1.79-.51-.22s1.69,1.85,1.65,7.5"/><path class="cls-33" d="M87.39,34.38l0,2.06s-.11.28.41.31l2.32,0,.5-2.57a.35.35,0,0,0-.39-.33l-2.46,0h0c-.09,0-.37.1-.33.57"/><path class="cls-33" d="M90.09,36.72l-2.32,0c-.52,0-.41-.31-.41-.31l0-2.06c0-.55.35-.58.35-.58l2.46,0a.35.35,0,0,1,.39.33"/><path class="cls-33" d="M90,36.28a9.67,9.67,0,0,1,.37,1.56c0,.54,1,4.57.08,13.67a8.08,8.08,0,0,0,.83-2.36c1.63-12.21-1.12-15.07-1.12-15.07a15.94,15.94,0,0,1-.16,2.2"/><path class="cls-33" d="M90.35,27.86a.66.66,0,0,0-.83-.09.87.87,0,0,0-.34.5L90.7,30a.75.75,0,0,1,1-.34Z"/><line class="cls-33" x1="89.2" y1="28.37" x2="89.39" y2="31.49"/><path class="cls-33" d="M90.75,30l-.09,4.11,1,1.88.16-5.85S91.65,29.05,90.75,30Z"/><path class="cls-33" d="M90.59,32.92l-.9-1.17a1,1,0,0,0-.65-.26H86.42s-.48,0-.45.31l.14,3.09L86.58,37a.61.61,0,0,0,.71.37l2.88,0"/><path class="cls-33" d="M90.64,33.35a.46.46,0,0,0-.5-.42l-3.06,0s-.51,0-.44.73L86.58,37"/><path class="cls-33" d="M90.54,34.15a.36.36,0,0,0-.4-.33l-2.45,0s-.4,0-.35.58l0,2.06s-.1.28.41.31l2.33,0"/><path class="cls-33" d="M89,31.49,88,30l-1.12-.68s-.53-.28-.54.14l.06,1.68s.42.17.45.33"/><path class="cls-33" d="M88.3,31.47a6.52,6.52,0,0,0-.86-1.15s-.9-.91-1.14-.83"/><path class="cls-33" d="M90.43,51.51c.88-9.1-.05-13.13-.08-13.67A9.67,9.67,0,0,0,90,36.28a15.94,15.94,0,0,0,.16-2.2s2.75,2.86,1.12,15.07A8.08,8.08,0,0,1,90.43,51.51Z"/><path class="cls-33" d="M90.43,51.51l.61-.18s.86-1.44.77-1.92a.75.75,0,0,1-.6.19"/><path class="cls-33" d="M91.87,49.45s1-8.56-.32-13.36"/><line class="cls-33" x1="86.7" y1="29.9" x2="86.7" y2="31.08"/><line class="cls-33" x1="86.97" y1="30.18" x2="86.98" y2="31.36"/><line class="cls-33" x1="87.25" y1="30.45" x2="87.27" y2="31.49"/><line class="cls-33" x1="87.53" y1="30.73" x2="87.52" y2="31.47"/><line class="cls-33" x1="87.81" y1="31.01" x2="87.81" y2="31.47"/><line class="cls-33" x1="90.43" y1="34.92" x2="90.19" y2="36.49"/><line class="cls-33" x1="90.64" y1="35.58" x2="90.34" y2="37.09"/><line class="cls-33" x1="90.91" y1="36.35" x2="90.49" y2="37.88"/><line class="cls-33" x1="91.17" y1="37.34" x2="90.64" y2="38.48"/><line class="cls-33" x1="91.32" y1="37.94" x2="90.72" y2="39.26"/><line class="cls-33" x1="91.39" y1="38.81" x2="90.77" y2="39.85"/><line class="cls-33" x1="91.53" y1="39.44" x2="90.9" y2="40.39"/><line class="cls-33" x1="91.54" y1="40.19" x2="90.91" y2="41.08"/><line class="cls-33" x1="91.62" y1="40.91" x2="90.92" y2="41.77"/><line class="cls-33" x1="91.66" y1="41.46" x2="90.96" y2="42.33"/><line class="cls-33" x1="91.64" y1="42.16" x2="90.94" y2="43.03"/><line class="cls-33" x1="91.63" y1="42.8" x2="90.93" y2="43.66"/><line class="cls-33" x1="91.61" y1="43.52" x2="90.91" y2="44.39"/><line class="cls-33" x1="91.62" y1="44.22" x2="90.92" y2="45.08"/><line class="cls-33" x1="91.58" y1="45.49" x2="90.87" y2="46.35"/><line class="cls-33" x1="91.58" y1="44.86" x2="90.88" y2="45.72"/><line class="cls-33" x1="91.51" y1="46.13" x2="90.81" y2="47"/><line class="cls-33" x1="91.5" y1="46.76" x2="90.8" y2="47.63"/><line class="cls-33" x1="91.14" y1="49.24" x2="90.68" y2="50.24"/><line class="cls-33" x1="91.35" y1="48.34" x2="90.7" y2="49.23"/><line class="cls-33" x1="91.42" y1="47.57" x2="90.75" y2="48.33"/><path class="cls-28" d="M101.19,96.86h0l-.07-.09a1.63,1.63,0,0,0-.11-.17L98.77,93.2V87.07a1.56,1.56,0,0,0-.29-.93h0l-3.14-4.75h0A1.61,1.61,0,0,0,94,80.58h-8.1a1.55,1.55,0,0,0-.31,0l-.13,0-.16,0a.8.8,0,0,0-.16.08l-.11.06-.17.13s0,0,0,0a1,1,0,0,0-.17.19l0,0a1.58,1.58,0,0,0-.15.24h0a1.62,1.62,0,0,0-.17.58h0l0,0V94.6a1.6,1.6,0,0,0,.32,1h0l3.14,4.76h0a1.6,1.6,0,0,0,1.37.77H92.8l.46.72h0a4.68,4.68,0,0,0,1.2,1.27h5.48a4.68,4.68,0,0,0,1.94-3.79A4.55,4.55,0,0,0,101.19,96.86Z"/><path class="cls-29" d="M98.48,86.14h0l-3.14-4.75h0A1.61,1.61,0,0,0,94,80.58h-8.1a1.63,1.63,0,0,0-1.62,1.63V94.6a1.6,1.6,0,0,0,.32,1h0l3.14,4.76h0a1.6,1.6,0,0,0,1.37.77h8.09a1.62,1.62,0,0,0,1.62-1.63V87.07A1.56,1.56,0,0,0,98.48,86.14Z"/><path class="cls-30" d="M94,80.58h-8.1a1.62,1.62,0,0,0-1.6,1.47l0,0V94.6l3.21,4.85V87.07a1.62,1.62,0,0,1,1.62-1.63h8.09Z"/><path class="cls-30" d="M93.26,101.8l7.94-5-3.11-4.68h0a4.74,4.74,0,0,0-1.35-1.53H91.25a4.68,4.68,0,0,0-1.94,3.79A4.81,4.81,0,0,0,89.59,96h0a4.69,4.69,0,0,0,1.05,1.67Z"/><path class="cls-29" d="M92.52,99.28a4.65,4.65,0,0,0,1.94,3.79h5.48a4.67,4.67,0,0,0,0-7.58H94.46A4.65,4.65,0,0,0,92.52,99.28Z"/><path class="cls-31" d="M98,100.18s4.46.9,4.46,17.5c0,13.55,5.88,12.11,5.88,12.11"/><path class="cls-32" d="M95.26,91.78c-2.9,0-5.25,1.73-5.25,3.87l1.32,2.07c0-2.14,2.35-3.88,5.25-3.88a6.14,6.14,0,0,1,3.86,1.27C100.08,93.23,97.9,91.78,95.26,91.78Z"/><path class="cls-29" d="M91.81,91.85a.14.14,0,0,0,0-.06h0a.19.19,0,0,0,0-.08v0a.36.36,0,0,0,0-.09h0l-.06-.09h0a.23.23,0,0,0-.07-.07h0l.14,0h0l-.25-.34-1.07-1.48h0l0,0h0l0,0h0l-.06,0h0a.17.17,0,0,0-.1,0h0a.28.28,0,0,0-.13,0h-.2l-.17.06h0a1.38,1.38,0,0,0-.24.25.55.55,0,0,0-.1.25h0l1.52,1.75-1.5-1.66h0l.19,3.13.25.21-.17-.11a1,1,0,0,0-.43-.1h0l-.61-.83L88,91.79,87,91.22l-.18-.11h0l-.05,0h0l-.09,0h0a.21.21,0,0,0-.11,0h0l-.07,0h0s0,0,0,0v0a.31.31,0,0,0,0,.11l.06,1.68h0c.08,0,.37.17.42.3h-.53l-.1,0h0l-.06,0,0,0a.1.1,0,0,0,0,.05s0,0,0,0a.2.2,0,0,0,0,.11h0l.12,2.65,0,.44.06.27.39,1.75s-.07.51.81.51l2.16,0h.75a4.55,4.55,0,0,1,.07.45c0,.23.19,1.11.32,2.76a62,62,0,0,1-.24,10.91h0l.61-.18a6.59,6.59,0,0,0,.78-1.81h.06l-.13-.28s1.14-8.34-.2-13.14l-.9-1.79-.08,0,0-.11a.35.35,0,0,0,0-.1l0,0,.09-.67a.28.28,0,0,0,0-.06v0a0,0,0,0,1,0,0,.41.41,0,0,0,0-.09l0-.18.1.12,0-3a.8.8,0,0,1,.57-.4h0l0,0-.08,0,0,0-.11.08,0,0-.16.15-.09,4.11h0l1,1.88.16-5.85h0v0Z"/><path class="cls-33" d="M89.52,89.53a.87.87,0,0,0-.34.5l1.52,1.75a.75.75,0,0,1,1-.34l-1.32-1.82a.59.59,0,0,0-.58-.17.9.9,0,0,0-.25.08"/><polygon class="cls-33" points="89.39 93.25 89.69 93.5 90.68 94.83 90.7 91.78 89.2 90.13 89.39 93.25"/><path class="cls-33" d="M90.75,91.74l-.09,4.11,1,1.88.16-5.85s-.09-.59-.5-.51a1.17,1.17,0,0,0-.56.37"/><path class="cls-33" d="M90.75,91.74l-.09,4.11,1,1.88.16-5.85S91.65,90.81,90.75,91.74Z"/><path class="cls-33" d="M86.67,95.72h0"/><polyline class="cls-33" points="86.67 95.72 86.67 95.72 86.67 95.72"/><path class="cls-33" d="M86.67,95.72a.34.34,0,0,0,0-.09.31.31,0,0,1,0,.09"/><polyline class="cls-33" points="86.66 95.63 86.66 95.63 86.66 95.63"/><path class="cls-33" d="M86.66,95.62v0"/><polyline class="cls-33" points="86.66 95.61 86.66 95.6 86.66 95.61"/><polyline class="cls-33" points="86.66 95.6 86.66 95.6 86.66 95.6"/><polyline class="cls-33" points="86.66 95.6 86.66 95.59 86.66 95.6"/><polyline class="cls-33" points="86.66 95.59 86.66 95.58 86.66 95.59"/><polyline class="cls-33" points="86.66 95.58 86.66 95.58 86.66 95.58"/><polyline class="cls-33" points="86.66 95.58 86.66 95.57 86.66 95.58"/><path class="cls-33" d="M86.66,95.57h0"/><polyline class="cls-33" points="86.66 95.56 86.66 95.55 86.66 95.56"/><polyline class="cls-33" points="86.66 95.55 86.66 95.55 86.66 95.55"/><path class="cls-33" d="M86.65,95.55v0"/><polyline class="cls-33" points="86.65 95.53 86.65 95.53 86.65 95.53"/><polyline class="cls-33" points="86.65 95.53 86.65 95.53 86.65 95.53"/><polyline class="cls-33" points="86.65 95.53 86.65 95.52 86.65 95.53"/><polyline class="cls-33" points="86.65 95.52 86.65 95.52 86.65 95.52"/><path class="cls-33" d="M86.65,95.52v0"/><path class="cls-33" d="M86.65,95.5v0"/><polyline class="cls-33" points="86.65 95.47 86.65 95.47 86.65 95.47"/><path class="cls-33" d="M86.65,95.47v0"/><polyline class="cls-33" points="86.64 95.45 86.64 95.45 86.64 95.45"/><path class="cls-33" d="M86.65,95.45v0"/><polyline class="cls-33" points="86.64 95.43 86.64 95.43 86.64 95.43"/><path class="cls-33" d="M86.64,95.43v0"/><polyline class="cls-33" points="86.64 95.41 86.64 95.41 86.64 95.41"/><path class="cls-33" d="M86,93.55l.14,3.09.45,2v-.19l.07-3.07h0c-.07-.76.44-.73.44-.73h2.86c.49,0,.62.25.62.25l0-.24-.9-1.18a1,1,0,0,0-.65-.25H86.27c-.14,0-.32.1-.3.3"/><path class="cls-33" d="M90.16,99.16l-2.87,0a.61.61,0,0,1-.71-.37"/><path class="cls-33" d="M86.64,95.4l-.08,3.26s-.07.51.81.51l2.93,0L90,98.48l-2.33,0c-.51,0-.41-.31-.41-.31l0-2.06c0-.55.35-.58.35-.58l2.45,0a.36.36,0,0,1,.4.33l.1-.8a.46.46,0,0,0-.5-.42l-3.06,0h0c-.1,0-.46.13-.4.72"/><path class="cls-33" d="M86.3,91.25l.06,1.68s.42.17.45.33H89L88,91.79l-1.12-.68a.75.75,0,0,0-.38-.08c-.09,0-.16.07-.16.22"/><path class="cls-33" d="M91.21,111.36l-.78,1.91.61-.18s.86-1.44.77-1.92a.75.75,0,0,1-.6.19"/><path class="cls-33" d="M91.79,103.34l0,.56-.61,7.46.67-.09-.13-.28s1.14-8.34-.2-13.14l-.9-1.79-.51-.22s1.69,1.85,1.65,7.5"/><path class="cls-33" d="M87.39,96.14l0,2.06s-.11.28.41.31l2.32,0,.5-2.57a.35.35,0,0,0-.39-.33l-2.46,0h0c-.09,0-.37.1-.33.57"/><path class="cls-33" d="M90.09,98.48l-2.32,0c-.52,0-.41-.31-.41-.31l0-2.06c0-.55.35-.58.35-.58l2.46,0a.35.35,0,0,1,.39.33"/><path class="cls-33" d="M90,98a9.67,9.67,0,0,1,.37,1.56c0,.54,1,4.57.08,13.67a8.08,8.08,0,0,0,.83-2.36c1.63-12.21-1.12-15.07-1.12-15.07A15.94,15.94,0,0,1,90,98"/><path class="cls-33" d="M90.35,89.62a.66.66,0,0,0-.83-.09.87.87,0,0,0-.34.5l1.52,1.75a.75.75,0,0,1,1-.34Z"/><line class="cls-33" x1="89.2" y1="90.12" x2="89.39" y2="93.25"/><path class="cls-33" d="M90.75,91.74l-.09,4.11,1,1.88.16-5.85S91.65,90.81,90.75,91.74Z"/><path class="cls-33" d="M90.59,94.68l-.9-1.18a1,1,0,0,0-.65-.25H86.42s-.48,0-.45.31l.14,3.09.47,2.12a.61.61,0,0,0,.71.37l2.88,0"/><path class="cls-33" d="M90.64,95.11a.46.46,0,0,0-.5-.42l-3.06,0s-.51,0-.44.73l-.06,3.36"/><path class="cls-33" d="M90.54,95.91a.36.36,0,0,0-.4-.33l-2.45,0s-.4,0-.35.58l0,2.06s-.1.28.41.31l2.33,0"/><path class="cls-33" d="M89,93.25,88,91.79l-1.12-.68s-.53-.28-.54.14l.06,1.68s.42.17.45.33"/><path class="cls-33" d="M88.3,93.23a6.52,6.52,0,0,0-.86-1.15s-.9-.91-1.14-.83"/><path class="cls-33" d="M90.43,113.27c.88-9.1-.05-13.13-.08-13.67A9.67,9.67,0,0,0,90,98a15.94,15.94,0,0,0,.16-2.2s2.75,2.86,1.12,15.07A8.08,8.08,0,0,1,90.43,113.27Z"/><path class="cls-33" d="M90.43,113.27l.61-.18s.86-1.44.77-1.92a.75.75,0,0,1-.6.19"/><path class="cls-33" d="M91.87,111.21s1-8.56-.32-13.36"/><line class="cls-33" x1="86.7" y1="91.66" x2="86.7" y2="92.84"/><line class="cls-33" x1="86.97" y1="91.94" x2="86.98" y2="93.12"/><line class="cls-33" x1="87.25" y1="92.21" x2="87.27" y2="93.25"/><line class="cls-33" x1="87.53" y1="92.49" x2="87.52" y2="93.23"/><line class="cls-33" x1="87.81" y1="92.77" x2="87.81" y2="93.23"/><line class="cls-33" x1="90.43" y1="96.68" x2="90.19" y2="98.25"/><line class="cls-33" x1="90.64" y1="97.34" x2="90.34" y2="98.85"/><line class="cls-33" x1="90.91" y1="98.11" x2="90.49" y2="99.64"/><line class="cls-33" x1="91.17" y1="99.1" x2="90.64" y2="100.24"/><line class="cls-33" x1="91.32" y1="99.7" x2="90.72" y2="101.02"/><line class="cls-33" x1="91.39" y1="100.57" x2="90.77" y2="101.61"/><line class="cls-33" x1="91.53" y1="101.2" x2="90.9" y2="102.15"/><line class="cls-33" x1="91.54" y1="101.95" x2="90.91" y2="102.84"/><line class="cls-33" x1="91.62" y1="102.67" x2="90.92" y2="103.53"/><line class="cls-33" x1="91.66" y1="103.22" x2="90.96" y2="104.09"/><line class="cls-33" x1="91.64" y1="103.92" x2="90.94" y2="104.79"/><line class="cls-33" x1="91.63" y1="104.55" x2="90.93" y2="105.42"/><line class="cls-33" x1="91.61" y1="105.28" x2="90.91" y2="106.15"/><line class="cls-33" x1="91.62" y1="105.98" x2="90.92" y2="106.84"/><line class="cls-33" x1="91.58" y1="107.25" x2="90.87" y2="108.11"/><line class="cls-33" x1="91.58" y1="106.61" x2="90.88" y2="107.48"/><line class="cls-33" x1="91.51" y1="107.89" x2="90.81" y2="108.76"/><line class="cls-33" x1="91.5" y1="108.52" x2="90.8" y2="109.39"/><line class="cls-33" x1="91.14" y1="111" x2="90.68" y2="112"/><line class="cls-33" x1="91.35" y1="110.1" x2="90.7" y2="110.99"/><line class="cls-33" x1="91.42" y1="109.33" x2="90.75" y2="110.09"/></g></g></svg>