<svg xmlns="http://www.w3.org/2000/svg" viewBox="0 0 200 120"><defs><style>.cls-1{fill:#464748;stroke:#1d1d1d;stroke-miterlimit:10;stroke-width:0.38px;}.cls-2{fill:#bbbdbf;}.cls-3{fill:#e6e7e8;}.cls-4{fill:#0077bf;}.cls-5{fill:#babcbe;}.cls-6{fill:#a6a7aa;}.cls-7{fill:#414141;}.cls-8{fill:#fff;fill-rule:evenodd;}.cls-9{fill:#ea6126;}.cls-10{fill:#959695;}.cls-11{fill:#47474a;}.cls-12{fill:#ced1d2;}.cls-13{fill:#b3b3b3;}.cls-14{fill:#8c8c8c;}.cls-15{fill:#e0e0e0;}.cls-16{fill:#333;}.cls-17{fill:#c4c3c5;}.cls-18{fill:#a5a6a9;}</style></defs><g id="Rulers"><polygon class="cls-1" points="28 68.38 29.9 67.33 72.27 91.62 72.27 110.95 70.37 112 28 87.71 28 68.38"/><path class="cls-2" d="M45.64,93l-2.23-.57,0,0v0l-.7-1.08,0,0v-.06l0,0h0l.7-.28h0l2.23,2h0v0l0,0v0h0"/><path class="cls-2" d="M41.41,90.57,39.18,90l0,0,0,0-.69-1.08,0,0v-.06l0,0h0l.69-.28h0l2.23,2h0l0,0v.06h0"/><path class="cls-2" d="M37.18,88.15,35,87.58l0,0,0,0-.69-1.07,0,0v-.06l0,0h0l.69-.28H35l2.23,2h0v.07h0"/><path class="cls-2" d="M54.1,97.85l-2.23-.57,0,0,0,0-.7-1.08,0,0v-.06l0,0h0l.7-.28h0l2.23,2h0l0,0v.06h0"/><path class="cls-2" d="M49.87,95.43l-2.23-.58h0l0,0-.69-1.08,0,0v-.06h0l.69-.28h0l2.23,2h0l0,0v.06h0"/><path class="cls-2" d="M33,85.72l-2.23-.57,0,0,0,0L30,84l0,0v-.06l0,0h0l.69-.28h0l2.23,2h0l0,0v.06h0"/><path class="cls-2" d="M45.64,95.28l-2.23-.57,0,0v0c-.12-.18-.58-.9-.7-1.07l0,0v-.06l0,0h0l.7-.28h0l2.23,2h0v0l0,0h0v0h0"/><path class="cls-2" d="M41.41,92.85l-2.23-.57,0,0,0,0-.69-1.08,0,0v-.06l0,0h0l.69-.28h0l2.23,2h0l0,0v.06h0"/><path class="cls-2" d="M37.18,90.43,35,89.86l0,0,0,0-.69-1.08,0,0v-.07h0l.69-.27H35l2.23,2h0v.08h0"/><path class="cls-2" d="M54.1,100.13l-2.23-.57,0,0,0,0-.7-1.07,0,0v-.06l0,0h0l.7-.28h0l2.23,2h0l0,0v0h0"/><path class="cls-2" d="M49.87,97.7l-2.23-.57,0,0,0,0L46.9,96l0,0v-.06l0,0h0l.69-.28h0s1.5,1.32,2.23,2h0l0,0v.06h0"/><path class="cls-2" d="M33,88l-2.23-.57,0,0,0,0L30,86.31l0,0v-.06l0,0h0l.69-.28h0l2.23,2h0l0,0v0h0"/><path class="cls-2" d="M45.64,90.73l-2.23-.58,0,0v0L42.67,89l0,0v-.06l0,0h0l.7-.28h0l2.23,2h0v0l0,0v0h0"/><path class="cls-2" d="M41.41,88.3l-2.23-.57,0,0,0,0-.69-1.07,0,0v-.06l0,0h0l.69-.28h0l2.23,2h0l0,0v0h0v0h0"/><path class="cls-2" d="M37.18,85.87,35,85.3l0,0,0,0-.69-1.08,0,0v-.06l0,0h0l.69-.28H35l2.23,2h0v.09h0"/><path class="cls-2" d="M54.1,95.58,51.87,95l0,0,0,0-.7-1.08,0,0v-.06l0,0h0l.7-.28h0l2.23,2h0l0,0v.06h0"/><path class="cls-2" d="M49.87,93.15l-2.23-.57,0,0,0,0-.69-1.07,0,0v-.06l0,0h0l.69-.28h0s1.5,1.32,2.23,2h0l0,0v0h0"/><path class="cls-2" d="M33,83.45l-2.23-.57,0,0,0,0L30,81.76l0,0v-.07h0l.69-.28h0s1.49,1.33,2.23,2h0l0,0v.06h0"/><path class="cls-2" d="M40,90.78l2.23.57,0,0,0,0c.11.18.57.9.69,1.07l0,0v.07h0l-.69.28h-.05l-2.23-2h0l0,0V90.8h0"/><path class="cls-2" d="M44.19,93.21l2.23.57,0,0v0l.7,1.08,0,0V95l0,0h0l-.7.28h0l-2.23-2h0v-.09h0"/><path class="cls-2" d="M48.42,95.64l2.23.57,0,0,0,0,.69,1.08,0,0v.06h0l-.69.28h-.05l-2.23-2h0l0,0v-.06h0"/><path class="cls-2" d="M31.5,85.93l2.23.57,0,0v0c.12.18.58.9.7,1.07l0,0v.07h0l-.7.28h0L31.5,86h0l0,0h0v0h0"/><path class="cls-2" d="M35.73,88.36l2.23.57,0,0,0,0,.69,1.08,0,0v.06l0,0h0l-.7.28h0l-2.23-2h0l0,0v-.06h0"/><path class="cls-2" d="M52.66,98.06l2.22.57,0,0,0,0,.69,1.07,0,0v.08h0l-.69.28h0l-2.22-2h0l0,0v0h0"/><path class="cls-2" d="M40,88.51l2.23.57,0,0,0,0,.69,1.08,0,0v.06l0,0h0l-.69.28h-.05l-2.23-2h0l0,0v-.06h0"/><path class="cls-2" d="M44.19,90.93l2.23.57,0,0v0l.7,1.07,0,0v.07h0l-.7.28h0l0,0-2.23-2h0v0h0v0h0"/><path class="cls-2" d="M48.42,93.36l2.23.57,0,0,0,0,.69,1.07,0,0v.06l0,0h0l-.69.28h-.05l-2.23-2h0l0,0v0h0"/><path class="cls-2" d="M31.5,83.66l2.23.57,0,0v0c.12.18.58.9.7,1.07l0,0v.06l0,0h0l-.7.28h0l-2.23-2h0l0,0v-.06h0"/><path class="cls-2" d="M35.73,86.08l2.23.57,0,0v0l.7,1.07,0,0v.06l0,0h0l-.69.28h0l0,0-2.23-2h0v0h0v0h0"/><path class="cls-2" d="M52.66,95.78c.73.19,2.22.57,2.22.58l0,0,0,0,.69,1.08,0,0v.07h0l-.69.27h0s-1.49-1.33-2.22-2h0l0,0V95.8h0"/><path class="cls-2" d="M40,86.23l2.23.57,0,0,0,0,.69,1.07,0,0V88h0l-.69.27h-.05l-2.23-2h0l0,0v0h0v0h0"/><path class="cls-2" d="M44.19,88.66l2.23.57,0,0v0c.12.17.58.89.7,1.07l0,0v.06l0,0h0l-.7.28h0l-2.23-2h0v-.07h0"/><path class="cls-2" d="M48.42,91.08l2.23.58h0l0,0,.69,1.07,0,0v.06h0l-.69.28h-.05l-2.23-2h0l0,0V91.1h0"/><path class="cls-2" d="M31.5,81.38l2.23.57,0,0v0l.7,1.07,0,0v.06l0,0h0l-.7.28h0l0,0-2.23-2h0l0,0v0h0"/><path class="cls-2" d="M35.73,83.81l2.23.57,0,0v0l.7,1.08,0,0v.06l0,0h0L38,85.9h0l-2.23-2h0v0l0,0v0h0"/><path class="cls-2" d="M52.66,93.51l2.22.57,0,0,0,0,.69,1.07,0,0v.08h0l-.69.28h0l-2.22-2h0l0,0v0h0"/><path class="cls-2" d="M40,93.06l2.23.57,0,0,0,0,.69,1.07,0,0v.06l0,0h0l-.69.28h-.05l-2.23-2h0l0,0v0h0"/><path class="cls-2" d="M44.19,95.48l2.23.58,0,0v0c.12.18.58.9.7,1.07l0,0v.06h0l-.7.28h0l-2.23-2h0V95.5h0"/><path class="cls-2" d="M48.42,97.91l2.23.57,0,0,0,0,.69,1.07,0,0v.06l0,0h0l-.69.28h-.05l-2.23-2h0l0,0v0h0"/><path class="cls-2" d="M31.5,88.21l2.23.57,0,0v0l.7,1.08,0,0V90l0,0h0l-.7.28h0l-2.23-2h0l0,0v-.06h0"/><path class="cls-2" d="M35.73,90.63,38,91.2l0,0v0c.12.18.58.9.7,1.07l0,0v.07h0l-.69.28h0l-2.23-2h0v0h0v0h0"/><path class="cls-2" d="M52.66,100.33l2.22.58,0,0,0,0,.69,1.08,0,0v.07h0l-.69.27h0l-2.22-2h0l0,0v-.06h0"/><path class="cls-2" d="M58.33,100.28l-2.23-.57,0,0,0,0c-.11-.18-.57-.9-.69-1.07l0,0v-.06l0,0h0l.69-.28h.05l2.23,2h0l0,0v.06h0"/><path class="cls-2" d="M58.33,102.55,56.1,102l0,0,0,0-.69-1.08,0,0v-.06l0,0h0l.69-.28h.05l2.23,2h0l0,0v.06h0"/><path class="cls-2" d="M58.33,98l-2.23-.57,0,0,0,0-.69-1.07,0,0v-.06l0,0h0l.69-.28h.05l2.23,2h0l0,0v0h0v0h0"/><path class="cls-2" d="M56.88,100.49l2.23.57,0,0,0,0,.69,1.08,0,0v.06h0l-.69.28h0l-2.23-2h0v-.08h0"/><path class="cls-2" d="M56.88,98.21l2.23.57,0,0,0,0,.69,1.07,0,0V100l0,0h0l-.69.28h0l-2.23-2h0v-.06h0"/><path class="cls-2" d="M56.88,95.93l2.23.57,0,0,0,0c.11.18.57.9.69,1.07l0,0v.07h0l-.69.28h0l-2.23-2h0V96h0"/><path class="cls-2" d="M56.88,102.76l2.23.57,0,0,0,0,.69,1.07,0,0v.06l0,0h0l-.69.28h0l-2.23-2h0v-.06h0"/><path class="cls-2" d="M62.5,102.67l-2.23-.57,0,0,0,0L59.54,101l0,0v-.08h0l.69-.28h0s1.5,1.32,2.23,2h0l0,0v0h0"/><path class="cls-2" d="M62.56,105l-2.23-.57,0,0,0,0-.69-1.07,0,0v-.08h0l.69-.28h0l0,0,2.23,2h0l0,0V105h0"/><path class="cls-2" d="M62.56,100.43l-2.23-.58,0,0,0,0-.69-1.08,0,0v-.08h0l.69-.28h0l2.23,2h0l0,0v.06h0"/><path class="cls-2" d="M61.11,102.91l2.23.57,0,0,0,0c.12.17.58.89.7,1.07l0,0v.06l0,0h0l-.7.28h0l-2.23-2h0l0,0v-.06h0"/><path class="cls-2" d="M61.11,100.63l2.23.57,0,0,0,0c.12.18.58.9.7,1.07l0,0v.07h0l-.7.28h0l-2.23-2h0l0,0v0h0"/><path class="cls-2" d="M61.11,98.36l2.23.57,0,0,0,0,.7,1.08,0,0v.06l0,0h0l-.7.28h0l-2.23-2h0l0,0v-.06h0"/><path class="cls-2" d="M61.11,105.18l2.23.57,0,0,0,0c.12.18.58.9.7,1.07l0,0V107h0l-.7.28h0l-2.23-2h0l0,0v-.06h0"/><path class="cls-2" d="M66.73,105.09l-2.23-.57,0,0,0,0-.7-1.08,0,0v-.06l0,0h0l.7-.28h0l2.23,2h0l0,0v.06h0"/><path class="cls-2" d="M66.73,107.37l-2.23-.57,0,0,0,0-.7-1.08,0,0v-.06l0,0h0l.7-.28h0l2.23,2h0l0,0v0h0"/><path class="cls-2" d="M66.73,102.82l-2.23-.57,0,0,0,0-.7-1.08,0,0V101h0l.7-.28h0l2.23,2h0l0,0v0h0v0h0"/><path class="cls-2" d="M65.29,105.3l2.22.57,0,0,0,0,.69,1.07,0,0v.08h0l-.69.28h0l-2.22-2h0l0,0v0h0v0h0"/><path class="cls-2" d="M65.29,103l2.22.58,0,0,0,0,.69,1.08,0,0v.08h0l-.69.27h0l-2.22-2h0l0,0V103h0"/><path class="cls-2" d="M65.29,100.75l2.22.57,0,0,0,0,.69,1.07,0,0v.08h0l-.69.28h0l-2.22-2h0l0,0v0h0"/><path class="cls-2" d="M65.29,107.57c.73.19,2.22.57,2.22.58l0,0,0,0,.69,1.08,0,0v.08h0l-.69.28h0l-2.22-2h0l0,0v-.06h0"/><path class="cls-2" d="M45.64,86.17l-2.23-.57,0,0v0c-.12-.18-.58-.9-.7-1.07l0,0v-.07h0l.7-.28h0l0,0,2.23,2h0v0l0,0v0h0"/><path class="cls-2" d="M41.41,83.74l-2.23-.57,0,0,0,0-.69-1.08,0,0V82l0,0h0l.69-.28h0l2.23,2h0l0,0v.06h0"/><path class="cls-2" d="M37.18,81.31,35,80.74l0,0,0,0-.69-1.08,0,0v-.07h0l.69-.27H35l2.23,2h0v.08h0"/><path class="cls-2" d="M54.1,91l-2.23-.57,0,0,0,0-.7-1.07,0,0v-.06l0,0h0l.7-.28h0l2.23,2h0l0,0h0v0h0"/><path class="cls-2" d="M49.87,88.59,47.64,88l0,0,0,0L46.9,86.9l0,0V86.8l0,0h0l.69-.28h0s1.5,1.32,2.23,2h0l0,0v.06h0"/><path class="cls-2" d="M33,78.89l-2.23-.57,0,0,0,0L30,77.2l0,0V77.1l0,0h0l.69-.28h0l2.23,2h0l0,0v0h0"/><path class="cls-2" d="M45.64,88.45l-2.23-.58,0,0v0l-.7-1.08,0,0v-.06l0,0h0l.7-.28h0l2.23,2h0v0l0,0v0h0"/><path class="cls-2" d="M41.41,86l-2.23-.57,0,0,0,0-.69-1.07,0,0v-.06l0,0h0l.69-.28h0l2.23,2h0l0,0v0h0"/><path class="cls-2" d="M37.18,83.59,35,83l0,0,0,0-.69-1.08,0,0V81.8l0,0h0l.69-.28H35l2.23,2h0v.09h0"/><path class="cls-2" d="M54.1,93.3l-2.23-.58,0,0,0,0c-.12-.18-.58-.9-.7-1.07l0,0V91.5l0,0h0l.7-.28h0l2.23,2h0l0,0v.06h0"/><path class="cls-2" d="M49.87,90.87l-2.23-.57,0,0,0,0-.69-1.07,0,0v-.06l0,0h0l.69-.28h0s1.5,1.32,2.23,2h0l0,0v0h0"/><path class="cls-2" d="M33,81.17l-2.23-.57,0,0,0,0L30,79.48l0,0v-.07h0l.69-.29h0l2.23,2h0l0,0v.06h0"/><path class="cls-2" d="M45.64,83.89l-2.23-.57,0,0v0l-.7-1.08,0,0V82.1l0,0h0l.7-.28h0l2.23,2h0v0l0,0v0h0"/><path class="cls-2" d="M41.41,81.47l-2.23-.58,0,0,0,0-.69-1.08,0,0v-.07l0,0h0l.69-.27h0l2.23,2h0l0,0v.06h0"/><path class="cls-2" d="M37.18,79,35,78.47l0,0,0,0-.69-1.07,0,0v-.06l0,0h0L34.9,77H35l2.23,2h0V79h0"/><path class="cls-2" d="M54.1,88.74l-2.23-.57,0,0,0,0-.7-1.08,0,0V87l0,0h0l.7-.28h0l2.23,2h0l0,0v.06h0"/><path class="cls-2" d="M49.87,86.32l-2.23-.57,0,0,0,0c-.11-.18-.57-.9-.69-1.07l0,0v-.06h0l.69-.28h0l2.23,2h0l0,0v.06h0"/><path class="cls-2" d="M33,76.61,30.72,76l0,0,0,0L30,74.92l0,0v-.06h0l.69-.28h0l2.23,2h0l0,0v.06h0"/><path class="cls-2" d="M40,84l2.23.57,0,0,0,0,.69,1.07,0,0v.06l0,0h0l-.69.28h-.05l-2.23-2h0l0,0v0h0"/><path class="cls-2" d="M44.19,86.38l2.23.57,0,0v0l.7,1.08,0,0v.06l0,0h0l-.7.28h0l-2.23-2h0v-.08h0"/><path class="cls-2" d="M48.42,88.8l2.23.57,0,0,0,0,.69,1.07,0,0v.06l0,0h0l-.69.28h0l0,0-2.23-2h0l0,0v0h0"/><path class="cls-2" d="M31.5,79.1l2.23.57,0,0v0l.7,1.08,0,0v.06l0,0h0l-.7.28h0l-2.23-2h0l0,0v0h0"/><path class="cls-2" d="M35.73,81.52,38,82.1l0,0,0,0c.11.18.57.9.69,1.07l0,.05v.06h0l-.7.28h0l-2.23-2h0l0,0v-.06h0"/><path class="cls-2" d="M52.66,91.23l2.22.57,0,0,0,0,.69,1.07,0,0V93h0l-.69.28h0l-2.22-2h0l0,0v-.06h0"/><path class="cls-2" d="M40,81.68l2.23.56,0,0,0,0c.11.18.57.9.69,1.07l0,0v.07h0l-.69.27h-.05l-2.23-2h0l0,0v0h0v0h0"/><path class="cls-2" d="M44.19,84.1l2.23.57,0,0v0c.12.17.58.89.7,1.07l0,0v.06l0,0h0l-.7.28h0l-2.23-2h0v-.07h0"/><path class="cls-2" d="M48.42,86.53l2.23.57,0,0,0,0,.69,1.08,0,0v.06h0l-.69.28h-.05l-2.23-2h0l0,0v-.06h0"/><path class="cls-2" d="M31.5,76.82l2.23.57,0,0v0c.12.18.58.9.7,1.07l0,0v.07h0l-.7.28h0l-2.23-2h0l0,0v-.06h0"/><path class="cls-2" d="M35.73,79.25l2.23.57,0,0v0l.7,1.08,0,0V81l0,0h0l-.69.28h0l-2.23-2h0v0l0,0v0h0"/><path class="cls-2" d="M52.66,89l2.22.57,0,0,0,0,.69,1.07,0,0v.07h0l-.69.28h0l-2.22-2h0l0,0v0h0"/><path class="cls-2" d="M40,79.4l2.23.57,0,0,0,0,.69,1.07,0,0v.06l0,0h0l-.69.28h-.05L40,79.5h0l0,0v0h0"/><path class="cls-2" d="M44.19,81.83l2.23.57,0,0v0l.7,1.08,0,0v.06h0l-.7.28h0l-2.23-2h0v-.08h0"/><path class="cls-2" d="M48.42,84.25l2.23.57,0,0,0,0,.69,1.07,0,0v.07h0l-.69.28h-.05l-2.23-2h0l0,0v0h0"/><path class="cls-2" d="M31.5,74.55l2.23.57,0,0v0l.7,1.08,0,0v.06l0,0h0l-.7.28h0l-2.23-2h0l0,0v-.06h0"/><path class="cls-2" d="M35.73,77l2.23.58h0v0c.12.18.58.9.7,1.07l0,0v.07h0l-.69.27h0l-2.23-2h0v0l0,0v0h0"/><path class="cls-2" d="M52.66,86.67c.73.19,2.22.57,2.22.58l0,0,0,0,.69,1.08,0,0v.08h0l-.69.28h0l-2.22-2h0l0,0v-.06h0"/><path class="cls-2" d="M58.33,93.44l-2.23-.57,0,0,0,0-.69-1.08,0,0v-.06l0,0h0l.69-.28h.05l2.23,2h0l0,0v.06h0"/><path class="cls-2" d="M58.33,95.72l-2.23-.57,0,0,0,0L55.36,94l0,0v-.06l0,0h0l.69-.28h.05l2.23,2h0l0,0v0h0"/><path class="cls-2" d="M58.33,91.17,56.1,90.6l0,0,0,0-.69-1.08,0,0v-.06h0l.69-.28h.05l2.23,2h0l0,0v.06h0"/><path class="cls-2" d="M56.88,93.65l2.23.57,0,0,0,0,.69,1.07,0,0v.06l0,0h0l-.69.28h0l-2.23-2h0v-.07h0"/><path class="cls-2" d="M56.88,91.37l2.23.58,0,0,0,0,.69,1.08,0,0v.07h0l-.69.27h0l-2.23-2h0v-.08h0"/><path class="cls-2" d="M56.88,89.1l2.23.57,0,0,0,0,.69,1.07,0,0v.06l0,0h0l-.69.28h0l-2.23-2h0v-.07h0"/><path class="cls-2" d="M62.5,95.84l-2.23-.57,0,0,0,0-.69-1.07,0-.05V94h0l.69-.27h0l2.23,2h0l0,0v.06h0"/><path class="cls-2" d="M62.56,98.14l-2.23-.57,0,0,0,0-.69-1.08,0,0v-.08h0l.69-.28h0l2.23,2h0l0,0v.06h0"/><path class="cls-2" d="M62.56,93.59,60.33,93l0,0,0,0-.69-1.08,0,0v-.08h0l.69-.28h0l2.23,2h0l0,0v0h0"/><path class="cls-2" d="M61.11,96.08l2.23.57,0,0,0,0,.7,1.08,0,0v.06h0l-.7.27h0l-2.23-2h0l0,0v-.06h0"/><path class="cls-2" d="M61.11,93.8l2.23.57,0,0,0,0c.12.17.58.89.7,1.07l0,0v.06l0,0h0l-.7.28h0l-2.23-2h0l0,0v0h0"/><path class="cls-2" d="M61.11,91.52l2.23.58,0,0,0,0c.12.18.58.9.7,1.07l0,0v.07h0l-.7.27h0l-2.23-2h0l0,0v-.06h0"/><path class="cls-2" d="M66.73,98.26l-2.23-.57,0,0,0,0-.7-1.08,0,0v-.06l0,0h0l.7-.28h0l2.23,2h0l0,0v0h0"/><path class="cls-2" d="M66.73,100.54,64.5,100l0,0,0,0-.7-1.07,0,0v-.07h0l.7-.28h0l2.23,2h0l0,0v.06h0"/><path class="cls-2" d="M66.73,96l-2.23-.58,0,0,0,0-.7-1.08,0,0v-.06l0,0h0l.7-.28h0l2.23,2h0l0,0V96h0"/><path class="cls-2" d="M65.29,98.47l2.22.57,0,0,0,0,.69,1.07,0,0v.08h0l-.69.28h0l-2.22-2h0l0,0v-.06h0"/><path class="cls-2" d="M65.29,96.19l2.22.57,0,0,0,0,.69,1.07,0,0V98h0l-.69.28h0l-2.22-2h0l0,0v0h0"/><path class="cls-2" d="M65.29,93.92l2.22.57,0,0,0,0,.69,1.08,0,0v.08h0l-.69.28h0l-2.22-2h0l0,0v-.06h0"/><path class="cls-2" d="M45.64,81.61,43.41,81l0,0v0l-.7-1.07,0,0v-.06l0,0h0l.7-.28h0l2.23,2h0v0h0v0h0"/><path class="cls-2" d="M41.41,79.18l-2.23-.57,0,0,0,0-.69-1.08,0,0v-.06l0,0h0l.69-.28h0l2.23,2h0l0,0v.06h0"/><path class="cls-2" d="M37.18,76.76,35,76.19l0,0,0,0-.69-1.07,0,0V75h0l.69-.27H35l2.23,2h0v.08h0"/><path class="cls-2" d="M54.1,86.46l-2.23-.57,0,0,0,0-.7-1.07,0,0v-.06l0,0h0l.7-.28h0l2.23,2h0l0,0v0h0"/><path class="cls-2" d="M49.87,84l-2.23-.57,0,0,0,0-.69-1.08,0,0v-.06l0,0h0l.69-.28h0l2.23,2h0l0,0V84h0"/><path class="cls-2" d="M33,74.33l-2.23-.57,0,0,0,0L30,72.64l0,0v-.06l0,0h0l.69-.28h0l2.23,2h0l0,0v0h0"/><path class="cls-2" d="M58.33,88.89l-2.23-.57,0,0,0,0-.69-1.08,0,0v-.06l0,0h0l.69-.28h.05l2.23,2h0l0,0v.06h0"/><path class="cls-2" d="M62.56,91.31l-2.23-.57,0,0,0,0-.69-1.07,0,0V89.5h0l.69-.28h0l0,0,2.23,2h0l0,0v0h0v0h0"/><path class="cls-2" d="M66.73,93.7l-2.23-.57,0,0,0,0L63.76,92l0,0v-.06l0,0h0l.7-.28h0l2.23,2h0l0,0v0h0"/><polygon class="cls-3" points="45.04 91.88 29.96 83.24 29.95 77.82 45.04 86.47 45.04 91.88"/><polyline class="cls-4" points="40.35 84.82 40.35 88.16 41.73 88.96 41.73 86.95 42.52 87.41 42.52 89.41 43.91 90.2 43.91 86.86 40.35 84.82"/><path class="cls-5" d="M49.46,54.18V73a.89.89,0,0,0,.4.69l1.21.69V54.65L49.86,54C49.64,53.83,49.46,53.93,49.46,54.18ZM50.64,59c0,.24-.17.33-.37.21a.79.79,0,0,1-.38-.64c0-.23.17-.33.38-.21A.84.84,0,0,1,50.64,59Zm-.75,3.7c0-.24.17-.33.38-.22a.84.84,0,0,1,.37.64c0,.24-.17.34-.37.22A.82.82,0,0,1,49.89,62.73Zm-.25-2.21c0-.4.28-.56.63-.36a1.38,1.38,0,0,1,.62,1.08c0,.39-.28.56-.62.36A1.37,1.37,0,0,1,49.64,60.52Zm0,11.08c0-.39.28-.55.63-.36a1.4,1.4,0,0,1,.62,1.08c0,.4-.28.56-.62.36A1.37,1.37,0,0,1,49.64,71.6Z"/><ellipse class="cls-6" cx="50.27" cy="55.75" rx="0.19" ry="0.34" transform="translate(-21.28 33.04) rotate(-30.35)"/><ellipse class="cls-6" cx="50.27" cy="73.21" rx="0.19" ry="0.34" transform="translate(-30.1 35.43) rotate(-30.35)"/><path class="cls-7" d="M50.81,65.3l-1.59-.91a.15.15,0,0,0-.17,0h0l-.57.34,0,.38.52-.17v6.66a.6.6,0,0,0,.27.5l.94.54.25.72L51,73h0a.22.22,0,0,0,.08-.2v-7A.64.64,0,0,0,50.81,65.3Z"/><path class="cls-7" d="M50.24,73.33l-1.59-.92a.6.6,0,0,1-.27-.49v-7c0-.2.12-.28.27-.2l1.59.91a.64.64,0,0,1,.26.5v7C50.5,73.32,50.38,73.41,50.24,73.33Z"/><path class="cls-6" d="M50.11,67l-1.34-.77a.28.28,0,0,1-.12-.23v-.87c0-.08.05-.12.12-.09l1.34.77a.28.28,0,0,1,.12.23v.87C50.23,67,50.18,67.06,50.11,67Z"/><ellipse class="cls-6" cx="49.83" cy="67.87" rx="0.31" ry="0.53" transform="translate(-27.46 34.48) rotate(-30.35)"/><ellipse class="cls-6" cx="49.83" cy="69.2" rx="0.31" ry="0.53" transform="translate(-28.13 34.66) rotate(-30.35)"/><ellipse class="cls-6" cx="49.83" cy="70.52" rx="0.31" ry="0.53" transform="matrix(0.86, -0.51, 0.51, 0.86, -28.8, 34.84)"/><path class="cls-8" d="M48.89,66.91a.23.23,0,0,0-.37.21.81.81,0,0,0,.37.63.23.23,0,0,0,.37-.21A.81.81,0,0,0,48.89,66.91Zm0,.1a.71.71,0,0,1,.26.43l-.26,0v-.38l-.34,0C48.61,66.93,48.76,66.89,48.93,67Zm-.08.64a.71.71,0,0,1-.26-.43l.26,0v.38l.34,0C49.17,67.73,49,67.77,48.85,67.65Z"/><path class="cls-8" d="M49,68.37a.15.15,0,0,0-.06-.11s-.06,0-.06,0h0l0,.48s0,0,0,0,0,0,0,0l0-.44Z"/><path class="cls-8" d="M49,69a.15.15,0,0,0-.07-.12s-.07,0-.07,0a.17.17,0,0,0,.07.13S49,69.07,49,69Z"/><path class="cls-8" d="M48.89,69.56c-.2-.11-.36,0-.36.21a.78.78,0,0,0,.36.62c.2.12.36,0,.36-.2A.81.81,0,0,0,48.89,69.56Zm0,.77a.66.66,0,0,1-.31-.53c0-.2.14-.28.31-.18a.69.69,0,0,1,.31.54C49.2,70.35,49.06,70.43,48.89,70.33Z"/><path class="cls-8" d="M49,69.77c-.07-.09-.17-.11-.21,0a.22.22,0,0,0,0,.16l.12.34,0,0h0l.12-.2A.27.27,0,0,0,49,69.77Zm-.07.19a.14.14,0,0,1-.07-.11s0-.06.07,0a.14.14,0,0,1,.07.12S48.93,70,48.89,70Z"/><path class="cls-9" d="M141.71,34.63v.26l-1.23-.19a.29.29,0,0,0-.27.08.93.93,0,0,1-.46.38h-.32v.31h0c0,.06.07.11.17.12l2,.31.44-1v-.31Z"/><path d="M141.18,34.94l-.3.64c0,.05,0,.1.11.11l2.1.32s1.54.27,2-.6c0,0,0-.1-.11-.11L143,35a.24.24,0,0,0-.15,0,.41.41,0,0,1-.31,0l-1.12-.18A.21.21,0,0,0,141.18,34.94Z"/><path class="cls-9" d="M139.6,35.27l2,.3.44-.94-1.54-.24a.29.29,0,0,0-.27.08c-.24.4-.54.3-.76.63C139.4,35.17,139.47,35.25,139.6,35.27Z"/><ellipse cx="141.27" cy="35.29" rx="0.17" ry="0.1"/><path class="cls-9" d="M136.31,32h-.13l-.29-.62-1.66.25.53,1.14a.31.31,0,0,0,.3.09c.58-.13.4-.31,1.09-.45.09,0,.15-.06.15-.11h0Z"/><path d="M135.7,31.76l-1.12.17a.21.21,0,0,1-.19-.06l-.56-1.2s-.47-.88,1-1.18c.09,0,.18,0,.2.06l.55,1.19s0,.07,0,.09-.12.08-.07.18l.3.64C135.84,31.7,135.79,31.75,135.7,31.76Z"/><path class="cls-9" d="M134.76,32.5l-.53-1.14,1.66-.25.41.88c0,.07,0,.13-.15.16-.69.13-.51.31-1.09.44A.31.31,0,0,1,134.76,32.5Z"/><ellipse cx="134.72" cy="31.54" rx="0.17" ry="0.1"/><polygon class="cls-10" points="130.63 28.89 50.01 75.09 50.01 55.22 130.63 9 130.63 28.89"/><polygon class="cls-11" points="115.84 81.96 115.84 85.93 92.38 99.38 50.01 75.09 53.48 73.11 92.38 95.41 115.84 81.96"/><polygon class="cls-12" points="136.24 59.65 118.12 49.26 134.81 39.69 122.68 32.73 50.04 74.39 92.38 98.67 165.02 57.01 152.93 50.08 136.24 59.65"/><polygon class="cls-13" points="91.66 50.53 91.66 49.65 91.66 48.77 91.66 47.89 77.79 55.85 77.79 56.73 77.79 57.6 77.79 58.48 91.66 50.53"/><polygon class="cls-13" points="77.79 58.48 77.79 57.6 77.79 56.73 77.79 55.85 63.91 63.8 63.91 64.68 63.91 65.56 63.91 66.44 77.79 58.48"/><polygon class="cls-13" points="63.91 66.44 63.91 65.56 63.91 64.68 63.91 63.8 50.04 71.76 50.04 72.64 50.04 73.51 50.04 74.39 63.91 66.44"/><polygon class="cls-14" points="91.66 47.89 91.66 48.77 91.66 49.65 91.66 50.53 102.25 56.6 102.25 55.72 102.25 54.84 102.25 53.96 91.66 47.89"/><polygon class="cls-15" points="88.37 64.55 77.79 58.48 91.66 50.53 102.25 56.6 88.37 64.55"/><polygon class="cls-15" points="88.53 60.84 79.01 55.38 91.5 48.23 101.02 53.69 88.53 60.84"/><polygon class="cls-12" points="79.01 55.38 79.01 56.17 79.01 56.97 79.01 57.76 88.53 63.22 88.53 62.43 88.53 61.64 88.53 60.84 79.01 55.38"/><polygon class="cls-10" points="101.02 56.06 101.02 55.27 101.02 54.48 101.02 53.69 88.53 60.84 88.53 61.64 88.53 62.43 88.53 63.22 101.02 56.06"/><polygon class="cls-13" points="102.25 56.6 102.25 55.72 102.25 54.84 102.25 53.96 88.37 61.92 88.37 62.79 88.37 63.67 88.37 64.55 102.25 56.6"/><polygon class="cls-14" points="77.79 55.85 77.79 56.73 77.79 57.6 77.79 58.48 88.37 64.55 88.37 63.67 88.37 62.79 88.37 61.92 77.79 55.85"/><polygon class="cls-15" points="74.5 72.51 63.91 66.44 77.79 58.48 88.37 64.55 74.5 72.51"/><polygon class="cls-15" points="74.66 68.8 65.14 63.34 77.62 56.18 87.15 61.64 74.66 68.8"/><polygon class="cls-12" points="65.14 63.34 65.14 64.13 65.14 64.92 65.14 65.71 74.66 71.17 74.66 70.38 74.66 69.59 74.66 68.8 65.14 63.34"/><polygon class="cls-10" points="87.15 64.01 87.15 63.22 87.15 62.43 87.15 61.64 74.66 68.8 74.66 69.59 74.66 70.38 74.66 71.17 87.15 64.01"/><polygon class="cls-13" points="88.37 64.55 88.37 63.67 88.37 62.79 88.37 61.92 74.5 69.87 74.5 70.75 74.5 71.63 74.5 72.51 88.37 64.55"/><polygon class="cls-14" points="63.91 63.8 63.91 64.68 63.91 65.56 63.91 66.44 74.5 72.51 74.5 71.63 74.5 70.75 74.5 69.87 63.91 63.8"/><polygon class="cls-15" points="60.62 80.46 50.04 74.39 63.91 66.44 74.5 72.51 60.62 80.46"/><polygon class="cls-15" points="60.79 76.75 51.26 71.29 63.75 64.13 73.27 69.59 60.79 76.75"/><polygon class="cls-12" points="51.26 71.29 51.26 72.08 51.26 72.87 51.26 73.67 60.79 79.13 60.79 78.34 60.79 77.55 60.79 76.75 51.26 71.29"/><polygon class="cls-10" points="73.27 71.97 73.27 71.18 73.27 70.39 73.27 69.59 60.79 76.75 60.79 77.55 60.79 78.34 60.79 79.13 73.27 71.97"/><polygon class="cls-13" points="74.5 72.51 74.5 71.63 74.5 70.75 74.5 69.87 60.62 77.82 60.62 78.7 60.62 79.58 60.62 80.46 74.5 72.51"/><polygon class="cls-14" points="102.25 53.96 102.25 54.84 102.25 55.72 102.25 56.6 112.83 62.67 112.83 61.79 112.83 60.91 112.83 60.03 102.25 53.96"/><polygon class="cls-15" points="98.95 70.62 88.37 64.55 102.25 56.6 112.83 62.67 98.95 70.62"/><polygon class="cls-15" points="99.12 66.91 89.59 61.45 102.08 54.29 111.61 59.75 99.12 66.91"/><polygon class="cls-12" points="89.59 61.45 89.59 62.24 89.59 63.03 89.59 63.83 99.12 69.29 99.12 68.5 99.12 67.7 99.12 66.91 89.59 61.45"/><polygon class="cls-10" points="111.61 62.13 111.61 61.34 111.61 60.55 111.61 59.75 99.12 66.91 99.12 67.7 99.12 68.5 99.12 69.29 111.61 62.13"/><polygon class="cls-13" points="112.83 62.67 112.83 61.79 112.83 60.91 112.83 60.03 98.95 67.98 98.95 68.86 98.95 69.74 98.95 70.62 112.83 62.67"/><polygon class="cls-14" points="88.37 61.92 88.37 62.79 88.37 63.67 88.37 64.55 98.95 70.62 98.95 69.74 98.95 68.86 98.95 67.98 88.37 61.92"/><polygon class="cls-15" points="85.08 78.58 74.5 72.51 88.37 64.55 98.95 70.62 85.08 78.58"/><polygon class="cls-15" points="85.25 74.87 75.72 69.41 88.21 62.25 97.73 67.71 85.25 74.87"/><polygon class="cls-12" points="75.72 69.41 75.72 70.2 75.72 70.99 75.72 71.78 85.25 77.24 85.25 76.45 85.25 75.66 85.25 74.87 75.72 69.41"/><polygon class="cls-10" points="97.73 70.08 97.73 69.29 97.73 68.5 97.73 67.71 85.25 74.87 85.25 75.66 85.25 76.45 85.25 77.24 97.73 70.08"/><polygon class="cls-13" points="98.95 70.62 98.95 69.74 98.95 68.86 98.95 67.98 85.08 75.94 85.08 76.82 85.08 77.7 85.08 78.58 98.95 70.62"/><polygon class="cls-14" points="74.5 69.87 74.5 70.75 74.5 71.63 74.5 72.51 85.08 78.58 85.08 77.7 85.08 76.82 85.08 75.94 74.5 69.87"/><polygon class="cls-15" points="71.21 86.53 60.62 80.46 74.5 72.51 85.08 78.58 71.21 86.53"/><polygon class="cls-15" points="71.37 82.82 61.85 77.36 74.33 70.2 83.86 75.66 71.37 82.82"/><polygon class="cls-12" points="61.85 77.36 61.85 78.15 61.85 78.94 61.85 79.73 71.37 85.19 71.37 84.4 71.37 83.61 71.37 82.82 61.85 77.36"/><polygon class="cls-10" points="83.86 78.04 83.86 77.25 83.86 76.45 83.86 75.66 71.37 82.82 71.37 83.61 71.37 84.4 71.37 85.19 83.86 78.04"/><polygon class="cls-13" points="85.08 78.58 85.08 77.7 85.08 76.82 85.08 75.94 71.21 83.89 71.21 84.77 71.21 85.65 71.21 86.53 85.08 78.58"/><polygon class="cls-14" points="112.83 60.03 112.83 60.91 112.83 61.79 112.83 62.67 123.41 68.73 123.41 67.86 123.41 66.98 123.41 66.1 112.83 60.03"/><polygon class="cls-15" points="109.54 76.69 98.95 70.62 112.83 62.67 123.41 68.73 109.54 76.69"/><polygon class="cls-15" points="109.7 72.98 100.18 67.52 112.66 60.36 122.19 65.82 109.7 72.98"/><polygon class="cls-12" points="100.18 67.52 100.18 68.31 100.18 69.1 100.18 69.89 109.7 75.36 109.7 74.56 109.7 73.77 109.7 72.98 100.18 67.52"/><polygon class="cls-10" points="122.19 68.2 122.19 67.41 122.19 66.61 122.19 65.82 109.7 72.98 109.7 73.77 109.7 74.56 109.7 75.36 122.19 68.2"/><polygon class="cls-13" points="123.41 68.73 123.41 67.86 123.41 66.98 123.41 66.1 109.54 74.05 109.54 74.93 109.54 75.81 109.54 76.69 123.41 68.73"/><polygon class="cls-14" points="98.95 67.98 98.95 68.86 98.95 69.74 98.95 70.62 109.54 76.69 109.54 75.81 109.54 74.93 109.54 74.05 98.95 67.98"/><polygon class="cls-15" points="95.67 84.64 85.08 78.58 98.95 70.62 109.54 76.69 95.67 84.64"/><polygon class="cls-15" points="95.83 80.94 86.3 75.47 98.79 68.32 108.32 73.78 95.83 80.94"/><polygon class="cls-12" points="86.3 75.47 86.3 76.27 86.3 77.06 86.3 77.85 95.83 83.31 95.83 82.52 95.83 81.73 95.83 80.94 86.3 75.47"/><polygon class="cls-10" points="108.32 76.15 108.32 75.36 108.32 74.57 108.32 73.78 95.83 80.94 95.83 81.73 95.83 82.52 95.83 83.31 108.32 76.15"/><polygon class="cls-13" points="109.54 76.69 109.54 75.81 109.54 74.93 109.54 74.05 95.67 82.01 95.67 82.89 95.67 83.76 95.67 84.64 109.54 76.69"/><polygon class="cls-14" points="85.08 75.94 85.08 76.82 85.08 77.7 85.08 78.58 95.67 84.64 95.67 83.76 95.67 82.89 95.67 82.01 85.08 75.94"/><polygon class="cls-15" points="81.79 92.6 71.21 86.53 85.08 78.58 95.67 84.64 81.79 92.6"/><polygon class="cls-15" points="81.96 88.89 72.43 83.43 84.92 76.27 94.44 81.73 81.96 88.89"/><polygon class="cls-12" points="72.43 83.43 72.43 84.22 72.43 85.01 72.43 85.8 81.96 91.26 81.96 90.47 81.96 89.68 81.96 88.89 72.43 83.43"/><polygon class="cls-10" points="94.44 84.11 94.44 83.31 94.44 82.52 94.44 81.73 81.96 88.89 81.96 89.68 81.96 90.47 81.96 91.26 94.44 84.11"/><polygon class="cls-13" points="95.67 84.64 95.67 83.76 95.67 82.89 95.67 82.01 81.79 89.96 81.79 90.84 81.79 91.72 81.79 92.6 95.67 84.64"/><polygon class="cls-14" points="123.41 66.1 123.41 66.98 123.41 67.86 123.41 68.73 134 74.8 134 73.92 134 73.05 134 72.17 123.41 66.1"/><polygon class="cls-15" points="120.12 82.76 109.54 76.69 123.41 68.73 134 74.8 120.12 82.76"/><polygon class="cls-15" points="120.29 79.05 110.76 73.59 123.25 66.43 132.78 71.89 120.29 79.05"/><polygon class="cls-12" points="110.76 73.59 110.76 74.38 110.76 75.17 110.76 75.96 120.29 81.42 120.29 80.63 120.29 79.84 120.29 79.05 110.76 73.59"/><polygon class="cls-10" points="132.78 74.26 132.78 73.47 132.78 72.68 132.78 71.89 120.29 79.05 120.29 79.84 120.29 80.63 120.29 81.42 132.78 74.26"/><polygon class="cls-13" points="134 74.8 134 73.92 134 73.05 134 72.17 120.12 80.12 120.12 81 120.12 81.88 120.12 82.76 134 74.8"/><polygon class="cls-14" points="109.54 74.05 109.54 74.93 109.54 75.81 109.54 76.69 120.12 82.76 120.12 81.88 120.12 81 120.12 80.12 109.54 74.05"/><polygon class="cls-15" points="106.25 90.71 95.67 84.64 109.54 76.69 120.12 82.76 106.25 90.71"/><polygon class="cls-15" points="106.41 87 96.89 81.54 109.38 74.38 118.9 79.84 106.41 87"/><polygon class="cls-12" points="96.89 81.54 96.89 82.33 96.89 83.13 96.89 83.92 106.41 89.38 106.41 88.59 106.41 87.8 106.41 87 96.89 81.54"/><polygon class="cls-10" points="118.9 82.22 118.9 81.43 118.9 80.64 118.9 79.84 106.41 87 106.41 87.8 106.41 88.59 106.41 89.38 118.9 82.22"/><polygon class="cls-13" points="120.12 82.76 120.12 81.88 120.12 81 120.12 80.12 106.25 88.08 106.25 88.95 106.25 89.83 106.25 90.71 120.12 82.76"/><polygon class="cls-14" points="95.67 82.01 95.67 82.89 95.67 83.76 95.67 84.64 106.25 90.71 106.25 89.83 106.25 88.95 106.25 88.08 95.67 82.01"/><polygon class="cls-15" points="92.38 98.67 81.79 92.6 95.67 84.64 106.25 90.71 92.38 98.67"/><polygon class="cls-15" points="92.54 94.96 83.01 89.5 95.5 82.34 105.03 87.8 92.54 94.96"/><polygon class="cls-12" points="83.01 89.5 83.01 90.29 83.01 91.08 83.01 91.87 92.54 97.33 92.54 96.54 92.54 95.75 92.54 94.96 83.01 89.5"/><polygon class="cls-10" points="105.03 90.17 105.03 89.38 105.03 88.59 105.03 87.8 92.54 94.96 92.54 95.75 92.54 96.54 92.54 97.33 105.03 90.17"/><polygon class="cls-13" points="106.25 90.71 106.25 89.83 106.25 88.95 106.25 88.08 92.38 96.03 92.38 96.91 92.38 97.79 92.38 98.67 106.25 90.71"/><polygon class="cls-16" points="81.79 89.96 81.79 90.84 81.79 91.72 81.79 92.6 92.38 98.67 92.38 97.79 92.38 96.91 92.38 96.03 81.79 89.96"/><polygon class="cls-16" points="50.04 71.76 50.04 72.64 50.04 73.51 50.04 74.39 60.62 80.46 60.62 79.58 60.62 78.7 60.62 77.82 50.04 71.76"/><polygon class="cls-16" points="60.62 77.82 60.62 78.7 60.62 79.58 60.62 80.46 71.21 86.53 71.21 85.65 71.21 84.77 71.21 83.89 60.62 77.82"/><polygon class="cls-16" points="71.21 83.89 71.21 84.77 71.21 85.65 71.21 86.53 81.79 92.6 81.79 91.72 81.79 90.84 81.79 89.96 71.21 83.89"/><path class="cls-9" d="M86.33,95.07h0v-.36h-.49v.08l-.69-.39a.39.39,0,0,0-.32,0,2.12,2.12,0,0,1-.86.22v-.13h-.49v.35h0a.15.15,0,0,0,.07.09l1.52.87,1.26-.72Z"/><path d="M85.49,94.74l-.86.49c-.07,0-.07.1,0,.13l1.6.92a2.62,2.62,0,0,0,2.4.07c.07,0,.07-.1,0-.14l-1.58-.9a.24.24,0,0,0-.17,0,.44.44,0,0,1-.32,0l-.85-.49A.24.24,0,0,0,85.49,94.74Z"/><path class="cls-9" d="M83.56,94.56l1.52.87,1.26-.73L85.16,94a.39.39,0,0,0-.32,0c-.58.29-.76.11-1.26.34C83.47,94.41,83.46,94.5,83.56,94.56Z"/><ellipse cx="85.05" cy="95.08" rx="0.17" ry="0.1"/><path class="cls-9" d="M59,79.08h-.49v0l-.76-.43-.77.44V79h-.49v.36h0l1.51.87a.34.34,0,0,0,.35,0c.41-.29.09-.39.59-.72a.16.16,0,0,0,.06-.09h0Z"/><path d="M58,79l-.86.49a.31.31,0,0,1-.23,0l-1.6-.92s-1.22-.66-.12-1.38a.25.25,0,0,1,.24,0l1.58.9s.06.07,0,.1,0,.11.09.18l.86.49A.08.08,0,0,1,58,79Z"/><path class="cls-9" d="M58,79.9,56.45,79l1.26-.72,1.18.67c.09,0,.09.13,0,.19-.5.33-.18.43-.59.72A.34.34,0,0,1,58,79.9Z"/><ellipse cx="57.06" cy="79.05" rx="0.17" ry="0.1"/><polygon class="cls-12" points="136.24 55.68 118.12 45.29 134.81 35.72 122.68 28.76 50.04 70.42 92.38 94.69 165.02 53.03 152.93 46.11 136.24 55.68"/><polygon class="cls-13" points="91.66 46.56 91.66 45.68 91.66 44.8 91.66 43.92 77.79 51.87 77.79 52.75 77.79 53.63 77.79 54.51 91.66 46.56"/><polygon class="cls-13" points="77.79 54.51 77.79 53.63 77.79 52.75 77.79 51.87 63.91 59.83 63.91 60.71 63.91 61.59 63.91 62.46 77.79 54.51"/><polygon class="cls-13" points="63.91 62.46 63.91 61.59 63.91 60.71 63.91 59.83 50.04 67.78 50.04 68.66 50.04 69.54 50.04 70.42 63.91 62.46"/><polygon class="cls-14" points="91.66 43.92 91.66 44.8 91.66 45.68 91.66 46.56 102.25 52.62 102.25 51.74 102.25 50.87 102.25 49.99 91.66 43.92"/><polygon class="cls-15" points="88.37 60.58 77.79 54.51 91.66 46.56 102.25 52.62 88.37 60.58"/><polygon class="cls-15" points="88.53 56.87 79.01 51.41 91.5 44.25 101.02 49.71 88.53 56.87"/><polygon class="cls-12" points="79.01 51.41 79.01 52.2 79.01 52.99 79.01 53.78 88.53 59.24 88.53 58.45 88.53 57.66 88.53 56.87 79.01 51.41"/><polygon class="cls-10" points="101.02 52.09 101.02 51.29 101.02 50.5 101.02 49.71 88.53 56.87 88.53 57.66 88.53 58.45 88.53 59.24 101.02 52.09"/><polygon class="cls-13" points="102.25 52.62 102.25 51.74 102.25 50.87 102.25 49.99 88.37 57.94 88.37 58.82 88.37 59.7 88.37 60.58 102.25 52.62"/><polygon class="cls-14" points="77.79 51.87 77.79 52.75 77.79 53.63 77.79 54.51 88.37 60.58 88.37 59.7 88.37 58.82 88.37 57.94 77.79 51.87"/><polygon class="cls-15" points="74.5 68.53 63.91 62.46 77.79 54.51 88.37 60.58 74.5 68.53"/><polygon class="cls-15" points="74.66 64.83 65.14 59.36 77.62 52.2 87.15 57.67 74.66 64.83"/><polygon class="cls-12" points="65.14 59.36 65.14 60.16 65.14 60.95 65.14 61.74 74.66 67.2 74.66 66.41 74.66 65.62 74.66 64.83 65.14 59.36"/><polygon class="cls-10" points="87.15 60.04 87.15 59.25 87.15 58.46 87.15 57.67 74.66 64.83 74.66 65.62 74.66 66.41 74.66 67.2 87.15 60.04"/><polygon class="cls-13" points="88.37 60.58 88.37 59.7 88.37 58.82 88.37 57.94 74.5 65.9 74.5 66.78 74.5 67.65 74.5 68.53 88.37 60.58"/><polygon class="cls-14" points="63.91 59.83 63.91 60.71 63.91 61.59 63.91 62.47 74.5 68.53 74.5 67.65 74.5 66.78 74.5 65.9 63.91 59.83"/><polygon class="cls-15" points="60.62 76.49 50.04 70.42 63.91 62.47 74.5 68.53 60.62 76.49"/><polygon class="cls-15" points="60.79 72.78 51.26 67.32 63.75 60.16 73.27 65.62 60.79 72.78"/><polygon class="cls-12" points="51.26 67.32 51.26 68.11 51.26 68.9 51.26 69.69 60.79 75.15 60.79 74.36 60.79 73.57 60.79 72.78 51.26 67.32"/><polygon class="cls-10" points="73.27 67.99 73.27 67.2 73.27 66.41 73.27 65.62 60.79 72.78 60.79 73.57 60.79 74.36 60.79 75.15 73.27 67.99"/><polygon class="cls-13" points="74.5 68.53 74.5 67.65 74.5 66.78 74.5 65.9 60.62 73.85 60.62 74.73 60.62 75.61 60.62 76.49 74.5 68.53"/><polygon class="cls-14" points="102.25 49.99 102.25 50.87 102.25 51.74 102.25 52.62 112.83 58.69 112.83 57.81 112.83 56.94 112.83 56.06 102.25 49.99"/><polygon class="cls-15" points="98.95 66.65 88.37 60.58 102.25 52.62 112.83 58.69 98.95 66.65"/><polygon class="cls-15" points="99.12 62.94 89.59 57.48 102.08 50.32 111.61 55.78 99.12 62.94"/><polygon class="cls-12" points="89.59 57.48 89.59 58.27 89.59 59.06 89.59 59.85 99.12 65.31 99.12 64.52 99.12 63.73 99.12 62.94 89.59 57.48"/><polygon class="cls-10" points="111.61 58.15 111.61 57.36 111.61 56.57 111.61 55.78 99.12 62.94 99.12 63.73 99.12 64.52 99.12 65.31 111.61 58.15"/><polygon class="cls-13" points="112.83 58.69 112.83 57.81 112.83 56.93 112.83 56.06 98.95 64.01 98.95 64.89 98.95 65.77 98.95 66.65 112.83 58.69"/><polygon class="cls-14" points="88.37 57.94 88.37 58.82 88.37 59.7 88.37 60.58 98.95 66.65 98.95 65.77 98.95 64.89 98.95 64.01 88.37 57.94"/><polygon class="cls-15" points="85.08 74.6 74.5 68.53 88.37 60.58 98.95 66.65 85.08 74.6"/><polygon class="cls-15" points="85.25 70.89 75.72 65.43 88.21 58.27 97.73 63.73 85.25 70.89"/><polygon class="cls-12" points="75.72 65.43 75.72 66.22 75.72 67.01 75.72 67.81 85.25 73.27 85.25 72.48 85.25 71.69 85.25 70.89 75.72 65.43"/><polygon class="cls-10" points="97.73 66.11 97.73 65.32 97.73 64.53 97.73 63.73 85.25 70.89 85.25 71.69 85.25 72.48 85.25 73.27 97.73 66.11"/><polygon class="cls-13" points="98.95 66.65 98.95 65.77 98.95 64.89 98.95 64.01 85.08 71.96 85.08 72.84 85.08 73.72 85.08 74.6 98.95 66.65"/><polygon class="cls-14" points="74.5 65.9 74.5 66.78 74.5 67.65 74.5 68.53 85.08 74.6 85.08 73.72 85.08 72.84 85.08 71.96 74.5 65.9"/><polygon class="cls-15" points="71.21 82.56 60.62 76.49 74.5 68.53 85.08 74.6 71.21 82.56"/><polygon class="cls-15" points="71.37 78.85 61.85 73.39 74.33 66.23 83.86 71.69 71.37 78.85"/><polygon class="cls-12" points="61.85 73.39 61.85 74.18 61.85 74.97 61.85 75.76 71.37 81.22 71.37 80.43 71.37 79.64 71.37 78.85 61.85 73.39"/><polygon class="cls-10" points="83.86 74.06 83.86 73.27 83.86 72.48 83.86 71.69 71.37 78.85 71.37 79.64 71.37 80.43 71.37 81.22 83.86 74.06"/><polygon class="cls-13" points="85.08 74.6 85.08 73.72 85.08 72.84 85.08 71.96 71.21 79.92 71.21 80.8 71.21 81.68 71.21 82.56 85.08 74.6"/><polygon class="cls-14" points="112.83 56.06 112.83 56.94 112.83 57.81 112.83 58.69 123.41 64.76 123.41 63.88 123.41 63 123.41 62.12 112.83 56.06"/><polygon class="cls-15" points="109.54 72.72 98.95 66.65 112.83 58.69 123.41 64.76 109.54 72.72"/><polygon class="cls-15" points="109.7 69.01 100.18 63.55 112.66 56.39 122.19 61.85 109.7 69.01"/><polygon class="cls-12" points="100.18 63.55 100.18 64.34 100.18 65.13 100.18 65.92 109.7 71.38 109.7 70.59 109.7 69.8 109.7 69.01 100.18 63.55"/><polygon class="cls-10" points="122.19 64.22 122.19 63.43 122.19 62.64 122.19 61.85 109.7 69.01 109.7 69.8 109.7 70.59 109.7 71.38 122.19 64.22"/><polygon class="cls-13" points="123.41 64.76 123.41 63.88 123.41 63 123.41 62.12 109.54 70.08 109.54 70.96 109.54 71.84 109.54 72.72 123.41 64.76"/><polygon class="cls-14" points="98.95 64.01 98.95 64.89 98.95 65.77 98.95 66.65 109.54 72.72 109.54 71.84 109.54 70.96 109.54 70.08 98.95 64.01"/><polygon class="cls-15" points="95.67 80.67 85.08 74.6 98.95 66.65 109.54 72.72 95.67 80.67"/><polygon class="cls-15" points="95.83 76.96 86.3 71.5 98.79 64.34 108.32 69.8 95.83 76.96"/><polygon class="cls-12" points="86.3 71.5 86.3 72.29 86.3 73.08 86.3 73.87 95.83 79.33 95.83 78.54 95.83 77.75 95.83 76.96 86.3 71.5"/><polygon class="cls-10" points="108.32 72.18 108.32 71.39 108.32 70.59 108.32 69.8 95.83 76.96 95.83 77.75 95.83 78.54 95.83 79.33 108.32 72.18"/><polygon class="cls-13" points="109.54 72.72 109.54 71.84 109.54 70.96 109.54 70.08 95.67 78.03 95.67 78.91 95.67 79.79 95.67 80.67 109.54 72.72"/><polygon class="cls-14" points="85.08 71.96 85.08 72.84 85.08 73.72 85.08 74.6 95.67 80.67 95.67 79.79 95.67 78.91 95.67 78.03 85.08 71.96"/><polygon class="cls-15" points="81.79 88.62 71.21 82.56 85.08 74.6 95.67 80.67 81.79 88.62"/><polygon class="cls-15" points="81.96 84.92 72.43 79.45 84.92 72.3 94.44 77.76 81.96 84.92"/><polygon class="cls-12" points="72.43 79.45 72.43 80.25 72.43 81.04 72.43 81.83 81.96 87.29 81.96 86.5 81.96 85.71 81.96 84.92 72.43 79.45"/><polygon class="cls-10" points="94.44 80.13 94.44 79.34 94.44 78.55 94.44 77.76 81.96 84.92 81.96 85.71 81.96 86.5 81.96 87.29 94.44 80.13"/><polygon class="cls-13" points="95.67 80.67 95.67 79.79 95.67 78.91 95.67 78.03 81.79 85.99 81.79 86.87 81.79 87.75 81.79 88.62 95.67 80.67"/><polygon class="cls-14" points="123.41 62.12 123.41 63 123.41 63.88 123.41 64.76 134 70.83 134 69.95 134 69.07 134 68.19 123.41 62.12"/><polygon class="cls-15" points="120.12 78.78 109.54 72.72 123.41 64.76 134 70.83 120.12 78.78"/><polygon class="cls-15" points="120.29 75.08 110.76 69.61 123.25 62.46 132.78 67.92 120.29 75.08"/><polygon class="cls-12" points="110.76 69.61 110.76 70.41 110.76 71.2 110.76 71.99 120.29 77.45 120.29 76.66 120.29 75.87 120.29 75.08 110.76 69.61"/><polygon class="cls-10" points="132.78 70.29 132.78 69.5 132.78 68.71 132.78 67.92 120.29 75.08 120.29 75.87 120.29 76.66 120.29 77.45 132.78 70.29"/><polygon class="cls-13" points="134 70.83 134 69.95 134 69.07 134 68.19 120.12 76.15 120.12 77.03 120.12 77.9 120.12 78.78 134 70.83"/><polygon class="cls-14" points="109.54 70.08 109.54 70.96 109.54 71.84 109.54 72.72 120.12 78.78 120.12 77.9 120.12 77.03 120.12 76.15 109.54 70.08"/><polygon class="cls-15" points="106.25 86.74 95.67 80.67 109.54 72.72 120.12 78.78 106.25 86.74"/><polygon class="cls-15" points="106.41 83.03 96.89 77.57 109.38 70.41 118.9 75.87 106.41 83.03"/><polygon class="cls-12" points="96.89 77.57 96.89 78.36 96.89 79.15 96.89 79.94 106.41 85.4 106.41 84.61 106.41 83.82 106.41 83.03 96.89 77.57"/><polygon class="cls-10" points="118.9 78.25 118.9 77.45 118.9 76.66 118.9 75.87 106.41 83.03 106.41 83.82 106.41 84.61 106.41 85.4 118.9 78.25"/><polygon class="cls-13" points="120.12 78.78 120.12 77.9 120.12 77.03 120.12 76.15 106.25 84.1 106.25 84.98 106.25 85.86 106.25 86.74 120.12 78.78"/><polygon class="cls-14" points="95.67 78.03 95.67 78.91 95.67 79.79 95.67 80.67 106.25 86.74 106.25 85.86 106.25 84.98 106.25 84.1 95.67 78.03"/><polygon class="cls-15" points="92.38 94.69 81.79 88.62 95.67 80.67 106.25 86.74 92.38 94.69"/><polygon class="cls-15" points="92.54 90.98 83.01 85.52 95.5 78.36 105.03 83.83 92.54 90.98"/><polygon class="cls-12" points="83.01 85.52 83.01 86.31 83.01 87.11 83.01 87.9 92.54 93.36 92.54 92.57 92.54 91.78 92.54 90.98 83.01 85.52"/><polygon class="cls-10" points="105.03 86.2 105.03 85.41 105.03 84.62 105.03 83.83 92.54 90.98 92.54 91.78 92.54 92.57 92.54 93.36 105.03 86.2"/><polygon class="cls-13" points="106.25 86.74 106.25 85.86 106.25 84.98 106.25 84.1 92.38 92.06 92.38 92.93 92.38 93.81 92.38 94.69 106.25 86.74"/><polygon class="cls-16" points="81.79 85.99 81.79 86.87 81.79 87.75 81.79 88.62 92.38 94.69 92.38 93.81 92.38 92.93 92.38 92.06 81.79 85.99"/><polygon class="cls-16" points="50.04 67.78 50.04 68.66 50.04 69.54 50.04 70.42 60.62 76.49 60.62 75.61 60.62 74.73 60.62 73.85 50.04 67.78"/><polygon class="cls-16" points="60.62 73.85 60.62 74.73 60.62 75.61 60.62 76.49 71.21 82.56 71.21 81.68 71.21 80.8 71.21 79.92 60.62 73.85"/><polygon class="cls-16" points="71.21 79.92 71.21 80.8 71.21 81.68 71.21 82.56 81.79 88.62 81.79 87.75 81.79 86.87 81.79 85.99 71.21 79.92"/><path class="cls-9" d="M86.33,91.1h0v-.36h-.49v.08l-.69-.39a.36.36,0,0,0-.32,0,2.12,2.12,0,0,1-.86.22V90.5h-.49v.35h0a.17.17,0,0,0,.07.1l1.52.87,1.26-.73Z"/><path d="M85.49,90.76l-.86.49c-.07,0-.07.1,0,.14l1.6.92a2.61,2.61,0,0,0,2.4.06c.07,0,.07-.1,0-.13l-1.58-.91a.31.31,0,0,0-.17,0,.46.46,0,0,1-.32-.06l-.85-.49A.3.3,0,0,0,85.49,90.76Z"/><path class="cls-9" d="M83.56,90.59l1.52.86,1.26-.72-1.18-.68a.36.36,0,0,0-.32,0c-.58.29-.76.1-1.26.34C83.47,90.44,83.46,90.53,83.56,90.59Z"/><ellipse cx="85.05" cy="91.11" rx="0.17" ry="0.1"/><path class="cls-9" d="M59,75.11h-.49v0l-.76-.44-.77.45v-.09h-.49v.36h0l1.51.87a.39.39,0,0,0,.35,0c.41-.29.09-.39.59-.73a.12.12,0,0,0,.06-.08h0Z"/><path d="M58,75l-.86.49a.24.24,0,0,1-.23,0l-1.6-.91s-1.22-.66-.12-1.38a.25.25,0,0,1,.24,0l1.58.9s.06.06,0,.09,0,.11.09.19l.86.49C58.05,74.9,58.05,75,58,75Z"/><path class="cls-9" d="M58,75.93l-1.51-.87,1.26-.73,1.18.68c.09,0,.09.13,0,.18-.5.34-.18.44-.59.73A.39.39,0,0,1,58,75.93Z"/><ellipse cx="57.06" cy="75.07" rx="0.17" ry="0.1"/><polygon class="cls-12" points="136.24 51.71 118.12 41.32 134.81 31.74 122.68 24.79 50.04 66.44 92.38 90.72 165.02 49.06 152.93 42.13 136.24 51.71"/><polygon class="cls-13" points="91.66 42.58 91.66 41.7 91.66 40.82 91.66 39.95 77.79 47.9 77.79 48.78 77.79 49.66 77.79 50.54 91.66 42.58"/><polygon class="cls-13" points="77.79 50.54 77.79 49.66 77.79 48.78 77.79 47.9 63.91 55.85 63.91 56.73 63.91 57.61 63.91 58.49 77.79 50.54"/><polygon class="cls-13" points="63.91 58.49 63.91 57.61 63.91 56.73 63.91 55.85 50.04 63.81 50.04 64.69 50.04 65.57 50.04 66.44 63.91 58.49"/><polygon class="cls-14" points="91.66 39.95 91.66 40.82 91.66 41.7 91.66 42.58 102.25 48.65 102.25 47.77 102.25 46.89 102.25 46.01 91.66 39.95"/><polygon class="cls-15" points="88.37 56.6 77.79 50.54 91.66 42.58 102.25 48.65 88.37 56.6"/><polygon class="cls-15" points="88.53 52.9 79.01 47.44 91.5 40.28 101.02 45.74 88.53 52.9"/><polygon class="cls-12" points="79.01 47.44 79.01 48.23 79.01 49.02 79.01 49.81 88.53 55.27 88.53 54.48 88.53 53.69 88.53 52.9 79.01 47.44"/><polygon class="cls-10" points="101.02 48.11 101.02 47.32 101.02 46.53 101.02 45.74 88.53 52.9 88.53 53.69 88.53 54.48 88.53 55.27 101.02 48.11"/><polygon class="cls-13" points="102.25 48.65 102.25 47.77 102.25 46.89 102.25 46.01 88.37 53.97 88.37 54.85 88.37 55.73 88.37 56.6 102.25 48.65"/><polygon class="cls-14" points="77.79 47.9 77.79 48.78 77.79 49.66 77.79 50.54 88.37 56.6 88.37 55.73 88.37 54.85 88.37 53.97 77.79 47.9"/><polygon class="cls-15" points="74.5 64.56 63.91 58.49 77.79 50.54 88.37 56.6 74.5 64.56"/><polygon class="cls-15" points="74.66 60.85 65.14 55.39 77.62 48.23 87.15 53.69 74.66 60.85"/><polygon class="cls-12" points="65.14 55.39 65.14 56.18 65.14 56.97 65.14 57.76 74.66 63.23 74.66 62.43 74.66 61.64 74.66 60.85 65.14 55.39"/><polygon class="cls-10" points="87.15 56.07 87.15 55.27 87.15 54.48 87.15 53.69 74.66 60.85 74.66 61.64 74.66 62.43 74.66 63.23 87.15 56.07"/><polygon class="cls-13" points="88.37 56.6 88.37 55.73 88.37 54.85 88.37 53.97 74.5 61.92 74.5 62.8 74.5 63.68 74.5 64.56 88.37 56.6"/><polygon class="cls-14" points="63.91 55.85 63.91 56.73 63.91 57.61 63.91 58.49 74.5 64.56 74.5 63.68 74.5 62.8 74.5 61.92 63.91 55.85"/><polygon class="cls-15" points="60.62 72.51 50.04 66.44 63.91 58.49 74.5 64.56 60.62 72.51"/><polygon class="cls-15" points="60.79 68.81 51.26 63.34 63.75 56.19 73.27 61.65 60.79 68.81"/><polygon class="cls-12" points="51.26 63.34 51.26 64.14 51.26 64.93 51.26 65.72 60.79 71.18 60.79 70.39 60.79 69.6 60.79 68.81 51.26 63.34"/><polygon class="cls-10" points="73.27 64.02 73.27 63.23 73.27 62.44 73.27 61.65 60.79 68.81 60.79 69.6 60.79 70.39 60.79 71.18 73.27 64.02"/><polygon class="cls-13" points="74.5 64.56 74.5 63.68 74.5 62.8 74.5 61.92 60.62 69.88 60.62 70.75 60.62 71.63 60.62 72.51 74.5 64.56"/><polygon class="cls-14" points="102.25 46.01 102.25 46.89 102.25 47.77 102.25 48.65 112.83 54.72 112.83 53.84 112.83 52.96 112.83 52.08 102.25 46.01"/><polygon class="cls-15" points="98.95 62.67 88.37 56.6 102.25 48.65 112.83 54.72 98.95 62.67"/><polygon class="cls-15" points="99.12 58.97 89.59 53.5 102.08 46.34 111.61 51.81 99.12 58.97"/><polygon class="cls-12" points="89.59 53.5 89.59 54.3 89.59 55.09 89.59 55.88 99.12 61.34 99.12 60.55 99.12 59.76 99.12 58.97 89.59 53.5"/><polygon class="cls-10" points="111.61 54.18 111.61 53.39 111.61 52.6 111.61 51.81 99.12 58.97 99.12 59.76 99.12 60.55 99.12 61.34 111.61 54.18"/><polygon class="cls-13" points="112.83 54.72 112.83 53.84 112.83 52.96 112.83 52.08 98.95 60.04 98.95 60.91 98.95 61.79 98.95 62.67 112.83 54.72"/><polygon class="cls-14" points="88.37 53.97 88.37 54.85 88.37 55.73 88.37 56.6 98.95 62.67 98.95 61.79 98.95 60.91 98.95 60.04 88.37 53.97"/><polygon class="cls-15" points="85.08 70.63 74.5 64.56 88.37 56.6 98.95 62.67 85.08 70.63"/><polygon class="cls-15" points="85.25 66.92 75.72 61.46 88.21 54.3 97.73 59.76 85.25 66.92"/><polygon class="cls-12" points="75.72 61.46 75.72 62.25 75.72 63.04 75.72 63.83 85.25 69.29 85.25 68.5 85.25 67.71 85.25 66.92 75.72 61.46"/><polygon class="cls-10" points="97.73 62.13 97.73 61.34 97.73 60.55 97.73 59.76 85.25 66.92 85.25 67.71 85.25 68.5 85.25 69.29 97.73 62.13"/><polygon class="cls-13" points="98.95 62.67 98.95 61.79 98.95 60.91 98.95 60.04 85.08 67.99 85.08 68.87 85.08 69.75 85.08 70.63 98.95 62.67"/><polygon class="cls-14" points="74.5 61.92 74.5 62.8 74.5 63.68 74.5 64.56 85.08 70.63 85.08 69.75 85.08 68.87 85.08 67.99 74.5 61.92"/><polygon class="cls-15" points="71.21 78.58 60.62 72.51 74.5 64.56 85.08 70.63 71.21 78.58"/><polygon class="cls-15" points="71.37 74.87 61.85 69.41 74.33 62.25 83.86 67.72 71.37 74.87"/><polygon class="cls-12" points="61.85 69.41 61.85 70.2 61.85 71 61.85 71.79 71.37 77.25 71.37 76.46 71.37 75.67 71.37 74.87 61.85 69.41"/><polygon class="cls-10" points="83.86 70.09 83.86 69.3 83.86 68.51 83.86 67.72 71.37 74.87 71.37 75.67 71.37 76.46 71.37 77.25 83.86 70.09"/><polygon class="cls-13" points="85.08 70.63 85.08 69.75 85.08 68.87 85.08 67.99 71.21 75.94 71.21 76.82 71.21 77.7 71.21 78.58 85.08 70.63"/><polygon class="cls-14" points="112.83 52.08 112.83 52.96 112.83 53.84 112.83 54.72 123.41 60.79 123.41 59.91 123.41 59.03 123.41 58.15 112.83 52.08"/><polygon class="cls-15" points="109.54 68.74 98.95 62.67 112.83 54.72 123.41 60.79 109.54 68.74"/><polygon class="cls-15" points="109.7 65.03 100.18 59.57 112.66 52.41 122.19 57.88 109.7 65.03"/><polygon class="cls-12" points="100.18 59.57 100.18 60.36 100.18 61.15 100.18 61.95 109.7 67.41 109.7 66.62 109.7 65.83 109.7 65.03 100.18 59.57"/><polygon class="cls-10" points="122.19 60.25 122.19 59.46 122.19 58.67 122.19 57.88 109.7 65.03 109.7 65.83 109.7 66.62 109.7 67.41 122.19 60.25"/><polygon class="cls-13" points="123.41 60.79 123.41 59.91 123.41 59.03 123.41 58.15 109.54 66.1 109.54 66.98 109.54 67.86 109.54 68.74 123.41 60.79"/><polygon class="cls-14" points="98.95 60.04 98.95 60.91 98.95 61.79 98.95 62.67 109.54 68.74 109.54 67.86 109.54 66.98 109.54 66.1 98.95 60.04"/><polygon class="cls-15" points="95.67 76.7 85.08 70.63 98.95 62.67 109.54 68.74 95.67 76.7"/><polygon class="cls-15" points="95.83 72.99 86.3 67.53 98.79 60.37 108.32 65.83 95.83 72.99"/><polygon class="cls-12" points="86.3 67.53 86.3 68.32 86.3 69.11 86.3 69.9 95.83 75.36 95.83 74.57 95.83 73.78 95.83 72.99 86.3 67.53"/><polygon class="cls-10" points="108.32 68.2 108.32 67.41 108.32 66.62 108.32 65.83 95.83 72.99 95.83 73.78 95.83 74.57 95.83 75.36 108.32 68.2"/><polygon class="cls-13" points="109.54 68.74 109.54 67.86 109.54 66.98 109.54 66.1 95.67 74.06 95.67 74.94 95.67 75.82 95.67 76.7 109.54 68.74"/><polygon class="cls-14" points="85.08 67.99 85.08 68.87 85.08 69.75 85.08 70.63 95.67 76.7 95.67 75.82 95.67 74.94 95.67 74.06 85.08 67.99"/><polygon class="cls-15" points="81.79 84.65 71.21 78.58 85.08 70.63 95.67 76.7 81.79 84.65"/><polygon class="cls-15" points="81.96 80.94 72.43 75.48 84.92 68.32 94.44 73.78 81.96 80.94"/><polygon class="cls-12" points="72.43 75.48 72.43 76.27 72.43 77.06 72.43 77.85 81.96 83.32 81.96 82.53 81.96 81.73 81.96 80.94 72.43 75.48"/><polygon class="cls-10" points="94.44 76.16 94.44 75.37 94.44 74.58 94.44 73.78 81.96 80.94 81.96 81.73 81.96 82.53 81.96 83.32 94.44 76.16"/><polygon class="cls-13" points="95.67 76.7 95.67 75.82 95.67 74.94 95.67 74.06 81.79 82.01 81.79 82.89 81.79 83.77 81.79 84.65 95.67 76.7"/><polygon class="cls-14" points="123.41 58.15 123.41 59.03 123.41 59.91 123.41 60.79 134 66.86 134 65.98 134 65.1 134 64.22 123.41 58.15"/><polygon class="cls-15" points="120.12 74.81 109.54 68.74 123.41 60.79 134 66.86 120.12 74.81"/><polygon class="cls-15" points="120.29 71.1 110.76 65.64 123.25 58.48 132.78 63.94 120.29 71.1"/><polygon class="cls-12" points="110.76 65.64 110.76 66.43 110.76 67.22 110.76 68.01 120.29 73.47 120.29 72.68 120.29 71.89 120.29 71.1 110.76 65.64"/><polygon class="cls-10" points="132.78 66.32 132.78 65.53 132.78 64.73 132.78 63.94 120.29 71.1 120.29 71.89 120.29 72.68 120.29 73.47 132.78 66.32"/><polygon class="cls-13" points="134 66.86 134 65.98 134 65.1 134 64.22 120.12 72.17 120.12 73.05 120.12 73.93 120.12 74.81 134 66.86"/><polygon class="cls-14" points="109.54 66.1 109.54 66.98 109.54 67.86 109.54 68.74 120.12 74.81 120.12 73.93 120.12 73.05 120.12 72.17 109.54 66.1"/><polygon class="cls-15" points="106.25 82.76 95.67 76.7 109.54 68.74 120.12 74.81 106.25 82.76"/><polygon class="cls-15" points="106.41 79.06 96.89 73.59 109.38 66.44 118.9 71.9 106.41 79.06"/><polygon class="cls-12" points="96.89 73.59 96.89 74.39 96.89 75.18 96.89 75.97 106.41 81.43 106.41 80.64 106.41 79.85 106.41 79.06 96.89 73.59"/><polygon class="cls-10" points="118.9 74.27 118.9 73.48 118.9 72.69 118.9 71.9 106.41 79.06 106.41 79.85 106.41 80.64 106.41 81.43 118.9 74.27"/><polygon class="cls-13" points="120.12 74.81 120.12 73.93 120.12 73.05 120.12 72.17 106.25 80.13 106.25 81.01 106.25 81.89 106.25 82.76 120.12 74.81"/><polygon class="cls-14" points="95.67 74.06 95.67 74.94 95.67 75.82 95.67 76.7 106.25 82.76 106.25 81.89 106.25 81.01 106.25 80.13 95.67 74.06"/><polygon class="cls-15" points="92.38 90.72 81.79 84.65 95.67 76.7 106.25 82.76 92.38 90.72"/><polygon class="cls-15" points="92.54 87.01 83.01 81.55 95.5 74.39 105.03 79.85 92.54 87.01"/><polygon class="cls-12" points="83.01 81.55 83.01 82.34 83.01 83.13 83.01 83.92 92.54 89.38 92.54 88.59 92.54 87.8 92.54 87.01 83.01 81.55"/><polygon class="cls-10" points="105.03 82.22 105.03 81.43 105.03 80.64 105.03 79.85 92.54 87.01 92.54 87.8 92.54 88.59 92.54 89.38 105.03 82.22"/><polygon class="cls-13" points="106.25 82.76 106.25 81.89 106.25 81.01 106.25 80.13 92.38 88.08 92.38 88.96 92.38 89.84 92.38 90.72 106.25 82.76"/><polygon class="cls-16" points="81.79 82.01 81.79 82.89 81.79 83.77 81.79 84.65 92.38 90.72 92.38 89.84 92.38 88.96 92.38 88.08 81.79 82.01"/><polygon class="cls-16" points="50.04 63.81 50.04 64.69 50.04 65.57 50.04 66.44 60.62 72.51 60.62 71.63 60.62 70.75 60.62 69.88 50.04 63.81"/><polygon class="cls-16" points="60.62 69.88 60.62 70.75 60.62 71.63 60.62 72.51 71.21 78.58 71.21 77.7 71.21 76.82 71.21 75.94 60.62 69.88"/><polygon class="cls-16" points="71.21 75.94 71.21 76.82 71.21 77.7 71.21 78.58 81.79 84.65 81.79 83.77 81.79 82.89 81.79 82.01 71.21 75.94"/><path class="cls-9" d="M86.33,87.12h0v-.36h-.49v.08l-.69-.39a.36.36,0,0,0-.32,0,2.25,2.25,0,0,1-.86.21v-.13h-.49v.35h0a.15.15,0,0,0,.07.09l1.52.87,1.26-.72Z"/><path d="M85.49,86.79l-.86.49c-.07,0-.07.1,0,.13l1.6.92a2.62,2.62,0,0,0,2.4.07c.07,0,.07-.1,0-.14l-1.58-.9a.24.24,0,0,0-.17,0,.44.44,0,0,1-.32,0l-.85-.49A.24.24,0,0,0,85.49,86.79Z"/><path class="cls-9" d="M83.56,86.61l1.52.87,1.26-.72-1.18-.68a.39.39,0,0,0-.32,0c-.58.29-.76.11-1.26.34C83.47,86.46,83.46,86.56,83.56,86.61Z"/><ellipse cx="85.05" cy="87.13" rx="0.17" ry="0.1"/><path class="cls-9" d="M59,71.13h-.49v0l-.76-.43-.77.45v-.09h-.49v.36h0l1.51.86a.36.36,0,0,0,.35,0c.41-.29.09-.4.59-.73A.12.12,0,0,0,59,71.5h0Z"/><path d="M58,71l-.86.49a.24.24,0,0,1-.23,0l-1.6-.92s-1.22-.66-.12-1.38a.25.25,0,0,1,.24,0l1.58.91s.06.06,0,.09,0,.11.09.18l.86.5C58.05,70.92,58.05,71,58,71Z"/><path class="cls-9" d="M58,72l-1.51-.86,1.26-.73,1.18.68c.09,0,.09.13,0,.18-.5.33-.18.43-.59.73A.36.36,0,0,1,58,72Z"/><ellipse cx="57.06" cy="71.1" rx="0.17" ry="0.1"/><polygon class="cls-12" points="136.24 47.73 118.12 37.34 134.81 27.77 122.68 20.81 50.04 62.47 92.38 86.74 165.02 45.09 152.93 38.16 136.24 47.73"/><polygon class="cls-13" points="91.66 38.61 91.66 37.73 91.66 36.85 91.66 35.97 77.79 43.92 77.79 44.8 77.79 45.68 77.79 46.56 91.66 38.61"/><polygon class="cls-13" points="77.79 46.56 77.79 45.68 77.79 44.8 77.79 43.92 63.91 51.88 63.91 52.76 63.91 53.64 63.91 54.52 77.79 46.56"/><polygon class="cls-13" points="63.91 54.52 63.91 53.64 63.91 52.76 63.91 51.88 50.04 59.83 50.04 60.71 50.04 61.59 50.04 62.47 63.91 54.52"/><polygon class="cls-14" points="91.66 35.97 91.66 36.85 91.66 37.73 91.66 38.61 102.25 44.68 102.25 43.8 102.25 42.92 102.25 42.04 91.66 35.97"/><polygon class="cls-15" points="88.37 52.63 77.79 46.56 91.66 38.61 102.25 44.68 88.37 52.63"/><polygon class="cls-15" points="88.53 48.92 79.01 43.46 91.5 36.3 101.02 41.76 88.53 48.92"/><polygon class="cls-12" points="79.01 43.46 79.01 44.25 79.01 45.04 79.01 45.84 88.53 51.3 88.53 50.51 88.53 49.71 88.53 48.92 79.01 43.46"/><polygon class="cls-10" points="101.02 44.14 101.02 43.35 101.02 42.55 101.02 41.76 88.53 48.92 88.53 49.71 88.53 50.51 88.53 51.3 101.02 44.14"/><polygon class="cls-13" points="102.25 44.68 102.25 43.8 102.25 42.92 102.25 42.04 88.37 49.99 88.37 50.87 88.37 51.75 88.37 52.63 102.25 44.68"/><polygon class="cls-14" points="77.79 43.93 77.79 44.8 77.79 45.68 77.79 46.56 88.37 52.63 88.37 51.75 88.37 50.87 88.37 49.99 77.79 43.93"/><polygon class="cls-15" points="74.5 60.59 63.91 54.52 77.79 46.56 88.37 52.63 74.5 60.59"/><polygon class="cls-15" points="74.66 56.88 65.14 51.42 77.62 44.26 87.15 49.72 74.66 56.88"/><polygon class="cls-12" points="65.14 51.42 65.14 52.21 65.14 53 65.14 53.79 74.66 59.25 74.66 58.46 74.66 57.67 74.66 56.88 65.14 51.42"/><polygon class="cls-10" points="87.15 52.09 87.15 51.3 87.15 50.51 87.15 49.72 74.66 56.88 74.66 57.67 74.66 58.46 74.66 59.25 87.15 52.09"/><polygon class="cls-13" points="88.37 52.63 88.37 51.75 88.37 50.87 88.37 49.99 74.5 57.95 74.5 58.83 74.5 59.71 74.5 60.59 88.37 52.63"/><polygon class="cls-14" points="63.91 51.88 63.91 52.76 63.91 53.64 63.91 54.52 74.5 60.59 74.5 59.71 74.5 58.83 74.5 57.95 63.91 51.88"/><polygon class="cls-15" points="60.62 68.54 50.04 62.47 63.91 54.52 74.5 60.59 60.62 68.54"/><polygon class="cls-15" points="60.79 64.83 51.26 59.37 63.75 52.21 73.27 57.67 60.79 64.83"/><polygon class="cls-12" points="51.26 59.37 51.26 60.16 51.26 60.95 51.26 61.74 60.79 67.2 60.79 66.41 60.79 65.62 60.79 64.83 51.26 59.37"/><polygon class="cls-10" points="73.27 60.05 73.27 59.26 73.27 58.46 73.27 57.67 60.79 64.83 60.79 65.62 60.79 66.41 60.79 67.2 73.27 60.05"/><polygon class="cls-13" points="74.5 60.59 74.5 59.71 74.5 58.83 74.5 57.95 60.62 65.9 60.62 66.78 60.62 67.66 60.62 68.54 74.5 60.59"/><polygon class="cls-14" points="102.25 42.04 102.25 42.92 102.25 43.8 102.25 44.68 112.83 50.74 112.83 49.87 112.83 48.99 112.83 48.11 102.25 42.04"/><polygon class="cls-15" points="98.95 58.7 88.37 52.63 102.25 44.68 112.83 50.74 98.95 58.7"/><polygon class="cls-15" points="99.12 54.99 89.59 49.53 102.08 42.37 111.61 47.83 99.12 54.99"/><polygon class="cls-12" points="89.59 49.53 89.59 50.32 89.59 51.11 89.59 51.9 99.12 57.37 99.12 56.57 99.12 55.78 99.12 54.99 89.59 49.53"/><polygon class="cls-10" points="111.61 50.21 111.61 49.41 111.61 48.62 111.61 47.83 99.12 54.99 99.12 55.78 99.12 56.57 99.12 57.37 111.61 50.21"/><polygon class="cls-13" points="112.83 50.74 112.83 49.87 112.83 48.99 112.83 48.11 98.95 56.06 98.95 56.94 98.95 57.82 98.95 58.7 112.83 50.74"/><polygon class="cls-14" points="88.37 49.99 88.37 50.87 88.37 51.75 88.37 52.63 98.95 58.7 98.95 57.82 98.95 56.94 98.95 56.06 88.37 49.99"/><polygon class="cls-15" points="85.08 66.65 74.5 60.59 88.37 52.63 98.95 58.7 85.08 66.65"/><polygon class="cls-15" points="85.25 62.95 75.72 57.48 88.21 50.33 97.73 55.79 85.25 62.95"/><polygon class="cls-12" points="75.72 57.48 75.72 58.27 75.72 59.07 75.72 59.86 85.25 65.32 85.25 64.53 85.25 63.74 85.25 62.95 75.72 57.48"/><polygon class="cls-10" points="97.73 58.16 97.73 57.37 97.73 56.58 97.73 55.79 85.25 62.95 85.25 63.74 85.25 64.53 85.25 65.32 97.73 58.16"/><polygon class="cls-13" points="98.95 58.7 98.95 57.82 98.95 56.94 98.95 56.06 85.08 64.02 85.08 64.89 85.08 65.77 85.08 66.65 98.95 58.7"/><polygon class="cls-14" points="74.5 57.95 74.5 58.83 74.5 59.71 74.5 60.59 85.08 66.65 85.08 65.77 85.08 64.89 85.08 64.02 74.5 57.95"/><polygon class="cls-15" points="71.21 74.61 60.62 68.54 74.5 60.59 85.08 66.65 71.21 74.61"/><polygon class="cls-15" points="71.37 70.9 61.85 65.44 74.33 58.28 83.86 63.74 71.37 70.9"/><polygon class="cls-12" points="61.85 65.44 61.85 66.23 61.85 67.02 61.85 67.81 71.37 73.27 71.37 72.48 71.37 71.69 71.37 70.9 61.85 65.44"/><polygon class="cls-10" points="83.86 66.11 83.86 65.32 83.86 64.53 83.86 63.74 71.37 70.9 71.37 71.69 71.37 72.48 71.37 73.27 83.86 66.11"/><polygon class="cls-13" points="85.08 66.65 85.08 65.77 85.08 64.89 85.08 64.02 71.21 71.97 71.21 72.85 71.21 73.73 71.21 74.61 85.08 66.65"/><polygon class="cls-14" points="112.83 48.11 112.83 48.99 112.83 49.87 112.83 50.74 123.41 56.81 123.41 55.93 123.41 55.05 123.41 54.18 112.83 48.11"/><polygon class="cls-15" points="109.54 64.77 98.95 58.7 112.83 50.74 123.41 56.81 109.54 64.77"/><polygon class="cls-15" points="109.7 61.06 100.18 55.6 112.66 48.44 122.19 53.9 109.7 61.06"/><polygon class="cls-12" points="100.18 55.6 100.18 56.39 100.18 57.18 100.18 57.97 109.7 63.43 109.7 62.64 109.7 61.85 109.7 61.06 100.18 55.6"/><polygon class="cls-10" points="122.19 56.27 122.19 55.48 122.19 54.69 122.19 53.9 109.7 61.06 109.7 61.85 109.7 62.64 109.7 63.43 122.19 56.27"/><polygon class="cls-13" points="123.41 56.81 123.41 55.93 123.41 55.05 123.41 54.18 109.54 62.13 109.54 63.01 109.54 63.89 109.54 64.77 123.41 56.81"/><polygon class="cls-14" points="98.95 56.06 98.95 56.94 98.95 57.82 98.95 58.7 109.54 64.77 109.54 63.89 109.54 63.01 109.54 62.13 98.95 56.06"/><polygon class="cls-15" points="95.67 72.72 85.08 66.65 98.95 58.7 109.54 64.77 95.67 72.72"/><polygon class="cls-15" points="95.83 69.01 86.3 63.55 98.79 56.39 108.32 61.85 95.83 69.01"/><polygon class="cls-12" points="86.3 63.55 86.3 64.34 86.3 65.14 86.3 65.93 95.83 71.39 95.83 70.6 95.83 69.81 95.83 69.01 86.3 63.55"/><polygon class="cls-10" points="108.32 64.23 108.32 63.44 108.32 62.65 108.32 61.85 95.83 69.01 95.83 69.81 95.83 70.6 95.83 71.39 108.32 64.23"/><polygon class="cls-13" points="109.54 64.77 109.54 63.89 109.54 63.01 109.54 62.13 95.67 70.08 95.67 70.96 95.67 71.84 95.67 72.72 109.54 64.77"/><polygon class="cls-14" points="85.08 64.02 85.08 64.89 85.08 65.77 85.08 66.65 95.67 72.72 95.67 71.84 95.67 70.96 95.67 70.08 85.08 64.02"/><polygon class="cls-15" points="81.79 80.68 71.21 74.61 85.08 66.65 95.67 72.72 81.79 80.68"/><polygon class="cls-15" points="81.96 76.97 72.43 71.51 84.92 64.35 94.44 69.81 81.96 76.97"/><polygon class="cls-12" points="72.43 71.51 72.43 72.3 72.43 73.09 72.43 73.88 81.96 79.34 81.96 78.55 81.96 77.76 81.96 76.97 72.43 71.51"/><polygon class="cls-10" points="94.44 72.18 94.44 71.39 94.44 70.6 94.44 69.81 81.96 76.97 81.96 77.76 81.96 78.55 81.96 79.34 94.44 72.18"/><polygon class="cls-13" points="95.67 72.72 95.67 71.84 95.67 70.96 95.67 70.08 81.79 78.04 81.79 78.92 81.79 79.8 81.79 80.68 95.67 72.72"/><polygon class="cls-14" points="123.41 54.18 123.41 55.05 123.41 55.93 123.41 56.81 134 62.88 134 62 134 61.12 134 60.24 123.41 54.18"/><polygon class="cls-15" points="120.12 70.84 109.54 64.77 123.41 56.81 134 62.88 120.12 70.84"/><polygon class="cls-15" points="120.29 67.13 110.76 61.67 123.25 54.51 132.78 59.97 120.29 67.13"/><polygon class="cls-12" points="110.76 61.67 110.76 62.46 110.76 63.25 110.76 64.04 120.29 69.5 120.29 68.71 120.29 67.92 120.29 67.13 110.76 61.67"/><polygon class="cls-10" points="132.78 62.34 132.78 61.55 132.78 60.76 132.78 59.97 120.29 67.13 120.29 67.92 120.29 68.71 120.29 69.5 132.78 62.34"/><polygon class="cls-13" points="134 62.88 134 62 134 61.12 134 60.24 120.12 68.2 120.12 69.08 120.12 69.96 120.12 70.84 134 62.88"/><polygon class="cls-14" points="109.54 62.13 109.54 63.01 109.54 63.89 109.54 64.77 120.12 70.84 120.12 69.96 120.12 69.08 120.12 68.2 109.54 62.13"/><polygon class="cls-15" points="106.25 78.79 95.67 72.72 109.54 64.77 120.12 70.84 106.25 78.79"/><polygon class="cls-15" points="106.41 75.08 96.89 69.62 109.38 62.46 118.9 67.92 106.41 75.08"/><polygon class="cls-12" points="96.89 69.62 96.89 70.41 96.89 71.2 96.89 71.99 106.41 77.46 106.41 76.67 106.41 75.87 106.41 75.08 96.89 69.62"/><polygon class="cls-10" points="118.9 70.3 118.9 69.51 118.9 68.72 118.9 67.92 106.41 75.08 106.41 75.87 106.41 76.67 106.41 77.46 118.9 70.3"/><polygon class="cls-13" points="120.12 70.84 120.12 69.96 120.12 69.08 120.12 68.2 106.25 76.15 106.25 77.03 106.25 77.91 106.25 78.79 120.12 70.84"/><polygon class="cls-14" points="95.67 70.08 95.67 70.96 95.67 71.84 95.67 72.72 106.25 78.79 106.25 77.91 106.25 77.03 106.25 76.15 95.67 70.08"/><polygon class="cls-15" points="92.38 86.74 81.79 80.68 95.67 72.72 106.25 78.79 92.38 86.74"/><polygon class="cls-15" points="92.54 83.04 83.01 77.58 95.5 70.42 105.03 75.88 92.54 83.04"/><polygon class="cls-12" points="83.01 77.58 83.01 78.37 83.01 79.16 83.01 79.95 92.54 85.41 92.54 84.62 92.54 83.83 92.54 83.04 83.01 77.58"/><polygon class="cls-10" points="105.03 78.25 105.03 77.46 105.03 76.67 105.03 75.88 92.54 83.04 92.54 83.83 92.54 84.62 92.54 85.41 105.03 78.25"/><polygon class="cls-13" points="106.25 78.79 106.25 77.91 106.25 77.03 106.25 76.15 92.38 84.11 92.38 84.99 92.38 85.86 92.38 86.74 106.25 78.79"/><polygon class="cls-16" points="81.79 78.04 81.79 78.92 81.79 79.8 81.79 80.68 92.38 86.74 92.38 85.86 92.38 84.99 92.38 84.11 81.79 78.04"/><polygon class="cls-16" points="50.04 59.83 50.04 60.71 50.04 61.59 50.04 62.47 60.62 68.54 60.62 67.66 60.62 66.78 60.62 65.9 50.04 59.83"/><polygon class="cls-16" points="60.62 65.9 60.62 66.78 60.62 67.66 60.62 68.54 71.21 74.61 71.21 73.73 71.21 72.85 71.21 71.97 60.62 65.9"/><polygon class="cls-16" points="71.21 71.97 71.21 72.85 71.21 73.73 71.21 74.61 81.79 80.68 81.79 79.8 81.79 78.92 81.79 78.04 71.21 71.97"/><path class="cls-9" d="M86.33,83.15h0v-.36h-.49v.08l-.69-.39a.39.39,0,0,0-.32,0,2.12,2.12,0,0,1-.86.22v-.14h-.49v.36h0a.18.18,0,0,0,.07.09l1.52.87,1.26-.73Z"/><path d="M85.49,82.82l-.86.49c-.07,0-.07.09,0,.13l1.6.92a2.61,2.61,0,0,0,2.4.06c.07,0,.07-.09,0-.13l-1.58-.91a.31.31,0,0,0-.17,0,.44.44,0,0,1-.32,0l-.85-.5A.26.26,0,0,0,85.49,82.82Z"/><path class="cls-9" d="M83.56,82.64l1.52.87,1.26-.73-1.18-.67a.39.39,0,0,0-.32,0c-.58.29-.76.11-1.26.34C83.47,82.49,83.46,82.58,83.56,82.64Z"/><ellipse cx="85.05" cy="83.16" rx="0.17" ry="0.1"/><path class="cls-9" d="M59,67.16h-.49v0l-.76-.43-.77.44V67.1h-.49v.37h0l1.51.87a.36.36,0,0,0,.35,0c.41-.29.09-.39.59-.72a.16.16,0,0,0,.06-.09h0Z"/><path d="M58,67l-.86.5a.31.31,0,0,1-.23,0l-1.6-.92s-1.22-.66-.12-1.38a.25.25,0,0,1,.24,0l1.58.9s.06.06,0,.1,0,.11.09.18l.86.49C58.05,67,58.05,67,58,67Z"/><path class="cls-9" d="M58,68l-1.51-.87,1.26-.72,1.18.67c.09,0,.09.13,0,.19-.5.33-.18.43-.59.72A.36.36,0,0,1,58,68Z"/><ellipse cx="57.06" cy="67.12" rx="0.17" ry="0.1"/><polygon class="cls-12" points="136.24 43.76 118.12 33.37 134.81 23.8 122.68 16.84 50.04 58.5 92.38 82.77 165.02 41.11 152.93 34.19 136.24 43.76"/><polygon class="cls-13" points="91.66 34.63 91.66 33.76 91.66 32.88 91.66 32 77.79 39.95 77.79 40.83 77.79 41.71 77.79 42.59 91.66 34.63"/><polygon class="cls-13" points="77.79 42.59 77.79 41.71 77.79 40.83 77.79 39.95 63.91 47.91 63.91 48.78 63.91 49.66 63.91 50.54 77.79 42.59"/><polygon class="cls-13" points="63.91 50.54 63.91 49.66 63.91 48.78 63.91 47.91 50.04 55.86 50.04 56.74 50.04 57.62 50.04 58.5 63.91 50.54"/><polygon class="cls-14" points="91.66 32 91.66 32.88 91.66 33.76 91.66 34.63 102.25 40.7 102.25 39.82 102.25 38.95 102.25 38.07 91.66 32"/><polygon class="cls-15" points="88.37 48.66 77.79 42.59 91.66 34.63 102.25 40.7 88.37 48.66"/><polygon class="cls-15" points="88.53 44.95 79.01 39.49 91.5 32.33 101.02 37.79 88.53 44.95"/><polygon class="cls-12" points="79.01 39.49 79.01 40.28 79.01 41.07 79.01 41.86 88.53 47.32 88.53 46.53 88.53 45.74 88.53 44.95 79.01 39.49"/><polygon class="cls-10" points="101.02 40.16 101.02 39.37 101.02 38.58 101.02 37.79 88.53 44.95 88.53 45.74 88.53 46.53 88.53 47.32 101.02 40.16"/><polygon class="cls-13" points="102.25 40.7 102.25 39.82 102.25 38.94 102.25 38.07 88.37 46.02 88.37 46.9 88.37 47.78 88.37 48.66 102.25 40.7"/><polygon class="cls-14" points="77.79 39.95 77.79 40.83 77.79 41.71 77.79 42.59 88.37 48.66 88.37 47.78 88.37 46.9 88.37 46.02 77.79 39.95"/><polygon class="cls-15" points="74.5 56.61 63.91 50.54 77.79 42.59 88.37 48.66 74.5 56.61"/><polygon class="cls-15" points="74.66 52.9 65.14 47.44 77.62 40.28 87.15 45.74 74.66 52.9"/><polygon class="cls-12" points="65.14 47.44 65.14 48.23 65.14 49.02 65.14 49.81 74.66 55.28 74.66 54.49 74.66 53.7 74.66 52.9 65.14 47.44"/><polygon class="cls-10" points="87.15 48.12 87.15 47.33 87.15 46.54 87.15 45.74 74.66 52.9 74.66 53.7 74.66 54.49 74.66 55.28 87.15 48.12"/><polygon class="cls-13" points="88.37 48.66 88.37 47.78 88.37 46.9 88.37 46.02 74.5 53.97 74.5 54.85 74.5 55.73 74.5 56.61 88.37 48.66"/><polygon class="cls-14" points="63.91 47.91 63.91 48.78 63.91 49.66 63.91 50.54 74.5 56.61 74.5 55.73 74.5 54.85 74.5 53.97 63.91 47.91"/><polygon class="cls-15" points="60.62 64.56 50.04 58.5 63.91 50.54 74.5 56.61 60.62 64.56"/><polygon class="cls-15" points="60.79 60.86 51.26 55.4 63.75 48.24 73.27 53.7 60.79 60.86"/><polygon class="cls-12" points="51.26 55.4 51.26 56.19 51.26 56.98 51.26 57.77 60.79 63.23 60.79 62.44 60.79 61.65 60.79 60.86 51.26 55.4"/><polygon class="cls-10" points="73.27 56.07 73.27 55.28 73.27 54.49 73.27 53.7 60.79 60.86 60.79 61.65 60.79 62.44 60.79 63.23 73.27 56.07"/><polygon class="cls-13" points="74.5 56.61 74.5 55.73 74.5 54.85 74.5 53.97 60.62 61.93 60.62 62.81 60.62 63.69 60.62 64.56 74.5 56.61"/><polygon class="cls-14" points="102.25 38.07 102.25 38.95 102.25 39.82 102.25 40.7 112.83 46.77 112.83 45.89 112.83 45.01 112.83 44.13 102.25 38.07"/><polygon class="cls-15" points="98.95 54.73 88.37 48.66 102.25 40.7 112.83 46.77 98.95 54.73"/><polygon class="cls-15" points="99.12 51.02 89.59 45.56 102.08 38.4 111.61 43.86 99.12 51.02"/><polygon class="cls-12" points="89.59 45.56 89.59 46.35 89.59 47.14 89.59 47.93 99.12 53.39 99.12 52.6 99.12 51.81 99.12 51.02 89.59 45.56"/><polygon class="cls-10" points="111.61 46.23 111.61 45.44 111.61 44.65 111.61 43.86 99.12 51.02 99.12 51.81 99.12 52.6 99.12 53.39 111.61 46.23"/><polygon class="cls-13" points="112.83 46.77 112.83 45.89 112.83 45.01 112.83 44.13 98.95 52.09 98.95 52.97 98.95 53.85 98.95 54.73 112.83 46.77"/><polygon class="cls-14" points="88.37 46.02 88.37 46.9 88.37 47.78 88.37 48.66 98.95 54.73 98.95 53.85 98.95 52.97 98.95 52.09 88.37 46.02"/><polygon class="cls-15" points="85.08 62.68 74.5 56.61 88.37 48.66 98.95 54.73 85.08 62.68"/><polygon class="cls-15" points="85.25 58.97 75.72 53.51 88.21 46.35 97.73 51.81 85.25 58.97"/><polygon class="cls-12" points="75.72 53.51 75.72 54.3 75.72 55.09 75.72 55.88 85.25 61.34 85.25 60.55 85.25 59.76 85.25 58.97 75.72 53.51"/><polygon class="cls-10" points="97.73 54.19 97.73 53.4 97.73 52.6 97.73 51.81 85.25 58.97 85.25 59.76 85.25 60.55 85.25 61.34 97.73 54.19"/><polygon class="cls-13" points="98.95 54.73 98.95 53.85 98.95 52.97 98.95 52.09 85.08 60.04 85.08 60.92 85.08 61.8 85.08 62.68 98.95 54.73"/><polygon class="cls-14" points="74.5 53.97 74.5 54.85 74.5 55.73 74.5 56.61 85.08 62.68 85.08 61.8 85.08 60.92 85.08 60.04 74.5 53.97"/><polygon class="cls-15" points="71.21 70.63 60.62 64.56 74.5 56.61 85.08 62.68 71.21 70.63"/><polygon class="cls-15" points="71.37 66.93 61.85 61.47 74.33 54.31 83.86 59.77 71.37 66.93"/><polygon class="cls-12" points="61.85 61.47 61.85 62.26 61.85 63.05 61.85 63.84 71.37 69.3 71.37 68.51 71.37 67.72 71.37 66.93 61.85 61.47"/><polygon class="cls-10" points="83.86 62.14 83.86 61.35 83.86 60.56 83.86 59.77 71.37 66.93 71.37 67.72 71.37 68.51 71.37 69.3 83.86 62.14"/><polygon class="cls-13" points="85.08 62.68 85.08 61.8 85.08 60.92 85.08 60.04 71.21 68 71.21 68.88 71.21 69.75 71.21 70.63 85.08 62.68"/><polygon class="cls-14" points="112.83 44.13 112.83 45.01 112.83 45.89 112.83 46.77 123.41 52.84 123.41 51.96 123.41 51.08 123.41 50.2 112.83 44.13"/><polygon class="cls-15" points="109.54 60.79 98.95 54.73 112.83 46.77 123.41 52.84 109.54 60.79"/><polygon class="cls-15" points="109.7 57.09 100.18 51.62 112.66 44.47 122.19 49.93 109.7 57.09"/><polygon class="cls-12" points="100.18 51.62 100.18 52.42 100.18 53.21 100.18 54 109.7 59.46 109.7 58.67 109.7 57.88 109.7 57.09 100.18 51.62"/><polygon class="cls-10" points="122.19 52.3 122.19 51.51 122.19 50.72 122.19 49.93 109.7 57.09 109.7 57.88 109.7 58.67 109.7 59.46 122.19 52.3"/><polygon class="cls-13" points="123.41 52.84 123.41 51.96 123.41 51.08 123.41 50.2 109.54 58.16 109.54 59.03 109.54 59.91 109.54 60.79 123.41 52.84"/><polygon class="cls-14" points="98.95 52.09 98.95 52.97 98.95 53.85 98.95 54.73 109.54 60.79 109.54 59.91 109.54 59.04 109.54 58.16 98.95 52.09"/><polygon class="cls-15" points="95.67 68.75 85.08 62.68 98.95 54.73 109.54 60.79 95.67 68.75"/><polygon class="cls-15" points="95.83 65.04 86.3 59.58 98.79 52.42 108.32 57.88 95.83 65.04"/><polygon class="cls-12" points="86.3 59.58 86.3 60.37 86.3 61.16 86.3 61.95 95.83 67.41 95.83 66.62 95.83 65.83 95.83 65.04 86.3 59.58"/><polygon class="cls-10" points="108.32 60.26 108.32 59.46 108.32 58.67 108.32 57.88 95.83 65.04 95.83 65.83 95.83 66.62 95.83 67.41 108.32 60.26"/><polygon class="cls-13" points="109.54 60.79 109.54 59.91 109.54 59.03 109.54 58.16 95.67 66.11 95.67 66.99 95.67 67.87 95.67 68.75 109.54 60.79"/><polygon class="cls-14" points="85.08 60.04 85.08 60.92 85.08 61.8 85.08 62.68 95.67 68.75 95.67 67.87 95.67 66.99 95.67 66.11 85.08 60.04"/><polygon class="cls-15" points="81.79 76.7 71.21 70.63 85.08 62.68 95.67 68.75 81.79 76.7"/><polygon class="cls-15" points="81.96 73 72.43 67.53 84.92 60.37 94.44 65.84 81.96 73"/><polygon class="cls-12" points="72.43 67.53 72.43 68.32 72.43 69.11 72.43 69.91 81.96 75.37 81.96 74.58 81.96 73.79 81.96 73 72.43 67.53"/><polygon class="cls-10" points="94.44 68.21 94.44 67.42 94.44 66.63 94.44 65.84 81.96 73 81.96 73.79 81.96 74.58 81.96 75.37 94.44 68.21"/><polygon class="cls-13" points="95.67 68.75 95.67 67.87 95.67 66.99 95.67 66.11 81.79 74.06 81.79 74.94 81.79 75.82 81.79 76.7 95.67 68.75"/><polygon class="cls-14" points="123.41 50.2 123.41 51.08 123.41 51.96 123.41 52.84 134 58.91 134 58.03 134 57.15 134 56.27 123.41 50.2"/><polygon class="cls-15" points="120.12 66.86 109.54 60.79 123.41 52.84 134 58.91 120.12 66.86"/><polygon class="cls-15" points="120.29 63.15 110.76 57.69 123.25 50.53 132.78 55.99 120.29 63.15"/><polygon class="cls-12" points="110.76 57.69 110.76 58.48 110.76 59.27 110.76 60.07 120.29 65.53 120.29 64.74 120.29 63.95 120.29 63.15 110.76 57.69"/><polygon class="cls-10" points="132.78 58.37 132.78 57.58 132.78 56.79 132.78 55.99 120.29 63.15 120.29 63.95 120.29 64.74 120.29 65.53 132.78 58.37"/><polygon class="cls-13" points="134 58.91 134 58.03 134 57.15 134 56.27 120.12 64.22 120.12 65.1 120.12 65.98 120.12 66.86 134 58.91"/><polygon class="cls-14" points="109.54 58.16 109.54 59.04 109.54 59.91 109.54 60.79 120.12 66.86 120.12 65.98 120.12 65.1 120.12 64.22 109.54 58.16"/><polygon class="cls-15" points="106.25 74.82 95.67 68.75 109.54 60.79 120.12 66.86 106.25 74.82"/><polygon class="cls-15" points="106.41 71.11 96.89 65.65 109.38 58.49 118.9 63.95 106.41 71.11"/><polygon class="cls-12" points="96.89 65.65 96.89 66.44 96.89 67.23 96.89 68.02 106.41 73.48 106.41 72.69 106.41 71.9 106.41 71.11 96.89 65.65"/><polygon class="cls-10" points="118.9 66.32 118.9 65.53 118.9 64.74 118.9 63.95 106.41 71.11 106.41 71.9 106.41 72.69 106.41 73.48 118.9 66.32"/><polygon class="cls-13" points="120.12 66.86 120.12 65.98 120.12 65.1 120.12 64.22 106.25 72.18 106.25 73.06 106.25 73.94 106.25 74.82 120.12 66.86"/><polygon class="cls-14" points="95.67 66.11 95.67 66.99 95.67 67.87 95.67 68.75 106.25 74.82 106.25 73.94 106.25 73.06 106.25 72.18 95.67 66.11"/><polygon class="cls-15" points="92.38 82.77 81.79 76.7 95.67 68.75 106.25 74.82 92.38 82.77"/><polygon class="cls-15" points="92.54 79.06 83.01 73.6 95.5 66.44 105.03 71.9 92.54 79.06"/><polygon class="cls-12" points="83.01 73.6 83.01 74.39 83.01 75.18 83.01 75.97 92.54 81.44 92.54 80.64 92.54 79.85 92.54 79.06 83.01 73.6"/><polygon class="cls-10" points="105.03 74.28 105.03 73.49 105.03 72.69 105.03 71.9 92.54 79.06 92.54 79.85 92.54 80.64 92.54 81.44 105.03 74.28"/><polygon class="cls-13" points="106.25 74.82 106.25 73.94 106.25 73.06 106.25 72.18 92.38 80.13 92.38 81.01 92.38 81.89 92.38 82.77 106.25 74.82"/><polygon class="cls-16" points="81.79 74.06 81.79 74.94 81.79 75.82 81.79 76.7 92.38 82.77 92.38 81.89 92.38 81.01 92.38 80.13 81.79 74.06"/><polygon class="cls-16" points="50.04 55.86 50.04 56.74 50.04 57.62 50.04 58.5 60.62 64.56 60.62 63.69 60.62 62.81 60.62 61.93 50.04 55.86"/><polygon class="cls-16" points="60.62 61.93 60.62 62.81 60.62 63.69 60.62 64.56 71.21 70.63 71.21 69.75 71.21 68.88 71.21 68 60.62 61.93"/><polygon class="cls-16" points="71.21 68 71.21 68.88 71.21 69.75 71.21 70.63 81.79 76.7 81.79 75.82 81.79 74.94 81.79 74.06 71.21 68"/><path class="cls-9" d="M86.33,79.18h0v-.37h-.49v.09l-.69-.4a.36.36,0,0,0-.32,0,2.08,2.08,0,0,1-.86.21v-.13h-.49v.35h0a.17.17,0,0,0,.07.1l1.52.86,1.26-.72Z"/><path d="M85.49,78.84l-.86.49c-.07,0-.07.1,0,.14l1.6.91a2.62,2.62,0,0,0,2.4.07.07.07,0,0,0,0-.14l-1.58-.9a.24.24,0,0,0-.17,0,.46.46,0,0,1-.32-.06l-.85-.49A.24.24,0,0,0,85.49,78.84Z"/><path class="cls-9" d="M83.56,78.66l1.52.87,1.26-.72-1.18-.68a.36.36,0,0,0-.32,0c-.58.29-.76.1-1.26.34C83.47,78.52,83.46,78.61,83.56,78.66Z"/><ellipse cx="85.05" cy="79.18" rx="0.17" ry="0.1"/><path class="cls-9" d="M59,63.19h-.49v0l-.76-.44-.77.45v-.09h-.49v.36h0l1.51.87a.39.39,0,0,0,.35,0c.41-.29.09-.39.59-.73a.12.12,0,0,0,.06-.08h0Z"/><path d="M58,63.07l-.86.49a.24.24,0,0,1-.23,0l-1.6-.91s-1.22-.66-.12-1.38a.29.29,0,0,1,.24,0l1.58.91s.06.06,0,.09,0,.11.09.19l.86.49C58.05,63,58.05,63,58,63.07Z"/><path class="cls-9" d="M58,64l-1.51-.87,1.26-.73,1.18.68c.09,0,.09.13,0,.18-.5.34-.18.44-.59.73A.39.39,0,0,1,58,64Z"/><ellipse cx="57.06" cy="63.15" rx="0.17" ry="0.1"/><path class="cls-9" d="M160.76,48.12h.49v0l.75-.43.78.44v-.08h.49v.36h0l-1.52.86a.34.34,0,0,1-.34,0c-.41-.29-.09-.4-.59-.73a.09.09,0,0,1-.06-.08h0Z"/><path d="M161.73,48l.86.49a.24.24,0,0,0,.23,0l1.6-.92s1.22-.66.12-1.38a.25.25,0,0,0-.24,0l-1.58.9s-.06.07,0,.1,0,.11-.09.18l-.86.49C161.66,47.91,161.67,48,161.73,48Z"/><path class="cls-9" d="M161.75,48.94l1.52-.87L162,47.35l-1.17.68c-.09,0-.1.13,0,.18.5.33.18.43.59.73A.34.34,0,0,0,161.75,48.94Z"/><ellipse cx="162.66" cy="48.09" rx="0.17" ry="0.1"/><path d="M171.08,42.57l-.23-.13-.23-.13-6.55,3.76s.23.13-.43.51.24.13.24.13l.65-.38.23.13,6.55-3.75Z"/><path d="M119.73,23.93l-.84-.48c-.06,0-.06-.1,0-.13l1.6-.92a2.63,2.63,0,0,1,2.39-.08.07.07,0,0,1,0,.13l-1.58.91a.22.22,0,0,1-.16,0,.52.52,0,0,0-.32.06l-.86.49A.24.24,0,0,1,119.73,23.93Z"/><path class="cls-9" d="M117.87,23.79l1.52-.87,1.24.72-1.18.67a.36.36,0,0,1-.32,0c-.57-.28-.75-.1-1.25-.33C117.77,23.94,117.77,23.85,117.87,23.79Z"/><path class="cls-9" d="M119.45,24.31a.36.36,0,0,1-.32,0c-.57-.28-.75-.1-1.25-.33a.12.12,0,0,1-.08-.09h0v.34h0a.11.11,0,0,0,.08.1c.5.23.68.05,1.25.33a.36.36,0,0,0,.32,0l1.18-.68v-.35h0Z"/><ellipse cx="119.32" cy="23.26" rx="0.17" ry="0.1"/><path d="M129.44,18.7l-.23-.14-.23-.13-6.56,3.76.23.13-.65.38s-.42.5.23.13.88-.24.88-.24l6.56-3.76Z"/><polygon class="cls-10" points="173 53.18 92.38 99.38 92.38 79.51 173 33.29 173 53.18"/><polygon class="cls-10" points="142.48 15.79 142.48 20.54 138.34 18.17 142.48 15.79"/><polygon class="cls-17" points="142.48 15.79 138.34 18.17 157.01 28.87 161.15 26.5 173 33.29 92.38 79.51 50.01 55.22 130.63 9 142.48 15.79"/><path class="cls-7" d="M151.38,50.44l-1.18.68v-.77a.36.36,0,0,1,.15-.28l.89-.51c.08,0,.14,0,.14.11Z"/><path class="cls-7" d="M156.34,47.6l1.18-.67v-.77c0-.11-.07-.16-.15-.11l-.89.51a.33.33,0,0,0-.14.27Z"/><path class="cls-7" d="M151.38,61.86l-1.18.67v-.77a.34.34,0,0,1,.15-.27l.89-.51c.08,0,.14,0,.14.11Z"/><path class="cls-7" d="M156.34,59l1.18-.68v-.77c0-.11-.07-.16-.15-.11l-.89.51a.35.35,0,0,0-.14.28Z"/><path class="cls-7" d="M153.27,55.13l1.18-.68v-.77c0-.1-.07-.15-.15-.1l-.89.51a.32.32,0,0,0-.14.27Z"/><path class="cls-7" d="M104,77.59l-1.18.68V77.5a.36.36,0,0,1,.15-.28l.89-.51c.08,0,.14,0,.14.11Z"/><path class="cls-7" d="M109,74.75l1.18-.68v-.76c0-.11-.06-.16-.14-.11l-.89.51A.34.34,0,0,0,109,74Z"/><path class="cls-7" d="M104,89l-1.18.68v-.77a.32.32,0,0,1,.15-.27l.89-.51c.08,0,.14,0,.14.1Z"/><path class="cls-7" d="M109,86.16l1.18-.67v-.77c0-.11-.06-.16-.14-.11l-.89.51a.36.36,0,0,0-.15.27Z"/><path class="cls-7" d="M105.92,82.28l1.18-.68v-.77c0-.1-.07-.15-.15-.11l-.89.51a.35.35,0,0,0-.14.28Z"/><path class="cls-18" d="M94.8,79.44l-1.22-.7V98.68l1.22.7c.23.13.41,0,.41-.23v-19A.88.88,0,0,0,94.8,79.44Zm-.4,4a.84.84,0,0,1,.37.64c0,.24-.17.34-.37.22a.83.83,0,0,1-.38-.65C94,83.43,94.19,83.33,94.4,83.45Zm0,5a.83.83,0,0,1-.38-.65c0-.23.17-.33.38-.21a.84.84,0,0,1,.37.64C94.77,88.49,94.6,88.59,94.4,88.47Zm0-1.79a1.38,1.38,0,0,1-.64-1.08c0-.4.29-.57.64-.37A1.41,1.41,0,0,1,95,86.32C95,86.72,94.74,86.88,94.4,86.68Zm0,11.19a1.4,1.4,0,0,1-.64-1.09c0-.4.29-.56.64-.36A1.41,1.41,0,0,1,95,97.51C95,97.91,94.74,98.07,94.4,97.87Z"/><ellipse class="cls-18" cx="94.4" cy="80.78" rx="0.2" ry="0.34" transform="translate(-27.88 58.77) rotate(-30.35)"/><ellipse class="cls-18" cx="94.4" cy="98.4" rx="0.2" ry="0.34" transform="translate(-36.79 61.18) rotate(-30.35)"/><path class="cls-5" d="M94.62,79.56l-1.22-.7v20l1.22.69c.23.13.41,0,.41-.23v-19A.88.88,0,0,0,94.62,79.56Zm-.4,4a.84.84,0,0,1,.37.65c0,.24-.17.33-.37.21a.82.82,0,0,1-.38-.64C93.84,83.55,94,83.45,94.22,83.57Zm0,5a.81.81,0,0,1-.38-.64c0-.24.17-.34.38-.22a.84.84,0,0,1,.37.65C94.59,88.62,94.42,88.71,94.22,88.59Zm0-1.78a1.4,1.4,0,0,1-.64-1.09c0-.4.29-.56.64-.36a1.4,1.4,0,0,1,.63,1.09C94.85,86.85,94.56,87,94.22,86.81Zm0,11.18a1.38,1.38,0,0,1-.64-1.08c0-.41.29-.57.64-.37a1.41,1.41,0,0,1,.63,1.09C94.85,98,94.56,98.19,94.22,98Z"/><ellipse class="cls-6" cx="94.22" cy="80.91" rx="0.2" ry="0.34" transform="translate(-27.97 58.69) rotate(-30.35)"/><ellipse class="cls-6" cx="94.22" cy="98.53" rx="0.2" ry="0.34" transform="translate(-36.87 61.11) rotate(-30.35)"/></g></svg>