<svg xmlns="http://www.w3.org/2000/svg" viewBox="0 0 137.63 48.26"><defs><style>.cls-1{fill:#468ecc;}.cls-2{fill:#26a7df;}.cls-3{fill:#2f698e;}.cls-4{fill:#498ac8;}.cls-5,.cls-8{fill:none;stroke-width:2.54px;}.cls-5{stroke:#2868b1;stroke-linecap:round;stroke-linejoin:round;}.cls-6{fill:#2868b1;}.cls-7{fill:#00adee;}.cls-8{stroke:#00adee;stroke-miterlimit:10;}.cls-9{fill:#808184;}.cls-10{fill:#a6a8ab;}</style></defs><title>Wrist strap_Source</title><g id="Rulers"><polygon class="cls-1" points="43.14 27.41 87.52 23.48 85.14 17.61 66.47 14.19 52.37 14.51 45.06 19.34 43.14 27.41"/><path class="cls-2" d="M48,25.84l9.18-3.21s21.06,3.08,25.48-2.19-16.49-8.23-16.49-8.23l-12.26,1.4-7.32,4.83Z"/><polygon class="cls-3" points="28.5 20.41 28.5 22.86 37.3 20.63 34.59 19.07 28.5 20.41"/><path class="cls-2" d="M35.72,19.29s-.24,1.5-5.29,2.56-6.89-1-12.31-.78-4.87,4.65-4.87,4.65-.09,2.58,5,2.58c16.81,0,18.34-6.42,18.34-6.42Z"/><path class="cls-2" d="M39.38,28.3l6.12-1.87L43.76,23l-9.28-1.86S13.55,23,13.25,24.94s2.9,8.26,18.35,6.53c10.95-1.22,13.9-4.37,13.9-4.37"/><path class="cls-1" d="M46,24.15s-1,1.5-6.54,2.57-3.12-.95-9-.78-5.32,3.81-5.32,3.81-.1,1.94,5.42,1.94,16.39-4.94,16.39-4.94Z"/><polygon class="cls-4" points="41.74 27.24 41.74 23.88 28.5 20.41 45.1 16.75 57.77 20 57.77 23.04 41.74 27.24"/><path class="cls-5" d="M62.63,21.81s-2-9.91-24.78-7.46,1.84,3.48,1.84,3.48"/><path class="cls-5" d="M90.33,19.09c-.64,4.66,23.91,20.32,27.07,10.13"/><path class="cls-6" d="M63.17,16.12,62,14.65l1.95,6.13.83,1a.32.32,0,0,0,.32.15.47.47,0,0,1-.12-.21Z"/><path class="cls-7" d="M60.21,15.32l.82-.67c.3-.25.57-.41.8-.14l.12.14-.05-.16c-.12-.36-.43-.31-.81-.19l-1,.34c-.38.12-.68.27-.57.63l2.59,7.39c.12.37.39.32.74.2l.92-.3c.35-.12.62-.25.51-.61l-.38-1.17c-1.29-1.58-2.59-3.16-4-4.7C59.68,15.81,59.91,15.56,60.21,15.32Z"/><path class="cls-7" d="M61.83,14.51c-.23-.27-.5-.11-.8.14l-.82.67c-.3.24-.53.49-.28.76,1.38,1.54,2.68,3.12,4,4.7L62,14.65Z"/><path class="cls-6" d="M66.23,15.19,65.05,13.7l1.82,6.17.8,1a.33.33,0,0,0,.33.15.47.47,0,0,1-.12-.21Z"/><path class="cls-7" d="M63.31,14.32l.82-.64c.31-.24.58-.4.81-.12l.11.14,0-.16c-.11-.36-.42-.32-.79-.21l-1,.31c-.37.11-.66.25-.54.61L65,21.72c.12.37.41.32.76.21l1-.29c.35-.1.63-.23.52-.59l-.35-1.18Q65,17.46,63,15.07C62.79,14.79,63,14.56,63.31,14.32Z"/><path class="cls-7" d="M64.94,13.56c-.23-.28-.5-.12-.81.12l-.82.64c-.3.24-.52.47-.29.75q2,2.38,3.85,4.8L65.05,13.7Z"/><path class="cls-6" d="M69.32,14.33l-1.16-1.52L69.86,19l.78,1.06a.32.32,0,0,0,.32.15.35.35,0,0,1-.11-.2Z"/><path class="cls-7" d="M66.42,13.4l.83-.63c.31-.23.58-.38.81-.1l.1.14,0-.16c-.1-.36-.42-.32-.79-.22l-1,.29c-.37.1-.66.23-.56.59l2.18,7.53c.11.36.41.32.76.22l1-.27c.36-.1.63-.22.54-.58L69.86,19c-1.22-1.64-2.47-3.26-3.75-4.88C65.89,13.86,66.11,13.63,66.42,13.4Z"/><path class="cls-7" d="M68.06,12.67c-.23-.28-.5-.13-.81.1l-.83.63c-.31.23-.53.46-.31.74,1.28,1.62,2.53,3.24,3.75,4.88l-1.7-6.21Z"/><path class="cls-6" d="M72.42,13.53,71.3,12l1.57,6.24.76,1.08a.33.33,0,0,0,.31.16.42.42,0,0,1-.11-.21Z"/><path class="cls-7" d="M69.54,12.54l.84-.61c.32-.22.6-.37.81-.08l.11.14,0-.16c-.09-.37-.41-.33-.79-.24l-1,.27c-.38.1-.67.22-.58.58l2,7.57c.1.37.4.33.76.24l1-.25c.36-.09.64-.21.55-.58l-.3-1.19q-1.78-2.49-3.65-5C69,13,69.23,12.77,69.54,12.54Z"/><path class="cls-7" d="M71.19,11.85c-.21-.29-.49-.14-.81.08l-.84.61c-.31.23-.54.45-.32.74q1.86,2.46,3.65,5L71.3,12Z"/><path class="cls-6" d="M75.55,12.8l-1.09-1.57,1.42,6.28.74,1.09a.31.31,0,0,0,.31.17.42.42,0,0,1-.11-.21Z"/><path class="cls-7" d="M72.68,11.75l.86-.59c.32-.22.61-.37.81-.07l.11.14,0-.16c-.08-.37-.4-.34-.78-.25l-1,.24c-.37.09-.67.21-.58.58l1.87,7.6c.09.37.39.34.74.26l1-.23c.36-.08.64-.19.55-.56l-.27-1.2q-1.72-2.54-3.53-5C72.13,12.18,72.36,12,72.68,11.75Z"/><path class="cls-7" d="M74.35,11.09c-.2-.3-.49-.15-.81.07l-.86.59c-.32.22-.55.43-.33.73q1.8,2.49,3.53,5l-1.42-6.28Z"/><path class="cls-6" d="M78.69,12.14l-1-1.59,1.27,6.32.7,1.1a.32.32,0,0,0,.31.18.41.41,0,0,1-.1-.22Z"/><path class="cls-7" d="M75.85,11l.87-.57c.33-.21.62-.34.82,0l.1.14,0-.16c-.08-.37-.4-.35-.78-.27l-1,.21c-.38.09-.68.2-.6.57l1.69,7.65c.08.37.38.34.74.27l1-.21c.35-.07.63-.17.56-.54l-.24-1.2c-1.1-1.72-2.25-3.43-3.42-5.12C75.29,11.45,75.53,11.24,75.85,11Z"/><path class="cls-7" d="M77.54,10.41c-.2-.3-.49-.17-.82,0l-.87.57c-.32.22-.56.43-.36.73,1.17,1.69,2.32,3.4,3.42,5.12l-1.27-6.32Z"/><path class="cls-6" d="M81.86,11.57l-1-1.61,1.08,6.34.67,1.13a.3.3,0,0,0,.3.18.34.34,0,0,1-.09-.21Z"/><path class="cls-7" d="M79.05,10.38l.89-.55c.33-.2.63-.33.82,0l.1.15,0-.17c-.06-.37-.39-.36-.78-.29l-1,.19c-.38.07-.69.17-.62.54l1.49,7.69c.08.37.37.36.73.29l1-.17c.36-.06.64-.16.58-.53l-.21-1.21q-1.57-2.62-3.27-5.21C78.47,10.78,78.71,10.58,79.05,10.38Z"/><path class="cls-7" d="M80.76,9.81c-.19-.31-.49-.18-.82,0l-.89.55c-.34.2-.58.4-.38.71q1.69,2.58,3.27,5.21L80.86,10Z"/><path class="cls-6" d="M85.07,11.11l-1-1.65L85,15.84,85.6,17a.32.32,0,0,0,.29.19.41.41,0,0,1-.08-.22Z"/><path class="cls-7" d="M82.27,9.82l.92-.52c.34-.2.65-.31.83,0l.09.16,0-.17c0-.37-.38-.38-.77-.32l-1,.16c-.4.06-.71.15-.65.53l1.26,7.73c.06.37.36.37.71.31l1-.14c.36,0,.64-.13.59-.51L85,15.84c-1-1.8-2-3.56-3.11-5.32C81.68,10.21,81.93,10,82.27,9.82Z"/><path class="cls-7" d="M84,9.3c-.18-.31-.49-.2-.83,0l-.92.52c-.34.2-.59.39-.4.7C83,12.28,84,14,85,15.84l-.87-6.38Z"/><path class="cls-6" d="M88.3,10.77l-.89-1.69L88,15.49l.57,1.18a.34.34,0,0,0,.28.21.48.48,0,0,1-.07-.23Z"/><path class="cls-7" d="M85.54,9.37l.95-.48c.35-.19.66-.29.84,0l.08.16V8.91c0-.38-.37-.4-.77-.35l-1.07.12c-.4,0-.71.13-.67.5l1,7.77c0,.38.34.38.7.35l1-.11c.35,0,.63-.1.6-.48L88,15.49c-.9-1.83-1.87-3.64-2.89-5.44C84.93,9.74,85.19,9.55,85.54,9.37Z"/><path class="cls-7" d="M87.33,8.92c-.18-.32-.49-.22-.84,0l-.95.48c-.35.18-.61.37-.43.68,1,1.8,2,3.61,2.89,5.44l-.59-6.41Z"/><path class="cls-6" d="M91.57,10.6l-.81-1.75L91,15.28l.5,1.21c.06.15.14.22.25.23a.49.49,0,0,1,0-.23Z"/><path class="cls-7" d="M88.86,9.05l1-.43c.37-.17.69-.26.85.07l.07.16V8.68c0-.38-.35-.4-.76-.38l-1.09.06c-.41,0-.73.1-.7.48l.63,7.81c0,.38.32.39.67.37l.94-.06c.35,0,.63-.08.62-.45l0-1.23c-.8-1.86-1.68-3.74-2.63-5.56C88.23,9.4,88.5,9.22,88.86,9.05Z"/><path class="cls-7" d="M90.69,8.69c-.16-.33-.48-.24-.85-.07l-1,.43c-.36.17-.63.35-.47.67,1,1.82,1.83,3.7,2.63,5.56l-.26-6.43Z"/><path class="cls-6" d="M94.88,10.63c-.22-.6-.45-1.21-.69-1.8L94,15.26c.14.41.27.83.4,1.25a.31.31,0,0,0,.23.24.5.5,0,0,1,0-.23Z"/><path class="cls-7" d="M92.23,8.91c.34-.14.69-.25,1-.38s.72-.2.86.13l.07.17V8.66c0-.38-.32-.43-.74-.43s-.75,0-1.12,0-.75.06-.74.44l.19,7.83c0,.38.29.42.63.41h.92c.34,0,.61,0,.62-.41l0-1.23c-.65-1.9-1.42-3.84-2.27-5.71C91.57,9.22,91.86,9.06,92.23,8.91Z"/><path class="cls-7" d="M94.12,8.66c-.14-.33-.47-.26-.86-.13s-.69.24-1,.38-.66.31-.51.64c.85,1.87,1.62,3.81,2.27,5.71l.2-6.43Z"/><path class="cls-6" d="M98.23,11c-.16-.62-.33-1.24-.53-1.86l-.82,6.38c.1.43.18.85.25,1.28a.3.3,0,0,0,.2.27.46.46,0,0,1,0-.24Z"/><path class="cls-7" d="M95.69,9c.35-.11.72-.19,1.09-.28s.76-.14.87.21l0,.17,0-.17c0-.38-.29-.46-.72-.5s-.78-.09-1.16-.11-.77,0-.79.38l-.41,7.82c0,.38.25.44.58.46s.58.05.87.08.59,0,.64-.36l.15-1.22A45.88,45.88,0,0,0,95.12,9.6C95,9.26,95.29,9.12,95.69,9Z"/><path class="cls-7" d="M97.65,8.93c-.11-.35-.46-.31-.87-.21S96,8.89,95.69,9s-.7.26-.57.6a45.88,45.88,0,0,1,1.76,5.88L97.7,9.1Z"/><path class="cls-6" d="M101.62,11.75c-.07-.63-.17-1.28-.28-1.93L99.6,16c0,.44,0,.86,0,1.29,0,.16,0,.24.13.28a.5.5,0,0,1,0-.23Z"/><path class="cls-7" d="M99.24,9.43c.38-.06.78-.09,1.17-.13s.82,0,.89.34l0,.18,0-.16c.11-.36-.26-.52-.7-.61l-1.21-.27c-.44-.07-.8-.09-.86.29L97.37,16.8c-.06.37.18.46.49.5l.78.18c.3.06.52.09.63-.28L99.6,16a23.88,23.88,0,0,0-.35-3c-.17-1-.4-2-.66-3C98.49,9.61,98.82,9.51,99.24,9.43Z"/><path class="cls-7" d="M101.3,9.64c-.07-.38-.45-.39-.89-.34s-.79.07-1.17.13-.75.18-.65.54c.26,1,.49,2,.66,3a23.88,23.88,0,0,1,.35,3l1.74-6.2Z"/><path class="cls-6" d="M104.77,13.05l.06-1.9L102.16,17l-.09,1.3a.33.33,0,0,0,.13.32.5.5,0,0,1,0-.23Z"/><path class="cls-7" d="M102.89,10.43l1.22.09c.42,0,.73.08.73.45v.18l.07-.16c.16-.34-.12-.52-.49-.68l-1.17-.48c-.44-.18-.83-.25-.94.11l-2.47,7.44c-.12.36.09.45.35.57l.72.29c.32.15.59.22.75-.12l.51-1.12a33.61,33.61,0,0,0,0-6.18C102.09,10.46,102.45,10.39,102.89,10.43Z"/><path class="cls-7" d="M104.84,11c0-.37-.31-.43-.73-.45l-1.22-.09c-.44,0-.8,0-.76.39a33.61,33.61,0,0,1,0,6.18l2.67-5.85Z"/><path class="cls-6" d="M107.75,14.64c.09-.63.16-1.27.22-1.91l-3.21,5.58c-.08.42-.16.84-.26,1.26,0,.16,0,.25.08.31a.49.49,0,0,1,.08-.22Z"/><path class="cls-7" d="M106.13,11.85l1.12.15c.42.05.77.18.74.55l0,.18.08-.15c.19-.33-.1-.55-.49-.77l-1-.52c-.39-.2-.72-.31-.87,0l-3.35,7.08c-.15.34.08.5.36.65l.78.39c.27.16.51.25.7-.08l.61-1.06a42.58,42.58,0,0,0,.62-6.13C105.39,11.82,105.71,11.8,106.13,11.85Z"/><path class="cls-7" d="M108,12.55c0-.37-.32-.5-.74-.55l-1.12-.15c-.42,0-.74,0-.75.33a42.58,42.58,0,0,1-.62,6.13L108,12.73Z"/><path class="cls-6" d="M110.59,16.76c.2-.61.37-1.27.52-1.89l-4.12,5a10.84,10.84,0,0,1-.52,1.16c-.07.14-.07.23,0,.3a.61.61,0,0,1,.13-.2Z"/><path class="cls-7" d="M109.28,13.64c.38.11.77.2,1.16.34s.79.34.71.71l0,.18.1-.13c.25-.29,0-.58-.42-.88s-.69-.48-1-.73-.72-.43-.92-.1l-4.12,6.66c-.19.32,0,.49.22.66a6.33,6.33,0,0,1,.63.44c.21.16.41.26.65,0l.78-.94a22.79,22.79,0,0,0,.92-2.9,29.76,29.76,0,0,0,.55-3.07C108.51,13.48,108.85,13.52,109.28,13.64Z"/><path class="cls-7" d="M111.15,14.69c.08-.37-.28-.55-.71-.71s-.78-.23-1.16-.34-.77-.16-.82.21a29.76,29.76,0,0,1-.55,3.07,22.79,22.79,0,0,1-.92,2.9l4.12-5Z"/><path class="cls-6" d="M113,19.87A11.65,11.65,0,0,0,114,18.14l-5.5,3.35a6.7,6.7,0,0,1-1,.8c-.13.09-.18.14-.17.18l.2-.11Z"/><path class="cls-7" d="M112.36,16.14c.38.24.77.5,1.16.77s.76.71.59,1.06l-.09.17.15-.09c.32-.2.09-.63-.25-1.13s-.65-.77-1-1.15-.71-.63-1-.36l-5.36,5.71c-.27.27-.14.44,0,.59s.25.28.34.4.19.21.52,0l1-.63a12.84,12.84,0,0,0,2.94-5.34C111.57,15.79,111.92,15.91,112.36,16.14Z"/><path class="cls-7" d="M114.11,18c.17-.35-.16-.73-.59-1.06s-.78-.53-1.16-.77-.79-.35-.9,0a12.84,12.84,0,0,1-2.94,5.34l5.5-3.35Z"/><path class="cls-6" d="M113.5,24.17a7.67,7.67,0,0,0,1.88-.89L109,23a6.29,6.29,0,0,1-1.23,0c-.15,0-.22,0-.24,0l.23,0Z"/><path class="cls-7" d="M114.87,20.19c.14.23.28.47.41.73s.22.53.32.81c.26.62.27,1.21,0,1.44l-.17.11h.17c.37,0,.46-.57.4-1.29a9.29,9.29,0,0,0-.38-1.86,3.31,3.31,0,0,0-.35-.81c-.14-.17-.3-.25-.47-.17l-7.14,3.22a.72.72,0,0,0-.29.19c0,.05-.06.08,0,.11s0,.09,0,.12,0,.06.42.09L109,23A7.35,7.35,0,0,0,114,19.67C114.23,19.35,114.56,19.64,114.87,20.19Z"/><path class="cls-7" d="M115.55,23.17c.32-.23.31-.82,0-1.44-.1-.28-.21-.55-.32-.81s-.27-.5-.41-.73c-.31-.55-.64-.84-.86-.52A7.35,7.35,0,0,1,109,23l6.43.33Z"/><path class="cls-6" d="M111.74,27.82a11.66,11.66,0,0,0,2,.27l-5.38-3.54c-.39-.14-.78-.29-1.17-.46-.14-.06-.23-.06-.28,0a.94.94,0,0,1,.2.12Z"/><path class="cls-7" d="M114.85,25.56a9.94,9.94,0,0,1-.24,1.56c-.12.59-.32,1-.7,1h-.19l.14.1c.31.2.61-.16.9-.69a10.2,10.2,0,0,0,.69-1.57c.22-.63.3-1.19-.08-1.27l-7.66-1.61c-.36-.08-.43,0-.46,0s-.1.19-.12.29-.13.28.19.49l1,.68a9.5,9.5,0,0,0,6.13.09C114.84,24.51,114.91,25,114.85,25.56Z"/><path class="cls-7" d="M113.91,28.1c.38,0,.58-.39.7-1a9.94,9.94,0,0,0,.24-1.56c.06-.59,0-1-.38-.92a9.5,9.5,0,0,1-6.13-.09l5.38,3.54Z"/><path class="cls-6" d="M109.14,30.36c.57.3,1.16.58,1.76.85l-4.18-4.9q-.56-.33-1.08-.69c-.14-.09-.23-.1-.31-.05a.55.55,0,0,1,.17.15Z"/><path class="cls-7" d="M112.48,29.53c-.18.38-.38.8-.59,1.16s-.47.73-.82.59l-.17-.07.11.13c.25.29.57.05.94-.28s.64-.64,1-1,.59-.77.29-1l-6.14-4.86c-.31-.23-.41-.13-.59,0s-.28.32-.46.48-.32.35-.08.64l.79.93a18.11,18.11,0,0,0,5.7,2.33C112.79,28.7,112.69,29.11,112.48,29.53Z"/><path class="cls-7" d="M111.07,31.28c.35.14.59-.18.82-.59s.41-.78.59-1.16.31-.83-.06-.89a18.11,18.11,0,0,1-5.7-2.33l4.18,4.9Z"/><path class="cls-6" d="M106.28,32.27c.51.38,1,.77,1.57,1.12l-3.36-5.49-1-.83a.33.33,0,0,0-.32-.09.73.73,0,0,1,.16.18Z"/><path class="cls-7" d="M109.54,32.15c-.23.32-.46.65-.7,1s-.53.6-.84.39l-.15-.1.09.15c.2.32.53.16.91-.08s.67-.45,1-.69.65-.54.42-.84l-4.81-6.18c-.23-.29-.43-.18-.68,0s-.43.31-.67.45-.45.34-.26.67l.64,1a31.62,31.62,0,0,0,5.14,3.41C110,31.47,109.8,31.81,109.54,32.15Z"/><path class="cls-7" d="M108,33.49c.31.21.57-.05.84-.39s.47-.63.7-1,.42-.68.09-.84a31.62,31.62,0,0,1-5.14-3.41l3.36,5.49Z"/><path class="cls-6" d="M103.29,33.8l1.43,1.28L102,29.26l-.92-.92a.32.32,0,0,0-.32-.11.49.49,0,0,1,.14.19Z"/><path class="cls-7" d="M106.46,34.09l-.76.82c-.29.31-.56.52-.84.28l-.14-.11.07.15c.16.34.5.24.88,0l1-.53c.38-.21.66-.43.48-.75l-3.9-6.8c-.18-.33-.43-.24-.71-.08l-.78.4c-.29.15-.52.3-.36.64l.53,1.11a44,44,0,0,0,4.67,4C106.93,33.49,106.74,33.77,106.46,34.09Z"/><path class="cls-7" d="M104.86,35.19c.28.24.55,0,.84-.28l.76-.82c.28-.32.47-.6.17-.82a44,44,0,0,1-4.67-4l2.76,5.82Z"/><path class="cls-6" d="M100.22,35c.43.48.87.93,1.32,1.39l-2.3-6-.85-1a.29.29,0,0,0-.31-.13.46.46,0,0,1,.13.2Z"/><path class="cls-7" d="M103.31,35.61l-.8.75c-.31.27-.59.46-.85.2l-.12-.13.06.16c.13.35.46.27.85.12s.69-.29,1-.43.68-.34.53-.69l-3.21-7.14c-.16-.35-.42-.28-.74-.15s-.55.24-.84.35-.56.26-.42.62l.43,1.14a59.78,59.78,0,0,0,4.31,4.42C103.82,35.07,103.61,35.33,103.31,35.61Z"/><path class="cls-7" d="M101.66,36.56c.26.26.54.07.85-.2l.8-.75c.3-.28.51-.54.24-.78a59.78,59.78,0,0,1-4.31-4.42l2.3,6Z"/><path class="cls-6" d="M97.09,36.06c.4.5.81,1,1.22,1.48l-1.89-6.16-.79-1a.33.33,0,0,0-.31-.16.42.42,0,0,1,.11.21Z"/><path class="cls-7" d="M100.12,36.84c-.28.23-.56.47-.85.69s-.6.42-.84.14l-.12-.13,0,.16c.12.36.45.3.84.18l1-.35c.39-.14.69-.29.56-.65l-2.66-7.36c-.13-.36-.41-.31-.74-.2s-.58.21-.88.3-.58.23-.47.59l.36,1.17q1.88,2.42,4,4.7C100.65,36.35,100.43,36.59,100.12,36.84Z"/><path class="cls-7" d="M98.43,37.67c.24.28.53.11.84-.14s.57-.46.85-.69.53-.49.28-.76q-2.1-2.28-4-4.7l1.89,6.16Z"/><path class="cls-6" d="M93.93,36.89c.37.52.75,1,1.13,1.55l-1.54-6.26-.73-1.07a.35.35,0,0,0-.31-.18.42.42,0,0,1,.11.22Z"/><path class="cls-7" d="M96.89,37.86l-.88.63c-.33.22-.62.38-.84.09l-.11-.14,0,.16c.09.37.42.33.82.23s.7-.18,1.06-.29.7-.24.59-.61l-2.2-7.51c-.1-.37-.39-.33-.72-.23l-.91.24c-.34.08-.6.2-.51.57l.29,1.18c1.16,1.68,2.39,3.33,3.69,4.93C97.44,37.39,97.21,37.62,96.89,37.86Z"/><path class="cls-7" d="M95.17,38.58c.22.29.51.13.84-.09l.88-.63c.32-.24.55-.47.32-.75-1.3-1.6-2.53-3.25-3.69-4.93l1.54,6.26Z"/><path class="cls-6" d="M90.73,37.55c.34.54.69,1.08,1,1.6l-1.21-6.32-.68-1.12a.29.29,0,0,0-.29-.18.51.51,0,0,1,.09.21Z"/><path class="cls-7" d="M93.63,38.67c-.3.2-.6.4-.91.58s-.64.35-.84,0l-.1-.15,0,.17c.07.37.4.35.8.27s.71-.14,1.07-.23.7-.2.62-.57l-1.77-7.63c-.09-.37-.38-.35-.72-.27l-.92.2c-.35.06-.62.16-.55.53l.23,1.21C91.64,34.56,92.78,36.28,94,38,94.2,38.24,94,38.45,93.63,38.67Z"/><path class="cls-7" d="M91.88,39.3c.2.3.5.16.84,0s.61-.38.91-.58.57-.43.36-.72c-1.21-1.67-2.35-3.39-3.42-5.12l1.21,6.32Z"/><path class="cls-6" d="M87.5,38c.32.56.64,1.11,1,1.66l-.89-6.38L87,32.17a.31.31,0,0,0-.28-.2.44.44,0,0,1,.08.22Z"/><path class="cls-7" d="M90.34,39.31c-.31.19-.62.37-.94.54s-.65.31-.84,0l-.09-.15,0,.16c.05.38.38.37.78.31L90.35,40c.4-.07.72-.17.65-.55l-1.37-7.71c-.07-.37-.36-.36-.7-.3l-.94.14c-.35.05-.62.14-.57.51l.16,1.22c1,1.78,2,3.55,3.15,5.29C90.93,38.91,90.68,39.11,90.34,39.31Z"/><path class="cls-7" d="M88.56,39.85c.19.31.5.19.84,0s.63-.35.94-.54.59-.4.39-.7c-1.11-1.74-2.16-3.51-3.15-5.29l.89,6.38Z"/><path class="cls-6" d="M84.26,38.37l.88,1.7-.56-6.41L84,32.48a.34.34,0,0,0-.28-.22.48.48,0,0,1,.08.23Z"/><path class="cls-7" d="M87,39.78c-.32.17-.63.34-1,.49s-.67.28-.84,0l-.08-.16v.17c0,.37.36.39.77.35L87,40.48c.4,0,.72-.13.68-.51l-1-7.77c0-.38-.34-.39-.69-.34l-.94.1c-.35,0-.63.1-.6.48l.11,1.22c.89,1.83,1.85,3.65,2.88,5.44C87.64,39.42,87.37,39.6,87,39.78Z"/><path class="cls-7" d="M85.22,40.23c.17.32.48.21.84,0s.64-.32,1-.49.62-.36.44-.68c-1-1.79-2-3.61-2.88-5.44l.56,6.41Z"/><path class="cls-6" d="M81,38.53l.79,1.74-.22-6.43-.49-1.21a.3.3,0,0,0-.26-.22.58.58,0,0,1,.06.23Z"/><path class="cls-7" d="M83.68,40.08l-1,.44c-.37.16-.69.24-.84-.09l-.08-.16v.17c0,.38.34.41.75.4s.72-.05,1.09-.07.73-.09.7-.46l-.58-7.81c0-.38-.31-.41-.66-.39s-.63,0-1,.06-.63.06-.62.44l0,1.23c.79,1.88,1.66,3.74,2.59,5.58C84.32,39.75,84.05,39.92,83.68,40.08Z"/><path class="cls-7" d="M81.86,40.43c.15.33.47.25.84.09l1-.44c.37-.16.64-.33.47-.66-.93-1.84-1.8-3.7-2.59-5.58l.22,6.43Z"/><path class="cls-6" d="M77.72,38.51l.69,1.78.14-6.43-.42-1.24a.32.32,0,0,0-.25-.24.54.54,0,0,1,.05.24Z"/><path class="cls-7" d="M80.33,40.21l-1,.38c-.38.14-.71.21-.84-.13l-.07-.17v.17c0,.38.32.43.73.44h1.09c.41,0,.74,0,.73-.42l-.16-7.83c0-.38-.29-.42-.64-.42h-.94c-.35,0-.63,0-.64.41l0,1.23c.68,1.93,1.45,3.82,2.28,5.72C81,39.91,80.7,40.07,80.33,40.21Z"/><path class="cls-7" d="M78.48,40.46c.13.34.46.27.84.13l1-.38c.37-.14.65-.3.5-.63-.83-1.9-1.6-3.79-2.28-5.72l-.14,6.43Z"/><path class="cls-6" d="M74.44,38.29,75,40.11l.54-6.41-.34-1.26a.33.33,0,0,0-.23-.25.51.51,0,0,1,0,.23Z"/><path class="cls-7" d="M77,40.15l-1,.32c-.39.12-.72.16-.84-.19L75,40.11v.17c0,.38.3.45.71.49l1.1.06c.41,0,.74,0,.76-.39l.28-7.83c0-.37-.26-.43-.61-.45l-.93,0c-.34,0-.62,0-.66.37l-.1,1.22c.56,2,1.21,3.9,1.94,5.85C77.63,39.89,77.34,40,77,40.15Z"/><path class="cls-7" d="M75.08,40.28c.12.35.45.31.84.19l1-.32c.39-.12.68-.26.55-.6-.73-1.95-1.38-3.88-1.94-5.85L75,40.11Z"/><path class="cls-6" d="M71.17,37.85c.14.62.29,1.24.46,1.86l1-6.36-.25-1.28a.32.32,0,0,0-.21-.27.46.46,0,0,1,0,.24Z"/><path class="cls-7" d="M73.57,39.88l-1.07.25c-.39.1-.73.11-.83-.24l0-.18,0,.17c-.06.37.27.47.68.53l1.11.14c.41.05.75,0,.79-.34L75,32.42c0-.38-.23-.45-.57-.49l-.92-.11c-.33-.05-.61-.06-.67.32l-.19,1.21c.42,2,.94,4,1.55,6C74.26,39.66,74,39.79,73.57,39.88Z"/><path class="cls-7" d="M71.67,39.89c.1.35.44.34.83.24l1.07-.25c.39-.09.69-.22.58-.57-.61-2-1.13-4-1.55-6l-1,6.36Z"/><path class="cls-6" d="M67.91,37.17c.1.63.21,1.26.32,1.89l1.48-6.27-.15-1.29a.29.29,0,0,0-.18-.28.37.37,0,0,1,0,.23Z"/><path class="cls-7" d="M70.18,39.37l-1.09.17c-.41.07-.76.05-.82-.3l0-.18,0,.16c-.09.37.23.5.64.59L70,40c.41.08.75.09.82-.28L72.1,32c.06-.37-.21-.46-.54-.53l-.89-.17c-.32-.07-.59-.1-.68.27l-.28,1.19a53.59,53.59,0,0,0,1.1,6.06C70.89,39.21,70.58,39.32,70.18,39.37Z"/><path class="cls-7" d="M68.27,39.24c.06.35.41.37.82.3l1.09-.17c.4,0,.71-.16.63-.52a53.59,53.59,0,0,1-1.1-6.06l-1.48,6.27Z"/><path class="cls-6" d="M64.71,36.19c0,.64.09,1.27.15,1.92l2-6.11,0-1.29c0-.17,0-.26-.14-.3a.5.5,0,0,1,0,.23Z"/><path class="cls-7" d="M66.8,38.6l-1.12.07c-.42,0-.76,0-.8-.38l0-.18,0,.16c-.12.35.19.51.6.64l1.11.32c.41.12.75.16.84-.21l2-7.58c.1-.37-.15-.47-.47-.57L68,30.63c-.32-.1-.58-.15-.7.21L66.9,32a47.4,47.4,0,0,0,.58,6.13C67.53,38.49,67.21,38.58,66.8,38.6Z"/><path class="cls-7" d="M64.88,38.29c0,.36.38.41.8.38l1.12-.07c.41,0,.73-.11.68-.47A47.4,47.4,0,0,1,66.9,32l-2,6.11Z"/><path class="cls-6" d="M61.59,34.88c0,.63-.05,1.27-.05,1.92L64.23,31c0-.43.08-.86.14-1.28a.32.32,0,0,0-.11-.31.56.56,0,0,1-.06.23Z"/><path class="cls-7" d="M63.45,37.5l-1.13,0c-.43,0-.78-.12-.78-.48V36.8l-.07.15c-.16.34.15.53.55.72l1.09.43c.4.16.75.25.87-.11l2.67-7.37c.12-.35-.11-.49-.4-.61l-.81-.32c-.28-.13-.54-.2-.69.15L64.23,31a40.79,40.79,0,0,0,0,6.16C64.2,37.48,63.87,37.52,63.45,37.5Z"/><path class="cls-7" d="M61.54,37c0,.36.35.45.78.48l1.13,0c.42,0,.75,0,.73-.39a40.79,40.79,0,0,1,0-6.16L61.54,36.8Z"/><path class="cls-6" d="M58.63,33.16c-.13.64-.22,1.27-.3,1.91l3.43-5.45c.09-.42.19-.84.3-1.25a.31.31,0,0,0-.05-.32.64.64,0,0,1-.09.22Z"/><path class="cls-7" d="M60.18,36c-.38-.06-.76-.11-1.14-.19s-.77-.21-.73-.58l0-.18-.09.14c-.2.32.09.55.48.79s.7.39,1.05.58.73.34.9,0l3.48-7c.16-.34,0-.5-.31-.64s-.51-.26-.73-.41-.5-.25-.7.07l-.65,1a34.05,34.05,0,0,0-.8,6.1C60.94,36.09,60.61,36.09,60.18,36Z"/><path class="cls-7" d="M58.31,35.25c0,.37.3.49.73.58s.76.13,1.14.19.76.07.78-.3a34.05,34.05,0,0,1,.8-6.1l-3.43,5.45Z"/><path class="cls-6" d="M55.91,31c-.21.61-.42,1.25-.58,1.87L59.54,28c.15-.39.33-.79.51-1.18.06-.15.06-.25,0-.32a.61.61,0,0,1-.13.2Z"/><path class="cls-7" d="M57.06,34.1a11.29,11.29,0,0,1-1.12-.37c-.42-.16-.75-.33-.66-.69l0-.17-.11.12c-.25.29,0,.56.37.85a11.57,11.57,0,0,0,1,.75c.37.27.7.44.91.13l4.39-6.49c.22-.31,0-.49-.2-.66a6.35,6.35,0,0,1-.64-.49c-.23-.18-.44-.3-.69,0l-.8.92a29.72,29.72,0,0,0-1,2.89c-.27,1-.49,2-.68,3C57.82,34.28,57.48,34.23,57.06,34.1Z"/><path class="cls-7" d="M55.28,33c-.09.36.24.53.66.69a11.29,11.29,0,0,0,1.12.37c.42.13.76.18.82-.19.19-1,.41-2,.68-3a29.72,29.72,0,0,1,1-2.89l-4.21,4.88Z"/><path class="cls-6" d="M53.56,28.41c-.31.56-.61,1.14-.89,1.74l5-4.09c.23-.36.47-.72.71-1.07.1-.13.11-.23.06-.31a.5.5,0,0,1-.16.17Z"/><path class="cls-7" d="M54.2,31.69c-.37-.17-.7-.38-1.06-.58s-.71-.45-.54-.8l.07-.16-.13.1c-.3.25-.09.57.23.92s.56.62.86.92.64.55.9.27l5.36-5.71c.25-.28.11-.47-.1-.67s-.35-.38-.52-.57-.38-.36-.67-.12l-1,.77a26.78,26.78,0,0,0-2.6,5.57C54.94,32,54.6,31.88,54.2,31.69Z"/><path class="cls-7" d="M52.6,30.31c-.17.35.15.57.54.8s.69.41,1.06.58.74.29.85-.06a26.78,26.78,0,0,1,2.6-5.57l-5,4.09Z"/><path class="cls-6" d="M51.7,25.42c-.41.5-.8,1-1.18,1.55l5.64-3.12c.29-.32.59-.63.89-.92.11-.12.13-.21.1-.3a.4.4,0,0,1-.18.15Z"/><path class="cls-7" d="M51.75,28.77l-1-.76c-.36-.28-.59-.59-.38-.89l.1-.15-.14.08c-.33.18-.2.55,0,.95l.69,1.07c.26.4.55.66.84.44l6.27-4.7c.31-.23.18-.42,0-.67l-.42-.64c-.15-.24-.28-.43-.62-.24l-1.07.59a22.76,22.76,0,0,0-1.91,2.37,24.94,24.94,0,0,0-1.65,2.65C52.43,29.2,52.1,29,51.75,28.77Z"/><path class="cls-7" d="M50.42,27.12c-.21.3,0,.61.38.89l1,.76c.35.27.68.43.85.1a24.94,24.94,0,0,1,1.65-2.65,22.76,22.76,0,0,1,1.91-2.37L50.52,27Z"/><path class="cls-6" d="M50.4,22.17c-.48.41-.95.85-1.42,1.31l6.1-2.08c.34-.27.68-.52,1-.76.13-.09.17-.18.15-.27a.46.46,0,0,1-.21.1Z"/><path class="cls-7" d="M49.86,25.45l-.8-.91c-.29-.34-.47-.67-.21-.94l.13-.12-.16.05c-.36.12-.27.49-.12.94s.33.77.49,1.16.4.76.74.58l7-3.48c.34-.17.28-.39.17-.66l-.31-.71c-.09-.27-.21-.48-.56-.36l-1.16.4a26.39,26.39,0,0,0-4.41,4.31C50.44,26,50.16,25.78,49.86,25.45Z"/><path class="cls-7" d="M48.85,23.6c-.26.27-.08.6.21.94l.8.91c.3.33.58.55.81.26a26.39,26.39,0,0,1,4.41-4.31L49,23.48Z"/><path class="cls-6" d="M49.64,18.56a7.14,7.14,0,0,0-.8.59l-.39.35a1.76,1.76,0,0,1-.39.34l6.35-1.09a3.58,3.58,0,0,1,1.18-.32l.23,0h-.23Z"/><path class="cls-7" d="M48.6,21.89l-.64-1c-.21-.38-.35-.72,0-.94l.14-.1-.16,0c-.38.06-.36.43-.28.88s.2.8.29,1.2.25.8.62.69L56,20.42c.36-.11.34-.35.27-.64s-.14-.51-.19-.77-.13-.53-.5-.47l-1.21.21a29.45,29.45,0,0,0-5.06,3.52C49.07,22.52,48.84,22.26,48.6,21.89Z"/><path class="cls-7" d="M47.92,19.94c-.31.22-.17.56,0,.94l.64,1c.24.37.47.63.75.38a29.45,29.45,0,0,1,5.06-3.52l-6.35,1.09Z"/><path class="cls-6" d="M50.77,14.55a10.56,10.56,0,0,0-2,.14l5.93,2.48a9.28,9.28,0,0,1,1.21.28c.15.05.23.05.27,0l-.22-.09Z"/><path class="cls-7" d="M48.08,17.4a8.61,8.61,0,0,1,0-.87c0-.24,0-.48,0-.72,0-.55.11-1,.51-1.09l.2,0-.16-.07c-.36-.15-.59.29-.76.86a7,7,0,0,0-.21.75l-.1.41c0,.15-.06.32-.09.49-.1.75-.19,1.36.24,1.35l7.92-.08H56c0,.05,0-.2.09-.32s0-.29-.3-.43l-1.13-.48a10.4,10.4,0,0,0-3,0,8,8,0,0,0-3.1,1.12C48.2,18.52,48.12,18.06,48.08,17.4Z"/><path class="cls-7" d="M48.55,14.72c-.4.06-.47.54-.51,1.09,0,.24,0,.48,0,.72a8.61,8.61,0,0,0,0,.87c0,.66.12,1.12.5.89a8,8,0,0,1,3.1-1.12,10.4,10.4,0,0,1,3,0l-5.93-2.48Z"/><path class="cls-6" d="M53.56,11.55a9.6,9.6,0,0,0-1.84-.84l4,5a10.41,10.41,0,0,1,.93.83c.11.11.18.14.22.13a1,1,0,0,1-.14-.18Z"/><path class="cls-7" d="M49.85,12.86a10.78,10.78,0,0,1,.66-1.43c.31-.51.64-.92,1-.78l.19.06-.11-.13c-.23-.3-.67,0-1.12.44a10,10,0,0,0-1.12,1.32c-.38.53-.57,1-.24,1.18L56,17.35c.33.19.41.11.48,0a1.43,1.43,0,0,1,.19-.24c.08-.08.13-.17-.1-.47l-.77-1A9.18,9.18,0,0,0,50,13.83C49.6,13.84,49.63,13.4,49.85,12.86Z"/><path class="cls-7" d="M51.53,10.65c-.38-.14-.71.27-1,.78a10.78,10.78,0,0,0-.66,1.43c-.22.54-.25,1,.13,1a9.18,9.18,0,0,1,5.78,1.89l-4-5Z"/><path class="cls-6" d="M57.13,10.11a14,14,0,0,0-1.3-1.49l1.8,6.18c.23.36.44.72.64,1.09.08.14.15.19.23.19a.71.71,0,0,1-.08-.21Z"/><path class="cls-7" d="M53.51,9.65a11.91,11.91,0,0,1,1.1-.92c.43-.31.82-.52,1.09-.24l.13.13,0-.16c-.11-.36-.53-.3-1.06-.1A13.06,13.06,0,0,0,53.32,9c-.53.27-.92.57-.72.9l4.19,6.61c.2.32.33.3.48.22s.27-.14.45-.2.36-.16.25-.52l-.34-1.18a12.48,12.48,0,0,0-4.42-4.26C52.87,10.35,53.11,10,53.51,9.65Z"/><path class="cls-7" d="M55.7,8.49c-.27-.28-.66-.07-1.09.24a11.91,11.91,0,0,0-1.1.92c-.4.36-.64.7-.3.89a12.48,12.48,0,0,1,4.42,4.26l-1.8-6.18Z"/><path class="cls-6" d="M60.67,9.72c-.27-.58-.56-1.17-.87-1.74l.34,6.43c.16.4.31.8.45,1.21.06.15.13.21.23.22a.46.46,0,0,1,0-.23Z"/><path class="cls-7" d="M57.6,8.32c.38-.2.75-.37,1.13-.54s.79-.28,1,0L59.8,8V7.81c0-.38-.41-.39-.88-.36s-.86.09-1.3.17-.9.21-.81.58l1.66,7.66c.08.36.28.36.54.32s.47-.06.71-.09.51-.08.49-.46l-.06-1.22a21.77,21.77,0,0,0-3-5.37C56.88,8.75,57.18,8.52,57.6,8.32Z"/><path class="cls-7" d="M59.71,7.82c-.19-.32-.55-.23-1,0s-.75.34-1.13.54-.72.43-.49.72a21.77,21.77,0,0,1,3,5.37L59.8,8Z"/><path class="cls-6" d="M64.06,9.88q-.27-.92-.6-1.83l-.53,6.42.33,1.25c0,.16.11.24.21.26a.55.55,0,0,1,0-.23Z"/><path class="cls-7" d="M61.41,8.05c.37-.13.73-.23,1.1-.35s.77-.16.89.18l.06.17,0-.17c0-.37-.32-.44-.76-.47l-1.19,0c-.46,0-.82,0-.82.42l.11,7.83c0,.38.25.43.56.43l.84,0c.32,0,.58,0,.61-.38l.1-1.22a36.6,36.6,0,0,0-2.08-5.8C60.69,8.34,61,8.18,61.41,8.05Z"/><path class="cls-7" d="M63.4,7.88c-.12-.34-.48-.3-.89-.18s-.73.22-1.1.35-.72.29-.56.62a36.6,36.6,0,0,1,2.08,5.8l.53-6.42Z"/><path class="cls-6" d="M67.35,10.37c-.13-.62-.27-1.25-.42-1.87l-1.1,6.35.23,1.28a.3.3,0,0,0,.21.27.35.35,0,0,1,0-.23Z"/><path class="cls-7" d="M65,8.3l1.08-.23c.41-.08.74-.1.83.26l.05.17,0-.16c.06-.38-.27-.48-.68-.54s-.74-.12-1.12-.16-.78,0-.82.33l-.83,7.78c0,.38.22.45.55.49l.89.13c.33.05.61.06.67-.32l.21-1.2a53.89,53.89,0,0,0-1.47-6C64.25,8.51,64.56,8.39,65,8.3Z"/><path class="cls-7" d="M66.88,8.33c-.09-.36-.42-.34-.83-.26L65,8.3c-.41.09-.72.21-.61.56a53.89,53.89,0,0,1,1.47,6l1.1-6.35Z"/><path class="cls-6" d="M70.55,11.08l-.3-1.89-1.49,6.26.16,1.3a.32.32,0,0,0,.19.29.66.66,0,0,1,0-.24Z"/><path class="cls-7" d="M68.36,8.87l1.07-.16c.4-.05.73-.06.8.3l0,.18,0-.16c.09-.37-.22-.49-.62-.58l-1.08-.23c-.4-.09-.74-.1-.81.27l-1.46,7.69c-.07.37.19.46.53.54l.91.19c.34.08.63.1.72-.27l.28-1.19c-.26-2-.6-4-1-6.07C67.65,9,68,8.93,68.36,8.87Z"/><path class="cls-7" d="M70.23,9c-.07-.36-.4-.35-.8-.3l-1.07.16c-.4.06-.71.16-.63.51.43,2,.77,4,1,6.07l1.49-6.26Z"/><path class="cls-6" d="M73.69,11.94,73.48,10,71.7,16.23l.1,1.3a.33.33,0,0,0,.18.3.53.53,0,0,1,0-.24Z"/><path class="cls-7" d="M71.64,9.63l1.06-.1c.4,0,.72,0,.76.34l0,.17,0-.16c.11-.36-.19-.49-.58-.6l-1-.28c-.4-.11-.72-.15-.82.22l-1.91,7.59c-.09.37.17.49.52.58l.92.24c.34.1.63.14.73-.22l.35-1.18c-.18-2-.41-4.07-.72-6.12C70.93,9.75,71.24,9.67,71.64,9.63Z"/><path class="cls-7" d="M73.46,9.87c0-.36-.36-.38-.76-.34l-1.06.1c-.4,0-.71.12-.66.48.31,2.05.54,4.08.72,6.12L73.48,10Z"/><path class="cls-6" d="M76.77,12.93,76.64,11l-2,6.12.06,1.3a.31.31,0,0,0,.17.31.47.47,0,0,1,0-.23Z"/><path class="cls-7" d="M74.83,10.54l1-.06c.4,0,.72,0,.75.37V11l0-.15c.12-.36-.17-.51-.55-.63l-1-.32c-.38-.12-.7-.17-.81.19l-2.25,7.5c-.11.37.16.49.5.6l.92.29c.34.11.63.16.75-.2l.39-1.16c-.11-2-.25-4.09-.46-6.14C74.12,10.64,74.44,10.57,74.83,10.54Z"/><path class="cls-7" d="M76.63,10.85c0-.36-.35-.39-.75-.37l-1,.06c-.39,0-.71.1-.67.46.21,2.05.35,4.1.46,6.14l2-6.12Z"/><path class="cls-6" d="M79.8,14l-.06-1.9-2.22,6,0,1.31a.34.34,0,0,0,.17.31.4.4,0,0,1,0-.23Z"/><path class="cls-7" d="M78,11.57l1,0c.4,0,.72,0,.73.39v.18L79.8,12c.13-.36-.16-.51-.53-.64l-1-.35c-.37-.13-.69-.2-.81.16l-2.53,7.42c-.12.35.15.49.49.61l.92.32c.34.13.63.19.76-.17l.42-1.15q-.06-3.06-.25-6.15C77.25,11.64,77.56,11.58,78,11.57Z"/><path class="cls-7" d="M79.73,11.93c0-.36-.33-.4-.73-.39l-1,0c-.39,0-.7.07-.68.43q.2,3.09.25,6.15l2.22-6Z"/><path class="cls-6" d="M82.8,15.18V13.27l-2.38,6v1.31a.3.3,0,0,0,.15.31.4.4,0,0,1,0-.23Z"/><path class="cls-7" d="M81,12.69h1c.39,0,.71,0,.72.41v.17l.06-.15c.14-.36-.14-.51-.5-.66l-1-.38c-.37-.14-.68-.21-.81.15L77.8,19.56c-.13.36.13.5.47.63l.91.35c.34.14.63.2.78-.15l.45-1.13q0-3.07-.07-6.16C80.32,12.74,80.64,12.69,81,12.69Z"/><path class="cls-7" d="M82.79,13.1c0-.37-.33-.41-.72-.41H81c-.39,0-.71.05-.69.41q.09,3.09.07,6.16l2.38-6Z"/><path class="cls-6" d="M85.76,16.42l0-1.91-2.53,5.93,0,1.31a.32.32,0,0,0,.15.32.43.43,0,0,1,0-.24Z"/><path class="cls-7" d="M84.06,13.89l1,0c.39,0,.7.06.7.43v.17l.06-.15c.15-.35-.12-.51-.48-.67l-1-.4c-.37-.15-.68-.23-.82.12l-2.94,7.26c-.14.35.12.51.45.64l.91.38c.34.15.63.22.78-.13l.48-1.12q.09-3.07.09-6.16C83.35,13.92,83.67,13.88,84.06,13.89Z"/><path class="cls-7" d="M85.8,14.34c0-.37-.31-.42-.7-.43l-1,0c-.39,0-.71,0-.7.39q0,3.09-.09,6.16l2.53-5.93Z"/><path class="cls-6" d="M88.69,17.73l.08-1.9-2.66,5.86L86,23a.34.34,0,0,0,.14.33.5.5,0,0,1,0-.23Z"/><path class="cls-7" d="M87.05,15.16l1,.05c.39,0,.7.08.69.44v.18l.07-.16c.16-.34-.11-.51-.47-.67l-1-.43c-.36-.16-.66-.24-.82.1l-3.11,7.19c-.15.35.1.51.44.65l.9.4c.33.15.62.24.78-.11l.51-1.11c.11-2.05.18-4.1.23-6.16C86.35,15.17,86.66,15.14,87.05,15.16Z"/><path class="cls-7" d="M88.78,15.65c0-.36-.3-.42-.69-.44l-1-.05c-.39,0-.7,0-.71.37,0,2.06-.12,4.11-.23,6.16l2.66-5.86Z"/><polyline class="cls-6" points="88.69 17.73 91.73 17.22 91.27 22.24 89.98 21.21"/><path class="cls-7" d="M90,16.5l1,.08c.39,0,.71.1.69.46v.18l.07-.15c.17-.34-.1-.52-.46-.69l-1-.46c-.36-.16-.66-.26-.82.09l-3.29,7.1c-.16.35.09.51.42.67l.88.42c.33.15.61.24.78-.1L88.9,23q.25-3,.39-6.14C89.31,16.5,89.62,16.47,90,16.5Z"/><path class="cls-7" d="M91.74,17c0-.36-.3-.43-.69-.46l-1-.08c-.39,0-.7,0-.72.36Q89.16,20,88.9,23l2.83-5.78Z"/><ellipse class="cls-8" cx="44.31" cy="18.36" rx="4.87" ry="1.11"/><ellipse class="cls-8" cx="44.31" cy="19.73" rx="4.87" ry="1.11"/><circle class="cls-9" cx="121.62" cy="19.85" r="1.35"/><polygon class="cls-9" points="116.72 29.59 118.31 30.14 120.27 23.59 119.05 23.18 116.72 29.59"/><path class="cls-10" d="M120.51,16.78a1.64,1.64,0,0,1,1.66-1.46h0l-.48-.6.6-.49,0-.3-.49-.6.61-.49,0-.3-.49-.6.61-.49,0-.3-.48-.6.6-.49.11-.93L121.62,9l-6,21.16,1.15-.29,4.89-10,.14-1.25A1.65,1.65,0,0,1,120.51,16.78Z"/><path class="cls-10" d="M124.09,9.25l-1.23-.13-.11.93.49.61-.61.48,0,.3.49.61-.61.48,0,.3.48.61-.6.48,0,.3.49.61-.61.48h0a1.64,1.64,0,0,1-.35,3.24l-.14,1.25,1.87,6.66.84.09Z"/></g></svg>